<?xml version="1.0" encoding="UTF-8"?>
<svg version="1.1" xmlns="http://www.w3.org/2000/svg" width="500" height="500">
<path d="M0 0 C2.2890625 0.55859375 2.2890625 0.55859375 5 2 C6.36950687 4.39211221 7.38625598 6.52005837 8.375 9.0625 C8.66608643 9.77204834 8.95717285 10.48159668 9.25708008 11.21264648 C9.87142882 12.71319863 10.47878794 14.21662897 11.07958984 15.72265625 C11.97388038 17.935373 12.9098669 20.12469653 13.86328125 22.3125 C21.42761256 39.80463965 29.17527626 63.03897784 24 82.1875 C22.15194551 89.23320773 22.70501941 94.33962072 25.5 101 C25.76699707 101.63808594 26.03399414 102.27617187 26.30908203 102.93359375 C32.13477832 116.58788134 39.27394335 129.76964171 46.51953125 142.71484375 C71.40881057 187.2138583 71.40881057 187.2138583 65.6875 209.78125 C63.3981941 217.16946448 59.88128951 223.02855584 55 229 C55.433125 229.7425 55.86625 230.485 56.3125 231.25 C60.0524268 238.81932553 62.37081 247.71862897 60 256 C57.35503134 261.60733356 53.65398024 263.94687868 48 266 C35.82355949 269.0580344 21.56288861 264.84525787 9.46704102 262.50854492 C1.25134856 260.93386299 -6.85392723 259.69910011 -15.23046875 259.50390625 C-15.92263992 259.47312485 -16.6148111 259.44234344 -17.32795715 259.41062927 C-22.96077657 259.40445042 -25.17758501 261.19236919 -29 265 C-29.721875 265.9075 -30.44375 266.815 -31.1875 267.75 C-33 270 -33 270 -36 271 C-42.54098361 271.2295082 -42.54098361 271.2295082 -45 270 C-45 269.34 -45 268.68 -45 268 C-45.66 268 -46.32 268 -47 268 C-48.96637279 264.06725442 -48.70870778 259.15600859 -47.3515625 255.02734375 C-44.64529494 249.76515683 -40.5294719 246.22097043 -34.93359375 244.28515625 C-25.53949733 241.98284639 -15.70135192 241.8488175 -6.08203125 241.90234375 C-5.09877365 241.9037587 -4.11551605 241.90517365 -3.10246277 241.90663147 C-0.00577567 241.91216537 3.09083528 241.92470486 6.1875 241.9375 C8.30533749 241.94252356 10.42317612 241.94708496 12.54101562 241.95117188 C17.69403912 241.96211302 22.84700671 241.97933079 28 242 C27.34 240.68 26.68 239.36 26 238 C19.53104333 237.90328802 13.13560092 237.93688172 6.6875 238.5 C-12.85730332 240.01357063 -31.53638253 240.84650772 -49 231 C-49 230.34 -49 229.68 -49 229 C-49.70125 228.814375 -50.4025 228.62875 -51.125 228.4375 C-56.98997798 225.50501101 -60.49546321 219.93179766 -63 214 C-66.66716921 201.3673944 -63.86960496 187.21780189 -60 175 C-59.63777344 173.83082031 -59.27554688 172.66164063 -58.90234375 171.45703125 C-56.03695264 162.86085793 -52.11308073 154.96719362 -47.984375 146.93408203 C-46.45901694 143.93708636 -45.00113886 140.91481625 -43.5625 137.875 C-43.08941406 136.88242187 -42.61632812 135.88984375 -42.12890625 134.8671875 C-40.11880294 129.76194241 -39.86214295 124.88246199 -39.875 119.4375 C-39.87242187 118.34308594 -39.86984375 117.24867188 -39.8671875 116.12109375 C-39.99179958 113.19270978 -40.14527099 110.7996989 -41 108 C-42.85028843 106.35442355 -42.85028843 106.35442355 -45.25390625 105.17578125 C-46.10791016 104.70462891 -46.96191406 104.23347656 -47.84179688 103.74804688 C-48.73962891 103.27431641 -49.63746094 102.80058594 -50.5625 102.3125 C-52.33815408 101.35676911 -54.11050223 100.39486131 -55.87890625 99.42578125 C-56.6685376 99.00723877 -57.45816895 98.58869629 -58.27172852 98.1574707 C-58.84205811 97.77550537 -59.4123877 97.39354004 -60 97 C-60 96.34 -60 95.68 -60 95 C-60.8353125 94.7215625 -60.8353125 94.7215625 -61.6875 94.4375 C-65.1382847 92.29241762 -66.75414279 89.36878581 -69 86 C-73.95 86.495 -73.95 86.495 -79 87 C-79 85.68 -79 84.36 -79 83 C-74.05 82.01 -74.05 82.01 -69 81 C-69.33 79.68 -69.66 78.36 -70 77 C-72.31 76.67 -74.62 76.34 -77 76 C-77 74.68 -77 73.36 -77 72 C-76.41992188 72.04382813 -75.83984375 72.08765625 -75.2421875 72.1328125 C-72.55579205 72.12394651 -70.53782515 71.90875917 -68 71 C-66.13326196 68.75901254 -64.94104928 66.44774481 -63.609375 63.85546875 C-60.86296172 58.982585 -57.06797704 54.82389841 -53 51 C-52.34 51 -51.68 51 -51 51 C-50.96261719 50.27039063 -50.92523438 49.54078125 -50.88671875 48.7890625 C-50.07773992 35.94057513 -48.25761882 23.31692949 -44.4375 11 C-44.12280762 9.98522583 -44.12280762 9.98522583 -43.80175781 8.94995117 C-42.85379266 6.05551253 -42.18305156 4.18305156 -40 2 C-37.625 1.8125 -37.625 1.8125 -35 3 C-31.20764389 9.41362661 -29.14044891 17.04608977 -26.75 24.0625 C-26.38648438 25.11888672 -26.02296875 26.17527344 -25.6484375 27.26367188 C-24.76203389 29.84124028 -23.87930443 32.42000304 -23 35 C-18.545 34.505 -18.545 34.505 -14 34 C-8.46115025 20.49016357 -8.46115025 20.49016357 -4.80078125 6.3828125 C-3.81329591 3.44444149 -2.30678618 2.02019971 0 0 Z " fill="#070707" transform="translate(250,120)"/>
<path d="M0 0 C3.78741474 1.58542943 4.08455654 3.73873916 5.6237793 7.40234375 C7.5311742 12.28443418 9.24738801 17.22670833 10.9375 22.1875 C11.30101562 23.24388672 11.66453125 24.30027344 12.0390625 25.38867188 C12.92546611 27.96624028 13.80819557 30.54500304 14.6875 33.125 C19.1425 32.63 19.1425 32.63 23.6875 32.125 C24.3475 30.475 25.0075 28.825 25.6875 27.125 C26.0175 27.125 26.3475 27.125 26.6875 27.125 C26.74149736 28.58292884 26.78029177 30.04142712 26.8125 31.5 C26.83570313 32.31210938 26.85890625 33.12421875 26.8828125 33.9609375 C26.6875 36.125 26.6875 36.125 24.6875 38.125 C25.0175 38.785 25.3475 39.445 25.6875 40.125 C25.0275 40.125 24.3675 40.125 23.6875 40.125 C23.3575 41.115 23.0275 42.105 22.6875 43.125 C23.6775 43.455 24.6675 43.785 25.6875 44.125 C25.6875 44.785 25.6875 45.445 25.6875 46.125 C25.0275 46.125 24.3675 46.125 23.6875 46.125 C23.6875 46.785 23.6875 47.445 23.6875 48.125 C23.0275 48.125 22.3675 48.125 21.6875 48.125 C21.6875 48.785 21.6875 49.445 21.6875 50.125 C22.6775 50.455 23.6675 50.785 24.6875 51.125 C27.0948459 53.5323459 27.06144558 54.30556702 27.1875 57.625 C27.08847273 63.81870545 24.47159035 68.33734311 20.6875 73.125 C17.2522952 75.41513653 15.702169 75.30342973 11.6875 75.125 C11.3575 74.135 11.0275 73.145 10.6875 72.125 C8.7075 71.795 6.7275 71.465 4.6875 71.125 C4.3575 72.445 4.0275 73.765 3.6875 75.125 C-1.2625 76.115 -1.2625 76.115 -6.3125 77.125 C-6.3125 75.805 -6.3125 74.485 -6.3125 73.125 C-7.3025 72.795 -8.2925 72.465 -9.3125 72.125 C-8.69375 71.5475 -8.075 70.97 -7.4375 70.375 C-4.91245199 67.70141976 -3.346208 65.6952311 -3.265625 61.94140625 C-3.82111604 57.72405983 -4.4370782 54.00087172 -6.3125 50.125 C-7.9625 50.125 -9.6125 50.125 -11.3125 50.125 C-11.91500581 33.305046 -11.46285392 16.3015211 -3.3125 1.125 C-2.3125 0.125 -2.3125 0.125 0 0 Z " fill="#0B0B0B" transform="translate(212.3125,121.875)"/>
<path d="M0 0 C1.52299523 2.93720508 2.80100302 5.9168649 4 9 C8.455 8.505 8.455 8.505 13 8 C13.66 6.35 14.32 4.7 15 3 C15.33 3 15.66 3 16 3 C16.05399736 4.45792884 16.09279177 5.91642712 16.125 7.375 C16.14820313 8.18710938 16.17140625 8.99921875 16.1953125 9.8359375 C16 12 16 12 14 14 C14.33 14.66 14.66 15.32 15 16 C14.34 16 13.68 16 13 16 C12.67 16.99 12.34 17.98 12 19 C12.99 19.33 13.98 19.66 15 20 C15 20.66 15 21.32 15 22 C14.34 22 13.68 22 13 22 C13 22.66 13 23.32 13 24 C12.34 24 11.68 24 11 24 C11 24.66 11 25.32 11 26 C11.99 26.33 12.98 26.66 14 27 C16.4073459 29.4073459 16.37394558 30.18056702 16.5 33.5 C16.40097273 39.69370545 13.78409035 44.21234311 10 49 C6.52957297 51.31361802 5.08165827 51.51020728 1 51 C-1.77053117 48.13841851 -2.41179652 46.06222783 -2.375 42.125 C-2.21537741 36.71379423 -0.88251069 32.88251069 3 29 C3 27.68 3 26.36 3 25 C1.68 24.34 0.36 23.68 -1 23 C-1.33266291 16.79029227 -0.45029331 12.71735105 2 7 C1.34 7 0.68 7 0 7 C0 4.69 0 2.38 0 0 Z " fill="#151515" transform="translate(223,146)"/>
<path d="M0 0 C2.25 -0.0625 2.25 -0.0625 5 1 C6.83549319 3.79631093 7.87975015 6.86152224 9 10 C9.38671875 11.05445313 9.7734375 12.10890625 10.171875 13.1953125 C12.29742734 19.23712222 12.29742734 19.23712222 13 22 C12.67 22.66 12.34 23.32 12 24 C11.67 22.68 11.34 21.36 11 20 C10.01 20 9.02 20 8 20 C8.33 22.31 8.66 24.62 9 27 C8.01 27 7.02 27 6 27 C5.360625 27.20625 4.72125 27.4125 4.0625 27.625 C1.41429756 28.10649135 0.25393897 27.36846295 -2 26 C-2.33 26.66 -2.66 27.32 -3 28 C-3.99 28 -4.98 28 -6 28 C-6 28.99 -6 29.98 -6 31 C-6.66 31 -7.32 31 -8 31 C-8 32.65 -8 34.3 -8 36 C-8.33 36 -8.66 36 -9 36 C-8.84206961 28.00297942 -7.63274043 20.65565354 -5.625 12.9375 C-5.41593018 12.11660889 -5.20686035 11.29571777 -4.99145508 10.44995117 C-3.8931039 6.39891689 -2.92236634 3.15307947 0 0 Z " fill="#1E1E1E" transform="translate(210,122)"/>
<path d="M0 0 C0.33 0 0.66 0 1 0 C1 4.62 1 9.24 1 14 C2.65 14 4.3 14 6 14 C9.01943575 17.34294672 9.83524387 21.25991319 10.1875 25.6484375 C9.84846993 29.90043964 8.00298927 33.02609537 5 36 C2.57489865 37.20505036 0.7166337 37.57386138 -2 38 C-5.77755334 33.27805833 -5.30096975 28.74071928 -5 23 C-8.37462715 23.54723683 -10.08235 24.0549 -13 26 C-11.49017269 22.57143381 -9.48286031 20.04321784 -7 17.25 C-6.29875 16.45078125 -5.5975 15.6515625 -4.875 14.828125 C-3 13 -3 13 -1 13 C-0.67 8.71 -0.34 4.42 0 0 Z " fill="#7A7A7A" transform="translate(200,158)"/>
<path d="M0 0 C-0.87978516 0.35384766 -0.87978516 0.35384766 -1.77734375 0.71484375 C-8.18523901 4.41993609 -11.61402115 12.54433666 -13.58984375 19.3828125 C-13.72519531 19.91648437 -13.86054688 20.45015625 -14 21 C-12.02 21 -10.04 21 -8 21 C-7.67 21.66 -7.34 22.32 -7 23 C-4.58354218 23.16687448 -4.58354218 23.16687448 -2 23 C0.1385485 20.8614515 0.42655063 19.86724686 1 17 C1.99 17 2.98 17 4 17 C3.67 16.01 3.34 15.02 3 14 C4.43554025 13.49440092 5.8735202 12.9957251 7.3125 12.5 C8.11300781 12.2215625 8.91351563 11.943125 9.73828125 11.65625 C12 11 12 11 15 11 C15.66 10.01 16.32 9.02 17 8 C17 9.32 17 10.64 17 12 C19.31 12 21.62 12 24 12 C24.33 10.68 24.66 9.36 25 8 C25.495 9.485 25.495 9.485 26 11 C27.87387216 11.80212628 27.87387216 11.80212628 30.0625 12.1875 C30.79597656 12.34605469 31.52945313 12.50460937 32.28515625 12.66796875 C32.85105469 12.77753906 33.41695312 12.88710938 34 13 C34 13.66 34 14.32 34 15 C35.28777344 14.95875 36.57554687 14.9175 37.90234375 14.875 C42.99875733 14.875 47.62936566 15.79818291 52.5625 17 C53.38041016 17.19078125 54.19832031 17.3815625 55.04101562 17.578125 C57.02943044 18.04325127 59.01503756 18.52035427 61 19 C61 19.33 61 19.66 61 20 C56.0611677 20.13894413 51.6972053 19.67692815 46.875 18.625 C45.54725 18.3484538 44.21911643 18.07374346 42.890625 17.80078125 C41.60671875 17.53652344 40.3228125 17.27226562 39 17 C31.70236453 15.55967721 24.49197992 14.75675044 17.0625 14.5625 C16.3523877 14.52809814 15.64227539 14.49369629 14.91064453 14.45825195 C11.03814212 14.42663034 8.59264309 14.94715101 5.6328125 17.35546875 C2.97397462 19.92830556 2.97397462 19.92830556 0.8125 22.75 C-1 25 -1 25 -4 26 C-10.54098361 26.2295082 -10.54098361 26.2295082 -13 25 C-13 24.34 -13 23.68 -13 23 C-13.66 23 -14.32 23 -15 23 C-16.96637279 19.06725442 -16.70870778 14.15600859 -15.3515625 10.02734375 C-12.3377153 4.1670853 -6.98757142 -1.05872294 0 0 Z " fill="#878787" transform="translate(218,365)"/>
<path d="M0 0 C5.14109236 7.71163855 4.97146714 18.70924041 3.25 27.5625 C1.14852474 35.85165243 -2.61218771 42.40890964 -8 49 C-7.566875 49.7425 -7.13375 50.485 -6.6875 51.25 C-2.93016893 58.85455045 -0.70559767 67.67216934 -3 76 C-4.5625 79.0625 -4.5625 79.0625 -6 81 C-7.4552777 78.0894446 -6.63516661 76.04150948 -6.0625 72.875 C-5.86785156 71.77929688 -5.67320312 70.68359375 -5.47265625 69.5546875 C-5.31667969 68.71164062 -5.16070312 67.86859375 -5 67 C-5.66 67 -6.32 67 -7 67 C-6.67 65.02 -6.34 63.04 -6 61 C-6.66 61 -7.32 61 -8 61 C-8.33 57.7 -8.66 54.4 -9 51 C-9.66 51 -10.32 51 -11 51 C-11.625 48.625 -11.625 48.625 -12 46 C-11.34 45.34 -10.68 44.68 -10 44 C-10 43.01 -10 42.02 -10 41 C-9.195625 40.773125 -8.39125 40.54625 -7.5625 40.3125 C-6.716875 39.879375 -5.87125 39.44625 -5 39 C-4.26259783 36.48051222 -4.26259783 36.48051222 -4 34 C-3.01 33.505 -3.01 33.505 -2 33 C-0.86649466 30.98330173 -0.86649466 30.98330173 0 29 C0.66 29 1.32 29 2 29 C1.34 19.43 0.68 9.86 0 0 Z " fill="#929292" transform="translate(313,300)"/>
<path d="M0 0 C2.83495679 0.6542208 3.6746269 1.28716379 5.4375 3.5625 C5.9175835 8.1451152 4.691215 12.04600875 2.6875 16.125 C0.4375 18.5625 0.4375 18.5625 -2.1875 19.0625 C-4.5625 18.5625 -4.5625 18.5625 -6.5625 16.5625 C-7.33523405 11.5666845 -7.00921633 7.52211286 -4.875 2.9375 C-2.5625 0.5625 -2.5625 0.5625 0 0 Z " fill="#171717" transform="translate(229.5625,175.4375)"/>
<path d="M0 0 C2.29006758 1.64565321 2.91666881 2.60595328 3.50390625 5.3828125 C3.66214094 12.78819579 1.97747137 17.45514847 -3 23 C-5.82883747 24.41441874 -7.87376745 24.31900332 -11 24 C-13.7765688 21.14540117 -14.41176947 19.0593332 -14.375 15.125 C-14.19434605 9.54115067 -12.54513268 6.09696578 -9.25 1.625 C-6.04799592 -0.6875585 -3.85233601 -0.49029731 0 0 Z M-10.3125 5.375 C-12.44671633 9.95961286 -12.77273405 14.0041845 -12 19 C-10.17526091 21.18891761 -10.17526091 21.18891761 -7.625 21.5 C-4.75897828 21.22380785 -4.75897828 21.22380785 -2.75 18.5625 C-0.746285 14.48350875 0.4800835 10.5826152 0 6 C-1.7628731 3.72466379 -2.60254321 3.0917208 -5.4375 2.4375 C-8.23459385 2.80517655 -8.23459385 2.80517655 -10.3125 5.375 Z " fill="#CBCBCB" transform="translate(235,173)"/>
<path d="M0 0 C3.1875 0.875 3.1875 0.875 6 2 C6.77983458 11.89523434 6.77983458 11.89523434 3.75 16.1875 C1 18 1 18 -3 18 C-4.23004981 15.53990037 -4.13314027 13.86827194 -4.125 11.125 C-4.12757813 10.26132813 -4.13015625 9.39765625 -4.1328125 8.5078125 C-4.00720627 6.13607131 -3.8367074 4.22160241 -3 2 C-2.01 1.34 -1.02 0.68 0 0 Z " fill="#161616" transform="translate(201,175)"/>
<path d="M0 0 C1.95803507 -0.05389087 3.91648909 -0.09274217 5.875 -0.125 C7.51082031 -0.15980469 7.51082031 -0.15980469 9.1796875 -0.1953125 C12 0 12 0 14 2 C14.125 4.625 14.125 4.625 14 7 C10.25725353 7.84923086 6.69653094 8.18448517 2.86328125 8.31640625 C1.65752441 8.35838135 0.45176758 8.40035645 -0.79052734 8.44360352 C-2.07652832 8.48283936 -3.3625293 8.5220752 -4.6875 8.5625 C-5.67136688 8.59426834 -5.67136688 8.59426834 -6.67510986 8.62667847 C-20.1167235 9.05770602 -33.55208322 9.11169366 -47 9 C-39.52661061 4.73194031 -29.45261571 5.85576603 -21.08203125 5.90234375 C-20.09877365 5.9037587 -19.11551605 5.90517365 -18.10246277 5.90663147 C-15.00577567 5.91216537 -11.90916472 5.92470486 -8.8125 5.9375 C-6.69466251 5.94252356 -4.57682388 5.94708496 -2.45898438 5.95117188 C2.69403912 5.96211302 7.84700671 5.97933079 13 6 C12.18523988 3.98723266 12.18523988 3.98723266 11 2 C8.35212912 1.29626983 8.35212912 1.29626983 5.375 1.25 C3.87066406 1.16492188 3.87066406 1.16492188 2.3359375 1.078125 C1.56507813 1.05234375 0.79421875 1.0265625 0 1 C0 0.67 0 0.34 0 0 Z " fill="#ACACAC" transform="translate(265,356)"/>
<path d="M0 0 C1.32 0.33 2.64 0.66 4 1 C4.66 5.29 5.32 9.58 6 14 C7.32 14.33 8.64 14.66 10 15 C10 15.99 10 16.98 10 18 C8.68 18.33 7.36 18.66 6 19 C5.67 18.34 5.34 17.68 5 17 C4.01 17 3.02 17 2 17 C2.33 14.03 2.66 11.06 3 8 C1.02 8.33 -0.96 8.66 -3 9 C-3.33 9.99 -3.66 10.98 -4 12 C-7.45214853 14.30143236 -8.23479324 14.13833854 -12.1875 13.625 C-13.08855469 13.51414063 -13.98960937 13.40328125 -14.91796875 13.2890625 C-15.60503906 13.19367188 -16.29210937 13.09828125 -17 13 C-17 13.66 -17 14.32 -17 15 C-15.68 15.33 -14.36 15.66 -13 16 C-14.65 16 -16.3 16 -18 16 C-18 14.68 -18 13.36 -18 12 C-17.39671875 12.00902344 -16.7934375 12.01804688 -16.171875 12.02734375 C-13.62318208 11.93279546 -11.44794131 11.73098247 -9 11 C-7.54680824 9.35650932 -6.79415557 7.78484297 -5.890625 5.79296875 C-4.5039452 3.00136337 -2.63332814 1.57999688 0 0 Z " fill="#505050" transform="translate(191,180)"/>
<path d="M0 0 C3.64566186 0.98531402 4.80178732 1.68946681 6.875 4.9375 C8 8 8 8 7 11 C6.34 9.35 5.68 7.7 5 6 C3.68 6 2.36 6 1 6 C1 5.34 1 4.68 1 4 C0.34 4 -0.32 4 -1 4 C-0.99097656 5.15757813 -0.98195312 6.31515625 -0.97265625 7.5078125 C-1.11987119 19.64442473 -1.11987119 19.64442473 -3.5546875 23.39453125 C-5.30893127 24.83213766 -7.00780404 25.92798693 -9 27 C-9.66 27.66 -10.32 28.32 -11 29 C-10.3765565 24.40473106 -9.16835572 20.34581725 -7.5625 16 C-6.3028827 12.57083291 -5.05116959 9.16049501 -3.94140625 5.6796875 C-2.99914767 2.99757387 -2.17168164 1.77683043 0 0 Z " fill="#545454" transform="translate(250,120)"/>
<path d="M0 0 C0.33 1.32 0.66 2.64 1 4 C3.31 4 5.62 4 8 4 C8.33 2.68 8.66 1.36 9 0 C9.33 0.99 9.66 1.98 10 3 C11.87387216 3.80212628 11.87387216 3.80212628 14.0625 4.1875 C14.79597656 4.34605469 15.52945313 4.50460937 16.28515625 4.66796875 C16.85105469 4.77753906 17.41695312 4.88710938 18 5 C18 5.66 18 6.32 18 7 C19.28777344 6.95875 20.57554687 6.9175 21.90234375 6.875 C26.99875733 6.875 31.62936566 7.79818291 36.5625 9 C37.38041016 9.19078125 38.19832031 9.3815625 39.04101562 9.578125 C41.02943044 10.04325127 43.01503756 10.52035427 45 11 C45 11.33 45 11.66 45 12 C40.0611677 12.13894413 35.6972053 11.67692815 30.875 10.625 C29.54725 10.3484538 28.21911643 10.07374346 26.890625 9.80078125 C25.60671875 9.53652344 24.3228125 9.27226562 23 9 C11.86598907 6.80249784 -0.8141877 5.2690888 -12 8 C-12.33 7.34 -12.66 6.68 -13 6 C-11.56445975 5.49440092 -10.1264798 4.9957251 -8.6875 4.5 C-7.88699219 4.2215625 -7.08648437 3.943125 -6.26171875 3.65625 C-4 3 -4 3 -1 3 C-0.67 2.01 -0.34 1.02 0 0 Z " fill="#797979" transform="translate(234,373)"/>
<path d="M0 0 C2.375 0.3125 2.375 0.3125 5 1 C5.66 1.99 6.32 2.98 7 4 C6.67 4.99 6.34 5.98 6 7 C6 6.34 6 5.68 6 5 C3.69 4.34 1.38 3.68 -1 3 C-1 6.63 -1 10.26 -1 14 C-1.66 14 -2.32 14 -3 14 C-3.020625 15.258125 -3.04125 16.51625 -3.0625 17.8125 C-3.07410156 18.52019531 -3.08570313 19.22789062 -3.09765625 19.95703125 C-3.08263217 22.20305461 -3.08263217 22.20305461 -2 25 C-2.33 25.99 -2.66 26.98 -3 28 C-3.99 28 -4.98 28 -6 28 C-6 28.99 -6 29.98 -6 31 C-6.66 31 -7.32 31 -8 31 C-8 32.65 -8 34.3 -8 36 C-8.33 36 -8.66 36 -9 36 C-8.84206961 28.00297942 -7.63274043 20.65565354 -5.625 12.9375 C-5.41593018 12.11660889 -5.20686035 11.29571777 -4.99145508 10.44995117 C-3.8931039 6.39891689 -2.92236634 3.15307947 0 0 Z " fill="#878787" transform="translate(210,122)"/>
<path d="M0 0 C0.33 0 0.66 0 1 0 C3.03582294 18.7950082 3.03582294 18.7950082 1 26.1875 C-0.95257845 33.63170533 -0.11951705 38.9084378 2.9375 45.75 C6.32830837 53.6330394 6.32830837 53.6330394 7 57 C6.01 56.67 5.02 56.34 4 56 C3.12109375 54.00390625 3.12109375 54.00390625 2.4375 51.5625 C1.41492741 47.90141772 1.41492741 47.90141772 -1 45 C-2.04341153 40.52448639 -2.10571558 36.2058515 -2.0625 31.625 C-2.05347656 30.37976563 -2.04445313 29.13453125 -2.03515625 27.8515625 C-2.02355469 26.91054687 -2.01195312 25.96953125 -2 25 C-1.34 25 -0.68 25 0 25 C0 16.75 0 8.5 0 0 Z " fill="#CFCFCF" transform="translate(273,176)"/>
<path d="M0 0 C1.98 0 3.96 0 6 0 C6 0.66 6 1.32 6 2 C6.66 2 7.32 2 8 2 C8.61916858 26.98265839 8.61916858 26.98265839 5 37 C5.66 37.33 6.32 37.66 7 38 C5.35 38.66 3.7 39.32 2 40 C2 40.66 2 41.32 2 42 C0.515 42.495 0.515 42.495 -1 43 C0.35886857 38.58367713 2.10273568 34.49920719 4.09765625 30.34375 C5.97223334 25.4747186 6.13720747 20.60736561 6.125 15.4375 C6.12757813 14.34308594 6.13015625 13.24867188 6.1328125 12.12109375 C6.01093273 9.25691923 5.81231573 6.74825381 5 4 C2.52066803 2.22851628 2.52066803 2.22851628 0 1 C0 0.67 0 0.34 0 0 Z " fill="#D6D6D6" transform="translate(204,224)"/>
<path d="M0 0 C1.56324232 0.11534604 3.12559683 0.24275126 4.6875 0.375 C5.99267578 0.47941406 5.99267578 0.47941406 7.32421875 0.5859375 C10 1 10 1 12.07617188 2 C16.2043478 3.41190786 20.12106806 3.35656015 24.45703125 3.4140625 C25.35999435 3.43342865 26.26295746 3.4527948 27.19328308 3.4727478 C30.06626047 3.53234082 32.93927837 3.57884769 35.8125 3.625 C37.76499105 3.66319845 39.71746559 3.70225127 41.66992188 3.7421875 C46.44647984 3.83802569 51.22311667 3.92213152 56 4 C56 4.33 56 4.66 56 5 C13.41565601 9.19845645 13.41565601 9.19845645 0 1 C0 0.67 0 0.34 0 0 Z " fill="#DFDFDF" transform="translate(207,353)"/>
<path d="M0 0 C5.39530843 -0.47958297 5.39530843 -0.47958297 7.8125 1.4375 C9.93149127 6.01006012 10.91056644 10.43027645 9.1875 15.29296875 C7.11792225 19.03046279 5.36957436 21.28200278 1.1875 22.5 C-0.3903125 22.7475 -0.3903125 22.7475 -2 23 C-2.66 22.34 -3.32 21.68 -4 21 C-3.625 18.875 -3.625 18.875 -3 17 C-2.67 17.99 -2.34 18.98 -2 20 C2.82442184 18.73053486 2.82442184 18.73053486 6 15 C6.24187651 12.25481679 6.24187651 12.25481679 6.125 9.3125 C6.09792969 7.82169922 6.09792969 7.82169922 6.0703125 6.30078125 C6.04710937 5.54152344 6.02390625 4.78226563 6 4 C2.71303767 3.20046862 1.28976808 2.90341064 -2 4 C-1.34 2.68 -0.68 1.36 0 0 Z " fill="#CCCCCC" transform="translate(200,173)"/>
<path d="M0 0 C6.46843142 -0.36613763 6.46843142 -0.36613763 8.70703125 1.17578125 C11.31737161 4.85864817 10.48429525 9.69165913 10 14 C8.5625 17.1875 8.5625 17.1875 7 19 C6.67 19 6.34 19 6 19 C6.02320313 18.08476562 6.04640625 17.16953125 6.0703125 16.2265625 C6.08835938 15.03804687 6.10640625 13.84953125 6.125 12.625 C6.14820313 11.44164062 6.17140625 10.25828125 6.1953125 9.0390625 C6.32866229 5.88846183 6.32866229 5.88846183 4 4 C1.42938689 3.35232207 1.42938689 3.35232207 -1 3 C-0.67 2.01 -0.34 1.02 0 0 Z " fill="#E9E9E9" transform="translate(228,173)"/>
<path d="M0 0 C0.33 0 0.66 0 1 0 C1.05534912 0.8878418 1.11069824 1.77568359 1.16772461 2.69042969 C1.37538018 5.99303919 1.5863531 9.29540232 1.79956055 12.59765625 C1.89105581 14.02530626 1.98123869 15.45304103 2.07006836 16.88085938 C2.19818407 18.93643655 2.33105946 20.99165992 2.46484375 23.046875 C2.543396 24.28276367 2.62194824 25.51865234 2.70288086 26.79199219 C2.93811416 29.33181604 3.27482817 31.56682271 4 34 C0.61977024 31.38800427 -0.22604209 28.03597396 -1 24 C-1.247441 20.78568616 -1.23532666 17.5970068 -1.1875 14.375 C-1.18685547 13.54226563 -1.18621094 12.70953125 -1.18554688 11.8515625 C-1.15635775 7.77805727 -1.01339284 3.97249992 0 0 Z " fill="#AAAAAA" transform="translate(187,306)"/>
<path d="M0 0 C-0.87978516 0.35191406 -0.87978516 0.35191406 -1.77734375 0.7109375 C-8.33925892 4.51661765 -11.81250777 13.05149527 -14 20 C-14.33 20 -14.66 20 -15 20 C-14.03272727 6.89090909 -14.03272727 6.89090909 -10.48828125 3.59375 C-7.02237487 0.88718536 -4.55432288 -0.69004892 0 0 Z " fill="#303030" transform="translate(218,365)"/>
<path d="M0 0 C-3.57661091 4.04213804 -7.77236778 5.14992408 -13 6 C-17.70696321 5.95610086 -22.32807867 5.55874563 -27 5 C-27 4.67 -27 4.34 -27 4 C-22.05 4 -17.1 4 -12 4 C-12 3.34 -12 2.68 -12 2 C-7.86180432 -1.38579646 -5.08886459 -1.09759825 0 0 Z " fill="#8D8D8D" transform="translate(306,381)"/>
<path d="M0 0 C0.66 0 1.32 0 2 0 C2 1.98 2 3.96 2 6 C1.01 6.33 0.02 6.66 -1 7 C0.65 7.33 2.3 7.66 4 8 C4 9.65 4 11.3 4 13 C3.61199219 12.49855469 3.22398437 11.99710938 2.82421875 11.48046875 C1.07024209 9.75108118 1.07024209 9.75108118 -1.48046875 9.92578125 C-2.37378906 10.05339844 -3.26710937 10.18101562 -4.1875 10.3125 C-5.08855469 10.43238281 -5.98960937 10.55226562 -6.91796875 10.67578125 C-7.60503906 10.78277344 -8.29210937 10.88976562 -9 11 C-9 9.68 -9 8.36 -9 7 C-4.05 6.01 -4.05 6.01 1 5 C0.67 3.35 0.34 1.7 0 0 Z " fill="#ABABAB" transform="translate(180,196)"/>
<path d="M0 0 C0.74958984 0.05220703 1.49917969 0.10441406 2.27148438 0.15820312 C4.11887082 0.28763784 5.96574371 0.42436518 7.8125 0.5625 C7.4825 1.2225 7.1525 1.8825 6.8125 2.5625 C-6.3875 2.5625 -19.5875 2.5625 -33.1875 2.5625 C-32.8575 1.9025 -32.5275 1.2425 -32.1875 0.5625 C-31.56705811 0.56773682 -30.94661621 0.57297363 -30.30737305 0.57836914 C-27.49659233 0.59915466 -24.68582779 0.61216517 -21.875 0.625 C-20.41030273 0.63756836 -20.41030273 0.63756836 -18.91601562 0.65039062 C-17.97822266 0.65361328 -17.04042969 0.65683594 -16.07421875 0.66015625 C-15.21014404 0.66539307 -14.34606934 0.67062988 -13.45581055 0.67602539 C-8.82507679 0.44426442 -4.77766311 -0.36301894 0 0 Z " fill="#4B4B4B" transform="translate(270.1875,354.4375)"/>
<path d="M0 0 C1.8871875 0.0309375 1.8871875 0.0309375 3.8125 0.0625 C4.4725 1.7125 5.1325 3.3625 5.8125 5.0625 C4.02091511 5.08946365 2.22921527 5.10887917 0.4375 5.125 C-0.56023437 5.13660156 -1.55796875 5.14820313 -2.5859375 5.16015625 C-5.1875 5.0625 -5.1875 5.0625 -7.1875 4.0625 C-7.1875 3.0725 -7.1875 2.0825 -7.1875 1.0625 C-4.43671116 0.14557039 -2.82801087 -0.04636083 0 0 Z " fill="#191919" transform="translate(271.1875,349.9375)"/>
<path d="M0 0 C0.33 0 0.66 0 1 0 C0.85879286 1.93784265 0.71187127 3.87526955 0.5625 5.8125 C0.48128906 6.89144531 0.40007812 7.97039062 0.31640625 9.08203125 C0 12 0 12 -1 15 C-1.99 15 -2.98 15 -4 15 C-3.938125 15.9075 -3.87625 16.815 -3.8125 17.75 C-4.01672076 21.28982642 -4.64551835 22.44931155 -7 25 C-6.38367673 19.6561971 -5.15759731 14.7976357 -3.5 9.6875 C-3.27441406 8.97271484 -3.04882812 8.25792969 -2.81640625 7.52148438 C-1.15829951 2.31659903 -1.15829951 2.31659903 0 0 Z " fill="#737373" transform="translate(195,281)"/>
<path d="M0 0 C3.28388882 1.64194441 3.80479335 5.20931074 5 8.5 C5.2676416 9.22815918 5.5352832 9.95631836 5.81103516 10.70654297 C8.34726772 17.73875295 10.38894328 24.41560612 10 32 C9.67 32 9.34 32 9 32 C8.81824219 31.16597656 8.63648438 30.33195312 8.44921875 29.47265625 C6.3141886 16.24534876 6.3141886 16.24534876 -1 6 C-0.835 5.38125 -0.67 4.7625 -0.5 4.125 C0.07634644 2.03936614 0.07634644 2.03936614 0 0 Z " fill="#A6A6A6" transform="translate(263,144)"/>
<path d="M0 0 C1.52299523 2.93720508 2.80100302 5.9168649 4 9 C8.455 8.505 8.455 8.505 13 8 C13.66 6.35 14.32 4.7 15 3 C15.93423645 6.01031744 16.04449911 6.86650268 15 10 C10.23982707 11.80886571 6.06323209 12.20666253 1 12 C1.33 10.35 1.66 8.7 2 7 C1.34 7 0.68 7 0 7 C0 4.69 0 2.38 0 0 Z " fill="#A9A9A9" transform="translate(223,146)"/>
<path d="M0 0 C0.99 0 1.98 0 3 0 C3.165 0.61875 3.33 1.2375 3.5 1.875 C5.90181375 5.27756949 9.00162134 5.22612026 13 6 C13.12375 6.639375 13.2475 7.27875 13.375 7.9375 C13.58125 8.618125 13.7875 9.29875 14 10 C14.66 10.33 15.32 10.66 16 11 C16 11.66 16 12.32 16 13 C14.02 12.34 12.04 11.68 10 11 C10 10.34 10 9.68 10 9 C9.278125 8.79375 8.55625 8.5875 7.8125 8.375 C4.05219639 6.53662935 2.49150822 4.34573961 0 1 C0 0.67 0 0.34 0 0 Z " fill="#848484" transform="translate(191,340)"/>
<path d="M0 0 C1.32 0.33 2.64 0.66 4 1 C4.33 1.99 4.66 2.98 5 4 C5.33 4.66 5.66 5.32 6 6 C5.0625 8.625 5.0625 8.625 4 11 C2.68 10.67 1.36 10.34 0 10 C0 6.7 0 3.4 0 0 Z " fill="#0C0C0C" transform="translate(223,182)"/>
<path d="M0 0 C0.33 0.66 0.66 1.32 1 2 C0.00352476 3.73579559 -0.99931667 5.47013481 -2.08984375 7.1484375 C-3.29409646 9.25442909 -3.29409646 9.25442909 -3 13 C-4.65 12.67 -6.3 12.34 -8 12 C-8.33 10.02 -8.66 8.04 -9 6 C-7.88625 5.566875 -6.7725 5.13375 -5.625 4.6875 C-1.82487666 3.30088881 -1.82487666 3.30088881 0 0 Z " fill="#1C1C1C" transform="translate(235,191)"/>
<path d="M0 0 C0.99 0.33 1.98 0.66 3 1 C2.67 1.66 2.34 2.32 2 3 C-0.76565382 3.92188461 -2.38283702 4.11785222 -5.23046875 4.09765625 C-6.03291016 4.09443359 -6.83535156 4.09121094 -7.66210938 4.08789062 C-8.49548828 4.07951172 -9.32886719 4.07113281 -10.1875 4.0625 C-11.03248047 4.05798828 -11.87746094 4.05347656 -12.74804688 4.04882812 C-14.83206155 4.03705403 -16.91603977 4.0191189 -19 4 C-18 2 -18 2 -16 1.3125 C-15.01 1.1578125 -15.01 1.1578125 -14 1 C-13.67 1.33 -13.34 1.66 -13 2 C-11.1843265 1.93588312 -9.3709514 1.79902523 -7.5625 1.625 C-6.07943359 1.48964844 -6.07943359 1.48964844 -4.56640625 1.3515625 C-2.0169204 1.14249566 -2.0169204 1.14249566 0 0 Z " fill="#1B1B1B" transform="translate(260,352)"/>
<path d="M0 0 C0 0.99 0 1.98 0 3 C-6.15234375 3.87890625 -6.15234375 3.87890625 -8 4 C-8.33 3.67 -8.66 3.34 -9 3 C-11.86267567 2.92674832 -14.700719 2.90761795 -17.5625 2.9375 C-18.36880859 2.94201172 -19.17511719 2.94652344 -20.00585938 2.95117188 C-22.00393756 2.96299482 -24.00197783 2.98093086 -26 3 C-25.67 2.34 -25.34 1.68 -25 1 C-21.58340864 0.83176554 -18.16671582 0.66568609 -14.75 0.5 C-13.78191406 0.45230469 -12.81382812 0.40460938 -11.81640625 0.35546875 C-10.41455078 0.28779297 -10.41455078 0.28779297 -8.984375 0.21875 C-8.12553711 0.17685547 -7.26669922 0.13496094 -6.38183594 0.09179688 C-4.25591553 0.00986308 -2.1274987 0 0 0 Z " fill="#333333" transform="translate(278,363)"/>
<path d="M0 0 C3.2428329 3.72925783 5.5119901 8.30238735 7 13 C6.67 13.99 6.34 14.98 6 16 C0.14634146 10.53658537 0.14634146 10.53658537 -0.1171875 5.96875 C-0.12419438 3.97879557 -0.0662954 1.98886215 0 0 Z " fill="#8B8B8B" transform="translate(303,277)"/>
<path d="M0 0 C5.13134625 0.51313463 9.74837792 2.05734987 14 5 C14.33 5.99 14.66 6.98 15 8 C11.50596417 7.27623543 8.48001095 5.93714794 5.25 4.4375 C4.26515625 3.98246094 3.2803125 3.52742187 2.265625 3.05859375 C1.51796875 2.70925781 0.7703125 2.35992187 0 2 C0 1.34 0 0.68 0 0 Z " fill="#C4C4C4" transform="translate(242,203)"/>
<path d="M0 0 C0.33 0 0.66 0 1 0 C1.66 3.63 2.32 7.26 3 11 C4.32 11.33 5.64 11.66 7 12 C7 12.99 7 13.98 7 15 C5.68 15.33 4.36 15.66 3 16 C2.67 15.34 2.34 14.68 2 14 C1.01 14 0.02 14 -1 14 C-0.67 9.38 -0.34 4.76 0 0 Z " fill="#323232" transform="translate(194,183)"/>
<path d="M0 0 C0.33 0 0.66 0 1 0 C0.87952582 5.02705917 0.75412763 8.09872551 -2.5625 12.0625 C-3.366875 12.701875 -4.17125 13.34125 -5 14 C-4.88637738 12.5199159 -4.75877092 11.04089926 -4.625 9.5625 C-4.55539062 8.73878906 -4.48578125 7.91507812 -4.4140625 7.06640625 C-4.20910156 6.04353516 -4.20910156 6.04353516 -4 5 C-3.34 4.67 -2.68 4.34 -2 4 C-0.86649466 1.98330173 -0.86649466 1.98330173 0 0 Z " fill="#868686" transform="translate(313,329)"/>
<path d="M0 0 C5.4 -0.48 5.4 -0.48 7.875 1.5 C9.50517055 5.12260123 9.19772667 8.04546658 9 12 C7.58622659 9.36095629 6.62759865 6.92879371 6 4 C2.71303767 3.20046862 1.28976808 2.90341064 -2 4 C-1.34 2.68 -0.68 1.36 0 0 Z " fill="#E3E3E3" transform="translate(200,173)"/>
<path d="M0 0 C2.8125 0.1875 2.8125 0.1875 5 1 C5 1.66 5 2.32 5 3 C6.65 3.33 8.3 3.66 10 4 C10 4.33 10 4.66 10 5 C5.05 5 0.1 5 -5 5 C-3.35 3.35 -1.7 1.7 0 0 Z " fill="#141414" transform="translate(227,352)"/>
<path d="M0 0 C3.915141 3.35583515 6.0795774 7.28066362 8 12 C8 12.66 8 13.32 8 14 C6.140625 13.83984375 6.140625 13.83984375 4 13 C2.734375 10.56640625 2.734375 10.56640625 1.75 7.5625 C1.41484375 6.57378906 1.0796875 5.58507812 0.734375 4.56640625 C0 2 0 2 0 0 Z " fill="#818181" transform="translate(295,263)"/>
<path d="M0 0 C1.56902561 3.13805122 0.56136446 6.26618588 0.0625 9.625 C-0.08735352 10.68460938 -0.08735352 10.68460938 -0.24023438 11.765625 C-0.48791959 13.51121607 -0.74323871 15.25572084 -1 17 C-2.32 17.33 -3.64 17.66 -5 18 C-3.75971762 11.82777121 -2.10396411 5.93317878 0 0 Z " fill="#9F9F9F" transform="translate(247,123)"/>
<path d="M0 0 C1.45792884 -0.05399736 2.91642712 -0.09279177 4.375 -0.125 C5.18710937 -0.14820313 5.99921875 -0.17140625 6.8359375 -0.1953125 C9 0 9 0 11 2 C11 2.99 11 3.98 11 5 C7.37 4.01 3.74 3.02 0 2 C0 1.34 0 0.68 0 0 Z " fill="#232323" transform="translate(270,380)"/>
<path d="M0 0 C3.40381555 1.90945751 4.23464785 3.82279137 5.5625 7.4375 C5.2325 8.4275 4.9025 9.4175 4.5625 10.4375 C3.9025 8.7875 3.2425 7.1375 2.5625 5.4375 C1.2425 5.4375 -0.0775 5.4375 -1.4375 5.4375 C-1.4375 4.4475 -1.4375 3.4575 -1.4375 2.4375 C-2.4275 2.4375 -3.4175 2.4375 -4.4375 2.4375 C-4.4375 1.7775 -4.4375 1.1175 -4.4375 0.4375 C-2.4375 -0.5625 -2.4375 -0.5625 0 0 Z " fill="#878787" transform="translate(252.4375,120.5625)"/>
<path d="M0 0 C4.75 0.75 4.75 0.75 7 3 C8.32467746 3.6837045 9.65863633 4.34964186 11 5 C11.99 5.66 12.98 6.32 14 7 C14 7.66 14 8.32 14 9 C8.8423143 7.58163643 4.20024742 5.32608425 0 2 C0 1.34 0 0.68 0 0 Z " fill="#989898" transform="translate(190,215)"/>
<path d="M0 0 C0.66 0.33 1.32 0.66 2 1 C1.505 1.61875 1.01 2.2375 0.5 2.875 C-1.19222773 4.83880904 -1.19222773 4.83880904 -1 7 C-3.77397973 9.36301977 -6.8585564 11.16749123 -10 13 C-8.48446596 9.52224821 -6.4226544 7.0442016 -3.875 4.25 C-3.15054688 3.45078125 -2.42609375 2.6515625 -1.6796875 1.828125 C-0.84824219 0.92320312 -0.84824219 0.92320312 0 0 Z " fill="#A4A4A4" transform="translate(197,171)"/>
<path d="M0 0 C0.99 0 1.98 0 3 0 C3.83986084 1.93467942 4.67168027 3.87285129 5.5 5.8125 C6.19609375 7.43091797 6.19609375 7.43091797 6.90625 9.08203125 C8 12 8 12 8 15 C7.01 14.67 6.02 14.34 5 14 C4.12109375 12.00390625 4.12109375 12.00390625 3.4375 9.5625 C2.41492741 5.90141772 2.41492741 5.90141772 0 3 C0 2.01 0 1.02 0 0 Z " fill="#949494" transform="translate(272,218)"/>
<path d="M0 0 C10.55808656 0.77904328 10.55808656 0.77904328 15 3 C15 3.33 15 3.66 15 4 C9.158256 4.35050464 5.1468192 4.16727335 0 1 C0 0.67 0 0.34 0 0 Z " fill="#878787" transform="translate(207,353)"/>
<path d="M0 0 C0.66 0 1.32 0 2 0 C3.1577506 3.47325181 3.06866652 6.36067448 3 10 C1.68 10 0.36 10 -1 10 C-0.67 6.7 -0.34 3.4 0 0 Z " fill="#232323" transform="translate(222,332)"/>
<path d="M0 0 C1.39195915 4.17587745 -0.17676781 6.13474776 -2 10 C-1.34 10 -0.68 10 0 10 C0 10.66 0 11.32 0 12 C-1.98 12.66 -3.96 13.32 -6 14 C-4.50829734 9.0276578 -2.39542583 4.58154261 0 0 Z " fill="#939393" transform="translate(202,267)"/>
<path d="M0 0 C0.33 0 0.66 0 1 0 C1.33 3.3 1.66 6.6 2 10 C0.68 10.33 -0.64 10.66 -2 11 C-2 9.68 -2 8.36 -2 7 C-2.99 6.67 -3.98 6.34 -5 6 C-4.360625 5.38125 -3.72125 4.7625 -3.0625 4.125 C-0.96116416 2.17402388 -0.96116416 2.17402388 0 0 Z " fill="#242424" transform="translate(208,188)"/>
<path d="M0 0 C2.375 0.3125 2.375 0.3125 5 1 C5.66 1.99 6.32 2.98 7 4 C6.67 4.99 6.34 5.98 6 7 C6 6.34 6 5.68 6 5 C3.69 4.34 1.38 3.68 -1 3 C-1.33 4.32 -1.66 5.64 -2 7 C-2.33 6.01 -2.66 5.02 -3 4 C-1.5625 1.8125 -1.5625 1.8125 0 0 Z " fill="#9D9D9D" transform="translate(210,122)"/>
<path d="M0 0 C2.44508878 3.66763317 2.29885724 5.63431775 2.3125 10 C2.32925781 11.2375 2.34601563 12.475 2.36328125 13.75 C2 17 2 17 -1 20 C-0.34 15.38 0.32 10.76 1 6 C0.34 6 -0.32 6 -1 6 C-0.67 4.02 -0.34 2.04 0 0 Z " fill="#616161" transform="translate(307,361)"/>
<path d="M0 0 C0.33 0 0.66 0 1 0 C1.33 4.62 1.66 9.24 2 14 C1.01 14 0.02 14 -1 14 C-1.02685938 11.85423363 -1.04633088 9.70837355 -1.0625 7.5625 C-1.07410156 6.36753906 -1.08570313 5.17257813 -1.09765625 3.94140625 C-1 1 -1 1 0 0 Z " fill="#2C2C2C" transform="translate(270,203)"/>
<path d="M0 0 C3.96 0 7.92 0 12 0 C12 0.66 12 1.32 12 2 C6.06 2.495 6.06 2.495 0 3 C0 2.01 0 1.02 0 0 Z " fill="#D9D9D9" transform="translate(244,196)"/>
<path d="M0 0 C0.99 0 1.98 0 3 0 C3 0.66 3 1.32 3 2 C3.66 2.33 4.32 2.66 5 3 C3.35 3.66 1.7 4.32 0 5 C0 5.66 0 6.32 0 7 C-0.99 7.33 -1.98 7.66 -3 8 C-1.125 2.25 -1.125 2.25 0 0 Z " fill="#707070" transform="translate(206,259)"/>
<path d="M0 0 C1.4606285 2.64738916 2 3.89448334 2 7 C1.34 7 0.68 7 0 7 C0.061875 7.9075 0.12375 8.815 0.1875 9.75 C-0.01672076 13.28982642 -0.64551835 14.44931155 -3 17 C-3 15.35 -3 13.7 -3 12 C-2.34 12 -1.68 12 -1 12 C-1.020625 10.948125 -1.04125 9.89625 -1.0625 8.8125 C-1.01103198 5.67295096 -0.73482813 3.03116604 0 0 Z " fill="#292929" transform="translate(207,129)"/>
<path d="M0 0 C-0.928125 0.4021875 -0.928125 0.4021875 -1.875 0.8125 C-4.2995233 1.95556848 -4.2995233 1.95556848 -6 5 C-8.5 6.125 -8.5 6.125 -11 7 C-11.99 7.495 -11.99 7.495 -13 8 C-10.95058999 2.26165198 -5.98766709 -0.70443142 0 0 Z " fill="#BFBFBF" transform="translate(218,365)"/>
<path d="M0 0 C0.66 0.33 1.32 0.66 2 1 C-0.64 3.97 -3.28 6.94 -6 10 C-6.99 9.67 -7.98 9.34 -9 9 C-8.0409375 8.38125 -8.0409375 8.38125 -7.0625 7.75 C-4.83650718 6.20928357 -4.83650718 6.20928357 -4.5 3.9375 C-4 2 -4 2 -2.0625 0.6875 C-1.381875 0.460625 -0.70125 0.23375 0 0 Z " fill="#B8B8B8" transform="translate(223,380)"/>
<path d="M0 0 C0.99 0 1.98 0 3 0 C3.33 1.98 3.66 3.96 4 6 C2.35 5.67 0.7 5.34 -1 5 C-0.67 3.35 -0.34 1.7 0 0 Z " fill="#161616" transform="translate(216,162)"/>
<path d="M0 0 C2.6875 -0.3125 2.6875 -0.3125 5 0 C4.01 0.495 4.01 0.495 3 1 C2.34786708 3.02463255 2.34786708 3.02463255 2 5 C0.35 5 -1.3 5 -3 5 C-1.8125 2.5 -1.8125 2.5 0 0 Z " fill="#272727" transform="translate(227,176)"/>
<path d="M0 0 C0.82638376 2.89234315 1 4.88742431 1 8 C0.01 8.66 -0.98 9.32 -2 10 C-2.99 9.67 -3.98 9.34 -5 9 C-4.34 8.67 -3.68 8.34 -3 8 C-2.28293018 6.01751285 -1.61709587 4.01584651 -1 2 C-0.67 1.34 -0.34 0.68 0 0 Z " fill="#666666" transform="translate(186,184)"/>
<path d="M0 0 C2.475 0.495 2.475 0.495 5 1 C5 2.32 5 3.64 5 5 C3.68 5 2.36 5 1 5 C0.67 3.35 0.34 1.7 0 0 Z " fill="#141414" transform="translate(234,372)"/>
<path d="M0 0 C1.60577252 4.01443129 0.36580696 7.04634827 -1 11 C-1.66 11.99 -2.32 12.98 -3 14 C-2.40380045 9.13103697 -1.43023178 4.67209049 0 0 Z " fill="#BEBEBE" transform="translate(191,292)"/>
<path d="M0 0 C0.99 0.99 1.98 1.98 3 3 C2.34 4.98 1.68 6.96 1 9 C0.01 8.67 -0.98 8.34 -2 8 C-1.67 7.67 -1.34 7.34 -1 7 C-0.63239269 4.67182036 -0.29758419 2.3381615 0 0 Z " fill="#0F0F0F" transform="translate(243,165)"/>
<path d="M0 0 C1.32 0 2.64 0 4 0 C4.33 1.65 4.66 3.3 5 5 C3.02 4.34 1.04 3.68 -1 3 C-0.67 2.01 -0.34 1.02 0 0 Z " fill="#191919" transform="translate(278,295)"/>
<path d="M0 0 C2.31 0 4.62 0 7 0 C7.33 0.99 7.66 1.98 8 3 C5.36 2.67 2.72 2.34 0 2 C0 1.34 0 0.68 0 0 Z " fill="#1D1D1D" transform="translate(174,193)"/>
<path d="M0 0 C0.99 0.33 1.98 0.66 3 1 C3 3.31 3 5.62 3 8 C2.34 8 1.68 8 1 8 C0.67 5.36 0.34 2.72 0 0 Z " fill="#2B2B2B" transform="translate(300,276)"/>
<path d="M0 0 C1.52299523 2.93720508 2.80100302 5.9168649 4 9 C3.34 9.66 2.68 10.32 2 11 C-0.67927341 6.98108988 -0.15601248 4.75838077 0 0 Z " fill="#CACACA" transform="translate(221,185)"/>
<path d="M0 0 C1.65 0 3.3 0 5 0 C4.67 1.65 4.34 3.3 4 5 C3.01 5 2.02 5 1 5 C0.67 3.35 0.34 1.7 0 0 Z " fill="#2A2A2A" transform="translate(278,357)"/>
<path d="M0 0 C0 3.10551666 -0.5393715 4.35261084 -2 7 C-2.66 7 -3.32 7 -4 7 C-4 5.68 -4 4.36 -4 3 C-3.34 3 -2.68 3 -2 3 C-2 2.34 -2 1.68 -2 1 C-1.34 0.67 -0.68 0.34 0 0 Z " fill="#151515" transform="translate(313,327)"/>
<path d="M0 0 C2.50037734 2.17424117 3.43628586 3.73045798 4 7 C2.68 6.67 1.36 6.34 0 6 C0 4.02 0 2.04 0 0 Z " fill="#9C9C9C" transform="translate(299,270)"/>
<path d="M0 0 C1.98 0 3.96 0 6 0 C6 0.66 6 1.32 6 2 C6.66 2 7.32 2 8 2 C7.67 2.99 7.34 3.98 7 5 C7 4.34 7 3.68 7 3 C6.030625 2.87625 5.06125 2.7525 4.0625 2.625 C3.051875 2.41875 2.04125 2.2125 1 2 C0.67 1.34 0.34 0.68 0 0 Z " fill="#808080" transform="translate(204,224)"/>
</svg>
