<?xml version="1.0" standalone="no"?>
<!DOCTYPE svg PUBLIC "-//W3C//DTD SVG 20010904//EN"
 "http://www.w3.org/TR/2001/REC-SVG-20010904/DTD/svg10.dtd">
<svg version="1.0" xmlns="http://www.w3.org/2000/svg"
 width="704.000000pt" height="1280.000000pt" viewBox="0 0 704.000000 1280.000000"
 preserveAspectRatio="xMidYMid meet">
<metadata>
Created by potrace 1.16, written by Peter Selinger 2001-2019
</metadata>
<g transform="translate(0.000000,1280.000000) scale(0.100000,-0.100000)"
fill="#000000" stroke="none">
<path d="M3673 9651 c-47 -24 -63 -59 -69 -153 -2 -46 -11 -114 -19 -153 -8
-38 -24 -126 -35 -195 -12 -69 -25 -152 -31 -185 -5 -33 -16 -107 -24 -165
-16 -121 -31 -143 -90 -133 -22 4 -43 0 -57 -9 -13 -8 -52 -18 -88 -21 l-65
-7 -60 112 c-33 61 -73 135 -90 164 -93 165 -127 228 -169 311 -112 224 -169
280 -223 221 -45 -49 -52 -80 -85 -343 -16 -128 -20 -544 -9 -756 l12 -206
-67 -129 c-36 -71 -79 -153 -95 -181 -42 -77 -89 -244 -96 -346 l-6 -87 32
-11 c40 -14 41 -39 2 -39 -17 0 -33 5 -36 10 -9 14 -81 12 -169 -5 -91 -17
-146 -41 -146 -64 0 -36 19 -39 103 -14 45 13 112 26 148 29 l66 7 11 -59 c10
-46 9 -59 0 -66 -7 -5 -68 -37 -134 -73 -122 -65 -144 -85 -123 -111 14 -17
27 -17 59 -1 14 8 73 39 132 71 97 52 109 56 115 39 13 -36 71 -119 111 -160
25 -25 42 -51 42 -65 0 -13 -14 -72 -30 -133 -29 -105 -65 -260 -96 -410 -24
-119 -30 -137 -78 -245 -26 -58 -60 -134 -76 -170 -36 -80 -181 -516 -209
-625 -53 -213 -87 -484 -76 -623 14 -182 38 -276 113 -435 l46 -98 -25 -77
c-42 -133 -20 -290 44 -323 12 -7 32 -21 44 -32 27 -24 154 -37 177 -18 10 9
16 8 26 -4 17 -20 138 -21 146 -1 4 12 10 12 32 0 36 -17 196 -6 267 19 41 14
65 13 225 -12 170 -27 713 -35 870 -13 227 32 246 33 292 12 26 -11 64 -19 93
-18 28 1 74 -2 103 -7 37 -5 57 -3 68 6 11 9 18 9 26 1 18 -18 143 -15 158 3
11 14 14 13 25 -1 10 -14 24 -16 82 -11 150 12 230 79 296 244 9 23 32 63 52
88 19 26 35 51 35 56 0 5 16 31 35 57 41 57 84 156 132 302 33 100 35 112 36
250 1 364 -11 452 -110 775 -76 252 -189 517 -276 652 -44 69 -140 268 -161
335 -26 86 -290 599 -334 650 -11 14 -13 32 -8 80 3 34 8 63 10 66 7 6 101
-16 164 -39 63 -23 86 -24 101 -5 28 34 -25 67 -154 95 -71 16 -84 16 -111 4
-24 -12 -38 -13 -72 -4 -23 7 -42 17 -42 24 0 27 22 35 76 30 61 -6 62 -5 66
97 l3 55 95 10 c99 11 120 17 120 39 0 29 -24 34 -117 23 -87 -10 -93 -12
-102 -37 -8 -24 -17 -28 -72 -37 -50 -9 -67 -8 -78 2 -21 21 -6 33 72 56 40
11 76 24 80 29 10 9 12 209 3 270 -4 25 -14 74 -22 110 -8 36 -28 135 -44 220
-49 256 -102 407 -240 684 -134 267 -209 408 -257 482 -18 27 -43 74 -57 105
-41 93 -114 198 -154 221 -25 14 -30 14 -59 -1z m233 -1536 c144 -69 243 -239
247 -425 3 -106 -20 -171 -83 -242 -57 -64 -110 -97 -196 -121 -52 -15 -68
-15 -135 -4 -86 15 -129 38 -179 95 -46 52 -66 93 -85 175 -16 75 -21 292 -6
302 5 3 13 19 16 36 4 17 23 57 42 90 51 85 131 127 247 128 48 1 73 -6 132
-34z m-1046 -20 c103 -19 180 -84 248 -208 46 -84 67 -159 77 -274 7 -72 5
-88 -14 -128 -11 -24 -21 -49 -21 -54 0 -22 -84 -94 -134 -116 -80 -35 -157
-41 -233 -16 -88 28 -101 37 -160 97 -133 137 -154 358 -51 562 34 69 93 117
157 128 20 4 43 10 51 15 8 4 22 6 30 4 8 -2 31 -6 50 -10z"/>
<path d="M3690 8064 c-54 -17 -101 -52 -131 -98 -74 -113 -76 -332 -5 -445 30
-47 101 -111 124 -111 10 0 23 -5 29 -11 7 -7 43 -12 80 -12 57 -1 77 4 122
28 30 17 56 37 59 47 2 9 12 18 22 21 22 6 50 86 50 147 0 55 -19 161 -31 175
-5 5 -9 17 -9 28 0 28 -85 151 -127 184 -58 45 -129 64 -183 47z"/>
<path d="M2705 8006 c-61 -30 -98 -80 -119 -163 -50 -192 20 -375 174 -455 35
-18 63 -23 124 -25 118 -3 182 31 228 122 49 94 -16 364 -107 449 -101 94
-205 119 -300 72z"/>
<path d="M5373 4513 c-7 -3 -13 -14 -13 -25 0 -73 -72 -266 -142 -379 -17 -28
-29 -52 -27 -54 2 -2 62 -15 134 -30 133 -27 254 -74 294 -114 31 -31 28 -84
-6 -109 -63 -43 -197 -103 -338 -151 -182 -61 -299 -84 -585 -115 -263 -29
-367 -36 -528 -36 -89 1 -166 -1 -170 -4 -5 -3 -55 -10 -113 -15 -155 -16
-254 -39 -337 -78 -120 -58 -164 -105 -177 -193 -8 -53 4 -89 42 -128 52 -54
87 -65 203 -65 87 0 129 7 247 37 79 20 155 41 170 47 91 35 178 42 583 45
572 4 734 21 1213 126 314 68 490 158 598 305 52 70 68 108 78 193 8 57 6 80
-10 130 -26 85 -42 112 -107 181 -31 34 -61 67 -65 75 -7 12 -75 63 -156 116
-44 30 -201 95 -291 122 -47 14 -137 41 -200 60 -142 42 -272 68 -297 59z"/>
</g>
</svg>
