<?xml version="1.0" standalone="no"?>
<!DOCTYPE svg PUBLIC "-//W3C//DTD SVG 20010904//EN"
 "http://www.w3.org/TR/2001/REC-SVG-20010904/DTD/svg10.dtd">
<svg version="1.0" xmlns="http://www.w3.org/2000/svg"
 width="704.000000pt" height="1280.000000pt" viewBox="0 0 704.000000 1280.000000"
 preserveAspectRatio="xMidYMid meet">
<metadata>
Created by potrace 1.16, written by Peter Selinger 2001-2019
</metadata>
<g transform="translate(0.000000,1280.000000) scale(0.100000,-0.100000)"
fill="#000000" stroke="none">
<path d="M3908 9782 c-35 -21 -42 -39 -69 -163 -12 -57 -25 -109 -30 -115 -8
-10 -27 -76 -54 -184 -8 -30 -30 -109 -50 -175 -37 -124 -73 -286 -68 -302 2
-6 26 -7 56 -2 29 3 133 7 231 8 99 1 186 6 195 10 9 5 64 11 124 14 59 3 111
8 116 12 13 7 -145 458 -194 554 -14 28 -37 84 -51 124 -30 85 -86 189 -116
217 -26 24 -53 24 -90 2z"/>
<path d="M2880 9684 c-17 -15 -37 -39 -45 -54 -19 -36 -59 -194 -75 -290 -6
-41 -18 -100 -25 -130 -7 -30 -18 -104 -25 -165 -6 -60 -15 -129 -20 -153 -15
-63 -13 -72 14 -72 30 0 43 16 51 60 3 19 12 41 20 49 20 20 62 -14 75 -61 6
-20 15 -40 20 -43 9 -6 80 -6 332 -1 100 2 121 13 108 54 -22 68 -68 185 -126
318 -42 95 -97 235 -110 279 -32 102 -119 235 -155 235 -4 0 -21 -12 -39 -26z"/>
<path d="M4240 8845 c-69 -7 -131 -10 -138 -7 -7 2 -54 -1 -105 -7 -51 -6
-175 -13 -277 -16 -179 -4 -622 -23 -695 -29 -53 -5 -55 -16 -2 -16 51 0 97
-17 97 -35 0 -13 -46 -56 -112 -107 -31 -24 -36 -33 -41 -87 -5 -41 -2 -73 8
-102 8 -23 15 -50 15 -61 0 -17 -4 -19 -32 -12 -18 3 -48 21 -66 38 -91 89
-203 59 -272 -74 -7 -14 -51 -84 -97 -157 -80 -126 -147 -267 -171 -363 -38
-155 -38 -156 13 -162 22 -2 31 -9 33 -25 3 -19 -1 -23 -21 -23 -13 0 -32 8
-41 19 -40 44 -278 53 -320 12 -34 -35 -10 -45 98 -42 52 1 119 0 149 -4 l54
-7 6 -56 c3 -31 2 -61 -4 -68 -5 -6 -46 -22 -92 -35 -137 -38 -192 -63 -195
-86 -5 -35 41 -34 163 4 60 19 119 37 130 39 16 4 26 -7 54 -63 24 -46 63 -97
120 -156 l86 -88 -34 -127 c-90 -342 -111 -426 -121 -489 -25 -152 -47 -228
-94 -321 -70 -139 -186 -474 -253 -732 -24 -96 -47 -178 -49 -182 -4 -7 -30
-175 -42 -278 -3 -30 -6 -138 -5 -240 1 -163 4 -196 27 -283 14 -54 43 -136
66 -182 46 -97 47 -110 20 -188 -43 -122 -19 -242 62 -312 58 -49 172 -72 199
-39 11 14 13 14 21 0 7 -12 26 -16 76 -16 38 0 73 5 79 11 8 8 13 8 17 0 9
-14 153 -15 161 -1 5 8 11 8 20 0 10 -8 29 -7 72 6 71 20 85 20 193 0 49 -9
202 -21 364 -28 285 -12 408 -7 696 26 94 10 109 10 145 -6 25 -10 64 -17 100
-16 33 0 83 -3 111 -6 44 -7 52 -5 58 11 7 17 8 17 17 1 8 -15 24 -18 84 -18
41 0 77 5 80 10 5 8 11 7 21 -1 21 -17 149 -3 201 22 55 26 112 94 163 189 21
41 53 95 70 120 16 25 30 49 30 54 0 4 15 29 34 55 31 43 51 87 92 206 9 28
26 75 37 105 46 128 44 483 -4 740 -43 226 -200 680 -303 875 -9 17 -16 34
-16 39 0 5 -11 23 -24 40 -39 51 -133 246 -155 323 -12 39 -73 174 -137 300
-111 220 -129 255 -196 372 -26 47 -29 61 -25 105 7 61 22 135 30 142 8 9 106
-24 190 -63 70 -33 79 -35 93 -21 47 47 -107 131 -269 148 -83 8 -104 18 -93
45 5 14 15 15 61 10 l55 -7 0 41 c0 23 7 57 14 76 l15 35 104 0 c80 0 107 3
117 15 32 39 -26 56 -155 45 -53 -4 -60 -8 -65 -30 -5 -23 -11 -25 -69 -28
-35 -2 -68 1 -73 6 -20 20 5 39 64 50 34 6 65 17 70 24 16 24 0 351 -33 643
-14 130 -66 370 -90 417 -10 21 -19 43 -19 51 0 7 -6 20 -12 28 -11 14 -29 14
-138 4z m-337 -574 c47 -11 124 -73 142 -115 41 -95 58 -171 52 -236 -7 -87
-51 -218 -97 -289 -44 -67 -125 -115 -191 -113 -39 2 -114 35 -156 69 -42 35
-105 251 -95 328 1 6 5 37 8 70 4 33 14 68 23 79 9 10 14 20 12 23 -8 9 50
100 86 135 30 29 50 39 93 47 74 12 79 12 123 2z m-805 -63 c43 -36 109 -141
124 -198 25 -95 9 -237 -39 -336 -38 -79 -67 -112 -128 -143 -65 -33 -113 -36
-164 -9 -98 51 -121 115 -127 353 -4 149 6 198 52 271 51 80 75 93 165 94 72
0 79 -2 117 -32z"/>
<path d="M3770 8171 c-65 -13 -91 -34 -123 -95 -27 -51 -31 -71 -35 -162 -7
-149 28 -238 115 -295 54 -36 155 -19 192 34 39 55 63 124 66 192 6 136 -19
217 -90 292 -43 45 -55 48 -125 34z"/>
<path d="M2923 8154 c-103 -35 -143 -168 -113 -379 8 -53 19 -83 46 -123 64
-98 147 -104 229 -18 56 58 78 109 83 190 6 97 -32 244 -72 281 -43 39 -60 48
-95 55 -25 4 -54 2 -78 -6z"/>
<path d="M5325 4408 c-18 -76 -46 -153 -86 -236 -38 -81 -54 -124 -46 -127 7
-2 30 -6 52 -9 282 -44 385 -92 385 -181 0 -40 -29 -65 -125 -110 -118 -55
-363 -140 -445 -155 -36 -6 -83 -15 -106 -20 -133 -30 -501 -62 -744 -65 -332
-5 -529 -35 -674 -105 -155 -73 -207 -183 -142 -295 41 -69 94 -89 228 -87 91
1 128 7 231 36 323 92 354 96 802 94 193 0 388 2 435 6 121 10 248 25 300 36
25 5 101 19 170 30 342 58 479 98 652 187 170 88 268 219 282 374 11 128 -19
196 -153 344 -118 130 -294 222 -581 305 -41 11 -102 30 -135 40 -78 25 -198
50 -240 50 l-33 0 -27 -112z"/>
</g>
</svg>
