<?xml version="1.0" standalone="no"?>
<!DOCTYPE svg PUBLIC "-//W3C//DTD SVG 20010904//EN"
 "http://www.w3.org/TR/2001/REC-SVG-20010904/DTD/svg10.dtd">
<svg version="1.0" xmlns="http://www.w3.org/2000/svg"
 width="704.000000pt" height="1280.000000pt" viewBox="0 0 704.000000 1280.000000"
 preserveAspectRatio="xMidYMid meet">
<metadata>
Created by potrace 1.16, written by Peter Selinger 2001-2019
</metadata>
<g transform="translate(0.000000,1280.000000) scale(0.100000,-0.100000)"
fill="#000000" stroke="none">
<path d="M3920 9792 c-40 -20 -64 -69 -84 -178 -8 -43 -29 -126 -46 -184 -111
-367 -152 -530 -140 -550 5 -8 64 -9 220 -3 201 9 214 10 231 31 11 14 17 37
16 64 -2 39 -6 45 -72 95 -84 64 -175 153 -175 169 0 8 27 14 78 18 132 10
264 25 269 30 3 3 -11 47 -32 98 -20 51 -45 116 -55 143 -28 78 -86 196 -115
235 -33 45 -54 52 -95 32z"/>
<path d="M2880 9683 c-17 -14 -37 -37 -44 -52 -19 -37 -63 -212 -76 -302 -6
-41 -17 -100 -25 -130 -23 -87 -50 -370 -36 -379 9 -5 8 -10 -2 -18 -11 -9
-16 -59 -22 -212 l-7 -200 -43 -67 c-50 -78 -77 -116 -122 -178 -66 -90 -139
-265 -161 -385 -6 -31 -11 -60 -12 -65 -5 -25 2 -35 33 -43 22 -6 33 -15 35
-30 4 -29 -28 -30 -73 -2 -59 37 -243 47 -289 16 -27 -17 -35 -45 -13 -47 6
-1 73 -2 149 -3 75 0 139 -3 141 -6 3 -3 9 -33 12 -67 l7 -61 -131 -43 c-143
-45 -178 -65 -168 -94 10 -23 63 -15 199 31 56 19 105 34 108 34 4 0 23 -33
44 -74 27 -56 58 -96 122 -160 47 -47 83 -90 80 -95 -21 -33 -114 -398 -161
-625 -20 -99 -42 -193 -49 -210 -8 -17 -27 -60 -44 -96 -64 -138 -92 -212
-152 -395 -66 -203 -144 -505 -161 -620 -43 -302 -46 -368 -28 -550 12 -118
38 -211 93 -326 42 -88 44 -109 15 -181 -31 -77 -29 -194 5 -251 33 -57 63
-83 115 -102 58 -20 140 -20 148 0 5 13 8 13 20 -5 13 -19 21 -20 76 -14 34 4
68 11 75 17 10 8 16 7 24 -6 8 -15 19 -16 76 -11 37 4 71 10 76 15 5 4 17 4
27 -2 14 -7 36 -4 80 10 60 20 61 20 177 1 275 -46 728 -50 1024 -11 146 20
148 20 190 1 52 -24 84 -25 92 -5 5 13 9 12 26 -5 22 -22 106 -28 140 -10 13
7 21 7 25 0 8 -13 152 -13 160 0 5 8 11 7 21 -1 21 -17 95 -12 167 12 84 28
136 80 193 194 25 50 53 99 63 110 30 34 98 157 134 240 96 220 120 378 98
644 -24 298 -72 501 -205 865 -43 116 -142 327 -183 388 -32 47 -143 289 -143
311 0 43 -101 260 -210 452 -31 55 -72 129 -90 165 -18 36 -40 78 -48 94 -13
26 -14 42 -3 115 7 48 16 90 20 94 9 9 131 -33 203 -69 74 -37 106 -29 87 23
-15 42 -199 113 -291 113 -51 0 -84 19 -75 44 5 13 16 15 60 10 l54 -6 7 53
c3 30 9 64 12 76 6 22 4 23 -57 20 -55 -2 -64 0 -67 17 -5 24 12 34 76 42 65
8 66 10 59 187 -16 394 -71 776 -127 888 -30 58 -46 67 -84 45 -17 -10 -70
-38 -117 -62 -47 -24 -96 -55 -109 -69 -51 -54 -63 -22 -31 83 17 56 18 64 4
69 -8 3 -117 2 -242 -2 -124 -5 -291 -8 -371 -8 -542 3 -682 5 -660 13 14 4
113 9 220 10 242 2 284 7 288 37 3 18 -38 130 -84 230 -7 17 -14 35 -14 40 0
4 -7 21 -15 36 -8 15 -33 72 -55 125 -22 53 -45 106 -50 117 -5 11 -23 56 -39
100 -36 94 -87 175 -118 186 -17 6 -30 2 -53 -18z m1207 -1642 c32 -11 70 -22
86 -25 15 -4 45 -23 67 -42 31 -28 40 -44 40 -69 0 -76 -22 -82 -101 -30 -30
19 -57 35 -62 35 -4 0 -25 11 -45 25 -20 14 -49 25 -64 25 -15 0 -48 5 -72 12
-37 10 -62 9 -142 -5 -103 -19 -125 -28 -217 -94 -33 -24 -62 -43 -66 -43 -10
0 -41 55 -41 73 0 13 111 97 129 97 4 0 22 7 39 15 17 9 56 20 88 25 31 5 59
12 62 15 3 3 59 5 124 5 89 0 132 -5 175 -19z m-988 -33 c44 -8 82 -23 115
-45 26 -18 52 -33 56 -33 11 0 22 -49 15 -70 -10 -33 -35 -30 -108 9 -184 100
-347 94 -511 -19 -63 -44 -79 -50 -91 -40 -54 45 66 145 230 191 72 20 203 23
294 7z"/>
<path d="M5346 4498 c-3 -13 -12 -57 -21 -98 -18 -87 -53 -177 -108 -274 -41
-73 -39 -86 10 -86 60 0 255 -51 312 -80 69 -36 91 -61 91 -103 0 -61 -82
-107 -346 -196 -197 -66 -227 -74 -371 -95 -235 -36 -455 -55 -683 -61 -85 -3
-200 -9 -255 -14 -55 -6 -125 -13 -155 -15 -185 -18 -369 -97 -419 -180 -55
-91 -48 -159 23 -224 25 -23 62 -46 86 -52 89 -24 240 1 525 85 117 35 249 45
605 45 338 0 577 12 700 34 41 8 120 22 175 31 275 46 392 71 487 105 32 11
62 20 67 20 22 0 150 67 219 113 48 33 86 70 116 111 67 95 83 133 90 221 6
67 4 90 -13 139 -47 135 -223 303 -419 400 -84 42 -124 56 -317 111 -49 14
-110 32 -135 39 -53 17 -202 46 -236 46 -16 0 -25 -7 -28 -22z"/>
</g>
</svg>
