<?xml version="1.0" standalone="no"?>
<!DOCTYPE svg PUBLIC "-//W3C//DTD SVG 20010904//EN"
 "http://www.w3.org/TR/2001/REC-SVG-20010904/DTD/svg10.dtd">
<svg version="1.0" xmlns="http://www.w3.org/2000/svg"
 width="704.000000pt" height="1280.000000pt" viewBox="0 0 704.000000 1280.000000"
 preserveAspectRatio="xMidYMid meet">
<metadata>
Created by potrace 1.16, written by Peter Selinger 2001-2019
</metadata>
<g transform="translate(0.000000,1280.000000) scale(0.100000,-0.100000)"
fill="#000000" stroke="none">
<path d="M3659 9646 c-41 -28 -59 -76 -59 -159 0 -47 -28 -215 -69 -422 -9
-43 -26 -164 -46 -326 -7 -56 -29 -78 -75 -77 -19 1 -62 -6 -95 -15 -117 -33
-113 -36 -194 117 -81 155 -101 190 -135 244 -13 21 -54 99 -91 173 -107 214
-175 303 -218 286 -8 -3 -27 -21 -42 -41 -22 -29 -30 -59 -50 -178 -45 -282
-54 -492 -31 -803 9 -126 18 -248 21 -269 3 -33 -4 -52 -35 -107 -150 -257
-226 -456 -232 -614 l-3 -70 33 -14 c31 -14 40 -40 11 -33 -8 2 -25 7 -39 10
-82 20 -282 -11 -316 -49 -24 -26 -11 -52 24 -46 15 2 82 15 150 27 143 28
149 25 154 -55 l3 -50 -55 -27 c-30 -15 -92 -49 -137 -75 -65 -38 -83 -53 -83
-70 0 -18 6 -23 24 -23 29 0 58 12 167 73 47 26 93 47 101 47 8 0 25 -18 37
-41 13 -22 52 -70 87 -106 41 -43 63 -72 59 -82 -9 -24 -102 -407 -125 -516
-12 -55 -26 -113 -32 -130 -17 -48 -140 -347 -173 -421 -37 -82 -110 -304
-149 -458 -70 -268 -88 -386 -89 -566 0 -237 27 -371 109 -546 24 -52 44 -102
44 -112 0 -9 -12 -48 -25 -87 -28 -77 -30 -110 -14 -183 13 -64 75 -133 139
-155 66 -23 130 -30 147 -16 10 9 17 9 25 1 17 -17 119 -15 145 3 19 13 22 13
27 -1 5 -14 16 -15 69 -9 34 4 83 9 108 11 25 2 66 10 90 19 40 14 56 13 189
-5 187 -25 562 -43 721 -35 68 4 194 15 280 26 155 20 157 20 215 1 42 -14 89
-20 163 -20 56 0 106 -3 109 -6 12 -12 160 -6 165 7 4 9 8 9 15 -2 14 -19 141
-7 196 19 71 33 129 98 176 198 15 32 42 74 59 94 17 20 31 40 31 45 0 5 13
27 30 49 16 21 30 43 30 47 0 4 10 21 21 37 23 30 36 64 101 249 l39 114 -5
236 c-7 325 -38 486 -156 816 -18 50 -39 108 -47 130 -7 22 -20 54 -27 70 -7
17 -19 46 -27 65 -14 38 -134 256 -153 280 -7 8 -17 27 -24 43 -6 15 -18 27
-26 27 -8 0 -16 11 -18 27 -4 39 -28 42 -28 4 0 -38 -18 -41 -22 -3 -2 16 -9
27 -18 27 -9 0 -16 -11 -18 -27 -5 -43 -22 -33 -22 13 l0 41 42 -3 c43 -4 59
10 40 34 -5 7 -23 53 -41 104 -38 112 -174 390 -270 553 -72 121 -81 146 -81
210 0 33 3 60 6 60 13 0 131 -32 186 -51 70 -23 94 -24 102 -2 11 28 -31 59
-110 83 -63 18 -89 21 -167 15 -104 -7 -126 0 -107 35 10 19 18 21 63 18 l52
-3 10 74 c11 84 17 89 101 90 69 1 114 18 114 42 0 28 -17 31 -111 22 -78 -7
-84 -10 -89 -33 -4 -19 -16 -28 -50 -37 -25 -6 -60 -12 -78 -12 -29 -1 -33 2
-30 22 2 18 13 24 63 36 86 19 89 22 96 77 7 54 -6 231 -22 309 -5 28 -19 102
-29 165 -39 230 -116 471 -226 702 -81 170 -331 632 -407 750 -43 68 -105 138
-121 138 -6 0 -27 -11 -47 -24z m515 -1962 c5 -17 1 -35 -9 -50 -9 -14 -13
-28 -10 -33 9 -15 -58 -104 -102 -136 -80 -57 -109 -71 -179 -84 -62 -12 -84
-12 -170 3 -54 9 -105 23 -114 31 -9 8 -20 15 -25 15 -4 0 -30 22 -56 50 -46
46 -48 50 -30 60 30 16 52 12 76 -12 48 -48 90 -72 147 -86 105 -26 192 -6
274 64 47 41 104 127 104 159 0 19 39 45 66 45 15 0 24 -8 28 -26z m-1596
-107 c7 -15 31 -44 52 -65 75 -72 101 -88 182 -107 111 -25 209 6 296 93 26
26 58 53 71 60 23 12 23 11 17 -18 -12 -61 -79 -139 -144 -167 -113 -49 -141
-54 -232 -42 -47 6 -105 21 -130 32 -87 41 -217 200 -190 232 19 23 64 12 78
-18z"/>
<path d="M5362 4454 c-28 -118 -65 -212 -119 -302 -31 -51 -54 -94 -52 -96 2
-2 54 -14 114 -26 246 -49 358 -116 330 -196 -29 -81 -402 -221 -730 -273
-111 -18 -115 -19 -256 -31 -74 -6 -168 -16 -209 -20 -41 -5 -169 -11 -285
-14 -115 -2 -246 -7 -290 -11 -95 -8 -244 -45 -320 -79 -185 -85 -233 -263
-96 -360 43 -31 45 -31 160 -30 119 1 142 6 401 79 158 46 180 47 615 50 406
3 598 14 760 44 28 6 106 20 175 31 326 56 497 103 639 176 107 56 156 94 216
168 60 76 76 113 85 200 9 81 -13 174 -56 240 -36 55 -185 198 -256 247 -76
52 -213 112 -340 150 -56 17 -132 40 -168 50 -80 24 -177 45 -250 53 l-55 7
-13 -57z"/>
</g>
</svg>
