<?xml version="1.0" standalone="no"?>
<!DOCTYPE svg PUBLIC "-//W3C//DTD SVG 20010904//EN"
 "http://www.w3.org/TR/2001/REC-SVG-20010904/DTD/svg10.dtd">
<svg version="1.0" xmlns="http://www.w3.org/2000/svg"
 width="704.000000pt" height="1280.000000pt" viewBox="0 0 704.000000 1280.000000"
 preserveAspectRatio="xMidYMid meet">
<metadata>
Created by potrace 1.16, written by Peter Selinger 2001-2019
</metadata>
<g transform="translate(0.000000,1280.000000) scale(0.100000,-0.100000)"
fill="#000000" stroke="none">
<path d="M4117 9490 c-37 -32 -57 -99 -57 -186 0 -23 -6 -49 -14 -56 -19 -19
-54 -90 -60 -119 -2 -13 -11 -40 -19 -59 -31 -70 -97 -321 -97 -368 0 -33 -59
-182 -73 -183 -7 -1 -38 -1 -69 0 -32 1 -67 -3 -78 -9 -16 -8 -26 -7 -42 5
-13 8 -37 15 -55 15 -42 0 -57 24 -72 112 -6 36 -23 92 -37 125 -14 32 -28 65
-29 73 -2 8 -23 67 -45 130 -23 63 -52 145 -65 182 -13 37 -30 80 -39 95 -8
15 -21 56 -30 90 -8 34 -25 83 -38 110 -22 43 -28 48 -60 51 -75 6 -150 -58
-163 -140 -3 -20 -23 -71 -45 -115 -21 -43 -55 -123 -75 -178 -20 -55 -50
-134 -66 -176 -16 -42 -29 -79 -29 -83 0 -4 -11 -35 -24 -69 -13 -34 -38 -109
-55 -167 -18 -58 -48 -149 -68 -203 -19 -54 -32 -105 -29 -113 3 -8 16 -14 30
-14 14 0 28 -4 31 -10 3 -5 21 -10 38 -11 18 0 48 -7 67 -15 l35 -14 -60 4
c-33 3 -76 8 -95 11 -47 7 -66 -10 -73 -65 -7 -54 -16 -99 -24 -120 -8 -20 -8
-20 -18 -54 -4 -16 -18 -47 -31 -70 l-23 -40 22 -22 c19 -19 37 -22 146 -28
69 -4 128 -9 133 -12 9 -6 75 31 93 52 39 44 350 75 413 41 13 -6 36 -34 50
-61 34 -62 39 -64 255 -68 l168 -3 37 75 c61 124 82 137 233 142 l106 3 56
-43 c148 -115 223 -260 203 -394 -9 -59 -39 -108 -63 -102 -16 4 -18 17 -18
102 0 91 -2 102 -37 173 -47 96 -119 165 -185 175 -75 11 -144 0 -188 -30 -43
-29 -75 -77 -75 -112 0 -11 -7 -36 -16 -53 -17 -34 -15 -101 5 -138 4 -10 23
-48 41 -85 30 -60 36 -67 57 -62 20 5 23 2 23 -20 0 -34 -36 -43 -84 -21 -86
41 -134 173 -112 307 7 42 6 47 -14 53 -38 12 -333 -5 -351 -21 -20 -18 -10
-113 13 -128 11 -7 14 -16 8 -30 -5 -12 -11 -32 -14 -46 -3 -14 -18 -40 -34
-58 -34 -39 -93 -135 -96 -155 -6 -45 -61 -63 -84 -27 -8 13 -23 20 -42 20
-33 0 -38 11 -16 29 11 9 19 9 34 0 17 -11 23 -9 47 17 14 16 33 45 41 64 9
19 30 57 46 83 l31 49 -12 81 c-11 77 -15 84 -54 119 l-42 38 -135 -1 c-167
-1 -180 -7 -231 -105 -27 -51 -38 -88 -43 -140 -6 -65 -5 -75 24 -135 35 -74
39 -123 11 -138 -24 -13 -60 18 -92 80 -39 76 -25 265 28 357 44 77 33 84
-162 101 -125 11 -139 6 -143 -50 -2 -24 -7 -46 -11 -49 -20 -14 -58 -222 -47
-263 6 -26 9 -27 77 -27 77 0 109 -11 109 -38 0 -21 -50 -49 -105 -58 -22 -4
-51 -18 -66 -32 -14 -14 -38 -26 -53 -28 -16 -2 -36 -10 -45 -18 -10 -9 -21
-16 -25 -16 -4 0 -21 -9 -37 -21 -31 -22 -40 -69 -16 -86 33 -24 110 -10 180
34 43 27 48 54 15 78 l-23 16 24 20 c29 24 38 24 46 0 3 -12 19 -21 43 -25 47
-7 82 -31 82 -57 0 -14 -7 -19 -27 -19 -39 -1 -94 -29 -141 -71 -56 -52 -61
-63 -26 -56 39 7 241 -26 349 -57 50 -15 142 -33 205 -41 63 -8 117 -15 120
-16 3 0 -4 -4 -15 -8 -25 -9 -323 6 -390 20 -27 6 -66 13 -85 15 -19 3 -42 8
-50 11 -8 3 -22 7 -30 8 -55 7 -99 19 -125 35 -27 17 -36 18 -72 7 -23 -7 -45
-16 -49 -20 -4 -4 -20 -7 -35 -7 -32 0 -44 16 -54 72 -9 46 -21 57 -65 59 -70
3 -338 -113 -403 -175 -21 -20 -35 -36 -30 -36 17 -1 -43 -29 -62 -30 -30 0
-245 -209 -245 -238 0 -12 -4 -22 -8 -22 -27 0 -66 -175 -55 -245 6 -39 73
-152 100 -168 7 -5 11 -12 8 -17 -3 -5 -1 -11 5 -15 29 -18 -18 -77 -92 -116
-28 -14 -45 -34 -68 -82 -17 -34 -35 -66 -41 -72 -5 -5 -9 -18 -9 -30 0 -12
-4 -25 -10 -31 -11 -11 -12 -29 -5 -136 5 -89 32 -148 95 -212 53 -53 50 -74
-12 -94 -36 -11 -50 -22 -61 -46 -21 -45 -9 -153 18 -176 8 -7 15 -22 15 -34
0 -24 -33 -79 -43 -70 -3 3 -15 -9 -26 -27 -15 -24 -21 -51 -21 -94 0 -52 7
-74 50 -160 30 -61 50 -113 50 -134 0 -43 33 -115 74 -161 17 -19 51 -67 76
-106 34 -54 64 -85 124 -130 115 -86 236 -165 361 -234 33 -18 83 -46 110 -61
60 -33 95 -71 95 -102 0 -69 97 -136 218 -151 38 -5 44 -3 54 19 10 23 11 23
27 5 23 -27 113 -31 141 -5 18 16 20 16 26 1 5 -13 20 -16 74 -16 38 0 71 4
74 9 3 4 28 6 55 3 33 -3 72 2 119 17 66 20 73 20 153 6 106 -19 154 -23 423
-35 235 -11 334 -8 548 17 134 15 137 15 180 -5 65 -31 93 -36 111 -18 13 13
17 14 27 1 9 -10 32 -14 77 -14 55 1 66 4 70 20 7 25 19 24 26 -1 4 -18 14
-20 72 -20 53 0 71 4 81 18 13 16 15 16 28 0 10 -14 28 -18 74 -18 75 0 135
25 184 76 53 57 90 82 160 111 35 14 68 29 74 34 6 5 36 18 67 28 30 11 113
48 183 83 157 77 153 76 130 50 -10 -12 -27 -24 -36 -27 -42 -13 -30 -35 34
-64 110 -50 122 -99 39 -169 -62 -51 -145 -89 -318 -145 -273 -88 -631 -137
-1005 -137 -96 0 -213 -5 -260 -10 -47 -6 -110 -13 -140 -16 -103 -10 -254
-46 -318 -76 -77 -36 -148 -108 -163 -162 -20 -75 8 -151 73 -193 36 -25 52
-28 142 -31 70 -3 125 1 181 13 44 10 98 21 120 26 22 4 72 18 110 29 167 51
163 50 617 60 241 5 475 14 520 19 121 15 221 29 328 46 52 9 131 20 175 26
179 22 422 88 536 145 81 41 191 136 242 210 40 58 50 84 64 156 16 82 16 89
-2 147 -24 81 -78 161 -162 241 -86 83 -120 108 -213 157 -144 76 -270 114
-270 82 0 -5 -4 -8 -9 -4 -16 9 30 84 72 119 53 43 68 76 74 165 5 81 21 132
65 197 17 26 28 55 28 76 0 52 -27 132 -54 161 -13 14 -31 46 -41 70 -16 42
-16 46 1 78 10 19 21 55 24 80 l6 47 -38 11 c-47 15 -78 47 -78 81 0 27 59
151 86 181 8 8 14 21 14 28 0 7 4 10 9 7 23 -15 28 117 6 178 -21 61 -94 161
-131 181 -19 10 -34 22 -34 26 0 4 -27 22 -60 40 -69 36 -74 52 -32 101 15 18
36 51 47 73 11 22 26 46 33 53 8 9 12 45 12 100 0 93 -17 156 -63 235 -36 61
-152 167 -227 206 -36 19 -81 44 -100 56 -103 65 -420 199 -540 229 -68 17
-87 33 -97 79 -3 15 -9 29 -13 32 -4 3 -73 -3 -154 -12 -136 -15 -147 -15
-164 0 -10 10 -26 17 -35 17 -24 0 -31 20 -14 37 13 14 16 13 21 -5 6 -19 9
-19 53 -6 25 8 89 14 142 15 53 0 112 5 131 12 34 12 35 13 38 71 l3 59 -52
-7 c-63 -9 -218 -49 -249 -66 -29 -15 -46 0 -31 28 13 25 48 48 86 55 17 3 62
13 100 22 41 10 90 14 118 11 l47 -5 0 104 c0 57 -4 126 -10 152 -5 26 -11 62
-14 78 -16 101 -42 220 -61 285 -12 41 -25 87 -29 102 -4 16 -18 34 -35 43
l-29 15 19 39 c10 22 19 46 19 53 0 21 -47 196 -70 263 -12 33 -33 98 -46 144
-14 47 -38 108 -54 137 -15 29 -26 54 -24 57 5 5 -42 135 -55 151 -5 6 -14 28
-20 48 -7 21 -30 63 -52 95 -21 32 -39 62 -39 67 0 9 -85 132 -105 151 -20 20
-60 45 -72 45 -7 0 -28 -13 -46 -30z m-719 -1515 c15 -5 22 -15 22 -32 0 -23
-3 -25 -37 -20 -21 3 -60 10 -87 16 -27 6 -113 12 -192 13 -78 2 -135 6 -126
10 13 5 12 7 -8 9 -14 2 13 6 60 10 99 8 335 4 368 -6z m1179 -856 c40 -25
166 -39 177 -20 23 37 51 -21 39 -82 -7 -33 -37 -36 -85 -7 -18 10 -65 26
-103 35 -125 28 -155 50 -112 80 29 20 43 19 84 -6z m-2090 -523 c23 -9 89
-16 168 -19 72 -2 139 -9 150 -15 12 -6 68 -16 125 -22 58 -6 107 -16 111 -21
3 -6 124 -14 285 -19 153 -5 340 -16 414 -24 74 -9 217 -16 318 -16 173 0 182
-1 182 -19 0 -15 -11 -22 -52 -31 -79 -17 -541 -28 -898 -20 -173 3 -286 7
-251 8 35 1 62 5 58 8 -3 3 -43 10 -89 15 -191 22 -356 38 -398 38 l-45 1 38
-20 c20 -11 55 -20 76 -20 48 0 78 -10 61 -20 -16 -10 -126 12 -223 44 -43 14
-94 26 -113 26 -19 0 -45 5 -57 12 -12 6 -42 15 -67 19 -25 4 -81 15 -125 24
-44 10 -107 23 -140 29 -35 7 -53 15 -44 18 9 3 35 2 60 -2 24 -4 87 -10 139
-14 52 -3 125 -8 163 -12 l67 -7 0 31 c0 43 25 51 87 28z m393 -1017 c175 -12
200 -17 200 -40 0 -17 -8 -19 -72 -19 -100 0 -331 26 -356 39 -11 6 -33 11
-49 11 -15 0 -39 3 -53 7 l-25 7 30 8 c30 7 79 5 325 -13z m-516 -224 c21 -11
72 -16 185 -19 148 -4 309 -17 341 -29 8 -3 69 -10 135 -17 165 -16 222 -28
229 -47 4 -9 4 -18 2 -20 -3 -3 -59 0 -124 6 -66 6 -150 11 -187 11 -36 0 -99
5 -138 11 -70 10 -102 15 -348 59 -64 12 -129 18 -143 14 -28 -7 -56 9 -56 32
0 19 67 18 104 -1z m3081 -86 c-5 -27 -1 -24 -60 -47 -56 -22 -65 -44 -20 -52
21 -4 31 -12 33 -27 3 -17 -6 -24 -45 -38 -26 -10 -61 -23 -78 -30 -16 -7 -73
-18 -125 -24 -52 -7 -122 -16 -155 -21 -166 -25 -251 -33 -418 -36 -100 -2
-225 -8 -277 -15 -137 -16 -670 -22 -920 -10 -326 16 -393 17 -397 6 -4 -12
30 -35 59 -40 49 -10 26 -15 -42 -11 -313 21 -311 21 -364 -8 -51 -27 -85 -33
-102 -17 -5 5 -22 11 -39 13 -30 3 -46 31 -28 49 13 13 107 31 193 38 l75 6
-30 16 c-20 11 -68 19 -145 23 -137 7 -290 27 -290 37 0 4 14 11 32 14 18 4
44 17 59 28 20 14 34 18 51 12 13 -4 77 -13 143 -20 66 -8 156 -21 200 -30
132 -26 202 -34 380 -45 94 -5 214 -15 268 -20 54 -6 123 -10 153 -10 30 0 69
-6 87 -13 43 -18 422 -22 532 -6 114 16 257 29 427 37 96 5 151 11 160 20 6 6
28 12 47 12 20 0 54 5 76 11 22 6 78 17 125 25 126 20 150 25 150 35 0 12
-163 11 -231 -1 -67 -12 -448 -22 -546 -13 -50 4 -73 10 -73 19 0 7 4 15 10
19 5 3 89 12 187 20 98 9 214 20 258 25 44 5 123 14 175 20 235 27 376 45 440
58 68 14 69 14 65 -9z m-601 -934 c-4 -9 -19 -15 -39 -15 -17 0 -46 -7 -64
-16 -35 -18 -144 -35 -169 -27 -14 4 -15 3 -2 -6 8 -5 12 -13 8 -16 -7 -8
-234 -26 -393 -32 -66 -2 -124 -8 -129 -14 -6 -5 -30 -9 -55 -9 -26 0 -100 -7
-166 -15 -292 -37 -504 -42 -920 -25 -143 6 -260 16 -290 24 -85 24 -155 36
-306 50 -80 8 -161 21 -180 29 l-34 15 45 1 c25 0 119 -6 210 -14 91 -9 228
-20 305 -25 77 -5 212 -14 300 -21 103 -7 274 -9 481 -6 272 5 333 9 400 26
56 14 146 23 314 31 130 7 269 18 310 26 41 7 105 16 142 19 37 3 84 12 105
20 21 7 59 14 85 14 38 1 46 -2 42 -14z"/>
</g>
</svg>
