<?xml version="1.0" standalone="no"?>
<!DOCTYPE svg PUBLIC "-//W3C//DTD SVG 20010904//EN"
 "http://www.w3.org/TR/2001/REC-SVG-20010904/DTD/svg10.dtd">
<svg version="1.0" xmlns="http://www.w3.org/2000/svg"
 width="704.000000pt" height="1280.000000pt" viewBox="0 0 704.000000 1280.000000"
 preserveAspectRatio="xMidYMid meet">
<metadata>
Created by potrace 1.16, written by Peter Selinger 2001-2019
</metadata>
<g transform="translate(0.000000,1280.000000) scale(0.100000,-0.100000)"
fill="#000000" stroke="none">
<path d="M3768 9641 c-28 -23 -41 -62 -61 -186 -16 -97 -65 -331 -98 -460 -11
-44 -29 -129 -39 -189 -11 -59 -24 -114 -31 -122 -7 -9 -31 -14 -61 -14 -27 0
-61 -6 -76 -14 -16 -8 -53 -13 -91 -12 -63 2 -65 3 -79 36 -8 19 -30 68 -48
108 -19 39 -34 76 -34 81 0 5 -7 14 -15 21 -8 7 -15 19 -15 26 0 8 -27 71 -60
140 -33 69 -60 130 -60 135 0 5 -4 17 -9 27 -5 9 -35 70 -66 134 -52 109 -89
158 -120 158 -16 0 -60 -40 -74 -68 -25 -48 -80 -358 -102 -572 -5 -52 -12
-232 -15 -400 l-6 -305 -75 -120 c-41 -66 -91 -156 -112 -200 -49 -102 -100
-273 -103 -350 -3 -60 -3 -60 30 -70 17 -5 32 -15 32 -23 0 -11 -7 -12 -27 -7
-16 5 -86 10 -158 12 -110 3 -135 1 -165 -14 -22 -12 -35 -25 -35 -38 0 -22
-9 -22 197 -9 l117 7 6 -26 c4 -14 8 -41 8 -59 2 -30 -2 -35 -43 -53 -147 -65
-225 -111 -228 -132 -6 -41 33 -34 171 28 60 27 114 49 121 49 6 0 26 -27 45
-60 18 -34 57 -87 87 -119 30 -32 54 -66 54 -74 0 -9 -19 -87 -41 -174 -23
-87 -45 -174 -49 -193 -4 -19 -14 -64 -23 -100 -9 -36 -25 -105 -37 -155 -12
-49 -40 -130 -64 -180 -23 -49 -57 -128 -76 -175 -18 -47 -45 -116 -61 -155
-71 -182 -184 -589 -209 -755 -7 -47 -13 -157 -13 -245 -1 -237 22 -349 105
-529 l51 -108 -26 -92 c-15 -51 -27 -112 -27 -137 0 -82 55 -164 139 -209 33
-17 326 -27 336 -10 5 8 10 8 21 -1 20 -17 195 -4 257 18 46 16 54 16 170 -1
186 -27 257 -34 450 -40 193 -6 461 6 626 29 100 14 107 14 158 -5 30 -11 68
-20 86 -20 18 0 60 -3 95 -6 40 -4 68 -2 76 6 10 7 16 8 21 0 9 -15 162 -13
168 3 3 9 7 9 21 -2 22 -18 129 -8 191 19 64 27 127 97 170 188 20 42 50 95
66 117 16 22 46 62 67 90 35 48 96 179 128 275 8 25 22 68 32 95 34 97 20 522
-24 745 -49 245 -231 716 -340 880 -20 30 -41 67 -46 83 -6 16 -17 27 -28 27
-13 0 -20 9 -22 27 -4 39 -28 42 -28 4 0 -38 -18 -41 -22 -3 -2 16 -9 27 -18
27 -9 0 -16 -11 -18 -27 -5 -43 -22 -33 -22 13 l0 41 42 -3 c43 -4 59 10 40
34 -5 7 -24 56 -41 110 -19 63 -65 164 -126 278 -52 99 -95 182 -95 185 0 3
-29 55 -64 117 -56 100 -63 117 -59 155 6 54 12 54 153 0 102 -38 112 -40 127
-26 9 9 13 23 10 32 -16 41 -201 98 -289 89 -62 -6 -101 8 -91 33 4 12 18 15
61 12 l56 -3 7 35 c4 19 10 56 14 83 l6 47 73 0 c124 0 171 19 134 56 -11 11
-33 13 -106 8 -87 -7 -93 -9 -105 -33 -13 -27 -42 -38 -109 -40 -32 -1 -38 2
-38 19 0 24 27 36 100 46 29 4 53 12 55 18 22 70 10 240 -45 651 -13 95 -90
385 -120 450 -12 25 -58 137 -104 248 -46 111 -109 249 -140 307 -31 58 -90
171 -132 251 -111 217 -154 258 -216 210z m191 -1388 c86 -36 133 -95 146
-186 4 -26 10 -49 14 -51 13 -8 -7 -171 -29 -246 -52 -173 -127 -284 -229
-337 -195 -103 -399 41 -418 295 -7 90 13 236 38 278 11 17 19 38 19 45 1 21
89 123 136 157 91 66 226 85 323 45z m-908 -93 c77 -53 120 -129 141 -247 9
-58 9 -87 -2 -155 -12 -80 -54 -200 -78 -229 -7 -8 -32 -39 -57 -70 -47 -59
-64 -70 -135 -93 -47 -15 -91 -14 -172 5 -38 9 -57 22 -94 62 -26 29 -59 77
-73 107 -24 51 -26 64 -25 185 2 133 3 140 22 188 7 16 12 31 12 33 0 3 18 32
40 64 65 95 119 139 210 171 14 5 59 7 101 5 60 -2 83 -7 110 -26z"/>
<path d="M3702 8196 c-34 -18 -81 -50 -104 -71 -53 -50 -102 -158 -119 -259
-34 -204 77 -376 244 -376 138 0 257 193 257 416 0 143 -37 232 -117 286 -58
39 -89 40 -161 4z"/>
<path d="M2785 8122 c-96 -46 -182 -198 -192 -337 -13 -199 86 -345 235 -345
97 0 150 42 213 168 29 59 33 78 37 168 7 162 -37 281 -124 335 -48 29 -120
34 -169 11z"/>
<path d="M5367 4483 c-22 -127 -86 -289 -147 -378 -18 -26 -30 -48 -28 -50 1
-2 60 -15 129 -29 155 -31 250 -69 290 -113 52 -60 36 -96 -74 -158 -95 -52
-392 -151 -527 -175 -267 -46 -595 -77 -910 -85 -298 -8 -438 -31 -555 -91
-160 -81 -219 -201 -149 -304 47 -70 88 -85 225 -84 94 1 131 6 200 27 181 56
267 79 329 89 36 5 225 11 420 13 411 3 683 18 825 45 55 10 156 28 225 40
458 78 674 171 806 347 94 125 100 300 14 432 -78 121 -255 257 -435 333 -172
73 -519 168 -611 168 -16 0 -23 -8 -27 -27z"/>
</g>
</svg>
