<?xml version="1.0" standalone="no"?>
<!DOCTYPE svg PUBLIC "-//W3C//DTD SVG 20010904//EN"
 "http://www.w3.org/TR/2001/REC-SVG-20010904/DTD/svg10.dtd">
<svg version="1.0" xmlns="http://www.w3.org/2000/svg"
 width="704.000000pt" height="1280.000000pt" viewBox="0 0 704.000000 1280.000000"
 preserveAspectRatio="xMidYMid meet">
<metadata>
Created by potrace 1.16, written by Peter Selinger 2001-2019
</metadata>
<g transform="translate(0.000000,1280.000000) scale(0.100000,-0.100000)"
fill="#000000" stroke="none">
<path d="M3940 9802 c-52 -16 -89 -88 -105 -202 -3 -25 -15 -70 -25 -100 -10
-30 -26 -80 -34 -110 -9 -30 -36 -122 -60 -205 -54 -182 -79 -296 -67 -308 9
-9 487 6 634 20 57 5 67 9 67 25 0 27 -27 33 -66 14 -19 -9 -37 -16 -39 -16
-12 0 -4 54 11 80 16 27 16 29 -7 61 -28 40 -49 78 -49 90 0 5 8 9 19 9 10 0
25 7 32 16 15 19 -4 80 -76 249 -24 55 -60 138 -79 185 -41 96 -99 186 -124
192 -9 3 -24 3 -32 0z"/>
<path d="M2874 9683 c-15 -16 -32 -40 -39 -54 -19 -35 -51 -166 -75 -301 -11
-62 -27 -142 -35 -178 -8 -36 -17 -118 -21 -182 l-7 -118 301 0 c166 0 303 4
306 9 8 12 -28 122 -74 226 -10 24 -51 119 -118 275 -28 63 -53 126 -57 140
-4 14 -23 57 -42 95 -59 119 -92 139 -139 88z"/>
<path d="M4329 8856 c-4 -3 -289 -24 -634 -46 -88 -6 -349 -13 -580 -17 -251
-3 -423 -10 -426 -16 -4 -5 -10 -95 -14 -199 l-7 -189 -38 -63 c-21 -35 -69
-108 -107 -162 -101 -144 -148 -252 -182 -410 -20 -92 -18 -104 14 -104 28 0
49 -24 41 -46 -7 -17 -39 -12 -66 11 -39 34 -229 54 -285 31 -24 -10 -35 -22
-35 -35 0 -12 6 -21 13 -22 6 0 74 -1 149 -2 75 -1 139 -5 142 -8 3 -3 7 -34
8 -69 l3 -63 -69 -22 c-38 -13 -82 -26 -98 -29 -15 -3 -51 -15 -79 -27 -40
-18 -49 -26 -47 -43 2 -11 11 -22 21 -24 10 -2 78 15 152 37 73 23 135 41 138
41 2 0 11 -15 18 -32 30 -75 85 -151 156 -218 56 -52 73 -75 68 -88 -15 -39
-64 -202 -79 -262 -60 -248 -86 -366 -100 -441 -14 -86 -21 -105 -69 -209 -79
-171 -105 -241 -181 -477 -39 -120 -118 -429 -135 -528 -22 -125 -41 -303 -41
-395 0 -200 30 -347 101 -494 45 -93 46 -108 18 -196 -24 -74 -26 -164 -5
-213 20 -50 76 -108 122 -128 49 -22 142 -28 154 -10 5 9 10 10 14 2 10 -15
156 -15 156 1 0 6 7 5 18 -5 15 -13 32 -16 82 -12 35 3 68 9 74 12 6 4 23 6
38 4 14 -1 50 5 79 13 39 12 61 13 89 6 73 -20 300 -40 510 -46 228 -7 465 5
639 31 101 15 105 15 146 -5 25 -12 59 -20 81 -18 22 1 67 -2 100 -6 56 -7 63
-6 77 14 14 21 14 21 20 0 5 -18 13 -20 81 -20 60 0 78 3 83 16 5 13 8 12 24
-5 22 -23 72 -20 166 12 85 28 134 77 183 183 21 46 55 104 74 128 20 24 36
48 36 53 0 6 18 37 40 69 22 33 40 65 40 71 0 7 14 42 30 78 17 36 30 71 30
78 0 8 11 46 25 86 32 94 39 297 19 521 -23 248 -32 289 -133 595 -86 262
-172 463 -254 593 -44 68 -115 227 -149 331 -29 90 -129 305 -168 361 -10 14
-55 98 -100 187 l-83 161 13 91 c7 52 18 91 24 91 18 0 146 -48 205 -77 40
-19 58 -23 70 -16 66 42 -70 122 -242 144 -91 11 -120 23 -115 47 3 13 12 16
38 13 76 -8 74 -9 82 39 4 25 10 60 13 78 l6 33 -58 -6 c-48 -6 -61 -4 -72 9
-20 24 -5 34 65 48 32 7 60 13 61 13 11 6 14 202 4 304 -6 69 -16 182 -21 251
-9 122 -44 331 -75 451 -26 98 -82 187 -106 165z m-383 -605 c45 -21 114 -113
114 -153 0 -13 7 -33 15 -46 20 -27 24 -162 7 -212 -6 -19 -21 -64 -33 -100
-12 -36 -30 -81 -40 -101 -19 -38 -82 -99 -102 -99 -7 0 -25 -7 -40 -15 -45
-23 -149 7 -213 63 -28 24 -70 130 -90 224 -12 59 -13 85 -4 138 17 95 32 150
42 156 4 3 17 23 28 43 24 48 84 106 111 107 11 1 22 4 26 8 14 14 139 5 179
-13z m-884 -24 c40 -17 93 -79 131 -152 67 -130 53 -320 -32 -452 -32 -50 -50
-66 -97 -89 -69 -34 -160 -39 -189 -10 -9 9 -20 16 -25 16 -15 0 -62 88 -66
123 -2 17 -9 53 -15 79 -6 27 -9 105 -7 175 3 120 5 132 35 195 44 89 90 124
172 127 34 1 74 -4 93 -12z"/>
<path d="M3721 8159 c-63 -25 -99 -92 -113 -211 -17 -144 17 -251 101 -317 32
-25 48 -31 89 -31 66 0 103 22 146 89 79 123 57 334 -46 444 -33 35 -39 37
-94 36 -33 0 -70 -5 -83 -10z"/>
<path d="M2889 8137 c-19 -12 -45 -44 -59 -72 -23 -46 -25 -61 -25 -190 0
-155 6 -178 71 -254 40 -46 83 -59 138 -41 42 14 111 87 138 148 41 92 3 326
-63 382 -62 53 -144 64 -200 27z"/>
<path d="M5345 4483 c-25 -141 -64 -250 -133 -365 -36 -61 -35 -78 3 -78 43 0
236 -41 291 -61 30 -11 70 -35 89 -53 46 -44 47 -81 3 -123 -32 -30 -146 -86
-238 -116 -25 -8 -80 -29 -122 -46 -90 -35 -170 -54 -358 -81 -180 -25 -297
-38 -402 -44 -49 -3 -92 -7 -96 -10 -5 -3 -96 -6 -202 -7 -107 -1 -223 -5
-259 -10 -37 -4 -86 -11 -111 -14 -69 -8 -193 -35 -205 -44 -5 -4 -31 -15 -57
-25 -106 -39 -178 -126 -178 -215 0 -48 11 -74 49 -114 46 -51 77 -61 181 -61
97 1 179 17 415 85 135 38 242 47 610 48 392 1 607 15 815 51 91 15 185 31
210 35 44 6 102 19 233 50 174 41 326 106 433 183 42 31 116 127 152 198 31
60 39 176 17 239 -23 68 -48 108 -122 191 -130 147 -291 243 -523 312 -159 48
-364 98 -437 107 l-52 7 -6 -39z"/>
</g>
</svg>
