<?xml version="1.0" standalone="no"?>
<!DOCTYPE svg PUBLIC "-//W3C//DTD SVG 20010904//EN"
 "http://www.w3.org/TR/2001/REC-SVG-20010904/DTD/svg10.dtd">
<svg version="1.0" xmlns="http://www.w3.org/2000/svg"
 width="704.000000pt" height="1280.000000pt" viewBox="0 0 704.000000 1280.000000"
 preserveAspectRatio="xMidYMid meet">
<metadata>
Created by potrace 1.16, written by Peter Selinger 2001-2019
</metadata>
<g transform="translate(0.000000,1280.000000) scale(0.100000,-0.100000)"
fill="#000000" stroke="none">
<path d="M3925 9800 c-37 -15 -72 -80 -85 -160 -7 -41 -25 -115 -40 -165 -43
-138 -130 -456 -146 -532 -21 -102 -22 -101 99 -97 204 7 299 14 319 25 24 13
48 67 48 111 0 28 -7 38 -50 67 -95 65 -184 177 -157 199 6 6 71 15 142 21
145 13 165 17 165 34 0 7 -16 50 -36 97 -20 47 -44 109 -55 139 -31 87 -88
199 -120 236 -31 35 -48 40 -84 25z"/>
<path d="M2872 9685 c-37 -31 -53 -72 -80 -200 -26 -120 -74 -370 -78 -405
-13 -101 -23 -243 -18 -251 10 -17 624 3 624 21 0 19 -76 215 -135 345 -64
143 -107 249 -120 295 -13 46 -87 183 -108 201 -30 25 -50 23 -85 -6z"/>
<path d="M3590 8810 c-63 -4 -289 -8 -501 -9 -296 -1 -389 -4 -397 -13 -5 -7
-13 -98 -17 -203 -6 -167 -9 -193 -27 -218 -11 -16 -31 -49 -45 -74 -13 -26
-33 -58 -44 -72 -90 -117 -156 -244 -200 -386 -8 -24 -39 -163 -39 -172 0 -2
9 -3 21 -3 32 0 59 -19 59 -40 0 -24 -26 -26 -56 -6 -28 20 -87 33 -173 40
-84 7 -146 -6 -161 -33 -18 -34 8 -40 156 -38 76 1 145 -2 152 -6 17 -11 17
-126 0 -132 -7 -2 -66 -20 -131 -40 -126 -40 -164 -62 -154 -88 10 -26 45 -21
173 23 65 22 122 40 129 40 7 0 28 -33 48 -73 26 -52 59 -96 117 -155 l81 -83
-15 -62 c-8 -34 -42 -170 -75 -302 -34 -132 -66 -269 -72 -305 -17 -99 -37
-166 -81 -265 -21 -49 -50 -115 -63 -145 -87 -197 -239 -731 -265 -930 -6 -52
-16 -122 -21 -155 -19 -130 -4 -369 32 -505 11 -41 38 -114 60 -161 45 -98 47
-123 19 -204 -23 -66 -26 -148 -8 -209 25 -82 123 -146 226 -146 36 0 45 4 49
21 5 20 6 20 17 -3 11 -21 18 -23 81 -21 41 1 71 6 73 13 3 8 8 8 18 -1 23
-19 198 -10 278 15 46 14 59 14 165 -5 172 -29 415 -42 671 -35 124 4 248 11
275 15 200 34 215 35 269 13 28 -12 67 -21 86 -21 19 0 65 -2 103 -6 64 -6 67
-6 76 17 9 22 12 22 15 -4 1 -16 144 -24 159 -9 6 6 17 5 32 -5 18 -12 34 -13
81 -5 128 21 210 84 264 203 18 40 49 96 69 123 47 64 116 183 126 215 4 14
16 45 27 68 41 91 77 237 84 338 8 120 -10 391 -37 554 -43 259 -230 774 -343
944 -46 69 -143 275 -155 328 -20 87 -114 285 -251 528 -117 207 -115 199
-100 302 7 49 16 91 20 93 10 6 117 -28 198 -65 68 -31 74 -32 90 -16 12 12
14 21 6 34 -17 29 -135 82 -219 97 -150 28 -150 29 -150 50 0 21 13 23 79 14
32 -4 35 0 53 101 l8 45 115 3 c117 3 137 10 120 43 -13 23 -62 31 -146 23
-68 -6 -72 -8 -77 -34 -6 -25 -10 -28 -69 -33 -48 -4 -67 -2 -78 9 -23 23 7
44 73 51 l56 6 6 41 c21 140 -43 766 -97 946 -16 56 -44 103 -70 119 -17 11
-26 8 -59 -15 -34 -23 -136 -64 -161 -64 -4 0 -22 -15 -38 -32 -25 -28 -31
-31 -40 -18 -6 8 -8 29 -5 45 20 99 19 102 -15 109 -39 7 -302 5 -460 -4z
m365 -560 c43 -22 105 -108 105 -146 0 -17 6 -37 14 -43 22 -19 28 -124 10
-209 -34 -170 -102 -287 -182 -313 -20 -6 -42 -16 -48 -21 -25 -19 -149 22
-198 67 -38 35 -95 199 -97 281 -3 85 15 185 42 240 33 65 113 152 147 157 53
9 177 1 207 -13z m-894 -24 c104 -44 193 -252 170 -397 -36 -215 -111 -308
-270 -331 -3 0 -20 3 -37 7 -68 16 -134 97 -134 164 0 15 -5 32 -11 38 -17 17
-24 281 -9 329 46 143 100 199 197 203 34 1 74 -4 94 -13z"/>
<path d="M3766 8169 c-63 -10 -108 -53 -135 -128 -53 -147 -30 -300 58 -392
l47 -49 67 0 c62 0 69 2 99 33 18 18 44 55 58 83 22 43 25 62 25 159 0 98 -3
116 -26 165 -33 70 -87 130 -119 134 -14 2 -47 0 -74 -5z"/>
<path d="M2900 8138 c-62 -32 -90 -90 -97 -201 -19 -294 135 -465 278 -310 67
71 81 107 87 208 4 72 1 105 -11 133 -8 20 -22 58 -32 84 -12 36 -27 54 -62
77 -56 38 -101 40 -163 9z"/>
<path d="M5346 4498 c-33 -167 -72 -277 -132 -380 -18 -32 -30 -60 -25 -62 4
-3 54 -15 112 -26 228 -46 329 -98 331 -169 1 -26 -6 -40 -28 -58 -42 -34
-139 -82 -219 -108 -38 -13 -114 -39 -169 -59 -144 -53 -427 -99 -736 -121
-41 -3 -97 -8 -125 -10 -27 -3 -126 -7 -220 -10 -317 -9 -465 -31 -589 -89
-114 -53 -176 -129 -176 -216 0 -63 40 -123 105 -158 35 -19 213 -22 280 -4
22 5 78 20 125 32 47 12 119 32 160 45 118 36 248 48 464 43 214 -6 610 6 744
22 103 13 550 94 641 116 82 20 254 80 306 106 172 88 277 221 296 375 17 132
-15 216 -125 332 -157 165 -273 229 -586 325 -161 49 -213 63 -309 81 -110 20
-120 19 -125 -7z"/>
</g>
</svg>
