<?xml version="1.0" standalone="no"?>
<!DOCTYPE svg PUBLIC "-//W3C//DTD SVG 20010904//EN"
 "http://www.w3.org/TR/2001/REC-SVG-20010904/DTD/svg10.dtd">
<svg version="1.0" xmlns="http://www.w3.org/2000/svg"
 width="704.000000pt" height="1280.000000pt" viewBox="0 0 704.000000 1280.000000"
 preserveAspectRatio="xMidYMid meet">
<metadata>
Created by potrace 1.16, written by Peter Selinger 2001-2019
</metadata>
<g transform="translate(0.000000,1280.000000) scale(0.100000,-0.100000)"
fill="#000000" stroke="none">
<path d="M3927 9787 c-48 -12 -59 -33 -87 -172 -12 -60 -28 -121 -35 -135 -7
-14 -20 -54 -30 -90 -17 -67 -53 -190 -86 -295 -30 -97 -48 -213 -33 -219 7
-3 95 0 196 5 101 6 260 13 353 15 180 4 198 10 155 49 -11 10 -20 25 -20 33
0 9 -13 45 -29 81 -16 36 -43 110 -60 163 -17 54 -51 142 -75 195 -24 54 -47
109 -51 123 -11 37 -81 177 -105 211 -29 40 -48 47 -93 36z"/>
<path d="M2870 9672 c-33 -31 -44 -52 -65 -127 -14 -49 -33 -130 -41 -180 -9
-49 -24 -126 -34 -170 -18 -81 -35 -211 -35 -275 0 -73 -9 -70 233 -70 278 0
382 8 382 28 0 8 -16 54 -36 101 -53 126 -124 290 -144 336 -40 87 -60 138
-60 148 0 16 -87 189 -107 213 -32 38 -51 37 -93 -4z"/>
<path d="M4309 8846 c-2 -3 -153 -12 -334 -21 -182 -9 -350 -20 -375 -24 -25
-4 -229 -8 -455 -10 -225 -1 -420 -5 -432 -7 -12 -3 -25 -13 -29 -22 -4 -10
-10 -96 -13 -192 l-6 -175 -37 -58 c-21 -31 -38 -59 -38 -62 0 -6 -64 -108
-101 -162 -74 -106 -183 -401 -165 -448 2 -7 17 -15 32 -17 32 -4 54 -32 38
-48 -11 -11 -27 -6 -89 27 -21 12 -64 18 -143 21 -99 4 -115 2 -133 -14 -11
-10 -18 -25 -17 -33 3 -14 25 -16 150 -16 80 0 148 -2 151 -5 2 -3 7 -33 10
-68 8 -73 24 -61 -158 -117 -126 -39 -152 -53 -142 -79 10 -26 64 -19 192 24
65 22 120 40 122 40 1 0 17 -30 35 -67 23 -48 59 -94 121 -157 48 -49 87 -94
87 -100 0 -6 -12 -51 -26 -101 -41 -149 -121 -484 -139 -580 -20 -113 -29
-142 -71 -231 -128 -274 -281 -760 -336 -1069 -18 -98 -22 -160 -22 -340 -1
-261 9 -314 98 -510 37 -80 39 -106 17 -173 -24 -70 -28 -183 -8 -229 31 -76
110 -132 204 -146 45 -7 72 8 74 41 0 9 5 2 10 -17 l10 -33 70 4 c46 2 73 9
79 18 7 11 11 11 24 1 25 -21 262 -3 304 23 5 3 43 0 84 -8 230 -45 731 -56
1036 -22 161 18 177 18 220 3 90 -30 91 -30 101 -5 7 15 10 18 10 7 1 -23 22
-29 91 -29 46 0 59 4 65 18 6 15 8 15 18 1 17 -23 146 -34 154 -14 7 19 20 19
40 -1 12 -12 27 -14 67 -9 123 16 233 101 287 222 17 37 41 82 54 98 12 17 32
50 44 74 13 24 36 62 52 84 16 22 29 45 29 50 0 6 14 39 30 74 17 34 30 69 30
77 0 8 14 56 31 107 l32 93 -6 206 c-9 276 -35 454 -97 655 -17 55 -35 114
-40 130 -8 31 -26 79 -99 268 -45 118 -114 260 -159 328 -15 24 -43 78 -62
119 -18 41 -39 82 -46 91 -8 8 -14 22 -14 30 0 62 -177 447 -329 714 -31 54
-51 102 -51 121 0 39 21 146 30 157 9 10 99 -19 199 -64 70 -31 74 -32 87 -15
9 13 10 24 3 37 -21 40 -163 91 -289 104 -66 7 -83 16 -78 41 4 19 11 21 78
13 l34 -4 13 69 c7 38 15 71 17 74 3 2 55 7 115 10 85 4 111 8 116 20 12 31
-15 42 -105 42 -104 0 -120 -5 -120 -35 0 -17 -7 -24 -31 -29 -58 -11 -109 -7
-116 10 -9 24 13 38 75 49 l57 10 7 45 c10 67 9 163 -2 280 -6 58 -17 173 -25
255 -21 222 -60 419 -104 522 -24 58 -29 63 -57 63 -17 0 -33 -2 -35 -4z
m-199 -815 c140 -44 211 -139 138 -185 -12 -7 -24 -3 -47 16 -42 36 -144 83
-212 98 -33 7 -94 11 -150 8 -109 -5 -167 -26 -241 -89 -47 -39 -84 -49 -106
-27 -57 57 102 170 278 198 90 14 266 5 340 -19z m-995 -42 c154 -47 213 -104
150 -145 -23 -15 -28 -14 -127 34 -118 57 -177 68 -275 51 -75 -13 -138 -41
-197 -88 -39 -31 -69 -38 -96 -21 -12 8 -12 13 3 44 22 48 101 97 207 129 72
22 99 26 175 22 52 -2 119 -13 160 -26z"/>
<path d="M5356 4509 c-3 -8 -17 -60 -30 -116 -23 -93 -70 -203 -124 -293 -12
-19 -22 -38 -22 -42 0 -3 19 -9 43 -13 256 -40 372 -86 402 -159 21 -50 0 -76
-102 -129 -49 -25 -106 -52 -128 -60 -22 -8 -85 -31 -140 -51 -143 -53 -304
-85 -583 -117 -116 -13 -114 -13 -472 -27 -146 -6 -287 -14 -315 -17 -27 -3
-68 -8 -90 -11 -175 -21 -345 -99 -402 -185 -57 -86 -24 -201 71 -252 35 -19
56 -22 146 -21 93 2 128 8 300 54 107 29 211 57 230 62 20 6 211 12 445 14
419 3 655 15 780 39 39 7 124 23 190 35 293 53 346 64 445 97 210 69 344 154
420 265 54 78 70 120 77 203 6 79 -12 153 -51 211 -44 65 -154 178 -221 227
-81 59 -238 135 -345 167 -41 12 -90 29 -108 36 -49 21 -295 83 -357 90 -42 5
-56 3 -59 -7z"/>
</g>
</svg>
