<?xml version="1.0" standalone="no"?>
<!DOCTYPE svg PUBLIC "-//W3C//DTD SVG 20010904//EN"
 "http://www.w3.org/TR/2001/REC-SVG-20010904/DTD/svg10.dtd">
<svg version="1.0" xmlns="http://www.w3.org/2000/svg"
 width="704.000000pt" height="1280.000000pt" viewBox="0 0 704.000000 1280.000000"
 preserveAspectRatio="xMidYMid meet">
<metadata>
Created by potrace 1.16, written by Peter Selinger 2001-2019
</metadata>
<g transform="translate(0.000000,1280.000000) scale(0.100000,-0.100000)"
fill="#000000" stroke="none">
<path d="M3895 9766 c-33 -35 -48 -79 -61 -171 -3 -27 -17 -77 -29 -110 -13
-33 -33 -99 -44 -147 -12 -48 -26 -100 -32 -115 -23 -59 -61 -201 -73 -271
-11 -64 -11 -75 2 -80 8 -3 135 1 281 8 146 7 299 14 339 16 81 2 92 7 75 32
-7 12 -22 16 -47 15 -42 -3 -43 0 -16 34 11 14 20 37 20 50 0 13 -9 41 -20 63
-11 22 -20 48 -20 58 0 19 -37 121 -105 287 -20 50 -43 110 -52 135 -22 64
-60 138 -97 187 -41 55 -75 58 -121 9z"/>
<path d="M2867 9671 c-40 -44 -67 -120 -93 -259 -9 -48 -25 -127 -36 -177 -20
-94 -50 -363 -42 -377 7 -11 585 -10 603 1 11 7 9 21 -12 77 -60 162 -105 271
-120 294 -8 14 -27 54 -42 90 -14 36 -30 74 -35 85 -5 11 -16 45 -25 75 -10
30 -30 76 -46 103 -16 26 -29 50 -29 54 0 17 -53 73 -69 73 -10 0 -35 -18 -54
-39z"/>
<path d="M4255 8840 c-38 -4 -146 -10 -240 -14 -93 -4 -273 -13 -400 -20 -126
-8 -259 -13 -295 -13 -467 0 -631 -4 -635 -15 -2 -7 -7 -97 -10 -200 l-7 -187
-112 -169 c-108 -164 -132 -208 -175 -322 -26 -70 -63 -229 -56 -241 4 -5 17
-9 30 -9 26 0 58 -26 50 -41 -10 -16 -46 -10 -84 13 -31 20 -53 23 -151 26
-102 4 -118 2 -139 -15 -16 -13 -22 -26 -18 -36 5 -14 26 -16 152 -15 80 0
148 -1 149 -3 2 -2 7 -32 11 -66 8 -73 23 -62 -157 -118 -119 -37 -145 -53
-134 -80 9 -24 54 -18 182 25 65 22 122 40 125 40 3 0 16 -24 29 -52 32 -72
87 -145 155 -206 l57 -51 -47 -183 c-26 -101 -69 -283 -96 -405 -29 -136 -60
-250 -79 -295 -130 -304 -210 -533 -280 -808 -28 -113 -56 -230 -61 -260 -68
-401 -50 -647 66 -895 41 -86 43 -115 14 -187 -25 -63 -28 -182 -4 -227 43
-84 113 -129 211 -133 54 -3 58 -1 65 22 5 16 7 19 8 7 2 -28 38 -34 191 -31
80 1 159 3 177 3 17 0 55 10 84 21 50 20 56 20 128 6 171 -33 268 -40 591 -39
267 0 352 4 474 20 144 20 151 20 190 2 26 -11 66 -18 108 -18 36 0 77 -3 90
-6 13 -3 35 -2 50 4 14 5 29 6 34 2 5 -5 39 -11 76 -15 52 -5 69 -3 81 9 10 9
18 11 22 5 12 -19 123 -11 178 12 99 42 137 83 191 208 16 36 37 74 47 86 11
11 19 23 19 27 0 4 21 37 46 74 54 78 73 120 119 258 49 150 53 168 59 320 10
229 -25 515 -90 725 -14 47 -34 114 -44 150 -49 170 -173 464 -245 576 -55 86
-130 243 -149 314 -23 82 -133 317 -248 528 -126 230 -122 219 -107 319 7 46
16 86 20 88 9 6 96 -24 186 -65 79 -35 103 -34 103 5 0 22 -10 31 -72 60 -82
39 -175 65 -228 65 -45 0 -74 19 -64 43 6 18 25 18 87 1 19 -6 20 -4 35 80 7
32 14 62 18 65 3 3 54 8 112 11 94 4 107 7 110 24 6 29 -16 36 -120 36 l-98 0
0 -30 c0 -24 -4 -30 -22 -31 -13 0 -41 -3 -64 -5 -43 -5 -69 11 -55 34 4 7 36
18 72 26 l64 13 0 129 c-1 137 -19 406 -36 539 -36 284 -104 498 -157 494 -9
-1 -48 -5 -87 -9z m-322 -584 c60 -28 130 -109 132 -155 1 -15 9 -45 19 -66
51 -106 -40 -411 -141 -477 -99 -64 -196 -54 -289 29 -38 34 -81 149 -93 248
-12 98 11 232 49 288 45 68 112 138 125 133 6 -2 18 0 26 5 22 14 136 10 172
-5z m-880 -27 c57 -30 94 -73 146 -169 21 -38 25 -60 28 -150 3 -126 -14 -200
-63 -281 -41 -66 -69 -88 -148 -118 -51 -19 -63 -20 -95 -10 -50 17 -108 65
-122 103 -20 55 -38 198 -39 308 0 93 4 117 25 171 25 62 69 116 117 142 29
17 123 19 151 4z"/>
<path d="M3745 8165 c-27 -7 -58 -23 -69 -36 -66 -81 -91 -225 -61 -348 30
-122 122 -203 213 -186 78 14 130 81 153 194 26 133 -13 273 -97 351 -47 43
-62 46 -139 25z"/>
<path d="M2900 8142 c-53 -26 -92 -111 -98 -213 -12 -204 55 -351 163 -360 42
-3 54 2 104 47 64 58 91 117 98 216 5 67 2 88 -23 163 -23 71 -36 94 -71 126
-37 34 -48 39 -90 39 -27 -1 -64 -9 -83 -18z"/>
<path d="M5352 4503 c-5 -10 -14 -45 -21 -78 -21 -103 -59 -207 -106 -289 -47
-82 -47 -95 0 -96 52 -1 259 -52 306 -75 79 -39 99 -61 99 -106 0 -43 -24 -66
-119 -114 -55 -28 -321 -126 -389 -144 -100 -27 -355 -62 -597 -81 -66 -6
-129 -12 -140 -14 -11 -3 -103 -6 -205 -7 -310 -3 -497 -31 -635 -95 -140 -64
-210 -188 -161 -283 21 -39 77 -87 122 -101 51 -17 212 -8 299 18 203 59 338
92 410 101 44 5 244 10 445 10 369 0 581 12 752 45 121 24 240 44 293 51 80
10 222 45 335 82 182 61 292 134 375 251 86 121 106 227 65 346 -23 68 -45
101 -125 185 -147 155 -290 232 -595 320 -41 12 -104 31 -140 41 -55 17 -223
50 -251 50 -5 0 -12 -8 -17 -17z"/>
</g>
</svg>
