<?xml version="1.0" standalone="no"?>
<!DOCTYPE svg PUBLIC "-//W3C//DTD SVG 20010904//EN"
 "http://www.w3.org/TR/2001/REC-SVG-20010904/DTD/svg10.dtd">
<svg version="1.0" xmlns="http://www.w3.org/2000/svg"
 width="704.000000pt" height="1280.000000pt" viewBox="0 0 704.000000 1280.000000"
 preserveAspectRatio="xMidYMid meet">
<metadata>
Created by potrace 1.16, written by Peter Selinger 2001-2019
</metadata>
<g transform="translate(0.000000,1280.000000) scale(0.100000,-0.100000)"
fill="#000000" stroke="none">
<path d="M3921 9787 c-24 -13 -48 -31 -53 -41 -5 -9 -18 -61 -29 -114 -11 -53
-28 -124 -38 -157 -10 -33 -24 -80 -31 -105 -6 -25 -22 -79 -35 -120 -48 -155
-73 -247 -85 -311 -6 -36 -15 -71 -19 -77 -4 -7 -44 -17 -90 -22 -45 -5 -86
-12 -91 -15 -5 -3 -33 -2 -62 1 l-54 6 -57 147 c-32 80 -71 175 -87 211 -50
111 -117 273 -130 315 -14 45 -72 148 -103 183 -11 12 -29 22 -38 22 -20 0
-63 -41 -84 -81 -17 -32 -75 -252 -75 -286 0 -13 -11 -74 -25 -135 -27 -117
-49 -357 -60 -649 l-7 -167 -39 -58 c-22 -33 -44 -66 -49 -74 -5 -8 -35 -53
-66 -99 -95 -145 -140 -248 -174 -403 -11 -51 -20 -93 -20 -95 0 -1 18 -7 39
-13 21 -5 42 -17 45 -25 10 -27 -25 -30 -68 -6 -76 42 -302 48 -327 10 -5 -8
-8 -21 -6 -29 2 -13 27 -15 154 -15 84 0 155 -3 158 -7 3 -3 7 -32 8 -64 2
-68 2 -68 -138 -110 -121 -36 -147 -50 -143 -77 5 -34 34 -32 170 12 69 23
127 41 130 41 3 0 21 -33 41 -72 25 -51 60 -98 117 -157 52 -54 79 -90 76
-100 -9 -27 -87 -340 -112 -446 -13 -55 -35 -159 -49 -232 -19 -104 -35 -155
-73 -240 -145 -318 -284 -770 -332 -1081 -55 -348 -29 -616 80 -832 37 -72 37
-88 4 -187 -20 -61 -24 -89 -19 -128 16 -129 98 -214 222 -231 37 -4 53 -2 64
8 13 13 16 13 28 1 10 -11 30 -13 80 -9 36 2 72 5 79 4 21 -1 166 0 191 1 12
1 48 8 79 17 36 11 70 14 101 10 375 -54 776 -58 1151 -12 97 12 108 11 142
-6 21 -10 57 -18 80 -19 24 0 79 -2 123 -5 173 -10 303 -11 357 -2 128 20 204
79 263 205 21 43 53 99 71 124 19 26 34 51 34 57 0 5 16 34 36 63 36 54 48 82
115 276 37 106 39 120 43 255 5 197 -10 388 -45 563 -13 64 -82 300 -127 435
-56 170 -195 478 -223 496 -6 3 -21 30 -34 58 -12 28 -37 80 -55 116 -17 36
-41 97 -51 135 -20 72 -113 269 -202 430 -27 50 -62 113 -77 140 -64 116 -75
141 -74 180 1 62 16 149 27 156 13 9 138 -31 209 -66 47 -24 59 -26 72 -16 9
8 16 19 16 25 0 41 -167 116 -275 124 -76 5 -105 15 -105 37 0 19 18 23 72 18
l46 -6 7 49 c4 27 11 61 17 77 l10 27 114 0 114 0 0 25 c0 33 -26 45 -98 45
-96 0 -122 -8 -129 -41 -6 -30 -5 -30 -90 -32 -42 -1 -48 1 -51 20 -3 18 4 24
35 32 21 6 52 12 68 13 l30 3 0 155 c-1 352 -51 718 -133 961 -21 63 -47 141
-57 174 -19 62 -78 214 -170 440 -29 72 -56 141 -60 154 -16 54 -86 179 -118
209 l-33 32 -43 -23z m28 -1537 c57 -28 121 -114 121 -162 0 -13 7 -32 15 -42
32 -42 10 -223 -41 -345 -26 -62 -75 -131 -105 -146 -60 -32 -116 -45 -145
-36 -16 5 -41 12 -55 15 -15 3 -46 22 -70 42 -50 41 -83 120 -105 247 -11 65
-11 90 1 158 8 44 21 92 29 107 9 15 22 41 30 57 19 41 94 107 131 116 62 15
154 10 194 -11z m-888 -24 c103 -43 192 -243 173 -386 -8 -65 -42 -168 -70
-217 -30 -53 -103 -103 -163 -115 -159 -29 -238 98 -240 387 0 133 23 214 81
280 54 61 144 82 219 51z"/>
<path d="M3753 8168 c-45 -10 -103 -60 -103 -89 0 -10 -5 -19 -11 -21 -16 -5
-39 -104 -39 -168 0 -68 31 -169 68 -220 37 -53 94 -80 152 -73 61 8 103 42
136 110 25 52 28 69 28 168 1 105 -1 114 -32 177 -18 36 -48 80 -68 97 -37 33
-58 36 -131 19z"/>
<path d="M2895 8137 c-57 -32 -86 -95 -93 -203 -6 -97 13 -231 36 -257 8 -9
20 -27 26 -39 16 -32 74 -68 108 -68 61 0 142 70 177 153 30 71 28 180 -5 277
-48 143 -145 196 -249 137z"/>
<path d="M5353 4513 c-7 -2 -13 -17 -13 -33 0 -74 -116 -378 -154 -402 -22
-14 11 -28 129 -52 231 -48 315 -93 315 -173 0 -60 -81 -104 -405 -217 -99
-34 -207 -59 -315 -71 -30 -3 -77 -10 -105 -15 -141 -24 -362 -41 -595 -45
-292 -6 -505 -34 -640 -86 -170 -65 -253 -217 -173 -317 16 -20 50 -48 74 -62
39 -22 55 -25 144 -24 88 1 124 8 305 57 113 31 243 60 290 66 47 6 261 10
475 10 514 0 515 0 1115 118 272 53 475 146 578 264 67 77 104 148 114 222 12
89 5 137 -31 213 -30 64 -150 195 -242 264 -148 111 -436 215 -764 275 -86 16
-84 16 -102 8z"/>
</g>
</svg>
