<?xml version="1.0" standalone="no"?>
<!DOCTYPE svg PUBLIC "-//W3C//DTD SVG 20010904//EN"
 "http://www.w3.org/TR/2001/REC-SVG-20010904/DTD/svg10.dtd">
<svg version="1.0" xmlns="http://www.w3.org/2000/svg"
 width="704.000000pt" height="1280.000000pt" viewBox="0 0 704.000000 1280.000000"
 preserveAspectRatio="xMidYMid meet">
<metadata>
Created by potrace 1.16, written by Peter Selinger 2001-2019
</metadata>
<g transform="translate(0.000000,1280.000000) scale(0.100000,-0.100000)"
fill="#000000" stroke="none">
<path d="M3905 9781 c-33 -20 -46 -49 -70 -166 -9 -44 -21 -91 -27 -105 -9
-21 -38 -129 -64 -230 -3 -14 -12 -38 -19 -55 -23 -50 -76 -293 -73 -333 l3
-37 190 3 c105 2 208 8 230 13 22 5 83 9 135 9 135 0 144 4 136 51 -13 79
-139 428 -190 522 -20 38 -36 75 -36 83 0 26 -58 153 -96 209 -40 61 -64 68
-119 36z"/>
<path d="M2867 9675 c-27 -28 -39 -54 -62 -142 -15 -60 -33 -139 -40 -178 -7
-38 -20 -104 -28 -145 -18 -92 -37 -244 -40 -324 l-2 -60 35 -9 c19 -5 48 -6
65 -2 16 4 138 10 270 13 l240 7 3 28 c2 16 -1 34 -6 40 -5 7 -22 48 -36 92
-15 44 -33 94 -41 110 -7 17 -23 55 -34 86 -29 77 -46 91 -112 87 l-54 -3 0
41 c0 22 -6 48 -13 56 -10 13 -7 20 23 46 20 18 35 41 35 53 0 28 -75 186
-103 217 -29 31 -61 28 -100 -13z"/>
<path d="M3958 8834 c-4 -3 -87 -10 -185 -16 -98 -5 -198 -11 -223 -13 -25 -1
-228 -3 -452 -4 -333 -2 -407 -4 -411 -15 -3 -8 -9 -97 -13 -198 l-7 -183 -51
-83 c-28 -46 -64 -105 -81 -132 -75 -121 -102 -168 -119 -210 -10 -25 -27 -65
-37 -90 -17 -41 -37 -114 -54 -197 -6 -31 -5 -33 23 -33 32 0 65 -25 59 -44
-7 -20 -39 -18 -69 4 -37 27 -142 44 -230 37 -77 -7 -111 -21 -106 -45 3 -15
24 -18 155 -23 84 -3 156 -8 160 -12 3 -4 8 -34 9 -66 l3 -60 -52 -17 c-28 -9
-94 -33 -145 -52 -79 -31 -92 -39 -90 -56 4 -29 46 -24 175 19 56 19 108 35
115 35 7 0 24 -26 38 -57 27 -61 80 -134 145 -198 72 -71 70 -55 21 -234 -46
-166 -78 -297 -126 -528 -16 -73 -40 -159 -55 -190 -24 -51 -95 -227 -138
-338 -71 -187 -186 -605 -206 -745 -36 -256 -37 -496 -4 -645 8 -38 34 -115
58 -170 60 -138 60 -143 35 -226 -48 -153 -5 -290 110 -349 47 -24 136 -32
154 -14 12 11 16 11 26 -1 18 -22 118 -20 142 2 17 15 19 15 31 -1 10 -13 24
-16 77 -12 36 3 82 5 102 5 20 0 64 10 98 21 33 11 64 18 69 16 12 -8 57 -15
191 -33 191 -24 684 -24 902 1 157 18 170 18 210 3 50 -19 98 -22 98 -6 0 6 7
3 16 -5 20 -20 149 -23 158 -3 5 10 7 10 12 0 4 -9 30 -13 80 -13 68 0 75 2
84 23 7 17 9 18 9 4 1 -30 45 -39 121 -23 37 8 81 21 97 30 48 24 108 98 147
179 34 72 121 213 165 267 11 14 21 29 21 34 0 5 13 44 29 85 69 181 83 238
89 367 8 187 -13 411 -58 629 -13 60 -120 402 -161 510 -12 33 -56 125 -97
205 -176 342 -212 415 -212 427 0 58 -128 328 -324 686 -45 81 -48 92 -42 135
4 26 9 68 13 95 3 27 11 47 18 47 21 0 138 -41 187 -66 72 -36 118 -30 104 14
-12 35 -174 98 -281 109 -68 7 -95 17 -95 38 0 22 30 34 64 24 51 -15 56 -12
56 31 0 22 7 56 14 75 l15 35 100 0 c116 0 131 4 131 36 0 24 -1 24 -110 24
-108 0 -111 -1 -122 -25 -12 -27 -51 -39 -108 -33 -67 6 -41 51 36 62 26 3 53
11 60 17 17 14 19 201 4 323 -5 45 -17 155 -25 246 -16 171 -46 340 -72 400
-13 32 -15 33 -27 18 -15 -20 -36 -24 -36 -6 0 6 -7 19 -16 29 -9 10 -21 42
-28 71 l-11 53 -176 3 c-96 1 -178 0 -181 -4z m-2 -583 c52 -37 93 -86 100
-119 3 -15 14 -48 24 -74 43 -110 -6 -344 -95 -453 -40 -50 -137 -88 -200 -80
-57 8 -143 63 -165 105 -22 43 -56 168 -64 234 -13 108 37 259 118 352 28 33
43 41 92 50 104 21 146 17 190 -15z m-905 -12 c79 -27 159 -153 178 -285 18
-124 -37 -321 -108 -382 -37 -32 -99 -61 -143 -69 -56 -8 -141 31 -167 78 -30
53 -46 165 -46 324 0 133 1 143 28 201 16 34 44 76 62 94 46 45 129 61 196 39z"/>
<path d="M3785 8175 c-5 -2 -27 -6 -47 -10 -30 -4 -43 -15 -68 -51 -51 -76
-60 -102 -66 -182 -11 -133 41 -263 122 -311 52 -31 121 -28 168 7 51 37 95
136 96 212 0 154 -52 290 -127 329 -21 10 -56 13 -78 6z"/>
<path d="M2927 8155 c-93 -32 -122 -97 -122 -270 0 -141 18 -203 76 -264 43
-44 104 -59 148 -36 37 19 86 73 113 125 20 39 23 59 23 150 0 110 -18 173
-67 243 -36 51 -109 73 -171 52z"/>
<path d="M5346 4484 c-13 -72 -67 -245 -90 -287 -73 -131 -78 -147 -49 -147
34 0 241 -53 303 -78 83 -33 120 -69 120 -116 0 -28 -7 -40 -32 -59 -50 -38
-170 -96 -240 -117 -35 -10 -97 -30 -138 -45 -96 -35 -157 -50 -300 -70 -286
-42 -455 -56 -700 -61 -112 -2 -227 -8 -255 -13 -27 -5 -86 -13 -130 -16 -152
-12 -321 -68 -393 -130 -78 -68 -99 -141 -63 -220 59 -131 211 -149 506 -60
252 76 268 78 637 80 268 2 628 13 658 20 3 1 37 4 75 8 76 9 286 44 490 84
209 40 430 120 528 189 26 19 52 34 57 34 14 0 118 143 141 194 25 58 35 172
19 222 -24 74 -60 136 -114 193 -30 31 -66 70 -80 88 -15 18 -37 35 -49 39
-12 3 -33 17 -47 30 -37 34 -242 129 -345 160 -140 41 -395 104 -451 110 l-51
6 -7 -38z"/>
</g>
</svg>
