<?xml version="1.0" standalone="no"?>
<!DOCTYPE svg PUBLIC "-//W3C//DTD SVG 20010904//EN"
 "http://www.w3.org/TR/2001/REC-SVG-20010904/DTD/svg10.dtd">
<svg version="1.0" xmlns="http://www.w3.org/2000/svg"
 width="704.000000pt" height="1280.000000pt" viewBox="0 0 704.000000 1280.000000"
 preserveAspectRatio="xMidYMid meet">
<metadata>
Created by potrace 1.16, written by Peter Selinger 2001-2019
</metadata>
<g transform="translate(0.000000,1280.000000) scale(0.100000,-0.100000)"
fill="#000000" stroke="none">
<path d="M3910 9782 c-14 -9 -28 -21 -32 -27 -12 -16 -58 -192 -58 -221 0 -8
-9 -35 -20 -60 -12 -24 -25 -63 -30 -87 -10 -47 -24 -101 -70 -262 -37 -132
-59 -227 -53 -237 2 -4 37 -6 78 -5 l75 1 0 32 c0 37 18 94 30 94 13 0 20 -16
33 -68 l12 -47 150 -3 c196 -4 314 5 322 25 9 24 -126 413 -182 523 -15 30
-36 81 -47 115 -26 78 -69 165 -105 210 -31 39 -62 45 -103 17z"/>
<path d="M2867 9678 c-36 -38 -72 -153 -106 -333 -5 -27 -18 -99 -30 -160 -11
-60 -25 -164 -31 -230 -7 -66 -17 -126 -23 -133 -7 -9 -7 -16 -1 -20 6 -4 7
-46 3 -107 -4 -55 -7 -143 -8 -195 -1 -84 -4 -100 -26 -132 -14 -20 -25 -40
-25 -45 0 -7 -31 -55 -120 -188 -33 -48 -89 -159 -118 -235 -26 -67 -63 -220
-56 -232 3 -4 15 -8 28 -8 12 0 31 -7 42 -15 19 -15 19 -15 0 -30 -17 -13 -23
-13 -50 5 -89 54 -341 51 -341 -5 0 -19 8 -20 152 -25 91 -3 156 -9 163 -16 6
-6 10 -35 8 -65 -3 -51 -5 -54 -38 -66 -184 -66 -237 -87 -247 -100 -33 -43
28 -43 162 -2 55 17 109 33 120 36 16 3 27 -9 59 -71 26 -50 65 -101 118 -155
43 -44 78 -87 78 -95 0 -8 -9 -43 -20 -79 -23 -74 -115 -453 -154 -634 -15
-69 -42 -155 -62 -200 -133 -290 -298 -818 -333 -1063 -31 -217 -36 -436 -15
-585 9 -67 44 -175 85 -266 22 -48 39 -96 39 -107 0 -10 -9 -48 -21 -83 -23
-71 -22 -187 3 -230 23 -41 72 -90 108 -109 46 -23 124 -34 149 -21 13 7 22 8
26 1 9 -14 138 -13 153 2 8 8 15 8 26 -1 14 -11 33 -11 196 2 30 2 72 11 92
20 35 15 46 14 145 -3 250 -45 728 -50 1028 -11 136 17 141 17 183 -1 58 -24
272 -38 272 -18 0 11 3 11 12 2 15 -15 154 -16 163 -2 4 7 11 7 18 2 7 -5 22
-12 34 -14 24 -6 132 13 174 30 41 17 94 79 145 172 40 73 72 126 119 201 6 9
22 34 36 55 14 21 30 50 34 64 4 14 21 53 36 88 16 34 29 69 29 76 0 8 11 47
26 88 43 124 42 397 -2 703 -15 109 -88 358 -176 605 -36 102 -141 321 -174
365 -29 40 -139 271 -149 313 -16 74 -106 263 -290 607 -44 83 -75 152 -75
170 0 50 31 165 46 165 20 0 153 -49 208 -77 43 -22 50 -23 63 -10 21 21 2 52
-45 76 -65 33 -189 71 -231 71 -51 0 -91 18 -91 41 0 23 17 28 58 17 48 -13
60 -5 68 49 14 96 10 93 128 93 108 0 136 10 122 45 -5 13 -24 15 -113 13 -99
-3 -108 -5 -112 -23 -2 -11 -8 -23 -15 -27 -16 -11 -124 -10 -130 1 -14 23 8
40 66 50 34 6 64 13 67 17 12 11 13 220 2 314 -5 52 -17 169 -26 260 -19 200
-56 388 -97 493 -34 86 -23 80 -148 78 -92 -2 -151 -11 -149 -25 3 -26 -3 -36
-28 -50 -38 -20 -120 -100 -128 -125 -3 -11 -2 -28 4 -38 20 -38 44 -144 35
-153 -6 -6 -34 8 -74 36 -77 54 -108 68 -124 55 -10 -8 -83 -30 -148 -45 -25
-6 -28 -4 -28 21 0 15 14 55 31 89 l30 62 -35 46 c-20 26 -39 54 -44 62 -8 14
-54 16 -363 16 -195 0 -372 3 -394 7 l-40 7 33 17 c25 14 76 20 225 28 105 5
202 7 215 4 14 -3 24 0 28 9 6 16 -29 120 -78 231 -17 39 -34 79 -39 90 -4 11
-29 70 -55 130 -25 61 -57 142 -69 181 -13 39 -34 87 -47 108 -13 20 -32 51
-43 69 -30 46 -67 48 -108 5z m1081 -1427 c53 -27 99 -82 112 -133 6 -24 16
-56 22 -71 7 -18 9 -66 5 -130 -7 -119 -31 -199 -87 -286 -33 -51 -48 -64
-103 -89 -72 -34 -110 -32 -182 6 -72 38 -85 55 -115 143 -45 130 -53 208 -32
309 19 92 35 126 98 204 36 46 46 52 100 63 73 15 132 9 182 -16z m-884 -21
c35 -13 90 -76 127 -145 27 -50 45 -143 41 -210 -12 -187 -74 -299 -197 -355
-58 -26 -92 -25 -148 4 -25 14 -48 22 -51 19 -3 -4 -6 -1 -6 6 0 6 -9 24 -20
39 -25 35 -42 129 -47 272 -7 179 28 292 111 352 33 24 49 28 102 28 34 0 74
-4 88 -10z"/>
<path d="M3745 8165 c-27 -7 -54 -21 -60 -30 -5 -10 -20 -30 -32 -45 -32 -39
-43 -74 -50 -159 -4 -62 -1 -90 18 -151 19 -63 31 -83 75 -127 50 -50 55 -53
104 -53 66 0 103 22 140 82 42 67 54 125 47 224 -6 100 -45 192 -103 243 -39
34 -62 37 -139 16z"/>
<path d="M2924 8154 c-82 -28 -124 -116 -124 -258 0 -104 19 -182 59 -245 54
-83 97 -98 178 -61 52 23 108 105 124 182 27 126 -28 329 -100 368 -41 21 -98
27 -137 14z"/>
<path d="M5336 4449 c-9 -39 -16 -82 -16 -94 0 -12 -31 -86 -69 -163 -74 -148
-74 -152 -15 -152 42 0 206 -41 274 -68 85 -34 121 -67 122 -111 1 -26 -6 -40
-28 -59 -32 -27 -189 -104 -244 -120 -19 -6 -72 -24 -118 -41 -46 -17 -111
-37 -145 -45 -140 -34 -466 -75 -582 -75 -44 0 -92 -4 -107 -10 -15 -6 -98
-10 -184 -10 -182 -1 -424 -23 -540 -51 -268 -64 -388 -211 -288 -353 50 -70
81 -82 214 -81 106 1 128 5 280 49 260 75 279 77 677 80 591 5 609 6 1098 96
211 38 379 86 494 140 128 60 197 113 252 195 66 98 78 129 85 216 12 151 -61
264 -287 448 -45 36 -219 119 -314 150 -38 12 -88 28 -110 36 -64 22 -315 81
-376 88 l-57 7 -16 -72z"/>
</g>
</svg>
