<?xml version="1.0" standalone="no"?>
<!DOCTYPE svg PUBLIC "-//W3C//DTD SVG 20010904//EN"
 "http://www.w3.org/TR/2001/REC-SVG-20010904/DTD/svg10.dtd">
<svg version="1.0" xmlns="http://www.w3.org/2000/svg"
 width="704.000000pt" height="1280.000000pt" viewBox="0 0 704.000000 1280.000000"
 preserveAspectRatio="xMidYMid meet">
<metadata>
Created by potrace 1.16, written by Peter Selinger 2001-2019
</metadata>
<g transform="translate(0.000000,1280.000000) scale(0.100000,-0.100000)"
fill="#000000" stroke="none">
<path d="M3937 9790 c-59 -18 -67 -33 -98 -179 -11 -53 -26 -109 -34 -126 -8
-16 -21 -55 -29 -85 -16 -63 -22 -85 -75 -270 -68 -238 -73 -276 -44 -282 19
-4 300 8 370 16 26 2 56 8 66 12 24 9 60 87 52 113 -3 10 -47 53 -98 94 -51
42 -107 91 -126 110 -32 34 -33 35 -12 46 11 6 83 16 158 22 76 6 142 14 147
19 10 10 -21 104 -59 180 -12 25 -25 58 -29 74 -19 76 -131 269 -155 265 -3 0
-19 -5 -34 -9z"/>
<path d="M2871 9685 c-41 -35 -90 -188 -111 -345 -6 -47 -17 -110 -25 -140
-27 -108 -52 -334 -38 -343 5 -3 144 -7 308 -8 290 -2 300 -1 303 18 2 10 -18
68 -43 128 -25 59 -45 112 -45 116 0 4 -17 45 -39 91 -81 174 -98 215 -120
282 -12 38 -33 85 -47 105 -13 19 -24 40 -24 45 0 19 -52 76 -70 76 -10 0 -32
-11 -49 -25z"/>
<path d="M3740 8819 c-80 -4 -221 -12 -315 -17 -93 -5 -296 -10 -450 -11 -154
-2 -283 -6 -287 -9 -4 -4 -10 -91 -14 -192 l-6 -185 -39 -63 c-22 -35 -39 -65
-39 -68 0 -3 -30 -50 -66 -105 -100 -151 -157 -280 -189 -426 -18 -77 -15 -93
15 -93 32 0 50 -11 50 -31 0 -14 -7 -19 -29 -19 -16 0 -34 6 -40 14 -18 21
-100 36 -201 36 -77 0 -93 -3 -110 -20 -23 -23 -26 -40 -7 -41 6 0 76 -1 154
-2 78 -1 144 -4 146 -7 3 -3 7 -34 9 -69 3 -61 2 -64 -22 -72 -14 -4 -70 -22
-125 -39 -114 -35 -145 -52 -145 -80 0 -31 54 -25 181 20 62 22 117 40 123 40
6 -1 22 -24 35 -53 32 -68 89 -144 144 -193 70 -63 70 -60 26 -229 -57 -219
-115 -469 -129 -555 -14 -86 -24 -115 -73 -220 -121 -262 -280 -769 -328
-1050 -29 -165 -36 -442 -15 -570 17 -100 67 -255 107 -330 24 -45 24 -54 -5
-144 -41 -125 -24 -212 59 -299 31 -32 59 -45 133 -58 45 -9 57 -8 72 6 16 15
18 15 24 -1 5 -13 18 -16 77 -12 47 2 73 8 79 18 7 12 12 12 22 2 14 -14 144
-17 153 -2 3 5 15 6 27 1 14 -5 44 -1 83 11 55 16 66 17 135 4 175 -33 279
-41 595 -40 284 0 336 2 463 22 l143 23 44 -21 c24 -12 62 -21 87 -21 23 1 71
-2 106 -5 38 -4 68 -2 76 5 8 7 16 7 22 1 15 -15 151 -24 159 -10 5 8 11 8 21
-1 22 -18 121 -5 186 25 69 31 129 97 172 187 32 66 57 107 131 222 49 75 96
182 130 297 14 47 29 96 34 110 20 66 10 357 -20 595 -14 106 -53 262 -120
475 -48 150 -188 463 -248 553 -17 25 -31 47 -31 50 0 11 -63 142 -75 157 -6
8 -21 52 -33 98 -23 86 -153 359 -291 610 -44 79 -71 140 -71 159 0 39 21 146
31 157 9 10 92 -16 186 -60 39 -19 76 -34 82 -34 18 0 30 34 20 53 -21 36
-183 97 -259 97 -19 0 -52 5 -73 11 -31 8 -38 14 -35 32 3 23 8 24 74 13 l40
-7 11 71 c6 40 14 75 18 78 3 3 56 9 118 12 111 5 112 5 112 30 0 25 -1 25
-90 28 -114 4 -135 -1 -135 -32 0 -18 -7 -25 -31 -30 -58 -11 -106 -7 -113 10
-10 27 12 42 73 49 58 7 59 7 65 43 9 56 7 222 -4 304 -5 40 -14 136 -20 213
-26 317 -93 575 -151 575 -22 0 -118 -50 -208 -108 -35 -23 -68 -42 -74 -42
-9 0 -5 59 9 130 5 22 2 28 -18 33 -27 8 -128 7 -328 -4z m214 -573 c47 -27
106 -104 106 -136 0 -13 10 -38 21 -57 19 -31 21 -44 15 -118 -8 -113 -73
-293 -124 -344 -24 -24 -80 -56 -123 -70 -31 -10 -46 -9 -93 8 -85 30 -124 67
-157 153 -69 176 -37 405 72 522 16 17 29 34 29 39 0 4 10 7 23 7 12 0 29 5
37 10 8 5 46 10 84 10 55 0 78 -5 110 -24z m-885 -20 c41 -22 82 -73 125 -155
36 -71 37 -74 35 -174 -4 -208 -64 -323 -197 -377 -69 -28 -73 -28 -115 -14
-49 16 -90 51 -112 94 -27 53 -47 202 -43 328 3 107 6 123 35 182 30 63 57 96
98 118 29 16 141 15 174 -2z"/>
<path d="M3775 8173 c-56 -7 -84 -25 -115 -71 -42 -63 -53 -112 -53 -217 0
-68 6 -104 22 -147 28 -72 95 -137 143 -139 102 -4 130 15 187 121 33 61 41
196 16 272 -31 97 -111 192 -157 187 -7 -1 -26 -4 -43 -6z"/>
<path d="M2927 8156 c-85 -31 -118 -91 -125 -228 -7 -153 17 -245 86 -320 49
-54 121 -48 189 15 73 68 88 104 87 227 0 94 -4 113 -31 180 -26 65 -37 79
-79 108 -54 35 -71 38 -127 18z"/>
<path d="M5357 4513 c-3 -5 -17 -56 -31 -115 -24 -102 -60 -187 -121 -292 -15
-26 -25 -49 -22 -52 3 -3 31 -9 63 -14 171 -25 313 -75 362 -127 27 -30 29
-76 2 -103 -21 -21 -154 -91 -217 -114 -21 -7 -82 -30 -135 -49 -236 -88 -478
-120 -1083 -145 -349 -15 -439 -28 -590 -84 -136 -51 -189 -100 -215 -196 -9
-36 -8 -48 9 -85 47 -101 116 -134 264 -124 51 4 117 13 147 22 30 9 132 37
225 62 l170 46 390 2 c406 3 657 16 785 40 41 7 129 23 195 35 247 45 422 83
453 100 9 5 42 16 72 25 74 22 204 94 261 145 57 49 126 152 145 216 28 92 12
210 -38 293 -90 148 -336 319 -563 391 -38 12 -92 30 -120 40 -152 56 -395
105 -408 83z"/>
</g>
</svg>
