<?xml version="1.0" standalone="no"?>
<!DOCTYPE svg PUBLIC "-//W3C//DTD SVG 20010904//EN"
 "http://www.w3.org/TR/2001/REC-SVG-20010904/DTD/svg10.dtd">
<svg version="1.0" xmlns="http://www.w3.org/2000/svg"
 width="704.000000pt" height="1280.000000pt" viewBox="0 0 704.000000 1280.000000"
 preserveAspectRatio="xMidYMid meet">
<metadata>
Created by potrace 1.16, written by Peter Selinger 2001-2019
</metadata>
<g transform="translate(0.000000,1280.000000) scale(0.100000,-0.100000)"
fill="#000000" stroke="none">
<path d="M3910 9782 c-37 -25 -47 -41 -58 -97 -34 -162 -43 -197 -66 -265 -14
-41 -26 -82 -26 -91 0 -9 -11 -50 -23 -90 -42 -132 -67 -224 -76 -279 -5 -30
-12 -67 -16 -82 l-7 -28 225 0 c124 0 237 4 250 9 14 5 75 11 137 12 61 2 113
6 115 10 10 15 -140 439 -192 544 -17 33 -38 85 -48 115 -23 70 -79 185 -111
227 -28 38 -63 42 -104 15z"/>
<path d="M2876 9689 c-35 -31 -44 -51 -90 -219 -8 -30 -20 -89 -26 -130 -6
-41 -17 -100 -25 -130 -7 -30 -18 -102 -24 -160 -6 -58 -13 -124 -16 -147 -7
-66 -4 -67 233 -60 114 3 212 3 218 -1 6 -4 14 -19 18 -34 5 -22 12 -28 35
-28 15 0 30 -3 34 -6 6 -7 -10 -55 -21 -64 -19 -13 -32 -62 -22 -81 12 -21 7
-23 -41 -19 -14 0 -31 -6 -39 -14 -18 -22 -68 -21 -70 2 0 9 -2 39 -4 65 -1
26 -8 53 -14 59 -7 7 -12 25 -12 40 l0 28 -159 0 c-88 0 -162 -4 -165 -9 -3
-4 -8 -91 -12 -192 l-6 -184 -79 -126 c-43 -69 -94 -150 -113 -179 -19 -29
-53 -99 -75 -154 -40 -100 -84 -263 -75 -278 3 -4 16 -8 29 -8 26 0 58 -26 52
-44 -6 -18 -37 -19 -57 -1 -47 42 -264 62 -315 29 -26 -17 -34 -53 -12 -55 6
0 69 0 139 1 159 2 168 -2 168 -75 0 -30 -5 -57 -11 -61 -7 -4 -73 -28 -148
-54 -114 -39 -137 -50 -139 -68 -3 -19 1 -22 35 -22 21 0 88 16 148 35 61 19
116 35 122 35 7 0 29 -32 48 -71 24 -47 63 -99 117 -155 l81 -84 -11 -38 c-48
-161 -130 -508 -157 -669 -17 -93 -39 -163 -79 -241 -74 -147 -195 -499 -266
-777 -65 -257 -83 -407 -78 -678 4 -208 4 -214 36 -304 17 -51 44 -116 58
-145 32 -64 33 -102 5 -193 -35 -110 -16 -210 50 -274 60 -58 182 -98 215 -70
11 9 18 9 26 1 16 -16 140 -16 156 0 8 8 15 8 26 -1 28 -23 246 -3 303 27 17
9 37 9 90 -2 158 -33 263 -40 568 -41 294 0 345 3 576 36 57 8 73 6 110 -10
55 -25 241 -40 263 -22 10 8 16 9 21 1 3 -5 40 -10 81 -10 58 0 76 3 80 15 6
14 8 13 19 -1 10 -15 23 -16 88 -11 138 12 186 49 267 202 45 85 159 277 170
285 4 3 14 25 23 50 8 25 24 68 35 95 82 207 95 324 68 632 -16 183 -42 325
-91 483 -14 47 -30 101 -35 121 -33 128 -195 508 -245 574 -37 48 -141 275
-159 344 -9 35 -42 118 -75 185 -54 112 -94 189 -231 436 -50 91 -52 97 -45
150 16 139 17 140 34 140 27 0 125 -36 193 -70 63 -32 88 -29 88 11 0 42 -183
119 -284 119 -59 0 -93 18 -83 44 6 15 15 16 60 11 l54 -7 6 55 c10 96 11 97
137 97 95 0 111 2 119 18 19 36 0 43 -115 40 -104 -3 -109 -4 -112 -25 -2 -14
-12 -25 -26 -29 -33 -8 -119 -1 -123 11 -6 22 16 34 77 42 l65 8 0 145 c-1
340 -59 773 -124 930 -10 25 -23 57 -29 71 -10 25 -11 26 -79 18 -259 -30
-892 -57 -986 -42 -31 5 -35 7 -21 17 21 16 14 53 -32 181 -19 55 -40 114 -46
130 -6 17 -16 37 -23 45 -6 8 -19 33 -27 55 -9 22 -32 78 -52 125 -21 47 -46
111 -56 142 -38 110 -108 218 -142 218 -4 0 -23 -14 -42 -31z m1165 -1638 c41
-11 105 -32 144 -48 58 -23 73 -35 92 -68 23 -42 19 -66 -16 -84 -14 -8 -30
-2 -73 24 -128 80 -323 120 -431 88 -67 -20 -143 -58 -176 -89 -28 -27 -64
-40 -80 -29 -6 3 -11 21 -11 38 1 91 165 163 410 180 25 2 50 4 56 5 6 1 44
-7 85 -17z m-898 -68 c126 -40 189 -121 115 -147 -22 -8 -35 -4 -75 22 -71 46
-124 61 -233 68 -78 6 -107 3 -151 -11 -61 -21 -115 -48 -144 -75 -32 -30 -71
-35 -84 -12 -8 15 -5 26 14 54 28 42 50 56 135 93 115 49 285 53 423 8z"/>
<path d="M5325 4404 c-22 -91 -41 -146 -86 -234 -60 -117 -61 -129 -14 -130
11 0 52 -7 90 -16 39 -8 86 -19 105 -23 40 -9 156 -62 183 -84 9 -8 22 -29 28
-46 10 -28 9 -35 -10 -55 -12 -13 -52 -39 -89 -58 -79 -42 -376 -152 -447
-167 -131 -27 -452 -71 -560 -76 -33 -1 -172 -8 -310 -13 -352 -16 -438 -25
-565 -61 -197 -56 -310 -171 -279 -285 25 -91 89 -135 208 -143 92 -7 188 11
376 67 72 21 155 44 185 50 31 6 264 15 535 20 502 9 581 14 810 56 348 63
410 77 575 134 70 25 167 74 237 122 118 82 202 231 203 363 0 41 -25 120 -55
170 -38 66 -162 193 -235 240 -94 63 -261 141 -365 171 -174 50 -191 55 -285
79 -52 13 -120 27 -151 31 l-57 6 -27 -118z"/>
</g>
</svg>
