<?xml version="1.0" standalone="no"?>
<!DOCTYPE svg PUBLIC "-//W3C//DTD SVG 20010904//EN"
 "http://www.w3.org/TR/2001/REC-SVG-20010904/DTD/svg10.dtd">
<svg version="1.0" xmlns="http://www.w3.org/2000/svg"
 width="704.000000pt" height="1280.000000pt" viewBox="0 0 704.000000 1280.000000"
 preserveAspectRatio="xMidYMid meet">
<metadata>
Created by potrace 1.16, written by Peter Selinger 2001-2019
</metadata>
<g transform="translate(0.000000,1280.000000) scale(0.100000,-0.100000)"
fill="#000000" stroke="none">
<path d="M3901 9774 c-32 -26 -53 -84 -66 -174 -3 -25 -14 -70 -24 -100 -11
-30 -27 -84 -36 -120 -10 -36 -37 -128 -61 -205 -41 -135 -73 -289 -61 -301 6
-7 432 13 463 22 14 4 25 21 35 55 19 60 17 65 -98 174 -46 43 -83 83 -83 89
0 7 34 17 88 24 48 6 104 16 126 22 36 11 38 14 32 42 -3 16 -26 76 -51 133
-25 57 -45 109 -45 115 0 21 -68 159 -101 205 -39 54 -71 59 -118 19z"/>
<path d="M2882 9694 c-43 -30 -83 -144 -113 -319 -6 -38 -22 -113 -34 -165
-13 -52 -26 -135 -30 -185 -3 -49 -8 -109 -12 -132 l-5 -43 298 0 c165 0 305
4 312 9 11 7 11 17 -3 57 -30 92 -87 229 -150 364 -34 74 -70 160 -80 190 -34
109 -116 240 -150 240 -6 0 -21 -7 -33 -16z"/>
<path d="M3820 8814 c-129 -8 -433 -16 -675 -19 -242 -4 -445 -8 -451 -10 -7
-2 -14 -70 -18 -197 l-7 -193 -41 -65 c-23 -36 -71 -110 -108 -165 -103 -153
-132 -220 -176 -395 -30 -120 -30 -120 4 -120 16 0 37 -7 48 -15 18 -15 18
-15 1 -29 -21 -16 -39 -12 -78 16 -48 35 -258 43 -291 10 -5 -5 -8 -18 -6 -28
3 -17 15 -19 145 -19 78 0 144 -3 147 -5 3 -3 6 -34 8 -70 l3 -64 -133 -42
c-142 -45 -162 -56 -162 -85 0 -30 61 -24 189 21 63 21 118 37 122 34 4 -2 17
-25 30 -52 32 -66 88 -140 146 -193 27 -24 52 -49 55 -54 7 -12 -6 -77 -51
-250 -40 -154 -87 -354 -110 -475 -11 -52 -31 -122 -46 -155 -227 -503 -385
-1100 -385 -1460 0 -198 27 -329 104 -502 40 -89 44 -125 21 -181 -27 -62 -33
-107 -23 -167 20 -130 94 -200 219 -205 68 -3 69 -2 70 33 2 30 2 30 6 4 2
-15 13 -31 23 -37 23 -12 121 -11 137 2 7 6 18 6 30 0 23 -13 131 -14 138 -2
3 5 18 7 33 4 15 -3 53 4 86 15 49 17 65 19 104 10 79 -17 199 -30 415 -43
238 -15 444 -7 679 25 l148 20 40 -21 c22 -11 57 -20 78 -20 20 1 67 -2 103
-5 53 -5 69 -3 82 9 13 13 16 14 21 1 4 -11 23 -15 80 -15 41 0 77 4 80 9 4 5
18 4 34 -4 35 -17 125 -5 186 25 60 29 122 98 158 178 29 63 105 183 121 190
4 2 7 8 7 13 0 5 13 30 29 56 16 27 34 66 41 88 7 22 16 45 20 50 4 6 24 61
45 124 34 105 37 125 40 250 4 152 -16 419 -39 532 -9 40 -30 121 -47 179 -17
58 -42 141 -55 185 -55 187 -199 526 -248 585 -27 33 -124 238 -136 290 -15
63 -146 348 -217 472 -26 46 -72 131 -102 189 l-53 106 12 87 c8 48 16 89 20
91 9 5 103 -27 187 -65 77 -35 106 -34 101 2 -6 46 -127 101 -257 119 -105 14
-113 17 -109 42 3 19 8 21 38 18 71 -7 74 -6 77 14 2 11 8 43 14 71 9 49 12
52 47 58 20 3 72 6 114 6 82 0 96 7 78 40 -10 19 -19 20 -113 18 l-102 -3 -3
-27 c-2 -18 -10 -28 -20 -29 -9 -1 -38 -3 -63 -5 -49 -4 -75 11 -60 34 4 7 36
18 72 26 l64 13 0 129 c-1 278 -41 643 -91 838 -19 74 -71 176 -90 176 -18 0
-153 -66 -174 -85 -9 -8 -26 -15 -38 -15 -12 0 -22 -4 -22 -10 0 -5 -4 -10
-10 -10 -6 0 -7 23 -3 60 l6 60 -29 -2 c-16 0 -135 -7 -264 -14z m131 -567
c50 -26 119 -116 119 -154 0 -13 7 -38 16 -55 31 -59 -4 -270 -64 -386 -26
-51 -82 -98 -141 -122 -47 -18 -61 -19 -105 -10 -75 15 -143 72 -168 141 -52
141 -63 252 -37 364 21 93 123 230 178 238 82 13 159 7 202 -16z m-898 -18
c56 -30 95 -75 143 -164 73 -135 27 -403 -85 -503 -27 -24 -74 -47 -126 -63
-54 -16 -141 28 -174 90 -25 46 -50 202 -51 311 0 164 47 276 136 323 35 18
127 21 157 6z"/>
<path d="M3753 8167 c-87 -24 -143 -116 -151 -249 -11 -188 95 -344 221 -323
61 11 92 37 129 113 59 119 50 275 -22 384 -33 50 -85 89 -116 87 -11 -1 -38
-6 -61 -12z"/>
<path d="M2899 8137 c-18 -12 -43 -37 -56 -55 -64 -96 -55 -344 17 -444 42
-57 75 -74 141 -69 26 2 115 87 139 132 31 61 38 188 15 265 -30 98 -67 159
-112 183 -37 19 -106 13 -144 -12z"/>
<path d="M5355 4510 c-4 -6 -17 -57 -30 -113 -26 -114 -44 -161 -104 -267 -23
-40 -39 -75 -36 -78 2 -3 26 -9 52 -13 271 -46 393 -103 393 -183 0 -28 -7
-40 -32 -59 -101 -76 -400 -184 -611 -222 -214 -38 -590 -73 -847 -79 -399
-11 -584 -53 -700 -162 -171 -160 -20 -368 235 -323 33 6 128 29 210 51 304
83 279 80 705 83 372 3 701 22 795 45 45 12 173 34 313 55 265 41 472 116 618
225 31 23 74 72 108 123 53 78 59 91 68 166 9 69 8 92 -7 147 -52 193 -334
414 -627 493 -118 32 -220 62 -258 77 -29 11 -202 44 -231 44 -4 0 -11 -5 -14
-10z"/>
</g>
</svg>
