<?xml version="1.0" standalone="no"?>
<!DOCTYPE svg PUBLIC "-//W3C//DTD SVG 20010904//EN"
 "http://www.w3.org/TR/2001/REC-SVG-20010904/DTD/svg10.dtd">
<svg version="1.0" xmlns="http://www.w3.org/2000/svg"
 width="704.000000pt" height="1280.000000pt" viewBox="0 0 704.000000 1280.000000"
 preserveAspectRatio="xMidYMid meet">
<metadata>
Created by potrace 1.16, written by Peter Selinger 2001-2019
</metadata>
<g transform="translate(0.000000,1280.000000) scale(0.100000,-0.100000)"
fill="#000000" stroke="none">
<path d="M3902 9775 c-36 -30 -46 -54 -71 -179 -12 -54 -25 -104 -30 -110 -6
-6 -26 -75 -46 -151 -20 -77 -49 -183 -65 -235 -32 -109 -55 -238 -45 -248 4
-4 35 -7 68 -8 182 -1 260 -5 254 -10 -13 -13 -321 -26 -902 -38 -203 -4 -373
-11 -376 -14 -7 -7 -18 -221 -19 -338 0 -49 -6 -61 -112 -221 -107 -160 -128
-198 -176 -318 -27 -66 -65 -232 -57 -245 3 -5 16 -10 29 -10 29 0 61 -24 52
-38 -11 -19 -45 -14 -79 11 -30 20 -43 22 -170 22 -143 0 -161 -5 -154 -45 2
-13 27 -15 154 -16 84 0 155 -3 158 -6 3 -3 8 -32 11 -65 6 -70 19 -60 -151
-112 -111 -34 -145 -53 -145 -82 0 -30 53 -24 183 21 63 22 119 40 125 40 6 0
20 -20 31 -45 29 -67 74 -127 148 -200 l66 -66 -21 -82 c-12 -45 -37 -142 -56
-216 -20 -73 -53 -220 -75 -326 -34 -167 -48 -213 -101 -337 -75 -172 -127
-310 -168 -438 -37 -117 -130 -474 -143 -550 -67 -396 -48 -653 66 -892 19
-40 35 -82 35 -94 0 -12 -11 -57 -25 -100 -41 -124 -20 -221 63 -296 57 -51
102 -62 237 -59 11 0 88 0 170 -1 206 -1 206 -1 266 22 50 20 56 20 128 6 168
-33 270 -40 586 -40 248 0 347 4 440 17 147 21 192 21 238 2 20 -8 51 -15 69
-14 18 1 66 0 106 -1 41 -1 76 1 79 4 4 3 11 2 17 -3 6 -4 41 -11 78 -15 52
-5 69 -3 81 9 11 11 18 12 23 4 13 -21 143 -5 207 26 71 34 113 84 157 185 18
41 39 83 47 92 8 9 22 30 31 46 10 16 34 55 54 85 43 64 93 189 141 357 36
126 26 502 -19 727 -16 81 -98 360 -138 473 -13 36 -32 88 -41 115 -26 73
-122 271 -162 333 -50 79 -130 242 -143 292 -6 25 -21 70 -32 100 -29 75 -182
381 -257 514 -86 154 -87 158 -71 260 9 58 18 86 26 86 18 0 127 -41 193 -74
30 -14 62 -26 72 -26 22 0 32 26 19 51 -22 40 -203 109 -287 109 -61 0 -87 14
-72 41 8 15 17 19 35 15 78 -19 70 -23 78 38 12 109 9 106 140 106 119 0 140
8 113 44 -14 18 -24 20 -139 18 l-88 -2 0 -30 c0 -32 2 -32 -92 -34 -37 -1
-43 2 -46 21 -3 18 4 24 35 32 21 5 52 11 68 13 l30 3 3 95 c2 52 -1 138 -7
190 -6 52 -15 164 -21 248 -17 233 -68 490 -120 604 -11 23 -17 26 -44 21 -17
-3 -71 -25 -119 -49 -49 -24 -90 -44 -92 -44 -2 0 3 16 11 35 18 43 12 55 -27
55 -16 0 -29 5 -29 10 0 6 11 10 24 10 26 0 56 23 56 43 0 7 6 23 13 37 33 64
32 66 -71 169 l-96 96 43 9 c29 6 45 6 53 -2 9 -9 9 -12 0 -12 -21 0 -13 -38
13 -58 14 -11 25 -24 25 -28 0 -5 20 -22 45 -37 38 -25 45 -34 45 -61 0 -18
-6 -46 -14 -62 -34 -72 -34 -74 33 -69 34 2 65 7 71 10 12 8 13 39 1 63 -5 9
-14 35 -21 57 -25 85 -64 153 -99 173 -20 12 -29 22 -22 26 6 4 11 2 11 -4 0
-7 6 -5 15 4 24 24 18 54 -40 196 -30 74 -55 139 -55 144 0 6 -20 51 -44 101
-69 142 -112 172 -174 120z m31 -1519 c61 -26 120 -99 130 -161 3 -17 11 -42
19 -56 19 -36 6 -211 -22 -292 -40 -113 -116 -216 -162 -217 -9 0 -28 -5 -41
-11 -42 -19 -124 5 -185 54 -46 36 -56 52 -77 112 -38 107 -47 202 -28 308 8
49 24 104 36 124 33 53 119 144 132 139 7 -2 18 0 26 5 22 14 136 11 172 -5z
m-880 -27 c57 -30 94 -73 146 -169 21 -38 25 -60 28 -150 3 -119 -14 -203 -53
-262 -13 -21 -24 -42 -24 -47 0 -19 -80 -72 -137 -92 -69 -24 -102 -18 -156
25 -43 34 -67 73 -74 120 -2 17 -8 58 -14 91 -5 33 -9 108 -9 167 0 92 4 117
25 171 25 62 69 116 117 142 29 17 123 19 151 4z"/>
<path d="M3751 8168 c-56 -16 -79 -37 -111 -102 -68 -138 -46 -319 50 -420 48
-50 49 -51 108 -51 49 0 65 5 95 28 63 48 105 183 94 297 -9 81 -54 176 -105
223 -44 39 -68 44 -131 25z"/>
<path d="M2900 8142 c-26 -13 -43 -33 -65 -77 -28 -56 -30 -68 -30 -170 0
-121 10 -198 28 -217 7 -7 23 -30 37 -50 28 -41 57 -58 101 -58 39 0 65 14
112 59 53 50 78 110 84 201 5 66 2 90 -22 164 -24 75 -34 92 -73 126 -39 35
-51 40 -91 40 -25 -1 -62 -9 -81 -18z"/>
<path d="M2878 9687 c-14 -12 -33 -35 -41 -52 -18 -36 -63 -207 -77 -290 -5
-33 -17 -91 -25 -130 -21 -90 -46 -348 -36 -358 8 -8 611 -11 618 -3 7 7 -87
243 -158 398 -27 59 -49 110 -49 114 0 3 -6 20 -14 37 -8 18 -20 50 -26 72
-16 50 -87 194 -107 218 -22 23 -53 21 -85 -6z"/>
<path d="M5355 4510 c-4 -6 -15 -48 -26 -93 -28 -115 -64 -211 -110 -290 -21
-38 -37 -73 -33 -78 3 -5 22 -9 43 -9 60 0 258 -48 314 -76 64 -33 86 -60 87
-105 0 -62 -60 -98 -320 -193 -211 -77 -296 -96 -525 -116 -55 -4 -129 -13
-165 -19 -99 -16 -303 -30 -520 -36 -107 -3 -226 -9 -265 -14 -250 -34 -410
-111 -451 -216 -36 -95 2 -192 90 -232 63 -28 226 -25 336 6 47 13 137 39 200
57 160 45 279 58 475 51 191 -6 662 8 785 23 158 20 205 27 340 54 516 102
687 180 812 367 56 85 78 149 78 228 0 52 -32 141 -71 198 -67 98 -224 235
-329 287 -103 51 -132 61 -495 171 -43 13 -211 45 -236 45 -4 0 -11 -5 -14
-10z"/>
</g>
</svg>
