<?xml version="1.0" standalone="no"?>
<!DOCTYPE svg PUBLIC "-//W3C//DTD SVG 20010904//EN"
 "http://www.w3.org/TR/2001/REC-SVG-20010904/DTD/svg10.dtd">
<svg version="1.0" xmlns="http://www.w3.org/2000/svg"
 width="704.000000pt" height="1280.000000pt" viewBox="0 0 704.000000 1280.000000"
 preserveAspectRatio="xMidYMid meet">
<metadata>
Created by potrace 1.16, written by Peter Selinger 2001-2019
</metadata>
<g transform="translate(0.000000,1280.000000) scale(0.100000,-0.100000)"
fill="#000000" stroke="none">
<path d="M3909 9790 c-43 -22 -53 -45 -74 -165 -9 -49 -22 -101 -30 -115 -7
-14 -15 -38 -18 -55 -10 -63 -50 -211 -62 -230 -16 -26 -73 -266 -77 -325 l-3
-45 210 -3 c116 -2 251 2 300 8 50 5 114 11 143 12 36 1 56 6 59 15 6 16 -19
106 -65 228 -16 44 -45 123 -64 175 -20 52 -52 126 -72 165 -20 38 -36 75 -36
81 0 48 -105 245 -141 264 -23 13 -28 12 -70 -10z"/>
<path d="M2884 9692 c-55 -49 -60 -61 -80 -184 -5 -35 -4 -37 28 -46 21 -5 38
-18 46 -35 14 -30 8 -67 -12 -67 -7 0 -22 -9 -34 -20 -12 -11 -26 -20 -31 -20
-6 0 -15 -17 -20 -38 -6 -21 -24 -51 -41 -67 -27 -26 -30 -34 -25 -73 2 -24
14 -55 25 -69 22 -28 15 -54 -22 -83 -10 -9 -21 -31 -24 -50 -2 -19 -7 -45
-10 -58 -7 -34 18 -39 251 -46 116 -3 245 -9 287 -12 111 -9 111 -12 16 236
-44 115 -96 244 -133 330 -13 30 -31 78 -41 105 -38 113 -110 226 -143 225 -3
0 -20 -13 -37 -28z"/>
<path d="M4205 8844 c-20 -3 -269 -20 -425 -30 -47 -3 -319 -8 -605 -12 l-520
-7 3 -195 4 -195 -56 -93 c-31 -51 -65 -112 -77 -135 -12 -23 -27 -49 -34 -57
-57 -66 -164 -352 -165 -437 0 -19 6 -23 29 -23 39 0 60 -25 39 -46 -14 -14
-21 -13 -70 10 -98 47 -304 46 -322 -1 -4 -9 -3 -20 1 -24 4 -4 75 -9 156 -11
114 -2 150 -6 156 -17 5 -8 9 -39 8 -70 l-2 -55 -98 -28 c-120 -34 -191 -67
-195 -90 -5 -29 54 -23 175 17 59 19 114 35 122 35 10 0 30 -29 51 -72 24 -50
60 -99 119 -160 l84 -89 -11 -37 c-46 -149 -139 -538 -163 -677 -7 -43 -39
-138 -84 -245 -143 -345 -266 -739 -309 -991 -58 -337 -41 -628 49 -834 59
-136 60 -143 37 -222 -30 -101 -34 -139 -22 -198 14 -68 62 -125 130 -154 41
-18 72 -22 187 -24 l137 -2 7 25 c4 15 7 18 8 8 2 -27 34 -38 97 -32 33 2 76
4 98 4 21 0 61 7 88 16 55 18 92 17 278 -11 152 -23 695 -27 845 -6 55 7 123
17 150 20 38 6 60 3 90 -11 43 -19 120 -25 110 -8 -3 6 -2 10 3 10 6 0 12 -7
16 -15 7 -18 135 -22 153 -4 8 8 13 8 17 0 4 -6 39 -11 82 -11 62 0 74 3 74
17 0 14 2 15 18 1 26 -23 53 -26 117 -16 111 17 185 78 244 203 29 62 106 192
121 205 33 29 69 109 146 325 l39 110 -1 225 c0 312 -16 415 -107 710 -74 242
-135 394 -226 570 -118 228 -181 362 -201 431 -20 67 -131 319 -151 345 -5 6
-54 95 -109 198 -101 188 -110 218 -90 272 6 15 11 43 12 61 l1 35 46 -7 c64
-9 109 -24 158 -52 53 -30 87 -28 91 7 2 22 -4 29 -45 49 -73 35 -161 61 -231
68 -70 7 -99 22 -89 47 6 14 17 17 59 14 l53 -3 6 51 c11 91 16 94 125 94 103
0 134 9 134 40 0 19 -7 20 -110 20 -107 0 -111 -1 -119 -24 -12 -29 -29 -36
-92 -36 -36 0 -51 4 -56 16 -9 23 8 33 75 46 48 9 62 16 66 32 9 34 7 228 -3
287 -6 30 -15 126 -21 214 -20 289 -85 582 -137 623 -15 11 -111 15 -168 6z
m-288 -573 c60 -17 143 -102 143 -145 0 -8 10 -35 22 -62 26 -61 25 -147 -3
-254 -38 -140 -97 -226 -183 -266 -65 -31 -109 -30 -171 1 -93 47 -100 58
-141 204 -26 94 -31 170 -15 251 21 104 115 259 158 260 12 0 25 5 28 10 8 13
119 13 162 1z m-866 -32 c75 -24 158 -157 177 -282 14 -91 -9 -222 -56 -313
-41 -81 -171 -154 -242 -137 -62 15 -116 58 -134 108 -18 49 -36 188 -36 281
0 125 18 189 76 270 34 49 51 64 81 72 52 14 94 14 134 1z"/>
<path d="M3740 8170 c-39 -9 -69 -42 -105 -114 -21 -43 -25 -64 -25 -146 0
-109 17 -172 62 -236 68 -96 197 -99 262 -5 46 66 59 122 54 230 -6 110 -28
165 -96 239 -43 45 -70 51 -152 32z"/>
<path d="M2927 8156 c-49 -18 -63 -30 -95 -85 -25 -42 -27 -55 -27 -151 1 -58
6 -131 14 -162 23 -107 111 -198 173 -183 40 10 120 78 142 120 34 67 43 118
34 206 -15 135 -88 259 -153 259 -13 0 -29 2 -37 5 -7 2 -30 -2 -51 -9z"/>
<path d="M5326 4403 c-22 -86 -45 -149 -88 -232 -32 -63 -57 -116 -55 -117 5
-5 206 -44 228 -44 10 0 56 -17 102 -38 74 -35 85 -43 107 -86 l25 -48 -37
-32 c-45 -39 -158 -95 -253 -126 -38 -13 -74 -26 -80 -30 -43 -33 -284 -80
-565 -111 -47 -5 -128 -14 -180 -20 -52 -6 -180 -12 -285 -15 -104 -2 -224 -8
-265 -13 -41 -6 -106 -13 -145 -16 -164 -15 -317 -68 -413 -143 -106 -84 -58
-275 78 -312 91 -25 214 -5 559 90 120 33 218 39 576 38 311 -1 685 19 715 37
4 3 102 21 217 40 299 51 520 112 623 173 25 15 62 35 82 46 79 40 136 104
194 218 50 100 40 255 -23 353 -31 47 -186 205 -201 205 -6 0 -26 13 -45 29
-46 41 -158 96 -258 127 -46 14 -109 34 -139 45 -81 30 -308 85 -381 93 l-64
7 -29 -118z"/>
</g>
</svg>
