<?xml version="1.0" standalone="no"?>
<!DOCTYPE svg PUBLIC "-//W3C//DTD SVG 20010904//EN"
 "http://www.w3.org/TR/2001/REC-SVG-20010904/DTD/svg10.dtd">
<svg version="1.0" xmlns="http://www.w3.org/2000/svg"
 width="704.000000pt" height="1280.000000pt" viewBox="0 0 704.000000 1280.000000"
 preserveAspectRatio="xMidYMid meet">
<metadata>
Created by potrace 1.16, written by Peter Selinger 2001-2019
</metadata>
<g transform="translate(0.000000,1280.000000) scale(0.100000,-0.100000)"
fill="#000000" stroke="none">
<path d="M3892 9732 c-19 -18 -33 -43 -37 -68 -15 -83 -44 -202 -65 -259 -11
-33 -32 -98 -44 -145 -102 -370 -102 -368 -80 -377 15 -6 384 9 587 24 l89 6
-7 34 c-3 18 -18 68 -32 111 -20 58 -26 95 -26 152 1 74 1 75 -17 52 l-19 -23
-25 44 c-14 24 -26 47 -26 51 0 3 -16 38 -35 77 -19 39 -35 76 -35 81 0 22
-62 162 -95 213 -31 49 -38 55 -69 55 -23 0 -43 -9 -64 -28z"/>
<path d="M2890 9661 c-19 -10 -37 -24 -41 -32 -29 -60 -69 -203 -102 -369 -8
-41 -20 -93 -26 -115 -6 -22 -11 -65 -11 -95 0 -30 -6 -102 -14 -160 -8 -58
-19 -200 -25 -315 l-10 -211 -102 -159 c-136 -213 -192 -335 -223 -485 -16
-81 -11 -100 28 -100 22 0 46 -17 46 -31 0 -19 -41 -18 -73 1 -28 17 -59 22
-154 27 -140 7 -196 -5 -191 -40 3 -21 8 -22 144 -24 79 0 151 -6 162 -12 15
-8 21 -23 24 -62 1 -28 1 -55 -2 -59 -3 -4 -25 -13 -50 -20 -94 -24 -225 -72
-237 -87 -17 -22 -5 -43 26 -43 14 0 77 18 139 40 62 22 119 40 127 40 8 0 31
-33 52 -72 26 -50 64 -100 120 -156 77 -78 81 -85 72 -110 -13 -33 -56 -204
-64 -252 -3 -19 -19 -82 -35 -140 -16 -58 -38 -150 -49 -206 -28 -138 -59
-237 -121 -384 -68 -163 -62 -146 -114 -295 -62 -177 -89 -266 -130 -431 -53
-209 -67 -317 -73 -540 -7 -248 7 -344 68 -484 22 -52 47 -108 54 -125 10 -25
10 -41 -2 -90 -7 -33 -16 -94 -19 -136 -6 -67 -4 -80 19 -126 15 -28 39 -61
53 -72 66 -52 173 -78 202 -49 9 9 17 9 35 -1 19 -10 62 -10 213 -1 104 6 208
15 231 21 31 6 72 5 145 -6 203 -31 639 -44 838 -25 47 4 142 13 212 20 113
11 131 11 168 -4 46 -18 96 -21 105 -6 4 7 14 5 28 -5 31 -22 133 -21 141 2 6
15 7 15 19 0 10 -14 36 -17 162 -19 132 -2 155 1 195 19 61 27 138 112 184
203 21 41 48 86 60 100 12 14 33 45 46 70 13 25 33 54 43 65 20 21 94 172 102
210 2 6 12 39 24 75 26 77 30 128 32 343 2 254 -39 483 -139 777 -78 229 -186
473 -246 554 -12 17 -35 60 -51 96 -15 36 -42 97 -60 135 -18 39 -35 84 -39
100 -18 74 -175 413 -225 483 -41 60 -141 264 -141 291 0 24 20 141 25 149 5
6 133 -32 195 -59 74 -31 95 -35 105 -19 15 24 -9 52 -68 79 -76 35 -124 49
-218 60 -75 10 -90 20 -81 53 4 17 10 19 36 13 74 -18 80 -15 87 41 11 91 14
93 137 96 l107 3 3 28 3 27 -88 0 c-108 0 -125 -4 -143 -37 -13 -22 -23 -26
-78 -29 -51 -4 -64 -1 -69 12 -9 25 21 46 73 51 27 3 54 10 61 15 25 20 -2
504 -43 758 -14 92 -55 267 -73 312 -32 82 -45 107 -61 111 -28 7 -702 -23
-736 -34 -17 -5 -64 -9 -106 -9 -115 0 -126 -25 -71 -153 37 -85 35 -109 -8
-86 -13 6 -26 15 -29 18 -30 40 -189 89 -198 62 -5 -16 -74 -49 -89 -44 -17 6
-16 68 2 118 14 37 13 45 -7 100 -11 33 -27 67 -35 76 -32 37 -9 66 61 75 61
9 101 44 91 82 -3 15 -38 99 -77 187 -38 88 -74 176 -78 195 -18 72 -95 217
-125 236 -18 12 -26 11 -55 -5z m1061 -1442 c20 -10 49 -35 65 -56 29 -38 96
-201 88 -214 -2 -4 -6 -37 -9 -73 -9 -109 -79 -273 -142 -329 -35 -30 -125
-57 -164 -48 -114 27 -161 68 -194 173 -36 113 -46 189 -34 256 15 91 28 142
39 155 6 7 33 41 60 77 47 62 52 66 107 76 70 14 135 7 184 -17z m-889 -19
c40 -12 86 -66 130 -155 52 -104 44 -295 -17 -422 -19 -40 -39 -73 -43 -73 -5
0 -22 -12 -39 -28 -60 -53 -154 -63 -228 -23 -70 37 -94 109 -102 302 -5 132
-4 151 16 214 52 162 146 223 283 185z"/>
<path d="M3723 8127 c-32 -18 -75 -73 -95 -121 -22 -54 -24 -214 -3 -274 37
-106 103 -162 191 -162 42 0 51 4 83 38 61 65 85 124 89 229 3 67 0 104 -12
139 -22 65 -71 139 -101 152 -34 16 -124 15 -152 -1z"/>
<path d="M2925 8115 c-42 -15 -62 -36 -98 -100 -19 -35 -22 -54 -22 -160 1
-147 12 -189 71 -254 42 -47 49 -51 90 -51 55 0 91 18 133 65 53 60 64 98 63
211 -1 85 -5 112 -27 165 -48 119 -115 159 -210 124z"/>
<path d="M5346 4468 c-8 -29 -18 -66 -22 -83 -18 -86 -65 -199 -111 -273 -18
-29 -33 -56 -33 -61 0 -5 21 -11 48 -15 26 -3 70 -10 97 -15 28 -6 70 -14 95
-19 56 -10 158 -57 182 -82 33 -35 41 -70 21 -94 -29 -34 -44 -44 -128 -86
-170 -84 -301 -128 -490 -163 -289 -55 -385 -64 -750 -77 -277 -10 -488 -28
-585 -50 -109 -25 -247 -117 -286 -192 -21 -40 -18 -111 7 -152 61 -105 231
-118 513 -40 294 82 261 77 501 76 420 -2 875 22 1010 53 33 7 94 19 135 25
260 41 538 114 655 172 109 55 229 177 270 273 9 22 19 74 22 115 6 88 -15
158 -71 242 -44 67 -167 183 -242 229 -67 40 -207 109 -223 109 -6 0 -30 8
-54 19 -78 34 -301 100 -397 116 -52 9 -107 18 -122 21 -25 5 -28 2 -42 -48z"/>
</g>
</svg>
