<?xml version="1.0" standalone="no"?>
<!DOCTYPE svg PUBLIC "-//W3C//DTD SVG 20010904//EN"
 "http://www.w3.org/TR/2001/REC-SVG-20010904/DTD/svg10.dtd">
<svg version="1.0" xmlns="http://www.w3.org/2000/svg"
 width="704.000000pt" height="1280.000000pt" viewBox="0 0 704.000000 1280.000000"
 preserveAspectRatio="xMidYMid meet">
<metadata>
Created by potrace 1.16, written by Peter Selinger 2001-2019
</metadata>
<g transform="translate(0.000000,1280.000000) scale(0.100000,-0.100000)"
fill="#000000" stroke="none">
<path d="M3904 9751 c-37 -22 -47 -47 -69 -171 -10 -52 -23 -107 -31 -121 -7
-14 -23 -68 -35 -120 -12 -52 -30 -112 -39 -134 -9 -22 -29 -92 -44 -155 -15
-63 -31 -127 -36 -142 -5 -17 -4 -30 2 -34 5 -3 58 -3 116 0 243 15 567 38
571 42 5 4 -25 115 -43 164 -64 167 -104 266 -133 324 -18 39 -38 88 -44 110
-16 61 -88 202 -116 231 -31 30 -57 32 -99 6z"/>
<path d="M2886 9659 c-33 -26 -53 -64 -73 -138 -50 -186 -67 -302 -58 -394 6
-67 10 -80 43 -117 47 -56 101 -80 179 -80 78 0 111 -12 115 -42 4 -28 32 -35
139 -37 82 -1 93 3 79 28 -24 42 -149 321 -160 356 -7 22 -28 75 -46 118 -19
43 -34 83 -34 89 0 25 -101 218 -119 227 -27 15 -35 14 -65 -10z"/>
<path d="M4175 8838 c-77 -3 -236 -11 -353 -17 -116 -5 -218 -13 -224 -17 -7
-5 -144 -8 -304 -9 -333 0 -310 6 -360 -93 -28 -54 -29 -63 -28 -184 0 -78 -3
-128 -9 -128 -6 0 -38 27 -73 60 -61 59 -63 60 -119 60 -49 0 -56 -2 -51 -17
3 -10 8 -44 12 -76 6 -50 4 -61 -13 -77 -11 -10 -46 -60 -78 -111 -32 -52 -75
-121 -96 -155 -80 -124 -170 -396 -147 -438 5 -9 19 -16 32 -16 33 0 51 -23
31 -40 -12 -10 -25 -8 -68 10 -40 18 -78 24 -164 28 -129 5 -176 -6 -171 -42
3 -20 9 -21 130 -22 69 -1 142 -4 161 -8 33 -6 34 -8 40 -64 3 -31 3 -60 -2
-65 -4 -4 -41 -16 -82 -28 -165 -45 -218 -72 -205 -104 8 -22 25 -19 163 25
69 22 129 40 133 40 5 0 22 -28 40 -62 42 -82 71 -120 143 -191 l59 -57 -61
-243 c-33 -133 -76 -316 -95 -407 -29 -138 -45 -190 -99 -315 -60 -138 -123
-309 -198 -540 -44 -132 -108 -405 -124 -525 -8 -58 -15 -181 -15 -275 0 -236
24 -365 96 -506 33 -67 41 -133 20 -183 -23 -56 -30 -134 -17 -197 9 -43 20
-64 49 -91 77 -73 94 -78 258 -81 l148 -2 7 25 c4 15 7 18 8 8 2 -27 33 -38
97 -33 33 3 76 5 97 4 21 0 62 8 91 17 50 16 60 16 152 0 215 -36 759 -46 964
-17 190 27 204 28 246 9 46 -20 101 -23 106 -6 3 9 9 8 22 -5 24 -24 141 -25
154 -1 8 15 10 15 15 0 6 -14 23 -16 110 -15 58 1 108 -1 113 -4 14 -8 123 12
157 29 50 26 122 112 166 198 23 44 69 119 102 166 79 113 145 259 183 405 19
76 23 370 7 535 -30 295 -205 810 -365 1073 -26 43 -59 104 -73 135 -14 31
-38 85 -54 119 -16 34 -29 67 -29 73 0 26 -49 146 -105 260 -70 140 -143 280
-155 295 -21 27 -110 206 -110 222 0 37 33 153 44 153 36 -1 111 -25 177 -56
83 -40 109 -39 109 0 0 21 -10 30 -54 51 -79 37 -161 64 -219 70 -91 11 -97
13 -97 41 0 25 1 25 54 19 l55 -7 6 38 c3 22 12 55 19 74 l12 35 109 5 110 5
3 28 3 27 -88 0 c-109 0 -125 -4 -143 -37 -13 -23 -22 -26 -71 -28 -63 -3 -85
5 -76 28 6 17 65 37 108 37 15 0 30 7 33 16 9 24 7 264 -4 309 -5 22 -14 114
-20 205 -15 240 -68 510 -121 614 -26 53 -26 53 -214 44z m-229 -618 c57 -25
102 -83 135 -176 27 -75 28 -84 19 -159 -15 -125 -61 -241 -122 -311 -38 -43
-119 -84 -167 -84 -38 0 -125 38 -158 69 -28 27 -62 117 -79 214 -8 43 -16 83
-19 87 -5 8 -2 28 27 155 10 43 71 148 115 195 18 20 118 40 168 33 22 -3 58
-13 81 -23z m-835 -56 c52 -51 104 -155 118 -235 21 -125 -37 -325 -113 -391
-45 -39 -132 -71 -176 -63 -131 22 -168 91 -177 327 -7 167 4 222 63 313 52
83 81 97 182 91 58 -4 67 -7 103 -42z"/>
<path d="M3701 8115 c-16 -14 -44 -53 -60 -87 -28 -54 -31 -71 -31 -150 0
-189 78 -308 201 -308 65 0 103 30 145 115 36 73 36 74 32 182 -3 96 -7 114
-32 160 -16 28 -42 66 -58 82 -28 29 -36 31 -98 31 -59 0 -73 -4 -99 -25z"/>
<path d="M2932 8120 c-41 -10 -77 -42 -105 -95 -19 -35 -22 -55 -21 -165 1
-69 6 -144 13 -167 16 -57 91 -139 136 -147 70 -13 163 63 199 164 50 139 -11
351 -116 406 -29 15 -55 16 -106 4z"/>
<path d="M5361 4506 c-6 -6 -22 -56 -36 -111 -15 -55 -33 -113 -40 -130 -30
-71 -70 -152 -87 -177 -24 -35 -19 -44 34 -52 44 -6 108 -18 188 -34 113 -23
201 -79 216 -137 5 -20 1 -32 -17 -51 -39 -41 -271 -147 -434 -197 -90 -28
-334 -72 -490 -89 -108 -11 -105 -11 -465 -26 -263 -12 -485 -33 -565 -56
-177 -49 -296 -151 -297 -255 0 -68 34 -126 92 -156 83 -42 280 -21 548 59
147 44 191 48 572 51 404 3 656 17 800 45 52 10 127 23 165 30 407 67 650 145
776 247 55 45 132 143 155 198 9 22 18 73 21 115 7 101 -15 173 -76 253 -144
188 -298 281 -656 396 -156 50 -390 94 -404 77z"/>
</g>
</svg>
