<?xml version="1.0" standalone="no"?>
<!DOCTYPE svg PUBLIC "-//W3C//DTD SVG 20010904//EN"
 "http://www.w3.org/TR/2001/REC-SVG-20010904/DTD/svg10.dtd">
<svg version="1.0" xmlns="http://www.w3.org/2000/svg"
 width="704.000000pt" height="1280.000000pt" viewBox="0 0 704.000000 1280.000000"
 preserveAspectRatio="xMidYMid meet">
<metadata>
Created by potrace 1.16, written by Peter Selinger 2001-2019
</metadata>
<g transform="translate(0.000000,1280.000000) scale(0.100000,-0.100000)"
fill="#000000" stroke="none">
<path d="M3647 9637 c-30 -28 -36 -41 -41 -92 -3 -33 -11 -91 -17 -130 -6 -38
-14 -101 -19 -140 -5 -38 -13 -90 -18 -115 -6 -25 -22 -128 -37 -230 -33 -232
-32 -227 -55 -250 -14 -14 -28 -18 -48 -14 -17 4 -41 0 -58 -9 -16 -8 -57 -17
-92 -20 -60 -5 -64 -4 -73 20 -5 13 -23 44 -39 68 -17 24 -30 46 -30 48 0 2
-23 44 -52 93 -130 225 -170 299 -200 367 -17 39 -44 88 -60 108 -15 20 -28
42 -28 47 0 23 -62 72 -91 72 -49 0 -76 -54 -98 -201 -33 -216 -42 -337 -42
-609 -1 -243 2 -322 17 -465 4 -45 0 -58 -38 -130 -99 -185 -158 -316 -183
-403 -26 -95 -50 -246 -41 -261 3 -5 19 -11 36 -14 37 -8 41 -37 5 -37 -13 0
-35 5 -49 12 -20 8 -46 8 -110 -1 -155 -21 -220 -52 -196 -91 7 -11 25 -10
112 7 57 12 124 24 150 27 54 6 61 0 72 -71 l6 -41 -118 -62 c-130 -69 -152
-85 -152 -112 0 -31 27 -32 83 -3 28 15 75 39 102 53 28 13 62 33 77 43 14 11
28 19 31 19 3 0 16 -24 30 -52 15 -29 53 -83 86 -120 l59 -67 -34 -128 c-42
-155 -68 -272 -95 -418 -15 -86 -31 -135 -73 -225 -120 -257 -195 -464 -291
-805 -51 -180 -88 -467 -79 -620 10 -183 36 -288 112 -448 l46 -98 -25 -77
c-67 -212 9 -361 197 -386 40 -5 54 -3 64 9 12 14 15 14 31 -1 14 -12 31 -15
81 -10 35 3 72 5 83 6 11 0 43 0 72 0 93 0 167 8 212 24 40 15 53 15 165 -3
168 -27 201 -30 456 -37 225 -6 362 1 604 31 112 14 120 13 155 -5 26 -13 70
-20 154 -26 110 -6 117 -6 117 12 1 18 1 18 11 2 8 -15 24 -18 89 -18 49 0 80
4 80 10 0 7 8 7 22 -1 30 -16 157 -5 199 17 79 40 135 106 176 206 14 34 38
79 54 99 16 20 29 41 29 47 0 6 17 32 38 59 33 42 82 131 82 149 0 3 6 20 14
37 7 18 28 79 46 137 29 92 33 119 35 225 1 157 -11 357 -30 473 -13 80 -86
355 -115 432 -92 249 -210 503 -256 551 -13 14 -24 28 -24 31 0 3 -24 57 -54
119 -29 63 -57 129 -61 148 -4 19 -19 62 -34 95 -29 68 -191 381 -226 436 -12
19 -39 67 -59 105 -34 63 -37 75 -33 124 3 29 8 56 11 59 9 8 105 -16 171 -43
73 -30 81 -30 95 -4 16 30 -6 51 -82 77 -81 27 -160 37 -187 23 -14 -8 -34 -8
-61 -2 -51 11 -57 17 -43 39 8 13 22 16 65 14 55 -4 55 -4 62 28 3 18 6 52 6
75 0 49 0 49 115 60 81 9 105 19 105 44 0 26 -15 29 -95 20 -38 -4 -80 -8 -92
-8 -14 -1 -24 -10 -31 -29 -9 -26 -17 -30 -73 -39 -43 -7 -68 -7 -76 -1 -29
23 -6 41 85 64 31 8 61 19 67 24 13 11 11 170 -4 280 -39 291 -163 756 -235
880 -11 19 -57 109 -103 200 -45 91 -102 199 -126 240 -24 41 -54 93 -67 115
-13 22 -52 94 -88 160 -72 133 -119 198 -162 220 -37 19 -33 20 -73 -18z m229
-1498 c38 -15 77 -41 123 -85 61 -57 72 -73 106 -160 21 -53 39 -115 40 -138
0 -23 4 -46 7 -51 9 -16 -11 -154 -27 -184 -25 -49 -107 -132 -154 -156 -89
-45 -151 -57 -227 -45 -86 14 -139 44 -185 107 -58 79 -68 99 -84 165 -17 73
-21 308 -5 308 6 0 10 9 10 21 0 11 16 50 36 85 46 82 102 122 199 139 96 18
97 18 161 -6z m-941 -70 c79 -40 118 -79 164 -165 60 -112 78 -169 86 -282 6
-85 5 -106 -8 -120 -8 -9 -18 -31 -22 -49 -6 -33 -104 -133 -128 -133 -7 0
-24 -6 -39 -14 -15 -8 -56 -17 -91 -21 -94 -10 -196 28 -269 100 -102 101
-149 284 -114 450 8 39 63 151 91 183 46 55 111 79 215 81 43 1 69 -6 115 -30z"/>
<path d="M3675 8058 c-134 -47 -199 -211 -160 -403 9 -44 26 -97 37 -120 43
-84 147 -155 229 -155 55 0 142 36 179 73 76 77 98 178 66 299 -60 226 -209
356 -351 306z"/>
<path d="M2711 8018 c-47 -16 -117 -108 -132 -173 -19 -86 -8 -210 25 -283 37
-81 129 -169 205 -196 118 -42 246 7 302 116 30 59 20 257 -16 298 -7 8 -16
25 -19 37 -23 73 -93 155 -164 193 -33 16 -160 22 -201 8z"/>
<path d="M5370 4505 c0 -2 -13 -53 -29 -112 -27 -104 -75 -215 -128 -295 -14
-21 -23 -41 -20 -44 3 -4 57 -17 119 -30 220 -47 293 -82 318 -151 13 -39 13
-44 -5 -63 -51 -56 -398 -190 -580 -223 -278 -51 -603 -83 -925 -91 -305 -8
-489 -41 -617 -112 -77 -43 -119 -92 -134 -160 -15 -65 -7 -95 36 -143 45 -50
102 -66 220 -64 87 2 133 11 365 75 176 48 198 50 610 53 472 4 626 15 910 66
500 89 645 136 818 265 47 35 126 138 149 193 26 61 33 154 17 222 -16 71 -27
92 -73 148 -173 211 -325 299 -686 396 -27 7 -70 20 -95 28 -94 31 -270 59
-270 42z"/>
</g>
</svg>
