<?xml version="1.0" standalone="no"?>
<!DOCTYPE svg PUBLIC "-//W3C//DTD SVG 20010904//EN"
 "http://www.w3.org/TR/2001/REC-SVG-20010904/DTD/svg10.dtd">
<svg version="1.0" xmlns="http://www.w3.org/2000/svg"
 width="704.000000pt" height="1280.000000pt" viewBox="0 0 704.000000 1280.000000"
 preserveAspectRatio="xMidYMid meet">
<metadata>
Created by potrace 1.16, written by Peter Selinger 2001-2019
</metadata>
<g transform="translate(0.000000,1280.000000) scale(0.100000,-0.100000)"
fill="#000000" stroke="none">
<path d="M3658 9645 c-42 -28 -58 -67 -58 -142 0 -52 -37 -294 -65 -423 -8
-36 -22 -123 -30 -195 -18 -146 -30 -201 -47 -211 -6 -4 -27 -6 -47 -6 -20 1
-49 -4 -66 -12 -16 -7 -57 -16 -90 -19 l-60 -6 -83 162 c-46 89 -103 194 -126
232 -41 67 -95 162 -140 250 -43 83 -100 163 -128 179 -33 20 -56 11 -91 -37
-45 -61 -83 -421 -81 -782 1 -175 11 -430 20 -472 5 -26 -2 -46 -37 -110 -24
-43 -55 -103 -69 -133 -14 -31 -35 -72 -47 -92 -37 -63 -101 -285 -105 -363
l-3 -70 32 -15 c34 -16 48 -49 16 -35 -10 4 -52 10 -94 12 -88 6 -231 -25
-263 -56 -27 -28 -14 -55 22 -47 75 17 256 47 270 44 17 -3 47 -107 35 -119
-5 -4 -48 -28 -98 -54 -125 -67 -177 -103 -173 -123 6 -34 49 -24 169 42 66
36 123 66 127 66 4 0 21 -23 37 -52 17 -28 56 -78 88 -112 36 -38 55 -67 51
-76 -3 -8 -12 -44 -20 -80 -8 -36 -32 -135 -54 -220 -21 -85 -44 -186 -50
-225 -15 -86 -39 -162 -74 -235 -27 -54 -53 -113 -103 -235 -27 -66 -97 -266
-136 -390 -24 -78 -84 -325 -105 -435 -30 -153 -33 -412 -6 -550 14 -76 49
-180 91 -272 l44 -97 -27 -78 c-35 -105 -31 -197 12 -263 16 -25 38 -53 49
-62 31 -26 118 -49 182 -49 32 1 79 -2 105 -5 27 -3 62 -1 80 5 23 8 33 8 39
0 5 -8 25 -9 62 -5 31 4 82 9 114 11 32 2 78 10 102 19 39 13 54 13 125 1 159
-28 325 -38 611 -39 248 0 313 3 448 22 108 15 163 19 176 13 25 -14 66 -21
141 -27 36 -2 80 -7 98 -10 19 -3 40 0 47 6 9 8 15 8 20 0 3 -5 41 -10 86 -10
64 0 79 3 79 15 0 8 4 15 10 15 5 0 9 -6 7 -12 -3 -19 148 -14 194 5 57 25
122 97 169 188 24 46 56 99 71 117 16 18 32 44 35 57 3 14 9 25 13 25 14 0 68
94 99 170 61 148 94 269 99 364 7 111 -13 410 -33 520 -26 137 -138 516 -163
551 -4 6 -13 30 -20 55 -21 73 -153 330 -214 417 -19 28 -42 71 -51 97 -9 26
-22 57 -30 69 -8 12 -26 61 -40 109 -24 87 -105 251 -230 472 -106 186 -116
210 -116 269 0 62 4 69 34 57 13 -4 36 -10 53 -13 16 -3 61 -15 100 -27 75
-25 103 -22 103 8 0 25 -13 36 -80 62 -45 18 -78 23 -178 25 -67 1 -125 5
-129 9 -4 4 -2 15 4 24 8 13 25 17 64 17 l54 0 8 60 c12 86 15 89 88 98 105
13 124 20 127 46 5 33 -10 39 -71 30 -28 -4 -69 -8 -89 -8 l-38 -1 -1 118 c0
134 -7 197 -43 372 -51 252 -85 381 -138 535 -28 79 -276 569 -364 717 -38 65
-91 157 -119 205 -48 83 -121 173 -141 173 -5 0 -26 -11 -46 -25z m249 -1520
c80 -36 153 -116 187 -207 16 -40 35 -89 44 -108 22 -50 19 -178 -7 -253 -53
-153 -213 -251 -381 -234 -66 7 -143 42 -176 79 -44 49 -83 134 -98 217 -18
93 -21 266 -6 276 6 3 10 14 10 23 0 9 17 50 38 90 47 89 75 109 199 136 79
17 115 14 190 -19z m-1019 -40 c104 -37 153 -76 209 -170 55 -93 73 -154 93
-319 8 -67 7 -72 -23 -129 -41 -78 -80 -117 -153 -152 -50 -24 -72 -29 -144
-29 -72 -1 -93 3 -140 25 -79 39 -146 108 -189 198 -33 70 -36 83 -36 166 0
66 7 114 25 178 13 48 28 87 32 87 4 0 8 5 8 11 0 20 61 89 94 106 82 43 154
52 224 28z"/>
<path d="M3675 8054 c-60 -21 -107 -65 -139 -128 -26 -51 -28 -66 -28 -158 0
-194 68 -325 191 -369 56 -19 141 -16 197 7 44 18 109 96 128 151 17 51 21
149 7 185 -5 13 -14 41 -21 63 -19 61 -88 171 -126 200 -45 35 -113 65 -144
64 -14 0 -43 -7 -65 -15z"/>
<path d="M2730 8017 c-45 -14 -106 -77 -134 -136 -17 -38 -21 -65 -21 -156 0
-106 1 -114 34 -179 69 -135 200 -218 318 -202 92 12 189 102 208 193 3 18 -1
71 -10 120 -32 171 -131 322 -237 360 -41 15 -111 15 -158 0z"/>
<path d="M5346 4403 c-32 -120 -78 -228 -125 -297 -37 -53 -37 -56 -8 -56 36
0 227 -46 291 -70 126 -48 173 -131 104 -183 -58 -43 -157 -88 -320 -142 -187
-63 -295 -86 -573 -121 -140 -17 -158 -18 -500 -33 -438 -18 -555 -35 -675
-96 -66 -33 -137 -99 -156 -143 -18 -44 -18 -105 0 -141 42 -81 135 -118 265
-107 74 6 260 49 351 81 108 38 208 48 515 50 529 5 671 14 985 66 391 64 536
101 679 174 62 31 191 115 191 124 0 3 14 22 31 41 55 63 90 145 96 226 13
165 -58 286 -254 438 -100 76 -244 146 -383 186 -36 10 -105 30 -155 44 -115
34 -260 66 -300 66 -30 0 -31 0 -59 -107z"/>
</g>
</svg>
