<?xml version="1.0" standalone="no"?>
<!DOCTYPE svg PUBLIC "-//W3C//DTD SVG 20010904//EN"
 "http://www.w3.org/TR/2001/REC-SVG-20010904/DTD/svg10.dtd">
<svg version="1.0" xmlns="http://www.w3.org/2000/svg"
 width="704.000000pt" height="1280.000000pt" viewBox="0 0 704.000000 1280.000000"
 preserveAspectRatio="xMidYMid meet">
<metadata>
Created by potrace 1.16, written by Peter Selinger 2001-2019
</metadata>
<g transform="translate(0.000000,1280.000000) scale(0.100000,-0.100000)"
fill="#000000" stroke="none">
<path d="M3783 9630 c-42 -25 -54 -49 -64 -131 -5 -38 -22 -124 -38 -191 -48
-198 -98 -426 -117 -525 -9 -51 -21 -97 -28 -102 -6 -5 -36 -11 -66 -14 -30
-2 -71 -9 -90 -13 -19 -5 -57 -7 -83 -4 -48 5 -48 6 -71 60 -39 95 -76 169
-86 175 -6 3 -10 13 -10 20 0 8 -38 92 -84 187 -46 95 -87 184 -91 198 -10 36
-95 172 -119 192 -31 26 -50 22 -84 -16 -39 -45 -46 -67 -83 -286 -42 -247
-48 -330 -55 -699 l-5 -314 -70 -116 c-134 -221 -207 -401 -225 -553 l-6 -57
42 -17 c28 -11 38 -20 31 -27 -7 -7 -20 -6 -40 3 -21 8 -70 11 -158 8 -144 -5
-183 -17 -183 -56 0 -24 1 -25 53 -18 28 4 98 9 153 13 113 7 105 11 119 -68
8 -41 -2 -52 -62 -73 -23 -8 -80 -34 -127 -57 -71 -35 -86 -47 -84 -64 5 -32
60 -24 179 29 59 25 111 46 115 46 5 0 27 -31 48 -69 21 -39 61 -91 87 -118
27 -26 49 -56 49 -66 0 -10 -19 -88 -41 -175 -23 -86 -45 -173 -50 -192 -18
-83 -37 -180 -49 -245 -8 -47 -34 -117 -78 -210 -64 -138 -78 -171 -160 -390
-47 -124 -137 -445 -153 -544 -6 -36 -14 -91 -19 -121 -25 -151 -32 -293 -21
-418 14 -145 43 -247 108 -376 l45 -89 -27 -86 c-49 -154 -21 -270 82 -343 32
-24 55 -31 107 -35 46 -4 70 -2 82 8 12 10 17 10 23 0 5 -8 37 -12 97 -12 49
0 100 0 114 -1 95 -2 181 6 225 23 60 23 86 23 190 3 111 -21 544 -45 700 -38
72 3 203 14 291 25 l162 19 47 -20 c27 -11 64 -21 84 -21 20 0 67 -2 104 -5
46 -4 73 -2 82 6 10 9 19 9 28 2 16 -13 154 -15 162 -1 5 7 11 6 21 -2 20 -16
147 -3 204 22 57 25 110 84 156 173 35 68 59 108 140 230 19 30 46 83 59 117
12 35 30 78 38 94 9 17 23 56 31 87 8 31 20 66 26 77 28 53 21 445 -11 641
-19 113 -80 319 -180 610 -26 73 -154 337 -183 375 -13 16 -31 45 -40 63 -9
17 -23 32 -31 32 -7 0 -15 12 -17 27 -4 39 -28 42 -28 4 0 -38 -18 -41 -22 -3
-2 16 -9 27 -18 27 -9 0 -16 -11 -18 -27 -5 -43 -22 -33 -22 13 l0 41 40 -3
c21 -2 42 0 46 4 4 3 -2 26 -13 49 -11 24 -25 63 -32 88 -16 59 -168 359 -319
631 -30 54 -34 88 -17 146 3 8 45 -2 132 -32 130 -44 153 -45 153 -6 0 24 -42
45 -147 76 -64 18 -103 24 -127 19 -20 -3 -52 -3 -72 0 -29 6 -35 11 -32 29 3
20 8 22 60 19 l57 -4 7 39 c18 107 19 108 49 114 17 4 57 7 90 8 81 2 105 9
105 32 0 28 -28 35 -126 29 -84 -5 -88 -6 -94 -30 -5 -21 -14 -26 -70 -36 -72
-13 -90 -10 -90 15 0 22 35 38 99 47 28 4 55 12 61 19 16 19 13 245 -5 344 -8
47 -24 156 -35 241 -30 227 -92 443 -189 660 -29 63 -64 142 -79 175 -14 33
-75 157 -134 276 -59 119 -108 219 -108 222 0 12 -92 162 -113 185 -25 27 -43
28 -84 2z m221 -1394 c53 -31 82 -74 97 -147 6 -30 14 -61 16 -69 13 -37 -1
-150 -29 -244 -54 -184 -137 -305 -242 -354 -65 -31 -156 -32 -221 -3 -51 22
-115 76 -115 96 0 6 -5 16 -11 22 -24 24 -50 121 -56 204 -6 92 15 222 43 266
8 12 14 27 14 33 0 15 71 109 106 141 77 69 141 90 266 85 72 -3 95 -8 132
-30z m-928 -92 c94 -76 146 -257 114 -395 -24 -108 -52 -191 -68 -208 -9 -9
-34 -39 -55 -66 -108 -141 -277 -166 -395 -60 -98 88 -137 220 -112 381 28
184 103 301 235 370 46 23 58 25 142 21 90 -4 94 -5 139 -43z"/>
<path d="M3710 8193 c-14 -10 -31 -18 -38 -19 -7 -2 -32 -18 -56 -38 -51 -41
-121 -173 -136 -255 -37 -200 54 -368 208 -386 101 -11 173 38 234 160 41 82
53 142 53 260 0 104 -2 114 -33 177 -17 36 -40 69 -50 72 -9 4 -33 16 -52 26
-43 25 -98 26 -130 3z"/>
<path d="M2785 8121 c-69 -43 -118 -103 -154 -190 -32 -78 -35 -95 -35 -181 0
-121 20 -184 77 -241 77 -77 164 -96 248 -53 45 23 97 94 129 175 26 67 30 92
30 171 0 162 -48 271 -140 318 -50 25 -116 26 -155 1z"/>
<path d="M5366 4493 c-2 -10 -12 -54 -22 -98 -12 -52 -40 -124 -81 -205 -35
-68 -63 -130 -63 -136 0 -7 15 -12 34 -12 90 0 309 -71 363 -117 29 -25 35
-37 35 -69 0 -21 -4 -42 -8 -46 -56 -55 -407 -188 -579 -221 -176 -33 -207
-38 -360 -54 -82 -8 -191 -20 -242 -25 -50 -6 -160 -10 -245 -10 -226 0 -513
-34 -598 -71 -140 -62 -180 -90 -212 -153 -30 -59 -27 -119 9 -169 41 -58 71
-77 143 -87 114 -16 201 -2 456 73 65 20 153 40 194 46 41 5 247 10 457 10
388 0 610 13 768 46 39 7 113 21 165 30 474 81 700 174 827 342 62 82 85 150
87 258 1 123 -25 178 -145 297 -168 166 -273 221 -604 315 -262 74 -369 90
-379 56z"/>
</g>
</svg>
