<?xml version="1.0" standalone="no"?>
<!DOCTYPE svg PUBLIC "-//W3C//DTD SVG 20010904//EN"
 "http://www.w3.org/TR/2001/REC-SVG-20010904/DTD/svg10.dtd">
<svg version="1.0" xmlns="http://www.w3.org/2000/svg"
 width="704.000000pt" height="1280.000000pt" viewBox="0 0 704.000000 1280.000000"
 preserveAspectRatio="xMidYMid meet">
<metadata>
Created by potrace 1.16, written by Peter Selinger 2001-2019
</metadata>
<g transform="translate(0.000000,1280.000000) scale(0.100000,-0.100000)"
fill="#000000" stroke="none">
<path d="M3805 9681 c-49 -21 -71 -68 -80 -173 -6 -69 -12 -99 -48 -243 -12
-48 -35 -149 -53 -230 -1 -5 -7 -32 -14 -60 -6 -27 -20 -99 -31 -159 -10 -60
-24 -113 -31 -118 -7 -5 -34 -6 -59 -2 -35 4 -50 2 -62 -11 -11 -10 -42 -18
-87 -22 -62 -5 -70 -4 -76 13 -4 10 -24 56 -45 102 -22 46 -39 85 -39 88 0 3
-42 91 -94 197 -51 106 -105 226 -120 268 -15 41 -43 104 -64 140 -31 52 -43
65 -66 67 -42 5 -72 -15 -95 -62 -28 -58 -79 -291 -92 -426 -6 -63 -13 -119
-16 -124 -8 -11 -14 -226 -16 -522 l-2 -250 -26 -35 c-31 -41 -138 -218 -167
-274 -11 -22 -28 -67 -37 -100 -10 -33 -21 -64 -25 -70 -5 -5 -16 -46 -25 -91
-21 -98 -15 -146 20 -162 26 -12 34 -32 13 -32 -6 0 -20 8 -31 18 -29 26 -249
24 -295 -3 -18 -11 -32 -28 -32 -38 0 -17 6 -19 53 -13 217 24 250 21 266 -26
15 -41 14 -83 -1 -95 -7 -6 -31 -16 -53 -23 -22 -7 -51 -18 -65 -25 -14 -7
-53 -26 -87 -41 -50 -22 -63 -33 -63 -50 0 -12 6 -24 13 -27 13 -4 125 35 220
77 32 14 61 26 65 26 4 0 18 -24 31 -52 14 -31 51 -80 88 -117 l64 -64 -70
-281 c-39 -154 -73 -299 -77 -321 -10 -65 -29 -125 -64 -200 -80 -176 -129
-297 -195 -490 -53 -155 -127 -437 -150 -575 -23 -134 -31 -395 -16 -516 18
-141 28 -175 88 -303 29 -63 53 -120 53 -127 0 -7 -12 -49 -26 -94 -24 -72
-25 -86 -16 -140 16 -89 38 -126 97 -165 63 -42 157 -65 187 -46 15 9 23 10
31 2 15 -15 97 -14 128 3 22 11 29 11 45 -1 13 -10 33 -12 64 -8 25 3 74 7
110 10 36 2 83 9 105 17 26 9 56 12 85 7 383 -58 771 -64 1143 -15 103 14 111
13 152 -5 24 -11 61 -19 82 -18 21 0 66 -2 100 -6 45 -6 67 -4 78 5 10 8 19 9
28 3 18 -15 114 -24 142 -13 16 6 34 6 49 0 16 -6 47 -5 84 0 130 21 198 76
260 209 19 42 43 85 52 96 33 38 126 181 147 226 11 24 42 106 67 183 l46 138
1 207 c0 113 -4 240 -10 282 -16 120 -31 211 -42 254 -21 84 -114 364 -151
460 -48 120 -160 347 -194 392 -31 40 -114 217 -143 303 -22 65 -201 428 -260
528 -17 29 -31 57 -31 61 0 5 -12 26 -27 47 -22 32 -26 49 -25 98 1 32 4 61 6
64 7 6 129 -27 197 -54 54 -21 79 -14 79 20 0 20 -9 29 -44 44 -67 30 -177 53
-211 43 -34 -8 -101 1 -117 17 -8 8 -7 16 2 27 11 13 25 15 72 10 45 -5 58 -4
59 7 2 63 13 134 21 139 5 4 46 9 90 12 89 6 122 23 98 51 -26 33 -178 12
-187 -25 -3 -10 -6 -19 -7 -19 0 -1 -26 -3 -56 -6 -30 -3 -61 -7 -67 -9 -19
-7 -43 5 -43 21 0 19 42 36 105 43 72 9 77 21 71 211 -3 85 -9 189 -15 230
-14 112 -30 211 -41 250 -4 19 -20 93 -35 164 -15 71 -31 141 -37 155 -6 14
-21 53 -33 86 -59 164 -180 442 -275 630 -58 116 -114 230 -124 255 -25 60
-75 141 -100 162 -23 19 -40 21 -71 9z m94 -1556 c122 -50 159 -84 220 -202
49 -94 77 -274 51 -324 -6 -10 -10 -25 -10 -33 0 -23 -73 -127 -107 -152 -50
-37 -107 -62 -171 -74 -196 -39 -348 70 -391 281 -14 67 -8 256 8 272 6 6 11
18 11 26 0 20 38 99 67 137 33 44 106 77 188 85 39 3 70 7 71 8 0 0 29 -10 63
-24z m-979 -13 c104 -40 157 -90 218 -202 52 -96 73 -203 63 -310 -9 -84 -25
-123 -78 -181 -45 -49 -108 -79 -190 -89 -80 -10 -89 -8 -202 41 -86 38 -161
141 -192 262 -6 26 -15 47 -20 47 -12 0 -12 37 0 44 5 4 12 25 16 49 17 115
60 234 98 271 80 77 194 105 287 68z"/>
<path d="M3705 8061 c-64 -13 -93 -38 -129 -113 -104 -211 -47 -438 134 -534
57 -30 153 -26 218 11 60 32 107 90 123 150 13 47 5 193 -14 245 -62 176 -192
270 -332 241z"/>
<path d="M2757 8056 c-51 -18 -72 -39 -115 -111 -33 -56 -36 -67 -40 -158 -4
-84 -1 -107 18 -160 36 -98 85 -157 171 -201 62 -33 105 -40 174 -27 64 12
100 39 152 115 26 37 28 45 27 141 -2 102 -8 135 -45 231 -15 38 -35 63 -78
99 -96 79 -178 101 -264 71z"/>
<path d="M5351 4447 c-20 -117 -86 -280 -144 -359 -13 -17 -17 -31 -11 -37 5
-4 69 -20 143 -35 208 -41 291 -87 291 -162 0 -26 -7 -38 -32 -57 -131 -97
-449 -205 -693 -236 -44 -6 -118 -15 -165 -21 -156 -21 -293 -31 -525 -40
-489 -18 -653 -53 -770 -161 -55 -50 -75 -94 -75 -159 0 -67 46 -128 115 -153
88 -31 321 -4 495 58 50 18 107 32 190 46 30 6 240 12 465 14 525 5 596 11
960 80 269 51 316 62 440 102 196 64 328 150 400 262 52 80 69 145 63 240 -8
112 -39 174 -137 272 -114 114 -184 163 -313 221 -123 54 -359 127 -525 164
-164 35 -159 36 -172 -39z"/>
</g>
</svg>
