<?xml version="1.0" standalone="no"?>
<!DOCTYPE svg PUBLIC "-//W3C//DTD SVG 20010904//EN"
 "http://www.w3.org/TR/2001/REC-SVG-20010904/DTD/svg10.dtd">
<svg version="1.0" xmlns="http://www.w3.org/2000/svg"
 width="704.000000pt" height="1280.000000pt" viewBox="0 0 704.000000 1280.000000"
 preserveAspectRatio="xMidYMid meet">
<metadata>
Created by potrace 1.16, written by Peter Selinger 2001-2019
</metadata>
<g transform="translate(0.000000,1280.000000) scale(0.100000,-0.100000)"
fill="#000000" stroke="none">
<path d="M3642 9633 c-36 -31 -52 -91 -52 -194 0 -31 -4 -79 -10 -106 -5 -26
-19 -104 -30 -173 -11 -69 -26 -152 -31 -185 -6 -33 -17 -107 -24 -165 -11
-90 -17 -107 -38 -126 -16 -14 -34 -20 -50 -17 -13 3 -37 -2 -53 -10 -16 -8
-59 -16 -96 -18 l-66 -4 -75 145 c-41 80 -93 177 -117 215 -24 38 -72 126
-108 195 -116 220 -153 270 -202 270 -50 0 -81 -59 -102 -194 -9 -61 -17 -145
-18 -186 0 -41 -5 -93 -10 -115 -13 -56 -14 -510 -1 -688 l10 -148 -94 -185
c-98 -191 -145 -322 -165 -460 -5 -38 -10 -72 -10 -76 0 -4 14 -14 30 -23 32
-17 44 -52 13 -40 -60 23 -219 12 -301 -20 -47 -19 -66 -46 -49 -69 11 -15 16
-15 55 -2 52 19 229 49 246 43 6 -3 18 -29 24 -58 15 -64 18 -60 -106 -122
-46 -23 -98 -54 -117 -70 -42 -34 -47 -67 -10 -67 24 0 167 71 227 112 14 10
31 18 36 18 6 0 23 -21 38 -47 15 -27 54 -76 87 -110 l59 -61 -22 -89 c-26
-109 -23 -98 -69 -278 -21 -82 -42 -170 -46 -195 -13 -82 -33 -146 -64 -208
-108 -215 -309 -814 -342 -1021 -42 -260 -45 -422 -13 -599 19 -103 42 -171
94 -274 22 -44 40 -86 40 -93 0 -7 -12 -48 -26 -91 -32 -96 -29 -176 10 -251
20 -39 34 -53 82 -78 63 -31 166 -47 178 -26 5 7 15 6 31 -5 18 -12 35 -14 62
-9 21 4 95 7 165 6 84 -1 150 4 196 14 61 14 80 14 183 1 320 -42 708 -43
1013 -5 158 20 160 20 205 1 31 -13 82 -22 158 -26 l112 -6 4 32 3 33 8 -32 8
-33 77 1 c42 1 79 5 82 11 4 7 14 6 29 -2 28 -15 129 -8 176 12 73 31 145 113
191 219 11 25 34 61 52 81 17 20 31 39 31 44 0 4 18 34 40 66 44 62 90 165
120 268 10 36 26 85 35 110 31 82 18 476 -21 690 -19 103 -50 216 -105 375
-23 66 -51 147 -62 180 -23 66 -168 358 -191 384 -30 33 -136 261 -157 337
-20 73 -63 164 -158 334 -164 295 -181 332 -177 392 1 29 4 55 7 57 5 5 91
-14 182 -41 64 -19 70 -19 85 -4 26 26 4 48 -74 75 -55 19 -91 24 -181 26 -62
0 -115 4 -119 7 -3 4 -3 16 1 28 7 21 12 22 61 16 61 -7 57 -11 72 94 l7 55
84 8 c108 11 133 20 129 50 -3 21 -6 22 -98 19 -98 -4 -120 -11 -120 -43 0
-12 -10 -21 -27 -25 -16 -3 -45 -10 -67 -16 -30 -7 -42 -6 -53 5 -19 19 -1 33
79 61 56 19 63 24 71 56 12 47 3 236 -16 330 -9 41 -27 136 -41 210 -39 205
-131 512 -176 585 -10 16 -58 109 -108 205 -99 193 -150 287 -204 370 -19 30
-51 87 -71 127 -64 130 -153 243 -191 243 -12 0 -36 -12 -54 -27z m268 -1510
c81 -39 150 -116 184 -205 16 -40 35 -89 44 -108 20 -46 18 -172 -5 -253 -14
-50 -27 -71 -77 -122 -38 -38 -83 -72 -121 -90 -54 -25 -66 -27 -150 -23 -65
4 -101 11 -132 27 -81 41 -150 138 -176 247 -22 92 -23 262 -1 323 28 80 77
158 111 177 18 9 33 20 33 24 0 4 19 11 43 14 23 4 60 11 82 16 55 11 100 4
165 -27z m-1042 -39 c81 -24 121 -46 168 -96 90 -94 154 -266 154 -410 0 -55
-5 -76 -29 -119 -57 -104 -141 -161 -257 -174 -79 -9 -152 12 -235 68 -122 82
-182 233 -159 397 31 208 98 310 225 341 48 11 73 10 133 -7z"/>
<path d="M3677 8056 c-58 -21 -102 -61 -138 -122 -28 -50 -33 -68 -37 -150
-12 -230 111 -400 286 -395 105 3 182 53 232 152 21 41 28 158 11 201 -5 13
-14 41 -21 63 -13 44 -71 147 -104 184 -26 29 -132 81 -166 81 -14 -1 -42 -7
-63 -14z"/>
<path d="M2710 8012 c-92 -36 -146 -160 -138 -318 6 -137 88 -265 201 -315 79
-35 186 -33 247 5 55 34 75 57 102 115 32 70 16 178 -49 321 -36 79 -77 127
-143 170 -64 41 -151 50 -220 22z"/>
<path d="M5370 4506 c0 -2 -13 -52 -29 -112 -32 -120 -74 -221 -121 -289 -37
-54 -38 -65 -2 -65 69 0 274 -51 342 -85 83 -42 105 -115 48 -158 -93 -69
-389 -181 -558 -211 -273 -49 -605 -81 -925 -91 -273 -8 -403 -24 -519 -64
-182 -64 -270 -180 -225 -298 11 -31 53 -79 82 -95 39 -20 136 -28 224 -18 77
9 135 23 348 85 107 31 283 45 575 45 336 -1 589 13 755 40 66 10 167 26 225
35 142 22 357 70 455 102 271 89 433 251 449 449 11 131 -29 223 -155 356
-114 120 -315 225 -559 292 -74 21 -146 41 -160 46 -66 23 -250 49 -250 36z"/>
</g>
</svg>
