<?xml version="1.0" standalone="no"?>
<!DOCTYPE svg PUBLIC "-//W3C//DTD SVG 20010904//EN"
 "http://www.w3.org/TR/2001/REC-SVG-20010904/DTD/svg10.dtd">
<svg version="1.0" xmlns="http://www.w3.org/2000/svg"
 width="704.000000pt" height="1280.000000pt" viewBox="0 0 704.000000 1280.000000"
 preserveAspectRatio="xMidYMid meet">
<metadata>
Created by potrace 1.16, written by Peter Selinger 2001-2019
</metadata>
<g transform="translate(0.000000,1280.000000) scale(0.100000,-0.100000)"
fill="#000000" stroke="none">
<path d="M3039 9506 c-45 -31 -81 -78 -115 -152 -15 -33 -35 -71 -45 -85 -34
-48 -129 -247 -129 -267 0 -12 -11 -31 -24 -44 -31 -29 -54 -75 -111 -223 -26
-66 -50 -124 -55 -130 -4 -5 -15 -39 -24 -74 -8 -36 -20 -69 -26 -75 -5 -5
-10 -20 -10 -32 0 -12 -13 -54 -29 -93 -20 -50 -25 -73 -17 -79 23 -17 138
-64 171 -69 33 -5 64 -28 53 -39 -3 -2 -48 7 -99 22 -140 39 -146 39 -158 16
-6 -11 -12 -38 -14 -59 -2 -21 -8 -47 -14 -58 -28 -55 -26 -262 3 -251 8 3 14
1 14 -4 0 -6 -9 -10 -20 -10 -20 0 -32 -20 -46 -74 -4 -19 0 -25 23 -34 61
-23 237 -72 259 -72 28 0 30 17 13 84 l-11 43 54 54 c68 70 123 113 173 134
22 10 48 21 57 26 34 17 180 9 281 -15 104 -25 113 -30 166 -86 55 -58 62 -74
68 -162 7 -101 -10 -150 -59 -167 -16 -6 -32 -19 -34 -28 -7 -27 -63 -60 -112
-68 -33 -5 -50 -2 -75 13 -32 18 -107 35 -212 47 -46 5 -72 10 -164 31 l-34 7
6 -38 c3 -21 15 -48 27 -60 24 -25 25 -35 6 -35 -25 0 -76 51 -100 99 -34 65
-52 78 -131 92 -38 6 -89 20 -111 30 -23 9 -54 19 -70 21 -25 3 -29 0 -29 -22
0 -23 4 -25 60 -31 80 -7 107 -23 103 -57 -3 -23 -7 -27 -33 -26 -16 1 -49 7
-73 14 -33 10 -46 10 -55 1 -22 -22 19 -43 119 -62 55 -11 119 -28 144 -39 25
-10 83 -23 130 -29 47 -6 139 -22 205 -36 66 -14 176 -35 245 -47 103 -18 119
-23 95 -30 -31 -8 -263 6 -374 23 -101 16 -202 38 -261 58 -30 11 -79 22 -109
26 -30 3 -85 17 -123 30 -76 26 -88 21 -80 -35 l4 -29 86 -3 c58 -2 87 -7 90
-16 3 -11 -17 -23 -145 -77 -43 -18 -56 -35 -28 -35 8 0 55 -9 103 -20 48 -10
159 -33 247 -49 539 -102 589 -114 430 -107 -148 7 -273 23 -400 51 -66 14
-140 30 -165 35 -25 5 -52 11 -60 13 -8 3 -53 17 -100 32 l-85 28 -48 -22
c-26 -12 -58 -26 -72 -31 -29 -11 -32 -28 -8 -46 10 -7 15 -16 11 -19 -14 -14
-59 -7 -72 10 -17 24 -70 16 -151 -23 -33 -16 -96 -46 -140 -67 -101 -46 -163
-85 -170 -106 -6 -17 -46 -39 -73 -39 -9 0 -53 -34 -97 -76 -44 -42 -95 -88
-112 -102 -24 -18 -33 -32 -33 -54 0 -16 -6 -31 -15 -35 -32 -12 -45 -61 -52
-186 -4 -89 -3 -126 6 -131 6 -4 11 -15 11 -24 0 -10 15 -32 34 -50 26 -24 37
-44 42 -79 8 -52 0 -63 -88 -115 -37 -21 -52 -39 -76 -90 -47 -98 -62 -155
-62 -235 0 -65 3 -78 34 -125 18 -29 34 -56 35 -60 0 -5 10 -17 20 -27 25 -25
18 -54 -23 -86 -54 -44 -66 -58 -66 -81 0 -30 28 -93 56 -127 28 -33 30 -50 9
-71 -8 -8 -15 -19 -15 -25 0 -5 -8 -16 -18 -23 -29 -20 -64 -107 -56 -141 10
-48 53 -137 68 -143 16 -6 36 -85 36 -144 0 -60 13 -82 100 -169 45 -45 88
-97 95 -116 8 -19 31 -43 52 -56 21 -13 40 -25 43 -28 21 -23 96 -74 123 -83
41 -14 72 -35 72 -50 0 -6 6 -13 14 -16 9 -3 11 0 7 9 -4 8 1 4 12 -9 11 -12
22 -26 24 -31 9 -23 162 -85 301 -121 163 -42 290 -64 429 -75 49 -4 90 -10
92 -14 3 -4 44 -8 93 -10 48 -1 104 -6 123 -11 19 -5 77 -12 129 -15 51 -4
105 -11 120 -15 64 -19 -23 -23 -228 -10 -265 16 -263 15 -347 28 -38 6 -87
10 -110 11 -22 0 -86 11 -142 25 -133 34 -142 34 -142 -4 0 -38 21 -90 46
-112 34 -29 98 -58 158 -70 56 -11 59 -10 76 12 13 18 18 19 23 8 3 -10 27
-18 67 -22 50 -6 66 -4 80 9 12 11 20 13 25 6 8 -14 138 -14 152 0 8 8 17 8
31 0 23 -12 86 -3 166 24 34 12 63 15 90 10 70 -11 315 -35 456 -44 152 -10
458 0 598 20 81 11 97 10 120 -3 51 -28 110 -42 125 -29 11 8 22 9 41 1 15 -5
52 -10 82 -10 45 0 54 3 54 18 1 15 2 15 15 -3 22 -28 128 -32 155 -5 17 17
19 18 34 1 13 -14 28 -17 74 -14 83 6 138 29 165 68 43 63 137 120 317 190 47
19 104 43 127 54 23 12 49 21 58 21 9 0 18 6 21 14 3 7 29 26 57 42 29 15 74
43 100 62 26 19 50 32 53 29 3 -3 -7 -14 -23 -24 -32 -20 -47 -32 -72 -53 -9
-8 -34 -28 -56 -44 l-39 -30 45 -15 c90 -32 139 -74 139 -119 0 -17 -106 -122
-124 -122 -3 0 -29 -11 -58 -24 -59 -26 -308 -108 -378 -124 -40 -9 -252 -43
-455 -73 -38 -6 -198 -13 -355 -15 -157 -3 -303 -9 -325 -14 -22 -5 -73 -12
-113 -15 -212 -18 -363 -82 -433 -183 -47 -69 -12 -197 66 -243 67 -39 343
-17 534 42 149 45 194 50 596 59 462 10 585 21 980 81 477 72 697 162 833 342
52 69 73 126 79 218 7 90 -4 128 -58 220 -56 94 -248 259 -331 284 -13 4 -55
25 -94 46 -68 37 -124 50 -124 29 0 -5 -7 -10 -15 -10 -18 0 -18 -1 0 44 9 20
27 47 41 59 15 12 44 49 67 81 36 53 41 68 47 140 5 54 15 93 29 116 48 82 54
99 49 157 -4 48 -10 60 -36 82 -40 33 -52 67 -52 142 0 46 -3 59 -15 59 -8 0
-15 5 -15 10 0 6 6 10 13 9 32 -4 38 2 35 34 -3 30 -6 32 -39 32 l-37 0 -5 75
c-4 74 6 120 27 120 6 0 26 23 45 50 29 43 35 61 39 123 5 88 -15 175 -54 235
-28 43 -98 101 -201 167 -35 22 -63 47 -63 55 0 8 21 35 46 59 30 29 41 46 34
51 -9 5 -9 9 -1 14 7 5 8 13 1 25 -7 14 -3 23 21 40 25 19 30 28 27 59 -3 33
-6 37 -33 40 -50 4 -105 24 -105 38 0 8 22 23 49 35 63 27 82 47 70 77 -4 12
-15 22 -22 22 -8 0 -21 17 -29 38 -19 49 -201 215 -265 243 -25 11 -68 37 -96
59 -28 22 -61 43 -74 46 -13 4 -61 25 -106 49 -53 27 -102 45 -133 48 -27 2
-69 12 -94 20 -25 9 -65 21 -90 27 -25 7 -60 19 -79 28 -19 9 -43 16 -53 14
-18 -3 -25 19 -18 63 2 11 4 121 4 245 0 335 -23 550 -95 900 -28 137 -34 163
-48 189 -7 13 -22 60 -32 105 -11 44 -25 97 -33 116 -18 45 -28 73 -31 85 -26
108 -167 411 -186 399 -5 -3 -9 -2 -10 3 0 4 -2 18 -3 30 -4 31 -65 128 -108
170 -39 38 -76 46 -116 24 -30 -16 -91 -105 -98 -142 -4 -19 -15 -50 -24 -69
-10 -19 -26 -60 -36 -90 -9 -30 -23 -72 -30 -92 -8 -21 -23 -66 -35 -100 -11
-35 -29 -76 -39 -93 -9 -16 -23 -55 -30 -85 -6 -30 -25 -97 -41 -148 -16 -51
-29 -103 -29 -116 0 -13 -6 -28 -12 -33 -7 -5 -86 -10 -175 -11 l-163 -1 0 37
c0 21 -11 76 -25 123 -13 46 -25 91 -25 99 0 8 -9 33 -20 55 -11 22 -20 56
-20 75 0 19 -9 69 -20 110 -11 41 -26 102 -34 135 -7 33 -22 83 -34 110 -11
28 -23 75 -26 107 -3 31 -9 63 -12 72 -6 15 -102 76 -120 76 -5 0 -25 -11 -45
-24z m1334 -1562 c118 -40 186 -98 229 -192 23 -53 28 -77 28 -143 0 -91 -16
-138 -62 -186 -28 -29 -68 -44 -68 -26 0 3 12 36 26 72 37 91 30 173 -21 246
-43 64 -67 86 -126 119 -83 45 -243 59 -314 27 -76 -34 -131 -123 -121 -195
16 -120 16 -121 125 -204 38 -29 42 -57 8 -48 -51 12 -96 37 -101 54 -4 11
-18 24 -31 30 -14 6 -25 18 -25 25 0 7 -11 28 -24 46 -32 43 -43 129 -22 169
8 16 13 38 10 49 -8 28 29 97 65 122 102 73 273 86 424 35z m-1798 -958 c150
-29 241 -49 260 -57 30 -13 106 -28 141 -29 16 0 39 -7 50 -16 17 -14 12 -15
-71 -10 -79 4 -262 37 -284 50 -4 3 -43 12 -87 21 -92 19 -144 36 -144 47 0
12 55 9 135 -6z m-350 -117 c55 -11 134 -27 175 -35 41 -7 147 -32 235 -54 88
-22 203 -48 255 -59 52 -11 107 -24 121 -29 14 -6 52 -13 85 -17 32 -4 66 -11
74 -16 25 -14 -63 -10 -248 11 -162 19 -215 28 -367 67 -33 8 -76 19 -95 23
-120 29 -262 73 -332 102 -49 21 -66 42 -25 33 12 -2 67 -14 122 -26z m-434
-370 c208 -75 534 -172 683 -205 196 -42 248 -54 257 -60 6 -3 92 -16 192 -29
169 -22 237 -36 237 -50 0 -3 -17 -4 -37 -1 -21 2 -101 9 -178 16 -119 9 -304
39 -510 82 -27 5 -104 27 -170 48 -66 21 -158 48 -205 61 -47 12 -122 37 -166
55 -89 35 -244 111 -244 119 0 11 33 3 141 -36z m494 -18 c28 -5 75 -17 105
-25 30 -9 89 -23 130 -32 41 -8 84 -19 95 -23 37 -16 180 -50 250 -61 39 -5
120 -19 180 -30 61 -11 144 -25 185 -31 168 -25 63 -40 -135 -18 -285 30 -392
48 -499 84 -39 13 -118 37 -176 55 -145 43 -240 80 -240 92 0 6 12 8 28 5 15
-3 50 -10 77 -16z m-27 -281 c77 -22 153 -40 169 -40 16 0 37 -6 48 -13 27
-18 212 -59 400 -88 118 -18 130 -21 145 -30 19 -11 -153 -1 -195 11 -16 5
-66 12 -110 15 -89 7 -184 28 -229 50 -16 9 -57 20 -90 25 -34 5 -110 24 -171
41 -145 40 -145 40 -175 56 -55 29 66 13 208 -27z m-318 -62 c19 -5 51 -13 70
-17 84 -20 290 -74 350 -92 161 -48 493 -115 648 -130 59 -5 126 -14 150 -19
23 -6 57 -10 75 -11 17 -1 43 -5 57 -10 15 -5 -57 -7 -185 -5 -236 5 -319 17
-615 92 -237 60 -296 77 -430 124 -63 23 -129 45 -146 51 -18 5 -38 17 -45 26
-12 14 -11 15 11 8 14 -4 41 -12 60 -17z m54 -632 c6 -1 27 -10 46 -19 35 -16
271 -81 365 -99 28 -6 88 -18 135 -28 157 -35 489 -88 658 -106 42 -4 60 -10
53 -17 -20 -20 -440 20 -621 60 -36 8 -107 23 -159 34 -153 32 -285 72 -376
114 -27 13 -72 31 -98 41 -48 17 -81 43 -37 29 12 -4 28 -8 34 -9z m3859 -213
c27 -6 25 -8 -35 -35 -34 -17 -94 -41 -133 -55 -38 -14 -74 -29 -80 -33 -14
-10 -146 -55 -220 -74 -147 -37 -232 -56 -255 -56 -14 0 -83 -14 -154 -30 -88
-20 -156 -30 -212 -30 -44 0 -106 -5 -135 -10 -57 -12 -203 -3 -178 10 8 4 68
15 134 25 151 22 574 99 680 124 129 30 394 119 456 151 35 19 72 29 89 23 8
-2 28 -7 43 -10z m107 -73 c-6 -11 -16 -20 -22 -20 -6 0 -25 -11 -43 -24 -51
-39 -251 -136 -279 -136 -7 0 -62 -16 -122 -35 -60 -20 -167 -47 -239 -60
-360 -68 -407 -74 -625 -81 -278 -8 -266 13 30 51 308 40 597 98 785 159 99
33 141 45 210 61 85 21 144 40 210 70 44 20 73 30 98 34 4 0 3 -8 -3 -19z
m-4238 -74 c24 -7 81 -24 128 -36 47 -13 119 -33 160 -46 91 -27 223 -59 310
-74 36 -6 88 -15 115 -20 28 -5 86 -16 130 -24 44 -8 121 -20 170 -26 50 -6
118 -17 153 -25 35 -8 84 -15 110 -15 26 0 101 -9 167 -20 66 -11 159 -20 207
-20 83 0 120 -12 79 -25 -37 -12 -503 4 -561 19 -30 8 -84 17 -120 20 -36 4
-85 11 -110 16 -25 5 -85 17 -135 25 -314 56 -416 78 -440 96 -6 4 -86 33
-179 63 -93 31 -187 67 -210 81 -46 28 -37 32 26 11z m843 -76 c116 -18 257
-41 315 -53 58 -11 132 -23 165 -25 l60 -4 -36 -12 c-28 -10 -60 -10 -150 0
-123 13 -227 28 -299 43 -25 5 -117 24 -205 41 -88 18 -162 34 -164 36 -1 1 0
7 3 12 3 5 25 6 53 1 27 -4 143 -22 258 -39z m3292 -60 c3 -18 -71 -78 -118
-95 -19 -7 -58 -23 -87 -34 -113 -45 -311 -89 -552 -121 -41 -6 -100 -17 -130
-25 -125 -33 -464 -60 -590 -46 l-65 7 45 7 c117 21 315 49 410 58 58 5 148
19 200 30 52 10 124 23 160 28 114 16 263 51 280 66 10 9 44 20 76 26 32 6 67
15 76 20 10 5 23 9 31 9 7 0 30 12 52 28 75 51 207 77 212 42z m-3849 -108
c47 -26 768 -165 818 -158 10 2 45 -3 78 -10 34 -8 99 -16 146 -19 47 -3 123
-10 170 -15 47 -6 110 -10 140 -10 30 0 61 -4 68 -9 19 -12 -60 -21 -177 -21
-94 0 -420 25 -451 35 -8 3 -69 11 -135 19 -256 32 -527 89 -619 132 -28 13
-72 27 -97 30 -35 5 -49 12 -57 28 -9 21 -8 22 42 16 28 -3 61 -12 74 -18z
m3660 -115 c-2 -14 -11 -23 -25 -25 -13 -2 -23 -7 -23 -12 0 -5 -22 -12 -50
-16 -27 -4 -50 -10 -50 -14 0 -4 -15 -10 -32 -13 -62 -11 -143 -29 -177 -39
-19 -6 -75 -16 -125 -24 -50 -7 -113 -18 -141 -24 -121 -27 -242 -41 -402 -47
-94 -3 -179 -3 -190 1 -16 7 -16 9 7 20 32 17 133 35 230 41 41 2 116 14 165
25 50 12 124 28 165 36 41 9 113 24 160 34 47 11 117 24 157 30 39 5 84 15
100 22 37 15 104 25 176 26 54 0 58 -1 55 -21z m-3465 -190 c18 -8 37 -12 43
-10 6 2 64 -8 130 -22 65 -14 132 -25 147 -25 16 0 63 -9 105 -19 70 -18 231
-41 479 -70 148 -18 155 -29 18 -30 -163 -1 -420 31 -680 86 -66 14 -156 32
-199 40 -74 13 -112 35 -100 55 7 11 20 10 57 -5z m3182 4 c5 -8 -10 -24 -25
-27 -3 0 -12 -3 -20 -7 -55 -21 -385 -72 -605 -92 -88 -8 -201 -20 -252 -25
-96 -10 -230 -14 -221 -5 6 6 255 41 423 60 66 7 174 23 240 34 66 12 185 28
264 37 80 8 152 19 160 24 21 12 28 12 36 1z m-2935 -340 c225 -31 357 -45
595 -66 88 -7 171 -18 185 -24 40 -16 -182 -13 -350 4 -146 16 -183 21 -340
50 -47 8 -98 15 -115 16 -16 0 -48 6 -70 14 l-40 13 35 1 c19 0 64 -4 100 -8z
m-411 -150 c52 -12 102 -26 113 -32 10 -6 26 -9 36 -8 9 1 24 0 32 -3 40 -15
167 -39 251 -48 52 -5 126 -14 164 -20 39 -5 153 -18 255 -30 102 -11 190 -20
195 -21 6 -1 -3 -5 -20 -9 -43 -11 -237 -11 -325 0 -41 6 -133 14 -205 19 -71
5 -146 12 -165 16 -117 20 -156 29 -165 35 -5 4 -48 17 -95 29 -75 19 -239 70
-249 77 -1 2 0 7 3 12 8 14 66 8 175 -17z"/>
<path d="M3007 7890 c-43 -4 -98 -15 -122 -24 -49 -19 -115 -86 -115 -117 0
-11 -4 -17 -10 -14 -5 3 -10 -3 -10 -13 0 -11 -7 -25 -15 -32 -21 -17 -19 -83
3 -102 9 -9 37 -19 62 -23 25 -4 83 -16 130 -27 47 -11 110 -24 140 -29 30 -6
69 -12 86 -15 20 -4 41 0 55 9 13 8 36 17 51 21 45 10 77 71 77 147 0 86 -14
114 -78 156 -51 34 -145 75 -166 72 -5 -1 -45 -5 -88 -9z"/>
</g>
</svg>
