<?xml version="1.0" standalone="no"?>
<!DOCTYPE svg PUBLIC "-//W3C//DTD SVG 20010904//EN"
 "http://www.w3.org/TR/2001/REC-SVG-20010904/DTD/svg10.dtd">
<svg version="1.0" xmlns="http://www.w3.org/2000/svg"
 width="704.000000pt" height="1280.000000pt" viewBox="0 0 704.000000 1280.000000"
 preserveAspectRatio="xMidYMid meet">
<metadata>
Created by potrace 1.16, written by Peter Selinger 2001-2019
</metadata>
<g transform="translate(0.000000,1280.000000) scale(0.100000,-0.100000)"
fill="#000000" stroke="none">
<path d="M3028 9497 c-32 -25 -56 -58 -95 -132 -28 -55 -56 -105 -61 -111 -23
-25 -122 -231 -122 -252 0 -10 -15 -34 -33 -54 -21 -23 -49 -77 -76 -149 -24
-63 -54 -136 -67 -164 -13 -27 -30 -77 -38 -109 -9 -33 -20 -64 -26 -70 -5 -5
-10 -20 -10 -32 0 -22 -29 -100 -51 -138 -8 -14 -7 -22 3 -32 17 -17 160 -74
186 -74 20 0 49 -26 40 -36 -3 -2 -50 7 -104 22 -136 37 -139 37 -151 22 -19
-24 -51 -210 -52 -310 -1 -61 0 -66 19 -61 11 3 20 0 20 -6 0 -6 -13 -11 -30
-11 -25 0 -30 -5 -39 -37 -15 -54 -14 -59 17 -71 55 -21 248 -72 270 -72 25 0
28 18 11 84 l-11 43 54 54 c68 70 123 113 173 134 22 10 48 21 57 26 34 17
180 9 281 -15 104 -25 113 -30 166 -86 55 -58 62 -74 68 -162 7 -101 -10 -150
-59 -167 -16 -6 -32 -19 -34 -28 -7 -27 -63 -60 -112 -68 -33 -5 -50 -2 -75
13 -32 18 -107 35 -212 47 -46 5 -72 10 -164 31 l-34 7 6 -38 c3 -21 15 -48
27 -60 24 -25 25 -35 6 -35 -25 0 -76 51 -100 99 -34 65 -52 78 -131 92 -38 6
-99 22 -134 36 -70 26 -91 24 -91 -6 0 -23 19 -31 71 -31 62 0 109 -24 109
-55 0 -36 -22 -41 -91 -20 -46 14 -62 16 -71 7 -23 -23 17 -44 118 -63 55 -11
119 -28 144 -39 25 -10 82 -23 125 -28 44 -6 139 -22 210 -37 72 -15 186 -36
254 -48 98 -16 119 -22 100 -29 -24 -9 -97 -6 -298 13 -119 11 -271 41 -351
68 -30 11 -81 22 -113 26 -32 4 -88 17 -125 30 -37 13 -70 21 -74 19 -5 -3 -8
-23 -8 -44 l0 -39 93 -3 c123 -4 123 -20 2 -70 -49 -20 -91 -40 -92 -45 -3 -9
116 -36 362 -82 88 -17 232 -44 320 -61 220 -41 245 -51 120 -45 -158 7 -280
22 -410 50 -66 14 -144 30 -173 36 -29 6 -92 23 -139 39 -93 30 -99 30 -190
-11 -52 -22 -67 -44 -38 -55 21 -9 19 -22 -6 -29 -14 -5 -31 0 -51 15 -30 22
-76 21 -105 -2 -7 -6 -13 -7 -13 -4 0 4 -21 -4 -47 -17 -27 -14 -84 -42 -128
-62 -100 -46 -163 -85 -170 -106 -6 -17 -46 -39 -73 -39 -9 0 -60 -41 -112
-90 -52 -50 -103 -93 -112 -96 -10 -3 -18 -8 -19 -12 0 -4 -2 -18 -3 -32 -1
-14 -13 -37 -27 -52 -21 -22 -27 -42 -32 -95 -16 -166 -8 -212 50 -274 28 -30
34 -43 36 -89 l2 -54 -64 -42 c-53 -35 -69 -53 -96 -106 -47 -93 -65 -157 -65
-237 0 -63 4 -76 34 -123 18 -29 34 -56 35 -60 0 -5 10 -17 21 -28 11 -11 20
-26 20 -33 0 -21 -29 -56 -59 -72 -16 -8 -34 -28 -41 -45 -11 -26 -10 -37 5
-78 10 -26 29 -57 42 -69 27 -25 29 -45 8 -67 -8 -8 -15 -19 -15 -25 0 -5 -8
-16 -18 -23 -29 -20 -64 -107 -56 -141 10 -48 53 -137 68 -143 16 -6 36 -85
36 -144 0 -60 13 -84 100 -171 45 -46 87 -96 94 -113 8 -18 38 -48 70 -71 32
-22 69 -50 84 -63 15 -12 43 -27 62 -33 44 -15 75 -36 75 -51 0 -6 6 -13 14
-16 9 -3 11 0 7 9 -4 8 1 4 12 -9 11 -12 22 -26 24 -30 2 -4 37 -25 78 -46 91
-47 368 -119 520 -136 58 -7 132 -16 165 -22 33 -5 103 -13 155 -18 52 -4 131
-13 175 -19 44 -6 110 -13 148 -17 37 -3 65 -10 62 -15 -8 -12 -136 -11 -290
1 -245 19 -269 21 -277 26 -4 3 -48 7 -97 9 -49 3 -130 16 -182 30 -126 34
-139 33 -139 -5 0 -38 21 -90 46 -112 34 -29 98 -58 158 -70 56 -11 59 -10 76
12 13 18 18 19 23 8 3 -10 27 -18 67 -22 50 -6 66 -4 80 9 12 11 20 13 25 6 8
-14 138 -14 152 0 8 8 17 8 33 -1 23 -13 52 -8 148 22 43 14 76 18 100 14 60
-11 316 -36 462 -45 152 -10 458 0 599 20 75 10 97 10 113 0 38 -24 118 -43
132 -32 8 7 32 7 72 1 86 -14 104 -13 104 8 1 15 2 15 15 -3 22 -28 128 -32
155 -5 17 17 19 18 34 1 13 -14 28 -17 74 -14 83 6 138 29 165 68 43 63 137
120 317 190 47 19 104 43 127 54 23 12 47 21 53 21 6 0 21 10 33 23 12 12 41
31 65 41 23 11 42 22 42 27 0 9 91 61 97 55 3 -2 -8 -13 -24 -23 -34 -22 -33
-21 -107 -80 l-59 -47 44 -14 c57 -19 126 -66 134 -92 3 -11 4 -29 0 -39 -5
-18 -106 -111 -119 -111 -3 0 -29 -11 -58 -24 -59 -26 -308 -108 -378 -124
-40 -9 -252 -43 -455 -73 -38 -6 -198 -13 -355 -15 -157 -3 -303 -9 -325 -14
-22 -5 -74 -12 -115 -15 -234 -18 -419 -111 -450 -225 -18 -69 28 -172 91
-204 72 -36 342 -13 528 45 149 45 194 50 601 59 356 8 595 24 765 50 33 5
125 18 205 30 124 19 270 47 410 80 130 31 276 110 367 197 78 76 109 124 129
202 39 154 -3 280 -136 410 -69 67 -209 171 -231 171 -5 0 -49 20 -97 45 -48
25 -93 45 -100 45 -7 0 -24 -8 -39 -17 -25 -17 -26 -17 -15 2 10 20 12 27 12
43 0 5 12 21 28 38 88 93 122 159 122 235 0 63 14 104 58 169 21 30 23 44 20
103 -3 64 -6 70 -40 100 -40 36 -58 79 -58 143 0 48 -14 57 -41 27 -9 -10 -27
-26 -40 -35 -13 -9 -40 -28 -59 -42 -31 -23 -86 -52 -175 -92 -16 -7 -52 -18
-80 -24 -27 -6 -95 -24 -150 -40 -55 -16 -154 -38 -220 -50 -66 -12 -169 -31
-230 -43 -60 -11 -144 -22 -185 -24 -41 -1 -129 -7 -195 -13 -71 -6 -138 -7
-165 -2 l-45 9 40 11 c22 6 110 20 195 32 264 36 635 111 770 155 25 8 86 24
135 35 99 23 233 70 306 106 26 13 52 24 58 24 6 0 26 9 46 20 19 11 35 15 35
9 0 -17 21 2 31 29 13 33 -2 47 -45 44 l-33 -3 -1 83 c-1 82 -1 84 33 116 18
19 42 51 53 72 37 75 21 255 -28 317 -11 14 -20 31 -20 37 0 14 -123 105 -190
142 -61 33 -63 52 -10 100 38 35 39 37 34 86 -5 42 -3 50 9 45 20 -8 39 32 35
74 -3 32 -5 34 -38 34 -34 0 -100 24 -100 36 0 11 24 26 63 40 46 16 67 45 56
77 -5 12 -15 22 -23 22 -8 0 -20 16 -26 35 -15 47 -187 206 -260 242 -30 15
-76 43 -101 63 -25 20 -68 44 -95 55 -27 10 -65 28 -84 40 -55 33 -101 49
-136 47 -18 -2 -50 7 -71 18 -21 11 -52 20 -70 20 -17 0 -35 5 -38 10 -3 6
-18 10 -32 10 -33 0 -120 55 -128 81 -4 10 -3 29 1 42 11 33 12 344 3 487 -16
236 -33 352 -90 630 -28 137 -34 163 -48 189 -7 13 -22 60 -32 105 -11 44 -25
97 -33 116 -18 45 -28 73 -31 85 -26 108 -167 411 -186 399 -8 -5 -13 10 -10
29 3 15 -60 122 -94 161 -48 54 -103 64 -147 28 -39 -33 -74 -89 -88 -143 -7
-24 -18 -55 -26 -69 -8 -14 -37 -95 -65 -180 -28 -85 -59 -171 -69 -190 -10
-19 -26 -69 -36 -110 -9 -41 -23 -88 -30 -105 -7 -16 -17 -57 -23 -90 -6 -32
-14 -62 -19 -66 -4 -4 -82 -9 -175 -11 l-167 -3 0 35 c0 19 -16 94 -36 165
-19 72 -40 157 -45 190 -5 33 -23 103 -39 157 -17 53 -30 103 -30 110 0 8 -11
42 -25 76 -14 34 -25 76 -25 94 0 73 -17 105 -74 137 -29 17 -58 31 -64 31 -6
0 -30 -15 -54 -33z m1345 -1553 c73 -24 144 -69 190 -121 9 -11 28 -48 42 -83
29 -75 34 -186 10 -243 -26 -64 -116 -137 -115 -94 0 6 9 32 20 56 11 24 23
60 26 80 7 44 -18 141 -45 179 -27 38 -90 95 -131 120 -38 22 -136 42 -213 42
-127 0 -233 -111 -213 -224 3 -20 9 -52 12 -71 6 -34 30 -59 113 -123 38 -29
42 -57 8 -48 -51 12 -96 37 -101 54 -4 11 -18 24 -31 30 -14 6 -25 18 -25 25
0 7 -11 28 -24 46 -32 43 -43 129 -22 169 8 16 13 38 10 49 -3 11 4 39 15 61
34 67 108 108 221 122 89 11 161 4 253 -26z m-1798 -958 c150 -29 241 -49 260
-57 30 -13 106 -28 141 -29 16 0 39 -7 50 -16 17 -14 12 -15 -71 -10 -79 4
-262 37 -284 50 -4 3 -43 12 -87 21 -92 19 -144 36 -144 47 0 12 55 9 135 -6z
m-375 -111 c41 -9 138 -29 216 -45 78 -16 194 -43 260 -60 65 -17 157 -37 204
-46 47 -8 105 -21 130 -29 25 -8 73 -17 108 -21 34 -4 62 -11 62 -17 0 -11
-95 -5 -302 19 -149 17 -234 33 -428 83 -76 19 -278 84 -322 103 -49 21 -65
42 -25 33 12 -3 56 -12 97 -20z m-373 -391 c185 -70 469 -154 633 -188 69 -14
163 -35 210 -45 47 -11 148 -29 225 -41 77 -11 169 -29 205 -40 l65 -20 -70 4
c-107 7 -307 32 -435 56 -63 11 -142 25 -175 30 -86 13 -155 33 -479 133 -90
28 -356 149 -356 162 0 12 37 2 177 -51z m438 -3 c22 -6 72 -18 110 -27 39 -9
106 -24 150 -34 44 -10 136 -32 205 -48 69 -17 166 -37 215 -46 50 -8 142 -24
205 -35 63 -12 130 -23 148 -26 18 -4 30 -10 27 -16 -9 -13 -60 -11 -210 6
-304 36 -416 55 -500 83 -33 11 -103 32 -155 46 -173 46 -199 54 -249 77 -28
12 -48 26 -44 32 6 9 29 6 98 -12z m-7 -285 c68 -20 140 -36 161 -36 20 0 42
-5 48 -11 13 -13 99 -34 238 -59 28 -5 91 -16 140 -25 50 -10 103 -19 118 -21
16 -2 36 -8 45 -14 20 -12 -112 -4 -168 10 -19 5 -64 12 -100 15 -108 11 -220
33 -253 50 -18 9 -64 20 -102 26 -91 12 -267 60 -325 88 l-45 21 60 -4 c33 -3
115 -21 183 -40z m-351 -50 c46 -16 260 -73 348 -92 33 -7 130 -31 215 -53 85
-23 167 -41 182 -41 14 0 64 -9 110 -19 85 -20 96 -22 258 -41 99 -11 165 -22
240 -39 34 -8 -7 -9 -160 -6 -125 2 -230 10 -270 18 -36 8 -108 22 -160 32
-292 52 -777 200 -805 245 -8 13 -5 13 42 -4z m120 -657 c17 -11 40 -22 50
-23 54 -11 204 -48 243 -61 25 -8 72 -19 105 -24 33 -5 119 -21 190 -36 131
-27 295 -53 505 -81 63 -9 119 -20 125 -25 15 -15 -141 -11 -228 6 -43 8 -102
15 -130 15 -49 0 -167 17 -267 38 -25 6 -83 18 -130 27 -148 30 -329 84 -403
119 -40 19 -89 39 -109 45 -20 7 -42 18 -48 26 -10 12 -5 12 27 3 21 -5 52
-19 70 -29z m3830 -194 c27 -2 44 -15 20 -15 -9 0 -36 -11 -60 -24 -24 -14
-75 -37 -113 -51 -226 -87 -207 -81 -461 -144 -43 -11 -103 -22 -133 -26 -30
-3 -100 -17 -155 -30 -55 -13 -149 -26 -210 -30 -211 -13 -305 -15 -305 -6 0
9 134 36 230 46 30 3 98 14 150 25 52 10 169 33 260 50 265 51 506 121 651
190 41 19 71 27 84 23 11 -4 30 -7 42 -8z m-4135 -149 c24 -7 75 -23 113 -34
39 -11 131 -39 205 -62 132 -40 180 -50 520 -104 91 -15 206 -34 255 -42 50
-9 122 -20 160 -25 225 -29 319 -39 398 -45 57 -4 85 -9 81 -16 -9 -14 -499
-3 -564 12 -25 6 -90 17 -145 25 -55 8 -134 22 -175 30 -41 8 -127 23 -190 34
-162 27 -278 61 -560 163 -142 52 -222 104 -98 64z m738 -62 c52 -8 154 -24
225 -34 109 -17 212 -36 355 -67 l25 -6 -25 -7 c-48 -14 -330 26 -595 83 -60
14 -131 27 -157 31 -27 4 -48 12 -48 18 0 11 63 6 220 -18z m3430 -47 c0 -5
-4 -5 -10 -2 -6 3 -7 -1 -4 -10 7 -17 -31 -65 -52 -65 -6 0 -17 -6 -23 -14 -7
-8 -23 -17 -37 -20 -13 -4 -48 -17 -77 -30 -108 -49 -269 -88 -502 -121 -99
-15 -211 -35 -250 -45 -123 -32 -507 -60 -585 -42 -31 7 -25 10 60 21 52 7
120 17 150 22 30 4 116 15 190 24 74 8 158 21 185 29 28 8 86 19 130 25 133
20 307 60 352 82 23 11 65 23 93 26 28 3 53 10 56 14 3 5 12 9 20 9 13 0 92
34 166 71 10 5 28 9 41 9 12 0 30 9 40 20 10 12 22 18 27 15 6 -3 10 0 10 7 0
9 3 9 10 -2 5 -8 10 -19 10 -23z m-3869 -140 c20 -9 78 -26 130 -37 52 -12
114 -28 139 -35 25 -8 70 -17 100 -20 30 -4 98 -15 150 -25 52 -10 133 -23
180 -28 264 -34 251 -33 465 -52 219 -20 242 -23 215 -31 -73 -21 -398 -4
-685 36 -344 48 -560 93 -666 140 -31 14 -77 28 -102 31 -33 5 -48 12 -55 28
-9 21 -8 22 42 15 28 -3 67 -13 87 -22z m3647 -110 c-2 -12 -12 -23 -23 -26
-11 -2 -22 -6 -25 -10 -6 -9 -107 -41 -129 -41 -9 0 -34 -7 -56 -15 -22 -8
-57 -14 -77 -15 -20 0 -47 -4 -60 -10 -13 -5 -70 -16 -128 -24 -58 -8 -125
-20 -150 -26 -121 -30 -249 -46 -455 -55 -108 -4 -151 3 -130 24 17 17 145 40
236 42 46 2 91 6 100 10 14 7 69 20 299 69 47 10 117 25 155 34 39 9 86 16
106 16 20 0 64 9 99 21 35 11 71 18 80 16 10 -3 24 -1 31 4 7 4 40 8 72 8 54
-1 58 -2 55 -22z m-267 -186 c-36 -28 -71 -36 -341 -80 -308 -51 -784 -99
-796 -80 -2 4 40 12 94 19 53 6 135 18 182 26 47 8 109 14 138 14 29 0 101 11
160 24 130 29 265 52 392 66 52 6 111 15 130 20 58 13 67 11 41 -9z m-3194 -6
c19 -8 47 -15 61 -15 31 0 213 -32 372 -66 63 -13 176 -31 250 -39 193 -22
299 -36 329 -45 38 -12 -225 -12 -307 -1 -37 5 -110 15 -162 22 -52 6 -169 27
-260 46 -91 19 -201 41 -244 50 -74 13 -112 35 -100 55 7 11 20 10 61 -7z
m228 -335 c161 -22 458 -55 648 -70 180 -15 202 -29 47 -29 -115 -1 -324 17
-460 38 -30 5 -104 17 -165 26 -60 10 -130 23 -155 30 -39 11 -41 13 -15 14
17 0 62 -4 100 -9z m-434 -140 c46 -11 107 -27 134 -36 28 -9 55 -15 60 -13 6
1 17 0 25 -3 80 -28 136 -38 320 -58 58 -7 124 -16 147 -21 23 -5 98 -13 165
-19 68 -5 148 -13 178 -17 49 -6 52 -7 25 -14 -55 -13 -300 -9 -401 6 -54 8
-131 15 -170 15 -39 0 -84 4 -100 9 -16 5 -60 14 -99 21 -38 7 -74 16 -80 20
-5 4 -55 19 -110 34 -94 24 -209 61 -229 74 -9 5 18 20 40 21 5 1 48 -8 95
-19z"/>
<path d="M3007 7890 c-43 -4 -98 -15 -122 -24 -49 -19 -115 -86 -115 -117 0
-11 -4 -17 -10 -14 -5 3 -10 -3 -10 -13 0 -11 -7 -25 -15 -32 -21 -17 -19 -83
3 -102 9 -9 37 -19 62 -23 25 -4 83 -16 130 -27 47 -11 110 -24 140 -29 30 -6
69 -12 86 -15 20 -4 41 0 55 9 13 8 36 17 51 21 45 10 77 71 77 147 0 86 -14
114 -78 156 -51 34 -145 75 -166 72 -5 -1 -45 -5 -88 -9z"/>
</g>
</svg>
