<?xml version="1.0" standalone="no"?>
<!DOCTYPE svg PUBLIC "-//W3C//DTD SVG 20010904//EN"
 "http://www.w3.org/TR/2001/REC-SVG-20010904/DTD/svg10.dtd">
<svg version="1.0" xmlns="http://www.w3.org/2000/svg"
 width="704.000000pt" height="1280.000000pt" viewBox="0 0 704.000000 1280.000000"
 preserveAspectRatio="xMidYMid meet">
<metadata>
Created by potrace 1.16, written by Peter Selinger 2001-2019
</metadata>
<g transform="translate(0.000000,1280.000000) scale(0.100000,-0.100000)"
fill="#000000" stroke="none">
<path d="M3694 9659 c-36 -22 -50 -63 -59 -179 -4 -41 -11 -95 -16 -120 -6
-25 -23 -117 -39 -205 -16 -88 -34 -182 -40 -210 -5 -27 -15 -92 -21 -143 -14
-112 -28 -134 -84 -134 -22 0 -62 -6 -90 -13 -27 -8 -70 -15 -93 -17 l-44 -2
-77 149 c-43 83 -100 191 -128 242 -28 51 -63 123 -77 160 -39 104 -139 276
-168 292 -23 13 -29 13 -52 -2 -41 -27 -60 -65 -72 -146 -7 -42 -17 -103 -22
-136 -33 -188 -48 -593 -34 -870 l9 -180 -34 -52 c-18 -29 -67 -119 -108 -200
-75 -149 -121 -292 -139 -431 l-7 -53 41 -16 c22 -9 40 -19 40 -22 0 -3 -53
-6 -117 -6 -131 0 -205 -15 -248 -49 -37 -29 -29 -61 13 -53 97 19 194 36 234
41 52 8 49 12 63 -76 l6 -36 -73 -36 c-135 -65 -199 -108 -196 -131 5 -36 43
-28 161 34 63 34 120 61 128 61 8 0 28 -26 46 -58 17 -32 55 -81 84 -109 l51
-50 -60 -244 c-33 -134 -72 -296 -86 -359 -15 -63 -37 -139 -51 -168 -107
-231 -225 -549 -285 -767 -64 -234 -81 -349 -87 -578 -8 -271 8 -355 98 -543
52 -107 51 -101 18 -213 -42 -142 -12 -247 92 -316 49 -32 174 -48 190 -24 7
11 11 12 17 1 7 -10 44 -13 151 -13 160 1 201 5 284 28 55 16 65 15 200 -5
161 -25 567 -46 697 -37 93 6 225 20 362 36 79 10 92 9 143 -10 31 -12 70 -21
88 -22 18 0 118 -3 222 -7 190 -7 288 1 359 30 49 20 127 107 159 178 16 36
42 83 58 105 53 72 115 169 131 205 124 276 143 389 119 711 -17 228 -32 306
-118 589 -42 141 -135 372 -185 464 -21 38 -38 72 -38 77 0 4 -16 28 -35 53
-19 25 -41 61 -49 81 -8 19 -22 35 -30 35 -8 0 -16 11 -18 27 -4 39 -28 42
-28 4 0 -38 -18 -41 -22 -3 -2 16 -9 27 -18 27 -9 0 -16 -11 -18 -27 -5 -43
-22 -33 -22 13 l0 41 42 -3 c43 -4 59 10 40 34 -5 7 -22 52 -37 101 -25 83
-87 214 -231 486 -112 213 -124 239 -124 279 0 22 4 42 9 45 11 7 107 -14 206
-45 73 -22 95 -20 95 10 0 25 -60 54 -173 82 -77 19 -93 20 -127 9 -43 -14
-110 -6 -110 13 1 32 18 40 68 33 29 -4 53 -2 56 3 4 5 9 36 12 69 4 33 10 65
14 72 4 6 49 15 100 20 98 9 115 16 104 43 -5 13 -19 17 -63 17 -92 0 -132
-10 -141 -35 -7 -18 -22 -25 -74 -35 -71 -13 -96 -9 -96 14 0 21 26 33 102 46
l65 12 7 60 c10 95 7 157 -9 238 -8 41 -24 134 -35 205 -45 292 -111 521 -199
689 -32 61 -62 122 -66 136 -11 35 -69 151 -160 320 -43 80 -109 204 -146 275
-70 135 -129 216 -157 214 -9 0 -31 -9 -48 -20z m257 -1399 c34 -17 88 -70
104 -101 8 -14 17 -49 21 -78 4 -28 11 -54 15 -57 22 -13 6 -126 -44 -299 -20
-71 -73 -169 -118 -219 -53 -59 -144 -106 -207 -106 -58 0 -159 43 -203 86
-78 76 -111 227 -90 412 12 113 39 167 126 255 76 78 108 99 170 114 60 14
193 10 226 -7z m-959 -107 c54 -21 89 -59 136 -148 l37 -70 0 -130 c0 -153
-18 -217 -91 -325 -74 -110 -138 -150 -241 -150 -128 0 -186 33 -240 137 -42
81 -57 164 -49 271 12 149 49 259 100 300 14 11 26 24 26 30 0 15 72 61 131
82 67 24 136 25 191 3z"/>
<path d="M3720 8223 c-14 -3 -36 -13 -50 -22 -14 -9 -36 -22 -50 -28 -37 -15
-103 -107 -134 -186 -55 -141 -45 -291 25 -394 55 -79 160 -115 244 -83 31 12
115 96 115 116 0 8 3 14 8 14 10 0 39 55 53 100 35 109 25 293 -20 376 -42 77
-120 121 -191 107z"/>
<path d="M2753 8100 c-28 -14 -48 -32 -59 -55 -9 -21 -24 -35 -34 -35 -27 0
-35 -17 -60 -119 -24 -103 -27 -182 -9 -272 27 -139 138 -225 256 -199 66 15
85 30 134 102 60 88 83 171 76 278 -8 110 -28 175 -73 233 -68 87 -142 109
-231 67z"/>
<path d="M5351 4418 c-24 -99 -94 -259 -137 -315 -31 -41 -25 -63 16 -63 46 0
206 -38 279 -66 114 -44 163 -122 109 -171 -43 -38 -143 -84 -303 -139 -203
-71 -308 -92 -630 -128 -262 -30 -342 -36 -455 -36 -137 0 -438 -25 -530 -44
-246 -52 -389 -200 -321 -334 43 -83 89 -104 226 -105 107 0 173 12 370 68 66
19 152 39 190 44 39 5 248 12 466 15 371 6 672 24 764 45 22 5 90 17 150 26
215 33 346 62 515 117 180 58 272 120 356 239 71 101 83 134 83 229 1 124 -28
188 -137 302 -139 146 -257 213 -527 301 -235 77 -231 75 -326 92 -141 25
-132 29 -158 -77z"/>
</g>
</svg>
