<?xml version="1.0" standalone="no"?>
<!DOCTYPE svg PUBLIC "-//W3C//DTD SVG 20010904//EN"
 "http://www.w3.org/TR/2001/REC-SVG-20010904/DTD/svg10.dtd">
<svg version="1.0" xmlns="http://www.w3.org/2000/svg"
 width="704.000000pt" height="1280.000000pt" viewBox="0 0 704.000000 1280.000000"
 preserveAspectRatio="xMidYMid meet">
<metadata>
Created by potrace 1.16, written by Peter Selinger 2001-2019
</metadata>
<g transform="translate(0.000000,1280.000000) scale(0.100000,-0.100000)"
fill="#000000" stroke="none">
<path d="M3659 9646 c-40 -27 -59 -76 -59 -151 0 -49 -38 -289 -69 -435 -10
-47 -24 -137 -31 -200 -6 -63 -16 -130 -22 -148 -11 -36 -42 -54 -76 -45 -11
2 -34 -3 -51 -12 -17 -8 -60 -18 -94 -22 l-63 -5 -56 110 c-31 61 -74 141 -96
179 -90 157 -121 213 -165 296 -74 142 -130 224 -163 243 -30 16 -32 16 -57
-2 -38 -28 -54 -62 -61 -129 -4 -33 -11 -76 -16 -95 -5 -19 -12 -73 -15 -120
-2 -47 -7 -96 -10 -110 -19 -97 -8 -561 20 -806 5 -45 2 -58 -24 -102 -140
-238 -236 -486 -243 -627 l-3 -70 32 -15 c38 -17 46 -46 11 -36 -13 4 -55 9
-95 13 -127 10 -288 -43 -270 -90 7 -17 9 -17 155 12 56 12 118 21 136 21 33
0 34 -1 42 -52 4 -29 8 -57 8 -62 1 -5 -37 -29 -84 -54 -113 -58 -190 -109
-190 -126 0 -7 6 -19 14 -25 15 -13 30 -7 198 82 l87 47 45 -68 c24 -37 64
-86 89 -109 l45 -42 -24 -98 c-14 -54 -40 -159 -59 -233 -20 -74 -40 -160 -44
-190 -15 -88 -50 -208 -76 -261 -56 -109 -192 -458 -231 -589 -38 -129 -100
-384 -118 -485 -52 -296 -21 -571 90 -804 49 -102 50 -111 9 -221 -34 -89 -3
-221 65 -278 45 -38 184 -71 220 -52 12 7 21 7 25 0 8 -13 96 -13 131 0 20 8
29 8 35 -1 5 -9 27 -9 90 -1 46 6 87 8 91 6 9 -6 84 12 113 27 14 7 49 5 115
-6 253 -43 782 -53 1020 -19 161 22 198 22 268 2 46 -13 54 -13 59 -1 5 11 7
11 17 -1 12 -16 133 -25 154 -12 6 3 13 2 17 -4 3 -5 42 -10 86 -10 64 0 79 3
79 15 0 8 5 15 10 15 6 0 10 -7 10 -16 0 -15 9 -16 75 -11 133 12 219 76 291
219 20 40 52 90 70 111 19 20 34 42 34 47 0 6 16 33 35 60 38 54 95 184 140
320 23 69 29 108 33 205 6 168 -13 419 -41 550 -26 119 -116 415 -146 480 -11
22 -27 65 -36 95 -16 49 -46 114 -127 272 -14 26 -37 62 -51 81 -15 19 -32 47
-38 61 -7 14 -18 26 -25 26 -7 0 -14 12 -16 27 -4 39 -28 42 -28 4 0 -38 -18
-41 -22 -3 -2 16 -9 27 -18 27 -9 0 -16 -11 -18 -27 -5 -43 -22 -33 -22 13 l0
41 42 -3 c47 -4 57 8 35 43 -8 13 -27 62 -41 109 -14 47 -56 144 -92 215 -37
71 -88 170 -114 221 -26 50 -57 104 -68 120 -49 69 -72 132 -72 193 0 33 3 60
6 60 19 0 170 -43 209 -60 51 -22 75 -15 75 20 0 23 -14 34 -80 60 -45 18 -78
23 -178 25 -67 1 -125 5 -128 8 -3 3 0 15 6 27 11 20 17 22 60 16 27 -4 51 -2
54 3 4 5 9 37 13 71 7 73 22 86 101 89 63 2 100 15 109 37 11 30 -12 37 -106
29 -60 -5 -91 -11 -91 -19 0 -26 -28 -46 -85 -61 -53 -13 -61 -13 -74 0 -24
24 4 44 84 60 37 8 70 16 72 19 19 19 2 294 -26 416 -5 25 -22 108 -37 185
-28 147 -129 471 -168 540 -13 22 -47 92 -77 155 -30 63 -74 151 -98 195 -25
44 -82 148 -128 230 -46 83 -83 153 -83 157 0 4 -24 45 -54 90 -48 75 -114
148 -134 148 -4 0 -23 -11 -43 -24z m-571 -1769 c45 -48 111 -248 112 -340 0
-49 -115 -177 -160 -177 -5 0 -36 -9 -69 -20 -55 -20 -64 -20 -152 -7 -114 17
-175 45 -228 102 -42 45 -91 141 -91 177 0 21 36 68 52 68 4 0 8 -9 8 -20 0
-11 13 -49 29 -84 63 -138 223 -209 388 -171 65 15 84 25 114 56 80 82 87 142
33 282 -19 51 -44 107 -54 125 -22 37 -13 42 18 9z m1053 -148 c30 -21 41 -71
19 -84 -5 -3 -10 -19 -10 -34 0 -38 -52 -116 -97 -146 -99 -67 -122 -79 -178
-91 -139 -30 -232 -11 -333 69 -93 75 -104 106 -39 121 23 5 30 2 45 -24 26
-42 100 -95 147 -105 54 -12 152 -6 193 11 18 7 57 34 86 59 45 38 56 54 70
103 9 32 16 77 16 100 0 39 2 42 26 42 14 0 39 -9 55 -21z"/>
<path d="M5346 4403 c-32 -118 -71 -212 -116 -284 -17 -25 -30 -51 -30 -56 0
-6 17 -13 38 -15 20 -3 73 -13 116 -22 216 -47 332 -140 269 -214 -50 -58
-425 -203 -598 -231 -38 -7 -95 -16 -125 -21 -90 -16 -301 -41 -365 -44 -33
-1 -109 -6 -170 -9 -60 -4 -182 -10 -270 -12 -301 -10 -432 -32 -550 -90 -186
-91 -233 -260 -99 -361 37 -28 40 -29 163 -28 112 0 138 4 236 33 61 17 139
41 175 51 124 37 198 43 590 45 382 3 590 14 745 40 567 96 671 121 830 203
194 100 296 218 315 364 17 138 -30 247 -162 374 -40 39 -98 89 -128 112 -65
48 -226 122 -343 157 -45 13 -120 36 -167 50 -98 30 -260 65 -299 65 -25 0
-28 -5 -55 -107z"/>
</g>
</svg>
