<?xml version="1.0" standalone="no"?>
<!DOCTYPE svg PUBLIC "-//W3C//DTD SVG 20010904//EN"
 "http://www.w3.org/TR/2001/REC-SVG-20010904/DTD/svg10.dtd">
<svg version="1.0" xmlns="http://www.w3.org/2000/svg"
 width="704.000000pt" height="1280.000000pt" viewBox="0 0 704.000000 1280.000000"
 preserveAspectRatio="xMidYMid meet">
<metadata>
Created by potrace 1.16, written by Peter Selinger 2001-2019
</metadata>
<g transform="translate(0.000000,1280.000000) scale(0.100000,-0.100000)"
fill="#000000" stroke="none">
<path d="M3724 9651 c-39 -24 -52 -61 -64 -182 -5 -52 -13 -106 -18 -120 -5
-13 -17 -64 -26 -114 -10 -49 -21 -110 -26 -135 -18 -92 -39 -206 -45 -250
-20 -148 -37 -181 -95 -178 -21 1 -51 -4 -67 -10 -15 -6 -59 -13 -96 -15 -66
-5 -69 -4 -78 21 -9 23 -65 135 -193 387 -26 50 -77 155 -115 235 -38 80 -79
157 -91 173 -37 47 -93 30 -127 -38 -14 -27 -48 -224 -72 -415 -26 -202 -32
-407 -22 -660 7 -157 6 -209 -3 -220 -7 -8 -33 -49 -58 -90 -119 -194 -189
-368 -209 -520 -13 -93 -9 -110 24 -110 14 0 30 -6 36 -14 18 -22 -4 -29 -45
-16 -56 19 -216 4 -281 -25 -45 -20 -53 -28 -53 -51 0 -29 -11 -29 130 -1 41
8 98 18 127 21 60 7 66 1 76 -72 l5 -43 -91 -44 c-122 -57 -192 -105 -192
-130 0 -36 34 -28 165 39 71 36 131 66 134 66 2 0 19 -26 37 -57 18 -32 58
-84 88 -116 l55 -58 -66 -267 c-36 -147 -77 -314 -91 -372 -14 -58 -38 -134
-55 -170 -260 -558 -394 -1098 -362 -1460 16 -190 45 -295 117 -429 l36 -65
-28 -95 c-22 -77 -26 -107 -21 -155 14 -131 111 -216 248 -216 28 0 48 5 51
13 4 9 8 9 16 -2 17 -26 371 -14 440 15 29 12 49 12 145 -2 61 -8 179 -19 261
-24 183 -11 589 -11 665 0 30 4 105 13 165 20 104 11 113 11 158 -9 52 -22 97
-27 97 -11 0 6 10 4 23 -5 18 -12 60 -15 203 -15 98 -1 186 -1 195 -1 33 -1
144 23 169 36 47 25 101 89 135 160 18 39 49 92 69 118 20 26 36 50 36 53 0 3
18 31 40 64 45 66 105 203 147 335 27 87 28 97 27 285 0 107 -6 236 -12 285
-7 50 -15 113 -18 140 -4 28 -27 120 -51 205 -24 85 -48 169 -52 185 -4 17
-20 59 -35 95 -15 36 -34 86 -42 113 -18 58 -158 334 -184 362 -10 11 -25 37
-34 58 -8 20 -22 37 -30 37 -8 0 -16 11 -18 27 -4 39 -28 42 -28 4 0 -38 -18
-41 -22 -3 -2 16 -9 27 -18 27 -9 0 -16 -11 -18 -27 -5 -43 -22 -33 -22 13 l0
41 42 -3 c43 -4 59 10 40 34 -5 7 -22 52 -37 101 -30 102 -140 322 -301 609
-53 94 -55 100 -49 149 l7 50 42 -6 c22 -4 83 -23 135 -42 86 -32 95 -34 110
-20 21 22 6 44 -49 72 -62 32 -201 59 -226 46 -24 -12 -100 -4 -113 12 -6 7
-4 18 4 30 13 17 20 18 65 9 60 -12 58 -14 68 78 l7 64 100 8 c108 9 139 23
115 51 -8 11 -30 16 -69 16 -93 0 -131 -10 -141 -36 -9 -24 -48 -36 -120 -38
-29 -1 -36 3 -38 21 -3 23 3 26 113 50 l40 9 9 69 c9 71 -5 236 -24 292 -6 16
-19 93 -30 173 -11 80 -22 159 -25 175 -44 242 -126 450 -347 885 -184 362
-236 456 -279 504 -35 41 -51 44 -95 17z m194 -1377 c93 -27 172 -125 172
-212 0 -11 4 -23 9 -26 17 -11 -1 -162 -31 -261 -40 -131 -79 -206 -140 -272
-125 -132 -282 -137 -406 -13 -35 36 -47 58 -73 142 -33 107 -35 147 -9 288
12 72 30 114 73 180 64 97 124 143 222 171 77 22 114 23 183 3z m-945 -100
c37 -5 56 -16 95 -53 78 -75 114 -171 114 -306 1 -118 -37 -234 -105 -322 -93
-121 -162 -159 -270 -151 -136 11 -215 95 -252 268 -14 64 -15 89 -5 165 16
121 44 205 88 264 91 120 181 156 335 135z"/>
<path d="M3658 8192 c-36 -20 -78 -51 -93 -69 -42 -51 -95 -184 -107 -270 -10
-70 -9 -85 11 -149 25 -85 52 -127 108 -170 128 -98 286 -13 356 190 25 73 30
264 9 333 -17 56 -86 141 -128 159 -50 21 -82 16 -156 -24z"/>
<path d="M2768 8112 c-15 -10 -49 -39 -77 -65 -42 -40 -53 -59 -78 -134 -37
-115 -39 -247 -4 -335 24 -62 77 -115 144 -143 50 -21 84 -19 144 9 40 19 60
37 93 86 23 33 49 84 58 113 21 69 21 223 -1 297 -20 68 -78 145 -129 171 -47
24 -115 24 -150 1z"/>
<path d="M5351 4418 c-23 -91 -99 -269 -142 -329 -11 -17 -18 -33 -15 -36 3
-4 28 -10 54 -13 84 -13 204 -41 261 -62 98 -37 155 -113 119 -161 -26 -32
-163 -99 -316 -153 -174 -62 -233 -77 -384 -98 -267 -38 -565 -66 -713 -66
-224 0 -550 -39 -630 -75 -16 -8 -46 -20 -65 -28 -132 -55 -193 -173 -141
-275 43 -83 89 -104 226 -105 106 0 155 9 395 73 80 21 163 42 185 45 22 4
220 9 440 10 383 3 667 19 785 45 25 5 88 17 140 25 506 84 729 171 854 333
62 81 85 131 96 210 18 127 -20 220 -138 344 -160 168 -298 238 -692 352 -114
34 -224 56 -271 56 -23 0 -27 -7 -48 -92z"/>
</g>
</svg>
