<?xml version="1.0" standalone="no"?>
<!DOCTYPE svg PUBLIC "-//W3C//DTD SVG 20010904//EN"
 "http://www.w3.org/TR/2001/REC-SVG-20010904/DTD/svg10.dtd">
<svg version="1.0" xmlns="http://www.w3.org/2000/svg"
 width="704.000000pt" height="1280.000000pt" viewBox="0 0 704.000000 1280.000000"
 preserveAspectRatio="xMidYMid meet">
<metadata>
Created by potrace 1.16, written by Peter Selinger 2001-2019
</metadata>
<g transform="translate(0.000000,1280.000000) scale(0.100000,-0.100000)"
fill="#000000" stroke="none">
<path d="M3940 9802 c-24 -7 -68 -52 -79 -81 -6 -14 -17 -66 -25 -115 -9 -48
-20 -93 -25 -100 -5 -6 -21 -58 -35 -116 -15 -58 -37 -139 -50 -180 -50 -158
-57 -182 -71 -255 -8 -42 -12 -82 -9 -90 7 -16 31 -18 229 -15 61 0 146 5 190
10 44 5 118 12 164 15 46 3 88 8 93 11 10 6 11 24 1 23 -27 -4 -33 4 -33 50 0
56 -10 87 -37 116 -23 25 -53 72 -53 82 0 5 13 14 30 20 l29 11 -38 109 c-43
120 -128 329 -156 383 -29 56 -76 118 -94 122 -9 3 -23 3 -31 0z"/>
<path d="M2898 9703 c-43 -10 -110 -185 -133 -348 -4 -28 -15 -86 -26 -129
-10 -43 -21 -102 -24 -130 -13 -116 -23 -241 -20 -244 4 -4 43 -4 379 -3 l229
1 -5 38 c-3 20 -20 73 -38 117 -18 44 -40 100 -50 125 -10 25 -43 103 -73 173
-31 70 -63 151 -71 180 -37 122 -119 231 -168 220z"/>
<path d="M4270 8844 c-28 -9 -79 -14 -135 -12 -91 2 -502 -19 -515 -27 -4 -2
-211 -7 -461 -10 -250 -4 -459 -8 -465 -10 -8 -2 -14 -69 -19 -197 -7 -186 -8
-195 -33 -235 -15 -23 -49 -77 -76 -120 -27 -43 -58 -91 -69 -107 -76 -111
-140 -265 -163 -396 -12 -64 -12 -62 26 -75 24 -8 36 -19 38 -33 5 -33 -21
-36 -61 -9 -37 25 -72 33 -187 42 -75 5 -133 -11 -138 -39 -6 -30 17 -36 128
-30 58 3 123 2 145 -3 l40 -9 0 -64 c0 -59 -2 -64 -25 -71 -217 -62 -279 -91
-267 -122 9 -25 35 -21 171 23 67 22 128 40 134 40 6 0 20 -20 31 -45 29 -67
71 -123 146 -197 l67 -66 -15 -63 c-9 -35 -43 -172 -76 -304 -34 -132 -70
-287 -80 -345 -11 -64 -31 -133 -51 -175 -152 -331 -294 -789 -349 -1125 -58
-353 -35 -594 79 -847 17 -36 30 -74 30 -84 0 -10 -11 -56 -24 -103 -20 -67
-23 -94 -17 -138 12 -90 81 -176 158 -197 57 -16 123 -14 129 4 6 14 8 13 19
-2 11 -14 25 -17 77 -15 41 2 67 8 74 18 10 13 12 13 18 -2 5 -14 20 -16 119
-11 61 3 134 13 161 21 46 14 59 14 169 -5 176 -29 331 -38 622 -34 197 3 294
8 401 24 l142 21 47 -20 c52 -22 81 -25 90 -10 4 7 11 7 18 2 19 -15 126 -23
147 -12 12 7 21 7 25 0 3 -5 39 -10 79 -10 68 0 74 2 80 23 l7 22 16 -23 c22
-32 109 -31 180 3 81 37 130 89 179 188 24 48 55 102 69 119 14 17 32 46 40
64 8 19 30 55 49 80 20 26 36 54 36 63 0 9 11 39 25 66 13 28 25 58 25 67 0 9
4 27 9 40 54 138 60 367 20 713 -30 260 -224 817 -358 1029 -52 84 -138 264
-151 318 -5 24 -18 66 -29 93 -32 83 -222 447 -278 532 -55 85 -63 117 -47
193 7 36 14 75 14 88 0 12 6 22 13 22 21 0 113 -33 195 -70 68 -31 74 -32 90
-16 22 21 9 43 -44 73 -54 31 -191 73 -237 73 -31 0 -67 11 -85 25 -1 1 0 10
4 19 5 13 15 15 59 10 l52 -6 7 53 c14 106 3 98 135 101 l116 3 0 25 c0 31
-26 37 -138 30 -77 -5 -82 -6 -87 -30 -5 -22 -13 -26 -60 -32 -66 -9 -80 -5
-80 21 0 22 44 41 96 41 l32 0 7 86 c4 47 5 116 2 153 -3 36 -13 149 -21 251
-18 228 -67 506 -101 575 -60 122 -64 124 -145 99z m-323 -593 c46 -21 113
-109 113 -149 0 -12 7 -34 16 -47 21 -33 22 -172 1 -245 -48 -169 -86 -228
-175 -270 -55 -27 -67 -29 -105 -20 -60 13 -98 31 -135 61 -61 53 -125 269
-103 354 6 24 11 59 11 77 0 72 129 256 170 243 10 -3 21 -1 25 5 11 18 136
11 182 -9z m-851 -44 c55 -37 117 -157 132 -253 23 -145 -39 -346 -124 -402
-18 -11 -58 -30 -90 -40 -52 -17 -61 -17 -101 -4 -75 25 -99 58 -142 193 -14
46 -14 292 0 338 26 80 62 142 101 170 37 27 47 30 113 28 60 -2 78 -6 111
-30z"/>
<path d="M3722 8160 c-24 -10 -71 -59 -72 -74 0 -5 -6 -17 -14 -25 -27 -30
-46 -205 -27 -253 5 -13 15 -43 22 -68 9 -29 30 -62 61 -92 45 -46 50 -48 103
-48 76 0 107 19 152 92 l38 63 0 115 c0 103 -3 121 -26 170 -14 30 -42 72 -61
93 -33 35 -39 37 -94 36 -33 0 -69 -4 -82 -9z"/>
<path d="M2905 8141 c-47 -21 -70 -52 -91 -119 -16 -56 -18 -200 -3 -274 12
-61 60 -139 100 -162 52 -31 130 -12 172 40 10 13 24 30 32 37 37 37 55 96 55
179 0 132 -42 244 -108 288 -53 35 -98 38 -157 11z"/>
<path d="M5345 4483 c-22 -125 -66 -250 -128 -355 -21 -37 -36 -72 -32 -78 3
-5 19 -10 34 -10 44 0 212 -37 271 -59 134 -51 179 -124 111 -178 -40 -31
-152 -88 -216 -108 -38 -13 -113 -39 -165 -58 -138 -50 -541 -116 -707 -116
-24 0 -48 -3 -54 -7 -6 -4 -117 -8 -246 -10 -128 -1 -248 -7 -266 -13 -18 -5
-70 -12 -116 -15 -46 -4 -87 -9 -92 -11 -4 -3 -33 -10 -64 -16 -127 -23 -259
-108 -292 -186 -47 -114 27 -227 162 -248 78 -12 310 30 521 95 93 28 276 43
468 38 190 -6 539 5 701 22 57 6 160 21 227 35 68 13 170 31 228 40 170 27
398 93 500 145 96 49 159 98 204 160 66 91 85 135 96 212 12 88 -3 172 -45
243 -23 39 -152 168 -233 233 -49 39 -198 115 -267 136 -91 28 -279 84 -335
100 -53 15 -218 46 -246 46 -7 0 -16 -16 -19 -37z"/>
</g>
</svg>
