<?xml version="1.0" standalone="no"?>
<!DOCTYPE svg PUBLIC "-//W3C//DTD SVG 20010904//EN"
 "http://www.w3.org/TR/2001/REC-SVG-20010904/DTD/svg10.dtd">
<svg version="1.0" xmlns="http://www.w3.org/2000/svg"
 width="704.000000pt" height="1280.000000pt" viewBox="0 0 704.000000 1280.000000"
 preserveAspectRatio="xMidYMid meet">
<metadata>
Created by potrace 1.16, written by Peter Selinger 2001-2019
</metadata>
<g transform="translate(0.000000,1280.000000) scale(0.100000,-0.100000)"
fill="#000000" stroke="none">
<path d="M3891 9492 c-57 -28 -73 -59 -81 -159 -4 -48 -15 -113 -24 -143 -9
-30 -23 -116 -31 -190 -9 -74 -22 -175 -30 -225 -8 -49 -17 -125 -21 -167 -4
-43 -12 -85 -18 -93 -6 -8 -31 -17 -56 -20 -25 -2 -68 -9 -95 -13 -28 -5 -81
-6 -118 -4 -62 4 -67 6 -67 27 0 13 -15 41 -34 64 -19 22 -55 85 -81 138 -137
287 -231 464 -248 469 -12 4 -16 12 -12 23 3 10 -1 23 -9 30 -8 6 -17 26 -20
44 -9 49 -54 97 -97 103 -89 14 -159 -118 -190 -361 -5 -44 -15 -111 -21 -150
-14 -93 -25 -229 -37 -470 -7 -131 -18 -233 -31 -295 -12 -52 -25 -113 -30
-136 -5 -22 -21 -71 -36 -109 -31 -77 -26 -119 14 -120 33 0 27 -20 -7 -21
-33 -1 -91 -39 -91 -59 0 -23 56 -45 135 -54 40 -5 77 -11 83 -15 15 -9 28 12
52 83 27 80 33 89 98 140 99 79 197 104 312 82 97 -19 159 -61 209 -140 35
-56 44 -117 31 -217 -11 -85 -36 -125 -102 -163 -47 -28 -48 -46 -3 -61 19 -6
35 -15 35 -20 0 -11 -261 -6 -375 8 -49 6 -92 9 -95 6 -3 -3 13 -21 34 -40 30
-26 35 -35 23 -39 -22 -9 -74 20 -129 71 -31 29 -57 44 -75 45 -15 0 -35 2
-43 4 -46 9 -59 6 -104 -25 -61 -44 -78 -60 -94 -89 -12 -20 -11 -25 5 -37 10
-7 37 -14 61 -14 24 0 64 -7 90 -15 26 -8 81 -19 122 -24 79 -10 331 -54 415
-73 49 -11 49 -12 20 -20 -16 -4 -52 -6 -80 -3 -132 12 -260 28 -367 45 -115
19 -117 19 -174 0 -71 -25 -144 -70 -144 -90 0 -11 13 -16 48 -18 26 -1 58 -5
72 -8 14 -3 69 -10 123 -15 54 -5 106 -13 115 -18 9 -4 59 -14 110 -21 51 -7
95 -17 98 -21 9 -15 -140 -10 -192 6 -27 8 -76 15 -109 15 -33 0 -76 4 -95 10
-19 5 -60 12 -90 14 -30 3 -74 8 -98 12 -33 5 -47 3 -61 -11 -26 -23 -53 -16
-69 18 -11 22 -20 27 -50 27 -20 0 -69 9 -107 20 -38 11 -89 20 -112 20 -65 0
-223 -65 -223 -91 0 -5 7 -9 15 -9 8 0 23 -4 33 -9 76 -39 345 -91 767 -146
221 -29 303 -44 311 -56 3 -5 22 -9 42 -10 20 0 46 -5 57 -10 13 -6 -39 -8
-148 -5 -92 3 -171 7 -175 9 -4 3 -43 8 -87 11 -159 14 -344 46 -540 96 -195
49 -301 73 -378 83 -30 5 -52 -2 -120 -37 -148 -77 -205 -121 -194 -149 5 -14
91 -48 182 -72 89 -24 531 -115 582 -119 13 -2 26 -6 30 -11 10 -9 -161 1
-237 15 -163 29 -270 50 -310 59 -25 5 -74 14 -110 20 -36 5 -92 16 -125 25
-76 20 -95 7 -47 -33 63 -54 211 -83 722 -141 151 -17 392 -46 535 -65 143
-19 321 -39 395 -45 74 -6 151 -15 170 -19 35 -7 34 -8 -20 -15 -57 -7 -494 9
-510 19 -5 3 -123 19 -262 36 -139 16 -309 38 -378 49 -69 11 -170 22 -225 25
-98 5 -99 5 -65 -11 19 -9 48 -18 65 -20 74 -9 110 -18 154 -37 41 -18 85 -31
146 -41 63 -11 287 -46 330 -52 95 -12 223 -38 232 -48 4 -3 4 -8 2 -11 -6 -5
-197 18 -329 40 -52 9 -111 18 -130 21 -19 3 -48 9 -65 14 -16 5 -52 12 -80
16 -27 3 -90 18 -140 34 -49 15 -126 36 -170 48 -44 11 -125 36 -180 55 -222
76 -250 81 -266 56 -8 -14 28 -89 43 -89 5 0 16 -7 24 -15 9 -8 41 -22 72 -30
31 -9 77 -25 102 -35 25 -10 70 -24 100 -31 30 -6 73 -19 95 -29 71 -33 99
-42 139 -46 21 -2 55 -12 75 -22 33 -16 34 -17 12 -20 -13 -2 -28 1 -34 7 -6
6 -25 11 -43 11 -17 0 -48 7 -67 15 -20 8 -60 18 -89 21 -29 4 -127 31 -217
60 -90 30 -179 54 -198 54 -31 0 -33 -2 -33 -34 0 -32 4 -37 53 -59 28 -14 72
-30 97 -37 25 -6 97 -30 160 -52 63 -22 160 -51 215 -63 55 -13 118 -30 140
-38 22 -8 63 -17 90 -21 28 -4 104 -16 170 -26 159 -25 176 -27 345 -45 80 -9
165 -20 190 -25 25 -5 69 -9 98 -10 29 0 62 -5 72 -10 11 -6 65 -15 122 -20
111 -11 141 -22 75 -29 -90 -10 -221 -1 -273 19 -14 6 -44 10 -67 10 -67 0
-368 36 -527 64 -80 13 -167 27 -195 30 -27 3 -86 15 -130 26 -44 11 -107 27
-140 34 -33 8 -109 31 -170 51 -60 20 -141 43 -178 50 -68 13 -68 13 -48 -6
34 -32 27 -53 -29 -92 -91 -61 -136 -107 -145 -145 -3 -18 -12 -38 -19 -45
-27 -27 -46 -99 -46 -172 0 -62 4 -79 20 -95 16 -16 18 -25 11 -39 -12 -21 13
-51 41 -51 29 0 41 -27 34 -75 -5 -41 -3 -46 17 -54 71 -26 97 -34 142 -43 28
-6 73 -17 100 -24 28 -8 77 -18 110 -24 162 -26 193 -32 230 -50 27 -12 63
-19 110 -19 95 -1 175 -11 205 -26 32 -16 109 -33 185 -41 33 -3 80 -12 105
-19 55 -17 87 -20 415 -45 171 -13 216 -21 216 -35 -1 -6 -66 -10 -174 -11
-157 -1 -231 3 -402 22 -33 3 -77 8 -98 10 -21 2 -42 6 -46 9 -5 2 -44 7 -87
10 -43 4 -98 15 -121 25 -23 10 -72 21 -110 25 -37 4 -75 11 -83 15 -16 8
-236 54 -305 64 -22 3 -69 17 -105 31 -36 14 -76 27 -88 30 -13 2 -29 8 -36
14 -15 12 -51 21 -141 32 -80 10 -101 6 -108 -20 -4 -16 13 -25 117 -59 66
-22 157 -48 201 -57 44 -9 91 -20 105 -25 14 -5 66 -14 115 -19 50 -5 131 -21
180 -34 252 -69 513 -106 990 -142 121 -9 234 -21 251 -26 17 -5 67 -13 110
-17 l79 -8 -110 -8 c-100 -8 -429 -2 -580 9 -103 8 -406 45 -495 60 -47 8
-105 18 -130 21 -25 3 -72 14 -105 24 -60 19 -78 23 -280 61 -60 11 -131 27
-156 35 -45 14 -132 33 -174 37 -11 1 -23 6 -27 11 -4 6 -4 -10 -1 -35 6 -46
24 -69 55 -69 10 0 35 -9 55 -20 21 -11 54 -20 73 -20 19 0 53 -5 75 -10 63
-16 138 -32 165 -36 64 -9 179 -35 215 -49 44 -16 162 -38 330 -60 61 -8 136
-20 167 -25 32 -6 86 -13 120 -16 35 -2 113 -9 173 -14 61 -5 151 -12 200 -16
50 -3 98 -10 107 -15 9 -5 34 -9 55 -10 21 -1 49 -4 63 -8 24 -7 24 -8 -9 -15
-18 -5 -70 -6 -115 -2 -44 3 -162 8 -261 12 -177 6 -205 8 -435 38 -285 36
-369 49 -420 63 -30 8 -111 28 -180 43 -153 34 -314 76 -338 88 -9 5 -41 12
-69 16 -48 6 -53 5 -53 -13 0 -11 9 -22 20 -26 11 -3 38 -22 61 -41 36 -30 48
-34 97 -35 70 -1 117 -9 297 -49 28 -6 64 -14 80 -17 17 -3 35 -8 40 -12 25
-18 106 -34 166 -32 49 2 70 -2 82 -13 9 -9 26 -16 39 -16 23 0 89 -15 118
-27 8 -4 19 -7 23 -7 4 -1 11 -6 15 -13 4 -6 18 -11 32 -11 129 1 230 -22 230
-52 0 -12 -146 -3 -170 10 -10 6 -36 10 -57 10 -22 0 -44 5 -49 10 -6 6 -80
15 -165 20 -85 6 -167 12 -184 15 -56 9 -340 77 -440 105 -130 37 -212 52
-254 48 -48 -4 -50 -25 -4 -36 159 -38 279 -68 408 -102 83 -22 200 -49 262
-60 62 -10 120 -23 130 -28 10 -5 63 -13 118 -16 55 -4 141 -13 190 -21 98
-16 298 -41 385 -49 30 -3 78 -11 105 -16 28 -6 80 -11 116 -11 51 1 68 -2 73
-14 5 -13 -12 -15 -123 -15 -71 0 -151 4 -179 10 -28 5 -93 12 -144 15 -51 3
-129 10 -173 15 -44 6 -118 15 -165 21 -47 6 -110 14 -140 19 -30 5 -98 14
-150 21 -52 6 -203 38 -335 71 -299 73 -355 73 -256 -3 25 -19 45 -39 45 -44
0 -24 37 -45 116 -64 149 -35 185 -42 266 -47 44 -3 86 -11 94 -19 8 -7 32
-18 53 -25 20 -6 37 -14 37 -16 0 -8 -65 -1 -77 8 -6 5 -46 11 -87 14 -42 3
-129 18 -193 35 -65 16 -131 32 -147 35 -16 2 -37 9 -47 14 -10 6 -40 10 -68
10 -39 0 -51 -4 -51 -15 0 -24 73 -88 130 -115 51 -24 180 -137 180 -157 0
-24 106 -83 165 -93 33 -5 86 -17 118 -25 32 -8 67 -15 78 -15 11 0 27 -6 34
-14 12 -11 -2 -14 -88 -20 -56 -4 -104 -10 -107 -13 -3 -3 3 -10 14 -17 10 -6
33 -20 50 -32 44 -29 231 -72 386 -89 36 -4 74 -11 85 -16 18 -7 18 -8 -5 -9
-40 -3 -92 1 -133 10 -21 4 -47 6 -58 3 -19 -5 -19 -7 -3 -24 9 -11 23 -19 29
-19 7 0 18 -27 25 -62 10 -54 18 -69 55 -105 45 -43 84 -59 167 -70 40 -5 48
-3 59 15 11 17 15 18 23 7 6 -7 36 -17 67 -20 45 -6 59 -4 73 10 13 13 20 15
29 6 13 -13 136 -15 156 -2 9 6 22 6 33 0 12 -7 41 -3 95 12 118 32 120 32
269 10 297 -44 639 -48 935 -10 91 12 98 11 140 -9 61 -29 105 -37 124 -22 10
9 15 9 15 1 0 -7 25 -11 70 -11 53 0 71 4 78 16 8 15 11 15 29 -3 26 -26 130
-25 150 3 14 18 15 18 27 2 10 -14 28 -18 75 -18 80 0 125 20 182 78 61 63 95
88 149 108 25 9 52 22 60 28 23 18 59 33 125 53 33 9 62 20 65 23 3 4 20 12
38 19 18 8 50 26 71 41 20 15 48 31 62 35 13 4 30 12 37 18 7 5 14 8 17 6 7
-7 -8 -24 -42 -48 -18 -12 -33 -26 -33 -30 0 -4 32 -24 70 -45 105 -56 116
-95 48 -158 -23 -21 -45 -38 -49 -38 -4 0 -45 -17 -91 -39 -108 -50 -303 -116
-398 -135 -41 -8 -145 -24 -230 -36 -85 -11 -182 -26 -215 -32 -33 -6 -195
-14 -360 -18 -399 -10 -563 -31 -701 -87 -113 -47 -194 -137 -194 -216 0 -54
39 -115 90 -144 40 -23 56 -26 150 -25 113 0 228 18 380 59 52 14 120 32 150
40 41 10 173 16 520 23 439 8 592 17 720 41 30 6 80 14 110 19 388 63 577 110
714 181 155 80 262 203 292 336 21 94 8 169 -43 262 -34 61 -189 231 -210 231
-6 0 -22 10 -36 22 -15 13 -75 45 -134 72 -60 27 -115 55 -123 61 -25 20 -56
23 -81 9 -13 -7 -28 -13 -33 -14 -19 0 6 64 46 121 77 110 79 115 85 196 5 66
12 89 44 149 33 61 39 81 39 132 0 68 -11 100 -52 153 -32 42 -34 62 -14 110
25 60 23 93 -7 128 -15 18 -27 39 -27 46 0 8 -14 25 -31 37 -26 19 -30 28 -26
54 3 17 20 52 38 77 43 62 51 143 20 205 -12 23 -21 55 -21 72 0 35 -22 93
-45 118 -46 51 -85 86 -132 119 -51 35 -52 36 -48 82 2 25 4 48 4 51 1 3 18
25 40 48 48 54 61 97 61 206 0 76 -3 93 -26 132 -36 62 -213 236 -255 253 -13
5 -53 30 -89 57 -95 70 -309 170 -358 166 -13 -1 -33 5 -45 13 -12 8 -31 15
-42 15 -12 0 -26 5 -31 10 -6 6 -24 12 -41 14 -17 2 -40 10 -52 18 -23 14 -26
23 -36 100 -3 25 -11 51 -18 56 -7 6 -56 14 -110 18 -53 4 -97 9 -97 11 0 2 5
13 10 24 10 18 18 19 103 13 53 -3 103 -2 117 4 25 9 25 11 22 106 -4 115 3
112 -149 60 -78 -27 -108 -33 -116 -25 -28 28 78 78 247 117 l29 7 -7 76 c-9
97 -38 236 -70 337 -14 43 -32 104 -40 135 -8 31 -26 81 -40 111 -14 30 -26
58 -26 63 0 12 -115 237 -175 345 -30 52 -57 102 -61 110 -4 8 -27 47 -51 86
-24 39 -43 77 -43 83 0 7 -30 58 -67 113 -38 56 -72 108 -78 116 -5 9 -34 50
-62 93 -29 43 -53 82 -53 87 0 21 -120 112 -149 112 -9 0 -31 -8 -50 -18z
m283 -1524 c69 -43 133 -94 178 -141 45 -46 80 -151 82 -243 1 -52 -3 -66 -27
-97 -15 -20 -41 -44 -57 -52 l-29 -15 16 52 c24 82 19 153 -15 229 -40 88 -83
135 -156 168 -129 59 -167 61 -266 11 -89 -45 -130 -132 -118 -245 10 -87 68
-165 123 -165 15 0 45 -43 45 -65 0 -23 -28 -18 -61 10 -16 13 -44 27 -63 30
-36 7 -73 54 -102 132 -15 39 -16 54 -4 129 10 68 19 95 50 143 21 33 51 68
67 77 15 10 33 23 38 29 17 19 116 43 184 44 56 1 71 -3 115 -31z m-1984
-2605 c243 -31 363 -41 560 -48 180 -7 220 -12 220 -27 0 -23 -708 12 -780 38
-8 3 -44 9 -80 14 -122 17 -245 41 -255 51 -12 13 69 6 335 -28z"/>
<path d="M2893 7790 c-24 -12 -43 -25 -43 -29 0 -4 -21 -30 -47 -57 -49 -52
-82 -119 -66 -135 14 -14 374 -81 442 -82 80 -1 91 12 91 100 0 58 -3 68 -37
112 -52 66 -119 99 -220 106 -68 6 -84 3 -120 -15z"/>
<path d="M2402 7531 l-21 -40 26 -21 c15 -11 41 -20 62 -20 20 0 65 -9 99 -20
35 -11 70 -20 78 -20 17 0 19 44 3 89 -11 33 -16 34 -109 52 -126 23 -115 25
-138 -20z"/>
<path d="M2734 7496 c-6 -15 0 -60 11 -88 8 -19 48 -34 115 -44 25 -3 68 -12
95 -20 28 -7 76 -16 107 -20 51 -5 58 -4 70 15 7 12 18 21 25 21 7 0 18 10 24
22 7 12 21 30 33 39 16 13 18 21 10 29 -12 12 -32 14 -199 25 -119 7 -182 15
-225 26 -48 12 -60 11 -66 -5z"/>
<path d="M2220 7143 c-8 -4 -55 -19 -104 -33 -49 -14 -91 -31 -93 -37 -4 -12
89 -43 132 -43 14 0 35 -4 45 -10 14 -7 37 -2 92 20 88 35 148 94 101 97 -10
1 -49 4 -88 7 -38 3 -77 3 -85 -1z"/>
</g>
</svg>
