<?xml version="1.0" standalone="no"?>
<!DOCTYPE svg PUBLIC "-//W3C//DTD SVG 20010904//EN"
 "http://www.w3.org/TR/2001/REC-SVG-20010904/DTD/svg10.dtd">
<svg version="1.0" xmlns="http://www.w3.org/2000/svg"
 width="704.000000pt" height="1280.000000pt" viewBox="0 0 704.000000 1280.000000"
 preserveAspectRatio="xMidYMid meet">
<metadata>
Created by potrace 1.16, written by Peter Selinger 2001-2019
</metadata>
<g transform="translate(0.000000,1280.000000) scale(0.100000,-0.100000)"
fill="#000000" stroke="none">
<path d="M3860 9472 l-40 -39 0 -94 c0 -63 -4 -101 -14 -114 -7 -11 -16 -40
-19 -65 -3 -25 -13 -85 -22 -135 -43 -246 -69 -415 -69 -465 -1 -53 -2 -55
-26 -52 -14 1 -88 -6 -165 -17 -77 -10 -143 -17 -147 -14 -5 2 -8 17 -8 32 0
15 -14 48 -30 75 -40 62 -85 154 -94 188 -3 15 -19 42 -35 60 -15 18 -46 71
-68 118 -22 47 -56 108 -76 137 -19 28 -47 85 -62 125 -32 86 -64 132 -106
154 -35 18 -57 12 -99 -23 -67 -56 -114 -210 -124 -408 -2 -33 -11 -89 -20
-125 -19 -76 -36 -257 -36 -385 0 -49 -5 -117 -11 -150 -5 -33 -17 -105 -25
-160 -8 -55 -18 -120 -24 -145 -13 -64 -86 -274 -106 -305 -16 -25 -13 -81 5
-71 5 3 56 -6 113 -21 58 -14 112 -24 121 -20 11 4 15 20 15 55 1 92 31 137
137 207 98 65 145 85 200 85 60 0 163 -34 201 -67 15 -12 31 -23 35 -23 4 0
24 -30 45 -67 33 -60 38 -76 41 -150 2 -52 -1 -92 -8 -106 -23 -42 -164 -166
-176 -153 -3 3 4 20 16 39 11 19 21 41 21 48 0 8 11 26 24 40 47 51 61 115 33
148 -8 9 -21 41 -31 71 -9 31 -25 60 -35 65 -10 6 -38 21 -62 35 -37 21 -56
24 -120 23 -125 -2 -197 -46 -253 -156 -28 -57 -33 -99 -13 -114 10 -8 160
-41 267 -59 72 -12 132 -28 137 -37 12 -20 -261 7 -379 38 -40 10 -45 -14 -17
-81 30 -69 51 -80 159 -89 140 -11 232 -25 288 -44 48 -17 51 -19 25 -22 -15
-3 -119 -1 -231 3 -149 6 -211 12 -232 23 -32 17 -128 45 -177 52 -70 11 -260
-54 -264 -90 -1 -7 -1 -30 0 -53 2 -39 1 -42 -29 -48 -18 -3 -49 -6 -69 -6
-54 0 -159 -25 -221 -53 -63 -28 -64 -28 87 -52 l103 -17 95 57 c52 31 99 64
105 73 5 9 10 13 10 8 0 -5 9 -1 19 8 11 10 17 25 14 37 -4 14 0 19 14 19 38
0 84 -23 93 -45 7 -17 20 -25 52 -30 24 -4 129 -22 233 -41 105 -20 206 -38
225 -40 19 -3 44 -10 55 -14 11 -5 29 -11 40 -13 38 -9 -101 -7 -215 3 -63 5
-171 19 -240 31 -207 35 -260 26 -364 -60 -62 -52 -80 -52 -326 4 -103 24
-180 23 -216 -1 -16 -10 -38 -25 -49 -32 -39 -24 -85 -42 -110 -42 -14 0 -25
-4 -25 -8 0 -5 -17 -14 -38 -20 -21 -6 -51 -25 -67 -42 -16 -16 -37 -30 -48
-30 -22 0 -107 -48 -107 -60 0 -5 -9 -11 -20 -15 -22 -7 -64 -70 -56 -83 3 -5
16 -7 29 -5 14 3 29 -2 36 -11 17 -20 116 -49 241 -72 8 -1 67 -9 130 -18 63
-8 140 -22 170 -30 l55 -15 -80 0 c-44 -1 -134 9 -200 20 -66 12 -139 24 -162
26 -24 3 -43 8 -43 12 0 3 -39 6 -88 6 -83 0 -87 1 -90 23 -5 31 -26 23 -30
-11 -4 -36 21 -47 248 -101 180 -43 254 -53 555 -77 77 -6 206 -24 287 -40 81
-16 190 -33 243 -39 53 -5 115 -14 138 -20 23 -5 94 -14 157 -20 218 -21 133
-45 -101 -30 -79 5 -160 12 -179 15 -19 2 -57 7 -85 10 -49 5 -88 12 -321 54
-61 11 -164 25 -230 31 -65 6 -134 13 -151 16 -42 8 -43 -9 -2 -26 22 -10 27
-15 17 -21 -18 -12 -66 -11 -73 1 -3 6 -23 10 -43 10 -21 0 -62 7 -92 15 -30
8 -98 24 -150 35 -53 11 -118 26 -145 35 -64 19 -99 19 -115 0 -33 -40 55 -87
254 -136 65 -16 141 -39 170 -50 28 -12 67 -27 86 -35 51 -19 174 -54 194 -54
9 0 24 -4 34 -9 21 -11 290 -67 387 -81 90 -13 125 -23 124 -35 -1 -5 -4 -9
-7 -8 -4 1 -41 4 -82 8 -41 4 -78 9 -82 11 -4 3 -79 18 -165 33 -144 26 -249
51 -328 80 -16 6 -66 22 -110 36 -44 14 -89 30 -100 34 -64 27 -343 77 -356
64 -28 -28 103 -112 216 -138 38 -9 123 -36 190 -60 183 -65 210 -73 350 -96
72 -11 157 -27 190 -35 72 -17 436 -63 890 -112 44 -5 60 -11 60 -22 0 -24
-91 -24 -229 -1 -67 11 -188 25 -271 31 -233 16 -310 26 -450 59 -71 16 -150
32 -175 36 -25 3 -63 10 -85 15 -22 5 -74 16 -115 25 -41 9 -115 32 -163 52
-91 36 -147 49 -254 59 l-62 7 -52 -57 c-28 -31 -57 -56 -64 -56 -23 0 -65
-41 -65 -64 0 -12 -4 -26 -9 -31 -5 -6 -14 -28 -21 -50 -7 -22 -19 -49 -26
-60 -16 -22 -18 -78 -5 -103 5 -9 11 -40 14 -69 6 -59 19 -86 59 -126 15 -16
28 -31 28 -34 0 -4 -11 -26 -26 -50 -14 -24 -23 -47 -20 -52 3 -5 20 -11 38
-14 18 -3 71 -19 118 -35 91 -33 168 -51 320 -77 52 -9 109 -20 126 -25 17 -6
44 -10 60 -10 16 0 79 -9 139 -20 61 -11 150 -25 199 -30 49 -6 93 -13 98 -16
5 -3 46 -7 91 -8 46 -2 91 -8 102 -13 11 -6 65 -16 120 -22 280 -31 438 -56
465 -73 21 -13 -324 -1 -480 17 -69 8 -148 17 -177 20 -28 3 -68 12 -88 21
-46 19 -108 32 -207 44 -106 13 -219 28 -303 39 -38 5 -106 18 -150 30 -44 12
-121 28 -172 36 -57 9 -117 26 -159 46 -52 25 -82 32 -130 33 -34 1 -66 -3
-70 -7 -10 -9 16 -28 28 -21 5 3 11 -2 14 -10 3 -9 10 -16 15 -16 5 0 29 -15
53 -33 36 -29 61 -37 157 -55 63 -11 143 -23 179 -26 36 -4 112 -17 169 -31
57 -14 147 -30 200 -36 130 -14 316 -44 491 -79 80 -15 192 -33 250 -40 58 -6
157 -18 221 -26 63 -8 133 -14 155 -14 50 0 114 -18 114 -32 0 -7 -67 -9 -222
-6 -249 6 -421 26 -738 84 -41 8 -128 21 -192 29 -144 17 -222 31 -313 55 -38
10 -135 28 -215 39 -80 11 -160 25 -178 30 -18 5 -48 7 -68 4 -53 -9 -40 -34
31 -59 33 -11 72 -26 87 -32 15 -6 62 -18 105 -26 120 -24 212 -44 278 -62 33
-9 76 -20 95 -25 19 -5 109 -16 200 -24 147 -14 207 -23 370 -55 25 -5 74 -13
110 -19 36 -6 108 -17 160 -26 52 -8 163 -20 245 -26 83 -6 173 -17 200 -24
47 -12 41 -13 -118 -14 -93 -1 -212 4 -265 9 -53 6 -164 17 -247 26 -149 15
-293 37 -350 54 -16 5 -106 16 -200 25 -93 9 -208 25 -255 35 -47 10 -105 23
-130 29 -48 10 -204 55 -231 66 -11 4 -22 -1 -32 -15 -17 -25 -5 -70 23 -88 9
-5 77 -15 151 -22 152 -13 194 -22 261 -56 35 -18 64 -24 110 -24 73 0 228
-19 243 -30 6 -4 35 -11 65 -15 56 -7 102 -22 175 -55 22 -10 60 -23 85 -29
38 -9 31 -10 -53 -5 -54 2 -118 11 -143 20 -57 19 -190 42 -321 54 -101 9
-310 56 -379 85 -20 8 -49 15 -65 15 -15 0 -31 5 -34 10 -3 6 -24 10 -45 10
-21 0 -42 5 -45 10 -4 7 -12 7 -25 0 -12 -6 -37 -6 -74 2 -31 6 -59 8 -62 5
-14 -14 19 -47 54 -53 77 -13 427 -102 503 -127 24 -8 95 -18 158 -22 63 -4
137 -13 165 -20 66 -17 164 -31 361 -50 88 -9 185 -20 215 -25 30 -4 109 -16
175 -25 66 -9 152 -22 190 -30 l70 -13 -149 -1 c-82 -1 -194 5 -250 13 -55 8
-177 20 -271 26 -93 6 -224 22 -290 35 -66 13 -172 31 -235 39 -63 9 -147 23
-185 31 -249 53 -420 82 -399 66 5 -3 10 -17 10 -31 1 -14 2 -28 3 -32 0 -4
17 -15 36 -24 19 -9 35 -20 35 -25 0 -5 6 -9 13 -9 8 0 29 -8 47 -17 19 -9 78
-20 134 -25 56 -5 113 -16 128 -24 14 -8 39 -14 56 -14 16 0 36 -8 43 -17 12
-15 12 -16 -6 -9 -11 4 -63 12 -115 16 -52 5 -111 13 -130 19 -19 6 -59 11
-87 11 -46 0 -53 -3 -53 -20 0 -11 4 -20 9 -20 16 0 63 -55 87 -101 14 -29 38
-56 61 -70 20 -13 44 -29 53 -37 72 -64 122 -92 170 -95 21 -1 30 -7 30 -20 0
-10 -4 -15 -10 -12 -5 3 -10 1 -10 -5 0 -6 8 -10 17 -8 11 2 22 -6 28 -19 14
-32 206 -125 285 -137 120 -19 231 -35 293 -41 37 -4 70 -11 73 -16 8 -14
-102 -11 -210 6 -132 19 -138 16 -115 -70 13 -47 31 -69 79 -100 55 -35 190
-68 190 -47 0 4 5 14 10 22 8 13 11 13 22 -2 17 -23 135 -30 148 -9 7 12 11
12 24 2 10 -9 36 -11 83 -7 82 6 87 6 139 6 22 0 70 9 105 21 68 23 50 23 274
-12 193 -30 651 -29 898 1 72 9 93 9 110 -2 44 -28 107 -43 128 -30 13 8 26 9
44 2 15 -6 51 -10 81 -10 41 0 54 4 54 15 0 8 5 15 10 15 6 0 10 -6 10 -14 0
-19 23 -25 88 -22 38 1 58 6 66 19 12 16 14 16 30 -1 13 -15 27 -18 74 -15 86
6 133 27 175 78 21 25 42 45 47 45 5 0 23 12 39 28 17 15 84 49 148 75 65 27
136 57 158 67 22 10 56 24 75 31 19 7 61 28 93 46 31 17 57 28 57 22 0 -5 -3
-9 -7 -9 -5 0 -22 -13 -40 -29 l-32 -28 42 -13 c57 -17 126 -66 133 -95 3 -13
3 -33 -1 -44 -7 -23 -91 -87 -150 -114 -45 -21 -270 -99 -330 -115 -22 -6 -58
-15 -80 -21 -35 -8 -218 -38 -450 -72 -38 -6 -198 -13 -355 -15 -157 -3 -303
-9 -325 -14 -22 -5 -73 -12 -113 -15 -208 -18 -346 -75 -432 -178 -19 -24 -24
-42 -25 -88 0 -48 5 -64 30 -100 48 -68 72 -77 205 -78 120 -1 265 21 389 60
150 46 193 50 596 59 461 10 584 20 980 81 472 71 697 164 829 340 66 88 80
132 81 239 0 94 -1 96 -45 178 -34 64 -62 99 -120 151 -79 71 -183 144 -222
157 -13 4 -62 27 -110 50 -89 45 -121 53 -134 32 -5 -7 -10 -4 -16 11 -9 26
-4 37 60 132 48 71 48 73 61 183 7 55 16 87 30 105 32 39 43 71 48 131 4 47 0
66 -32 133 -19 42 -39 77 -44 77 -5 0 -11 14 -15 31 -4 22 0 38 15 59 12 15
23 48 26 73 5 42 3 46 -26 63 -38 22 -81 85 -81 117 0 14 8 35 19 48 33 44 50
85 56 145 5 48 3 67 -14 104 -11 25 -21 55 -21 66 0 66 -83 181 -156 218 -42
21 -84 72 -84 103 0 13 15 43 34 66 19 23 44 67 57 98 21 50 23 67 19 150 -5
89 -7 98 -43 152 -60 89 -126 148 -236 211 -57 32 -117 70 -134 85 -18 14 -45
33 -62 41 -16 8 -41 23 -55 32 -31 22 -190 77 -250 87 -25 4 -57 15 -72 25
-16 10 -34 16 -42 13 -9 -4 -34 12 -61 37 -44 42 -46 46 -43 92 l3 49 -86 6
c-103 7 -117 13 -93 41 13 14 25 17 43 13 38 -10 146 -14 158 -7 10 7 23 95
27 172 1 35 1 35 -39 32 -22 -2 -76 -19 -119 -38 -68 -30 -81 -33 -93 -21 -13
12 -11 18 9 39 13 14 39 29 58 33 19 4 54 17 76 30 23 12 58 25 79 29 l37 7
-5 72 c-5 83 -68 386 -91 438 -8 18 -29 75 -47 124 -28 78 -120 270 -162 337
-8 13 -20 39 -26 58 -22 70 -194 373 -241 425 -10 11 -39 54 -64 95 -139 225
-220 310 -295 310 -11 0 -38 -17 -61 -38z m305 -1503 c88 -48 165 -103 195
-141 85 -109 100 -283 30 -357 -17 -17 -30 -28 -30 -25 0 4 -7 1 -15 -6 -12
-10 -15 -9 -15 8 0 11 7 39 15 62 25 71 19 121 -21 195 -51 93 -106 145 -187
178 -85 34 -163 37 -227 9 -95 -41 -132 -100 -133 -211 -1 -117 40 -188 142
-244 18 -9 31 -23 29 -30 -7 -20 -44 -19 -79 2 -19 12 -44 21 -56 21 -79 0
-131 265 -75 382 47 96 117 156 213 182 92 25 129 21 214 -25z m-1608 -1038
c54 -11 132 -22 173 -26 41 -4 101 -16 132 -26 32 -10 69 -19 83 -19 14 0 25
-4 25 -10 0 -12 -81 -13 -112 -1 -13 5 -68 16 -123 26 -342 56 -332 54 -314
66 19 12 24 12 136 -10z m-647 -56 c74 -14 169 -34 210 -45 41 -10 120 -24
175 -30 55 -7 152 -25 215 -40 63 -16 171 -38 240 -49 69 -12 150 -27 180 -35
30 -8 85 -17 123 -21 68 -7 94 -25 35 -25 -195 2 -900 110 -1068 164 -41 13
-115 36 -164 51 -132 39 -143 44 -126 55 8 5 22 8 30 5 8 -2 76 -15 150 -30z
m85 -586 c109 -19 131 -24 279 -63 55 -14 123 -28 150 -32 80 -8 97 -14 90
-26 -6 -10 -98 -6 -159 6 -11 2 -92 18 -180 36 -192 38 -174 34 -257 60 -38
11 -68 24 -68 29 0 15 14 22 29 15 9 -4 61 -15 116 -25z m90 -963 c44 -8 161
-21 260 -30 99 -9 204 -21 234 -26 30 -6 80 -10 112 -10 32 0 60 -4 64 -9 10
-18 -34 -22 -110 -12 -42 6 -118 11 -168 12 -51 0 -114 4 -142 9 -27 5 -97 16
-155 25 -112 15 -268 43 -285 49 -26 11 119 4 190 -8z"/>
<path d="M2413 7531 c-30 -19 -43 -90 -20 -109 6 -5 38 -12 70 -16 34 -3 88
-20 132 -41 42 -19 80 -35 85 -35 19 0 21 23 5 75 -19 58 -28 65 -118 80 -21
3 -46 14 -57 25 -19 19 -80 32 -97 21z"/>
</g>
</svg>
