<?xml version="1.0" standalone="no"?>
<!DOCTYPE svg PUBLIC "-//W3C//DTD SVG 20010904//EN"
 "http://www.w3.org/TR/2001/REC-SVG-20010904/DTD/svg10.dtd">
<svg version="1.0" xmlns="http://www.w3.org/2000/svg"
 width="704.000000pt" height="1280.000000pt" viewBox="0 0 704.000000 1280.000000"
 preserveAspectRatio="xMidYMid meet">
<metadata>
Created by potrace 1.16, written by Peter Selinger 2001-2019
</metadata>
<g transform="translate(0.000000,1280.000000) scale(0.100000,-0.100000)"
fill="#000000" stroke="none">
<path d="M3782 9630 c-41 -25 -60 -68 -72 -163 -5 -40 -18 -108 -29 -152 -34
-141 -69 -298 -86 -385 -34 -177 -49 -241 -59 -249 -6 -5 -36 -11 -66 -14 -30
-2 -71 -9 -90 -13 -19 -5 -57 -7 -84 -4 -47 5 -49 6 -66 52 -9 25 -36 84 -58
130 -22 45 -68 142 -102 213 -145 304 -170 352 -200 393 -17 23 -42 48 -56 54
-21 10 -28 8 -54 -17 -42 -40 -56 -85 -91 -295 -41 -243 -59 -491 -57 -782 1
-198 -1 -241 -14 -255 -24 -30 -134 -213 -172 -289 -45 -90 -83 -207 -102
-309 -16 -91 -12 -115 19 -115 34 0 55 -16 40 -31 -10 -10 -18 -10 -40 0 -40
18 -235 15 -296 -5 -40 -13 -48 -20 -45 -37 3 -20 7 -22 63 -17 33 2 103 5
155 5 l94 0 12 -52 c14 -61 13 -62 -66 -92 -112 -42 -205 -95 -205 -116 0 -39
64 -24 252 61 17 8 36 14 41 14 6 0 28 -33 50 -72 22 -40 62 -95 88 -122 l48
-48 -46 -187 c-65 -258 -75 -303 -97 -422 -15 -82 -31 -129 -73 -214 -29 -61
-58 -123 -65 -140 -7 -16 -22 -52 -33 -80 -12 -27 -34 -86 -50 -130 -16 -44
-38 -106 -50 -139 -36 -101 -120 -415 -131 -490 -60 -440 -44 -635 72 -868 45
-89 47 -111 18 -204 -58 -188 26 -340 196 -359 44 -4 70 -3 80 5 9 8 15 8 20
0 5 -8 66 -10 199 -7 154 3 202 7 243 22 47 17 60 17 140 6 48 -7 108 -17 133
-23 26 -6 198 -12 400 -13 307 -2 377 0 513 17 l158 20 51 -21 c55 -23 83 -26
93 -12 3 6 16 4 31 -4 30 -15 320 -19 329 -4 3 5 14 3 25 -3 15 -9 37 -10 99
-1 136 20 190 62 257 196 20 40 51 95 69 122 80 124 115 183 128 220 9 22 29
76 45 120 69 184 67 175 66 385 0 107 -6 237 -12 288 -7 50 -15 113 -18 138
-6 54 -82 321 -126 444 -16 47 -38 110 -49 140 -25 72 -143 313 -180 368 -16
24 -36 56 -44 73 -9 16 -22 29 -30 29 -7 0 -15 12 -17 27 -4 39 -28 42 -28 4
0 -38 -18 -41 -22 -3 -2 16 -9 27 -18 27 -9 0 -16 -11 -18 -27 -5 -43 -22 -33
-22 13 l0 41 42 -3 c43 -4 59 10 40 34 -5 7 -22 50 -37 97 -29 90 -195 421
-308 615 -35 59 -41 78 -39 119 1 27 4 52 7 54 7 8 79 -11 160 -42 38 -14 80
-26 91 -26 25 0 39 27 24 45 -34 41 -192 85 -282 78 -46 -3 -68 -1 -83 10 -17
13 -17 17 -5 31 11 14 24 16 66 10 59 -7 56 -11 69 88 3 25 11 50 18 55 7 5
46 10 87 12 105 2 130 9 130 32 0 28 -27 34 -123 31 -83 -3 -86 -4 -95 -31 -9
-25 -17 -29 -78 -39 -58 -10 -71 -9 -84 3 -23 24 6 44 81 57 35 6 70 16 77 23
19 17 18 233 -2 337 -8 46 -24 153 -36 238 -43 330 -124 558 -387 1090 -191
385 -235 460 -272 460 -9 0 -31 -9 -49 -20z m168 -1375 c87 -31 144 -97 157
-183 3 -20 9 -41 13 -47 16 -22 -7 -191 -39 -286 -71 -214 -175 -322 -325
-340 -98 -12 -191 32 -242 112 -43 69 -65 140 -71 230 -16 243 117 470 302
515 70 17 155 17 205 -1z m-950 -70 c42 -9 111 -63 138 -108 25 -39 49 -109
61 -173 19 -101 -32 -310 -95 -387 -125 -153 -208 -190 -338 -152 -244 71
-292 492 -83 722 84 92 192 125 317 98z"/>
<path d="M3719 8195 c-8 -9 -25 -17 -36 -20 -58 -10 -111 -68 -159 -169 -83
-174 -63 -358 48 -461 44 -42 82 -55 152 -55 108 0 205 115 241 285 27 129 11
283 -35 332 -9 11 -22 29 -28 40 -26 49 -150 81 -183 48z"/>
<path d="M2834 8140 c-86 -19 -170 -104 -210 -215 -25 -68 -29 -95 -29 -180 0
-120 13 -163 69 -223 75 -82 179 -105 261 -59 48 27 118 128 140 203 20 69 19
212 -2 288 -34 125 -135 206 -229 186z"/>
<path d="M5351 4423 c-16 -69 -42 -138 -88 -231 -36 -73 -63 -135 -62 -136 2
-2 29 -8 59 -14 238 -49 301 -72 350 -128 35 -40 38 -76 10 -104 -31 -31 -154
-90 -285 -136 -66 -23 -138 -49 -160 -56 -90 -33 -604 -108 -640 -94 -8 3 -29
0 -47 -5 -18 -6 -145 -14 -283 -19 -361 -13 -511 -33 -643 -86 -75 -30 -155
-91 -178 -137 -44 -84 -4 -196 83 -238 42 -20 62 -23 153 -22 107 2 176 16
380 78 150 46 170 48 600 51 419 3 662 17 815 48 39 8 113 22 165 31 235 41
314 59 451 105 242 80 361 172 437 338 21 47 26 72 26 147 1 82 -2 96 -32 157
-35 72 -160 208 -243 265 -64 44 -189 109 -256 133 -136 50 -436 129 -543 144
l-46 7 -23 -98z"/>
</g>
</svg>
