<?xml version="1.0" standalone="no"?>
<!DOCTYPE svg PUBLIC "-//W3C//DTD SVG 20010904//EN"
 "http://www.w3.org/TR/2001/REC-SVG-20010904/DTD/svg10.dtd">
<svg version="1.0" xmlns="http://www.w3.org/2000/svg"
 width="704.000000pt" height="1280.000000pt" viewBox="0 0 704.000000 1280.000000"
 preserveAspectRatio="xMidYMid meet">
<metadata>
Created by potrace 1.16, written by Peter Selinger 2001-2019
</metadata>
<g transform="translate(0.000000,1280.000000) scale(0.100000,-0.100000)"
fill="#000000" stroke="none">
<path d="M3912 9793 c-41 -20 -47 -32 -62 -113 -18 -93 -36 -166 -60 -235 -12
-33 -25 -78 -29 -100 -5 -22 -25 -94 -46 -160 -44 -140 -78 -296 -68 -306 5
-5 94 -4 198 2 303 15 374 21 384 33 4 6 11 29 14 51 6 40 6 42 -88 139 -52
55 -95 104 -95 109 0 5 15 7 34 4 23 -4 39 -1 46 8 6 7 26 16 45 19 18 4 35
12 38 19 5 15 -33 127 -65 192 -14 28 -28 63 -32 78 -12 49 -88 196 -124 237
-38 45 -43 46 -90 23z"/>
<path d="M2877 9690 c-41 -36 -70 -109 -97 -247 -63 -322 -77 -413 -82 -523
l-3 -65 195 -3 c107 -2 246 0 309 3 l113 7 -6 29 c-3 16 -42 115 -86 221 -116
276 -137 328 -151 373 -18 62 -88 196 -112 216 -30 25 -41 24 -80 -11z"/>
<path d="M3945 8825 c-148 -7 -295 -16 -325 -19 -61 -7 -351 -14 -625 -16
-118 -1 -172 -4 -157 -10 12 -5 22 -18 22 -29 0 -18 -16 -34 -114 -111 -24
-19 -47 -46 -50 -60 -3 -14 -1 -61 5 -105 6 -44 13 -113 16 -152 5 -69 4 -73
-15 -73 -11 0 -27 7 -36 15 -23 23 -60 18 -88 -12 -43 -47 -156 -244 -189
-328 -34 -89 -72 -242 -64 -256 3 -5 20 -12 38 -17 22 -6 33 -15 35 -30 4 -28
-19 -29 -62 -3 -38 23 -191 44 -254 35 -64 -9 -82 -20 -82 -51 l0 -26 88 6
c48 3 121 2 162 -1 l74 -7 2 -57 c1 -33 -3 -61 -10 -66 -6 -5 -63 -25 -126
-46 -133 -43 -137 -44 -142 -71 -5 -33 42 -30 169 10 115 36 143 38 143 11 0
-32 75 -141 146 -211 41 -40 74 -80 74 -87 0 -7 -9 -45 -19 -83 -69 -250 -130
-505 -151 -635 -12 -72 -20 -98 -61 -185 -116 -250 -210 -523 -280 -813 -68
-283 -83 -391 -83 -617 -1 -231 12 -304 85 -466 22 -52 43 -105 46 -119 2 -14
-7 -59 -20 -100 -21 -61 -24 -87 -20 -140 11 -129 111 -220 243 -220 30 0 38
5 47 28 9 23 11 24 12 6 1 -12 7 -26 14 -32 17 -15 138 -7 148 9 6 10 10 10
22 0 19 -15 201 -9 262 9 52 15 47 15 205 -10 119 -19 177 -22 485 -23 309 -1
367 2 497 21 147 21 148 21 190 2 56 -25 108 -26 109 -2 0 13 2 14 6 2 10 -25
25 -30 89 -30 48 0 63 4 68 17 6 14 8 14 19 1 17 -23 146 -33 154 -13 7 19 20
19 40 -1 12 -12 27 -14 67 -9 123 16 218 89 281 216 21 41 47 88 59 104 12 17
32 50 45 75 13 25 34 59 45 75 26 36 96 197 96 220 0 9 12 51 27 93 25 73 26
87 26 262 -1 303 -42 575 -117 778 -8 20 -22 62 -31 92 -44 148 -191 486 -230
530 -27 31 -134 258 -155 330 -22 77 -151 346 -284 595 -53 98 -75 150 -75
175 0 33 23 147 32 156 6 6 123 -34 196 -67 56 -25 67 -28 79 -15 47 47 -99
127 -267 146 -78 9 -97 19 -87 46 5 14 15 16 60 10 l53 -6 7 43 c4 23 9 57 12
75 l6 32 -65 0 c-36 0 -69 5 -72 10 -13 21 17 39 73 46 31 4 60 12 64 18 11
16 10 218 -2 333 -5 54 -14 157 -20 228 -18 199 -68 454 -103 518 -19 33 -24
37 -49 32 -16 -4 -58 -22 -95 -41 -36 -19 -68 -32 -71 -30 -2 3 5 21 17 41 21
36 28 66 14 64 -5 -1 -129 -7 -278 -14z m22 -584 c54 -39 81 -75 93 -125 6
-22 18 -56 27 -74 15 -29 15 -44 4 -138 -16 -141 -46 -219 -120 -315 -30 -39
-138 -80 -182 -69 -86 20 -150 63 -169 113 -7 18 -21 52 -32 77 -23 52 -39
200 -27 244 5 17 9 47 10 66 0 19 9 49 19 65 11 17 27 44 36 60 34 59 77 105
100 105 13 0 26 5 29 10 3 6 43 10 89 10 76 0 87 -3 123 -29z m-860 -43 c25
-24 52 -56 60 -73 8 -16 23 -45 34 -63 16 -24 22 -55 26 -131 11 -199 -54
-346 -182 -409 -66 -33 -85 -33 -145 -4 -74 36 -105 84 -125 187 -20 106 -20
289 0 346 54 152 95 188 213 189 72 0 73 -1 119 -42z"/>
<path d="M3770 8171 c-63 -12 -96 -40 -131 -110 -32 -62 -34 -72 -33 -161 2
-184 80 -302 200 -302 69 0 103 27 151 117 32 60 42 177 24 260 -15 66 -80
169 -120 189 -32 17 -37 17 -91 7z"/>
<path d="M2895 8142 c-42 -26 -52 -41 -75 -107 -22 -65 -25 -150 -10 -260 11
-76 57 -158 107 -190 33 -22 88 -15 136 16 45 29 104 127 113 186 17 117 -28
276 -98 338 -33 31 -45 35 -91 35 -33 0 -63 -7 -82 -18z"/>
<path d="M5331 4419 c-25 -112 -54 -187 -113 -290 -21 -36 -38 -69 -38 -72 0
-3 15 -9 33 -12 41 -6 75 -13 162 -30 160 -30 258 -91 258 -160 0 -60 -83
-104 -398 -215 -153 -53 -273 -77 -530 -106 -162 -18 -180 -19 -513 -33 -269
-10 -418 -23 -477 -40 -16 -5 -47 -12 -69 -16 -21 -3 -46 -10 -55 -15 -9 -5
-32 -16 -51 -25 -105 -47 -170 -129 -170 -213 0 -42 17 -92 31 -92 4 0 10 -9
14 -19 3 -11 27 -30 52 -42 39 -19 61 -22 147 -21 104 1 129 7 446 94 l115 32
430 2 c415 2 636 15 790 44 28 5 84 16 125 24 41 8 122 22 180 31 105 17 277
58 308 75 10 4 46 18 82 31 139 47 268 138 329 233 55 85 69 121 76 207 10
119 -23 194 -147 327 -106 115 -280 218 -458 271 -41 13 -100 31 -130 42 -87
30 -289 79 -350 86 l-56 5 -23 -103z"/>
</g>
</svg>
