<?xml version="1.0" standalone="no"?>
<!DOCTYPE svg PUBLIC "-//W3C//DTD SVG 20010904//EN"
 "http://www.w3.org/TR/2001/REC-SVG-20010904/DTD/svg10.dtd">
<svg version="1.0" xmlns="http://www.w3.org/2000/svg"
 width="704.000000pt" height="1280.000000pt" viewBox="0 0 704.000000 1280.000000"
 preserveAspectRatio="xMidYMid meet">
<metadata>
Created by potrace 1.16, written by Peter Selinger 2001-2019
</metadata>
<g transform="translate(0.000000,1280.000000) scale(0.100000,-0.100000)"
fill="#000000" stroke="none">
<path d="M3789 9646 c-41 -20 -67 -71 -74 -144 -4 -37 -13 -94 -21 -127 -8
-33 -22 -94 -30 -135 -9 -41 -29 -129 -45 -195 -16 -66 -39 -172 -50 -235 -11
-63 -26 -121 -34 -129 -8 -8 -33 -13 -63 -13 -28 1 -63 -5 -79 -13 -16 -8 -55
-15 -90 -15 l-61 0 -12 38 c-15 50 -55 140 -135 307 -55 115 -95 206 -95 218
0 24 -131 272 -153 289 -46 37 -88 15 -123 -62 -15 -34 -43 -171 -64 -313 -6
-37 -15 -86 -20 -110 -6 -23 -13 -216 -17 -437 l-5 -395 -76 -119 c-128 -200
-200 -373 -222 -529 -12 -78 -6 -92 41 -102 16 -4 29 -10 29 -15 0 -16 -25
-17 -60 -2 -26 11 -64 13 -150 10 -134 -5 -180 -22 -180 -65 0 -24 2 -25 38
-19 20 3 86 11 145 17 127 13 131 11 142 -66 l6 -50 -93 -39 c-171 -72 -228
-110 -202 -136 16 -16 71 0 203 59 63 28 115 50 117 48 1 -1 17 -33 37 -72 19
-38 58 -95 86 -125 28 -30 51 -60 51 -66 0 -12 -34 -146 -70 -279 -35 -129
-49 -190 -55 -240 -9 -70 -42 -177 -81 -260 -82 -177 -102 -231 -198 -520 -58
-174 -117 -398 -146 -550 -18 -97 -25 -402 -11 -507 17 -127 35 -187 92 -300
27 -54 49 -105 49 -113 0 -8 -11 -48 -25 -87 -51 -145 -21 -262 83 -331 61
-40 126 -47 359 -43 172 4 224 8 280 25 54 15 78 18 118 10 180 -32 313 -41
605 -43 298 -1 387 5 595 42 30 6 50 3 80 -12 32 -15 66 -20 170 -22 72 -1
163 -6 203 -10 49 -4 77 -3 86 5 11 9 16 9 21 0 11 -17 139 -2 196 22 64 28
121 90 167 184 40 80 85 154 142 231 35 48 79 150 127 294 42 129 52 266 34
497 -19 245 -32 309 -127 618 -60 192 -218 539 -263 575 -10 8 -25 33 -32 54
-8 22 -22 41 -31 44 -9 2 -18 16 -20 30 -4 38 -28 41 -28 3 0 -38 -18 -41 -22
-3 -2 16 -9 27 -18 27 -9 0 -16 -11 -18 -27 -5 -43 -22 -33 -22 13 l0 41 43
-3 c49 -4 49 -8 11 106 -45 140 -74 207 -136 320 -34 61 -79 144 -101 185 -22
41 -52 93 -67 115 -50 74 -62 105 -56 149 3 22 5 44 5 48 1 10 64 -10 175 -54
90 -36 101 -38 115 -23 21 20 7 43 -44 72 -52 29 -196 64 -234 57 -17 -4 -46
-3 -66 0 -30 6 -36 11 -33 29 3 20 8 22 60 19 l57 -2 6 37 c3 21 9 56 13 78
l7 40 65 2 c124 5 150 11 150 38 0 30 -9 33 -115 26 -84 -6 -89 -7 -95 -30 -5
-22 -15 -27 -75 -38 -59 -11 -72 -10 -84 2 -23 23 2 41 84 60 l73 16 7 74 c8
79 0 221 -15 270 -5 17 -19 109 -30 205 -21 172 -70 401 -108 510 -11 30 -35
89 -55 130 -55 118 -97 211 -97 216 0 4 -92 190 -206 419 -6 11 -33 65 -60
119 -55 113 -104 181 -133 189 -10 2 -30 0 -42 -7z m139 -1376 c9 -5 34 -17
55 -26 21 -9 51 -30 67 -46 29 -28 60 -109 60 -153 0 -12 3 -25 7 -29 4 -4 6
-42 5 -84 -8 -191 -128 -434 -243 -489 -105 -49 -139 -54 -228 -27 -78 23
-162 110 -188 195 -38 120 -26 332 22 405 8 13 15 30 15 37 0 22 118 145 165
173 70 41 222 67 263 44z m-933 -95 c76 -19 117 -56 159 -140 45 -92 54 -171
31 -289 -20 -111 -43 -167 -97 -246 -87 -128 -191 -172 -323 -139 -86 22 -171
122 -201 239 -26 100 -14 246 26 336 43 95 109 175 175 211 78 43 143 51 230
28z"/>
<path d="M3700 8195 c-90 -47 -126 -83 -174 -174 -54 -104 -71 -244 -39 -337
23 -68 54 -115 99 -149 32 -24 50 -30 105 -33 78 -5 109 8 169 70 80 84 121
198 121 338 -1 143 -49 248 -135 289 -54 27 -90 25 -146 -4z"/>
<path d="M2802 8125 c-39 -17 -152 -123 -152 -141 0 -8 -12 -39 -27 -71 -23
-51 -26 -72 -27 -163 -1 -96 2 -111 28 -168 30 -66 76 -110 139 -137 45 -19
127 -9 170 19 44 29 101 118 126 194 26 77 28 214 5 291 -39 133 -167 219
-262 176z"/>
<path d="M5347 4406 c-27 -107 -100 -274 -137 -314 -37 -39 -27 -46 90 -65
269 -42 401 -140 307 -227 -65 -61 -364 -174 -557 -210 -58 -11 -127 -24 -155
-30 -124 -24 -418 -49 -650 -56 -173 -4 -447 -29 -553 -49 -240 -46 -380 -204
-302 -342 43 -78 128 -109 270 -98 81 7 130 18 300 70 178 55 212 58 590 60
399 3 643 16 805 45 61 10 157 26 215 35 279 44 547 118 662 185 102 59 150
104 201 188 75 124 86 251 33 367 -27 60 -168 210 -256 272 -148 104 -512 235
-715 257 -33 4 -74 9 -91 12 l-31 6 -26 -106z"/>
</g>
</svg>
