<?xml version="1.0" standalone="no"?>
<!DOCTYPE svg PUBLIC "-//W3C//DTD SVG 20010904//EN"
 "http://www.w3.org/TR/2001/REC-SVG-20010904/DTD/svg10.dtd">
<svg version="1.0" xmlns="http://www.w3.org/2000/svg"
 width="704.000000pt" height="1280.000000pt" viewBox="0 0 704.000000 1280.000000"
 preserveAspectRatio="xMidYMid meet">
<metadata>
Created by potrace 1.16, written by Peter Selinger 2001-2019
</metadata>
<g transform="translate(0.000000,1280.000000) scale(0.100000,-0.100000)"
fill="#000000" stroke="none">
<path d="M3761 9628 c-17 -17 -33 -45 -36 -62 -32 -201 -80 -433 -126 -610 -6
-21 -19 -88 -29 -148 -11 -61 -24 -116 -31 -124 -7 -9 -31 -14 -61 -14 -27 0
-61 -6 -76 -14 -16 -8 -53 -13 -91 -12 l-64 2 -52 117 c-29 65 -57 123 -64
130 -6 6 -11 17 -11 24 0 7 -25 66 -56 131 -31 64 -69 150 -85 191 -41 101
-99 211 -126 239 -12 12 -33 22 -46 22 -25 0 -65 -38 -84 -80 -13 -28 -49
-197 -58 -275 -3 -27 -12 -90 -20 -140 -20 -125 -35 -410 -35 -640 l0 -195
-41 -67 c-23 -38 -56 -90 -73 -118 -88 -137 -155 -310 -176 -458 -13 -86 -8
-100 35 -111 30 -8 32 -22 4 -31 -13 -4 -27 -1 -38 9 -26 24 -246 23 -296 -1
-26 -13 -35 -23 -33 -38 3 -23 21 -24 200 -10 l107 8 11 -27 c5 -15 10 -43 10
-63 0 -30 -4 -36 -32 -46 -18 -7 -78 -34 -133 -62 -77 -39 -101 -55 -103 -72
-6 -41 33 -34 172 28 60 28 115 48 121 45 6 -2 25 -30 42 -62 18 -33 57 -84
87 -114 31 -30 56 -63 56 -74 0 -10 -27 -125 -61 -255 -34 -130 -63 -254 -66
-276 -6 -54 -40 -169 -69 -232 -90 -198 -102 -225 -120 -278 -7 -22 -25 -71
-40 -110 -80 -211 -178 -566 -203 -735 -44 -304 -13 -568 90 -773 49 -96 50
-106 23 -204 -37 -136 -29 -204 34 -282 44 -55 100 -80 173 -81 48 0 57 3 66
23 l10 22 7 -23 8 -24 191 5 c154 4 201 8 240 23 46 18 51 18 165 0 325 -50
785 -52 1109 -5 66 9 79 8 130 -11 34 -13 69 -19 85 -16 15 3 30 1 33 -4 3 -5
80 -9 179 -8 95 0 177 -1 182 -4 18 -11 136 13 182 37 80 42 122 89 173 196
30 62 53 96 131 197 40 53 110 208 129 287 7 28 19 64 28 80 13 25 16 66 16
240 -1 294 -21 458 -84 660 -16 50 -36 117 -46 150 -47 162 -183 474 -251 575
-20 30 -41 67 -46 83 -6 16 -17 27 -28 27 -13 0 -20 9 -22 27 -4 39 -28 42
-28 4 0 -38 -18 -41 -22 -3 -2 16 -9 27 -18 27 -9 0 -16 -11 -18 -27 -5 -43
-22 -33 -22 13 l0 41 42 -3 c43 -4 59 10 40 34 -5 7 -22 50 -37 97 -34 106
-280 594 -337 669 -19 24 -24 86 -9 109 6 10 21 9 77 -7 38 -10 89 -27 113
-36 56 -20 85 -17 89 11 2 16 -6 28 -30 42 -48 30 -192 61 -258 55 -61 -4 -86
6 -76 32 5 15 15 17 55 12 57 -7 58 -6 67 81 4 32 11 63 17 70 6 8 37 12 88
12 97 0 132 12 127 43 -3 21 -7 22 -78 19 -112 -4 -134 -9 -145 -35 -13 -28
-122 -54 -143 -33 -23 23 8 45 83 59 l70 12 5 70 c8 111 -8 300 -51 593 -13
91 -93 392 -119 446 -31 67 -77 176 -105 251 -50 130 -53 137 -217 455 -179
344 -205 372 -277 298z m202 -1377 c24 -11 60 -35 79 -55 33 -34 40 -49 69
-156 36 -134 -32 -381 -144 -521 -60 -74 -150 -119 -240 -119 -92 1 -149 32
-227 127 -29 35 -54 136 -56 228 -5 160 45 307 134 399 60 62 115 93 193 109
78 16 134 13 192 -12z m-887 -107 c58 -46 101 -136 116 -239 10 -68 9 -93 -6
-165 -27 -133 -101 -269 -182 -332 -85 -67 -246 -67 -325 -1 -45 38 -95 119
-115 189 -20 71 -14 230 12 309 18 54 90 175 104 175 5 0 21 14 37 30 55 60
124 81 237 74 73 -4 84 -8 122 -40z"/>
<path d="M3720 8201 c-14 -10 -36 -21 -50 -24 -45 -11 -116 -93 -148 -171 -77
-185 -59 -361 48 -459 65 -61 152 -75 225 -36 171 92 245 432 134 615 -46 75
-155 114 -209 75z"/>
<path d="M2788 8121 c-41 -21 -138 -110 -138 -127 0 -6 -11 -37 -25 -68 -17
-38 -27 -84 -31 -141 -16 -199 84 -345 236 -345 99 0 165 57 218 190 5 14 15
38 21 53 19 47 14 206 -9 280 -43 138 -167 210 -272 158z"/>
<path d="M5351 4409 c-29 -115 -62 -193 -118 -282 -28 -44 -39 -69 -31 -71 47
-14 140 -36 178 -41 25 -4 80 -21 123 -38 81 -31 137 -79 137 -117 0 -56 -125
-127 -365 -209 -163 -55 -291 -81 -545 -111 -284 -33 -381 -40 -557 -40 -472
0 -741 -88 -796 -261 -19 -59 -15 -91 21 -143 45 -65 88 -81 217 -80 113 2
141 7 380 79 141 42 195 46 612 50 398 3 635 15 778 41 262 46 320 57 410 75
404 83 632 229 691 444 30 108 13 217 -46 305 -40 59 -157 174 -233 228 -135
98 -559 244 -752 258 l-81 7 -23 -94z"/>
</g>
</svg>
