<?xml version="1.0" standalone="no"?>
<!DOCTYPE svg PUBLIC "-//W3C//DTD SVG 20010904//EN"
 "http://www.w3.org/TR/2001/REC-SVG-20010904/DTD/svg10.dtd">
<svg version="1.0" xmlns="http://www.w3.org/2000/svg"
 width="704.000000pt" height="1280.000000pt" viewBox="0 0 704.000000 1280.000000"
 preserveAspectRatio="xMidYMid meet">
<metadata>
Created by potrace 1.16, written by Peter Selinger 2001-2019
</metadata>
<g transform="translate(0.000000,1280.000000) scale(0.100000,-0.100000)"
fill="#000000" stroke="none">
<path d="M3035 9510 c-35 -14 -72 -62 -142 -186 -76 -133 -104 -189 -134 -269
-11 -29 -29 -65 -40 -80 -44 -55 -166 -354 -176 -430 -3 -22 -14 -52 -24 -67
-11 -14 -19 -37 -19 -50 0 -12 -11 -45 -25 -73 -13 -27 -25 -57 -25 -67 0 -16
66 -54 107 -62 47 -10 125 -36 145 -50 30 -21 14 -20 -102 5 -52 11 -114 22
-137 26 -47 6 -48 4 -57 -84 -2 -23 -7 -47 -11 -52 -3 -6 -8 -21 -11 -33 -4
-21 -4 -44 -2 -141 1 -15 -6 -35 -15 -45 -23 -26 -39 -104 -24 -119 7 -7 41
-20 77 -29 36 -9 70 -20 75 -24 6 -4 40 -10 78 -14 66 -6 67 -6 77 19 6 15 10
41 10 58 0 18 6 42 14 53 25 36 164 135 218 156 147 56 388 19 466 -71 13 -14
38 -49 57 -78 100 -150 17 -341 -155 -354 -39 -4 -46 -1 -55 19 -11 25 -20 28
-85 37 -25 3 -65 10 -90 14 -70 14 -211 33 -255 35 l-40 1 -3 -46 c-2 -34 2
-49 15 -62 12 -10 79 -27 180 -46 89 -16 171 -34 182 -40 11 -6 33 -11 50 -11
16 0 33 -4 36 -10 3 -5 18 -10 33 -11 l27 -1 -30 -9 c-53 -16 -359 17 -520 56
-55 13 -113 26 -130 28 -54 8 -105 39 -105 63 0 26 -10 30 -94 40 -63 7 -79
-2 -71 -41 2 -11 6 -36 9 -55 8 -50 36 -65 82 -45 20 8 58 15 85 15 59 0 64
-18 20 -67 -37 -40 -55 -49 -111 -57 -44 -7 -107 -33 -144 -61 -16 -12 -17
-20 -10 -46 13 -45 51 -69 125 -79 35 -5 78 -13 94 -19 37 -13 174 -47 288
-72 34 -7 54 -16 49 -21 -6 -6 -54 -1 -118 12 -270 54 -360 73 -369 80 -5 4
-46 20 -89 35 -113 39 -151 32 -318 -53 -73 -37 -142 -69 -153 -70 -11 -2 -49
-25 -85 -50 -35 -26 -78 -55 -95 -66 -32 -19 -125 -112 -125 -124 0 -4 -25
-32 -55 -62 -30 -30 -55 -62 -55 -72 0 -10 -6 -21 -14 -24 -10 -4 -16 -36 -21
-120 l-7 -114 43 -67 c24 -37 52 -74 61 -83 10 -9 20 -29 24 -46 6 -34 -14
-60 -79 -101 -60 -38 -111 -92 -129 -138 -9 -22 -26 -64 -38 -94 -40 -100 -14
-235 61 -311 45 -44 46 -68 6 -104 -19 -17 -44 -49 -56 -72 l-21 -41 19 -44
c11 -24 29 -52 40 -61 26 -22 27 -68 4 -90 -62 -59 -73 -83 -73 -153 0 -67 17
-108 74 -172 l41 -47 2 -98 c1 -54 8 -108 14 -120 34 -64 175 -216 224 -240
43 -23 91 -57 139 -100 17 -16 34 -28 39 -28 5 0 21 -8 35 -19 119 -84 345
-150 617 -182 44 -5 103 -13 130 -18 140 -26 255 -41 395 -52 85 -6 160 -16
165 -21 14 -15 -329 -2 -470 17 -60 8 -153 20 -205 26 -52 5 -120 17 -151 25
-31 8 -71 14 -89 14 -32 0 -32 0 -28 -45 9 -89 74 -147 191 -171 70 -15 72
-15 86 6 12 18 16 19 30 6 9 -7 39 -17 67 -21 41 -5 54 -3 68 10 13 13 20 14
31 5 22 -19 245 -6 330 19 40 12 83 19 100 15 16 -3 41 -7 55 -8 14 -2 54 -8
90 -14 36 -6 175 -16 310 -22 244 -10 376 -6 604 21 83 9 104 9 125 -3 14 -8
46 -21 70 -28 40 -13 44 -13 58 6 13 18 15 18 27 2 10 -14 28 -18 76 -18 55 0
63 2 67 21 l6 22 17 -23 c13 -18 29 -23 78 -26 54 -3 63 -1 77 19 15 21 17 21
29 5 10 -14 28 -18 77 -18 78 1 145 30 174 77 11 18 30 36 43 39 12 3 26 12
30 19 10 17 185 103 257 126 66 21 149 62 180 89 25 22 108 60 115 53 3 -2
-12 -18 -32 -35 -21 -16 -38 -34 -38 -38 0 -4 29 -22 65 -39 109 -53 119 -100
36 -170 -109 -91 -419 -193 -721 -237 -267 -38 -362 -46 -575 -45 -141 1 -188
-2 -440 -29 -301 -32 -473 -133 -478 -282 -2 -44 3 -62 25 -95 39 -59 84 -77
203 -81 106 -4 219 14 395 65 193 56 183 55 580 58 381 3 583 14 745 41 182
30 202 33 280 44 222 30 514 110 615 167 73 42 144 104 192 168 60 79 66 91
84 179 14 69 14 81 -1 138 -22 89 -68 161 -155 245 -108 105 -121 113 -310
202 -41 20 -77 38 -80 42 -13 15 -40 16 -65 3 -15 -8 -30 -13 -32 -11 -9 10
30 76 67 112 65 63 81 95 87 182 4 47 13 88 23 103 9 14 31 46 48 72 19 27 32
59 32 77 0 70 -61 190 -96 191 -7 0 -15 7 -18 16 -3 8 -10 12 -16 9 -14 -9
-12 8 5 41 8 16 15 35 15 42 0 14 -36 16 -45 2 -3 -5 -16 -10 -28 -10 -28 0
-140 -53 -169 -80 -13 -11 -54 -30 -93 -41 -38 -11 -106 -31 -150 -44 -124
-37 -241 -64 -349 -81 -55 -8 -154 -26 -220 -40 -72 -14 -193 -29 -297 -36
-173 -11 -223 -8 -202 13 16 16 78 28 231 44 75 9 151 20 167 25 17 5 84 18
150 29 318 54 574 120 825 212 58 22 116 39 127 39 12 0 24 4 27 9 3 5 14 7
24 4 12 -3 22 3 29 19 16 37 6 49 -35 42 -31 -5 -35 -4 -24 7 19 20 15 26 -18
21 -27 -4 -29 -2 -24 23 3 16 9 36 14 46 7 12 6 19 -5 23 -29 11 -15 44 40 91
78 66 85 84 85 209 0 113 -8 142 -52 194 -15 18 -28 39 -28 48 0 13 -203 154
-222 154 -17 0 -7 36 13 48 12 7 18 16 15 19 -3 3 12 26 34 49 47 51 50 71 13
76 l-28 3 33 20 c27 16 32 25 32 57 0 20 5 40 10 43 14 9 12 43 -2 48 -15 4
-124 -25 -156 -42 -11 -6 -29 -11 -39 -11 -19 0 51 50 120 85 21 11 45 28 54
37 14 16 14 20 -1 43 -12 17 -24 25 -39 23 -18 -2 -21 1 -19 22 2 18 -11 41
-48 83 -29 31 -56 57 -61 57 -5 0 -22 12 -37 28 -28 28 -118 92 -130 92 -4 0
-29 16 -56 35 -27 19 -73 44 -103 55 -29 11 -76 31 -103 45 -27 14 -58 25 -70
25 -11 0 -20 3 -20 8 0 12 -50 31 -66 25 -8 -3 -20 -1 -27 5 -6 5 -37 15 -67
22 -30 7 -63 16 -72 21 -9 5 -36 12 -58 15 -71 12 -73 20 -77 309 -5 363 -15
475 -67 750 -15 82 -24 119 -50 215 -9 30 -25 93 -37 140 -12 47 -25 94 -29
105 -5 11 -11 34 -15 50 -6 32 -51 159 -66 187 -5 10 -9 27 -9 39 0 11 -6 35
-14 52 -8 18 -30 66 -48 107 -19 41 -51 97 -71 123 -20 27 -40 61 -44 75 -3
15 -19 48 -35 75 -15 26 -28 51 -28 55 0 4 -9 15 -19 24 -70 60 -117 63 -173
10 -32 -30 -44 -55 -79 -166 -23 -72 -52 -153 -64 -181 -12 -27 -30 -81 -40
-119 -9 -38 -23 -79 -31 -91 -8 -12 -30 -82 -48 -156 -19 -74 -39 -147 -45
-162 -6 -16 -9 -32 -6 -37 12 -20 -32 -28 -179 -31 l-160 -4 -13 63 c-7 34
-27 104 -44 155 -17 51 -32 115 -34 142 -2 28 -17 97 -34 154 -17 58 -31 112
-31 121 0 22 -40 120 -57 141 -7 8 -13 35 -13 58 0 101 -93 176 -175 141z
m1288 -1555 c78 -16 136 -47 191 -103 69 -70 88 -110 106 -218 13 -80 13 -82
-15 -158 -29 -79 -60 -114 -90 -103 -12 5 -11 13 6 52 17 39 20 58 14 123 -3
42 -11 91 -18 107 -24 65 -112 173 -141 175 -5 0 -17 7 -27 16 -24 22 -134 43
-195 37 -74 -7 -174 -59 -199 -103 -26 -45 -26 -132 -1 -180 11 -19 54 -68 97
-109 44 -41 79 -81 79 -89 0 -36 -119 29 -197 107 -48 48 -63 99 -63 213 0
118 46 181 168 229 38 15 66 18 152 14 58 -2 118 -6 133 -10z m-1683 -764
c105 -15 238 -45 350 -79 102 -32 76 -41 -45 -17 -44 9 -96 18 -115 21 -155
21 -372 67 -390 81 -14 12 27 19 68 13 26 -4 85 -13 132 -19z m-567 -225 c41
-19 94 -38 118 -41 24 -4 48 -9 53 -13 6 -3 105 -30 221 -59 304 -77 321 -81
421 -101 50 -10 101 -26 114 -35 24 -17 24 -17 -35 -17 -69 0 -112 9 -95 20 6
4 -26 10 -72 14 -107 8 -433 83 -513 117 -11 5 -40 16 -65 24 -24 9 -54 24
-65 34 -11 9 -47 26 -80 36 -33 11 -64 23 -69 27 -6 4 -18 8 -28 8 -10 0 -18
5 -18 10 0 18 38 10 113 -24z m-313 -416 c214 -60 239 -69 304 -109 42 -25 54
-37 41 -39 -9 -2 -27 1 -39 6 -11 6 -95 35 -186 65 -209 69 -297 100 -306 110
-17 16 50 5 186 -33z m710 -93 c30 -8 98 -22 150 -32 123 -22 311 -62 375 -79
28 -8 76 -17 109 -21 39 -5 55 -10 48 -17 -11 -11 -83 -4 -297 32 -71 12 -146
23 -165 26 -86 11 -219 36 -260 48 -84 26 -145 41 -155 38 -7 -2 -7 0 0 7 21
21 107 20 195 -2z m-486 -51 c45 -17 78 -23 101 -19 23 4 63 -3 117 -20 46
-14 146 -33 223 -42 77 -9 142 -18 146 -21 8 -5 169 -33 254 -44 101 -13 175
-30 175 -41 0 -9 -122 -3 -240 12 -41 6 -113 14 -160 19 -240 26 -349 44 -486
84 -168 49 -212 65 -218 82 -8 20 11 18 88 -10z m356 -231 c41 -8 124 -21 183
-30 120 -18 137 -22 137 -37 0 -15 -262 9 -333 30 -18 6 -66 18 -107 27 -41
10 -95 27 -119 38 -70 33 -22 39 79 10 47 -13 119 -30 160 -38z m-170 -104
c80 -17 201 -40 270 -52 69 -12 150 -30 180 -40 31 -10 87 -19 125 -20 39 -1
84 -8 101 -15 16 -7 69 -16 117 -20 48 -4 90 -11 94 -17 4 -6 -31 -7 -103 -2
-60 4 -155 9 -212 11 -57 2 -112 9 -123 14 -11 6 -57 18 -102 26 -280 51 -469
102 -521 140 -25 19 -43 22 174 -25z m305 -677 c39 -12 121 -30 183 -40 62 -9
115 -20 118 -25 3 -5 23 -9 44 -9 21 0 42 -5 46 -11 5 -8 -3 -10 -27 -6 -19 3
-65 9 -104 12 -191 18 -485 80 -493 105 -7 19 151 2 233 -26z m3408 -70 c6 -7
-46 -36 -165 -95 -83 -40 -323 -115 -433 -134 -16 -2 -46 -9 -65 -15 -118 -34
-504 -90 -624 -90 -101 0 -86 16 27 29 56 7 129 18 162 26 69 16 295 61 404
81 41 8 114 25 163 39 49 14 119 32 156 39 105 22 184 46 224 68 30 17 112 51
139 57 3 0 9 -2 12 -5z m-3887 -229 c160 -49 321 -89 404 -100 30 -4 64 -11
75 -15 11 -4 47 -11 80 -14 33 -4 94 -14 135 -22 41 -9 133 -22 205 -30 159
-18 255 -35 255 -46 0 -4 -58 -8 -129 -8 -117 0 -167 5 -456 50 -70 10 -151
26 -215 40 -25 6 -76 16 -115 24 -62 13 -161 45 -235 77 -128 56 -160 72 -160
81 0 12 0 12 156 -37z m524 0 c158 -19 213 -30 249 -51 24 -14 20 -14 -59 -10
-47 3 -101 8 -120 11 -19 3 -51 8 -70 10 -80 12 -230 49 -230 57 0 10 33 7
230 -17z m3294 -84 c17 -19 16 -20 -31 -41 -26 -12 -84 -39 -128 -60 -44 -21
-96 -43 -115 -49 -62 -18 -283 -59 -355 -66 -38 -3 -88 -11 -110 -17 -47 -12
-167 -30 -400 -59 -166 -20 -255 -20 -306 0 -22 9 -20 10 17 10 64 1 515 72
834 132 98 18 330 86 445 129 28 11 68 24 90 29 22 5 40 9 41 10 0 1 9 -8 18
-18z m-3739 -107 c33 -8 89 -16 125 -20 36 -3 85 -14 110 -24 51 -21 246 -55
400 -70 100 -10 173 -22 340 -55 41 -8 89 -17 105 -19 80 -12 -296 6 -400 19
-280 33 -566 87 -619 116 -10 6 -49 14 -87 18 -75 8 -87 14 -71 34 7 8 8 18 4
22 -4 5 2 5 13 0 11 -4 47 -14 80 -21z m3653 -46 c-6 -24 -37 -46 -77 -53 -24
-4 -45 -14 -51 -24 -9 -18 -90 -46 -175 -62 -57 -10 -84 -17 -94 -23 -5 -3
-37 -10 -72 -16 -35 -5 -95 -14 -134 -20 -38 -6 -103 -11 -142 -12 -40 0 -71
-3 -69 -7 7 -11 -52 -29 -114 -35 -30 -3 -112 -8 -182 -12 -106 -5 -128 -4
-128 8 0 19 138 50 435 99 99 16 198 34 220 39 74 16 310 57 367 64 32 4 60
12 63 17 4 5 17 9 30 9 28 0 75 20 75 32 0 4 11 8 25 8 14 0 24 -5 23 -12z
m-180 -200 c-3 -7 -27 -15 -54 -18 -27 -3 -60 -13 -74 -22 -14 -9 -61 -24
-105 -33 -44 -9 -118 -25 -165 -36 -119 -28 -107 -26 -305 -43 -99 -9 -218
-20 -265 -25 -116 -13 -140 -13 -118 0 36 20 146 41 340 64 175 20 356 50 663
109 92 18 87 18 83 4z m-3358 -30 c75 -19 305 -60 410 -73 30 -4 85 -15 121
-26 36 -10 94 -19 128 -19 34 0 78 -7 98 -15 19 -8 61 -16 92 -16 l56 -1 -55
-9 c-52 -8 -164 -1 -335 21 -85 11 -375 64 -430 79 -22 5 -53 13 -70 16 -16 4
-43 13 -60 20 -16 7 -56 21 -87 30 -32 9 -58 19 -58 22 0 9 109 -8 190 -29z
m-210 -491 c30 -6 57 -11 60 -12 3 -1 30 -5 60 -9 30 -4 64 -11 75 -15 11 -5
43 -13 70 -19 68 -14 137 -33 155 -42 22 -11 79 -22 120 -25 36 -2 151 -18
251 -35 30 -6 74 -10 97 -10 22 0 44 -5 48 -11 9 -15 -295 -6 -346 11 -19 6
-134 26 -255 45 -288 45 -391 75 -475 135 -17 12 46 7 140 -13z"/>
<path d="M2942 7886 c-62 -16 -109 -51 -175 -132 -55 -68 -61 -109 -17 -130
35 -17 445 -94 498 -94 32 0 49 6 67 25 14 13 25 31 25 40 0 8 9 31 19 51 20
36 20 37 1 74 -25 49 -85 119 -126 149 -29 21 -47 24 -136 27 -61 1 -125 -3
-156 -10z"/>
<path d="M2300 7660 c0 -5 4 -10 8 -10 4 0 13 -13 19 -29 10 -27 14 -29 92
-36 75 -7 83 -9 92 -32 5 -13 9 -37 9 -52 0 -26 4 -28 78 -45 42 -10 86 -20
96 -23 17 -5 18 -1 12 36 -14 87 -56 136 -123 144 -15 2 -46 9 -68 15 -64 17
-181 42 -199 42 -9 0 -16 -4 -16 -10z"/>
</g>
</svg>
