<?xml version="1.0" standalone="no"?>
<!DOCTYPE svg PUBLIC "-//W3C//DTD SVG 20010904//EN"
 "http://www.w3.org/TR/2001/REC-SVG-20010904/DTD/svg10.dtd">
<svg version="1.0" xmlns="http://www.w3.org/2000/svg"
 width="704.000000pt" height="1280.000000pt" viewBox="0 0 704.000000 1280.000000"
 preserveAspectRatio="xMidYMid meet">
<metadata>
Created by potrace 1.16, written by Peter Selinger 2001-2019
</metadata>
<g transform="translate(0.000000,1280.000000) scale(0.100000,-0.100000)"
fill="#000000" stroke="none">
<path d="M3909 9777 c-37 -25 -51 -57 -87 -202 -19 -74 -65 -245 -92 -340 -6
-22 -24 -83 -40 -135 -16 -52 -34 -129 -41 -170 -7 -41 -17 -81 -22 -88 -8
-10 -7 -16 4 -23 9 -5 -43 -9 -138 -9 -84 0 -156 0 -160 0 -5 -1 -11 14 -14
32 -3 18 -18 62 -31 98 -14 36 -40 102 -57 147 -17 45 -39 101 -50 125 -67
148 -103 234 -121 289 -12 35 -30 75 -41 90 -10 15 -19 32 -19 38 0 18 -61 81
-79 81 -9 0 -32 -12 -50 -27 -27 -24 -37 -45 -62 -133 -16 -58 -38 -154 -49
-215 -11 -60 -24 -126 -30 -145 -20 -62 -58 -513 -60 -695 l-1 -100 -44 -70
c-24 -38 -58 -93 -75 -121 -16 -29 -37 -57 -45 -64 -21 -18 -80 -125 -98 -180
-9 -25 -23 -63 -32 -84 -9 -21 -25 -78 -35 -125 -21 -94 -15 -116 27 -108 25
5 49 -16 38 -33 -10 -17 -44 -11 -76 13 -28 20 -41 22 -164 22 -112 0 -137 -3
-151 -17 -9 -9 -14 -23 -11 -32 5 -13 32 -16 164 -18 l158 -3 3 -56 c2 -38 -1
-59 -11 -67 -7 -6 -65 -27 -128 -47 -127 -40 -162 -58 -157 -83 6 -29 58 -24
183 18 65 22 122 40 127 40 4 0 16 -20 27 -45 29 -66 74 -127 147 -199 77 -76
76 -58 19 -261 -38 -133 -105 -414 -130 -545 -9 -47 -31 -116 -47 -155 -278
-636 -417 -1254 -368 -1635 12 -92 51 -220 96 -313 40 -85 41 -102 10 -198
-20 -61 -23 -85 -17 -134 14 -120 88 -198 208 -218 58 -10 66 -10 78 6 11 15
13 16 19 2 4 -11 22 -15 75 -15 38 0 73 5 76 10 4 7 14 6 27 -1 31 -17 196 -3
269 21 55 19 63 19 131 5 131 -26 239 -35 493 -41 245 -6 368 0 618 29 97 12
112 12 145 -3 22 -10 66 -17 106 -18 37 -1 76 -4 86 -7 9 -3 30 -1 45 5 20 7
31 8 39 0 14 -14 149 -13 164 2 8 8 15 8 27 -2 21 -17 129 -6 188 20 69 31
128 94 160 174 16 39 42 87 58 107 16 20 29 40 29 44 0 4 10 21 23 38 48 69
98 183 155 358 28 85 32 112 36 240 4 137 -12 375 -33 502 -24 139 -120 454
-203 662 -35 87 -136 289 -155 310 -30 33 -120 225 -137 295 -18 75 -119 285
-261 545 -88 160 -99 185 -99 230 0 60 14 154 24 160 11 7 90 -20 177 -60 88
-40 116 -42 121 -8 2 16 -7 29 -35 47 -53 35 -200 86 -248 86 -64 0 -86 10
-83 34 3 22 28 26 79 12 25 -7 26 -5 33 40 3 27 12 63 18 81 l12 33 113 0 c94
0 115 3 120 16 3 8 -1 23 -10 31 -14 15 -87 19 -198 14 -10 -1 -19 -13 -22
-31 -6 -29 -9 -30 -62 -31 -30 -1 -61 -2 -67 -3 -7 -1 -14 9 -16 21 -3 23 33
40 98 46 l35 3 -1 139 c-1 212 -30 529 -65 715 -25 130 -74 293 -94 310 -10 8
-27 9 -57 4 -56 -11 -58 -11 -60 1 -2 6 17 12 42 15 38 4 46 9 48 29 4 27 -22
117 -48 171 -10 19 -21 51 -25 70 -4 19 -13 42 -20 50 -7 8 -16 31 -20 50 -3
19 -29 90 -56 158 -27 68 -57 144 -65 170 -21 62 -70 159 -101 200 -29 38 -57
41 -104 9z m54 -1537 c47 -28 97 -99 97 -137 0 -16 7 -38 15 -49 31 -41 11
-242 -37 -372 -45 -120 -153 -187 -263 -162 -56 13 -155 81 -155 108 0 9 -10
37 -21 62 -30 66 -50 198 -39 264 14 84 30 138 51 164 10 14 19 30 19 36 0 17
91 103 115 109 11 3 56 5 100 3 62 -2 88 -8 118 -26z m-886 -20 c36 -22 83
-81 118 -150 44 -87 50 -211 16 -338 -14 -51 -79 -172 -92 -172 -6 0 -22 -9
-37 -20 -48 -34 -117 -52 -160 -41 -45 13 -119 81 -128 119 -3 15 -12 53 -20
85 -18 77 -18 287 0 348 42 138 95 186 206 188 48 1 73 -4 97 -19z"/>
<path d="M3753 8167 c-93 -26 -143 -121 -146 -275 -2 -90 21 -177 58 -217 14
-14 25 -29 25 -33 1 -15 54 -44 90 -49 77 -11 133 24 178 111 24 46 26 62 26
161 1 103 -1 114 -31 175 -17 36 -47 82 -68 103 -40 40 -59 44 -132 24z"/>
<path d="M2871 8113 c-41 -40 -51 -57 -60 -104 -25 -120 -9 -283 32 -343 60
-87 103 -109 169 -87 43 14 110 83 137 140 41 87 24 241 -42 370 -21 42 -76
71 -134 71 -50 0 -56 -3 -102 -47z"/>
<path d="M5323 4396 c-21 -86 -46 -154 -82 -225 -28 -55 -51 -105 -51 -110 0
-5 19 -12 43 -16 153 -24 328 -83 374 -127 29 -27 31 -87 6 -111 -31 -27 -157
-97 -176 -97 -10 0 -39 -9 -65 -19 -208 -85 -358 -122 -587 -145 -33 -4 -94
-11 -135 -16 -113 -14 -226 -21 -425 -25 -308 -6 -526 -36 -665 -90 -68 -27
-146 -91 -170 -139 -38 -80 -23 -155 44 -213 51 -46 94 -56 205 -50 94 5 151
17 356 78 169 50 244 56 665 57 466 2 582 10 845 59 44 8 112 21 150 28 426
77 617 164 750 340 66 89 81 120 89 200 7 62 -9 158 -34 206 -18 33 -181 204
-233 244 -98 75 -295 161 -492 215 -16 5 -55 16 -85 25 -78 22 -237 55 -269
55 -27 0 -28 -4 -58 -124z"/>
</g>
</svg>
