<?xml version="1.0" standalone="no"?>
<!DOCTYPE svg PUBLIC "-//W3C//DTD SVG 20010904//EN"
 "http://www.w3.org/TR/2001/REC-SVG-20010904/DTD/svg10.dtd">
<svg version="1.0" xmlns="http://www.w3.org/2000/svg"
 width="704.000000pt" height="1280.000000pt" viewBox="0 0 704.000000 1280.000000"
 preserveAspectRatio="xMidYMid meet">
<metadata>
Created by potrace 1.16, written by Peter Selinger 2001-2019
</metadata>
<g transform="translate(0.000000,1280.000000) scale(0.100000,-0.100000)"
fill="#000000" stroke="none">
<path d="M3913 9788 c-43 -30 -61 -70 -79 -175 -9 -48 -22 -102 -30 -121 -8
-19 -23 -69 -33 -111 -10 -42 -37 -140 -60 -218 -22 -78 -48 -174 -56 -215
-19 -92 -33 -126 -54 -132 -9 -3 -74 -2 -145 2 l-130 7 -12 45 c-10 41 -92
251 -134 345 -50 110 -94 217 -116 276 -26 71 -82 171 -114 204 -16 15 -25 17
-47 9 -44 -15 -79 -86 -112 -224 -79 -336 -95 -463 -117 -952 l-6 -137 -92
-136 c-151 -226 -187 -300 -231 -480 -23 -93 -24 -101 -8 -112 9 -7 25 -13 35
-13 9 0 22 -9 28 -20 18 -34 -16 -36 -75 -7 -46 24 -65 27 -161 29 -121 2
-150 -4 -159 -32 -12 -39 2 -43 125 -35 64 3 133 4 153 0 35 -7 36 -8 43 -62
5 -41 3 -58 -7 -68 -8 -7 -61 -27 -119 -45 -137 -42 -162 -55 -158 -83 3 -19
9 -22 43 -20 23 2 88 19 145 38 57 19 107 35 111 35 5 0 17 -20 28 -45 29 -66
71 -122 146 -197 l67 -66 -48 -184 c-70 -272 -92 -369 -121 -518 -20 -108 -35
-158 -77 -250 -146 -320 -270 -730 -326 -1070 -55 -341 -31 -597 79 -832 36
-77 37 -94 11 -168 -40 -113 -20 -242 46 -304 60 -55 187 -91 218 -61 12 13
16 12 27 -1 10 -12 27 -14 78 -10 36 2 72 5 79 4 140 -5 242 3 295 25 21 9 43
14 50 12 6 -2 30 -6 52 -9 22 -3 67 -10 100 -16 199 -33 758 -37 955 -6 135
21 180 22 217 3 36 -19 74 -22 89 -7 8 8 15 6 24 -5 14 -17 115 -21 140 -5 8
5 17 5 20 1 3 -4 35 -11 72 -15 60 -6 70 -4 88 14 15 15 20 16 20 6 0 -23 34
-28 101 -16 126 23 212 92 272 218 18 37 52 95 75 129 23 34 42 66 42 72 0 5
11 22 24 38 13 15 27 39 31 53 4 14 20 59 35 100 71 188 79 227 84 385 4 161
-13 390 -39 521 -29 144 -122 448 -186 610 -43 109 -127 283 -165 340 -48 73
-108 204 -148 325 -30 94 -170 382 -275 569 -80 141 -85 155 -72 217 6 31 11
69 11 84 0 15 4 30 9 33 12 8 149 -37 212 -70 59 -30 82 -26 77 13 -2 20 -14
34 -43 50 -56 32 -157 61 -239 70 -49 6 -72 13 -80 26 -15 25 9 38 54 31 19
-4 39 -7 44 -8 6 0 15 26 22 59 19 100 11 94 137 97 108 3 112 4 115 25 5 32
-25 40 -130 35 -86 -4 -87 -4 -93 -33 -7 -30 -8 -31 -91 -31 -48 -1 -65 7 -58
27 7 17 57 35 99 35 18 0 35 6 37 13 8 21 2 276 -10 437 -18 248 -71 551 -111
633 -12 24 -21 48 -21 54 0 18 -75 242 -100 298 -12 28 -23 61 -25 75 -2 14
-33 93 -68 175 -35 83 -69 167 -76 187 -36 109 -128 258 -159 258 -9 0 -32
-10 -49 -22z m36 -1538 c57 -28 121 -114 121 -162 0 -13 7 -32 15 -42 19 -26
19 -125 0 -208 -44 -192 -102 -278 -210 -312 -43 -13 -64 -15 -83 -8 -15 6
-39 13 -53 16 -14 3 -45 21 -69 40 -35 28 -48 48 -71 111 -42 114 -50 196 -33
308 12 73 22 102 49 142 43 65 95 114 131 125 56 16 162 11 203 -10z m-868
-33 c19 -12 56 -55 83 -95 43 -65 50 -82 62 -162 26 -175 -32 -344 -142 -417
-46 -30 -62 -35 -116 -36 -51 -1 -70 3 -100 23 -46 31 -61 57 -86 150 -17 61
-20 101 -19 215 2 130 4 144 31 201 46 103 102 142 202 143 37 1 60 -5 85 -22z"/>
<path d="M3757 8169 c-57 -13 -80 -33 -116 -99 -81 -152 -31 -398 94 -459 85
-42 176 -2 223 97 24 52 27 68 26 172 0 105 -2 120 -27 172 -15 31 -45 72 -67
92 -42 38 -62 42 -133 25z"/>
<path d="M2899 8146 c-34 -20 -79 -86 -90 -133 -21 -92 -3 -299 30 -338 10
-11 25 -33 35 -48 24 -39 75 -61 121 -53 49 10 120 76 149 140 53 115 21 312
-65 400 -34 36 -43 40 -96 43 -38 2 -67 -2 -84 -11z"/>
<path d="M5346 4508 c-2 -7 -9 -42 -16 -78 -16 -91 -44 -170 -96 -278 -25 -52
-44 -95 -42 -97 2 -1 65 -16 140 -33 152 -34 249 -72 279 -110 11 -15 19 -40
19 -63 0 -31 -5 -40 -32 -57 -72 -44 -115 -65 -168 -83 -30 -10 -107 -37 -170
-60 -133 -47 -192 -61 -385 -88 -308 -43 -411 -51 -675 -57 -489 -9 -739 -80
-809 -228 -44 -95 -20 -173 71 -229 40 -25 59 -30 120 -31 115 -2 183 12 423
83 140 42 247 50 673 50 221 0 405 2 409 4 5 3 49 7 98 11 117 8 240 28 515
82 333 66 450 108 588 211 199 151 259 339 166 525 -27 53 -164 197 -239 250
-85 61 -264 145 -370 173 -55 15 -113 35 -130 43 -16 9 -66 21 -110 29 -44 7
-109 19 -145 27 -80 19 -110 20 -114 4z"/>
</g>
</svg>
