<?xml version="1.0" standalone="no"?>
<!DOCTYPE svg PUBLIC "-//W3C//DTD SVG 20010904//EN"
 "http://www.w3.org/TR/2001/REC-SVG-20010904/DTD/svg10.dtd">
<svg version="1.0" xmlns="http://www.w3.org/2000/svg"
 width="704.000000pt" height="1280.000000pt" viewBox="0 0 704.000000 1280.000000"
 preserveAspectRatio="xMidYMid meet">
<metadata>
Created by potrace 1.16, written by Peter Selinger 2001-2019
</metadata>
<g transform="translate(0.000000,1280.000000) scale(0.100000,-0.100000)"
fill="#000000" stroke="none">
<path d="M3760 9633 c-26 -24 -32 -39 -41 -98 -6 -38 -14 -92 -18 -120 -10
-56 -96 -441 -105 -465 -3 -8 -15 -68 -26 -134 -10 -65 -25 -124 -31 -132 -7
-9 -31 -14 -61 -14 -27 0 -61 -6 -76 -14 -17 -9 -51 -13 -91 -11 -56 2 -66 5
-77 26 -7 13 -13 29 -14 36 0 6 -24 62 -54 125 -112 234 -166 349 -166 355 0
25 -124 269 -152 300 -29 31 -54 34 -82 9 -34 -29 -51 -79 -80 -236 -57 -314
-68 -438 -68 -804 l0 -281 -53 -85 c-150 -239 -224 -409 -246 -569 -10 -72 -4
-86 42 -96 16 -4 29 -11 29 -17 0 -7 -14 -8 -42 -2 -24 5 -97 9 -163 8 -137 0
-189 -17 -183 -57 3 -25 0 -25 172 -7 136 14 140 13 150 -61 8 -52 4 -57 -62
-82 -77 -30 -210 -97 -222 -112 -10 -12 -10 -18 0 -30 16 -19 56 -10 156 36
45 21 98 45 118 53 l36 15 26 -47 c43 -75 71 -115 114 -159 22 -23 40 -49 40
-57 0 -8 -20 -88 -43 -178 -42 -154 -62 -237 -107 -441 -11 -49 -39 -130 -63
-180 -38 -82 -56 -125 -127 -307 -33 -84 -110 -328 -150 -477 -57 -211 -80
-372 -80 -573 0 -248 23 -357 110 -530 l43 -85 -23 -75 c-52 -176 -30 -271 78
-343 61 -40 126 -48 362 -43 175 3 223 7 260 22 53 21 119 21 215 -1 98 -21
466 -38 680 -31 178 6 405 28 456 45 15 5 32 5 40 0 8 -5 36 -16 63 -24 38
-11 52 -12 63 -3 11 9 19 9 33 0 12 -7 65 -12 132 -13 62 -1 131 -2 152 -2 22
-1 41 4 44 11 2 8 10 7 27 -4 18 -12 37 -14 82 -9 129 16 213 82 276 219 20
42 45 89 57 104 92 119 155 247 216 437 28 88 29 95 28 300 -1 138 -7 255 -18
340 -20 142 -90 406 -156 582 -51 134 -183 403 -214 435 -13 12 -29 41 -37 62
-8 22 -22 41 -31 44 -9 2 -18 16 -20 30 -4 38 -28 41 -28 3 0 -38 -18 -41 -22
-3 -2 16 -9 27 -18 27 -9 0 -16 -11 -18 -27 -5 -43 -22 -33 -22 13 l0 41 42
-3 c47 -4 57 8 34 43 -8 13 -24 58 -36 101 -24 91 -207 458 -291 583 -51 76
-59 100 -53 148 5 35 11 46 24 46 17 0 119 -36 185 -65 53 -23 67 -26 81 -14
31 26 16 49 -51 80 -88 40 -175 59 -239 52 -64 -7 -97 7 -89 38 5 20 10 21 64
15 l58 -7 6 38 c4 21 10 56 14 78 l7 40 96 5 c104 5 131 17 112 48 -10 14 -24
16 -100 13 -100 -4 -104 -5 -104 -31 0 -12 -9 -22 -22 -25 -110 -25 -122 -26
-135 -12 -23 23 6 46 72 58 33 7 65 13 72 15 18 4 26 139 15 244 -38 346 -86
616 -143 800 -53 168 -426 935 -510 1048 -46 61 -73 67 -119 25z m163 -1368
c109 -28 175 -98 184 -195 2 -19 6 -42 9 -50 17 -42 -6 -205 -41 -305 -21 -59
-70 -147 -108 -196 -83 -104 -221 -146 -327 -98 -95 43 -152 108 -183 210 -19
64 -22 196 -6 282 31 169 163 321 306 352 80 17 100 17 166 0z m-926 -88 c100
-26 160 -105 189 -250 14 -70 15 -93 5 -162 -14 -86 -54 -206 -77 -230 -8 -7
-14 -18 -14 -24 0 -6 -26 -37 -57 -69 -87 -87 -177 -111 -291 -75 -65 21 -130
87 -171 173 -24 51 -26 64 -25 190 1 125 3 140 28 195 45 96 128 197 186 222
101 44 147 50 227 30z"/>
<path d="M3701 8195 c-87 -44 -137 -94 -177 -179 -116 -244 -34 -498 168 -521
67 -8 107 8 163 63 141 140 169 455 54 595 -62 75 -119 87 -208 42z"/>
<path d="M2803 8120 c-72 -32 -143 -110 -171 -188 -53 -144 -52 -263 2 -371
43 -84 133 -136 216 -125 86 11 129 51 191 174 29 57 33 77 37 164 9 205 -63
336 -198 359 -24 5 -48 1 -77 -13z"/>
<path d="M5351 4418 c-27 -107 -76 -225 -126 -304 -38 -58 -38 -74 -1 -74 48
0 225 -44 294 -73 107 -44 145 -100 107 -154 -26 -37 -155 -99 -325 -156 -179
-60 -310 -87 -570 -116 -293 -34 -384 -41 -510 -41 -220 0 -570 -41 -637 -74
-15 -8 -39 -19 -53 -26 -14 -6 -46 -26 -72 -45 -138 -101 -113 -282 46 -335
48 -15 226 -7 289 15 269 90 444 118 702 113 167 -3 541 7 680 18 39 3 122 14
185 25 63 10 160 26 215 34 253 40 470 95 585 148 134 62 251 167 305 274 57
112 45 272 -28 370 -46 62 -168 180 -232 224 -136 94 -501 225 -709 254 -60 8
-112 15 -116 15 -3 0 -17 -42 -29 -92z"/>
</g>
</svg>
