<?xml version="1.0" standalone="no"?>
<!DOCTYPE svg PUBLIC "-//W3C//DTD SVG 20010904//EN"
 "http://www.w3.org/TR/2001/REC-SVG-20010904/DTD/svg10.dtd">
<svg version="1.0" xmlns="http://www.w3.org/2000/svg"
 width="704.000000pt" height="1280.000000pt" viewBox="0 0 704.000000 1280.000000"
 preserveAspectRatio="xMidYMid meet">
<metadata>
Created by potrace 1.16, written by Peter Selinger 2001-2019
</metadata>
<g transform="translate(0.000000,1280.000000) scale(0.100000,-0.100000)"
fill="#000000" stroke="none">
<path d="M4079 9587 c-41 -36 -42 -38 -74 -162 -22 -86 -82 -266 -110 -330 -7
-16 -18 -55 -25 -85 -12 -57 -45 -170 -60 -205 -4 -11 -13 -45 -19 -76 -7 -31
-18 -64 -25 -74 -17 -23 -81 -34 -208 -35 -105 0 -108 1 -109 23 -1 12 -1 25
0 30 1 4 -6 24 -14 43 -8 20 -15 43 -15 51 0 8 -6 29 -13 46 -8 18 -31 85 -52
150 -21 64 -44 125 -50 135 -7 9 -20 45 -29 80 -8 34 -22 72 -29 85 -8 12 -19
42 -26 67 -24 87 -34 116 -69 187 -20 43 -42 75 -54 79 -12 3 -39 -4 -66 -18
-48 -24 -69 -55 -105 -153 -8 -22 -28 -74 -45 -115 -63 -158 -70 -177 -96
-257 -14 -45 -26 -90 -26 -100 0 -10 -14 -56 -31 -103 -30 -84 -65 -207 -75
-265 -3 -16 -7 -37 -10 -45 -3 -8 -14 -58 -25 -110 -11 -52 -26 -113 -33 -135
-8 -22 -24 -74 -36 -115 -12 -41 -46 -130 -75 -197 -30 -67 -66 -163 -80 -215
-15 -51 -32 -102 -38 -113 -6 -11 -13 -57 -15 -102 -5 -92 -12 -85 90 -98 50
-6 79 -28 61 -46 -13 -13 -26 -13 -164 -4 -128 9 -179 2 -179 -25 0 -10 4 -21
9 -24 9 -6 97 6 153 19 35 9 57 -25 38 -61 -10 -18 -10 -27 -1 -38 6 -7 10
-20 9 -27 -4 -17 45 -13 84 7 40 21 58 18 58 -10 0 -30 -14 -41 -70 -57 -52
-14 -95 -46 -47 -35 69 16 -1 -48 -97 -89 -38 -16 -68 -35 -71 -46 -4 -10 -9
-18 -13 -18 -23 4 -40 -7 -101 -63 -203 -187 -215 -200 -226 -246 -3 -16 -16
-38 -27 -48 -28 -25 -82 -145 -97 -213 -11 -51 -10 -56 11 -78 15 -16 22 -34
20 -52 -2 -18 12 -60 37 -111 44 -87 43 -99 -1 -128 -14 -9 -48 -38 -76 -63
-72 -66 -102 -141 -109 -279 l-6 -105 37 -72 c20 -40 36 -81 36 -91 0 -11 -18
-42 -40 -70 -44 -54 -51 -96 -25 -142 22 -39 19 -113 -6 -136 -33 -30 -69
-109 -69 -152 0 -21 9 -65 20 -97 11 -32 20 -67 20 -78 0 -11 8 -48 19 -81 10
-34 24 -82 30 -108 18 -78 110 -257 166 -323 28 -33 63 -73 76 -89 44 -54 134
-136 165 -151 49 -23 55 -35 39 -80 -50 -140 39 -246 215 -257 40 -3 45 -1 48
20 4 27 13 28 29 3 17 -26 122 -40 135 -17 10 17 38 22 38 7 0 -13 111 -19
134 -8 11 5 50 10 86 12 50 1 77 8 105 25 l37 23 112 -21 c241 -46 709 -58
969 -26 113 14 132 14 165 1 79 -31 111 -37 128 -20 13 14 17 14 33 -1 12 -11
36 -16 74 -16 47 0 57 3 62 20 8 25 21 26 27 2 4 -15 19 -20 69 -26 58 -6 65
-4 82 16 16 22 18 22 31 6 10 -14 28 -18 80 -18 81 0 138 26 168 76 11 18 24
34 29 34 5 0 35 25 67 55 31 30 61 55 66 55 18 0 152 68 164 83 8 9 28 19 45
23 18 3 43 15 56 25 29 23 48 24 53 4 2 -10 37 -27 93 -46 97 -32 145 -69 145
-113 0 -54 -124 -134 -300 -195 -326 -112 -637 -157 -1142 -166 -131 -2 -245
-8 -261 -14 -16 -6 -55 -11 -87 -11 -66 0 -187 -26 -280 -61 -67 -26 -160
-101 -185 -150 -35 -67 -3 -170 66 -216 78 -52 248 -42 509 28 249 66 269 69
632 70 413 3 551 12 838 56 284 43 343 53 425 71 119 27 266 76 340 114 80 41
176 128 231 208 36 53 48 82 61 148 15 76 15 86 -1 146 -10 35 -33 87 -52 116
-19 28 -34 55 -34 60 0 5 -4 10 -10 12 -5 2 -38 30 -72 63 -82 79 -115 103
-218 157 -110 59 -222 97 -340 117 -85 14 -96 19 -110 43 -15 27 -14 28 23 59
20 17 37 39 37 50 0 10 4 38 9 61 6 24 17 77 26 119 9 42 23 85 30 95 20 26
19 154 -1 202 -8 20 -26 48 -39 62 -13 14 -30 42 -38 62 -13 31 -13 39 -1 55
17 23 18 57 0 72 -8 6 -33 15 -57 20 l-44 8 42 13 c66 21 69 72 4 103 -40 19
-39 55 4 104 l35 41 0 127 0 128 -41 76 c-42 78 -52 87 -171 158 -32 19 -58
35 -58 36 1 15 30 83 41 95 34 41 47 72 57 135 19 123 -3 214 -67 271 -11 11
-26 37 -32 59 -6 21 -20 49 -33 61 -12 11 -36 39 -53 61 -19 25 -56 53 -96 73
-36 19 -87 54 -114 79 -26 24 -65 54 -87 66 -66 37 -75 43 -94 60 -10 9 -37
23 -59 31 -38 13 -43 13 -58 -4 -19 -21 -31 -18 -88 17 -23 15 -73 30 -125 39
-104 18 -152 39 -152 65 0 29 40 32 114 9 37 -12 82 -23 99 -24 l32 -1 -3 55
c-3 48 0 58 22 79 14 14 26 35 26 48 0 25 -14 26 -83 4 -18 -5 -54 -12 -82
-15 -27 -2 -65 -8 -83 -12 -33 -7 -33 -6 -30 27 3 38 2 37 162 57 43 6 84 16
91 23 27 28 23 465 -5 599 -5 25 -14 90 -21 145 -6 55 -16 108 -20 117 -5 10
-18 61 -29 115 -11 54 -31 121 -45 148 -13 28 -36 93 -50 145 -15 52 -33 116
-41 142 -7 25 -16 64 -19 85 -9 56 -11 63 -77 201 -33 70 -76 161 -95 202 -19
41 -44 93 -54 115 -28 59 -97 135 -122 135 -12 0 -38 -15 -58 -33z m-45 -1492
c171 -89 278 -278 253 -448 -8 -58 -14 -70 -73 -140 -36 -42 -79 -84 -97 -94
-49 -25 -201 -30 -265 -9 -56 19 -112 65 -134 111 -43 89 -49 315 -10 406 11
24 46 73 79 109 56 60 63 65 114 71 88 10 103 10 133 -6z m-887 -36 c55 -21
113 -80 151 -152 l37 -72 -3 -128 -3 -128 -46 -67 c-53 -77 -126 -152 -147
-152 -8 0 -31 -10 -51 -21 -43 -26 -148 -31 -207 -11 -54 19 -136 135 -149
211 -5 31 -13 57 -19 59 -7 3 -8 30 -4 80 5 64 15 95 55 178 29 61 59 108 74
118 14 9 25 23 25 31 0 13 13 19 120 50 55 17 129 19 167 4z"/>
<path d="M3854 7990 c-88 -38 -131 -135 -121 -276 10 -139 46 -193 170 -255
49 -25 66 -29 101 -24 59 10 90 29 129 77 61 76 65 92 49 218 -19 143 -38 185
-112 244 -38 30 -48 33 -108 33 -41 0 -83 -7 -108 -17z"/>
<path d="M2955 7958 c-71 -19 -117 -66 -153 -158 -36 -92 -39 -133 -16 -205
30 -90 44 -113 92 -156 60 -53 89 -65 144 -61 40 3 53 12 115 70 38 37 82 88
96 113 43 73 50 219 11 219 -12 0 -15 7 -11 26 3 17 -1 33 -12 43 -9 9 -24 33
-33 54 -10 21 -28 41 -40 46 -40 15 -151 20 -193 9z"/>
</g>
</svg>
