<?xml version="1.0" standalone="no"?>
<!DOCTYPE svg PUBLIC "-//W3C//DTD SVG 20010904//EN"
 "http://www.w3.org/TR/2001/REC-SVG-20010904/DTD/svg10.dtd">
<svg version="1.0" xmlns="http://www.w3.org/2000/svg"
 width="704.000000pt" height="1280.000000pt" viewBox="0 0 704.000000 1280.000000"
 preserveAspectRatio="xMidYMid meet">
<metadata>
Created by potrace 1.16, written by Peter Selinger 2001-2019
</metadata>
<g transform="translate(0.000000,1280.000000) scale(0.100000,-0.100000)"
fill="#000000" stroke="none">
<path d="M3908 9785 c-41 -28 -52 -53 -69 -162 -6 -43 -22 -106 -35 -140 -13
-34 -24 -68 -24 -76 0 -9 -15 -62 -34 -119 -45 -138 -82 -270 -96 -343 -18
-92 -27 -101 -107 -110 -37 -4 -101 -7 -142 -8 l-75 -2 -12 45 c-14 51 -85
240 -120 315 -47 104 -93 212 -118 280 -37 95 -64 152 -98 203 -37 54 -64 55
-110 4 -28 -31 -39 -58 -65 -162 -17 -69 -34 -143 -38 -165 -3 -22 -17 -89
-30 -150 -31 -139 -61 -498 -64 -751 -1 -45 -8 -61 -69 -155 -161 -244 -168
-257 -211 -367 -26 -64 -69 -243 -63 -260 2 -7 11 -12 21 -12 23 0 63 -29 56
-41 -10 -15 -41 -10 -77 11 -39 23 -205 44 -257 32 -38 -8 -57 -31 -48 -56 6
-14 16 -16 66 -10 33 3 98 3 144 -1 l84 -7 6 -56 c3 -31 2 -61 -4 -68 -5 -6
-62 -28 -127 -49 -128 -41 -142 -48 -142 -76 0 -33 37 -30 163 11 68 22 127
40 131 40 4 0 14 -17 22 -37 29 -68 86 -148 152 -210 l66 -62 -11 -43 c-6 -24
-33 -131 -61 -238 -28 -107 -67 -276 -87 -375 -26 -129 -47 -201 -72 -255
-102 -220 -236 -614 -298 -874 -107 -456 -97 -792 31 -1063 19 -40 34 -81 34
-92 0 -11 -11 -53 -24 -93 -49 -151 4 -291 130 -344 46 -19 133 -19 140 1 6
14 8 14 18 -1 10 -13 27 -16 79 -15 37 1 75 2 85 1 125 -6 175 -3 263 17 60
14 79 13 180 0 152 -21 205 -25 464 -33 220 -6 358 1 599 30 115 14 121 14
158 -5 23 -12 56 -19 81 -18 23 0 80 -2 127 -5 158 -12 305 -13 357 -4 123 21
196 79 251 198 19 41 50 96 68 121 19 26 34 51 34 56 0 5 17 34 38 64 40 58
62 109 122 289 37 112 38 119 41 275 2 141 -5 298 -16 375 -2 14 -7 48 -10 75
-8 57 -41 208 -54 245 -5 14 -19 59 -32 100 -52 173 -104 320 -140 396 -68
147 -120 249 -136 266 -23 26 -121 242 -153 339 -32 97 -96 229 -240 494 -54
99 -102 193 -106 209 -8 32 14 178 29 187 12 8 108 -21 182 -55 82 -37 115
-33 100 14 -13 40 -191 110 -281 110 -65 0 -84 7 -84 31 0 21 5 22 71 19 45
-2 46 0 53 30 3 18 6 42 6 54 0 48 19 57 135 64 109 7 110 7 110 32 0 24 -2
25 -85 28 -106 4 -126 -1 -134 -33 -7 -29 -33 -38 -97 -33 -36 2 -45 7 -47 25
-3 19 4 23 55 33 32 7 63 14 69 15 25 7 22 135 -10 515 -17 193 -62 452 -95
545 -12 33 -44 128 -72 210 -28 83 -54 159 -59 170 -18 40 -42 102 -67 169
-14 38 -40 101 -58 140 -17 39 -38 88 -44 108 -34 104 -131 268 -159 268 -9 0
-34 -11 -54 -25z m37 -1535 c59 -27 125 -111 125 -162 0 -13 7 -32 15 -42 34
-45 8 -236 -50 -363 -35 -77 -70 -118 -118 -138 -23 -9 -52 -22 -63 -27 -15
-7 -33 -7 -55 1 -19 5 -47 13 -62 16 -16 3 -47 23 -70 44 -48 44 -89 146 -106
262 -12 87 9 219 44 270 14 19 25 40 25 45 0 18 95 102 120 107 68 12 153 6
195 -13z m-883 -25 c102 -42 192 -246 172 -388 -18 -129 -80 -255 -141 -287
-18 -10 -38 -22 -45 -27 -28 -23 -106 -25 -150 -5 -69 31 -104 83 -114 172 -3
19 -9 49 -14 65 -5 17 -9 80 -9 140 1 134 24 215 81 280 54 61 144 82 220 50z"/>
<path d="M3746 8165 c-28 -7 -57 -23 -68 -36 -125 -159 -91 -445 62 -524 39
-20 115 -10 157 21 17 13 44 50 59 81 25 52 28 69 28 168 1 105 -1 113 -32
177 -38 77 -90 128 -130 127 -15 0 -49 -6 -76 -14z"/>
<path d="M2895 8137 c-59 -33 -88 -98 -93 -208 -5 -100 12 -219 37 -251 9 -13
22 -35 30 -49 16 -32 69 -59 115 -59 47 0 131 76 163 148 60 136 1 371 -109
428 -39 20 -97 17 -143 -9z"/>
<path d="M5353 4513 c-7 -3 -13 -15 -13 -27 0 -63 -73 -275 -126 -361 -19 -32
-31 -62 -27 -66 4 -4 58 -17 118 -29 166 -33 281 -79 311 -124 8 -14 14 -39
12 -58 -3 -28 -12 -38 -63 -70 -62 -38 -165 -81 -340 -142 -115 -40 -151 -48
-341 -75 -289 -40 -405 -51 -644 -57 -85 -2 -196 -8 -247 -14 -50 -5 -113 -10
-140 -10 -71 0 -225 -36 -301 -71 -145 -65 -219 -194 -163 -284 55 -88 98
-108 226 -108 100 1 169 15 400 83 132 39 254 50 571 50 506 0 749 23 1234
121 217 44 434 138 526 227 137 133 184 279 135 425 -25 78 -57 121 -165 224
-99 94 -169 140 -299 196 -187 81 -611 189 -664 170z"/>
</g>
</svg>
