<?xml version="1.0" standalone="no"?>
<!DOCTYPE svg PUBLIC "-//W3C//DTD SVG 20010904//EN"
 "http://www.w3.org/TR/2001/REC-SVG-20010904/DTD/svg10.dtd">
<svg version="1.0" xmlns="http://www.w3.org/2000/svg"
 width="704.000000pt" height="1280.000000pt" viewBox="0 0 704.000000 1280.000000"
 preserveAspectRatio="xMidYMid meet">
<metadata>
Created by potrace 1.16, written by Peter Selinger 2001-2019
</metadata>
<g transform="translate(0.000000,1280.000000) scale(0.100000,-0.100000)"
fill="#000000" stroke="none">
<path d="M3897 9780 c-28 -24 -36 -41 -46 -92 -19 -99 -38 -177 -64 -258 -40
-123 -116 -403 -130 -478 -12 -61 -12 -72 0 -77 15 -5 99 -2 428 16 249 13
251 14 260 46 4 19 -5 48 -34 110 -23 47 -50 98 -62 114 -17 24 -18 33 -9 44
15 19 -3 80 -65 211 -24 51 -49 110 -56 131 -20 60 -97 208 -124 237 -31 34
-56 33 -98 -4z"/>
<path d="M2883 9698 c-51 -36 -95 -163 -123 -353 -6 -44 -17 -105 -25 -135
-13 -54 -29 -179 -40 -311 l-5 -66 127 -8 c71 -4 144 -8 163 -7 34 1 52 2 215
17 85 8 115 18 115 38 0 14 -20 66 -107 277 -112 270 -121 294 -134 335 -31
102 -114 235 -148 235 -3 0 -21 -10 -38 -22z"/>
<path d="M3985 8829 c-93 -5 -235 -13 -315 -19 -83 -6 -308 -9 -525 -7 -209 2
-404 1 -434 -2 l-53 -6 26 -28 c29 -32 32 -56 12 -95 -8 -16 -17 -78 -22 -147
l-7 -120 -54 -90 c-30 -49 -85 -139 -123 -198 -38 -60 -83 -146 -100 -190 -35
-93 -71 -234 -63 -253 2 -7 19 -16 36 -20 35 -7 48 -20 40 -41 -7 -19 -31 -16
-71 9 -29 18 -54 22 -156 26 -139 5 -176 -4 -176 -43 l0 -25 163 -2 162 -3 2
-56 c2 -36 -2 -60 -10 -66 -6 -5 -59 -25 -117 -43 -123 -39 -150 -53 -150 -80
0 -29 36 -26 165 15 61 19 115 35 122 35 7 0 21 -20 32 -46 26 -58 49 -88 140
-185 86 -92 86 -56 6 -348 -51 -189 -77 -304 -109 -477 -9 -50 -31 -117 -56
-170 -85 -181 -230 -585 -260 -724 -6 -30 -24 -109 -40 -175 -45 -185 -61
-328 -60 -529 0 -99 5 -209 11 -245 12 -80 51 -196 91 -274 33 -64 34 -98 2
-177 -25 -64 -24 -163 4 -216 26 -52 94 -111 141 -124 48 -13 114 -13 128 1 8
8 13 8 17 0 10 -15 139 -14 154 1 10 10 15 10 21 0 11 -18 176 -14 251 6 67
17 52 18 235 -8 206 -30 769 -34 940 -7 186 29 191 29 204 13 7 -8 33 -18 58
-22 38 -6 49 -4 60 12 11 15 13 15 13 2 0 -31 143 -41 155 -10 6 16 7 16 16 0
8 -15 24 -18 84 -18 65 0 74 2 80 20 6 20 7 20 27 -6 20 -24 25 -26 72 -19
122 16 216 86 273 204 15 31 46 86 70 123 24 37 43 69 43 73 0 3 16 29 35 58
41 61 75 146 130 317 25 75 28 102 30 240 2 161 -21 420 -49 560 -8 41 -29
118 -46 170 -17 52 -37 118 -45 147 -36 128 -209 522 -254 577 -26 31 -122
242 -145 316 -23 76 -187 418 -311 650 -41 75 -45 90 -41 130 12 101 19 140
26 140 20 0 150 -45 192 -66 55 -28 71 -30 88 -9 32 38 -101 109 -240 127 -95
13 -122 23 -118 46 3 14 14 17 61 16 l57 -1 5 36 c11 69 12 76 16 91 3 12 -10
16 -65 20 -105 8 -99 44 10 58 l59 7 3 100 c6 165 -27 535 -64 725 -31 159
-40 192 -67 263 -23 62 -24 62 -60 48 -19 -8 -27 -6 -31 5 -6 16 -48 16 -331
3z m-13 -594 c49 -36 88 -97 88 -137 0 -13 6 -32 13 -43 23 -33 28 -85 16
-174 -17 -128 -45 -198 -118 -292 -11 -14 -49 -38 -85 -53 -64 -27 -66 -28
-119 -12 -87 25 -134 68 -168 156 -41 103 -52 186 -38 280 18 123 115 290 167
290 12 0 24 5 27 10 3 6 43 10 88 10 78 0 85 -2 129 -35z m-865 -37 c25 -24
52 -56 60 -73 8 -16 23 -45 34 -63 16 -24 22 -55 26 -131 12 -220 -72 -381
-224 -427 -46 -14 -49 -14 -108 15 -38 19 -68 43 -82 64 -48 77 -71 369 -37
471 24 71 62 133 97 161 28 22 42 25 110 25 77 0 78 0 124 -42z"/>
<path d="M3785 8173 c-59 -6 -113 -48 -149 -117 -28 -55 -31 -67 -30 -155 0
-126 20 -185 84 -251 38 -39 56 -50 82 -51 102 -4 130 15 186 116 24 45 27 60
27 150 0 58 -6 116 -13 138 -20 56 -88 152 -117 165 -14 7 -27 11 -28 10 -1
-1 -20 -3 -42 -5z"/>
<path d="M2893 8140 c-60 -36 -93 -120 -93 -235 1 -160 42 -278 113 -320 81
-48 199 31 245 164 35 101 -12 303 -87 374 -36 33 -46 37 -93 37 -35 0 -64 -7
-85 -20z"/>
<path d="M5354 4516 c-2 -6 -15 -60 -30 -121 -26 -107 -60 -192 -116 -288 -15
-26 -28 -50 -28 -52 0 -4 34 -11 90 -19 19 -3 51 -10 70 -16 19 -5 45 -10 58
-10 37 0 171 -60 203 -91 37 -37 42 -78 12 -111 -19 -21 -198 -108 -222 -108
-9 0 -21 -4 -27 -9 -17 -15 -239 -89 -314 -105 -233 -47 -468 -71 -775 -80
-327 -9 -422 -17 -560 -47 -98 -21 -98 -21 -197 -69 -74 -36 -96 -56 -127
-115 -31 -59 -28 -121 9 -177 43 -65 87 -81 220 -80 90 1 123 6 230 38 292 86
388 99 686 91 222 -5 682 14 789 33 33 6 85 15 115 20 211 34 370 63 437 80
98 24 272 89 338 126 218 121 326 329 265 514 -12 35 -35 82 -50 105 -35 50
-148 158 -220 212 -71 52 -226 125 -337 158 -48 15 -97 31 -108 35 -11 5 -47
16 -80 25 -33 8 -94 24 -135 35 -110 29 -191 40 -196 26z"/>
</g>
</svg>
