<?xml version="1.0" standalone="no"?>
<!DOCTYPE svg PUBLIC "-//W3C//DTD SVG 20010904//EN"
 "http://www.w3.org/TR/2001/REC-SVG-20010904/DTD/svg10.dtd">
<svg version="1.0" xmlns="http://www.w3.org/2000/svg"
 width="704.000000pt" height="1280.000000pt" viewBox="0 0 704.000000 1280.000000"
 preserveAspectRatio="xMidYMid meet">
<metadata>
Created by potrace 1.16, written by Peter Selinger 2001-2019
</metadata>
<g transform="translate(0.000000,1280.000000) scale(0.100000,-0.100000)"
fill="#000000" stroke="none">
<path d="M3922 9790 c-45 -28 -67 -68 -81 -153 -7 -39 -26 -112 -41 -162 -38
-122 -129 -455 -146 -535 -21 -100 -26 -96 128 -88 198 11 549 38 579 44 38 8
28 51 -17 70 -20 9 -34 21 -34 32 0 25 -39 124 -56 144 -10 11 -12 18 -5 23 6
3 11 14 11 23 0 17 -87 249 -100 267 -4 6 -22 50 -40 98 -44 121 -127 257
-157 257 -4 0 -23 -9 -41 -20z"/>
<path d="M2905 9710 c-27 -11 -61 -49 -75 -84 -16 -43 -60 -234 -60 -261 0
-13 -11 -70 -25 -128 -13 -57 -27 -124 -30 -148 -11 -85 -22 -244 -18 -256 5
-13 205 -11 503 6 l115 6 -3 28 c-3 25 -80 219 -134 337 -36 80 -89 214 -105
265 -8 28 -31 82 -50 120 -51 102 -80 130 -118 115z"/>
<path d="M4150 8854 c-433 -39 -741 -54 -1090 -54 -274 0 -360 -3 -367 -12 -6
-7 -13 -98 -17 -203 -7 -190 -7 -190 -36 -232 -17 -23 -30 -44 -30 -48 0 -3
-26 -45 -57 -92 -32 -47 -70 -104 -85 -127 -39 -58 -105 -232 -127 -333 -17
-77 -17 -85 -2 -89 32 -10 64 -29 69 -41 8 -25 -30 -26 -71 -2 -36 20 -59 24
-167 27 -113 4 -127 2 -149 -15 -16 -13 -22 -26 -18 -36 5 -14 26 -17 157 -16
83 0 155 -3 160 -6 6 -3 10 -33 10 -65 l0 -59 -132 -41 c-138 -43 -165 -58
-155 -84 10 -26 77 -19 183 19 53 19 103 35 111 35 8 0 21 -17 29 -37 26 -63
79 -136 149 -205 l67 -66 -20 -83 c-11 -46 -47 -192 -80 -324 -33 -132 -64
-262 -68 -290 -10 -71 -44 -172 -104 -310 -120 -275 -273 -790 -300 -1005 -6
-52 -16 -125 -21 -162 -29 -214 11 -495 96 -673 41 -84 42 -106 14 -177 -29
-75 -28 -183 4 -246 36 -72 113 -116 217 -124 27 -2 37 2 46 20 l12 23 6 -25
c6 -24 10 -26 67 -26 33 0 69 5 80 11 14 7 24 7 33 0 18 -15 133 -12 146 4 8
10 18 11 36 5 14 -6 34 -6 47 -1 67 25 94 30 132 21 156 -35 265 -43 605 -44
278 0 362 3 435 16 167 31 195 32 247 9 25 -12 61 -21 80 -21 18 0 66 -3 106
-6 69 -5 72 -5 81 18 9 22 12 22 15 -4 1 -9 26 -15 71 -19 72 -6 95 -3 95 12
0 5 11 2 24 -6 19 -13 34 -14 82 -6 132 22 206 80 267 211 21 47 47 94 57 105
64 72 166 277 195 395 8 30 21 74 29 97 44 125 20 602 -43 828 -94 342 -212
642 -315 805 -23 36 -57 99 -75 140 -19 41 -40 84 -47 95 -7 11 -22 52 -32 90
-24 86 -56 167 -86 220 -13 22 -27 51 -31 65 -7 23 -112 217 -195 360 -48 83
-54 114 -39 192 19 99 20 100 80 82 28 -8 84 -30 124 -49 64 -29 76 -31 92
-20 53 40 -84 117 -241 135 -106 13 -118 17 -114 43 3 24 24 26 84 12 l31 -7
14 76 15 76 -30 1 c-17 1 -48 1 -68 0 -28 -2 -40 2 -44 14 -10 25 9 37 78 50
l63 11 3 114 c2 63 -1 165 -7 225 -6 61 -15 162 -21 226 -19 218 -82 522 -111
540 -6 3 -10 8 -10 10 1 2 -4 19 -11 37 -14 37 -4 37 -228 16z m-218 -596 c39
-11 108 -72 108 -94 0 -6 7 -17 15 -24 8 -7 15 -25 15 -40 0 -15 7 -41 15 -56
21 -40 19 -134 -5 -228 -42 -166 -98 -247 -198 -284 -47 -18 -58 -19 -107 -7
-105 24 -144 64 -184 190 -46 143 -42 286 10 391 33 66 113 152 147 157 58 9
146 6 184 -5z m-877 -28 c39 -13 99 -81 137 -155 88 -172 25 -460 -118 -537
-74 -40 -129 -45 -183 -16 -86 46 -110 112 -121 343 -6 118 -4 159 7 190 46
131 96 180 188 184 31 1 72 -3 90 -9z"/>
<path d="M3766 8169 c-91 -15 -148 -104 -161 -255 -12 -130 53 -273 139 -309
37 -15 111 -9 143 12 31 20 80 103 94 158 17 67 7 210 -18 265 -28 60 -92 130
-123 134 -14 2 -47 0 -74 -5z"/>
<path d="M2905 8147 c-86 -40 -118 -158 -93 -343 14 -100 19 -115 53 -162 35
-49 49 -58 100 -64 64 -6 130 43 175 133 29 57 40 210 18 260 -9 19 -23 55
-32 81 -23 63 -73 101 -140 105 -29 2 -64 -3 -81 -10z"/>
<path d="M5346 4508 c-2 -7 -10 -42 -17 -78 -15 -83 -56 -196 -105 -293 -21
-42 -36 -79 -33 -81 3 -3 61 -16 129 -30 152 -29 225 -56 274 -99 44 -38 52
-86 20 -117 -39 -38 -154 -94 -313 -151 -183 -66 -334 -97 -606 -124 -88 -8
-205 -20 -260 -26 -55 -6 -149 -10 -210 -9 -239 3 -549 -36 -659 -82 -116 -49
-184 -120 -193 -202 -7 -60 1 -89 39 -131 52 -60 79 -69 198 -68 87 0 128 7
240 36 74 20 154 43 178 51 96 34 237 44 602 44 387 0 622 13 770 43 52 11
160 31 240 45 476 83 692 187 812 393 31 53 37 75 43 147 11 131 -20 207 -134
328 -121 127 -274 224 -431 271 -30 9 -93 29 -140 45 -120 39 -181 56 -294 79
-115 24 -145 26 -150 9z"/>
</g>
</svg>
