<?xml version="1.0" standalone="no"?>
<!DOCTYPE svg PUBLIC "-//W3C//DTD SVG 20010904//EN"
 "http://www.w3.org/TR/2001/REC-SVG-20010904/DTD/svg10.dtd">
<svg version="1.0" xmlns="http://www.w3.org/2000/svg"
 width="704.000000pt" height="1280.000000pt" viewBox="0 0 704.000000 1280.000000"
 preserveAspectRatio="xMidYMid meet">
<metadata>
Created by potrace 1.16, written by Peter Selinger 2001-2019
</metadata>
<g transform="translate(0.000000,1280.000000) scale(0.100000,-0.100000)"
fill="#000000" stroke="none">
<path d="M3654 9653 c-46 -23 -62 -59 -69 -154 -4 -46 -13 -115 -20 -154 -8
-38 -24 -131 -35 -205 -11 -74 -25 -157 -30 -185 -5 -27 -15 -97 -21 -154 -14
-121 -30 -147 -81 -137 -18 3 -43 0 -62 -9 -17 -8 -59 -19 -94 -23 l-63 -9
-37 71 c-20 39 -43 83 -51 98 -9 14 -31 55 -50 90 -18 34 -42 75 -52 89 -10
14 -44 76 -76 137 -32 61 -69 133 -83 159 -14 26 -34 61 -44 76 -11 16 -27 43
-36 60 -20 37 -62 61 -90 52 -30 -10 -66 -81 -85 -170 -42 -191 -55 -618 -29
-946 l17 -216 -95 -189 c-106 -211 -144 -322 -160 -477 -11 -105 -7 -120 39
-138 43 -16 23 -24 -65 -25 -152 -1 -329 -81 -282 -128 7 -7 20 -6 43 3 58 23
185 59 229 66 l43 6 18 -51 c23 -63 19 -69 -77 -117 -112 -56 -186 -119 -171
-143 12 -19 52 -10 105 25 30 19 83 49 117 66 l61 32 39 -44 c21 -24 56 -62
79 -84 l41 -40 -19 -75 c-10 -41 -29 -115 -42 -165 -13 -49 -33 -133 -44 -185
-12 -52 -28 -131 -38 -175 -9 -44 -28 -105 -42 -135 -91 -202 -121 -275 -177
-440 -106 -307 -151 -469 -179 -635 -61 -366 -37 -601 86 -849 l42 -85 -28
-95 c-24 -87 -26 -102 -17 -166 9 -65 41 -140 61 -140 5 0 23 -12 40 -26 25
-22 45 -28 100 -32 45 -3 75 -1 84 7 10 9 16 8 26 -4 18 -21 135 -21 144 0 5
14 8 14 29 1 22 -15 47 -15 187 -2 25 3 63 11 85 19 41 14 50 14 225 -11 123
-18 165 -21 400 -28 223 -6 346 0 604 30 111 13 122 12 160 -5 24 -10 63 -18
91 -17 28 1 74 -2 103 -7 37 -5 57 -3 68 6 11 9 18 9 26 1 18 -18 143 -15 158
3 11 14 14 13 25 -1 10 -14 24 -16 82 -11 150 12 230 79 296 244 9 23 32 63
52 88 19 26 35 51 35 56 0 5 16 31 35 57 60 85 151 320 164 427 14 118 3 437
-20 570 -23 137 -112 433 -181 609 -44 111 -153 332 -195 392 -34 51 -133 256
-133 277 0 9 -4 18 -9 21 -4 3 -11 19 -14 36 -9 44 -273 567 -320 633 -17 25
-19 38 -13 95 4 36 8 68 10 69 4 5 130 -25 175 -41 24 -9 52 -16 62 -16 20 0
39 28 32 47 -14 39 -216 84 -277 62 -45 -16 -101 -2 -101 26 0 18 7 20 60 20
68 0 72 6 74 101 l1 52 84 12 c95 13 121 26 110 54 -6 17 -15 18 -78 12 -100
-9 -116 -14 -116 -41 0 -20 -7 -24 -67 -33 -76 -11 -93 -7 -93 17 0 18 35 33
113 47 23 4 42 14 49 27 15 28 4 276 -16 342 -8 28 -24 106 -36 175 -34 189
-129 489 -201 630 -21 41 -65 131 -97 200 -33 69 -72 142 -86 163 -14 20 -39
65 -57 100 -17 34 -36 69 -44 77 -7 8 -45 76 -85 150 -78 144 -128 218 -163
237 -27 15 -25 15 -63 -4z m207 -1515 c131 -53 198 -127 260 -285 16 -40 31
-131 30 -181 -1 -95 -52 -198 -130 -260 -48 -38 -69 -49 -143 -72 -144 -45
-307 26 -381 166 -44 85 -65 337 -33 401 8 15 20 43 27 60 37 103 113 167 216
182 89 13 97 13 154 -11z m-943 -80 c51 -19 152 -101 152 -124 0 -6 14 -32 32
-60 42 -67 77 -199 78 -296 0 -42 -4 -79 -9 -82 -5 -3 -12 -21 -15 -41 -9 -44
-90 -129 -148 -154 -175 -75 -389 8 -472 182 -51 108 -49 269 5 413 23 60 68
126 101 148 39 26 130 46 178 40 24 -3 68 -15 98 -26z"/>
<path d="M3632 8049 c-77 -39 -114 -106 -132 -241 -14 -103 -3 -177 37 -257
79 -155 282 -207 403 -103 11 9 20 22 20 29 0 7 7 13 16 13 8 0 24 20 36 47
18 41 20 60 15 149 -3 62 -11 113 -20 131 -8 15 -23 44 -33 65 -30 63 -82 127
-125 155 -58 38 -155 44 -217 12z"/>
<path d="M2712 8003 c-151 -52 -202 -356 -89 -529 52 -79 203 -143 304 -128
63 9 92 24 135 72 56 61 62 79 60 168 -3 120 -60 282 -119 335 -102 91 -192
116 -291 82z"/>
<path d="M5373 4513 c-7 -3 -13 -14 -13 -25 0 -73 -72 -266 -142 -379 -17 -28
-29 -52 -27 -54 2 -2 65 -16 139 -31 139 -28 238 -66 284 -109 37 -34 36 -87
-1 -113 -63 -43 -197 -103 -338 -150 -188 -63 -294 -84 -585 -116 -262 -29
-366 -36 -513 -35 -81 0 -180 -4 -220 -10 -39 -5 -111 -15 -158 -21 -113 -14
-183 -33 -264 -71 -114 -54 -156 -101 -169 -191 -8 -52 9 -96 51 -136 50 -46
82 -55 193 -55 87 0 129 7 247 37 79 20 155 41 170 47 90 35 178 41 603 45
234 2 458 8 498 14 40 5 96 10 124 10 28 0 85 6 127 14 42 8 128 24 191 36
518 96 718 178 844 348 59 78 74 115 85 202 8 57 6 80 -10 130 -26 85 -42 112
-107 181 -31 34 -61 67 -65 75 -7 12 -75 63 -156 116 -44 30 -201 95 -291 122
-47 14 -137 41 -200 60 -142 42 -272 68 -297 59z"/>
</g>
</svg>
