<?xml version="1.0" standalone="no"?>
<!DOCTYPE svg PUBLIC "-//W3C//DTD SVG 20010904//EN"
 "http://www.w3.org/TR/2001/REC-SVG-20010904/DTD/svg10.dtd">
<svg version="1.0" xmlns="http://www.w3.org/2000/svg"
 width="704.000000pt" height="1280.000000pt" viewBox="0 0 704.000000 1280.000000"
 preserveAspectRatio="xMidYMid meet">
<metadata>
Created by potrace 1.16, written by Peter Selinger 2001-2019
</metadata>
<g transform="translate(0.000000,1280.000000) scale(0.100000,-0.100000)"
fill="#000000" stroke="none">
<path d="M3982 9785 c-18 -6 -40 -18 -48 -27 -16 -15 -47 -111 -64 -195 -5
-23 -17 -59 -26 -80 -9 -21 -27 -74 -39 -118 -13 -44 -35 -116 -50 -160 -44
-133 -53 -166 -75 -262 -12 -50 -28 -97 -36 -104 -8 -7 -41 -14 -72 -15 -31
-2 -69 -7 -84 -10 -16 -3 -53 -3 -83 1 -53 6 -55 7 -61 43 -4 20 -22 78 -41
127 -19 50 -38 102 -43 118 -5 15 -20 52 -34 82 -14 29 -26 58 -26 64 0 5 -16
50 -36 98 -20 48 -43 111 -51 138 -31 101 -109 235 -138 235 -19 0 -73 -47
-89 -79 -16 -30 -72 -226 -110 -386 -33 -137 -65 -375 -76 -565 -14 -248 -21
-299 -44 -333 -12 -18 -26 -43 -32 -57 -6 -14 -39 -62 -72 -107 -73 -98 -111
-164 -147 -256 -31 -78 -76 -248 -69 -259 3 -4 20 -10 39 -14 40 -7 48 -15 39
-38 -9 -23 -29 -20 -80 10 -38 22 -60 27 -147 31 -118 6 -182 -7 -192 -38 -4
-11 -4 -23 -1 -27 3 -3 66 -5 139 -4 72 1 146 -1 162 -6 29 -8 30 -11 30 -67
0 -67 10 -59 -137 -111 -127 -45 -158 -65 -139 -88 19 -23 37 -21 167 24 65
22 123 40 130 40 7 0 17 -15 22 -34 14 -50 95 -169 152 -225 55 -53 57 -61 35
-135 -27 -93 -144 -580 -160 -669 -12 -66 -34 -130 -86 -245 -108 -239 -221
-565 -252 -722 -2 -14 -14 -60 -26 -104 -36 -131 -62 -303 -68 -456 -9 -230
20 -394 100 -552 47 -94 53 -158 22 -218 -12 -24 -17 -55 -16 -109 2 -105 25
-150 104 -201 55 -36 68 -40 123 -40 35 0 66 5 69 10 4 6 13 4 23 -6 12 -13
27 -15 71 -10 30 4 59 11 65 15 7 6 19 4 30 -5 23 -16 141 -20 151 -4 3 5 13
6 21 3 8 -3 44 2 79 12 38 10 82 15 107 12 24 -3 99 -12 166 -21 268 -34 688
-31 986 8 105 14 111 14 148 -5 21 -11 55 -20 76 -20 20 0 68 -2 106 -5 58 -5
72 -3 82 11 10 14 14 14 21 2 12 -21 137 -32 155 -14 11 12 16 12 27 -1 32
-34 210 15 274 76 20 20 59 79 86 132 27 52 61 106 75 119 14 14 26 29 26 35
0 6 22 43 48 83 38 55 61 108 105 240 l56 169 2 165 c3 249 -22 476 -70 624
-10 33 -31 101 -47 150 -75 244 -189 510 -274 635 -20 30 -54 93 -75 140 -21
47 -41 90 -46 96 -5 6 -18 42 -30 80 -21 70 -100 234 -191 398 -107 192 -172
331 -172 366 0 32 22 171 28 177 5 6 107 -27 175 -56 40 -17 84 -31 98 -31 21
0 24 4 21 27 -2 22 -14 33 -58 55 -84 42 -169 68 -223 68 -59 0 -87 14 -87 42
0 19 4 20 54 14 60 -7 59 -9 72 69 11 63 14 65 135 65 109 0 109 0 109 24 0
14 -3 27 -8 30 -4 2 -49 7 -100 10 l-92 5 -15 -29 c-13 -26 -20 -29 -75 -32
-70 -4 -80 -1 -80 17 0 20 17 28 90 40 l65 10 3 100 c7 209 -27 606 -68 791
-39 178 -197 657 -282 854 -22 52 -51 125 -64 163 -23 69 -83 175 -113 200
-13 10 -23 11 -49 2z m-1354 -1901 c16 -5 21 -12 17 -25 -8 -24 31 -135 63
-177 31 -43 137 -92 213 -99 67 -7 119 16 184 82 53 52 67 102 41 146 l-16 28
45 6 c61 10 75 3 75 -39 0 -76 -87 -210 -152 -236 -18 -7 -52 -22 -75 -32 -33
-14 -58 -17 -108 -14 -128 10 -185 19 -196 32 -6 8 -17 14 -24 14 -7 0 -35 24
-62 53 -55 57 -93 151 -93 227 0 39 1 40 33 40 17 0 42 -3 55 -6z m1641 -4 c8
0 -10 -109 -22 -131 -52 -98 -150 -209 -185 -209 -9 0 -35 -7 -57 -15 -74 -26
-224 -12 -305 30 -60 31 -127 104 -155 168 -42 99 -25 135 50 107 22 -8 26
-13 16 -20 -19 -11 -7 -53 29 -104 35 -51 56 -68 123 -103 43 -23 65 -28 124
-28 60 0 75 3 95 23 14 12 31 22 40 22 18 0 60 46 86 94 9 17 21 60 27 96 11
71 25 82 95 75 19 -3 37 -4 39 -5z"/>
<path d="M5356 4473 c-23 -129 -105 -341 -154 -396 -20 -23 -11 -30 56 -43 31
-7 93 -19 137 -28 79 -16 185 -62 216 -95 9 -9 19 -28 23 -43 14 -61 -81 -120
-349 -217 -198 -71 -270 -85 -640 -121 -60 -6 -144 -16 -185 -21 -41 -6 -133
-10 -205 -9 -143 2 -453 -24 -555 -45 -159 -34 -277 -108 -315 -197 -31 -75
-15 -139 49 -195 51 -46 95 -57 200 -50 89 5 138 16 385 83 143 39 316 56 482
48 95 -4 608 10 754 22 69 5 353 56 525 94 19 4 67 15 105 23 276 61 444 158
549 316 85 127 88 265 10 399 -32 55 -150 174 -223 226 -136 96 -423 203 -721
267 -128 27 -136 26 -144 -18z"/>
</g>
</svg>
