<?xml version="1.0" standalone="no"?>
<!DOCTYPE svg PUBLIC "-//W3C//DTD SVG 20010904//EN"
 "http://www.w3.org/TR/2001/REC-SVG-20010904/DTD/svg10.dtd">
<svg version="1.0" xmlns="http://www.w3.org/2000/svg"
 width="704.000000pt" height="1280.000000pt" viewBox="0 0 704.000000 1280.000000"
 preserveAspectRatio="xMidYMid meet">
<metadata>
Created by potrace 1.16, written by Peter Selinger 2001-2019
</metadata>
<g transform="translate(0.000000,1280.000000) scale(0.100000,-0.100000)"
fill="#000000" stroke="none">
<path d="M3909 9786 c-40 -28 -52 -52 -69 -146 -6 -36 -26 -114 -45 -175 -19
-60 -41 -137 -50 -170 -9 -33 -31 -114 -49 -180 -43 -158 -56 -211 -56 -235 0
-19 7 -20 123 -20 107 0 499 24 551 33 47 9 41 80 -10 102 -26 11 -31 18 -27
35 4 14 -5 36 -27 66 -33 47 -34 74 -1 74 10 0 21 7 25 15 3 8 1 15 -3 15 -5
0 -17 21 -27 48 -22 59 -115 285 -156 377 -50 113 -101 185 -131 185 -7 0 -28
-11 -48 -24z"/>
<path d="M2867 9681 c-44 -49 -70 -128 -102 -317 -14 -78 -31 -170 -39 -205
-22 -100 -40 -330 -26 -339 8 -5 7 -10 -3 -18 -11 -9 -16 -59 -21 -208 l-8
-197 -36 -56 c-63 -98 -115 -175 -132 -196 -28 -32 -65 -104 -102 -200 -39
-98 -83 -264 -73 -274 4 -3 21 -11 38 -17 22 -7 33 -18 35 -34 3 -20 1 -22
-25 -16 -15 4 -35 14 -43 21 -44 40 -269 47 -309 11 -12 -11 -20 -27 -19 -35
3 -14 25 -16 155 -16 83 0 153 -2 156 -5 3 -3 8 -33 12 -66 l7 -62 -114 -36
c-63 -20 -118 -36 -123 -36 -18 -1 -55 -38 -55 -54 0 -31 30 -28 163 13 73 23
136 41 140 41 4 0 17 -21 29 -47 30 -66 60 -106 141 -189 l69 -72 -15 -58
c-78 -299 -130 -512 -152 -629 -17 -88 -38 -163 -57 -205 -112 -241 -189 -462
-283 -815 -49 -186 -57 -225 -80 -423 -19 -165 -19 -286 0 -422 15 -113 34
-175 90 -300 38 -84 40 -120 10 -180 -50 -102 -14 -257 75 -322 39 -28 155
-53 185 -40 15 7 26 8 30 2 10 -16 131 -12 148 5 13 13 16 13 27 0 17 -21 133
-21 150 0 9 11 16 12 30 3 14 -9 31 -7 76 7 52 16 68 17 139 6 193 -29 288
-34 600 -34 279 0 353 3 475 21 125 17 148 18 167 6 30 -19 99 -29 107 -15 5
8 14 7 29 -4 24 -17 109 -20 137 -5 13 7 21 7 25 0 8 -13 152 -13 160 0 5 8
11 7 21 -1 23 -19 109 -11 180 17 53 22 74 37 111 83 25 31 56 79 68 106 13
28 50 91 84 142 54 80 89 147 136 258 7 17 27 80 46 140 31 104 33 119 33 270
1 285 -32 523 -104 744 -15 47 -33 106 -41 131 -45 158 -183 476 -245 568 -40
59 -121 236 -144 315 -29 98 -123 291 -288 587 -60 109 -72 134 -72 158 0 36
22 156 30 165 11 12 83 -10 184 -56 84 -40 89 -40 102 -23 17 24 4 50 -39 77
-51 31 -183 69 -241 69 -59 0 -93 18 -83 44 6 15 15 16 60 11 l54 -7 6 54 c4
29 9 64 13 77 7 24 7 24 -49 18 -67 -7 -103 11 -77 37 9 9 43 20 75 24 l60 7
3 95 c2 52 -1 151 -7 220 -6 69 -16 188 -22 265 -15 197 -74 480 -105 506 -8
6 -14 17 -14 24 0 7 -9 24 -20 38 l-20 25 -147 -5 c-82 -2 -233 -11 -338 -19
-347 -26 -645 -36 -895 -29 -135 3 -246 8 -248 9 -1 2 65 6 148 10 82 3 218 9
300 12 83 4 150 11 150 16 0 12 -80 220 -90 233 -4 6 -13 28 -20 50 -7 22 -21
56 -31 75 -21 41 -100 237 -119 295 -18 57 -75 166 -99 193 -31 32 -54 28 -94
-17z m1085 -1434 c46 -28 108 -105 108 -134 0 -12 10 -41 21 -63 38 -73 16
-230 -52 -372 -33 -67 -74 -118 -96 -118 -7 0 -13 -3 -13 -8 0 -17 -95 -41
-130 -33 -133 32 -191 107 -223 285 -14 82 4 259 31 295 10 15 22 35 26 46 10
31 83 105 103 105 10 0 25 5 33 10 8 5 47 10 85 10 55 0 78 -5 107 -23z m-889
-21 c44 -18 84 -66 130 -156 l39 -75 -5 -100 c-6 -125 -31 -223 -71 -284 -25
-36 -47 -54 -108 -84 -75 -37 -78 -38 -122 -25 -24 7 -58 25 -75 40 -66 59
-84 134 -85 353 -1 144 0 152 27 206 32 67 72 115 107 128 37 14 126 13 163
-3z"/>
<path d="M3775 8173 c-69 -15 -87 -27 -120 -76 -45 -68 -61 -169 -44 -271 15
-92 33 -132 77 -173 53 -50 88 -66 129 -58 60 11 82 27 120 83 40 62 52 106
53 203 0 83 -20 152 -64 213 -52 74 -89 93 -151 79z"/>
<path d="M2902 8143 c-74 -36 -102 -106 -102 -258 0 -108 15 -177 50 -229 46
-67 66 -81 120 -81 57 0 88 20 142 90 102 135 57 414 -79 484 -31 16 -92 13
-131 -6z"/>
<path d="M4555 7682 c-6 -4 -12 -19 -13 -34 l-2 -28 99 0 c116 0 131 4 131 35
0 13 -7 26 -16 29 -22 9 -187 7 -199 -2z"/>
<path d="M5350 4515 c0 -3 -9 -47 -20 -97 -25 -109 -58 -194 -112 -290 -22
-38 -37 -72 -34 -75 2 -3 42 -11 88 -19 170 -29 277 -68 334 -121 32 -29 32
-82 2 -110 -38 -34 -144 -83 -307 -140 -180 -62 -227 -74 -416 -102 -276 -40
-354 -47 -645 -56 -80 -2 -194 -9 -255 -14 -60 -6 -137 -13 -170 -15 -98 -8
-185 -31 -268 -70 -99 -47 -149 -95 -172 -165 -21 -65 -11 -109 35 -159 92
-96 208 -96 557 3 195 56 279 63 743 64 385 1 538 11 740 51 58 11 157 30 220
41 391 67 627 172 738 329 66 92 84 136 89 220 10 133 -28 209 -169 346 -92
90 -150 131 -263 187 -87 43 -125 56 -320 112 -49 14 -112 32 -140 40 -95 29
-255 54 -255 40z"/>
</g>
</svg>
