<?xml version="1.0" standalone="no"?>
<!DOCTYPE svg PUBLIC "-//W3C//DTD SVG 20010904//EN"
 "http://www.w3.org/TR/2001/REC-SVG-20010904/DTD/svg10.dtd">
<svg version="1.0" xmlns="http://www.w3.org/2000/svg"
 width="704.000000pt" height="1280.000000pt" viewBox="0 0 704.000000 1280.000000"
 preserveAspectRatio="xMidYMid meet">
<metadata>
Created by potrace 1.16, written by Peter Selinger 2001-2019
</metadata>
<g transform="translate(0.000000,1280.000000) scale(0.100000,-0.100000)"
fill="#000000" stroke="none">
<path d="M3922 9793 c-47 -23 -57 -44 -82 -167 -11 -60 -25 -117 -30 -125 -13
-25 -50 -139 -50 -154 0 -8 -8 -40 -19 -73 -46 -147 -101 -362 -101 -398 0
-32 10 -33 230 -24 286 10 340 24 340 82 0 12 6 32 14 46 11 21 10 30 -2 55
-8 17 -18 32 -21 35 -3 3 -26 29 -50 58 -27 34 -40 57 -34 63 5 5 34 12 64 16
30 3 57 10 60 16 9 14 -22 108 -75 222 -25 55 -46 106 -46 112 0 26 -86 188
-116 220 -36 38 -38 38 -82 16z"/>
<path d="M2875 9689 c-51 -45 -71 -109 -131 -419 -21 -108 -41 -252 -49 -357
-7 -75 -6 -83 11 -90 10 -4 133 -1 274 6 140 8 274 13 298 13 41 -1 42 0 35
26 -7 28 -63 174 -88 229 -8 17 -15 34 -15 39 0 4 -11 30 -25 58 -41 85 -113
259 -120 291 -9 36 -81 183 -102 207 -26 29 -52 28 -88 -3z"/>
<path d="M4290 8849 c-87 -15 -769 -41 -1180 -46 -228 -2 -418 -8 -422 -11 -4
-4 -10 -93 -14 -197 l-7 -190 -49 -85 c-65 -112 -107 -178 -139 -220 -35 -46
-63 -103 -99 -201 -34 -91 -62 -213 -54 -234 3 -8 20 -15 37 -17 24 -2 33 -8
35 -25 2 -13 -2 -23 -8 -23 -14 0 -53 20 -60 31 -10 15 -163 31 -229 25 -79
-8 -103 -20 -99 -49 3 -22 6 -22 155 -22 83 0 153 -2 156 -5 2 -3 7 -33 11
-67 l7 -61 -33 -10 c-18 -6 -79 -25 -135 -42 -109 -34 -145 -59 -123 -85 16
-19 51 -14 184 32 55 18 106 33 113 33 7 0 23 -21 35 -47 30 -66 91 -146 156
-209 46 -44 54 -56 48 -76 -4 -12 -11 -39 -16 -58 -4 -19 -30 -123 -58 -230
-28 -107 -66 -271 -85 -365 -27 -129 -45 -190 -75 -255 -138 -291 -300 -820
-332 -1080 -6 -52 -15 -122 -21 -156 -5 -33 -9 -121 -9 -195 0 -170 22 -276
89 -445 56 -138 55 -135 21 -250 -41 -137 11 -263 132 -319 55 -26 132 -33
143 -15 5 8 11 7 20 0 9 -8 38 -10 82 -6 84 7 84 7 161 0 41 -4 68 -2 77 6 8
6 24 9 35 5 12 -4 50 1 84 10 58 16 70 16 162 1 264 -41 764 -45 1049 -7 128
18 142 18 165 3 13 -8 50 -16 80 -18 31 -1 84 -5 117 -9 55 -6 62 -5 76 15 14
21 14 21 20 0 5 -18 13 -20 80 -20 42 0 79 5 82 10 5 8 11 7 21 -1 21 -17 131
-6 186 19 66 31 136 105 175 187 18 38 47 91 65 117 102 147 112 167 189 398
35 102 40 129 45 245 4 87 1 188 -10 305 -18 193 -39 305 -86 455 -17 55 -37
124 -45 153 -38 136 -186 475 -256 587 -14 22 -41 74 -59 115 -19 41 -40 82
-47 91 -7 8 -13 22 -13 31 0 64 -195 474 -341 717 -26 44 -39 77 -39 101 0 45
20 152 31 164 9 11 124 -26 201 -65 47 -24 63 -28 74 -18 37 31 4 68 -96 107
-76 29 -128 42 -172 42 -54 0 -88 16 -88 41 0 20 4 21 44 16 24 -4 50 -8 57
-9 9 -2 15 14 20 47 4 28 10 62 14 78 l7 27 -65 0 c-39 0 -69 5 -73 12 -12 18
31 45 84 52 31 4 52 12 56 21 16 42 -14 528 -45 730 -19 122 -58 288 -83 350
-28 67 -43 76 -116 64z m-336 -603 c49 -28 106 -104 106 -139 0 -14 8 -33 18
-43 24 -24 23 -185 -2 -266 -18 -59 -76 -182 -98 -208 -38 -44 -139 -83 -188
-71 -133 33 -191 107 -223 285 -15 85 4 259 32 297 12 16 21 32 21 36 0 5 18
29 40 53 22 25 40 48 40 53 0 4 10 7 23 7 12 0 29 5 37 10 8 5 46 10 84 10 55
0 78 -5 110 -24z m-841 -54 c24 -23 59 -73 78 -110 30 -60 34 -77 37 -163 3
-76 -1 -113 -18 -178 -33 -121 -68 -167 -162 -214 -74 -36 -79 -38 -120 -26
-56 17 -123 82 -136 135 -25 100 -34 188 -31 294 4 101 7 122 32 171 29 59 68
109 102 128 12 7 52 10 97 9 76 -3 78 -4 121 -46z"/>
<path d="M3764 8171 c-87 -21 -138 -87 -154 -202 -20 -139 17 -271 96 -335 36
-30 50 -35 92 -36 71 0 101 18 145 89 35 56 39 69 44 151 7 111 -7 173 -57
251 -53 82 -90 100 -166 82z"/>
<path d="M2925 8155 c-96 -33 -132 -122 -122 -300 7 -124 17 -157 65 -220 65
-85 145 -85 220 0 66 75 77 106 77 225 0 101 -1 108 -37 180 -53 107 -118 144
-203 115z"/>
<path d="M5351 4499 c-6 -13 -17 -58 -26 -99 -20 -90 -63 -201 -110 -281 -32
-56 -33 -59 -15 -69 10 -5 30 -10 43 -10 47 0 227 -48 281 -74 77 -38 106 -68
106 -110 0 -43 -31 -70 -141 -120 -90 -41 -319 -121 -403 -140 -86 -20 -310
-53 -446 -66 -63 -6 -158 -15 -210 -20 -52 -6 -151 -10 -220 -10 -118 0 -359
-15 -425 -26 -198 -33 -325 -86 -380 -158 -58 -76 -56 -169 5 -234 54 -56 84
-66 195 -65 112 1 134 6 360 68 88 24 198 49 245 54 47 5 261 10 475 10 453 0
499 4 905 76 221 40 294 57 428 101 241 80 362 171 449 339 19 36 27 71 31
123 8 122 -27 201 -142 322 -168 176 -368 271 -776 369 -69 17 -146 33 -172
37 -43 6 -48 4 -57 -17z"/>
</g>
</svg>
