<?xml version="1.0" standalone="no"?>
<!DOCTYPE svg PUBLIC "-//W3C//DTD SVG 20010904//EN"
 "http://www.w3.org/TR/2001/REC-SVG-20010904/DTD/svg10.dtd">
<svg version="1.0" xmlns="http://www.w3.org/2000/svg"
 width="704.000000pt" height="1280.000000pt" viewBox="0 0 704.000000 1280.000000"
 preserveAspectRatio="xMidYMid meet">
<metadata>
Created by potrace 1.16, written by Peter Selinger 2001-2019
</metadata>
<g transform="translate(0.000000,1280.000000) scale(0.100000,-0.100000)"
fill="#000000" stroke="none">
<path d="M3910 9782 c-37 -25 -47 -41 -58 -97 -34 -162 -43 -197 -66 -265 -14
-41 -26 -82 -26 -91 0 -9 -11 -50 -24 -90 -40 -125 -75 -261 -82 -316 l-7 -53
44 0 c61 0 499 19 587 26 65 5 72 8 72 27 0 29 -102 328 -139 411 -42 91 -76
174 -91 221 -18 56 -76 173 -106 212 -28 38 -63 42 -104 15z"/>
<path d="M2863 9675 c-36 -43 -63 -136 -113 -385 -21 -103 -44 -261 -53 -372
-8 -85 -14 -84 239 -68 211 13 216 14 243 40 37 33 71 97 71 131 0 24 -19 78
-55 154 -8 17 -22 48 -31 70 -9 22 -32 76 -51 120 -19 44 -43 106 -54 138 -20
60 -71 159 -97 190 -25 29 -67 21 -99 -18z"/>
<path d="M4010 8828 c-250 -11 -304 -18 -308 -40 -2 -13 3 -18 17 -18 37 0 22
-17 -43 -49 -34 -17 -75 -43 -91 -58 -26 -27 -27 -31 -23 -118 3 -59 10 -103
22 -127 16 -34 16 -39 3 -53 -23 -23 -38 -19 -101 25 -78 55 -130 80 -163 80
-41 0 -133 -32 -170 -57 -37 -28 -52 -29 -55 -5 -3 37 3 66 31 151 25 77 20
124 -16 149 -14 9 -41 31 -60 47 l-36 30 -160 3 c-88 2 -163 0 -168 -5 -5 -5
-11 -92 -15 -193 -6 -172 -8 -188 -30 -222 -13 -21 -24 -41 -24 -44 0 -4 -33
-57 -74 -118 -116 -176 -172 -298 -206 -454 -13 -61 -15 -84 -7 -87 7 -2 24
-6 38 -9 27 -6 44 -30 33 -47 -9 -15 -33 -10 -62 11 -51 37 -247 53 -302 25
-30 -16 -42 -54 -17 -56 6 0 66 0 133 1 66 1 133 -4 148 -9 26 -10 27 -14 24
-68 l-3 -57 -80 -29 c-181 -64 -209 -77 -213 -100 -5 -27 57 -22 173 14 156
48 139 51 180 -31 24 -48 62 -99 117 -156 l81 -84 -11 -38 c-49 -167 -101
-387 -147 -620 -26 -130 -44 -195 -74 -260 -121 -270 -205 -509 -278 -792 -67
-262 -73 -308 -80 -586 -7 -289 1 -344 69 -499 64 -145 63 -135 23 -268 -18
-62 -14 -134 10 -193 15 -37 67 -89 115 -113 46 -24 124 -35 149 -22 13 7 22
8 26 1 9 -14 138 -13 153 2 8 8 15 8 26 -1 27 -23 246 -3 302 27 16 8 47 6
130 -9 252 -45 723 -50 1027 -10 144 19 148 19 190 1 54 -24 239 -39 261 -21
10 8 16 9 21 1 3 -5 40 -10 81 -10 58 0 76 3 80 15 6 14 8 13 19 -1 10 -15 23
-16 88 -11 138 12 186 49 267 202 45 85 159 277 170 285 4 3 14 25 23 50 8 25
24 68 35 95 82 207 95 324 68 632 -16 183 -42 325 -91 483 -14 47 -30 102 -36
123 -9 38 -64 190 -101 281 -35 87 -121 260 -144 291 -35 48 -140 274 -159
345 -17 62 -213 470 -253 527 -11 16 -39 66 -62 112 -39 78 -42 89 -35 135 3
28 9 70 12 94 4 31 9 42 22 42 27 0 125 -36 193 -70 63 -32 88 -29 88 11 0 42
-183 119 -284 119 -59 0 -93 18 -83 44 6 15 15 16 60 11 l54 -7 6 55 c9 95 12
97 127 97 116 0 130 4 130 36 l0 25 -112 -3 c-110 -3 -112 -3 -118 -28 -6 -24
-10 -25 -75 -25 -37 0 -70 5 -72 10 -7 22 16 35 75 41 55 6 63 10 68 31 13 49
-12 447 -41 677 -23 177 -80 392 -118 444 -11 14 -74 14 -367 0z m-48 -583
c70 -47 92 -84 129 -230 27 -104 -37 -334 -116 -418 -14 -15 -53 -41 -85 -57
-65 -33 -96 -33 -165 1 -74 37 -93 59 -124 149 -45 126 -54 206 -34 310 9 47
21 92 28 100 6 8 23 35 37 60 40 69 75 97 138 108 76 15 148 6 192 -23z m-898
-15 c27 -10 97 -81 107 -109 4 -9 18 -34 32 -54 20 -29 25 -50 26 -103 0 -36
3 -69 5 -73 3 -4 -2 -48 -10 -97 -25 -140 -84 -226 -191 -275 -53 -24 -93 -21
-153 10 -21 11 -41 17 -44 14 -3 -4 -6 0 -6 7 0 7 -6 21 -14 29 -27 30 -54
170 -55 289 -2 135 12 205 53 275 44 73 84 97 162 97 34 0 74 -4 88 -10z"/>
<path d="M3755 8171 c-86 -21 -142 -109 -152 -240 -7 -91 12 -167 59 -243 38
-61 82 -88 143 -88 61 0 99 23 135 81 38 62 50 109 50 200 0 93 -19 160 -64
224 -52 72 -88 86 -171 66z"/>
<path d="M2924 8154 c-80 -27 -124 -115 -124 -250 0 -116 15 -170 77 -277 51
-89 170 -69 240 40 46 72 62 145 50 233 -14 109 -61 216 -106 240 -41 21 -98
27 -137 14z"/>
<path d="M5341 4473 c-7 -26 -16 -68 -21 -95 -13 -64 -53 -164 -102 -250 -43
-75 -41 -87 12 -88 14 0 41 -4 60 -9 19 -5 62 -14 95 -21 60 -13 185 -66 218
-93 9 -8 22 -29 28 -46 10 -28 9 -35 -10 -55 -12 -13 -39 -32 -59 -42 -20 -10
-44 -24 -52 -30 -8 -6 -55 -26 -105 -44 -49 -18 -126 -46 -170 -62 -44 -17
-96 -34 -115 -39 -98 -24 -485 -79 -600 -84 -30 -2 -167 -8 -305 -14 -412 -17
-500 -30 -657 -92 -134 -54 -213 -160 -187 -253 25 -91 89 -135 208 -143 92
-7 188 11 376 67 72 21 155 44 185 50 31 6 264 15 535 20 468 8 585 15 750 45
44 8 134 24 200 36 163 28 314 64 388 93 34 13 73 27 87 31 43 13 122 56 196
107 151 103 232 292 190 439 -22 73 -59 130 -142 219 -127 135 -317 236 -569
306 -33 9 -87 25 -120 35 -74 23 -241 59 -276 59 -23 0 -28 -6 -38 -47z"/>
</g>
</svg>
