<?xml version="1.0" standalone="no"?>
<!DOCTYPE svg PUBLIC "-//W3C//DTD SVG 20010904//EN"
 "http://www.w3.org/TR/2001/REC-SVG-20010904/DTD/svg10.dtd">
<svg version="1.0" xmlns="http://www.w3.org/2000/svg"
 width="704.000000pt" height="1280.000000pt" viewBox="0 0 704.000000 1280.000000"
 preserveAspectRatio="xMidYMid meet">
<metadata>
Created by potrace 1.16, written by Peter Selinger 2001-2019
</metadata>
<g transform="translate(0.000000,1280.000000) scale(0.100000,-0.100000)"
fill="#000000" stroke="none">
<path d="M3906 9779 c-35 -28 -51 -61 -65 -139 -6 -36 -21 -94 -32 -130 -11
-36 -33 -112 -48 -170 -16 -58 -43 -152 -61 -210 -24 -79 -60 -235 -60 -257 0
-10 475 10 532 23 27 5 29 9 44 95 5 35 3 40 -56 95 -70 67 -99 112 -80 124 7
4 38 11 69 14 81 9 87 15 72 68 -7 24 -30 84 -50 133 -21 50 -48 117 -61 150
-25 67 -80 168 -109 203 -24 28 -60 28 -95 1z"/>
<path d="M2874 9687 c-45 -47 -87 -173 -109 -327 -3 -25 -17 -90 -30 -145 -22
-94 -49 -352 -39 -378 3 -9 75 -10 297 -4 160 4 298 10 305 12 20 7 14 35 -34
150 -25 61 -50 126 -56 145 -5 19 -14 40 -18 45 -4 6 -24 51 -45 100 -56 136
-71 175 -90 235 -18 55 -64 140 -93 173 -21 24 -63 21 -88 -6z"/>
<path d="M4278 8836 c-15 -8 -38 -22 -50 -30 -28 -20 -48 -20 -48 -1 0 24 -44
28 -199 21 -486 -21 -650 -26 -948 -25 -183 0 -336 -2 -341 -5 -5 -3 -12 -94
-16 -203 l-8 -198 -36 -57 c-21 -32 -72 -111 -115 -175 -50 -77 -91 -154 -117
-221 -40 -104 -83 -269 -74 -284 3 -4 18 -8 33 -8 31 0 57 -23 46 -40 -9 -15
-34 -12 -80 10 -111 54 -334 41 -323 -18 3 -15 22 -17 160 -20 l156 -2 7 -60
c7 -61 3 -80 -19 -80 -26 0 -241 -72 -255 -85 -12 -12 -12 -17 -1 -29 19 -23
53 -20 175 19 61 19 114 35 118 35 4 0 16 -19 26 -42 28 -66 65 -116 142 -195
l71 -71 -20 -84 c-11 -45 -45 -182 -76 -303 -31 -121 -63 -260 -72 -309 -16
-95 -33 -151 -69 -231 -91 -203 -212 -539 -245 -685 -7 -30 -26 -104 -42 -165
-35 -134 -78 -430 -78 -535 0 -207 36 -388 109 -541 37 -78 38 -101 10 -171
-15 -38 -21 -73 -20 -124 2 -148 74 -229 214 -242 49 -4 62 -2 73 12 11 16 13
16 19 -3 6 -18 14 -21 71 -21 36 0 74 5 84 10 12 6 21 7 25 0 7 -11 133 -12
140 0 2 4 16 5 30 2 14 -2 51 3 81 13 54 17 60 17 217 -6 143 -20 202 -22 502
-23 285 0 364 4 485 20 141 20 146 20 187 2 23 -10 59 -19 80 -18 21 0 69 -3
107 -6 58 -5 72 -3 82 10 9 13 13 14 17 3 7 -18 132 -31 158 -16 13 6 25 6 39
-1 26 -14 139 4 189 30 61 31 117 99 159 191 22 48 45 90 51 93 5 4 35 47 66
97 58 93 94 178 125 289 10 36 24 79 30 95 38 92 27 507 -19 743 -53 272 -229
746 -340 917 -25 39 -48 75 -50 80 -2 6 -23 51 -47 100 -23 50 -50 119 -59
154 -9 35 -36 103 -59 150 -24 47 -47 97 -51 111 -4 14 -59 117 -121 230 -62
113 -116 217 -119 232 -6 23 18 175 30 186 6 6 101 -27 183 -64 74 -34 102
-35 102 -5 0 50 -134 113 -269 126 -75 7 -104 20 -99 43 4 18 20 20 78 8 l36
-7 13 63 c20 98 15 94 138 97 112 3 130 10 112 43 -9 17 -22 18 -112 16 -93
-3 -102 -5 -105 -23 -6 -30 -11 -32 -83 -40 -55 -5 -67 -4 -72 9 -10 26 20 45
82 52 l59 6 4 57 c8 143 -32 593 -73 800 -32 163 -57 239 -89 273 -11 12 -20
25 -20 30 0 13 -53 9 -82 -6z m-341 -577 c56 -21 123 -106 123 -156 0 -14 8
-35 17 -45 27 -31 29 -137 4 -238 -43 -170 -99 -250 -204 -290 -41 -16 -53
-17 -95 -6 -61 17 -83 29 -125 69 -47 45 -92 170 -99 277 -5 78 25 208 60 265
35 56 95 115 122 120 13 2 25 7 28 10 10 9 140 5 169 -6z m-877 -30 c43 -16
80 -58 127 -144 36 -69 37 -72 38 -180 0 -207 -48 -313 -175 -384 -66 -36
-124 -31 -188 16 -67 50 -102 174 -102 363 0 112 2 127 30 194 29 69 61 110
105 134 26 15 123 15 165 1z"/>
<path d="M3772 8169 c-62 -8 -87 -28 -126 -99 -28 -51 -50 -180 -40 -237 15
-87 35 -130 84 -181 52 -52 52 -52 116 -52 60 0 65 2 100 37 54 54 77 113 82
215 6 120 -22 212 -82 272 -49 50 -63 54 -134 45z"/>
<path d="M2887 8135 c-56 -39 -80 -93 -85 -199 -6 -124 12 -218 54 -283 42
-64 68 -83 112 -83 62 0 129 54 173 140 19 38 23 62 23 151 1 61 -4 112 -10
120 -6 8 -16 33 -22 56 -9 28 -27 54 -59 82 -41 37 -51 41 -97 41 -38 0 -61
-6 -89 -25z"/>
<path d="M5345 4508 c-2 -7 -6 -30 -10 -52 -14 -85 -58 -216 -103 -303 -25
-51 -44 -95 -41 -97 3 -3 61 -17 130 -30 142 -28 198 -46 252 -82 40 -26 71
-82 61 -108 -28 -72 -379 -214 -639 -259 -241 -41 -586 -74 -875 -82 -297 -9
-420 -27 -564 -82 -254 -99 -246 -372 12 -399 85 -9 187 10 432 83 135 40 192
45 600 48 406 3 659 16 775 41 39 8 146 28 238 45 216 38 314 62 437 105 376
130 534 391 398 659 -12 22 -53 73 -92 113 -139 144 -256 212 -508 295 -172
57 -272 83 -382 102 -108 18 -116 18 -121 3z"/>
</g>
</svg>
