<?xml version="1.0" standalone="no"?>
<!DOCTYPE svg PUBLIC "-//W3C//DTD SVG 20010904//EN"
 "http://www.w3.org/TR/2001/REC-SVG-20010904/DTD/svg10.dtd">
<svg version="1.0" xmlns="http://www.w3.org/2000/svg"
 width="704.000000pt" height="1280.000000pt" viewBox="0 0 704.000000 1280.000000"
 preserveAspectRatio="xMidYMid meet">
<metadata>
Created by potrace 1.16, written by Peter Selinger 2001-2019
</metadata>
<g transform="translate(0.000000,1280.000000) scale(0.100000,-0.100000)"
fill="#000000" stroke="none">
<path d="M4548 10554 c-167 -17 -288 -38 -424 -73 -313 -82 -593 -228 -787
-410 -184 -173 -286 -353 -323 -568 -62 -364 120 -730 490 -982 130 -88 229
-140 377 -196 284 -108 566 -155 928 -155 411 0 786 81 1097 238 221 112 429
287 538 455 215 329 215 681 2 1001 -101 152 -241 282 -425 396 -381 236 -946
349 -1473 294z m453 -154 c494 -38 906 -197 1166 -451 122 -119 185 -216 235
-361 30 -86 32 -103 32 -223 0 -106 -4 -143 -22 -201 -95 -309 -396 -571 -819
-715 -250 -85 -476 -119 -788 -119 -296 0 -479 23 -699 86 -579 168 -936 527
-936 941 0 123 22 217 75 328 230 474 968 775 1756 715z"/>
<path d="M4584 10090 c-113 -29 -294 -127 -294 -159 0 -7 13 -30 29 -50 15
-20 47 -66 70 -103 24 -38 44 -68 46 -68 2 0 30 18 61 40 76 53 154 81 244 87
66 4 81 2 120 -19 81 -43 101 -130 50 -213 -12 -20 -74 -76 -139 -124 -64 -49
-129 -102 -145 -119 -29 -31 -29 -32 -22 -119 4 -48 9 -110 13 -137 l6 -49 81
7 c45 3 102 9 127 12 l47 6 -5 82 -6 82 137 113 c197 164 246 244 246 401 0
165 -108 284 -305 335 -84 22 -269 19 -361 -5z"/>
<path d="M4694 8931 c-49 -12 -90 -47 -113 -94 -87 -179 125 -341 277 -212
139 120 15 350 -164 306z"/>
<path d="M3773 8310 c-18 -4 -49 -20 -68 -34 -104 -80 -98 -231 13 -307 28
-19 48 -24 98 -24 53 0 69 4 105 30 127 90 103 268 -43 329 -40 17 -56 18
-105 6z m125 -115 c33 -39 30 -96 -7 -137 -25 -28 -36 -33 -76 -33 -40 0 -51
5 -76 33 -41 45 -40 99 1 141 48 47 114 45 158 -4z"/>
<path d="M3461 7965 c-52 -60 -39 -155 27 -189 l26 -13 -25 -8 c-13 -4 -40
-18 -60 -31 -20 -13 -39 -20 -42 -17 -3 3 -18 -4 -33 -16 -18 -14 -41 -21 -71
-21 -32 0 -54 -7 -77 -25 -18 -14 -40 -25 -48 -25 -8 0 -32 -13 -53 -30 -21
-16 -47 -30 -57 -30 -11 0 -33 -11 -50 -25 -40 -34 -77 -32 -113 5 l-29 30
-182 0 -182 0 -16 25 -16 25 -473 0 -474 0 -23 25 c-16 17 -34 25 -57 25 -23
0 -42 8 -59 25 -14 14 -33 25 -43 25 -9 0 -27 9 -38 19 -11 11 -39 25 -62 31
-22 6 -41 15 -41 20 0 19 -40 50 -63 50 -16 0 -28 9 -35 25 -6 14 -15 25 -19
26 -13 0 -367 1 -379 0 -5 -1 -21 -16 -34 -33 -24 -32 -24 -36 -21 -228 l3
-195 -31 -28 c-42 -37 -44 -91 -4 -123 l28 -22 0 -276 0 -277 -29 -22 c-23
-19 -29 -32 -31 -75 -2 -38 -9 -59 -29 -82 -23 -28 -25 -38 -23 -111 2 -74 0
-82 -22 -98 -22 -17 -23 -23 -25 -155 l-1 -138 -27 -20 -28 -20 0 -228 0 -228
-27 -33 c-24 -28 -28 -41 -26 -86 2 -44 -1 -56 -22 -77 -16 -16 -25 -36 -25
-57 0 -26 -10 -42 -54 -83 -43 -41 -55 -59 -61 -93 -4 -26 -13 -44 -23 -48 -9
-3 -32 -30 -51 -61 -19 -30 -49 -71 -67 -91 -69 -75 -64 48 -64 -1526 l0
-1425 34 -22 c19 -11 49 -38 67 -60 18 -21 44 -41 57 -45 14 -3 39 -17 55 -31
19 -16 41 -24 66 -24 26 0 47 -8 71 -30 23 -19 46 -29 67 -30 21 0 36 -7 42
-19 8 -13 26 -20 70 -24 40 -3 67 -11 81 -25 12 -11 40 -23 63 -26 23 -4 614
-9 1312 -13 1402 -6 1825 2 1874 37 20 14 54 19 154 24 103 5 132 9 155 25 18
13 53 21 107 26 58 4 86 11 100 25 14 14 42 21 100 25 56 5 89 13 109 27 17
13 57 24 104 30 43 5 90 18 108 29 18 11 49 19 73 19 46 0 71 10 102 41 10 10
32 19 48 19 15 0 39 9 53 19 13 11 38 23 54 27 16 4 35 11 41 16 7 6 30 12 50
15 24 3 52 18 76 39 20 19 42 34 48 34 6 0 18 9 27 20 34 39 160 68 308 69 48
1 67 6 94 26 20 15 47 25 67 25 21 0 44 10 65 28 21 18 55 33 93 41 97 21 238
105 369 219 95 83 196 184 196 198 0 6 7 17 16 25 8 7 25 30 37 52 12 21 34
60 49 86 15 25 39 70 52 99 14 28 30 52 35 52 5 0 16 30 25 67 10 36 26 79 37
94 12 18 19 44 19 76 0 27 12 87 26 134 24 80 25 93 21 262 -2 99 -8 182 -13
185 -20 15 -32 63 -44 173 -8 71 -19 125 -30 144 -10 17 -23 47 -29 67 -7 20
-18 42 -26 48 -8 7 -17 27 -21 45 -3 18 -17 43 -30 56 -13 12 -27 37 -30 56
-5 25 -32 59 -106 133 -191 192 -318 252 -533 254 -96 1 -103 0 -165 -34 -90
-48 -170 -127 -170 -166 0 -16 -9 -47 -20 -69 -24 -46 -26 -95 -6 -138 8 -18
22 -48 31 -67 36 -80 82 -139 179 -228 20 -19 36 -39 36 -46 0 -6 15 -28 33
-49 68 -77 89 -108 99 -144 5 -21 16 -45 23 -53 24 -27 32 -63 23 -100 -5 -19
-13 -69 -17 -111 -7 -66 -14 -85 -51 -142 -23 -37 -46 -67 -50 -67 -4 0 -12
-17 -18 -37 -23 -74 -169 -203 -231 -203 -9 0 -33 -9 -54 -20 -72 -39 -127
-19 -127 45 0 19 -5 46 -11 62 -7 15 -15 74 -20 130 -6 81 -12 108 -28 129
-12 15 -21 33 -21 41 0 8 -11 28 -25 45 -14 16 -25 42 -25 56 0 15 -9 38 -20
52 -45 57 -70 103 -70 130 0 16 -4 31 -9 35 -6 3 -30 32 -55 65 -31 40 -46 70
-46 90 0 19 -10 40 -30 60 -16 17 -30 36 -30 43 0 7 -16 28 -35 47 -19 19 -35
44 -35 56 0 12 -11 36 -25 52 -14 17 -25 37 -25 45 0 9 -11 29 -25 45 -14 17
-25 42 -25 60 0 16 -8 36 -17 43 -22 19 -93 129 -93 145 0 14 -53 99 -89 144
-11 14 -21 35 -21 47 0 12 -11 34 -24 50 -13 15 -31 45 -40 66 -9 22 -34 62
-56 89 -22 28 -43 62 -47 76 -3 14 -17 41 -30 60 -12 19 -23 40 -23 47 0 7 -9
23 -19 37 -11 13 -23 38 -27 54 -3 16 -13 40 -21 53 -26 41 -83 154 -83 163 0
10 -34 56 -69 93 -10 11 -22 31 -26 45 -4 14 -18 43 -31 66 -19 31 -24 56 -24
105 0 43 -6 76 -18 99 -11 19 -22 65 -25 103 -4 45 -14 81 -32 110 -14 24 -25
59 -25 78 0 19 -12 56 -26 83 l-27 50 8 225 c6 197 10 229 26 252 17 25 19 52
19 405 0 209 0 394 0 412 0 22 -8 39 -25 54 -14 12 -25 31 -25 44 0 25 -15 40
-52 49 -15 4 -33 14 -42 23 -12 14 -35 17 -130 17 -110 0 -116 -1 -143 -26
-22 -20 -40 -26 -82 -28 l-55 -3 32 27 c36 30 58 90 48 130 -4 15 -20 40 -36
56 -24 24 -37 29 -78 29 -45 0 -53 -4 -81 -35z m-2530 -607 c18 -24 49 -61 70
-83 59 -63 84 -120 84 -192 0 -70 -19 -99 -87 -134 -21 -11 -38 -23 -38 -28 0
-4 -21 -19 -46 -32 -43 -22 -47 -22 -59 -6 -14 19 -29 155 -19 180 3 9 0 66
-6 126 -13 122 -9 158 21 190 28 30 43 26 80 -21z m2967 -100 c17 -17 15 -43
-9 -134 -12 -47 -18 -94 -15 -115 4 -23 0 -48 -9 -65 -8 -16 -15 -46 -15 -66
0 -66 -22 -193 -36 -207 -11 -12 -16 -12 -38 2 -28 19 -34 26 -116 154 -60 91
-60 92 -60 167 l0 75 123 101 c119 97 150 113 175 88z m-762 -595 c27 -9 81
-38 120 -64 82 -55 130 -121 165 -227 22 -66 22 -65 1 -242 -14 -113 -74 -199
-174 -250 -55 -27 -71 -30 -154 -30 -51 0 -105 5 -121 11 -15 6 -50 17 -76 24
-60 17 -165 96 -206 155 -39 58 -69 193 -52 241 6 18 11 45 11 61 0 49 77 194
132 248 82 81 236 113 354 73z m-1433 -33 c92 -21 153 -64 209 -146 52 -76 88
-181 88 -261 0 -76 -28 -181 -62 -232 -45 -66 -160 -159 -206 -166 -21 -3 -52
-8 -70 -11 -91 -14 -254 35 -349 105 -55 40 -114 155 -138 270 -18 81 -18 87
-1 169 24 114 62 180 130 225 30 20 74 42 99 49 57 17 224 15 300 -2z"/>
<path d="M2853 6543 c-36 -37 -67 -83 -95 -140 -38 -80 -40 -90 -33 -146 10
-91 40 -160 92 -211 55 -55 87 -70 183 -90 94 -20 115 -20 181 1 104 32 151
111 163 274 5 65 2 85 -18 138 -45 112 -90 157 -202 195 -38 13 -102 26 -143
29 l-74 6 -54 -56z"/>
<path d="M1437 6544 c-23 -12 -61 -27 -84 -34 -39 -12 -43 -16 -67 -84 -31
-83 -34 -167 -10 -266 19 -82 49 -129 116 -178 73 -54 133 -72 242 -72 81 0
96 3 128 25 43 29 100 104 123 162 13 33 16 66 13 145 -3 92 -7 109 -36 167
-33 66 -59 91 -127 127 -32 18 -62 23 -148 26 -95 3 -113 0 -150 -18z"/>
</g>
</svg>
