<?xml version="1.0" standalone="no"?>
<!DOCTYPE svg PUBLIC "-//W3C//DTD SVG 20010904//EN"
 "http://www.w3.org/TR/2001/REC-SVG-20010904/DTD/svg10.dtd">
<svg version="1.0" xmlns="http://www.w3.org/2000/svg"
 width="704.000000pt" height="1280.000000pt" viewBox="0 0 704.000000 1280.000000"
 preserveAspectRatio="xMidYMid meet">
<metadata>
Created by potrace 1.16, written by Peter Selinger 2001-2019
</metadata>
<g transform="translate(0.000000,1280.000000) scale(0.100000,-0.100000)"
fill="#000000" stroke="none">
<path d="M4660 10560 c-310 -15 -571 -71 -825 -178 -245 -103 -414 -216 -570
-385 -139 -149 -221 -310 -251 -494 -84 -509 293 -989 946 -1206 619 -206
1410 -160 1946 113 267 136 446 294 572 506 95 160 136 337 121 521 -11 124
-31 198 -90 318 -189 389 -667 682 -1269 779 -86 14 -373 38 -410 34 -8 0 -85
-4 -170 -8z m370 -160 c718 -65 1263 -400 1387 -854 12 -42 17 -101 17 -191 0
-116 -3 -139 -28 -210 -44 -130 -108 -227 -221 -341 -226 -227 -539 -372 -960
-445 -171 -30 -578 -38 -755 -15 -177 24 -307 52 -445 97 -414 137 -711 386
-819 687 -28 81 -31 97 -31 222 0 149 14 217 65 329 114 244 391 463 750 595
291 107 701 156 1040 126z"/>
<path d="M4640 10083 c-19 -2 -42 -6 -50 -10 -8 -3 -42 -15 -76 -27 -156 -55
-336 -219 -381 -348 -8 -22 -19 -50 -25 -61 -36 -68 -49 -270 -24 -368 38
-143 139 -295 260 -388 119 -92 319 -144 464 -122 93 15 126 24 217 64 62 26
152 89 181 125 5 8 36 22 67 33 l58 20 28 -29 c19 -19 55 -36 105 -50 42 -13
76 -26 76 -30 0 -10 -54 -25 -270 -73 -96 -22 -198 -50 -226 -64 -91 -44 -95
-103 -12 -147 38 -19 61 -23 195 -26 137 -4 161 -2 250 21 54 14 125 36 158
48 62 23 141 87 156 127 12 31 -10 83 -46 106 l-27 18 41 29 c99 73 108 165
22 227 -49 36 -115 46 -196 31 -60 -11 -127 -40 -153 -65 -7 -8 -16 -14 -20
-14 -4 0 -27 -18 -51 -40 -26 -24 -48 -37 -54 -31 -5 5 13 52 43 114 51 104
52 107 57 219 10 211 -48 366 -192 513 -125 128 -260 187 -455 198 -47 3 -101
3 -120 0z m1077 -944 c39 -15 73 -49 73 -73 0 -49 -81 -123 -143 -132 -46 -6
-237 47 -251 69 -9 16 -5 24 27 52 83 73 221 112 294 84z m-34 -280 c12 -6 32
-21 44 -32 18 -16 20 -24 11 -41 -26 -52 -114 -98 -256 -133 -89 -22 -130 -27
-242 -27 -116 -1 -141 2 -174 19 -22 11 -42 25 -44 32 -6 21 40 42 148 67 58
14 157 37 220 52 63 15 142 37 175 49 71 27 89 29 118 14z"/>
<path d="M3761 8305 c-116 -36 -169 -173 -105 -271 93 -143 291 -115 344 48
27 85 -43 201 -137 227 -46 13 -47 13 -102 -4z m132 -106 c77 -83 -21 -217
-121 -165 -41 21 -62 53 -62 94 0 97 116 143 183 71z"/>
<path d="M3474 7982 c-31 -24 -44 -55 -44 -99 0 -45 20 -77 64 -104 26 -16 28
-19 10 -19 -12 0 -27 -7 -34 -14 -6 -8 -28 -20 -48 -27 -20 -6 -51 -20 -68
-30 -17 -11 -50 -19 -73 -19 -31 0 -48 -6 -67 -25 -14 -14 -36 -25 -49 -25
-15 0 -36 -12 -52 -30 -17 -19 -36 -30 -53 -30 -15 0 -39 -9 -53 -20 -17 -13
-40 -20 -71 -20 -38 0 -48 4 -57 23 -10 22 -13 22 -194 22 -178 0 -185 1 -205
23 -11 12 -26 23 -33 23 -7 1 -210 3 -452 4 -242 2 -453 5 -468 8 -15 2 -38
14 -51 26 -12 11 -34 21 -48 21 -14 0 -37 9 -52 21 -14 11 -42 25 -61 30 -19
6 -35 16 -35 23 0 16 -22 26 -56 26 -14 0 -32 11 -46 30 -12 17 -30 30 -40 30
-10 0 -30 14 -45 30 l-26 30 -189 0 -188 0 -26 -40 c-27 -40 -27 -41 -26 -229
l0 -189 -29 -28 c-40 -38 -41 -94 -1 -122 l27 -20 0 -277 0 -277 -28 -22 c-23
-19 -27 -29 -27 -73 0 -41 -6 -57 -30 -88 -28 -35 -30 -43 -27 -110 2 -64 -1
-76 -20 -97 -21 -23 -23 -33 -23 -157 l0 -132 -28 -24 -29 -24 -2 -233 -2
-233 -26 -27 c-22 -23 -26 -36 -24 -75 1 -38 -4 -55 -24 -82 -15 -21 -25 -48
-25 -68 0 -25 -7 -37 -28 -50 -50 -31 -82 -66 -82 -91 0 -31 -13 -53 -60 -104
-22 -24 -45 -56 -52 -73 -7 -16 -25 -41 -40 -53 -16 -13 -28 -30 -28 -37 0 -7
-7 -18 -15 -25 -13 -11 -15 -183 -15 -1437 l0 -1425 75 -74 c41 -41 83 -74 94
-74 11 0 28 -11 39 -25 16 -20 29 -25 66 -25 36 0 52 -6 79 -30 19 -16 46 -30
59 -30 13 0 34 -11 46 -24 17 -21 30 -25 73 -24 39 0 59 -6 83 -24 l31 -23
1595 0 1595 0 23 23 c20 20 31 22 150 22 122 0 130 1 151 24 18 19 35 24 108
30 65 5 92 11 108 25 14 14 42 21 103 27 57 4 90 12 107 25 24 20 104 39 158
39 17 0 39 8 49 17 12 10 45 20 83 24 48 5 72 13 95 33 20 16 43 26 65 26 18
0 39 7 46 16 19 23 116 64 151 64 18 0 40 11 61 30 53 51 109 90 127 90 9 0
30 7 46 15 17 8 77 17 139 21 86 5 120 12 157 30 26 13 59 24 73 24 30 0 65
16 80 37 6 8 42 22 80 33 39 10 92 30 118 44 97 51 304 210 390 301 38 39 147
198 147 212 0 5 16 30 35 57 19 27 35 55 35 61 0 7 9 23 19 36 10 14 27 56 36
94 10 38 23 75 30 82 7 7 16 36 20 65 3 29 16 91 28 138 19 72 22 110 21 250
-1 140 -5 174 -22 224 -12 32 -26 104 -32 160 -6 60 -18 117 -29 141 -49 100
-81 172 -81 181 0 6 -8 19 -18 30 -10 10 -26 33 -37 50 -121 192 -273 315
-462 373 -191 58 -308 34 -464 -96 -28 -24 -49 -66 -49 -98 0 -14 -10 -43 -22
-64 l-22 -39 28 -88 c16 -49 37 -98 47 -110 11 -11 19 -26 19 -33 0 -7 37 -50
83 -94 45 -45 88 -95 95 -111 7 -16 24 -37 37 -48 14 -11 25 -25 25 -32 0 -7
13 -25 29 -40 16 -15 32 -42 35 -59 4 -17 18 -49 33 -70 l27 -39 -17 -63 c-9
-35 -17 -88 -17 -118 0 -47 -6 -62 -42 -116 -23 -34 -49 -66 -59 -71 -9 -5
-20 -24 -23 -42 -12 -58 -151 -188 -201 -188 -12 0 -43 -11 -69 -25 -84 -45
-136 -27 -136 44 0 21 -7 55 -15 74 -10 23 -15 69 -15 127 0 84 -2 93 -25 114
-14 13 -25 30 -25 38 0 9 -10 27 -21 42 -12 15 -26 46 -31 69 -5 23 -15 49
-22 57 -20 22 -66 113 -66 128 0 14 -23 47 -77 111 -24 28 -33 48 -33 74 0 25
-7 41 -23 54 -13 10 -30 30 -37 43 -7 14 -24 36 -36 49 -13 13 -24 35 -24 50
0 14 -13 41 -30 60 -17 18 -30 40 -30 47 0 8 -10 24 -21 35 -12 12 -27 42 -34
68 -7 26 -30 71 -53 100 -22 30 -42 66 -45 81 -3 15 -17 41 -31 58 -15 16 -26
34 -26 39 0 6 -9 18 -20 28 -11 10 -26 37 -32 59 -7 23 -27 63 -45 90 -18 26
-33 52 -33 57 0 5 -19 35 -43 66 -24 32 -63 96 -86 143 -23 47 -48 96 -55 110
-43 81 -107 217 -106 226 0 7 -20 36 -45 66 -74 91 -105 160 -115 258 -4 47
-15 99 -24 115 -9 17 -16 50 -16 75 0 51 -17 120 -29 120 -12 0 -31 48 -31 81
0 16 -12 52 -26 80 -25 51 -25 52 -22 268 3 204 4 218 25 251 23 35 23 37 23
443 l0 408 -25 25 c-14 14 -25 34 -25 44 0 26 -35 60 -61 60 -12 0 -28 8 -35
18 -10 14 -30 17 -118 19 -102 2 -106 1 -142 -28 -32 -26 -44 -29 -103 -29
-65 1 -65 1 -34 15 87 37 95 168 13 210 -39 20 -100 19 -126 -3z m-2545 -622
c10 -17 42 -56 71 -87 44 -46 57 -69 72 -122 9 -37 18 -74 18 -84 0 -37 -33
-89 -65 -103 -18 -7 -51 -29 -74 -48 -99 -83 -111 -67 -116 145 -2 90 -6 187
-10 214 -12 96 61 156 104 85z m2981 -134 c0 -6 -7 -38 -16 -71 -9 -33 -20
-98 -24 -145 -11 -108 -45 -324 -54 -338 -18 -30 -82 30 -145 138 -18 30 -42
69 -54 85 -19 26 -22 41 -19 103 l4 73 56 42 c30 23 78 64 106 91 28 27 65 55
81 62 27 12 32 11 48 -8 9 -11 17 -25 17 -32z m-750 -576 c91 -45 175 -109
204 -155 15 -25 41 -82 56 -126 22 -66 26 -87 18 -122 -4 -23 -13 -76 -19
-117 -17 -114 -73 -198 -167 -248 -55 -30 -67 -32 -157 -32 -129 0 -228 31
-311 98 -126 102 -167 215 -136 382 29 159 122 286 243 330 74 27 205 23 269
-10z m-1441 -29 c115 -32 154 -65 219 -183 75 -136 81 -297 15 -416 -42 -76
-153 -176 -211 -192 -150 -40 -344 5 -450 104 -42 38 -95 148 -116 241 -20 89
-20 114 3 200 25 92 64 168 98 193 43 31 105 64 133 72 50 13 233 2 309 -19z"/>
<path d="M2853 6545 c-35 -36 -68 -84 -94 -138 -36 -74 -40 -88 -35 -139 8
-100 35 -166 89 -219 62 -61 111 -84 214 -100 72 -11 89 -10 146 5 79 21 108
49 142 135 19 49 25 84 26 155 2 89 1 94 -36 165 -21 40 -52 83 -70 96 -52 40
-143 75 -208 81 -34 3 -75 7 -91 9 -24 4 -37 -4 -83 -50z"/>
<path d="M1488 6559 c-18 -3 -51 -15 -73 -26 -22 -11 -54 -24 -72 -27 -28 -6
-35 -15 -54 -64 -46 -117 -27 -315 37 -399 67 -88 177 -133 326 -133 84 0 104
10 167 82 64 72 81 123 81 237 0 90 -2 102 -35 170 -54 112 -116 151 -257 160
-47 3 -101 3 -120 0z"/>
</g>
</svg>
