<?xml version="1.0" standalone="no"?>
<!DOCTYPE svg PUBLIC "-//W3C//DTD SVG 20010904//EN"
 "http://www.w3.org/TR/2001/REC-SVG-20010904/DTD/svg10.dtd">
<svg version="1.0" xmlns="http://www.w3.org/2000/svg"
 width="704.000000pt" height="1280.000000pt" viewBox="0 0 704.000000 1280.000000"
 preserveAspectRatio="xMidYMid meet">
<metadata>
Created by potrace 1.16, written by Peter Selinger 2001-2019
</metadata>
<g transform="translate(0.000000,1280.000000) scale(0.100000,-0.100000)"
fill="#000000" stroke="none">
<path d="M4610 10559 c-408 -34 -699 -117 -980 -278 -143 -81 -215 -136 -321
-241 -220 -219 -321 -460 -305 -725 35 -584 634 -1039 1491 -1131 182 -19 532
-14 699 10 435 64 776 206 1037 430 262 225 403 541 369 827 -49 405 -360 747
-863 949 -328 132 -749 191 -1127 159z m430 -164 c313 -27 525 -83 765 -200
167 -81 282 -163 400 -287 83 -86 102 -112 150 -211 84 -174 105 -334 65 -502
-18 -74 -91 -222 -143 -291 -195 -257 -562 -456 -982 -534 -214 -39 -596 -54
-795 -30 -289 34 -532 104 -739 212 -115 60 -127 68 -221 139 -241 183 -370
416 -370 667 0 225 85 408 271 587 353 339 953 507 1599 450z"/>
<path d="M3770 8308 c-88 -25 -145 -105 -138 -194 11 -134 145 -211 265 -153
141 68 140 263 -1 334 -54 27 -72 29 -126 13z m84 -82 c71 -30 89 -110 37
-168 -25 -28 -36 -33 -76 -33 -40 0 -51 5 -76 33 -53 59 -31 138 51 174 22 10
27 9 64 -6z"/>
<path d="M3461 7965 c-24 -28 -31 -45 -31 -77 0 -42 29 -100 58 -118 12 -6 13
-9 3 -10 -7 0 -26 -11 -43 -25 -16 -14 -39 -25 -50 -25 -12 0 -30 -7 -40 -16
-10 -10 -41 -19 -70 -22 -36 -3 -62 -13 -81 -28 -16 -13 -39 -24 -51 -24 -12
0 -35 -13 -51 -30 -16 -16 -39 -30 -51 -30 -12 0 -33 -9 -47 -20 -14 -11 -39
-23 -56 -26 -25 -5 -36 -1 -59 22 l-29 29 -183 3 c-176 3 -185 4 -212 27 l-27
23 -468 1 -468 1 -18 25 c-14 19 -28 25 -56 25 -27 0 -44 7 -61 25 -13 14 -30
25 -38 25 -8 0 -27 11 -44 25 -16 14 -42 25 -57 25 -28 0 -61 26 -61 48 0 7
-10 12 -22 12 -26 1 -58 22 -58 38 0 23 -40 28 -220 26 -220 -3 -200 -2 -200
-14 0 -6 -8 -22 -17 -37 -15 -22 -16 -51 -14 -214 l3 -189 -31 -27 c-41 -37
-44 -97 -6 -128 25 -20 26 -23 31 -180 7 -190 7 -164 -2 -298 -7 -104 -8 -108
-35 -128 -26 -18 -29 -26 -29 -79 0 -53 -3 -61 -26 -77 -26 -16 -26 -19 -20
-88 6 -66 4 -75 -19 -109 -23 -35 -25 -45 -25 -162 l0 -126 -30 -28 -30 -28 0
-230 0 -229 -29 -36 c-24 -31 -28 -43 -24 -79 4 -37 1 -47 -21 -67 -19 -18
-26 -35 -26 -62 0 -32 -6 -42 -42 -71 -55 -42 -66 -56 -74 -95 -3 -17 -17 -41
-30 -54 -13 -12 -24 -28 -24 -34 0 -7 -9 -20 -20 -30 -11 -10 -20 -23 -20 -30
0 -6 -14 -24 -30 -40 -17 -16 -42 -48 -55 -71 l-25 -43 0 -1425 0 -1426 39
-28 c21 -15 51 -44 67 -65 16 -21 40 -41 54 -44 14 -3 35 -17 47 -30 17 -17
33 -23 67 -23 36 0 52 -6 79 -30 19 -17 46 -30 60 -30 15 0 32 -9 40 -21 12
-16 28 -21 78 -24 44 -3 68 -9 76 -21 7 -9 34 -21 60 -26 64 -12 2246 -19
2759 -9 384 8 403 10 430 29 25 18 45 21 152 23 108 2 126 5 152 24 23 17 50
24 112 28 59 5 87 12 102 26 16 14 42 20 104 24 67 4 88 10 106 26 16 15 45
24 106 32 55 6 92 17 108 30 15 11 40 19 63 19 44 0 86 14 114 39 11 9 34 18
50 20 17 1 42 11 57 21 28 21 132 60 158 60 9 0 29 14 45 30 16 17 34 30 40
30 7 0 24 11 39 25 43 40 100 56 246 70 74 8 135 14 136 14 1 1 11 10 24 21
14 12 37 20 61 20 28 0 47 8 71 29 22 19 50 32 81 36 57 9 185 72 246 123 25
20 59 46 76 58 100 68 238 206 287 288 23 39 48 77 55 84 7 7 13 20 13 27 0 7
11 26 23 42 13 15 27 40 30 55 4 14 17 39 30 55 13 15 29 53 35 83 7 30 19 61
27 70 8 9 19 49 25 88 5 40 20 110 31 155 20 73 21 99 16 242 -5 126 -10 171
-26 211 -11 29 -25 92 -31 140 -6 49 -16 103 -22 119 -6 17 -17 50 -26 75 -8
25 -21 52 -28 61 -8 8 -19 31 -25 50 -6 19 -24 51 -40 71 -16 20 -29 43 -29
50 0 17 -48 72 -136 159 -136 132 -230 185 -384 214 -158 31 -238 14 -353 -73
-63 -48 -97 -93 -97 -130 0 -12 -9 -41 -21 -64 -16 -31 -19 -51 -14 -84 3 -24
10 -46 16 -49 5 -4 14 -26 20 -50 6 -24 20 -51 30 -61 10 -9 19 -23 19 -30 0
-7 38 -52 85 -100 47 -48 85 -91 85 -97 0 -5 15 -27 33 -48 74 -88 89 -110 99
-146 6 -21 21 -51 34 -66 28 -33 28 -37 9 -101 -8 -27 -15 -77 -15 -112 0 -65
-8 -80 -97 -187 -12 -16 -23 -36 -23 -46 0 -49 -134 -174 -204 -191 -23 -6
-60 -19 -84 -30 -79 -37 -122 -19 -122 50 0 21 -7 51 -15 66 -10 20 -15 59
-15 126 0 88 -2 99 -25 126 -14 17 -25 33 -25 38 0 4 -9 18 -21 30 -11 12 -25
42 -30 65 -6 24 -16 51 -23 59 -24 27 -66 114 -66 137 0 12 -6 26 -14 30 -7 4
-24 26 -38 48 -14 22 -33 46 -42 54 -10 8 -16 28 -16 52 0 30 -6 42 -30 59
-16 12 -30 27 -30 35 0 7 -16 32 -35 55 -19 23 -35 51 -35 62 0 11 -9 32 -21
46 -48 63 -79 120 -85 155 -4 21 -14 43 -23 50 -20 14 -71 99 -86 142 -6 17
-31 62 -56 100 -25 39 -49 82 -53 97 -3 15 -17 38 -31 52 -14 14 -25 34 -25
44 0 11 -25 50 -55 87 -30 36 -55 74 -55 83 0 9 -12 35 -25 57 -14 22 -25 48
-25 58 0 9 -9 26 -20 37 -11 11 -22 32 -26 47 -4 16 -17 42 -30 60 -13 17 -24
38 -24 46 0 8 -9 26 -20 40 -11 14 -20 33 -20 44 0 19 -50 93 -87 131 -13 12
-23 30 -23 40 0 9 -11 33 -24 52 -18 27 -24 52 -28 115 -3 48 -11 90 -20 105
-9 14 -18 54 -22 90 -4 39 -16 84 -31 113 -14 27 -25 63 -25 79 0 17 -11 55
-25 85 l-26 54 7 217 c5 185 9 222 25 250 17 30 19 62 19 438 l1 406 -25 27
c-14 15 -26 36 -26 47 0 29 -14 45 -43 48 -15 1 -36 11 -46 20 -16 14 -42 19
-121 22 -104 4 -125 -1 -164 -37 -19 -18 -106 -28 -106 -13 0 3 11 19 25 35
72 86 20 199 -91 199 -35 0 -47 -6 -73 -35z m-2525 -613 c16 -20 50 -60 75
-88 53 -59 72 -106 73 -180 1 -65 -17 -98 -65 -120 -22 -9 -39 -20 -39 -24 0
-4 -17 -19 -38 -34 -38 -26 -86 -34 -97 -16 -6 10 -18 245 -19 388 -1 69 1 75
27 98 33 28 45 24 83 -24z m2965 -103 c12 -22 11 -29 -16 -149 -9 -41 -14 -87
-11 -102 3 -15 -1 -46 -9 -69 -8 -23 -15 -60 -15 -83 -1 -43 -22 -155 -33
-173 -4 -6 -16 -9 -27 -6 -23 6 -80 67 -80 86 0 7 -11 25 -25 41 -14 16 -25
32 -25 36 0 4 -13 24 -30 45 -28 35 -30 44 -30 121 0 82 0 83 33 105 29 21
125 97 137 109 57 59 111 75 131 39z m-758 -589 c35 -11 70 -27 77 -35 6 -8
31 -25 55 -39 57 -34 116 -122 144 -216 24 -79 24 -84 -2 -245 -19 -122 -69
-195 -169 -245 -55 -27 -71 -30 -151 -30 -127 0 -247 41 -329 112 -32 28 -70
70 -85 95 -34 58 -56 175 -43 223 5 19 10 47 10 61 0 60 94 227 153 272 85 65
221 84 340 47z m-1450 -29 c107 -22 153 -52 211 -136 73 -105 91 -163 90 -288
-1 -104 -3 -111 -39 -182 -31 -61 -50 -85 -108 -131 -83 -67 -114 -77 -227
-78 -90 0 -131 10 -220 52 -117 56 -187 157 -226 325 -17 75 -17 81 0 163 19
93 42 138 99 196 60 61 110 82 207 89 47 3 94 6 105 7 11 1 60 -7 108 -17z"/>
<path d="M2878 6568 c-61 -66 -96 -114 -124 -173 -38 -79 -38 -161 0 -255 22
-54 36 -73 83 -110 67 -53 73 -56 167 -75 93 -20 121 -19 186 4 95 34 144 120
153 271 12 201 -110 332 -328 354 -38 4 -78 10 -88 12 -11 4 -28 -6 -49 -28z"/>
<path d="M1405 6530 c-38 -16 -76 -30 -82 -30 -7 0 -13 -2 -13 -3 0 -2 -14
-41 -30 -87 -28 -79 -30 -88 -21 -159 10 -73 29 -142 52 -188 20 -37 131 -121
172 -128 20 -4 40 -11 43 -16 3 -5 48 -9 100 -9 114 0 138 10 195 83 64 80 79
124 79 230 0 83 -4 101 -34 172 -30 69 -41 85 -83 113 -64 43 -100 52 -213 51
-81 0 -105 -4 -165 -29z"/>
</g>
</svg>
