<?xml version="1.0" standalone="no"?>
<!DOCTYPE svg PUBLIC "-//W3C//DTD SVG 20010904//EN"
 "http://www.w3.org/TR/2001/REC-SVG-20010904/DTD/svg10.dtd">
<svg version="1.0" xmlns="http://www.w3.org/2000/svg"
 width="704.000000pt" height="1280.000000pt" viewBox="0 0 704.000000 1280.000000"
 preserveAspectRatio="xMidYMid meet">
<metadata>
Created by potrace 1.16, written by Peter Selinger 2001-2019
</metadata>
<g transform="translate(0.000000,1280.000000) scale(0.100000,-0.100000)"
fill="#000000" stroke="none">
<path d="M4620 10559 c-468 -40 -793 -142 -1105 -347 -182 -120 -377 -342
-442 -503 -52 -129 -66 -205 -66 -354 0 -123 3 -151 27 -228 126 -418 520
-732 1106 -882 205 -53 405 -75 675 -75 572 0 1082 164 1420 457 311 270 430
611 339 968 -77 300 -376 606 -750 769 -277 120 -509 175 -834 196 -164 11
-234 11 -370 -1z m502 -169 c430 -52 807 -210 1045 -439 126 -122 215 -266
249 -406 25 -98 25 -289 0 -370 -107 -357 -475 -643 -1001 -779 -158 -41 -310
-58 -547 -63 -406 -9 -694 39 -993 166 -523 222 -787 620 -684 1032 40 162
112 281 246 410 227 218 531 359 926 429 213 38 537 46 759 20z"/>
<path d="M4630 10080 c-62 -11 -167 -51 -236 -91 -68 -39 -159 -121 -181 -164
-9 -16 -31 -48 -49 -69 -19 -22 -34 -48 -34 -58 0 -10 -8 -35 -18 -56 -32 -63
-46 -170 -38 -287 7 -109 6 -107 84 -263 41 -82 242 -272 288 -272 8 0 37 -11
63 -25 78 -39 206 -51 327 -31 152 26 299 98 369 181 11 12 44 31 73 40 l53
17 20 -26 c17 -22 60 -40 178 -73 40 -11 -39 -36 -254 -82 -174 -37 -247 -63
-280 -102 -31 -38 -32 -59 -1 -88 98 -92 468 -71 686 39 120 61 147 132 75
198 -35 32 -37 37 -21 46 44 26 68 50 86 87 25 48 25 76 0 117 -43 69 -130 94
-243 68 -78 -18 -118 -38 -204 -101 -72 -53 -88 -45 -44 22 17 26 31 51 31 57
0 6 10 29 23 51 20 36 22 53 22 185 0 133 -2 152 -28 226 -15 45 -44 108 -63
140 -89 149 -262 271 -426 303 -76 14 -206 20 -258 11z m1076 -940 c29 0 84
-52 84 -79 0 -29 -61 -94 -108 -115 -38 -17 -42 -17 -138 7 -164 42 -179 54
-121 103 60 51 191 99 242 88 11 -2 30 -4 41 -4z m-11 -293 c22 -12 41 -31 43
-40 10 -52 -90 -113 -252 -155 -169 -42 -434 -34 -453 15 -14 37 45 61 267
108 149 32 242 57 290 78 48 21 59 20 105 -6z"/>
<path d="M3780 8311 c-50 -16 -90 -42 -117 -78 -24 -31 -28 -46 -28 -103 0
-54 5 -73 24 -102 72 -105 218 -116 300 -22 86 98 46 245 -81 298 -40 17 -59
18 -98 7z m74 -85 c45 -19 66 -52 66 -102 0 -36 -5 -47 -37 -74 -32 -28 -41
-32 -77 -27 -107 15 -130 153 -34 200 40 20 41 20 82 3z"/>
<path d="M3464 7966 c-29 -29 -34 -41 -34 -80 0 -39 6 -52 36 -86 20 -22 31
-40 25 -40 -6 0 -20 -9 -31 -20 -11 -11 -28 -20 -39 -20 -10 0 -30 -9 -44 -20
-15 -12 -48 -23 -74 -26 -26 -3 -64 -16 -83 -29 -19 -13 -50 -26 -68 -30 -18
-4 -40 -17 -48 -31 -11 -16 -26 -24 -44 -24 -15 0 -39 -11 -55 -26 -24 -22
-34 -25 -68 -20 -25 4 -47 16 -59 31 -19 25 -20 25 -202 25 l-182 0 -23 26
-22 25 -332 -2 c-183 -1 -394 -1 -470 0 -133 1 -138 2 -159 26 -15 17 -32 25
-54 25 -20 0 -44 10 -62 25 -17 14 -36 25 -44 25 -8 0 -25 11 -38 25 -17 18
-34 25 -61 25 -32 0 -41 5 -53 29 -10 18 -26 30 -44 34 -16 3 -34 16 -42 31
l-13 26 -198 0 -197 0 -23 -37 c-14 -24 -21 -51 -20 -73 4 -72 5 -118 3 -228
-2 -113 -2 -114 -32 -140 -25 -22 -30 -34 -30 -69 0 -36 4 -45 24 -54 22 -11
24 -17 29 -123 13 -250 13 -248 2 -374 -7 -80 -11 -96 -30 -108 -18 -12 -23
-27 -28 -82 -4 -37 -11 -68 -17 -70 -32 -11 -40 -35 -37 -110 2 -68 -1 -80
-20 -102 -21 -22 -23 -34 -25 -144 0 -67 -2 -127 -2 -134 -1 -6 -12 -22 -26
-35 l-25 -23 -3 -233 c-3 -231 -3 -233 -28 -259 -18 -20 -24 -38 -24 -73 0
-32 -7 -55 -22 -74 -19 -25 -25 -41 -27 -84 -1 -7 -26 -37 -56 -66 -42 -41
-55 -60 -55 -82 0 -19 -9 -38 -25 -53 -14 -13 -45 -53 -71 -89 -25 -36 -61
-85 -80 -109 l-34 -44 0 -1433 0 -1433 50 -37 c28 -20 55 -46 61 -57 6 -11 27
-26 47 -35 20 -8 46 -23 57 -33 11 -10 42 -20 68 -23 34 -3 57 -13 76 -31 17
-17 38 -26 58 -26 20 0 37 -7 45 -18 9 -13 32 -21 73 -26 36 -4 67 -14 80 -25
12 -11 45 -22 80 -27 71 -9 2932 -7 3055 2 56 4 94 13 110 24 20 14 53 19 151
22 106 4 131 8 155 26 21 14 52 22 108 26 58 4 85 11 100 25 15 14 44 21 106
26 63 5 90 12 106 26 14 13 47 22 105 30 48 6 92 18 102 27 10 9 44 19 76 23
38 4 72 16 97 33 21 14 50 26 65 26 14 0 37 8 50 19 35 27 118 61 148 61 17 0
38 11 56 30 16 17 34 30 40 30 6 0 26 13 45 30 19 16 42 29 51 30 9 0 30 7 45
15 16 8 54 15 84 15 102 1 200 17 213 34 7 9 36 20 65 25 34 5 63 17 80 33 17
16 49 29 86 37 32 6 81 24 107 41 27 16 51 30 54 30 2 0 22 12 43 28 22 15 61
42 88 61 106 75 259 225 296 291 18 30 42 69 55 86 13 17 23 38 23 46 0 8 11
25 24 38 14 12 28 36 31 51 4 16 17 42 29 57 13 15 26 45 30 67 4 22 16 55 27
74 11 18 24 63 28 100 5 36 19 104 31 151 21 78 22 99 17 251 -5 128 -11 176
-26 215 -10 27 -24 94 -31 149 -7 63 -19 111 -31 131 -10 17 -19 40 -19 51 0
11 -9 32 -20 46 -11 14 -27 45 -36 69 -8 23 -23 52 -33 63 -10 11 -26 34 -34
51 -28 54 -89 120 -212 229 -77 68 -147 102 -265 131 -96 24 -234 32 -245 15
-3 -5 -22 -15 -43 -22 -52 -16 -160 -95 -183 -133 -10 -17 -19 -42 -19 -56 0
-14 -9 -42 -20 -63 -11 -20 -20 -48 -20 -61 0 -31 51 -160 73 -184 10 -10 17
-24 17 -30 0 -6 38 -50 85 -97 47 -47 85 -90 85 -95 0 -4 16 -27 35 -50 19
-23 35 -46 35 -52 0 -6 14 -26 30 -45 17 -18 30 -43 30 -54 0 -11 14 -38 31
-59 l31 -38 -16 -64 c-9 -36 -16 -88 -16 -117 0 -60 -22 -108 -75 -166 -21
-22 -42 -53 -48 -70 -27 -79 -133 -171 -219 -191 -33 -8 -69 -21 -81 -29 -50
-35 -102 -7 -110 57 -3 24 -10 61 -16 83 -6 22 -11 77 -11 122 0 72 -3 85 -25
111 -14 17 -25 34 -25 39 0 5 -11 24 -25 43 -14 19 -25 44 -25 56 0 11 -10 37
-22 55 -42 62 -68 116 -68 138 0 12 -6 24 -14 27 -7 3 -21 23 -31 44 -10 22
-28 47 -41 55 -18 11 -24 25 -24 49 0 44 -9 66 -26 66 -8 0 -20 12 -26 28 -7
15 -27 44 -45 65 -18 20 -33 47 -33 60 0 12 -11 35 -25 51 -14 16 -25 35 -25
42 0 7 -11 25 -25 40 -13 14 -28 43 -31 63 -4 20 -19 50 -35 68 -15 18 -42 60
-59 95 -46 90 -65 124 -93 166 -14 20 -28 49 -31 64 -3 15 -17 39 -31 54 -14
15 -25 34 -25 43 0 9 -25 47 -55 85 -30 38 -55 76 -55 86 0 9 -11 34 -25 54
-14 20 -25 45 -25 55 0 10 -11 30 -25 45 -14 15 -25 35 -25 45 0 18 -50 124
-70 148 -5 6 -17 30 -26 52 -9 23 -20 41 -24 41 -5 0 -12 10 -16 22 -4 13 -13
27 -20 33 -7 5 -31 45 -54 88 -34 65 -40 87 -40 137 0 41 -7 74 -20 100 -13
25 -20 59 -20 92 0 39 -8 69 -30 113 -16 33 -30 74 -30 91 0 17 -12 53 -26 80
l-26 49 7 225 c7 196 10 228 26 251 17 25 19 54 19 433 l1 406 -25 33 c-13 17
-26 43 -28 56 -2 17 -12 27 -33 34 -16 5 -38 17 -48 25 -13 12 -45 16 -127 18
-106 2 -111 1 -142 -24 -25 -21 -42 -27 -89 -28 l-57 -1 33 31 c84 80 36 206
-78 206 -31 0 -46 -7 -73 -34z m-2499 -652 c32 -41 61 -74 65 -74 20 0 53 -95
54 -156 1 -56 -2 -66 -28 -93 -17 -17 -34 -31 -39 -31 -5 0 -25 -14 -44 -31
-20 -17 -51 -38 -69 -47 -57 -27 -66 -9 -69 144 -1 71 -6 165 -10 210 -8 85 5
132 42 152 26 15 37 7 98 -74z m2937 -69 c9 -21 8 -40 -7 -98 -10 -40 -20 -99
-21 -132 -1 -33 -7 -73 -13 -88 -6 -16 -11 -42 -11 -60 0 -37 -19 -143 -31
-174 -5 -13 -17 -23 -27 -23 -21 0 -62 40 -86 85 -15 27 -27 46 -91 142 -17
25 -19 41 -15 103 l5 74 70 58 c151 126 168 138 191 138 16 0 28 -8 36 -25z
m-766 -582 c67 -22 178 -102 220 -157 62 -81 103 -223 84 -286 -6 -19 -15 -65
-20 -101 -7 -52 -18 -80 -49 -127 -70 -104 -142 -141 -275 -142 -169 0 -323
76 -411 203 l-40 59 0 126 0 127 42 85 c83 165 173 228 329 229 41 1 91 -6
120 -16z m-1452 -29 c39 -9 94 -29 121 -45 48 -27 115 -99 115 -125 0 -6 7
-17 16 -24 22 -19 40 -68 54 -148 26 -159 -15 -280 -133 -386 -37 -34 -83 -66
-101 -72 -137 -48 -324 -7 -459 101 -46 37 -96 138 -122 249 -18 77 -18 82 -1
170 10 50 24 98 31 106 7 8 21 33 31 55 15 32 34 48 93 82 46 26 90 43 115 45
127 9 176 8 240 -8z"/>
<path d="M2853 6543 c-67 -71 -133 -199 -133 -257 0 -120 57 -222 161 -292 62
-42 220 -63 300 -40 106 31 157 123 160 291 2 83 0 95 -30 157 -20 41 -48 81
-73 102 -40 35 -143 76 -203 82 -16 2 -52 6 -79 9 l-48 6 -55 -58z"/>
<path d="M1488 6559 c-18 -3 -53 -15 -78 -26 -25 -11 -57 -23 -71 -26 -23 -6
-32 -20 -55 -84 -36 -96 -36 -175 -3 -283 19 -64 30 -82 75 -126 77 -73 158
-104 278 -104 97 0 131 15 185 79 61 73 81 132 81 241 0 80 -3 96 -34 162 -38
82 -70 117 -136 143 -49 20 -187 34 -242 24z"/>
</g>
</svg>
