<?xml version="1.0" standalone="no"?>
<!DOCTYPE svg PUBLIC "-//W3C//DTD SVG 20010904//EN"
 "http://www.w3.org/TR/2001/REC-SVG-20010904/DTD/svg10.dtd">
<svg version="1.0" xmlns="http://www.w3.org/2000/svg"
 width="704.000000pt" height="1280.000000pt" viewBox="0 0 704.000000 1280.000000"
 preserveAspectRatio="xMidYMid meet">
<metadata>
Created by potrace 1.16, written by Peter Selinger 2001-2019
</metadata>
<g transform="translate(0.000000,1280.000000) scale(0.100000,-0.100000)"
fill="#000000" stroke="none">
<path d="M703 7894 c-12 -3 -32 -20 -46 -37 -24 -32 -24 -33 -19 -223 l5 -192
-32 -32 c-41 -43 -44 -99 -6 -127 25 -18 25 -21 29 -173 3 -85 2 -211 -1 -280
-6 -121 -7 -125 -35 -150 -24 -21 -28 -32 -28 -75 0 -40 -5 -55 -24 -73 -23
-21 -25 -30 -24 -109 1 -78 -2 -89 -21 -101 -20 -14 -21 -23 -21 -143 l0 -128
-30 -34 -30 -35 0 -231 0 -232 -27 -25 c-25 -23 -28 -32 -26 -79 2 -43 -2 -57
-21 -78 -13 -14 -26 -43 -29 -65 -5 -31 -15 -45 -45 -66 -41 -28 -57 -52 -67
-101 -3 -16 -26 -52 -50 -79 -25 -26 -45 -53 -45 -58 0 -5 -17 -30 -39 -56
-78 -94 -71 52 -71 -1532 0 -1419 0 -1420 20 -1437 30 -26 83 -78 98 -97 7 -9
25 -19 40 -22 15 -4 38 -17 52 -29 16 -14 43 -24 73 -28 34 -3 57 -13 76 -31
15 -15 39 -26 54 -26 16 0 30 -8 37 -20 9 -16 21 -20 62 -20 40 0 61 -6 91
-27 38 -26 47 -28 216 -36 97 -4 811 -7 1588 -5 l1411 3 34 25 c30 23 44 25
166 30 118 4 135 7 148 25 11 15 29 20 82 22 89 5 109 10 132 33 15 15 38 21
99 24 59 4 87 10 108 25 18 13 55 24 104 30 42 5 88 17 104 27 15 10 54 21 86
25 42 5 67 14 89 33 18 14 44 26 59 26 16 0 39 8 52 18 26 19 88 44 155 61 26
7 48 21 58 36 9 14 22 25 29 25 7 0 27 14 45 30 18 17 42 30 53 30 11 0 30 6
42 14 13 9 71 18 148 23 104 8 131 13 156 31 20 14 46 22 71 22 29 0 46 7 65
26 16 16 48 31 86 39 70 17 178 71 237 120 22 18 54 42 71 52 79 49 229 193
277 268 83 127 96 149 96 158 0 5 11 22 25 39 14 16 25 38 25 49 0 10 10 29
21 40 12 12 28 47 36 77 8 31 23 73 34 94 10 20 19 51 19 69 0 17 12 79 26
138 25 98 26 118 22 267 -4 121 -9 169 -21 194 -17 33 -31 100 -42 205 -6 58
-27 115 -80 218 -14 26 -25 53 -25 61 0 8 -11 27 -24 43 -13 15 -27 39 -31 53
-8 26 -12 31 -127 150 -132 134 -212 183 -366 220 -127 31 -212 25 -306 -20
-89 -42 -176 -124 -176 -166 -1 -16 -9 -47 -20 -69 -25 -52 -25 -68 5 -153 36
-103 112 -212 183 -262 19 -13 43 -43 54 -67 11 -24 24 -43 29 -43 5 0 21 -19
35 -42 15 -24 33 -47 40 -51 7 -4 19 -27 25 -50 6 -23 20 -54 31 -70 16 -22
19 -37 14 -70 -7 -52 -25 -198 -25 -214 -1 -6 -17 -31 -37 -55 -19 -23 -42
-51 -51 -62 -8 -10 -20 -33 -26 -50 -22 -65 -135 -166 -208 -186 -24 -7 -60
-21 -80 -31 -70 -36 -121 -19 -118 39 1 20 -6 54 -15 74 -11 26 -16 67 -16
132 0 87 -2 97 -25 122 -14 15 -25 32 -25 39 0 6 -11 26 -25 45 -14 19 -25 46
-25 61 0 14 -7 32 -15 39 -20 17 -75 126 -75 150 0 10 -8 25 -19 32 -10 7 -25
27 -33 43 -9 17 -25 39 -37 49 -14 13 -21 31 -21 57 0 30 -6 42 -24 54 -14 9
-29 30 -35 47 -6 16 -21 38 -34 48 -13 10 -29 36 -35 58 -7 22 -19 45 -27 52
-8 7 -15 18 -15 24 0 7 -13 30 -29 52 -15 21 -31 51 -35 67 -3 15 -27 57 -51
94 -25 37 -50 84 -55 105 -6 20 -15 40 -20 43 -21 13 -88 121 -95 153 -4 18
-18 45 -31 59 -13 14 -24 34 -24 44 0 9 -25 48 -55 84 -30 37 -55 76 -55 85 0
21 -50 119 -80 157 -11 14 -20 35 -20 47 0 12 -11 38 -25 58 -14 20 -25 43
-25 51 0 8 -8 25 -19 38 -10 13 -27 44 -38 69 -11 25 -34 58 -51 74 -18 16
-37 45 -43 65 -7 20 -21 48 -32 63 -14 19 -20 47 -24 109 -2 46 -9 89 -15 96
-5 7 -14 49 -19 94 -6 55 -16 91 -30 111 -11 16 -24 52 -29 81 -4 29 -16 72
-28 97 -18 42 -20 62 -17 263 2 204 4 221 23 247 20 27 21 41 22 317 2 536 3
515 -22 546 -12 15 -27 42 -33 60 -7 23 -19 35 -41 42 -17 6 -38 17 -46 26
-13 13 -40 16 -121 17 -96 2 -106 0 -137 -23 -31 -23 -43 -25 -142 -25 -96 0
-108 -2 -118 -20 -6 -10 -27 -24 -48 -30 -20 -5 -50 -19 -67 -30 -16 -11 -46
-20 -66 -20 -22 0 -51 -10 -73 -25 -20 -14 -45 -25 -56 -25 -10 0 -31 -13 -47
-30 -17 -18 -38 -30 -54 -30 -15 0 -38 -9 -52 -21 -15 -11 -41 -23 -59 -26
-28 -4 -38 0 -61 26 l-27 31 -179 0 c-177 0 -180 0 -209 25 l-30 25 -462 0
-462 0 -30 25 c-18 16 -42 25 -62 25 -20 0 -40 8 -51 20 -10 11 -27 22 -39 26
-11 3 -35 17 -53 30 -17 13 -41 24 -53 24 -12 0 -34 13 -49 29 -14 15 -38 32
-51 36 -14 4 -34 18 -45 32 -19 23 -25 24 -190 28 -93 2 -180 2 -192 -1z m236
-546 c16 -24 46 -59 66 -78 48 -45 76 -111 78 -181 2 -65 -17 -100 -66 -125
-17 -9 -50 -32 -73 -50 -47 -39 -89 -45 -99 -14 -3 11 -8 77 -10 147 -2 71 -6
164 -10 208 -7 73 -5 82 15 108 32 40 63 36 99 -15z m2960 -100 c13 -23 13
-34 -2 -96 -9 -38 -17 -93 -17 -120 0 -28 -5 -63 -11 -79 -10 -26 -17 -63 -37
-213 -8 -57 -17 -80 -32 -80 -17 0 -71 53 -91 89 -11 20 -40 67 -65 106 -42
67 -44 72 -44 146 l0 77 78 58 c42 32 101 77 131 101 30 24 59 42 65 40 6 -2
17 -15 25 -29z m-759 -583 c23 -8 73 -36 111 -61 86 -57 139 -131 176 -245 26
-82 26 -83 10 -145 -10 -34 -17 -78 -17 -97 0 -38 -48 -137 -89 -181 -14 -16
-54 -42 -88 -57 -137 -63 -356 -24 -478 85 -108 96 -150 218 -122 353 16 77
60 176 106 240 34 47 103 91 170 109 64 17 170 17 221 -1z m-1435 -35 c43 -11
91 -28 105 -37 30 -20 100 -94 100 -107 0 -5 11 -23 24 -40 41 -54 58 -122 60
-236 1 -121 -12 -164 -74 -242 -34 -43 -144 -138 -159 -138 -3 0 -35 -5 -71
-11 -120 -19 -289 28 -386 108 -56 46 -105 145 -130 263 -15 69 -16 90 -5 152
7 40 18 84 26 98 7 14 24 45 37 69 22 43 87 93 161 125 50 22 216 20 312 -4z"/>
<path d="M2902 6589 c-31 -12 -113 -121 -150 -199 -34 -74 -35 -76 -24 -145
15 -95 43 -154 98 -204 56 -53 107 -75 207 -91 69 -12 84 -11 140 5 78 23 110
52 141 130 19 48 25 84 27 156 3 89 1 97 -32 164 -40 82 -97 131 -186 159 -65
21 -193 35 -221 25z"/>
<path d="M1405 6529 c-33 -16 -67 -29 -75 -29 -9 0 -27 -29 -45 -73 -38 -91
-39 -177 -4 -288 20 -65 31 -81 84 -132 76 -72 145 -97 274 -97 68 0 93 4 118
20 38 23 123 134 123 161 0 10 5 21 10 24 6 3 10 50 10 105 0 86 -4 106 -29
167 -35 82 -69 118 -139 149 -45 21 -68 24 -160 23 -97 0 -113 -3 -167 -30z"/>
</g>
</svg>
