<?xml version="1.0" standalone="no"?>
<!DOCTYPE svg PUBLIC "-//W3C//DTD SVG 20010904//EN"
 "http://www.w3.org/TR/2001/REC-SVG-20010904/DTD/svg10.dtd">
<svg version="1.0" xmlns="http://www.w3.org/2000/svg"
 width="704.000000pt" height="1280.000000pt" viewBox="0 0 704.000000 1280.000000"
 preserveAspectRatio="xMidYMid meet">
<metadata>
Created by potrace 1.16, written by Peter Selinger 2001-2019
</metadata>
<g transform="translate(0.000000,1280.000000) scale(0.100000,-0.100000)"
fill="#000000" stroke="none">
<path d="M4600 10559 c-123 -11 -265 -28 -315 -39 -148 -33 -235 -57 -345 -97
-480 -173 -815 -481 -911 -838 -32 -117 -32 -328 -1 -439 142 -497 663 -854
1402 -958 62 -8 192 -13 375 -12 238 0 301 3 420 22 423 66 753 207 1011 429
157 136 260 285 320 461 75 220 63 434 -36 647 -136 293 -432 535 -842 688
-303 114 -724 167 -1078 136z m555 -174 c318 -42 610 -145 840 -296 94 -62
265 -229 320 -314 86 -131 120 -254 119 -420 -2 -143 -26 -230 -101 -365 -57
-102 -207 -257 -323 -337 -317 -216 -721 -324 -1210 -324 -295 0 -475 24 -707
92 -371 110 -662 307 -811 549 -76 123 -104 216 -110 367 -4 109 -2 130 22
212 46 163 113 268 251 399 268 254 654 405 1155 452 130 12 410 5 555 -15z"/>
<path d="M4215 9969 c-93 -23 -192 -120 -236 -231 -30 -77 -38 -227 -14 -299
45 -136 121 -246 279 -403 66 -65 154 -144 195 -175 42 -31 85 -64 96 -74 38
-35 187 -119 200 -113 35 13 163 105 306 220 316 253 461 465 462 676 1 118
-72 271 -157 329 -71 49 -159 81 -223 81 -147 0 -293 -90 -364 -223 l-31 -59
-34 59 c-44 78 -114 142 -199 183 -58 28 -82 33 -154 36 -47 2 -104 -1 -126
-7z m95 -131 c36 -38 30 -53 -47 -116 -29 -24 -62 -60 -74 -80 -34 -57 -46
-64 -80 -46 -26 13 -29 20 -29 65 0 50 15 89 54 142 41 56 138 76 176 35z"/>
<path d="M3758 8304 c-55 -17 -114 -79 -124 -131 -32 -173 148 -296 288 -197
126 89 101 268 -44 328 -45 19 -59 19 -120 0z m96 -78 c68 -28 88 -108 41
-164 -85 -101 -241 21 -164 129 11 16 35 33 52 38 18 5 33 10 35 10 1 1 18 -5
36 -13z"/>
<path d="M3468 7973 c-58 -60 -56 -129 5 -185 21 -20 25 -28 13 -28 -9 0 -21
-9 -28 -20 -8 -12 -24 -20 -38 -20 -15 0 -41 -11 -60 -25 -25 -18 -46 -25 -81
-25 -26 0 -51 -5 -55 -11 -3 -6 -27 -20 -53 -32 -25 -11 -52 -28 -59 -38 -7
-10 -29 -21 -50 -25 -20 -3 -47 -16 -60 -27 -31 -29 -89 -25 -120 8 -23 25
-25 25 -202 25 -180 0 -180 0 -202 25 l-22 25 -471 0 -472 0 -23 25 c-17 18
-34 25 -60 25 -24 0 -43 7 -55 20 -10 11 -27 22 -39 26 -11 4 -33 15 -47 25
-14 10 -38 21 -54 25 -16 4 -40 20 -53 36 -13 15 -33 28 -43 28 -11 0 -35 16
-55 35 l-35 35 -162 -1 c-89 -1 -172 -4 -184 -7 -12 -4 -33 -22 -46 -40 -24
-32 -24 -34 -19 -222 l5 -189 -32 -30 c-28 -26 -32 -36 -29 -73 2 -32 8 -45
24 -52 19 -9 22 -20 27 -120 4 -61 4 -189 2 -285 l-5 -173 -30 -28 c-25 -24
-30 -36 -30 -77 0 -40 -5 -54 -26 -74 -21 -20 -25 -32 -24 -74 3 -92 0 -113
-18 -131 -14 -14 -18 -42 -22 -152 -5 -131 -6 -134 -32 -157 l-28 -24 0 -235
0 -235 -29 -33 c-25 -29 -28 -39 -24 -79 4 -38 1 -50 -21 -76 -16 -19 -26 -43
-26 -61 0 -24 -8 -37 -37 -58 -50 -37 -73 -64 -73 -90 0 -12 -14 -39 -30 -60
-17 -22 -37 -48 -45 -59 -9 -11 -32 -42 -53 -70 -21 -27 -48 -66 -60 -86 l-22
-36 0 -1430 0 -1431 38 -28 c20 -15 53 -45 73 -66 20 -21 45 -38 56 -38 11 0
30 -11 43 -25 18 -19 34 -25 66 -25 34 0 51 -7 77 -30 19 -17 46 -30 60 -30
14 0 32 -8 39 -19 9 -13 29 -19 73 -23 45 -3 67 -10 82 -25 16 -16 41 -23 100
-30 82 -8 2921 -11 3055 -2 63 4 81 9 98 27 18 19 32 22 93 23 112 0 202 13
220 30 10 11 44 18 99 23 60 5 88 12 103 26 15 14 41 20 105 25 65 4 89 10
105 25 12 11 41 22 66 25 104 12 122 16 147 34 15 11 51 21 80 25 29 3 65 14
81 25 15 11 47 24 70 30 23 5 50 16 59 23 23 19 128 58 157 58 15 0 32 11 45
30 12 16 28 30 36 30 8 0 27 12 41 26 15 15 41 31 57 35 17 4 49 14 71 23 22
8 74 15 115 16 85 1 149 13 160 31 4 6 31 15 59 20 31 5 64 18 80 32 18 14 54
29 92 36 35 7 76 21 90 32 15 10 30 19 33 19 8 0 120 71 126 80 3 4 21 18 40
31 115 78 280 240 280 275 0 8 4 14 9 14 10 0 100 150 137 229 8 18 23 42 33
53 10 10 22 38 25 60 4 22 18 64 31 93 14 28 25 67 25 85 0 18 12 76 26 129
25 91 26 104 21 261 -4 129 -10 176 -25 215 -11 28 -25 95 -32 150 -12 97 -28
147 -85 258 -14 26 -25 53 -25 61 0 7 -13 30 -30 51 -16 21 -30 43 -30 50 0
18 -42 68 -135 158 -109 106 -178 152 -287 189 -81 28 -107 32 -198 33 -100 0
-144 -9 -196 -43 -104 -66 -154 -119 -154 -160 0 -15 -9 -45 -20 -67 -24 -46
-26 -106 -5 -143 8 -15 21 -43 30 -62 29 -65 60 -108 133 -181 70 -71 102
-112 139 -173 10 -16 30 -43 44 -60 14 -17 29 -44 33 -60 4 -15 16 -41 28 -56
16 -22 19 -37 14 -72 -12 -80 -25 -183 -25 -199 -1 -18 -60 -108 -92 -140 -10
-10 -19 -27 -19 -38 0 -46 -136 -174 -203 -191 -23 -6 -61 -19 -85 -30 -23
-11 -53 -20 -66 -20 -31 0 -56 30 -56 68 0 17 -5 43 -12 59 -6 15 -14 77 -17
137 -6 98 -9 111 -29 124 -12 8 -22 23 -22 32 0 10 -11 32 -25 48 -14 17 -25
41 -25 55 0 13 -8 35 -18 48 -25 32 -57 98 -66 132 -7 30 -68 114 -97 135 -12
9 -19 25 -19 48 0 33 -38 99 -95 164 -13 14 -25 38 -29 54 -4 15 -15 40 -25
55 -9 14 -31 47 -48 72 -17 26 -34 62 -38 80 -4 19 -11 36 -15 39 -16 11 -90
134 -90 151 0 10 -6 24 -13 31 -8 7 -20 25 -27 38 -7 14 -26 41 -41 61 -16 20
-29 49 -29 63 0 15 -12 39 -30 58 -16 17 -30 39 -30 48 0 10 -23 46 -50 80
-28 35 -53 75 -57 89 -3 14 -12 33 -19 42 -8 8 -19 31 -25 50 -7 19 -23 47
-36 62 -12 16 -23 39 -23 51 0 13 -8 34 -18 47 -22 28 -72 126 -72 140 0 11
-37 64 -82 117 -15 18 -28 41 -28 50 0 10 -11 33 -25 52 -21 28 -25 45 -25
102 0 47 -6 80 -19 106 -10 20 -21 66 -23 102 -4 43 -14 81 -32 114 -14 27
-26 64 -26 83 0 18 -11 55 -25 82 l-26 48 5 218 c4 201 7 221 25 246 20 27 21
40 21 442 l0 414 -25 23 c-14 13 -25 33 -25 44 0 30 -11 42 -45 50 -16 4 -35
16 -43 27 -12 17 -26 19 -126 19 -110 0 -114 -1 -140 -27 -22 -22 -39 -28 -89
-31 l-61 -5 36 35 c47 44 59 97 32 147 -36 67 -128 84 -176 34z m-2542 -610
c16 -21 50 -60 77 -89 49 -53 87 -139 87 -196 0 -43 -25 -83 -67 -109 -21 -12
-52 -35 -69 -51 -17 -16 -47 -31 -66 -35 -46 -7 -49 1 -53 165 -1 70 -6 150
-10 179 -9 64 -1 113 26 147 27 35 42 33 75 -11z m2966 -100 c22 -20 23 -63 2
-122 -8 -24 -15 -69 -15 -100 0 -31 -6 -78 -14 -106 -7 -27 -19 -90 -25 -140
-13 -103 -24 -135 -44 -135 -18 0 -65 55 -137 165 l-60 90 3 84 c2 55 7 86 15
88 15 5 132 98 147 117 12 15 96 76 104 76 3 0 14 -7 24 -17z m-2895 -574 c28
-14 51 -35 66 -60 12 -21 27 -39 33 -39 22 0 65 -43 88 -88 l24 -46 26 52 c14
29 30 52 35 52 5 0 30 20 55 44 51 47 86 58 145 45 20 -5 59 -6 88 -2 59 6
176 -17 235 -48 20 -10 47 -19 58 -19 14 0 24 -8 27 -20 5 -19 7 -19 22 -6 25
23 68 30 101 16 33 -14 38 -27 42 -113 3 -53 2 -57 -19 -57 -13 0 -23 5 -23
10 0 7 -6 7 -19 1 -18 -10 -18 -13 -2 -76 12 -49 20 -65 34 -65 27 0 24 -76
-3 -83 -15 -4 -20 -14 -20 -42 0 -89 -60 -188 -162 -267 -47 -37 -70 -47 -126
-57 -133 -24 -294 19 -401 106 -48 40 -93 126 -118 228 -8 33 -16 66 -19 73
-2 8 -16 -1 -36 -24 -36 -41 -82 -64 -128 -64 -16 0 -47 -9 -67 -20 -75 -40
-170 -16 -208 53 -11 20 -32 42 -48 48 -39 17 -85 73 -93 115 -5 27 -1 50 15
88 11 28 21 65 21 82 0 88 67 154 157 154 28 0 55 5 59 11 9 15 64 38 93 39
14 0 44 -9 68 -21z m2139 -27 c76 -27 174 -95 215 -149 46 -62 51 -73 78 -165
22 -74 22 -80 7 -132 -9 -30 -16 -71 -16 -92 0 -43 -37 -124 -82 -178 -16 -20
-57 -49 -92 -66 -57 -27 -74 -30 -155 -30 -115 0 -219 33 -303 97 -92 70 -122
116 -141 222 -11 56 -11 83 -1 143 21 119 88 246 159 302 79 61 230 83 331 48z"/>
<path d="M914 6535 c-21 -32 -12 -102 17 -139 37 -47 109 -24 109 35 0 102
-83 170 -126 104z"/>
<path d="M1470 6554 c0 -3 11 -15 25 -26 18 -14 25 -29 25 -52 0 -49 -30 -71
-97 -71 -48 0 -58 4 -79 29 -14 15 -23 33 -21 40 6 16 35 8 58 -15 33 -33 108
-15 94 23 -11 29 -100 38 -144 15 -36 -19 -71 -124 -71 -218 0 -117 30 -202
94 -263 28 -27 76 -61 106 -75 50 -23 67 -26 172 -26 l117 0 52 55 c67 71 99
141 99 220 0 33 -4 60 -10 60 -5 0 -10 -13 -10 -30 0 -21 -5 -30 -16 -30 -13
0 -15 10 -12 60 2 33 8 60 13 59 6 -1 9 -11 7 -22 -2 -12 1 -18 10 -15 8 3 12
19 12 39 -2 39 -58 169 -74 169 -5 0 -10 -18 -10 -40 0 -32 -4 -40 -19 -40
-15 0 -19 11 -25 62 -8 77 -30 98 -34 33 -6 -84 -89 -122 -151 -69 -33 28 -42
75 -21 115 10 18 7 19 -40 19 -27 0 -50 -3 -50 -6z"/>
<path d="M757 6509 c-29 -17 -39 -55 -26 -102 20 -77 75 -110 112 -69 36 39
10 154 -38 172 -31 12 -26 12 -48 -1z"/>
<path d="M2907 6590 c-30 -11 -115 -117 -148 -185 -28 -58 -34 -80 -33 -130 3
-97 34 -171 98 -231 59 -56 103 -76 212 -94 65 -12 78 -11 142 9 112 34 147
90 163 257 l10 101 -34 74 c-42 93 -91 137 -190 172 -69 24 -189 39 -220 27z"/>
</g>
</svg>
