<?xml version="1.0" standalone="no"?>
<!DOCTYPE svg PUBLIC "-//W3C//DTD SVG 20010904//EN"
 "http://www.w3.org/TR/2001/REC-SVG-20010904/DTD/svg10.dtd">
<svg version="1.0" xmlns="http://www.w3.org/2000/svg"
 width="704.000000pt" height="1280.000000pt" viewBox="0 0 704.000000 1280.000000"
 preserveAspectRatio="xMidYMid meet">
<metadata>
Created by potrace 1.16, written by Peter Selinger 2001-2019
</metadata>
<g transform="translate(0.000000,1280.000000) scale(0.100000,-0.100000)"
fill="#000000" stroke="none">
<path d="M4600 10559 c-359 -33 -617 -100 -867 -224 -186 -92 -301 -172 -423
-295 -170 -169 -252 -314 -292 -514 -24 -122 -19 -270 12 -386 63 -230 245
-466 480 -624 166 -112 413 -218 643 -277 247 -63 665 -87 958 -55 395 44 730
160 998 346 504 350 638 892 333 1341 -196 290 -561 517 -1002 624 -258 62
-590 88 -840 64z m515 -169 c311 -35 601 -130 832 -271 238 -146 404 -343 464
-554 32 -112 33 -298 1 -401 -100 -324 -435 -602 -889 -738 -220 -66 -445 -96
-723 -96 -363 0 -621 45 -895 155 -321 129 -567 340 -675 579 -105 232 -72
521 85 741 57 80 205 219 303 285 249 166 597 276 982 310 120 10 382 5 515
-10z"/>
<path d="M4605 10095 c-99 -25 -185 -64 -267 -118 -27 -18 -48 -36 -48 -41 0
-8 120 -195 141 -220 4 -5 25 5 46 21 198 157 475 127 460 -49 -6 -71 -43
-117 -174 -216 -174 -132 -167 -121 -159 -239 4 -54 9 -115 12 -137 l6 -39 80
7 c44 4 99 9 124 13 l44 6 0 82 0 83 133 111 c142 118 173 152 215 233 24 47
27 63 27 158 0 124 -12 156 -86 230 -53 53 -123 90 -215 114 -75 19 -266 20
-339 1z"/>
<path d="M4694 8931 c-76 -19 -133 -94 -134 -174 0 -111 113 -203 215 -176 78
21 131 80 136 150 5 72 -1 98 -32 134 -52 58 -119 82 -185 66z"/>
<path d="M3773 8310 c-77 -18 -143 -102 -143 -180 0 -57 20 -99 68 -142 66
-59 151 -64 226 -11 124 88 98 267 -46 327 -40 17 -56 18 -105 6z m81 -84 c71
-30 89 -110 37 -168 -25 -28 -36 -33 -76 -33 -40 0 -51 5 -76 33 -53 59 -34
134 41 166 43 19 35 18 74 2z"/>
<path d="M3461 7965 c-24 -28 -31 -45 -31 -78 0 -48 30 -104 61 -116 19 -7 15
-11 -38 -39 -33 -17 -63 -28 -67 -25 -3 4 -15 -3 -26 -15 -16 -17 -32 -22 -68
-22 -36 0 -57 -7 -82 -25 -19 -14 -41 -25 -51 -25 -9 0 -33 -13 -54 -30 -21
-16 -47 -30 -57 -30 -11 0 -33 -11 -50 -25 -40 -34 -77 -32 -113 5 l-29 30
-181 0 c-181 0 -181 0 -203 25 l-22 25 -474 0 -474 0 -16 25 c-13 20 -25 25
-56 25 -22 0 -40 4 -40 8 0 5 -17 17 -37 28 -21 10 -51 27 -66 38 -16 10 -40
19 -53 19 -16 0 -34 11 -51 33 -14 19 -34 34 -44 34 -19 0 -53 28 -60 49 -3 8
-61 12 -198 13 l-194 1 -24 -29 c-22 -28 -23 -35 -23 -223 l0 -193 -30 -35
c-41 -46 -42 -98 -3 -129 l28 -22 0 -277 -1 -276 -31 -25 c-29 -22 -32 -30
-31 -74 1 -41 -3 -55 -24 -78 -24 -25 -26 -34 -26 -112 1 -75 -2 -86 -21 -98
-19 -13 -21 -23 -21 -136 0 -142 -4 -159 -36 -176 l-24 -13 0 -232 0 -232 -29
-37 c-26 -33 -29 -43 -24 -84 4 -41 1 -51 -21 -77 -16 -19 -26 -42 -26 -62 0
-25 -8 -38 -37 -60 -54 -40 -70 -63 -77 -106 -4 -21 -13 -40 -20 -43 -8 -3
-29 -31 -48 -61 -18 -31 -49 -74 -69 -97 -75 -85 -69 56 -69 -1530 l0 -1426
38 -24 c21 -13 49 -38 62 -55 14 -17 39 -36 55 -43 17 -6 43 -22 58 -35 20
-16 42 -23 70 -23 48 0 59 -6 76 -37 8 -16 21 -23 40 -23 16 0 39 -8 52 -19
13 -10 47 -20 75 -23 31 -3 64 -14 84 -28 30 -21 45 -23 258 -31 347 -12 2427
-11 2716 2 212 10 254 14 275 29 20 14 54 19 154 24 105 5 133 9 152 25 17 13
49 21 107 25 60 6 89 13 103 26 14 13 43 21 99 26 57 5 89 13 112 29 22 15 54
24 104 28 43 4 83 13 98 24 15 9 52 20 83 24 36 4 71 16 95 33 21 14 50 26 63
26 13 0 38 11 55 23 17 13 42 27 56 30 85 20 123 36 148 60 15 15 33 27 40 27
6 0 21 11 34 24 36 39 102 57 251 71 103 10 143 17 157 30 11 10 41 21 67 26
26 5 59 20 73 33 14 13 50 28 85 35 158 33 482 285 601 468 30 46 60 96 65
111 6 15 18 36 28 47 10 11 24 37 31 58 7 21 18 41 25 43 7 3 19 29 26 57 6
29 22 73 35 99 13 26 24 64 24 84 0 20 12 80 26 133 25 91 26 105 21 261 -4
137 -8 173 -25 212 -12 26 -26 92 -33 150 -7 63 -21 125 -35 159 -13 31 -24
60 -24 64 0 4 -8 19 -19 33 -10 15 -22 38 -26 52 -4 14 -17 36 -30 50 -12 14
-28 42 -34 62 -23 71 -231 263 -349 322 -79 39 -187 61 -288 58 -105 -2 -139
-14 -235 -80 -70 -48 -99 -84 -99 -124 0 -13 -9 -41 -20 -63 -25 -49 -25 -96
-1 -149 10 -23 24 -52 30 -66 27 -58 64 -108 127 -172 37 -37 71 -68 75 -68 5
0 9 -8 9 -18 0 -10 16 -35 35 -55 19 -20 35 -41 35 -46 0 -4 13 -25 29 -45 16
-20 33 -51 36 -69 4 -18 16 -42 27 -54 18 -19 20 -30 14 -75 -4 -29 -11 -87
-14 -128 -7 -78 -23 -110 -84 -175 -16 -16 -33 -45 -38 -65 -9 -32 -49 -80
-129 -152 -17 -16 -55 -34 -87 -43 -31 -8 -67 -22 -80 -30 -52 -34 -114 -7
-114 49 0 19 -7 50 -15 69 -9 23 -15 69 -15 125 0 78 -3 92 -25 122 -14 19
-25 38 -25 44 0 5 -9 20 -21 32 -11 12 -25 40 -30 62 -5 22 -27 67 -49 101
-24 36 -40 72 -40 90 0 18 -8 35 -18 43 -11 7 -25 24 -32 38 -7 14 -24 35 -37
47 -16 15 -23 33 -23 57 0 26 -8 44 -30 66 -16 17 -30 36 -30 43 0 7 -16 28
-35 47 -19 19 -35 44 -35 56 0 12 -11 36 -25 52 -14 17 -25 37 -25 45 0 9 -11
29 -25 45 -14 17 -25 41 -25 55 0 14 -10 38 -23 54 -38 47 -87 129 -87 146 0
17 -27 60 -78 125 -18 22 -32 49 -32 60 0 11 -11 33 -24 49 -13 15 -31 45 -40
66 -9 22 -34 62 -56 89 -22 28 -43 62 -47 76 -3 14 -17 41 -30 60 -12 19 -23
42 -23 52 0 9 -9 25 -19 34 -11 10 -22 30 -26 44 -3 15 -17 43 -29 62 -13 19
-27 46 -31 60 -4 14 -16 39 -26 56 -11 17 -19 37 -19 44 0 12 -31 55 -69 95
-10 11 -22 31 -26 45 -4 14 -18 43 -31 66 -18 30 -24 56 -24 98 0 33 -8 77
-19 104 -11 26 -22 75 -25 110 -4 41 -15 78 -31 106 -14 24 -25 58 -25 78 0
19 -12 57 -26 84 l-26 49 7 224 c6 200 9 228 26 251 19 25 20 47 20 429 0 373
-1 404 -18 428 -29 41 -31 46 -37 74 -4 20 -14 28 -38 33 -17 3 -40 13 -50 22
-12 12 -43 18 -110 20 -98 4 -145 -5 -172 -35 -11 -12 -33 -18 -70 -20 l-55
-2 34 34 c84 84 36 207 -81 207 -35 0 -47 -6 -73 -35z m-2526 -615 c16 -25 49
-63 73 -85 29 -28 48 -58 62 -97 35 -101 21 -158 -49 -202 -21 -13 -44 -30
-52 -38 -8 -7 -32 -24 -53 -36 -39 -23 -39 -23 -59 -4 -16 17 -19 37 -22 143
-1 68 -6 156 -10 195 -9 83 -4 110 26 148 28 36 48 30 84 -24z m2967 -105 c9
-20 7 -40 -7 -98 -10 -39 -19 -99 -20 -133 -2 -34 -7 -70 -12 -80 -6 -10 -13
-48 -17 -84 -12 -114 -22 -170 -33 -181 -16 -16 -58 9 -84 52 -13 22 -45 70
-72 107 -57 80 -65 107 -59 190 4 60 7 65 41 87 20 13 72 55 116 94 90 79 126
91 147 46z m-754 -584 c79 -31 176 -106 214 -164 49 -73 82 -184 75 -245 -4
-26 -10 -81 -15 -123 -6 -52 -16 -87 -31 -107 -11 -17 -21 -34 -21 -40 0 -18
-81 -84 -134 -108 -93 -43 -241 -32 -391 31 -39 17 -138 106 -164 148 -32 51
-56 190 -42 237 6 20 11 48 11 61 0 13 22 66 48 118 57 112 121 170 212 195
80 21 179 20 238 -3z m-1443 -30 c103 -25 153 -64 230 -183 56 -86 77 -215 55
-331 -15 -82 -72 -172 -142 -224 -28 -21 -59 -44 -69 -51 -30 -23 -146 -34
-229 -21 -89 13 -201 64 -254 115 -20 19 -49 61 -65 94 -33 66 -71 195 -71
239 0 54 30 159 62 221 36 67 103 121 180 143 51 15 235 14 303 -2z"/>
<path d="M2857 6545 c-58 -63 -137 -205 -137 -247 0 -95 44 -200 108 -260 62
-58 71 -62 168 -82 104 -21 135 -19 209 8 57 21 61 25 94 88 27 54 35 84 42
160 8 87 7 97 -16 159 -54 141 -149 200 -358 224 l-58 7 -52 -57z"/>
<path d="M1430 6541 c-19 -10 -53 -24 -76 -31 -38 -11 -43 -17 -68 -80 -33
-85 -35 -175 -5 -280 24 -86 51 -127 115 -171 75 -51 137 -69 239 -69 79 0 95
3 127 25 43 29 100 104 123 163 27 67 16 229 -20 302 -35 70 -68 106 -127 136
-42 21 -60 24 -160 24 -90 -1 -120 -5 -148 -19z"/>
</g>
</svg>
