<?xml version="1.0" standalone="no"?>
<!DOCTYPE svg PUBLIC "-//W3C//DTD SVG 20010904//EN"
 "http://www.w3.org/TR/2001/REC-SVG-20010904/DTD/svg10.dtd">
<svg version="1.0" xmlns="http://www.w3.org/2000/svg"
 width="704.000000pt" height="1280.000000pt" viewBox="0 0 704.000000 1280.000000"
 preserveAspectRatio="xMidYMid meet">
<metadata>
Created by potrace 1.16, written by Peter Selinger 2001-2019
</metadata>
<g transform="translate(0.000000,1280.000000) scale(0.100000,-0.100000)"
fill="#000000" stroke="none">
<path d="M4575 10555 c-178 -15 -301 -35 -451 -74 -570 -149 -989 -493 -1096
-903 -31 -118 -32 -321 -1 -428 69 -241 226 -453 460 -619 219 -157 566 -287
893 -337 166 -25 563 -30 735 -10 513 62 903 226 1174 494 232 231 336 486
310 761 -36 382 -317 718 -773 923 -246 111 -488 170 -811 198 -149 12 -248
11 -440 -5z m583 -171 c244 -32 457 -95 659 -195 538 -266 754 -727 541 -1154
-123 -245 -406 -464 -751 -581 -255 -87 -426 -115 -740 -121 -326 -7 -478 9
-732 77 -512 136 -870 436 -950 795 -25 110 -17 272 18 380 128 392 609 705
1222 795 223 32 508 34 733 4z"/>
<path d="M5105 10020 c-74 -9 -136 -33 -196 -76 -81 -59 -159 -155 -159 -198
0 -36 -21 -22 -50 32 -40 76 -128 161 -210 203 -63 33 -68 34 -185 34 -118 0
-122 -1 -190 -35 -78 -39 -145 -111 -192 -208 -35 -71 -44 -238 -19 -327 67
-232 305 -491 699 -761 60 -41 114 -74 121 -74 14 0 206 134 349 242 175 134
362 336 431 468 125 237 69 523 -126 647 -45 28 -165 65 -200 62 -7 -1 -40 -5
-73 -9z m-852 -129 c31 -12 53 -62 38 -89 -6 -11 -35 -41 -65 -67 -30 -25 -69
-69 -86 -96 -36 -56 -58 -62 -95 -24 -41 40 -29 131 26 201 33 42 46 52 99 71
43 15 52 15 83 4z"/>
<path d="M3773 8310 c-123 -29 -181 -184 -108 -289 103 -149 343 -72 337 108
-3 83 -61 159 -139 180 -42 12 -45 12 -90 1z m118 -111 c78 -83 -18 -217 -118
-165 -68 35 -82 104 -32 161 27 30 37 35 76 35 37 0 50 -5 74 -31z"/>
<path d="M3461 7965 c-53 -60 -39 -154 28 -190 19 -10 21 -14 9 -15 -10 0 -25
-9 -35 -19 -10 -11 -35 -22 -56 -26 -20 -4 -48 -16 -61 -26 -15 -12 -40 -19
-66 -19 -30 0 -50 -7 -72 -25 -16 -14 -38 -25 -48 -25 -11 0 -33 -13 -50 -30
-18 -18 -41 -30 -56 -30 -15 0 -39 -11 -56 -25 -40 -34 -76 -32 -111 4 l-28
30 -182 0 -182 0 -20 26 -21 25 -470 0 -471 0 -23 25 c-17 18 -34 25 -62 25
-21 0 -38 4 -38 9 0 5 -25 21 -56 37 -31 16 -59 34 -61 41 -3 7 -20 13 -38 13
-27 0 -37 6 -54 35 -16 28 -27 35 -50 35 -21 0 -34 7 -42 23 -7 12 -16 25 -21
28 -7 4 -273 4 -375 0 -6 -1 -22 -15 -34 -33 -23 -31 -23 -38 -20 -224 l3
-192 -31 -33 c-40 -42 -43 -98 -7 -126 23 -17 25 -26 32 -149 4 -71 3 -197 -1
-278 -7 -146 -7 -148 -36 -174 -26 -22 -29 -32 -29 -82 0 -49 -4 -60 -22 -72
-21 -14 -23 -23 -23 -101 0 -74 -3 -89 -22 -109 -19 -21 -22 -36 -25 -155 -3
-128 -4 -133 -30 -160 l-28 -29 0 -228 0 -227 -28 -25 c-24 -23 -27 -32 -25
-79 2 -44 -2 -59 -21 -82 -14 -16 -27 -45 -31 -66 -5 -26 -17 -44 -44 -63 -49
-37 -61 -53 -61 -86 0 -16 -11 -39 -28 -56 -15 -16 -38 -48 -52 -71 -14 -24
-40 -59 -58 -79 -18 -21 -42 -54 -53 -74 -19 -36 -19 -71 -19 -1462 l0 -1425
28 -15 c15 -8 48 -37 74 -65 26 -28 56 -51 66 -51 10 0 29 -11 42 -25 18 -19
33 -25 68 -25 35 0 49 -6 74 -30 18 -19 40 -30 57 -30 16 0 37 -10 51 -25 19
-20 33 -25 74 -25 36 0 56 -5 71 -20 39 -37 318 -42 1780 -36 1185 5 1374 7
1436 14 9 1 26 11 39 22 19 17 39 20 114 21 147 3 166 5 194 26 19 14 52 22
107 27 57 5 86 13 100 26 15 13 43 20 105 25 62 5 91 12 105 26 14 12 49 23
99 30 44 6 90 18 104 27 14 9 53 19 88 23 47 5 71 13 94 33 17 14 43 26 56 26
14 0 36 8 51 17 38 25 134 63 160 63 12 0 34 14 50 30 15 17 33 30 40 30 7 0
26 14 43 30 17 17 40 30 51 30 11 0 32 6 47 14 15 8 72 17 127 20 124 9 151
14 170 32 7 8 37 19 65 24 29 5 65 21 80 34 18 14 54 28 94 36 37 7 77 21 90
31 13 10 35 23 48 28 40 15 225 160 316 246 80 76 136 147 163 207 7 16 15 28
19 28 4 0 13 15 20 33 7 17 22 41 32 53 10 11 20 30 23 42 5 29 24 62 35 62 4
0 13 24 20 52 6 29 22 76 35 105 14 28 25 68 25 87 0 19 12 81 26 138 25 95
26 112 21 257 -4 127 -9 164 -25 201 -12 26 -25 90 -32 150 -8 72 -19 121 -36
154 -13 28 -24 55 -24 62 0 6 -9 22 -19 36 -11 13 -23 38 -27 54 -4 16 -20 44
-36 62 -15 18 -28 40 -28 48 0 60 -267 301 -373 337 -145 50 -153 52 -253 51
-111 0 -137 -8 -234 -74 -79 -55 -107 -88 -115 -140 -4 -25 -13 -55 -21 -67
-21 -34 -17 -90 11 -152 14 -31 30 -63 35 -71 6 -8 18 -31 29 -50 11 -19 54
-67 95 -107 42 -40 76 -78 76 -86 0 -7 12 -24 26 -38 14 -13 33 -37 41 -54 9
-16 26 -40 39 -52 13 -12 24 -32 24 -44 0 -12 13 -43 30 -69 l30 -46 -15 -58
c-8 -31 -15 -82 -15 -112 0 -48 -5 -63 -39 -112 -21 -32 -46 -64 -55 -71 -9
-7 -20 -30 -26 -51 -7 -25 -32 -59 -75 -103 -64 -64 -75 -70 -165 -100 -25 -8
-59 -21 -77 -28 -23 -9 -40 -10 -60 -3 -24 8 -29 16 -34 59 -3 28 -11 63 -17
78 -7 16 -12 68 -12 116 0 78 -3 93 -25 125 -14 20 -25 42 -25 48 0 5 -11 23
-25 40 -14 16 -25 39 -25 49 0 11 -13 40 -30 64 -16 24 -30 48 -30 53 0 5 -7
15 -15 22 -8 7 -15 29 -15 50 0 29 -5 39 -24 48 -13 6 -28 21 -32 34 -4 13
-17 33 -30 45 -17 15 -24 33 -24 58 0 25 -8 44 -30 67 -16 17 -30 36 -30 43 0
6 -16 29 -35 51 -19 21 -35 49 -35 61 0 12 -5 25 -10 28 -6 4 -21 28 -34 54
-14 26 -32 53 -40 60 -9 8 -19 31 -22 53 -4 23 -14 43 -25 49 -11 5 -19 14
-19 20 0 5 -11 26 -24 47 -14 20 -28 50 -32 67 -4 16 -31 62 -61 102 -29 39
-53 82 -53 95 -1 13 -14 39 -30 58 -17 19 -30 41 -30 50 0 9 -25 47 -55 85
-30 38 -55 76 -55 85 0 8 -12 33 -25 55 -14 22 -25 47 -25 56 0 9 -8 24 -19
33 -10 9 -24 37 -31 62 -7 24 -16 46 -20 49 -8 5 -65 121 -74 151 -4 12 -29
47 -56 78 -28 32 -50 65 -50 74 0 9 -12 35 -25 57 -19 30 -25 54 -25 98 0 34
-8 78 -19 105 -11 26 -22 75 -25 110 -4 41 -15 78 -31 106 -15 26 -25 58 -25
82 0 23 -11 59 -26 88 l-27 50 8 215 c6 187 9 220 26 247 18 30 19 55 19 437
l0 405 -24 29 c-12 15 -27 42 -33 58 -7 21 -17 31 -34 33 -13 2 -34 14 -45 26
-20 21 -30 22 -137 22 -106 -1 -117 -3 -140 -24 -17 -16 -41 -25 -81 -29 l-56
-6 35 37 c82 88 39 206 -75 206 -42 0 -52 -4 -79 -35z m-2495 -653 c85 -93
114 -146 121 -223 6 -56 5 -59 -29 -91 -34 -32 -92 -75 -147 -109 -30 -18 -57
-14 -66 9 -6 15 -17 245 -19 392 -1 52 24 100 52 100 9 0 49 -35 88 -78z
m2926 -49 c22 -20 23 -57 2 -114 -9 -24 -17 -78 -19 -120 -2 -42 -8 -86 -14
-97 -6 -11 -11 -35 -11 -53 0 -27 -12 -112 -26 -186 -3 -16 -11 -23 -27 -23
-26 0 -50 23 -93 89 -16 24 -46 69 -66 100 -34 52 -37 62 -37 133 l-1 77 36
28 c20 15 68 55 106 88 65 56 117 95 127 95 3 0 13 -7 23 -17z m-747 -603
c138 -47 236 -152 280 -300 22 -74 24 -91 14 -130 -6 -25 -14 -73 -18 -106 -6
-44 -19 -79 -44 -120 -45 -76 -69 -97 -140 -128 -83 -37 -213 -37 -318 0 -88
31 -183 100 -227 164 -44 64 -66 181 -51 265 25 133 96 261 176 316 82 57 224
74 328 39z m-1442 -32 c132 -25 237 -137 277 -294 52 -203 -7 -357 -181 -479
-110 -78 -363 -40 -501 75 -46 39 -100 149 -123 253 -16 73 -16 83 0 172 9 52
22 99 29 104 7 6 21 29 31 50 20 46 99 105 165 124 51 15 216 12 303 -5z"/>
<path d="M2852 6541 c-34 -36 -68 -86 -94 -140 -38 -79 -40 -87 -33 -145 12
-112 73 -213 160 -265 30 -18 169 -51 216 -51 41 0 142 40 171 67 36 35 65
128 71 232 5 81 4 88 -29 157 -21 46 -48 84 -72 104 -54 45 -173 87 -261 93
l-75 5 -54 -57z"/>
<path d="M1425 6540 c-16 -11 -48 -25 -71 -31 -39 -10 -42 -14 -69 -81 -25
-64 -27 -80 -22 -162 2 -50 12 -114 21 -142 22 -71 83 -136 164 -176 60 -30
77 -33 169 -36 122 -4 150 8 213 92 58 78 70 115 70 222 0 150 -51 252 -155
307 -34 18 -60 22 -165 24 -111 2 -128 0 -155 -17z"/>
</g>
</svg>
