<?xml version="1.0" standalone="no"?>
<!DOCTYPE svg PUBLIC "-//W3C//DTD SVG 20010904//EN"
 "http://www.w3.org/TR/2001/REC-SVG-20010904/DTD/svg10.dtd">
<svg version="1.0" xmlns="http://www.w3.org/2000/svg"
 width="704.000000pt" height="1280.000000pt" viewBox="0 0 704.000000 1280.000000"
 preserveAspectRatio="xMidYMid meet">
<metadata>
Created by potrace 1.16, written by Peter Selinger 2001-2019
</metadata>
<g transform="translate(0.000000,1280.000000) scale(0.100000,-0.100000)"
fill="#000000" stroke="none">
<path d="M689 7891 c-9 -6 -25 -23 -35 -38 -17 -25 -18 -46 -15 -220 l3 -192
-26 -26 c-15 -15 -29 -43 -32 -66 -6 -37 -4 -43 22 -64 l29 -23 -1 -277 -1
-277 -31 -29 c-27 -26 -32 -37 -32 -78 0 -38 -5 -52 -25 -71 -23 -22 -25 -31
-25 -111 0 -79 -2 -88 -22 -101 -22 -15 -23 -21 -21 -139 1 -126 -5 -153 -39
-177 -17 -12 -18 -31 -18 -248 l0 -235 -27 -25 c-22 -21 -26 -31 -24 -77 1
-45 -3 -58 -24 -81 -14 -15 -25 -39 -25 -55 0 -32 -12 -48 -62 -86 -27 -19
-41 -40 -49 -68 -11 -40 -32 -74 -77 -123 -12 -14 -22 -30 -22 -35 0 -6 -18
-31 -39 -57 -77 -91 -71 40 -71 -1541 l0 -1420 43 -28 c23 -16 51 -43 62 -61
11 -18 31 -35 46 -38 14 -3 39 -17 54 -30 19 -16 40 -24 67 -24 44 0 77 -14
96 -42 7 -10 25 -18 41 -18 17 0 36 -10 50 -25 18 -22 29 -26 69 -24 37 2 56
-3 80 -21 30 -23 46 -25 210 -33 97 -4 812 -7 1589 -5 l1411 3 34 25 c30 23
44 25 165 30 121 5 134 7 153 28 18 19 31 22 94 22 62 0 79 4 111 25 29 20 54
27 113 31 51 4 83 11 101 24 16 12 56 23 102 29 42 5 88 17 104 27 15 10 54
21 86 25 42 5 67 14 89 33 18 14 44 26 59 26 16 0 39 8 52 18 28 21 98 48 151
56 25 5 44 16 58 36 12 17 27 30 33 30 7 0 27 13 45 30 19 17 44 30 59 30 15
0 34 6 42 14 11 9 61 17 147 23 111 8 135 12 159 31 16 13 42 22 62 22 23 0
47 10 71 29 22 17 55 32 82 36 57 8 171 66 231 115 25 21 59 46 75 56 111 69
266 231 320 337 9 17 23 37 30 45 8 7 14 19 14 25 0 7 14 30 30 51 17 22 30
48 30 57 0 10 9 27 21 37 11 11 27 46 36 78 8 32 23 75 34 96 10 20 19 52 19
70 0 18 12 80 26 138 24 97 26 117 21 265 -3 121 -9 170 -22 200 -9 22 -23 87
-31 145 -9 64 -25 125 -40 157 -13 28 -24 58 -24 65 0 7 -12 31 -25 53 -14 22
-25 46 -25 53 0 7 -13 31 -30 54 -16 22 -30 47 -30 55 0 7 -11 23 -25 35 -14
12 -25 26 -25 32 0 12 -144 151 -196 189 -97 70 -266 127 -381 127 -39 0 -87
-8 -125 -22 -106 -36 -218 -132 -218 -186 0 -15 -9 -47 -20 -71 -25 -55 -25
-63 5 -148 34 -98 58 -135 147 -224 42 -43 82 -88 89 -101 6 -13 23 -36 36
-53 13 -16 39 -49 58 -72 18 -24 36 -60 40 -82 3 -22 15 -47 26 -57 21 -19 24
-57 9 -113 -5 -20 -12 -66 -15 -103 -6 -61 -12 -74 -61 -143 -30 -41 -54 -82
-54 -89 0 -42 -159 -181 -219 -192 -20 -4 -53 -15 -73 -25 -45 -23 -67 -24
-96 -3 -16 11 -22 25 -21 47 1 18 -6 49 -15 69 -11 26 -16 67 -16 132 0 87 -2
97 -25 122 -14 15 -25 32 -25 38 0 6 -11 28 -25 48 -14 20 -25 48 -25 62 0 15
-9 35 -19 45 -27 27 -71 112 -71 137 0 11 -11 30 -25 42 -14 12 -25 28 -25 35
0 7 -13 26 -30 42 -23 22 -30 38 -30 66 0 21 -7 42 -15 49 -9 7 -29 34 -46 59
-17 25 -38 50 -45 54 -8 4 -14 16 -14 26 0 10 -11 35 -25 55 -14 20 -25 40
-25 43 0 3 -13 27 -29 52 -16 25 -31 57 -35 71 -3 14 -15 36 -26 50 -43 53
-80 116 -80 137 0 12 -10 34 -23 50 -37 46 -87 129 -87 145 0 8 -14 32 -30 53
-17 21 -30 46 -30 56 0 11 -25 49 -55 86 -30 38 -55 78 -55 90 0 12 -11 39
-25 59 -14 20 -25 42 -25 49 0 6 -9 20 -20 30 -11 10 -22 33 -26 51 -3 18 -16
45 -29 60 -13 15 -26 39 -29 54 -3 15 -12 35 -21 44 -9 9 -21 31 -26 49 -5 18
-27 53 -49 77 -22 25 -44 60 -49 79 -6 18 -18 42 -27 52 -12 14 -19 45 -24
107 -4 50 -14 101 -23 119 -9 18 -17 54 -17 80 0 33 -9 66 -30 108 -16 33 -30
74 -30 91 0 18 -12 57 -26 88 l-26 57 7 220 c7 193 10 222 26 243 18 23 19 49
20 431 0 395 0 408 -20 429 -11 12 -27 38 -36 58 -11 27 -23 40 -43 44 -15 4
-35 14 -45 22 -13 12 -47 17 -128 19 -108 4 -112 3 -136 -22 -24 -23 -32 -25
-128 -25 -94 0 -103 -2 -124 -24 -12 -13 -39 -26 -59 -30 -20 -3 -45 -15 -54
-26 -13 -14 -30 -20 -61 -20 -29 0 -54 -8 -79 -25 -20 -14 -46 -25 -56 -25
-11 0 -30 -11 -43 -24 -13 -13 -43 -29 -67 -35 -23 -7 -42 -15 -42 -20 0 -11
-47 -31 -73 -31 -13 0 -34 14 -49 30 l-26 30 -181 0 c-178 0 -180 0 -207 25
l-27 25 -467 0 -467 0 -23 25 c-15 16 -34 25 -55 25 -17 0 -46 11 -65 25 -19
14 -38 25 -43 25 -4 0 -23 11 -41 25 -18 14 -43 25 -55 25 -13 0 -35 13 -50
29 -14 15 -38 32 -51 36 -14 4 -34 18 -45 32 -20 24 -24 24 -200 29 -115 3
-186 1 -196 -5z m235 -527 c17 -20 54 -62 82 -94 40 -45 55 -70 69 -124 17
-61 17 -73 4 -109 -14 -42 -76 -95 -171 -147 -33 -18 -38 -18 -52 -4 -16 16
-20 47 -21 179 0 39 -4 115 -9 170 -8 100 -8 101 19 133 15 18 32 32 37 32 6
0 25 -16 42 -36z m2986 -150 c0 -18 -5 -45 -11 -61 -6 -15 -15 -66 -19 -113
-5 -47 -14 -103 -19 -125 -6 -22 -16 -82 -23 -133 -15 -115 -23 -129 -61 -109
-22 11 -137 167 -137 185 0 2 -9 15 -20 29 -16 21 -20 41 -20 109 0 76 2 84
23 95 20 11 98 75 166 137 14 13 40 30 56 37 39 16 65 -4 65 -51z m-777 -551
c29 -9 84 -38 123 -64 85 -58 134 -125 171 -241 26 -81 26 -82 10 -144 -10
-34 -17 -79 -17 -99 0 -42 -54 -146 -97 -187 -85 -82 -242 -101 -400 -50 -100
32 -190 99 -240 178 -37 60 -64 196 -44 231 6 12 11 36 11 54 0 83 124 271
198 301 99 40 202 48 285 21z m-1404 -37 c78 -22 181 -96 181 -130 0 -8 7 -16
15 -20 8 -3 15 -14 15 -25 0 -11 6 -24 14 -28 7 -4 16 -21 19 -38 16 -95 29
-153 38 -174 6 -14 6 -28 1 -35 -5 -6 -13 -29 -17 -50 -14 -83 -79 -180 -160
-243 -68 -53 -63 -51 -144 -64 -128 -19 -287 25 -387 108 -50 42 -105 148
-124 239 -7 32 -17 63 -22 68 -25 29 3 175 43 223 14 17 31 44 38 61 13 31
102 99 154 118 44 15 271 9 336 -10z"/>
<path d="M2905 6590 c-35 -14 -115 -118 -152 -198 -35 -76 -36 -78 -25 -147
15 -94 43 -154 96 -203 60 -55 88 -68 194 -88 91 -18 93 -18 160 4 117 38 159
108 163 278 3 94 1 102 -30 167 -54 112 -152 172 -301 184 -30 2 -62 5 -70 7
-9 2 -25 0 -35 -4z"/>
<path d="M1460 6553 c-8 -3 -22 -14 -31 -25 -9 -12 -31 -21 -59 -24 -54 -5
-64 -13 -79 -66 -7 -24 -18 -49 -24 -57 -21 -25 -14 -160 13 -241 20 -62 33
-84 75 -124 78 -76 139 -100 262 -104 117 -4 147 7 202 77 64 81 80 128 80
236 -1 84 -5 108 -30 169 -16 39 -29 72 -29 72 0 1 -14 7 -30 14 -17 7 -37 22
-46 34 -11 16 -30 23 -87 29 -112 12 -201 17 -217 10z"/>
</g>
</svg>
