<?xml version="1.0" standalone="no"?>
<!DOCTYPE svg PUBLIC "-//W3C//DTD SVG 20010904//EN"
 "http://www.w3.org/TR/2001/REC-SVG-20010904/DTD/svg10.dtd">
<svg version="1.0" xmlns="http://www.w3.org/2000/svg"
 width="704.000000pt" height="1280.000000pt" viewBox="0 0 704.000000 1280.000000"
 preserveAspectRatio="xMidYMid meet">
<metadata>
Created by potrace 1.16, written by Peter Selinger 2001-2019
</metadata>
<g transform="translate(0.000000,1280.000000) scale(0.100000,-0.100000)"
fill="#000000" stroke="none">
<path d="M4595 10559 c-369 -37 -613 -100 -862 -224 -182 -90 -301 -173 -419
-290 -168 -168 -253 -317 -294 -515 -82 -396 119 -784 545 -1050 208 -130 483
-230 755 -274 371 -60 800 -46 1139 39 262 66 458 152 651 286 284 197 450
449 490 744 21 153 -18 352 -97 495 -90 163 -164 250 -316 371 -201 161 -448
279 -742 353 -244 62 -606 90 -850 65z m406 -159 c495 -39 887 -189 1156 -443
135 -128 200 -227 249 -377 24 -74 27 -101 27 -215 1 -146 -17 -223 -74 -331
-199 -372 -668 -629 -1271 -694 -123 -13 -465 -13 -583 0 -463 51 -835 208
-1080 454 -107 107 -176 213 -218 334 -42 121 -49 279 -18 402 42 168 115 285
261 423 110 103 209 171 355 242 334 163 772 237 1196 205z"/>
<path d="M4585 10090 c-38 -10 -92 -28 -120 -41 -70 -31 -175 -101 -175 -117
0 -7 17 -36 39 -65 21 -29 51 -73 66 -99 15 -27 31 -50 35 -53 5 -3 31 10 58
30 82 59 157 87 247 92 71 4 85 2 125 -19 81 -43 101 -130 50 -213 -12 -20
-74 -75 -139 -125 -65 -48 -130 -103 -145 -121 -27 -32 -28 -33 -21 -138 3
-58 9 -119 12 -135 l5 -29 80 7 c44 4 99 9 124 13 l44 6 0 81 c0 44 4 86 8 92
4 5 52 46 107 89 205 162 257 238 263 391 4 82 2 98 -21 148 -47 101 -146 176
-282 211 -83 21 -269 19 -360 -5z"/>
<path d="M4691 8930 c-117 -29 -170 -183 -94 -278 44 -56 86 -74 157 -68 72 5
122 42 150 108 55 133 -70 273 -213 238z"/>
<path d="M3773 8310 c-18 -4 -49 -20 -68 -34 -104 -80 -98 -231 13 -307 28
-19 48 -24 98 -24 53 0 69 4 105 30 127 90 103 268 -43 329 -40 17 -56 18
-105 6z m81 -84 c71 -30 89 -110 37 -168 -25 -28 -36 -33 -76 -33 -40 0 -51 5
-76 33 -53 59 -34 134 41 166 43 19 35 18 74 2z"/>
<path d="M3461 7965 c-24 -28 -31 -45 -31 -78 0 -49 31 -107 61 -114 17 -5 10
-11 -35 -34 -31 -16 -61 -29 -67 -29 -6 0 -22 -9 -36 -20 -17 -13 -41 -20 -70
-20 -34 0 -53 -6 -75 -25 -16 -14 -38 -25 -47 -25 -10 0 -35 -13 -56 -30 -21
-16 -47 -30 -57 -30 -11 0 -33 -11 -50 -25 -40 -34 -77 -32 -113 5 l-29 30
-181 0 c-181 0 -181 0 -203 25 l-22 25 -473 0 -473 0 -22 25 c-14 16 -32 25
-52 25 -19 0 -41 10 -58 25 -15 14 -32 25 -38 25 -6 0 -23 9 -37 20 -14 11
-39 20 -55 20 -23 0 -38 9 -62 40 -21 27 -40 40 -56 40 -16 0 -28 8 -36 25 -6
14 -14 25 -17 25 -17 1 -368 1 -381 1 -9 -1 -24 -18 -35 -38 -18 -33 -20 -52
-16 -224 l3 -188 -27 -27 c-17 -17 -29 -42 -33 -67 -4 -34 -1 -42 24 -62 l29
-23 0 -275 -1 -275 -31 -29 c-27 -25 -31 -36 -31 -76 1 -37 -4 -53 -23 -73
-21 -23 -24 -35 -24 -110 0 -76 -2 -87 -22 -102 -20 -16 -22 -27 -25 -154 -3
-135 -3 -136 -30 -158 l-28 -21 0 -238 0 -238 -30 -26 c-27 -24 -29 -31 -24
-74 5 -42 3 -52 -20 -78 -16 -19 -26 -42 -26 -62 0 -25 -8 -38 -37 -60 -54
-40 -70 -63 -77 -105 -3 -20 -13 -41 -21 -45 -8 -5 -37 -42 -65 -83 -27 -41
-64 -92 -82 -113 l-33 -39 -3 -1437 -2 -1437 30 -17 c16 -10 46 -38 66 -62 20
-25 48 -48 63 -52 14 -3 39 -17 54 -30 19 -15 41 -23 67 -23 29 0 48 -8 73
-30 22 -19 46 -30 65 -30 21 0 35 -8 46 -25 14 -21 24 -25 67 -25 36 0 60 -6
81 -21 27 -20 48 -22 256 -30 314 -11 2422 -11 2719 1 215 8 246 11 270 29 23
15 52 20 156 25 103 5 132 9 155 25 18 13 53 21 107 26 58 4 86 11 100 25 14
14 42 21 100 25 56 5 89 13 109 27 18 13 56 24 105 29 45 6 86 17 101 28 15
10 50 20 83 23 40 3 64 11 80 26 13 12 44 26 70 31 26 5 56 16 65 25 17 14
131 56 155 56 5 0 27 16 48 35 22 19 44 35 50 35 6 0 18 9 27 20 28 32 100 52
245 65 116 11 142 17 161 34 14 13 36 21 58 21 25 0 47 9 68 27 18 15 57 32
92 40 76 18 229 99 268 143 3 3 30 24 60 46 91 67 218 193 257 253 20 31 47
72 60 92 12 19 23 40 23 46 0 6 11 24 24 40 13 15 29 45 36 66 6 21 18 41 25
43 7 3 19 29 25 57 7 29 21 70 32 92 11 22 24 70 29 107 4 37 16 91 26 120 15
43 18 87 18 238 0 168 -2 189 -21 230 -13 26 -28 92 -37 155 -14 105 -51 219
-82 255 -8 8 -17 29 -21 45 -3 17 -17 41 -30 55 -12 14 -26 39 -30 55 -7 32
-14 41 -126 153 -173 175 -309 237 -513 234 -94 -1 -104 -3 -170 -37 -104 -53
-165 -114 -165 -165 0 -14 -9 -43 -20 -65 -26 -52 -25 -85 5 -162 40 -98 114
-202 182 -254 18 -13 42 -43 54 -66 12 -24 26 -43 30 -43 4 0 17 -17 30 -37
12 -21 30 -47 40 -58 9 -11 22 -39 28 -61 6 -23 18 -48 27 -55 29 -24 34 -55
19 -106 -8 -26 -15 -75 -15 -108 0 -64 -19 -102 -82 -170 -16 -16 -32 -45 -37
-63 -19 -65 -137 -172 -213 -192 -24 -6 -58 -20 -76 -31 -67 -39 -122 -15
-122 53 0 20 -7 55 -15 78 -8 24 -15 77 -15 119 0 67 -3 82 -25 111 -14 19
-25 39 -25 45 0 6 -11 26 -25 45 -14 19 -25 46 -25 60 0 14 -8 35 -18 46 -28
30 -60 95 -67 136 -4 24 -12 39 -24 43 -10 3 -24 19 -31 34 -6 16 -22 39 -36
52 -16 15 -24 34 -24 55 0 23 -9 42 -30 64 -16 17 -30 36 -30 43 0 7 -16 28
-35 47 -19 19 -35 44 -35 56 0 12 -11 35 -24 51 -13 15 -27 39 -31 53 -4 14
-18 38 -31 53 -13 16 -24 39 -24 52 0 13 -10 36 -23 52 -31 37 -63 92 -72 123
-4 14 -32 62 -61 107 -30 44 -54 88 -54 96 0 9 -11 28 -24 44 -13 15 -31 46
-40 67 -9 22 -37 64 -61 94 -25 30 -45 62 -45 71 0 9 -12 34 -25 56 -14 22
-25 47 -25 56 0 9 -9 24 -20 34 -11 10 -20 23 -20 29 0 6 -25 60 -55 121 -30
60 -55 113 -55 118 0 9 -35 56 -69 92 -10 11 -22 31 -26 45 -4 14 -18 43 -31
66 -19 31 -24 56 -24 105 0 43 -6 76 -18 99 -11 20 -22 67 -25 107 -4 54 -12
82 -31 110 -16 23 -26 51 -26 74 0 20 -12 58 -26 85 l-26 49 7 220 c6 190 9
224 26 251 17 29 19 56 19 410 0 208 0 394 0 412 0 22 -8 39 -25 54 -14 12
-25 31 -25 44 0 24 -14 38 -50 49 -14 4 -30 15 -36 23 -9 12 -36 16 -115 18
-105 2 -151 -8 -176 -38 -8 -9 -34 -15 -69 -17 l-57 -2 31 26 c36 30 58 90 48
130 -4 15 -20 40 -36 56 -24 24 -37 29 -78 29 -45 0 -53 -4 -81 -35z m-2538
-601 c12 -14 45 -52 73 -85 63 -72 84 -115 90 -182 6 -63 -19 -111 -69 -132
-18 -7 -41 -23 -51 -34 -10 -11 -34 -29 -52 -40 -31 -19 -34 -19 -54 -3 -19
16 -21 31 -27 192 -9 254 -9 254 10 283 22 34 52 34 80 1z m2983 -130 c4 -14
-2 -53 -11 -87 -10 -34 -19 -91 -20 -127 -1 -36 -7 -78 -13 -95 -6 -16 -16
-75 -23 -130 -15 -123 -23 -139 -58 -120 -34 18 -60 47 -107 124 -21 35 -47
75 -56 90 -11 18 -17 49 -17 102 l-1 76 116 99 c64 55 123 102 133 105 23 9
50 -8 57 -37z m-772 -574 c142 -49 241 -146 286 -284 23 -71 23 -68 2 -246
-14 -113 -74 -199 -174 -250 -55 -27 -71 -30 -154 -30 -58 0 -108 6 -131 14
-21 8 -56 20 -79 25 -51 14 -152 92 -192 151 -45 65 -67 178 -51 262 6 35 17
78 25 96 8 18 14 37 14 43 0 24 93 148 132 176 88 62 217 80 322 43z m-1431
-30 c88 -20 153 -64 205 -139 58 -84 84 -158 88 -252 6 -151 -38 -252 -151
-345 -69 -57 -98 -70 -176 -79 -112 -12 -250 28 -352 102 -63 46 -118 154
-142 276 -17 83 -17 91 0 170 9 45 23 89 30 97 7 8 20 30 30 49 28 56 97 106
173 125 59 15 220 13 295 -4z"/>
<path d="M2853 6544 c-39 -40 -68 -84 -96 -143 -37 -78 -39 -88 -32 -144 19
-170 108 -269 271 -301 103 -20 118 -20 193 4 98 31 138 96 152 249 8 88 7
101 -14 159 -52 141 -150 203 -360 227 l-57 6 -57 -57z"/>
<path d="M1437 6544 c-23 -12 -61 -27 -84 -34 -39 -12 -43 -16 -67 -84 -31
-83 -34 -167 -10 -266 19 -82 49 -129 116 -178 71 -53 137 -72 245 -72 103 0
137 17 196 97 55 75 67 114 67 214 0 112 -39 224 -95 272 -56 49 -107 65 -218
69 -95 3 -113 0 -150 -18z"/>
</g>
</svg>
