<?xml version="1.0" standalone="no"?>
<!DOCTYPE svg PUBLIC "-//W3C//DTD SVG 20010904//EN"
 "http://www.w3.org/TR/2001/REC-SVG-20010904/DTD/svg10.dtd">
<svg version="1.0" xmlns="http://www.w3.org/2000/svg"
 width="704.000000pt" height="1280.000000pt" viewBox="0 0 704.000000 1280.000000"
 preserveAspectRatio="xMidYMid meet">
<metadata>
Created by potrace 1.16, written by Peter Selinger 2001-2019
</metadata>
<g transform="translate(0.000000,1280.000000) scale(0.100000,-0.100000)"
fill="#000000" stroke="none">
<path d="M4605 10559 c-341 -27 -587 -88 -851 -214 -239 -113 -435 -265 -564
-437 -75 -99 -122 -190 -156 -305 -24 -77 -27 -105 -27 -233 -1 -174 19 -260
94 -406 77 -149 158 -248 306 -371 235 -195 564 -331 956 -395 183 -30 651
-33 827 -5 291 47 484 103 678 197 361 175 593 412 691 705 57 171 61 323 14
500 -36 135 -141 314 -251 428 -50 52 -186 163 -266 217 -65 44 -248 134 -359
176 -311 119 -720 173 -1092 143z m545 -174 c329 -44 634 -152 861 -305 81
-54 253 -227 303 -303 87 -133 121 -256 120 -427 -1 -112 -4 -133 -31 -206
-83 -230 -265 -428 -523 -572 -118 -65 -348 -152 -480 -181 -490 -107 -1041
-77 -1453 77 -374 141 -654 392 -744 667 -20 62 -27 107 -31 201 -5 146 13
228 86 374 41 83 61 109 157 206 120 121 214 189 365 265 244 122 499 190 825
219 128 11 410 4 545 -15z"/>
<path d="M4255 9927 c-105 -35 -182 -102 -227 -196 -19 -39 -22 -64 -23 -161
0 -111 1 -118 35 -190 86 -184 316 -419 579 -591 l104 -68 54 29 c103 57 301
216 426 343 52 54 142 165 170 212 88 147 100 304 34 438 -44 89 -84 128 -166
162 -81 34 -145 41 -223 25 -125 -26 -200 -81 -260 -190 -18 -33 -35 -60 -38
-60 -3 0 -13 20 -24 45 -28 70 -97 139 -174 176 -55 26 -82 33 -147 35 -49 3
-96 -1 -120 -9z m84 -129 c11 -31 6 -42 -38 -71 -21 -14 -55 -51 -76 -84 -46
-68 -53 -75 -77 -62 -32 17 -39 44 -27 99 17 82 84 140 161 140 41 0 50 -3 57
-22z"/>
<path d="M3731 8292 c-90 -45 -126 -155 -81 -247 74 -153 293 -132 349 34 25
76 -21 175 -101 217 -38 20 -126 18 -167 -4z m116 -62 c8 0 28 -13 44 -29 87
-87 -29 -228 -131 -159 -47 32 -61 85 -36 133 19 35 71 68 94 60 8 -3 20 -5
29 -5z"/>
<path d="M3463 7968 c-17 -18 -33 -45 -37 -60 -8 -36 17 -97 52 -125 15 -13
21 -23 15 -23 -7 0 -22 -9 -33 -20 -11 -11 -28 -20 -37 -20 -10 0 -36 -11 -58
-25 -27 -16 -55 -24 -86 -25 -32 0 -51 -6 -63 -19 -9 -10 -37 -26 -61 -36 -25
-9 -45 -20 -45 -24 0 -10 -46 -31 -66 -31 -8 0 -30 -11 -47 -23 -42 -31 -80
-29 -112 6 l-26 27 -180 0 c-179 0 -180 0 -203 25 l-23 25 -470 0 -469 0 -22
25 c-16 18 -32 25 -58 25 -24 0 -46 8 -66 25 -16 14 -36 25 -43 25 -8 0 -23
10 -34 21 -11 12 -35 23 -53 25 -22 3 -44 16 -65 39 -21 22 -41 35 -57 35 -19
0 -26 5 -26 19 0 11 -5 23 -12 27 -16 10 -357 13 -384 3 -11 -4 -29 -20 -39
-35 -16 -25 -18 -52 -19 -225 l-1 -197 -28 -26 c-37 -34 -39 -101 -3 -117 22
-10 23 -17 29 -127 3 -65 4 -193 1 -287 l-4 -170 -30 -27 c-25 -22 -30 -35
-30 -73 0 -35 -6 -54 -24 -76 -22 -26 -25 -38 -24 -111 0 -71 -3 -83 -20 -97
-19 -15 -21 -28 -23 -148 -2 -131 -2 -132 -31 -159 l-28 -28 0 -231 0 -232
-30 -32 c-28 -29 -30 -35 -24 -80 5 -42 3 -51 -20 -76 -14 -15 -26 -38 -26
-51 0 -37 -10 -52 -60 -89 -41 -30 -48 -41 -53 -77 -4 -28 -13 -48 -26 -57
-12 -7 -21 -19 -21 -26 0 -6 -9 -20 -20 -30 -11 -10 -20 -23 -20 -29 0 -6 -18
-31 -41 -56 -22 -25 -49 -62 -59 -82 -20 -36 -20 -67 -20 -1462 l0 -1424 50
-37 c28 -20 50 -41 50 -45 0 -16 44 -51 58 -45 7 2 24 -7 37 -21 17 -19 39
-28 80 -33 40 -6 63 -15 83 -34 16 -15 38 -27 50 -27 12 0 32 -10 44 -22 17
-17 37 -23 83 -26 48 -3 66 -10 88 -31 l28 -26 1492 0 c821 0 1537 3 1593 6
85 5 104 9 122 27 19 19 34 22 110 23 114 1 186 11 205 31 10 10 45 18 98 22
60 6 90 13 111 29 22 16 45 21 104 24 61 2 81 6 99 23 16 15 44 23 105 30 54
6 90 16 102 27 12 10 44 20 83 24 48 5 72 13 95 33 18 14 44 26 59 26 16 0 39
8 52 18 28 22 99 48 152 58 24 4 44 15 54 31 9 13 29 31 45 39 16 8 38 24 49
35 10 10 29 19 42 19 12 0 32 7 44 15 14 10 64 18 146 24 99 7 131 13 154 28
15 11 47 23 70 26 23 2 57 16 75 30 18 13 58 29 89 35 31 6 78 25 105 41 26
17 52 31 56 31 5 0 34 19 65 43 31 23 68 51 82 62 115 87 209 181 269 267 44
63 92 142 92 151 0 5 11 22 25 39 14 16 25 38 25 48 0 10 7 26 17 35 9 9 24
46 34 81 10 35 25 71 33 80 9 8 16 18 16 22 1 38 25 159 42 215 19 63 20 86
16 241 -5 139 -9 180 -25 221 -11 28 -26 95 -32 150 -12 102 -17 114 -93 268
-70 142 -92 181 -116 213 -45 57 -228 214 -286 245 -82 44 -222 79 -315 79
-69 0 -84 -4 -158 -41 -96 -48 -159 -102 -167 -144 -4 -17 -14 -50 -23 -75
-21 -56 -21 -136 1 -175 9 -16 16 -34 16 -39 0 -22 71 -117 138 -186 40 -41
75 -85 78 -97 3 -12 17 -29 30 -38 13 -8 31 -30 40 -48 9 -17 25 -38 35 -45
10 -7 23 -32 30 -55 6 -23 20 -52 31 -64 18 -19 20 -30 14 -75 -4 -29 -11 -87
-14 -128 -4 -41 -14 -86 -21 -100 -16 -29 -71 -102 -85 -111 -5 -4 -14 -23
-21 -43 -13 -38 -47 -81 -108 -135 -35 -32 -158 -84 -230 -98 -38 -7 -67 20
-67 64 0 18 -7 50 -15 70 -10 23 -15 68 -15 128 0 84 -3 96 -24 122 -13 15
-26 38 -30 49 -4 12 -15 29 -26 39 -11 10 -20 31 -20 46 0 31 -19 79 -31 79
-11 0 -59 97 -59 119 0 10 -11 26 -25 35 -14 9 -25 23 -25 31 0 8 -13 30 -30
48 -19 22 -30 46 -30 64 0 17 -8 37 -19 47 -10 9 -29 37 -41 62 -13 25 -31 49
-41 54 -9 5 -20 25 -23 44 -4 20 -13 41 -20 49 -8 7 -23 31 -34 53 -11 22 -28
46 -36 53 -9 8 -16 26 -16 41 0 15 -9 38 -21 51 -36 41 -89 125 -89 141 0 8
-24 51 -54 95 -29 44 -56 96 -60 116 -4 21 -15 41 -26 47 -11 6 -23 25 -28 43
-5 18 -30 60 -54 93 -25 32 -49 70 -53 84 -4 14 -13 32 -20 40 -6 8 -18 31
-25 50 -7 19 -24 49 -37 67 -12 17 -23 41 -23 53 0 12 -11 36 -25 54 -14 18
-25 40 -25 48 0 8 -9 25 -20 38 -11 13 -20 31 -20 40 0 10 -25 48 -55 86 -30
38 -55 76 -55 85 0 8 -11 30 -25 49 -21 28 -25 45 -25 102 0 47 -6 81 -19 106
-10 20 -21 69 -24 109 -4 55 -12 81 -31 110 -17 24 -26 51 -26 76 0 21 -12 63
-26 92 -25 54 -25 54 -20 272 5 196 7 219 25 244 21 29 23 76 22 642 l-1 207
-25 22 c-14 12 -27 36 -31 54 -5 27 -12 34 -38 40 -17 3 -39 15 -49 25 -15 16
-33 19 -126 19 -94 0 -110 -2 -125 -19 -24 -27 -94 -49 -134 -43 l-32 4 33 22
c38 26 64 88 53 130 -4 16 -20 41 -36 57 -24 24 -37 29 -77 29 -42 0 -53 -4
-80 -32z m-2526 -620 c21 -29 54 -67 73 -85 24 -21 43 -53 58 -95 24 -68 27
-103 13 -142 -10 -23 -86 -83 -173 -135 -39 -23 -41 -23 -54 -6 -8 11 -15 39
-15 64 -1 25 -4 98 -7 161 -10 228 -9 236 17 264 14 14 30 26 37 26 7 0 30
-24 51 -52z m2962 -99 c19 -31 19 -32 0 -87 -11 -31 -24 -101 -29 -157 -18
-177 -44 -328 -58 -333 -31 -10 -62 10 -88 56 -15 26 -35 56 -44 67 -9 11 -29
43 -45 70 -16 28 -31 52 -35 55 -4 3 -5 40 -2 83 l5 77 61 44 c33 25 75 57 92
73 60 54 99 82 117 83 4 0 16 -14 26 -31z m-2889 -567 c19 -9 45 -33 57 -52
12 -19 44 -57 70 -85 26 -27 53 -59 59 -70 10 -18 13 -15 38 32 14 29 36 58
48 64 13 6 37 27 54 45 l31 33 134 0 c139 0 255 -21 305 -54 13 -8 33 -15 45
-15 12 0 23 -8 26 -19 4 -18 6 -18 42 2 24 13 45 18 61 14 49 -13 55 -23 60
-102 5 -72 4 -75 -17 -75 -12 0 -23 4 -25 10 -2 6 -9 6 -18 0 -12 -8 -13 -16
-2 -55 7 -25 12 -60 13 -78 0 -17 3 -26 6 -19 2 6 11 12 19 12 22 0 19 -76 -4
-82 -13 -4 -19 -16 -20 -49 -5 -86 -67 -183 -172 -268 -117 -94 -365 -66 -519
58 -49 40 -91 122 -115 224 -8 34 -19 73 -24 87 -9 24 -10 24 -31 -18 -29 -57
-72 -82 -139 -82 -31 0 -63 -6 -77 -16 -31 -20 -104 -20 -143 0 -34 17 -72 61
-72 83 0 7 -16 23 -35 34 -76 45 -100 143 -53 219 12 19 23 53 24 74 4 76 68
131 152 132 34 0 69 7 87 17 39 21 91 21 135 -1z m2137 -23 c134 -50 229 -148
271 -280 29 -93 31 -105 21 -146 -6 -21 -14 -70 -19 -109 -14 -112 -77 -199
-178 -245 -55 -25 -77 -29 -149 -29 -169 0 -338 85 -409 205 -24 42 -59 188
-49 205 2 4 9 35 14 70 21 127 107 260 201 310 81 43 209 51 297 19z"/>
<path d="M1470 6554 c0 -3 11 -15 25 -26 18 -14 25 -29 25 -52 0 -49 -30 -71
-97 -71 -48 0 -58 4 -79 29 -14 15 -23 33 -21 40 6 16 35 8 58 -15 22 -22 57
-25 83 -6 46 34 -28 68 -112 51 -45 -9 -45 -9 -70 -79 -32 -93 -34 -185 -3
-282 18 -59 31 -80 74 -122 29 -28 61 -57 72 -65 67 -46 274 -63 329 -27 85
56 146 163 146 259 0 35 -4 62 -10 62 -5 0 -10 -13 -10 -30 0 -19 -5 -30 -14
-30 -11 0 -14 14 -12 63 2 34 7 60 12 58 5 -2 8 -12 6 -23 -2 -11 3 -18 12
-18 11 0 16 9 16 26 0 32 -47 142 -72 169 -18 19 -18 19 -18 -23 0 -34 -3 -42
-19 -42 -15 0 -19 11 -25 62 -8 77 -30 98 -34 33 -6 -84 -89 -122 -151 -69
-33 28 -42 75 -21 115 10 18 7 19 -40 19 -27 0 -50 -3 -50 -6z"/>
<path d="M2842 6529 c-56 -65 -105 -152 -116 -206 -9 -39 9 -138 34 -197 11
-24 44 -66 75 -94 45 -41 66 -53 113 -62 31 -7 70 -16 86 -21 16 -5 44 -9 62
-9 48 0 161 44 184 71 34 42 59 137 62 234 2 83 0 95 -30 156 -57 119 -157
175 -327 185 l-90 6 -53 -63z"/>
</g>
</svg>
