<?xml version="1.0" standalone="no"?>
<!DOCTYPE svg PUBLIC "-//W3C//DTD SVG 20010904//EN"
 "http://www.w3.org/TR/2001/REC-SVG-20010904/DTD/svg10.dtd">
<svg version="1.0" xmlns="http://www.w3.org/2000/svg"
 width="704.000000pt" height="1280.000000pt" viewBox="0 0 704.000000 1280.000000"
 preserveAspectRatio="xMidYMid meet">
<metadata>
Created by potrace 1.16, written by Peter Selinger 2001-2019
</metadata>
<g transform="translate(0.000000,1280.000000) scale(0.100000,-0.100000)"
fill="#000000" stroke="none">
<path d="M3466 8074 c-23 -24 -26 -34 -26 -100 0 -41 4 -74 9 -74 13 0 105 98
113 121 9 24 -5 54 -32 69 -27 15 -34 13 -64 -16z"/>
<path d="M695 7890 c-11 -4 -30 -21 -41 -37 -20 -27 -21 -37 -16 -220 l5 -192
-32 -28 c-41 -36 -44 -96 -6 -128 25 -20 25 -21 27 -215 3 -348 3 -355 -32
-390 -25 -25 -30 -39 -30 -79 0 -38 -5 -52 -26 -72 -23 -21 -25 -30 -21 -69 7
-58 -5 -124 -27 -145 -13 -13 -16 -39 -16 -140 0 -124 0 -124 -30 -158 l-30
-35 0 -231 0 -232 -25 -25 c-21 -21 -25 -35 -25 -82 0 -48 -4 -61 -25 -81 -16
-14 -25 -34 -25 -53 0 -21 -9 -37 -32 -56 -59 -50 -78 -75 -78 -102 0 -26 -29
-70 -77 -118 -13 -12 -23 -27 -23 -33 0 -6 -17 -31 -39 -57 -78 -94 -71 52
-71 -1528 l0 -1417 76 -74 c41 -40 81 -73 89 -73 7 0 23 -11 36 -25 19 -19 34
-25 71 -25 38 0 54 -6 81 -30 19 -17 43 -30 54 -30 11 0 30 -11 43 -25 19 -21
33 -25 77 -25 40 0 62 -6 84 -22 28 -21 46 -24 192 -30 215 -8 2465 -10 2781
-1 224 6 251 8 265 25 19 22 43 26 184 31 86 4 112 8 128 23 14 13 40 19 87
22 90 4 108 9 131 33 16 17 34 21 101 24 68 3 86 7 106 26 18 17 38 23 96 26
53 3 81 10 103 26 19 14 53 24 93 28 44 5 70 13 86 28 13 12 41 24 62 28 21 3
48 14 59 23 23 21 129 60 161 60 13 0 31 12 43 29 12 16 32 32 46 35 13 3 29
15 35 26 6 11 21 20 33 20 12 0 39 9 58 19 27 15 67 22 150 27 94 5 121 11
155 30 22 13 56 24 75 24 24 0 44 9 66 29 21 19 47 31 80 36 26 4 71 18 98 33
134 70 353 238 430 329 52 61 131 180 149 225 8 19 22 40 30 47 8 7 18 25 21
41 3 16 13 35 22 42 20 16 43 70 43 100 0 13 12 46 25 73 14 28 25 66 25 85 0
19 11 75 25 125 20 73 25 112 25 210 0 127 -14 251 -30 270 -11 14 -30 131
-30 192 0 25 -10 64 -25 93 -14 27 -36 73 -50 100 -14 28 -25 56 -25 63 0 6
-16 34 -35 61 -19 27 -35 55 -35 61 0 39 -228 255 -320 304 -94 50 -184 71
-302 71 -114 0 -156 -12 -241 -70 -69 -47 -104 -90 -111 -139 -4 -24 -13 -56
-21 -72 -21 -39 -19 -68 9 -142 33 -88 83 -162 158 -233 35 -34 69 -74 77 -90
7 -15 21 -34 32 -42 10 -7 27 -28 36 -45 9 -18 24 -38 34 -45 10 -7 24 -32 30
-55 6 -23 20 -54 31 -70 15 -21 19 -38 14 -70 -3 -23 -9 -78 -15 -123 -10 -95
-32 -139 -108 -221 -6 -7 -14 -25 -17 -40 -7 -28 -54 -83 -117 -137 -30 -26
-156 -80 -216 -93 -38 -9 -73 22 -73 63 0 19 -5 45 -12 57 -7 12 -15 72 -18
134 -5 97 -8 115 -28 136 -12 13 -22 29 -22 36 0 7 -11 26 -25 43 -14 16 -25
40 -25 54 0 13 -18 50 -39 82 -22 31 -43 71 -47 87 -4 17 -18 43 -31 58 -12
16 -23 32 -23 36 0 4 -13 23 -30 41 -21 23 -30 44 -30 67 0 21 -7 39 -21 51
-11 9 -31 38 -44 63 -13 26 -31 49 -40 52 -8 4 -15 16 -15 28 0 22 -34 82 -82
146 -16 20 -28 48 -28 64 0 16 -12 42 -28 61 -42 51 -82 112 -82 129 0 8 -11
31 -25 51 -14 20 -25 40 -25 43 0 4 -11 21 -25 39 -14 18 -28 46 -31 63 -3 17
-17 43 -30 58 -14 16 -27 40 -31 54 -3 14 -30 54 -60 89 -29 35 -53 69 -53 77
0 7 -11 36 -25 63 -14 28 -25 54 -25 59 0 5 -11 20 -25 33 -17 16 -25 34 -25
56 0 17 -6 37 -14 44 -16 13 -86 145 -86 162 0 10 -51 78 -82 110 -10 10 -18
26 -18 36 0 9 -11 35 -25 57 -19 31 -24 54 -25 103 0 38 -6 75 -16 95 -9 17
-21 66 -25 109 -7 55 -17 90 -33 116 -13 20 -27 59 -31 86 -4 27 -14 61 -23
75 -15 22 -17 58 -17 263 1 231 1 238 23 261 22 24 23 25 25 436 l2 413 -28
23 c-16 15 -27 34 -27 49 0 24 -31 52 -43 40 -3 -4 -21 3 -40 15 -27 16 -56
22 -133 26 -94 5 -99 4 -138 -22 -37 -24 -52 -28 -143 -31 -84 -4 -105 -8
-119 -23 -9 -11 -25 -19 -34 -19 -9 0 -39 -11 -66 -25 -27 -14 -66 -25 -86
-25 -24 0 -46 -8 -65 -24 -15 -13 -42 -27 -60 -30 -17 -4 -39 -18 -47 -32 -11
-16 -26 -24 -45 -24 -15 0 -41 -11 -57 -25 -39 -34 -76 -32 -114 5 l-31 30
-185 0 c-184 0 -185 0 -208 25 l-23 25 -463 0 -462 0 -30 25 c-18 16 -42 25
-62 25 -20 0 -40 8 -51 20 -10 11 -27 22 -39 26 -11 4 -37 17 -56 30 -19 13
-43 24 -54 24 -11 0 -34 16 -52 35 -17 19 -41 35 -53 35 -14 0 -25 9 -31 25
-5 14 -15 25 -22 26 -100 5 -358 5 -373 -1z m223 -522 c15 -17 50 -57 78 -87
57 -62 86 -128 88 -203 1 -53 -23 -95 -70 -117 -16 -8 -46 -29 -67 -47 -37
-34 -89 -46 -102 -23 -4 5 -8 69 -10 142 -1 73 -6 170 -10 217 -7 83 -7 86 20
118 15 17 31 32 37 32 5 0 22 -14 36 -32z m2978 -124 c16 -24 16 -30 -1 -95
-9 -38 -17 -97 -16 -130 1 -33 -4 -69 -9 -80 -12 -22 -40 -178 -40 -225 0 -72
-67 -60 -111 20 -12 23 -35 57 -51 77 -15 20 -28 40 -28 44 0 4 -9 19 -19 34
-15 21 -19 44 -19 108 l0 81 61 44 c34 23 75 57 92 73 44 44 88 74 107 75 10
0 25 -12 34 -26z m-3011 -558 c21 -9 39 -9 67 -2 74 20 178 -51 178 -121 0
-23 55 -103 71 -103 4 0 17 20 29 46 12 25 34 52 49 62 14 9 40 30 58 48 35
35 86 48 135 33 18 -5 58 -7 88 -3 60 6 204 -23 247 -51 12 -8 32 -15 44 -15
12 0 23 -8 26 -19 4 -18 6 -18 42 2 24 13 45 18 61 14 49 -13 55 -23 60 -102
5 -73 4 -75 -17 -75 -13 0 -23 5 -23 10 0 7 -6 7 -18 1 -17 -9 -17 -13 -3 -75
12 -50 20 -66 34 -66 13 0 17 -9 17 -40 0 -28 -4 -40 -14 -40 -9 0 -17 -21
-24 -60 -19 -104 -87 -202 -191 -274 -84 -59 -276 -54 -403 10 -73 37 -143 97
-157 136 -7 18 -21 51 -31 73 -11 22 -27 73 -35 114 -9 41 -17 76 -18 78 -7 7
-47 -30 -47 -44 0 -25 -30 -68 -65 -92 -36 -24 -100 -30 -145 -13 -14 5 -49 7
-77 5 -89 -9 -155 36 -169 115 -4 20 -19 52 -35 69 -62 71 -57 159 12 225 21
21 39 43 39 50 0 30 43 80 83 98 48 22 90 24 132 6z m2240 -21 c134 -35 254
-153 297 -289 19 -61 26 -156 13 -177 -4 -5 -11 -41 -16 -78 -6 -54 -16 -80
-47 -127 -50 -74 -63 -86 -136 -118 -132 -58 -336 -22 -462 82 -79 66 -112
121 -130 215 -18 95 -5 175 49 287 74 153 160 210 327 218 25 2 72 -5 105 -13z"/>
<path d="M914 6536 c-35 -55 8 -166 65 -166 45 0 65 31 57 87 -8 62 -34 97
-74 101 -24 2 -34 -3 -48 -22z"/>
<path d="M1470 6554 c0 -3 11 -15 25 -26 18 -14 25 -29 25 -52 0 -49 -30 -71
-97 -71 -48 0 -58 4 -79 28 -13 15 -24 32 -24 38 0 16 39 10 60 -11 23 -23 58
-26 84 -7 43 31 -23 66 -101 54 -49 -8 -59 -21 -89 -107 -29 -82 -27 -139 7
-258 43 -150 170 -232 359 -232 96 0 126 14 184 84 51 63 76 127 76 197 0 33
-4 59 -10 59 -5 0 -10 -13 -10 -30 0 -20 -5 -30 -15 -30 -12 0 -14 12 -12 58
2 31 8 57 13 58 5 0 8 -7 6 -18 -4 -21 16 -25 24 -3 10 25 -57 195 -77 195 -5
0 -9 -18 -9 -40 0 -32 -4 -40 -19 -40 -15 0 -19 10 -24 57 -3 31 -13 63 -21
72 -15 14 -16 11 -16 -31 0 -39 -5 -50 -31 -72 -39 -33 -79 -33 -118 0 -33 28
-42 75 -21 115 10 18 7 19 -40 19 -27 0 -50 -3 -50 -6z"/>
<path d="M745 6495 c-27 -26 -30 -43 -15 -94 20 -70 78 -102 113 -63 36 39 10
154 -38 172 -35 13 -32 14 -60 -15z"/>
<path d="M2853 6541 c-29 -31 -69 -87 -90 -126 -34 -63 -38 -77 -36 -140 3
-171 101 -284 275 -319 99 -20 113 -20 184 4 107 37 140 93 154 260 8 89 6 99
-18 160 -52 131 -153 193 -335 209 l-82 7 -52 -55z"/>
</g>
</svg>
