<?xml version="1.0" standalone="no"?>
<!DOCTYPE svg PUBLIC "-//W3C//DTD SVG 20010904//EN"
 "http://www.w3.org/TR/2001/REC-SVG-20010904/DTD/svg10.dtd">
<svg version="1.0" xmlns="http://www.w3.org/2000/svg"
 width="704.000000pt" height="1280.000000pt" viewBox="0 0 704.000000 1280.000000"
 preserveAspectRatio="xMidYMid meet">
<metadata>
Created by potrace 1.16, written by Peter Selinger 2001-2019
</metadata>
<g transform="translate(0.000000,1280.000000) scale(0.100000,-0.100000)"
fill="#000000" stroke="none">
<path d="M4620 10559 c-467 -39 -791 -141 -1105 -347 -179 -118 -365 -327
-439 -494 -49 -111 -70 -222 -70 -368 1 -117 4 -147 28 -225 144 -475 645
-819 1356 -930 165 -26 552 -31 725 -11 296 36 530 100 751 206 687 328 930
946 581 1476 -62 95 -132 170 -242 262 -304 252 -712 398 -1206 432 -162 11
-242 11 -379 -1z m538 -175 c649 -84 1143 -413 1258 -836 25 -90 25 -292 0
-373 -107 -356 -483 -649 -1001 -779 -194 -49 -310 -60 -615 -61 -316 0 -404
9 -610 60 -872 219 -1255 837 -874 1410 79 119 293 294 468 382 367 185 892
261 1374 197z"/>
<path d="M4630 10080 c-159 -27 -362 -152 -417 -255 -9 -16 -31 -48 -49 -69
-19 -22 -34 -48 -34 -58 0 -10 -8 -35 -18 -56 -32 -63 -46 -170 -38 -287 7
-109 6 -107 84 -263 41 -82 242 -272 288 -272 8 0 37 -11 63 -25 78 -39 206
-51 327 -31 152 26 299 98 369 181 11 12 44 31 73 40 l53 17 20 -26 c17 -22
60 -40 178 -73 40 -11 -39 -36 -254 -82 -174 -37 -247 -63 -280 -102 -31 -38
-32 -59 -1 -88 97 -91 460 -72 683 36 123 59 152 136 77 203 -19 16 -34 32
-34 34 0 3 14 13 31 21 35 19 89 98 89 132 0 95 -119 159 -247 133 -80 -16
-128 -39 -212 -100 -75 -54 -98 -58 -68 -12 9 15 26 47 37 72 12 25 29 59 38
75 14 25 17 57 16 180 0 139 -2 155 -28 225 -88 234 -269 397 -488 439 -76 14
-206 20 -258 11z m1113 -957 c33 -17 50 -54 38 -85 -11 -29 -56 -71 -100 -93
-33 -17 -38 -16 -147 11 -70 17 -120 34 -131 46 -15 17 -15 20 11 47 32 33
125 78 188 90 50 10 101 4 141 -16z m-48 -276 c73 -41 53 -90 -58 -143 -107
-50 -237 -77 -387 -77 -180 -2 -259 28 -201 74 26 21 84 38 251 74 149 32 242
57 290 78 48 21 59 20 105 -6z"/>
<path d="M3785 8311 c-51 -13 -93 -39 -122 -78 -24 -31 -28 -46 -28 -103 0
-75 22 -119 81 -160 99 -67 251 -9 283 107 13 47 13 49 0 96 -13 49 -63 105
-114 128 -43 20 -54 21 -100 10z m69 -85 c45 -19 66 -52 66 -102 0 -36 -5 -47
-37 -74 -32 -28 -41 -32 -77 -27 -51 7 -96 53 -96 98 0 60 34 97 108 118 1 1
18 -5 36 -13z"/>
<path d="M3464 7966 c-29 -29 -34 -41 -34 -80 0 -39 6 -52 36 -86 24 -26 31
-40 21 -40 -8 0 -17 -6 -20 -14 -3 -8 -25 -20 -49 -27 -24 -7 -48 -19 -55 -26
-6 -8 -36 -18 -65 -22 -30 -4 -68 -16 -84 -28 -16 -11 -43 -24 -60 -27 -17 -4
-42 -18 -54 -32 -13 -13 -34 -24 -46 -24 -13 0 -33 -10 -44 -22 -32 -34 -106
-31 -132 5 l-20 27 -178 0 c-178 0 -179 0 -207 26 l-27 25 -331 -2 c-181 -1
-392 -1 -468 0 -133 1 -138 2 -159 26 -14 17 -32 25 -53 25 -17 0 -46 11 -65
25 -19 14 -39 25 -45 25 -7 0 -25 12 -40 26 -22 20 -35 25 -57 20 -25 -5 -32
-1 -49 29 -12 19 -24 35 -27 36 -41 5 -64 20 -74 50 -4 11 -55 13 -240 11
l-156 -2 -27 -46 c-23 -39 -26 -51 -18 -82 5 -21 9 -50 8 -67 -1 -16 -2 -81
-3 -143 -2 -110 -3 -113 -32 -144 -39 -41 -41 -93 -5 -123 25 -19 26 -25 32
-180 8 -191 8 -194 -2 -313 -7 -81 -11 -96 -30 -108 -18 -12 -23 -27 -28 -81
-3 -37 -10 -69 -16 -71 -35 -12 -43 -35 -36 -107 6 -67 5 -74 -19 -102 -23
-28 -25 -37 -27 -161 -2 -131 -2 -132 -31 -157 l-28 -25 0 -231 0 -230 -25
-27 c-19 -21 -25 -38 -25 -73 0 -32 -7 -55 -22 -74 -19 -25 -25 -41 -27 -84
-1 -7 -26 -37 -56 -66 -42 -41 -55 -60 -55 -82 0 -19 -9 -38 -25 -53 -14 -13
-45 -53 -71 -89 -25 -36 -61 -85 -80 -109 l-34 -44 0 -1433 0 -1433 50 -37
c28 -20 55 -46 61 -57 6 -11 27 -26 47 -35 20 -8 46 -23 57 -33 11 -10 42 -20
68 -23 34 -3 57 -13 76 -31 17 -17 38 -26 58 -26 20 0 37 -7 45 -18 9 -13 32
-21 73 -26 36 -4 68 -14 80 -25 11 -10 43 -21 72 -25 67 -8 2980 -8 3075 0 44
4 83 14 98 24 20 14 52 19 150 22 107 3 129 7 155 25 22 15 52 23 109 27 58 4
85 11 100 25 16 14 44 21 108 26 65 5 91 11 103 25 17 18 42 25 139 35 27 3
58 13 68 22 10 9 45 20 77 24 38 4 72 16 97 33 21 14 50 26 65 26 14 0 37 8
50 19 35 27 118 61 148 61 17 0 38 11 56 30 16 17 34 30 40 30 6 0 26 13 45
30 19 16 42 29 51 30 9 0 30 7 45 15 16 8 54 15 84 15 102 1 200 17 213 34 7
9 36 20 65 25 33 5 62 17 77 31 14 13 55 31 93 41 161 41 501 301 584 447 17
32 42 71 55 88 13 17 23 38 23 46 0 8 11 24 24 37 12 12 28 39 34 59 6 21 20
47 30 58 11 11 22 38 26 59 4 22 16 55 27 74 11 18 24 63 28 100 5 36 19 104
31 151 21 78 22 99 17 251 -5 121 -11 176 -23 205 -10 21 -23 85 -31 142 -8
60 -22 118 -33 140 -11 20 -20 46 -20 58 0 12 -9 33 -20 47 -11 14 -27 45 -36
69 -8 23 -23 52 -33 63 -10 11 -26 34 -34 51 -42 83 -230 260 -327 309 -70 35
-228 74 -302 75 -140 0 -314 -114 -337 -222 -6 -27 -18 -59 -26 -71 -8 -12
-15 -34 -15 -49 0 -33 50 -161 73 -186 10 -10 17 -25 17 -32 0 -7 38 -51 85
-97 47 -46 85 -87 85 -92 0 -5 16 -28 35 -51 19 -23 35 -46 35 -52 0 -6 14
-26 30 -45 17 -18 30 -43 30 -54 0 -11 14 -38 31 -59 l31 -38 -16 -64 c-9 -36
-16 -87 -16 -116 0 -64 -13 -93 -71 -162 -25 -30 -50 -66 -54 -80 -11 -33 -55
-88 -111 -134 -31 -27 -63 -42 -106 -52 -33 -8 -69 -21 -81 -29 -50 -35 -102
-7 -110 57 -3 24 -10 61 -16 83 -6 22 -11 77 -11 122 0 72 -3 85 -25 111 -14
17 -25 34 -25 39 0 5 -11 24 -25 43 -14 19 -25 44 -25 56 0 11 -10 37 -22 55
-42 62 -68 116 -68 138 0 12 -6 24 -14 27 -7 3 -21 23 -31 44 -10 22 -28 47
-41 55 -18 11 -24 25 -24 49 0 44 -9 66 -26 66 -8 0 -20 12 -26 28 -7 15 -27
44 -45 65 -18 20 -33 47 -33 60 0 13 -9 33 -19 44 -11 12 -27 37 -35 57 -8 20
-20 36 -25 36 -6 0 -16 19 -23 43 -6 23 -29 67 -50 98 -21 31 -44 71 -52 90
-14 34 -66 123 -99 169 -9 13 -17 35 -17 47 0 12 -13 37 -28 55 -16 18 -32 44
-35 58 -4 14 -27 48 -52 75 -25 28 -49 66 -55 86 -6 20 -19 48 -30 62 -11 14
-20 34 -20 45 0 10 -11 31 -25 46 -14 15 -25 37 -25 50 0 13 -8 34 -18 47 -10
13 -36 60 -57 104 -21 43 -44 85 -51 93 -8 7 -14 18 -14 24 0 6 -7 16 -15 22
-8 6 -32 46 -55 89 -34 65 -40 87 -40 137 0 41 -7 74 -20 100 -13 25 -20 59
-20 92 0 39 -8 69 -30 113 -16 33 -30 74 -30 91 0 17 -12 53 -26 80 l-26 49 7
225 c7 196 10 228 26 251 17 25 19 53 19 410 0 211 0 396 0 410 0 14 -11 39
-25 54 -13 16 -25 40 -27 54 -2 17 -12 27 -33 34 -16 5 -38 17 -48 25 -13 12
-45 16 -127 18 -106 2 -111 1 -142 -24 -25 -21 -42 -27 -89 -28 l-57 -1 33 31
c84 79 37 206 -75 206 -34 0 -48 -6 -76 -34z m-2523 -618 c12 -18 42 -54 66
-81 56 -61 76 -107 77 -184 1 -55 -2 -65 -28 -92 -17 -17 -34 -31 -39 -31 -5
0 -25 -14 -44 -31 -20 -17 -51 -38 -69 -47 -58 -27 -64 -12 -71 174 -11 298
-12 293 20 320 33 28 53 22 88 -28z m2961 -103 c9 -21 8 -40 -7 -97 -10 -39
-19 -99 -21 -132 -1 -34 -7 -81 -13 -106 -5 -25 -15 -79 -21 -120 -15 -95 -25
-120 -48 -120 -22 0 -44 24 -93 100 -34 53 -57 87 -89 135 -11 16 -14 42 -12
94 l4 71 85 73 c130 109 155 127 180 127 15 0 27 -9 35 -25z m-766 -582 c65
-21 159 -89 212 -152 68 -80 113 -223 92 -291 -6 -19 -15 -65 -20 -101 -7 -52
-18 -80 -49 -127 -70 -104 -142 -141 -275 -142 -169 0 -323 76 -411 203 l-40
59 1 127 0 128 42 84 c81 163 172 227 328 228 41 1 91 -6 120 -16z m-1452 -29
c126 -30 177 -68 254 -190 70 -111 79 -295 19 -413 -36 -71 -144 -178 -201
-197 -137 -48 -323 -7 -460 101 -58 47 -135 235 -136 333 0 47 30 173 48 200
8 13 22 38 31 55 21 42 147 115 205 119 127 9 176 8 240 -8z"/>
<path d="M2853 6543 c-67 -71 -133 -199 -133 -257 0 -120 57 -222 161 -292 62
-42 220 -63 300 -40 106 31 159 126 159 288 0 77 -4 97 -31 158 -25 55 -42 78
-83 108 -50 39 -132 72 -191 78 -16 2 -52 6 -79 9 l-48 6 -55 -58z"/>
<path d="M1488 6559 c-18 -3 -53 -15 -78 -26 -25 -11 -57 -23 -71 -26 -40 -10
-84 -129 -83 -222 2 -72 31 -185 59 -229 56 -84 189 -146 318 -146 98 0 132
14 186 79 61 73 81 132 81 241 0 80 -3 96 -34 162 -38 82 -70 117 -136 143
-49 20 -187 34 -242 24z"/>
</g>
</svg>
