<?xml version="1.0" standalone="no"?>
<!DOCTYPE svg PUBLIC "-//W3C//DTD SVG 20010904//EN"
 "http://www.w3.org/TR/2001/REC-SVG-20010904/DTD/svg10.dtd">
<svg version="1.0" xmlns="http://www.w3.org/2000/svg"
 width="704.000000pt" height="1280.000000pt" viewBox="0 0 704.000000 1280.000000"
 preserveAspectRatio="xMidYMid meet">
<metadata>
Created by potrace 1.16, written by Peter Selinger 2001-2019
</metadata>
<g transform="translate(0.000000,1280.000000) scale(0.100000,-0.100000)"
fill="#000000" stroke="none">
<path d="M4655 10563 c-359 -24 -631 -89 -901 -218 -388 -184 -645 -455 -726
-767 -32 -120 -31 -320 2 -437 26 -94 99 -244 160 -326 230 -311 671 -540
1195 -621 167 -26 647 -27 814 -1 704 107 1206 440 1360 902 88 264 49 525
-115 772 -179 270 -500 484 -895 598 -278 81 -610 117 -894 98z m499 -178
c411 -54 771 -206 997 -422 139 -133 207 -236 261 -398 20 -60 23 -89 22 -205
0 -129 -2 -139 -36 -231 -154 -418 -646 -715 -1308 -790 -130 -14 -448 -14
-578 1 -470 53 -837 205 -1083 450 -182 181 -259 352 -259 575 0 253 125 476
375 670 95 73 124 91 241 149 382 190 887 264 1368 201z"/>
<path d="M4265 9893 c-95 -28 -207 -180 -221 -299 -9 -70 10 -158 52 -242 74
-151 297 -373 536 -536 l85 -57 37 21 c43 24 253 183 307 232 20 18 53 47 73
63 49 40 166 187 204 255 88 159 80 329 -24 465 -37 49 -135 101 -204 109 -63
8 -147 -7 -204 -36 -57 -29 -131 -103 -155 -154 -12 -24 -25 -44 -29 -44 -4 0
-13 15 -20 33 -16 44 -113 143 -160 163 -104 45 -187 53 -277 27z m95 -113
c24 -24 18 -41 -26 -75 -19 -15 -51 -51 -71 -81 -25 -38 -42 -54 -57 -54 -45
0 -57 41 -32 110 33 93 137 149 186 100z"/>
<path d="M3761 8305 c-192 -60 -163 -343 38 -363 146 -14 251 139 185 269 -19
39 -78 86 -121 98 -46 13 -47 13 -102 -4z m86 -75 c8 0 28 -13 44 -29 87 -87
-29 -228 -131 -159 -46 31 -61 83 -37 134 17 36 69 68 95 59 8 -3 20 -5 29 -5z"/>
<path d="M3463 7968 c-17 -18 -33 -45 -37 -60 -8 -36 17 -97 52 -125 19 -16
22 -23 11 -23 -9 0 -24 -9 -34 -20 -10 -11 -24 -20 -32 -20 -8 0 -35 -11 -61
-25 -26 -14 -63 -25 -82 -25 -23 0 -49 -9 -70 -25 -19 -14 -42 -25 -52 -25
-11 0 -29 -11 -41 -24 -12 -13 -40 -29 -61 -34 -21 -6 -47 -19 -57 -28 -10 -9
-34 -18 -53 -19 -27 -3 -40 3 -60 26 l-26 29 -181 0 c-179 0 -180 0 -203 25
l-23 25 -470 0 -469 0 -22 25 c-16 18 -32 25 -58 25 -24 0 -46 8 -66 25 -16
14 -35 25 -42 25 -7 0 -25 11 -41 24 -15 13 -39 24 -53 24 -17 0 -35 10 -52
31 -15 17 -40 34 -58 37 -22 4 -32 12 -32 25 0 10 -5 21 -12 25 -14 9 -322 17
-365 9 -21 -4 -40 -17 -54 -37 -21 -29 -22 -41 -23 -228 l-1 -198 -28 -26
c-21 -19 -27 -34 -27 -66 0 -33 4 -42 25 -52 24 -11 25 -14 27 -132 1 -67 1
-195 0 -286 l-2 -164 -30 -28 c-25 -22 -30 -35 -30 -70 0 -32 -7 -54 -26 -79
-23 -32 -25 -39 -18 -106 6 -69 5 -73 -20 -95 -25 -22 -25 -27 -27 -155 -2
-131 -2 -132 -31 -159 l-28 -28 0 -233 0 -233 -25 -22 c-22 -19 -25 -30 -25
-83 0 -53 -4 -65 -25 -85 -16 -15 -25 -34 -25 -53 0 -23 -12 -40 -54 -78 -41
-38 -55 -59 -60 -87 -3 -24 -17 -48 -40 -69 -19 -18 -44 -53 -56 -78 -12 -25
-26 -45 -30 -45 -5 0 -25 -26 -44 -57 l-36 -57 0 -1427 0 -1427 50 -37 c28
-20 50 -41 50 -45 0 -17 44 -50 65 -50 12 0 31 -11 43 -25 17 -20 31 -25 67
-25 35 0 51 -6 78 -30 19 -16 44 -30 56 -30 11 0 30 -9 41 -20 15 -15 37 -21
81 -24 45 -3 66 -9 84 -26 22 -21 38 -23 207 -32 174 -9 2821 -5 2954 4 45 3
66 10 82 26 19 19 34 22 110 23 114 1 186 11 205 31 10 10 45 18 98 22 60 6
90 13 111 29 22 16 45 21 104 24 62 2 81 6 99 23 16 15 43 23 99 29 44 5 88
16 104 27 15 10 53 21 85 25 37 4 71 16 96 33 20 14 48 26 62 26 14 0 35 9 46
19 20 19 139 61 173 61 10 0 25 12 35 26 9 14 32 32 51 40 19 8 37 21 41 29 3
8 14 15 26 15 11 0 39 9 61 19 27 13 82 23 160 29 94 8 125 15 147 31 16 12
43 21 62 21 23 0 47 10 71 29 22 18 54 31 83 36 79 11 232 105 408 250 104 86
191 188 226 267 7 16 16 28 20 28 4 0 12 15 19 34 6 18 20 42 30 51 11 10 20
26 20 36 0 10 12 31 26 48 15 18 32 58 40 93 8 34 21 69 29 78 8 9 19 48 25
88 5 39 19 106 31 149 19 69 21 96 17 244 -4 130 -9 173 -22 200 -10 19 -23
85 -31 150 -7 64 -19 130 -28 145 -29 55 -87 181 -87 190 0 5 -14 27 -30 48
-17 22 -30 48 -30 57 0 10 -8 24 -18 31 -10 7 -23 22 -29 32 -21 39 -220 207
-283 240 -98 51 -226 80 -325 73 -143 -10 -290 -103 -316 -200 -6 -23 -17 -57
-25 -75 -19 -45 -17 -89 6 -141 11 -24 20 -48 20 -54 0 -23 68 -116 137 -185
39 -41 77 -87 84 -103 6 -16 20 -34 30 -40 11 -5 28 -27 39 -48 10 -21 26 -41
34 -44 8 -3 20 -25 26 -49 7 -24 21 -53 32 -65 18 -20 20 -30 13 -80 -4 -32
-10 -90 -14 -128 -6 -73 -39 -140 -95 -197 -13 -12 -26 -37 -30 -54 -6 -27
-46 -73 -132 -153 -8 -7 -42 -22 -74 -32 -33 -10 -73 -25 -89 -34 -62 -32
-117 -8 -113 48 1 19 -4 50 -13 70 -10 24 -15 69 -15 131 0 85 -2 97 -24 123
-13 15 -26 38 -30 49 -4 12 -15 29 -26 39 -12 10 -20 31 -20 48 0 17 -11 44
-24 61 -30 41 -69 116 -70 139 -1 10 -11 30 -24 45 -72 85 -82 102 -82 129 0
17 -8 37 -19 47 -10 9 -29 37 -41 62 -13 25 -31 49 -41 54 -9 5 -19 24 -23 43
-3 18 -13 42 -21 53 -44 58 -85 129 -85 148 0 12 -20 48 -45 81 -25 33 -53 80
-62 105 -17 45 -35 74 -84 140 -15 19 -29 50 -33 69 -3 19 -17 44 -31 57 -14
13 -25 31 -25 42 0 10 -25 49 -55 87 -30 38 -55 77 -55 86 0 17 -58 133 -86
174 -8 11 -14 28 -14 38 0 11 -11 32 -25 49 -14 16 -25 35 -25 42 0 8 -8 24
-18 37 -11 13 -22 36 -26 52 -3 15 -13 35 -21 45 -7 9 -30 37 -49 60 -20 24
-36 51 -36 60 0 10 -12 35 -25 57 -20 31 -25 54 -25 103 0 41 -6 75 -19 100
-10 20 -21 67 -23 104 -4 48 -13 80 -32 112 -14 25 -26 60 -26 79 0 19 -11 59
-25 89 -25 55 -25 57 -20 272 4 199 6 219 25 246 20 28 20 41 20 440 l0 412
-24 19 c-14 11 -28 35 -32 54 -5 28 -12 35 -38 41 -17 3 -39 13 -49 22 -13 11
-44 16 -122 18 -99 3 -106 2 -134 -22 -22 -18 -46 -26 -92 -30 l-62 -6 36 34
c86 82 42 208 -72 208 -40 0 -52 -5 -78 -32z m-2529 -618 c13 -21 45 -57 69
-80 73 -68 109 -214 65 -267 -6 -8 -35 -30 -63 -49 -27 -18 -61 -42 -75 -53
-40 -31 -67 -35 -80 -11 -6 11 -13 80 -15 153 -2 72 -6 169 -10 214 l-8 82 31
30 c36 37 51 33 86 -19z m2968 -106 c16 -27 16 -32 -3 -84 -11 -30 -24 -100
-29 -155 -12 -131 -45 -314 -59 -328 -7 -7 -18 -7 -35 1 -26 12 -27 13 -120
152 l-63 95 5 78 5 77 61 44 c33 25 75 57 92 73 68 61 103 84 119 79 5 -1 17
-16 27 -32z m-2872 -524 c37 -19 90 -81 90 -106 0 -6 17 -23 38 -37 20 -15 43
-36 50 -47 12 -20 13 -20 47 12 109 105 113 108 152 109 201 3 339 -16 395
-56 13 -8 33 -15 46 -15 15 0 26 -7 29 -19 4 -18 6 -18 42 2 24 13 45 18 61
14 49 -13 55 -23 60 -102 5 -72 4 -75 -17 -75 -12 0 -23 4 -25 10 -2 6 -9 6
-18 0 -12 -8 -13 -16 -2 -55 7 -25 12 -60 13 -78 0 -17 3 -26 6 -19 2 6 11 12
19 12 22 0 19 -76 -4 -82 -13 -4 -19 -16 -20 -49 -3 -50 -48 -149 -89 -195
-16 -16 -51 -48 -79 -71 -43 -33 -64 -42 -126 -52 -136 -22 -290 20 -399 110
-35 29 -53 56 -82 123 -20 47 -37 96 -37 110 0 32 -9 33 -35 2 -38 -44 -86
-66 -146 -66 -31 0 -70 -7 -88 -16 -18 -9 -54 -16 -81 -16 -76 1 -125 33 -153
102 -8 18 -32 45 -52 59 -61 42 -79 73 -80 139 0 47 5 66 28 100 15 23 27 55
27 72 0 101 103 185 203 166 23 -4 45 0 72 14 50 25 105 25 155 0z m2113 -59
c139 -48 233 -148 281 -300 22 -70 25 -89 16 -120 -6 -20 -15 -69 -20 -109
-16 -122 -75 -206 -177 -253 -177 -81 -460 8 -559 176 -33 56 -57 181 -43 228
5 17 9 45 9 61 0 16 21 71 46 122 35 70 58 103 93 131 92 76 241 103 354 64z"/>
<path d="M921 6554 c-25 -32 -26 -64 -3 -122 22 -56 60 -81 97 -64 37 17 49
55 34 116 -21 89 -86 124 -128 70z"/>
<path d="M1470 6554 c0 -3 11 -15 25 -26 18 -14 25 -29 25 -52 0 -49 -30 -71
-97 -71 -48 0 -58 4 -79 29 -14 15 -23 33 -21 40 6 16 35 8 58 -15 22 -22 57
-25 83 -6 46 34 -28 68 -112 51 -45 -9 -45 -9 -70 -79 -33 -93 -33 -189 -1
-288 20 -62 32 -80 84 -130 49 -47 72 -61 126 -77 90 -27 222 -27 263 -1 84
56 146 166 146 261 0 33 -4 60 -10 60 -5 0 -10 -13 -10 -30 0 -20 -5 -30 -15
-30 -12 0 -14 12 -12 58 2 31 8 57 13 58 5 0 8 -8 6 -19 -2 -12 1 -18 10 -15
23 8 19 41 -15 122 -38 92 -57 108 -57 47 0 -33 -4 -41 -19 -41 -15 0 -19 11
-25 62 -8 77 -30 98 -34 33 -6 -84 -89 -122 -151 -69 -33 28 -42 75 -21 115
10 18 7 19 -40 19 -27 0 -50 -3 -50 -6z"/>
<path d="M733 6515 c-30 -21 -36 -59 -18 -120 23 -82 79 -109 123 -62 25 26
27 49 11 113 -12 45 -47 84 -78 84 -9 0 -26 -7 -38 -15z"/>
<path d="M2852 6541 c-54 -57 -114 -160 -126 -218 -9 -39 8 -138 34 -195 21
-47 88 -117 135 -141 30 -15 115 -35 186 -44 57 -7 169 32 198 69 39 49 60
128 62 236 2 85 -1 104 -24 153 -51 111 -178 182 -342 191 l-70 4 -53 -55z"/>
</g>
</svg>
