<?xml version="1.0" standalone="no"?>
<!DOCTYPE svg PUBLIC "-//W3C//DTD SVG 20010904//EN"
 "http://www.w3.org/TR/2001/REC-SVG-20010904/DTD/svg10.dtd">
<svg version="1.0" xmlns="http://www.w3.org/2000/svg"
 width="704.000000pt" height="1280.000000pt" viewBox="0 0 704.000000 1280.000000"
 preserveAspectRatio="xMidYMid meet">
<metadata>
Created by potrace 1.16, written by Peter Selinger 2001-2019
</metadata>
<g transform="translate(0.000000,1280.000000) scale(0.100000,-0.100000)"
fill="#000000" stroke="none">
<path d="M4650 10563 c-355 -27 -619 -88 -870 -204 -398 -182 -665 -458 -752
-777 -31 -113 -31 -326 0 -435 90 -315 337 -581 705 -757 200 -96 410 -158
661 -196 158 -24 531 -29 711 -10 756 80 1308 436 1465 944 44 140 42 347 -4
493 -103 330 -411 616 -850 789 -302 118 -724 179 -1066 153z m510 -179 c308
-39 612 -148 844 -301 88 -58 259 -227 311 -308 87 -133 120 -254 119 -425 -1
-112 -4 -134 -31 -206 -50 -139 -108 -228 -218 -339 -233 -235 -554 -382 -985
-451 -140 -22 -545 -30 -695 -14 -605 66 -1089 336 -1264 704 -52 109 -71 191
-71 313 0 210 72 382 229 547 266 278 670 444 1201 496 122 11 412 3 560 -16z"/>
<path d="M5065 9984 c-11 -3 -51 -17 -88 -31 -84 -31 -169 -107 -211 -187 -16
-31 -33 -56 -37 -56 -5 0 -16 17 -25 37 -31 65 -129 159 -202 194 -57 28 -81
33 -162 37 -80 3 -104 0 -155 -18 -117 -43 -229 -196 -241 -331 -7 -75 10
-193 38 -258 47 -111 196 -292 343 -418 78 -67 323 -250 372 -278 32 -18 32
-18 70 8 292 203 504 391 620 552 99 138 128 226 121 376 -4 84 -9 105 -38
162 -43 87 -90 133 -175 173 -69 33 -178 51 -230 38z m-756 -148 c31 -33 22
-55 -44 -105 -32 -24 -65 -61 -82 -91 -22 -38 -34 -50 -52 -50 -75 0 -82 94
-14 193 51 73 148 100 192 53z"/>
<path d="M3772 8310 c-44 -10 -103 -58 -124 -101 -59 -115 34 -269 162 -269
137 0 237 151 177 267 -22 43 -80 90 -124 102 -42 12 -45 12 -91 1z m83 -84
c38 -16 65 -60 65 -105 0 -37 -41 -88 -79 -96 -62 -13 -131 43 -131 107 0 38
36 86 72 97 18 5 34 10 36 10 1 1 18 -5 37 -13z"/>
<path d="M3462 7966 c-55 -62 -50 -120 15 -181 25 -23 26 -25 8 -25 -11 0 -25
-8 -32 -19 -6 -10 -27 -21 -46 -25 -19 -4 -40 -13 -47 -21 -8 -10 -31 -15 -64
-15 -43 0 -57 -5 -76 -25 -13 -14 -38 -27 -56 -31 -18 -3 -42 -17 -55 -30 -12
-13 -37 -26 -55 -30 -18 -3 -40 -15 -50 -25 -26 -29 -91 -26 -120 6 -23 25
-24 25 -208 25 l-186 0 -16 25 -16 25 -472 0 -473 0 -23 25 c-15 16 -34 25
-55 25 -17 0 -41 9 -53 20 -11 11 -40 26 -63 34 -24 8 -47 22 -51 30 -5 9 -22
16 -37 16 -21 0 -36 10 -55 35 -18 23 -35 35 -51 35 -16 0 -28 9 -37 28 l-13
27 -165 2 c-207 3 -220 1 -250 -39 -23 -32 -24 -38 -24 -231 l-1 -199 -28 -22
c-25 -20 -28 -29 -25 -67 2 -33 8 -46 24 -53 19 -9 22 -21 28 -100 3 -50 4
-176 1 -281 -5 -168 -8 -192 -24 -205 -29 -25 -41 -55 -41 -103 0 -34 -6 -49
-25 -67 -23 -22 -25 -31 -25 -110 0 -72 -3 -90 -19 -104 -16 -15 -19 -35 -23
-151 -3 -132 -4 -134 -31 -155 l-27 -21 0 -239 0 -239 -27 -21 c-23 -18 -26
-27 -25 -74 1 -43 -3 -59 -22 -81 -13 -15 -27 -45 -30 -66 -5 -31 -14 -44 -46
-65 -28 -18 -44 -40 -56 -73 -16 -43 -43 -83 -79 -122 -8 -9 -15 -20 -15 -25
0 -5 -18 -32 -41 -59 -22 -27 -49 -66 -60 -87 -18 -36 -19 -80 -19 -1463 0
-925 3 -1425 10 -1425 5 0 36 -27 69 -59 33 -33 70 -62 83 -66 13 -4 34 -17
48 -30 15 -14 44 -25 75 -29 33 -4 58 -14 75 -31 14 -14 38 -25 52 -25 15 0
33 -8 40 -19 9 -13 29 -20 68 -23 36 -3 66 -12 85 -26 52 -38 333 -44 1809
-39 726 2 1345 7 1375 9 38 3 57 10 68 24 12 17 30 20 146 24 114 4 136 8 162
27 21 15 51 23 105 27 55 5 83 12 105 29 24 17 47 23 110 25 61 3 85 8 100 23
13 12 52 23 108 32 47 8 94 20 103 28 8 7 42 16 75 20 41 5 70 15 93 33 19 14
48 26 64 26 16 0 40 9 54 19 28 23 132 61 164 61 14 0 31 12 44 30 12 16 32
33 45 36 12 3 32 17 44 30 11 13 30 24 41 24 10 0 34 7 52 15 18 8 86 18 151
24 89 7 123 14 138 27 10 9 42 21 70 25 30 5 62 17 74 29 13 12 53 28 91 37
38 9 80 23 94 33 14 9 41 25 60 34 101 47 399 305 416 359 4 12 13 29 21 37
23 25 73 104 73 117 0 6 11 24 24 40 13 15 27 39 31 53 4 14 16 36 27 49 10
13 26 49 34 80 9 31 24 72 34 91 9 19 20 63 24 98 3 35 15 95 27 133 19 63 21
87 17 237 -4 140 -8 174 -25 212 -12 25 -26 92 -33 153 -9 73 -21 123 -37 154
-12 26 -23 53 -23 61 0 7 -8 26 -19 40 -10 15 -24 44 -30 64 -7 20 -19 42 -28
50 -9 7 -24 31 -33 53 -10 24 -57 81 -111 136 -138 139 -187 170 -345 220 -89
28 -107 31 -189 26 -96 -5 -137 -19 -216 -74 -73 -51 -105 -93 -113 -151 -3
-27 -13 -55 -21 -62 -21 -18 -19 -88 5 -133 11 -20 20 -43 20 -51 0 -7 14 -30
30 -51 17 -21 30 -42 30 -47 0 -5 36 -45 80 -89 44 -44 80 -86 80 -93 0 -8 11
-24 25 -37 14 -13 34 -40 44 -59 11 -19 28 -44 40 -54 12 -11 21 -28 21 -40 0
-11 12 -37 26 -58 23 -33 26 -44 19 -85 -4 -27 -10 -82 -13 -124 -7 -79 -24
-114 -94 -197 -15 -18 -28 -39 -28 -46 0 -26 -62 -105 -115 -146 -29 -23 -75
-47 -102 -55 -26 -7 -61 -20 -78 -29 -16 -9 -42 -16 -56 -16 -31 0 -64 33 -55
55 3 9 -2 35 -10 58 -9 23 -19 90 -23 149 -6 93 -10 110 -29 128 -12 11 -22
28 -22 36 0 8 -11 30 -25 48 -14 18 -25 42 -25 53 0 11 -8 31 -18 44 -38 48
-72 116 -72 142 0 14 -9 32 -19 39 -11 8 -25 26 -32 41 -7 15 -23 34 -36 42
-18 12 -23 24 -23 60 0 33 -5 47 -19 54 -10 6 -26 26 -35 46 -10 20 -30 49
-47 66 -16 16 -29 40 -29 53 0 13 -7 30 -16 37 -9 8 -25 32 -34 54 -9 22 -25
46 -33 54 -9 7 -19 29 -23 50 -4 20 -14 45 -24 56 -29 33 -80 121 -80 138 0
17 -27 60 -78 125 -18 22 -32 49 -32 60 0 11 -11 33 -24 49 -13 15 -31 45 -40
67 -9 21 -33 59 -55 85 -21 25 -43 63 -49 85 -6 21 -17 46 -25 55 -8 9 -20 32
-26 52 -7 20 -21 45 -31 54 -11 10 -20 28 -20 41 0 12 -11 35 -24 51 -13 15
-27 42 -30 60 -4 17 -13 37 -21 43 -7 6 -16 23 -20 37 -6 26 -50 90 -87 126
-10 10 -18 27 -18 38 0 11 -11 37 -25 57 -20 29 -25 49 -25 95 0 35 -8 77 -19
105 -11 26 -22 74 -24 107 -3 38 -14 78 -31 109 -14 27 -26 64 -26 83 0 18
-12 57 -26 85 l-26 51 7 220 c6 190 10 225 26 251 18 29 19 57 19 438 l0 406
-23 29 c-13 15 -27 40 -30 54 -5 20 -15 28 -39 33 -17 3 -40 14 -50 22 -13 12
-44 18 -122 21 -101 4 -105 3 -136 -24 -25 -21 -46 -28 -91 -31 l-59 -4 34 34
c45 45 56 99 30 147 -23 43 -55 61 -110 61 -35 0 -47 -6 -72 -34z m-2537 -603
c10 -14 44 -54 76 -89 59 -63 75 -98 85 -184 6 -55 -18 -100 -68 -126 -18 -9
-48 -30 -66 -45 -35 -31 -73 -45 -97 -35 -11 4 -15 22 -15 73 -1 58 -9 277
-12 323 -3 42 4 72 22 90 27 27 54 25 75 -7z m2956 -94 c35 -18 40 -52 18
-115 -11 -31 -21 -89 -23 -128 -2 -40 -8 -81 -14 -93 -7 -12 -12 -41 -13 -65
0 -61 -24 -187 -37 -200 -16 -16 -62 10 -81 46 -9 16 -42 69 -73 117 l-58 87
0 79 0 78 73 55 c39 30 95 76 124 102 57 53 56 52 84 37z m-2900 -575 c15 -7
38 -27 52 -43 14 -17 37 -33 52 -37 29 -7 95 -67 95 -87 1 -7 7 -25 14 -42
l13 -30 20 47 c12 25 32 52 45 58 12 6 37 27 54 46 35 41 86 56 142 43 20 -5
62 -6 92 -3 59 6 206 -25 245 -52 11 -8 29 -14 42 -14 12 0 24 -8 28 -19 6
-18 7 -18 43 2 25 13 46 18 62 14 49 -13 55 -23 60 -102 5 -73 4 -75 -17 -75
-13 0 -23 5 -23 10 0 7 -6 7 -20 0 -18 -10 -18 -13 -5 -51 8 -23 15 -50 15
-61 0 -11 9 -22 20 -25 16 -4 20 -14 20 -44 0 -28 -4 -39 -15 -39 -8 0 -17
-10 -19 -22 -3 -13 -9 -44 -14 -71 -14 -68 -65 -144 -138 -206 -58 -48 -72
-55 -141 -68 -128 -24 -272 12 -389 98 -40 29 -57 52 -85 110 -20 41 -41 100
-49 132 -7 31 -15 57 -17 57 -3 0 -23 -13 -46 -29 -23 -16 -61 -32 -84 -36
-23 -4 -48 -14 -55 -22 -18 -22 -71 -43 -110 -43 -40 0 -89 28 -119 69 -13 17
-30 31 -38 31 -27 0 -80 38 -101 72 -23 38 -26 111 -6 146 9 18 10 34 3 62 -9
32 -7 44 14 86 29 59 62 84 120 91 27 3 54 15 71 30 44 42 107 48 169 17z
m2161 -35 c86 -29 183 -100 225 -167 19 -29 46 -92 60 -138 21 -72 23 -89 13
-117 -7 -17 -15 -67 -20 -110 -5 -59 -12 -83 -29 -100 -11 -13 -21 -28 -21
-33 0 -25 -69 -89 -124 -115 -175 -83 -463 8 -562 176 -72 123 -58 297 37 455
87 147 254 206 421 149z"/>
<path d="M914 6536 c-35 -55 8 -166 65 -166 45 0 65 31 57 87 -8 62 -34 97
-74 101 -24 2 -34 -3 -48 -22z"/>
<path d="M1470 6554 c0 -3 11 -15 25 -26 18 -14 25 -29 25 -52 0 -49 -30 -71
-97 -71 -48 0 -58 4 -79 29 -14 15 -23 33 -21 40 6 16 35 8 58 -15 33 -33 108
-15 94 23 -11 29 -99 38 -145 15 -59 -30 -88 -216 -54 -351 17 -63 25 -78 79
-132 78 -79 146 -104 280 -104 85 0 95 2 131 28 83 61 133 154 134 250 0 35
-4 62 -10 62 -5 0 -10 -13 -10 -30 0 -20 -5 -30 -15 -30 -13 0 -15 11 -13 63
2 36 7 60 13 58 6 -2 9 -13 7 -24 -2 -12 1 -18 10 -15 24 8 19 43 -15 123 -39
91 -57 106 -57 46 0 -33 -4 -41 -19 -41 -15 0 -19 11 -25 62 -8 77 -30 98 -34
33 -6 -84 -89 -122 -151 -69 -33 28 -42 75 -21 115 10 18 7 19 -40 19 -27 0
-50 -3 -50 -6z"/>
<path d="M745 6495 c-27 -26 -30 -43 -15 -94 20 -70 78 -102 113 -63 33 36 12
148 -31 171 -30 16 -40 14 -67 -14z"/>
<path d="M2854 6543 c-33 -35 -71 -90 -96 -141 l-41 -84 11 -71 c6 -40 20 -93
32 -119 27 -61 117 -142 173 -156 79 -19 149 -32 176 -32 40 0 128 34 156 60
39 36 71 134 78 233 6 84 5 91 -27 161 -53 117 -156 181 -305 191 -35 3 -72 7
-83 11 -13 4 -33 -10 -74 -53z"/>
</g>
</svg>
