<?xml version="1.0" standalone="no"?>
<!DOCTYPE svg PUBLIC "-//W3C//DTD SVG 20010904//EN"
 "http://www.w3.org/TR/2001/REC-SVG-20010904/DTD/svg10.dtd">
<svg version="1.0" xmlns="http://www.w3.org/2000/svg"
 width="704.000000pt" height="1280.000000pt" viewBox="0 0 704.000000 1280.000000"
 preserveAspectRatio="xMidYMid meet">
<metadata>
Created by potrace 1.16, written by Peter Selinger 2001-2019
</metadata>
<g transform="translate(0.000000,1280.000000) scale(0.100000,-0.100000)"
fill="#000000" stroke="none">
<path d="M4680 10563 c-168 -11 -313 -29 -430 -53 -635 -131 -1093 -478 -1222
-925 -32 -113 -32 -324 0 -438 136 -480 646 -843 1334 -948 173 -27 526 -36
705 -20 458 43 843 184 1129 415 385 310 509 751 321 1147 -188 396 -678 700
-1277 793 -188 29 -399 40 -560 29z m320 -163 c633 -45 1163 -317 1354 -695
60 -119 80 -211 80 -355 -1 -113 -4 -133 -30 -206 -52 -140 -109 -229 -219
-340 -228 -230 -518 -366 -955 -446 -113 -21 -154 -23 -430 -23 -239 1 -327 4
-409 18 -639 105 -1096 422 -1201 832 -27 106 -27 244 1 356 113 453 682 799
1409 858 151 12 236 12 400 1z"/>
<path d="M4195 10015 c-76 -18 -181 -80 -210 -123 -100 -146 -127 -328 -71
-479 29 -79 83 -176 136 -243 92 -119 321 -331 450 -416 19 -13 78 -52 130
-87 111 -76 88 -80 261 44 189 135 280 213 402 338 120 125 211 250 245 336
56 142 46 323 -24 442 -64 109 -173 184 -290 199 -75 9 -198 -11 -263 -43 -70
-34 -157 -122 -200 -202 l-33 -63 -31 63 c-87 183 -303 283 -502 234z m91
-150 c23 -35 11 -58 -54 -109 -33 -26 -72 -69 -91 -101 -39 -64 -66 -72 -101
-27 -66 83 57 262 181 262 40 0 51 -4 65 -25z"/>
<path d="M3766 8305 c-55 -19 -87 -45 -113 -91 -65 -112 14 -259 146 -272 147
-14 253 144 183 274 -19 35 -79 82 -119 93 -47 13 -49 13 -97 -4z m112 -92
c49 -31 56 -107 13 -155 -75 -85 -215 6 -172 111 27 64 97 84 159 44z"/>
<path d="M3467 7972 c-53 -56 -54 -125 -1 -177 19 -19 29 -35 22 -35 -7 0 -18
-8 -25 -19 -6 -10 -29 -22 -50 -26 -21 -4 -46 -14 -57 -23 -12 -11 -33 -16
-64 -15 -38 1 -52 -3 -79 -28 -19 -16 -44 -29 -57 -29 -12 0 -33 -11 -46 -24
-12 -14 -37 -28 -54 -32 -17 -4 -44 -17 -59 -30 -38 -32 -66 -30 -112 6 l-38
30 -173 0 c-173 0 -174 0 -196 25 l-21 25 -470 0 -471 0 -26 25 c-18 17 -37
25 -62 25 -20 0 -41 7 -49 16 -7 9 -33 25 -57 36 -24 12 -46 27 -49 35 -3 7
-20 13 -40 13 -27 0 -37 6 -51 31 -10 18 -28 32 -45 36 -15 3 -36 18 -47 33
l-20 27 -191 -1 c-191 -1 -191 -2 -210 -26 -10 -14 -23 -29 -27 -35 -4 -5 -8
-99 -7 -207 l0 -197 -27 -28 c-38 -39 -40 -104 -4 -121 21 -9 24 -18 29 -109
4 -54 4 -181 2 -282 l-6 -184 -29 -27 c-25 -24 -30 -36 -30 -77 0 -40 -5 -54
-25 -73 -23 -21 -25 -31 -25 -105 0 -67 -4 -87 -20 -108 -17 -22 -20 -40 -20
-146 0 -119 0 -121 -30 -154 l-30 -35 0 -230 0 -231 -30 -31 c-29 -30 -32 -51
-14 -107 2 -7 -10 -27 -26 -43 -22 -22 -30 -40 -30 -65 0 -26 -7 -38 -27 -52
-50 -34 -80 -72 -86 -108 -3 -20 -16 -47 -29 -60 -47 -48 -58 -62 -58 -71 0
-5 -18 -32 -41 -59 -22 -27 -49 -66 -60 -87 -18 -36 -19 -80 -19 -1460 l0
-1423 34 -22 c19 -12 47 -39 63 -60 34 -46 42 -53 69 -53 11 0 31 -11 43 -24
16 -17 37 -25 77 -29 43 -4 59 -11 75 -31 14 -17 30 -26 49 -26 20 0 35 -8 45
-23 12 -20 25 -24 73 -26 40 -2 63 -8 78 -22 37 -35 382 -41 1819 -35 715 3
1323 7 1352 9 35 2 62 10 82 25 27 20 42 22 155 22 116 0 126 2 153 23 22 19
45 25 107 31 61 4 85 11 102 27 17 16 37 21 99 23 59 3 83 8 105 25 16 11 44
23 62 25 18 3 53 7 78 11 25 3 59 14 75 25 17 11 47 20 67 20 44 0 89 15 104
36 7 8 29 18 50 21 22 3 48 13 59 23 21 18 139 60 168 60 9 0 29 14 44 30 14
16 32 30 39 30 6 0 22 11 35 25 13 13 30 25 37 25 7 0 34 9 60 20 32 13 87 22
169 28 91 6 127 13 141 25 10 9 38 21 63 25 24 5 61 20 82 35 21 14 63 31 93
37 74 16 145 56 291 168 200 152 280 242 361 407 8 17 23 39 32 50 10 11 20
32 23 46 4 14 16 36 27 49 11 13 25 42 30 64 6 23 19 61 31 84 11 24 22 65 25
90 4 26 17 90 31 142 24 88 25 106 21 260 -5 138 -9 172 -26 210 -13 28 -24
84 -30 150 -7 67 -17 119 -30 145 -45 91 -82 173 -82 180 0 4 -11 22 -24 40
-13 17 -31 47 -39 66 -15 37 -143 173 -217 230 -126 99 -239 138 -400 141
-107 1 -118 -1 -160 -25 -25 -14 -61 -35 -81 -46 -57 -32 -106 -93 -114 -142
-4 -24 -13 -54 -21 -66 -8 -12 -14 -41 -14 -63 0 -38 9 -63 53 -145 9 -16 23
-44 31 -61 8 -17 49 -63 91 -102 41 -39 80 -85 86 -102 6 -17 20 -35 30 -41
10 -5 28 -27 38 -48 11 -20 27 -43 35 -50 9 -7 21 -32 27 -55 6 -22 20 -51 31
-63 17 -18 20 -30 14 -65 -4 -24 -11 -77 -15 -118 -10 -92 -14 -101 -68 -172
-24 -31 -52 -76 -62 -101 -26 -59 -153 -171 -207 -181 -21 -4 -55 -16 -76 -27
-69 -35 -118 -15 -118 49 0 17 -5 43 -12 59 -6 15 -14 76 -17 135 -5 94 -9
109 -29 128 -12 11 -22 27 -22 34 0 7 -11 30 -25 50 -14 20 -25 47 -25 60 0
13 -7 29 -16 37 -20 16 -74 123 -74 145 0 15 -26 51 -85 117 -16 18 -25 40
-25 61 0 21 -8 40 -21 52 -12 10 -28 32 -36 49 -8 16 -28 44 -43 60 -15 17
-31 43 -34 59 -4 16 -16 41 -27 54 -10 14 -19 31 -19 39 0 8 -11 29 -25 47
-14 18 -25 42 -25 54 0 11 -11 33 -24 49 -31 37 -86 127 -86 141 0 7 -25 48
-55 93 -30 45 -55 89 -55 99 0 9 -13 34 -30 55 -16 21 -30 45 -30 54 0 9 -25
49 -55 89 -30 40 -55 79 -55 87 0 15 -68 147 -80 155 -4 3 -11 21 -15 40 -4
19 -18 48 -31 63 -13 16 -24 37 -24 46 0 10 -9 29 -19 43 -11 13 -23 36 -26
50 -4 14 -26 47 -49 74 -24 27 -46 62 -50 78 -4 16 -18 43 -32 61 -19 25 -24
44 -24 91 -1 32 -8 77 -16 99 -9 22 -20 74 -26 115 -6 46 -19 90 -34 116 -13
22 -24 55 -24 73 0 18 -12 57 -26 88 l-27 56 8 221 c6 194 9 224 26 247 18 26
19 50 19 434 l0 406 -24 32 c-14 18 -28 44 -31 60 -5 19 -13 27 -30 27 -12 0
-35 10 -50 22 -23 18 -43 22 -135 25 -102 4 -109 3 -136 -20 -20 -17 -47 -27
-89 -32 l-60 -7 28 22 c102 80 57 220 -71 220 -29 0 -45 -7 -65 -28z m-2544
-606 c9 -13 40 -50 69 -82 64 -71 71 -84 88 -152 21 -90 1 -136 -75 -175 -16
-8 -41 -27 -54 -41 -26 -28 -86 -45 -102 -29 -6 6 -12 70 -14 144 -1 74 -6
172 -10 219 -7 78 -6 87 15 113 27 34 62 35 83 3z m2975 -108 c17 -17 15 -69
-4 -114 -9 -21 -17 -70 -19 -109 -1 -39 -7 -86 -13 -105 -6 -19 -17 -82 -23
-139 -11 -94 -25 -131 -49 -131 -13 0 -67 69 -131 167 -59 90 -59 92 -59 165
0 40 4 78 8 83 4 6 25 22 47 36 22 15 73 57 113 93 72 66 105 79 130 54z
m-2909 -583 c21 -19 45 -35 52 -35 8 0 33 -9 56 -19 59 -27 87 -84 80 -163 -3
-32 -4 -58 -2 -58 1 0 20 34 41 76 22 45 50 84 68 97 17 12 43 34 58 49 24 26
54 35 98 29 8 -1 53 -2 100 -2 47 0 103 -5 125 -11 22 -5 49 -12 60 -14 58
-11 75 -17 86 -30 6 -8 22 -14 35 -14 13 0 25 -8 29 -19 6 -18 7 -18 43 2 25
13 46 18 62 14 49 -13 55 -23 60 -102 5 -72 4 -75 -17 -75 -12 0 -23 4 -25 10
-2 5 -9 6 -16 1 -20 -12 6 -132 30 -139 23 -6 26 -82 4 -82 -9 0 -18 -21 -25
-62 -23 -134 -162 -290 -267 -303 -21 -3 -51 -8 -66 -11 -85 -18 -281 46 -360
118 -45 42 -102 154 -118 236 -13 64 -19 72 -40 48 -6 -8 -33 -23 -58 -32 -26
-10 -54 -25 -62 -35 -65 -75 -172 -77 -239 -5 -14 15 -35 26 -50 26 -37 0 -95
43 -115 84 -11 24 -16 59 -16 103 1 38 -1 87 -5 109 -12 70 46 149 117 160 22
4 45 15 53 27 27 39 67 57 127 57 52 0 62 -4 97 -35z m2144 -13 c93 -31 178
-93 231 -170 25 -37 46 -72 46 -78 0 -6 9 -40 20 -74 19 -60 19 -67 5 -123 -8
-32 -15 -75 -15 -95 0 -42 -38 -123 -83 -177 -17 -22 -57 -50 -91 -66 -85 -40
-204 -41 -321 -3 -74 24 -169 83 -203 123 -60 74 -100 208 -81 273 5 18 9 45
9 60 0 63 86 219 153 277 71 63 225 87 330 53z"/>
<path d="M914 6536 c-35 -55 8 -166 65 -166 45 0 65 31 57 87 -8 62 -34 97
-74 101 -24 2 -34 -3 -48 -22z"/>
<path d="M1488 6534 c24 -19 32 -33 32 -58 0 -49 -30 -71 -97 -71 -48 0 -58 4
-79 29 -14 15 -23 33 -21 40 6 16 35 8 58 -15 34 -34 108 -15 94 23 -9 23 -63
32 -122 22 -44 -9 -48 -12 -59 -50 -7 -23 -17 -52 -24 -64 -19 -35 -13 -178
10 -250 24 -76 53 -116 117 -162 65 -46 142 -68 242 -68 96 0 123 11 175 72
59 69 86 133 86 205 0 35 -4 63 -10 63 -5 0 -10 -13 -10 -30 0 -20 -5 -30 -15
-30 -13 0 -15 11 -13 63 2 37 7 60 13 57 6 -3 9 -13 9 -22 -2 -22 14 -24 22
-3 9 21 -35 142 -62 173 l-23 27 -1 -42 c0 -35 -3 -43 -19 -43 -15 0 -19 11
-25 62 -8 77 -30 98 -34 33 -6 -84 -89 -122 -151 -69 -33 28 -42 75 -21 115
10 18 7 19 -47 19 l-58 0 33 -26z"/>
<path d="M745 6495 c-27 -26 -30 -43 -15 -94 20 -70 78 -102 113 -63 33 36 12
148 -31 171 -30 16 -40 14 -67 -14z"/>
<path d="M2852 6542 c-31 -34 -70 -91 -94 -140 l-41 -83 10 -72 c18 -127 69
-203 179 -265 28 -15 154 -42 198 -42 53 0 145 37 169 67 36 45 58 113 68 215
9 97 9 98 -21 164 -44 97 -103 148 -205 179 -44 13 -109 26 -145 29 l-64 4
-54 -56z"/>
</g>
</svg>
