<?xml version="1.0" standalone="no"?>
<!DOCTYPE svg PUBLIC "-//W3C//DTD SVG 20010904//EN"
 "http://www.w3.org/TR/2001/REC-SVG-20010904/DTD/svg10.dtd">
<svg version="1.0" xmlns="http://www.w3.org/2000/svg"
 width="704.000000pt" height="1280.000000pt" viewBox="0 0 704.000000 1280.000000"
 preserveAspectRatio="xMidYMid meet">
<metadata>
Created by potrace 1.16, written by Peter Selinger 2001-2019
</metadata>
<g transform="translate(0.000000,1280.000000) scale(0.100000,-0.100000)"
fill="#000000" stroke="none">
<path d="M4680 10563 c-19 -1 -87 -8 -150 -14 -490 -46 -911 -215 -1192 -479
-148 -138 -245 -288 -299 -460 -31 -98 -33 -114 -33 -245 0 -115 4 -154 22
-219 57 -199 166 -369 331 -513 256 -224 615 -376 1040 -440 143 -22 624 -25
766 -5 589 82 1044 323 1284 680 118 175 174 390 151 580 -29 236 -118 413
-300 592 -226 222 -498 366 -865 456 -217 53 -574 85 -755 67z m320 -163 c571
-40 1038 -254 1290 -590 104 -138 144 -266 144 -455 0 -116 -4 -139 -28 -210
-144 -417 -629 -717 -1292 -800 -140 -18 -468 -20 -611 -4 -542 59 -987 281
-1203 600 -152 222 -172 501 -55 745 228 474 955 770 1755 714z"/>
<path d="M4635 10083 c-22 -3 -44 -8 -50 -13 -5 -4 -34 -15 -64 -24 -29 -9
-82 -31 -116 -51 -71 -39 -191 -146 -201 -179 -4 -11 -20 -34 -36 -51 -16 -16
-31 -41 -34 -55 -3 -14 -13 -43 -24 -65 -34 -73 -50 -232 -35 -340 9 -69 95
-240 158 -313 61 -71 169 -160 206 -169 14 -3 45 -16 68 -29 70 -37 193 -49
317 -31 160 24 261 71 371 176 17 16 54 36 82 46 l53 16 23 -26 c16 -19 47
-34 102 -50 43 -12 81 -27 82 -32 3 -9 -36 -20 -327 -87 -125 -29 -192 -57
-219 -93 -29 -36 -26 -58 12 -87 62 -47 181 -63 345 -47 194 20 376 92 428
170 31 48 25 79 -23 122 -19 16 -34 31 -32 33 72 46 119 109 119 158 0 33 -35
85 -72 107 -92 57 -263 21 -401 -84 -76 -58 -88 -45 -32 36 19 28 35 57 35 64
0 7 10 34 21 61 19 43 21 60 16 173 -5 148 -30 236 -95 348 -85 145 -268 273
-432 301 -80 14 -192 20 -245 15z m1113 -960 c13 -8 28 -25 34 -39 17 -37 -13
-87 -76 -126 l-51 -31 -60 16 c-245 62 -256 77 -114 150 110 56 208 67 267 30z
m-59 -272 c57 -30 64 -42 41 -79 -30 -48 -127 -92 -300 -133 -74 -18 -302 -16
-355 2 -22 8 -41 22 -43 31 -5 27 38 47 175 79 287 67 330 78 373 98 57 25 63
25 109 2z"/>
<path d="M3766 8305 c-48 -17 -83 -42 -110 -79 -32 -42 -30 -150 3 -198 72
-105 218 -116 300 -22 86 98 46 245 -81 298 -45 19 -61 19 -112 1z m88 -79
c45 -19 66 -52 66 -102 0 -44 -31 -87 -72 -100 -59 -18 -138 37 -138 97 0 44
27 89 63 104 40 18 41 18 81 1z"/>
<path d="M3461 7965 c-25 -29 -31 -45 -31 -80 0 -38 6 -52 36 -85 23 -25 31
-40 22 -40 -8 0 -23 -8 -32 -19 -9 -10 -29 -21 -44 -24 -15 -3 -38 -15 -51
-26 -18 -16 -38 -21 -76 -21 -41 0 -58 -5 -81 -25 -16 -14 -38 -25 -50 -25
-11 0 -33 -13 -49 -30 -17 -18 -39 -30 -54 -30 -14 0 -37 -12 -52 -26 -23 -22
-33 -25 -63 -20 -20 4 -42 17 -51 29 -14 20 -22 21 -201 23 -185 2 -186 2
-213 28 l-27 26 -329 -2 c-591 -2 -589 -2 -623 27 -18 15 -42 25 -60 25 -18 0
-43 10 -60 25 -17 14 -37 25 -46 25 -9 0 -26 11 -38 25 -15 17 -32 25 -54 25
-25 0 -38 7 -53 29 -11 15 -33 31 -49 34 -16 3 -34 17 -42 31 l-13 26 -191 0
c-105 0 -196 -4 -202 -8 -5 -4 -20 -23 -32 -43 -19 -31 -21 -44 -14 -100 4
-35 5 -119 2 -187 -5 -120 -6 -123 -33 -145 -25 -19 -28 -28 -25 -67 2 -35 8
-47 24 -54 20 -9 22 -20 28 -120 4 -61 5 -190 2 -286 -4 -170 -5 -175 -29
-196 -19 -16 -25 -33 -29 -81 -5 -48 -11 -65 -33 -87 -26 -26 -27 -30 -20 -95
6 -63 5 -69 -20 -99 -26 -31 -27 -36 -27 -161 l-1 -130 -29 -26 -30 -27 3
-229 3 -228 -27 -29 c-22 -23 -27 -37 -27 -80 0 -40 -5 -57 -21 -73 -13 -13
-24 -39 -27 -66 -4 -38 -10 -48 -48 -74 -47 -32 -64 -56 -64 -89 0 -12 -17
-42 -39 -68 -21 -26 -46 -60 -54 -77 -8 -16 -31 -46 -50 -66 -73 -75 -67 60
-67 -1527 l0 -1428 40 -23 c22 -12 52 -38 66 -57 15 -19 38 -37 53 -40 14 -4
37 -17 51 -29 16 -14 43 -24 73 -28 35 -3 57 -13 78 -33 16 -15 31 -25 35 -22
10 11 64 -13 64 -28 0 -8 3 -14 8 -15 4 0 31 -2 60 -3 37 -2 62 -10 85 -27
l32 -24 1595 0 1595 0 25 23 c21 19 35 22 114 23 142 2 160 4 192 26 21 16 50
23 111 26 63 4 86 10 101 25 15 15 40 22 101 27 48 4 88 13 96 21 21 22 56 32
135 40 49 5 79 13 91 25 11 11 41 20 82 24 51 6 71 13 88 31 14 15 34 24 54
24 17 0 46 11 65 25 19 14 41 25 50 25 9 0 25 7 36 15 10 8 33 15 51 15 24 0
37 8 53 30 12 17 28 30 35 30 8 0 30 14 48 30 19 17 44 30 56 30 12 0 34 6 50
14 16 9 81 18 154 24 101 7 130 12 140 25 7 10 35 21 65 26 30 5 62 17 75 29
12 11 51 28 86 37 69 18 195 82 245 125 17 14 47 37 66 50 71 49 215 185 259
245 51 69 101 153 101 168 0 8 11 24 25 37 14 13 25 29 25 35 0 6 13 32 29 57
16 25 32 65 36 89 4 24 16 59 26 78 11 18 22 54 25 80 4 25 18 91 31 146 24
94 25 109 19 267 -5 128 -11 178 -25 210 -10 24 -24 90 -31 148 -7 68 -18 116
-31 136 -10 17 -19 40 -19 51 0 11 -9 32 -20 46 -11 14 -27 45 -36 69 -8 23
-23 52 -33 63 -10 11 -26 34 -34 51 -45 88 -228 259 -335 313 -70 35 -220 71
-295 71 -70 0 -154 -31 -232 -86 -81 -56 -96 -75 -102 -126 -3 -24 -14 -58
-25 -76 -22 -36 -19 -98 6 -137 7 -11 16 -33 20 -50 4 -16 16 -39 26 -50 10
-11 21 -30 24 -41 4 -12 43 -56 86 -97 44 -42 80 -82 80 -90 0 -8 16 -30 35
-50 19 -20 35 -43 35 -51 0 -8 14 -24 30 -36 18 -13 30 -30 30 -44 0 -12 14
-44 31 -70 30 -44 31 -49 19 -89 -7 -23 -15 -79 -19 -123 -5 -63 -13 -90 -32
-118 -13 -20 -27 -36 -31 -36 -5 0 -8 -7 -8 -15 0 -8 -11 -22 -24 -30 -14 -10
-27 -30 -30 -50 -5 -25 -26 -54 -73 -101 -66 -65 -112 -94 -153 -94 -11 0 -38
-9 -60 -20 -74 -38 -120 -19 -120 49 0 21 -7 55 -15 74 -10 23 -15 69 -15 126
0 82 -2 92 -25 117 -14 15 -25 32 -25 39 0 6 -11 26 -25 45 -14 19 -25 45 -25
58 0 14 -11 39 -24 56 -25 33 -66 118 -66 136 0 13 -24 47 -77 109 -22 25 -33
49 -33 69 0 21 -10 41 -30 62 -16 17 -30 36 -30 43 0 7 -16 29 -35 49 -20 21
-35 47 -35 61 0 14 -7 31 -16 38 -9 8 -25 33 -35 56 -10 24 -23 43 -28 43 -6
0 -17 23 -25 51 -9 27 -27 64 -40 80 -14 16 -39 58 -56 92 -45 89 -78 146
-100 175 -11 13 -20 32 -20 42 0 9 -13 34 -30 55 -16 21 -30 44 -30 52 0 19
-18 49 -67 111 -24 30 -43 61 -43 69 0 8 -9 28 -20 44 -12 15 -26 42 -32 60
-6 18 -19 40 -30 51 -10 10 -18 29 -18 42 0 13 -8 34 -18 47 -24 33 -72 128
-72 144 0 7 -9 24 -19 37 -11 12 -33 39 -49 58 -53 65 -92 162 -92 230 0 41
-6 73 -20 100 -13 25 -20 59 -20 93 0 40 -7 68 -29 108 -15 30 -31 78 -34 108
-4 30 -14 62 -24 73 -16 18 -18 45 -21 227 -3 229 -1 258 28 289 19 20 20 37
20 433 l1 412 -23 24 c-12 13 -27 38 -33 55 -7 22 -19 34 -40 41 -16 5 -38 16
-47 25 -13 11 -46 15 -123 17 -103 2 -106 2 -142 -26 -32 -26 -43 -29 -107
-28 -61 1 -66 2 -39 10 66 19 101 105 67 166 -22 42 -60 63 -112 63 -33 0 -45
-6 -71 -35z m-2568 -571 c9 -3 41 -39 72 -80 32 -41 60 -74 64 -74 15 0 51
-88 56 -140 9 -82 0 -93 -154 -200 -25 -16 -50 -30 -57 -30 -26 0 -36 44 -39
168 -1 70 -6 157 -10 194 -9 76 -4 104 26 141 23 30 21 29 42 21z m3005 -136
c16 -16 15 -52 -3 -111 -8 -27 -20 -92 -26 -145 -25 -216 -42 -309 -58 -325
-17 -17 -55 2 -77 35 -11 18 -47 74 -80 123 l-59 90 5 75 5 75 75 57 c41 31
93 75 115 97 41 41 80 52 103 29z m-728 -611 c137 -68 205 -140 246 -260 27
-77 27 -108 5 -259 -9 -62 -19 -89 -51 -137 -42 -63 -68 -86 -139 -120 -55
-26 -208 -30 -268 -7 -21 8 -56 20 -79 25 -56 15 -154 95 -196 161 -33 51 -43
86 -54 192 -4 41 26 152 60 221 77 156 176 218 341 214 65 -2 91 -8 135 -30z
m-1470 -18 c112 -31 182 -82 215 -156 8 -17 19 -34 25 -38 18 -11 36 -67 49
-150 24 -155 -17 -275 -127 -376 -79 -72 -89 -77 -173 -90 -63 -9 -90 -8 -154
5 -88 18 -171 55 -228 100 -50 40 -107 154 -132 263 -17 78 -17 86 -1 167 9
48 27 103 39 123 44 73 133 143 207 163 58 15 205 9 280 -11z"/>
<path d="M2852 6542 c-65 -69 -132 -198 -132 -255 0 -48 33 -162 57 -198 19
-28 72 -75 113 -101 29 -18 164 -48 216 -48 41 0 132 35 161 62 41 38 71 136
75 239 2 88 0 98 -29 159 -57 117 -171 181 -338 193 l-70 5 -53 -56z"/>
<path d="M1488 6559 c-18 -4 -64 -20 -103 -36 -75 -32 -81 -38 -117 -142 -21
-59 -20 -110 3 -209 20 -84 30 -101 94 -161 79 -74 152 -101 267 -101 101 0
136 15 188 82 65 82 80 124 80 233 0 83 -3 100 -32 166 -37 82 -62 110 -128
142 -48 23 -189 38 -252 26z"/>
</g>
</svg>
