<?xml version="1.0" standalone="no"?>
<!DOCTYPE svg PUBLIC "-//W3C//DTD SVG 20010904//EN"
 "http://www.w3.org/TR/2001/REC-SVG-20010904/DTD/svg10.dtd">
<svg version="1.0" xmlns="http://www.w3.org/2000/svg"
 width="704.000000pt" height="1280.000000pt" viewBox="0 0 704.000000 1280.000000"
 preserveAspectRatio="xMidYMid meet">
<metadata>
Created by potrace 1.16, written by Peter Selinger 2001-2019
</metadata>
<g transform="translate(0.000000,1280.000000) scale(0.100000,-0.100000)"
fill="#000000" stroke="none">
<path d="M690 7888 c-56 -48 -55 -46 -52 -253 l4 -193 -31 -30 c-41 -38 -44
-101 -7 -125 22 -15 24 -24 31 -137 4 -66 4 -192 0 -280 -7 -159 -7 -159 -37
-191 -27 -28 -30 -36 -25 -77 4 -39 2 -48 -22 -69 -24 -23 -26 -32 -27 -109
-1 -72 -5 -89 -23 -108 -19 -20 -21 -34 -21 -140 0 -120 -7 -150 -42 -174 -17
-12 -18 -31 -18 -242 l0 -228 -27 -32 c-22 -26 -27 -43 -28 -91 -1 -44 -6 -63
-19 -72 -10 -7 -22 -35 -27 -62 -5 -27 -16 -53 -25 -58 -39 -22 -84 -71 -84
-92 0 -22 -21 -54 -72 -110 -15 -16 -28 -34 -28 -39 0 -5 -17 -32 -38 -60 -79
-104 -72 50 -72 -1540 l0 -1426 41 -26 c22 -14 48 -38 57 -54 16 -28 49 -50
76 -50 7 0 22 -11 34 -25 17 -20 31 -25 67 -25 35 0 51 -6 78 -30 19 -16 46
-30 60 -30 15 0 31 -9 41 -25 14 -22 24 -25 76 -25 40 0 64 -5 74 -16 9 -8 31
-20 48 -27 37 -12 2755 -21 3029 -9 137 6 160 10 179 27 19 17 38 20 134 23
130 3 149 6 171 29 12 12 43 19 106 23 74 5 93 10 113 30 20 18 39 23 98 27
50 3 81 10 99 23 16 11 57 22 108 28 54 7 89 16 102 28 12 11 46 21 86 26 42
5 74 15 87 27 12 10 39 22 61 26 22 3 49 15 60 25 23 21 94 50 141 57 19 3 46
19 65 39 18 19 38 34 45 34 7 0 26 11 42 25 17 14 37 25 46 25 9 0 27 6 39 14
14 9 69 18 150 24 106 7 132 12 157 30 16 12 44 22 63 22 20 0 48 11 73 28 21
16 66 34 99 42 33 7 72 21 87 31 14 11 30 19 35 19 9 0 149 100 242 173 77 60
168 154 205 212 83 127 96 149 96 158 0 5 11 22 25 39 14 16 25 38 25 49 0 10
9 28 19 38 10 10 26 45 35 77 9 33 25 75 35 94 10 19 21 64 25 100 3 36 14 85
23 110 15 37 18 77 18 236 0 174 -2 195 -22 240 -12 28 -26 92 -33 149 -7 64
-20 118 -35 150 -64 137 -75 161 -75 169 0 4 -10 22 -22 39 -13 18 -31 49 -40
69 -9 21 -21 38 -26 38 -5 0 -17 15 -27 34 -10 18 -31 41 -46 50 -14 9 -41 33
-59 53 -100 116 -307 204 -479 202 -64 0 -85 -5 -131 -29 -30 -16 -65 -34 -77
-39 -12 -6 -44 -32 -71 -58 -37 -36 -51 -58 -56 -88 -4 -22 -14 -57 -23 -78
-13 -30 -14 -45 -5 -80 30 -119 66 -181 162 -278 41 -41 84 -92 94 -112 11
-20 23 -37 27 -37 5 0 21 -19 35 -42 15 -24 33 -47 40 -51 7 -4 18 -26 25 -49
6 -23 21 -57 34 -75 19 -29 21 -40 13 -71 -5 -20 -13 -74 -18 -119 -4 -45 -12
-88 -16 -95 -4 -7 -29 -42 -54 -78 -26 -36 -50 -77 -53 -90 -14 -51 -141 -165
-202 -180 -22 -6 -58 -19 -80 -30 -76 -38 -125 -22 -125 41 0 22 -5 50 -12 62
-6 12 -14 73 -18 135 -5 99 -9 116 -27 130 -11 10 -23 29 -27 45 -4 15 -15 36
-26 47 -11 11 -20 31 -20 44 0 14 -10 37 -23 53 -33 40 -67 109 -67 137 0 12
-11 32 -25 44 -14 12 -25 28 -25 35 0 7 -13 26 -30 42 -23 22 -30 38 -30 67 0
29 -6 41 -24 53 -14 9 -29 30 -35 47 -6 16 -21 38 -34 48 -13 10 -29 36 -35
58 -7 22 -19 45 -27 52 -8 7 -15 21 -15 30 0 10 -11 31 -24 47 -13 15 -29 46
-35 67 -6 22 -20 49 -31 60 -32 32 -80 109 -80 129 0 10 -24 52 -54 95 -30 43
-58 91 -62 107 -4 17 -18 43 -31 58 -12 16 -23 37 -23 48 0 11 -25 50 -55 86
-37 45 -55 76 -55 94 0 15 -5 31 -11 34 -5 4 -22 31 -35 60 -14 30 -32 56 -40
59 -8 3 -14 18 -14 34 0 16 -8 40 -18 53 -10 13 -31 51 -46 84 -15 33 -35 74
-42 90 -8 17 -33 50 -54 73 -22 24 -40 51 -40 60 0 10 -11 35 -25 57 -19 32
-24 54 -25 105 0 46 -6 77 -20 103 -13 24 -20 57 -20 94 -1 45 -8 71 -30 113
-17 30 -30 69 -30 86 0 18 -12 57 -26 88 -25 55 -25 56 -20 270 4 196 6 217
25 243 22 30 23 64 22 646 l-1 207 -25 22 c-14 12 -25 32 -25 44 0 29 -25 54
-54 54 -13 0 -31 8 -40 19 -14 16 -33 19 -124 19 -97 1 -109 -1 -130 -21 -21
-19 -37 -22 -130 -25 -86 -3 -111 -7 -127 -22 -11 -9 -38 -23 -60 -30 -22 -7
-51 -21 -64 -31 -15 -12 -40 -19 -70 -19 -35 0 -53 -6 -75 -25 -16 -14 -39
-25 -52 -25 -14 0 -31 -12 -44 -30 -15 -21 -30 -30 -50 -30 -16 0 -35 -7 -44
-15 -16 -17 -59 -35 -82 -35 -8 0 -28 14 -46 30 l-31 30 -178 0 c-175 0 -178
0 -207 25 l-30 25 -462 0 -462 0 -30 25 c-16 14 -42 25 -58 25 -16 0 -46 11
-66 25 -20 14 -42 25 -49 25 -6 0 -22 11 -35 25 -13 14 -28 25 -34 24 -31 -4
-47 4 -63 31 -12 20 -28 32 -50 36 -20 4 -38 15 -45 28 -6 11 -12 23 -14 25
-2 2 -86 6 -186 8 -143 4 -186 2 -198 -9z m277 -572 c92 -108 93 -110 108
-152 16 -47 13 -137 -6 -160 -8 -9 -32 -28 -54 -42 -22 -13 -51 -35 -65 -48
-36 -33 -74 -46 -94 -31 -14 11 -18 42 -23 202 -10 281 -11 264 21 291 34 30
40 27 113 -60z m2925 -53 c23 -21 23 -41 -2 -141 -12 -47 -17 -93 -14 -111 4
-19 0 -48 -9 -74 -8 -23 -18 -64 -21 -92 -22 -183 -28 -199 -70 -172 -28 19
-33 25 -122 162 -54 82 -65 104 -60 128 3 16 6 49 6 72 0 41 2 43 85 105 47
35 85 66 85 71 0 7 88 69 98 69 3 0 14 -7 24 -17z m-765 -597 c71 -19 180 -95
228 -158 39 -52 67 -120 85 -209 6 -34 5 -59 -6 -94 -7 -27 -14 -67 -14 -89 0
-29 -10 -58 -36 -101 -47 -79 -80 -110 -148 -140 -74 -33 -206 -35 -288 -6
-29 11 -64 22 -78 25 -38 8 -140 91 -178 145 -58 83 -71 245 -28 356 18 48 77
159 95 179 77 87 236 127 368 92z m-1391 -44 c74 -23 122 -58 159 -115 16 -23
36 -53 45 -67 37 -55 54 -131 53 -236 -1 -110 -10 -141 -65 -224 -32 -50 -128
-133 -171 -149 -85 -32 -246 -16 -353 34 -128 61 -193 152 -230 324 -15 70
-16 90 -5 153 7 40 19 84 26 98 8 14 23 43 34 66 20 40 109 109 171 132 44 17
268 6 336 -16z"/>
<path d="M2853 6543 c-54 -56 -98 -130 -123 -206 -9 -29 -9 -53 -1 -101 15
-88 42 -144 93 -193 54 -52 111 -78 211 -94 73 -11 84 -11 147 10 110 36 147
96 161 261 7 91 6 98 -22 165 -49 119 -148 186 -294 200 -33 3 -73 8 -88 10
-24 4 -37 -4 -84 -52z"/>
<path d="M1425 6540 c-16 -11 -48 -25 -71 -31 -39 -10 -42 -14 -67 -77 -37
-97 -40 -113 -28 -189 20 -131 38 -171 99 -229 79 -76 166 -109 282 -106 56 2
93 8 110 18 37 24 94 89 115 131 10 21 22 46 26 55 5 10 9 60 9 112 0 82 -4
103 -29 163 -33 75 -66 114 -126 146 -34 18 -60 22 -165 24 -111 2 -128 0
-155 -17z"/>
</g>
</svg>
