<?xml version="1.0" standalone="no"?>
<!DOCTYPE svg PUBLIC "-//W3C//DTD SVG 20010904//EN"
 "http://www.w3.org/TR/2001/REC-SVG-20010904/DTD/svg10.dtd">
<svg version="1.0" xmlns="http://www.w3.org/2000/svg"
 width="704.000000pt" height="1280.000000pt" viewBox="0 0 704.000000 1280.000000"
 preserveAspectRatio="xMidYMid meet">
<metadata>
Created by potrace 1.16, written by Peter Selinger 2001-2019
</metadata>
<g transform="translate(0.000000,1280.000000) scale(0.100000,-0.100000)"
fill="#000000" stroke="none">
<path d="M4502 10544 c-317 -30 -610 -119 -867 -262 -119 -66 -182 -110 -250
-173 -27 -25 -71 -64 -96 -87 -98 -89 -232 -318 -264 -453 -25 -107 -30 -262
-11 -356 16 -81 75 -235 117 -309 172 -298 548 -545 1004 -659 208 -52 333
-67 604 -73 276 -5 428 8 662 59 430 93 774 288 994 562 113 141 191 331 210
512 12 114 -26 313 -82 432 -75 158 -244 343 -433 475 -170 118 -447 233 -700
292 -243 56 -567 70 -888 40z m713 -163 c66 -11 135 -23 152 -26 76 -14 266
-78 373 -125 350 -156 602 -409 676 -680 28 -102 25 -294 -5 -385 -71 -209
-190 -362 -400 -509 -236 -166 -552 -275 -921 -317 -240 -27 -638 -7 -850 43
-261 62 -506 165 -655 277 -27 21 -59 43 -70 49 -29 15 -161 151 -202 208 -49
69 -97 167 -124 254 -30 97 -33 282 -5 375 46 157 160 323 305 446 141 119
201 157 369 230 168 74 234 97 320 113 43 8 91 20 107 26 17 7 104 20 195 31
217 24 556 20 735 -10z"/>
<path d="M3773 8310 c-44 -10 -76 -33 -110 -77 -24 -31 -28 -45 -28 -103 0
-57 4 -73 29 -108 52 -76 155 -103 236 -62 93 48 131 165 82 256 -19 35 -79
82 -119 93 -42 12 -45 12 -90 1z m118 -111 c78 -84 -18 -217 -119 -165 -60 31
-78 87 -47 146 20 38 41 49 93 50 36 0 49 -5 73 -31z"/>
<path d="M3471 7975 c-44 -38 -56 -82 -35 -134 9 -23 28 -50 42 -61 16 -13 19
-20 10 -20 -8 0 -23 -9 -33 -20 -10 -11 -25 -20 -34 -20 -9 0 -36 -11 -61 -24
-25 -13 -63 -24 -84 -24 -21 -1 -46 -8 -55 -16 -9 -7 -37 -23 -64 -34 -26 -12
-50 -28 -53 -36 -3 -9 -21 -18 -39 -22 -19 -3 -48 -17 -66 -30 -44 -32 -73
-30 -111 6 l-31 30 -173 0 c-178 0 -204 3 -204 25 0 7 -7 16 -16 19 -9 3 -225
6 -481 6 l-465 0 -30 25 c-20 17 -42 25 -66 25 -26 0 -41 6 -49 19 -7 11 -25
22 -41 26 -16 3 -39 17 -51 30 -12 15 -32 25 -47 25 -16 0 -37 11 -53 29 -16
17 -40 33 -55 37 -16 4 -31 17 -36 30 -5 13 -15 24 -22 24 -7 0 -96 1 -197 3
l-183 2 -27 -34 -26 -34 0 -205 c0 -157 -3 -206 -13 -210 -27 -9 -42 -35 -42
-74 0 -32 4 -41 20 -45 11 -3 22 -15 25 -27 9 -41 14 -312 8 -435 -6 -120 -7
-124 -35 -149 -24 -22 -28 -33 -28 -77 0 -42 -5 -56 -25 -75 -22 -20 -24 -31
-24 -103 0 -68 -3 -83 -22 -103 -20 -22 -22 -34 -23 -155 -1 -130 -1 -131 -28
-154 l-28 -24 0 -235 0 -234 -25 -30 c-19 -23 -25 -41 -25 -79 0 -39 -5 -54
-24 -72 -14 -14 -26 -38 -29 -64 -4 -31 -13 -47 -33 -62 -51 -37 -74 -64 -74
-88 0 -21 -25 -61 -72 -118 -7 -8 -22 -32 -32 -52 -11 -20 -23 -37 -27 -37 -4
0 -24 -26 -43 -59 l-36 -59 0 -1425 0 -1426 45 -32 c25 -18 52 -43 60 -56 9
-13 28 -29 43 -36 15 -6 40 -22 55 -34 20 -16 42 -23 71 -23 33 0 52 -7 81
-30 21 -16 48 -30 60 -30 12 0 31 -11 43 -25 19 -21 28 -25 55 -20 38 7 83 -8
115 -38 l24 -22 1583 0 1583 0 34 25 c30 23 44 25 159 30 107 4 130 8 148 24
16 14 43 21 106 26 66 5 93 12 116 29 23 17 46 23 103 25 55 3 80 9 102 24 19
14 55 24 106 31 53 6 86 16 104 30 18 14 41 21 73 21 33 0 57 7 82 24 20 14
52 28 72 31 21 4 48 15 60 25 26 21 131 60 160 60 10 0 30 14 44 30 13 17 30
30 37 30 7 0 28 14 46 30 18 17 44 30 57 30 13 0 34 7 46 15 14 9 68 17 144
23 95 7 127 13 142 26 11 10 42 21 68 23 31 4 57 14 73 29 14 13 52 29 85 37
33 8 88 28 123 46 71 36 162 98 162 111 0 5 8 11 19 15 10 3 31 17 47 31 16
14 52 43 79 64 80 62 207 224 246 315 7 17 24 43 36 58 13 16 23 35 23 44 0 8
11 28 24 44 14 16 30 54 36 86 7 32 19 66 27 75 8 9 19 49 24 90 5 40 17 96
27 123 14 41 17 84 16 235 0 163 -3 192 -21 243 -12 32 -25 97 -29 150 -5 70
-12 102 -30 133 -13 22 -24 48 -24 58 0 9 -12 34 -26 55 -22 34 -30 53 -33 83
-1 3 -12 19 -24 35 -13 15 -28 42 -34 58 -11 30 -49 80 -92 119 -13 11 -44 42
-70 67 -80 79 -172 134 -289 172 -89 28 -271 31 -317 4 -16 -9 -34 -17 -40
-17 -12 0 -52 -31 -113 -86 -38 -34 -48 -52 -58 -95 -6 -30 -18 -69 -25 -87
-13 -30 -11 -40 15 -115 16 -45 40 -95 52 -110 13 -16 24 -34 24 -41 0 -7 33
-44 73 -83 39 -39 80 -87 89 -107 10 -20 22 -36 27 -36 5 0 23 -22 40 -50 17
-27 35 -50 41 -50 5 0 14 -17 20 -39 5 -21 19 -50 31 -65 17 -22 20 -35 15
-79 -3 -29 -10 -89 -14 -133 -7 -76 -11 -86 -52 -140 -24 -33 -47 -60 -51 -62
-4 -2 -13 -20 -20 -40 -13 -42 -74 -122 -93 -122 -7 0 -25 -13 -40 -29 -16
-16 -48 -34 -74 -42 -26 -6 -64 -20 -84 -31 -21 -10 -48 -18 -61 -18 -32 0
-61 33 -54 61 3 12 -1 38 -10 58 -9 21 -19 82 -23 144 -6 90 -10 111 -28 130
-12 13 -22 30 -22 39 0 8 -11 27 -25 42 -14 15 -25 38 -25 51 0 14 -20 57 -45
97 -25 40 -45 80 -45 90 0 18 -46 84 -88 126 -14 14 -22 34 -22 57 0 25 -7 43
-23 58 -13 12 -32 39 -42 60 -10 21 -26 42 -36 48 -11 5 -19 20 -19 33 0 13
-13 40 -30 61 -16 21 -30 43 -30 50 0 6 -11 25 -24 40 -13 16 -27 44 -31 63
-3 19 -15 44 -26 55 -25 27 -79 122 -79 139 0 7 -18 38 -39 69 -50 72 -71 113
-71 137 0 10 -11 28 -24 40 -14 11 -30 39 -36 61 -6 22 -17 44 -25 48 -20 12
-85 100 -85 116 0 8 -11 35 -25 58 -14 24 -25 49 -25 56 0 7 -11 23 -25 37
-14 14 -25 36 -25 48 0 13 -11 40 -25 60 -14 20 -25 42 -25 48 0 7 -8 24 -19
38 -10 15 -21 39 -24 53 -4 15 -26 49 -50 75 -64 72 -107 171 -107 248 0 36
-7 73 -16 91 -8 17 -19 63 -24 104 -5 50 -15 83 -30 103 -12 16 -24 51 -27 81
-3 28 -15 70 -26 92 -18 37 -20 58 -18 269 2 210 3 231 21 256 19 27 20 46 20
437 l0 410 -25 23 c-14 13 -25 33 -25 45 0 25 -18 45 -41 45 -9 0 -28 9 -43
21 -23 18 -44 22 -137 25 -107 4 -111 3 -133 -21 -18 -20 -37 -26 -87 -32
l-64 -6 32 27 c37 31 59 91 49 131 -4 15 -20 40 -36 56 -39 39 -105 41 -149 4z
m-2566 -583 c6 -4 22 -23 35 -42 12 -19 42 -55 65 -80 44 -47 85 -142 85 -196
0 -39 -33 -91 -71 -112 -17 -9 -49 -32 -71 -49 -39 -33 -90 -44 -103 -23 -3 5
-8 92 -12 192 -9 278 -9 268 21 295 29 25 35 27 51 15z m3005 -171 c0 -14 -7
-48 -16 -76 -8 -27 -17 -81 -18 -120 -2 -38 -8 -88 -14 -110 -7 -22 -16 -80
-22 -129 -11 -87 -23 -126 -38 -126 -22 0 -91 65 -92 86 0 6 -15 31 -33 55
-73 96 -82 120 -79 197 l4 71 60 48 c34 26 82 67 108 90 25 23 59 49 75 57 26
14 31 14 47 -1 10 -9 18 -28 18 -42z m-2963 -535 c91 -1 92 -1 128 -36 19 -19
41 -53 47 -75 7 -22 29 -58 49 -79 l37 -39 24 49 c13 27 34 54 48 61 14 7 34
23 45 36 33 40 54 45 184 45 130 0 249 -21 296 -52 14 -9 33 -16 44 -16 11 0
22 -9 26 -19 6 -18 7 -18 43 2 25 13 46 18 62 14 49 -13 55 -23 60 -102 5 -73
4 -75 -17 -75 -13 0 -23 5 -23 10 0 7 -6 7 -20 0 -18 -10 -18 -13 -5 -51 8
-23 15 -52 15 -65 0 -17 6 -24 20 -24 17 0 20 -7 20 -39 0 -29 -5 -40 -18 -43
-13 -4 -19 -16 -20 -49 -5 -89 -86 -211 -188 -281 -153 -106 -507 -6 -570 162
-9 25 -23 54 -30 65 -7 11 -20 59 -30 107 -16 78 -20 86 -36 77 -10 -5 -18
-20 -18 -33 0 -33 -39 -86 -80 -108 -27 -15 -46 -18 -85 -13 -63 8 -82 8 -122
0 -68 -15 -156 44 -169 113 -4 22 -20 48 -40 67 -66 62 -65 161 2 226 19 18
34 40 34 48 0 24 36 78 65 97 32 21 84 33 110 26 11 -3 61 -6 112 -6z m2215
-35 c92 -39 155 -87 198 -151 52 -77 84 -184 76 -255 -21 -174 -24 -192 -47
-228 -48 -76 -84 -110 -147 -138 -87 -39 -202 -41 -310 -4 -91 31 -106 39
-166 89 -76 64 -104 113 -121 207 -8 46 -12 85 -10 88 2 4 6 27 10 51 14 101
89 248 149 293 45 35 92 57 139 67 64 14 176 4 229 -19z"/>
<path d="M914 6536 c-35 -55 8 -166 65 -166 45 0 65 31 57 87 -8 62 -34 97
-74 101 -24 2 -34 -3 -48 -22z"/>
<path d="M1470 6554 c0 -3 11 -15 25 -26 18 -14 25 -29 25 -52 0 -49 -30 -71
-97 -71 -48 0 -58 4 -79 28 -13 15 -24 32 -24 38 0 16 39 10 60 -11 23 -23 58
-26 84 -7 45 33 -27 68 -106 51 -43 -10 -45 -11 -80 -89 -38 -84 -23 -258 30
-348 24 -41 121 -113 183 -136 74 -29 220 -30 265 -2 42 26 98 96 123 155 22
50 29 166 11 166 -5 0 -10 -13 -10 -30 0 -19 -5 -30 -14 -30 -11 0 -14 14 -13
60 1 39 6 60 13 60 7 0 10 -8 7 -20 -6 -24 15 -27 24 -4 9 25 -59 194 -78 194
-5 0 -9 -18 -9 -40 0 -32 -4 -40 -19 -40 -15 0 -19 10 -24 57 -3 31 -13 63
-21 72 -15 14 -16 11 -16 -31 0 -39 -5 -50 -31 -72 -39 -33 -79 -33 -118 0
-33 28 -42 75 -21 115 10 18 7 19 -40 19 -27 0 -50 -3 -50 -6z"/>
<path d="M745 6495 c-27 -26 -30 -43 -15 -94 20 -70 78 -102 113 -63 36 39 10
154 -38 172 -35 13 -32 14 -60 -15z"/>
<path d="M2848 6537 c-51 -59 -98 -139 -118 -200 -15 -49 0 -147 34 -218 34
-69 112 -133 182 -149 27 -7 65 -16 85 -21 20 -5 49 -9 65 -9 50 0 143 35 174
65 42 40 69 130 72 240 2 81 0 96 -26 153 -55 120 -162 181 -331 189 l-90 4
-47 -54z"/>
</g>
</svg>
