<?xml version="1.0" standalone="no"?>
<!DOCTYPE svg PUBLIC "-//W3C//DTD SVG 20010904//EN"
 "http://www.w3.org/TR/2001/REC-SVG-20010904/DTD/svg10.dtd">
<svg version="1.0" xmlns="http://www.w3.org/2000/svg"
 width="704.000000pt" height="1280.000000pt" viewBox="0 0 704.000000 1280.000000"
 preserveAspectRatio="xMidYMid meet">
<metadata>
Created by potrace 1.16, written by Peter Selinger 2001-2019
</metadata>
<g transform="translate(0.000000,1280.000000) scale(0.100000,-0.100000)"
fill="#000000" stroke="none">
<path d="M4550 10555 c-262 -26 -499 -83 -711 -171 -423 -174 -720 -467 -811
-801 -31 -115 -31 -327 1 -438 51 -181 136 -320 283 -465 251 -248 625 -417
1078 -487 148 -23 636 -25 775 -4 296 44 503 104 710 205 228 112 395 240 519
400 229 293 272 634 121 951 -171 358 -587 641 -1115 759 -263 58 -581 77
-850 51z m610 -171 c239 -30 497 -109 692 -211 535 -281 725 -748 481 -1183
-62 -110 -211 -262 -342 -349 -228 -151 -520 -252 -854 -296 -138 -18 -488
-20 -635 -5 -590 63 -1077 332 -1255 691 -150 305 -82 647 179 901 94 90 114
106 229 178 384 243 947 345 1505 274z"/>
<path d="M4150 10056 c-153 -45 -262 -161 -309 -331 -19 -68 -14 -217 10 -288
43 -127 132 -269 238 -379 80 -83 263 -245 336 -298 187 -134 285 -200 298
-200 27 0 262 167 467 332 157 127 341 352 394 484 57 140 58 295 5 427 -26
64 -44 90 -93 138 -114 111 -248 150 -410 119 -120 -22 -277 -150 -330 -268
-10 -23 -22 -42 -26 -42 -4 0 -22 30 -40 67 -44 89 -111 152 -217 204 -77 38
-91 41 -181 45 -62 2 -113 -1 -142 -10z m91 -157 c37 -26 37 -51 0 -81 -15
-12 -47 -38 -71 -57 -23 -19 -55 -58 -71 -87 -17 -29 -35 -54 -42 -56 -24 -9
-62 8 -76 34 -13 22 -13 33 3 90 21 77 63 133 120 159 54 24 101 24 137 -2z"/>
<path d="M3780 8311 c-90 -28 -141 -85 -148 -166 -9 -106 63 -193 167 -203
145 -14 250 139 185 269 -19 39 -78 86 -121 98 -43 12 -48 12 -83 2z m75 -85
c38 -16 65 -60 65 -105 0 -37 -41 -88 -79 -96 -41 -9 -96 17 -115 54 -38 73
-3 134 92 160 1 1 18 -5 37 -13z"/>
<path d="M3468 7973 c-57 -60 -57 -123 -1 -179 21 -22 28 -34 19 -34 -9 0 -20
-9 -26 -21 -7 -11 -14 -18 -17 -16 -7 8 -65 -13 -85 -30 -9 -8 -40 -17 -69
-20 -36 -3 -63 -13 -82 -29 -16 -13 -37 -24 -48 -24 -10 0 -29 -11 -41 -25
-12 -14 -37 -28 -57 -31 -20 -4 -46 -18 -58 -30 -31 -34 -75 -31 -115 6 l-31
30 -179 0 c-178 0 -178 0 -200 25 l-22 25 -474 0 -474 0 -20 25 c-14 17 -29
25 -52 25 -19 0 -46 10 -66 25 -19 14 -39 25 -46 25 -7 0 -26 11 -42 25 -17
14 -41 25 -55 25 -16 0 -33 12 -51 35 -18 23 -35 35 -51 35 -16 0 -28 9 -37
28 l-13 27 -165 1 c-213 1 -225 -1 -253 -40 -21 -29 -22 -40 -22 -233 l0 -201
-28 -22 c-24 -19 -28 -28 -25 -64 2 -30 8 -43 24 -50 19 -9 22 -20 28 -115 3
-58 3 -186 1 -285 l-6 -178 -29 -28 c-25 -23 -30 -36 -30 -75 0 -36 -6 -54
-25 -77 -22 -26 -25 -39 -25 -112 0 -69 -3 -86 -19 -100 -16 -15 -20 -35 -23
-146 -3 -125 -4 -130 -30 -157 l-28 -29 0 -232 0 -231 -27 -26 c-25 -22 -28
-32 -26 -77 2 -44 -2 -57 -22 -78 -15 -16 -25 -40 -27 -65 -3 -33 -9 -43 -43
-66 -41 -28 -59 -53 -69 -99 -3 -14 -23 -46 -46 -70 -22 -25 -40 -49 -40 -54
0 -5 -22 -38 -49 -75 -26 -36 -53 -76 -60 -88 -8 -16 -11 -404 -11 -1447 l0
-1426 38 -24 c21 -13 51 -40 66 -59 16 -20 40 -38 55 -42 14 -3 37 -17 51 -29
16 -15 42 -25 73 -29 34 -3 57 -13 76 -31 15 -15 39 -26 53 -26 16 0 33 -9 42
-21 11 -16 28 -22 73 -26 38 -3 65 -12 79 -24 17 -16 46 -20 225 -29 265 -13
2475 -13 2772 0 205 9 232 12 254 30 23 18 41 20 153 20 119 0 129 1 152 23
21 20 41 25 109 31 65 5 89 12 106 28 19 18 37 22 99 24 59 2 83 7 104 22 17
13 57 25 105 31 43 6 92 20 109 30 17 10 55 21 85 24 34 4 62 14 76 27 11 11
43 24 69 29 27 5 52 14 56 21 8 13 135 60 162 60 10 0 33 16 52 35 20 19 40
35 45 35 6 0 22 11 37 25 15 14 35 25 46 25 10 0 29 7 41 14 14 10 69 18 154
24 105 7 137 12 152 26 11 10 42 22 68 27 26 5 57 18 69 30 12 11 53 27 90 36
38 9 81 24 95 34 15 10 37 23 51 28 80 30 416 318 418 357 0 6 7 17 16 25 8 7
25 30 37 52 12 21 34 60 49 86 15 25 37 66 49 91 12 24 28 50 35 58 7 7 18 32
24 55 7 23 20 60 30 82 11 22 22 60 26 85 3 25 17 94 31 154 24 100 25 121 20
270 -4 139 -8 167 -27 205 -16 32 -23 69 -27 140 -4 73 -11 107 -28 141 -13
25 -31 64 -41 88 -9 23 -20 42 -24 42 -4 0 -10 14 -14 32 -3 17 -17 45 -30 63
-13 17 -31 47 -39 66 -16 38 -146 175 -222 235 -116 90 -254 138 -400 138
-100 1 -145 -13 -231 -69 -74 -49 -110 -94 -118 -148 -4 -24 -13 -53 -21 -63
-8 -11 -15 -38 -15 -62 0 -40 9 -65 53 -147 9 -16 23 -43 31 -60 8 -16 46 -61
86 -99 39 -38 80 -86 90 -106 11 -21 26 -40 34 -43 8 -3 25 -24 36 -47 11 -23
27 -43 35 -47 8 -3 20 -24 26 -46 6 -23 20 -54 31 -70 16 -22 19 -37 14 -70
-3 -23 -10 -76 -15 -117 -11 -92 -18 -109 -75 -185 -25 -33 -46 -66 -46 -73 0
-24 -62 -101 -114 -141 -47 -36 -160 -84 -229 -98 -37 -7 -67 20 -67 62 0 18
-7 52 -15 75 -9 26 -15 78 -15 131 0 75 -3 92 -20 109 -11 11 -26 36 -34 55
-9 20 -22 43 -31 51 -8 9 -15 25 -15 38 0 12 -11 37 -25 56 -14 19 -25 38 -25
43 0 5 -9 20 -20 34 -11 14 -20 37 -20 50 0 25 -29 68 -82 123 -21 21 -28 38
-28 68 0 28 -6 45 -19 54 -10 7 -25 27 -34 44 -9 18 -30 46 -47 62 -16 17 -30
39 -30 50 0 11 -8 30 -18 43 -10 13 -24 38 -31 56 -7 17 -21 39 -32 49 -10 9
-19 27 -19 38 0 23 -7 35 -67 126 -24 35 -43 72 -43 82 0 11 -9 32 -20 46 -65
85 -90 124 -90 141 0 10 -13 35 -30 56 -16 21 -30 45 -30 55 0 9 -22 45 -50
78 -27 34 -53 78 -59 97 -5 19 -17 42 -26 51 -9 9 -18 29 -21 44 -3 15 -17 40
-30 55 -13 16 -24 39 -24 53 0 13 -11 37 -25 54 -14 16 -25 38 -25 47 0 10 -9
29 -19 43 -11 13 -23 36 -26 49 -3 14 -28 51 -56 83 -27 32 -49 66 -49 77 0
11 -11 37 -25 57 -20 29 -25 49 -25 100 0 41 -6 75 -19 100 -10 20 -21 66 -23
102 -4 44 -14 82 -32 115 -14 28 -26 65 -26 83 0 18 -12 55 -26 83 l-25 51 6
221 c6 196 9 225 26 249 18 26 19 50 19 436 0 367 -2 411 -16 423 -9 8 -25 32
-34 55 -15 35 -24 43 -54 48 -19 4 -39 14 -44 23 -7 12 -32 16 -114 20 -100 3
-107 2 -134 -20 -21 -17 -47 -26 -92 -30 l-62 -7 34 31 c64 56 57 157 -14 194
-48 25 -102 20 -132 -12z m-2547 -605 c6 -13 40 -52 74 -88 65 -68 81 -101 91
-190 7 -57 -19 -101 -74 -129 -21 -11 -44 -27 -52 -36 -34 -41 -103 -58 -114
-28 -7 16 -20 352 -17 418 3 66 66 102 92 53z m2977 -110 c16 -16 15 -57 -4
-109 -8 -24 -17 -80 -18 -124 -2 -45 -8 -91 -15 -102 -6 -12 -11 -37 -11 -55
0 -50 -27 -189 -38 -200 -6 -6 -18 -7 -28 -4 -20 7 -32 22 -124 161 l-60 90 0
75 0 76 118 101 c117 102 152 119 180 91z m-2965 -549 c21 -6 55 -25 75 -43
20 -19 51 -37 69 -40 53 -12 100 -78 115 -161 3 -15 12 -7 37 38 18 31 36 57
41 57 4 0 26 18 49 41 46 46 95 62 144 48 18 -5 58 -7 90 -3 65 7 177 -15 239
-47 20 -10 46 -19 57 -19 11 0 22 -9 26 -19 6 -18 7 -18 43 2 25 13 46 18 62
14 49 -13 55 -23 60 -102 5 -72 4 -75 -17 -75 -12 0 -23 4 -25 10 -2 5 -9 6
-17 1 -21 -13 6 -132 31 -139 23 -6 26 -82 4 -82 -10 0 -17 -16 -21 -47 -4
-27 -11 -61 -17 -78 -20 -54 -82 -132 -145 -182 -52 -42 -71 -51 -131 -62
-132 -24 -294 20 -397 105 -52 44 -103 140 -125 236 l-15 67 -44 -29 c-24 -17
-53 -30 -63 -30 -11 0 -38 -16 -61 -35 -68 -59 -150 -59 -215 -1 -20 18 -53
38 -72 45 -82 28 -131 113 -110 192 8 29 8 49 0 74 -25 74 37 175 115 189 22
4 52 19 66 33 15 13 44 31 65 38 48 17 41 17 87 4z m2202 -49 c185 -64 299
-213 298 -390 0 -122 -18 -203 -56 -267 -45 -75 -69 -96 -140 -127 -174 -77
-456 14 -553 179 -34 60 -59 185 -45 228 6 16 11 40 11 52 0 32 43 136 81 193
84 129 253 184 404 132z"/>
<path d="M914 6536 c-35 -55 8 -166 65 -166 45 0 65 31 57 87 -8 62 -34 97
-74 101 -24 2 -34 -3 -48 -22z"/>
<path d="M1470 6554 c0 -3 11 -15 25 -26 18 -14 25 -29 25 -52 0 -49 -30 -71
-97 -71 -48 0 -58 4 -79 29 -14 15 -23 33 -21 40 6 16 35 8 58 -15 22 -22 57
-25 83 -6 25 18 10 45 -30 53 -28 5 -124 -2 -124 -9 0 -1 -11 -33 -25 -72 -32
-91 -33 -194 -4 -291 19 -59 30 -77 78 -122 75 -71 139 -95 263 -100 87 -3
102 -1 133 18 41 26 94 88 124 147 22 45 31 173 11 173 -5 0 -10 -13 -10 -30
0 -19 -5 -30 -14 -30 -12 0 -14 14 -13 63 1 37 6 60 12 57 6 -3 9 -13 9 -23
-2 -22 20 -17 24 6 4 22 -46 148 -69 172 -19 19 -19 19 -19 -23 0 -34 -3 -42
-19 -42 -15 0 -19 11 -25 62 -8 77 -30 98 -34 33 -6 -84 -89 -122 -151 -69
-33 28 -42 75 -21 115 10 18 7 19 -40 19 -27 0 -50 -3 -50 -6z"/>
<path d="M745 6495 c-27 -26 -30 -43 -15 -94 20 -70 78 -102 113 -63 33 36 12
148 -31 171 -30 16 -40 14 -67 -14z"/>
<path d="M2855 6544 c-28 -31 -71 -94 -95 -139 -40 -79 -42 -87 -36 -142 12
-100 42 -168 99 -219 68 -61 88 -70 199 -90 94 -17 96 -16 161 5 43 15 75 33
91 52 38 44 63 125 69 223 6 84 5 92 -25 155 -30 65 -84 126 -129 147 -78 36
-107 45 -162 50 -34 3 -75 7 -91 10 -25 3 -36 -4 -81 -52z"/>
</g>
</svg>
