<?xml version="1.0" standalone="no"?>
<!DOCTYPE svg PUBLIC "-//W3C//DTD SVG 20010904//EN"
 "http://www.w3.org/TR/2001/REC-SVG-20010904/DTD/svg10.dtd">
<svg version="1.0" xmlns="http://www.w3.org/2000/svg"
 width="704.000000pt" height="1280.000000pt" viewBox="0 0 704.000000 1280.000000"
 preserveAspectRatio="xMidYMid meet">
<metadata>
Created by potrace 1.16, written by Peter Selinger 2001-2019
</metadata>
<g transform="translate(0.000000,1280.000000) scale(0.100000,-0.100000)"
fill="#000000" stroke="none">
<path d="M4630 10630 c-497 -36 -906 -184 -1215 -441 -115 -95 -236 -239 -288
-344 -13 -27 -40 -93 -58 -145 -31 -89 -33 -105 -37 -252 -4 -147 -2 -164 22
-250 105 -365 396 -643 862 -824 389 -150 918 -195 1379 -118 221 37 484 117
634 194 245 124 452 298 581 490 137 202 181 481 114 719 -23 80 -104 238
-167 323 -144 195 -446 409 -710 504 -326 118 -741 171 -1117 144z m558 -176
c337 -44 604 -137 831 -288 239 -160 367 -312 440 -525 27 -78 38 -237 23
-331 -43 -273 -258 -523 -602 -699 -211 -107 -401 -165 -705 -212 -130 -21
-585 -18 -720 4 -270 43 -446 93 -610 173 -142 68 -205 107 -307 188 -195 157
-296 321 -334 542 -29 168 -8 299 71 459 56 113 112 185 217 275 210 181 439
295 734 370 73 18 319 53 444 63 90 8 405 -4 518 -19z"/>
<path d="M3786 8355 c-57 -20 -87 -45 -114 -96 -47 -88 -12 -191 84 -247 56
-33 147 -28 199 12 53 41 75 82 75 143 0 91 -37 149 -118 184 -51 22 -73 23
-126 4z m103 -79 c38 -20 61 -58 61 -102 0 -45 -53 -104 -95 -104 -41 0 -94
29 -110 61 -29 55 -12 103 49 140 37 23 58 24 95 5z"/>
<path d="M3513 8040 c-29 -12 -63 -67 -63 -103 0 -34 20 -75 49 -101 l21 -19
-27 -29 c-15 -15 -33 -28 -40 -28 -7 0 -13 -4 -13 -10 0 -5 -9 -10 -21 -10
-11 0 -28 -4 -38 -9 -10 -6 -40 -12 -67 -16 -31 -4 -57 -14 -74 -29 -14 -13
-40 -27 -57 -31 -18 -3 -41 -17 -50 -29 -11 -13 -34 -25 -55 -29 -20 -3 -46
-15 -58 -27 -29 -29 -85 -22 -117 15 l-22 25 -195 0 c-191 0 -195 0 -211 23
l-15 22 -448 2 c-466 2 -504 5 -544 45 -10 10 -30 18 -45 18 -14 0 -34 7 -43
15 -31 28 -115 68 -155 74 -30 5 -43 12 -53 33 -7 16 -24 31 -38 34 -13 3 -33
19 -44 34 l-20 28 -186 -1 -186 -1 -29 -37 -29 -37 0 -200 c0 -159 -3 -203
-14 -209 -17 -10 -36 -47 -36 -69 0 -10 11 -34 25 -54 l25 -36 0 -266 c0 -145
-2 -272 -5 -280 -3 -8 -17 -20 -29 -26 -20 -9 -24 -19 -28 -75 -3 -53 -8 -68
-32 -91 -26 -27 -27 -31 -21 -91 7 -58 5 -66 -19 -97 -24 -32 -25 -40 -27
-174 -1 -133 -2 -141 -22 -150 -20 -8 -22 -19 -28 -129 -4 -66 -7 -178 -8
-248 -1 -123 -2 -129 -26 -151 -20 -19 -25 -33 -25 -73 0 -36 -6 -58 -21 -78
-20 -24 -24 -37 -28 -86 0 -9 -26 -35 -56 -58 -46 -35 -56 -48 -61 -82 -6 -38
-32 -78 -82 -127 -12 -13 -25 -36 -29 -52 -3 -17 -9 -30 -14 -30 -4 0 -24 -21
-44 -46 l-35 -47 0 -1441 0 -1441 47 -35 c25 -19 51 -44 57 -55 16 -29 38 -44
63 -45 13 0 30 -11 39 -25 14 -21 24 -25 65 -25 41 0 54 -5 81 -30 17 -17 41
-30 54 -30 12 0 36 -11 52 -25 23 -19 41 -25 80 -25 35 0 57 -6 75 -20 19 -15
49 -23 104 -28 43 -4 764 -7 1603 -7 l1525 0 30 21 c25 18 51 22 159 28 117 7
132 9 159 32 25 21 38 24 107 24 71 0 82 3 102 24 19 20 36 25 108 31 65 5 90
11 106 26 16 15 48 24 112 33 52 7 99 19 109 28 10 8 47 19 83 22 49 5 69 12
81 28 13 16 27 21 57 20 29 -1 49 5 69 21 29 24 94 51 149 62 17 3 45 21 62
40 17 19 37 35 45 35 7 0 22 9 31 19 10 11 32 23 49 27 18 4 42 13 55 22 15
10 57 16 125 19 83 4 111 9 149 29 26 13 64 24 83 24 40 0 66 11 95 40 10 10
38 21 62 25 71 11 280 135 387 229 82 73 182 179 198 211 9 16 33 52 53 80 21
27 41 59 44 71 3 11 15 30 26 41 10 12 26 36 34 54 8 19 21 45 29 59 8 14 20
48 26 75 7 28 20 66 30 85 10 20 22 56 26 80 4 25 15 74 26 109 16 53 19 95
19 254 0 169 -2 195 -20 231 -20 42 -39 150 -40 221 0 39 -58 174 -87 204 -8
7 -16 26 -19 41 -3 15 -17 40 -30 55 -13 15 -29 43 -36 61 -7 19 -15 34 -20
34 -4 0 -14 12 -22 28 -24 42 -134 154 -206 207 -44 33 -96 59 -165 83 -87 30
-113 35 -200 36 -140 1 -206 -25 -307 -123 -42 -39 -48 -51 -48 -86 0 -23 -9
-54 -21 -74 -15 -25 -19 -43 -14 -70 9 -54 40 -139 57 -159 9 -9 19 -28 23
-41 4 -13 30 -48 59 -77 28 -29 65 -69 81 -90 17 -20 44 -50 61 -68 17 -17 39
-45 48 -63 9 -18 25 -37 35 -43 13 -7 22 -26 27 -58 3 -26 15 -57 26 -69 16
-17 19 -30 14 -65 -4 -24 -9 -74 -12 -113 -7 -97 -10 -107 -39 -141 -15 -16
-32 -41 -40 -55 -8 -15 -21 -29 -29 -32 -8 -3 -19 -23 -26 -44 -20 -63 -151
-183 -200 -183 -12 0 -44 -11 -72 -25 -93 -47 -132 -32 -135 51 -1 32 -7 60
-13 64 -13 8 -31 163 -23 202 4 20 -1 32 -21 49 -14 12 -26 31 -26 40 0 10
-11 30 -25 45 -14 15 -25 39 -25 54 0 15 -11 40 -25 56 -14 16 -25 36 -25 45
0 9 -6 22 -14 28 -7 6 -16 27 -19 47 -3 19 -15 45 -26 57 -69 78 -87 105 -90
137 -2 19 -11 41 -20 50 -30 27 -103 143 -113 179 -6 20 -19 42 -29 49 -11 7
-19 19 -19 26 0 7 -12 31 -26 52 -15 21 -31 53 -35 70 -5 16 -18 40 -29 52
-11 11 -20 25 -20 29 0 5 -11 25 -25 45 -14 20 -25 44 -25 52 0 8 -11 28 -25
44 -14 17 -25 33 -25 37 0 5 -11 23 -25 41 -13 17 -29 50 -34 73 -5 22 -22 56
-39 75 -17 19 -33 45 -37 57 -4 12 -27 46 -50 75 -24 29 -46 63 -50 76 -4 13
-16 33 -26 46 -10 13 -23 40 -30 60 -6 20 -20 48 -30 61 -11 13 -19 33 -19 45
0 12 -9 31 -19 43 -10 11 -34 53 -51 94 -28 64 -70 132 -91 149 -4 3 -25 43
-48 89 -36 72 -41 92 -41 150 0 48 -5 75 -20 98 -11 19 -22 61 -26 100 -4 43
-15 83 -30 109 -14 23 -24 57 -24 78 0 20 -11 62 -26 91 l-25 54 6 217 c5 187
9 223 26 255 18 36 19 63 19 442 l0 404 -24 22 c-13 13 -27 38 -30 56 -6 29
-12 35 -42 41 -20 4 -45 16 -57 28 -19 18 -33 21 -107 20 -119 -2 -114 -1
-145 -28 -23 -20 -44 -26 -111 -31 -45 -4 -88 -5 -96 -2 -7 3 2 6 21 6 51 1
111 65 111 117 0 40 -22 84 -56 109 -21 16 -77 18 -111 5z m-2575 -642 c17
-24 53 -67 80 -97 56 -61 73 -107 73 -188 0 -60 -14 -84 -66 -110 -16 -9 -45
-29 -63 -44 -18 -16 -45 -35 -61 -44 -59 -30 -64 -8 -65 301 -1 165 1 184 18
203 28 31 49 26 84 -21z m2989 -109 c10 -21 9 -40 -7 -108 -11 -45 -20 -102
-20 -126 0 -24 -4 -65 -9 -92 -6 -26 -14 -77 -20 -113 -5 -36 -13 -82 -16
-102 -7 -44 -36 -59 -65 -33 -18 16 -100 131 -100 140 0 3 -16 25 -35 51 -37
48 -41 74 -29 168 6 43 11 50 73 95 36 26 77 60 91 75 36 39 92 77 110 74 8
-2 20 -15 27 -29z m-769 -589 c90 -32 185 -103 231 -174 22 -34 43 -74 46 -91
4 -16 13 -47 21 -68 18 -47 18 -81 0 -132 -8 -22 -17 -66 -21 -97 -11 -85 -79
-181 -160 -224 -56 -31 -67 -33 -163 -33 -137 -1 -216 23 -318 99 -65 49 -122
134 -131 197 -20 136 4 258 74 375 56 94 135 145 248 158 98 12 113 11 173
-10z m-1382 -49 c66 -29 114 -79 169 -175 63 -111 79 -208 54 -328 -14 -63
-77 -175 -116 -203 -15 -11 -44 -35 -65 -53 -30 -27 -50 -35 -109 -44 -106
-16 -225 3 -301 48 -33 19 -62 34 -67 34 -17 0 -81 79 -108 135 -16 33 -40
100 -52 149 -23 88 -24 89 -6 173 30 142 69 194 210 281 14 8 66 11 180 9 141
-3 166 -6 211 -26z"/>
<path d="M2871 6578 c-36 -36 -66 -80 -94 -137 -37 -80 -39 -88 -34 -152 13
-154 114 -273 254 -300 110 -21 150 -21 202 -4 71 23 100 50 132 122 26 56 29
74 29 165 0 113 -14 157 -77 235 -60 75 -135 107 -274 117 l-85 7 -53 -53z"/>
<path d="M1450 6579 c-30 -11 -73 -27 -95 -34 -36 -11 -42 -18 -64 -76 -34
-88 -37 -169 -12 -269 23 -93 23 -92 74 -146 36 -39 70 -60 160 -98 49 -21
197 -22 236 -1 40 20 114 106 140 160 33 69 30 212 -5 302 -32 81 -62 116
-129 151 -42 22 -66 26 -150 29 -83 3 -109 0 -155 -18z"/>
</g>
</svg>
