<?xml version="1.0" standalone="no"?>
<!DOCTYPE svg PUBLIC "-//W3C//DTD SVG 20010904//EN"
 "http://www.w3.org/TR/2001/REC-SVG-20010904/DTD/svg10.dtd">
<svg version="1.0" xmlns="http://www.w3.org/2000/svg"
 width="704.000000pt" height="1280.000000pt" viewBox="0 0 704.000000 1280.000000"
 preserveAspectRatio="xMidYMid meet">
<metadata>
Created by potrace 1.16, written by Peter Selinger 2001-2019
</metadata>
<g transform="translate(0.000000,1280.000000) scale(0.100000,-0.100000)"
fill="#000000" stroke="none">
<path d="M4715 10563 c-584 -20 -1086 -206 -1400 -517 -159 -158 -263 -337
-296 -506 -19 -102 -14 -301 9 -391 127 -480 634 -839 1347 -951 189 -30 622
-32 815 -5 430 61 784 208 1045 434 244 211 364 455 365 744 0 253 -91 459
-295 664 -131 132 -245 211 -440 305 -268 130 -530 196 -875 220 -80 5 -156 9
-170 8 -14 -1 -61 -3 -105 -5z m440 -179 c635 -79 1153 -422 1260 -835 23 -89
29 -197 16 -290 -58 -392 -458 -730 -1026 -864 -213 -50 -311 -60 -610 -60
-292 0 -373 8 -585 56 -623 142 -1038 525 -1040 961 -2 686 917 1164 1985
1032z"/>
<path d="M3730 8291 c-55 -29 -92 -82 -98 -140 -6 -68 2 -95 46 -143 62 -69
137 -86 217 -49 49 22 68 43 95 104 38 85 -3 186 -92 233 -39 20 -126 18 -168
-5z m148 -77 c30 -20 54 -77 46 -109 -8 -34 -69 -85 -100 -85 -60 0 -114 51
-114 108 0 88 92 135 168 86z"/>
<path d="M3464 7966 c-29 -29 -34 -41 -34 -81 0 -42 5 -52 39 -86 21 -22 33
-39 25 -39 -7 0 -18 -8 -23 -19 -9 -15 -53 -36 -63 -30 -2 1 -22 -8 -45 -20
-23 -11 -59 -21 -79 -21 -24 0 -49 -9 -70 -25 -18 -14 -43 -25 -56 -25 -13 0
-36 -13 -51 -30 -17 -18 -39 -30 -54 -30 -14 0 -38 -11 -54 -24 -35 -30 -85
-27 -114 6 -19 22 -25 23 -201 23 -180 0 -182 0 -201 24 l-19 24 -454 -2
c-472 -1 -511 2 -538 41 -7 10 -25 18 -41 18 -16 0 -44 13 -66 30 -21 17 -46
30 -56 30 -10 0 -22 7 -27 16 -5 8 -28 18 -51 21 -33 5 -45 12 -57 34 -8 16
-21 30 -29 30 -8 1 -19 2 -24 3 -5 0 -21 13 -36 29 l-28 27 -190 -2 c-178 -3
-191 -4 -201 -23 -6 -11 -15 -23 -21 -27 -5 -4 -8 -87 -6 -206 2 -174 0 -200
-14 -212 -47 -39 -58 -111 -21 -135 21 -14 24 -25 30 -123 9 -154 9 -224 1
-342 -6 -89 -11 -109 -30 -130 -16 -18 -24 -41 -27 -83 -4 -43 -11 -64 -29
-83 -21 -23 -24 -35 -24 -104 0 -67 -3 -82 -22 -102 -22 -23 -23 -33 -23 -159
0 -134 0 -136 -25 -149 -25 -13 -25 -16 -26 -139 -3 -339 -4 -350 -33 -380
-21 -22 -26 -37 -26 -77 0 -38 -6 -58 -25 -84 -14 -20 -25 -47 -25 -66 0 -26
-7 -37 -33 -53 -46 -28 -77 -64 -83 -96 -3 -15 -18 -44 -34 -64 -15 -20 -41
-58 -56 -86 -15 -27 -38 -58 -51 -68 -12 -10 -23 -24 -23 -31 0 -7 -9 -21 -20
-31 -20 -18 -20 -31 -20 -1451 l0 -1433 38 -22 c21 -12 51 -40 66 -61 17 -24
39 -41 56 -45 16 -3 39 -16 51 -29 17 -19 33 -24 69 -24 38 0 51 -5 75 -30 18
-19 39 -30 55 -30 15 0 34 -8 44 -19 11 -12 37 -20 78 -25 44 -4 69 -13 86
-29 l24 -22 1596 0 1597 0 30 22 c26 19 46 22 158 26 114 3 129 6 142 24 11
16 30 21 102 27 64 5 93 11 108 25 15 14 42 20 102 24 70 4 88 9 114 31 17 14
36 26 42 26 43 1 152 22 170 34 12 7 48 17 81 20 41 5 67 14 88 31 18 16 42
25 63 25 18 0 39 7 46 16 19 23 116 64 151 64 19 0 41 11 63 33 80 75 97 87
119 87 13 0 37 7 54 16 19 9 73 17 139 21 85 5 118 11 155 29 26 13 58 24 71
24 13 0 42 12 63 26 21 15 66 33 99 42 89 22 251 117 345 202 19 18 53 45 75
60 71 50 175 182 237 302 12 23 29 50 36 58 8 8 21 30 29 49 9 20 24 46 34 60
10 13 19 37 19 53 0 17 11 53 25 80 14 27 28 68 31 91 4 23 15 76 26 117 11
41 22 118 25 170 6 106 -11 299 -28 332 -7 12 -18 73 -25 136 -14 124 -21 152
-34 152 -5 0 -15 19 -21 43 -7 23 -18 49 -25 57 -7 8 -21 38 -31 65 -44 113
-188 285 -323 383 -72 53 -85 59 -215 98 -143 42 -271 26 -377 -48 -85 -59
-118 -103 -118 -159 0 -17 -10 -47 -21 -66 l-21 -34 28 -87 c15 -48 41 -102
56 -120 15 -18 28 -36 28 -41 0 -4 34 -41 75 -82 41 -41 75 -80 75 -86 0 -7
16 -30 35 -50 19 -20 35 -42 35 -48 0 -6 14 -24 30 -40 19 -19 33 -43 37 -68
3 -21 17 -52 31 -69 25 -29 25 -32 12 -77 -7 -25 -16 -81 -20 -123 -6 -68 -11
-84 -45 -134 -21 -31 -45 -58 -51 -61 -7 -3 -18 -21 -25 -41 -7 -21 -24 -52
-38 -70 -37 -47 -139 -122 -166 -122 -12 0 -43 -11 -69 -25 -53 -28 -70 -30
-106 -12 -20 10 -25 21 -27 55 -1 24 -7 50 -14 59 -9 10 -16 57 -19 129 -5
103 -8 115 -28 130 -12 8 -22 24 -22 34 0 10 -11 32 -25 48 -14 17 -25 40 -25
52 0 23 -16 57 -37 78 -7 7 -13 19 -13 26 0 8 -7 19 -15 26 -8 7 -15 26 -15
42 0 29 -11 46 -87 137 -22 25 -33 49 -33 69 0 20 -10 43 -30 65 -16 19 -30
39 -30 43 -1 5 -14 25 -30 44 -17 19 -30 42 -30 51 0 9 -13 33 -30 54 -16 21
-30 44 -30 51 0 8 -9 22 -20 32 -11 9 -25 34 -31 54 -5 20 -21 50 -34 66 -14
17 -25 34 -25 40 0 5 -9 21 -21 36 -11 14 -25 41 -30 59 -5 18 -18 43 -29 55
-11 11 -20 24 -20 28 0 4 -11 21 -24 38 -13 17 -27 47 -31 66 -4 19 -19 51
-35 70 -15 19 -31 46 -35 60 -4 14 -26 50 -49 80 -23 30 -59 89 -80 130 -21
41 -47 87 -57 102 -11 14 -19 35 -19 45 0 11 -11 34 -25 53 -14 19 -25 39 -25
46 0 20 -66 141 -100 184 -60 76 -91 149 -100 238 -5 46 -15 93 -23 105 -8 13
-18 56 -22 97 -4 41 -15 91 -25 110 -9 19 -20 54 -24 78 -3 24 -18 66 -32 93
l-26 50 7 217 c6 188 10 221 26 248 18 29 19 56 19 440 0 407 0 408 -22 431
-12 13 -27 38 -33 56 -7 22 -19 35 -40 42 -16 5 -36 17 -42 26 -10 14 -33 17
-125 18 -108 1 -113 0 -140 -26 -23 -22 -38 -27 -90 -29 l-63 -2 28 20 c31 23
57 67 57 98 0 36 -31 90 -61 105 -49 26 -97 19 -135 -19z m-2540 -597 c14 -17
26 -35 26 -40 0 -5 24 -36 54 -68 54 -59 86 -129 86 -188 0 -47 -27 -91 -69
-112 -22 -12 -43 -25 -46 -31 -10 -16 -82 -60 -99 -60 -31 0 -37 30 -43 202
-10 285 -11 273 16 302 32 34 44 33 75 -5z m2970 -118 c16 -30 15 -43 -4 -107
-7 -22 -16 -79 -20 -129 -13 -137 -46 -335 -58 -347 -23 -23 -90 50 -156 167
-9 17 -27 44 -39 60 -19 26 -22 41 -19 103 l4 73 61 47 c33 26 78 64 99 84 39
37 97 78 110 78 4 0 14 -13 22 -29z m-729 -597 c65 -30 163 -105 189 -144 39
-59 62 -111 81 -183 15 -54 16 -72 6 -93 -6 -14 -16 -60 -22 -102 -7 -51 -19
-90 -35 -114 -13 -21 -24 -41 -24 -46 0 -17 -68 -71 -121 -96 -48 -22 -70 -26
-149 -26 -172 0 -315 71 -401 200 -46 68 -55 119 -50 278 1 13 10 43 21 67 11
24 20 46 20 49 0 3 20 37 44 75 76 117 170 164 321 157 51 -2 95 -10 120 -22z
m-1540 -18 c153 -6 227 -54 312 -201 48 -82 69 -182 59 -278 -9 -81 -12 -91
-57 -162 -35 -57 -84 -101 -167 -152 -50 -30 -147 -38 -244 -19 -77 15 -195
72 -247 119 -42 39 -91 163 -118 301 -7 37 25 194 47 226 10 14 24 37 33 52
40 65 165 127 245 122 26 -2 88 -5 137 -8z"/>
<path d="M2904 6587 c-69 -39 -172 -198 -181 -281 -6 -48 20 -156 49 -206 21
-38 109 -113 148 -128 14 -5 62 -15 107 -22 73 -12 89 -11 146 4 42 11 74 27
91 45 75 78 103 282 53 391 -27 59 -63 103 -112 137 -63 44 -260 83 -301 60z"/>
<path d="M1435 6543 c-16 -9 -52 -24 -79 -33 -47 -16 -49 -17 -72 -86 -30 -85
-32 -156 -10 -255 22 -95 41 -127 111 -182 72 -57 138 -77 250 -77 106 0 136
15 196 97 59 80 69 110 69 213 0 79 -4 101 -30 164 -33 80 -68 115 -152 154
-62 29 -235 31 -283 5z"/>
</g>
</svg>
