<?xml version="1.0" standalone="no"?>
<!DOCTYPE svg PUBLIC "-//W3C//DTD SVG 20010904//EN"
 "http://www.w3.org/TR/2001/REC-SVG-20010904/DTD/svg10.dtd">
<svg version="1.0" xmlns="http://www.w3.org/2000/svg"
 width="704.000000pt" height="1280.000000pt" viewBox="0 0 704.000000 1280.000000"
 preserveAspectRatio="xMidYMid meet">
<metadata>
Created by potrace 1.16, written by Peter Selinger 2001-2019
</metadata>
<g transform="translate(0.000000,1280.000000) scale(0.100000,-0.100000)"
fill="#000000" stroke="none">
<path d="M4695 10563 c-241 -15 -460 -49 -630 -99 -544 -160 -926 -485 -1036
-880 -32 -112 -32 -324 -1 -439 134 -491 665 -853 1402 -957 61 -8 193 -13
370 -12 233 0 297 3 418 22 426 67 763 209 1017 429 268 233 391 510 363 818
-35 385 -338 735 -810 934 -251 106 -492 160 -803 181 -145 9 -184 10 -290 3z
m355 -168 c644 -58 1165 -350 1331 -744 31 -74 59 -215 59 -295 -2 -205 -99
-407 -275 -574 -107 -101 -204 -166 -370 -247 -301 -147 -593 -206 -1012 -205
-496 0 -898 113 -1214 341 -264 189 -399 423 -399 689 0 652 863 1128 1880
1035z"/>
<path d="M4640 10080 c-25 -3 -62 -13 -82 -23 -21 -9 -47 -17 -60 -17 -51 0
-277 -168 -278 -206 0 -7 -18 -34 -40 -60 -23 -27 -43 -60 -47 -74 -3 -14 -14
-41 -23 -60 -29 -59 -44 -179 -36 -287 7 -91 11 -106 57 -199 105 -213 261
-341 474 -390 186 -42 426 26 578 165 23 21 65 46 94 55 l53 18 30 -30 c20
-21 52 -36 102 -49 39 -11 73 -24 75 -30 4 -11 -54 -27 -283 -78 -164 -36
-233 -63 -265 -103 -72 -92 97 -159 339 -134 219 22 400 93 452 177 27 43 19
75 -28 116 -36 32 -36 33 11 60 32 18 77 90 77 124 0 42 -36 95 -80 118 -28
14 -54 17 -126 15 -79 -3 -98 -7 -156 -36 -36 -19 -87 -51 -113 -73 -26 -21
-51 -39 -56 -39 -16 0 -9 26 16 60 14 19 32 55 39 80 8 25 21 62 30 82 21 48
21 202 1 298 -32 154 -150 331 -273 408 -138 88 -332 133 -482 112z m1095
-950 c12 -5 29 -24 40 -43 l19 -35 -26 -39 c-14 -22 -46 -50 -71 -63 l-45 -24
-94 23 c-113 28 -168 50 -168 67 0 20 49 62 107 90 78 39 172 48 238 24z m-46
-279 c57 -29 63 -42 42 -77 -56 -92 -387 -174 -589 -146 -85 12 -130 35 -112
57 23 28 72 44 257 85 102 23 222 54 267 70 100 35 90 34 135 11z"/>
<path d="M3766 8308 c-53 -14 -123 -85 -132 -133 -22 -117 52 -222 165 -233
135 -13 235 119 192 251 -15 45 -78 102 -128 116 -44 12 -45 12 -97 -1z m88
-82 c69 -29 88 -108 40 -165 -63 -75 -184 -30 -184 69 0 44 23 78 64 96 39 17
40 17 80 0z"/>
<path d="M3464 7966 c-29 -29 -34 -41 -34 -80 0 -39 6 -52 36 -86 20 -22 32
-40 27 -40 -6 0 -20 -9 -33 -20 -13 -11 -31 -20 -40 -20 -10 0 -34 -11 -54
-25 -25 -17 -51 -25 -80 -25 -30 0 -48 -6 -61 -20 -10 -11 -38 -25 -61 -31
-23 -6 -53 -22 -65 -35 -12 -13 -34 -24 -48 -24 -13 0 -35 -9 -47 -20 -31 -30
-100 -31 -122 -2 -16 21 -26 22 -202 28 -179 6 -186 7 -205 30 l-20 24 -389
-3 c-462 -3 -548 2 -580 32 -12 12 -36 21 -52 21 -17 0 -45 11 -64 25 -19 14
-42 25 -52 25 -10 0 -25 11 -34 25 -12 18 -25 25 -50 25 -25 0 -39 7 -55 29
-12 16 -32 32 -45 35 -13 4 -31 17 -40 31 l-16 25 -188 0 c-186 0 -220 -3
-220 -21 0 -6 -10 -23 -21 -39 -17 -23 -20 -36 -14 -66 3 -21 6 -103 6 -183
-2 -141 -2 -146 -27 -172 -34 -36 -36 -95 -3 -121 23 -19 24 -25 28 -181 5
-224 5 -221 -4 -324 -7 -77 -11 -94 -26 -98 -27 -9 -39 -38 -38 -89 2 -35 -3
-51 -25 -77 -26 -31 -27 -36 -21 -99 6 -62 5 -69 -19 -97 -24 -28 -25 -36 -27
-162 -1 -132 -1 -132 -29 -152 l-27 -21 -2 -236 c-2 -236 -2 -237 -27 -263
-19 -20 -24 -36 -24 -75 0 -38 -6 -58 -25 -84 -15 -20 -25 -47 -25 -67 0 -27
-7 -37 -39 -57 -47 -30 -71 -62 -71 -94 0 -12 -11 -34 -25 -48 -14 -14 -25
-29 -25 -33 0 -4 -9 -16 -19 -25 -11 -10 -25 -32 -32 -49 -8 -18 -26 -42 -40
-55 -15 -12 -37 -42 -48 -65 -21 -43 -21 -46 -21 -1464 l0 -1421 33 -21 c18
-11 51 -40 73 -65 23 -25 50 -46 61 -46 11 0 30 -11 43 -25 18 -19 34 -25 66
-25 34 0 51 -7 77 -30 19 -17 46 -30 60 -30 15 0 32 -9 41 -22 13 -18 27 -23
72 -24 42 -1 64 -8 88 -25 l31 -24 1595 0 1595 0 23 23 c19 19 33 22 115 23
157 2 172 4 194 26 16 16 39 22 104 27 61 6 90 13 104 26 15 14 43 21 104 26
64 5 89 12 104 27 15 15 43 23 106 30 52 6 95 17 108 27 13 10 48 21 80 25 34
4 71 17 92 31 20 13 50 24 67 24 17 0 42 8 55 18 38 29 113 62 142 62 18 0 34
11 53 35 14 19 33 35 41 35 8 0 28 11 45 25 16 14 37 25 47 25 10 0 31 7 47
14 16 9 84 19 157 24 104 8 131 13 141 27 8 12 34 21 71 26 41 5 64 14 75 28
9 12 39 26 76 34 52 13 188 77 204 97 3 4 43 33 90 66 113 78 252 219 323 326
31 48 57 93 57 101 0 7 11 24 24 36 13 13 27 34 31 48 3 14 16 40 29 57 13 17
26 48 29 70 3 21 15 55 26 76 11 21 24 71 30 112 6 40 18 93 28 118 14 37 17
76 17 226 0 158 -3 188 -21 240 -12 32 -26 106 -32 163 -7 67 -18 115 -30 135
-10 17 -21 43 -25 58 -3 15 -17 44 -31 64 -14 20 -25 45 -25 55 0 10 -11 30
-25 45 -14 15 -25 31 -25 37 0 32 -209 251 -299 313 -27 20 -129 55 -226 79
-80 20 -194 16 -240 -9 -16 -9 -36 -16 -42 -16 -14 0 -118 -77 -146 -108 -10
-11 -21 -42 -26 -69 -4 -27 -15 -60 -24 -74 -9 -13 -17 -33 -17 -44 0 -31 51
-168 72 -191 10 -11 18 -26 18 -33 0 -14 123 -141 137 -141 6 0 18 -18 28 -41
10 -22 28 -48 39 -57 12 -9 29 -34 38 -55 10 -21 25 -40 33 -43 8 -4 22 -30
30 -59 9 -29 24 -60 34 -69 15 -14 16 -23 8 -68 -5 -29 -11 -82 -13 -118 -6
-79 -15 -99 -74 -170 -26 -30 -50 -68 -54 -84 -16 -65 -142 -176 -216 -191
-19 -4 -50 -16 -68 -26 -65 -38 -122 -15 -122 49 0 17 -5 43 -12 59 -6 15 -14
77 -17 137 -6 98 -9 111 -29 124 -12 8 -22 21 -22 29 0 8 -9 28 -20 43 -11 16
-23 43 -26 62 -4 18 -16 44 -28 58 -29 33 -66 111 -66 138 0 12 -9 32 -20 44
-74 83 -90 107 -90 136 0 40 -9 62 -26 62 -7 0 -21 15 -30 33 -9 17 -28 46
-40 63 -13 17 -24 39 -24 48 0 9 -13 34 -29 54 -16 20 -32 47 -35 59 -4 11
-13 24 -20 26 -8 3 -21 30 -30 60 -8 29 -25 62 -36 72 -25 23 -70 99 -70 119
0 8 -11 28 -25 44 -14 17 -25 34 -25 39 0 5 -11 24 -24 42 -14 19 -28 48 -32
65 -3 17 -16 42 -29 56 -13 14 -30 42 -39 63 -8 20 -36 62 -61 93 -25 31 -45
66 -45 78 0 12 -7 31 -15 42 -8 10 -24 37 -35 59 -11 22 -26 51 -34 65 -29 51
-116 235 -116 244 0 8 -35 55 -65 87 -9 9 -31 48 -50 87 -28 57 -35 82 -35
132 0 40 -6 74 -19 98 -10 20 -21 68 -25 105 -4 46 -14 82 -31 111 -14 23 -25
58 -25 77 0 19 -10 53 -22 74 -21 38 -22 52 -22 272 -1 225 0 232 22 262 22
30 22 31 22 435 l0 404 -26 31 c-14 17 -29 43 -33 58 -5 19 -17 31 -37 38 -17
6 -38 17 -46 26 -12 12 -41 16 -127 17 -109 1 -111 1 -138 -27 -25 -26 -36
-29 -110 -33 -46 -3 -83 -3 -83 -2 0 2 18 8 39 14 98 26 121 160 37 211 -50
31 -102 25 -142 -15z m-2530 -613 c13 -21 47 -63 75 -93 43 -47 53 -65 66
-124 19 -83 13 -118 -26 -148 -16 -13 -48 -38 -71 -56 -44 -35 -90 -62 -107
-62 -29 0 -40 109 -45 415 -2 101 61 140 108 68z m2968 -108 c9 -21 8 -37 -7
-83 -10 -31 -21 -97 -25 -147 -9 -99 -44 -318 -55 -334 -22 -36 -75 10 -138
120 -21 35 -47 76 -58 90 -19 24 -25 68 -20 166 1 7 34 37 74 67 39 30 92 75
117 99 54 54 94 62 112 22z m-763 -584 c88 -33 180 -100 220 -161 69 -102 96
-218 73 -305 -6 -22 -13 -63 -17 -92 -4 -30 -17 -65 -31 -84 -13 -18 -24 -38
-24 -45 0 -19 -69 -74 -124 -100 -43 -20 -67 -24 -146 -24 -170 1 -318 73
-400 195 -60 90 -72 251 -25 360 7 17 14 35 16 40 2 6 19 36 38 68 40 70 105
124 174 148 70 25 182 25 246 0z m-1419 -36 c36 -10 81 -29 101 -42 33 -22 99
-101 99 -119 0 -4 9 -17 19 -28 26 -28 49 -101 57 -178 14 -149 -37 -271 -156
-369 -63 -53 -73 -57 -147 -69 -139 -21 -277 17 -389 107 -49 40 -98 133 -125
242 -23 89 -23 111 -4 195 32 139 99 223 210 265 62 24 248 22 335 -4z"/>
<path d="M2852 6541 c-63 -66 -132 -197 -132 -250 0 -81 42 -191 91 -240 63
-62 99 -79 202 -97 97 -18 98 -18 167 5 113 36 159 116 160 283 1 85 -1 98
-29 153 -39 79 -75 118 -136 148 -72 35 -110 45 -195 50 l-75 4 -53 -56z"/>
<path d="M1409 6532 c-31 -15 -66 -31 -79 -37 -18 -7 -31 -31 -52 -90 -31 -88
-31 -124 -1 -259 14 -62 21 -76 67 -121 79 -78 169 -115 278 -115 104 0 126 8
180 64 78 80 98 132 98 245 0 86 -3 103 -30 159 -17 35 -30 68 -30 73 0 18
-54 60 -108 85 -46 21 -66 24 -160 23 -94 0 -114 -4 -163 -27z"/>
</g>
</svg>
