<?xml version="1.0" standalone="no"?>
<!DOCTYPE svg PUBLIC "-//W3C//DTD SVG 20010904//EN"
 "http://www.w3.org/TR/2001/REC-SVG-20010904/DTD/svg10.dtd">
<svg version="1.0" xmlns="http://www.w3.org/2000/svg"
 width="704.000000pt" height="1280.000000pt" viewBox="0 0 704.000000 1280.000000"
 preserveAspectRatio="xMidYMid meet">
<metadata>
Created by potrace 1.16, written by Peter Selinger 2001-2019
</metadata>
<g transform="translate(0.000000,1280.000000) scale(0.100000,-0.100000)"
fill="#000000" stroke="none">
<path d="M4560 10556 c-235 -23 -375 -51 -560 -112 -511 -169 -871 -487 -971
-859 -32 -117 -32 -328 0 -440 49 -175 142 -324 292 -471 208 -203 469 -340
814 -429 221 -56 352 -70 670 -69 238 0 301 3 420 22 591 93 1053 359 1258
726 148 264 161 542 37 811 -71 154 -187 294 -345 417 -220 172 -508 299 -815
362 -232 47 -563 65 -800 42z m598 -172 c242 -31 445 -91 647 -189 274 -133
458 -302 556 -510 63 -135 74 -185 73 -335 -1 -112 -4 -134 -31 -206 -50 -139
-108 -228 -218 -339 -252 -254 -620 -411 -1093 -465 -159 -19 -576 -8 -727 18
-496 87 -872 294 -1069 590 -58 87 -81 140 -106 238 -23 88 -27 242 -9 326 15
67 58 174 101 246 49 84 226 257 338 331 258 170 595 277 980 310 135 12 409
5 558 -15z"/>
<path d="M4305 9943 c-96 -21 -149 -48 -201 -100 -61 -62 -79 -97 -101 -198
-28 -131 17 -281 129 -433 85 -115 340 -344 461 -416 18 -10 51 -32 74 -47 23
-16 46 -29 52 -29 6 0 41 18 77 40 36 22 68 40 71 40 3 0 24 15 47 33 180 141
378 333 446 432 47 68 87 172 95 242 7 75 -9 193 -34 242 -30 58 -100 124
-166 157 -54 26 -70 29 -161 29 -94 0 -104 -2 -168 -34 -65 -33 -166 -127
-166 -154 0 -7 -9 -23 -19 -36 l-19 -25 -25 50 c-31 60 -118 145 -172 167 -86
36 -171 51 -220 40z m30 -136 c34 -29 28 -44 -45 -101 -34 -25 -68 -63 -80
-86 -15 -29 -27 -40 -43 -40 -39 0 -50 15 -49 65 5 128 140 229 217 162z"/>
<path d="M3761 8305 c-167 -52 -176 -280 -14 -351 71 -31 169 -5 216 57 79
105 39 242 -85 293 -44 19 -59 19 -117 1z m93 -79 c69 -29 88 -108 41 -164
-65 -77 -185 -27 -185 77 0 34 47 87 83 94 12 2 23 5 25 6 1 0 18 -5 36 -13z"/>
<path d="M3462 7966 c-54 -62 -51 -121 9 -177 21 -20 26 -29 16 -29 -9 0 -22
-8 -29 -19 -7 -10 -29 -22 -48 -26 -19 -4 -46 -16 -59 -26 -16 -13 -40 -19
-72 -19 -26 0 -51 -5 -55 -11 -3 -6 -31 -22 -60 -35 -30 -13 -54 -28 -54 -33
0 -6 -19 -16 -42 -22 -24 -7 -56 -23 -71 -36 -40 -32 -78 -30 -110 7 l-27 30
-181 0 c-179 0 -180 0 -203 25 l-23 25 -470 0 -470 0 -23 25 c-15 16 -34 25
-55 25 -17 0 -40 8 -51 19 -11 10 -36 23 -56 30 -20 6 -44 21 -53 31 -10 11
-31 20 -46 20 -19 0 -34 9 -49 29 -12 18 -31 31 -47 33 -17 2 -32 12 -39 27
-7 13 -18 27 -26 32 -17 11 -346 9 -374 -1 -12 -5 -30 -23 -41 -42 -19 -31
-20 -46 -15 -220 l5 -188 -32 -29 c-26 -24 -31 -36 -31 -75 0 -40 3 -46 24
-52 22 -5 23 -11 29 -107 4 -56 4 -183 1 -282 l-5 -180 -31 -28 c-27 -25 -30
-32 -24 -71 6 -37 3 -47 -24 -81 -28 -35 -30 -43 -30 -121 0 -69 -3 -85 -17
-93 -15 -8 -19 -30 -23 -145 -5 -130 -6 -136 -33 -164 l-27 -28 0 -233 0 -232
-28 -25 c-24 -23 -27 -32 -25 -82 3 -48 -1 -60 -21 -81 -14 -15 -26 -41 -28
-61 -2 -27 -11 -40 -43 -61 -41 -28 -59 -53 -69 -100 -3 -14 -16 -37 -28 -51
-51 -59 -68 -80 -68 -88 0 -4 -16 -27 -36 -51 -19 -23 -44 -60 -55 -80 -18
-37 -19 -76 -19 -1463 l0 -1424 48 -36 c26 -19 54 -46 62 -60 8 -16 27 -30 50
-36 20 -5 44 -18 54 -29 10 -11 37 -21 68 -24 36 -5 59 -14 78 -32 14 -14 38
-25 51 -25 14 0 34 -8 43 -19 11 -12 35 -20 70 -23 33 -3 65 -13 85 -27 30
-22 47 -24 234 -32 234 -9 2470 -10 2784 0 199 6 213 7 232 27 17 19 33 22
153 26 115 4 138 7 163 25 21 15 53 23 103 27 49 4 82 13 100 26 19 14 50 21
107 26 59 4 85 11 100 24 14 13 48 23 100 31 44 6 94 19 110 29 17 10 54 20
83 23 34 4 64 15 86 32 18 14 46 25 63 25 17 0 42 9 57 21 31 24 125 59 160
59 16 0 32 11 46 30 12 16 32 33 45 36 12 3 32 17 44 30 11 13 31 24 44 24 12
0 33 7 46 17 21 14 92 23 268 32 6 1 19 8 28 18 9 9 39 20 66 24 29 5 62 18
79 32 17 15 52 29 87 35 85 15 224 101 396 245 89 75 177 170 177 193 0 8 4
14 9 14 4 0 30 37 56 83 27 45 57 93 67 106 10 13 18 30 18 37 0 7 11 29 24
48 13 20 27 52 31 73 4 21 18 61 31 89 13 28 24 66 24 84 0 18 12 76 26 129
25 91 26 104 21 261 -5 129 -10 176 -25 215 -11 28 -25 95 -32 150 -11 97 -25
137 -86 256 -13 26 -24 54 -24 62 0 9 -11 28 -24 44 -13 15 -30 44 -39 64 -8
19 -59 80 -114 135 -151 153 -267 213 -454 234 -129 15 -201 -3 -295 -71 -70
-52 -101 -91 -109 -141 -4 -24 -13 -53 -21 -65 -28 -45 -16 -111 41 -213 8
-14 23 -41 34 -61 11 -19 51 -65 90 -102 39 -36 77 -82 85 -101 8 -20 19 -36
25 -36 5 0 19 -17 32 -37 12 -21 33 -48 46 -61 12 -13 23 -34 23 -47 0 -13 12
-37 26 -54 23 -27 25 -38 20 -79 -3 -26 -9 -84 -14 -128 -7 -70 -14 -90 -46
-137 -20 -31 -41 -59 -47 -62 -5 -4 -21 -31 -34 -61 -33 -75 -131 -168 -194
-184 -25 -6 -63 -20 -83 -31 -73 -38 -128 -16 -128 53 0 20 -7 52 -15 71 -10
23 -15 69 -15 127 0 84 -2 93 -25 116 -14 14 -25 31 -25 39 0 7 -11 27 -25 43
-14 17 -25 41 -25 55 0 13 -8 35 -19 48 -28 36 -71 126 -71 148 0 11 -8 26
-18 33 -11 7 -25 24 -32 38 -7 14 -24 35 -37 47 -15 14 -23 33 -23 54 0 21
-10 43 -30 66 -16 18 -30 40 -30 48 0 8 -13 26 -29 41 -16 14 -31 39 -35 55
-3 17 -17 45 -31 63 -14 18 -25 38 -25 44 0 6 -11 23 -24 39 -13 16 -27 46
-31 66 -4 20 -11 37 -15 37 -13 0 -89 123 -92 150 -2 14 -17 43 -33 65 -16 22
-39 54 -52 72 -13 17 -23 40 -23 51 0 11 -13 36 -30 57 -16 21 -30 46 -30 55
0 10 -25 48 -55 85 -30 36 -55 73 -55 80 0 8 -11 35 -25 61 -14 26 -25 52 -25
59 0 6 -11 22 -25 35 -15 14 -25 35 -25 51 0 15 -11 40 -23 56 -13 15 -27 40
-31 56 -3 15 -15 36 -26 47 -11 11 -20 29 -20 40 0 12 -23 51 -50 87 -28 36
-50 73 -50 81 0 8 -11 30 -25 48 -20 27 -25 44 -25 93 0 37 -8 82 -20 113 -11
29 -20 74 -20 99 0 32 -9 63 -30 102 -16 31 -30 71 -30 88 0 18 -11 56 -25 85
-25 53 -25 55 -21 274 4 204 6 222 25 246 21 26 21 36 21 439 l0 412 -24 24
c-13 13 -27 38 -30 55 -6 25 -13 33 -38 38 -18 3 -40 14 -50 23 -26 24 -207
29 -248 8 -15 -8 -30 -19 -32 -25 -1 -5 -30 -12 -64 -14 l-61 -5 33 33 c43 43
54 97 28 145 -23 43 -55 61 -110 61 -35 0 -47 -6 -72 -34z m-2531 -613 c18
-27 54 -69 80 -94 35 -34 51 -60 63 -102 29 -100 15 -149 -57 -193 -23 -15
-53 -37 -67 -50 -36 -33 -74 -46 -94 -31 -14 10 -17 41 -21 202 -3 104 -7 197
-10 206 -11 33 32 109 61 109 7 0 28 -21 45 -47z m2960 -94 c23 -23 23 -33 -4
-147 -8 -35 -13 -81 -10 -101 3 -21 0 -48 -7 -61 -7 -13 -16 -53 -21 -89 -16
-130 -26 -182 -36 -192 -18 -18 -53 1 -80 44 -15 23 -51 79 -80 123 -53 81
-53 82 -53 160 0 78 0 79 34 107 19 15 39 27 43 27 5 0 33 23 63 51 80 74 110
99 121 99 5 0 18 -9 30 -21z m-2895 -568 c18 -11 44 -35 59 -55 15 -20 33 -36
40 -36 25 0 68 -45 90 -94 l22 -51 27 52 c14 29 36 57 48 64 13 6 34 24 48 41
29 34 92 52 136 39 16 -4 55 -6 86 -3 61 5 215 -28 253 -54 11 -8 29 -14 42
-14 12 0 24 -8 28 -19 6 -18 7 -18 43 2 25 13 46 18 62 14 49 -13 55 -23 60
-102 5 -72 4 -75 -17 -75 -12 0 -23 4 -25 10 -2 6 -9 6 -18 0 -12 -8 -13 -16
-2 -55 7 -25 12 -54 12 -65 0 -13 7 -20 20 -20 17 0 20 -7 20 -39 0 -30 -4
-40 -20 -44 -16 -4 -20 -14 -21 -49 0 -23 -6 -57 -12 -75 -19 -51 -85 -134
-145 -182 -45 -37 -68 -47 -126 -58 -39 -8 -91 -11 -116 -8 -25 4 -61 9 -80
12 -52 7 -169 66 -218 110 -47 42 -83 114 -110 223 -8 36 -17 67 -19 69 -2 3
-10 -5 -18 -16 -22 -32 -75 -61 -120 -66 -22 -3 -60 -17 -85 -31 -75 -43 -143
-29 -200 42 -18 22 -45 46 -61 52 -75 32 -115 124 -84 196 9 22 18 65 18 96 3
88 56 146 143 156 26 3 63 16 82 28 44 30 114 32 158 5z m2128 -25 c26 -8 77
-33 114 -55 61 -37 80 -56 154 -157 5 -7 20 -51 34 -98 22 -74 24 -91 14 -119
-7 -17 -16 -66 -20 -108 -7 -67 -14 -84 -52 -140 -37 -55 -53 -69 -117 -101
-69 -36 -79 -38 -165 -38 -75 0 -104 5 -167 28 -124 47 -209 117 -249 206 -21
48 -44 162 -35 177 4 5 10 36 15 68 14 103 90 237 161 286 85 60 214 80 313
51z"/>
<path d="M914 6536 c-35 -55 8 -166 65 -166 45 0 65 31 57 87 -8 62 -34 97
-74 101 -24 2 -34 -3 -48 -22z"/>
<path d="M1470 6554 c0 -3 11 -15 25 -26 18 -14 25 -29 25 -52 0 -49 -30 -71
-97 -71 -48 0 -58 4 -79 29 -14 15 -23 33 -21 40 6 16 35 8 58 -15 33 -33 108
-15 94 23 -11 29 -100 38 -144 15 -37 -19 -72 -125 -72 -217 0 -116 29 -199
94 -262 29 -28 77 -63 107 -77 50 -23 67 -26 174 -26 l119 0 49 55 c67 73 98
143 98 220 0 33 -4 60 -10 60 -5 0 -10 -13 -10 -30 0 -20 -5 -30 -15 -30 -13
0 -15 11 -12 60 2 33 8 59 13 59 5 -1 8 -11 6 -22 -2 -12 1 -18 10 -15 8 3 12
19 11 40 -2 41 -58 168 -73 168 -5 0 -10 -18 -10 -40 0 -32 -4 -40 -19 -40
-15 0 -19 11 -25 62 -8 77 -30 98 -34 33 -6 -84 -89 -122 -151 -69 -33 28 -42
75 -21 115 10 18 7 19 -40 19 -27 0 -50 -3 -50 -6z"/>
<path d="M745 6495 c-27 -26 -30 -43 -15 -94 20 -70 78 -102 113 -63 33 36 12
148 -31 171 -30 16 -40 14 -67 -14z"/>
<path d="M2905 6590 c-27 -9 -112 -115 -146 -180 -28 -55 -33 -75 -32 -130 1
-122 61 -230 158 -289 30 -19 169 -51 217 -51 35 0 138 37 161 58 42 38 69
111 78 218 l10 103 -36 75 c-42 89 -93 136 -181 167 -58 21 -200 39 -229 29z"/>
</g>
</svg>
