<?xml version="1.0" standalone="no"?>
<!DOCTYPE svg PUBLIC "-//W3C//DTD SVG 20010904//EN"
 "http://www.w3.org/TR/2001/REC-SVG-20010904/DTD/svg10.dtd">
<svg version="1.0" xmlns="http://www.w3.org/2000/svg"
 width="704.000000pt" height="1280.000000pt" viewBox="0 0 704.000000 1280.000000"
 preserveAspectRatio="xMidYMid meet">
<metadata>
Created by potrace 1.16, written by Peter Selinger 2001-2019
</metadata>
<g transform="translate(0.000000,1280.000000) scale(0.100000,-0.100000)"
fill="#000000" stroke="none">
<path d="M4600 10559 c-540 -46 -972 -215 -1269 -494 -150 -142 -245 -289
-298 -462 -23 -77 -26 -106 -27 -233 -1 -160 15 -235 74 -367 124 -273 416
-528 760 -663 306 -120 589 -170 960 -170 628 0 1164 184 1495 515 205 205
306 426 307 670 0 262 -99 485 -306 691 -131 130 -284 233 -471 316 -365 163
-803 233 -1225 197z m560 -175 c312 -39 645 -160 860 -312 282 -199 438 -483
415 -760 -38 -486 -566 -876 -1309 -968 -170 -21 -588 -15 -751 11 -145 23
-386 92 -511 147 -362 160 -604 406 -675 687 -29 117 -23 280 14 396 91 276
365 525 737 668 358 138 792 185 1220 131z"/>
<path d="M4221 10019 c-143 -24 -277 -151 -317 -301 -18 -68 -18 -198 0 -266
32 -121 121 -261 256 -406 66 -69 247 -226 334 -287 27 -19 70 -49 95 -67 79
-56 120 -82 133 -82 13 0 84 45 213 134 247 172 491 420 575 587 50 98 63 161
58 279 -4 92 -8 115 -35 171 -87 185 -265 276 -461 235 -40 -8 -94 -27 -121
-41 -81 -44 -168 -141 -200 -222 -8 -18 -16 -33 -20 -33 -3 0 -21 30 -40 66
-88 171 -277 264 -470 233z m26 -129 c37 -13 60 -52 47 -79 -5 -10 -37 -42
-72 -71 -34 -29 -74 -72 -88 -96 -21 -36 -31 -44 -54 -44 -114 0 -50 228 80
284 42 18 49 19 87 6z"/>
<path d="M3785 8311 c-111 -27 -171 -117 -151 -226 9 -47 76 -120 123 -136 88
-29 184 15 227 104 25 49 26 57 15 106 -13 63 -56 116 -114 142 -43 20 -54 21
-100 10z m69 -85 c69 -29 88 -108 40 -165 -48 -57 -135 -47 -169 19 -30 58 -9
120 50 146 38 17 39 17 79 0z"/>
<path d="M3468 7973 c-56 -58 -56 -124 -2 -178 31 -31 32 -34 14 -40 -11 -4
-20 -10 -20 -15 0 -5 -17 -14 -37 -20 -21 -7 -52 -21 -69 -31 -18 -11 -50 -19
-73 -19 -30 0 -52 -8 -75 -25 -18 -14 -40 -25 -48 -25 -8 0 -32 -13 -53 -30
-21 -16 -47 -30 -57 -30 -11 0 -31 -9 -45 -20 -37 -29 -93 -27 -123 5 -23 25
-24 25 -206 25 l-182 0 -16 25 -16 25 -472 0 -472 0 -26 25 c-15 14 -44 29
-66 32 -21 3 -50 14 -63 25 -13 10 -28 18 -33 18 -6 0 -22 9 -37 19 -15 11
-43 22 -63 26 -28 5 -39 14 -49 36 -8 21 -21 32 -41 36 -16 3 -37 18 -48 33
l-19 26 -183 -1 c-101 -1 -188 -3 -195 -4 -6 0 -22 -15 -34 -33 -22 -30 -23
-40 -23 -229 l-1 -198 -27 -28 c-39 -40 -39 -94 0 -121 l27 -20 0 -277 -1
-276 -32 -25 c-29 -23 -32 -31 -32 -79 0 -44 -5 -59 -25 -81 -22 -24 -25 -36
-25 -105 0 -61 -4 -81 -18 -95 -14 -14 -18 -43 -23 -157 -5 -137 -6 -140 -32
-159 l-27 -20 0 -235 0 -235 -30 -28 c-29 -27 -30 -32 -24 -77 5 -43 3 -51
-20 -76 -17 -19 -26 -39 -26 -62 0 -25 -7 -39 -26 -52 -62 -43 -75 -60 -85
-101 -6 -28 -23 -57 -49 -84 -22 -23 -46 -55 -54 -73 -8 -17 -24 -40 -36 -50
-12 -10 -32 -41 -45 -68 l-25 -49 2 -1425 c3 -1395 3 -1426 22 -1437 11 -6 33
-26 50 -45 61 -66 66 -71 85 -71 11 0 32 -11 48 -24 17 -14 46 -25 76 -28 34
-4 57 -14 76 -32 15 -14 38 -26 51 -26 13 0 34 -10 46 -21 16 -15 38 -22 72
-24 32 -2 60 -10 79 -24 50 -37 366 -43 1818 -37 710 3 1318 7 1352 8 48 3 67
8 85 26 22 20 34 22 144 22 110 0 123 2 152 24 24 17 51 25 109 30 58 4 86 12
108 28 24 18 46 24 110 26 63 3 85 8 102 24 15 14 45 23 104 30 55 6 92 17
108 29 14 11 39 19 62 19 45 0 90 15 105 36 7 8 29 18 50 21 22 3 50 14 64 23
27 19 141 60 165 60 8 0 27 14 42 30 14 16 31 30 37 30 7 0 26 14 44 30 18 17
43 30 55 30 13 0 32 7 44 15 13 9 65 17 151 23 110 8 135 13 158 31 15 11 41
21 59 21 21 0 45 11 69 29 24 19 56 32 95 39 163 29 549 346 624 512 4 8 20
38 37 65 16 28 39 70 50 94 11 23 29 54 40 68 11 14 20 36 20 48 0 12 11 44
25 71 14 27 29 78 34 114 5 36 19 103 31 150 20 75 22 102 18 250 -4 145 -7
170 -27 206 -16 30 -23 67 -28 139 -5 75 -12 108 -30 142 -12 24 -23 50 -23
57 0 7 -11 30 -25 50 -14 20 -28 49 -31 64 -4 15 -17 41 -29 58 -13 16 -30 46
-38 66 -27 64 -237 258 -332 305 -128 64 -341 89 -429 50 -120 -53 -200 -130
-211 -203 -4 -27 -13 -57 -21 -68 -27 -38 -13 -106 42 -206 7 -14 20 -39 28
-55 8 -17 51 -65 95 -108 45 -43 81 -83 81 -91 0 -7 12 -23 26 -37 14 -13 33
-37 41 -53 8 -16 24 -38 34 -49 10 -11 24 -36 30 -56 7 -20 21 -48 32 -63 16
-22 19 -35 13 -75 -4 -26 -10 -82 -15 -123 -9 -85 -15 -100 -75 -173 -24 -29
-49 -70 -55 -89 -8 -23 -38 -61 -80 -101 -58 -54 -79 -68 -139 -86 -39 -12
-74 -26 -77 -31 -8 -13 -61 -13 -86 0 -14 8 -19 21 -19 49 0 21 -7 55 -15 74
-9 23 -15 69 -15 122 0 85 -10 122 -36 138 -8 4 -14 16 -14 26 0 9 -11 32 -25
51 -14 19 -25 46 -25 60 0 14 -10 37 -21 49 -31 33 -69 108 -69 136 0 13 -8
30 -19 37 -10 7 -25 27 -33 43 -9 17 -25 39 -37 49 -12 11 -21 30 -21 43 0 24
-16 63 -30 73 -4 3 -14 19 -23 35 -8 17 -29 45 -46 62 -17 18 -31 41 -31 52 0
10 -8 29 -19 42 -10 13 -22 35 -26 49 -4 14 -18 37 -31 51 -14 14 -26 41 -29
60 -2 20 -13 40 -25 48 -11 7 -20 17 -20 22 0 5 -13 30 -30 56 -16 26 -30 55
-30 65 0 16 -51 98 -87 139 -8 9 -19 33 -24 53 -6 21 -19 46 -30 57 -12 12
-26 35 -32 52 -6 17 -30 55 -54 85 -23 29 -46 65 -49 80 -4 15 -11 33 -17 39
-5 7 -22 39 -37 72 -15 32 -33 62 -39 65 -6 4 -11 18 -11 30 0 13 -8 34 -19
47 -10 13 -23 41 -30 61 -7 20 -18 42 -26 48 -7 6 -16 24 -20 39 -3 15 -26 50
-50 78 -24 27 -47 63 -51 79 -4 16 -17 42 -28 57 -15 21 -22 50 -27 111 -4 46
-13 94 -22 107 -8 13 -17 54 -20 90 -4 43 -15 83 -31 114 -15 26 -26 61 -26
77 0 16 -12 54 -26 84 l-26 56 7 221 c6 194 10 225 26 249 18 25 19 50 19 436
0 341 -2 412 -14 421 -8 7 -24 32 -35 57 -14 29 -27 44 -40 44 -11 0 -32 10
-48 23 -26 21 -37 23 -141 23 -107 -1 -114 -2 -131 -25 -15 -20 -28 -24 -78
-25 l-60 -2 33 31 c84 80 34 205 -82 205 -31 0 -46 -6 -66 -27z m-2529 -625
c21 -29 53 -66 70 -83 44 -41 72 -109 74 -176 2 -65 -17 -100 -66 -125 -17 -9
-45 -28 -62 -43 -43 -39 -79 -53 -100 -37 -14 10 -17 36 -20 169 -2 87 -7 181
-10 210 -7 57 5 102 33 123 28 22 40 16 81 -38z m2946 -88 c30 -12 30 -21 1
-155 -8 -38 -13 -84 -10 -101 3 -18 0 -42 -6 -54 -11 -21 -16 -49 -39 -213
-15 -110 -44 -98 -153 64 l-77 114 0 72 c-1 87 3 100 40 119 16 8 61 43 100
77 58 51 105 86 116 87 1 0 14 -5 28 -10z m-2922 -580 c26 -16 60 -30 75 -30
35 0 86 -31 109 -67 11 -17 19 -48 20 -85 2 -70 11 -88 27 -56 42 78 67 111
114 153 59 53 97 66 168 55 27 -5 70 -6 95 -3 50 6 197 -27 233 -52 11 -8 30
-15 43 -15 12 0 24 -8 28 -19 6 -18 7 -18 43 2 25 13 46 18 62 14 49 -13 55
-23 60 -102 5 -73 4 -75 -17 -75 -13 0 -23 5 -23 10 0 7 -6 7 -18 1 -17 -9
-17 -13 -3 -75 12 -50 20 -66 34 -66 13 0 17 -9 17 -40 0 -27 -4 -40 -14 -40
-15 0 -26 -30 -26 -71 0 -64 -111 -217 -195 -269 -17 -10 -62 -24 -99 -30
-130 -21 -273 17 -383 102 -59 45 -113 142 -133 240 -6 32 -15 60 -19 62 -14
9 -96 -39 -136 -81 -62 -63 -153 -69 -212 -13 -12 11 -34 20 -48 20 -43 0 -91
26 -121 66 -23 30 -29 48 -30 93 -1 31 -7 70 -14 86 -23 58 -23 83 0 129 22
47 65 86 94 86 9 0 28 14 43 31 68 77 145 90 226 39z m2173 -17 c27 -9 78 -36
114 -60 98 -65 144 -133 180 -266 19 -69 20 -78 5 -118 -8 -24 -15 -64 -15
-89 0 -92 -76 -200 -173 -248 -58 -29 -73 -32 -157 -32 -185 0 -351 92 -422
235 -26 52 -40 157 -27 212 40 177 116 299 217 348 73 36 201 44 278 18z"/>
<path d="M914 6536 c-35 -55 8 -166 65 -166 45 0 65 31 57 87 -8 62 -34 97
-74 101 -24 2 -34 -3 -48 -22z"/>
<path d="M1488 6534 c24 -19 32 -33 32 -58 0 -49 -30 -71 -97 -71 -48 0 -58 4
-79 28 -13 15 -24 32 -24 38 0 16 39 10 60 -11 23 -23 58 -26 84 -7 54 39 -65
79 -134 44 -36 -18 -69 -122 -70 -218 0 -115 29 -198 90 -260 75 -76 143 -103
267 -107 92 -3 106 -1 138 18 42 26 106 107 129 164 18 42 22 156 6 156 -5 0
-10 -13 -10 -30 0 -21 -5 -30 -16 -30 -12 0 -15 11 -12 63 2 35 7 61 13 59 6
-2 10 -12 9 -23 -1 -25 20 -19 23 7 4 25 -59 176 -75 182 -8 2 -12 -9 -12 -37
0 -33 -4 -41 -19 -41 -15 0 -19 11 -25 62 -8 77 -30 98 -34 33 -6 -84 -89
-122 -151 -69 -33 28 -42 75 -21 115 10 18 7 19 -47 19 l-58 0 33 -26z"/>
<path d="M745 6495 c-28 -27 -30 -46 -14 -96 24 -71 77 -100 112 -61 33 36 12
148 -31 171 -30 16 -40 14 -67 -14z"/>
<path d="M2852 6542 c-33 -35 -69 -89 -95 -140 l-40 -84 11 -71 c6 -40 20 -93
31 -118 20 -44 80 -109 132 -142 25 -16 162 -47 209 -47 42 0 132 31 159 54
43 38 73 122 81 231 8 99 8 99 -25 170 -24 49 -46 79 -74 100 -22 17 -41 33
-41 37 0 13 -163 57 -230 62 l-64 4 -54 -56z"/>
</g>
</svg>
