<?xml version="1.0" standalone="no"?>
<!DOCTYPE svg PUBLIC "-//W3C//DTD SVG 20010904//EN"
 "http://www.w3.org/TR/2001/REC-SVG-20010904/DTD/svg10.dtd">
<svg version="1.0" xmlns="http://www.w3.org/2000/svg"
 width="704.000000pt" height="1280.000000pt" viewBox="0 0 704.000000 1280.000000"
 preserveAspectRatio="xMidYMid meet">
<metadata>
Created by potrace 1.16, written by Peter Selinger 2001-2019
</metadata>
<g transform="translate(0.000000,1280.000000) scale(0.100000,-0.100000)"
fill="#000000" stroke="none">
<path d="M702 7892 c-12 -2 -33 -19 -46 -38 -23 -34 -23 -38 -18 -219 l5 -184
-32 -36 c-41 -47 -43 -100 -5 -130 25 -20 25 -23 29 -170 2 -83 1 -208 -2
-279 -6 -121 -8 -129 -32 -152 -21 -20 -26 -33 -26 -72 0 -38 -6 -55 -27 -80
-24 -29 -26 -39 -25 -112 0 -69 -2 -83 -21 -103 -20 -21 -22 -34 -22 -141 0
-119 -6 -146 -41 -176 -17 -14 -19 -37 -21 -252 -3 -230 -4 -237 -25 -260 -18
-19 -23 -36 -23 -80 0 -44 -5 -60 -24 -80 -13 -14 -26 -43 -29 -65 -5 -29 -14
-43 -37 -56 -43 -26 -70 -57 -70 -82 0 -22 -53 -101 -82 -123 -10 -7 -18 -20
-18 -28 0 -9 -17 -36 -39 -62 -78 -94 -71 53 -71 -1534 l0 -1424 23 -14 c12
-8 46 -39 74 -67 29 -29 61 -53 71 -53 10 0 28 -11 40 -25 17 -19 31 -25 65
-25 33 0 51 -7 77 -30 19 -16 46 -29 59 -30 13 0 34 -11 47 -25 19 -21 32 -25
75 -25 40 0 58 -5 76 -22 21 -20 38 -23 186 -29 182 -9 2683 -8 2905 0 128 5
145 8 158 26 13 18 28 20 132 23 136 3 155 6 177 29 12 11 43 18 101 23 64 5
90 12 107 27 17 16 41 22 104 26 59 5 91 12 110 26 18 13 57 23 109 29 53 6
91 17 110 30 16 11 53 23 82 26 37 3 63 13 83 31 19 15 43 25 63 25 20 0 40 8
50 19 10 11 32 23 49 27 17 3 38 10 47 15 8 5 34 13 56 19 26 6 48 20 58 35 9
14 22 25 29 25 8 0 29 14 47 30 18 17 42 30 52 30 10 0 29 6 41 14 14 9 65 17
142 21 103 6 125 11 157 31 21 13 51 24 68 24 34 0 69 15 86 38 5 7 38 20 72
28 89 21 218 92 290 161 8 7 23 18 35 24 31 17 189 153 214 186 13 15 37 51
55 78 17 28 44 70 60 94 15 25 28 49 28 54 0 5 11 22 25 39 14 16 25 38 25 49
0 10 8 27 18 37 10 10 26 47 36 82 10 35 27 80 37 99 10 20 19 52 19 71 0 20
10 72 22 116 20 68 23 103 23 254 0 157 -3 181 -22 230 -13 31 -27 99 -33 155
-7 67 -18 116 -34 150 -56 117 -76 161 -76 169 0 4 -10 22 -23 39 -12 18 -30
49 -39 69 -9 21 -21 38 -26 38 -5 0 -17 16 -28 35 -10 19 -21 35 -25 35 -4 0
-47 36 -95 80 -107 96 -188 141 -310 169 -168 39 -267 23 -378 -58 -69 -51
-106 -96 -106 -129 0 -14 -10 -46 -22 -70 -19 -39 -20 -51 -11 -91 28 -121 73
-194 203 -332 54 -57 99 -112 122 -150 10 -16 26 -37 37 -48 10 -10 22 -37 26
-60 4 -23 12 -44 19 -48 26 -16 35 -48 24 -89 -5 -21 -14 -73 -18 -114 -5 -41
-9 -78 -9 -81 -1 -3 -26 -40 -56 -82 -30 -42 -57 -88 -61 -102 -6 -26 -76
-103 -129 -142 -16 -12 -50 -27 -75 -34 -25 -6 -62 -21 -82 -32 -31 -17 -45
-19 -75 -11 -34 8 -38 13 -41 44 -1 19 -9 58 -17 85 -8 28 -16 89 -18 137 -2
72 -7 91 -24 110 -11 13 -23 35 -27 51 -4 15 -15 36 -26 47 -11 11 -20 32 -20
47 0 14 -11 41 -25 59 -14 18 -25 36 -25 39 0 4 -9 18 -20 32 -11 14 -20 38
-20 54 0 16 -8 34 -18 41 -11 7 -25 24 -32 38 -7 14 -24 38 -36 53 -15 18 -24
42 -24 63 0 24 -6 38 -24 49 -14 9 -29 30 -35 47 -6 16 -22 38 -35 49 -13 11
-28 34 -32 52 -3 17 -17 45 -30 60 -13 16 -24 33 -24 38 0 6 -11 25 -24 42
-13 18 -27 49 -30 69 -4 21 -14 43 -24 50 -21 16 -82 115 -82 133 0 8 -25 51
-55 97 -30 45 -55 92 -55 103 0 11 -13 35 -30 53 -16 18 -30 44 -30 57 0 13
-9 32 -19 42 -39 36 -91 108 -91 126 0 10 -11 35 -25 55 -14 20 -25 44 -25 53
0 9 -11 28 -25 43 -14 15 -25 37 -25 50 0 13 -8 34 -18 47 -19 25 -65 118 -76
154 -4 11 -27 42 -52 70 -24 27 -47 61 -51 75 -3 14 -16 43 -28 65 -16 28 -24
62 -27 118 -3 49 -11 84 -20 95 -9 10 -18 48 -22 95 -4 56 -12 87 -27 108 -11
16 -24 53 -28 82 -4 29 -16 68 -27 87 -17 32 -19 55 -18 263 1 217 3 230 23
258 21 28 21 36 22 435 l0 407 -26 27 c-14 14 -25 33 -25 41 0 26 -30 59 -54
59 -13 0 -30 8 -39 18 -13 14 -35 18 -122 20 -97 1 -108 0 -141 -23 -33 -22
-47 -25 -134 -25 -82 0 -100 -3 -119 -20 -13 -10 -39 -24 -60 -31 -20 -7 -47
-20 -60 -30 -15 -12 -40 -19 -67 -19 -31 0 -51 -7 -72 -25 -17 -14 -42 -25
-56 -25 -19 0 -30 -8 -38 -25 -6 -14 -23 -28 -37 -31 -53 -12 -66 -17 -82 -30
-8 -8 -29 -17 -46 -20 -26 -5 -37 -1 -63 25 l-33 31 -177 0 c-176 0 -178 0
-207 25 l-29 26 -468 -1 -468 0 -24 25 c-16 17 -34 25 -57 25 -21 0 -41 7 -52
20 -10 11 -23 20 -30 20 -7 0 -31 14 -53 30 -23 17 -45 29 -49 29 -25 -4 -41
4 -56 31 -12 20 -28 31 -53 36 -24 4 -39 14 -46 30 -6 13 -14 24 -17 24 -3 0
-82 1 -176 3 -93 1 -180 1 -193 -1z m236 -544 c12 -18 40 -51 62 -73 48 -46
77 -104 85 -173 8 -59 -16 -108 -64 -135 -19 -10 -53 -33 -75 -51 -54 -44 -83
-50 -97 -23 -7 11 -13 75 -14 141 -2 67 -7 162 -11 213 l-7 92 31 31 c37 36
57 31 90 -22z m2964 -95 c17 -31 17 -34 -7 -117 -10 -32 -17 -82 -17 -109 0
-28 -5 -64 -10 -81 -9 -30 -21 -102 -37 -214 -10 -73 -22 -81 -65 -48 -20 15
-41 37 -47 49 -6 12 -37 60 -68 106 l-56 85 3 75 c3 82 -1 77 84 136 23 17 65
51 93 76 83 77 103 83 127 42z m-774 -588 c127 -38 239 -142 283 -263 36 -97
41 -140 24 -198 -8 -29 -15 -69 -15 -89 0 -42 -54 -145 -97 -187 -85 -81 -244
-102 -397 -51 -148 49 -257 156 -278 274 -13 71 -13 91 -3 164 9 69 38 139 97
231 69 109 241 162 386 119z m-1405 -39 c82 -23 136 -63 189 -143 64 -96 82
-157 83 -278 0 -91 -3 -106 -29 -160 -40 -82 -62 -109 -125 -158 -77 -58 -75
-58 -149 -68 -131 -19 -305 32 -394 114 -51 47 -111 175 -127 268 -11 63 -10
86 3 155 9 51 25 96 41 119 14 21 25 44 25 51 0 18 105 88 159 107 57 19 244
15 324 -7z"/>
<path d="M2851 6542 c-33 -35 -68 -89 -93 -142 l-41 -85 11 -70 c16 -100 44
-156 104 -209 56 -49 102 -68 209 -87 58 -10 75 -10 134 6 48 13 76 28 96 49
38 41 66 132 72 235 5 78 3 88 -27 155 -52 113 -150 178 -290 191 -34 3 -75 8
-91 10 -26 4 -37 -2 -84 -53z"/>
<path d="M1430 6540 c-19 -11 -52 -24 -73 -30 -33 -10 -42 -19 -58 -58 -11
-26 -24 -56 -29 -67 -18 -41 -20 -102 -6 -176 20 -104 49 -161 106 -209 74
-62 130 -83 236 -88 121 -6 151 5 209 76 70 84 85 126 85 237 0 79 -4 104 -27
157 -56 133 -134 178 -306 178 -81 -1 -109 -5 -137 -20z"/>
</g>
</svg>
