<?xml version="1.0" standalone="no"?>
<!DOCTYPE svg PUBLIC "-//W3C//DTD SVG 20010904//EN"
 "http://www.w3.org/TR/2001/REC-SVG-20010904/DTD/svg10.dtd">
<svg version="1.0" xmlns="http://www.w3.org/2000/svg"
 width="704.000000pt" height="1280.000000pt" viewBox="0 0 704.000000 1280.000000"
 preserveAspectRatio="xMidYMid meet">
<metadata>
Created by potrace 1.16, written by Peter Selinger 2001-2019
</metadata>
<g transform="translate(0.000000,1280.000000) scale(0.100000,-0.100000)"
fill="#000000" stroke="none">
<path d="M4645 10563 c-315 -21 -595 -86 -845 -196 -265 -117 -471 -272 -612
-462 -223 -298 -248 -664 -66 -983 213 -372 672 -635 1269 -729 146 -23 634
-26 774 -4 394 59 664 153 910 316 368 244 557 580 524 935 -11 115 -32 192
-80 296 -135 287 -414 520 -804 674 -298 117 -714 177 -1070 153z m515 -179
c241 -31 455 -95 657 -195 323 -159 536 -393 604 -660 8 -31 13 -105 13 -174
0 -132 -16 -200 -76 -319 -123 -246 -405 -465 -751 -582 -254 -87 -427 -115
-735 -121 -410 -9 -697 38 -979 157 -365 154 -591 368 -694 655 -34 94 -38
274 -9 391 40 161 114 280 261 418 216 203 536 350 894 412 257 44 560 51 815
18z"/>
<path d="M4210 10016 c-76 -14 -116 -33 -171 -83 -106 -95 -149 -198 -149
-350 0 -78 5 -112 24 -166 71 -200 249 -406 546 -630 122 -93 248 -177 263
-177 7 0 42 20 80 45 341 224 608 480 709 679 57 112 74 205 58 316 -35 246
-233 402 -470 370 -143 -19 -269 -108 -339 -239 l-33 -63 -34 63 c-97 180
-285 271 -484 235z m69 -150 c34 -36 22 -66 -47 -118 -31 -24 -73 -67 -92 -96
-39 -60 -77 -71 -99 -28 -21 38 -5 143 26 180 74 86 165 112 212 62z"/>
<path d="M3766 8305 c-58 -21 -88 -46 -113 -95 -80 -156 79 -323 239 -252 146
64 149 265 6 336 -59 29 -77 31 -132 11z m89 -79 c38 -16 65 -60 65 -105 0
-37 -41 -88 -79 -96 -41 -9 -96 17 -115 54 -38 73 -3 134 92 160 1 1 18 -5 37
-13z"/>
<path d="M3515 8002 c-30 -6 -74 -52 -83 -86 -13 -47 -2 -83 35 -121 22 -23
29 -35 19 -35 -8 0 -20 -8 -25 -19 -6 -10 -27 -22 -48 -26 -20 -4 -48 -15 -61
-26 -16 -12 -40 -19 -69 -19 -32 0 -54 -7 -77 -25 -18 -14 -41 -25 -52 -25
-10 0 -32 -13 -47 -30 -17 -18 -39 -30 -54 -30 -14 0 -38 -11 -55 -25 -39 -33
-67 -32 -113 5 l-38 30 -178 0 -179 0 -16 25 -16 25 -475 0 -475 -1 -20 26
c-14 17 -29 25 -52 25 -19 0 -46 10 -66 25 -19 14 -39 25 -46 25 -6 0 -22 11
-35 25 -17 17 -35 25 -60 25 -30 0 -38 5 -52 35 -14 28 -22 35 -46 35 -23 0
-33 7 -43 28 l-13 27 -165 2 c-215 3 -223 1 -252 -45 -22 -35 -23 -46 -23
-229 l0 -193 -27 -25 c-22 -20 -28 -35 -28 -69 0 -35 4 -45 24 -54 22 -10 24
-17 31 -132 4 -67 4 -195 0 -285 l-7 -163 -29 -21 c-25 -19 -29 -28 -29 -72 0
-40 -6 -58 -25 -81 -22 -26 -25 -39 -25 -112 0 -69 -3 -86 -19 -100 -17 -16
-20 -35 -23 -151 -3 -132 -3 -133 -30 -155 l-28 -21 0 -234 0 -234 -29 -30
c-27 -27 -29 -35 -24 -78 4 -42 1 -52 -21 -76 -17 -19 -26 -39 -26 -62 0 -28
-7 -39 -37 -61 -53 -39 -73 -65 -73 -96 0 -17 -15 -43 -45 -75 -25 -26 -45
-52 -45 -58 0 -5 -20 -35 -44 -66 -84 -107 -76 51 -76 -1534 l0 -1416 75 -75
c42 -41 82 -74 90 -74 8 0 26 -11 41 -25 20 -19 38 -25 70 -25 34 0 51 -7 77
-30 19 -16 46 -30 59 -30 14 0 35 -11 48 -25 19 -20 33 -25 72 -25 33 0 58 -6
76 -20 49 -36 349 -42 1789 -36 719 3 1339 8 1376 10 52 3 74 9 91 25 19 18
35 21 144 22 109 1 125 3 155 23 24 17 55 25 112 29 61 6 84 12 102 29 19 18
40 23 107 27 60 4 89 11 103 24 13 11 50 21 103 28 55 6 92 17 108 30 16 12
40 19 69 19 47 0 73 10 104 41 11 11 33 19 53 19 18 0 44 8 57 19 26 20 138
61 167 61 10 0 28 14 40 30 13 17 27 30 33 30 6 0 27 14 46 30 18 17 43 30 54
30 12 0 33 7 47 15 17 9 76 18 154 23 111 7 131 11 151 30 15 14 36 22 59 22
24 0 46 8 66 25 16 14 58 32 93 41 35 8 91 29 124 46 139 72 437 326 451 385
4 13 10 23 14 23 8 0 67 96 83 135 5 11 16 29 26 40 10 11 22 31 26 44 4 12
17 38 30 57 12 18 26 50 30 71 4 20 15 54 26 75 11 21 22 59 25 85 4 27 17 93
31 148 23 91 25 113 20 255 -4 127 -9 165 -26 208 -14 34 -23 87 -27 145 -5
69 -12 104 -30 139 -13 26 -24 54 -24 61 0 8 -11 30 -23 49 -13 19 -27 47 -31
63 -4 16 -21 47 -37 69 -16 22 -29 46 -29 53 0 15 -32 51 -131 149 -170 166
-301 226 -494 227 -106 1 -151 -12 -227 -65 -79 -54 -107 -89 -119 -147 -6
-31 -18 -65 -25 -76 -27 -38 -13 -106 42 -205 7 -14 20 -39 28 -55 8 -17 51
-65 95 -108 45 -43 81 -83 81 -91 0 -7 12 -23 26 -37 14 -13 33 -37 41 -53 8
-16 24 -38 34 -50 11 -11 24 -37 30 -59 5 -21 19 -47 31 -59 17 -17 19 -28 14
-72 -4 -28 -10 -86 -15 -128 -8 -79 -18 -101 -77 -175 -19 -23 -43 -61 -53
-85 -20 -46 -65 -99 -121 -140 -31 -23 -142 -68 -207 -85 -34 -8 -73 22 -73
56 0 16 -7 48 -15 72 -10 26 -16 78 -16 130 0 76 -3 91 -25 120 -13 18 -24 38
-24 45 0 6 -11 28 -25 48 -14 20 -25 47 -25 60 0 12 -10 33 -21 45 -29 31 -69
111 -69 138 0 12 -8 28 -19 35 -10 7 -25 27 -34 43 -8 17 -25 38 -36 47 -14
12 -21 30 -21 53 0 20 -7 41 -19 52 -10 10 -25 32 -34 48 -8 17 -27 41 -41 54
-14 13 -31 40 -37 59 -6 19 -22 50 -35 70 -13 19 -24 39 -24 44 0 6 -11 23
-25 40 -14 16 -25 42 -25 56 0 16 -8 32 -20 40 -11 7 -20 16 -20 22 0 5 -13
31 -30 57 -16 26 -30 52 -30 59 0 7 -23 47 -51 89 -28 43 -56 91 -61 109 -6
17 -19 40 -28 51 -10 11 -25 37 -33 57 -9 20 -34 60 -56 88 -23 29 -44 64 -48
78 -6 27 -64 141 -89 177 -8 11 -14 29 -14 40 0 12 -11 32 -25 45 -14 13 -25
31 -25 39 0 9 -11 34 -25 56 -13 22 -25 47 -25 55 0 8 -23 41 -50 73 -28 32
-50 68 -50 79 0 11 -11 33 -25 50 -21 25 -25 40 -25 101 -1 50 -7 84 -20 112
-11 24 -19 62 -20 93 0 39 -8 67 -30 109 -16 31 -30 69 -30 85 0 16 -12 54
-26 85 l-27 56 8 221 c6 194 9 224 26 247 18 26 19 50 19 434 l0 406 -24 32
c-14 18 -28 44 -31 60 -5 20 -13 27 -30 27 -13 0 -36 10 -52 23 -25 21 -38 23
-135 22 -98 0 -108 -2 -132 -24 -20 -19 -38 -25 -86 -27 l-60 -2 25 20 c58 46
72 126 30 176 -25 30 -83 51 -120 44z m-2610 -610 c6 -4 19 -20 30 -37 10 -16
39 -52 64 -80 56 -61 65 -76 81 -143 21 -90 1 -136 -75 -175 -16 -8 -41 -27
-54 -41 -26 -28 -86 -45 -102 -29 -5 5 -13 84 -16 174 -11 283 -11 284 16 313
25 27 38 31 56 18z m2991 -130 c22 -15 22 -42 2 -99 -12 -36 -20 -83 -20 -123
0 -36 -6 -83 -13 -105 -7 -22 -19 -87 -26 -144 -11 -93 -25 -131 -48 -131 -14
0 -58 56 -125 156 l-66 101 0 74 c0 41 4 79 8 85 4 6 27 24 52 41 25 17 75 58
110 92 63 59 97 73 126 53z m-2943 -563 c12 -6 33 -22 47 -34 14 -12 40 -25
57 -28 81 -15 129 -85 120 -174 -3 -30 -2 -53 4 -53 5 0 9 9 9 19 0 11 5 23
10 26 6 4 20 26 31 50 11 24 32 51 47 61 14 9 38 30 53 46 32 36 90 51 141 37
21 -5 60 -7 88 -3 56 7 169 -15 235 -47 22 -10 48 -19 57 -19 9 0 19 -9 23
-19 6 -18 7 -18 43 2 25 13 46 18 62 14 49 -13 55 -23 60 -102 5 -73 4 -75
-17 -75 -13 0 -23 4 -23 10 0 5 -7 7 -16 3 -12 -4 -14 -14 -10 -36 15 -74 28
-107 41 -107 11 0 15 -12 15 -40 0 -28 -4 -40 -14 -40 -9 0 -18 -21 -25 -61
-12 -73 -47 -135 -114 -207 -66 -69 -103 -91 -177 -103 -130 -21 -294 24 -397
108 -52 43 -105 146 -124 243 -6 33 -14 60 -16 60 -2 0 -21 -11 -41 -25 -20
-14 -44 -25 -52 -25 -9 0 -31 -16 -50 -35 -63 -65 -151 -72 -220 -16 -22 17
-46 31 -55 31 -29 0 -93 39 -115 71 -26 35 -37 107 -22 135 7 14 6 26 -4 44
-16 30 -18 94 -3 123 20 39 62 76 98 88 20 6 50 24 66 39 17 15 39 32 50 38
26 15 110 15 138 1z m2186 -39 c98 -36 179 -97 227 -172 24 -38 44 -72 44 -76
0 -5 10 -39 21 -77 21 -65 21 -70 5 -120 -9 -28 -16 -72 -16 -96 0 -34 -9 -60
-36 -105 -50 -83 -71 -103 -141 -135 -87 -40 -202 -41 -318 -3 -76 25 -165 81
-207 129 -52 59 -94 208 -77 269 5 17 9 43 9 57 0 32 44 135 84 199 80 127
257 184 405 130z"/>
<path d="M914 6536 c-35 -55 8 -166 65 -166 45 0 65 31 57 87 -8 62 -34 97
-74 101 -24 2 -34 -3 -48 -22z"/>
<path d="M1470 6554 c0 -3 11 -15 25 -26 18 -14 25 -29 25 -52 0 -49 -30 -71
-97 -71 -48 0 -58 4 -79 28 -13 15 -24 32 -24 38 0 16 39 10 60 -11 23 -23 58
-26 84 -7 45 33 -22 66 -108 53 -38 -6 -46 -11 -56 -39 -6 -18 -19 -48 -27
-67 -22 -51 -18 -180 8 -265 17 -57 30 -77 76 -121 72 -69 140 -96 256 -102
48 -2 99 -1 113 2 35 9 118 97 148 159 20 38 26 66 26 114 0 35 -4 63 -10 63
-5 0 -10 -13 -10 -30 0 -20 -5 -30 -15 -30 -13 0 -15 11 -13 63 2 37 7 60 13
57 6 -3 9 -13 9 -23 -2 -23 20 -16 24 8 5 22 -45 144 -69 170 -19 19 -19 19
-19 -23 0 -34 -3 -42 -19 -42 -15 0 -19 11 -25 62 -8 77 -30 98 -34 33 -6 -84
-89 -122 -151 -69 -33 28 -42 75 -21 115 10 18 7 19 -40 19 -27 0 -50 -3 -50
-6z"/>
<path d="M745 6495 c-27 -26 -30 -43 -15 -94 20 -70 78 -102 113 -63 33 36 12
148 -31 171 -30 16 -40 14 -67 -14z"/>
<path d="M2852 6541 c-30 -32 -70 -90 -93 -136 -38 -76 -40 -83 -34 -145 4
-36 16 -87 28 -115 21 -53 82 -124 132 -155 67 -41 280 -62 300 -29 4 5 17 9
30 9 27 0 78 54 101 108 9 20 20 84 24 141 l9 104 -35 73 c-58 123 -151 178
-324 193 l-85 8 -53 -56z"/>
</g>
</svg>
