<?xml version="1.0" standalone="no"?>
<!DOCTYPE svg PUBLIC "-//W3C//DTD SVG 20010904//EN"
 "http://www.w3.org/TR/2001/REC-SVG-20010904/DTD/svg10.dtd">
<svg version="1.0" xmlns="http://www.w3.org/2000/svg"
 width="704.000000pt" height="1280.000000pt" viewBox="0 0 704.000000 1280.000000"
 preserveAspectRatio="xMidYMid meet">
<metadata>
Created by potrace 1.16, written by Peter Selinger 2001-2019
</metadata>
<g transform="translate(0.000000,1280.000000) scale(0.100000,-0.100000)"
fill="#000000" stroke="none">
<path d="M4605 10559 c-159 -14 -268 -29 -369 -50 -563 -117 -1036 -451 -1175
-831 -45 -122 -55 -180 -55 -318 0 -109 4 -150 22 -214 128 -450 588 -799
1219 -925 186 -38 331 -51 549 -51 620 0 1139 174 1485 498 179 167 293 386
319 612 18 150 -17 335 -90 480 -142 280 -436 515 -832 663 -300 113 -730 167
-1073 136z m558 -175 c306 -40 610 -148 837 -299 87 -58 215 -177 276 -258 54
-72 126 -218 145 -297 22 -89 17 -280 -9 -364 -49 -152 -128 -274 -258 -395
-236 -221 -580 -365 -1012 -425 -146 -21 -514 -21 -672 -2 -511 64 -924 266
-1141 559 -120 160 -164 297 -157 486 5 134 31 226 101 351 56 100 219 264
347 349 391 258 969 369 1543 295z"/>
<path d="M4275 9901 c-78 -20 -153 -88 -201 -183 -37 -71 -45 -199 -19 -279
42 -128 95 -207 231 -344 108 -110 195 -179 362 -290 84 -56 81 -56 190 25
198 148 309 247 403 355 190 220 216 459 67 621 -105 115 -259 135 -415 55
-48 -24 -101 -77 -144 -146 l-31 -50 -28 56 c-33 65 -103 133 -168 162 -51 22
-191 33 -247 18z m87 -118 c23 -26 9 -53 -50 -98 -29 -22 -58 -54 -68 -76 -18
-41 -38 -48 -75 -29 -51 28 11 179 86 210 35 15 91 11 107 -7z"/>
<path d="M3761 8305 c-192 -60 -163 -343 38 -363 146 -14 253 145 183 273 -26
49 -113 106 -159 104 -10 0 -38 -6 -62 -14z m93 -79 c68 -28 88 -108 41 -164
-85 -101 -241 21 -164 129 11 16 35 33 52 38 18 5 33 10 35 10 1 1 18 -5 36
-13z"/>
<path d="M3462 7966 c-54 -62 -51 -121 9 -177 21 -20 26 -29 15 -29 -8 0 -20
-8 -25 -19 -6 -10 -26 -21 -46 -24 -19 -3 -47 -15 -62 -26 -18 -15 -40 -21
-74 -21 -26 0 -51 -5 -55 -11 -3 -6 -31 -22 -60 -35 -30 -13 -54 -28 -54 -33
0 -6 -19 -16 -42 -22 -24 -7 -56 -23 -71 -36 -40 -32 -78 -30 -110 7 l-27 30
-180 0 c-177 0 -179 0 -206 25 l-27 25 -467 0 -467 0 -23 25 c-16 17 -34 25
-56 25 -20 0 -44 10 -62 25 -17 14 -35 25 -42 25 -6 0 -26 11 -44 25 -18 14
-43 25 -55 25 -12 0 -33 13 -48 30 -13 17 -34 30 -44 30 -11 0 -35 16 -55 35
l-34 35 -162 -1 c-89 -1 -172 -4 -184 -8 -13 -3 -34 -21 -47 -39 -24 -32 -24
-34 -19 -222 l5 -189 -32 -30 c-25 -23 -31 -37 -31 -69 0 -32 5 -44 28 -60
l27 -20 -1 -276 -1 -275 -32 -30 c-27 -25 -31 -36 -31 -81 0 -44 -4 -55 -25
-72 -23 -18 -25 -26 -25 -107 0 -73 -3 -91 -19 -105 -16 -15 -19 -35 -23 -151
-3 -131 -4 -134 -30 -155 l-27 -21 -3 -243 -3 -244 -25 -20 c-20 -17 -24 -27
-22 -67 1 -38 -3 -54 -23 -77 -16 -19 -25 -42 -25 -63 0 -28 -7 -39 -37 -61
-50 -37 -73 -64 -73 -90 0 -19 -26 -59 -80 -122 -11 -13 -20 -29 -20 -36 0 -7
-17 -33 -39 -57 -78 -89 -71 58 -71 -1532 l0 -1425 24 -16 c14 -8 47 -38 75
-66 27 -27 58 -50 69 -50 10 0 29 -11 42 -25 18 -19 34 -25 66 -25 34 0 51 -7
77 -30 19 -16 44 -30 56 -30 11 0 30 -9 41 -20 15 -15 36 -22 73 -23 36 -2 62
-10 84 -27 30 -22 44 -24 250 -32 204 -9 2799 -5 2927 4 43 3 62 9 72 23 13
18 31 21 154 25 120 5 141 8 153 24 10 13 35 20 103 28 62 7 95 16 109 29 15
13 43 20 105 24 64 5 90 11 105 25 14 13 48 23 100 31 44 6 91 18 105 27 14 9
51 19 83 23 37 4 71 16 96 33 20 14 51 26 67 26 17 0 40 9 53 21 25 23 118 59
154 59 14 0 32 12 45 30 13 17 29 30 37 30 9 0 29 13 47 30 17 16 41 30 52 30
12 0 32 7 45 17 17 12 58 18 148 23 97 6 128 12 143 25 11 10 43 22 70 26 30
5 63 18 79 32 18 14 54 29 92 36 35 7 76 21 90 32 15 10 30 19 33 19 8 0 120
71 126 80 3 4 21 18 40 31 115 78 280 240 280 275 0 8 4 14 9 14 11 0 102 153
137 230 9 19 24 44 34 55 10 11 21 38 25 60 4 22 18 63 31 91 13 28 24 66 24
84 0 18 12 76 26 129 25 91 26 105 21 261 -4 134 -9 174 -25 210 -11 27 -24
90 -30 150 -6 66 -18 120 -30 145 -52 105 -82 171 -82 181 0 6 -13 28 -30 49
-16 21 -30 43 -30 50 0 30 -183 216 -267 271 -121 79 -258 119 -388 112 -46
-2 -89 -9 -97 -15 -7 -6 -24 -14 -38 -18 -33 -10 -120 -76 -153 -115 -15 -17
-27 -44 -27 -59 0 -15 -9 -44 -20 -66 -23 -45 -26 -112 -6 -140 7 -11 17 -31
21 -45 10 -36 64 -119 105 -163 52 -58 84 -87 93 -87 4 0 16 -20 27 -45 11
-25 24 -45 29 -45 5 0 20 -17 32 -37 13 -21 33 -48 45 -61 12 -12 24 -36 28
-52 3 -17 15 -43 27 -59 16 -22 20 -38 15 -68 -3 -21 -10 -78 -16 -128 -9 -75
-16 -97 -46 -142 -19 -28 -39 -55 -45 -58 -5 -4 -20 -30 -33 -58 -31 -70 -141
-173 -199 -187 -23 -5 -59 -19 -79 -30 -73 -39 -128 -17 -128 52 0 20 -7 52
-15 71 -10 23 -15 69 -15 126 0 81 -2 92 -25 119 -14 17 -25 33 -25 37 0 5
-11 22 -23 39 -13 17 -27 47 -31 67 -3 21 -13 42 -21 49 -22 18 -65 107 -65
134 0 14 -8 31 -18 38 -11 7 -25 24 -32 38 -7 13 -24 33 -37 43 -17 14 -23 28
-23 57 0 25 -7 46 -19 57 -10 10 -26 33 -35 51 -9 18 -26 38 -37 45 -11 6 -24
30 -30 52 -6 22 -22 52 -35 68 -13 16 -24 35 -24 42 0 7 -11 27 -25 43 -14 17
-25 41 -25 55 0 14 -11 38 -24 54 -40 47 -86 126 -86 146 0 10 -9 31 -21 45
-67 87 -89 124 -89 146 0 15 -13 38 -30 56 -16 17 -30 39 -30 49 0 11 -22 46
-49 78 -28 33 -54 77 -60 101 -7 23 -16 42 -21 42 -4 0 -11 13 -15 29 -3 17
-20 47 -36 67 -16 20 -29 47 -29 60 0 12 -11 35 -24 51 -13 15 -29 45 -35 65
-7 21 -17 40 -22 43 -5 4 -9 13 -9 21 0 13 -72 120 -90 134 -4 3 -12 20 -18
39 -7 19 -20 43 -29 53 -12 13 -19 45 -23 101 -3 45 -13 96 -22 112 -8 17 -18
59 -20 95 -4 45 -14 82 -32 115 -14 28 -26 65 -26 83 0 18 -11 55 -25 82 -25
49 -25 51 -21 265 3 202 5 218 25 245 21 29 21 36 21 448 l0 420 -25 16 c-14
9 -25 25 -25 35 0 34 -12 51 -35 51 -12 0 -35 10 -50 22 -23 18 -43 22 -136
25 -105 3 -111 2 -134 -21 -18 -19 -38 -26 -80 -29 l-55 -5 30 34 c40 46 49
98 24 143 -23 43 -55 61 -110 61 -35 0 -47 -6 -72 -34z m-2544 -598 c15 -17
53 -59 84 -94 56 -61 72 -96 84 -180 8 -55 -13 -94 -73 -133 -27 -17 -63 -43
-82 -56 -42 -31 -77 -33 -86 -4 -4 12 -9 74 -10 138 -2 64 -6 157 -10 206 -8
89 -7 91 20 123 15 17 31 32 37 32 5 0 22 -14 36 -32z m2976 -120 c20 -28 20
-51 0 -108 -9 -25 -15 -70 -15 -100 0 -30 -6 -77 -14 -105 -8 -27 -19 -90 -25
-140 -13 -103 -24 -135 -44 -135 -18 0 -65 56 -137 165 -59 89 -59 90 -59 165
0 41 4 80 8 85 4 6 32 29 62 51 31 23 80 64 110 93 60 56 90 63 114 29z
m-2882 -564 c14 -10 35 -32 46 -48 11 -16 38 -38 59 -50 27 -15 45 -36 64 -74
l25 -53 28 51 c15 27 32 50 37 50 6 0 30 20 54 44 49 47 85 59 144 45 20 -5
59 -6 88 -2 59 6 176 -17 235 -48 20 -10 47 -19 58 -19 14 0 24 -8 27 -20 5
-19 7 -19 22 -6 25 23 68 30 101 16 33 -14 38 -27 42 -113 3 -53 2 -57 -19
-57 -13 0 -23 5 -23 10 0 7 -6 7 -19 1 -18 -10 -18 -13 -2 -76 12 -49 20 -65
34 -65 27 0 24 -76 -3 -83 -16 -4 -20 -14 -20 -49 0 -30 -10 -65 -30 -104 -36
-70 -56 -93 -132 -155 -49 -40 -66 -47 -130 -58 -137 -22 -288 19 -395 106
-52 43 -101 139 -123 241 -8 34 -18 62 -22 62 -4 0 -15 -11 -24 -25 -19 -29
-89 -65 -127 -65 -14 0 -47 -11 -73 -25 -26 -14 -58 -25 -72 -25 -44 0 -112
40 -137 80 -13 21 -35 40 -48 44 -14 3 -38 21 -55 40 -40 46 -50 108 -26 162
9 21 18 62 19 91 2 85 69 153 150 153 21 0 49 8 63 19 41 28 53 31 108 28 30
-2 60 -11 76 -23z m2135 -24 c135 -47 232 -153 278 -301 23 -77 25 -93 15
-121 -7 -18 -16 -67 -20 -109 -7 -60 -15 -86 -41 -125 -45 -69 -70 -91 -142
-124 -54 -26 -73 -30 -150 -30 -165 0 -332 85 -402 205 -25 42 -60 188 -50
206 4 5 10 36 15 68 14 99 81 223 152 279 22 17 41 32 42 32 1 0 26 9 56 20
74 25 175 25 247 0z"/>
<path d="M914 6536 c-35 -55 8 -166 65 -166 45 0 65 31 57 87 -8 62 -34 97
-74 101 -24 2 -34 -3 -48 -22z"/>
<path d="M1470 6554 c0 -3 11 -15 25 -26 18 -14 25 -29 25 -52 0 -49 -30 -71
-97 -71 -48 0 -58 4 -79 29 -14 15 -23 33 -21 40 6 16 35 8 58 -15 33 -33 108
-15 94 23 -7 19 -35 28 -85 28 -58 0 -80 -19 -107 -90 -32 -86 -33 -188 -3
-285 19 -59 31 -79 79 -126 80 -78 152 -102 291 -97 l100 3 51 55 c67 72 99
142 99 220 0 33 -4 60 -10 60 -5 0 -10 -13 -10 -30 0 -21 -5 -30 -16 -30 -13
0 -15 10 -12 60 2 33 8 60 13 59 6 -1 9 -11 7 -22 -2 -12 1 -18 10 -15 8 3 12
19 12 39 -2 38 -59 169 -74 169 -6 0 -10 -18 -10 -40 0 -32 -4 -40 -19 -40
-15 0 -19 11 -25 62 -8 77 -30 98 -34 33 -6 -84 -89 -122 -151 -69 -33 28 -42
75 -21 115 10 18 7 19 -40 19 -27 0 -50 -3 -50 -6z"/>
<path d="M745 6495 c-27 -26 -30 -43 -15 -94 20 -70 78 -102 113 -63 33 36 12
148 -31 171 -30 16 -40 14 -67 -14z"/>
<path d="M2844 6533 c-28 -32 -66 -89 -85 -128 -29 -59 -34 -80 -32 -133 2
-96 34 -171 98 -232 30 -27 66 -55 80 -60 36 -14 164 -40 196 -40 36 0 139 36
162 58 42 38 69 111 78 217 l10 102 -34 75 c-42 91 -94 138 -196 173 -52 18
-91 25 -149 25 l-78 0 -50 -57z"/>
</g>
</svg>
