<?xml version="1.0" standalone="no"?>
<!DOCTYPE svg PUBLIC "-//W3C//DTD SVG 20010904//EN"
 "http://www.w3.org/TR/2001/REC-SVG-20010904/DTD/svg10.dtd">
<svg version="1.0" xmlns="http://www.w3.org/2000/svg"
 width="704.000000pt" height="1280.000000pt" viewBox="0 0 704.000000 1280.000000"
 preserveAspectRatio="xMidYMid meet">
<metadata>
Created by potrace 1.16, written by Peter Selinger 2001-2019
</metadata>
<g transform="translate(0.000000,1280.000000) scale(0.100000,-0.100000)"
fill="#000000" stroke="none">
<path d="M4560 10555 c-236 -21 -421 -60 -617 -131 -483 -174 -818 -482 -914
-839 -32 -117 -32 -328 -1 -439 70 -244 234 -460 472 -622 372 -253 815 -366
1379 -351 316 8 536 46 796 136 358 125 659 351 804 606 219 382 149 802 -188
1135 -291 287 -732 465 -1266 510 -151 12 -280 11 -465 -5z m595 -170 c318
-42 610 -145 840 -296 94 -62 265 -229 320 -314 86 -131 120 -254 119 -420 -1
-100 -6 -133 -28 -200 -43 -134 -108 -237 -221 -351 -239 -240 -576 -391
-1015 -454 -216 -31 -569 -29 -784 5 -292 45 -586 155 -793 296 -107 74 -248
217 -307 312 -137 221 -154 484 -46 716 91 193 311 394 565 515 381 182 884
253 1350 191z"/>
<path d="M4170 10095 c-101 -17 -164 -48 -230 -115 -60 -59 -95 -115 -131
-207 -32 -83 -32 -230 0 -333 23 -76 73 -176 120 -240 134 -182 339 -382 541
-526 220 -156 244 -171 271 -164 27 8 98 55 186 124 29 23 82 64 119 91 263
198 436 378 551 574 61 104 73 145 80 266 5 104 3 116 -26 205 -68 212 -234
334 -448 329 -110 -2 -171 -22 -263 -84 -81 -55 -127 -106 -175 -196 l-32 -61
-28 55 c-16 31 -52 82 -82 115 -123 139 -277 196 -453 167z m55 -170 c45 -44
34 -64 -74 -147 -25 -18 -61 -60 -81 -93 -42 -69 -64 -77 -103 -41 -45 42 -33
125 31 219 57 82 175 115 227 62z"/>
<path d="M3761 8305 c-118 -37 -168 -172 -102 -277 58 -91 175 -114 263 -52
126 89 101 268 -44 328 -44 19 -59 19 -117 1z m93 -79 c68 -28 88 -108 41
-164 -85 -101 -241 21 -164 129 11 16 35 33 52 38 18 5 33 10 35 10 1 1 18 -5
36 -13z"/>
<path d="M3468 7973 c-57 -60 -57 -123 -1 -179 21 -22 28 -34 19 -34 -9 0 -20
-8 -25 -19 -6 -10 -26 -21 -46 -24 -19 -3 -47 -15 -62 -26 -17 -14 -40 -21
-70 -21 -32 0 -54 -7 -77 -25 -18 -14 -40 -25 -48 -25 -8 0 -29 -13 -46 -30
-21 -20 -42 -30 -62 -30 -18 0 -33 -6 -36 -15 -14 -36 -96 -35 -135 1 -25 24
-29 24 -203 24 -176 0 -177 0 -200 25 l-23 25 -470 0 -470 0 -23 25 c-17 18
-34 25 -60 25 -24 0 -43 7 -55 20 -10 11 -27 22 -39 26 -11 4 -33 15 -47 25
-14 10 -38 21 -54 25 -16 4 -39 19 -52 34 -12 15 -36 30 -53 33 -19 4 -34 16
-41 31 -6 13 -21 27 -33 30 -35 10 -333 7 -360 -4 -52 -19 -60 -56 -61 -267
l0 -193 -27 -25 c-38 -35 -40 -100 -4 -116 22 -10 24 -18 29 -122 4 -62 4
-191 1 -287 l-5 -175 -30 -24 c-27 -21 -30 -28 -28 -72 2 -42 -1 -53 -25 -78
-23 -24 -27 -37 -26 -77 3 -90 0 -112 -18 -130 -14 -14 -18 -42 -22 -152 -5
-131 -6 -134 -32 -157 l-28 -24 0 -235 0 -235 -31 -32 c-28 -28 -30 -36 -25
-72 6 -33 2 -46 -18 -76 -14 -20 -26 -51 -28 -70 -2 -25 -11 -40 -38 -59 -49
-36 -70 -63 -70 -91 0 -20 -21 -51 -74 -111 -7 -8 -19 -26 -26 -40 -7 -14 -28
-43 -45 -65 -71 -88 -65 49 -65 -1529 l0 -1425 42 -30 c24 -17 56 -47 71 -66
17 -22 37 -35 51 -35 12 0 33 -11 46 -25 19 -20 33 -25 70 -25 38 0 51 -5 75
-30 18 -19 39 -30 56 -30 16 0 34 -8 41 -19 9 -13 29 -19 73 -23 45 -3 67 -10
82 -25 16 -16 41 -23 100 -30 83 -9 2885 -11 3040 -2 76 4 96 8 112 25 16 18
36 22 157 27 114 6 141 10 158 26 15 13 43 20 100 25 57 4 86 11 100 25 15 13
44 20 106 25 64 5 90 12 105 26 12 11 41 22 66 25 104 12 122 16 147 34 15 11
51 21 80 25 29 3 65 14 81 25 15 11 47 24 70 30 23 5 50 16 59 23 23 19 128
58 157 58 15 0 32 11 45 30 12 16 28 30 36 30 8 0 27 12 41 26 15 15 41 31 57
35 17 4 49 14 71 23 22 8 74 15 115 16 85 1 149 13 160 31 4 6 31 15 59 20 31
5 64 18 81 32 17 15 48 27 77 31 68 10 212 88 283 153 14 13 28 23 32 23 4 0
44 32 90 70 90 76 178 173 178 196 0 8 4 14 8 14 9 0 92 134 92 148 0 5 9 17
20 27 11 10 25 35 30 57 6 21 15 38 19 38 10 0 26 37 40 95 6 22 20 58 31 80
11 21 20 55 20 73 0 19 12 78 26 131 25 91 26 104 21 261 -4 129 -10 176 -25
215 -11 28 -25 95 -32 150 -12 97 -28 147 -85 258 -14 26 -25 53 -25 61 0 7
-13 30 -30 51 -16 21 -30 43 -30 50 0 17 -41 67 -120 144 -137 134 -200 174
-346 215 -132 38 -267 30 -350 -22 -111 -69 -149 -112 -158 -180 -3 -27 -13
-55 -21 -62 -20 -16 -20 -94 0 -128 8 -15 21 -43 30 -62 29 -65 60 -108 133
-181 70 -71 102 -112 139 -173 10 -16 30 -43 44 -60 14 -17 29 -44 33 -60 4
-15 16 -41 28 -56 15 -22 19 -37 14 -67 -3 -21 -10 -74 -15 -117 -14 -113 -16
-118 -71 -187 -28 -34 -50 -70 -50 -79 0 -45 -138 -174 -203 -190 -23 -6 -61
-19 -85 -30 -23 -11 -53 -20 -66 -20 -31 0 -56 30 -56 68 0 17 -5 43 -12 59
-6 15 -14 77 -17 137 -6 98 -9 111 -29 124 -12 8 -22 23 -22 32 0 10 -11 32
-25 48 -14 17 -25 41 -25 55 0 13 -8 35 -18 48 -27 36 -59 100 -67 137 -6 31
-16 45 -86 118 -20 21 -29 41 -29 63 0 22 -11 46 -35 75 -19 24 -35 48 -35 54
0 7 -9 17 -20 24 -11 7 -25 31 -31 53 -6 22 -19 49 -29 60 -10 11 -27 39 -39
62 -11 23 -25 44 -30 47 -5 3 -12 23 -16 43 -4 21 -10 40 -15 43 -14 9 -90
133 -90 146 0 8 -25 50 -55 95 -30 45 -55 92 -55 105 0 13 -13 38 -30 56 -16
17 -30 39 -30 48 0 10 -23 46 -50 80 -28 35 -53 75 -57 89 -3 14 -12 33 -19
42 -8 8 -19 31 -25 50 -7 19 -23 47 -36 62 -12 16 -23 39 -23 51 0 12 -11 37
-25 56 -14 19 -25 40 -25 48 0 8 -9 25 -20 39 -11 14 -20 32 -20 40 0 15 -32
61 -82 121 -15 18 -28 41 -28 50 0 10 -11 33 -25 52 -21 28 -25 45 -25 98 0
39 -7 81 -19 110 -11 26 -22 74 -24 107 -3 38 -14 78 -31 109 -14 27 -26 64
-26 83 0 18 -11 55 -25 81 -24 47 -25 48 -20 266 5 196 7 222 25 251 19 31 20
50 20 442 l0 410 -25 23 c-14 13 -25 33 -25 44 0 30 -11 42 -45 50 -16 4 -35
16 -43 27 -12 17 -26 19 -118 19 -104 0 -138 -8 -160 -38 -7 -10 -34 -17 -75
-20 l-63 -5 36 35 c47 44 59 97 32 147 -36 67 -128 84 -176 34z m-2541 -610
c15 -20 49 -60 76 -88 30 -34 54 -72 67 -110 36 -105 22 -152 -59 -204 -27
-18 -55 -39 -63 -48 -7 -9 -28 -22 -47 -30 -56 -24 -62 -9 -66 153 -1 77 -6
162 -10 191 -9 64 -1 113 26 147 28 35 43 33 76 -11z m2978 -123 c14 -27 14
-34 1 -63 -20 -45 -27 -82 -32 -159 -2 -37 -8 -77 -14 -87 -5 -11 -10 -33 -10
-50 0 -41 -20 -171 -31 -198 -19 -49 -56 -16 -160 142 -59 89 -59 90 -59 165
0 41 4 80 8 86 4 6 33 30 66 53 32 24 68 53 79 65 41 41 92 75 114 76 15 0 28
-10 38 -30z m-2912 -551 c32 -16 77 -61 77 -75 0 -7 19 -25 43 -41 26 -17 50
-44 62 -70 11 -23 23 -42 27 -43 4 0 19 23 33 50 14 28 29 50 34 50 5 0 30 20
55 44 50 47 86 58 144 45 19 -4 58 -5 88 -2 60 6 177 -17 236 -48 20 -10 47
-19 58 -19 13 0 24 -8 27 -19 4 -18 6 -18 42 2 24 13 45 18 61 14 49 -13 55
-23 60 -102 5 -73 4 -75 -17 -75 -13 0 -23 5 -23 10 0 7 -6 7 -19 1 -18 -10
-18 -13 -2 -76 12 -49 20 -65 34 -65 27 0 24 -76 -3 -83 -16 -4 -20 -14 -20
-45 0 -73 -41 -153 -118 -228 -58 -57 -102 -81 -173 -94 -128 -23 -292 21
-398 107 -58 48 -114 172 -135 299 -2 16 -5 31 -5 34 -1 3 -12 -13 -25 -35
-30 -49 -75 -77 -130 -79 -23 -1 -63 -13 -90 -25 -75 -37 -142 -17 -193 58
-12 18 -37 42 -55 54 -75 51 -103 152 -58 210 13 16 20 40 20 69 0 82 66 148
148 148 23 0 59 9 79 20 42 22 103 26 136 9z m2149 -29 c134 -50 240 -157 276
-277 33 -108 34 -115 17 -168 -8 -27 -15 -68 -15 -90 0 -86 -83 -203 -174
-246 -172 -82 -456 6 -558 171 -41 67 -58 170 -42 262 20 114 86 242 155 298
83 66 237 89 341 50z"/>
<path d="M919 6539 c-18 -18 -20 -29 -15 -68 8 -60 34 -95 74 -99 65 -7 81 92
25 158 -29 35 -55 38 -84 9z"/>
<path d="M1470 6554 c0 -3 11 -15 25 -26 18 -14 25 -29 25 -52 0 -49 -30 -71
-97 -71 -48 0 -58 4 -79 28 -13 15 -24 32 -24 38 0 16 39 10 60 -11 23 -23 58
-26 84 -7 54 39 -65 79 -134 44 -41 -21 -65 -96 -65 -212 0 -139 21 -204 89
-269 75 -72 141 -99 253 -104 51 -2 104 -1 118 2 43 11 131 109 154 172 22 57
29 164 11 164 -5 0 -10 -13 -10 -30 0 -21 -5 -30 -16 -30 -13 0 -15 10 -12 60
2 33 8 60 13 59 6 -1 9 -11 7 -22 -2 -12 1 -18 10 -15 8 3 12 19 12 39 -2 39
-58 169 -74 169 -5 0 -10 -18 -10 -40 0 -32 -4 -40 -19 -40 -15 0 -19 11 -25
62 -8 77 -30 98 -34 33 -6 -84 -89 -122 -151 -69 -33 28 -42 75 -21 115 10 18
7 19 -40 19 -27 0 -50 -3 -50 -6z"/>
<path d="M745 6490 c-13 -15 -16 -30 -13 -65 10 -84 65 -129 109 -89 18 16 20
28 17 72 -7 85 -69 131 -113 82z"/>
<path d="M2906 6590 c-30 -10 -121 -126 -151 -191 -37 -79 -39 -145 -6 -241
19 -57 32 -76 79 -118 61 -55 101 -72 207 -90 64 -11 78 -10 145 9 108 30 145
88 161 247 10 107 9 110 -25 189 -36 80 -99 136 -190 169 -68 24 -187 38 -220
26z"/>
</g>
</svg>
