<?xml version="1.0" standalone="no"?>
<!DOCTYPE svg PUBLIC "-//W3C//DTD SVG 20010904//EN"
 "http://www.w3.org/TR/2001/REC-SVG-20010904/DTD/svg10.dtd">
<svg version="1.0" xmlns="http://www.w3.org/2000/svg"
 width="704.000000pt" height="1280.000000pt" viewBox="0 0 704.000000 1280.000000"
 preserveAspectRatio="xMidYMid meet">
<metadata>
Created by potrace 1.16, written by Peter Selinger 2001-2019
</metadata>
<g transform="translate(0.000000,1280.000000) scale(0.100000,-0.100000)"
fill="#000000" stroke="none">
<path d="M4715 10563 c-331 -14 -602 -69 -862 -174 -251 -102 -426 -218 -583
-386 -185 -199 -264 -389 -264 -643 0 -162 19 -242 94 -395 204 -419 744 -718
1419 -785 148 -14 434 -12 591 5 459 50 850 205 1130 446 350 303 457 736 275
1115 -228 474 -855 793 -1605 816 -69 3 -156 3 -195 1z m325 -168 c254 -24
416 -59 610 -132 678 -253 965 -798 678 -1285 -57 -98 -217 -258 -332 -333
-238 -155 -532 -256 -876 -301 -172 -22 -594 -14 -755 14 -559 99 -956 345
-1125 694 -56 114 -74 205 -67 337 8 162 42 266 132 401 79 119 224 249 380
342 353 211 869 311 1355 263z"/>
<path d="M4630 10080 c-128 -21 -257 -87 -345 -175 -95 -96 -136 -153 -163
-227 -43 -118 -55 -194 -49 -313 6 -105 8 -114 51 -201 115 -231 292 -370 518
-405 196 -30 405 38 559 183 16 14 51 34 79 43 l50 17 30 -30 c20 -21 52 -36
102 -49 39 -11 73 -24 75 -30 4 -11 -97 -39 -284 -78 -203 -43 -294 -96 -276
-163 21 -83 317 -103 548 -37 50 14 99 28 110 31 38 10 129 79 148 112 25 42
16 76 -29 118 l-35 32 36 22 c46 28 85 86 85 125 0 44 -33 91 -81 116 -37 18
-55 21 -130 17 -72 -3 -97 -9 -150 -36 -35 -17 -86 -49 -113 -72 -72 -59 -89
-49 -40 24 71 104 101 285 74 440 -12 68 -59 178 -114 263 -70 111 -245 225
-391 257 -88 19 -207 26 -265 16z m1110 -955 c30 -16 50 -43 50 -69 0 -23 -48
-74 -97 -103 l-44 -26 -97 23 c-170 40 -195 65 -117 118 95 66 237 92 305 57z
m-39 -277 c48 -27 54 -43 29 -78 -28 -40 -125 -85 -250 -117 -87 -22 -128 -27
-240 -27 -115 -1 -141 2 -175 19 -22 11 -40 25 -39 30 1 22 66 52 155 72 299
69 362 85 401 103 56 24 73 24 119 -2z"/>
<path d="M3756 8305 c-112 -40 -162 -175 -100 -271 92 -142 289 -116 343 45
29 88 -39 203 -136 230 -48 14 -59 13 -107 -4z m137 -105 c76 -84 -21 -218
-121 -166 -41 21 -62 53 -62 94 0 97 117 144 183 72z"/>
<path d="M3464 7966 c-29 -29 -34 -41 -34 -80 0 -39 6 -52 34 -83 l33 -37 -26
-21 c-14 -12 -37 -26 -51 -30 -14 -4 -41 -16 -60 -26 -19 -11 -53 -19 -75 -19
-28 0 -49 -7 -69 -25 -16 -14 -40 -25 -52 -25 -13 0 -39 -13 -57 -30 -19 -16
-45 -30 -58 -30 -12 0 -33 -9 -45 -21 -12 -11 -38 -22 -58 -25 -30 -3 -42 1
-63 22 -26 26 -28 26 -206 30 -173 4 -181 5 -204 28 l-23 24 -465 -1 -465 0
-28 26 c-18 17 -39 27 -58 27 -17 0 -45 11 -64 25 -19 14 -44 25 -57 25 -16 0
-27 8 -33 25 -8 20 -16 25 -44 25 -27 0 -40 7 -57 29 -12 16 -33 32 -47 36
-14 3 -34 17 -44 31 l-20 24 -191 -2 -192 -3 -25 -39 c-24 -38 -25 -40 -21
-223 l3 -185 -26 -27 c-15 -15 -29 -44 -33 -64 -5 -31 -1 -39 23 -60 l29 -25
0 -275 0 -275 -27 -22 c-25 -19 -28 -28 -28 -80 0 -52 -4 -62 -27 -85 -26 -23
-28 -31 -28 -103 0 -65 -4 -82 -22 -106 -21 -26 -23 -39 -23 -153 0 -124 0
-125 -28 -153 l-29 -28 -2 -234 c-2 -232 -2 -233 -27 -259 -19 -20 -24 -36
-24 -75 0 -38 -6 -58 -25 -84 -15 -20 -25 -47 -25 -67 0 -25 -7 -37 -28 -50
-46 -29 -82 -66 -82 -86 0 -22 -17 -56 -39 -78 -30 -31 -50 -58 -70 -96 -10
-21 -28 -46 -40 -57 -11 -10 -29 -36 -41 -58 -20 -38 -20 -49 -20 -1462 l0
-1424 35 -22 c19 -12 47 -37 63 -55 15 -19 43 -41 62 -49 20 -8 44 -24 54 -35
14 -15 31 -21 62 -21 35 0 50 -6 74 -30 18 -17 41 -30 56 -30 14 0 35 -11 47
-24 18 -19 32 -24 75 -23 40 1 59 -5 84 -24 l33 -24 1595 0 1595 0 23 23 c20
20 31 22 148 22 118 0 128 2 154 23 22 19 45 25 111 31 60 5 89 12 104 25 15
14 42 21 104 25 67 5 90 11 107 27 16 15 46 24 107 33 46 6 92 18 102 26 9 8
46 17 80 21 48 5 72 13 95 33 18 14 44 26 59 26 16 0 39 8 52 19 35 27 118 61
149 61 18 0 37 11 59 35 17 19 37 35 44 35 8 0 24 11 37 25 13 14 34 25 47 25
13 0 37 7 53 15 17 9 72 17 132 21 74 5 119 13 158 29 30 13 72 26 93 29 23 3
48 15 60 28 14 15 45 29 82 37 56 13 130 48 200 96 43 29 149 107 155 114 3 4
30 26 60 51 60 50 149 141 150 153 0 4 22 40 50 80 27 40 50 80 50 88 0 9 11
26 25 39 14 13 25 29 25 35 0 7 12 30 26 51 15 21 33 66 42 99 8 33 21 69 28
80 7 11 18 55 24 99 6 43 19 97 27 120 30 80 24 373 -11 482 -8 27 -20 92 -26
144 -7 62 -19 112 -35 145 -53 109 -75 159 -75 169 0 6 -14 27 -30 46 -16 19
-30 40 -30 46 0 5 -8 19 -18 30 -10 10 -23 28 -29 38 -12 22 -173 186 -183
186 -3 0 -15 8 -26 18 -21 18 -51 37 -95 59 -48 24 -219 63 -279 63 -79 0
-169 -32 -239 -85 -79 -60 -90 -74 -101 -134 -5 -29 -17 -62 -25 -74 -8 -12
-15 -30 -15 -41 0 -34 51 -170 69 -187 10 -8 22 -25 25 -37 4 -12 43 -58 87
-103 43 -44 79 -87 79 -96 0 -8 16 -29 35 -46 19 -17 35 -36 35 -42 0 -6 13
-24 29 -39 18 -18 32 -43 36 -68 4 -21 19 -53 33 -70 l26 -30 -17 -67 c-10
-36 -17 -90 -17 -119 0 -58 -24 -105 -84 -165 -18 -19 -37 -47 -40 -63 -12
-54 -136 -168 -200 -184 -23 -6 -62 -20 -89 -32 -57 -26 -98 -17 -108 22 -4
14 -13 45 -19 70 -7 25 -15 94 -19 154 -5 98 -8 110 -28 124 -13 8 -23 22 -23
32 0 9 -9 25 -20 35 -11 10 -23 35 -26 56 -4 21 -16 52 -27 71 -42 68 -67 120
-67 140 0 11 -9 30 -20 42 -66 69 -90 105 -90 136 0 32 -14 54 -87 137 -18 21
-33 48 -33 61 0 14 -13 40 -30 59 -16 18 -30 40 -30 48 0 8 -11 26 -25 41 -14
15 -25 36 -25 48 0 21 -10 38 -66 117 -17 24 -36 58 -42 76 -5 17 -31 62 -56
101 -25 38 -49 83 -52 100 -3 17 -17 41 -30 53 -13 13 -29 39 -34 58 -5 20
-20 47 -32 61 -33 36 -78 97 -78 106 0 6 -51 111 -85 174 -37 71 -115 236
-115 246 0 6 -7 18 -16 25 -22 18 -61 79 -101 158 -26 51 -33 77 -33 123 0 39
-7 72 -20 99 -12 22 -24 70 -27 107 -4 41 -15 84 -30 111 -12 24 -23 57 -23
74 0 16 -12 51 -26 77 l-25 47 3 224 c3 214 4 225 26 256 22 31 22 32 22 441
l0 411 -25 19 c-14 11 -25 29 -25 41 0 27 -34 61 -61 61 -12 0 -28 8 -35 18
-10 14 -30 17 -119 19 -104 2 -106 1 -139 -28 -29 -25 -42 -29 -91 -29 l-56 0
34 33 c86 81 39 207 -76 207 -31 0 -46 -7 -73 -34z m-2531 -614 c14 -21 48
-60 75 -89 56 -57 76 -107 76 -188 0 -56 -23 -100 -57 -109 -12 -3 -37 -18
-54 -33 -18 -16 -49 -37 -69 -48 -34 -18 -37 -18 -49 -2 -14 19 -29 164 -20
189 4 9 1 68 -5 132 -8 87 -7 122 1 139 33 64 63 67 102 9z m2971 -114 c7 -21
5 -43 -9 -85 -10 -32 -22 -92 -26 -133 -13 -139 -39 -315 -49 -337 -5 -13 -15
-23 -21 -23 -19 0 -81 71 -122 141 -22 35 -49 78 -60 94 -19 26 -21 41 -19
101 l4 72 85 73 c47 41 102 87 122 102 45 35 82 33 95 -5z m-743 -585 c78 -35
171 -109 206 -165 18 -29 45 -89 60 -135 27 -81 27 -83 10 -136 -9 -30 -17
-70 -17 -91 0 -35 -15 -78 -42 -121 -44 -68 -65 -88 -130 -121 -69 -35 -72
-35 -171 -31 -121 4 -201 30 -292 96 -118 84 -165 208 -140 371 15 101 63 197
133 268 45 44 64 55 142 78 63 19 184 12 241 -13z m-1427 -32 c90 -32 154 -82
180 -140 6 -14 23 -46 38 -71 35 -59 52 -155 43 -250 -10 -105 -52 -179 -152
-264 -69 -59 -81 -66 -144 -77 -143 -25 -323 31 -418 130 -21 22 -42 52 -45
67 -4 15 -16 39 -26 54 -17 24 -37 100 -47 181 -6 44 24 184 45 217 9 13 23
38 32 55 17 32 108 95 165 114 17 5 84 9 150 7 93 -1 133 -7 179 -23z"/>
<path d="M2851 6543 c-51 -56 -90 -118 -116 -186 -16 -42 -16 -56 -6 -117 18
-113 49 -169 119 -222 53 -40 72 -48 149 -62 48 -9 97 -16 109 -16 32 0 135
38 157 58 39 34 69 122 78 222 8 92 7 97 -22 160 -45 97 -71 125 -156 167 -69
34 -85 38 -172 41 l-96 4 -44 -49z"/>
<path d="M1488 6559 c-28 -5 -118 -42 -167 -68 -19 -9 -70 -155 -71 -197 0
-49 29 -164 54 -214 31 -63 120 -132 196 -153 81 -23 206 -22 246 1 42 23 96
87 128 149 23 46 26 64 26 151 0 91 -3 104 -31 163 -60 121 -119 159 -261 168
-47 3 -101 3 -120 0z"/>
</g>
</svg>
