<?xml version="1.0" standalone="no"?>
<!DOCTYPE svg PUBLIC "-//W3C//DTD SVG 20010904//EN"
 "http://www.w3.org/TR/2001/REC-SVG-20010904/DTD/svg10.dtd">
<svg version="1.0" xmlns="http://www.w3.org/2000/svg"
 width="704.000000pt" height="1280.000000pt" viewBox="0 0 704.000000 1280.000000"
 preserveAspectRatio="xMidYMid meet">
<metadata>
Created by potrace 1.16, written by Peter Selinger 2001-2019
</metadata>
<g transform="translate(0.000000,1280.000000) scale(0.100000,-0.100000)"
fill="#000000" stroke="none">
<path d="M4610 10560 c-239 -21 -439 -59 -615 -117 -503 -164 -869 -491 -967
-863 -32 -121 -31 -321 0 -435 52 -184 167 -362 331 -509 108 -98 205 -162
366 -241 317 -155 650 -225 1079 -225 564 0 1045 147 1397 427 277 221 436
559 399 849 -6 52 -20 124 -30 160 -116 405 -551 747 -1130 889 -224 55 -607
85 -830 65z m513 -171 c327 -40 642 -149 869 -299 89 -59 234 -192 288 -265
51 -69 104 -176 132 -265 19 -63 23 -95 22 -205 -1 -117 -4 -139 -32 -217
-117 -339 -476 -611 -977 -739 -311 -80 -756 -93 -1105 -33 -446 76 -844 303
-1026 584 -97 151 -129 266 -122 443 9 216 73 352 248 528 239 241 545 382
981 454 209 35 509 40 722 14z"/>
<path d="M4588 10090 c-112 -28 -298 -126 -298 -157 0 -6 25 -47 56 -90 31
-43 62 -90 70 -105 8 -16 16 -28 18 -28 2 0 33 20 69 44 89 60 154 81 252 81
67 0 86 -4 118 -23 49 -31 71 -73 64 -128 -7 -67 -41 -109 -166 -203 -64 -49
-129 -102 -145 -119 l-28 -30 7 -119 c9 -168 2 -157 99 -149 44 3 102 9 127
12 l47 6 -5 82 c-2 44 -1 86 4 91 4 6 28 26 53 45 127 97 215 180 255 240 52
79 65 122 65 220 0 167 -113 288 -312 335 -88 21 -254 18 -350 -5z"/>
<path d="M4691 8930 c-99 -24 -158 -146 -117 -243 62 -151 295 -133 334 25 33
134 -83 251 -217 218z"/>
<path d="M3780 8311 c-111 -34 -166 -119 -146 -226 8 -43 68 -113 113 -132 96
-40 214 16 248 117 15 45 15 54 1 102 -17 60 -60 108 -118 132 -40 17 -59 18
-98 7z m74 -85 c44 -19 66 -52 66 -101 0 -59 -44 -100 -106 -100 -39 0 -50 5
-75 33 -41 45 -40 99 1 141 17 16 40 32 53 34 12 2 23 5 25 6 1 0 18 -5 36
-13z"/>
<path d="M3464 7966 c-29 -29 -34 -41 -34 -80 0 -52 20 -90 58 -110 l26 -13
-25 -8 c-13 -4 -36 -16 -51 -26 -14 -11 -34 -19 -43 -19 -9 0 -28 -9 -42 -20
-16 -13 -41 -20 -67 -20 -29 0 -53 -8 -76 -25 -19 -14 -41 -25 -51 -25 -9 0
-33 -13 -54 -30 -21 -16 -46 -30 -55 -30 -10 0 -29 -9 -43 -20 -45 -36 -80
-36 -119 -1 l-36 31 -179 0 c-179 0 -179 0 -201 25 l-22 25 -466 0 -466 0 -30
25 c-19 16 -42 25 -64 25 -19 0 -34 4 -34 9 0 5 -21 19 -47 32 -27 12 -58 31
-70 42 -13 12 -30 17 -42 14 -15 -4 -28 4 -48 29 -16 19 -39 37 -53 39 -23 4
-45 24 -52 47 -2 6 -318 14 -385 9 -6 -1 -22 -16 -35 -33 -22 -32 -23 -37 -19
-229 l3 -196 -27 -21 c-19 -15 -28 -34 -32 -63 -6 -38 -3 -45 23 -66 l29 -23
0 -276 c-1 -257 -2 -277 -19 -290 -11 -7 -24 -15 -30 -17 -6 -2 -12 -30 -12
-65 -1 -52 -5 -65 -25 -81 -21 -16 -23 -27 -23 -104 -1 -73 -4 -89 -23 -109
-19 -21 -22 -36 -25 -156 -3 -133 -3 -134 -31 -154 l-27 -20 0 -233 c0 -215
-2 -236 -19 -252 -30 -29 -39 -54 -34 -94 4 -29 0 -44 -20 -71 -14 -18 -27
-49 -29 -68 -2 -27 -11 -41 -37 -58 -49 -34 -70 -63 -71 -97 0 -20 -10 -40
-27 -57 -42 -41 -60 -64 -67 -85 -3 -11 -15 -28 -25 -39 -10 -11 -35 -42 -55
-68 l-36 -48 0 -1429 c0 -1502 -2 -1445 42 -1462 10 -3 30 -24 45 -46 18 -25
41 -45 63 -52 19 -7 48 -22 63 -35 19 -16 41 -24 67 -24 29 0 48 -8 73 -30 19
-16 46 -30 59 -30 14 0 33 -8 42 -19 11 -12 35 -20 70 -23 34 -3 65 -13 87
-28 32 -24 41 -25 299 -33 321 -10 2790 -1 2876 10 33 5 68 16 77 24 11 12 47
17 147 23 107 5 137 10 156 25 16 13 49 21 106 25 59 6 89 13 103 26 14 13 42
20 100 25 58 4 88 11 109 26 18 14 55 25 105 31 42 5 91 18 109 29 18 10 51
19 73 19 42 0 87 18 108 44 8 9 27 16 44 16 16 0 44 11 61 23 17 13 42 27 56
30 83 20 121 35 153 62 112 93 141 104 320 120 116 11 142 17 161 34 15 14 35
21 62 21 31 0 46 6 68 29 21 22 42 31 78 36 101 14 294 139 471 305 84 79 149
164 198 261 13 24 33 57 46 72 13 16 23 36 23 46 0 10 9 26 19 35 11 10 25 41
31 69 6 29 22 73 35 99 14 26 25 63 25 81 0 18 12 78 26 132 25 94 26 110 21
265 -4 121 -10 173 -21 196 -19 36 -34 112 -42 204 -3 35 -14 80 -24 100 -9
19 -21 46 -25 60 -4 14 -16 37 -26 51 -10 14 -21 38 -25 55 -4 16 -20 44 -36
62 -15 18 -28 41 -28 51 0 63 -282 307 -398 345 -140 46 -280 53 -367 20 -110
-42 -205 -133 -205 -196 0 -13 -9 -40 -20 -61 -11 -20 -20 -51 -20 -67 0 -17
9 -48 20 -70 11 -22 20 -47 20 -57 0 -11 13 -34 30 -53 16 -19 29 -40 30 -46
0 -6 36 -46 80 -90 44 -43 84 -91 91 -106 6 -15 17 -29 24 -32 8 -3 23 -23 34
-44 11 -22 27 -42 35 -45 8 -3 20 -25 26 -48 6 -23 23 -59 37 -80 25 -38 25
-39 9 -88 -9 -27 -16 -77 -16 -111 0 -52 -5 -68 -34 -113 -18 -29 -45 -65 -60
-82 -14 -16 -26 -38 -26 -48 0 -10 -35 -54 -79 -96 -70 -70 -87 -81 -157 -106
-89 -31 -151 -36 -165 -14 -5 7 -9 28 -9 45 0 17 -7 48 -15 67 -10 24 -15 69
-15 130 0 84 -3 97 -25 127 -14 19 -25 38 -25 43 0 5 -11 22 -25 39 -14 16
-25 39 -25 50 0 11 -20 51 -45 89 -28 42 -45 80 -45 98 0 18 -8 35 -18 43 -11
7 -25 24 -32 38 -7 14 -24 35 -37 47 -17 16 -23 33 -23 62 0 32 -5 44 -25 57
-14 9 -28 27 -31 39 -3 12 -21 38 -40 56 -19 18 -34 43 -34 55 0 12 -11 36
-25 52 -14 17 -25 37 -25 45 0 9 -11 29 -25 45 -14 17 -25 41 -25 55 0 14 -10
38 -23 54 -36 43 -87 128 -87 143 0 8 -24 50 -54 94 -30 45 -57 93 -61 108 -4
14 -15 34 -26 43 -10 10 -23 33 -30 52 -6 19 -33 62 -60 95 -27 34 -49 68 -49
77 0 9 -12 34 -25 56 -14 22 -25 47 -25 56 0 9 -9 24 -19 33 -11 10 -23 32
-27 50 -4 17 -17 47 -30 66 -13 19 -24 40 -24 46 0 6 -9 22 -19 36 -11 13 -23
37 -27 53 -4 15 -26 51 -49 80 -24 28 -46 63 -50 76 -4 13 -18 42 -31 65 -19
31 -24 56 -24 105 0 43 -6 76 -18 99 -11 19 -22 65 -25 103 -4 45 -14 81 -32
110 -14 24 -25 59 -25 78 0 19 -12 56 -26 83 l-26 49 7 221 c6 190 10 226 26
254 17 30 19 60 19 433 1 371 0 403 -17 426 -29 41 -31 46 -37 74 -4 20 -14
28 -38 33 -17 3 -40 14 -50 23 -14 13 -41 18 -111 19 -99 3 -145 -6 -171 -35
-11 -12 -33 -18 -67 -20 l-52 -2 31 35 c78 89 32 206 -81 206 -31 0 -46 -7
-73 -34z m-2533 -613 c18 -27 52 -65 75 -86 45 -39 84 -129 84 -191 0 -40 -32
-91 -67 -109 -15 -8 -37 -25 -48 -37 -11 -12 -37 -30 -59 -41 -54 -26 -75 -13
-78 49 -16 427 -16 407 11 436 14 14 30 26 37 26 7 0 28 -21 45 -47z m2970
-104 c11 -22 9 -44 -11 -114 -6 -22 -15 -76 -20 -120 -8 -74 -15 -118 -38
-278 -5 -32 -13 -62 -19 -68 -16 -16 -55 8 -82 49 -14 20 -36 54 -50 76 -14
21 -30 46 -36 56 -5 9 -18 29 -29 44 -27 38 -25 174 4 196 10 8 40 31 65 50
26 19 69 56 97 83 57 53 99 63 119 26z m-765 -586 c77 -25 188 -107 227 -167
48 -71 81 -182 74 -243 -29 -240 -66 -312 -198 -379 -41 -20 -63 -24 -142 -24
-78 0 -107 5 -181 31 -86 30 -167 81 -206 132 -52 67 -91 216 -71 271 6 15 11
39 11 54 0 91 117 264 206 307 72 34 207 43 280 18z m-1485 -24 c30 -6 65 -12
78 -15 72 -15 152 -79 191 -154 7 -14 17 -28 22 -31 4 -3 18 -32 30 -65 17
-46 22 -81 23 -164 0 -99 -2 -110 -32 -170 -41 -83 -72 -117 -182 -197 -31
-23 -149 -35 -230 -23 -83 13 -192 60 -252 109 -46 38 -102 155 -125 260 -16
77 -17 86 -1 168 10 48 23 94 31 102 7 9 17 26 20 38 10 31 55 75 113 109 40
24 63 30 143 35 52 3 100 6 106 7 6 1 36 -3 65 -9z"/>
<path d="M2915 6592 c-35 -7 -115 -104 -157 -191 -36 -75 -40 -89 -34 -135 13
-110 34 -157 99 -221 66 -65 90 -75 214 -97 67 -11 77 -10 143 11 83 28 90 33
126 107 21 43 29 79 35 148 6 84 5 97 -20 161 -48 129 -146 196 -311 213 -41
4 -84 6 -95 4z"/>
<path d="M1415 6535 c-27 -14 -60 -25 -71 -25 -27 0 -36 -12 -59 -75 -39 -107
-26 -284 26 -371 26 -44 113 -108 179 -133 68 -26 215 -29 260 -6 36 19 90 85
125 154 26 52 27 60 22 160 -4 90 -9 115 -32 161 -35 70 -68 106 -125 135 -39
20 -61 23 -160 23 -102 1 -121 -2 -165 -23z"/>
</g>
</svg>
