<?xml version="1.0" standalone="no"?>
<!DOCTYPE svg PUBLIC "-//W3C//DTD SVG 20010904//EN"
 "http://www.w3.org/TR/2001/REC-SVG-20010904/DTD/svg10.dtd">
<svg version="1.0" xmlns="http://www.w3.org/2000/svg"
 width="704.000000pt" height="1280.000000pt" viewBox="0 0 704.000000 1280.000000"
 preserveAspectRatio="xMidYMid meet">
<metadata>
Created by potrace 1.16, written by Peter Selinger 2001-2019
</metadata>
<g transform="translate(0.000000,1280.000000) scale(0.100000,-0.100000)"
fill="#000000" stroke="none">
<path d="M4550 10554 c-373 -36 -681 -128 -930 -277 -323 -194 -513 -416 -592
-692 -32 -114 -31 -323 2 -444 132 -481 669 -852 1372 -948 187 -25 633 -25
798 1 366 57 631 151 875 311 526 345 678 900 372 1358 -226 338 -655 580
-1182 666 -247 41 -475 49 -715 25z m465 -155 c442 -37 837 -178 1079 -385
205 -175 304 -335 337 -544 66 -426 -274 -834 -858 -1029 -127 -42 -321 -83
-483 -102 -234 -27 -642 -6 -850 43 -459 108 -793 315 -964 598 -69 113 -98
216 -104 362 -4 105 -1 127 23 210 42 150 101 245 224 369 143 143 283 234
496 322 306 127 733 188 1100 156z"/>
<path d="M4255 9935 c-27 -8 -53 -14 -57 -15 -21 -1 -115 -91 -148 -141 -137
-212 -63 -448 227 -729 154 -149 401 -330 450 -330 40 0 315 205 457 339 71
68 194 230 230 303 79 163 48 361 -76 486 -72 72 -136 97 -253 97 -85 -1 -94
-3 -163 -39 -79 -42 -129 -93 -168 -168 -13 -27 -26 -48 -29 -48 -3 0 -16 21
-29 48 -32 64 -112 137 -190 173 -78 37 -176 46 -251 24z m64 -118 c14 -6 26
-18 29 -25 2 -7 -25 -41 -60 -75 -34 -34 -77 -80 -93 -101 -25 -32 -34 -38
-53 -32 -31 10 -42 43 -32 94 20 109 128 181 209 139z"/>
<path d="M3772 8310 c-43 -10 -100 -56 -123 -100 -41 -75 -11 -189 62 -237
135 -89 318 27 290 183 -13 69 -55 120 -123 148 -40 17 -55 18 -106 6z m119
-109 c81 -81 -18 -219 -119 -167 -60 31 -78 87 -47 146 20 38 41 49 93 50 35
0 49 -6 73 -29z"/>
<path d="M3467 7970 c-19 -16 -37 -44 -41 -60 -7 -39 18 -104 52 -130 16 -13
19 -20 10 -20 -8 0 -23 -8 -32 -19 -9 -10 -31 -22 -48 -25 -18 -3 -39 -13 -49
-22 -9 -8 -40 -17 -69 -19 -36 -3 -61 -12 -82 -30 -16 -14 -38 -25 -49 -25
-11 0 -30 -11 -42 -24 -12 -13 -40 -29 -61 -34 -21 -6 -47 -19 -58 -29 -12
-11 -35 -18 -60 -18 -32 0 -44 6 -60 28 l-20 27 -179 0 c-179 0 -179 0 -201
25 l-22 25 -469 0 -470 0 -23 25 c-16 17 -34 25 -57 25 -19 0 -42 8 -53 19
-11 10 -31 22 -45 26 -13 4 -38 18 -55 31 -17 13 -42 24 -56 24 -15 0 -36 13
-55 35 -17 19 -41 35 -52 35 -13 0 -25 9 -30 24 -9 23 -13 23 -188 30 -195 8
-219 4 -248 -41 -17 -25 -19 -49 -20 -225 l0 -196 -27 -26 c-39 -35 -39 -91
-1 -121 l26 -22 1 -278 c0 -264 -1 -278 -20 -291 -40 -28 -44 -36 -44 -88 0
-44 -4 -57 -26 -77 -22 -20 -25 -31 -23 -74 4 -88 0 -114 -22 -134 -20 -18
-21 -30 -21 -149 l0 -130 -29 -28 -29 -28 0 -233 0 -234 -25 -25 c-21 -21 -25
-34 -25 -84 0 -49 -3 -61 -20 -70 -12 -7 -22 -25 -26 -50 -7 -46 -14 -55 -70
-98 -33 -25 -42 -40 -47 -71 -3 -28 -16 -51 -46 -81 -23 -23 -41 -49 -41 -56
0 -8 -17 -33 -39 -57 -21 -23 -48 -61 -60 -84 l-21 -42 0 -1425 0 -1425 30
-16 c16 -8 46 -35 66 -60 21 -24 50 -47 64 -50 15 -3 37 -17 49 -30 17 -20 30
-25 69 -25 41 0 53 -5 77 -30 16 -17 39 -30 51 -30 13 0 35 -11 50 -25 21 -20
37 -25 77 -25 38 0 56 -5 73 -21 19 -18 40 -21 160 -27 181 -9 2676 -9 2903 0
152 6 176 9 195 26 18 16 42 20 155 25 106 5 138 10 153 24 12 11 43 18 96 22
55 4 85 12 107 27 21 15 53 23 110 28 60 5 85 12 102 27 15 15 39 22 85 25 85
7 104 11 122 30 9 8 46 20 84 25 46 7 72 15 82 29 8 10 33 22 55 25 22 4 51
15 65 24 34 23 136 61 166 61 14 0 32 11 46 30 12 17 27 30 33 30 6 0 25 14
43 30 18 17 43 30 55 30 13 0 32 6 43 14 12 9 68 18 146 24 100 8 134 14 161
31 19 11 50 21 70 21 23 0 41 7 49 18 18 24 53 39 120 52 32 6 60 16 64 21 3
5 24 19 47 30 142 72 391 283 437 371 11 20 23 38 28 40 5 1 26 35 47 73 21
39 49 83 62 98 13 16 23 36 23 45 0 8 9 26 21 38 11 12 27 52 36 88 8 36 19
66 23 66 11 0 30 65 30 103 0 15 12 76 26 135 24 98 26 120 22 262 -4 118 -9
164 -23 195 -9 22 -23 90 -31 150 -8 61 -20 124 -28 140 -8 17 -30 64 -50 105
-20 41 -36 79 -36 83 0 5 -13 25 -29 45 -16 20 -31 49 -35 64 -8 35 -174 203
-251 255 -88 59 -130 78 -230 103 -175 44 -305 14 -426 -97 -50 -47 -59 -60
-65 -101 -3 -26 -12 -57 -20 -69 -20 -32 -17 -74 10 -146 34 -91 84 -163 165
-239 39 -37 71 -73 71 -81 0 -8 15 -30 33 -50 64 -72 89 -107 99 -144 6 -21
19 -51 30 -66 17 -23 19 -37 14 -75 -4 -26 -10 -82 -15 -124 -7 -69 -13 -85
-52 -140 -24 -35 -49 -69 -57 -77 -7 -7 -15 -25 -18 -40 -11 -54 -140 -166
-212 -186 -26 -6 -61 -19 -79 -28 -64 -33 -113 -11 -113 51 0 17 -5 43 -12 59
-6 15 -14 75 -17 133 -6 91 -9 108 -29 128 -12 12 -22 30 -22 40 0 9 -12 28
-25 41 -15 14 -25 34 -25 52 0 17 -18 55 -45 96 -28 41 -45 78 -45 96 0 18
-10 40 -27 57 -62 63 -83 98 -83 134 0 27 -6 39 -24 51 -14 9 -29 29 -35 46
-5 16 -21 40 -35 53 -13 14 -27 38 -31 55 -3 16 -15 37 -25 46 -10 9 -22 30
-25 45 -3 15 -17 38 -31 50 -13 13 -24 33 -24 45 0 12 -14 42 -32 66 -28 39
-56 88 -130 230 -10 20 -28 45 -39 54 -10 10 -19 30 -19 45 0 15 -13 44 -30
65 -16 21 -30 45 -30 55 0 9 -9 25 -21 36 -32 29 -89 110 -89 127 0 18 -55
125 -76 148 -8 9 -17 29 -20 45 -3 16 -13 40 -22 54 -23 34 -71 133 -72 146 0
12 -55 88 -87 120 -13 13 -23 33 -23 44 0 12 -11 38 -25 58 -20 30 -25 49 -25
102 0 40 -6 76 -16 95 -9 17 -20 62 -25 102 -5 44 -18 90 -33 120 -15 26 -26
63 -26 81 0 18 -10 52 -22 75 -22 40 -23 52 -22 263 0 209 1 222 22 256 22 35
22 41 22 445 0 402 0 410 -21 432 -12 12 -25 38 -30 57 -8 26 -15 34 -33 34
-12 0 -37 11 -56 25 -30 22 -43 25 -128 25 -92 0 -126 -9 -148 -38 -7 -10 -33
-17 -75 -20 l-64 -3 32 25 c92 76 52 216 -62 216 -35 0 -52 -6 -78 -30z
m-2534 -618 c14 -20 47 -60 75 -87 33 -34 54 -65 63 -95 16 -55 16 -145 -1
-165 -23 -28 -176 -125 -198 -125 -29 0 -33 18 -39 198 -11 271 -10 272 20
298 33 28 48 24 80 -24z m2965 -94 c16 -16 15 -49 -3 -106 -8 -26 -20 -90 -26
-142 -5 -52 -14 -120 -19 -150 -4 -30 -11 -75 -15 -100 -12 -83 -14 -90 -36
-90 -33 0 -58 18 -78 59 -11 21 -45 76 -76 122 -46 68 -55 89 -51 113 3 16 6
47 6 70 0 41 2 43 84 104 47 35 86 66 88 70 2 4 18 19 36 35 36 29 70 35 90
15z m-2881 -569 c40 -15 81 -57 88 -91 4 -16 21 -44 38 -61 18 -18 39 -43 48
-57 l16 -25 27 52 c14 29 36 58 48 64 13 6 37 27 54 45 l31 33 124 0 c131 0
236 -18 301 -50 21 -11 47 -19 59 -19 12 0 23 -8 26 -19 4 -18 6 -18 42 2 24
13 45 18 61 14 49 -13 55 -23 60 -102 5 -73 4 -75 -17 -75 -13 0 -23 5 -23 10
0 7 -6 7 -19 0 -19 -10 -19 -13 -6 -58 8 -26 15 -60 16 -77 0 -16 3 -24 6 -17
2 6 11 12 19 12 22 0 19 -78 -3 -82 -11 -2 -17 -16 -20 -48 -7 -78 -47 -147
-130 -227 -79 -76 -99 -86 -203 -98 -75 -8 -195 16 -268 56 -61 32 -152 112
-152 133 0 6 -10 29 -21 51 -22 40 -59 178 -59 218 0 28 -13 12 -29 -38 -27
-80 -81 -116 -174 -116 -34 1 -86 -2 -115 -5 -33 -4 -64 -1 -83 6 -36 15 -77
62 -86 98 -3 15 -23 42 -44 60 -70 61 -74 152 -9 226 17 18 30 44 30 57 0 74
92 136 184 125 29 -4 63 -2 76 3 33 13 73 13 107 0z m2120 -30 c127 -42 260
-165 277 -254 3 -16 12 -54 21 -84 13 -48 13 -61 0 -112 -8 -31 -15 -72 -15
-90 0 -39 -39 -121 -83 -174 -19 -23 -55 -48 -95 -66 -56 -25 -76 -29 -157
-29 -92 0 -118 6 -234 57 -51 21 -139 100 -168 150 -32 54 -55 180 -42 226 5
17 9 45 9 61 0 49 88 213 135 252 99 80 231 104 352 63z"/>
<path d="M914 6536 c-35 -55 8 -166 65 -166 45 0 65 31 57 87 -8 62 -34 97
-74 101 -24 2 -34 -3 -48 -22z"/>
<path d="M1470 6554 c0 -3 11 -15 25 -26 18 -14 25 -29 25 -52 0 -49 -30 -71
-97 -71 -48 0 -58 4 -79 28 -13 15 -24 32 -24 38 0 16 39 10 60 -11 23 -23 58
-26 84 -7 45 33 -22 66 -108 53 -42 -7 -45 -9 -68 -64 -19 -48 -23 -74 -23
-167 1 -149 25 -209 109 -277 78 -62 154 -88 263 -88 54 0 94 5 112 15 37 19
106 101 131 156 21 47 28 169 10 169 -5 0 -10 -13 -10 -30 0 -20 -5 -30 -15
-30 -12 0 -14 12 -12 58 2 31 8 57 13 58 5 0 8 -8 6 -19 -2 -12 1 -18 10 -15
24 8 19 43 -15 123 -39 91 -57 106 -57 46 0 -33 -4 -41 -19 -41 -15 0 -19 11
-25 62 -8 77 -30 98 -34 33 -6 -84 -89 -122 -151 -69 -33 28 -42 75 -21 115
10 18 7 19 -40 19 -27 0 -50 -3 -50 -6z"/>
<path d="M745 6495 c-27 -26 -30 -43 -15 -94 20 -70 78 -102 113 -63 36 39 10
154 -38 172 -35 13 -32 14 -60 -15z"/>
<path d="M2853 6541 c-53 -57 -101 -136 -123 -204 -8 -27 -9 -54 -2 -101 15
-93 53 -163 115 -212 55 -44 83 -55 189 -75 61 -11 73 -11 140 9 120 37 152
86 168 262 8 92 8 97 -21 165 -41 100 -91 145 -194 178 -44 15 -111 28 -150
30 l-70 3 -52 -55z"/>
</g>
</svg>
