<?xml version="1.0" standalone="no"?>
<!DOCTYPE svg PUBLIC "-//W3C//DTD SVG 20010904//EN"
 "http://www.w3.org/TR/2001/REC-SVG-20010904/DTD/svg10.dtd">
<svg version="1.0" xmlns="http://www.w3.org/2000/svg"
 width="704.000000pt" height="1280.000000pt" viewBox="0 0 704.000000 1280.000000"
 preserveAspectRatio="xMidYMid meet">
<metadata>
Created by potrace 1.16, written by Peter Selinger 2001-2019
</metadata>
<g transform="translate(0.000000,1280.000000) scale(0.100000,-0.100000)"
fill="#000000" stroke="none">
<path d="M4610 10560 c-239 -21 -439 -59 -615 -117 -504 -165 -870 -491 -967
-863 -32 -121 -31 -321 0 -435 144 -515 721 -888 1491 -965 57 -5 185 -10 285
-10 632 0 1172 190 1506 530 161 164 253 341 286 551 18 114 10 230 -26 355
-116 405 -551 747 -1130 889 -224 55 -607 85 -830 65z m515 -171 c320 -38 638
-148 873 -304 86 -56 229 -188 282 -260 51 -70 104 -176 132 -265 33 -107 32
-283 -1 -390 -48 -154 -124 -274 -251 -393 -246 -232 -597 -378 -1040 -433
-203 -25 -565 -17 -770 16 -472 79 -868 300 -1057 591 -87 135 -123 252 -123
404 0 234 80 408 271 589 237 226 540 362 960 431 211 35 501 40 724 14z"/>
<path d="M4603 10094 c-34 -7 -90 -25 -125 -40 -70 -29 -188 -103 -188 -118 0
-7 129 -207 146 -225 2 -2 20 10 41 26 199 157 480 125 460 -53 -7 -66 -41
-109 -151 -191 -55 -42 -120 -94 -144 -117 l-43 -41 6 -120 c9 -171 2 -159 99
-151 44 3 102 9 127 12 l47 6 -5 82 c-2 44 -1 86 4 91 4 6 28 26 53 45 192
147 285 253 310 352 17 65 9 194 -14 241 -45 93 -149 167 -282 201 -76 20
-253 20 -341 0z"/>
<path d="M4694 8931 c-102 -26 -162 -146 -120 -244 62 -151 295 -133 334 25
33 133 -83 251 -214 219z"/>
<path d="M3772 8310 c-76 -18 -142 -101 -142 -178 0 -59 20 -100 68 -144 66
-60 151 -63 227 -11 123 86 97 267 -47 327 -40 17 -55 18 -106 6z m82 -84 c44
-19 66 -52 66 -101 0 -59 -44 -100 -106 -100 -39 0 -50 5 -75 33 -41 45 -40
99 1 141 17 16 40 32 53 34 12 2 23 5 25 6 1 0 18 -5 36 -13z"/>
<path d="M3464 7966 c-28 -28 -34 -41 -34 -77 0 -50 29 -106 60 -117 17 -7 13
-11 -32 -35 -29 -15 -59 -27 -66 -27 -8 0 -25 -9 -39 -20 -16 -13 -41 -20 -67
-20 -29 0 -53 -8 -76 -25 -19 -14 -41 -25 -51 -25 -9 0 -33 -13 -54 -30 -21
-16 -46 -30 -55 -30 -10 0 -29 -9 -43 -20 -45 -36 -80 -36 -119 -1 l-36 31
-179 0 c-179 0 -179 0 -201 25 l-22 25 -471 0 -472 0 -23 25 c-16 18 -34 25
-59 25 -19 0 -35 4 -35 9 0 5 -21 19 -47 32 -27 12 -58 31 -70 42 -13 12 -30
17 -42 14 -15 -4 -28 4 -48 29 -16 19 -39 37 -53 39 -23 4 -45 24 -52 47 -2 6
-318 14 -385 9 -6 -1 -22 -16 -35 -33 -22 -32 -23 -37 -19 -225 l3 -192 -27
-25 c-18 -17 -29 -39 -32 -67 -6 -38 -3 -45 23 -66 l29 -23 0 -276 c-1 -257
-2 -277 -19 -290 -10 -7 -24 -15 -30 -17 -6 -2 -11 -29 -11 -65 -1 -51 -4 -63
-25 -80 -22 -18 -24 -27 -24 -107 -1 -77 -4 -89 -23 -104 -20 -17 -22 -29 -25
-155 -3 -137 -3 -138 -31 -158 l-27 -20 0 -233 c0 -215 -1 -236 -19 -252 -30
-29 -41 -58 -34 -96 4 -28 0 -42 -20 -69 -14 -18 -27 -49 -29 -68 -2 -27 -11
-41 -37 -58 -50 -34 -70 -63 -71 -99 0 -22 -7 -37 -23 -48 -12 -8 -35 -38 -52
-66 -16 -29 -46 -70 -66 -93 -75 -85 -69 56 -69 -1530 l0 -1426 39 -25 c22
-13 47 -38 57 -55 11 -18 32 -34 54 -41 19 -7 48 -22 63 -35 19 -16 41 -24 67
-24 29 0 48 -8 73 -30 19 -16 46 -30 59 -30 14 0 33 -8 42 -19 11 -12 35 -20
70 -23 34 -3 65 -13 87 -28 32 -24 41 -25 299 -33 323 -10 2791 -1 2876 10 33
5 68 15 77 24 11 12 47 17 147 22 107 5 135 10 155 25 17 14 49 21 107 26 59
6 89 13 103 26 14 13 43 20 100 25 57 4 88 12 109 27 18 13 56 24 104 30 43 5
90 18 108 29 19 11 49 19 76 19 33 0 56 8 89 30 24 16 55 30 68 30 13 0 38 11
55 23 17 13 42 27 56 30 83 20 121 35 153 62 112 93 141 104 320 120 116 11
142 17 161 34 15 14 35 21 62 21 31 0 46 6 68 29 21 22 42 31 78 36 101 14
294 139 471 305 84 79 149 164 198 261 13 24 33 57 46 72 13 16 23 36 23 46 0
10 9 26 19 35 11 10 25 41 31 69 6 29 22 73 35 99 14 26 25 63 25 81 0 18 12
78 26 132 25 94 26 110 21 265 -4 124 -9 173 -21 196 -18 36 -34 111 -42 204
-3 35 -14 80 -24 100 -9 19 -21 46 -25 60 -4 14 -16 37 -26 51 -10 14 -21 38
-25 55 -4 16 -20 44 -36 62 -15 18 -28 41 -28 51 0 63 -282 307 -398 345 -137
45 -282 53 -367 20 -110 -43 -205 -133 -205 -196 0 -13 -9 -40 -20 -61 -11
-20 -20 -51 -20 -67 0 -17 9 -48 20 -70 11 -22 20 -47 20 -57 0 -11 13 -34 30
-53 16 -19 29 -40 30 -46 0 -6 36 -46 80 -90 44 -43 84 -91 91 -106 6 -15 17
-29 24 -32 8 -3 23 -23 34 -44 11 -22 27 -42 35 -45 8 -3 20 -25 26 -48 6 -23
23 -59 37 -80 25 -38 25 -39 9 -88 -9 -27 -16 -78 -16 -113 0 -59 -3 -67 -50
-133 -28 -38 -57 -86 -66 -105 -9 -19 -49 -67 -90 -106 -63 -62 -83 -75 -151
-99 -88 -31 -150 -36 -164 -14 -5 7 -9 28 -9 45 0 17 -7 48 -15 67 -10 24 -15
69 -15 130 0 84 -3 97 -25 127 -14 19 -25 38 -25 43 0 5 -11 22 -25 39 -14 16
-25 39 -25 50 0 11 -20 51 -45 89 -28 42 -45 80 -45 98 0 18 -8 35 -18 43 -11
7 -25 24 -32 38 -7 14 -24 35 -37 47 -16 15 -23 33 -23 57 0 26 -8 44 -30 66
-16 17 -30 36 -30 43 0 7 -16 28 -35 47 -19 19 -35 44 -35 56 0 12 -11 36 -25
52 -14 17 -25 37 -25 45 0 9 -11 29 -25 45 -14 17 -25 41 -25 55 0 14 -10 38
-23 54 -42 51 -87 129 -87 151 0 11 -4 23 -9 27 -17 10 -99 140 -106 167 -4
15 -15 34 -26 43 -10 10 -23 33 -30 52 -6 19 -33 62 -60 95 -27 34 -49 68 -49
77 0 9 -12 34 -25 56 -14 22 -25 47 -25 56 0 9 -9 24 -19 33 -11 10 -23 32
-27 50 -4 17 -17 47 -30 66 -13 19 -24 40 -24 46 0 6 -9 22 -19 36 -11 13 -23
37 -27 53 -4 15 -26 51 -49 80 -24 28 -46 63 -50 76 -4 13 -18 42 -31 65 -19
31 -24 56 -24 105 0 43 -6 76 -18 99 -11 19 -22 65 -25 103 -4 45 -14 81 -32
110 -14 24 -25 59 -25 78 0 19 -12 56 -26 83 l-26 49 7 226 c6 196 10 229 26
252 17 25 19 54 19 428 1 373 0 405 -17 428 -29 41 -31 46 -37 74 -4 20 -14
28 -38 33 -17 3 -40 13 -49 22 -13 12 -43 17 -106 20 -98 3 -152 -7 -176 -34
-12 -13 -33 -19 -68 -21 l-52 -2 31 35 c78 89 32 206 -81 206 -31 0 -46 -7
-73 -34z m-2533 -613 c18 -27 52 -65 75 -86 45 -39 84 -129 84 -191 0 -42 -32
-91 -72 -112 -18 -9 -42 -27 -53 -39 -11 -12 -35 -29 -54 -38 -49 -24 -71 -9
-73 51 -16 427 -16 407 11 436 14 14 30 26 37 26 7 0 28 -21 45 -47z m2974
-115 c10 -24 10 -38 3 -53 -17 -30 -28 -81 -38 -170 -8 -74 -15 -118 -38 -278
-5 -32 -13 -62 -19 -68 -16 -16 -55 8 -82 49 -14 20 -36 54 -50 76 -14 21 -30
46 -36 56 -5 9 -18 29 -29 44 -27 38 -25 174 4 196 10 8 40 31 65 50 26 19 69
56 97 83 64 59 102 64 123 15z m-769 -575 c77 -25 188 -107 227 -167 48 -71
81 -182 74 -243 -16 -133 -30 -200 -46 -223 -10 -14 -21 -35 -25 -47 -9 -29
-66 -77 -126 -108 -42 -21 -63 -25 -143 -25 -175 0 -332 77 -407 199 -42 68
-68 189 -50 235 5 15 10 39 10 54 0 91 117 264 206 307 72 34 207 43 280 18z
m-1460 -26 c6 -3 25 -9 43 -12 79 -14 159 -76 201 -155 7 -14 17 -28 22 -31 4
-3 18 -32 30 -65 17 -46 22 -81 23 -165 0 -101 -1 -108 -35 -173 -35 -69 -64
-104 -138 -163 -49 -40 -71 -48 -142 -57 -119 -15 -260 26 -366 104 -40 30
-58 54 -88 116 -21 43 -45 114 -53 157 -15 72 -15 86 1 165 9 47 22 93 29 101
7 9 21 33 31 54 23 44 108 105 172 121 47 12 252 14 270 3z"/>
<path d="M2915 6592 c-36 -7 -115 -104 -157 -192 l-41 -84 11 -72 c17 -106 37
-147 101 -207 61 -56 90 -68 208 -89 67 -11 77 -10 143 11 83 28 90 33 126
107 21 43 29 79 35 148 6 83 5 97 -19 159 -50 132 -132 190 -297 211 -49 6
-99 10 -110 8z"/>
<path d="M1440 6545 c-14 -8 -48 -22 -76 -30 -50 -15 -51 -17 -77 -84 -52
-133 -24 -322 61 -408 42 -44 84 -70 146 -93 48 -18 74 -21 158 -18 l100 3 42
46 c23 25 56 73 74 107 29 55 32 67 32 151 0 80 -4 101 -31 164 -35 83 -66
120 -129 152 -39 19 -61 23 -160 24 -85 1 -121 -3 -140 -14z"/>
</g>
</svg>
