<?xml version="1.0" standalone="no"?>
<!DOCTYPE svg PUBLIC "-//W3C//DTD SVG 20010904//EN"
 "http://www.w3.org/TR/2001/REC-SVG-20010904/DTD/svg10.dtd">
<svg version="1.0" xmlns="http://www.w3.org/2000/svg"
 width="704.000000pt" height="1280.000000pt" viewBox="0 0 704.000000 1280.000000"
 preserveAspectRatio="xMidYMid meet">
<metadata>
Created by potrace 1.16, written by Peter Selinger 2001-2019
</metadata>
<g transform="translate(0.000000,1280.000000) scale(0.100000,-0.100000)"
fill="#000000" stroke="none">
<path d="M4605 10559 c-442 -36 -781 -144 -1089 -347 -197 -129 -385 -349
-455 -530 -164 -425 15 -878 463 -1176 193 -127 465 -237 706 -284 204 -40
287 -47 575 -46 238 0 301 3 420 22 262 41 448 98 660 202 346 168 578 408
674 697 52 155 57 319 15 488 -77 310 -360 604 -749 777 -367 164 -789 232
-1220 197z m391 -159 c166 -13 254 -26 385 -56 312 -70 603 -217 786 -395 126
-123 194 -230 240 -378 37 -119 39 -290 4 -401 -124 -399 -555 -701 -1146
-804 -165 -29 -258 -36 -470 -36 -417 0 -729 67 -1030 220 -145 74 -231 135
-336 240 -110 110 -178 213 -223 338 -29 82 -31 95 -31 232 0 131 3 153 27
225 131 387 579 686 1173 785 222 37 413 46 621 30z"/>
<path d="M4220 10016 c-84 -16 -156 -53 -206 -108 -88 -95 -124 -191 -124
-328 0 -122 37 -228 126 -361 85 -128 297 -332 477 -459 42 -30 107 -76 143
-102 37 -27 74 -48 84 -48 21 0 212 127 332 220 110 86 332 308 391 392 107
152 144 276 126 425 -37 303 -333 466 -605 333 -75 -37 -166 -129 -200 -205
-14 -30 -29 -55 -32 -55 -4 0 -22 30 -41 67 -92 177 -275 266 -471 229z m59
-152 c33 -42 26 -59 -48 -118 -38 -30 -82 -75 -97 -100 -23 -36 -35 -45 -57
-46 -41 0 -62 52 -46 118 25 102 97 171 181 171 39 1 50 -3 67 -25z"/>
<path d="M3772 8310 c-43 -10 -100 -56 -124 -100 -26 -48 -21 -135 12 -182
100 -147 324 -96 338 77 2 29 -1 69 -7 88 -15 45 -78 102 -128 116 -42 12 -45
12 -91 1z m82 -84 c44 -18 66 -52 66 -99 0 -31 -7 -46 -35 -74 -32 -32 -39
-35 -78 -30 -109 15 -131 153 -33 201 38 19 39 19 80 2z"/>
<path d="M3468 7973 c-53 -56 -56 -117 -9 -174 l28 -33 -27 -22 c-14 -13 -40
-26 -56 -30 -16 -3 -34 -13 -41 -21 -6 -8 -38 -18 -70 -22 -36 -4 -71 -16 -90
-29 -17 -12 -38 -22 -47 -22 -9 0 -25 -9 -35 -19 -25 -25 -55 -41 -77 -41 -10
0 -28 -9 -40 -21 -34 -32 -81 -31 -116 3 l-29 28 -183 0 c-182 0 -183 0 -206
25 l-23 25 -467 0 -467 0 -23 25 c-13 14 -35 25 -49 25 -14 0 -37 7 -51 15
-14 8 -41 22 -60 31 -19 9 -45 25 -59 35 -13 10 -36 19 -52 19 -19 0 -30 6
-34 20 -10 30 -34 50 -61 50 -16 0 -28 8 -36 25 -6 14 -14 25 -17 25 -90 6
-362 5 -377 0 -11 -5 -29 -21 -39 -36 -16 -25 -18 -52 -19 -224 l-1 -196 -27
-33 c-36 -43 -38 -94 -4 -116 21 -14 24 -25 30 -123 9 -149 9 -220 0 -347 -6
-104 -8 -111 -35 -137 -24 -22 -29 -35 -29 -73 0 -36 -6 -54 -25 -77 -22 -26
-25 -39 -25 -108 0 -69 -3 -82 -22 -100 -20 -19 -22 -30 -22 -149 -1 -127 -1
-130 -28 -158 l-28 -29 0 -231 0 -231 -27 -32 c-21 -25 -26 -41 -24 -79 1 -38
-4 -54 -23 -76 -14 -16 -28 -46 -31 -66 -5 -28 -16 -45 -43 -65 -50 -36 -62
-53 -62 -84 0 -16 -15 -42 -40 -69 -23 -24 -49 -60 -59 -80 -11 -20 -29 -45
-41 -56 -12 -11 -33 -41 -46 -67 l-24 -47 2 -1428 3 -1428 27 -13 c15 -7 41
-31 59 -54 18 -22 49 -47 68 -55 20 -8 44 -22 53 -30 10 -9 41 -20 70 -24 33
-5 60 -17 78 -34 15 -14 38 -25 53 -25 15 0 30 -6 33 -14 8 -20 31 -28 93 -32
38 -2 60 -9 77 -25 21 -20 37 -22 271 -30 136 -6 831 -8 1543 -5 712 2 1317 5
1344 5 38 0 55 5 75 25 24 23 34 24 156 28 112 4 135 7 160 25 21 15 53 23
105 27 53 5 83 12 104 27 21 16 47 22 108 25 66 3 85 8 108 28 22 18 45 24
105 29 54 5 84 13 102 27 17 13 41 20 70 20 45 0 98 21 105 40 2 6 22 14 45
17 23 3 52 14 63 26 21 19 45 27 143 49 34 8 54 19 68 39 11 16 27 29 35 29 8
0 28 13 46 30 17 16 41 30 52 30 12 0 31 7 43 15 13 9 65 17 151 23 110 8 135
13 158 31 15 11 41 21 59 21 20 0 45 10 68 29 23 18 59 33 98 40 33 7 82 26
109 42 26 16 51 29 55 29 4 0 33 20 64 45 31 24 92 72 136 107 144 114 219
204 293 353 9 17 26 43 39 58 12 16 23 37 23 48 0 10 9 28 20 39 11 11 25 44
30 72 6 28 19 65 30 83 11 18 25 66 30 106 5 41 18 94 27 119 15 37 18 77 18
235 0 174 -2 194 -22 235 -13 29 -26 85 -34 155 -8 70 -19 121 -31 140 -10 17
-18 37 -18 46 0 9 -11 32 -23 51 -13 19 -27 47 -31 63 -4 15 -20 44 -37 64
-16 20 -29 43 -29 52 0 20 -33 61 -123 151 -148 148 -304 223 -488 235 -88 5
-101 4 -145 -17 -136 -66 -207 -131 -219 -202 -4 -24 -14 -52 -21 -63 -20 -29
-17 -65 13 -147 40 -108 107 -203 185 -263 21 -16 40 -37 44 -47 3 -9 21 -36
40 -59 19 -22 34 -44 34 -48 0 -5 11 -20 25 -35 14 -15 28 -39 31 -54 3 -15
18 -44 31 -64 22 -32 25 -45 19 -85 -4 -27 -10 -83 -15 -125 -8 -79 -18 -101
-76 -173 -18 -23 -40 -58 -49 -79 -36 -85 -130 -166 -228 -196 -37 -11 -70
-25 -73 -30 -8 -13 -61 -13 -86 0 -14 8 -19 21 -19 49 0 21 -7 55 -15 74 -10
24 -15 69 -15 131 0 86 -2 97 -25 124 -14 17 -25 34 -25 39 0 5 -11 24 -25 43
-14 19 -25 46 -25 61 0 14 -7 32 -15 39 -23 19 -75 121 -75 146 0 12 -12 36
-27 53 -58 63 -80 97 -86 134 -4 23 -17 49 -32 62 -14 13 -25 30 -25 37 0 8
-16 31 -35 51 -20 21 -35 47 -35 61 0 13 -7 29 -15 36 -8 7 -23 31 -33 54 -11
22 -26 47 -35 55 -10 7 -17 27 -17 43 0 18 -9 38 -25 52 -14 13 -25 26 -25 30
0 3 -11 23 -24 44 -14 20 -28 50 -32 66 -4 16 -31 62 -60 103 -30 42 -54 85
-54 98 0 12 -10 30 -21 41 -12 10 -30 38 -40 61 -10 23 -38 68 -63 100 -25 32
-46 63 -46 69 0 19 -60 142 -75 154 -8 7 -17 28 -21 49 -4 20 -15 48 -26 63
-10 15 -24 41 -29 58 -6 16 -15 30 -20 30 -4 0 -13 17 -20 39 -6 21 -33 64
-60 95 -27 32 -49 65 -49 74 0 9 -11 35 -25 57 -19 32 -24 54 -25 105 0 44 -6
78 -18 102 -11 20 -22 66 -25 102 -4 44 -15 81 -32 109 -14 24 -25 59 -25 78
0 19 -12 56 -26 83 l-27 50 8 225 c6 198 9 229 26 253 18 25 19 50 19 434 0
407 0 408 -22 431 -12 13 -27 38 -33 55 -7 22 -19 34 -40 41 -16 5 -38 17 -48
25 -13 12 -46 16 -127 19 -102 3 -110 1 -137 -21 -19 -16 -47 -26 -87 -30
l-59 -7 36 33 c87 83 40 208 -79 208 -31 0 -46 -6 -66 -27z m-2551 -599 c10
-15 43 -54 74 -88 116 -129 132 -274 34 -320 -20 -10 -50 -30 -68 -45 -18 -15
-44 -32 -59 -39 -36 -15 -57 5 -60 56 -5 133 -11 306 -11 356 -1 52 3 62 27
82 34 30 41 30 63 -2z m2975 -121 c23 -21 23 -36 -3 -129 -14 -51 -19 -90 -15
-116 4 -25 1 -48 -9 -68 -8 -16 -15 -46 -15 -67 0 -55 -26 -193 -39 -206 -19
-19 -60 22 -136 138 l-75 114 0 74 c0 80 4 89 65 130 22 15 69 54 105 87 68
63 91 71 122 43z m-2950 -567 c19 -12 56 -25 82 -28 83 -10 138 -71 140 -157
2 -69 13 -79 42 -37 13 19 24 39 24 45 0 11 110 120 136 134 8 5 43 8 77 6 34
-1 88 -1 120 0 62 2 207 -30 244 -55 12 -8 31 -14 42 -14 11 0 22 -9 26 -19 6
-18 7 -18 43 2 25 13 46 18 62 14 49 -13 55 -23 60 -102 5 -73 4 -75 -17 -75
-13 0 -23 5 -23 10 0 7 -6 7 -18 1 -17 -9 -17 -13 -3 -75 12 -51 19 -66 33
-66 14 0 18 -8 18 -40 0 -29 -4 -40 -15 -40 -15 0 -20 -14 -29 -82 -7 -56 -34
-105 -92 -168 -77 -83 -116 -106 -204 -119 -61 -9 -89 -9 -150 3 -160 31 -259
97 -314 211 -20 40 -36 79 -36 87 0 8 -7 37 -15 66 l-16 51 -46 -25 c-25 -13
-55 -38 -65 -55 -25 -40 -98 -73 -147 -65 -19 3 -48 15 -64 26 -16 12 -48 23
-74 25 -81 7 -143 73 -143 154 0 27 -9 63 -20 86 -23 46 -25 83 -6 128 15 37
66 84 99 93 12 3 31 20 42 37 42 66 142 87 207 43z m2201 -25 c132 -46 232
-148 277 -284 23 -71 23 -72 2 -247 -13 -113 -79 -205 -179 -251 -86 -40 -202
-41 -318 -3 -109 35 -228 129 -256 201 -24 64 -40 175 -30 206 6 16 11 44 11
61 0 45 78 194 126 241 23 23 58 49 78 59 81 39 205 46 289 17z"/>
<path d="M914 6536 c-35 -55 8 -166 65 -166 45 0 65 31 57 87 -8 62 -34 97
-74 101 -24 2 -34 -3 -48 -22z"/>
<path d="M1488 6534 c24 -19 32 -33 32 -58 0 -49 -30 -71 -97 -71 -48 0 -58 4
-79 29 -14 15 -23 33 -21 40 6 16 35 8 58 -15 22 -22 57 -25 83 -6 45 33 -22
66 -108 53 l-44 -7 -27 -77 c-24 -67 -27 -86 -22 -162 8 -125 29 -184 91 -244
79 -77 139 -100 266 -104 97 -3 107 -2 136 20 50 38 102 102 124 152 21 50 28
166 10 166 -5 0 -10 -13 -10 -30 0 -20 -5 -30 -15 -30 -13 0 -15 11 -13 63 2
37 7 60 13 57 6 -3 9 -13 9 -23 -1 -10 4 -16 10 -14 19 7 10 69 -20 134 -34
77 -54 89 -54 33 0 -32 -4 -40 -19 -40 -15 0 -19 11 -25 62 -8 77 -30 98 -34
33 -6 -84 -89 -122 -151 -69 -33 28 -42 75 -21 115 10 18 7 19 -47 19 l-58 0
33 -26z"/>
<path d="M745 6495 c-28 -27 -30 -46 -14 -96 24 -71 77 -100 112 -61 33 36 12
148 -31 171 -30 16 -40 14 -67 -14z"/>
<path d="M2852 6542 c-59 -62 -132 -197 -132 -243 0 -42 20 -126 41 -175 24
-53 120 -141 169 -154 19 -5 69 -14 110 -21 69 -11 81 -10 147 10 60 19 75 28
95 59 36 54 56 125 61 221 5 81 4 88 -29 158 -58 122 -164 182 -344 196 l-64
5 -54 -56z"/>
</g>
</svg>
