<?xml version="1.0" standalone="no"?>
<!DOCTYPE svg PUBLIC "-//W3C//DTD SVG 20010904//EN"
 "http://www.w3.org/TR/2001/REC-SVG-20010904/DTD/svg10.dtd">
<svg version="1.0" xmlns="http://www.w3.org/2000/svg"
 width="704.000000pt" height="1280.000000pt" viewBox="0 0 704.000000 1280.000000"
 preserveAspectRatio="xMidYMid meet">
<metadata>
Created by potrace 1.16, written by Peter Selinger 2001-2019
</metadata>
<g transform="translate(0.000000,1280.000000) scale(0.100000,-0.100000)"
fill="#000000" stroke="none">
<path d="M4648 10560 c-308 -17 -561 -72 -813 -178 -242 -101 -411 -215 -566
-380 -126 -134 -213 -291 -246 -446 -23 -106 -20 -311 5 -407 120 -449 579
-799 1217 -927 197 -40 283 -47 560 -47 305 1 445 17 690 80 933 239 1365 974
950 1617 -58 90 -212 243 -324 322 -222 159 -570 292 -886 340 -100 16 -363
37 -420 34 -16 0 -92 -4 -167 -8z m512 -176 c416 -52 803 -225 1031 -461 197
-203 275 -421 240 -664 -26 -171 -101 -309 -251 -460 -252 -253 -622 -407
-1107 -459 -165 -18 -543 -8 -699 19 -588 101 -1001 362 -1152 730 -115 280
-39 603 196 837 375 373 1032 545 1742 458z"/>
<path d="M3730 8291 c-55 -29 -92 -82 -98 -140 -2 -27 -2 -62 2 -76 9 -35 74
-105 113 -122 152 -63 313 106 240 252 -14 30 -59 75 -89 91 -39 20 -126 18
-168 -5z m148 -77 c30 -20 54 -77 46 -109 -8 -34 -69 -85 -100 -85 -60 0 -114
51 -114 108 0 88 92 135 168 86z"/>
<path d="M3464 7966 c-29 -29 -34 -41 -34 -81 0 -42 5 -52 39 -86 21 -22 33
-39 25 -39 -7 0 -18 -8 -23 -19 -9 -15 -53 -36 -63 -30 -2 1 -22 -8 -45 -20
-23 -11 -59 -21 -79 -21 -24 0 -49 -9 -70 -25 -18 -14 -43 -25 -56 -25 -13 0
-36 -13 -51 -30 -17 -18 -39 -30 -54 -30 -14 0 -38 -11 -54 -24 -35 -30 -85
-27 -114 6 -19 22 -25 23 -201 23 -181 0 -182 0 -202 24 l-19 25 -454 -2
c-470 -1 -510 2 -537 40 -7 10 -25 18 -41 18 -16 0 -44 13 -66 30 -21 17 -46
30 -56 30 -10 0 -22 7 -27 16 -5 8 -28 18 -51 21 -33 5 -45 12 -57 34 -13 25
-29 34 -56 30 -4 0 -17 13 -28 29 l-22 30 -195 -2 c-184 -3 -197 -4 -207 -23
-6 -11 -15 -23 -20 -27 -6 -4 -8 -92 -7 -205 2 -174 0 -201 -14 -213 -48 -40
-58 -109 -20 -137 25 -18 26 -21 31 -178 3 -88 6 -164 6 -170 0 -5 -3 -57 -7
-115 -6 -89 -11 -109 -30 -130 -16 -18 -24 -41 -27 -81 -3 -43 -11 -65 -31
-88 -24 -29 -25 -36 -20 -99 5 -62 4 -70 -21 -99 -25 -30 -26 -35 -26 -165 0
-133 0 -135 -25 -148 -28 -15 -26 6 -30 -338 -2 -150 -2 -153 -28 -180 -22
-23 -27 -38 -27 -78 0 -38 -6 -58 -25 -84 -14 -19 -25 -48 -25 -65 0 -24 -7
-35 -37 -54 -45 -27 -73 -62 -79 -97 -3 -15 -18 -43 -34 -63 -15 -20 -41 -58
-56 -86 -15 -27 -38 -58 -51 -68 -12 -10 -23 -24 -23 -31 0 -7 -9 -21 -20 -31
-20 -18 -20 -31 -20 -1443 l0 -1426 75 -73 c42 -40 84 -73 95 -73 10 0 27 -11
38 -25 16 -21 28 -25 69 -25 43 0 54 -4 76 -30 16 -17 37 -30 51 -30 13 0 34
-8 47 -18 14 -11 50 -22 84 -26 41 -5 67 -14 83 -29 l24 -22 1597 0 1596 0 29
22 c26 21 39 23 148 23 111 0 122 2 148 23 22 19 45 25 111 31 60 5 89 12 104
25 15 14 42 20 102 24 70 4 88 9 114 31 17 14 36 26 42 26 43 1 152 22 170 34
12 7 48 17 81 20 41 5 67 14 88 31 18 16 42 25 63 25 18 0 39 7 46 16 19 23
116 64 151 64 19 0 41 11 63 33 80 75 97 87 119 87 13 0 37 7 54 16 19 9 73
17 139 21 85 5 118 11 155 29 26 13 58 24 71 24 13 0 42 12 63 26 21 15 66 33
99 42 89 22 251 117 345 202 19 18 53 45 75 60 72 50 176 184 237 302 12 23
32 56 45 71 13 16 23 34 23 41 0 7 11 27 25 46 14 19 25 47 25 62 0 16 14 58
30 93 17 35 30 77 30 92 0 15 9 60 20 98 11 39 23 115 26 170 7 108 -9 303
-27 337 -6 11 -17 72 -25 134 -10 79 -21 127 -39 162 -14 28 -25 53 -25 57 0
12 -72 158 -97 195 -91 138 -275 312 -368 347 -91 35 -209 63 -263 63 -72 0
-168 -28 -225 -66 -91 -61 -127 -107 -127 -165 0 -17 -10 -47 -21 -66 l-21
-34 28 -87 c15 -48 41 -102 56 -120 15 -18 28 -36 28 -41 0 -4 34 -41 75 -82
41 -41 75 -80 75 -86 0 -7 16 -30 35 -50 19 -20 35 -42 35 -48 0 -6 14 -24 30
-40 19 -19 33 -43 37 -68 3 -21 17 -52 31 -69 25 -29 25 -32 12 -77 -7 -25
-16 -81 -20 -123 -6 -68 -11 -84 -45 -134 -21 -31 -45 -58 -51 -61 -7 -3 -18
-21 -25 -41 -7 -21 -24 -52 -38 -70 -37 -47 -139 -122 -166 -122 -12 0 -43
-11 -69 -25 -53 -28 -70 -30 -106 -12 -20 10 -25 21 -27 55 -1 24 -7 50 -14
59 -9 10 -16 57 -19 129 -5 103 -8 115 -28 130 -12 8 -22 24 -22 34 0 10 -11
32 -25 48 -14 17 -25 40 -25 52 0 23 -16 57 -37 78 -7 7 -13 19 -13 26 0 8 -7
19 -15 26 -8 7 -15 26 -15 42 0 29 -11 46 -87 137 -22 25 -33 49 -33 69 0 20
-10 43 -30 65 -16 19 -30 39 -30 43 -1 5 -14 25 -30 44 -17 19 -30 42 -30 51
0 9 -13 33 -30 54 -16 21 -30 44 -30 51 0 8 -9 22 -20 32 -11 9 -25 34 -31 54
-5 20 -21 50 -34 66 -14 17 -25 34 -25 40 0 5 -9 21 -21 36 -11 14 -25 41 -30
59 -5 18 -18 43 -29 55 -11 11 -20 24 -20 28 0 4 -11 21 -24 38 -13 17 -27 47
-31 66 -4 19 -19 51 -35 70 -15 19 -31 46 -35 60 -4 14 -26 50 -49 80 -23 30
-59 89 -80 130 -21 41 -47 87 -57 102 -11 14 -19 35 -19 45 0 11 -11 34 -25
53 -14 19 -25 39 -25 46 0 20 -64 138 -104 189 -20 26 -36 52 -36 57 0 4 -12
27 -27 51 -22 33 -29 59 -34 124 -4 49 -13 93 -23 107 -9 14 -19 58 -22 98 -4
40 -15 89 -24 108 -9 19 -20 54 -24 78 -3 24 -18 66 -33 93 l-26 50 7 221 c6
197 9 224 26 248 19 27 20 47 20 438 l0 411 -25 19 c-14 11 -25 29 -25 41 0
26 -33 61 -58 61 -9 0 -23 9 -29 19 -10 17 -25 19 -125 20 -108 1 -113 0 -140
-26 -23 -22 -38 -27 -90 -29 l-63 -2 28 20 c31 23 57 67 57 98 0 36 -31 90
-61 105 -49 26 -97 19 -135 -19z m-2556 -582 c12 -8 29 -30 38 -47 9 -18 38
-55 64 -83 48 -50 80 -124 80 -181 0 -47 -27 -91 -69 -112 -22 -12 -43 -25
-46 -31 -10 -16 -82 -60 -99 -60 -31 0 -37 30 -43 202 -10 285 -11 273 16 302
29 31 30 31 59 10z m2986 -133 c16 -30 15 -48 -9 -126 -8 -28 -15 -76 -15
-107 0 -31 -6 -85 -14 -120 -8 -35 -18 -96 -22 -136 -7 -81 -24 -108 -54 -92
-19 10 -92 108 -124 165 -9 17 -27 44 -39 60 -19 26 -22 41 -19 103 l4 73 61
47 c33 26 78 64 99 84 39 37 97 78 110 78 4 0 14 -13 22 -29z m-729 -597 c65
-30 163 -105 189 -144 39 -59 62 -111 81 -183 15 -54 16 -72 6 -93 -6 -14 -16
-60 -22 -102 -7 -51 -19 -90 -35 -114 -13 -21 -24 -41 -24 -46 0 -17 -68 -71
-121 -96 -48 -22 -70 -26 -149 -26 -172 0 -315 71 -401 200 -46 68 -55 119
-50 278 1 13 10 43 21 67 11 24 20 46 20 49 0 3 20 37 44 75 76 117 170 164
321 157 51 -2 95 -10 120 -22z m-1432 -35 c86 -25 137 -71 200 -176 38 -65 48
-92 58 -164 24 -166 -20 -283 -144 -384 -70 -56 -103 -71 -178 -80 -57 -7
-222 17 -245 36 -6 5 -32 20 -57 33 -25 14 -60 37 -78 53 -39 34 -88 141 -114
247 -18 76 -18 80 -1 169 17 82 30 112 81 184 21 31 92 78 141 94 59 21 250
14 337 -12z"/>
<path d="M2904 6587 c-69 -39 -172 -198 -181 -281 -6 -48 20 -156 49 -206 21
-38 109 -113 148 -128 14 -5 62 -15 107 -22 73 -12 89 -11 146 4 42 11 74 27
91 45 75 78 103 282 53 391 -27 59 -63 103 -112 137 -63 44 -260 83 -301 60z"/>
<path d="M1435 6543 c-16 -9 -52 -24 -79 -33 -47 -16 -49 -17 -72 -86 -30 -85
-33 -166 -10 -259 19 -76 42 -119 78 -150 96 -83 155 -105 282 -105 108 0 123
8 194 97 61 75 75 125 70 240 -6 150 -58 234 -180 291 -62 29 -235 31 -283 5z"/>
</g>
</svg>
