<?xml version="1.0" standalone="no"?>
<!DOCTYPE svg PUBLIC "-//W3C//DTD SVG 20010904//EN"
 "http://www.w3.org/TR/2001/REC-SVG-20010904/DTD/svg10.dtd">
<svg version="1.0" xmlns="http://www.w3.org/2000/svg"
 width="704.000000pt" height="1280.000000pt" viewBox="0 0 704.000000 1280.000000"
 preserveAspectRatio="xMidYMid meet">
<metadata>
Created by potrace 1.16, written by Peter Selinger 2001-2019
</metadata>
<g transform="translate(0.000000,1280.000000) scale(0.100000,-0.100000)"
fill="#000000" stroke="none">
<path d="M5180 9038 c-30 -5 -98 -15 -150 -24 -95 -15 -212 -49 -303 -87 -46
-19 -48 -21 -45 -56 3 -32 6 -36 28 -34 160 15 500 46 632 57 92 8 172 17 177
21 17 10 12 68 -7 91 -9 12 -27 27 -39 33 -25 13 -212 13 -293 -1z"/>
<path d="M3787 8826 c-44 -48 -97 -122 -125 -176 -13 -25 -35 -62 -49 -82 -31
-46 -28 -79 9 -89 24 -6 30 -3 47 25 11 17 67 78 125 134 59 57 109 114 112
128 4 16 0 39 -9 60 -23 48 -66 47 -110 0z"/>
<path d="M695 7890 c-11 -4 -30 -21 -41 -37 -20 -27 -21 -37 -16 -220 l5 -192
-32 -28 c-42 -38 -44 -97 -4 -129 l28 -22 -2 -278 c-1 -258 -2 -279 -20 -291
-39 -27 -43 -35 -43 -85 0 -42 -5 -55 -26 -75 -24 -22 -26 -29 -21 -76 7 -62
-6 -127 -27 -139 -13 -8 -16 -32 -16 -143 l0 -133 -30 -29 -30 -28 0 -233 0
-233 -25 -25 c-21 -21 -25 -35 -25 -82 0 -48 -4 -61 -25 -81 -16 -14 -25 -34
-25 -53 0 -21 -10 -38 -33 -59 -69 -63 -77 -73 -77 -95 0 -12 -19 -46 -43 -75
-23 -29 -49 -65 -57 -80 -8 -15 -35 -53 -60 -85 l-45 -57 -3 -1429 -2 -1429
76 -75 c42 -41 82 -74 89 -74 7 0 23 -11 36 -25 19 -19 34 -25 71 -25 38 0 54
-6 81 -30 19 -17 44 -30 55 -30 12 0 33 -11 48 -25 21 -19 38 -25 75 -25 34 0
58 -7 83 -23 32 -23 46 -24 258 -31 257 -8 2563 -5 2804 3 141 5 165 8 183 25
18 17 42 20 156 25 116 5 136 9 148 25 11 15 32 20 101 26 71 6 91 11 111 30
22 20 39 25 114 30 65 4 92 10 105 22 10 10 23 18 29 18 78 3 160 20 171 36
10 12 33 20 80 25 48 5 74 13 90 28 13 12 41 24 62 28 21 3 48 14 60 24 24 22
123 59 158 59 14 0 30 10 40 25 9 13 31 32 49 41 17 9 40 25 50 35 10 11 28
19 40 19 12 0 32 6 43 14 13 9 63 17 139 21 100 6 127 11 162 31 23 13 56 24
73 24 21 0 44 10 65 29 21 19 49 31 81 36 67 10 187 74 295 157 99 78 199 165
238 211 47 53 53 63 93 130 57 96 79 134 95 167 9 19 25 44 34 55 10 11 25 48
33 82 9 35 25 77 35 95 10 18 22 59 25 91 4 32 15 91 26 130 31 110 24 422
-10 462 -6 7 -14 45 -20 86 -21 172 -22 173 -86 302 -13 26 -24 53 -24 60 0 6
-16 34 -35 61 -19 27 -35 56 -35 63 0 8 -11 25 -24 38 -13 13 -26 29 -28 35
-8 24 -215 201 -268 229 -30 16 -97 41 -149 56 -78 23 -108 27 -175 23 -45 -2
-90 -10 -101 -16 -11 -6 -36 -19 -55 -27 -100 -45 -164 -109 -175 -176 -4 -24
-14 -53 -21 -64 -8 -11 -14 -34 -14 -52 0 -39 41 -153 70 -193 11 -15 20 -32
20 -37 0 -5 38 -47 85 -92 47 -46 85 -89 85 -96 0 -6 12 -22 26 -36 14 -13 33
-37 41 -54 9 -16 24 -36 34 -43 10 -7 23 -31 29 -54 7 -22 21 -53 32 -68 16
-22 19 -37 14 -72 -3 -23 -10 -82 -14 -130 -8 -85 -10 -88 -65 -161 -31 -41
-63 -90 -71 -108 -29 -66 -134 -155 -204 -173 -26 -7 -61 -20 -79 -29 -18 -10
-43 -17 -56 -17 -31 0 -61 33 -52 59 3 11 -2 37 -11 58 -11 23 -19 79 -23 145
-6 92 -10 110 -29 131 -12 13 -22 28 -22 33 0 6 -11 25 -25 44 -14 19 -25 46
-25 61 0 14 -9 38 -21 53 -31 40 -69 114 -69 137 0 11 -7 22 -15 25 -8 4 -25
24 -37 45 -12 21 -25 39 -28 39 -12 0 -30 50 -30 80 0 17 -8 34 -19 42 -10 7
-25 27 -35 45 -9 18 -27 43 -40 55 -13 13 -27 37 -31 53 -3 17 -12 37 -19 45
-33 41 -86 141 -86 163 0 14 -15 40 -35 61 -19 21 -35 43 -35 51 0 7 -6 15
-14 18 -8 3 -17 20 -21 38 -8 33 -44 97 -77 133 -10 11 -27 44 -38 73 -11 29
-29 62 -40 73 -11 11 -20 29 -20 40 0 11 -25 51 -55 87 -30 37 -55 74 -55 82
0 20 -52 123 -79 157 -12 15 -21 37 -21 49 0 12 -8 33 -18 46 -10 13 -31 51
-46 84 -50 109 -58 124 -97 162 -21 21 -39 45 -39 53 0 8 -11 33 -25 55 -19
32 -24 54 -25 108 0 46 -6 80 -19 105 -10 20 -22 71 -26 112 -5 49 -14 83 -27
101 -11 14 -22 46 -25 70 -3 24 -16 65 -29 91 -23 46 -24 53 -21 273 3 214 5
227 26 255 21 30 22 34 22 442 l1 412 -25 22 c-14 12 -27 34 -29 50 -2 23 -9
30 -36 35 -18 4 -42 15 -53 25 -30 27 -226 28 -253 2 -10 -10 -20 -19 -24 -19
-29 -6 -59 -9 -137 -14 -66 -5 -95 -11 -110 -24 -11 -10 -35 -21 -53 -25 -19
-3 -46 -15 -62 -26 -17 -12 -44 -20 -68 -20 -23 0 -49 -8 -63 -19 -13 -10 -41
-23 -61 -30 -20 -7 -44 -23 -52 -37 -11 -16 -26 -24 -44 -24 -16 0 -43 -11
-62 -25 -45 -33 -75 -32 -117 5 l-34 30 -178 0 c-176 0 -178 0 -201 25 l-23
25 -467 0 -467 0 -23 25 c-17 18 -34 25 -60 25 -24 0 -43 7 -55 20 -10 11 -27
22 -39 26 -11 4 -34 17 -49 30 -16 13 -42 24 -58 24 -21 0 -32 7 -44 30 -11
21 -25 31 -51 36 -25 4 -38 14 -44 30 -5 13 -15 24 -22 25 -87 5 -358 4 -373
-1z m236 -532 c12 -18 43 -55 70 -83 99 -104 113 -256 28 -303 -17 -9 -52 -34
-76 -54 -44 -37 -94 -50 -108 -28 -5 8 -16 281 -17 418 -1 80 61 110 103 50z
m2976 -118 c10 -21 8 -35 -8 -84 -11 -33 -22 -90 -24 -128 -3 -38 -9 -86 -14
-106 -5 -20 -15 -75 -21 -122 -17 -125 -18 -130 -47 -130 -27 0 -78 47 -89 83
-4 12 -20 38 -35 57 -16 19 -29 38 -29 43 0 5 -9 21 -20 37 -15 21 -19 43 -19
103 l0 76 56 43 c31 24 73 60 95 80 85 80 132 95 155 48z m-2947 -554 c105 -4
162 -48 176 -134 7 -43 54 -99 73 -88 6 4 19 27 30 51 10 24 30 49 43 56 12 6
38 27 55 45 36 36 73 44 138 31 22 -5 58 -6 80 -2 50 7 184 -18 240 -45 23
-11 49 -20 59 -20 10 0 20 -8 23 -19 4 -18 6 -18 42 2 24 13 45 18 61 14 49
-13 55 -23 60 -102 5 -73 4 -75 -17 -75 -13 0 -23 5 -23 10 0 7 -6 7 -19 1
-17 -10 -18 -14 -5 -48 7 -21 13 -50 14 -65 0 -21 5 -28 20 -28 17 0 20 -7 20
-39 0 -29 -5 -40 -18 -43 -10 -3 -18 -15 -19 -29 -8 -116 -81 -230 -194 -306
-114 -75 -369 -34 -508 83 -42 35 -95 150 -117 254 -15 71 -19 78 -35 69 -10
-5 -27 -28 -37 -52 -36 -79 -104 -116 -177 -95 -22 6 -69 10 -105 9 -50 -1
-73 3 -98 19 -39 24 -72 75 -72 112 0 16 -12 40 -30 60 -63 69 -60 158 9 219
23 20 41 42 41 49 0 26 43 81 78 100 29 16 48 19 92 14 30 -3 84 -7 120 -8z
m2171 -22 c51 -15 209 -116 209 -133 0 -5 13 -25 29 -45 40 -50 74 -165 68
-230 -16 -163 -25 -202 -65 -262 -51 -76 -66 -89 -140 -119 -86 -35 -193 -35
-299 1 -43 14 -87 31 -98 37 -39 20 -118 93 -146 134 -33 48 -65 179 -54 221
4 15 9 43 11 62 3 19 9 44 14 55 5 11 16 36 24 57 26 66 85 147 126 174 93 62
214 80 321 48z"/>
<path d="M914 6536 c-35 -55 8 -166 65 -166 45 0 65 31 57 87 -8 62 -34 97
-74 101 -24 2 -34 -3 -48 -22z"/>
<path d="M1470 6554 c0 -3 11 -15 25 -26 18 -14 25 -29 25 -52 0 -49 -30 -71
-97 -71 -48 0 -58 4 -79 28 -13 15 -24 32 -24 38 0 16 39 10 60 -11 34 -34
110 -17 95 22 -12 32 -133 38 -159 9 -24 -27 -66 -151 -66 -196 0 -49 23 -148
50 -209 25 -59 111 -129 190 -155 88 -29 218 -29 269 0 42 24 93 90 121 155
21 48 28 164 10 164 -5 0 -10 -13 -10 -30 0 -20 -5 -30 -15 -30 -12 0 -14 12
-12 60 1 37 6 60 14 60 6 0 9 -9 6 -20 -6 -23 15 -28 23 -5 10 25 -57 195 -77
195 -5 0 -9 -18 -9 -40 0 -32 -4 -40 -19 -40 -15 0 -19 10 -24 57 -3 31 -13
63 -21 72 -15 14 -16 11 -16 -31 0 -39 -5 -50 -31 -72 -39 -33 -79 -33 -118 0
-33 28 -42 75 -21 115 10 18 7 19 -40 19 -27 0 -50 -3 -50 -6z"/>
<path d="M745 6495 c-27 -26 -30 -43 -15 -94 20 -70 78 -102 113 -63 36 39 10
154 -38 172 -35 13 -32 14 -60 -15z"/>
<path d="M2852 6541 c-29 -31 -71 -92 -93 -136 -39 -77 -40 -83 -34 -145 13
-123 65 -210 160 -265 22 -13 82 -32 133 -41 91 -18 93 -18 160 4 41 13 79 33
95 50 43 44 66 125 68 233 1 85 -2 100 -29 160 -19 41 -44 78 -70 100 -53 45
-174 87 -267 92 l-70 3 -53 -55z"/>
</g>
</svg>
