<?xml version="1.0" standalone="no"?>
<!DOCTYPE svg PUBLIC "-//W3C//DTD SVG 20010904//EN"
 "http://www.w3.org/TR/2001/REC-SVG-20010904/DTD/svg10.dtd">
<svg version="1.0" xmlns="http://www.w3.org/2000/svg"
 width="704.000000pt" height="1280.000000pt" viewBox="0 0 704.000000 1280.000000"
 preserveAspectRatio="xMidYMid meet">
<metadata>
Created by potrace 1.16, written by Peter Selinger 2001-2019
</metadata>
<g transform="translate(0.000000,1280.000000) scale(0.100000,-0.100000)"
fill="#000000" stroke="none">
<path d="M4680 10563 c-406 -28 -700 -101 -985 -245 -307 -155 -551 -406 -638
-653 -43 -123 -52 -174 -51 -310 1 -158 22 -244 93 -390 208 -424 751 -721
1435 -786 157 -14 519 -7 661 15 576 86 1018 323 1252 671 152 226 194 485
122 745 -66 234 -253 461 -524 636 -211 136 -516 244 -812 289 -173 26 -413
38 -553 28z m329 -164 c385 -28 771 -154 1021 -334 106 -77 246 -222 299 -312
117 -197 141 -446 62 -649 -133 -342 -551 -625 -1080 -729 -181 -35 -293 -45
-525 -45 -252 0 -474 26 -641 77 -341 102 -539 208 -716 383 -188 185 -268
374 -256 603 6 127 37 236 98 343 56 100 229 277 344 353 361 237 865 349
1394 310z"/>
<path d="M4640 10080 c-25 -3 -62 -13 -82 -23 -21 -9 -45 -17 -54 -17 -55 0
-294 -176 -294 -216 0 -7 -18 -34 -40 -59 -22 -25 -40 -55 -40 -66 0 -11 -8
-36 -18 -57 -21 -42 -41 -150 -43 -232 -2 -117 10 -160 89 -317 41 -82 222
-255 282 -270 14 -3 46 -16 71 -29 116 -58 331 -49 497 20 78 32 114 57 187
125 17 16 54 36 83 46 l53 17 23 -24 c22 -25 75 -48 155 -68 73 -19 43 -31
-225 -89 -190 -41 -271 -72 -300 -116 -24 -36 -11 -71 34 -94 177 -90 653 -7
753 133 16 21 29 43 29 48 0 24 -33 76 -56 88 -30 17 -28 23 16 52 42 29 80
92 80 135 0 33 -36 85 -74 105 -98 53 -275 13 -400 -90 -73 -61 -81 -43 -24
47 15 25 28 50 28 57 0 6 9 31 20 55 15 34 20 66 20 141 0 211 -60 368 -191
500 -86 85 -129 116 -218 152 -99 40 -257 61 -361 46z m1083 -943 c92 -39 75
-131 -36 -189 l-39 -19 -111 26 c-62 15 -120 31 -129 36 -76 40 105 152 255
158 15 1 42 -5 60 -12z m-24 -292 c53 -33 56 -40 31 -75 -42 -59 -199 -117
-385 -141 -154 -20 -321 6 -313 48 5 29 69 52 262 94 99 23 217 53 261 68 102
36 98 35 144 6z"/>
<path d="M3766 8308 c-53 -14 -123 -85 -132 -133 -15 -84 15 -159 84 -206 29
-19 48 -24 103 -24 60 0 71 3 106 31 55 45 77 88 77 149 -2 81 -48 147 -126
179 -42 18 -56 18 -112 4z m88 -82 c44 -18 66 -51 66 -99 0 -46 -21 -81 -60
-97 -129 -53 -214 140 -86 196 39 17 40 17 80 0z"/>
<path d="M3461 7965 c-42 -48 -43 -109 -4 -155 14 -18 36 -36 47 -40 l21 -9
-21 0 c-11 -1 -31 -12 -44 -26 -13 -14 -32 -25 -42 -25 -10 0 -36 -9 -58 -20
-22 -11 -57 -20 -79 -20 -27 0 -48 -8 -68 -24 -15 -13 -42 -26 -59 -30 -17 -4
-42 -18 -54 -32 -13 -13 -34 -24 -48 -24 -13 0 -37 -11 -54 -25 -40 -34 -81
-33 -108 3 -20 24 -28 27 -88 28 -297 2 -301 2 -327 30 l-24 26 -388 -3 c-563
-3 -545 -4 -577 26 -15 14 -39 25 -55 25 -15 0 -42 11 -61 25 -19 14 -40 25
-47 25 -8 0 -25 12 -38 26 -18 20 -32 25 -53 22 -24 -3 -33 2 -52 29 -12 18
-29 33 -37 33 -8 0 -28 14 -45 30 l-30 30 -194 0 c-194 0 -195 0 -203 -23 -5
-13 -17 -29 -26 -37 -13 -11 -15 -23 -10 -59 4 -25 7 -111 6 -191 -2 -139 -3
-146 -27 -171 -34 -36 -36 -95 -3 -121 23 -19 24 -25 28 -181 5 -215 5 -218
-4 -324 -7 -81 -10 -92 -30 -101 -19 -9 -23 -20 -27 -73 -4 -50 -9 -66 -29
-82 -22 -18 -24 -26 -24 -102 0 -72 -3 -87 -22 -107 -20 -21 -22 -35 -24 -155
-2 -132 -2 -133 -31 -158 l-28 -25 0 -232 0 -232 -26 -27 c-20 -21 -26 -38
-27 -82 -2 -44 -8 -61 -25 -77 -15 -15 -22 -32 -22 -60 0 -35 -4 -43 -39 -64
-47 -30 -71 -62 -71 -93 0 -13 -17 -42 -38 -66 -21 -23 -49 -59 -62 -80 -12
-21 -33 -48 -45 -60 -13 -12 -33 -39 -44 -60 l-21 -38 0 -1432 0 -1433 33 -18
c17 -10 50 -38 73 -62 22 -24 50 -44 61 -44 11 0 30 -11 43 -25 17 -18 34 -25
62 -25 43 0 69 -11 99 -41 10 -10 30 -19 43 -19 14 0 31 -8 38 -19 9 -13 30
-20 71 -23 40 -3 67 -12 90 -29 l32 -24 1595 0 1595 0 25 23 c21 19 35 22 114
23 143 2 177 4 184 16 13 20 48 30 122 37 50 5 82 13 95 25 14 13 44 20 105
25 63 5 90 12 105 26 19 18 38 22 144 35 24 3 53 13 63 22 12 10 45 20 86 24
50 5 70 12 83 28 11 13 37 25 68 31 28 5 60 19 71 30 11 11 28 20 38 20 10 0
27 7 38 15 10 8 33 15 51 15 25 0 38 8 59 35 14 19 34 35 43 35 10 0 28 11 41
25 13 14 32 25 42 25 11 0 32 7 48 15 19 10 79 19 161 24 72 5 134 13 138 18
11 17 49 33 80 33 17 0 42 11 60 26 17 14 57 33 89 41 136 35 279 130 475 313
61 57 197 242 197 268 0 5 14 26 30 47 16 21 30 44 30 52 0 8 11 29 24 46 13
18 26 49 29 71 3 21 15 55 26 77 11 21 23 62 26 91 4 29 16 85 28 123 20 62
22 90 20 245 -2 142 -6 187 -22 240 -11 36 -25 110 -31 165 -9 72 -19 111 -36
141 -13 22 -24 47 -24 54 0 7 -6 21 -14 29 -8 9 -21 38 -30 65 -10 28 -28 60
-41 73 -12 13 -26 36 -30 50 -3 15 -16 36 -28 47 -13 12 -29 30 -37 41 -29 39
-180 173 -225 199 -86 51 -247 96 -339 96 -68 0 -171 -38 -239 -89 -72 -53
-87 -72 -93 -117 -3 -22 -15 -58 -27 -81 -18 -37 -20 -47 -10 -80 26 -88 47
-139 63 -158 10 -11 21 -30 24 -41 4 -12 43 -56 86 -97 44 -42 80 -83 80 -92
0 -8 12 -25 26 -38 14 -12 33 -35 41 -52 9 -16 26 -37 38 -47 12 -10 27 -37
33 -61 6 -24 21 -56 33 -72 21 -26 22 -30 9 -74 -8 -25 -15 -73 -17 -106 -2
-33 -6 -70 -8 -81 -5 -20 -50 -83 -94 -129 -10 -11 -22 -34 -25 -51 -13 -61
-168 -193 -229 -194 -10 0 -35 -9 -57 -20 -71 -36 -120 -17 -120 48 0 17 -5
43 -12 59 -6 15 -14 76 -17 135 -6 94 -9 110 -29 128 -12 11 -22 26 -22 31 0
6 -9 23 -19 38 -10 14 -24 45 -30 67 -6 23 -19 52 -30 65 -25 32 -61 113 -61
137 0 11 -7 22 -15 25 -8 4 -23 23 -34 44 -11 21 -29 44 -40 51 -15 8 -21 22
-21 47 0 25 -8 43 -30 65 -16 17 -30 36 -30 43 -1 7 -14 28 -30 47 -17 19 -30
43 -30 55 -1 11 -14 36 -30 55 -17 19 -30 40 -30 47 0 7 -9 21 -20 31 -11 10
-26 38 -33 63 -8 24 -32 68 -55 98 -22 30 -44 66 -47 80 -3 14 -17 43 -31 63
-13 21 -24 41 -24 45 -1 5 -14 24 -30 43 -17 19 -30 46 -30 61 0 14 -10 34
-21 45 -12 10 -30 38 -40 62 -10 24 -39 68 -64 98 -25 31 -45 65 -45 75 0 11
-11 37 -25 57 -14 20 -25 41 -25 47 0 6 -11 26 -25 45 -14 19 -25 43 -25 55 0
12 -11 36 -25 55 -14 19 -25 41 -25 50 0 10 -9 27 -20 40 -11 13 -20 31 -20
40 0 16 -39 74 -75 111 -8 9 -31 48 -50 87 -27 55 -35 82 -35 127 0 33 -8 76
-19 103 -11 26 -22 75 -25 109 -3 42 -14 77 -31 106 -14 24 -25 59 -25 78 0
19 -10 53 -22 74 -22 38 -23 51 -23 272 0 224 1 232 23 262 22 30 22 31 22
434 l0 404 -30 38 c-16 21 -30 48 -30 60 0 24 -17 35 -52 35 -12 0 -27 8 -34
18 -10 14 -31 17 -122 19 -108 2 -111 1 -139 -26 -26 -24 -40 -29 -109 -34
-43 -3 -80 -4 -82 -2 -2 2 14 9 36 15 74 19 112 102 76 167 -22 42 -60 63
-112 63 -33 0 -45 -6 -71 -35z m-2560 -575 c10 -6 25 -23 33 -38 8 -15 36 -49
61 -77 58 -62 70 -85 86 -161 18 -90 5 -110 -150 -214 -25 -17 -51 -30 -58
-30 -26 0 -35 45 -38 198 -2 86 -6 169 -10 185 -10 37 1 90 26 121 23 30 23
30 50 16z m2999 -139 c14 -27 12 -58 -5 -107 -8 -23 -19 -82 -25 -130 -25
-218 -43 -319 -59 -338 -20 -24 -54 -1 -92 62 -18 32 -36 59 -39 62 -3 3 -23
31 -44 62 -37 55 -39 61 -37 130 2 82 11 96 91 151 25 17 62 48 83 69 57 58
108 74 127 39z m-765 -589 c28 -10 81 -37 119 -62 86 -56 133 -123 171 -244
27 -86 27 -89 12 -145 -9 -31 -18 -77 -21 -103 -7 -56 -55 -147 -98 -183 -69
-58 -120 -75 -226 -75 -82 0 -111 5 -177 28 -92 32 -174 92 -224 164 -40 58
-69 192 -51 241 5 17 10 42 10 56 0 61 82 214 140 263 85 72 236 98 345 60z
m-1420 -36 c33 -10 71 -23 85 -30 33 -15 94 -79 114 -119 9 -17 25 -43 36 -57
13 -15 27 -61 37 -114 30 -163 -8 -288 -120 -393 -29 -27 -63 -56 -77 -65 -34
-21 -152 -42 -198 -35 -20 4 -55 9 -77 12 -50 8 -161 63 -215 106 -49 39 -92
124 -121 238 -23 90 -23 109 -3 201 31 136 103 219 229 266 46 17 239 11 310
-10z"/>
<path d="M2846 6535 c-31 -35 -72 -97 -92 -137 -31 -63 -35 -80 -31 -128 5
-57 35 -155 59 -188 20 -28 79 -77 114 -95 35 -18 163 -47 207 -47 36 0 127
26 148 43 49 38 88 150 90 261 1 72 -2 90 -30 151 -37 80 -68 115 -137 148
-69 35 -108 45 -195 50 l-77 5 -56 -63z"/>
<path d="M1390 6526 c-81 -35 -86 -41 -122 -145 -24 -67 -19 -137 15 -245 17
-55 32 -80 71 -118 85 -84 164 -112 305 -107 l91 4 50 55 c28 30 62 78 76 107
24 48 26 61 22 155 -3 88 -7 112 -33 168 -34 76 -61 103 -133 136 -46 21 -67
24 -160 23 -97 -1 -114 -4 -182 -33z"/>
</g>
</svg>
