<?xml version="1.0" standalone="no"?>
<!DOCTYPE svg PUBLIC "-//W3C//DTD SVG 20010904//EN"
 "http://www.w3.org/TR/2001/REC-SVG-20010904/DTD/svg10.dtd">
<svg version="1.0" xmlns="http://www.w3.org/2000/svg"
 width="704.000000pt" height="1280.000000pt" viewBox="0 0 704.000000 1280.000000"
 preserveAspectRatio="xMidYMid meet">
<metadata>
Created by potrace 1.16, written by Peter Selinger 2001-2019
</metadata>
<g transform="translate(0.000000,1280.000000) scale(0.100000,-0.100000)"
fill="#000000" stroke="none">
<path d="M703 7894 c-12 -3 -32 -20 -46 -37 -24 -32 -24 -33 -19 -223 l5 -192
-32 -32 c-40 -43 -43 -95 -6 -125 25 -19 26 -25 30 -165 6 -197 -4 -408 -21
-423 -7 -7 -20 -18 -29 -25 -10 -8 -15 -30 -15 -65 0 -42 -5 -56 -24 -75 -22
-20 -24 -30 -24 -107 1 -78 -1 -87 -25 -109 -24 -23 -25 -25 -20 -128 7 -122
2 -149 -32 -180 -24 -23 -24 -23 -27 -260 -3 -236 -3 -237 -28 -263 -20 -21
-24 -35 -22 -74 1 -39 -3 -53 -22 -74 -13 -14 -26 -42 -29 -64 -5 -30 -16 -45
-47 -68 -39 -29 -70 -77 -70 -108 0 -9 -5 -19 -10 -22 -10 -6 -47 -57 -75
-104 -5 -9 -26 -37 -46 -61 -75 -94 -69 44 -69 -1539 l0 -1421 41 -26 c22 -14
48 -38 57 -54 17 -29 50 -50 77 -50 8 0 21 -10 29 -22 12 -16 30 -23 77 -29
48 -6 67 -13 86 -33 13 -14 32 -26 43 -26 29 0 50 -11 50 -25 0 -18 29 -26 77
-24 28 2 48 -4 72 -22 30 -22 45 -24 189 -31 194 -9 2680 -8 2889 1 131 5 154
9 173 26 19 17 40 21 157 25 118 4 136 7 149 24 11 15 31 21 96 26 83 6 123
19 130 42 3 7 34 12 87 14 67 2 88 7 105 22 15 14 45 23 104 30 55 7 90 16
103 28 13 11 44 21 85 25 45 4 72 13 87 27 12 11 40 24 62 27 22 4 49 16 60
26 22 19 92 48 140 56 17 3 47 21 68 39 20 19 41 34 46 34 4 0 20 11 35 25 15
14 36 25 47 25 11 0 30 6 42 14 14 9 69 18 148 24 104 7 131 12 156 30 18 13
46 22 68 22 25 0 48 9 73 29 22 16 61 33 95 40 145 31 477 287 577 446 21 33
47 71 58 85 10 14 23 36 27 50 4 14 18 38 31 53 13 16 24 37 24 48 0 10 8 27
18 37 9 9 25 44 36 77 10 33 27 77 37 97 11 21 19 52 19 70 0 18 12 80 26 138
24 96 25 118 21 265 -3 127 -8 167 -22 194 -9 19 -24 86 -31 150 -14 115 -22
137 -90 272 -13 26 -24 54 -24 62 0 9 -10 28 -23 44 -13 15 -29 43 -37 61 -7
18 -21 38 -31 45 -9 7 -23 24 -29 38 -6 14 -24 33 -40 42 -16 10 -40 32 -55
50 -63 78 -187 149 -320 183 -112 29 -197 30 -276 4 -104 -35 -219 -134 -219
-188 0 -15 -9 -47 -20 -71 -25 -55 -25 -63 5 -148 34 -98 59 -137 145 -224 41
-41 84 -92 94 -112 11 -20 23 -37 27 -37 5 0 21 -19 35 -42 15 -24 33 -47 40
-51 7 -4 19 -27 25 -50 6 -23 20 -54 31 -70 15 -22 19 -37 14 -70 -3 -23 -10
-80 -15 -126 -10 -85 -32 -132 -103 -213 -10 -12 -22 -34 -25 -48 -10 -51
-137 -164 -207 -185 -24 -7 -58 -21 -74 -29 -36 -18 -75 -21 -103 -6 -14 8
-19 21 -19 51 0 22 -5 50 -12 62 -7 12 -15 73 -18 136 -5 103 -8 115 -28 129
-12 8 -22 23 -22 32 0 10 -11 32 -25 48 -14 17 -25 42 -25 56 0 14 -20 56 -45
93 -25 37 -45 78 -45 93 0 16 -10 35 -25 48 -14 12 -25 28 -25 35 0 7 -13 26
-30 42 -22 21 -30 38 -30 63 0 24 -9 45 -30 69 -16 18 -30 39 -30 46 0 7 -13
23 -29 35 -16 12 -32 35 -36 51 -3 17 -14 40 -24 53 -10 13 -21 33 -25 44 -4
12 -18 34 -31 50 -14 16 -25 38 -25 49 0 18 -15 46 -42 80 -30 37 -68 103 -68
118 0 10 -13 37 -28 60 -58 85 -80 123 -86 148 -3 14 -17 38 -31 53 -14 15
-25 35 -25 45 0 10 -25 49 -55 87 -30 38 -55 78 -55 90 0 11 -11 35 -25 54
-14 19 -25 42 -25 51 0 9 -11 27 -25 40 -14 14 -25 35 -25 50 0 15 -8 37 -18
50 -20 27 -68 123 -76 154 -3 11 -28 47 -56 80 -27 33 -50 68 -50 78 0 11 -10
33 -22 50 -17 23 -24 53 -29 110 -4 42 -14 88 -21 100 -8 12 -18 57 -21 100
-5 53 -13 88 -26 106 -10 14 -22 49 -26 76 -4 28 -17 66 -29 85 -20 33 -21 46
-20 266 1 219 2 232 22 260 21 28 22 39 24 435 l2 407 -32 36 c-18 20 -32 45
-32 54 0 24 -19 42 -45 42 -11 0 -28 9 -38 20 -15 18 -29 20 -124 20 -97 0
-109 -2 -131 -22 -21 -20 -36 -23 -130 -26 -95 -4 -109 -7 -135 -28 -16 -13
-35 -24 -43 -24 -8 0 -32 -11 -54 -25 -27 -17 -54 -25 -84 -25 -33 0 -52 -7
-74 -25 -17 -14 -41 -25 -55 -25 -17 0 -33 -10 -47 -30 -15 -21 -30 -30 -49
-30 -16 0 -40 -9 -54 -20 -14 -11 -40 -23 -57 -26 -27 -6 -36 -2 -60 25 l-29
31 -180 0 c-177 0 -180 0 -209 25 l-30 25 -464 0 -465 0 -23 25 c-15 16 -34
25 -55 25 -17 0 -46 11 -65 25 -19 14 -41 25 -50 25 -9 0 -27 11 -40 25 -13
14 -34 25 -47 25 -14 0 -36 13 -51 29 -15 16 -39 33 -55 36 -15 4 -33 17 -39
29 -6 11 -12 23 -14 25 -5 6 -346 10 -371 5z m240 -551 c20 -27 50 -61 67 -78
37 -35 69 -102 77 -161 8 -69 -14 -103 -109 -167 -87 -59 -121 -69 -132 -40
-7 17 -20 263 -21 384 0 52 4 72 19 88 31 34 60 27 99 -26z m2955 -75 c16 -16
15 -63 -3 -122 -8 -27 -15 -77 -15 -112 0 -34 -5 -75 -12 -91 -10 -26 -15 -53
-36 -206 -10 -72 -22 -86 -56 -64 -28 19 -33 26 -120 158 l-63 97 4 73 c5 76
7 79 66 122 13 10 64 49 112 87 90 72 103 78 123 58z m-762 -606 c29 -10 81
-37 117 -60 83 -55 134 -128 172 -244 28 -87 28 -88 11 -146 -9 -32 -16 -75
-16 -95 0 -46 -48 -139 -94 -185 -104 -100 -282 -110 -481 -27 -39 17 -138
106 -164 149 -12 18 -28 69 -36 112 -13 69 -13 89 -1 149 24 124 97 256 167
302 93 62 224 80 325 45z m-1400 -40 c34 -10 78 -31 97 -46 46 -35 124 -151
144 -213 22 -69 23 -247 1 -296 -31 -69 -86 -142 -134 -177 -26 -19 -55 -40
-63 -47 -30 -23 -159 -35 -236 -22 -115 19 -263 101 -292 161 -52 107 -73 163
-84 221 -11 60 -11 79 5 155 10 48 24 94 31 102 7 8 22 33 33 56 20 39 99 99
163 123 43 16 268 5 335 -17z"/>
<path d="M2901 6589 c-29 -11 -116 -128 -151 -204 -32 -69 -33 -71 -22 -140
15 -98 44 -156 102 -208 55 -50 103 -70 212 -88 67 -11 79 -10 145 10 60 19
75 28 97 60 15 21 28 46 30 57 2 10 9 31 14 46 6 14 12 68 13 120 3 88 1 96
-32 163 -39 80 -94 129 -182 160 -56 20 -195 35 -226 24z"/>
<path d="M1445 6547 c-11 -8 -42 -22 -70 -32 -27 -10 -56 -23 -62 -29 -7 -6
-24 -45 -39 -86 -30 -86 -28 -134 9 -260 19 -65 29 -82 77 -128 72 -69 137
-94 258 -100 59 -2 104 0 122 8 39 16 126 123 145 179 9 27 15 79 15 130 -1
155 -66 269 -177 311 -66 25 -246 29 -278 7z"/>
</g>
</svg>
