<?xml version="1.0" standalone="no"?>
<!DOCTYPE svg PUBLIC "-//W3C//DTD SVG 20010904//EN"
 "http://www.w3.org/TR/2001/REC-SVG-20010904/DTD/svg10.dtd">
<svg version="1.0" xmlns="http://www.w3.org/2000/svg"
 width="704.000000pt" height="1280.000000pt" viewBox="0 0 704.000000 1280.000000"
 preserveAspectRatio="xMidYMid meet">
<metadata>
Created by potrace 1.16, written by Peter Selinger 2001-2019
</metadata>
<g transform="translate(0.000000,1280.000000) scale(0.100000,-0.100000)"
fill="#000000" stroke="none">
<path d="M690 7890 c-6 -3 -21 -21 -34 -38 -23 -32 -23 -35 -18 -217 l5 -184
-32 -36 c-42 -48 -43 -100 -3 -131 l27 -22 -1 -273 -1 -273 -29 -24 c-25 -22
-29 -32 -29 -77 0 -41 -5 -58 -27 -83 -24 -29 -26 -39 -25 -112 0 -69 -2 -83
-21 -103 -20 -21 -22 -34 -22 -141 0 -119 -6 -146 -41 -176 -17 -14 -19 -37
-21 -252 -3 -230 -4 -237 -25 -260 -18 -19 -23 -36 -23 -80 0 -44 -5 -60 -24
-80 -13 -14 -26 -43 -29 -65 -5 -29 -14 -43 -37 -56 -43 -26 -70 -57 -70 -82
0 -22 -53 -101 -82 -123 -10 -7 -18 -20 -18 -28 0 -9 -17 -36 -39 -62 -78 -94
-71 53 -71 -1534 l0 -1424 23 -14 c12 -8 46 -39 74 -67 29 -29 61 -53 71 -53
10 0 28 -11 40 -25 17 -19 31 -25 65 -25 33 0 51 -7 77 -30 19 -16 46 -29 59
-30 13 0 34 -11 47 -25 19 -21 32 -25 75 -25 40 0 58 -5 76 -22 21 -20 38 -23
186 -29 182 -9 2683 -8 2905 0 128 5 145 8 158 26 13 17 30 20 147 25 110 4
138 8 163 25 20 13 54 21 106 25 59 5 83 12 100 27 18 16 42 22 105 26 59 5
91 12 110 26 18 13 57 23 109 29 53 6 91 17 110 30 16 11 53 23 82 26 37 3 63
13 83 31 19 15 43 25 63 25 20 0 40 8 50 19 10 11 32 23 49 27 17 3 38 10 47
15 8 5 34 13 56 19 26 6 48 20 58 35 9 14 22 25 29 25 8 0 29 13 47 30 18 16
42 30 52 30 10 0 29 6 41 14 14 9 65 17 142 21 103 6 125 11 157 31 21 13 51
24 68 24 34 0 69 15 86 38 5 7 38 20 72 28 89 21 218 92 290 161 8 7 23 18 35
24 31 17 189 153 214 186 13 15 36 49 53 76 16 26 44 68 60 94 17 25 30 51 30
56 0 5 11 22 25 39 14 16 25 38 25 49 0 10 8 27 18 37 10 10 26 47 36 82 10
35 27 80 37 99 10 20 19 52 19 71 0 20 10 72 22 116 20 68 23 103 23 254 0
156 -3 181 -22 230 -12 30 -27 100 -33 155 -7 65 -19 117 -35 150 -65 138 -75
161 -75 169 0 4 -10 22 -22 39 -13 18 -31 49 -40 69 -9 21 -21 38 -26 38 -5 0
-17 16 -28 35 -10 19 -21 35 -25 35 -4 0 -47 36 -95 80 -107 96 -188 141 -310
169 -168 39 -267 23 -378 -58 -69 -51 -106 -96 -106 -129 0 -14 -10 -46 -22
-70 -19 -39 -20 -51 -11 -91 28 -120 73 -195 191 -320 66 -70 110 -123 134
-162 10 -16 26 -37 37 -48 10 -10 22 -37 26 -60 4 -23 12 -44 19 -48 26 -16
35 -48 24 -89 -5 -21 -14 -73 -18 -114 -5 -41 -9 -78 -9 -81 -1 -3 -26 -40
-56 -82 -30 -42 -57 -88 -61 -102 -6 -26 -76 -103 -129 -142 -16 -12 -54 -29
-85 -37 -31 -9 -65 -23 -76 -31 -22 -17 -67 -19 -95 -5 -14 8 -19 21 -19 51 0
22 -5 50 -12 62 -6 12 -14 70 -18 129 -5 89 -10 111 -27 130 -11 13 -23 35
-27 51 -4 15 -15 36 -26 47 -11 11 -20 32 -20 47 0 14 -11 41 -25 59 -14 18
-25 36 -25 39 0 4 -9 18 -20 32 -11 14 -20 38 -20 53 0 16 -10 35 -25 48 -14
12 -25 28 -25 35 0 7 -13 26 -30 42 -23 22 -30 38 -30 67 0 29 -6 41 -24 53
-14 9 -29 30 -35 47 -6 16 -22 38 -35 49 -13 11 -28 34 -32 52 -3 17 -17 45
-30 60 -13 16 -24 33 -24 38 0 6 -11 25 -24 42 -13 18 -26 48 -30 67 -3 19
-15 44 -27 55 -31 32 -79 108 -79 128 0 10 -24 52 -54 95 -30 43 -58 91 -62
107 -4 17 -18 43 -31 58 -12 16 -23 39 -23 52 0 13 -9 32 -19 42 -45 43 -91
107 -91 127 0 12 -11 37 -25 56 -14 19 -25 41 -25 50 0 10 -11 29 -25 44 -14
15 -25 37 -25 50 0 13 -8 34 -18 47 -19 25 -65 118 -76 154 -4 11 -27 42 -52
70 -24 27 -47 61 -51 75 -3 14 -16 43 -28 65 -16 28 -24 62 -27 117 -3 45 -11
84 -19 94 -8 10 -16 51 -20 94 -4 57 -11 85 -28 109 -13 17 -26 55 -30 84 -4
29 -16 68 -27 87 -17 32 -19 55 -18 264 2 216 3 230 23 257 21 28 21 37 22
435 l0 407 -26 27 c-14 14 -25 36 -25 47 0 28 -26 53 -54 53 -13 0 -30 8 -39
18 -13 14 -35 18 -122 20 -97 1 -108 0 -141 -23 -33 -22 -47 -25 -134 -25 -84
0 -99 -3 -115 -20 -10 -11 -36 -25 -59 -31 -22 -6 -51 -19 -64 -30 -16 -12
-41 -19 -68 -19 -31 0 -51 -7 -72 -25 -17 -14 -42 -25 -56 -25 -19 0 -30 -8
-38 -25 -6 -14 -23 -28 -37 -31 -53 -12 -66 -17 -82 -30 -8 -8 -29 -17 -46
-20 -26 -5 -37 -1 -60 22 l-28 29 -186 5 c-177 5 -187 6 -210 28 l-24 23 -463
-1 -464 0 -30 25 c-16 14 -42 25 -58 25 -16 0 -46 11 -66 25 -20 14 -42 25
-49 25 -6 0 -22 11 -35 25 -13 14 -28 25 -34 24 -30 -3 -43 4 -59 31 -12 20
-28 31 -53 36 -24 4 -39 14 -46 30 -6 13 -14 24 -18 24 -3 0 -88 1 -188 3
-100 2 -187 0 -192 -3z m248 -542 c12 -18 40 -51 62 -73 48 -46 77 -104 85
-173 8 -59 -16 -108 -64 -135 -19 -10 -53 -33 -75 -51 -53 -42 -72 -49 -91
-30 -15 16 -18 45 -21 189 0 44 -4 121 -9 172 l-8 92 31 31 c37 36 57 31 90
-22z m2964 -95 c8 -16 14 -35 12 -43 -2 -8 -13 -49 -24 -90 -12 -45 -17 -88
-14 -108 4 -19 0 -50 -9 -75 -8 -23 -18 -64 -21 -92 -23 -192 -27 -202 -81
-161 -19 15 -42 41 -51 59 -9 18 -40 65 -68 106 l-51 74 3 76 c3 83 -3 74 89
141 26 19 68 53 93 76 78 71 98 77 122 37z m-773 -589 c128 -38 237 -139 282
-261 36 -98 41 -141 24 -199 -8 -29 -15 -69 -15 -89 0 -42 -54 -145 -97 -187
-85 -81 -244 -102 -397 -51 -148 49 -257 156 -278 274 -13 71 -13 91 -3 164 9
69 38 139 97 231 69 109 241 162 387 118z m-1406 -38 c82 -23 136 -63 189
-143 64 -96 82 -157 83 -278 0 -91 -3 -106 -29 -160 -40 -82 -62 -109 -125
-158 -76 -58 -75 -58 -144 -68 -132 -19 -309 32 -399 114 -51 47 -111 175
-127 268 -11 63 -10 86 3 155 9 51 25 96 41 119 14 21 25 44 25 51 0 18 105
88 159 107 57 19 244 15 324 -7z"/>
<path d="M2851 6543 c-33 -36 -69 -91 -94 -143 l-40 -85 11 -70 c16 -100 44
-156 104 -209 56 -49 102 -68 209 -87 58 -10 75 -10 134 6 113 31 150 91 165
265 8 89 7 99 -18 164 -21 54 -37 77 -77 111 -59 51 -135 82 -219 90 -34 3
-75 8 -92 11 -27 4 -37 -3 -83 -53z"/>
<path d="M1430 6540 c-19 -11 -52 -24 -73 -30 -33 -10 -42 -19 -58 -58 -11
-26 -24 -56 -29 -67 -18 -41 -20 -102 -6 -176 20 -104 49 -161 106 -209 74
-62 130 -83 236 -88 121 -6 151 5 209 76 70 84 85 126 85 237 0 79 -4 104 -27
157 -56 133 -134 178 -306 178 -81 -1 -109 -5 -137 -20z"/>
</g>
</svg>
