<?xml version="1.0" standalone="no"?>
<!DOCTYPE svg PUBLIC "-//W3C//DTD SVG 20010904//EN"
 "http://www.w3.org/TR/2001/REC-SVG-20010904/DTD/svg10.dtd">
<svg version="1.0" xmlns="http://www.w3.org/2000/svg"
 width="704.000000pt" height="1280.000000pt" viewBox="0 0 704.000000 1280.000000"
 preserveAspectRatio="xMidYMid meet">
<metadata>
Created by potrace 1.16, written by Peter Selinger 2001-2019
</metadata>
<g transform="translate(0.000000,1280.000000) scale(0.100000,-0.100000)"
fill="#000000" stroke="none">
<path d="M692 7889 c-9 -4 -27 -20 -38 -36 -21 -28 -22 -36 -17 -219 l6 -190
-26 -26 c-44 -44 -45 -138 -2 -138 16 0 18 -31 18 -255 0 -316 0 -311 -33
-345 -25 -25 -30 -39 -30 -77 0 -36 -5 -51 -25 -68 -22 -21 -24 -30 -22 -104
1 -73 -1 -83 -23 -106 -24 -25 -25 -32 -23 -148 1 -125 -8 -168 -42 -180 -13
-6 -15 -39 -15 -241 l0 -234 -25 -30 c-19 -23 -25 -41 -25 -79 0 -40 -5 -56
-25 -77 -15 -16 -25 -39 -25 -57 0 -30 -8 -40 -79 -100 -18 -16 -31 -36 -31
-49 0 -24 -56 -120 -69 -120 -4 0 -13 -12 -20 -26 -6 -14 -29 -47 -50 -72 -78
-94 -71 52 -71 -1530 0 -1338 1 -1419 17 -1435 10 -9 35 -30 55 -47 20 -17 40
-40 43 -51 4 -11 19 -22 34 -25 16 -3 41 -17 56 -30 20 -17 40 -24 71 -24 34
0 51 -7 77 -30 19 -17 45 -30 57 -30 13 0 33 -11 46 -25 19 -20 32 -25 74 -25
36 0 59 -6 80 -22 16 -12 50 -23 77 -26 74 -7 2828 -10 2999 -3 131 5 155 9
173 25 18 16 45 21 158 29 107 7 140 12 149 25 8 11 35 17 97 21 70 5 90 10
109 29 17 16 37 22 69 23 71 1 136 14 154 32 20 20 6 17 96 26 50 5 86 15 105
29 16 11 53 23 83 26 34 3 67 15 91 31 20 14 47 25 61 25 14 0 40 11 59 25 19
14 42 25 51 25 10 0 20 4 23 9 4 5 25 12 49 16 27 5 55 20 80 41 20 19 41 34
46 34 4 0 20 11 35 25 16 14 39 25 55 25 16 0 34 6 40 14 8 9 48 16 124 21
138 9 141 9 181 35 18 11 48 20 66 20 21 0 43 10 65 29 20 18 50 32 77 36 111
17 358 181 511 340 51 52 167 220 167 241 0 7 11 25 24 41 13 15 29 45 35 65
7 21 18 41 25 45 8 5 21 35 31 68 9 33 25 79 36 102 10 23 19 55 19 71 0 15
10 64 23 108 19 69 22 102 22 264 -1 166 -3 190 -22 235 -13 30 -26 90 -31
150 -7 66 -18 115 -33 145 -12 25 -32 66 -45 93 -13 26 -24 53 -24 60 0 7 -12
29 -26 48 -14 19 -34 52 -44 75 -23 52 -176 208 -255 262 -130 86 -264 127
-395 119 -97 -5 -123 -15 -226 -85 -63 -44 -82 -70 -94 -132 -5 -28 -17 -61
-25 -73 -8 -12 -15 -31 -15 -44 0 -27 48 -162 65 -183 7 -8 20 -28 28 -45 17
-32 123 -145 136 -145 5 0 14 -13 20 -29 7 -15 27 -44 44 -64 68 -78 89 -108
99 -144 5 -21 18 -47 29 -59 21 -23 24 -62 9 -126 -5 -24 -13 -69 -16 -101 -5
-49 -14 -71 -60 -138 -30 -44 -60 -94 -68 -112 -12 -29 -26 -45 -111 -124 -28
-25 -154 -78 -218 -90 -38 -7 -68 21 -66 61 1 17 -6 48 -15 68 -10 23 -17 73
-19 135 -2 86 -6 102 -25 121 -12 12 -22 28 -22 35 0 7 -11 28 -25 47 -14 19
-25 47 -25 64 0 18 -10 40 -24 55 -30 32 -66 100 -66 123 0 10 -25 50 -55 90
-36 47 -55 81 -55 99 0 37 -9 59 -25 59 -8 0 -17 9 -20 20 -4 11 -24 41 -46
66 -21 25 -39 53 -39 63 0 9 -11 32 -25 51 -14 19 -25 38 -25 42 0 5 -11 26
-25 46 -14 20 -25 47 -25 59 0 13 -11 35 -25 50 -36 40 -85 116 -85 132 0 8
-24 53 -54 100 -29 47 -59 102 -65 122 -7 20 -21 45 -31 54 -11 10 -20 27 -20
37 0 10 -25 49 -55 85 -30 37 -55 75 -55 84 0 19 -54 125 -76 150 -7 8 -17 31
-20 50 -4 19 -14 43 -24 54 -18 22 -65 117 -75 151 -3 12 -28 47 -55 78 -28
32 -50 64 -50 72 0 8 -11 36 -25 62 -18 34 -25 62 -25 105 0 38 -7 71 -20 97
-13 25 -20 59 -20 92 0 37 -7 67 -25 100 -13 25 -27 66 -31 90 -3 23 -17 69
-30 101 -25 57 -25 59 -19 275 5 195 7 220 25 244 19 26 20 45 21 434 1 402 1
406 -21 428 -11 13 -24 36 -29 52 -5 20 -19 35 -47 48 -21 10 -42 23 -46 29
-4 6 -54 12 -120 14 -105 3 -116 2 -137 -18 -31 -29 -75 -38 -164 -32 -67 3
-76 2 -99 -20 -15 -14 -42 -27 -61 -31 -19 -3 -42 -15 -52 -26 -12 -14 -31
-20 -58 -20 -22 0 -54 -8 -71 -19 -17 -10 -48 -24 -68 -30 -20 -7 -44 -23 -52
-37 -11 -16 -26 -24 -44 -24 -16 0 -43 -11 -62 -25 -46 -34 -80 -32 -113 5
l-27 30 -183 0 c-181 0 -182 1 -206 25 l-23 25 -467 0 -468 0 -23 25 c-14 15
-35 25 -51 25 -30 0 -132 50 -165 81 -11 10 -30 19 -42 19 -20 0 -62 35 -62
51 0 4 -16 10 -35 13 -25 5 -39 14 -45 32 -5 13 -15 25 -22 26 -39 5 -362 2
-376 -3z m246 -541 c17 -24 42 -54 57 -68 15 -14 36 -37 46 -52 27 -37 52
-136 44 -174 -7 -38 -40 -84 -61 -84 -8 0 -34 -18 -58 -40 -55 -50 -110 -64
-121 -31 -6 21 -17 240 -19 382 -1 53 3 71 18 88 31 34 61 27 94 -21z m2954
-85 c22 -20 23 -61 3 -127 -8 -27 -15 -73 -15 -102 0 -30 -6 -71 -14 -91 -8
-21 -17 -65 -20 -98 -9 -89 -22 -164 -28 -171 -4 -3 -20 -3 -37 1 -22 5 -37
19 -57 53 -15 26 -36 58 -46 72 -70 92 -78 112 -78 197 0 74 2 83 21 94 32 17
142 107 152 124 4 8 13 15 19 15 5 0 23 11 40 25 35 30 36 30 60 8z m-2987
-574 c17 -7 56 -13 87 -13 86 -1 145 -53 155 -137 6 -44 38 -93 55 -83 5 3 18
26 30 50 11 25 30 50 42 55 11 6 37 29 57 50 l37 39 143 -4 c147 -4 269 -25
300 -52 8 -8 26 -14 38 -14 14 0 25 -7 28 -19 4 -18 6 -18 42 2 24 13 45 18
61 14 49 -13 55 -23 60 -102 5 -73 4 -75 -17 -75 -13 0 -23 5 -23 10 0 7 -6 7
-18 1 -17 -9 -17 -13 -3 -75 12 -50 20 -66 34 -66 13 0 17 -9 17 -39 0 -31 -4
-40 -21 -44 -12 -3 -19 -9 -16 -14 3 -4 1 -33 -5 -63 -16 -91 -105 -203 -214
-272 -30 -19 -157 -30 -223 -18 -133 23 -272 104 -306 178 -10 20 -26 55 -36
77 -10 22 -25 69 -33 104 -8 34 -17 65 -19 67 -12 13 -56 -23 -73 -59 -34 -74
-121 -105 -201 -72 -19 8 -59 15 -87 15 -86 0 -156 62 -156 139 0 23 -9 44
-30 68 -58 66 -37 181 42 227 15 9 35 32 43 50 21 44 44 64 92 82 40 15 69 13
118 -7z m2217 -25 c78 -20 179 -89 234 -159 68 -89 101 -227 75 -315 -6 -19
-11 -55 -11 -79 0 -77 -100 -207 -178 -232 -21 -6 -41 -15 -46 -20 -6 -5 -51
-9 -100 -9 -74 0 -108 6 -180 30 -50 17 -92 34 -95 38 -4 4 -27 24 -53 45
-104 83 -149 204 -128 342 12 76 69 206 119 265 74 90 227 130 363 94z"/>
<path d="M914 6536 c-35 -55 8 -166 65 -166 45 0 65 31 57 87 -8 62 -34 97
-74 101 -24 2 -34 -3 -48 -22z"/>
<path d="M1488 6534 c24 -19 32 -33 32 -58 0 -49 -30 -71 -97 -71 -48 0 -58 4
-79 29 -14 15 -23 33 -21 40 6 16 35 8 58 -15 21 -21 50 -24 80 -9 48 26 5 60
-76 60 -86 0 -120 -66 -119 -230 1 -142 24 -206 97 -272 71 -65 139 -91 254
-96 72 -3 99 0 128 14 43 20 109 99 136 162 20 47 26 162 9 162 -5 0 -10 -13
-10 -30 0 -20 -5 -30 -15 -30 -12 0 -14 12 -12 60 1 37 6 60 14 60 6 0 9 -9 6
-21 -4 -16 -2 -20 8 -17 22 8 14 61 -19 133 -34 72 -52 83 -52 30 0 -27 -4
-35 -19 -35 -15 0 -19 10 -24 57 -3 31 -13 63 -21 72 -15 14 -16 11 -16 -31 0
-39 -5 -50 -31 -72 -17 -15 -43 -26 -59 -26 -44 0 -90 44 -90 87 0 19 5 43 10
54 10 18 7 19 -47 19 l-58 0 33 -26z"/>
<path d="M745 6495 c-27 -26 -30 -43 -15 -94 20 -70 78 -102 113 -63 36 39 10
154 -38 172 -35 13 -32 14 -60 -15z"/>
<path d="M2854 6542 c-34 -35 -71 -89 -96 -141 l-41 -84 11 -71 c15 -95 43
-155 96 -204 60 -55 88 -68 193 -88 87 -17 92 -17 158 2 56 16 73 26 100 59
49 61 63 110 66 221 3 94 1 102 -30 167 -25 52 -45 77 -84 106 -58 43 -157 76
-255 85 l-64 6 -54 -58z"/>
</g>
</svg>
