<?xml version="1.0" standalone="no"?>
<!DOCTYPE svg PUBLIC "-//W3C//DTD SVG 20010904//EN"
 "http://www.w3.org/TR/2001/REC-SVG-20010904/DTD/svg10.dtd">
<svg version="1.0" xmlns="http://www.w3.org/2000/svg"
 width="704.000000pt" height="1280.000000pt" viewBox="0 0 704.000000 1280.000000"
 preserveAspectRatio="xMidYMid meet">
<metadata>
Created by potrace 1.16, written by Peter Selinger 2001-2019
</metadata>
<g transform="translate(0.000000,1280.000000) scale(0.100000,-0.100000)"
fill="#000000" stroke="none">
<path d="M4665 10563 c-486 -32 -879 -158 -1195 -382 -213 -151 -386 -386
-442 -601 -31 -123 -32 -323 0 -435 73 -255 254 -485 516 -653 89 -57 307
-159 421 -197 252 -84 452 -115 775 -122 242 -6 413 8 613 48 708 142 1186
550 1247 1062 16 136 -10 296 -72 435 -156 353 -554 640 -1070 772 -227 59
-556 89 -793 73z m455 -174 c498 -54 954 -279 1165 -574 107 -150 148 -273
149 -445 1 -130 -11 -192 -59 -297 -168 -366 -591 -625 -1175 -718 -141 -23
-517 -31 -675 -15 -668 66 -1167 365 -1319 788 -29 82 -31 95 -31 232 1 130 3
153 28 225 44 132 106 227 226 345 157 156 314 253 546 338 333 122 740 165
1145 121z"/>
<path d="M3770 8308 c-125 -35 -179 -181 -106 -287 90 -129 283 -95 334 57 26
78 -28 185 -113 223 -45 21 -64 22 -115 7z m121 -109 c40 -43 40 -96 0 -141
-25 -28 -36 -33 -76 -33 -40 0 -51 5 -76 33 -63 71 -17 171 79 172 36 0 49 -5
73 -31z"/>
<path d="M3461 7965 c-24 -27 -31 -45 -31 -76 0 -46 20 -91 51 -112 20 -15 21
-15 1 -21 -11 -4 -23 -13 -26 -21 -3 -8 -23 -18 -46 -21 -22 -4 -40 -10 -40
-14 0 -13 -50 -30 -88 -30 -23 0 -51 -9 -74 -25 -20 -14 -45 -25 -56 -25 -10
0 -28 -13 -40 -30 -16 -21 -31 -30 -52 -30 -16 0 -32 -5 -36 -11 -12 -20 -75
-40 -104 -34 -15 3 -33 17 -40 30 l-13 25 -187 0 c-184 0 -187 0 -209 24 l-23
24 -463 -1 -462 -1 -32 27 c-19 15 -45 27 -61 27 -16 0 -42 11 -58 25 -17 14
-36 25 -44 25 -8 0 -23 9 -33 20 -10 11 -36 23 -57 26 -27 5 -45 15 -59 35
-11 16 -29 29 -40 29 -22 0 -49 22 -49 39 0 26 -40 29 -325 23 l-80 -2 -24
-41 c-22 -39 -23 -52 -25 -231 -1 -166 -3 -191 -18 -202 -42 -30 -49 -106 -14
-133 24 -17 25 -25 34 -188 4 -93 5 -186 0 -205 -4 -19 -8 -70 -8 -112 0 -74
-1 -77 -30 -98 -27 -19 -30 -26 -30 -79 0 -49 -4 -61 -25 -79 -23 -20 -24 -27
-22 -101 2 -69 -1 -82 -20 -103 -19 -21 -22 -36 -25 -155 -3 -129 -3 -132 -31
-155 l-27 -24 0 -230 0 -231 -27 -29 c-23 -24 -28 -37 -26 -79 1 -38 -4 -55
-19 -72 -11 -11 -22 -40 -25 -63 -4 -30 -13 -46 -32 -58 -50 -31 -81 -71 -81
-102 0 -17 -10 -41 -25 -57 -48 -55 -72 -88 -79 -110 -4 -13 -11 -23 -16 -23
-5 0 -27 -28 -49 -61 l-41 -61 0 -1427 0 -1426 39 -27 c21 -15 49 -43 62 -63
16 -23 36 -39 59 -45 19 -5 43 -19 52 -30 13 -14 30 -20 63 -20 35 0 51 -6 78
-30 22 -19 46 -30 64 -30 18 0 37 -9 50 -23 15 -18 32 -24 68 -25 29 -2 56
-10 71 -21 18 -14 49 -20 131 -26 128 -8 2949 -10 3043 -2 46 4 68 11 78 24
11 15 32 19 145 23 118 4 136 7 161 27 24 19 41 23 102 23 62 0 77 4 101 24
22 19 45 25 113 31 64 5 90 12 107 27 15 15 45 23 105 29 56 6 92 16 110 29
15 11 40 20 55 20 45 0 98 18 118 40 11 12 31 20 51 20 20 0 44 9 62 25 17 14
37 25 45 25 8 0 28 7 43 15 16 8 42 15 57 15 19 0 38 10 55 30 15 17 31 30 37
30 6 0 25 14 43 30 18 17 41 30 50 30 9 0 30 7 47 16 19 10 74 18 156 23 108
6 130 10 154 29 15 12 42 22 60 22 21 0 46 11 69 29 21 17 55 32 79 36 59 9
178 69 251 126 255 199 353 305 426 456 9 17 23 40 31 50 9 10 22 34 28 54 7
20 20 44 30 53 11 10 22 36 25 59 4 24 16 57 26 75 11 18 25 68 31 110 5 42
18 100 27 127 14 40 17 86 17 230 -1 161 -3 186 -23 237 -12 32 -26 99 -32
150 -7 57 -21 116 -37 153 -53 123 -102 222 -118 235 -8 7 -15 18 -15 26 0 7
-13 28 -29 46 -15 18 -30 38 -32 45 -10 29 -219 203 -285 236 -67 34 -196 61
-289 60 -102 -2 -154 -20 -240 -83 -72 -54 -87 -74 -96 -131 -5 -28 -15 -59
-24 -69 -21 -23 -19 -78 5 -123 11 -20 20 -45 20 -56 0 -10 14 -35 30 -56 17
-21 30 -42 30 -47 0 -5 36 -46 80 -90 44 -45 80 -87 80 -93 0 -6 16 -25 35
-44 19 -18 35 -37 35 -43 0 -6 14 -26 30 -45 17 -18 30 -44 30 -56 0 -12 14
-42 30 -65 29 -44 32 -78 9 -124 -5 -9 -9 -47 -9 -84 0 -64 -3 -72 -45 -134
-24 -37 -51 -73 -60 -80 -8 -7 -15 -20 -15 -30 0 -23 -57 -92 -121 -147 -34
-29 -64 -45 -100 -52 -28 -6 -60 -18 -72 -26 -29 -21 -80 -19 -100 3 -10 10
-17 33 -17 51 0 17 -7 48 -15 68 -10 23 -15 68 -15 128 0 84 -3 96 -24 122
-13 15 -26 38 -30 51 -4 12 -11 22 -16 22 -13 0 -28 31 -35 71 -3 18 -12 40
-20 49 -18 20 -65 125 -65 144 0 8 -9 20 -20 26 -11 6 -22 21 -26 34 -3 14
-19 36 -35 50 -23 21 -29 35 -29 65 0 33 -5 43 -30 61 -16 12 -30 28 -30 35 0
8 -13 29 -29 48 -16 18 -33 46 -37 61 -4 16 -29 61 -55 100 -27 39 -52 87 -55
106 -4 19 -16 45 -27 57 -27 30 -46 64 -86 153 -6 14 -29 49 -51 79 -22 30
-45 72 -50 93 -6 21 -22 49 -35 62 -14 14 -25 34 -25 44 0 18 -24 54 -85 127
-14 16 -25 38 -25 48 0 10 -11 35 -25 55 -14 20 -25 41 -25 47 0 6 -11 26 -25
45 -14 19 -25 43 -25 55 0 12 -11 36 -25 55 -14 19 -25 41 -25 50 0 9 -9 25
-19 34 -10 10 -22 32 -25 50 -4 18 -27 56 -54 87 -27 30 -52 68 -56 84 -4 17
-15 38 -23 47 -10 11 -19 49 -23 101 -5 46 -15 97 -23 113 -8 16 -18 61 -22
99 -5 45 -16 84 -31 111 -13 22 -24 56 -24 75 0 19 -10 53 -22 74 -22 38 -22
49 -20 269 2 209 4 233 22 263 19 32 20 54 20 440 l1 406 -24 26 c-14 14 -29
40 -34 56 -6 20 -19 33 -40 40 -16 6 -37 16 -45 23 -10 8 -56 14 -119 17 -101
4 -105 4 -144 -24 -32 -23 -54 -29 -115 -34 -55 -4 -66 -3 -43 4 40 12 80 59
89 104 14 74 -42 135 -122 135 -35 0 -47 -6 -73 -35z m-2543 -596 c15 -18 52
-61 83 -96 63 -71 82 -120 80 -202 -1 -62 -15 -82 -74 -113 -21 -10 -40 -25
-43 -32 -3 -8 -25 -24 -49 -37 -70 -37 -75 -25 -82 162 -11 287 -11 294 16
323 31 33 37 33 69 -5z m2984 -125 c10 -20 8 -38 -7 -92 -10 -37 -22 -101 -26
-142 -4 -41 -12 -106 -18 -145 -7 -38 -15 -96 -20 -128 -4 -31 -12 -62 -18
-68 -15 -15 -55 7 -79 44 -12 18 -43 65 -70 105 -74 111 -74 111 -69 182 4 61
7 67 42 95 20 17 72 63 116 103 90 81 128 93 149 46z m-767 -582 c140 -48 239
-148 285 -285 23 -71 23 -74 2 -247 -14 -113 -80 -203 -189 -259 -34 -17 -60
-21 -135 -21 -170 0 -325 74 -407 194 -41 60 -63 169 -49 246 25 142 91 271
164 323 87 62 230 83 329 49z m-1404 -41 c84 -22 131 -59 185 -142 63 -98 77
-147 78 -269 1 -110 3 -101 -58 -218 -15 -28 -126 -135 -160 -154 -7 -4 -45
-12 -85 -19 -134 -20 -300 29 -398 118 -53 48 -97 144 -118 259 -15 79 -15 91
1 167 10 45 28 97 41 115 12 19 25 42 28 52 6 18 49 50 115 86 22 12 65 21
120 25 103 7 164 3 251 -20z"/>
<path d="M2853 6541 c-29 -31 -70 -90 -90 -131 -32 -64 -38 -84 -37 -136 1
-97 35 -173 104 -237 61 -57 88 -68 213 -88 70 -12 83 -11 135 6 79 26 116 63
141 144 32 100 31 220 -1 291 -56 122 -156 184 -324 199 l-89 7 -52 -55z"/>
<path d="M1420 6536 c-25 -13 -59 -27 -76 -30 -27 -6 -34 -15 -57 -74 -38 -97
-40 -113 -28 -189 23 -147 51 -199 150 -276 44 -35 131 -56 226 -57 107 0 134
12 193 92 63 83 74 120 70 234 -6 157 -53 245 -155 295 -41 20 -65 24 -163 26
-104 3 -119 1 -160 -21z"/>
</g>
</svg>
