<?xml version="1.0" standalone="no"?>
<!DOCTYPE svg PUBLIC "-//W3C//DTD SVG 20010904//EN"
 "http://www.w3.org/TR/2001/REC-SVG-20010904/DTD/svg10.dtd">
<svg version="1.0" xmlns="http://www.w3.org/2000/svg"
 width="704.000000pt" height="1280.000000pt" viewBox="0 0 704.000000 1280.000000"
 preserveAspectRatio="xMidYMid meet">
<metadata>
Created by potrace 1.16, written by Peter Selinger 2001-2019
</metadata>
<g transform="translate(0.000000,1280.000000) scale(0.100000,-0.100000)"
fill="#000000" stroke="none">
<path d="M4607 10559 c-414 -32 -750 -134 -1049 -319 -112 -70 -192 -136 -281
-230 -130 -138 -204 -267 -248 -431 -32 -118 -33 -321 -2 -429 58 -202 170
-376 336 -521 253 -219 607 -371 1017 -434 164 -26 561 -31 735 -11 587 71
1036 287 1288 622 153 204 216 404 196 630 -28 325 -225 605 -579 824 -365
227 -894 339 -1413 299z m550 -175 c242 -31 460 -95 660 -195 542 -267 755
-728 538 -1159 -144 -287 -503 -529 -935 -631 -218 -52 -288 -60 -552 -66
-329 -7 -508 12 -742 78 -432 123 -744 345 -883 630 -59 120 -76 206 -71 348
9 195 78 356 215 502 274 290 687 463 1218 509 131 11 406 4 552 -16z"/>
<path d="M4583 10091 c-109 -27 -274 -115 -289 -155 -4 -10 104 -185 135 -219
4 -4 38 13 75 37 121 82 264 108 354 65 95 -47 109 -151 30 -240 -13 -14 -73
-65 -135 -112 -159 -123 -156 -119 -148 -247 3 -58 9 -118 12 -134 l5 -28 82
6 c44 4 102 9 127 13 l47 5 -5 82 -6 82 44 34 c143 111 268 237 304 307 27 53
30 67 30 158 0 117 -17 163 -87 234 -57 57 -108 85 -198 110 -97 27 -272 28
-377 2z"/>
<path d="M4693 8931 c-124 -31 -175 -191 -91 -287 47 -53 82 -67 150 -61 141
13 213 162 133 277 -42 61 -118 89 -192 71z"/>
<path d="M3773 8310 c-47 -11 -100 -55 -124 -102 -45 -87 -4 -204 85 -248 126
-60 273 32 268 169 -3 83 -61 159 -139 180 -42 12 -45 12 -90 1z m124 -117
c69 -85 -30 -208 -126 -159 -34 18 -61 62 -61 100 0 31 53 93 83 98 37 6 81
-10 104 -39z"/>
<path d="M3461 7965 c-53 -60 -39 -154 28 -190 25 -14 25 -14 4 -15 -12 0 -27
-9 -33 -19 -6 -12 -26 -22 -50 -26 -21 -4 -50 -15 -64 -26 -15 -12 -40 -19
-66 -19 -29 0 -51 -8 -74 -25 -18 -14 -40 -25 -48 -25 -8 0 -32 -13 -53 -30
-21 -16 -47 -30 -57 -30 -11 0 -33 -11 -50 -25 -40 -34 -77 -32 -112 4 l-29
30 -181 0 -181 0 -20 26 -21 25 -470 0 -471 0 -23 25 c-17 18 -34 25 -62 25
-21 0 -38 4 -38 9 0 5 -25 21 -56 37 -31 16 -59 34 -61 41 -3 7 -20 13 -38 13
-27 0 -37 6 -54 35 -16 28 -27 35 -50 35 -21 0 -34 7 -42 23 -7 12 -16 25 -20
28 -7 4 -331 5 -376 0 -6 0 -22 -15 -34 -32 -21 -30 -22 -42 -23 -230 l-1
-199 -27 -25 c-21 -20 -28 -35 -28 -65 0 -30 6 -42 28 -58 l27 -20 0 -276 0
-276 -33 -29 c-29 -27 -32 -36 -32 -84 0 -45 -4 -57 -22 -69 -21 -14 -23 -23
-23 -101 0 -74 -3 -89 -22 -109 -19 -21 -22 -36 -25 -155 -3 -130 -4 -133 -31
-158 l-27 -26 0 -229 0 -229 -30 -31 c-28 -29 -30 -35 -24 -79 5 -41 3 -51
-19 -77 -14 -16 -28 -46 -32 -67 -5 -26 -17 -44 -44 -63 -49 -37 -61 -53 -61
-86 0 -17 -10 -38 -23 -51 -13 -12 -40 -49 -62 -82 -22 -33 -50 -70 -62 -83
-13 -13 -32 -41 -43 -62 -20 -39 -20 -60 -20 -1464 l0 -1425 28 -15 c16 -8 45
-33 66 -56 21 -23 52 -48 69 -55 18 -7 41 -23 51 -34 14 -15 31 -21 61 -21 34
0 50 -6 75 -30 19 -18 43 -30 59 -30 16 0 37 -10 51 -25 19 -20 33 -25 74 -25
36 0 56 -5 71 -20 39 -37 318 -42 1780 -36 1185 5 1374 7 1436 14 9 1 26 11
39 22 19 17 39 20 114 21 145 3 161 5 192 27 20 14 52 22 109 27 57 4 86 12
100 25 15 13 43 20 105 25 64 6 90 12 107 27 14 13 46 23 98 29 42 6 88 17
102 27 15 9 54 19 89 23 47 5 71 13 94 33 17 14 43 26 56 26 24 0 63 16 74 29
8 10 119 51 139 51 9 0 34 16 54 35 20 19 41 35 46 35 4 0 20 11 35 25 15 14
36 25 47 25 12 0 33 7 47 15 16 8 79 18 155 23 98 8 132 14 147 27 11 10 40
21 66 26 25 5 59 19 74 33 18 14 54 28 94 36 37 7 77 21 90 31 13 10 34 23 48
28 42 16 229 161 316 245 80 77 136 149 163 208 7 16 15 28 19 28 4 0 13 15
20 33 7 17 22 41 32 53 10 11 20 30 23 42 5 28 24 62 34 62 5 0 16 29 25 65 9
36 25 83 36 103 11 20 20 53 20 74 0 20 12 83 26 140 25 95 26 112 21 257 -4
127 -9 165 -25 203 -12 26 -26 92 -32 150 -8 70 -20 119 -36 152 -13 28 -24
55 -24 62 0 6 -9 22 -19 36 -11 13 -23 38 -27 54 -4 16 -20 45 -36 64 -15 19
-28 41 -28 48 0 58 -269 300 -373 335 -145 50 -153 52 -253 51 -111 0 -137 -8
-234 -74 -79 -55 -107 -88 -115 -140 -4 -25 -13 -55 -21 -67 -21 -34 -17 -90
11 -152 14 -31 30 -63 35 -71 5 -8 17 -28 26 -45 9 -16 52 -65 95 -108 44 -43
79 -84 79 -91 0 -7 12 -23 26 -37 14 -13 33 -37 41 -54 9 -16 26 -40 39 -52
13 -12 24 -32 24 -44 0 -12 13 -43 30 -69 l30 -46 -15 -58 c-8 -31 -15 -82
-15 -112 0 -58 -21 -100 -92 -182 -15 -18 -28 -41 -28 -51 0 -46 -137 -175
-203 -191 -23 -6 -61 -19 -85 -30 -23 -11 -53 -20 -66 -20 -31 0 -56 30 -56
67 0 17 -7 47 -15 66 -9 23 -15 69 -15 122 0 83 -8 114 -37 143 -7 7 -13 20
-13 29 0 8 -11 28 -25 45 -14 16 -25 39 -25 49 0 11 -13 40 -30 64 -16 24 -30
48 -30 53 0 5 -7 15 -15 22 -8 7 -15 28 -15 46 0 25 -7 38 -25 50 -13 9 -27
26 -31 37 -4 12 -17 32 -30 44 -17 15 -24 33 -24 58 0 25 -8 44 -30 67 -16 17
-30 36 -30 42 0 6 -16 29 -35 50 -19 22 -35 50 -35 62 0 12 -7 27 -16 34 -8 8
-22 29 -30 49 -8 20 -23 45 -33 56 -10 11 -22 37 -25 57 -4 22 -15 42 -26 48
-11 6 -20 15 -20 21 0 5 -11 26 -24 47 -14 20 -28 50 -32 67 -4 16 -31 62 -61
102 -29 39 -53 82 -53 95 -1 13 -14 39 -30 58 -17 19 -30 41 -30 50 0 9 -25
47 -55 85 -30 38 -55 76 -55 85 0 8 -12 33 -25 55 -14 22 -25 47 -25 56 0 9
-8 24 -19 33 -10 9 -24 37 -31 62 -7 24 -16 46 -20 49 -8 5 -65 121 -74 151
-4 12 -29 47 -56 78 -28 32 -50 65 -50 74 0 9 -12 35 -25 57 -19 30 -25 54
-25 98 0 34 -8 78 -19 105 -11 26 -22 75 -25 110 -4 41 -15 78 -31 106 -14 25
-25 58 -25 80 0 20 -12 60 -26 88 l-26 52 7 216 c6 186 9 219 26 246 18 30 19
55 19 437 l0 405 -24 29 c-12 15 -27 42 -33 58 -7 21 -17 31 -34 33 -13 2 -34
14 -45 26 -20 21 -30 22 -137 22 -106 -1 -117 -3 -140 -24 -17 -16 -41 -25
-81 -29 l-56 -6 35 37 c83 88 37 206 -81 206 -35 0 -47 -6 -73 -35z m-2494
-654 c87 -95 113 -142 120 -219 5 -55 4 -61 -27 -95 -18 -20 -38 -37 -45 -37
-8 0 -27 -14 -44 -30 -25 -25 -86 -60 -105 -60 -23 0 -36 131 -40 420 -1 52
24 100 52 100 9 0 49 -36 89 -79z m2939 -78 c4 -15 -1 -49 -11 -82 -10 -31
-19 -88 -20 -127 -2 -39 -8 -80 -14 -92 -6 -11 -11 -35 -11 -53 0 -27 -12
-112 -26 -186 -3 -16 -11 -23 -27 -23 -30 0 -49 21 -131 147 l-66 102 0 75 c0
75 0 75 36 103 20 15 68 55 106 88 98 84 118 96 140 84 10 -5 21 -21 24 -36z
m-770 -572 c142 -43 240 -145 289 -302 23 -75 25 -90 15 -129 -7 -25 -15 -73
-19 -106 -6 -44 -19 -79 -44 -121 -44 -72 -57 -84 -132 -123 -54 -27 -69 -30
-153 -30 -127 0 -229 34 -315 105 -86 72 -113 115 -132 210 -23 121 3 234 85
362 82 131 243 184 406 134z m-1433 -31 c72 -17 143 -57 176 -99 135 -174 159
-390 60 -538 -28 -41 -122 -130 -166 -156 -32 -19 -148 -28 -223 -17 -83 13
-192 60 -252 110 -46 39 -100 149 -123 253 -16 73 -16 83 0 172 9 52 21 98 26
101 5 3 19 25 30 49 24 51 105 112 172 129 55 14 232 12 300 -4z"/>
<path d="M2852 6541 c-34 -35 -69 -87 -94 -140 -38 -79 -40 -87 -33 -145 12
-112 73 -213 160 -265 30 -18 169 -51 216 -51 41 0 142 40 171 67 37 35 58
101 69 208 7 84 6 95 -18 159 -36 96 -86 144 -189 183 -52 20 -105 32 -154 36
l-75 5 -53 -57z"/>
<path d="M1425 6540 c-16 -11 -48 -25 -71 -31 -39 -10 -42 -14 -67 -79 -21
-52 -27 -85 -27 -145 0 -167 60 -274 188 -337 60 -30 77 -33 169 -36 122 -4
150 8 213 92 58 78 70 115 70 222 0 150 -51 252 -155 307 -34 18 -60 22 -165
24 -111 2 -128 0 -155 -17z"/>
</g>
</svg>
