<?xml version="1.0" standalone="no"?>
<!DOCTYPE svg PUBLIC "-//W3C//DTD SVG 20010904//EN"
 "http://www.w3.org/TR/2001/REC-SVG-20010904/DTD/svg10.dtd">
<svg version="1.0" xmlns="http://www.w3.org/2000/svg"
 width="704.000000pt" height="1280.000000pt" viewBox="0 0 704.000000 1280.000000"
 preserveAspectRatio="xMidYMid meet">
<metadata>
Created by potrace 1.16, written by Peter Selinger 2001-2019
</metadata>
<g transform="translate(0.000000,1280.000000) scale(0.100000,-0.100000)"
fill="#000000" stroke="none">
<path d="M4605 10560 c-287 -29 -362 -43 -590 -112 -503 -152 -883 -485 -987
-865 -31 -114 -31 -327 0 -436 119 -418 519 -749 1086 -897 246 -64 459 -85
770 -77 404 11 694 76 1001 226 218 107 386 237 509 395 226 289 271 626 126
941 -193 417 -705 724 -1355 810 -144 20 -436 27 -560 15z m555 -176 c240 -30
497 -109 692 -211 535 -281 725 -748 481 -1183 -94 -167 -304 -348 -532 -457
-285 -137 -610 -203 -999 -203 -294 0 -470 22 -691 86 -589 171 -941 525 -941
944 0 216 84 404 256 572 265 259 678 424 1169 468 128 11 417 3 565 -16z"/>
<path d="M4235 9937 c-96 -32 -168 -98 -211 -192 -134 -291 60 -607 605 -985
98 -68 82 -71 228 31 294 205 497 421 575 613 49 119 47 227 -6 340 -76 165
-234 235 -431 191 -73 -16 -81 -20 -150 -86 -41 -40 -82 -89 -94 -114 -12 -25
-25 -45 -29 -45 -4 0 -13 15 -20 33 -21 59 -116 153 -190 189 -56 27 -81 32
-152 35 -52 2 -101 -2 -125 -10z m90 -127 c25 -27 12 -59 -38 -95 -23 -17 -57
-54 -76 -83 -35 -55 -59 -64 -93 -38 -31 23 -15 115 28 168 50 64 143 88 179
48z"/>
<path d="M3785 8311 c-90 -23 -146 -83 -153 -166 -12 -144 129 -245 260 -187
68 30 125 120 113 178 -3 13 -7 35 -10 49 -6 30 -59 91 -94 109 -37 19 -81 25
-116 17z m93 -91 c11 0 42 -71 42 -97 0 -39 -40 -89 -79 -98 -61 -13 -131 43
-131 105 0 66 69 117 135 98 16 -4 31 -8 33 -8z"/>
<path d="M3468 7973 c-34 -36 -51 -80 -43 -113 4 -14 23 -42 43 -62 26 -28 31
-38 19 -38 -9 0 -21 -8 -26 -19 -6 -11 -27 -22 -48 -26 -21 -4 -46 -13 -55
-22 -9 -8 -40 -17 -69 -20 -36 -3 -63 -13 -82 -29 -16 -13 -37 -24 -48 -24
-10 0 -29 -11 -41 -25 -12 -14 -37 -28 -57 -31 -20 -4 -46 -18 -58 -30 -31
-34 -75 -31 -115 6 l-31 30 -179 0 c-178 0 -178 0 -200 25 l-22 25 -474 0
-474 0 -20 25 c-14 17 -29 25 -52 25 -19 0 -46 10 -66 25 -19 14 -39 25 -46
25 -7 0 -26 11 -42 25 -17 14 -41 25 -55 25 -16 0 -33 12 -51 35 -18 23 -35
35 -51 35 -16 0 -28 9 -37 28 l-13 27 -155 2 c-214 2 -234 -1 -262 -40 -22
-31 -23 -40 -23 -234 l0 -201 -28 -22 c-24 -19 -28 -28 -25 -64 2 -31 8 -43
24 -50 20 -9 22 -19 27 -130 3 -67 5 -137 5 -156 0 -19 1 -46 1 -60 1 -14 -1
-72 -5 -130 -6 -98 -8 -106 -35 -131 -25 -23 -29 -35 -29 -78 0 -40 -5 -55
-25 -75 -23 -23 -25 -33 -25 -109 0 -70 -3 -87 -19 -101 -16 -15 -20 -35 -23
-146 -3 -125 -4 -130 -30 -157 l-28 -29 0 -233 0 -232 -27 -25 c-22 -21 -26
-32 -25 -77 1 -42 -4 -57 -23 -77 -15 -16 -25 -40 -27 -65 -3 -33 -9 -43 -43
-66 -41 -28 -59 -53 -69 -99 -3 -14 -23 -46 -46 -70 -22 -25 -40 -49 -40 -54
0 -5 -22 -38 -49 -75 -26 -36 -53 -76 -60 -88 -8 -16 -11 -404 -11 -1447 l0
-1426 38 -24 c21 -13 51 -40 66 -59 16 -20 40 -38 55 -42 14 -3 37 -17 51 -29
16 -15 42 -25 73 -29 34 -3 57 -13 76 -31 15 -15 39 -26 53 -26 16 0 33 -9 42
-21 11 -16 28 -22 73 -26 38 -3 65 -12 79 -24 17 -16 46 -20 225 -29 265 -13
2475 -13 2772 0 205 9 232 12 254 30 23 18 41 20 153 20 119 0 129 1 152 23
21 20 41 25 109 31 65 5 89 12 106 28 19 18 37 22 99 24 59 2 83 7 104 22 17
13 57 25 105 31 43 6 92 20 109 30 17 10 55 21 85 24 34 4 62 14 76 27 11 11
42 24 68 29 26 5 55 15 65 23 21 18 127 58 153 58 11 0 32 13 47 29 15 16 41
36 58 44 17 9 36 23 43 31 8 9 22 16 33 16 10 0 29 6 41 14 14 9 71 18 155 24
103 7 137 14 152 27 11 10 41 21 67 26 26 5 57 18 69 30 12 11 52 27 88 36 76
17 196 85 326 184 88 68 240 214 240 232 0 6 8 19 17 29 21 23 57 81 78 125 8
17 26 48 40 69 14 20 25 43 25 51 0 8 11 29 25 47 14 18 28 48 31 67 4 19 15
50 25 71 10 20 21 56 25 80 3 23 17 92 31 152 24 100 25 121 20 270 -4 139 -8
167 -27 205 -16 32 -23 69 -27 140 -4 73 -11 107 -29 141 -33 64 -84 177 -84
186 0 4 -11 21 -24 39 -13 17 -31 47 -39 67 -16 37 -145 172 -226 237 -110 86
-252 135 -396 135 -100 1 -138 -11 -227 -68 -76 -48 -114 -94 -122 -149 -4
-24 -13 -53 -21 -63 -8 -11 -15 -38 -15 -62 0 -40 9 -65 53 -147 9 -16 23 -43
31 -60 8 -16 46 -61 86 -99 39 -38 80 -86 90 -106 11 -21 26 -40 34 -43 8 -3
25 -24 36 -47 11 -23 27 -43 35 -47 8 -3 20 -24 26 -46 6 -23 20 -54 31 -70
16 -22 19 -37 14 -70 -3 -23 -10 -76 -15 -117 -10 -85 -22 -120 -54 -161 -12
-15 -32 -40 -44 -56 -13 -15 -23 -34 -23 -41 0 -25 -63 -102 -114 -141 -46
-35 -159 -84 -227 -98 -44 -8 -69 12 -69 56 0 21 -7 58 -15 81 -9 26 -15 78
-15 131 0 75 -3 92 -20 109 -11 11 -26 36 -34 55 -9 20 -22 43 -31 51 -8 9
-15 26 -15 39 0 13 -10 36 -23 52 -35 44 -67 108 -67 136 0 14 -12 39 -27 56
-77 85 -83 94 -83 132 0 25 -6 42 -19 51 -10 7 -26 28 -36 47 -9 19 -30 45
-46 58 -16 14 -29 35 -29 47 0 12 -11 37 -25 56 -14 19 -25 40 -25 48 0 8 -11
27 -25 44 -14 16 -25 40 -25 53 0 13 -11 36 -24 52 -39 46 -86 126 -86 145 0
16 -25 55 -90 140 -11 14 -20 36 -20 48 0 12 -13 38 -30 57 -16 18 -30 42 -30
52 0 10 -22 46 -50 79 -27 34 -53 78 -59 97 -5 19 -17 42 -26 51 -9 9 -18 29
-21 44 -3 15 -17 40 -30 55 -13 16 -24 39 -24 53 0 13 -11 37 -25 54 -14 16
-25 38 -25 47 0 10 -9 29 -19 43 -11 13 -23 36 -26 49 -3 14 -28 51 -56 83
-27 32 -49 66 -49 77 0 11 -11 37 -25 57 -20 29 -25 49 -25 100 0 41 -6 75
-19 100 -10 20 -21 67 -24 104 -4 44 -15 84 -32 115 -14 26 -25 63 -25 81 0
18 -12 56 -26 83 l-25 51 6 217 c6 190 9 219 26 243 18 26 19 49 19 441 0 372
-2 416 -16 428 -9 8 -25 32 -34 55 -15 35 -24 43 -54 48 -19 4 -39 14 -44 23
-7 12 -32 16 -117 20 -101 4 -109 2 -139 -20 -20 -15 -51 -26 -88 -31 l-58 -6
35 32 c46 43 56 106 26 156 -38 59 -128 72 -173 25z m-2547 -605 c6 -13 40
-52 74 -88 66 -69 81 -101 92 -196 5 -47 3 -52 -29 -85 -38 -38 -102 -84 -155
-113 -59 -31 -63 -20 -69 205 -7 239 -7 248 12 276 19 30 60 30 75 1z m2983
-130 c7 -21 5 -43 -9 -85 -10 -32 -19 -92 -20 -133 -1 -42 -7 -85 -13 -97 -7
-12 -12 -37 -12 -55 0 -50 -27 -189 -38 -200 -6 -6 -18 -7 -28 -4 -20 7 -32
21 -124 161 l-60 90 0 82 c0 80 1 83 28 97 15 9 68 51 117 95 74 66 95 80 120
78 22 -1 32 -9 39 -29z m-2963 -528 c11 0 38 -17 62 -39 23 -21 58 -43 78 -50
56 -18 109 -89 109 -146 0 -35 15 -24 45 34 13 26 36 56 52 66 15 10 37 29 48
42 25 30 85 45 128 32 18 -5 58 -7 90 -3 65 7 177 -15 239 -47 20 -10 46 -19
57 -19 11 0 22 -9 26 -19 6 -18 7 -18 43 2 25 13 46 18 62 14 49 -13 55 -23
60 -102 5 -73 4 -75 -17 -75 -13 0 -23 5 -23 10 0 7 -6 7 -20 0 -18 -10 -18
-13 -5 -51 8 -23 15 -50 15 -61 0 -11 9 -22 20 -25 16 -4 20 -14 20 -44 0 -27
-4 -39 -14 -39 -10 0 -17 -16 -21 -47 -4 -27 -11 -61 -17 -78 -20 -54 -82
-132 -145 -182 -52 -42 -71 -51 -131 -62 -131 -23 -296 19 -395 102 -50 41
-107 149 -127 240 -7 31 -16 57 -20 57 -3 0 -21 -11 -40 -25 -18 -14 -50 -28
-69 -31 -20 -4 -47 -17 -61 -29 -37 -33 -64 -45 -105 -45 -44 0 -107 31 -128
63 -9 13 -29 27 -46 30 -43 9 -99 62 -112 108 -9 30 -9 48 0 80 7 23 9 54 5
72 -11 49 -6 87 18 125 26 42 73 72 113 72 19 0 40 11 61 31 31 30 85 51 112
43 8 -2 22 -4 33 -4z m2195 -48 c109 -38 228 -139 262 -222 29 -70 44 -141 39
-186 -16 -159 -27 -203 -66 -261 -49 -73 -64 -86 -134 -118 -48 -21 -73 -25
-148 -25 -233 0 -413 135 -449 337 -21 123 49 316 149 411 42 39 78 55 166 75
47 11 134 5 181 -11z"/>
<path d="M914 6536 c-35 -55 8 -166 65 -166 45 0 65 31 57 87 -8 62 -34 97
-74 101 -24 2 -34 -3 -48 -22z"/>
<path d="M1470 6554 c0 -3 11 -15 25 -26 18 -14 25 -29 25 -52 0 -49 -30 -71
-97 -71 -48 0 -58 4 -79 29 -14 15 -23 33 -21 40 6 16 35 8 58 -15 22 -22 57
-25 83 -6 45 33 -22 66 -108 53 -46 -7 -56 -19 -72 -89 -3 -15 -10 -30 -15
-33 -18 -11 -10 -178 12 -247 25 -79 40 -101 111 -153 69 -52 143 -74 250 -74
77 0 88 3 124 28 84 61 134 153 134 247 0 37 -4 65 -10 65 -5 0 -10 -13 -10
-30 0 -20 -5 -30 -15 -30 -13 0 -15 11 -13 63 2 37 7 60 13 57 6 -3 9 -13 9
-23 -2 -22 20 -17 24 6 4 22 -46 148 -69 172 -19 19 -19 19 -19 -23 0 -34 -3
-42 -19 -42 -15 0 -19 11 -25 62 -8 77 -30 98 -34 33 -6 -84 -89 -122 -151
-69 -33 28 -42 75 -21 115 10 18 7 19 -40 19 -27 0 -50 -3 -50 -6z"/>
<path d="M745 6495 c-27 -26 -30 -43 -15 -94 20 -70 78 -102 113 -63 33 36 12
148 -31 171 -30 16 -40 14 -67 -14z"/>
<path d="M2854 6542 c-28 -30 -70 -92 -94 -138 -40 -77 -42 -87 -36 -136 14
-107 43 -173 99 -223 68 -62 87 -71 199 -91 94 -17 96 -16 161 5 110 37 154
115 158 282 2 88 0 98 -30 161 -58 119 -165 178 -341 191 l-65 4 -51 -55z"/>
</g>
</svg>
