<?xml version="1.0" standalone="no"?>
<!DOCTYPE svg PUBLIC "-//W3C//DTD SVG 20010904//EN"
 "http://www.w3.org/TR/2001/REC-SVG-20010904/DTD/svg10.dtd">
<svg version="1.0" xmlns="http://www.w3.org/2000/svg"
 width="704.000000pt" height="1280.000000pt" viewBox="0 0 704.000000 1280.000000"
 preserveAspectRatio="xMidYMid meet">
<metadata>
Created by potrace 1.16, written by Peter Selinger 2001-2019
</metadata>
<g transform="translate(0.000000,1280.000000) scale(0.100000,-0.100000)"
fill="#000000" stroke="none">
<path d="M4550 10554 c-373 -36 -681 -128 -930 -277 -323 -194 -513 -416 -592
-692 -32 -115 -32 -324 2 -444 140 -505 707 -877 1460 -957 288 -30 673 -9
935 51 479 110 852 350 1044 670 63 104 85 156 110 257 30 126 34 200 17 314
-25 167 -70 278 -171 419 -77 108 -150 182 -273 275 -296 223 -678 353 -1141
390 -169 13 -289 11 -461 -6z m465 -155 c387 -33 708 -133 971 -304 104 -68
258 -215 319 -306 130 -194 169 -438 101 -638 -148 -430 -638 -733 -1316 -812
-188 -21 -535 -11 -740 22 -348 56 -704 216 -904 407 -236 227 -329 517 -250
788 42 146 101 242 223 365 206 205 443 330 796 418 236 58 548 82 800 60z"/>
<path d="M4314 9904 c-85 -14 -123 -33 -175 -86 -84 -87 -126 -234 -99 -349
30 -127 128 -271 286 -418 153 -143 371 -297 407 -287 29 8 169 108 286 204
169 139 313 312 356 427 56 149 28 317 -70 416 -67 68 -123 92 -227 97 -80 4
-92 2 -150 -25 -84 -40 -128 -79 -167 -153 -18 -33 -34 -60 -36 -60 -3 0 -14
18 -25 39 -27 54 -111 136 -169 165 -69 36 -133 44 -217 30z m44 -127 c18 -19
7 -41 -44 -82 -24 -20 -58 -56 -74 -81 -33 -47 -49 -53 -75 -28 -24 25 -11
109 24 153 44 55 131 75 169 38z"/>
<path d="M3772 8310 c-43 -10 -100 -56 -124 -100 -45 -82 -1 -211 85 -251 139
-63 294 52 268 197 -13 69 -55 120 -123 148 -40 17 -55 18 -106 6z m119 -109
c81 -81 -18 -219 -119 -167 -60 31 -79 90 -45 146 34 58 116 68 164 21z"/>
<path d="M3467 7970 c-19 -17 -37 -44 -41 -61 -7 -39 16 -97 52 -126 19 -16
22 -23 11 -23 -9 0 -24 -9 -34 -20 -10 -11 -25 -20 -34 -20 -9 0 -31 -9 -50
-21 -19 -11 -56 -22 -83 -25 -34 -2 -59 -12 -80 -29 -16 -14 -38 -25 -49 -25
-11 0 -30 -11 -42 -24 -12 -13 -40 -29 -61 -34 -21 -6 -47 -19 -58 -29 -30
-27 -95 -24 -118 7 -19 25 -21 25 -187 28 -186 3 -213 6 -213 26 0 8 -7 17
-16 20 -9 3 -226 6 -483 6 l-467 0 -22 25 c-15 17 -32 25 -55 25 -20 0 -47 10
-67 25 -19 14 -38 25 -43 25 -5 0 -22 11 -39 25 -16 14 -41 25 -56 25 -17 0
-37 12 -58 35 -17 19 -41 35 -53 35 -13 0 -25 9 -30 24 -9 23 -13 23 -188 30
-195 8 -219 4 -248 -41 -17 -25 -19 -49 -20 -226 l0 -199 -27 -20 c-39 -28
-40 -93 -1 -123 l26 -22 1 -278 c0 -264 -1 -278 -20 -291 -40 -28 -44 -36 -44
-88 0 -44 -4 -57 -26 -77 -22 -20 -25 -31 -23 -74 4 -88 0 -114 -23 -134 -20
-19 -21 -29 -19 -151 l2 -131 -31 -27 -30 -26 0 -232 0 -232 -25 -30 c-20 -24
-25 -41 -25 -86 0 -45 -4 -57 -20 -66 -12 -7 -22 -25 -26 -50 -7 -46 -14 -55
-70 -98 -33 -25 -42 -40 -47 -71 -3 -28 -16 -52 -46 -82 -23 -24 -41 -49 -41
-56 0 -8 -17 -32 -39 -56 -21 -23 -48 -61 -60 -84 l-21 -42 0 -1425 0 -1425
22 -12 c12 -7 46 -36 75 -65 29 -30 61 -54 71 -54 10 0 28 -11 40 -25 18 -20
31 -25 70 -25 41 0 53 -5 77 -30 16 -17 39 -30 52 -30 13 0 34 -11 47 -25 19
-21 33 -25 77 -25 39 0 58 -5 74 -20 39 -37 315 -42 1775 -36 734 3 1363 8
1397 11 45 3 69 11 83 25 17 17 34 20 123 21 56 1 113 0 127 0 14 -1 40 10 59
24 29 21 46 25 102 25 53 0 73 5 101 23 25 18 55 26 114 31 59 5 85 12 101 27
15 15 39 22 85 25 85 7 104 11 122 30 9 8 46 20 84 25 46 7 72 15 82 29 8 10
33 22 55 25 22 4 51 15 65 24 34 23 136 61 166 61 14 0 32 11 46 30 12 17 27
30 33 30 6 0 26 13 45 30 19 16 45 29 58 30 12 0 33 6 45 14 13 8 72 18 144
24 95 8 130 15 156 31 19 12 50 21 70 21 23 0 41 7 49 18 18 24 53 39 120 52
32 6 60 16 64 21 3 5 24 19 47 30 142 72 391 283 437 371 11 20 23 38 28 40 5
1 26 35 47 73 21 39 49 83 62 98 13 16 23 37 23 47 0 10 10 31 23 47 13 15 29
54 36 86 7 31 16 57 21 57 11 0 30 65 30 103 0 15 12 76 26 135 24 99 26 120
22 267 -4 127 -9 167 -23 194 -9 19 -23 84 -31 145 -7 61 -20 125 -28 141 -8
17 -30 64 -50 105 -20 41 -36 79 -36 83 0 5 -13 25 -29 45 -16 20 -31 49 -35
64 -8 34 -175 203 -253 256 -86 58 -129 77 -228 102 -175 44 -305 14 -426 -97
-50 -47 -59 -60 -65 -101 -3 -26 -12 -57 -20 -69 -8 -12 -14 -36 -14 -52 0
-39 42 -150 74 -198 14 -21 26 -41 26 -45 0 -4 26 -31 57 -60 31 -29 67 -63
80 -75 13 -12 23 -28 23 -36 0 -8 15 -30 33 -50 64 -72 89 -107 99 -144 6 -21
19 -51 30 -66 17 -23 19 -37 14 -75 -4 -26 -10 -82 -15 -124 -7 -69 -13 -85
-52 -140 -24 -35 -49 -69 -57 -77 -7 -7 -15 -25 -18 -40 -6 -29 -58 -88 -120
-136 -37 -29 -160 -81 -217 -92 -38 -7 -67 20 -67 63 0 18 -5 45 -12 61 -6 15
-14 75 -17 133 -6 91 -9 108 -29 128 -12 12 -22 30 -22 40 0 10 -11 29 -25 42
-15 14 -25 35 -25 52 0 16 -18 55 -45 95 -28 41 -45 78 -45 96 0 18 -10 40
-27 57 -62 63 -83 98 -83 134 0 27 -6 39 -24 51 -14 9 -29 29 -35 46 -5 16
-21 40 -35 53 -13 14 -27 39 -31 55 -3 16 -13 35 -21 42 -8 7 -21 27 -29 45
-8 19 -23 43 -33 54 -11 12 -22 37 -25 55 -3 19 -17 47 -31 62 -14 15 -42 59
-62 98 -57 112 -83 158 -104 180 -11 12 -20 33 -20 47 0 14 -13 42 -30 63 -16
21 -30 44 -30 52 0 13 -14 32 -87 121 -13 15 -23 36 -23 47 0 11 -12 38 -25
60 -14 22 -25 46 -25 53 0 8 -9 21 -20 30 -11 10 -23 31 -26 47 -3 17 -13 41
-22 55 -26 38 -68 124 -75 152 -4 13 -29 50 -57 82 -27 31 -50 66 -50 77 0 11
-11 37 -25 57 -20 30 -25 49 -25 102 0 40 -6 76 -16 95 -9 17 -20 62 -25 102
-5 44 -18 90 -33 120 -15 26 -26 63 -26 81 0 18 -10 52 -22 75 -22 40 -23 52
-22 265 1 212 2 224 22 252 22 29 22 35 22 443 0 406 0 414 -21 436 -12 12
-25 38 -30 57 -8 26 -15 34 -33 34 -12 0 -37 11 -56 25 -30 22 -43 25 -128 25
-92 0 -126 -9 -148 -38 -7 -10 -33 -17 -75 -19 l-64 -4 29 22 c33 26 56 75 56
120 0 22 -10 41 -34 65 -29 29 -41 34 -80 34 -36 0 -52 -6 -79 -30z m-2534
-618 c14 -20 47 -60 75 -87 33 -34 54 -65 63 -95 16 -55 16 -145 -1 -165 -23
-28 -176 -125 -198 -125 -29 0 -33 18 -39 198 -11 271 -10 272 20 298 33 28
48 24 80 -24z m2971 -114 c7 -19 5 -42 -7 -80 -9 -29 -21 -96 -27 -148 -6 -52
-15 -120 -20 -150 -4 -30 -11 -75 -15 -100 -12 -87 -14 -90 -41 -90 -28 0 -78
46 -89 81 -4 11 -31 57 -61 101 -34 52 -52 88 -50 102 3 11 5 44 5 72 l1 50
67 50 c38 27 86 66 108 87 66 64 112 73 129 25z m-2893 -548 c43 -12 86 -55
102 -102 7 -19 31 -56 54 -81 l41 -47 31 55 c17 30 36 55 41 55 6 0 28 18 50
40 l38 39 124 -1 c131 0 238 -18 300 -49 21 -11 47 -19 59 -19 12 0 23 -8 26
-19 4 -18 6 -18 42 2 24 13 45 18 61 14 49 -13 55 -23 60 -102 5 -73 4 -75
-17 -75 -13 0 -23 5 -23 10 0 7 -6 7 -19 0 -19 -10 -19 -13 -6 -58 8 -26 15
-60 16 -77 0 -16 3 -24 6 -17 2 6 11 12 19 12 22 0 19 -78 -3 -82 -11 -2 -17
-16 -20 -48 -7 -78 -47 -147 -130 -227 -50 -48 -88 -76 -112 -82 -160 -42
-344 1 -457 106 -23 21 -54 64 -69 96 -26 56 -65 199 -65 239 0 17 -2 18 -15
8 -8 -7 -15 -22 -15 -35 0 -37 -42 -89 -93 -114 -42 -21 -52 -22 -92 -12 -32
8 -51 8 -65 1 -27 -15 -97 -12 -129 5 -37 19 -81 71 -81 96 0 11 -18 39 -41
63 -69 76 -73 160 -10 222 15 16 31 44 34 62 16 81 94 130 189 118 30 -4 65
-2 78 3 33 13 48 13 91 1z m2126 -31 c127 -42 260 -165 277 -254 3 -16 12 -54
21 -84 13 -48 13 -61 0 -112 -8 -31 -15 -72 -15 -90 0 -39 -39 -121 -83 -174
-19 -23 -55 -48 -95 -66 -56 -25 -76 -29 -157 -29 -92 0 -118 6 -234 57 -51
21 -139 100 -168 151 -39 66 -54 168 -38 259 17 100 84 232 141 279 100 81
229 105 351 63z"/>
<path d="M914 6536 c-35 -55 8 -166 65 -166 45 0 65 31 57 87 -8 62 -34 97
-74 101 -24 2 -34 -3 -48 -22z"/>
<path d="M1470 6554 c0 -3 11 -15 25 -26 18 -14 25 -29 25 -52 0 -49 -30 -71
-97 -71 -48 0 -58 4 -79 28 -13 15 -24 32 -24 38 0 16 39 10 60 -11 23 -23 58
-26 84 -7 45 33 -22 66 -108 53 -45 -7 -45 -7 -72 -78 -24 -63 -26 -79 -22
-167 7 -137 34 -200 112 -263 78 -62 154 -88 263 -88 54 0 94 5 112 15 37 19
106 101 131 156 21 47 28 169 10 169 -5 0 -10 -13 -10 -30 0 -20 -5 -30 -15
-30 -12 0 -14 12 -12 58 2 31 8 57 13 58 5 0 8 -8 6 -19 -2 -12 1 -18 10 -15
24 8 19 43 -15 123 -39 91 -57 106 -57 46 0 -33 -4 -41 -19 -41 -15 0 -19 11
-25 62 -8 77 -30 98 -34 33 -6 -84 -89 -122 -151 -69 -33 28 -42 75 -21 115
10 18 7 19 -40 19 -27 0 -50 -3 -50 -6z"/>
<path d="M745 6495 c-27 -26 -30 -43 -15 -94 20 -70 78 -102 113 -63 36 39 10
154 -38 172 -35 13 -32 14 -60 -15z"/>
<path d="M2854 6542 c-30 -31 -71 -91 -92 -132 -32 -64 -37 -83 -35 -138 1
-73 36 -177 67 -206 92 -83 115 -94 238 -117 61 -11 73 -11 140 9 120 37 152
86 168 261 8 89 7 98 -18 160 -48 121 -152 193 -294 207 -29 3 -68 7 -87 9
-30 4 -39 -2 -87 -53z"/>
</g>
</svg>
