<?xml version="1.0" standalone="no"?>
<!DOCTYPE svg PUBLIC "-//W3C//DTD SVG 20010904//EN"
 "http://www.w3.org/TR/2001/REC-SVG-20010904/DTD/svg10.dtd">
<svg version="1.0" xmlns="http://www.w3.org/2000/svg"
 width="704.000000pt" height="1280.000000pt" viewBox="0 0 704.000000 1280.000000"
 preserveAspectRatio="xMidYMid meet">
<metadata>
Created by potrace 1.16, written by Peter Selinger 2001-2019
</metadata>
<g transform="translate(0.000000,1280.000000) scale(0.100000,-0.100000)"
fill="#000000" stroke="none">
<path d="M665 7865 l-32 -36 5 -193 5 -194 -27 -26 c-15 -16 -29 -43 -32 -67
-6 -37 -4 -43 22 -64 l28 -23 0 -271 0 -271 -32 -30 c-28 -26 -32 -35 -32 -83
0 -44 -4 -58 -25 -77 -23 -21 -25 -31 -25 -106 0 -73 -3 -86 -22 -104 -21 -20
-23 -28 -21 -143 1 -125 -8 -168 -42 -180 -13 -6 -15 -39 -15 -241 l0 -235
-29 -33 c-25 -29 -28 -39 -24 -78 4 -38 1 -49 -21 -73 -16 -17 -26 -40 -26
-58 0 -22 -9 -38 -32 -57 -63 -54 -78 -72 -78 -96 0 -14 -21 -53 -50 -91 -27
-36 -50 -68 -50 -71 0 -3 -17 -26 -39 -52 -78 -94 -71 52 -71 -1529 l0 -1417
58 -56 c31 -31 63 -64 70 -73 7 -9 23 -17 36 -17 12 0 33 -11 46 -25 18 -19
34 -25 66 -25 34 0 51 -7 77 -30 19 -16 46 -30 59 -30 14 0 34 -11 46 -25 18
-21 31 -25 77 -25 39 0 57 -4 61 -15 16 -40 12 -40 1651 -40 l1571 0 34 25
c30 23 44 25 166 30 117 4 135 7 148 24 11 16 30 21 98 25 64 5 91 11 113 27
20 15 51 23 107 28 52 5 87 13 105 26 16 12 56 23 104 29 50 6 86 16 98 27 12
11 46 21 85 26 48 5 74 14 95 33 17 14 43 25 59 25 16 0 41 11 57 24 15 12 39
26 53 29 84 20 123 36 148 60 15 15 33 27 39 27 6 0 24 11 40 24 15 13 45 29
65 35 21 7 40 16 43 21 3 4 49 11 103 15 147 9 162 12 181 29 10 9 42 20 70
25 31 5 61 17 76 31 14 13 50 28 91 36 37 8 72 18 78 23 6 5 29 19 51 31 100
55 267 184 371 288 50 50 67 72 103 141 7 14 22 35 32 46 10 11 25 36 33 56 8
20 22 41 30 48 8 7 20 29 27 49 7 20 18 42 25 47 6 6 20 37 29 70 9 33 25 76
36 97 10 20 19 53 19 72 0 18 12 78 26 132 24 91 25 112 22 264 -4 137 -8 173
-25 215 -11 28 -25 95 -31 150 -7 64 -18 114 -31 140 -12 21 -21 45 -21 52 0
7 -13 34 -30 60 -16 26 -30 55 -30 64 0 10 -10 30 -23 46 -13 15 -29 43 -37
62 -7 18 -57 77 -109 130 -139 141 -211 186 -366 228 -73 20 -106 24 -177 21
-47 -2 -92 -9 -100 -15 -7 -6 -24 -14 -37 -18 -30 -9 -134 -88 -160 -121 -11
-15 -23 -42 -26 -63 -4 -20 -13 -48 -21 -63 -8 -14 -14 -40 -14 -56 0 -31 41
-140 76 -201 25 -45 100 -131 135 -156 16 -11 33 -32 39 -46 6 -14 26 -42 43
-62 68 -77 89 -108 99 -143 5 -21 19 -50 30 -65 15 -20 19 -37 15 -66 -3 -21
-11 -78 -17 -128 -12 -95 -23 -119 -94 -203 -20 -24 -36 -54 -36 -66 0 -41
-149 -171 -208 -182 -20 -4 -54 -15 -74 -25 -45 -23 -67 -24 -96 -3 -15 11
-22 25 -22 50 0 19 -7 51 -15 71 -8 19 -17 78 -20 130 -3 75 -8 99 -25 120
-11 14 -20 31 -20 37 0 6 -11 28 -25 48 -14 20 -25 48 -25 62 0 15 -9 35 -19
45 -26 26 -71 111 -71 134 0 11 -10 32 -23 47 -63 80 -87 119 -87 143 0 35
-10 57 -25 57 -8 0 -17 9 -20 20 -4 11 -24 41 -46 66 -21 25 -39 54 -39 65 0
11 -8 32 -18 47 -10 15 -33 48 -50 74 -18 26 -35 62 -38 80 -4 18 -16 44 -28
58 -41 46 -76 106 -76 127 0 12 -10 34 -23 50 -37 46 -87 129 -87 145 0 8 -14
32 -30 53 -17 21 -30 45 -30 53 0 9 -25 48 -55 87 -30 40 -55 82 -55 93 0 11
-6 27 -13 34 -7 7 -19 29 -27 48 -8 19 -25 50 -37 69 -13 19 -23 43 -23 53 0
11 -11 33 -25 50 -14 16 -25 36 -25 44 0 9 -11 30 -25 48 -14 18 -25 41 -25
52 0 10 -23 45 -50 77 -28 32 -50 66 -50 75 0 9 -11 35 -25 57 -19 32 -24 54
-25 105 0 46 -6 77 -20 103 -13 23 -20 56 -20 89 0 38 -9 70 -30 113 -16 33
-30 75 -30 94 0 18 -10 50 -22 70 -22 35 -23 42 -20 270 3 211 5 235 22 260
18 24 19 47 21 316 2 505 1 531 -18 551 -10 9 -27 36 -38 58 -14 29 -27 42
-45 44 -13 2 -34 12 -46 21 -17 13 -45 17 -129 19 -103 2 -109 1 -133 -23 -23
-23 -31 -25 -124 -25 -92 0 -102 -2 -130 -25 -16 -14 -38 -25 -47 -25 -10 0
-35 -11 -55 -25 -25 -17 -51 -25 -80 -25 -29 0 -52 -8 -76 -25 -19 -14 -44
-25 -56 -25 -12 0 -31 -11 -41 -24 -11 -13 -33 -27 -50 -30 -18 -4 -43 -16
-57 -27 -14 -11 -40 -23 -58 -26 -28 -4 -38 0 -61 26 l-27 31 -180 0 c-180 0
-180 0 -202 25 l-22 25 -471 0 -472 0 -23 25 c-16 17 -34 25 -58 25 -22 0 -45
9 -64 25 -16 14 -37 25 -47 25 -10 0 -28 11 -41 25 -13 14 -34 25 -48 25 -14
0 -36 13 -52 30 -15 16 -38 31 -51 33 -13 2 -30 15 -36 29 -12 23 -19 25 -104
31 -51 4 -137 7 -192 7 l-99 0 -33 -35z m265 -506 c6 -11 37 -49 69 -84 89
-98 113 -211 60 -279 -11 -14 -25 -26 -31 -26 -6 0 -34 -17 -62 -39 -76 -58
-92 -64 -110 -45 -9 8 -17 34 -18 57 -17 429 -18 404 15 433 31 27 57 21 77
-17z m2969 -114 c12 -24 11 -37 -3 -95 -9 -38 -16 -91 -16 -118 0 -28 -5 -63
-11 -79 -6 -15 -15 -62 -20 -103 -6 -41 -12 -96 -16 -122 -3 -26 -11 -52 -17
-57 -16 -13 -69 19 -92 56 -10 15 -42 65 -71 109 -53 81 -53 81 -53 162 0 73
2 82 22 93 28 15 128 95 149 119 24 28 91 71 103 67 6 -2 17 -16 25 -32z
m-2990 -555 c24 -11 65 -20 91 -20 83 0 150 -67 150 -151 0 -37 30 -77 49 -65
5 3 19 26 31 51 12 25 32 50 43 56 12 6 38 29 58 50 l37 39 143 -4 c150 -4
279 -27 300 -52 6 -8 23 -14 36 -14 16 0 27 -7 30 -19 4 -18 6 -18 42 2 24 13
45 18 61 14 49 -13 55 -23 60 -102 5 -73 4 -75 -17 -75 -13 0 -23 5 -23 10 0
7 -6 7 -18 1 -17 -9 -17 -13 -3 -75 12 -50 20 -66 34 -66 13 0 17 -9 17 -39 0
-31 -4 -40 -21 -44 -12 -3 -19 -9 -16 -14 3 -4 1 -33 -4 -63 -13 -73 -77 -167
-152 -226 -70 -54 -83 -59 -167 -68 -175 -18 -401 90 -440 210 -7 22 -19 48
-25 59 -7 11 -18 45 -25 75 -21 96 -17 90 -52 76 -17 -8 -36 -26 -43 -42 -34
-79 -121 -113 -208 -81 -23 8 -66 17 -95 20 -32 2 -64 12 -80 24 -37 27 -72
91 -72 132 0 21 -9 44 -25 63 -19 23 -25 41 -25 79 0 63 18 98 68 133 22 15
46 41 52 57 14 32 48 60 95 77 44 15 65 14 114 -8z m2227 -27 c27 -9 81 -37
119 -63 86 -58 135 -127 171 -242 25 -79 25 -82 10 -144 -9 -35 -16 -80 -16
-102 0 -25 -10 -54 -30 -85 -16 -26 -30 -51 -30 -55 0 -19 -70 -73 -123 -96
-130 -58 -338 -21 -462 81 -78 64 -113 122 -132 216 -11 57 -11 85 -2 137 12
72 61 182 108 247 74 101 254 151 387 106z"/>
<path d="M914 6536 c-35 -55 8 -166 65 -166 45 0 65 31 57 87 -8 62 -34 97
-74 101 -24 2 -34 -3 -48 -22z"/>
<path d="M1488 6534 c24 -19 32 -33 32 -58 0 -49 -30 -71 -97 -71 -48 0 -58 4
-79 29 -14 15 -23 33 -21 40 6 16 35 8 58 -15 21 -21 50 -24 80 -9 48 26 5 60
-77 60 -34 0 -51 -6 -69 -25 -14 -13 -25 -31 -25 -40 0 -9 -6 -26 -14 -38 -24
-38 -29 -116 -11 -201 25 -118 40 -149 104 -205 77 -66 150 -91 268 -91 77 0
93 3 125 25 40 27 101 105 123 159 17 40 20 156 5 156 -5 0 -10 -13 -10 -30 0
-20 -5 -30 -15 -30 -12 0 -14 12 -12 60 1 37 6 60 14 60 6 0 9 -9 6 -21 -4
-16 -2 -20 8 -17 24 8 20 40 -14 122 -38 92 -57 108 -57 47 0 -33 -4 -41 -19
-41 -15 0 -19 10 -24 57 -3 31 -13 63 -21 72 -15 14 -16 11 -16 -31 0 -39 -5
-50 -31 -72 -17 -15 -43 -26 -59 -26 -44 0 -90 44 -90 87 0 19 5 43 10 54 10
18 7 19 -47 19 l-58 0 33 -26z"/>
<path d="M745 6495 c-27 -26 -30 -43 -15 -94 20 -70 78 -102 113 -63 36 39 10
154 -38 172 -35 13 -32 14 -60 -15z"/>
<path d="M2906 6590 c-25 -9 -112 -112 -138 -165 -45 -89 -51 -119 -39 -189
17 -95 44 -148 103 -200 59 -51 103 -69 210 -87 67 -11 79 -10 144 10 52 16
77 30 92 51 37 50 61 138 64 235 2 84 0 95 -31 158 -35 73 -107 142 -159 153
-15 3 -38 10 -52 16 -30 12 -173 26 -194 18z"/>
</g>
</svg>
