<?xml version="1.0" standalone="no"?>
<!DOCTYPE svg PUBLIC "-//W3C//DTD SVG 20010904//EN"
 "http://www.w3.org/TR/2001/REC-SVG-20010904/DTD/svg10.dtd">
<svg version="1.0" xmlns="http://www.w3.org/2000/svg"
 width="704.000000pt" height="1280.000000pt" viewBox="0 0 704.000000 1280.000000"
 preserveAspectRatio="xMidYMid meet">
<metadata>
Created by potrace 1.16, written by Peter Selinger 2001-2019
</metadata>
<g transform="translate(0.000000,1280.000000) scale(0.100000,-0.100000)"
fill="#000000" stroke="none">
<path d="M4600 10559 c-334 -27 -591 -92 -846 -214 -184 -88 -318 -179 -445
-305 -156 -155 -234 -284 -281 -463 -32 -121 -31 -320 1 -436 44 -153 143
-322 259 -439 266 -268 631 -436 1102 -509 162 -25 644 -25 808 0 429 65 755
198 1013 413 219 183 355 414 389 662 34 252 -70 532 -280 755 -80 86 -242
208 -363 276 -363 200 -876 299 -1357 260z m525 -169 c411 -48 797 -209 1029
-430 136 -130 204 -234 258 -395 19 -59 23 -90 23 -200 -1 -121 -3 -137 -33
-225 -146 -421 -644 -725 -1312 -801 -58 -6 -189 -11 -292 -11 -278 1 -473 26
-687 88 -371 108 -652 290 -812 525 -201 296 -166 681 86 947 77 81 201 185
276 230 323 194 757 298 1204 286 94 -2 211 -9 260 -14z"/>
<path d="M4193 9966 c-95 -31 -166 -98 -215 -203 -25 -52 -32 -82 -36 -154 -8
-144 41 -280 147 -405 31 -37 67 -82 81 -100 46 -62 217 -208 379 -326 89 -65
167 -118 173 -118 27 0 323 218 424 313 206 191 324 358 359 504 15 60 16 83
6 154 -20 148 -90 250 -210 308 -72 34 -81 36 -181 36 -96 0 -110 -2 -162 -29
-82 -41 -162 -116 -194 -181 -29 -60 -39 -67 -48 -32 -3 12 -30 52 -60 88 -46
55 -70 74 -142 110 -82 41 -91 44 -183 46 -61 2 -111 -2 -138 -11z m121 -131
c9 -13 16 -29 16 -34 0 -6 -24 -28 -53 -50 -29 -22 -69 -66 -91 -101 -35 -55
-42 -61 -70 -58 -93 9 -46 179 68 249 17 11 50 19 72 19 33 0 45 -5 58 -25z"/>
<path d="M3761 8305 c-193 -60 -164 -343 38 -363 146 -14 251 139 185 269 -19
39 -78 86 -121 98 -46 13 -47 13 -102 -4z m86 -75 c8 0 28 -14 44 -31 84 -90
-29 -226 -131 -157 -46 31 -61 83 -37 134 17 36 69 68 95 59 8 -3 20 -5 29 -5z"/>
<path d="M3463 7968 c-17 -18 -33 -45 -37 -60 -8 -36 17 -97 52 -125 19 -16
22 -23 11 -23 -9 0 -24 -9 -34 -20 -10 -11 -24 -20 -32 -20 -8 0 -35 -11 -61
-25 -26 -14 -63 -25 -82 -25 -23 0 -49 -9 -70 -25 -19 -14 -42 -25 -52 -25
-11 0 -29 -11 -41 -24 -13 -14 -36 -28 -53 -31 -16 -4 -45 -18 -64 -31 -43
-29 -82 -26 -119 10 l-27 26 -177 0 c-176 0 -177 0 -199 25 l-22 25 -471 0
-471 0 -22 25 c-16 18 -32 25 -58 25 -24 0 -46 8 -66 25 -16 14 -35 25 -42 25
-7 0 -25 11 -41 24 -15 13 -39 24 -53 24 -17 0 -35 10 -52 31 -15 17 -40 34
-58 37 -22 4 -32 12 -32 25 0 10 -5 21 -12 25 -14 9 -322 17 -365 9 -21 -4
-40 -17 -55 -37 -21 -30 -22 -41 -23 -229 l0 -197 -28 -26 c-21 -19 -27 -34
-27 -66 0 -33 4 -42 25 -52 25 -11 25 -14 26 -127 0 -64 2 -132 4 -151 2 -19
1 -95 -3 -168 -5 -130 -6 -134 -33 -160 -24 -22 -29 -35 -29 -76 0 -37 -6 -55
-26 -79 -24 -28 -26 -37 -20 -89 7 -67 -1 -118 -19 -118 -23 0 -32 -46 -29
-161 l3 -116 -29 -28 -30 -29 0 -233 0 -233 -25 -22 c-22 -19 -25 -30 -25 -83
0 -53 -4 -65 -25 -85 -16 -15 -25 -34 -25 -53 0 -23 -12 -40 -54 -78 -41 -38
-55 -59 -60 -87 -3 -24 -17 -48 -40 -69 -19 -18 -44 -53 -56 -78 -12 -25 -26
-45 -30 -45 -5 0 -25 -26 -44 -59 l-36 -59 0 -1425 0 -1425 50 -37 c28 -20 50
-41 50 -45 0 -17 44 -50 65 -50 12 0 31 -11 43 -25 17 -19 31 -25 65 -25 33 0
51 -7 77 -30 19 -16 45 -29 57 -30 12 0 31 -9 41 -20 14 -15 35 -21 81 -24 47
-3 68 -9 86 -26 21 -20 38 -23 217 -32 184 -9 2804 -5 2946 4 46 4 68 10 85
26 20 19 36 22 108 23 112 1 183 12 202 31 10 10 45 18 99 23 59 5 91 13 112
28 23 16 47 22 104 24 60 2 79 6 97 23 16 15 43 23 99 29 44 5 88 16 104 27
15 10 53 21 85 25 37 4 71 16 96 33 20 14 48 26 62 26 14 0 35 9 46 19 20 19
139 61 173 61 10 0 25 12 35 26 9 14 32 32 51 40 19 8 37 21 41 29 3 8 14 15
26 15 11 0 39 9 61 19 27 13 82 23 160 29 94 8 125 15 147 31 16 12 43 21 63
21 23 0 45 9 66 27 18 15 57 32 92 40 64 15 191 79 242 123 17 14 47 37 66 50
109 75 228 192 281 275 14 22 37 58 51 80 14 22 29 50 32 61 4 12 15 29 26 39
11 10 20 26 20 36 0 10 12 31 26 48 15 18 32 58 40 93 8 34 21 69 29 78 8 9
19 50 25 91 6 40 20 108 31 149 19 66 21 95 17 240 -3 131 -8 173 -22 200 -9
19 -21 67 -26 105 -22 173 -16 151 -84 296 -20 41 -36 80 -36 85 0 5 -14 27
-30 48 -17 22 -30 48 -30 57 0 10 -8 24 -18 31 -10 7 -23 22 -29 32 -21 39
-220 207 -283 240 -99 52 -226 80 -328 73 -71 -5 -93 -12 -153 -44 -88 -47
-155 -116 -165 -169 -4 -22 -13 -51 -20 -66 -19 -38 -17 -85 6 -137 11 -24 20
-48 20 -54 0 -23 68 -116 137 -185 39 -41 77 -87 84 -103 6 -16 20 -34 30 -40
11 -5 28 -27 39 -48 10 -21 26 -41 34 -44 8 -3 20 -25 27 -49 6 -24 20 -56 31
-71 17 -23 19 -37 14 -75 -4 -26 -10 -81 -14 -122 -7 -78 -32 -129 -96 -203
-14 -16 -28 -42 -31 -58 -4 -17 -33 -55 -73 -94 -55 -55 -77 -69 -131 -86 -36
-11 -76 -26 -88 -34 -53 -35 -119 -7 -115 48 1 19 -4 50 -13 70 -10 24 -15 69
-15 131 0 85 -2 97 -24 123 -13 15 -26 38 -30 49 -4 12 -15 29 -26 39 -12 10
-20 31 -20 48 0 17 -11 44 -24 61 -30 40 -68 115 -71 141 -4 34 -5 35 -19 35
-7 0 -19 13 -26 29 -6 16 -22 39 -36 52 -16 15 -24 34 -24 54 0 18 -8 39 -19
49 -10 9 -29 37 -41 62 -13 25 -31 49 -41 54 -9 5 -19 24 -23 43 -3 18 -13 42
-21 53 -46 60 -85 129 -85 149 0 13 -11 36 -24 52 -31 37 -82 122 -91 152 -7
24 -31 61 -77 122 -16 21 -28 49 -28 66 0 20 -9 38 -30 56 -16 15 -30 35 -30
45 0 10 -25 51 -55 90 -30 40 -55 78 -55 86 0 14 -60 134 -86 171 -8 11 -14
28 -14 38 0 11 -11 32 -25 49 -14 16 -25 35 -25 42 0 8 -8 24 -18 37 -11 13
-22 37 -26 54 -4 16 -11 32 -14 35 -18 13 -92 119 -92 131 0 8 -12 32 -25 54
-20 31 -25 54 -25 103 0 41 -6 75 -19 100 -10 20 -21 67 -23 104 -4 48 -13 80
-32 112 -15 26 -26 60 -26 81 0 19 -11 58 -25 85 -25 50 -25 50 -21 270 5 203
7 223 26 250 20 28 20 41 20 440 l0 412 -24 19 c-14 11 -28 35 -32 54 -5 28
-12 35 -38 41 -17 3 -39 13 -49 22 -13 11 -44 16 -122 18 -99 3 -106 2 -134
-22 -22 -18 -46 -26 -92 -30 l-62 -6 36 34 c86 82 42 208 -72 208 -40 0 -52
-5 -78 -32z m-2527 -621 c15 -23 46 -60 68 -82 42 -41 56 -65 75 -124 27 -84
8 -134 -67 -184 -31 -20 -68 -46 -82 -56 -41 -31 -67 -35 -80 -11 -6 11 -13
80 -15 153 -2 72 -6 169 -10 214 l-8 82 31 30 c37 37 51 33 88 -22z m2965
-103 c16 -27 16 -33 -2 -89 -11 -33 -24 -103 -29 -155 -5 -52 -16 -126 -25
-165 -8 -38 -15 -83 -15 -98 0 -38 -17 -67 -39 -67 -23 0 -44 24 -129 151
l-71 106 6 77 6 76 61 44 c34 25 75 57 92 73 68 61 103 84 119 79 5 -1 17 -16
26 -32z m-2884 -525 c39 -14 73 -47 92 -89 9 -19 39 -56 67 -82 l51 -48 11 25
c6 13 29 36 52 50 22 14 40 30 40 35 0 5 11 17 24 26 57 36 379 8 448 -40 12
-9 33 -16 46 -16 15 0 26 -7 29 -19 4 -18 6 -18 42 2 24 13 45 18 61 14 49
-13 55 -23 60 -102 5 -73 4 -75 -17 -75 -13 0 -23 4 -23 10 0 5 -7 7 -16 3
-13 -5 -15 -14 -9 -47 12 -75 22 -121 24 -108 0 6 8 12 16 12 23 0 21 -76 -3
-82 -12 -3 -18 -16 -20 -39 -7 -98 -67 -199 -161 -270 -52 -40 -71 -48 -134
-58 -136 -22 -299 23 -400 110 -44 37 -100 148 -118 229 l-11 53 -24 -29 c-13
-16 -23 -32 -24 -36 -1 -21 -84 -49 -138 -47 -36 1 -71 -4 -96 -15 -80 -36
-188 14 -216 99 -7 21 -24 41 -45 54 -87 51 -101 176 -30 261 7 8 15 34 18 58
6 50 44 105 90 129 20 11 57 18 97 18 36 1 76 6 90 12 32 15 91 16 127 2z
m2126 -58 c133 -46 232 -148 275 -281 30 -95 31 -108 20 -143 -5 -18 -13 -64
-18 -104 -10 -82 -51 -164 -105 -212 -117 -103 -373 -92 -523 22 -53 40 -98
90 -122 137 -22 41 -41 175 -30 205 6 15 10 40 10 57 0 17 21 73 46 124 35 70
58 103 93 131 92 76 241 103 354 64z"/>
<path d="M923 6554 c-22 -22 -25 -31 -19 -71 12 -89 55 -134 110 -113 53 20
48 138 -9 188 -34 29 -50 28 -82 -4z"/>
<path d="M1470 6554 c0 -3 11 -15 25 -26 18 -14 25 -29 25 -52 0 -49 -30 -71
-97 -71 -48 0 -58 4 -79 29 -14 15 -23 33 -21 40 6 16 35 8 58 -15 22 -22 57
-25 83 -6 46 34 -28 68 -112 51 -45 -9 -45 -9 -69 -79 -32 -93 -33 -192 -1
-289 19 -60 31 -80 82 -129 49 -47 72 -61 127 -77 90 -27 222 -27 263 -1 84
56 146 166 146 261 0 33 -4 60 -10 60 -5 0 -10 -13 -10 -30 0 -20 -5 -30 -15
-30 -12 0 -14 12 -12 58 2 31 8 57 13 57 5 0 8 -8 6 -18 -3 -22 22 -18 26 5 4
20 -62 181 -76 186 -8 2 -12 -10 -12 -37 0 -33 -4 -41 -19 -41 -15 0 -19 10
-24 57 -3 31 -13 63 -21 72 -15 14 -16 11 -16 -31 0 -39 -5 -50 -31 -72 -39
-33 -79 -33 -118 0 -33 28 -42 75 -21 115 10 18 7 19 -40 19 -27 0 -50 -3 -50
-6z"/>
<path d="M735 6508 c-26 -20 -27 -25 -22 -77 7 -61 31 -101 70 -115 35 -13 77
24 77 67 0 106 -66 172 -125 125z"/>
<path d="M2852 6541 c-54 -57 -114 -160 -126 -218 -9 -39 8 -138 34 -195 21
-47 88 -117 135 -141 30 -15 115 -35 186 -44 21 -3 65 4 105 16 107 33 141 90
154 261 8 88 6 99 -18 160 -51 128 -173 203 -347 212 l-70 4 -53 -55z"/>
</g>
</svg>
