<?xml version="1.0" standalone="no"?>
<!DOCTYPE svg PUBLIC "-//W3C//DTD SVG 20010904//EN"
 "http://www.w3.org/TR/2001/REC-SVG-20010904/DTD/svg10.dtd">
<svg version="1.0" xmlns="http://www.w3.org/2000/svg"
 width="704.000000pt" height="1280.000000pt" viewBox="0 0 704.000000 1280.000000"
 preserveAspectRatio="xMidYMid meet">
<metadata>
Created by potrace 1.16, written by Peter Selinger 2001-2019
</metadata>
<g transform="translate(0.000000,1280.000000) scale(0.100000,-0.100000)"
fill="#000000" stroke="none">
<path d="M692 7888 c-54 -33 -57 -47 -53 -255 l3 -192 -26 -26 c-15 -15 -29
-43 -32 -67 -6 -37 -4 -44 19 -62 25 -20 26 -25 32 -166 3 -80 2 -206 -1 -280
-7 -132 -8 -135 -36 -160 -24 -21 -28 -32 -28 -75 0 -40 -5 -55 -24 -73 -23
-21 -25 -30 -24 -109 1 -78 -2 -89 -21 -101 -20 -13 -21 -23 -21 -139 0 -127
-7 -156 -42 -181 -17 -12 -18 -31 -18 -248 l0 -235 -27 -25 c-22 -21 -26 -31
-24 -77 1 -45 -3 -58 -24 -81 -15 -16 -25 -39 -25 -57 0 -22 -9 -38 -32 -57
-64 -54 -75 -69 -81 -107 -5 -28 -21 -55 -52 -89 -25 -26 -45 -53 -45 -58 0
-5 -18 -30 -39 -56 -77 -91 -71 40 -71 -1537 0 -1414 0 -1415 20 -1432 30 -26
83 -78 98 -97 7 -9 25 -19 40 -22 15 -4 38 -17 52 -29 16 -14 43 -24 73 -28
34 -3 57 -13 76 -31 15 -15 39 -26 54 -26 16 0 30 -8 37 -20 9 -16 21 -20 62
-20 40 0 61 -6 91 -27 38 -26 47 -28 216 -36 97 -4 811 -7 1588 -5 l1411 3 34
25 c30 23 44 25 166 30 118 4 135 7 148 25 11 15 29 20 82 22 89 5 109 10 132
33 15 15 38 21 100 25 59 3 87 10 107 24 18 13 56 24 104 30 42 5 88 17 104
27 15 10 54 21 86 25 42 5 67 14 89 33 18 14 44 26 59 26 16 0 39 8 52 18 24
19 97 46 153 57 16 3 40 19 55 36 14 16 30 29 36 29 6 0 25 13 43 30 18 16 42
30 53 30 11 0 30 6 42 14 13 9 71 18 148 23 104 8 131 13 156 31 20 14 46 22
71 22 29 0 46 7 65 26 16 16 48 31 86 39 70 17 178 71 237 120 22 18 54 42 71
52 79 49 229 193 277 268 83 127 96 149 96 158 0 5 11 22 25 39 14 16 25 38
25 49 0 10 10 29 21 40 12 12 28 47 36 77 8 31 23 73 34 94 10 20 19 51 19 69
0 17 12 79 26 138 25 98 26 118 22 267 -4 121 -9 169 -21 194 -17 33 -31 100
-42 205 -6 58 -27 115 -80 218 -14 26 -25 53 -25 61 0 7 -6 19 -14 25 -8 7
-24 33 -36 59 -12 26 -31 56 -41 67 -215 229 -277 271 -457 315 -127 31 -212
25 -306 -20 -89 -42 -176 -124 -176 -166 -1 -16 -9 -47 -20 -69 -25 -52 -25
-68 5 -153 36 -103 112 -212 183 -262 19 -13 43 -43 54 -67 11 -24 24 -43 29
-43 5 0 21 -19 35 -42 15 -24 33 -47 40 -51 7 -4 19 -27 25 -50 6 -23 20 -54
31 -70 16 -22 19 -37 14 -70 -7 -52 -25 -198 -25 -214 -1 -6 -17 -31 -37 -55
-19 -23 -42 -51 -51 -62 -8 -10 -20 -33 -26 -50 -22 -65 -135 -166 -208 -186
-24 -7 -60 -21 -80 -31 -70 -36 -119 -20 -119 40 0 21 -7 55 -15 74 -10 24
-15 70 -15 131 0 87 -2 97 -25 122 -14 15 -25 32 -25 39 0 6 -11 26 -25 45
-14 19 -25 46 -25 61 0 16 -11 40 -25 55 -14 15 -25 32 -25 39 0 7 -7 18 -15
25 -8 7 -18 30 -21 50 -4 22 -16 47 -30 59 -13 12 -24 27 -24 34 0 7 -13 26
-30 42 -21 20 -30 38 -30 61 0 42 -9 64 -26 64 -8 0 -20 12 -26 28 -6 15 -24
41 -39 57 -15 17 -32 47 -38 67 -7 20 -19 42 -27 48 -7 7 -14 17 -14 23 0 6
-13 31 -29 56 -16 25 -31 57 -35 71 -3 14 -15 36 -26 50 -43 53 -80 116 -80
137 0 12 -10 34 -23 50 -39 49 -78 114 -93 156 -8 23 -23 49 -34 59 -11 11
-20 27 -20 38 0 10 -25 49 -55 85 -37 46 -55 77 -55 95 0 15 -6 33 -14 39 -8
6 -20 26 -27 44 -7 18 -23 45 -36 60 -13 16 -23 39 -23 51 0 12 -11 37 -24 55
-14 19 -28 46 -31 62 -4 16 -11 31 -16 35 -6 3 -20 29 -33 57 -13 29 -37 65
-54 81 -18 16 -37 45 -43 65 -7 20 -20 47 -30 60 -14 17 -19 41 -19 85 -1 33
-8 79 -17 101 -8 22 -18 72 -22 110 -5 46 -17 87 -34 120 -15 27 -27 64 -27
81 0 18 -11 56 -24 85 -24 51 -25 56 -20 273 4 202 6 223 24 248 19 26 20 43
21 434 0 390 -1 408 -20 428 -10 11 -26 38 -34 58 -11 27 -24 39 -44 44 -15 4
-35 15 -45 24 -13 14 -36 17 -123 18 -100 2 -109 0 -140 -24 -32 -24 -40 -25
-134 -23 -97 3 -101 2 -125 -24 -14 -15 -33 -27 -43 -27 -10 0 -36 -11 -58
-25 -23 -14 -56 -25 -76 -25 -22 0 -51 -10 -73 -25 -20 -14 -45 -25 -56 -25
-10 0 -31 -13 -47 -30 -17 -18 -38 -30 -54 -30 -15 0 -38 -9 -52 -21 -15 -11
-41 -23 -59 -26 -28 -4 -38 0 -61 26 l-27 31 -179 0 c-177 0 -180 0 -209 25
l-30 25 -464 0 -465 0 -27 25 c-15 14 -39 25 -55 25 -15 0 -42 11 -61 25 -19
14 -38 25 -43 25 -6 0 -25 11 -43 25 -18 14 -42 25 -54 25 -12 0 -34 13 -49
29 -14 15 -38 32 -51 36 -14 4 -34 18 -45 32 -19 23 -25 24 -195 29 -135 4
-180 2 -198 -8z m239 -530 c12 -18 46 -58 74 -88 42 -45 55 -67 70 -124 17
-61 17 -73 4 -109 -12 -35 -28 -51 -99 -99 -91 -62 -124 -71 -135 -36 -4 11
-8 75 -10 142 -1 67 -6 159 -10 206 -7 78 -5 87 15 113 30 37 63 35 91 -5z
m2979 -134 c0 -13 -7 -49 -15 -81 -8 -31 -15 -81 -15 -109 0 -29 -5 -65 -11
-81 -11 -26 -18 -70 -37 -215 -10 -79 -22 -88 -67 -54 -19 15 -44 44 -56 64
-11 20 -40 68 -65 107 -42 67 -44 72 -44 147 0 76 1 78 30 93 17 9 30 19 30
23 0 4 12 15 28 25 15 9 50 37 77 63 65 60 104 77 128 56 9 -8 17 -25 17 -38z
m-769 -563 c81 -28 179 -101 223 -166 20 -31 48 -92 63 -137 26 -81 26 -82 10
-144 -10 -34 -17 -78 -17 -97 0 -38 -48 -137 -89 -181 -14 -16 -54 -42 -88
-57 -54 -25 -75 -29 -150 -29 -186 0 -354 93 -426 235 -25 51 -42 168 -28 205
6 18 11 44 11 57 0 40 80 192 126 239 23 24 55 49 70 55 104 42 210 50 295 20z
m-1437 -31 c85 -20 139 -52 177 -103 23 -32 32 -46 77 -126 42 -77 53 -263 19
-343 -23 -55 -89 -134 -151 -182 -33 -25 -62 -46 -65 -46 -3 0 -35 -5 -71 -11
-161 -26 -395 68 -446 180 -9 20 -24 52 -34 72 -10 20 -26 73 -36 118 -15 70
-16 90 -5 153 7 40 18 84 26 98 7 14 24 45 37 69 22 43 87 93 161 125 49 22
216 20 311 -4z"/>
<path d="M2904 6590 c-32 -12 -114 -120 -152 -200 -34 -74 -35 -76 -24 -145
15 -95 43 -154 98 -204 56 -53 107 -75 207 -91 69 -12 84 -11 140 5 78 23 110
52 141 130 19 48 25 84 27 156 3 90 2 97 -31 164 -56 111 -153 170 -300 182
-30 2 -62 5 -70 7 -9 2 -25 0 -36 -4z"/>
<path d="M1405 6529 c-33 -16 -67 -29 -75 -29 -9 0 -27 -29 -45 -73 -38 -91
-39 -177 -4 -288 20 -65 31 -81 84 -132 76 -72 145 -97 274 -97 68 0 93 4 118
20 38 23 123 134 123 161 0 10 5 21 10 24 6 3 10 50 10 105 0 86 -4 106 -29
167 -35 82 -69 118 -139 149 -45 21 -68 24 -160 23 -97 0 -113 -3 -167 -30z"/>
</g>
</svg>
