<?xml version="1.0" standalone="no"?>
<!DOCTYPE svg PUBLIC "-//W3C//DTD SVG 20010904//EN"
 "http://www.w3.org/TR/2001/REC-SVG-20010904/DTD/svg10.dtd">
<svg version="1.0" xmlns="http://www.w3.org/2000/svg"
 width="704.000000pt" height="1280.000000pt" viewBox="0 0 704.000000 1280.000000"
 preserveAspectRatio="xMidYMid meet">
<metadata>
Created by potrace 1.16, written by Peter Selinger 2001-2019
</metadata>
<g transform="translate(0.000000,1280.000000) scale(0.100000,-0.100000)"
fill="#000000" stroke="none">
<path d="M4548 10554 c-402 -41 -704 -137 -990 -315 -268 -166 -462 -405 -529
-654 -32 -117 -33 -329 -1 -438 123 -428 528 -755 1122 -907 170 -43 332 -62
590 -67 209 -4 270 -2 412 16 379 47 698 161 958 342 285 198 450 448 490 744
22 163 -21 363 -112 522 -178 311 -520 550 -968 676 -311 87 -648 115 -972 81z
m453 -154 c491 -39 893 -192 1153 -440 134 -128 196 -221 248 -372 30 -86 32
-103 32 -223 0 -106 -4 -143 -22 -201 -94 -304 -395 -570 -805 -710 -264 -91
-484 -124 -817 -124 -275 0 -455 22 -662 81 -437 123 -752 349 -888 634 -122
258 -83 566 102 796 314 390 973 612 1659 559z"/>
<path d="M4584 10090 c-111 -29 -294 -127 -294 -158 0 -7 17 -36 38 -65 21
-29 53 -76 71 -104 18 -29 34 -53 36 -53 1 0 32 20 69 45 207 139 450 98 433
-72 -7 -66 -41 -108 -166 -202 -64 -49 -129 -102 -145 -119 -29 -31 -29 -32
-22 -119 4 -48 9 -110 13 -137 l6 -49 81 7 c45 3 102 9 127 12 l47 6 -5 82 -6
82 137 113 c197 164 246 244 246 401 0 165 -108 283 -305 335 -84 22 -269 19
-361 -5z"/>
<path d="M4694 8931 c-49 -12 -90 -47 -114 -97 -57 -116 29 -254 157 -254 53
0 82 11 125 49 135 118 8 346 -168 302z"/>
<path d="M3773 8310 c-123 -29 -181 -184 -108 -289 90 -132 292 -93 334 64 23
88 -28 181 -121 219 -40 17 -56 18 -105 6z m125 -115 c33 -39 30 -96 -7 -137
-25 -28 -36 -33 -76 -33 -40 0 -51 5 -76 33 -41 45 -40 99 1 141 48 47 114 45
158 -4z"/>
<path d="M3461 7965 c-24 -27 -31 -45 -31 -76 0 -51 22 -94 58 -113 l27 -14
-27 -7 c-16 -4 -28 -11 -28 -16 0 -5 -6 -9 -12 -9 -7 0 -40 -14 -72 -30 -36
-18 -74 -30 -98 -30 -27 0 -50 -8 -72 -25 -18 -14 -40 -25 -48 -25 -8 0 -32
-13 -53 -30 -21 -16 -47 -30 -57 -30 -11 0 -33 -11 -50 -25 -40 -34 -77 -32
-113 5 l-29 30 -182 0 -182 0 -16 25 -16 25 -473 0 -474 0 -23 25 c-15 16 -34
25 -54 25 -19 0 -43 10 -60 25 -16 14 -36 25 -44 25 -7 0 -27 9 -42 20 -16 11
-42 23 -59 26 -18 4 -40 19 -51 35 -11 15 -34 30 -51 34 -19 4 -34 16 -39 31
-5 13 -13 24 -17 25 -13 0 -367 1 -379 0 -5 -1 -21 -16 -34 -33 -24 -33 -24
-36 -21 -228 l3 -195 -31 -28 c-42 -37 -44 -91 -4 -123 l28 -22 0 -277 -1
-276 -28 -22 c-23 -19 -29 -32 -31 -75 -2 -38 -9 -59 -29 -82 -23 -28 -25 -38
-23 -111 2 -74 0 -82 -22 -98 -22 -17 -23 -23 -25 -155 l-1 -138 -27 -20 -28
-20 0 -228 0 -228 -27 -33 c-24 -28 -28 -41 -26 -85 2 -42 -2 -56 -22 -80 -14
-17 -25 -42 -25 -58 0 -23 -13 -41 -54 -80 -43 -41 -55 -59 -61 -93 -4 -26
-13 -44 -23 -48 -9 -3 -32 -30 -51 -61 -19 -30 -49 -71 -67 -91 -69 -75 -64
48 -64 -1526 l0 -1425 34 -22 c19 -11 49 -38 67 -60 18 -21 44 -41 57 -45 14
-3 39 -17 55 -31 19 -16 41 -24 66 -24 26 0 47 -8 71 -30 23 -19 46 -29 67
-30 21 0 36 -7 42 -19 8 -13 26 -20 70 -24 40 -3 67 -11 81 -25 12 -11 40 -23
63 -26 23 -4 611 -9 1307 -13 1400 -6 1830 2 1879 37 20 14 54 19 154 24 103
5 134 10 155 25 18 13 53 21 107 26 58 4 86 11 100 25 14 14 42 21 100 25 56
5 89 13 109 27 17 13 57 24 104 30 43 5 90 18 108 29 18 11 49 19 73 19 46 0
71 10 102 41 10 10 32 19 48 19 15 0 39 9 53 19 13 11 38 23 54 27 16 4 35 11
41 16 7 6 30 12 50 15 24 3 52 18 76 39 20 19 41 34 47 34 5 0 20 11 34 25 14
14 32 25 41 25 9 0 28 6 43 14 16 8 83 18 160 23 116 8 135 12 152 31 15 15
33 22 60 22 29 0 48 8 72 28 21 18 55 33 93 41 59 13 153 59 230 113 22 16 51
36 65 45 63 42 270 240 270 259 0 6 7 17 16 25 8 7 25 30 37 52 12 21 34 60
49 86 15 25 39 70 52 99 14 28 30 52 35 52 5 0 16 30 25 67 10 36 26 79 37 94
12 18 19 44 19 76 0 27 12 89 26 138 25 86 26 98 21 260 -4 144 -8 176 -26
210 -13 25 -24 78 -31 145 -11 107 -20 135 -77 247 -18 35 -33 69 -33 76 0 8
-11 24 -25 37 -14 13 -28 38 -31 57 -9 46 -188 226 -288 288 -113 70 -274 113
-390 103 -112 -10 -296 -137 -296 -205 0 -16 -9 -46 -20 -68 -24 -46 -26 -106
-5 -143 8 -15 21 -43 30 -62 35 -79 82 -139 179 -228 20 -19 36 -39 36 -46 0
-6 15 -28 33 -49 68 -77 89 -108 99 -144 5 -21 16 -45 23 -53 28 -34 34 -56
24 -96 -6 -21 -14 -73 -18 -115 -7 -66 -14 -85 -51 -142 -23 -37 -46 -67 -50
-67 -4 0 -12 -17 -18 -37 -23 -74 -169 -203 -231 -203 -9 0 -33 -9 -54 -20
-72 -39 -127 -19 -127 46 0 20 -5 45 -12 57 -6 12 -15 70 -19 129 -6 87 -11
113 -28 134 -12 15 -21 33 -21 41 0 8 -11 28 -25 45 -14 16 -25 42 -25 57 0
15 -8 36 -18 47 -31 34 -72 112 -72 138 0 14 -4 27 -9 31 -6 3 -30 32 -55 65
-31 41 -46 70 -46 91 0 19 -9 39 -25 55 -14 14 -32 39 -41 57 -10 18 -25 38
-35 45 -10 7 -24 30 -30 52 -7 22 -20 47 -31 56 -10 10 -18 25 -18 35 0 10
-11 31 -25 47 -14 17 -25 43 -25 59 0 19 -9 38 -26 54 -27 25 -84 119 -84 138
0 11 -55 99 -89 141 -11 14 -21 37 -21 51 0 15 -12 37 -29 53 -16 15 -32 41
-35 58 -3 16 -28 57 -56 90 -27 33 -50 65 -50 72 0 14 -61 138 -78 158 -6 7
-14 27 -18 43 -4 17 -10 35 -14 40 -17 22 -90 166 -90 176 0 11 -33 55 -69 94
-10 11 -22 31 -26 45 -4 14 -18 43 -31 66 -18 31 -24 56 -24 103 0 40 -6 75
-19 99 -10 20 -21 67 -24 105 -4 46 -14 81 -32 110 -14 24 -25 59 -25 78 0 19
-12 56 -26 84 l-27 49 8 225 c6 199 9 229 26 252 18 26 19 50 19 432 l0 405
-25 30 c-14 17 -25 39 -25 50 0 23 -15 36 -50 47 -14 4 -34 15 -46 24 -16 13
-44 16 -132 16 -105 0 -112 -1 -139 -26 -22 -20 -40 -26 -82 -28 l-55 -3 32
27 c36 30 58 90 48 130 -4 15 -20 40 -36 56 -24 24 -37 29 -78 29 -45 0 -53
-4 -81 -35z m-2500 -641 c84 -100 105 -132 118 -180 26 -94 2 -152 -80 -195
-22 -11 -39 -23 -39 -28 0 -4 -20 -18 -45 -31 -70 -36 -75 -26 -80 158 -2 84
-7 172 -11 197 -3 25 -3 60 0 78 7 36 39 77 60 77 7 0 42 -34 77 -76z m2939
-69 c13 -16 11 -40 -15 -150 -9 -38 -13 -84 -10 -101 3 -19 -1 -43 -10 -60 -8
-16 -15 -44 -15 -61 0 -43 -20 -172 -31 -200 -5 -13 -16 -23 -25 -23 -16 0
-84 64 -84 80 0 10 -59 108 -87 144 -20 25 -23 41 -23 112 0 80 1 84 28 101
15 10 69 52 121 95 94 79 127 92 151 63z m-764 -592 c27 -9 81 -37 119 -63 82
-56 130 -121 165 -224 23 -71 23 -77 1 -247 -15 -114 -73 -199 -173 -249 -55
-27 -71 -30 -152 -30 -66 0 -108 6 -149 20 -31 11 -63 20 -71 20 -16 0 -141
93 -168 125 -49 57 -89 215 -69 269 6 15 11 41 11 58 0 49 77 194 132 248 82
81 236 113 354 73z m-1433 -33 c92 -21 153 -64 209 -146 52 -76 88 -181 88
-261 0 -76 -28 -181 -62 -232 -45 -66 -160 -159 -206 -166 -21 -3 -52 -8 -70
-11 -91 -14 -254 35 -349 105 -56 41 -114 155 -139 273 -17 83 -17 90 0 169
24 113 62 177 134 224 31 21 76 43 99 49 58 15 225 12 296 -4z"/>
<path d="M2855 6542 c-30 -31 -72 -93 -95 -140 -40 -79 -42 -86 -36 -144 15
-125 80 -229 170 -272 35 -17 167 -46 207 -46 49 0 149 38 174 67 33 38 62
132 69 224 5 65 2 85 -18 138 -45 112 -90 157 -202 195 -38 13 -102 26 -143
29 l-74 6 -52 -57z"/>
<path d="M1430 6541 c-19 -10 -54 -24 -77 -31 -39 -12 -43 -16 -67 -84 -31
-83 -34 -167 -10 -266 19 -82 49 -129 116 -178 73 -54 133 -72 242 -72 81 0
96 3 128 25 41 28 99 102 122 159 24 58 22 210 -4 273 -42 102 -64 126 -147
170 -37 20 -57 23 -155 23 -90 -1 -120 -5 -148 -19z"/>
</g>
</svg>
