<?xml version="1.0" standalone="no"?>
<!DOCTYPE svg PUBLIC "-//W3C//DTD SVG 20010904//EN"
 "http://www.w3.org/TR/2001/REC-SVG-20010904/DTD/svg10.dtd">
<svg version="1.0" xmlns="http://www.w3.org/2000/svg"
 width="704.000000pt" height="1280.000000pt" viewBox="0 0 704.000000 1280.000000"
 preserveAspectRatio="xMidYMid meet">
<metadata>
Created by potrace 1.16, written by Peter Selinger 2001-2019
</metadata>
<g transform="translate(0.000000,1280.000000) scale(0.100000,-0.100000)"
fill="#000000" stroke="none">
<path d="M4555 10555 c-304 -30 -515 -82 -752 -186 -402 -174 -687 -463 -775
-786 -32 -116 -31 -326 1 -442 27 -95 101 -244 161 -326 153 -207 418 -391
725 -503 291 -106 589 -149 967 -139 372 10 657 69 938 194 447 200 729 525
780 901 20 146 -18 348 -90 492 -135 266 -422 503 -780 643 -211 83 -412 128
-680 152 -186 17 -321 17 -495 0z m466 -156 c369 -29 719 -141 977 -313 40
-27 109 -82 153 -124 134 -126 206 -232 255 -377 24 -71 27 -96 28 -215 1
-147 -12 -202 -76 -335 -147 -304 -560 -567 -1034 -659 -199 -38 -312 -48
-530 -48 -283 1 -463 24 -683 88 -370 108 -652 290 -811 525 -88 129 -130 264
-130 419 0 125 25 227 87 350 41 82 63 110 158 206 61 61 145 134 189 164 361
241 891 361 1417 319z"/>
<path d="M4132 10100 c-146 -31 -284 -175 -336 -349 -35 -118 -12 -299 54
-429 62 -122 204 -294 364 -440 150 -138 473 -372 513 -372 18 0 230 137 324
210 325 251 561 536 614 739 70 272 -68 549 -310 624 -121 37 -247 28 -355
-26 -110 -55 -222 -182 -255 -292 -5 -16 -12 -8 -39 42 -78 146 -158 219 -295
269 -74 27 -209 39 -279 24z m79 -169 c16 -16 29 -37 29 -46 0 -17 -36 -54
-103 -108 -20 -15 -53 -57 -73 -92 -31 -53 -43 -65 -64 -65 -74 1 -94 95 -41
197 24 47 73 94 126 121 57 30 91 28 126 -7z"/>
<path d="M3735 8296 c-43 -18 -93 -79 -101 -121 -30 -160 118 -281 262 -216
23 10 53 34 67 52 26 36 50 107 43 130 -2 8 -7 26 -10 41 -8 34 -59 94 -97
114 -35 17 -124 18 -164 0z m119 -70 c69 -29 88 -108 40 -165 -83 -99 -234 12
-166 123 14 23 47 44 90 55 1 1 18 -5 36 -13z"/>
<path d="M3463 7968 c-17 -18 -33 -45 -37 -60 -8 -36 17 -97 52 -125 19 -16
22 -23 11 -23 -9 0 -24 -9 -34 -20 -10 -11 -24 -20 -32 -20 -8 0 -35 -11 -61
-25 -26 -14 -63 -25 -83 -25 -20 0 -47 -8 -60 -19 -13 -10 -41 -24 -61 -30
-21 -7 -42 -19 -46 -27 -5 -8 -28 -22 -53 -30 -24 -9 -51 -22 -60 -30 -9 -8
-35 -16 -57 -17 -34 -1 -45 4 -62 26 l-21 27 -180 0 c-179 0 -179 0 -201 25
l-22 25 -469 0 -469 0 -30 25 c-17 15 -42 25 -60 25 -18 0 -42 10 -60 25 -16
14 -35 25 -42 25 -7 0 -25 11 -41 24 -15 13 -39 24 -53 24 -17 0 -35 10 -52
31 -15 17 -40 34 -57 37 -21 4 -33 13 -37 29 -5 21 -10 22 -184 29 -194 8
-218 4 -247 -41 -17 -25 -19 -50 -19 -225 l-1 -196 -28 -26 c-38 -35 -38 -91
0 -122 l27 -21 0 -277 0 -277 -32 -29 c-27 -25 -32 -36 -32 -75 0 -36 -6 -54
-26 -78 -19 -23 -25 -40 -23 -71 4 -87 -1 -115 -23 -136 -22 -20 -23 -28 -21
-149 l1 -129 -29 -28 -29 -28 0 -233 0 -234 -25 -25 c-20 -20 -25 -35 -25 -76
0 -39 -6 -57 -25 -80 -14 -17 -25 -42 -25 -59 0 -30 -12 -45 -78 -101 -23 -19
-32 -35 -32 -57 0 -23 -11 -42 -39 -72 -22 -22 -49 -60 -61 -85 -12 -24 -26
-44 -30 -44 -5 0 -25 -26 -44 -59 l-36 -59 0 -1425 0 -1425 50 -37 c28 -20 50
-41 50 -45 0 -15 42 -50 59 -50 9 0 29 -11 45 -25 21 -18 41 -25 72 -25 34 0
51 -7 77 -30 19 -16 44 -30 56 -30 11 0 30 -9 41 -20 15 -15 37 -21 81 -24 45
-3 66 -9 84 -26 21 -20 38 -23 187 -31 188 -9 2447 -10 2800 -1 222 7 238 8
260 28 20 19 40 22 151 28 104 5 133 9 152 25 17 13 50 21 107 26 66 5 88 12
111 31 25 21 39 24 105 24 62 0 80 4 97 20 16 15 44 23 105 30 51 6 90 16 101
26 10 9 45 19 78 23 40 5 69 14 83 28 13 12 43 24 68 28 25 4 54 16 65 26 21
19 133 59 166 59 10 0 26 11 35 26 9 14 30 32 46 40 16 8 38 24 49 35 10 10
29 19 42 19 12 0 32 6 43 14 12 9 69 18 147 24 98 8 133 14 147 27 11 10 42
21 68 26 27 4 65 19 85 32 21 14 56 28 80 32 46 8 172 71 226 113 18 15 52 41
75 57 171 123 293 259 362 405 9 19 27 48 40 63 13 16 24 37 24 46 0 10 9 28
20 41 18 21 40 79 40 107 0 7 11 33 25 59 14 26 25 63 25 83 0 20 12 79 26
131 25 89 26 106 22 260 -3 138 -8 175 -25 220 -12 30 -27 100 -34 155 -7 60
-20 112 -31 130 -10 16 -18 37 -18 46 0 9 -11 32 -23 51 -13 19 -27 48 -31 64
-4 16 -16 38 -26 49 -11 11 -26 37 -35 58 -20 48 -34 65 -125 158 -127 128
-217 182 -365 219 -158 39 -268 20 -388 -69 -69 -50 -95 -83 -103 -130 -4 -20
-13 -48 -20 -63 -20 -39 -17 -79 10 -151 34 -90 85 -165 160 -234 36 -33 73
-77 81 -97 8 -20 19 -36 24 -36 5 0 19 -16 32 -36 12 -20 32 -47 45 -59 13
-13 24 -35 24 -48 0 -13 12 -41 26 -63 22 -32 25 -45 19 -78 -3 -23 -10 -78
-14 -122 -8 -85 -30 -132 -95 -207 -14 -16 -28 -41 -31 -57 -4 -16 -34 -56
-73 -94 -55 -55 -77 -70 -129 -86 -34 -10 -76 -26 -92 -35 -62 -32 -111 -8
-111 54 0 17 -7 48 -15 68 -10 23 -15 68 -15 128 0 84 -3 96 -24 122 -13 15
-26 38 -30 49 -4 12 -15 29 -26 39 -12 10 -20 31 -20 48 0 17 -11 44 -24 61
-32 43 -66 111 -66 135 0 11 -8 26 -19 33 -10 7 -25 27 -33 43 -9 17 -25 39
-37 49 -14 13 -21 31 -21 56 0 27 -7 43 -30 65 -16 16 -30 35 -30 43 0 8 -13
26 -28 40 -15 15 -33 46 -40 70 -7 23 -16 42 -21 42 -4 0 -16 18 -26 40 -10
22 -26 47 -36 56 -11 10 -19 30 -19 45 0 17 -12 42 -30 62 -33 38 -90 141 -90
163 0 8 -4 14 -9 14 -5 0 -12 9 -16 19 -3 11 -21 39 -40 63 -23 28 -35 54 -35
74 0 21 -9 39 -30 57 -16 15 -30 35 -30 45 0 10 -25 49 -55 87 -30 38 -55 79
-55 91 0 12 -6 27 -13 33 -8 6 -20 29 -27 51 -7 22 -21 48 -31 58 -9 11 -22
36 -27 55 -6 20 -20 50 -31 66 -12 16 -21 36 -21 44 0 8 -9 26 -20 40 -11 14
-20 31 -20 39 0 15 -48 84 -87 128 -13 14 -23 33 -23 43 0 10 -11 35 -25 55
-20 30 -25 49 -25 102 0 46 -6 76 -20 103 -13 24 -20 56 -20 94 0 46 -6 68
-30 108 -17 28 -30 65 -30 84 0 18 -11 56 -25 84 l-26 50 6 225 c5 203 8 228
26 253 19 27 20 45 20 441 l0 412 -22 17 c-12 9 -27 31 -33 50 -8 23 -19 35
-40 40 -15 4 -37 16 -47 25 -15 14 -42 18 -124 20 -101 3 -106 2 -136 -24 -24
-20 -45 -27 -92 -30 l-61 -5 36 35 c87 82 44 208 -71 208 -40 0 -52 -5 -78
-32z m-2536 -605 c15 -20 48 -59 73 -87 68 -76 96 -149 85 -222 -5 -35 -13
-49 -43 -71 -20 -15 -57 -42 -82 -60 -57 -44 -89 -52 -107 -28 -7 11 -13 30
-13 44 0 14 -3 87 -7 161 -12 232 -11 249 21 276 15 13 31 24 36 24 5 0 22
-17 37 -37z m2975 -122 c15 -30 15 -35 -3 -86 -10 -30 -23 -94 -28 -142 -5
-49 -17 -131 -26 -183 -9 -52 -18 -110 -21 -127 -10 -64 -74 -31 -121 61 -9
17 -19 33 -22 36 -3 3 -25 32 -47 65 l-41 60 5 77 5 78 51 34 c28 19 70 52 92
73 77 70 111 94 129 90 6 -2 17 -18 27 -36z m-2873 -551 c36 -18 81 -73 81
-98 0 -6 24 -35 54 -64 l53 -54 11 26 c6 14 22 35 34 47 13 12 42 40 65 62
l41 40 129 0 c135 -1 262 -23 305 -53 12 -9 33 -16 46 -16 15 0 26 -7 29 -19
4 -18 6 -18 42 2 24 13 45 18 61 14 49 -13 55 -23 60 -102 5 -73 4 -75 -17
-75 -13 0 -23 5 -23 10 0 7 -6 7 -19 1 -18 -10 -18 -13 -2 -76 12 -49 20 -65
34 -65 25 0 25 -76 -1 -82 -13 -4 -19 -16 -20 -49 -4 -51 -29 -113 -69 -166
-34 -47 -37 -49 -93 -94 -61 -48 -58 -47 -137 -59 -136 -21 -303 27 -402 117
-48 44 -82 116 -113 241 l-20 82 -25 -49 c-36 -74 -111 -112 -179 -92 -21 6
-35 5 -48 -5 -74 -54 -207 2 -231 97 -3 13 -22 34 -41 47 -69 45 -84 156 -31
226 15 19 27 48 27 64 0 34 33 86 73 116 22 17 44 21 100 22 40 0 81 6 92 12
31 18 92 14 134 -8z m2102 -26 c81 -24 183 -97 228 -163 69 -101 97 -225 71
-311 -5 -19 -10 -51 -10 -70 0 -46 -45 -134 -95 -186 -83 -86 -252 -110 -405
-57 -104 36 -205 116 -246 194 -25 49 -45 172 -33 212 5 17 9 44 9 58 0 14 22
70 49 125 41 84 56 106 102 141 91 70 214 91 330 57z"/>
<path d="M925 6546 c-27 -28 -31 -55 -14 -107 17 -50 38 -69 75 -69 27 0 37 6
48 29 13 25 14 36 2 81 -15 56 -28 74 -63 85 -17 4 -29 -1 -48 -19z"/>
<path d="M1470 6554 c0 -3 11 -15 25 -26 18 -14 25 -29 25 -52 0 -49 -30 -71
-97 -71 -48 0 -58 4 -79 28 -13 15 -24 32 -24 38 0 16 39 10 60 -11 23 -23 58
-26 84 -7 45 33 -22 66 -108 53 -44 -7 -45 -8 -72 -74 -22 -55 -27 -81 -26
-144 2 -110 33 -209 80 -256 98 -98 173 -126 322 -121 l92 4 48 52 c70 76 100
143 100 220 0 35 -4 63 -10 63 -5 0 -10 -13 -10 -30 0 -20 -5 -30 -15 -30 -12
0 -14 12 -12 58 2 31 8 57 13 58 5 0 8 -7 6 -18 -2 -11 3 -18 12 -18 25 0 19
47 -18 129 -39 88 -56 101 -56 42 0 -33 -4 -41 -19 -41 -15 0 -19 10 -24 57
-3 31 -13 63 -21 72 -15 14 -16 11 -16 -31 0 -39 -5 -50 -31 -72 -39 -33 -79
-33 -118 0 -33 28 -42 75 -21 115 10 18 7 19 -40 19 -27 0 -50 -3 -50 -6z"/>
<path d="M739 6499 c-18 -18 -21 -29 -15 -73 3 -28 14 -62 24 -76 39 -51 112
-29 112 34 0 107 -66 170 -121 115z"/>
<path d="M2853 6540 c-29 -30 -69 -86 -90 -125 -33 -62 -38 -78 -37 -135 3
-126 67 -240 164 -290 34 -18 116 -38 192 -47 50 -7 158 30 191 65 41 43 66
129 68 235 2 83 -1 98 -28 157 -53 115 -157 176 -323 189 l-85 7 -52 -56z"/>
</g>
</svg>
