<?xml version="1.0" standalone="no"?>
<!DOCTYPE svg PUBLIC "-//W3C//DTD SVG 20010904//EN"
 "http://www.w3.org/TR/2001/REC-SVG-20010904/DTD/svg10.dtd">
<svg version="1.0" xmlns="http://www.w3.org/2000/svg"
 width="704.000000pt" height="1280.000000pt" viewBox="0 0 704.000000 1280.000000"
 preserveAspectRatio="xMidYMid meet">
<metadata>
Created by potrace 1.16, written by Peter Selinger 2001-2019
</metadata>
<g transform="translate(0.000000,1280.000000) scale(0.100000,-0.100000)"
fill="#000000" stroke="none">
<path d="M4655 10563 c-90 -5 -329 -35 -400 -49 -626 -129 -1108 -494 -1226
-930 -30 -107 -32 -327 -5 -424 90 -326 333 -590 710 -770 312 -150 653 -220
1072 -220 559 0 1035 144 1384 420 285 225 436 534 410 841 -11 123 -32 204
-80 304 -168 357 -563 633 -1085 761 -231 56 -532 82 -780 67z m505 -179 c411
-54 779 -214 1012 -440 119 -116 188 -224 234 -364 24 -74 27 -102 28 -210 0
-140 -18 -218 -79 -340 -121 -241 -406 -460 -748 -576 -253 -87 -429 -115
-749 -121 -320 -7 -501 13 -732 78 -432 123 -744 345 -883 630 -59 120 -76
206 -71 348 9 214 80 366 252 536 273 272 666 430 1181 475 129 11 408 3 555
-16z"/>
<path d="M4598 10095 c-116 -29 -308 -130 -308 -163 0 -7 17 -36 38 -65 21
-29 51 -73 66 -99 15 -27 31 -50 36 -53 4 -3 38 15 74 40 121 81 264 107 354
64 98 -48 109 -152 25 -245 -15 -17 -64 -58 -108 -92 -44 -33 -102 -80 -128
-106 l-49 -45 7 -108 c3 -59 9 -121 12 -137 l5 -28 92 7 c50 3 106 10 125 13
l34 7 -2 82 -2 81 43 34 c101 77 229 194 259 236 56 77 79 147 79 237 0 123
-44 203 -150 274 -85 56 -187 81 -331 80 -63 0 -140 -7 -171 -14z"/>
<path d="M4695 8931 c-51 -13 -75 -31 -106 -79 -37 -59 -39 -120 -6 -183 35
-65 85 -91 165 -86 78 6 127 40 156 109 55 132 -70 274 -209 239z"/>
<path d="M3773 8310 c-77 -18 -143 -102 -143 -181 0 -135 139 -226 262 -171
147 64 149 264 4 337 -52 26 -69 28 -123 15z m81 -84 c69 -29 88 -108 40 -165
-63 -75 -184 -27 -184 73 0 39 61 102 103 105 4 1 23 -5 41 -13z"/>
<path d="M3461 7965 c-53 -60 -39 -154 28 -190 25 -14 25 -14 4 -15 -12 0 -27
-9 -33 -20 -6 -11 -21 -20 -33 -20 -12 0 -40 -11 -62 -25 -26 -16 -55 -24 -83
-25 -30 0 -53 -7 -76 -25 -18 -14 -40 -25 -48 -25 -8 0 -32 -13 -53 -30 -21
-16 -48 -30 -60 -30 -12 0 -30 -9 -40 -20 -27 -30 -95 -27 -125 5 -23 25 -24
25 -207 25 l-183 0 -16 25 -16 25 -472 0 -473 0 -23 25 c-16 17 -34 25 -58 25
-22 0 -45 9 -64 25 -16 14 -35 25 -42 25 -8 0 -24 9 -38 19 -21 17 -46 25 -90
30 -4 1 -14 15 -23 31 -9 18 -23 30 -35 30 -18 0 -34 13 -66 52 -9 11 -48 14
-190 12 -98 -1 -184 -2 -191 -3 -6 0 -21 -15 -33 -31 -20 -29 -22 -43 -23
-229 l-2 -199 -28 -26 c-21 -20 -27 -34 -27 -69 0 -36 4 -46 24 -55 23 -10 24
-17 31 -138 4 -69 4 -197 0 -283 -7 -156 -7 -156 -36 -183 -25 -23 -29 -34
-29 -78 0 -42 -4 -55 -22 -70 -21 -16 -23 -27 -23 -105 0 -78 -2 -88 -23 -103
-21 -16 -23 -25 -25 -155 -2 -136 -2 -137 -29 -160 l-28 -22 -2 -237 -3 -236
-28 -26 c-25 -23 -27 -30 -21 -73 5 -43 3 -51 -20 -72 -19 -18 -26 -35 -26
-61 0 -32 -7 -43 -50 -79 -36 -30 -53 -53 -61 -84 -7 -23 -19 -49 -28 -57 -9
-8 -34 -42 -56 -75 -21 -33 -50 -70 -62 -83 -13 -13 -32 -41 -43 -62 -20 -39
-20 -60 -20 -1464 l0 -1424 34 -21 c19 -12 50 -39 70 -61 19 -22 46 -42 60
-46 13 -3 34 -17 47 -30 17 -18 33 -24 64 -24 33 0 47 -6 70 -30 20 -21 38
-30 61 -30 22 0 38 -7 47 -21 12 -16 28 -21 77 -24 46 -2 67 -8 85 -25 21 -20
38 -22 236 -32 133 -6 717 -8 1539 -4 729 3 1346 5 1372 5 47 0 80 12 106 38
12 11 155 20 237 14 12 -1 37 9 56 22 26 18 55 25 114 30 57 5 85 12 99 26 15
14 44 21 103 26 60 5 90 13 109 27 17 14 50 23 101 29 42 5 87 16 102 26 14 9
54 20 88 24 46 5 70 13 93 33 17 14 43 26 57 26 14 0 37 8 51 18 32 22 136 62
161 62 9 0 34 16 54 35 20 19 41 35 46 35 4 0 20 11 35 25 15 14 36 25 47 25
12 0 33 7 47 15 17 9 76 18 154 23 100 7 132 12 147 26 11 10 41 22 67 27 25
5 59 20 75 33 16 14 54 30 86 36 73 15 161 64 288 159 102 77 275 236 275 253
0 6 9 22 21 36 40 53 79 117 79 133 0 9 9 24 19 33 11 10 25 32 32 49 7 18 20
41 30 52 9 11 23 40 29 65 7 25 23 71 36 102 13 32 24 75 24 96 0 21 12 76 26
123 24 80 25 92 21 259 -4 150 -8 181 -25 216 -13 25 -25 81 -33 150 -7 60
-18 118 -24 129 -7 11 -18 37 -25 59 -7 21 -23 54 -36 74 -13 19 -24 43 -24
52 0 9 -13 34 -30 55 -16 21 -30 45 -30 53 0 17 -9 28 -121 140 -181 182 -351
253 -561 232 -87 -8 -152 -40 -238 -117 -40 -36 -49 -50 -55 -90 -3 -27 -13
-58 -21 -70 -22 -35 -17 -95 14 -160 52 -106 66 -127 147 -209 44 -45 88 -95
98 -111 31 -51 65 -98 87 -120 11 -11 26 -38 31 -59 6 -20 22 -54 35 -74 23
-35 24 -37 9 -93 -8 -32 -15 -78 -15 -103 0 -54 -16 -90 -71 -163 -23 -30 -46
-69 -50 -85 -17 -59 -138 -170 -204 -186 -22 -6 -59 -19 -83 -30 -51 -24 -71
-25 -100 -4 -15 10 -22 25 -22 48 0 19 -7 50 -15 69 -10 23 -15 69 -15 125 0
72 -4 94 -19 113 -10 13 -22 35 -26 49 -4 14 -18 38 -31 53 -13 16 -24 38 -24
49 0 21 -37 92 -72 137 -10 13 -18 36 -18 52 0 19 -8 34 -25 45 -13 9 -27 24
-30 34 -3 10 -17 30 -30 44 -14 16 -25 39 -25 55 0 16 -13 44 -30 66 -16 21
-30 43 -30 49 0 7 -16 29 -35 49 -19 20 -35 46 -35 56 0 11 -7 26 -15 35 -8 8
-24 34 -34 58 -10 24 -26 49 -35 57 -9 7 -16 26 -16 42 0 17 -10 39 -22 51
-12 12 -30 36 -39 53 -9 16 -23 44 -32 60 -9 17 -17 38 -17 47 0 9 -4 19 -9
23 -22 13 -101 138 -101 159 0 12 -13 35 -29 50 -16 15 -31 41 -35 56 -3 16
-28 57 -56 92 -27 34 -50 69 -50 79 0 9 -9 27 -19 41 -11 13 -23 36 -26 50 -3
13 -17 36 -31 51 -13 14 -24 35 -24 47 0 11 -22 64 -50 117 -27 53 -50 101
-50 106 0 10 -61 89 -77 100 -7 4 -13 14 -13 21 0 7 -13 37 -29 67 -21 41 -29
72 -33 129 -3 43 -11 86 -20 100 -9 14 -18 55 -21 91 -4 43 -15 83 -31 114
-15 26 -26 63 -26 82 0 18 -12 57 -26 85 l-26 52 7 216 c6 186 9 219 26 246
18 30 19 55 19 437 l0 405 -25 30 c-14 17 -25 38 -25 48 0 28 -12 40 -44 48
-16 4 -39 15 -51 24 -17 14 -43 17 -132 17 -104 0 -113 -2 -137 -24 -19 -18
-40 -25 -80 -28 l-55 -4 34 34 c84 84 36 207 -81 207 -35 0 -47 -6 -73 -35z
m-2544 -591 c10 -14 40 -49 66 -77 67 -72 102 -147 102 -219 0 -49 -4 -61 -29
-87 -17 -17 -35 -31 -41 -31 -6 0 -25 -14 -42 -30 -17 -17 -48 -37 -68 -46
-61 -25 -65 -14 -73 177 -10 281 -10 284 17 313 31 33 45 33 68 0z m2983 -119
c14 -17 10 -57 -15 -145 -9 -31 -13 -70 -10 -91 4 -21 0 -51 -9 -75 -8 -21
-17 -64 -20 -94 -18 -165 -24 -190 -52 -190 -16 0 -84 66 -84 82 0 6 -25 48
-55 93 -55 82 -55 84 -55 159 0 75 0 75 37 103 20 15 62 51 92 79 107 97 143
113 171 79z m-773 -591 c31 -9 88 -38 127 -65 117 -80 179 -192 179 -324 1
-215 -62 -340 -203 -404 -70 -32 -199 -29 -308 6 -97 32 -194 104 -236 175
-38 65 -59 180 -45 248 40 210 150 348 295 369 92 13 131 12 191 -5z m-1398
-43 c77 -24 131 -61 163 -109 66 -100 78 -125 94 -200 27 -128 1 -264 -69
-352 -16 -21 -146 -130 -155 -130 -4 0 -36 -5 -72 -11 -127 -21 -260 15 -376
101 -61 46 -110 139 -138 265 -17 76 -17 85 -1 170 9 50 22 97 29 105 8 8 21
32 31 52 20 44 106 106 168 122 70 18 252 11 326 -13z"/>
<path d="M2852 6542 c-34 -36 -69 -88 -94 -141 -38 -79 -40 -87 -33 -145 9
-82 40 -152 89 -204 53 -57 92 -76 199 -98 74 -15 93 -16 130 -5 23 6 53 15
67 18 43 10 88 62 109 127 72 226 -4 407 -196 469 -43 14 -109 28 -147 31
l-69 6 -55 -58z"/>
<path d="M1420 6536 c-25 -13 -59 -27 -76 -30 -27 -6 -34 -15 -57 -75 -35 -88
-36 -185 -5 -289 18 -63 29 -81 77 -128 76 -74 154 -104 275 -104 101 0 131
13 184 78 61 77 77 119 80 220 4 81 1 102 -23 167 -30 81 -64 123 -130 158
-33 18 -61 22 -160 24 -110 3 -124 1 -165 -21z"/>
</g>
</svg>
