<?xml version="1.0" standalone="no"?>
<!DOCTYPE svg PUBLIC "-//W3C//DTD SVG 20010904//EN"
 "http://www.w3.org/TR/2001/REC-SVG-20010904/DTD/svg10.dtd">
<svg version="1.0" xmlns="http://www.w3.org/2000/svg"
 width="704.000000pt" height="1280.000000pt" viewBox="0 0 704.000000 1280.000000"
 preserveAspectRatio="xMidYMid meet">
<metadata>
Created by potrace 1.16, written by Peter Selinger 2001-2019
</metadata>
<g transform="translate(0.000000,1280.000000) scale(0.100000,-0.100000)"
fill="#000000" stroke="none">
<path d="M694 7890 c-11 -4 -29 -21 -40 -37 -17 -25 -19 -47 -19 -232 0 -156
-3 -205 -13 -209 -48 -16 -58 -93 -17 -127 23 -19 24 -25 29 -180 3 -88 2
-213 -1 -279 -6 -114 -7 -120 -35 -144 -24 -22 -28 -33 -28 -77 0 -42 -5 -56
-24 -74 -23 -21 -25 -31 -24 -102 1 -69 -2 -83 -21 -103 -20 -21 -22 -35 -24
-155 -2 -131 -2 -133 -29 -156 l-28 -24 0 -235 0 -234 -25 -30 c-20 -24 -25
-41 -25 -84 0 -45 -4 -59 -25 -78 -15 -14 -25 -35 -25 -52 0 -29 -20 -54 -74
-93 -18 -13 -30 -34 -37 -64 -5 -25 -20 -55 -32 -67 -37 -39 -51 -58 -71 -96
-11 -21 -23 -38 -27 -38 -4 0 -24 -26 -43 -59 l-36 -59 0 -1426 0 -1425 29
-15 c16 -9 44 -33 62 -54 19 -22 45 -45 59 -52 14 -7 38 -24 53 -36 20 -17 41
-24 72 -24 35 0 52 -6 78 -30 19 -17 44 -30 56 -30 12 0 33 -12 46 -26 19 -21
29 -24 57 -19 39 7 83 -7 116 -38 l24 -22 1401 0 c1745 0 1763 0 1795 25 29
24 57 28 195 33 90 3 109 6 121 22 10 14 33 20 100 25 68 5 94 12 119 30 26
20 45 24 104 25 59 2 78 6 96 23 16 15 44 23 104 30 57 7 90 16 109 31 19 15
41 21 74 21 34 0 58 7 83 24 20 14 53 28 72 32 20 3 49 17 65 30 15 13 35 24
43 24 8 0 31 7 50 15 20 8 47 15 59 15 14 0 33 13 47 30 13 17 30 30 37 30 8
0 28 14 46 30 17 17 42 30 55 30 13 0 34 6 46 14 14 9 65 17 136 22 91 6 123
12 158 31 24 12 59 23 77 23 22 0 42 8 58 25 15 15 48 30 84 38 32 8 87 28
122 46 68 35 162 98 162 110 0 4 12 13 26 20 100 45 310 279 365 406 7 17 24
43 36 58 13 16 23 37 23 47 0 9 7 24 17 31 20 17 43 70 43 101 0 13 12 46 25
73 14 28 25 66 25 85 0 19 11 76 25 125 20 73 25 113 25 210 0 127 -14 251
-30 270 -11 14 -29 131 -30 195 0 30 -9 59 -25 85 -14 22 -25 48 -25 58 0 11
-9 32 -21 48 -11 16 -25 45 -30 64 -5 19 -20 47 -32 62 -13 15 -28 40 -34 55
-19 42 -83 121 -119 146 -19 12 -34 26 -34 31 0 12 -138 115 -185 138 -142 71
-344 91 -440 43 -125 -61 -185 -119 -201 -193 -6 -29 -18 -67 -25 -84 -16 -39
-5 -89 36 -175 47 -96 59 -112 131 -178 38 -36 76 -80 83 -97 7 -18 17 -33 22
-33 5 0 25 -25 44 -55 20 -30 40 -55 45 -55 5 0 14 -19 21 -42 6 -24 20 -53
31 -65 17 -18 19 -30 14 -75 -4 -29 -10 -87 -14 -128 -8 -83 -16 -102 -78
-177 -23 -29 -45 -66 -49 -82 -6 -29 -51 -82 -115 -135 -33 -27 -164 -82 -223
-93 -38 -7 -67 20 -67 64 0 19 -5 44 -12 56 -7 12 -15 73 -18 135 -6 96 -10
115 -28 135 -12 13 -22 30 -22 38 0 9 -11 26 -25 39 -15 14 -25 35 -25 52 0
16 -8 41 -18 56 -58 84 -72 110 -72 131 0 13 -9 33 -21 45 -56 58 -89 109 -89
141 0 21 -8 41 -24 56 -13 13 -33 43 -44 65 -12 23 -28 44 -37 47 -8 4 -15 17
-15 31 0 13 -11 37 -24 53 -13 15 -26 38 -30 49 -4 12 -17 34 -30 49 -13 15
-27 40 -30 56 -3 15 -26 58 -51 96 -25 37 -49 79 -52 93 -3 14 -16 39 -27 55
-48 68 -86 139 -86 159 0 8 -11 27 -25 42 -14 15 -28 39 -32 53 -3 14 -30 53
-60 86 -29 33 -53 68 -53 78 0 10 -11 40 -25 67 -14 27 -25 54 -25 59 0 6 -11
21 -25 35 -14 14 -25 36 -25 49 0 13 -8 35 -18 48 -21 27 -82 150 -82 165 0 5
-18 31 -40 58 -63 75 -110 184 -110 251 0 32 -7 69 -16 88 -9 17 -20 64 -25
104 -5 49 -16 87 -33 116 -15 24 -26 58 -26 76 0 17 -10 51 -22 74 -22 40 -23
52 -22 273 1 221 2 233 23 262 21 30 22 38 24 441 l2 410 -27 28 c-14 15 -28
39 -30 53 -2 18 -11 26 -36 31 -18 4 -41 14 -52 24 -15 13 -42 18 -122 21 -96
3 -105 2 -147 -23 -41 -24 -54 -26 -139 -24 -89 2 -94 1 -113 -23 -11 -15 -28
-26 -38 -26 -10 0 -40 -11 -67 -25 -28 -14 -66 -25 -90 -25 -27 0 -47 -6 -58
-18 -9 -11 -34 -24 -55 -31 -21 -6 -45 -21 -54 -34 -8 -13 -26 -23 -43 -25
-15 -1 -44 -13 -64 -27 -47 -33 -73 -32 -110 5 l-31 30 -179 0 c-179 0 -179 0
-203 25 l-23 26 -468 -1 -468 0 -30 25 c-19 16 -42 25 -65 25 -26 0 -40 7 -55
25 -11 14 -26 25 -35 25 -8 0 -28 11 -45 25 -16 14 -41 25 -54 25 -15 0 -39
14 -60 35 -19 19 -44 35 -55 35 -12 0 -23 10 -29 25 -5 14 -13 25 -17 25 -5 0
-87 2 -183 4 -96 3 -184 1 -196 -4z m238 -533 c12 -18 44 -54 69 -82 48 -52
89 -144 89 -201 0 -39 -33 -91 -71 -112 -17 -9 -49 -32 -71 -49 -39 -33 -90
-44 -103 -23 -3 5 -9 92 -12 192 -10 285 -11 267 20 294 32 27 47 24 79 -19z
m2969 -114 c9 -22 7 -44 -7 -97 -9 -38 -18 -99 -19 -136 -1 -36 -5 -72 -9 -78
-9 -15 -36 -177 -36 -219 0 -69 -68 -56 -111 21 -12 23 -35 57 -51 77 -15 20
-28 40 -28 44 0 4 -9 18 -20 32 -16 21 -20 41 -20 107 l0 82 68 49 c37 27 91
71 120 97 63 56 97 63 113 21z m-2958 -555 c58 3 75 -1 111 -22 43 -25 76 -74
76 -113 0 -10 17 -36 37 -57 34 -37 37 -38 50 -20 8 10 16 29 20 42 3 12 9 22
13 22 4 0 33 24 65 54 l57 55 131 -1 c137 -1 255 -21 302 -52 14 -9 33 -16 44
-16 11 0 22 -9 26 -19 6 -18 7 -18 43 2 25 13 46 18 62 14 49 -13 55 -23 60
-102 5 -73 4 -75 -17 -75 -13 0 -23 5 -23 10 0 7 -6 7 -18 1 -17 -9 -17 -13
-3 -75 12 -50 20 -66 34 -66 13 0 17 -9 17 -40 0 -28 -4 -40 -14 -40 -9 0 -17
-21 -24 -60 -19 -103 -87 -202 -188 -272 -117 -81 -363 -46 -503 72 -39 32
-54 55 -79 117 -17 43 -38 111 -47 151 -9 39 -20 72 -23 72 -16 -1 -29 -17
-36 -44 -22 -89 -122 -140 -209 -107 -15 6 -40 6 -63 1 -83 -19 -161 28 -185
111 -7 24 -25 57 -41 73 -60 61 -57 161 7 220 18 17 38 47 44 67 22 68 97 114
166 102 22 -4 71 -6 108 -5z m2179 -23 c88 -23 189 -92 238 -165 52 -77 84
-184 76 -255 -21 -174 -24 -192 -47 -228 -46 -74 -81 -106 -145 -137 -56 -26
-75 -30 -152 -30 -84 0 -185 24 -255 61 -41 22 -119 94 -148 136 -35 50 -64
189 -48 230 5 13 9 36 9 51 0 66 86 231 143 274 95 73 209 95 329 63z"/>
<path d="M914 6536 c-35 -55 8 -166 65 -166 45 0 65 31 57 87 -8 62 -34 97
-74 101 -24 2 -34 -3 -48 -22z"/>
<path d="M1470 6554 c0 -3 11 -15 25 -26 18 -14 25 -29 25 -52 0 -49 -30 -71
-97 -71 -48 0 -58 4 -79 28 -13 15 -24 32 -24 38 0 16 39 10 60 -11 23 -23 58
-26 84 -7 44 32 -18 65 -100 52 -49 -7 -50 -8 -81 -85 -32 -76 -36 -106 -25
-175 21 -130 41 -177 95 -228 84 -80 156 -107 287 -107 99 0 126 12 183 82 52
63 77 129 77 199 0 33 -4 59 -10 59 -5 0 -10 -13 -10 -30 0 -19 -5 -30 -14
-30 -11 0 -14 14 -13 60 1 39 6 60 13 60 7 0 10 -8 7 -20 -6 -24 15 -27 24 -4
9 25 -59 194 -78 194 -5 0 -9 -18 -9 -40 0 -32 -4 -40 -19 -40 -15 0 -19 10
-24 57 -3 31 -13 63 -21 72 -15 14 -16 11 -16 -31 0 -39 -5 -50 -31 -72 -39
-33 -79 -33 -118 0 -33 28 -42 75 -21 115 10 18 7 19 -40 19 -27 0 -50 -3 -50
-6z"/>
<path d="M745 6495 c-27 -26 -30 -43 -15 -94 20 -70 78 -102 113 -63 36 39 10
154 -38 172 -35 13 -32 14 -60 -15z"/>
<path d="M2907 6590 c-25 -9 -104 -103 -135 -161 -47 -87 -55 -120 -44 -193
15 -93 53 -163 115 -212 57 -45 86 -56 194 -75 65 -11 80 -10 135 6 115 34
154 95 168 265 8 89 6 99 -18 160 -35 87 -96 148 -178 178 -62 22 -209 43
-237 32z"/>
</g>
</svg>
