<?xml version="1.0" standalone="no"?>
<!DOCTYPE svg PUBLIC "-//W3C//DTD SVG 20010904//EN"
 "http://www.w3.org/TR/2001/REC-SVG-20010904/DTD/svg10.dtd">
<svg version="1.0" xmlns="http://www.w3.org/2000/svg"
 width="704.000000pt" height="1280.000000pt" viewBox="0 0 704.000000 1280.000000"
 preserveAspectRatio="xMidYMid meet">
<metadata>
Created by potrace 1.16, written by Peter Selinger 2001-2019
</metadata>
<g transform="translate(0.000000,1280.000000) scale(0.100000,-0.100000)"
fill="#000000" stroke="none">
<path d="M4650 10564 c-176 -16 -337 -38 -432 -60 -622 -140 -1072 -488 -1190
-921 -31 -115 -31 -327 0 -437 116 -409 499 -731 1052 -887 241 -68 489 -94
804 -86 402 11 697 77 1001 226 290 143 496 331 622 568 124 235 129 516 13
768 -192 415 -712 727 -1350 810 -122 16 -430 27 -520 19z m350 -164 c696 -52
1254 -370 1399 -797 95 -282 20 -562 -214 -798 -249 -251 -604 -405 -1065
-461 -171 -21 -579 -15 -740 10 -139 22 -364 86 -497 141 -452 190 -713 506
-713 865 0 224 87 410 274 587 344 326 939 499 1556 453z"/>
<path d="M4295 9906 c-141 -34 -227 -132 -257 -293 -13 -73 6 -182 48 -268 36
-72 162 -224 262 -314 120 -108 346 -271 376 -271 16 0 114 64 221 145 100 75
284 252 333 319 20 28 40 53 44 56 4 3 24 41 45 85 37 77 38 84 38 185 0 93
-3 112 -26 161 -59 126 -149 188 -286 197 -69 4 -92 1 -142 -18 -74 -27 -170
-111 -200 -175 -12 -25 -25 -45 -29 -45 -4 0 -18 22 -31 50 -44 93 -153 172
-254 185 -23 3 -53 7 -67 9 -14 2 -47 -2 -75 -8z m55 -121 c27 -24 13 -62 -35
-95 -24 -16 -55 -50 -69 -75 -30 -50 -60 -59 -91 -25 -34 38 11 146 80 190 36
24 92 26 115 5z"/>
<path d="M3780 8311 c-90 -28 -141 -85 -148 -166 -19 -227 294 -283 367 -66
29 88 -39 203 -136 230 -43 12 -48 12 -83 2z m98 -91 c11 0 42 -71 42 -97 0
-39 -40 -89 -79 -98 -87 -19 -163 84 -114 155 30 45 71 61 118 48 16 -4 31 -8
33 -8z"/>
<path d="M3462 7966 c-54 -62 -51 -121 9 -177 21 -20 26 -29 15 -29 -8 0 -20
-8 -25 -19 -6 -10 -26 -21 -47 -24 -20 -3 -45 -14 -55 -23 -16 -14 -46 -21
-101 -23 -10 -1 -27 -10 -37 -20 -11 -11 -38 -25 -60 -31 -23 -6 -41 -15 -41
-20 0 -12 -53 -40 -76 -40 -9 0 -29 -11 -46 -25 -40 -34 -77 -32 -110 5 l-26
30 -186 0 -186 0 -16 25 -16 25 -476 0 -475 0 -23 25 c-14 15 -34 25 -52 25
-15 0 -43 11 -62 25 -19 14 -39 25 -46 25 -7 0 -26 11 -42 25 -17 14 -41 25
-55 25 -16 0 -33 12 -51 35 -18 23 -35 35 -51 35 -16 0 -28 9 -37 28 l-13 27
-155 2 c-214 2 -234 -1 -262 -40 -22 -31 -23 -40 -23 -234 l0 -201 -28 -22
c-24 -19 -28 -28 -25 -64 2 -31 8 -43 24 -50 20 -9 22 -19 27 -130 3 -67 5
-137 5 -156 0 -19 1 -46 1 -60 1 -14 -1 -72 -5 -130 -6 -96 -8 -107 -31 -125
-19 -16 -26 -33 -30 -75 -3 -37 -12 -62 -29 -83 -21 -25 -24 -38 -24 -111 0
-69 -3 -86 -19 -100 -17 -15 -20 -35 -23 -151 -3 -132 -3 -133 -30 -155 l-28
-21 0 -235 0 -235 -27 -25 c-23 -21 -27 -33 -26 -77 1 -41 -4 -57 -22 -77 -12
-14 -25 -43 -28 -65 -6 -38 -17 -52 -65 -85 -13 -8 -30 -35 -38 -59 -8 -24
-26 -58 -39 -75 -36 -46 -52 -67 -82 -111 -15 -22 -42 -62 -60 -89 l-33 -48 0
-1429 c0 -833 4 -1429 9 -1429 5 0 36 -27 69 -59 34 -33 70 -62 81 -66 12 -3
34 -17 49 -30 20 -16 43 -25 75 -26 36 -2 53 -9 74 -31 17 -17 37 -28 54 -28
17 0 34 -8 42 -20 11 -16 30 -22 73 -26 37 -4 66 -13 79 -25 35 -31 343 -39
1600 -39 1275 0 1626 8 1660 39 17 16 41 20 151 23 114 4 134 8 151 25 15 15
40 22 104 27 64 5 89 12 106 27 17 17 37 22 97 24 62 2 83 7 114 28 28 19 55
26 110 31 52 4 81 12 99 26 18 14 41 20 73 20 36 0 56 7 88 30 26 18 54 30 74
30 17 0 40 7 50 17 25 22 127 63 159 63 19 0 35 11 53 35 15 19 35 35 45 35 9
0 27 11 39 25 12 14 31 25 42 25 12 0 33 6 48 14 16 8 75 17 137 21 84 5 122
12 160 30 28 13 65 26 83 29 19 3 47 16 62 29 17 14 54 29 91 36 35 7 76 21
90 32 15 10 30 19 35 19 11 0 105 61 146 94 20 17 56 46 81 64 59 43 199 185
212 215 6 12 16 30 23 37 22 26 60 87 81 132 12 24 32 61 46 83 38 63 65 118
65 138 0 10 9 36 20 57 11 22 24 66 29 97 4 32 18 96 31 143 20 76 22 101 18
245 -4 131 -9 169 -26 211 -12 30 -25 94 -30 157 -6 63 -16 114 -26 129 -8 13
-22 43 -31 68 -8 24 -22 51 -29 60 -7 8 -16 28 -20 43 -4 15 -20 47 -36 69
-17 23 -30 47 -30 54 0 32 -205 235 -292 290 -114 72 -370 117 -455 80 -138
-61 -216 -134 -227 -214 -3 -27 -13 -55 -21 -62 -24 -20 -18 -90 14 -162 16
-35 37 -70 45 -77 9 -8 16 -20 16 -27 0 -8 38 -53 85 -100 47 -47 85 -92 85
-99 0 -7 11 -23 25 -36 14 -13 35 -41 46 -62 11 -21 26 -40 34 -44 8 -3 20
-23 26 -45 6 -23 20 -53 31 -69 17 -23 20 -36 13 -76 -4 -26 -10 -82 -14 -123
-7 -84 -16 -103 -78 -177 -24 -28 -46 -61 -48 -74 -13 -65 -129 -171 -212
-194 -26 -7 -61 -20 -78 -29 -35 -18 -68 -20 -96 -6 -14 8 -19 21 -19 54 0 24
-7 60 -15 79 -10 23 -15 69 -15 126 0 82 -2 92 -25 117 -14 15 -25 35 -25 44
0 10 -9 29 -21 44 -11 14 -25 41 -30 60 -5 18 -18 43 -29 56 -11 13 -20 27
-20 32 0 6 -9 21 -20 35 -11 14 -20 38 -20 54 0 19 -8 34 -25 45 -14 9 -25 22
-25 29 0 7 -13 26 -30 42 -22 21 -30 37 -30 64 0 25 -9 45 -30 69 -16 18 -30
39 -30 45 0 7 -16 29 -35 49 -19 21 -35 47 -35 58 0 11 -11 33 -25 50 -14 16
-25 36 -25 45 0 8 -11 28 -25 45 -14 16 -25 40 -25 53 0 13 -11 36 -24 52 -37
44 -86 125 -86 143 0 8 -25 50 -55 93 -30 42 -55 88 -55 100 0 13 -11 34 -25
47 -13 12 -30 39 -36 59 -7 20 -31 59 -55 86 -23 28 -47 69 -53 91 -6 23 -18
47 -26 54 -8 7 -17 27 -21 45 -3 18 -17 43 -30 56 -13 12 -24 33 -24 45 0 12
-11 35 -23 51 -13 15 -27 41 -31 57 -4 16 -16 41 -27 54 -10 14 -19 32 -19 41
0 9 -23 42 -50 74 -28 32 -50 68 -50 78 0 11 -11 35 -25 53 -20 27 -25 44 -25
95 0 38 -7 80 -19 109 -11 26 -22 74 -24 107 -3 38 -14 78 -31 109 -14 27 -26
64 -26 83 0 18 -12 57 -26 84 l-25 51 6 217 c6 186 10 221 26 249 18 31 19 58
19 436 l0 403 -23 35 c-13 19 -27 46 -31 61 -5 20 -13 27 -30 27 -13 0 -35 10
-50 21 -23 18 -44 22 -127 26 -99 3 -151 -9 -161 -38 -2 -6 -32 -13 -66 -16
l-63 -6 35 35 c45 45 56 99 30 147 -23 43 -55 61 -110 61 -35 0 -47 -6 -72
-34z m-2540 -598 c12 -18 48 -61 80 -94 57 -63 73 -98 85 -185 6 -53 -13 -91
-58 -115 -16 -8 -45 -29 -65 -47 -56 -49 -85 -58 -106 -34 -18 20 -20 37 -23
197 -1 47 -2 112 -4 145 -4 96 -2 111 20 139 27 34 43 33 71 -6z m2976 -116
c16 -21 15 -57 -4 -112 -9 -25 -17 -79 -18 -120 -2 -42 -8 -85 -13 -95 -6 -11
-16 -68 -23 -128 -14 -116 -25 -143 -56 -133 -21 7 -36 26 -124 164 l-60 93 0
77 0 78 68 50 c37 27 93 72 124 101 59 54 78 59 106 25z m-2916 -558 c15 -8
34 -24 42 -36 8 -12 39 -33 68 -47 56 -27 97 -82 98 -128 0 -37 18 -27 41 22
12 25 35 55 53 67 17 12 40 32 51 45 25 30 85 45 128 32 18 -5 59 -7 92 -3 64
6 209 -24 250 -52 11 -8 29 -14 42 -14 12 0 24 -8 28 -19 6 -18 7 -18 43 2 25
13 46 18 62 14 49 -13 55 -23 60 -102 5 -73 4 -75 -17 -75 -13 0 -23 5 -23 10
0 7 -6 7 -18 1 -17 -9 -17 -13 -3 -75 12 -50 20 -66 34 -66 13 0 17 -9 17 -40
0 -29 -4 -40 -15 -40 -8 0 -17 -10 -19 -22 -29 -154 -53 -195 -173 -293 -44
-36 -62 -44 -125 -54 -134 -22 -289 20 -393 104 -48 40 -103 144 -125 238 -7
31 -16 57 -19 57 -3 0 -26 -14 -50 -30 -24 -17 -55 -30 -69 -30 -13 0 -39 -13
-58 -30 -64 -56 -152 -52 -213 9 -21 21 -50 41 -64 45 -36 9 -92 59 -107 96
-8 18 -10 45 -5 72 4 24 6 66 6 93 -2 118 33 175 122 195 28 7 62 21 74 32 49
45 122 54 185 22z m2160 -35 c85 -28 181 -99 223 -165 19 -29 46 -91 61 -138
23 -74 25 -90 14 -118 -7 -18 -16 -67 -20 -108 -7 -64 -14 -85 -48 -135 -50
-76 -64 -88 -135 -120 -84 -37 -201 -36 -316 2 -107 36 -201 110 -242 193 -39
77 -54 168 -38 234 30 128 100 263 162 310 82 63 228 83 339 45z"/>
<path d="M914 6536 c-35 -55 8 -166 65 -166 45 0 65 31 57 87 -8 62 -34 97
-74 101 -24 2 -34 -3 -48 -22z"/>
<path d="M1470 6554 c0 -3 11 -15 25 -26 18 -14 25 -29 25 -52 0 -49 -30 -71
-97 -71 -48 0 -58 4 -79 29 -14 15 -23 33 -21 40 6 16 35 8 58 -15 22 -22 57
-25 83 -6 25 18 10 45 -30 53 -28 5 -124 -2 -124 -9 0 -1 -11 -33 -25 -72 -30
-85 -33 -187 -8 -283 15 -59 25 -74 76 -124 80 -78 158 -108 282 -108 103 0
119 7 184 82 58 65 81 120 81 196 0 35 -4 62 -10 62 -5 0 -10 -13 -10 -30 0
-20 -5 -30 -15 -30 -13 0 -15 11 -13 63 2 37 7 60 13 57 6 -3 9 -13 9 -23 -2
-24 20 -16 23 9 4 25 -59 177 -74 182 -9 2 -13 -9 -13 -37 0 -33 -4 -41 -19
-41 -15 0 -19 11 -25 62 -8 77 -30 98 -34 33 -6 -84 -89 -122 -151 -69 -33 28
-42 75 -21 115 10 18 7 19 -40 19 -27 0 -50 -3 -50 -6z"/>
<path d="M745 6495 c-27 -26 -30 -43 -15 -94 20 -70 78 -102 113 -63 33 36 12
148 -31 171 -30 16 -40 14 -67 -14z"/>
<path d="M2886 6582 c-6 -8 -30 -35 -52 -60 -23 -26 -58 -82 -79 -125 l-38
-79 11 -71 c6 -40 20 -93 32 -119 27 -61 117 -142 173 -156 79 -19 149 -32
176 -32 40 0 128 34 155 59 40 38 68 117 78 219 8 90 7 94 -22 165 -34 79 -57
108 -110 141 -83 52 -298 91 -324 58z"/>
</g>
</svg>
