<?xml version="1.0" standalone="no"?>
<!DOCTYPE svg PUBLIC "-//W3C//DTD SVG 20010904//EN"
 "http://www.w3.org/TR/2001/REC-SVG-20010904/DTD/svg10.dtd">
<svg version="1.0" xmlns="http://www.w3.org/2000/svg"
 width="704.000000pt" height="1280.000000pt" viewBox="0 0 704.000000 1280.000000"
 preserveAspectRatio="xMidYMid meet">
<metadata>
Created by potrace 1.16, written by Peter Selinger 2001-2019
</metadata>
<g transform="translate(0.000000,1280.000000) scale(0.100000,-0.100000)"
fill="#000000" stroke="none">
<path d="M4665 10563 c-135 -9 -342 -37 -444 -59 -450 -100 -815 -311 -1026
-592 -79 -105 -126 -198 -161 -317 -24 -78 -27 -109 -28 -230 0 -117 3 -153
22 -219 141 -489 650 -845 1367 -952 143 -22 506 -30 662 -14 500 48 886 195
1181 450 130 112 242 266 305 415 58 138 75 343 42 499 -81 386 -453 731 -970
901 -278 91 -653 138 -950 118z m342 -163 c220 -18 369 -46 557 -106 380 -122
685 -357 807 -620 50 -108 63 -177 63 -319 -1 -114 -4 -140 -28 -210 -43 -127
-108 -227 -221 -340 -117 -118 -211 -184 -372 -264 -170 -84 -355 -141 -588
-183 -145 -25 -542 -36 -711 -18 -360 36 -688 148 -933 319 -97 67 -239 214
-296 304 -133 215 -152 483 -50 705 87 190 305 396 548 518 333 168 793 248
1224 214z"/>
<path d="M3762 8307 c-121 -44 -170 -177 -101 -280 35 -53 95 -87 155 -87 80
1 162 61 182 133 10 36 2 110 -15 142 -29 52 -114 106 -165 104 -13 0 -38 -6
-56 -12z m92 -81 c71 -30 89 -110 37 -168 -25 -28 -36 -33 -76 -33 -40 0 -51
5 -76 33 -49 55 -35 131 31 164 42 22 42 22 84 4z"/>
<path d="M3461 7965 c-51 -59 -39 -138 29 -192 13 -10 13 -12 1 -13 -8 0 -25
-10 -37 -21 -13 -12 -35 -23 -50 -25 -14 -1 -36 -12 -48 -23 -16 -15 -35 -21
-67 -21 -32 0 -55 -7 -79 -25 -19 -14 -44 -25 -56 -25 -14 0 -31 -12 -44 -30
-15 -21 -30 -30 -50 -30 -16 0 -42 -11 -58 -25 -43 -36 -101 -32 -120 10 -11
24 -13 24 -174 24 -90 0 -175 0 -191 1 -16 0 -36 10 -48 24 l-21 24 -468 -1
-467 -1 -32 27 c-18 15 -43 27 -56 27 -13 0 -37 11 -53 25 -17 14 -35 25 -40
25 -6 0 -28 11 -48 25 -20 14 -47 25 -60 25 -14 0 -32 12 -46 30 -13 18 -31
30 -44 30 -13 0 -33 13 -46 29 -23 29 -25 29 -133 32 -60 1 -144 2 -186 1 -75
-2 -77 -3 -104 -38 l-28 -36 -1 -193 -1 -193 -28 -26 c-37 -34 -38 -91 -2
-122 24 -20 25 -27 33 -200 4 -98 5 -201 1 -229 -4 -27 -8 -73 -8 -101 -1 -44
-5 -54 -26 -68 -18 -12 -25 -25 -25 -49 0 -50 -17 -98 -41 -115 -19 -13 -21
-21 -16 -78 7 -67 -4 -120 -27 -138 -11 -8 -15 -42 -18 -144 -3 -132 -3 -134
-30 -156 l-28 -22 0 -232 0 -233 -27 -27 c-24 -23 -27 -34 -26 -78 2 -43 -2
-56 -22 -78 -18 -19 -25 -38 -25 -66 0 -34 -4 -41 -43 -63 -44 -26 -61 -50
-72 -102 -3 -16 -15 -39 -26 -50 -33 -34 -69 -82 -69 -92 0 -5 -8 -18 -19 -29
-10 -11 -35 -42 -55 -68 l-36 -48 0 -1432 0 -1433 40 -28 c23 -16 48 -41 57
-56 10 -16 35 -36 57 -45 23 -8 49 -24 59 -35 13 -14 31 -19 66 -19 40 0 52
-5 76 -30 19 -20 39 -30 58 -30 18 0 36 -8 46 -22 14 -17 31 -22 75 -25 38 -2
62 -9 75 -22 14 -14 41 -20 112 -26 79 -6 2905 -8 3055 -1 35 1 59 9 79 24 25
20 39 22 148 22 111 0 124 2 156 24 28 19 54 25 114 29 60 4 83 10 100 25 17
15 42 22 105 28 58 4 90 12 107 26 15 12 53 22 105 29 49 6 93 17 108 28 15
11 51 22 81 25 34 3 67 15 91 31 20 14 48 25 62 25 14 0 36 9 50 20 28 21 94
47 150 59 21 5 50 21 66 37 40 40 102 84 119 84 8 0 27 7 44 15 19 10 75 19
159 24 115 6 132 10 150 29 14 15 33 22 59 22 27 0 49 8 74 29 20 15 54 31 75
35 81 12 236 103 356 206 23 20 57 48 77 62 85 63 173 173 245 306 15 28 31
52 35 52 4 0 13 17 20 38 7 20 21 48 31 63 10 14 25 53 33 88 9 34 22 69 29
77 8 8 18 36 21 62 8 61 19 111 40 192 25 94 17 376 -13 435 -12 24 -25 81
-32 140 -6 55 -19 116 -29 135 -10 20 -22 50 -26 68 -3 17 -11 34 -15 37 -5 3
-32 51 -59 106 -55 112 -79 145 -166 231 -132 130 -212 179 -350 214 -167 44
-280 26 -395 -62 -79 -59 -92 -77 -101 -135 -5 -28 -16 -60 -25 -70 -19 -21
-16 -76 9 -130 9 -19 19 -45 23 -59 4 -14 17 -38 30 -53 13 -16 24 -34 24 -40
0 -14 69 -88 116 -123 18 -14 36 -36 40 -47 4 -12 21 -39 38 -59 75 -90 88
-110 98 -145 6 -21 20 -51 31 -68 27 -38 28 -47 11 -103 -7 -26 -14 -73 -14
-105 0 -68 -7 -84 -70 -157 -26 -30 -52 -72 -59 -92 -8 -23 -38 -63 -77 -101
-57 -57 -73 -67 -139 -86 -41 -11 -77 -26 -80 -31 -11 -17 -71 -11 -88 8 -10
10 -17 35 -17 56 0 20 -6 47 -12 59 -7 12 -15 69 -18 127 -4 84 -9 111 -26
135 -56 80 -74 113 -74 132 0 11 -8 31 -18 44 -37 49 -72 118 -72 144 0 14 -7
28 -15 32 -9 3 -25 23 -35 44 -11 21 -29 43 -40 49 -15 8 -20 21 -20 55 0 36
-5 48 -25 61 -13 9 -27 26 -31 37 -4 12 -22 39 -40 60 -19 20 -34 45 -34 55 0
10 -11 33 -25 52 -14 19 -25 39 -25 44 0 6 -14 29 -30 50 -17 22 -30 52 -30
67 0 15 -8 34 -17 41 -21 15 -83 114 -83 132 0 6 -16 36 -36 66 -45 70 -74
125 -74 143 0 7 -13 26 -29 41 -16 15 -31 40 -34 55 -3 15 -28 55 -56 90 -28
35 -51 72 -51 83 0 10 -11 36 -25 56 -14 20 -25 41 -25 47 0 6 -11 26 -25 45
-14 19 -25 43 -25 55 0 12 -11 36 -25 55 -14 19 -25 40 -25 48 0 8 -9 25 -20
39 -11 14 -20 32 -20 41 0 14 -60 101 -92 134 -10 10 -18 28 -18 41 0 13 -11
37 -24 55 -17 24 -24 50 -29 106 -3 40 -12 87 -20 102 -8 16 -18 61 -22 99 -5
45 -16 84 -31 111 -13 22 -24 56 -24 74 0 18 -11 57 -25 86 -25 53 -25 54 -20
271 5 192 8 222 25 251 19 31 20 54 20 439 l1 406 -24 26 c-14 14 -29 40 -34
56 -6 20 -19 33 -39 40 -16 6 -39 17 -50 25 -16 11 -47 15 -128 13 -98 -1
-109 -4 -137 -27 -21 -18 -43 -26 -67 -26 -20 0 -55 -2 -77 -5 -39 -5 -39 -5
-8 5 40 13 80 61 89 105 14 74 -42 135 -122 135 -35 0 -47 -6 -73 -35z m-2545
-592 c14 -16 51 -58 82 -94 111 -128 122 -266 25 -319 -21 -11 -60 -36 -87
-55 -89 -64 -95 -54 -103 171 -10 281 -11 269 16 298 31 33 36 32 67 -1z
m2987 -129 c12 -24 12 -34 -6 -88 -11 -34 -23 -101 -28 -151 -5 -49 -13 -115
-18 -145 -5 -30 -12 -75 -16 -100 -12 -86 -14 -90 -40 -90 -27 0 -58 29 -82
75 -16 30 -25 44 -81 127 -29 42 -32 53 -32 122 0 60 4 79 18 91 51 44 171
143 196 163 39 30 72 29 89 -4z m-762 -584 c120 -41 234 -147 267 -250 37
-113 41 -149 27 -198 -8 -26 -15 -66 -15 -90 0 -49 -44 -139 -91 -188 -17 -17
-55 -43 -84 -58 -46 -22 -66 -26 -147 -26 -77 0 -109 6 -182 30 -50 17 -92 34
-95 38 -4 4 -27 24 -53 45 -73 58 -106 113 -123 205 -14 71 -14 88 0 153 23
113 88 232 157 286 90 72 222 92 339 53z m-1421 -35 c36 -9 75 -23 88 -32 34
-21 101 -95 108 -118 4 -11 15 -31 26 -44 10 -13 28 -55 40 -94 31 -103 23
-221 -21 -303 -41 -75 -44 -79 -116 -140 -77 -65 -70 -62 -152 -74 -133 -21
-318 33 -401 116 -58 58 -132 245 -132 334 0 44 31 174 46 191 8 8 19 30 25
48 12 35 90 91 167 121 56 22 231 19 322 -5z"/>
<path d="M2849 6537 c-57 -64 -116 -172 -125 -229 -6 -37 18 -153 40 -197 20
-38 94 -108 134 -127 18 -9 76 -23 128 -32 89 -15 96 -15 151 3 32 10 72 32
89 48 71 65 100 266 55 380 -44 112 -161 190 -303 202 -40 3 -82 8 -93 10 -15
3 -35 -12 -76 -58z"/>
<path d="M1445 6548 c-11 -7 -46 -22 -78 -33 l-58 -21 -30 -85 c-32 -92 -33
-130 -2 -262 13 -57 23 -75 62 -115 65 -67 80 -76 151 -101 45 -15 88 -21 148
-21 98 0 128 13 186 84 59 73 76 124 76 232 0 87 -3 101 -35 172 -30 65 -43
83 -83 108 -26 17 -62 36 -81 42 -44 16 -230 15 -256 0z"/>
</g>
</svg>
