<?xml version="1.0" standalone="no"?>
<!DOCTYPE svg PUBLIC "-//W3C//DTD SVG 20010904//EN"
 "http://www.w3.org/TR/2001/REC-SVG-20010904/DTD/svg10.dtd">
<svg version="1.0" xmlns="http://www.w3.org/2000/svg"
 width="704.000000pt" height="1280.000000pt" viewBox="0 0 704.000000 1280.000000"
 preserveAspectRatio="xMidYMid meet">
<metadata>
Created by potrace 1.16, written by Peter Selinger 2001-2019
</metadata>
<g transform="translate(0.000000,1280.000000) scale(0.100000,-0.100000)"
fill="#000000" stroke="none">
<path d="M4645 10563 c-295 -19 -585 -84 -808 -179 -128 -55 -146 -64 -255
-131 -295 -179 -486 -411 -553 -671 -136 -526 233 -1044 912 -1277 312 -107
562 -142 944 -132 392 11 714 82 995 220 491 243 757 631 719 1047 -11 115
-32 192 -81 296 -134 287 -411 518 -806 675 -291 116 -711 176 -1067 152z
m515 -179 c241 -31 455 -95 657 -195 323 -159 536 -393 604 -660 8 -31 13
-105 13 -174 0 -132 -16 -200 -76 -319 -123 -246 -405 -465 -751 -582 -254
-87 -427 -115 -735 -121 -333 -7 -517 13 -760 81 -462 131 -787 387 -907 716
-40 109 -47 279 -15 406 40 160 113 278 257 414 263 249 634 396 1123 445 158
16 418 11 590 -11z"/>
<path d="M4210 10016 c-119 -21 -218 -103 -282 -234 -30 -61 -33 -76 -37 -177
-3 -98 0 -120 22 -182 47 -136 121 -246 271 -401 63 -65 223 -201 310 -262 27
-19 70 -50 95 -68 79 -56 120 -82 133 -82 26 0 245 152 383 265 239 197 403
403 452 569 18 59 19 207 2 269 -56 209 -246 336 -459 307 -144 -19 -277 -114
-336 -239 -16 -33 -31 -60 -34 -60 -3 -1 -18 24 -33 55 -88 178 -286 276 -487
240z m69 -150 c34 -36 22 -66 -47 -118 -31 -24 -73 -67 -92 -96 -39 -60 -77
-71 -99 -28 -21 38 -5 143 26 180 74 86 165 112 212 62z"/>
<path d="M3761 8305 c-133 -42 -175 -213 -75 -310 105 -100 266 -56 313 84 26
77 -20 175 -101 215 -58 29 -74 30 -137 11z m94 -79 c64 -27 85 -111 40 -164
-30 -36 -66 -47 -111 -32 -90 30 -98 151 -12 193 41 20 41 20 83 3z"/>
<path d="M3515 8002 c-30 -6 -74 -52 -83 -86 -13 -47 -2 -83 35 -121 22 -23
29 -35 19 -35 -8 0 -20 -8 -25 -19 -6 -11 -27 -22 -48 -26 -21 -4 -46 -14 -55
-22 -10 -9 -41 -18 -70 -21 -34 -3 -64 -13 -84 -28 -17 -13 -38 -24 -47 -24
-9 0 -31 -13 -49 -30 -18 -16 -44 -30 -57 -30 -14 0 -34 -9 -46 -20 -11 -11
-35 -22 -52 -26 -24 -5 -37 0 -65 25 l-36 31 -181 0 -181 0 -16 25 -16 25
-475 0 -475 -1 -20 26 c-14 17 -29 25 -52 25 -19 0 -46 10 -66 25 -19 14 -39
25 -46 25 -6 0 -22 11 -35 25 -17 17 -35 25 -60 25 -30 0 -38 5 -52 35 -13 28
-23 35 -44 35 -20 0 -33 8 -44 29 l-17 29 -183 -3 c-101 -1 -189 -3 -195 -4
-5 0 -21 -16 -34 -33 -24 -32 -25 -37 -25 -230 l0 -197 -27 -28 c-39 -40 -39
-94 0 -121 l27 -20 0 -277 -1 -276 -32 -25 c-29 -23 -32 -31 -32 -78 0 -43 -5
-58 -25 -80 -22 -24 -25 -36 -25 -106 0 -62 -4 -82 -18 -96 -14 -14 -18 -42
-22 -155 -5 -135 -5 -138 -32 -159 l-28 -21 0 -234 0 -234 -27 -25 c-24 -23
-27 -32 -25 -80 1 -45 -2 -58 -23 -80 -16 -18 -25 -39 -25 -61 0 -28 -7 -39
-37 -61 -53 -39 -73 -65 -73 -96 0 -17 -15 -43 -45 -75 -25 -26 -45 -52 -45
-58 0 -5 -20 -35 -44 -66 -84 -107 -76 52 -76 -1539 l0 -1420 39 -28 c21 -15
48 -42 60 -60 12 -19 39 -40 59 -49 20 -8 46 -23 57 -33 11 -10 42 -20 68 -23
34 -3 57 -13 76 -31 15 -14 38 -26 52 -26 14 0 36 -11 49 -25 19 -20 33 -25
72 -25 33 0 58 -6 76 -20 49 -36 350 -42 1789 -36 720 3 1339 8 1376 10 53 3
73 9 88 25 18 19 31 21 143 21 113 0 126 2 158 23 25 18 54 25 113 30 61 6 84
12 102 29 19 18 40 23 107 27 60 4 89 11 103 24 13 11 50 21 103 28 55 6 92
17 108 30 17 13 40 19 72 19 37 0 55 6 85 30 24 19 49 30 69 30 17 0 43 8 56
17 26 18 101 46 156 57 18 4 40 20 53 36 12 17 27 30 34 30 7 0 27 14 45 30
18 17 42 30 54 30 11 0 32 7 46 15 17 9 76 18 154 23 111 7 131 11 151 30 15
14 36 22 59 22 24 0 46 8 66 25 16 14 58 32 93 41 35 8 91 29 124 46 139 72
437 326 451 385 4 13 10 23 14 23 8 0 67 96 83 135 5 11 16 29 26 40 10 11 22
31 26 44 4 12 17 38 30 57 12 18 26 50 30 71 4 20 15 54 26 75 11 21 22 59 25
85 4 27 17 93 31 148 23 91 25 113 20 255 -4 127 -9 165 -26 208 -14 34 -23
87 -27 145 -5 69 -12 104 -30 139 -13 26 -24 54 -24 61 0 8 -11 30 -23 49 -13
19 -27 48 -31 64 -4 16 -18 43 -31 60 -13 16 -30 46 -38 65 -19 47 -189 212
-279 272 -103 67 -213 100 -342 100 -111 1 -140 -8 -232 -69 -76 -50 -110 -93
-118 -150 -4 -27 -13 -58 -21 -68 -28 -37 -14 -106 41 -206 7 -14 20 -39 28
-55 8 -17 51 -65 95 -108 45 -43 81 -83 81 -91 0 -7 12 -23 26 -37 14 -13 33
-37 41 -53 8 -16 24 -38 35 -50 10 -11 24 -40 30 -63 6 -24 14 -43 19 -43 5 0
15 -12 22 -27 12 -24 12 -37 1 -83 -7 -30 -13 -77 -14 -103 0 -60 -16 -98 -69
-165 -23 -29 -50 -72 -60 -95 -37 -83 -120 -153 -231 -192 -109 -38 -117 -39
-145 -21 -19 12 -25 25 -25 52 0 19 -7 51 -15 72 -10 23 -16 68 -16 123 0 76
-3 91 -25 120 -13 18 -24 38 -24 45 0 6 -11 28 -25 48 -14 20 -25 47 -25 60 0
12 -10 33 -21 45 -29 31 -69 111 -69 138 0 12 -8 28 -19 35 -10 7 -25 27 -34
43 -8 17 -25 38 -36 47 -14 12 -21 30 -21 53 0 21 -8 43 -19 54 -11 11 -28 35
-37 53 -9 18 -30 45 -45 59 -16 15 -29 36 -29 47 0 10 -8 30 -18 43 -10 13
-24 38 -32 54 -8 17 -25 43 -37 58 -13 16 -23 41 -23 55 0 16 -8 32 -20 40
-11 7 -20 16 -20 22 0 5 -13 31 -30 57 -16 26 -30 53 -30 61 0 7 -23 48 -51
90 -28 42 -56 90 -62 107 -5 16 -18 39 -27 50 -10 11 -25 37 -33 57 -9 20 -34
60 -56 88 -22 28 -45 69 -51 90 -6 21 -16 40 -24 43 -7 3 -16 20 -20 37 -3 18
-17 45 -31 62 -14 16 -25 40 -25 53 0 13 -11 37 -25 53 -14 17 -25 36 -25 43
0 8 -11 32 -25 54 -13 22 -25 47 -25 55 0 8 -23 41 -50 73 -28 32 -50 68 -50
79 0 11 -11 33 -25 50 -21 25 -25 40 -25 101 -1 50 -7 84 -20 112 -11 24 -19
62 -20 93 0 39 -8 67 -30 109 -16 31 -30 70 -30 87 0 17 -12 53 -26 80 l-26
49 7 226 c6 198 10 229 26 253 18 25 19 50 19 435 0 398 -1 410 -20 428 -11
10 -25 36 -32 57 -8 29 -16 38 -33 38 -12 0 -35 10 -50 22 -24 18 -42 22 -131
24 -100 3 -104 2 -139 -26 -30 -24 -44 -28 -89 -27 l-54 1 24 19 c57 45 71
126 29 175 -25 30 -83 51 -120 44z m-2610 -610 c6 -4 19 -20 30 -37 10 -16 39
-52 64 -80 59 -64 67 -80 82 -154 11 -53 11 -65 -4 -96 -9 -20 -31 -44 -49
-53 -17 -9 -47 -31 -67 -47 -51 -43 -85 -57 -105 -42 -14 10 -18 41 -23 177
-11 284 -11 285 16 314 25 27 38 31 56 18z m2994 -131 c19 -12 17 -57 -4 -111
-10 -26 -17 -72 -17 -110 0 -36 -6 -83 -13 -105 -7 -22 -19 -85 -25 -140 -14
-107 -23 -135 -45 -135 -16 0 -85 78 -85 97 0 7 -8 21 -18 31 -11 11 -35 44
-55 74 -34 51 -37 60 -37 129 0 41 4 79 8 85 4 6 27 24 52 41 25 17 75 58 110
92 65 60 96 73 129 52z m-2927 -580 c18 -15 49 -31 68 -35 92 -17 148 -94 135
-187 -5 -33 -3 -49 4 -49 6 0 11 9 11 19 0 11 5 23 10 26 6 4 22 29 35 56 14
27 29 49 33 49 4 0 28 20 54 45 45 42 78 54 123 45 6 -1 46 -1 90 -1 89 0 199
-21 260 -50 22 -10 48 -19 57 -19 9 0 19 -9 23 -19 6 -18 7 -18 43 2 25 13 46
18 62 14 49 -13 55 -23 60 -102 5 -72 4 -75 -17 -75 -12 0 -23 4 -25 10 -2 5
-9 6 -16 1 -20 -12 6 -132 30 -139 23 -6 26 -82 4 -82 -9 0 -18 -21 -25 -61
-12 -73 -47 -135 -114 -207 -66 -69 -103 -91 -177 -103 -130 -21 -294 24 -397
108 -52 43 -101 139 -123 241 -7 34 -15 62 -19 62 -3 0 -24 -12 -46 -25 -22
-14 -46 -25 -53 -25 -7 0 -25 -14 -39 -30 -33 -40 -73 -60 -118 -60 -40 0 -66
11 -108 46 -16 13 -41 24 -56 24 -43 0 -93 40 -120 94 -21 42 -23 54 -14 86 7
28 6 44 -3 62 -18 31 -17 103 1 137 19 38 71 81 97 81 12 0 43 20 69 45 46 43
51 45 108 45 52 0 65 -4 93 -29z m2167 -21 c98 -36 179 -97 227 -172 24 -38
44 -72 44 -76 0 -5 10 -39 21 -77 21 -65 21 -70 5 -120 -9 -28 -16 -72 -16
-96 0 -34 -9 -60 -36 -105 -50 -83 -71 -103 -141 -135 -170 -78 -440 1 -546
159 -87 129 -75 315 31 482 67 106 163 158 292 159 41 1 85 -6 119 -19z"/>
<path d="M914 6536 c-35 -55 8 -166 65 -166 45 0 65 31 57 87 -8 62 -34 97
-74 101 -24 2 -34 -3 -48 -22z"/>
<path d="M1470 6554 c0 -3 11 -15 25 -26 18 -14 25 -29 25 -52 0 -49 -30 -71
-97 -71 -48 0 -58 4 -79 28 -13 15 -24 32 -24 38 0 16 39 10 60 -11 23 -23 58
-26 84 -7 54 39 -65 79 -134 44 -62 -31 -89 -225 -50 -358 19 -62 30 -80 77
-125 72 -69 140 -96 256 -102 48 -2 99 -1 113 2 36 10 119 99 149 161 18 39
25 70 25 114 0 34 -4 61 -10 61 -5 0 -10 -13 -10 -30 0 -20 -5 -30 -15 -30
-13 0 -15 11 -13 63 2 37 7 60 13 57 6 -3 9 -13 9 -23 -2 -25 20 -15 24 11 4
25 -43 139 -70 167 -18 19 -18 19 -18 -23 0 -34 -3 -42 -19 -42 -15 0 -19 11
-25 62 -8 77 -30 98 -34 33 -6 -84 -89 -122 -151 -69 -33 28 -42 75 -21 115
10 18 7 19 -40 19 -27 0 -50 -3 -50 -6z"/>
<path d="M745 6495 c-28 -27 -30 -46 -14 -96 24 -71 77 -100 112 -61 33 36 12
148 -31 171 -30 16 -40 14 -67 -14z"/>
<path d="M2844 6532 c-28 -31 -68 -92 -89 -135 -34 -70 -37 -81 -31 -134 11
-100 44 -169 109 -229 57 -53 74 -61 185 -83 73 -15 101 -14 163 6 106 32 147
100 160 262 l8 104 -35 73 c-24 51 -48 84 -79 109 -60 49 -172 85 -268 85
l-73 0 -50 -58z"/>
</g>
</svg>
