<?xml version="1.0" standalone="no"?>
<!DOCTYPE svg PUBLIC "-//W3C//DTD SVG 20010904//EN"
 "http://www.w3.org/TR/2001/REC-SVG-20010904/DTD/svg10.dtd">
<svg version="1.0" xmlns="http://www.w3.org/2000/svg"
 width="704.000000pt" height="1280.000000pt" viewBox="0 0 704.000000 1280.000000"
 preserveAspectRatio="xMidYMid meet">
<metadata>
Created by potrace 1.16, written by Peter Selinger 2001-2019
</metadata>
<g transform="translate(0.000000,1280.000000) scale(0.100000,-0.100000)"
fill="#000000" stroke="none">
<path d="M4610 10559 c-805 -56 -1437 -446 -1582 -976 -31 -114 -31 -327 0
-436 149 -524 727 -897 1501 -967 150 -14 517 -8 641 10 605 88 1032 315 1281
681 142 210 188 481 123 723 -41 152 -159 341 -287 462 -136 129 -267 216
-452 301 -367 168 -763 234 -1225 202z m555 -175 c605 -78 1112 -400 1235
-784 114 -357 -36 -709 -408 -958 -206 -138 -441 -225 -762 -284 -112 -21
-155 -23 -425 -23 -350 0 -451 12 -690 80 -349 100 -602 254 -776 472 -251
316 -220 746 76 1036 269 266 686 433 1185 477 135 11 411 3 565 -16z"/>
<path d="M4221 10019 c-120 -20 -230 -109 -293 -237 -30 -61 -33 -76 -37 -177
-3 -98 0 -120 22 -182 64 -184 204 -359 448 -559 53 -44 122 -97 153 -119 31
-22 87 -61 123 -87 36 -27 73 -48 82 -48 27 0 235 142 376 255 102 82 268 250
336 340 56 73 101 161 124 240 13 44 16 84 13 165 -4 93 -8 115 -36 173 -85
183 -275 278 -465 233 -87 -20 -152 -54 -205 -106 -46 -44 -122 -154 -122
-177 0 -27 -16 -12 -44 43 -37 70 -113 155 -169 187 -87 51 -206 72 -306 56z
m59 -151 c37 -40 30 -54 -56 -126 -34 -28 -72 -68 -85 -89 -27 -45 -37 -53
-65 -53 -35 0 -57 45 -50 98 6 47 41 115 72 144 58 52 148 65 184 26z"/>
<path d="M3785 8311 c-94 -23 -155 -94 -155 -180 0 -53 15 -89 53 -130 101
-107 267 -66 315 77 26 78 -28 185 -113 223 -43 20 -54 21 -100 10z m69 -85
c44 -18 66 -51 66 -98 0 -91 -115 -135 -181 -69 -49 50 -31 138 34 166 40 18
41 18 81 1z"/>
<path d="M3467 7973 c-53 -57 -54 -123 -1 -177 21 -22 29 -36 21 -36 -8 0 -17
-6 -20 -14 -3 -8 -25 -20 -49 -27 -24 -7 -50 -18 -58 -24 -8 -7 -39 -15 -68
-17 -35 -4 -60 -12 -75 -26 -13 -12 -38 -27 -56 -33 -18 -6 -43 -22 -56 -35
-13 -13 -36 -24 -50 -24 -15 0 -38 -9 -52 -20 -36 -28 -93 -27 -122 4 -23 24
-26 24 -204 25 l-182 0 -20 26 -21 25 -476 0 -476 0 -15 24 c-11 16 -30 26
-59 31 -24 4 -54 16 -67 26 -13 11 -29 19 -36 19 -7 0 -24 12 -38 26 -14 14
-31 24 -39 23 -35 -4 -57 3 -63 21 -10 30 -34 50 -61 50 -16 0 -28 8 -36 25
-6 14 -14 26 -17 26 -25 6 -360 4 -377 -2 -11 -4 -29 -20 -39 -36 -17 -25 -19
-50 -19 -225 l-1 -197 -27 -28 c-37 -39 -39 -94 -4 -116 22 -15 24 -24 31
-142 4 -69 4 -195 0 -281 -7 -155 -7 -156 -36 -182 -25 -21 -29 -33 -29 -75 0
-38 -6 -56 -25 -79 -22 -26 -25 -39 -25 -107 0 -64 -4 -82 -20 -101 -17 -20
-20 -37 -20 -124 0 -114 -11 -165 -40 -191 -19 -17 -20 -31 -20 -256 l0 -237
-28 -20 c-24 -18 -27 -26 -25 -75 2 -46 -1 -59 -22 -81 -16 -18 -25 -39 -25
-60 0 -28 -8 -39 -52 -72 -46 -34 -54 -45 -59 -81 -3 -26 -15 -52 -30 -67 -32
-33 -69 -82 -69 -93 0 -4 -16 -26 -35 -48 -20 -22 -45 -57 -55 -77 -20 -36
-20 -66 -20 -1458 l0 -1420 38 -27 c20 -15 46 -41 57 -57 11 -17 39 -40 61
-51 23 -11 50 -27 60 -36 11 -9 41 -19 68 -23 33 -4 59 -15 82 -36 19 -16 44
-30 56 -30 11 0 26 -7 32 -16 8 -10 32 -16 68 -19 37 -2 66 -10 85 -24 49 -37
372 -43 1819 -37 709 3 1318 7 1353 8 53 3 66 7 79 26 14 21 21 22 141 22 118
0 129 2 159 24 24 17 51 25 109 30 57 4 86 12 108 28 23 17 49 23 110 28 61 4
87 10 108 26 19 16 48 24 104 29 52 5 85 13 102 26 16 13 40 19 72 19 36 0 55
6 78 26 17 14 47 28 68 31 21 3 47 13 58 23 11 10 47 25 80 35 33 9 74 21 92
27 17 5 39 20 47 34 9 13 23 24 30 24 8 0 27 11 43 24 16 14 43 28 59 32 16 4
38 13 49 20 11 6 77 16 147 22 105 8 132 13 154 31 15 11 41 21 59 21 20 0 45
10 68 29 23 18 59 33 98 40 168 34 546 344 622 511 4 8 20 38 37 65 16 28 39
70 50 95 12 25 28 53 37 62 8 9 19 35 24 57 5 22 20 65 34 95 14 30 25 70 25
88 0 18 11 76 25 128 19 74 25 120 25 210 0 120 -14 246 -29 264 -13 16 -31
121 -31 180 0 35 -8 66 -25 98 -14 26 -25 53 -25 61 0 8 -11 31 -25 51 -14 20
-28 49 -31 64 -4 15 -17 41 -29 58 -13 16 -30 46 -38 65 -17 42 -181 209 -251
257 -105 70 -210 107 -343 117 -100 8 -162 -8 -249 -64 -84 -55 -120 -98 -129
-157 -4 -27 -13 -57 -21 -68 -8 -11 -14 -35 -14 -53 0 -39 24 -97 88 -213 11
-19 54 -68 96 -108 42 -40 76 -78 76 -85 0 -8 12 -24 26 -38 14 -13 33 -37 41
-53 8 -16 24 -38 35 -50 10 -11 24 -40 30 -63 6 -24 14 -43 19 -43 5 0 15 -12
22 -27 12 -24 12 -37 1 -83 -7 -30 -13 -77 -14 -103 0 -60 -16 -98 -69 -165
-23 -29 -50 -72 -61 -95 -18 -42 -69 -100 -125 -142 -27 -20 -140 -66 -202
-82 -37 -9 -73 21 -73 61 0 18 -7 53 -15 76 -9 24 -15 77 -15 122 0 79 -10
116 -36 131 -8 4 -14 16 -14 26 0 9 -11 32 -25 51 -14 19 -25 46 -25 60 0 14
-10 37 -21 49 -31 33 -69 108 -69 136 0 13 -8 30 -19 37 -10 7 -25 27 -34 43
-8 17 -25 38 -36 47 -12 10 -21 29 -21 44 0 25 -16 64 -30 74 -4 3 -14 19 -23
35 -8 17 -29 45 -46 62 -17 18 -31 41 -31 52 0 10 -8 29 -18 42 -10 13 -24 39
-31 57 -8 17 -16 32 -20 32 -11 0 -34 44 -38 74 -1 16 -12 35 -23 43 -11 8
-20 18 -20 23 0 5 -13 31 -30 57 -16 26 -30 54 -30 62 0 9 -25 52 -55 95 -30
44 -57 92 -60 107 -4 15 -13 33 -22 41 -9 7 -24 32 -34 56 -11 24 -34 62 -53
85 -41 51 -56 80 -56 106 0 11 -6 24 -13 28 -7 4 -19 24 -27 43 -7 19 -24 51
-37 70 -13 19 -23 42 -23 50 0 9 -11 31 -25 50 -14 19 -25 41 -25 51 0 9 -9
27 -19 41 -11 13 -23 38 -27 54 -4 16 -29 55 -56 87 -26 32 -48 65 -48 74 0 9
-11 31 -25 49 -20 26 -25 45 -25 91 -1 32 -8 76 -16 98 -9 22 -20 73 -25 113
-6 47 -18 89 -34 116 -14 24 -25 57 -25 75 0 18 -12 57 -26 87 l-26 55 7 222
c7 193 10 225 26 249 18 24 19 52 19 435 0 397 -1 410 -20 428 -11 10 -25 35
-30 57 -9 30 -16 38 -34 38 -13 0 -36 10 -52 22 -24 19 -41 23 -131 25 -96 2
-105 0 -132 -22 -21 -19 -44 -26 -90 -29 l-62 -5 25 20 c62 49 74 129 28 180
-24 27 -37 33 -83 36 -49 4 -56 2 -82 -24z m-2521 -634 c120 -150 122 -153
135 -216 11 -55 11 -67 -4 -98 -9 -20 -31 -44 -49 -53 -17 -9 -47 -31 -67 -47
-51 -44 -85 -57 -106 -41 -14 10 -17 34 -20 141 -1 72 -6 171 -10 222 l-8 92
31 30 c17 17 35 31 40 31 5 0 31 -27 58 -61z m2960 -97 c10 -19 8 -35 -8 -80
-11 -32 -21 -92 -23 -134 -2 -43 -9 -86 -14 -97 -6 -11 -11 -35 -11 -53 0 -48
-29 -201 -39 -211 -17 -17 -52 4 -78 46 -15 23 -50 78 -79 122 -53 80 -53 80
-52 157 1 42 4 81 7 85 3 5 26 23 52 40 25 17 76 59 113 93 75 67 110 76 132
32z m-2940 -560 c22 -16 56 -31 78 -35 84 -14 128 -70 124 -161 -2 -59 13 -86
26 -49 17 47 66 114 119 161 54 49 78 59 127 53 8 -1 56 -2 105 -2 92 0 220
-27 260 -55 11 -8 29 -14 42 -14 12 0 24 -8 28 -19 6 -18 7 -18 43 2 25 13 46
18 62 14 49 -13 55 -23 60 -102 5 -73 4 -75 -17 -75 -13 0 -23 5 -23 10 0 7
-6 7 -20 0 -18 -10 -18 -13 -5 -51 8 -23 15 -52 15 -65 0 -17 6 -24 20 -24 17
0 20 -7 20 -40 0 -28 -4 -40 -14 -40 -14 0 -19 -14 -31 -97 -12 -79 -135 -224
-220 -258 -123 -51 -340 -8 -459 90 -51 41 -108 151 -126 243 -7 34 -14 62
-15 62 -21 0 -110 -55 -142 -87 -63 -63 -140 -70 -207 -19 -17 12 -47 26 -66
30 -90 16 -142 79 -138 166 1 30 -3 65 -10 77 -7 12 -12 44 -12 71 0 66 42
126 100 143 22 7 47 23 55 36 45 68 152 85 221 35z m2167 -16 c26 -8 78 -35
117 -61 89 -58 146 -141 180 -261 22 -79 22 -83 7 -132 -10 -28 -17 -68 -17
-89 0 -47 -44 -136 -90 -183 -20 -20 -61 -48 -93 -63 -49 -23 -71 -27 -144
-27 -127 0 -234 37 -322 110 -36 31 -76 75 -89 97 -30 55 -57 195 -43 222 6
11 11 37 11 57 0 78 88 224 175 289 66 50 213 70 308 41z"/>
<path d="M914 6536 c-35 -55 8 -166 65 -166 45 0 65 31 57 87 -8 62 -34 97
-74 101 -24 2 -34 -3 -48 -22z"/>
<path d="M1470 6554 c0 -3 11 -15 25 -26 18 -14 25 -29 25 -52 0 -49 -30 -71
-97 -71 -48 0 -58 4 -79 29 -14 15 -23 33 -21 40 6 16 35 8 58 -15 33 -33 108
-15 94 23 -11 29 -100 38 -143 15 -39 -20 -72 -118 -72 -211 0 -122 31 -207
98 -273 76 -73 137 -96 276 -101 l109 -4 56 60 c67 71 101 147 101 227 0 30
-4 55 -10 55 -5 0 -10 -13 -10 -30 0 -21 -5 -30 -16 -30 -12 0 -15 11 -12 60
2 39 7 60 15 60 7 0 10 -9 8 -21 -3 -13 0 -19 8 -16 7 2 13 11 15 20 4 22 -46
148 -69 172 -19 19 -19 19 -19 -23 0 -34 -3 -42 -19 -42 -15 0 -19 11 -25 62
-8 77 -30 98 -34 33 -6 -84 -89 -122 -151 -69 -33 28 -42 75 -21 115 10 18 7
19 -40 19 -27 0 -50 -3 -50 -6z"/>
<path d="M745 6495 c-28 -27 -30 -46 -14 -96 24 -71 77 -100 112 -61 33 36 12
148 -31 171 -30 16 -40 14 -67 -14z"/>
<path d="M2852 6541 c-30 -32 -70 -90 -93 -136 -38 -76 -39 -83 -33 -145 9
-90 47 -172 103 -222 60 -53 86 -65 171 -83 93 -19 125 -19 188 3 102 36 140
101 153 260 8 101 7 104 -22 170 -56 125 -156 185 -334 201 l-80 8 -53 -56z"/>
</g>
</svg>
