<?xml version="1.0" standalone="no"?>
<!DOCTYPE svg PUBLIC "-//W3C//DTD SVG 20010904//EN"
 "http://www.w3.org/TR/2001/REC-SVG-20010904/DTD/svg10.dtd">
<svg version="1.0" xmlns="http://www.w3.org/2000/svg"
 width="704.000000pt" height="1280.000000pt" viewBox="0 0 704.000000 1280.000000"
 preserveAspectRatio="xMidYMid meet">
<metadata>
Created by potrace 1.16, written by Peter Selinger 2001-2019
</metadata>
<g transform="translate(0.000000,1280.000000) scale(0.100000,-0.100000)"
fill="#000000" stroke="none">
<path d="M4600 10560 c-267 -27 -416 -55 -590 -112 -432 -140 -778 -404 -921
-703 -63 -130 -82 -218 -83 -380 0 -117 3 -153 22 -218 138 -482 644 -841
1336 -949 194 -30 634 -33 831 -4 253 36 498 108 689 202 419 208 672 519 716
880 25 205 -39 430 -175 619 -72 102 -98 129 -215 227 -266 223 -621 367
-1045 423 -143 19 -446 27 -565 15z m560 -176 c312 -40 607 -146 845 -302 87
-57 258 -227 310 -307 87 -133 120 -254 119 -425 -1 -112 -4 -134 -31 -206
-50 -139 -108 -228 -218 -339 -176 -178 -389 -298 -683 -385 -323 -95 -786
-119 -1147 -59 -477 79 -863 293 -1058 586 -89 134 -127 259 -127 418 0 220
85 402 272 581 367 353 1044 525 1718 438z"/>
<path d="M5087 10079 c-48 -11 -108 -42 -179 -91 -58 -41 -120 -123 -153 -200
-8 -21 -17 -38 -20 -38 -2 0 -18 27 -36 60 -53 100 -128 174 -225 222 -75 37
-95 42 -171 46 -198 11 -346 -67 -430 -224 -45 -85 -63 -156 -63 -248 0 -152
44 -269 159 -423 80 -109 210 -247 296 -317 39 -31 88 -71 109 -89 53 -43 194
-143 231 -163 17 -10 50 -32 74 -50 50 -38 40 -41 169 43 154 100 317 231 457
370 198 195 289 330 335 496 19 69 20 87 11 170 -17 144 -56 235 -136 312
-109 107 -286 158 -428 124z m-859 -171 c22 -21 28 -53 14 -74 -4 -6 -33 -30
-65 -53 -36 -27 -70 -65 -93 -102 -19 -33 -41 -60 -47 -60 -72 -7 -99 76 -56
171 24 53 51 84 100 115 62 40 106 41 147 3z"/>
<path d="M3785 8311 c-128 -31 -190 -153 -136 -264 75 -155 294 -134 350 32
21 63 -4 137 -63 189 -29 26 -96 55 -116 51 -3 -1 -18 -4 -35 -8z m115 -118
c45 -58 8 -155 -64 -169 -62 -11 -126 44 -126 110 0 13 12 38 26 55 46 56 122
57 164 4z"/>
<path d="M3471 7979 c-32 -30 -53 -85 -46 -119 3 -16 22 -44 41 -64 28 -29 31
-36 17 -36 -10 0 -23 -8 -30 -19 -6 -10 -26 -21 -43 -25 -17 -3 -43 -15 -57
-26 -17 -13 -41 -20 -70 -20 -32 0 -54 -7 -77 -25 -18 -14 -40 -25 -49 -25 -9
0 -28 -11 -42 -24 -15 -14 -41 -28 -58 -32 -18 -3 -45 -17 -60 -30 -39 -33
-77 -31 -110 6 l-27 30 -181 0 c-179 0 -180 0 -203 25 l-24 25 -467 0 -468 -1
-27 26 c-16 15 -38 25 -56 25 -17 0 -41 11 -58 25 -16 14 -37 25 -47 25 -10 0
-31 11 -47 25 -17 14 -41 25 -55 25 -17 0 -33 10 -47 29 -12 18 -31 31 -47 33
-17 2 -32 12 -39 27 -7 13 -18 28 -26 32 -14 9 -327 11 -364 2 -12 -2 -32 -19
-45 -36 -23 -31 -24 -35 -20 -223 3 -193 -3 -234 -33 -234 -17 0 -26 -22 -26
-60 0 -28 18 -54 42 -62 9 -3 12 -76 12 -285 l0 -281 -32 -30 c-28 -26 -32
-37 -32 -79 0 -40 -5 -54 -25 -73 -23 -22 -25 -31 -25 -111 0 -73 -3 -90 -17
-98 -15 -8 -19 -30 -23 -145 -5 -130 -6 -136 -33 -164 l-27 -28 0 -231 0 -231
-27 -33 c-23 -26 -27 -40 -25 -82 2 -41 -2 -54 -22 -73 -13 -13 -26 -42 -30
-64 -5 -32 -14 -45 -45 -65 -36 -25 -61 -60 -61 -89 0 -13 -42 -73 -75 -107
-8 -9 -15 -20 -15 -25 0 -5 -18 -32 -41 -59 -22 -27 -49 -66 -60 -87 -18 -36
-19 -80 -19 -1462 l0 -1425 45 -31 c24 -17 52 -44 62 -60 11 -20 30 -34 54
-40 20 -6 43 -18 53 -29 10 -11 37 -21 68 -24 38 -5 59 -14 75 -32 15 -16 35
-25 53 -25 17 0 34 -8 42 -18 9 -14 31 -20 75 -24 42 -4 68 -12 83 -26 16 -15
44 -23 99 -29 81 -9 2922 -11 3055 -2 62 4 81 9 92 24 13 18 30 21 147 25 114
4 136 8 162 27 22 15 52 23 110 28 57 4 86 12 100 25 14 13 44 20 102 25 55 5
91 13 105 25 29 22 49 28 127 35 41 4 74 13 89 26 14 10 39 19 56 19 47 0 101
18 121 40 11 12 31 20 50 20 18 0 43 8 56 18 26 20 95 47 147 57 18 4 49 22
67 41 19 19 40 34 48 34 7 0 23 11 35 25 12 14 31 25 42 25 12 0 31 6 43 14
12 7 78 18 151 24 95 8 133 15 147 28 10 9 43 21 71 25 35 6 59 16 71 30 11
14 40 26 82 35 73 15 191 76 262 135 26 21 51 39 55 39 4 0 44 32 90 70 89 76
178 173 178 195 0 8 6 18 14 22 7 4 35 47 61 95 26 49 51 90 56 94 5 3 9 12 9
20 0 8 13 32 29 52 16 20 31 53 35 72 4 19 16 53 27 76 11 23 26 80 33 126 8
46 22 110 31 143 25 87 17 367 -13 440 -11 28 -25 96 -30 152 -7 66 -17 115
-31 140 -51 98 -81 164 -81 181 0 10 -9 27 -21 38 -11 10 -27 34 -35 52 -32
77 -159 203 -291 288 -98 64 -211 96 -334 97 -112 0 -166 -17 -245 -74 -75
-55 -102 -92 -110 -149 -4 -27 -13 -55 -20 -61 -31 -26 -14 -109 41 -209 8
-14 23 -41 34 -60 10 -20 53 -68 95 -107 42 -40 76 -78 76 -87 0 -8 16 -29 35
-47 19 -19 35 -38 35 -43 0 -6 14 -24 31 -42 17 -17 33 -46 36 -64 2 -18 14
-45 25 -60 16 -23 19 -37 14 -76 -4 -27 -10 -83 -14 -125 -7 -78 -25 -114 -94
-197 -15 -18 -28 -40 -28 -50 -1 -48 -134 -174 -203 -193 -23 -6 -60 -20 -83
-30 -50 -23 -73 -24 -102 -3 -15 11 -22 25 -22 50 0 19 -7 51 -15 71 -10 23
-15 69 -15 130 0 87 -2 96 -25 117 -14 13 -25 30 -25 39 0 8 -11 29 -25 45
-14 17 -25 41 -25 55 0 14 -10 38 -23 54 -36 45 -67 108 -67 137 0 16 -9 31
-25 42 -14 9 -28 27 -31 40 -3 12 -17 30 -30 39 -18 12 -24 24 -24 54 0 24 -8
47 -21 62 -12 13 -29 40 -39 59 -10 19 -28 41 -39 48 -12 7 -21 22 -21 35 0
12 -14 42 -30 66 -17 24 -30 49 -30 56 0 7 -9 20 -20 30 -11 10 -25 36 -31 58
-6 22 -23 56 -39 76 -33 42 -70 110 -70 128 0 11 -28 53 -91 133 -10 13 -19
34 -19 46 0 13 -11 35 -24 51 -13 15 -31 45 -40 67 -9 21 -33 59 -55 85 -21
25 -42 57 -46 71 -13 44 -58 134 -82 163 -13 16 -23 39 -23 52 0 13 -11 36
-24 52 -13 15 -27 42 -30 60 -4 17 -13 37 -21 43 -7 6 -16 23 -20 37 -7 28
-46 84 -82 120 -13 12 -23 30 -23 41 0 10 -11 33 -25 52 -21 28 -25 45 -25 99
0 42 -7 81 -19 107 -10 22 -22 71 -26 108 -4 41 -17 87 -31 114 -13 25 -24 58
-24 75 0 17 -11 54 -25 83 -25 52 -25 55 -21 273 4 205 6 223 25 247 20 26 21
37 21 440 l0 412 -23 29 c-13 15 -27 40 -30 54 -5 20 -15 28 -39 33 -17 3 -40
14 -50 23 -15 13 -43 18 -127 20 -104 3 -109 2 -133 -22 -19 -19 -38 -26 -85
-29 l-60 -5 33 33 c60 60 52 159 -16 193 -40 20 -103 16 -129 -8z m-2551 -608
c0 -4 31 -42 69 -84 70 -77 101 -142 101 -214 0 -39 -33 -89 -72 -109 -18 -9
-46 -28 -63 -43 -44 -40 -81 -54 -98 -36 -15 15 -31 150 -22 187 3 13 1 72 -4
133 -10 117 -2 162 35 183 19 10 54 -1 54 -17z m2962 -103 c33 -27 37 -49 16
-107 -11 -33 -20 -83 -20 -121 0 -36 -5 -76 -11 -90 -10 -26 -22 -92 -33 -195
-8 -68 -18 -95 -38 -95 -19 0 -72 64 -138 168 l-58 90 0 79 0 79 68 50 c37 27
93 73 124 101 63 57 66 59 90 41z m-2874 -587 c22 -17 43 -39 47 -50 3 -11 18
-22 35 -26 33 -7 100 -76 100 -103 0 -9 4 -23 9 -31 7 -11 16 -1 35 37 14 28
36 56 48 63 13 6 34 24 48 41 30 35 85 50 138 37 20 -5 62 -6 92 -3 59 6 206
-25 245 -52 11 -8 29 -14 42 -14 12 0 24 -8 28 -19 6 -18 7 -18 43 2 25 13 46
18 62 14 49 -13 55 -23 60 -102 5 -73 4 -75 -17 -75 -13 0 -23 5 -23 10 0 7
-6 7 -19 1 -17 -10 -18 -14 -5 -48 7 -21 13 -50 14 -65 0 -21 5 -28 20 -28 17
0 20 -7 20 -39 0 -30 -4 -40 -20 -44 -15 -4 -20 -14 -20 -39 0 -91 -55 -184
-154 -263 -58 -46 -73 -53 -139 -64 -98 -16 -199 -1 -292 44 -66 32 -165 114
-165 137 0 5 -10 31 -23 57 -13 25 -29 72 -37 104 -7 31 -15 57 -17 57 -2 0
-21 -14 -43 -31 -24 -19 -54 -33 -81 -36 -24 -4 -60 -17 -80 -30 -77 -51 -156
-39 -216 32 -20 24 -46 46 -57 49 -34 8 -85 65 -96 106 -8 30 -7 48 6 82 8 24
15 66 14 95 -2 90 50 155 136 168 26 4 64 18 83 31 53 36 125 34 179 -5z
m2139 -23 c141 -52 235 -155 279 -303 25 -82 25 -87 10 -132 -9 -26 -16 -67
-16 -92 0 -87 -77 -204 -164 -248 -42 -22 -68 -28 -148 -31 -84 -4 -106 -1
-176 22 -115 39 -214 113 -254 191 -28 53 -50 179 -37 212 5 13 9 39 9 56 1
76 90 234 161 283 90 63 233 81 336 42z"/>
<path d="M914 6536 c-35 -55 8 -166 65 -166 45 0 65 31 57 87 -8 62 -34 97
-74 101 -24 2 -34 -3 -48 -22z"/>
<path d="M1470 6554 c0 -3 11 -15 25 -26 18 -14 25 -29 25 -52 0 -49 -30 -71
-97 -71 -48 0 -58 4 -79 29 -14 15 -23 33 -21 40 6 16 35 8 58 -15 33 -33 108
-15 94 23 -7 19 -35 28 -85 28 -58 0 -80 -19 -107 -90 -40 -107 -30 -244 25
-347 27 -50 124 -127 185 -146 69 -22 216 -23 256 -2 37 19 106 101 131 156
21 47 28 169 10 169 -5 0 -10 -13 -10 -30 0 -20 -5 -30 -15 -30 -13 0 -15 11
-13 63 2 37 7 60 13 57 6 -3 9 -13 9 -22 -2 -21 14 -24 22 -4 9 24 -57 196
-76 196 -5 0 -10 -18 -10 -40 0 -32 -4 -40 -19 -40 -15 0 -19 11 -25 62 -8 77
-30 98 -34 33 -6 -84 -89 -122 -151 -69 -33 28 -42 75 -21 115 10 18 7 19 -40
19 -27 0 -50 -3 -50 -6z"/>
<path d="M745 6495 c-27 -26 -30 -43 -15 -94 20 -70 78 -102 113 -63 33 36 12
148 -31 171 -30 16 -40 14 -67 -14z"/>
<path d="M2851 6543 c-29 -32 -71 -94 -92 -138 -38 -76 -40 -83 -34 -145 18
-167 109 -271 269 -304 98 -20 117 -20 189 2 72 23 111 61 137 133 26 75 30
231 6 274 -9 17 -16 35 -16 41 0 6 -13 29 -30 52 -52 72 -166 123 -305 136
l-71 7 -53 -58z"/>
</g>
</svg>
