<?xml version="1.0" standalone="no"?>
<!DOCTYPE svg PUBLIC "-//W3C//DTD SVG 20010904//EN"
 "http://www.w3.org/TR/2001/REC-SVG-20010904/DTD/svg10.dtd">
<svg version="1.0" xmlns="http://www.w3.org/2000/svg"
 width="704.000000pt" height="1280.000000pt" viewBox="0 0 704.000000 1280.000000"
 preserveAspectRatio="xMidYMid meet">
<metadata>
Created by potrace 1.16, written by Peter Selinger 2001-2019
</metadata>
<g transform="translate(0.000000,1280.000000) scale(0.100000,-0.100000)"
fill="#000000" stroke="none">
<path d="M703 7892 c-13 -2 -33 -18 -45 -35 -22 -31 -23 -38 -19 -223 l3 -192
-31 -29 c-40 -38 -42 -85 -6 -123 23 -24 24 -33 30 -180 3 -85 2 -209 -1 -274
-7 -113 -8 -121 -36 -149 -23 -25 -28 -39 -28 -80 0 -39 -5 -56 -22 -75 -20
-20 -23 -35 -24 -113 -2 -77 -5 -92 -23 -107 -19 -15 -21 -29 -23 -150 -3
-133 -3 -134 -31 -154 l-27 -20 0 -233 0 -234 -28 -31 c-26 -28 -28 -37 -24
-80 4 -42 1 -54 -21 -79 -13 -16 -27 -45 -31 -64 -5 -24 -18 -44 -44 -63 -49
-37 -60 -52 -67 -95 -4 -25 -21 -51 -50 -80 -25 -24 -45 -50 -45 -58 0 -8 -15
-32 -34 -55 -18 -23 -43 -59 -55 -81 l-21 -40 0 -1413 0 -1413 70 -69 c38 -38
80 -72 92 -75 13 -4 34 -17 48 -30 16 -14 43 -24 73 -28 34 -3 57 -13 76 -31
15 -14 38 -26 52 -26 14 0 35 -10 47 -23 17 -18 34 -24 71 -25 33 0 59 -8 84
-25 33 -23 46 -24 244 -31 253 -8 2618 -6 2829 3 132 5 155 9 174 26 18 17 41
20 154 25 117 4 135 8 160 28 23 18 41 22 97 22 58 0 72 4 98 26 27 22 43 27
112 30 61 2 86 8 105 23 14 11 46 23 72 26 108 14 123 18 138 33 10 9 44 19
82 24 44 5 71 14 83 27 10 10 37 22 61 26 24 4 52 15 63 24 11 10 59 30 107
45 62 20 91 34 103 52 8 13 22 24 30 24 8 0 29 13 47 30 17 17 39 30 50 30 10
0 29 7 41 14 14 10 64 17 142 22 100 5 127 10 162 30 23 13 57 24 77 24 25 0
42 7 59 26 17 18 44 30 93 40 37 8 75 21 84 29 8 7 27 18 42 24 91 34 399 290
443 368 9 15 29 48 45 73 16 25 40 66 54 91 13 25 32 51 40 58 9 8 16 23 16
35 0 12 11 37 24 54 13 18 29 59 36 92 7 32 18 61 26 64 7 3 15 26 19 53 3 26
18 99 32 162 24 105 25 128 20 270 -4 123 -9 166 -24 201 -11 25 -25 97 -33
163 -7 64 -16 117 -20 117 -5 0 -18 25 -29 55 -12 31 -27 66 -35 78 -8 12 -17
33 -21 47 -5 14 -18 39 -31 56 -13 17 -29 45 -35 62 -6 18 -15 32 -20 32 -4 0
-14 12 -22 26 -25 48 -213 209 -289 247 -145 74 -320 97 -426 57 -57 -22 -140
-79 -183 -126 -16 -17 -29 -46 -33 -71 -3 -24 -14 -58 -23 -78 -14 -28 -15
-42 -6 -77 30 -117 64 -175 163 -280 41 -44 83 -95 93 -114 9 -19 22 -34 27
-34 5 0 22 -19 36 -42 15 -24 33 -47 40 -51 7 -4 19 -27 25 -50 6 -23 20 -54
31 -70 15 -20 19 -38 15 -65 -3 -20 -10 -77 -16 -126 -11 -92 -17 -105 -81
-191 -21 -27 -40 -61 -44 -75 -12 -50 -139 -164 -201 -181 -22 -6 -58 -19 -80
-30 -74 -35 -125 -16 -125 48 0 17 -7 50 -15 74 -9 24 -17 83 -19 131 -2 74
-6 92 -24 111 -12 13 -22 30 -22 38 0 8 -11 30 -25 49 -14 19 -25 43 -25 55 0
12 -18 49 -41 84 -22 34 -43 78 -46 97 -3 19 -13 40 -23 47 -9 7 -24 26 -32
42 -9 17 -25 39 -37 49 -14 12 -21 31 -21 54 0 24 -9 45 -30 69 -16 18 -30 39
-30 46 0 7 -13 23 -29 35 -18 13 -31 34 -35 55 -4 19 -15 42 -26 52 -11 10
-20 23 -20 30 0 6 -13 29 -30 51 -16 21 -30 48 -30 59 0 11 -25 58 -55 105
-30 47 -55 90 -55 97 0 7 -25 50 -55 95 -30 45 -55 91 -55 103 0 12 -11 33
-24 47 -14 13 -28 37 -32 53 -4 17 -31 59 -59 93 -29 35 -56 77 -59 94 -3 16
-15 41 -26 55 -11 14 -20 33 -20 43 0 9 -11 29 -25 44 -14 15 -25 36 -25 47 0
12 -8 33 -18 47 -10 15 -31 54 -46 87 -49 108 -58 123 -97 164 -22 22 -39 48
-39 58 0 10 -11 36 -25 58 -18 30 -24 54 -25 98 0 34 -8 78 -19 105 -11 26
-22 78 -26 116 -4 46 -13 79 -26 98 -12 16 -23 48 -26 71 -3 23 -16 65 -30 94
-25 52 -25 53 -19 275 6 202 8 226 26 250 20 27 20 43 21 434 l0 406 -25 37
c-14 20 -26 45 -26 54 0 18 -29 37 -58 37 -10 0 -26 8 -35 18 -13 15 -35 18
-123 20 -99 1 -108 0 -138 -23 -30 -23 -42 -25 -133 -25 -90 0 -102 -2 -133
-25 -19 -14 -41 -25 -50 -25 -9 0 -31 -11 -50 -25 -23 -17 -47 -25 -75 -25
-28 0 -52 -8 -75 -25 -19 -14 -44 -25 -56 -25 -14 0 -31 -12 -44 -30 -15 -21
-30 -30 -49 -30 -16 0 -40 -9 -54 -20 -45 -35 -77 -35 -122 0 -36 29 -45 31
-110 30 -233 -5 -272 -1 -303 25 l-30 25 -468 0 -468 -1 -23 26 c-13 14 -34
25 -47 25 -25 0 -129 50 -157 76 -8 8 -27 14 -42 14 -18 0 -35 11 -54 35 -15
19 -40 37 -56 41 -16 3 -33 16 -39 30 -6 13 -20 24 -32 25 -61 3 -334 4 -353
1z m246 -555 c16 -23 43 -55 61 -72 37 -35 66 -94 75 -157 9 -58 -14 -113 -56
-136 -17 -9 -52 -34 -76 -54 -50 -43 -98 -51 -108 -19 -3 10 -7 86 -10 167 -2
82 -7 168 -10 190 -13 77 33 157 76 133 10 -5 31 -28 48 -52z m2950 -89 c13
-23 13 -34 -3 -99 -10 -41 -23 -108 -27 -149 -5 -41 -14 -106 -20 -145 -6 -38
-14 -97 -17 -130 -9 -76 -28 -82 -80 -28 -46 48 -153 217 -153 240 0 10 0 46
1 80 l0 63 73 50 c39 27 98 73 131 100 32 28 63 49 70 47 6 -2 17 -15 25 -29z
m-717 -606 c134 -66 189 -126 235 -259 27 -79 27 -83 5 -258 -14 -108 -81
-201 -179 -246 -127 -59 -327 -30 -451 64 -70 53 -116 108 -130 154 -25 87
-33 150 -22 177 5 15 10 42 10 60 0 35 8 55 60 159 27 53 49 80 93 115 71 56
128 73 234 69 67 -3 92 -9 145 -35z m-1482 -11 c87 -21 108 -31 149 -71 63
-61 118 -164 137 -255 14 -67 15 -93 5 -159 -17 -120 -57 -186 -167 -273 -121
-94 -371 -69 -520 54 -54 43 -111 160 -132 269 -14 74 -14 88 1 161 9 48 26
95 41 118 14 21 26 44 26 51 0 18 105 88 158 106 54 18 224 17 302 -1z"/>
<path d="M2864 6554 c-60 -59 -83 -93 -118 -176 -25 -58 -28 -74 -21 -125 4
-32 15 -78 26 -102 10 -24 19 -48 19 -53 0 -5 16 -23 36 -41 74 -65 109 -83
208 -102 l96 -19 68 22 c41 13 78 33 94 49 43 47 67 130 69 235 1 83 -2 100
-29 159 -48 106 -145 169 -285 184 -29 3 -66 8 -84 11 -28 4 -38 -2 -79 -42z"/>
<path d="M1425 6537 c-27 -13 -63 -27 -78 -31 -23 -5 -34 -20 -57 -71 -39 -87
-44 -135 -25 -228 23 -113 45 -156 106 -210 68 -60 148 -87 261 -87 100 0 137
16 190 84 64 80 78 123 78 233 0 84 -4 103 -31 166 -35 80 -60 106 -134 142
-43 22 -64 25 -155 25 -89 0 -113 -4 -155 -23z"/>
</g>
</svg>
