<?xml version="1.0" standalone="no"?>
<!DOCTYPE svg PUBLIC "-//W3C//DTD SVG 20010904//EN"
 "http://www.w3.org/TR/2001/REC-SVG-20010904/DTD/svg10.dtd">
<svg version="1.0" xmlns="http://www.w3.org/2000/svg"
 width="704.000000pt" height="1280.000000pt" viewBox="0 0 704.000000 1280.000000"
 preserveAspectRatio="xMidYMid meet">
<metadata>
Created by potrace 1.16, written by Peter Selinger 2001-2019
</metadata>
<g transform="translate(0.000000,1280.000000) scale(0.100000,-0.100000)"
fill="#000000" stroke="none">
<path d="M4675 10563 c-277 -22 -426 -46 -606 -98 -387 -112 -707 -318 -889
-573 -129 -182 -174 -319 -173 -532 0 -165 20 -248 93 -395 213 -426 762 -726
1440 -786 165 -14 513 -6 658 15 597 89 1045 339 1271 708 92 152 133 291 133
463 1 180 -45 328 -151 490 -76 118 -140 187 -261 284 -207 167 -458 285 -755
356 -232 56 -556 85 -760 68z m375 -167 c511 -46 929 -229 1189 -521 226 -254
262 -600 93 -889 -57 -98 -213 -258 -324 -334 -189 -129 -455 -234 -713 -282
-228 -42 -620 -54 -841 -25 -557 73 -1002 318 -1192 655 -85 152 -115 363 -73
529 41 163 112 281 248 412 259 250 652 409 1118 453 186 18 308 18 495 2z"/>
<path d="M3767 8307 c-51 -16 -106 -62 -123 -103 -18 -43 -18 -117 0 -153 8
-15 33 -44 55 -64 71 -64 181 -59 252 12 44 44 60 93 48 152 -4 24 -8 47 -9
51 -1 19 -69 83 -105 99 -46 21 -65 22 -118 6z m87 -81 c71 -30 89 -110 37
-168 -25 -28 -36 -33 -76 -33 -40 0 -51 5 -76 33 -48 54 -33 133 33 165 40 20
41 20 82 3z"/>
<path d="M3474 7982 c-65 -52 -58 -150 16 -209 10 -8 11 -12 3 -13 -7 0 -21
-9 -31 -20 -11 -11 -34 -22 -51 -25 -18 -2 -39 -12 -46 -22 -9 -12 -28 -18
-68 -19 -43 -1 -63 -8 -90 -28 -18 -14 -43 -26 -54 -26 -10 0 -29 -13 -41 -30
-16 -21 -31 -30 -51 -30 -16 0 -40 -9 -54 -20 -16 -13 -40 -20 -69 -20 -38 0
-47 4 -56 24 l-11 24 -187 1 -188 1 -27 26 -28 27 -283 -6 c-156 -3 -365 -3
-466 0 -174 6 -184 7 -208 30 -14 13 -38 23 -53 23 -15 0 -41 11 -57 25 -16
14 -36 25 -45 25 -9 0 -24 9 -34 20 -10 11 -36 23 -57 26 -27 5 -45 15 -59 35
-13 18 -29 29 -44 29 -16 0 -31 10 -42 28 -9 15 -18 28 -19 30 -2 4 -181 6
-305 3 -76 -1 -77 -1 -104 -37 l-28 -36 -1 -193 -1 -193 -28 -26 c-22 -20 -27
-34 -27 -71 0 -31 4 -45 14 -45 7 0 18 -6 24 -13 18 -21 31 -368 18 -480 -10
-90 -13 -100 -38 -119 -25 -18 -28 -26 -28 -78 0 -50 -4 -61 -22 -75 -21 -14
-23 -24 -23 -100 0 -72 -3 -87 -22 -107 -19 -21 -22 -37 -25 -156 -3 -132 -3
-134 -30 -156 l-28 -22 0 -230 0 -231 -27 -29 c-23 -24 -28 -37 -26 -77 1 -37
-5 -58 -23 -84 -13 -20 -24 -48 -24 -64 0 -26 -32 -69 -52 -69 -18 0 -58 -54
-58 -78 0 -13 -12 -39 -27 -58 -51 -61 -73 -92 -73 -101 0 -5 -16 -27 -36 -49
-19 -21 -44 -56 -55 -76 -19 -36 -19 -72 -19 -1454 l0 -1417 75 -73 c42 -41
82 -74 90 -74 8 0 26 -11 41 -25 21 -19 38 -25 74 -25 38 0 51 -5 75 -30 19
-19 39 -30 57 -30 15 0 37 -9 49 -21 14 -14 36 -21 75 -23 38 -2 62 -10 77
-24 16 -14 42 -21 92 -26 71 -7 2958 -9 3073 -3 48 3 67 9 83 25 18 20 30 22
143 22 111 0 126 2 151 22 21 16 47 23 111 28 65 5 89 12 107 27 17 16 42 23
104 28 58 5 90 13 107 26 16 13 54 23 107 30 54 6 91 17 107 30 14 10 39 19
56 19 47 0 101 18 121 40 10 11 29 20 43 20 13 0 45 11 71 24 75 40 117 56
146 56 17 0 36 11 53 30 15 17 30 30 35 30 5 0 25 13 44 30 18 17 41 30 51 30
9 0 30 7 47 16 19 10 75 18 159 23 104 6 131 11 141 25 8 10 33 19 66 23 38 4
60 14 78 31 15 15 48 30 82 38 71 17 235 105 269 145 3 3 12 10 22 15 55 31
263 228 290 277 12 20 24 37 28 37 3 0 21 30 40 67 18 38 41 77 51 88 9 11 22
36 28 56 7 20 20 44 31 54 10 9 22 36 25 58 4 23 15 57 26 75 10 18 25 74 34
125 8 51 22 117 30 147 24 82 15 365 -14 432 -11 26 -25 93 -31 150 -12 100
-22 131 -86 263 -13 28 -24 57 -24 66 0 9 -10 24 -21 35 -12 10 -30 38 -40 60
-18 44 -188 221 -250 261 -63 41 -153 81 -233 103 -62 18 -96 21 -165 18 -97
-5 -137 -20 -221 -84 -78 -59 -92 -77 -101 -135 -5 -28 -16 -60 -25 -70 -20
-23 -14 -112 11 -139 8 -9 15 -25 15 -36 0 -19 21 -55 47 -82 7 -7 13 -18 13
-24 0 -6 36 -46 80 -89 44 -43 80 -83 80 -88 0 -5 16 -28 35 -51 19 -23 35
-47 35 -54 0 -6 14 -23 30 -38 18 -15 30 -36 30 -50 0 -14 13 -42 29 -63 30
-40 34 -83 11 -125 -6 -10 -10 -50 -10 -88 0 -60 -4 -74 -31 -115 -17 -26 -44
-59 -59 -74 -16 -14 -31 -41 -34 -59 -5 -22 -28 -54 -76 -102 -63 -62 -77 -71
-145 -91 -40 -11 -77 -26 -80 -31 -3 -6 -21 -10 -39 -10 -37 0 -70 28 -61 52
3 8 -3 39 -14 69 -16 40 -21 77 -21 146 0 80 -3 95 -23 120 -12 15 -28 40 -35
56 -6 15 -16 27 -21 27 -11 0 -22 26 -27 64 -2 16 -10 37 -18 45 -25 29 -66
115 -66 139 0 12 -7 25 -15 28 -8 3 -24 22 -36 42 -11 20 -30 42 -40 50 -13 9
-19 25 -19 52 0 32 -6 45 -30 67 -16 14 -30 32 -30 39 0 7 -16 31 -35 54 -19
23 -35 52 -35 65 0 12 -7 28 -16 36 -8 7 -25 31 -36 53 -11 23 -24 43 -28 46
-14 10 -30 49 -30 73 0 14 -7 31 -16 38 -22 18 -84 116 -84 133 0 8 -15 36
-33 62 -33 48 -69 111 -73 127 -1 4 -2 13 -3 21 0 7 -14 27 -31 44 -16 18 -30
40 -30 49 0 10 -25 49 -55 87 -30 38 -55 77 -55 88 0 10 -11 36 -25 56 -14 20
-25 41 -25 47 0 6 -11 26 -25 45 -14 19 -25 44 -25 56 0 12 -8 32 -18 45 -22
29 -72 127 -72 140 0 14 -82 129 -92 129 -4 0 -12 19 -19 43 -6 23 -18 50 -26
59 -9 10 -19 50 -23 97 -5 43 -15 92 -23 107 -8 16 -17 60 -21 97 -4 46 -14
82 -31 111 -14 23 -25 57 -25 75 0 18 -11 56 -25 86 l-26 53 6 219 c5 190 9
222 25 251 19 31 20 57 20 438 l1 406 -25 33 c-14 19 -26 40 -26 49 0 21 -28
46 -52 46 -11 0 -30 8 -42 18 -19 14 -41 17 -130 15 -97 -1 -111 -4 -132 -24
-18 -17 -40 -24 -84 -27 l-60 -4 34 34 c61 61 57 149 -8 189 -39 24 -104 24
-132 1z m-2563 -604 c10 -13 47 -54 80 -91 67 -75 85 -110 94 -183 9 -65 -5
-97 -57 -134 -24 -16 -54 -39 -67 -50 -38 -33 -80 -52 -101 -45 -21 7 -23 22
-25 185 0 41 -4 120 -9 175 -9 100 -8 101 19 133 32 38 39 39 66 10z m2991
-134 c10 -20 8 -38 -7 -92 -10 -37 -22 -101 -26 -142 -4 -41 -12 -104 -18
-140 -5 -36 -14 -91 -19 -122 -11 -75 -25 -92 -61 -74 -14 8 -37 33 -50 56
-13 23 -45 73 -72 112 -48 71 -49 72 -49 150 0 86 -2 83 86 148 26 19 56 44
68 55 82 79 128 94 148 49z m-761 -583 c80 -27 179 -101 221 -163 52 -78 82
-177 75 -246 -14 -144 -25 -199 -48 -236 -36 -59 -90 -110 -150 -140 -114 -57
-324 -24 -455 71 -112 82 -167 221 -142 362 6 37 15 70 20 76 4 5 8 15 8 23 0
35 86 164 135 202 86 66 229 88 336 51z m-1416 -38 c64 -16 130 -57 162 -101
91 -124 124 -244 104 -377 -17 -118 -61 -186 -174 -274 -44 -33 -65 -42 -125
-51 -134 -21 -301 28 -399 117 -62 56 -133 234 -133 333 0 59 30 169 56 208
13 18 26 42 29 52 5 16 86 76 130 95 25 11 197 23 250 17 22 -2 67 -11 100
-19z"/>
<path d="M2854 6542 c-57 -60 -121 -175 -130 -233 -6 -37 18 -154 40 -198 20
-38 94 -108 134 -127 18 -9 76 -23 128 -32 89 -15 96 -15 151 3 80 26 117 63
142 144 47 149 22 301 -63 384 -58 56 -154 98 -241 103 -38 3 -79 7 -89 9 -13
3 -36 -14 -72 -53z"/>
<path d="M1440 6545 c-14 -8 -48 -22 -77 -30 l-52 -16 -30 -81 c-27 -70 -30
-89 -25 -142 14 -146 50 -230 121 -283 21 -15 40 -31 44 -35 3 -4 34 -17 69
-29 47 -15 88 -21 153 -20 104 1 125 12 187 96 59 80 70 115 70 220 0 83 -3
100 -34 171 -40 90 -63 114 -141 143 -69 26 -244 30 -285 6z"/>
</g>
</svg>
