<?xml version="1.0" standalone="no"?>
<!DOCTYPE svg PUBLIC "-//W3C//DTD SVG 20010904//EN"
 "http://www.w3.org/TR/2001/REC-SVG-20010904/DTD/svg10.dtd">
<svg version="1.0" xmlns="http://www.w3.org/2000/svg"
 width="704.000000pt" height="1280.000000pt" viewBox="0 0 704.000000 1280.000000"
 preserveAspectRatio="xMidYMid meet">
<metadata>
Created by potrace 1.16, written by Peter Selinger 2001-2019
</metadata>
<g transform="translate(0.000000,1280.000000) scale(0.100000,-0.100000)"
fill="#000000" stroke="none">
<path d="M4715 10563 c-596 -24 -1086 -205 -1400 -517 -159 -158 -256 -323
-296 -501 -7 -34 -13 -117 -12 -190 1 -161 21 -248 93 -391 201 -401 691 -687
1330 -776 147 -20 604 -17 755 5 479 71 850 235 1110 492 227 224 331 481 303
757 -12 123 -31 194 -84 305 -188 394 -680 697 -1279 787 -100 15 -378 37
-425 34 -14 -1 -56 -3 -95 -5z m335 -168 c236 -21 442 -68 635 -145 380 -151
657 -416 729 -696 72 -280 -16 -552 -249 -772 -104 -99 -203 -165 -360 -242
-308 -151 -600 -211 -1020 -210 -333 0 -558 38 -830 137 -348 128 -623 356
-727 604 -47 112 -61 190 -55 314 10 219 84 382 248 544 351 349 971 526 1629
466z"/>
<path d="M4635 10081 c-27 -4 -64 -15 -82 -24 -18 -9 -40 -17 -49 -17 -54 0
-283 -167 -284 -206 0 -7 -18 -34 -40 -60 -23 -27 -43 -60 -47 -74 -3 -14 -13
-41 -23 -60 -30 -61 -44 -170 -36 -282 6 -98 9 -107 58 -206 108 -214 260
-339 473 -388 77 -17 130 -17 235 1 139 23 230 65 327 151 36 31 78 57 110 68
l53 18 30 -30 c20 -21 52 -36 102 -49 39 -11 73 -24 75 -30 4 -10 -107 -42
-217 -64 -259 -50 -356 -97 -348 -168 7 -64 171 -102 356 -83 219 22 400 93
452 177 27 43 19 75 -28 116 -36 32 -36 33 11 60 32 18 77 90 77 124 0 42 -36
95 -80 118 -28 14 -54 17 -126 15 -79 -3 -98 -7 -156 -36 -36 -19 -87 -51
-113 -73 -26 -21 -51 -39 -56 -39 -16 0 -9 26 16 60 14 19 32 55 40 80 8 25
21 63 29 85 20 52 20 208 2 297 -32 150 -153 329 -274 406 -139 89 -330 133
-487 113z m1077 -945 c28 -5 42 -15 59 -43 22 -35 22 -36 4 -69 -19 -36 -97
-94 -124 -94 -24 0 -202 46 -233 61 -16 7 -28 18 -28 25 0 50 195 143 270 129
8 -2 32 -6 52 -9z m-23 -285 c57 -29 63 -42 42 -77 -56 -92 -387 -174 -589
-146 -85 12 -130 35 -112 57 23 28 72 44 256 85 102 23 222 54 267 70 100 35
90 34 136 11z"/>
<path d="M3767 8307 c-157 -50 -186 -244 -51 -336 76 -53 192 -32 250 45 26
33 29 45 29 110 0 66 -3 76 -31 111 -55 68 -125 93 -197 70z m87 -81 c69 -29
88 -108 40 -165 -63 -75 -184 -30 -184 69 0 44 23 78 64 96 39 17 40 17 80 0z"/>
<path d="M3464 7966 c-29 -29 -34 -41 -34 -80 0 -39 6 -52 36 -86 20 -22 32
-40 27 -40 -6 0 -20 -9 -33 -20 -13 -11 -31 -20 -40 -20 -10 0 -34 -11 -54
-25 -25 -17 -51 -25 -80 -25 -30 0 -48 -6 -61 -20 -10 -11 -38 -25 -61 -31
-23 -6 -53 -22 -65 -35 -12 -13 -34 -24 -48 -24 -13 0 -34 -8 -45 -19 -36 -32
-81 -34 -115 -6 -28 24 -36 25 -213 31 -179 5 -183 6 -203 29 l-20 25 -389 -3
c-462 -3 -548 2 -580 32 -13 12 -36 21 -53 21 -19 0 -43 10 -61 25 -17 14 -39
25 -51 25 -11 0 -28 11 -37 25 -12 18 -25 25 -50 25 -26 0 -39 7 -56 30 -12
17 -28 30 -35 30 -7 0 -28 14 -46 30 l-35 30 -183 0 c-101 0 -189 -4 -195 -8
-5 -4 -20 -24 -33 -45 -18 -30 -22 -46 -16 -74 4 -21 6 -102 6 -182 -2 -139
-3 -147 -26 -171 -13 -14 -26 -41 -30 -61 -6 -32 -3 -39 22 -59 l28 -22 0
-279 0 -279 -29 -24 c-26 -20 -30 -30 -31 -79 -1 -44 -7 -61 -29 -88 -26 -31
-27 -36 -21 -99 6 -62 5 -69 -19 -97 -24 -28 -25 -36 -27 -162 -1 -132 -1
-132 -29 -152 l-27 -21 -2 -236 c-2 -236 -2 -237 -27 -263 -19 -20 -24 -36
-24 -75 0 -38 -6 -58 -25 -84 -15 -20 -25 -47 -25 -67 0 -25 -7 -37 -28 -50
-54 -33 -82 -66 -82 -95 0 -17 -10 -39 -25 -54 -14 -14 -25 -29 -25 -33 0 -4
-9 -16 -19 -25 -11 -10 -25 -32 -32 -49 -8 -18 -26 -42 -40 -55 -15 -12 -37
-42 -48 -65 -21 -43 -21 -46 -21 -1464 l0 -1421 33 -21 c18 -11 51 -40 73 -65
23 -25 50 -46 61 -46 11 0 30 -11 43 -25 18 -19 34 -25 66 -25 34 0 51 -7 77
-30 19 -17 46 -30 60 -30 15 0 32 -9 41 -22 13 -18 27 -23 72 -24 42 -1 64 -8
88 -25 l31 -24 1590 0 1590 0 29 22 c26 21 39 23 153 23 117 0 127 2 153 24
23 18 45 25 112 30 60 6 89 13 103 26 15 14 43 21 104 26 64 5 89 12 104 27
15 15 43 23 106 30 52 6 95 17 108 27 13 10 48 21 80 25 34 4 71 17 92 31 20
13 47 24 61 24 14 0 36 7 50 15 71 40 130 65 153 65 18 0 34 11 53 35 14 19
33 35 41 35 8 0 28 11 45 25 16 14 38 25 48 25 9 0 33 6 51 14 19 8 89 18 157
24 98 8 126 14 136 27 8 11 34 21 70 26 41 5 62 14 72 28 9 12 36 24 72 32 49
10 197 80 212 99 3 4 43 33 90 66 113 78 252 219 323 326 31 48 57 93 57 101
0 7 11 24 24 36 13 13 27 34 31 48 3 14 17 40 31 58 13 17 24 41 24 52 0 27
20 84 35 103 7 8 16 42 20 75 3 33 16 92 28 130 19 62 22 91 21 250 -1 147 -4
187 -19 220 -9 22 -23 93 -31 158 -9 79 -19 129 -32 150 -11 18 -22 44 -26 59
-3 15 -17 44 -31 64 -14 20 -25 44 -25 53 -1 41 -121 194 -235 299 -111 101
-122 109 -193 134 -230 82 -368 75 -501 -27 -79 -60 -91 -76 -100 -132 -4 -27
-15 -60 -24 -74 -9 -13 -17 -33 -17 -44 0 -31 51 -168 72 -191 10 -11 18 -26
18 -33 0 -14 123 -141 137 -141 6 0 18 -18 28 -41 10 -22 28 -48 39 -57 12 -9
29 -34 38 -55 10 -21 25 -40 33 -43 8 -4 22 -30 30 -59 9 -29 24 -60 34 -69
15 -14 16 -23 8 -68 -5 -29 -11 -82 -13 -118 -6 -79 -15 -99 -74 -170 -26 -30
-50 -68 -54 -84 -16 -65 -142 -176 -216 -191 -19 -4 -50 -16 -68 -26 -67 -39
-122 -15 -122 53 0 20 -7 52 -15 71 -10 23 -15 69 -15 127 0 84 -2 93 -25 114
-14 13 -25 29 -25 36 0 6 -9 25 -20 40 -11 16 -23 43 -26 62 -4 18 -16 44 -28
58 -29 33 -66 111 -66 138 0 12 -9 32 -20 44 -74 83 -90 107 -90 136 0 40 -9
62 -26 62 -7 0 -21 15 -30 33 -9 17 -27 43 -40 56 -13 13 -24 35 -24 49 0 13
-13 40 -30 59 -16 18 -30 40 -30 48 0 8 -11 26 -25 41 -14 15 -25 36 -25 48 0
21 -10 39 -66 117 -17 24 -36 60 -43 80 -6 20 -21 45 -31 54 -11 10 -20 23
-20 30 0 6 -11 26 -24 44 -14 19 -28 48 -32 65 -3 17 -16 42 -29 56 -13 14
-30 42 -39 63 -8 20 -36 62 -61 93 -25 31 -45 66 -45 78 0 12 -7 31 -15 42 -8
10 -24 37 -35 59 -11 22 -26 51 -34 65 -8 14 -37 75 -66 135 -29 61 -55 115
-58 121 -21 34 -49 71 -64 82 -10 7 -18 19 -18 26 0 7 -13 38 -30 69 -24 45
-30 69 -30 117 0 41 -7 74 -20 99 -10 21 -22 70 -26 107 -4 44 -15 84 -30 110
-13 22 -24 56 -24 75 0 19 -10 53 -22 74 -21 38 -22 52 -22 270 -1 223 0 231
22 262 22 31 22 32 22 436 l0 405 -26 31 c-14 17 -29 43 -33 58 -5 19 -17 31
-37 38 -17 6 -38 17 -46 26 -12 12 -40 16 -121 17 -102 1 -106 0 -142 -28 -31
-25 -47 -30 -92 -30 l-54 0 34 33 c86 81 39 207 -76 207 -31 0 -46 -7 -73 -34z
m-2529 -616 c14 -22 47 -63 74 -91 40 -42 52 -63 65 -115 9 -35 16 -71 16 -80
0 -37 -31 -80 -75 -103 -25 -13 -45 -27 -45 -32 0 -10 -82 -59 -98 -59 -24 0
-35 48 -37 165 -1 66 -6 161 -10 210 -7 84 -6 92 15 118 32 40 64 36 95 -13z
m2967 -105 c9 -21 8 -37 -6 -82 -10 -31 -20 -84 -22 -117 -9 -123 -51 -368
-66 -377 -26 -17 -75 32 -133 134 -20 34 -45 74 -56 88 -19 24 -25 69 -20 166
1 7 34 37 74 67 39 30 92 75 117 99 54 54 94 62 112 22z m-763 -584 c87 -33
180 -100 221 -161 65 -97 95 -221 72 -305 -6 -22 -13 -63 -17 -92 -4 -30 -17
-65 -31 -84 -13 -18 -24 -38 -24 -45 0 -19 -69 -74 -124 -100 -42 -20 -67 -24
-142 -24 -175 0 -326 74 -406 200 -41 65 -66 187 -48 234 5 15 10 39 10 54 0
66 82 216 147 269 24 20 68 45 96 54 70 25 182 25 246 0z m-1419 -36 c115 -33
152 -68 237 -222 31 -56 46 -154 38 -243 -10 -104 -61 -193 -155 -271 -63 -53
-73 -57 -147 -69 -137 -21 -275 16 -387 104 -63 51 -146 247 -146 347 0 48 29
157 56 206 38 72 69 101 142 136 64 31 73 32 182 32 81 -1 134 -7 180 -20z"/>
<path d="M2852 6541 c-63 -66 -132 -197 -132 -250 0 -40 19 -117 42 -171 17
-39 65 -91 118 -125 35 -23 165 -55 224 -55 40 0 135 36 163 62 38 36 66 116
74 218 l8 95 -40 82 c-30 63 -51 91 -85 117 -58 44 -149 74 -244 79 l-75 4
-53 -56z"/>
<path d="M1425 6538 c-22 -12 -56 -27 -75 -34 -30 -10 -39 -22 -63 -81 -36
-83 -39 -154 -12 -268 16 -72 23 -84 69 -130 79 -78 169 -115 278 -115 103 0
125 8 179 64 79 82 99 132 99 245 0 86 -3 103 -30 159 -17 35 -30 68 -30 73 0
16 -51 57 -102 84 -42 22 -59 25 -160 25 -96 -1 -119 -4 -153 -22z"/>
</g>
</svg>
