<?xml version="1.0" standalone="no"?>
<!DOCTYPE svg PUBLIC "-//W3C//DTD SVG 20010904//EN"
 "http://www.w3.org/TR/2001/REC-SVG-20010904/DTD/svg10.dtd">
<svg version="1.0" xmlns="http://www.w3.org/2000/svg"
 width="704.000000pt" height="1280.000000pt" viewBox="0 0 704.000000 1280.000000"
 preserveAspectRatio="xMidYMid meet">
<metadata>
Created by potrace 1.16, written by Peter Selinger 2001-2019
</metadata>
<g transform="translate(0.000000,1280.000000) scale(0.100000,-0.100000)"
fill="#000000" stroke="none">
<path d="M4610 10560 c-808 -59 -1438 -448 -1582 -979 -31 -114 -31 -326 0
-436 118 -414 504 -736 1071 -891 202 -55 361 -75 641 -81 209 -4 270 -2 412
16 431 54 786 194 1060 418 172 140 302 329 358 520 76 260 28 523 -139 759
-230 327 -649 558 -1168 644 -218 36 -431 46 -653 30z m380 -160 c333 -25 569
-85 827 -211 304 -149 508 -359 589 -609 24 -75 27 -100 27 -215 0 -105 -4
-144 -21 -201 -116 -380 -550 -687 -1119 -793 -182 -34 -270 -41 -492 -41
-286 0 -463 21 -676 81 -511 144 -853 430 -940 787 -25 106 -17 278 18 387 43
130 105 226 224 343 116 115 233 197 388 272 323 156 760 231 1175 200z"/>
<path d="M4584 10090 c-111 -29 -294 -127 -294 -158 0 -7 17 -36 38 -65 21
-29 53 -76 71 -104 18 -29 34 -53 36 -53 1 0 32 20 69 45 205 137 447 100 433
-66 -6 -70 -39 -112 -151 -195 -55 -42 -120 -97 -144 -123 l-43 -46 6 -105 c3
-58 9 -118 12 -134 l5 -29 82 7 c44 3 102 9 127 12 l47 6 -5 82 -6 82 137 113
c197 164 246 243 246 402 0 90 -26 150 -92 218 -57 57 -108 85 -198 110 -99
28 -274 28 -376 1z"/>
<path d="M4695 8931 c-51 -13 -75 -31 -106 -79 -49 -78 -36 -167 34 -229 91
-80 233 -45 281 69 55 132 -70 274 -209 239z"/>
<path d="M3785 8311 c-139 -34 -198 -178 -120 -291 103 -148 343 -71 337 109
-3 79 -49 144 -124 175 -40 17 -48 18 -93 7z m112 -118 c36 -44 31 -97 -12
-140 -32 -32 -39 -35 -78 -30 -91 12 -129 113 -67 176 48 48 116 45 157 -6z"/>
<path d="M3461 7965 c-53 -60 -39 -155 28 -190 l26 -13 -27 -7 c-16 -4 -28
-11 -28 -16 0 -5 -6 -9 -12 -9 -7 0 -40 -14 -72 -30 -36 -18 -74 -30 -98 -30
-26 0 -50 -8 -71 -24 -18 -13 -43 -27 -57 -31 -14 -4 -38 -18 -53 -31 -16 -13
-38 -24 -49 -24 -11 0 -33 -11 -50 -25 -40 -34 -76 -32 -111 5 l-29 30 -184 0
-184 0 -16 25 -16 25 -472 0 -473 0 -23 25 c-16 17 -34 25 -58 25 -22 0 -45 9
-64 25 -16 14 -35 25 -42 25 -8 0 -24 9 -38 19 -21 17 -46 25 -90 30 -4 1 -14
15 -23 31 -9 18 -23 30 -35 30 -18 0 -34 13 -66 52 -9 11 -50 14 -195 12 -101
-1 -187 -2 -191 -3 -4 0 -17 -16 -30 -33 -22 -32 -23 -37 -19 -229 l3 -196
-27 -22 c-22 -16 -29 -32 -33 -69 -4 -43 -2 -49 21 -59 24 -11 25 -16 32 -137
4 -70 4 -197 0 -284 -7 -157 -7 -157 -36 -184 -24 -23 -29 -35 -29 -76 0 -39
-5 -53 -25 -72 -23 -21 -24 -29 -22 -106 2 -72 -1 -85 -20 -106 -19 -21 -22
-36 -25 -156 -3 -133 -3 -134 -30 -154 l-28 -20 0 -238 0 -238 -28 -20 c-24
-19 -27 -26 -25 -76 2 -46 -1 -60 -22 -84 -14 -17 -25 -43 -25 -59 0 -23 -11
-39 -50 -72 -36 -30 -52 -53 -61 -83 -6 -23 -24 -54 -40 -71 -16 -16 -38 -46
-48 -66 -11 -20 -35 -54 -55 -75 -72 -79 -66 49 -66 -1520 l0 -1416 71 -70
c39 -38 81 -72 92 -76 12 -4 35 -17 50 -30 19 -16 41 -24 67 -24 29 0 48 -8
73 -30 23 -20 45 -30 66 -30 22 0 35 -7 47 -25 14 -21 24 -25 66 -25 34 0 57
-6 77 -21 25 -18 50 -21 257 -30 180 -9 1725 -8 2915 0 21 0 50 11 72 25 34
23 47 25 154 26 105 1 122 4 153 25 26 17 56 25 115 30 62 5 85 11 103 28 18
17 39 22 106 26 62 5 89 11 104 24 13 12 48 22 98 28 45 6 92 18 110 30 19 11
49 19 76 19 33 0 56 8 89 30 24 16 56 30 70 30 15 0 37 9 51 19 26 21 131 61
159 61 8 0 30 16 48 35 17 19 36 35 42 35 6 0 24 11 41 25 16 14 39 25 50 25
11 0 32 7 46 15 17 9 76 18 155 23 111 7 130 11 148 30 14 15 32 22 59 22 29
0 48 8 72 28 21 18 55 33 93 41 81 17 149 56 309 175 84 62 256 222 256 238 0
6 9 22 21 36 40 53 79 117 79 133 0 9 7 23 17 30 9 8 27 38 39 67 13 28 28 52
33 52 5 0 16 28 24 63 9 34 25 80 37 102 11 21 20 58 20 80 0 23 12 79 26 126
24 80 25 92 21 259 -4 149 -8 181 -25 215 -12 24 -24 79 -31 141 -10 100 -29
157 -86 265 -14 26 -25 53 -25 61 0 8 -11 25 -24 38 -14 12 -28 35 -31 51 -8
36 -38 72 -141 174 -87 85 -204 161 -291 189 -74 23 -200 39 -258 32 -68 -8
-163 -56 -229 -117 -47 -43 -56 -57 -62 -97 -3 -26 -13 -58 -22 -72 -27 -43
-8 -129 48 -220 6 -8 17 -28 26 -45 9 -16 29 -42 44 -57 16 -14 32 -33 37 -40
4 -8 25 -27 45 -42 21 -15 40 -38 44 -49 4 -12 21 -39 38 -59 75 -90 88 -109
98 -145 5 -20 20 -52 33 -71 19 -28 21 -39 13 -70 -5 -20 -11 -57 -14 -82 -2
-25 -6 -61 -8 -81 -4 -37 -38 -98 -88 -157 -15 -18 -28 -40 -28 -50 0 -20 -67
-104 -107 -135 -16 -12 -34 -27 -41 -34 -7 -7 -32 -17 -55 -23 -23 -6 -61 -19
-85 -30 -51 -24 -71 -25 -100 -4 -15 10 -22 25 -22 48 0 19 -7 50 -15 69 -10
24 -15 70 -15 132 0 89 -2 98 -25 121 -14 14 -25 32 -25 41 0 8 -11 28 -25 45
-14 16 -25 40 -25 52 0 13 -9 34 -19 47 -34 44 -71 117 -71 143 0 14 -10 32
-23 43 -13 10 -30 30 -37 43 -7 14 -22 35 -34 48 -13 15 -20 33 -18 53 3 22
-4 36 -26 57 -16 15 -32 37 -36 49 -4 11 -20 35 -36 52 -17 17 -30 42 -30 55
0 13 -7 30 -16 37 -9 8 -25 32 -34 54 -9 22 -25 46 -34 54 -9 7 -16 26 -16 42
0 17 -12 42 -28 61 -38 43 -82 120 -82 142 0 10 -9 30 -21 44 -66 87 -89 123
-89 145 0 13 -11 36 -25 49 -14 14 -30 40 -37 59 -6 18 -33 60 -60 93 -26 33
-48 65 -48 71 0 13 -62 138 -78 157 -6 7 -14 27 -17 43 -4 17 -14 41 -23 54
-31 50 -82 152 -82 164 0 7 -20 35 -44 62 -24 28 -47 61 -51 75 -4 14 -18 43
-31 66 -18 30 -24 56 -24 98 0 33 -8 77 -19 104 -11 26 -22 76 -25 111 -4 42
-15 79 -31 107 -14 24 -25 58 -25 79 0 19 -12 59 -26 87 l-26 52 7 219 c6 187
10 224 26 251 17 29 18 61 19 416 1 212 1 395 1 408 -1 12 -12 32 -26 44 -14
12 -25 31 -25 44 0 25 -14 38 -50 49 -14 4 -32 15 -41 24 -12 13 -37 16 -126
16 -107 0 -113 -1 -140 -26 -23 -21 -39 -27 -87 -28 l-59 -2 31 26 c36 30 58
90 48 130 -4 15 -20 40 -36 56 -24 24 -37 29 -78 29 -45 0 -53 -4 -81 -35z
m-2504 -636 c97 -118 114 -145 125 -209 10 -52 9 -65 -5 -96 -10 -19 -31 -43
-49 -52 -17 -9 -45 -29 -62 -43 -65 -54 -110 -64 -122 -26 -4 12 -8 72 -9 132
-1 61 -6 153 -10 205 -7 94 -7 96 20 128 15 18 33 32 40 32 8 0 40 -32 72 -71z
m2941 -71 c16 -16 15 -54 -4 -108 -9 -25 -17 -76 -18 -115 -1 -38 -8 -88 -14
-110 -6 -22 -16 -86 -23 -142 -12 -111 -22 -130 -61 -113 -22 10 -37 30 -96
125 -14 22 -38 59 -54 82 -25 37 -28 50 -28 122 0 77 1 81 28 98 15 10 69 52
121 95 92 77 124 91 149 66z m-770 -597 c145 -44 243 -141 291 -285 24 -72 24
-77 3 -241 -10 -80 -54 -168 -105 -211 -64 -54 -124 -74 -224 -74 -57 0 -107
6 -130 14 -21 8 -57 20 -79 26 -74 18 -186 121 -219 200 -24 55 -37 156 -26
196 6 22 11 50 11 64 0 30 82 195 112 227 86 92 231 125 366 84z m-1425 -31
c139 -32 237 -139 279 -303 49 -193 -17 -362 -183 -474 -109 -73 -336 -43
-482 64 -63 46 -118 153 -143 277 -15 77 -16 97 -5 155 7 36 27 95 45 130 25
51 42 71 90 104 33 22 79 45 103 51 58 15 224 13 296 -4z"/>
<path d="M2859 6550 c-54 -54 -95 -119 -123 -194 -22 -58 -17 -125 16 -211 25
-67 120 -160 177 -174 67 -17 143 -31 170 -31 51 0 150 38 176 67 33 39 62
134 68 226 5 70 2 86 -22 146 -17 42 -42 81 -67 105 -52 50 -154 97 -223 102
-31 3 -71 7 -89 9 -30 4 -40 -2 -83 -45z"/>
<path d="M1429 6541 c-19 -11 -54 -25 -77 -32 -39 -11 -43 -16 -68 -82 -24
-63 -26 -78 -21 -166 7 -130 27 -183 94 -248 76 -73 158 -103 277 -103 102 0
131 12 184 79 66 83 82 128 81 237 0 88 -4 107 -32 174 -28 64 -40 80 -80 107
-65 44 -104 53 -222 53 -80 0 -108 -4 -136 -19z"/>
</g>
</svg>
