<?xml version="1.0" standalone="no"?>
<!DOCTYPE svg PUBLIC "-//W3C//DTD SVG 20010904//EN"
 "http://www.w3.org/TR/2001/REC-SVG-20010904/DTD/svg10.dtd">
<svg version="1.0" xmlns="http://www.w3.org/2000/svg"
 width="704.000000pt" height="1280.000000pt" viewBox="0 0 704.000000 1280.000000"
 preserveAspectRatio="xMidYMid meet">
<metadata>
Created by potrace 1.16, written by Peter Selinger 2001-2019
</metadata>
<g transform="translate(0.000000,1280.000000) scale(0.100000,-0.100000)"
fill="#000000" stroke="none">
<path d="M4670 10563 c-580 -34 -1056 -217 -1360 -522 -153 -154 -236 -289
-281 -461 -31 -119 -32 -321 -1 -432 136 -495 665 -857 1402 -960 146 -20 615
-17 757 4 447 68 788 210 1048 435 215 187 335 402 366 655 29 242 -72 520
-265 727 -48 52 -193 171 -271 223 -354 234 -887 361 -1395 331z m325 -163
c358 -26 682 -120 928 -268 121 -73 166 -107 260 -200 182 -179 269 -389 253
-617 -32 -498 -602 -904 -1369 -976 -164 -15 -547 -7 -677 15 -614 103 -1048
388 -1183 774 -58 165 -47 377 28 540 86 188 301 394 537 513 336 170 785 251
1223 219z"/>
<path d="M4645 10083 c-22 -2 -54 -10 -72 -18 -17 -8 -38 -15 -45 -15 -8 0
-52 -19 -98 -41 -62 -31 -100 -59 -149 -109 -85 -88 -140 -159 -147 -190 -3
-14 -14 -45 -24 -70 -29 -70 -35 -115 -34 -255 l1 -130 53 -104 c83 -163 213
-289 359 -350 208 -86 457 -54 641 83 30 23 62 49 70 59 9 10 40 27 70 37 l55
19 26 -25 c23 -22 100 -53 172 -68 15 -4 25 -11 22 -16 -3 -4 -58 -21 -123
-35 -276 -63 -319 -74 -363 -93 -48 -21 -89 -63 -89 -92 0 -25 42 -60 93 -75
161 -48 440 -14 617 75 120 61 147 132 75 198 -35 32 -37 37 -21 46 65 39 106
99 106 155 0 33 -38 84 -79 105 -101 53 -260 14 -401 -98 -25 -20 -48 -36 -52
-36 -16 0 -7 37 12 55 11 10 22 27 26 39 3 11 20 52 36 90 30 68 30 72 25 200
-5 141 -25 218 -84 328 -81 150 -262 281 -438 317 -59 11 -183 19 -240 14z
m1058 -943 c34 0 87 -48 87 -79 0 -28 -55 -88 -102 -112 l-40 -20 -101 26
c-172 44 -182 52 -126 100 65 54 183 99 234 89 11 -2 33 -4 48 -4z m8 -301
c67 -47 16 -107 -136 -161 -107 -39 -198 -53 -335 -52 -129 0 -194 13 -204 40
-8 22 0 32 42 50 35 14 73 24 352 88 63 15 133 35 155 46 46 22 84 19 126 -11z"/>
<path d="M3744 8296 c-30 -14 -64 -40 -80 -62 -25 -33 -29 -46 -29 -104 0 -75
22 -119 81 -160 119 -81 295 18 294 165 -1 59 -65 141 -132 169 -50 21 -74 20
-134 -8z m110 -70 c45 -19 66 -52 66 -102 0 -36 -5 -47 -37 -74 -32 -28 -41
-32 -77 -27 -110 15 -132 159 -32 203 39 17 40 17 80 0z"/>
<path d="M3459 7964 c-28 -29 -34 -42 -34 -80 0 -40 5 -50 41 -83 l40 -38 -47
-27 c-26 -14 -54 -26 -63 -26 -9 0 -25 -9 -36 -20 -15 -15 -33 -20 -73 -20
-41 0 -58 -5 -72 -20 -10 -11 -35 -25 -56 -32 -22 -6 -46 -22 -54 -35 -11 -17
-25 -23 -50 -23 -19 0 -38 -6 -42 -14 -25 -41 -100 -43 -128 -3 -15 21 -22 22
-202 23 l-187 1 -20 26 -21 25 -472 -1 -473 -2 -25 28 c-16 17 -36 27 -53 27
-16 0 -43 11 -62 25 -19 14 -39 25 -45 25 -7 0 -24 12 -40 26 -18 16 -36 24
-54 22 -20 -2 -32 5 -55 35 -16 21 -34 36 -41 33 -7 -2 -27 10 -43 29 l-31 33
-88 -3 c-48 -1 -134 -3 -190 -4 l-101 -1 -22 -37 c-22 -36 -23 -47 -21 -225
l2 -187 -30 -32 c-42 -43 -43 -94 -4 -125 l28 -22 -1 -276 0 -276 -32 -30
c-29 -26 -32 -35 -32 -84 0 -45 -4 -58 -22 -70 -19 -13 -22 -26 -23 -96 -2
-67 -6 -85 -24 -104 -19 -20 -21 -33 -21 -160 l0 -137 -27 -24 -28 -23 0 -230
0 -231 -27 -28 c-23 -24 -28 -38 -28 -81 0 -41 -5 -56 -25 -78 -15 -16 -25
-39 -25 -56 0 -21 -13 -41 -55 -82 -38 -37 -55 -61 -55 -78 0 -16 -18 -47 -45
-80 -25 -30 -45 -60 -45 -65 0 -6 -17 -30 -38 -54 -21 -24 -48 -58 -60 -76
l-22 -31 0 -1429 0 -1428 49 -35 c26 -19 55 -46 63 -61 9 -14 28 -29 44 -33
15 -4 41 -18 57 -32 19 -16 41 -24 66 -24 26 0 47 -8 71 -30 20 -16 47 -29 63
-30 15 0 37 -10 49 -22 17 -17 35 -23 71 -24 34 -1 57 -8 80 -25 l32 -24 835
-5 c459 -3 1178 -3 1597 0 l761 5 24 23 c22 20 34 22 145 22 108 0 123 2 148
22 21 16 47 23 111 28 65 5 89 12 107 27 17 16 42 23 107 28 66 5 88 11 100
26 11 14 38 22 105 30 52 7 97 18 108 27 10 9 47 19 83 24 48 5 74 14 95 33
17 14 43 25 59 25 16 0 42 11 58 25 17 14 38 25 48 25 11 0 28 7 38 15 11 8
34 15 50 15 37 0 49 7 65 38 6 12 18 22 26 22 8 0 30 14 48 30 19 17 42 30 50
30 9 0 28 5 44 12 35 14 45 16 174 26 86 7 112 13 134 30 18 14 42 22 66 22
28 0 47 8 71 28 22 19 53 33 92 40 160 32 491 294 609 481 31 51 57 98 57 105
0 7 11 23 24 35 13 13 27 34 31 48 3 14 16 40 29 57 12 17 28 56 35 86 6 30
18 61 26 70 8 9 19 48 24 86 5 38 19 107 31 154 20 77 22 100 16 240 -4 113
-11 171 -25 215 -11 33 -25 103 -31 155 -7 57 -20 107 -31 126 -10 17 -19 37
-19 44 0 19 -81 182 -102 204 -10 11 -18 25 -18 32 0 32 -164 203 -261 273
-76 54 -101 65 -209 95 -162 44 -269 30 -386 -50 -82 -57 -106 -86 -115 -145
-5 -28 -16 -60 -25 -71 -15 -16 -16 -25 -7 -66 17 -72 50 -155 66 -167 8 -5
18 -21 22 -34 4 -13 42 -59 84 -101 42 -43 84 -90 94 -106 25 -43 63 -96 83
-118 10 -11 24 -37 31 -59 7 -21 24 -55 37 -74 23 -33 23 -38 12 -77 -7 -23
-14 -75 -15 -116 -3 -86 -7 -96 -71 -170 -26 -30 -52 -72 -59 -93 -8 -24 -39
-63 -82 -106 -60 -59 -77 -70 -117 -76 -25 -4 -63 -15 -84 -26 -70 -36 -118
-15 -118 52 0 19 -7 52 -14 74 -8 22 -17 78 -21 125 -5 52 -14 97 -25 115 -10
17 -21 41 -25 53 -4 13 -16 33 -26 43 -10 10 -19 29 -19 42 0 12 -10 38 -22
57 -34 54 -67 123 -68 141 0 8 -11 26 -25 39 -14 13 -25 29 -25 36 0 8 -13 23
-30 36 -25 18 -30 29 -30 65 0 34 -5 46 -25 59 -13 9 -27 26 -31 37 -3 12 -17
33 -29 47 -13 14 -33 45 -45 70 -30 64 -67 129 -85 146 -8 9 -15 25 -15 37 0
20 -14 46 -42 82 -24 30 -56 85 -66 113 -6 18 -20 46 -32 61 -11 16 -20 32
-20 35 0 3 -13 25 -30 48 -16 22 -30 49 -30 59 0 10 -13 34 -30 52 -16 19 -30
41 -30 49 0 18 -66 120 -84 130 -8 5 -18 23 -21 41 -4 17 -13 39 -20 47 -8 8
-22 35 -33 60 -11 25 -27 51 -36 59 -9 7 -16 25 -16 38 0 14 -8 37 -18 51 -11
15 -36 63 -57 107 -20 44 -55 101 -76 127 -22 26 -39 53 -39 62 0 8 -13 37
-30 63 -25 38 -30 58 -30 106 0 35 -8 77 -19 105 -11 26 -22 75 -24 108 -3 42
-13 76 -31 106 -14 25 -26 59 -26 77 0 18 -12 57 -26 87 l-26 55 7 217 c6 187
10 221 26 248 18 29 19 57 19 441 0 368 -2 412 -16 424 -9 8 -25 32 -35 55
-13 32 -24 44 -47 49 -17 3 -37 14 -46 24 -13 14 -34 18 -118 18 -101 1 -132
-6 -154 -36 -8 -10 -33 -15 -85 -17 -70 -2 -72 -2 -42 11 83 35 95 157 21 209
-12 9 -43 16 -68 16 -40 0 -51 -5 -81 -36z m-2543 -591 c151 -170 166 -195
168 -290 1 -55 -2 -65 -28 -92 -17 -17 -35 -31 -40 -31 -6 0 -31 -18 -55 -39
-25 -22 -56 -43 -69 -46 -46 -11 -53 8 -60 181 -11 281 -10 289 17 318 31 33
37 32 67 -1z m2985 -127 c9 -18 6 -43 -11 -111 -14 -58 -20 -101 -16 -127 4
-21 2 -48 -4 -59 -6 -11 -15 -52 -21 -92 -23 -180 -25 -187 -53 -187 -28 0
-53 28 -137 155 l-59 90 0 77 0 77 73 58 c39 32 74 60 77 63 80 80 131 100
151 56z m-754 -588 c175 -65 286 -214 287 -383 0 -95 -22 -217 -44 -247 -11
-15 -20 -31 -20 -35 0 -24 -70 -89 -124 -114 -53 -25 -73 -29 -151 -29 -75 0
-106 5 -178 31 -49 16 -100 40 -114 52 -15 12 -41 35 -60 51 -80 69 -120 195
-101 321 18 124 106 276 189 327 78 49 224 61 316 26z m-1431 -33 c105 -28
158 -72 223 -187 48 -86 64 -157 57 -261 -7 -116 -43 -184 -141 -271 -88 -78
-79 -73 -164 -86 -189 -30 -397 65 -463 212 -42 92 -71 219 -63 276 10 69 28
134 47 162 8 14 22 39 29 55 20 42 146 113 208 117 100 7 202 0 267 -17z"/>
<path d="M2853 6542 c-32 -33 -71 -90 -94 -137 -38 -76 -40 -84 -34 -144 8
-85 43 -166 96 -218 55 -55 91 -71 205 -91 90 -15 96 -15 151 3 75 24 100 47
134 121 24 53 28 76 30 160 2 91 0 104 -28 164 -17 36 -43 77 -59 92 -39 36
-153 87 -208 93 -25 3 -67 7 -92 10 -45 5 -47 4 -101 -53z"/>
<path d="M1489 6559 c-19 -4 -52 -16 -74 -27 -22 -11 -55 -23 -72 -27 -18 -3
-33 -8 -33 -9 0 -1 -14 -41 -30 -88 -34 -98 -34 -140 2 -263 25 -85 44 -113
107 -160 72 -52 147 -75 249 -75 98 0 128 13 186 84 59 73 76 124 76 232 0 88
-3 101 -35 171 -38 82 -45 90 -120 130 -39 21 -69 28 -136 32 -48 3 -102 3
-120 0z"/>
</g>
</svg>
