<?xml version="1.0" standalone="no"?>
<!DOCTYPE svg PUBLIC "-//W3C//DTD SVG 20010904//EN"
 "http://www.w3.org/TR/2001/REC-SVG-20010904/DTD/svg10.dtd">
<svg version="1.0" xmlns="http://www.w3.org/2000/svg"
 width="704.000000pt" height="1280.000000pt" viewBox="0 0 704.000000 1280.000000"
 preserveAspectRatio="xMidYMid meet">
<metadata>
Created by potrace 1.16, written by Peter Selinger 2001-2019
</metadata>
<g transform="translate(0.000000,1280.000000) scale(0.100000,-0.100000)"
fill="#000000" stroke="none">
<path d="M4605 10559 c-442 -36 -786 -145 -1089 -348 -246 -164 -424 -393
-487 -627 -32 -115 -32 -328 -2 -434 142 -494 654 -852 1368 -957 188 -28 641
-25 832 5 259 41 446 98 658 202 171 83 291 166 410 285 151 149 247 315 291
503 23 95 21 254 -5 370 -74 327 -354 625 -756 804 -365 163 -791 232 -1220
197z m553 -175 c558 -73 1023 -338 1197 -681 56 -112 79 -210 79 -343 1 -127
-19 -211 -76 -325 -125 -250 -405 -464 -765 -586 -251 -85 -481 -119 -803
-119 -281 0 -467 24 -682 86 -413 119 -727 344 -860 615 -62 125 -81 212 -76
353 8 218 78 370 252 541 234 231 547 378 951 445 251 42 534 47 783 14z"/>
<path d="M4220 10016 c-201 -38 -330 -208 -330 -436 0 -122 37 -228 126 -361
85 -128 297 -332 477 -459 42 -30 107 -76 144 -102 37 -27 75 -48 84 -48 21 0
221 134 336 225 118 93 271 242 350 340 80 100 148 236 161 327 17 112 -9 256
-61 333 -123 184 -344 243 -543 145 -75 -37 -166 -129 -200 -205 -14 -30 -29
-55 -32 -55 -4 0 -22 30 -41 67 -92 177 -275 266 -471 229z m59 -152 c33 -42
26 -59 -48 -118 -38 -30 -82 -75 -97 -100 -23 -36 -35 -45 -57 -46 -41 0 -62
52 -46 118 14 56 40 103 71 126 13 9 32 23 43 31 11 8 41 15 67 15 39 0 50 -4
67 -26z"/>
<path d="M3772 8310 c-43 -10 -100 -56 -124 -100 -26 -48 -21 -135 12 -182
100 -147 324 -96 338 77 2 29 -1 69 -7 88 -15 45 -78 102 -128 116 -42 12 -45
12 -91 1z m82 -84 c44 -18 66 -52 66 -99 0 -31 -7 -46 -35 -74 -32 -32 -39
-35 -78 -30 -109 15 -131 153 -33 201 38 19 39 19 80 2z"/>
<path d="M3468 7973 c-53 -56 -56 -117 -9 -174 l28 -33 -26 -22 c-14 -12 -37
-25 -51 -29 -14 -4 -39 -16 -56 -26 -17 -11 -50 -19 -72 -19 -22 0 -47 -6 -54
-12 -21 -20 -56 -38 -73 -38 -8 0 -24 -9 -34 -19 -25 -25 -55 -41 -77 -41 -10
0 -27 -9 -38 -20 -33 -31 -90 -29 -124 3 l-28 27 -177 0 c-176 0 -177 0 -199
25 l-22 25 -471 0 -472 0 -23 25 c-13 14 -35 25 -49 25 -29 1 -124 45 -166 78
-15 12 -40 22 -56 22 -19 0 -30 6 -34 20 -10 30 -34 50 -61 50 -16 0 -28 8
-36 25 -6 14 -14 25 -17 25 -90 6 -362 5 -377 0 -11 -5 -29 -21 -39 -36 -16
-25 -18 -52 -19 -224 l-1 -196 -27 -33 c-18 -21 -28 -44 -28 -66 0 -25 7 -38
28 -53 l27 -20 0 -276 0 -276 -33 -29 c-27 -26 -32 -37 -32 -76 0 -36 -6 -54
-25 -77 -22 -26 -25 -39 -25 -106 0 -65 -3 -79 -22 -100 -21 -22 -23 -33 -23
-152 0 -127 0 -129 -27 -157 l-28 -29 0 -231 0 -231 -27 -33 c-22 -26 -27 -41
-25 -79 1 -38 -3 -52 -23 -74 -16 -18 -25 -39 -25 -61 0 -26 -7 -39 -26 -52
-57 -39 -84 -71 -84 -101 0 -22 -12 -43 -41 -74 -22 -23 -49 -59 -59 -78 -10
-19 -27 -44 -37 -55 -11 -11 -31 -41 -46 -66 l-27 -46 0 -1429 1 -1429 40 -25
c22 -14 48 -37 57 -52 9 -16 34 -35 59 -44 23 -9 50 -25 59 -35 12 -13 31 -19
60 -19 34 0 51 -7 77 -30 20 -17 46 -30 61 -30 15 0 29 -6 32 -14 8 -20 31
-28 93 -32 38 -2 60 -9 77 -25 22 -21 36 -22 266 -31 185 -6 1628 -6 2894 1
42 0 58 5 79 26 25 23 36 25 119 26 145 3 161 5 192 27 20 14 52 22 104 26 53
5 83 12 104 27 22 16 48 22 109 26 65 3 85 8 108 27 21 18 44 24 104 29 54 5
84 13 102 27 17 13 41 20 70 20 45 0 98 21 105 40 2 6 22 14 45 17 22 3 53 16
68 29 16 13 38 24 51 24 13 0 25 4 28 9 4 5 28 12 55 16 38 5 53 13 70 36 12
16 28 29 36 29 9 0 29 13 47 30 17 16 41 30 52 30 12 0 31 7 43 15 13 9 65 17
151 23 110 8 135 13 158 31 15 11 41 21 59 21 20 0 45 10 68 29 23 18 59 33
98 40 33 7 82 26 109 42 26 16 51 29 55 29 4 0 33 20 64 45 31 24 91 72 134
106 142 112 222 207 295 354 9 17 26 44 39 61 13 17 23 37 23 46 0 8 11 29 25
48 14 19 25 45 25 59 0 14 14 53 30 86 16 33 30 74 30 92 0 18 12 78 26 134
25 96 26 112 21 268 -4 140 -8 172 -24 203 -13 23 -25 78 -33 150 -9 72 -20
124 -32 143 -10 16 -18 37 -18 46 0 9 -11 32 -23 51 -13 19 -27 47 -31 62 -4
16 -20 45 -35 65 -16 20 -31 48 -35 63 -8 37 -175 201 -264 261 -100 67 -220
106 -347 114 -92 5 -104 4 -145 -18 -140 -72 -204 -132 -215 -201 -4 -24 -14
-52 -21 -63 -20 -29 -17 -65 13 -147 40 -108 107 -203 185 -263 21 -16 40 -37
44 -47 3 -9 21 -36 40 -59 19 -22 34 -44 34 -48 0 -5 11 -20 25 -35 14 -15 28
-39 31 -54 3 -15 18 -44 31 -64 22 -32 25 -45 19 -85 -4 -27 -10 -82 -15 -123
-9 -85 -15 -100 -75 -173 -24 -29 -49 -70 -55 -89 -8 -23 -38 -61 -80 -101
-58 -54 -79 -68 -139 -86 -39 -12 -74 -26 -77 -31 -8 -13 -61 -13 -86 0 -14 8
-19 21 -19 49 0 21 -7 55 -15 74 -10 24 -15 69 -15 128 0 83 -3 95 -25 125
-14 18 -25 37 -25 41 0 5 -11 24 -25 43 -14 19 -25 46 -25 60 0 14 -9 35 -19
47 -26 28 -71 118 -71 142 0 11 -12 33 -27 50 -58 63 -80 97 -86 134 -4 23
-17 49 -32 62 -14 13 -25 30 -25 37 0 8 -16 31 -35 51 -20 21 -35 47 -35 61 0
13 -7 29 -15 36 -8 7 -23 31 -33 54 -11 22 -26 47 -35 55 -10 7 -17 27 -17 43
0 18 -9 38 -25 52 -14 13 -25 26 -25 30 0 3 -11 23 -24 44 -14 20 -28 50 -32
67 -4 16 -31 63 -61 104 -29 42 -53 86 -53 99 0 13 -11 33 -24 45 -13 12 -31
39 -39 59 -8 20 -36 62 -61 95 -25 32 -46 65 -46 73 0 18 -55 128 -75 150 -8
9 -18 32 -21 51 -4 19 -18 50 -31 69 -12 19 -23 40 -23 46 0 6 -9 22 -19 36
-11 13 -23 36 -26 50 -4 14 -26 47 -50 75 -24 27 -47 63 -51 79 -4 16 -16 42
-28 59 -15 22 -23 52 -27 111 -4 44 -13 92 -22 105 -8 13 -17 54 -20 92 -4 46
-14 81 -32 110 -14 24 -25 59 -25 78 0 19 -12 56 -26 83 l-27 50 8 225 c6 198
9 229 26 253 18 25 19 50 19 434 0 407 0 408 -22 431 -12 13 -27 38 -33 55 -7
22 -19 34 -40 41 -16 5 -38 17 -48 25 -13 12 -46 16 -127 19 -102 3 -111 1
-137 -21 -19 -16 -46 -25 -85 -29 l-58 -6 34 33 c86 81 38 206 -80 206 -31 0
-46 -6 -66 -27z m-2551 -599 c10 -15 42 -52 70 -84 117 -126 135 -267 42 -320
-23 -12 -55 -34 -73 -49 -17 -15 -43 -32 -58 -39 -36 -15 -57 5 -60 56 -5 133
-11 306 -11 356 -1 52 3 62 27 82 34 30 41 30 63 -2z m2975 -121 c22 -20 23
-44 2 -103 -9 -25 -18 -80 -20 -122 -1 -42 -8 -86 -13 -97 -6 -11 -11 -37 -11
-58 0 -55 -26 -193 -39 -206 -7 -7 -18 -5 -35 6 -28 19 -36 28 -117 154 -58
90 -59 94 -59 162 0 84 5 98 39 115 14 8 64 48 111 90 88 78 110 88 142 59z
m-2938 -568 c20 -14 47 -25 59 -25 34 0 108 -41 131 -73 15 -20 21 -45 22 -86
1 -71 11 -92 28 -59 43 80 67 112 119 157 54 48 89 61 132 51 6 -1 48 -2 95
-2 89 1 226 -27 267 -54 12 -8 31 -14 42 -14 11 0 22 -9 26 -19 6 -18 7 -18
43 2 25 13 46 18 62 14 49 -13 55 -23 60 -102 5 -73 4 -75 -17 -75 -13 0 -23
5 -23 10 0 7 -6 7 -19 1 -18 -10 -18 -13 -3 -76 12 -50 20 -65 34 -65 14 0 18
-8 18 -40 0 -29 -4 -40 -15 -40 -15 0 -20 -14 -29 -82 -7 -53 -32 -102 -83
-158 -79 -88 -117 -112 -201 -127 -138 -24 -274 11 -389 99 -59 45 -111 140
-132 240 -7 32 -16 60 -21 63 -17 10 -95 -34 -114 -65 -20 -35 -84 -69 -129
-70 -35 0 -88 22 -106 43 -8 10 -28 17 -48 17 -46 0 -86 22 -120 66 -22 29
-27 48 -28 93 -1 31 -9 73 -18 93 -21 45 -21 69 -3 111 15 38 79 97 104 97 9
0 27 15 38 33 44 68 150 89 218 42z m2182 -22 c132 -45 241 -154 282 -283 31
-100 33 -114 17 -166 -8 -27 -15 -69 -15 -92 0 -49 -50 -149 -97 -194 -85 -81
-252 -103 -401 -52 -108 37 -225 130 -254 203 -22 55 -38 177 -28 212 6 19 10
45 10 59 0 40 81 191 126 235 23 23 58 49 78 59 78 37 204 46 282 19z"/>
<path d="M914 6536 c-35 -55 8 -166 65 -166 45 0 65 31 57 87 -8 62 -34 97
-74 101 -24 2 -34 -3 -48 -22z"/>
<path d="M1488 6534 c24 -19 32 -33 32 -58 0 -49 -30 -71 -97 -71 -48 0 -58 4
-79 28 -13 15 -24 32 -24 38 0 16 39 10 60 -11 23 -23 58 -26 84 -7 37 27 -1
57 -74 57 -60 0 -82 -19 -107 -90 -30 -85 -30 -188 -2 -283 17 -58 29 -78 72
-120 80 -78 140 -101 267 -105 97 -3 107 -2 136 20 50 38 102 102 124 152 21
50 28 166 10 166 -5 0 -10 -13 -10 -30 0 -20 -5 -30 -15 -30 -13 0 -15 11 -13
63 2 37 7 60 13 57 6 -3 9 -13 9 -22 -1 -10 3 -18 8 -18 17 0 21 33 8 69 -46
130 -80 173 -80 101 0 -32 -4 -40 -19 -40 -15 0 -19 11 -25 62 -8 77 -30 98
-34 33 -6 -84 -89 -122 -151 -69 -33 28 -42 75 -21 115 10 18 7 19 -47 19
l-58 0 33 -26z"/>
<path d="M745 6495 c-28 -27 -30 -46 -14 -96 24 -71 77 -100 112 -61 33 36 12
148 -31 171 -30 16 -40 14 -67 -14z"/>
<path d="M2852 6542 c-59 -62 -132 -197 -132 -243 0 -93 44 -201 103 -256 65
-60 84 -69 173 -87 105 -21 125 -20 200 5 50 17 68 29 87 58 40 60 56 121 58
222 2 88 0 98 -30 162 -56 116 -164 177 -341 190 l-64 5 -54 -56z"/>
</g>
</svg>
