<?xml version="1.0" standalone="no"?>
<!DOCTYPE svg PUBLIC "-//W3C//DTD SVG 20010904//EN"
 "http://www.w3.org/TR/2001/REC-SVG-20010904/DTD/svg10.dtd">
<svg version="1.0" xmlns="http://www.w3.org/2000/svg"
 width="704.000000pt" height="1280.000000pt" viewBox="0 0 704.000000 1280.000000"
 preserveAspectRatio="xMidYMid meet">
<metadata>
Created by potrace 1.16, written by Peter Selinger 2001-2019
</metadata>
<g transform="translate(0.000000,1280.000000) scale(0.100000,-0.100000)"
fill="#000000" stroke="none">
<path d="M4600 10560 c-267 -27 -416 -55 -590 -112 -434 -140 -781 -406 -922
-705 -63 -134 -81 -216 -82 -378 0 -117 3 -153 22 -218 138 -482 643 -841
1336 -949 191 -30 644 -32 831 -5 442 66 775 205 1041 434 408 354 484 858
190 1268 -75 104 -120 151 -237 245 -271 217 -604 349 -1024 405 -143 19 -446
27 -565 15z m390 -160 c403 -29 734 -132 1014 -317 88 -58 259 -227 311 -308
87 -133 120 -254 119 -425 -1 -112 -4 -134 -31 -206 -50 -139 -108 -228 -218
-339 -180 -182 -386 -297 -695 -389 -318 -94 -809 -116 -1160 -51 -468 87
-821 282 -1023 566 -188 265 -185 603 8 874 200 281 612 497 1087 570 219 33
373 40 588 25z"/>
<path d="M5073 10081 c-134 -38 -236 -128 -309 -272 -13 -27 -26 -49 -28 -49
-2 0 -16 25 -31 55 -36 74 -124 167 -198 211 -88 51 -161 67 -284 62 -93 -4
-109 -8 -177 -42 -189 -93 -292 -332 -241 -562 17 -81 82 -223 136 -297 46
-64 225 -253 293 -309 34 -28 83 -69 109 -92 45 -38 129 -98 252 -181 28 -18
65 -45 84 -59 19 -14 40 -26 47 -26 11 0 122 73 258 170 158 113 385 316 473
423 161 197 232 364 218 516 -7 71 -37 174 -69 237 -31 61 -122 149 -188 182
-102 52 -234 65 -345 33z m-842 -160 c16 -16 29 -36 29 -44 0 -9 -36 -45 -80
-82 -54 -44 -90 -84 -111 -120 -26 -46 -35 -55 -59 -55 -45 0 -74 43 -66 100
23 168 198 290 287 201z"/>
<path d="M3766 8305 c-85 -30 -127 -80 -134 -159 -6 -75 24 -138 86 -177 158
-100 350 76 266 242 -19 39 -78 86 -121 98 -47 13 -49 13 -97 -4z m88 -79 c69
-29 88 -108 40 -165 -62 -75 -184 -27 -184 72 0 32 35 76 74 93 38 16 31 16
70 0z"/>
<path d="M3462 7966 c-55 -62 -50 -120 15 -181 25 -23 26 -25 8 -25 -11 0 -25
-8 -32 -19 -6 -10 -26 -21 -43 -25 -17 -3 -43 -15 -57 -26 -17 -13 -41 -20
-70 -20 -32 0 -54 -7 -77 -25 -18 -14 -40 -25 -49 -25 -9 0 -28 -11 -42 -24
-15 -14 -41 -28 -58 -32 -18 -3 -45 -17 -60 -30 -39 -33 -77 -31 -110 6 l-27
30 -181 0 c-179 0 -180 0 -203 25 l-23 25 -470 0 -470 0 -23 25 c-15 16 -34
25 -54 25 -19 0 -43 10 -60 25 -16 14 -37 25 -47 25 -10 0 -31 11 -47 25 -17
14 -41 25 -55 25 -17 0 -33 10 -46 29 -12 16 -34 31 -51 34 -20 4 -34 15 -40
31 -5 13 -17 27 -27 30 -22 7 -329 6 -359 -1 -12 -2 -32 -19 -45 -36 -23 -31
-24 -35 -20 -223 3 -195 -3 -234 -34 -234 -34 0 -32 -100 2 -115 19 -8 22 -18
25 -90 2 -44 3 -171 1 -283 l-2 -203 -31 -29 c-26 -24 -30 -35 -30 -77 0 -40
-5 -54 -25 -73 -23 -22 -25 -31 -25 -111 0 -73 -3 -90 -17 -98 -15 -8 -19 -30
-24 -150 -5 -137 -6 -141 -32 -161 l-27 -21 0 -237 0 -236 -27 -28 c-23 -24
-27 -36 -25 -80 2 -42 -2 -55 -22 -74 -13 -13 -26 -42 -30 -64 -5 -32 -14 -45
-45 -65 -36 -25 -61 -60 -61 -89 0 -13 -42 -73 -75 -107 -8 -9 -15 -20 -15
-25 0 -5 -18 -32 -41 -59 -22 -27 -49 -66 -60 -87 -18 -36 -19 -80 -19 -1463
0 -993 3 -1425 11 -1425 5 0 39 -29 75 -65 36 -36 73 -65 83 -65 10 0 28 -11
40 -24 15 -16 38 -25 73 -29 36 -5 59 -14 78 -32 14 -14 38 -25 52 -25 15 0
33 -8 40 -18 9 -14 31 -20 75 -24 42 -4 68 -12 83 -26 16 -15 44 -23 99 -29
81 -9 2921 -11 3055 -2 62 4 81 9 92 24 13 18 30 21 149 25 118 4 136 7 157
26 18 17 42 23 108 28 62 5 90 12 105 25 14 14 43 21 102 26 55 5 91 13 105
25 29 22 49 28 127 35 41 4 74 13 89 26 14 10 39 19 56 19 47 0 101 18 121 40
11 12 31 20 50 20 18 0 43 8 56 18 28 22 99 48 152 58 25 4 44 15 55 32 9 13
31 31 49 39 19 7 36 20 39 28 3 7 20 17 37 21 18 3 43 12 57 19 14 8 83 18
153 23 103 8 131 13 141 27 7 10 35 21 67 26 36 6 60 16 72 30 11 14 40 26 82
35 73 15 191 76 262 135 26 21 51 39 55 39 4 0 44 32 90 70 89 76 178 173 178
195 0 8 6 18 14 22 7 4 35 47 61 95 26 49 51 90 56 94 5 3 9 12 9 20 0 8 13
32 29 52 16 20 31 53 35 72 4 19 16 53 27 76 11 23 26 80 33 126 8 46 22 110
31 143 25 89 17 370 -13 435 -12 28 -24 84 -30 151 -7 69 -17 121 -30 145 -10
22 -33 67 -51 101 -17 34 -31 70 -31 81 0 10 -9 27 -20 37 -12 10 -29 37 -39
59 -20 45 -188 223 -237 253 -18 10 -56 32 -85 50 -86 50 -216 82 -324 79 -97
-3 -133 -16 -216 -73 -74 -51 -107 -96 -115 -153 -4 -27 -13 -55 -20 -61 -24
-20 -16 -91 17 -160 52 -109 76 -144 154 -217 41 -39 75 -77 75 -86 0 -8 16
-29 35 -47 19 -19 35 -38 35 -43 0 -6 14 -24 31 -42 17 -17 33 -46 36 -64 2
-18 14 -46 25 -61 17 -23 20 -36 13 -76 -4 -26 -10 -82 -13 -124 -7 -79 -24
-114 -94 -197 -15 -18 -28 -40 -28 -50 -1 -48 -134 -174 -203 -193 -23 -6 -60
-20 -83 -30 -50 -23 -73 -24 -102 -3 -15 11 -22 25 -22 50 0 19 -7 51 -15 71
-10 23 -15 69 -15 130 0 87 -2 96 -25 117 -14 13 -25 30 -25 39 0 8 -11 29
-25 45 -14 17 -25 41 -25 55 0 14 -10 38 -23 54 -36 45 -67 108 -67 137 0 16
-9 31 -25 42 -14 9 -28 27 -31 40 -3 12 -17 30 -30 39 -18 12 -24 24 -24 54 0
24 -8 47 -21 62 -12 13 -29 40 -39 59 -10 19 -28 41 -39 48 -12 7 -21 22 -21
35 0 12 -14 42 -30 66 -17 24 -30 49 -30 56 0 7 -9 20 -20 30 -11 10 -25 36
-31 58 -6 22 -23 56 -39 76 -33 42 -70 110 -70 128 0 11 -28 53 -91 133 -10
13 -19 34 -19 46 0 13 -11 35 -24 51 -13 15 -31 45 -40 67 -9 21 -34 59 -55
85 -22 26 -43 60 -47 76 -9 36 -70 152 -90 172 -8 8 -14 25 -14 38 0 13 -11
36 -24 52 -13 15 -27 42 -30 60 -4 17 -13 37 -21 43 -7 6 -16 23 -20 37 -7 28
-45 84 -82 121 -13 13 -23 32 -23 43 0 11 -11 37 -25 57 -20 29 -25 49 -25 95
0 34 -8 77 -19 105 -11 26 -22 75 -25 108 -3 38 -15 81 -31 109 -14 27 -25 61
-25 78 0 17 -11 53 -25 82 -24 51 -24 55 -20 274 3 205 5 223 24 247 20 26 21
37 21 440 l0 412 -23 29 c-13 15 -27 40 -30 54 -5 20 -15 28 -39 33 -17 3 -40
14 -50 22 -13 13 -44 18 -126 21 -105 4 -109 3 -134 -21 -19 -20 -38 -26 -85
-31 l-61 -5 33 33 c44 44 55 98 29 146 -23 43 -55 61 -110 61 -35 0 -47 -6
-72 -34z m-2542 -595 c0 -4 31 -42 69 -84 70 -77 101 -142 101 -214 0 -39 -33
-89 -72 -109 -18 -9 -46 -28 -63 -43 -46 -42 -81 -54 -100 -35 -8 9 -15 25
-16 37 0 12 -2 115 -5 228 l-5 207 27 21 c20 16 31 18 45 10 10 -5 19 -13 19
-18z m2961 -102 c35 -18 40 -52 17 -116 -11 -33 -20 -84 -20 -118 -1 -33 -7
-76 -14 -95 -7 -19 -15 -62 -19 -95 -12 -114 -22 -166 -33 -177 -16 -16 -61 9
-81 46 -9 15 -42 67 -73 114 l-58 87 0 81 0 81 88 65 c48 37 104 82 125 102
42 40 41 40 68 25z m-2886 -579 c18 -11 40 -31 49 -45 9 -14 31 -31 49 -38 38
-16 97 -80 97 -105 0 -9 4 -23 9 -31 7 -11 16 -1 35 37 15 29 31 52 36 52 6 0
28 18 50 41 45 46 91 61 148 48 20 -5 62 -6 92 -3 59 6 206 -25 245 -52 11 -8
29 -14 42 -14 12 0 24 -8 28 -19 6 -18 7 -18 43 2 25 13 46 18 62 14 49 -13
55 -23 60 -102 5 -73 4 -75 -17 -75 -13 0 -23 5 -23 10 0 7 -6 7 -19 1 -17
-10 -18 -14 -5 -48 7 -21 13 -50 14 -65 0 -21 5 -28 20 -28 17 0 20 -7 20 -39
0 -30 -4 -40 -20 -44 -15 -4 -20 -14 -20 -39 0 -91 -55 -184 -154 -263 -58
-46 -73 -53 -139 -64 -98 -16 -199 -1 -292 44 -67 33 -165 115 -165 140 0 7
-10 32 -23 56 -13 24 -29 70 -37 102 -7 31 -16 57 -20 57 -3 0 -16 -9 -28 -21
-28 -25 -83 -49 -115 -49 -14 0 -30 -7 -37 -16 -18 -21 -76 -44 -112 -44 -39
0 -101 33 -122 65 -9 14 -37 35 -61 46 -25 12 -55 35 -67 52 -28 39 -36 123
-15 163 10 20 12 36 6 53 -6 14 -5 38 1 61 19 72 77 120 144 120 19 0 38 5 42
11 29 48 142 65 199 29z m2148 -31 c145 -49 237 -148 284 -306 24 -80 24 -85
9 -130 -9 -26 -16 -67 -16 -92 0 -87 -77 -204 -164 -248 -75 -39 -216 -45
-313 -13 -92 31 -119 45 -181 97 -68 58 -102 117 -117 206 -26 150 46 350 158
435 91 69 225 90 340 51z"/>
<path d="M914 6536 c-35 -55 8 -166 65 -166 45 0 65 31 57 87 -8 62 -34 97
-74 101 -24 2 -34 -3 -48 -22z"/>
<path d="M1470 6554 c0 -3 11 -15 25 -26 18 -14 25 -29 25 -52 0 -49 -30 -71
-97 -71 -48 0 -58 4 -79 29 -14 15 -23 33 -21 40 6 16 35 8 58 -15 33 -33 108
-15 94 23 -11 29 -99 38 -144 15 -47 -23 -84 -172 -70 -275 14 -98 57 -179
122 -232 76 -61 131 -78 248 -79 90 -1 98 1 135 27 83 61 133 154 134 250 0
35 -4 62 -10 62 -5 0 -10 -13 -10 -30 0 -20 -5 -30 -15 -30 -13 0 -15 11 -13
63 2 37 7 60 13 57 6 -3 9 -13 9 -22 -2 -21 14 -24 22 -4 9 24 -57 196 -76
196 -5 0 -10 -18 -10 -40 0 -32 -4 -40 -19 -40 -15 0 -19 11 -25 62 -8 77 -30
98 -34 33 -6 -84 -89 -122 -151 -69 -33 28 -42 75 -21 115 10 18 7 19 -40 19
-27 0 -50 -3 -50 -6z"/>
<path d="M745 6495 c-27 -26 -30 -43 -15 -94 20 -70 78 -102 113 -63 33 36 12
148 -31 171 -30 16 -40 14 -67 -14z"/>
<path d="M2849 6538 c-31 -35 -73 -98 -94 -140 -35 -73 -37 -81 -30 -140 19
-167 110 -269 269 -302 98 -20 117 -20 188 2 107 33 144 95 159 258 8 98 8
104 -17 160 -14 32 -35 71 -46 87 -46 65 -173 119 -308 132 l-65 6 -56 -63z"/>
</g>
</svg>
