<?xml version="1.0" standalone="no"?>
<!DOCTYPE svg PUBLIC "-//W3C//DTD SVG 20010904//EN"
 "http://www.w3.org/TR/2001/REC-SVG-20010904/DTD/svg10.dtd">
<svg version="1.0" xmlns="http://www.w3.org/2000/svg"
 width="704.000000pt" height="1280.000000pt" viewBox="0 0 704.000000 1280.000000"
 preserveAspectRatio="xMidYMid meet">
<metadata>
Created by potrace 1.16, written by Peter Selinger 2001-2019
</metadata>
<g transform="translate(0.000000,1280.000000) scale(0.100000,-0.100000)"
fill="#000000" stroke="none">
<path d="M4555 10555 c-72 -7 -173 -20 -225 -29 -668 -115 -1169 -477 -1302
-941 -32 -114 -31 -323 2 -444 27 -99 102 -249 167 -334 243 -318 687 -544
1205 -614 141 -19 538 -25 688 -11 772 73 1357 459 1491 983 57 227 8 484
-134 699 -106 160 -301 332 -503 442 -371 202 -902 297 -1389 249z m600 -170
c319 -43 606 -143 831 -291 117 -77 287 -246 343 -341 261 -444 46 -940 -527
-1219 -539 -262 -1338 -280 -1909 -43 -381 158 -642 418 -707 706 -25 112 -21
252 10 359 42 146 101 242 223 365 119 119 214 187 370 264 233 116 501 187
816 215 130 11 411 4 550 -15z"/>
<path d="M4165 10072 c-108 -20 -243 -129 -295 -237 -48 -101 -62 -180 -50
-281 21 -172 65 -259 240 -478 91 -114 328 -320 476 -413 24 -16 74 -49 110
-75 37 -27 73 -48 81 -48 21 0 260 165 383 263 220 177 450 444 495 576 42
122 51 200 36 298 -18 115 -48 179 -118 253 -69 74 -131 112 -218 135 -76 19
-128 19 -218 -1 -160 -37 -274 -133 -337 -287 l-16 -39 -35 68 c-56 112 -166
208 -284 249 -55 19 -188 28 -250 17z m43 -143 c18 -6 35 -22 42 -40 11 -27
10 -32 -11 -56 -13 -14 -41 -36 -61 -49 -21 -13 -59 -55 -85 -94 -55 -80 -76
-92 -104 -59 -26 30 -33 61 -24 106 15 79 63 141 140 181 46 24 61 26 103 11z"/>
<path d="M3795 8315 c-5 -2 -22 -6 -37 -9 -37 -8 -98 -63 -114 -103 -33 -79
-2 -184 67 -230 159 -105 359 69 273 238 -32 64 -136 122 -189 104z m96 -114
c81 -81 -18 -219 -119 -167 -60 31 -78 87 -47 146 20 38 41 49 93 50 35 0 49
-6 73 -29z"/>
<path d="M3463 7968 c-17 -18 -33 -45 -37 -60 -8 -35 19 -103 52 -128 16 -13
19 -20 10 -20 -8 0 -23 -9 -32 -19 -10 -10 -32 -22 -50 -25 -18 -4 -42 -16
-52 -27 -12 -13 -29 -20 -49 -19 -57 3 -74 0 -92 -19 -10 -10 -35 -24 -55 -30
-21 -7 -42 -19 -46 -27 -5 -8 -28 -22 -53 -30 -24 -9 -51 -22 -60 -30 -9 -8
-35 -16 -57 -17 -34 -1 -45 4 -62 26 l-21 27 -180 0 c-179 0 -179 0 -201 25
l-22 25 -469 0 -469 0 -30 25 c-17 15 -42 25 -60 25 -18 0 -42 10 -60 25 -16
14 -37 25 -47 25 -10 0 -28 11 -41 25 -14 14 -35 25 -50 25 -18 0 -37 12 -57
35 -20 22 -40 35 -56 35 -18 0 -27 7 -31 24 -6 23 -8 23 -184 30 -194 8 -218
4 -247 -41 -17 -25 -19 -49 -20 -225 l0 -196 -28 -26 c-37 -34 -38 -91 -2
-121 25 -20 25 -21 27 -215 3 -335 1 -371 -21 -377 -24 -6 -41 -44 -41 -95 0
-28 -7 -49 -24 -69 -21 -25 -24 -38 -24 -104 1 -64 -3 -80 -24 -112 -24 -36
-25 -43 -22 -154 l4 -115 -30 -29 -30 -29 0 -233 0 -234 -27 -27 c-22 -22 -26
-35 -25 -76 1 -38 -4 -56 -23 -77 -13 -16 -26 -46 -30 -67 -5 -32 -15 -46 -51
-71 -27 -20 -46 -43 -50 -59 -12 -57 -17 -66 -51 -100 -19 -19 -41 -49 -48
-66 -7 -17 -25 -42 -40 -56 -15 -14 -38 -46 -51 -72 l-24 -47 0 -1425 0 -1425
46 -33 c25 -18 52 -45 60 -61 9 -17 26 -30 43 -33 16 -3 41 -17 56 -30 20 -17
40 -24 71 -24 34 0 51 -7 77 -30 19 -16 44 -30 55 -30 12 0 33 -11 48 -25 21
-20 37 -25 77 -25 37 0 56 -5 73 -21 19 -18 41 -21 195 -29 201 -11 2278 -13
2729 -3 292 6 303 7 326 28 21 19 39 23 160 28 107 6 141 11 156 23 11 11 46
19 97 24 58 5 87 13 111 30 25 18 49 24 109 27 56 3 81 9 96 23 22 21 43 26
130 35 34 4 68 14 78 23 11 9 46 19 84 23 49 5 70 12 82 27 9 11 34 23 58 27
23 4 54 16 68 27 30 23 124 58 159 58 17 0 30 9 42 29 10 17 29 33 43 36 14 4
35 17 48 31 12 13 33 24 45 24 13 0 33 7 45 15 14 10 59 17 140 21 97 5 123
10 148 27 16 11 50 24 75 28 26 4 63 19 83 32 21 14 56 28 80 32 79 13 209 93
390 238 70 58 177 165 177 179 0 3 11 19 24 35 13 15 40 60 61 98 20 39 43 77
50 85 7 8 16 30 20 47 3 18 13 36 20 41 15 8 45 83 45 112 0 9 9 29 20 43 13
16 24 51 29 94 5 37 19 104 31 148 21 73 22 94 17 245 -4 130 -9 177 -25 220
-11 30 -25 98 -32 150 -11 91 -20 117 -86 255 -13 28 -24 56 -24 62 0 6 -10
24 -23 40 -13 15 -29 43 -37 62 -20 50 -184 212 -273 269 -114 75 -223 107
-357 107 -110 -1 -139 -9 -225 -69 -76 -52 -114 -98 -121 -145 -4 -25 -13 -55
-20 -66 -20 -29 -17 -74 10 -147 36 -94 62 -132 154 -225 45 -46 82 -90 82
-98 0 -8 14 -27 30 -42 17 -14 30 -31 30 -38 0 -6 16 -28 35 -49 19 -21 35
-46 35 -55 0 -9 7 -27 15 -41 39 -66 45 -88 34 -117 -6 -15 -14 -65 -19 -111
-7 -75 -11 -88 -51 -145 -23 -34 -46 -64 -50 -67 -3 -3 -15 -25 -26 -50 -34
-75 -132 -164 -197 -180 -23 -6 -60 -19 -84 -30 -51 -24 -71 -25 -100 -4 -16
11 -22 25 -22 53 0 21 -7 55 -15 74 -10 23 -15 69 -15 126 0 82 -2 92 -25 117
-14 15 -25 33 -25 40 0 7 -11 26 -25 42 -14 17 -25 42 -25 57 0 16 -11 42 -24
59 -32 43 -66 111 -66 135 0 11 -6 24 -14 28 -7 4 -24 26 -38 48 -14 22 -33
46 -42 54 -9 7 -16 28 -16 45 0 21 -10 42 -30 64 -16 18 -30 39 -30 46 0 7
-13 25 -30 41 -16 15 -32 42 -36 59 -4 17 -17 44 -30 59 -13 16 -24 33 -24 38
0 6 -11 25 -25 43 -14 18 -25 44 -25 57 0 13 -13 39 -28 56 -41 49 -79 114
-87 151 -3 17 -10 32 -14 32 -4 0 -13 12 -20 27 -7 15 -25 43 -42 64 -16 20
-29 48 -29 61 0 14 -11 35 -25 48 -14 13 -31 44 -37 67 -6 24 -14 43 -19 43
-13 0 -89 105 -89 123 0 9 -11 33 -25 53 -14 20 -25 43 -25 51 0 9 -11 28 -25
45 -14 16 -25 40 -25 52 0 13 -8 34 -18 47 -10 13 -31 51 -46 84 -49 108 -59
125 -98 168 -21 23 -38 50 -38 60 0 10 -11 35 -25 55 -20 29 -25 49 -25 100 0
43 -6 75 -20 101 -10 21 -22 70 -26 107 -4 45 -15 84 -30 111 -13 23 -24 56
-24 73 0 18 -11 55 -25 83 l-26 50 6 221 c5 191 8 224 24 250 17 28 19 59 22
366 4 486 4 484 -26 516 -14 15 -25 34 -25 43 0 23 -20 41 -43 41 -11 0 -32
11 -48 24 -27 23 -36 25 -133 22 -96 -2 -106 -4 -135 -29 -27 -22 -42 -27 -87
-27 l-55 0 34 33 c86 81 42 207 -72 207 -40 0 -52 -5 -78 -32z m-2532 -610
c18 -24 52 -63 75 -88 42 -44 84 -142 84 -195 0 -42 -21 -81 -53 -100 -18 -10
-54 -36 -81 -57 -54 -42 -101 -51 -111 -19 -6 19 -19 290 -19 395 0 52 4 62
28 82 15 13 31 24 36 24 4 0 23 -19 41 -42z m2973 -113 c15 -32 15 -37 1 -65
-9 -17 -21 -70 -26 -118 -6 -48 -14 -109 -19 -137 -5 -27 -14 -77 -20 -109 -5
-33 -10 -76 -10 -96 0 -82 -65 -70 -115 22 -15 29 -31 55 -34 58 -3 3 -25 32
-48 66 l-42 61 6 75 6 75 86 66 c47 37 106 82 130 102 24 19 49 35 56 35 7 0
20 -16 29 -35z m-2863 -568 c19 -12 44 -41 55 -64 21 -41 111 -150 118 -142 2
2 11 21 21 42 10 21 30 46 44 55 14 9 40 31 57 48 l31 33 129 -1 c135 0 263
-22 310 -52 13 -9 33 -16 45 -16 12 0 23 -8 26 -19 4 -18 6 -18 42 2 24 13 45
18 61 14 49 -13 55 -23 60 -102 5 -73 4 -75 -17 -75 -13 0 -23 5 -23 10 0 7
-6 7 -20 0 -18 -10 -18 -13 -5 -51 8 -23 15 -58 16 -78 0 -20 3 -30 6 -23 2 6
11 12 19 12 22 0 19 -76 -4 -82 -13 -4 -19 -16 -20 -48 -6 -86 -66 -188 -150
-252 -77 -59 -71 -56 -149 -68 -132 -21 -297 26 -397 112 -24 20 -50 58 -69
98 -30 67 -67 202 -67 246 0 38 -17 20 -23 -25 -11 -84 -82 -137 -170 -128
-32 3 -64 -1 -86 -10 -77 -32 -178 16 -202 97 -7 23 -22 43 -36 51 -43 23 -67
67 -68 125 0 43 6 60 33 98 17 26 32 57 32 70 0 37 41 89 90 114 37 19 55 22
100 17 31 -3 62 -1 70 5 28 18 105 12 141 -13z m2102 -16 c125 -43 231 -145
269 -261 32 -93 39 -137 28 -166 -6 -15 -15 -61 -21 -103 -12 -84 -55 -169
-109 -215 -87 -73 -253 -87 -402 -34 -74 26 -97 40 -151 92 -35 33 -72 77 -82
96 -25 49 -46 176 -34 207 5 13 9 36 9 51 0 76 83 229 153 282 93 69 228 89
340 51z"/>
<path d="M914 6536 c-35 -55 8 -166 65 -166 44 0 65 31 58 86 -6 60 -35 98
-75 102 -24 2 -34 -3 -48 -22z"/>
<path d="M1470 6554 c0 -3 11 -15 25 -26 18 -14 25 -29 25 -52 0 -49 -30 -71
-97 -71 -48 0 -58 4 -79 28 -13 15 -24 32 -24 38 0 16 39 10 60 -11 23 -23 58
-26 84 -7 45 33 -22 66 -108 53 -44 -7 -45 -8 -72 -74 -23 -54 -28 -81 -26
-140 1 -80 22 -167 54 -222 32 -56 118 -122 184 -142 83 -25 219 -24 260 1 40
24 98 95 123 152 22 47 30 169 11 169 -5 0 -10 -13 -10 -30 0 -20 -5 -30 -15
-30 -12 0 -14 12 -12 58 2 31 8 57 13 58 5 0 8 -8 6 -19 -2 -12 1 -18 10 -15
17 7 15 56 -5 99 -9 19 -23 51 -31 72 -20 48 -36 47 -36 -3 0 -32 -4 -40 -19
-40 -15 0 -19 11 -25 62 -8 77 -30 98 -34 33 -6 -84 -89 -122 -151 -69 -33 28
-42 75 -21 115 10 18 7 19 -40 19 -27 0 -50 -3 -50 -6z"/>
<path d="M745 6495 c-28 -27 -30 -42 -14 -98 19 -70 76 -99 112 -59 33 36 12
148 -31 171 -30 16 -40 14 -67 -14z"/>
<path d="M2852 6540 c-29 -30 -69 -89 -90 -130 -33 -65 -37 -82 -35 -140 3
-119 60 -218 158 -275 22 -13 81 -31 132 -41 91 -17 93 -17 165 5 86 25 109
49 138 140 28 88 27 204 -2 285 -46 125 -151 191 -328 205 l-85 7 -53 -56z"/>
</g>
</svg>
