<?xml version="1.0" standalone="no"?>
<!DOCTYPE svg PUBLIC "-//W3C//DTD SVG 20010904//EN"
 "http://www.w3.org/TR/2001/REC-SVG-20010904/DTD/svg10.dtd">
<svg version="1.0" xmlns="http://www.w3.org/2000/svg"
 width="704.000000pt" height="1280.000000pt" viewBox="0 0 704.000000 1280.000000"
 preserveAspectRatio="xMidYMid meet">
<metadata>
Created by potrace 1.16, written by Peter Selinger 2001-2019
</metadata>
<g transform="translate(0.000000,1280.000000) scale(0.100000,-0.100000)"
fill="#000000" stroke="none">
<path d="M4600 10559 c-339 -29 -636 -106 -872 -224 -378 -190 -612 -441 -700
-752 -32 -111 -32 -325 -1 -433 92 -318 325 -572 688 -750 333 -164 649 -230
1096 -230 796 0 1460 317 1702 813 76 156 102 292 86 454 -16 168 -57 283
-155 430 -234 351 -711 606 -1270 677 -154 20 -439 27 -574 15z m560 -175
c324 -42 645 -159 861 -313 90 -65 213 -181 264 -252 40 -54 97 -165 119 -232
58 -174 40 -379 -46 -552 -144 -286 -493 -525 -926 -634 -212 -53 -378 -72
-641 -71 -402 0 -697 61 -996 205 -157 76 -256 145 -366 254 -110 111 -178
214 -223 339 -29 82 -31 95 -31 232 1 130 3 153 28 225 71 214 259 419 513
563 237 135 547 222 889 252 130 11 409 3 555 -16z"/>
<path d="M5091 10019 c-35 -4 -88 -20 -117 -34 -96 -47 -206 -164 -220 -235
-9 -42 -26 -37 -47 15 -29 69 -133 175 -213 216 -67 33 -70 34 -194 34 -120
-1 -127 -2 -186 -32 -74 -38 -142 -111 -185 -198 -26 -54 -32 -78 -36 -162 -4
-64 -1 -120 7 -154 50 -220 292 -501 638 -741 19 -13 53 -38 78 -55 24 -18 48
-33 53 -33 5 0 14 -7 21 -15 21 -25 41 -18 145 53 221 149 326 234 460 373
162 167 243 301 270 444 39 201 -54 406 -219 485 -54 26 -150 52 -180 49 -6
-1 -40 -5 -75 -10z m-809 -146 c37 -43 32 -59 -34 -114 -79 -65 -89 -76 -122
-128 -24 -37 -31 -42 -54 -36 -36 9 -51 33 -52 80 0 85 37 155 105 196 41 25
136 26 157 2z"/>
<path d="M3773 8310 c-86 -20 -148 -108 -141 -196 17 -206 306 -237 363 -39
13 45 13 57 0 102 -18 60 -74 116 -132 132 -42 12 -45 12 -90 1z m118 -109
c49 -50 36 -136 -26 -166 -41 -19 -58 -19 -94 -1 -66 35 -79 104 -30 161 27
30 37 35 76 35 36 0 50 -6 74 -29z"/>
<path d="M3468 7973 c-15 -16 -32 -41 -37 -56 -19 -49 9 -115 58 -142 17 -9
20 -14 10 -15 -9 0 -24 -9 -33 -19 -10 -11 -35 -22 -57 -26 -21 -4 -49 -15
-63 -26 -14 -11 -40 -19 -63 -19 -26 0 -51 -8 -73 -25 -19 -14 -42 -25 -52
-25 -9 0 -31 -13 -48 -30 -18 -18 -41 -30 -56 -30 -15 0 -39 -11 -56 -25 -35
-29 -81 -33 -100 -7 -7 10 -18 21 -25 25 -6 4 -94 10 -195 13 -179 5 -183 6
-201 30 l-19 24 -472 0 -473 0 -23 25 c-17 18 -34 25 -61 25 -22 0 -42 7 -50
16 -8 9 -33 25 -57 35 -23 10 -45 25 -48 34 -4 9 -19 15 -40 15 -29 0 -38 6
-55 35 -16 26 -28 35 -47 35 -19 0 -32 9 -43 29 l-16 28 -184 -3 c-101 -2
-189 -3 -196 -4 -6 0 -22 -15 -35 -32 -22 -32 -23 -37 -19 -225 l3 -192 -27
-27 c-17 -17 -29 -42 -33 -67 -4 -35 -2 -43 21 -61 25 -21 26 -24 35 -201 5
-99 5 -195 1 -215 -5 -19 -9 -65 -9 -102 0 -63 -2 -68 -30 -88 -26 -19 -30
-27 -30 -69 0 -35 -6 -56 -23 -77 -19 -24 -22 -41 -22 -110 0 -70 -3 -86 -22
-106 -19 -21 -22 -36 -25 -150 -3 -122 -4 -128 -30 -155 l-28 -29 0 -233 0
-233 -29 -34 c-25 -28 -28 -38 -24 -74 5 -34 2 -45 -20 -68 -14 -15 -28 -45
-32 -69 -5 -33 -15 -48 -43 -69 -50 -37 -62 -53 -62 -85 0 -19 -14 -43 -45
-76 -25 -26 -45 -53 -45 -59 0 -6 -17 -31 -39 -55 -21 -24 -48 -63 -60 -86
l-21 -42 2 -1428 3 -1428 27 -13 c15 -7 44 -33 64 -58 20 -24 48 -47 63 -51
14 -3 39 -17 54 -30 20 -16 41 -23 69 -23 31 0 46 -7 70 -30 18 -18 40 -30 56
-30 14 0 36 -10 49 -22 16 -15 38 -22 74 -24 36 -2 58 -9 74 -24 21 -19 40
-22 244 -31 265 -13 2893 -4 2977 9 6 1 21 11 34 22 19 17 39 20 114 21 145 3
161 5 192 27 20 14 52 22 104 26 53 5 83 12 103 27 22 16 49 22 110 26 62 4
87 10 103 24 14 13 48 23 105 30 53 7 93 19 108 30 15 12 40 19 68 19 46 0 81
13 98 37 6 8 29 17 52 20 23 3 51 14 63 25 11 11 33 22 47 24 14 3 33 9 42 13
9 5 33 11 54 15 23 4 48 18 64 37 14 16 32 29 39 29 7 0 25 11 41 24 58 49
120 67 255 75 102 6 131 11 148 26 11 10 42 21 69 26 30 5 57 16 73 31 16 16
45 29 88 37 36 7 76 21 90 30 14 9 38 23 55 30 28 12 53 31 229 171 78 62 186
167 186 182 0 4 23 41 50 81 28 41 50 78 50 84 0 6 14 27 30 48 16 21 30 45
30 54 0 10 11 32 24 50 13 18 27 48 30 67 4 18 18 58 31 86 14 29 25 72 25 94
0 23 10 73 23 110 20 62 22 88 21 254 -1 163 -3 190 -21 230 -12 26 -26 93
-33 155 -7 61 -19 119 -26 130 -7 11 -20 40 -29 65 -8 24 -22 51 -29 60 -8 8
-19 32 -24 53 -6 20 -22 51 -36 68 -14 17 -26 36 -26 44 0 24 -119 152 -211
227 -132 108 -312 168 -463 153 -99 -10 -163 -42 -248 -124 -37 -35 -48 -52
-48 -76 0 -17 -9 -48 -20 -70 -20 -40 -27 -113 -12 -130 5 -6 15 -26 22 -45
25 -68 74 -136 152 -212 43 -43 78 -84 78 -91 0 -7 12 -24 26 -38 14 -13 34
-40 45 -60 10 -20 25 -39 33 -42 8 -3 20 -24 26 -47 6 -22 22 -56 35 -75 22
-34 23 -37 9 -93 -7 -31 -13 -84 -14 -117 0 -58 -2 -63 -59 -136 -32 -41 -61
-89 -65 -105 -4 -17 -37 -59 -80 -101 -56 -55 -83 -74 -117 -82 -24 -6 -62
-20 -84 -31 -76 -38 -125 -22 -125 41 0 22 -5 50 -12 62 -7 12 -15 72 -18 132
-5 97 -8 113 -28 133 -12 12 -22 29 -22 38 0 9 -11 29 -25 46 -14 16 -25 42
-25 58 0 15 -7 33 -15 40 -24 20 -75 118 -75 145 0 15 -9 31 -25 41 -14 9 -28
27 -31 39 -3 13 -17 32 -30 44 -17 15 -24 31 -24 56 0 25 -8 43 -30 65 -16 17
-30 36 -30 43 0 7 -16 28 -35 47 -19 19 -35 43 -35 55 0 12 -11 36 -25 55 -14
19 -25 39 -25 46 0 7 -12 26 -26 43 -14 17 -28 46 -31 66 -3 20 -14 40 -24 46
-11 5 -19 14 -19 20 0 6 -9 24 -20 40 -12 15 -26 43 -32 61 -6 18 -35 68 -65
111 -29 43 -53 88 -53 100 -1 12 -14 38 -30 57 -17 19 -30 42 -30 51 0 9 -25
47 -55 84 -30 36 -55 74 -55 83 0 9 -12 35 -25 57 -14 22 -25 47 -25 56 0 9
-8 23 -18 33 -11 9 -25 35 -32 58 -7 24 -21 53 -31 67 -10 13 -19 29 -19 36 0
7 -9 24 -20 38 -11 14 -23 38 -26 54 -3 16 -28 55 -55 87 -27 32 -49 65 -49
74 0 9 -12 35 -25 57 -20 32 -25 53 -25 105 0 44 -6 77 -18 100 -11 19 -22 65
-25 103 -4 45 -14 81 -32 110 -14 24 -25 59 -25 77 0 18 -11 57 -25 87 l-26
54 7 217 c5 186 9 221 25 248 17 28 18 60 19 436 l1 406 -30 43 c-17 23 -31
50 -31 59 0 12 -11 20 -36 24 -19 4 -43 15 -52 24 -14 14 -37 17 -129 17 -100
0 -114 -2 -135 -22 -15 -14 -43 -24 -83 -29 l-59 -7 36 34 c87 83 44 209 -71
209 -38 0 -52 -5 -73 -27z m-2539 -615 c16 -24 46 -59 66 -78 41 -39 64 -76
82 -135 27 -87 8 -146 -58 -180 -16 -9 -44 -29 -63 -46 -44 -38 -100 -49 -110
-23 -7 18 -19 243 -20 392 -1 58 2 66 27 88 15 13 32 24 37 24 5 0 22 -19 39
-42z m2963 -95 c23 -21 23 -42 -2 -139 -12 -45 -18 -93 -15 -111 3 -17 -1 -48
-9 -70 -8 -21 -20 -87 -27 -147 -21 -176 -40 -175 -164 9 l-80 119 3 75 c2 57
6 78 20 87 72 54 171 135 177 144 7 11 65 50 74 50 3 0 13 -7 23 -17z m-764
-598 c102 -36 165 -80 227 -159 56 -72 89 -176 81 -255 -15 -168 -22 -195 -63
-256 -51 -76 -65 -88 -136 -120 -47 -20 -73 -25 -143 -25 -127 0 -231 35 -316
105 -88 73 -114 115 -132 208 -16 81 -11 142 20 237 26 78 92 178 142 215 79
58 230 81 320 50z m-1409 -42 c88 -25 181 -83 181 -112 0 -5 7 -14 15 -21 8
-7 15 -19 15 -28 0 -8 8 -20 17 -27 11 -8 25 -51 39 -121 22 -104 22 -112 7
-179 -24 -111 -66 -179 -150 -246 -49 -39 -86 -60 -111 -64 -20 -3 -52 -8 -70
-11 -51 -8 -181 15 -242 43 -101 45 -154 94 -193 175 -19 40 -41 100 -48 133
-6 33 -16 64 -21 69 -21 25 -2 141 34 201 10 17 29 51 43 78 14 26 30 47 35
47 5 0 25 14 45 31 20 17 51 37 70 43 48 17 265 10 334 -11z"/>
<path d="M2853 6543 c-34 -36 -69 -89 -95 -142 l-41 -84 11 -74 c13 -97 45
-156 114 -217 51 -43 68 -51 140 -67 46 -10 97 -18 113 -18 43 -1 140 31 166
54 43 40 70 114 79 220 8 94 7 102 -18 162 -47 115 -156 193 -293 208 -30 3
-69 8 -87 11 -31 5 -39 0 -89 -53z"/>
<path d="M1440 6538 c-14 -16 -37 -24 -72 -28 l-52 -5 -27 -70 c-36 -92 -39
-200 -7 -301 17 -55 31 -78 72 -118 78 -75 140 -100 262 -104 120 -4 142 4
201 75 69 82 83 123 82 232 -1 80 -7 109 -31 174 -26 68 -35 80 -69 98 -21 10
-39 23 -39 28 0 4 -11 13 -25 19 -17 8 -25 8 -25 1 0 -6 -8 -8 -17 -5 -10 3
-37 7 -60 8 -24 2 -43 6 -43 11 0 4 -29 7 -65 7 -54 0 -68 -4 -85 -22z"/>
</g>
</svg>
