<?xml version="1.0" standalone="no"?>
<!DOCTYPE svg PUBLIC "-//W3C//DTD SVG 20010904//EN"
 "http://www.w3.org/TR/2001/REC-SVG-20010904/DTD/svg10.dtd">
<svg version="1.0" xmlns="http://www.w3.org/2000/svg"
 width="704.000000pt" height="1280.000000pt" viewBox="0 0 704.000000 1280.000000"
 preserveAspectRatio="xMidYMid meet">
<metadata>
Created by potrace 1.16, written by Peter Selinger 2001-2019
</metadata>
<g transform="translate(0.000000,1280.000000) scale(0.100000,-0.100000)"
fill="#000000" stroke="none">
<path d="M4605 10559 c-354 -28 -619 -97 -880 -226 -369 -184 -617 -452 -697
-753 -32 -121 -32 -321 0 -435 88 -315 345 -586 726 -765 304 -143 638 -210
1050 -210 572 0 1071 156 1418 444 133 110 263 286 319 431 131 337 55 678
-214 973 -61 67 -224 194 -325 253 -375 222 -894 329 -1397 288z m447 -164
c206 -20 344 -47 508 -101 252 -83 459 -201 608 -347 125 -122 210 -259 248
-398 28 -100 26 -293 -4 -383 -50 -150 -129 -272 -247 -385 -255 -241 -608
-386 -1075 -441 -125 -15 -487 -12 -620 4 -347 44 -640 146 -879 308 -111 76
-267 236 -318 328 -69 123 -95 216 -101 351 -4 95 -1 130 17 199 41 164 113
281 252 415 352 338 973 511 1611 450z"/>
<path d="M4590 10089 c-78 -20 -237 -94 -280 -130 -22 -19 -23 -22 -10 -44 15
-25 130 -197 136 -204 1 -1 18 8 36 21 137 101 287 134 386 87 77 -38 100
-104 63 -184 -23 -50 -61 -88 -181 -180 -149 -114 -144 -105 -136 -227 11
-168 11 -168 59 -168 22 0 79 5 127 11 l86 11 -1 81 0 81 90 75 c133 111 229
212 256 267 18 39 24 70 27 147 4 89 2 101 -23 152 -49 102 -161 186 -285 214
-76 18 -265 12 -350 -10z"/>
<path d="M4677 8925 c-74 -26 -117 -87 -117 -164 0 -101 76 -181 172 -181 82
1 141 42 176 123 35 82 -15 182 -110 221 -45 19 -71 19 -121 1z"/>
<path d="M3766 8308 c-53 -14 -123 -85 -132 -133 -30 -160 117 -282 261 -216
145 67 145 264 1 336 -54 27 -70 28 -130 13z m88 -82 c44 -19 66 -52 66 -101
0 -59 -44 -100 -106 -100 -39 0 -50 5 -75 33 -62 69 -26 152 79 181 1 1 18 -5
36 -13z"/>
<path d="M3464 7966 c-28 -28 -34 -42 -34 -76 0 -44 28 -102 58 -120 12 -6 13
-9 3 -10 -7 0 -26 -11 -43 -25 -16 -14 -39 -25 -50 -25 -11 0 -31 -9 -45 -20
-16 -13 -41 -20 -67 -20 -29 0 -53 -8 -76 -25 -19 -14 -42 -25 -51 -25 -10 0
-33 -13 -51 -30 -18 -16 -42 -30 -53 -30 -12 0 -36 -11 -55 -25 -44 -33 -72
-32 -113 5 l-35 30 -180 0 c-180 0 -181 0 -200 25 l-19 24 -467 0 -466 0 -31
25 c-17 14 -43 26 -58 26 -15 0 -41 11 -57 25 -16 14 -36 25 -45 25 -8 0 -26
11 -39 25 -16 17 -34 25 -57 25 -27 0 -37 6 -51 30 -11 20 -25 30 -40 30 -25
0 -42 13 -60 46 -10 19 -19 20 -199 18 -103 -1 -191 -3 -195 -3 -4 -1 -17 -15
-29 -33 -22 -30 -23 -40 -23 -229 l-1 -197 -27 -26 c-38 -34 -39 -96 -3 -123
23 -17 24 -24 34 -196 6 -109 6 -190 0 -210 -5 -17 -9 -64 -9 -103 0 -66 -2
-71 -30 -92 -27 -20 -30 -28 -30 -74 0 -40 -5 -57 -22 -76 -20 -21 -23 -34
-23 -107 0 -73 -3 -86 -22 -107 -21 -23 -23 -33 -23 -152 l0 -128 -30 -26 -30
-26 0 -234 0 -233 -27 -25 c-19 -18 -25 -33 -24 -57 4 -59 2 -66 -23 -100 -14
-19 -26 -46 -26 -60 0 -15 -9 -35 -21 -44 -72 -63 -88 -82 -95 -118 -4 -24
-20 -51 -41 -72 -18 -19 -43 -54 -54 -79 -12 -24 -25 -44 -29 -44 -4 0 -24
-24 -44 -53 l-36 -52 0 -1423 0 -1423 75 -75 c42 -41 83 -74 92 -74 8 0 26
-11 39 -25 18 -20 33 -25 68 -25 36 0 52 -6 79 -30 19 -16 46 -30 59 -30 14 0
33 -8 42 -19 12 -13 35 -20 75 -23 37 -3 65 -10 76 -21 41 -42 5 -41 1410 -42
743 -1 1455 2 1583 6 212 6 236 8 261 27 23 17 47 20 155 24 74 2 130 8 134
14 14 21 49 32 131 39 64 5 88 11 100 25 12 15 35 20 96 24 60 4 87 11 109 27
19 15 54 25 110 31 50 6 91 17 107 29 15 10 43 19 62 19 45 0 86 16 110 41 11
11 31 19 52 19 20 0 44 9 62 24 15 12 39 26 53 29 91 22 134 39 151 61 11 14
29 28 41 32 12 4 31 17 41 30 10 13 27 24 38 24 11 0 32 6 47 14 15 8 86 18
160 24 115 8 136 13 153 31 14 14 32 21 59 21 27 0 48 8 70 27 18 15 57 32 92
40 71 16 171 68 246 127 187 147 298 247 326 295 6 10 20 31 30 47 11 16 30
45 43 65 12 19 23 40 23 46 0 6 11 24 24 40 13 15 28 44 35 64 6 20 20 44 30
53 11 10 22 36 25 60 4 23 16 60 27 81 12 21 25 68 30 104 5 36 17 86 27 111
14 37 17 78 17 235 -1 171 -3 196 -23 248 -12 31 -27 101 -33 155 -10 92 -19
120 -74 237 -14 28 -27 60 -30 72 -3 12 -19 38 -35 58 -17 21 -30 44 -30 51 0
26 -130 163 -215 228 -104 78 -151 103 -250 129 -71 19 -109 24 -175 21 -99
-5 -152 -23 -231 -79 -66 -47 -94 -85 -104 -140 -3 -22 -13 -51 -22 -64 -18
-29 -13 -100 11 -146 9 -16 16 -35 16 -42 0 -6 11 -24 24 -40 13 -15 26 -37
30 -48 3 -11 38 -52 78 -91 40 -39 81 -88 91 -108 9 -20 24 -39 32 -43 9 -3
23 -20 32 -37 8 -17 25 -42 38 -56 12 -14 25 -38 29 -54 4 -15 16 -41 28 -56
17 -24 20 -36 13 -77 -4 -26 -10 -82 -13 -123 -8 -83 -7 -81 -72 -165 -26 -33
-50 -72 -53 -86 -8 -31 -58 -94 -110 -139 -35 -31 -162 -84 -230 -97 -38 -7
-67 20 -67 63 0 18 -5 45 -11 61 -7 15 -15 77 -19 136 -7 90 -12 113 -29 131
-12 12 -21 27 -21 32 0 6 -11 25 -25 44 -14 19 -25 45 -25 59 0 14 -8 34 -19
45 -26 29 -71 117 -71 140 0 10 -12 34 -27 52 -16 19 -40 49 -55 68 -19 23
-28 45 -28 70 0 27 -6 39 -25 52 -14 9 -32 32 -40 51 -8 19 -26 48 -40 65 -14
16 -25 38 -25 48 0 9 -7 24 -16 31 -9 8 -25 32 -34 54 -9 22 -25 46 -34 54 -9
7 -19 31 -22 52 -4 21 -17 48 -30 60 -13 12 -24 26 -24 31 0 5 -11 26 -25 46
-14 20 -25 43 -25 50 0 7 -24 50 -54 95 -30 45 -57 97 -61 115 -4 18 -15 37
-25 42 -11 6 -24 28 -30 49 -5 21 -30 60 -55 87 -25 27 -48 60 -51 74 -4 14
-17 43 -30 66 -13 22 -24 46 -24 53 0 7 -11 26 -25 43 -14 16 -25 39 -25 50 0
12 -11 36 -25 54 -14 18 -25 39 -25 47 0 8 -9 25 -19 39 -11 13 -23 37 -27 53
-4 15 -26 51 -48 79 -23 28 -50 71 -60 96 -10 25 -24 52 -31 60 -7 9 -15 50
-17 97 -3 56 -10 88 -21 100 -9 11 -18 47 -22 93 -5 52 -14 86 -30 110 -12 19
-25 58 -28 86 -3 29 -15 69 -27 90 -20 37 -21 48 -14 259 6 188 9 226 26 258
17 35 19 64 19 431 0 383 -5 446 -32 446 -5 0 -13 17 -20 39 -10 32 -18 40
-49 50 -21 6 -43 17 -48 24 -8 10 -43 13 -128 12 -109 -2 -117 -3 -134 -25
-14 -18 -30 -24 -76 -28 l-59 -5 32 36 c79 90 33 207 -80 207 -31 0 -46 -7
-73 -34z m-2533 -608 c18 -24 54 -66 80 -94 85 -92 103 -224 38 -279 -17 -14
-34 -25 -39 -25 -5 0 -15 -6 -22 -13 -48 -45 -83 -67 -108 -67 -16 0 -32 5
-35 10 -4 6 -8 68 -10 138 -1 70 -6 159 -10 198 -9 82 -4 110 26 147 28 37 42
34 80 -15z m2969 -103 c16 -20 15 -49 -5 -115 -9 -30 -21 -89 -26 -130 -17
-156 -43 -313 -54 -330 -12 -20 -43 -10 -70 23 -33 40 -107 151 -129 194 -11
21 -16 57 -16 107 l0 75 56 37 c31 20 84 63 117 95 64 61 102 74 127 44z
m-755 -595 c33 -11 68 -29 80 -39 11 -10 37 -28 58 -40 48 -29 108 -118 136
-202 22 -67 30 -147 16 -169 -4 -7 -11 -45 -16 -84 -12 -113 -79 -205 -179
-250 -56 -25 -69 -27 -163 -24 -177 7 -315 77 -394 201 -31 50 -56 180 -43
227 6 19 10 46 10 60 0 49 65 182 115 235 89 96 247 131 380 85z m-1470 -25
c139 -25 190 -64 267 -205 103 -187 63 -413 -93 -534 -73 -57 -82 -61 -159
-75 -121 -22 -303 29 -396 111 -42 37 -86 127 -115 233 -23 87 -23 113 -2 206
21 96 69 176 125 210 82 50 93 54 178 60 47 3 90 6 96 7 6 1 51 -5 99 -13z"/>
<path d="M2909 6592 c-33 -11 -113 -108 -145 -178 -44 -95 -49 -119 -34 -190
12 -59 56 -164 68 -164 4 0 25 -17 47 -36 46 -42 62 -49 158 -69 89 -19 117
-19 164 -1 21 8 50 17 64 20 28 6 74 67 91 120 5 17 14 71 18 120 7 79 6 95
-13 145 -12 31 -28 67 -37 82 -25 41 -94 98 -141 115 -47 18 -217 43 -240 36z"/>
<path d="M1445 6548 c-11 -7 -46 -21 -79 -33 l-58 -20 -30 -80 c-34 -92 -33
-153 3 -272 25 -80 53 -121 113 -162 74 -51 141 -71 239 -71 104 0 128 10 185
78 64 76 82 128 82 234 0 81 -4 98 -34 169 -38 88 -57 108 -131 144 -44 22
-64 25 -160 25 -66 -1 -118 -5 -130 -12z"/>
</g>
</svg>
