<?xml version="1.0" standalone="no"?>
<!DOCTYPE svg PUBLIC "-//W3C//DTD SVG 20010904//EN"
 "http://www.w3.org/TR/2001/REC-SVG-20010904/DTD/svg10.dtd">
<svg version="1.0" xmlns="http://www.w3.org/2000/svg"
 width="704.000000pt" height="1280.000000pt" viewBox="0 0 704.000000 1280.000000"
 preserveAspectRatio="xMidYMid meet">
<metadata>
Created by potrace 1.16, written by Peter Selinger 2001-2019
</metadata>
<g transform="translate(0.000000,1280.000000) scale(0.100000,-0.100000)"
fill="#000000" stroke="none">
<path d="M4645 10563 c-438 -38 -732 -120 -1017 -283 -211 -120 -363 -258
-478 -432 -300 -455 -138 -1015 393 -1355 86 -55 250 -138 325 -164 337 -118
574 -159 932 -159 424 0 786 77 1101 235 488 245 757 659 695 1070 -25 169
-77 292 -181 434 -70 96 -121 147 -228 232 -203 163 -443 277 -747 354 -225
57 -577 87 -795 68z m370 -163 c516 -43 921 -210 1191 -492 168 -175 246 -375
230 -594 -13 -191 -90 -346 -251 -509 -247 -251 -611 -407 -1071 -461 -176
-20 -576 -15 -729 10 -643 104 -1102 430 -1201 852 -12 50 -15 100 -12 184 6
134 32 227 101 350 58 104 220 265 352 353 353 233 881 349 1390 307z"/>
<path d="M3769 8307 c-96 -36 -144 -104 -137 -193 12 -146 172 -222 290 -138
79 56 102 149 58 239 -37 77 -135 120 -211 92z m86 -81 c67 -28 85 -113 36
-168 -25 -28 -36 -33 -76 -33 -40 0 -51 5 -76 33 -51 57 -34 138 35 168 39 17
40 17 81 0z"/>
<path d="M3464 7966 c-28 -28 -34 -42 -34 -75 0 -52 22 -96 58 -115 24 -13 25
-15 6 -16 -11 0 -29 -9 -39 -20 -10 -11 -33 -23 -53 -26 -19 -4 -43 -15 -53
-25 -13 -13 -33 -19 -65 -19 -35 0 -54 -6 -76 -25 -16 -14 -40 -25 -52 -25
-12 0 -35 -13 -51 -30 -16 -16 -39 -30 -51 -30 -12 0 -32 -8 -45 -19 -51 -39
-107 -37 -129 5 l-13 24 -187 0 c-185 0 -187 0 -209 24 l-23 25 -471 0 -471 1
-24 25 c-14 16 -34 25 -52 25 -16 0 -42 11 -58 25 -17 14 -35 25 -42 25 -7 0
-25 11 -42 25 -16 14 -42 25 -57 25 -28 0 -61 26 -61 48 0 7 -10 12 -22 12
-26 1 -58 22 -58 38 0 6 -8 15 -18 20 -23 11 -386 5 -390 -7 -2 -5 -15 -22
-29 -37 -21 -23 -24 -33 -18 -68 3 -23 6 -111 6 -196 -1 -135 -3 -157 -19
-167 -37 -26 -42 -35 -42 -78 0 -39 3 -45 24 -51 23 -5 24 -10 30 -122 8 -152
8 -224 0 -355 -7 -104 -8 -108 -35 -128 -26 -18 -29 -26 -29 -76 0 -46 -4 -60
-25 -79 -23 -21 -24 -29 -22 -102 2 -71 -1 -83 -20 -104 -20 -21 -22 -35 -24
-156 l-2 -134 -29 -21 -28 -21 0 -231 0 -231 -29 -33 c-24 -27 -28 -39 -24
-70 4 -29 -1 -45 -21 -75 -16 -24 -26 -52 -26 -75 0 -32 -5 -39 -40 -61 -48
-30 -66 -54 -75 -104 -4 -20 -16 -41 -26 -46 -17 -10 -33 -33 -63 -95 -8 -17
-24 -39 -37 -50 -12 -11 -35 -38 -50 -59 l-29 -39 0 -1431 0 -1432 39 -24 c21
-14 51 -41 66 -61 17 -23 39 -39 57 -43 17 -3 39 -17 50 -31 15 -20 28 -25 63
-25 35 0 52 -6 78 -30 23 -19 45 -30 65 -30 20 0 36 -7 46 -21 11 -16 27 -22
71 -25 41 -2 63 -9 76 -23 12 -12 38 -22 71 -26 73 -9 2906 -11 3042 -2 83 5
114 11 129 24 15 15 44 19 156 23 121 4 138 7 157 26 16 16 38 22 104 27 62 5
89 12 104 26 15 13 43 21 101 26 58 5 89 13 115 30 25 16 55 24 108 28 50 4
81 12 101 26 16 12 42 21 58 21 44 0 94 17 115 40 12 12 32 20 53 20 21 0 44
9 63 25 17 14 36 25 43 25 7 0 31 6 54 14 22 8 52 17 67 20 15 3 30 15 33 26
4 11 23 27 43 36 20 8 44 24 54 34 11 11 28 20 39 20 11 0 30 5 42 12 12 7 82
17 154 23 103 9 137 16 153 30 11 10 43 22 72 26 35 6 58 16 72 32 14 16 41
28 79 37 68 14 173 66 236 118 25 20 59 46 77 58 84 58 222 192 269 262 78
117 85 128 85 144 0 9 11 30 25 46 14 17 25 36 25 45 0 8 13 31 29 51 16 20
31 54 35 79 4 23 16 58 27 77 12 19 25 63 30 99 5 36 17 89 27 116 14 41 17
84 16 235 0 165 -2 191 -22 245 -12 33 -29 105 -36 160 -15 104 -45 201 -76
245 -9 14 -21 36 -25 50 -4 14 -18 39 -30 56 -13 16 -30 46 -38 66 -19 46
-183 206 -276 269 -106 72 -276 116 -396 103 -51 -6 -155 -41 -155 -53 0 -3
-16 -15 -36 -26 -51 -27 -104 -92 -104 -127 0 -16 -9 -46 -20 -68 -25 -49 -25
-82 -1 -134 11 -23 22 -52 25 -66 3 -14 14 -35 26 -47 11 -12 20 -28 20 -34 0
-7 38 -50 85 -96 47 -46 85 -89 85 -96 0 -7 13 -26 29 -41 16 -16 35 -41 41
-57 7 -15 22 -35 35 -43 15 -10 26 -30 30 -55 4 -22 16 -52 27 -66 16 -21 19
-34 14 -73 -4 -26 -10 -83 -14 -128 -4 -45 -12 -87 -18 -95 -6 -8 -31 -40 -56
-71 -26 -32 -50 -72 -53 -90 -5 -20 -31 -54 -76 -98 -54 -53 -79 -70 -116 -79
-26 -7 -66 -21 -89 -32 -81 -36 -124 -16 -124 59 0 22 -4 43 -9 46 -11 7 -18
53 -26 160 -4 57 -11 86 -25 104 -11 13 -20 30 -20 38 0 7 -11 26 -25 42 -13
16 -27 44 -30 63 -3 19 -14 43 -23 54 -30 34 -62 101 -62 129 0 15 -7 29 -15
33 -9 3 -22 17 -29 32 -8 14 -26 39 -40 54 -19 20 -26 39 -26 67 0 31 -5 43
-25 56 -14 9 -32 32 -40 50 -8 19 -19 34 -24 34 -13 0 -41 53 -41 75 0 9 -9
29 -21 43 -43 57 -73 109 -86 151 -7 25 -21 53 -30 63 -19 21 -35 48 -59 98
-23 49 -24 50 -76 126 -25 38 -49 83 -53 100 -3 18 -15 40 -26 50 -10 9 -24
35 -30 57 -6 21 -22 51 -37 66 -35 35 -72 90 -72 108 0 8 -11 31 -25 51 -14
20 -25 43 -25 50 0 8 -11 27 -25 44 -14 16 -25 40 -25 52 0 12 -11 37 -25 56
-14 19 -25 42 -25 52 0 10 -9 27 -20 38 -11 11 -20 29 -20 39 0 11 -25 50 -55
86 -30 37 -55 75 -55 84 0 9 -11 33 -25 53 -20 29 -25 49 -25 98 0 38 -7 79
-19 108 -11 26 -22 76 -26 111 -4 41 -15 80 -31 106 -13 23 -24 57 -24 75 0
18 -11 57 -25 87 l-26 54 7 217 c6 186 9 221 25 248 17 28 19 61 20 443 l1
412 -26 20 c-14 11 -26 30 -26 42 0 32 -13 48 -42 51 -14 1 -36 11 -50 22 -21
16 -40 19 -131 18 -99 -1 -108 -3 -138 -28 -25 -21 -40 -26 -75 -24 -24 2 -44
5 -44 7 0 2 11 16 25 32 70 85 20 199 -88 199 -31 0 -46 -7 -73 -34z m-2549
-593 c13 -16 47 -55 76 -88 60 -70 88 -126 95 -193 6 -57 -9 -88 -56 -119 -19
-13 -50 -36 -68 -51 -51 -41 -74 -51 -99 -41 -25 9 -26 17 -28 189 0 41 -4
118 -9 170 -9 95 -8 96 19 128 33 39 40 40 70 5z m2989 -135 c7 -19 3 -47 -14
-107 -16 -57 -21 -93 -16 -121 4 -25 2 -49 -5 -63 -7 -12 -16 -53 -20 -92 -16
-132 -26 -177 -39 -185 -22 -14 -63 14 -89 60 -13 23 -45 73 -72 112 -49 71
-49 72 -49 153 l0 81 76 54 c42 30 81 61 87 70 52 69 123 88 141 38z m-759
-578 c33 -11 68 -29 80 -39 11 -10 37 -28 57 -40 53 -31 112 -124 143 -224 26
-82 26 -86 11 -138 -9 -29 -16 -71 -16 -93 0 -23 -9 -57 -19 -76 -11 -19 -27
-49 -35 -66 -19 -39 -64 -77 -127 -110 -41 -20 -62 -24 -141 -24 -226 0 -422
132 -449 302 -6 34 -12 65 -15 69 -6 11 22 156 40 205 22 60 89 156 131 188
87 67 226 85 340 46z m-1435 -32 c78 -19 98 -29 147 -77 104 -103 159 -277
134 -420 -17 -92 -58 -160 -146 -236 -68 -59 -73 -61 -151 -73 -105 -16 -191
-3 -288 43 -94 45 -148 96 -181 170 -30 67 -65 193 -65 235 0 42 31 173 45
190 7 8 20 31 29 51 16 33 56 66 136 110 49 27 238 31 340 7z"/>
<path d="M2853 6541 c-29 -31 -70 -90 -90 -131 -33 -65 -38 -83 -37 -140 3
-103 40 -184 112 -241 64 -51 92 -62 204 -80 69 -12 83 -11 139 7 104 33 144
96 159 254 20 222 -99 353 -340 377 l-95 9 -52 -55z"/>
<path d="M1430 6540 c-19 -11 -54 -25 -76 -31 -41 -11 -43 -13 -73 -93 -32
-80 -32 -83 -21 -169 19 -151 50 -209 150 -278 55 -38 135 -59 230 -59 104 0
131 14 193 99 56 75 70 127 65 233 -3 67 -10 98 -38 163 -33 74 -39 81 -95
115 -58 34 -62 35 -180 37 -105 3 -124 0 -155 -17z"/>
</g>
</svg>
