<?xml version="1.0" standalone="no"?>
<!DOCTYPE svg PUBLIC "-//W3C//DTD SVG 20010904//EN"
 "http://www.w3.org/TR/2001/REC-SVG-20010904/DTD/svg10.dtd">
<svg version="1.0" xmlns="http://www.w3.org/2000/svg"
 width="704.000000pt" height="1280.000000pt" viewBox="0 0 704.000000 1280.000000"
 preserveAspectRatio="xMidYMid meet">
<metadata>
Created by potrace 1.16, written by Peter Selinger 2001-2019
</metadata>
<g transform="translate(0.000000,1280.000000) scale(0.100000,-0.100000)"
fill="#000000" stroke="none">
<path d="M4560 10554 c-783 -68 -1394 -457 -1531 -974 -32 -120 -32 -320 -1
-435 96 -349 409 -650 852 -818 324 -122 598 -164 999 -154 246 6 403 27 611
81 632 163 1057 556 1110 1026 16 141 -10 305 -70 437 -207 455 -768 775
-1470 838 -186 17 -295 17 -500 -1z m435 -154 c306 -23 546 -82 784 -191 287
-133 511 -340 602 -557 85 -203 74 -446 -29 -631 -173 -314 -545 -545 -1037
-646 -215 -44 -581 -59 -813 -35 -204 22 -437 80 -610 151 -457 190 -722 509
-722 868 0 211 76 387 239 554 267 276 675 442 1191 486 140 12 238 12 395 1z"/>
<path d="M4640 10082 c-24 -2 -49 -7 -55 -12 -5 -4 -34 -15 -63 -24 -89 -26
-182 -83 -246 -151 -83 -87 -136 -155 -142 -185 -3 -14 -14 -43 -24 -65 -27
-58 -35 -114 -34 -260 1 -125 3 -132 33 -191 17 -34 31 -65 31 -68 0 -4 18
-33 39 -64 200 -292 530 -386 846 -242 53 25 149 92 176 124 9 11 40 28 70 37
l54 18 26 -25 c23 -22 100 -53 172 -68 15 -4 25 -11 22 -16 -3 -4 -58 -21
-123 -35 -276 -63 -319 -74 -363 -93 -48 -21 -89 -63 -89 -92 0 -9 11 -27 24
-39 97 -91 464 -72 681 36 59 30 91 58 111 95 20 38 9 72 -34 110 -33 29 -35
32 -18 42 65 39 106 99 106 155 0 33 -38 84 -79 105 -43 22 -126 29 -184 16
-68 -16 -128 -47 -204 -104 -33 -25 -64 -46 -67 -46 -14 0 -5 38 14 55 10 9
25 34 31 54 7 20 22 54 33 76 18 35 21 57 21 180 0 127 -3 147 -28 221 -107
311 -388 486 -737 456z m1061 -942 c33 0 89 -50 89 -79 0 -28 -55 -88 -102
-112 l-39 -20 -107 27 c-166 42 -178 51 -121 99 65 54 183 99 234 89 11 -2 32
-4 46 -4z m10 -301 c67 -47 16 -107 -136 -161 -107 -38 -198 -53 -335 -53
-130 0 -193 13 -204 41 -8 22 0 32 42 50 35 14 73 24 352 88 63 15 133 35 155
46 46 22 84 19 126 -11z"/>
<path d="M3761 8306 c-18 -6 -50 -26 -71 -44 -117 -98 -50 -302 104 -319 81
-10 151 28 188 100 51 100 5 216 -104 261 -44 19 -70 19 -117 2z m93 -80 c44
-18 66 -52 66 -99 0 -31 -7 -46 -35 -74 -32 -32 -39 -35 -78 -30 -111 15 -134
159 -33 203 39 17 40 17 80 0z"/>
<path d="M3468 7973 c-43 -45 -52 -80 -33 -130 9 -24 28 -52 42 -63 14 -11 20
-20 12 -20 -7 0 -22 -9 -33 -19 -12 -11 -34 -22 -51 -25 -16 -3 -36 -13 -42
-22 -9 -12 -32 -19 -70 -22 -42 -3 -66 -11 -86 -28 -16 -13 -37 -24 -47 -24
-11 0 -35 -13 -53 -30 -19 -16 -45 -30 -57 -30 -12 0 -36 -12 -53 -26 -38 -32
-81 -27 -113 12 -19 24 -27 26 -80 23 -33 -1 -114 -2 -182 -1 -115 2 -123 3
-143 26 l-21 24 -475 -1 -475 -1 -20 27 c-14 20 -28 27 -52 27 -19 0 -46 11
-66 25 -19 14 -39 25 -45 25 -7 0 -24 12 -40 26 -18 16 -36 24 -54 22 -20 -2
-32 5 -55 35 -17 23 -34 36 -43 33 -12 -5 -26 5 -61 49 -12 13 -29 15 -110 11
-54 -3 -138 -5 -189 -5 l-91 -1 -23 -36 c-21 -35 -22 -45 -20 -224 l2 -188
-30 -31 c-41 -42 -43 -96 -6 -126 25 -20 26 -24 34 -206 5 -103 5 -206 0 -230
-4 -24 -8 -66 -9 -92 0 -41 -5 -54 -29 -76 -26 -24 -28 -32 -24 -72 5 -40 2
-48 -27 -76 -31 -31 -33 -35 -27 -88 6 -61 -4 -111 -27 -129 -11 -8 -15 -43
-18 -149 -3 -138 -3 -139 -30 -161 l-28 -22 0 -232 0 -233 -27 -27 c-24 -23
-27 -34 -26 -77 2 -40 -2 -54 -21 -75 -13 -14 -26 -43 -29 -65 -4 -28 -14 -46
-34 -60 -49 -36 -70 -65 -77 -103 -4 -23 -21 -53 -46 -80 -22 -24 -40 -47 -40
-52 0 -4 -19 -32 -43 -62 -23 -29 -50 -65 -60 -80 -16 -25 -17 -122 -17 -1455
l0 -1428 50 -35 c27 -19 53 -45 59 -57 5 -12 29 -30 53 -41 24 -10 49 -26 57
-35 9 -11 29 -17 56 -17 31 0 52 -7 72 -24 15 -13 45 -26 65 -30 21 -4 43 -15
50 -25 9 -13 30 -20 71 -23 39 -3 64 -11 80 -25 15 -14 42 -22 88 -27 58 -5
2946 -8 3075 -2 35 1 60 9 79 24 25 20 39 22 152 22 117 0 127 2 153 23 22 19
44 25 110 30 58 5 89 12 102 24 14 12 45 20 105 24 66 5 89 11 107 28 17 16
45 24 110 32 63 8 93 16 107 30 11 11 33 19 52 19 48 0 102 18 122 40 11 12
31 20 51 20 20 0 44 9 62 25 17 14 39 25 49 25 11 0 28 7 39 15 10 8 33 15 49
15 36 0 48 8 64 38 6 12 18 22 25 22 7 0 30 14 51 30 21 17 44 30 52 30 8 0
27 7 43 15 18 9 78 18 157 23 113 7 132 11 151 30 15 15 34 22 62 22 29 0 48
7 73 30 19 17 41 30 49 30 32 0 128 31 162 52 166 103 398 297 455 382 35 52
78 125 94 161 8 17 21 36 30 44 10 7 17 20 17 29 0 8 13 36 29 61 16 25 32 65
36 88 4 23 15 53 26 67 10 13 22 46 25 73 3 26 17 95 31 153 24 98 25 115 20
270 -5 137 -10 172 -27 207 -11 23 -20 55 -20 70 0 59 -30 206 -44 222 -9 10
-16 24 -16 33 0 8 -13 40 -30 71 -16 31 -30 63 -30 70 0 8 -13 31 -30 52 -16
21 -30 43 -30 50 0 26 -148 178 -244 252 -72 55 -138 85 -245 113 -161 41
-276 18 -392 -78 -72 -59 -85 -77 -93 -136 -3 -21 -13 -47 -22 -57 -21 -23
-15 -75 15 -141 11 -26 21 -53 21 -61 0 -8 7 -20 16 -28 8 -7 22 -26 30 -41 8
-16 46 -60 84 -98 37 -37 74 -79 81 -92 6 -12 23 -36 36 -53 13 -16 39 -49 58
-72 18 -24 37 -58 41 -75 3 -18 16 -46 28 -63 27 -39 28 -43 10 -100 -7 -27
-14 -75 -14 -107 0 -69 -7 -85 -70 -158 -26 -31 -50 -69 -54 -85 -12 -56 -134
-169 -199 -185 -23 -6 -61 -19 -85 -30 -80 -37 -135 -18 -125 44 3 19 -1 44
-8 57 -7 14 -16 73 -19 137 -4 91 -9 116 -22 123 -9 5 -22 25 -28 45 -7 20
-21 45 -31 55 -11 11 -19 29 -19 42 0 12 -8 34 -17 47 -26 36 -73 133 -73 149
0 14 -37 64 -82 111 -20 20 -28 38 -28 63 0 45 -9 67 -26 67 -8 0 -20 12 -26
28 -7 15 -25 40 -40 56 -15 16 -30 41 -33 56 -3 15 -17 42 -31 61 -13 18 -24
38 -24 43 0 6 -11 24 -25 40 -13 16 -27 45 -31 65 -4 20 -16 47 -28 61 -34 39
-76 105 -76 119 0 8 -10 30 -22 50 -42 67 -48 76 -74 131 -15 30 -37 66 -49
80 -12 14 -25 37 -29 51 -3 14 -28 54 -56 89 -27 34 -50 68 -50 75 0 19 -69
151 -86 165 -8 7 -14 24 -14 39 0 15 -4 31 -9 37 -14 13 -81 143 -81 156 0 6
-11 26 -25 44 -14 18 -25 35 -25 38 0 2 -13 18 -30 34 -16 17 -30 40 -30 51 0
11 -11 36 -23 55 -18 25 -25 54 -30 109 -3 41 -12 88 -21 105 -9 17 -16 55
-16 85 0 41 -7 68 -30 110 -16 31 -30 70 -30 87 0 17 -12 56 -26 85 l-25 54 6
218 c5 192 8 221 25 250 19 33 20 53 20 441 l0 406 -24 25 c-13 15 -28 39 -33
55 -6 19 -20 33 -39 40 -16 6 -40 18 -54 28 -20 13 -45 16 -128 14 -92 -3
-105 -5 -128 -27 -20 -18 -38 -24 -81 -26 -30 -1 -67 -4 -82 -7 -16 -3 -10 2
16 14 74 33 103 115 64 178 -38 59 -128 72 -173 25z m-2527 -625 c12 -18 42
-54 66 -81 57 -61 76 -107 77 -184 1 -55 -2 -65 -28 -92 -17 -17 -34 -31 -38
-31 -5 0 -31 -18 -58 -39 -107 -85 -117 -74 -126 129 -13 292 -13 298 19 326
33 28 53 22 88 -28z m2963 -106 c13 -25 12 -34 -5 -86 -11 -33 -22 -89 -24
-125 -4 -64 -16 -140 -36 -229 -5 -23 -9 -54 -9 -68 0 -34 -17 -64 -37 -64
-18 0 -73 47 -73 62 0 9 -51 89 -95 147 -22 30 -25 44 -25 112 l0 78 73 58
c39 32 74 61 77 64 19 23 105 79 121 79 10 0 25 -12 33 -28z m-752 -583 c78
-31 170 -102 211 -162 48 -74 81 -186 73 -252 -3 -27 -10 -79 -14 -115 -15
-115 -76 -203 -177 -251 -52 -25 -71 -29 -150 -29 -174 0 -339 84 -412 207
-38 65 -56 171 -42 253 17 98 90 241 151 292 89 74 251 100 360 57z m-1433
-34 c36 -9 81 -28 101 -42 38 -24 100 -94 100 -111 0 -5 9 -21 20 -34 10 -14
29 -61 41 -104 42 -152 9 -292 -93 -400 -75 -79 -113 -102 -195 -114 -192 -30
-398 64 -466 212 -33 73 -66 189 -67 234 0 55 32 178 57 214 12 19 23 40 23
47 0 17 106 88 157 105 59 20 239 16 322 -7z"/>
<path d="M2854 6540 c-31 -32 -72 -89 -92 -127 -32 -60 -36 -76 -35 -138 1
-95 30 -169 90 -229 60 -58 92 -73 203 -93 85 -15 93 -15 152 2 81 24 112 53
142 134 70 184 7 389 -139 454 -22 10 -48 23 -58 28 -10 6 -42 12 -70 15 -29
3 -71 7 -95 9 -41 4 -44 3 -98 -55z"/>
<path d="M1440 6545 c-14 -8 -48 -22 -76 -30 l-52 -16 -32 -90 c-36 -100 -36
-136 0 -259 24 -80 42 -107 104 -158 70 -58 143 -82 251 -82 102 0 130 13 190
86 56 68 75 128 75 234 0 79 -4 99 -30 158 -39 85 -61 108 -135 143 -54 26
-70 29 -165 29 -73 -1 -113 -5 -130 -15z"/>
</g>
</svg>
