<?xml version="1.0" standalone="no"?>
<!DOCTYPE svg PUBLIC "-//W3C//DTD SVG 20010904//EN"
 "http://www.w3.org/TR/2001/REC-SVG-20010904/DTD/svg10.dtd">
<svg version="1.0" xmlns="http://www.w3.org/2000/svg"
 width="704.000000pt" height="1280.000000pt" viewBox="0 0 704.000000 1280.000000"
 preserveAspectRatio="xMidYMid meet">
<metadata>
Created by potrace 1.16, written by Peter Selinger 2001-2019
</metadata>
<g transform="translate(0.000000,1280.000000) scale(0.100000,-0.100000)"
fill="#000000" stroke="none">
<path d="M4610 10559 c-231 -19 -389 -48 -580 -106 -514 -155 -905 -494 -1000
-868 -139 -543 244 -1063 954 -1295 274 -90 539 -125 886 -117 402 10 702 75
996 216 354 170 594 414 690 699 76 229 63 440 -42 657 -133 276 -406 506
-777 655 -327 132 -748 191 -1127 159z m386 -159 c329 -26 563 -85 809 -205
167 -81 282 -163 400 -287 83 -86 102 -112 150 -211 69 -143 90 -241 81 -377
-17 -259 -175 -499 -447 -679 -242 -161 -532 -258 -894 -300 -131 -16 -490
-14 -625 3 -526 67 -932 269 -1153 572 -195 270 -196 617 -3 888 91 127 293
294 457 377 340 171 795 253 1225 219z"/>
<path d="M3770 8308 c-108 -30 -169 -151 -127 -251 8 -18 32 -49 55 -69 74
-66 178 -62 251 11 90 90 64 237 -53 296 -54 27 -72 29 -126 13z m84 -82 c71
-30 89 -110 37 -168 -25 -28 -36 -33 -76 -33 -40 0 -51 5 -76 33 -53 59 -31
138 51 174 22 10 27 9 64 -6z"/>
<path d="M3464 7966 c-28 -28 -34 -42 -34 -76 0 -44 28 -102 58 -120 12 -6 13
-9 3 -10 -7 0 -26 -11 -43 -25 -16 -14 -38 -25 -49 -25 -10 0 -33 -9 -51 -20
-18 -11 -50 -20 -72 -20 -26 0 -47 -8 -68 -25 -16 -14 -40 -25 -52 -25 -12 0
-32 -11 -44 -24 -11 -14 -38 -30 -59 -35 -22 -6 -49 -20 -61 -31 -30 -29 -68
-25 -103 9 -26 26 -35 29 -87 28 -31 -1 -112 -1 -179 1 -111 2 -124 4 -150 26
l-28 24 -470 1 -469 1 -23 25 c-16 16 -35 25 -54 25 -19 0 -43 10 -61 25 -16
14 -36 25 -43 25 -8 0 -26 11 -41 25 -15 14 -39 25 -55 25 -20 0 -35 9 -51 30
-12 17 -29 30 -37 30 -20 1 -51 24 -51 38 0 23 -40 28 -220 26 -220 -3 -200
-2 -200 -14 0 -6 -8 -22 -17 -37 -15 -22 -16 -51 -14 -214 l3 -189 -31 -27
c-41 -36 -44 -97 -6 -128 24 -19 25 -26 33 -195 5 -96 5 -188 0 -205 -4 -16
-8 -64 -8 -107 0 -74 -1 -77 -30 -98 -28 -20 -30 -26 -30 -80 0 -52 -3 -62
-25 -76 -23 -15 -24 -20 -22 -101 2 -79 0 -87 -20 -100 -22 -15 -23 -22 -23
-150 l0 -135 -30 -28 -30 -28 0 -230 0 -229 -27 -27 c-24 -24 -27 -35 -25 -80
2 -45 -2 -56 -23 -76 -18 -17 -25 -34 -25 -61 0 -32 -6 -42 -42 -71 -55 -42
-66 -56 -74 -95 -3 -17 -17 -41 -30 -54 -13 -12 -24 -28 -24 -34 0 -7 -9 -20
-20 -30 -11 -10 -20 -23 -20 -30 0 -6 -14 -24 -30 -40 -17 -16 -42 -48 -55
-71 l-25 -43 0 -1422 0 -1422 58 -57 c31 -31 63 -64 70 -73 7 -9 22 -17 34
-17 11 0 31 -11 44 -25 18 -20 33 -25 68 -25 36 0 52 -6 79 -30 19 -16 45 -30
57 -30 13 0 31 -9 41 -21 13 -15 34 -22 76 -26 32 -3 66 -12 75 -20 10 -9 39
-20 65 -25 64 -12 2260 -19 2764 -9 379 8 398 10 425 29 25 18 45 21 152 23
108 2 126 5 152 24 23 17 50 24 112 28 59 5 87 12 102 26 16 13 43 20 105 25
65 4 89 10 106 26 15 14 45 23 105 31 53 6 93 17 111 30 15 10 43 19 62 19 42
0 84 15 112 39 11 9 34 18 50 20 17 1 42 11 57 21 28 21 132 60 158 60 9 0 29
13 45 30 16 17 34 30 40 30 7 0 24 11 39 25 43 40 100 56 246 70 74 8 136 14
137 14 1 1 9 8 18 18 9 9 40 20 68 24 31 5 60 17 76 33 16 15 44 27 73 31 69
10 261 113 276 148 2 4 17 14 34 23 70 36 229 193 289 284 27 41 56 84 64 95
8 10 15 25 15 31 0 7 11 25 23 41 13 15 27 40 30 55 4 14 17 39 30 55 13 15
29 53 35 83 7 30 19 61 27 70 8 9 19 50 25 91 6 40 18 99 28 129 24 77 24 409
0 455 -20 38 -48 170 -48 227 0 26 -8 55 -20 73 -11 17 -20 37 -20 45 0 8 -14
42 -30 75 -16 33 -30 65 -30 70 0 6 -13 26 -30 45 -16 19 -29 41 -30 49 0 30
-161 200 -240 254 -117 81 -160 100 -279 122 -159 31 -239 14 -354 -73 -63
-48 -97 -93 -97 -130 0 -12 -9 -41 -21 -64 -16 -31 -19 -51 -14 -84 3 -24 10
-46 16 -49 5 -4 14 -26 20 -50 6 -24 20 -51 30 -61 10 -9 19 -23 19 -30 0 -8
38 -52 85 -99 47 -47 85 -91 85 -97 0 -6 15 -28 33 -49 74 -88 89 -110 99
-146 6 -21 21 -51 34 -66 28 -33 28 -37 9 -101 -8 -27 -15 -77 -15 -112 0 -65
-8 -80 -97 -187 -12 -16 -23 -36 -23 -46 0 -25 -63 -103 -117 -145 -25 -19
-70 -43 -101 -52 -31 -8 -65 -22 -76 -30 -27 -19 -81 -18 -100 2 -9 8 -16 31
-16 50 0 19 -7 51 -15 71 -10 23 -15 68 -15 128 0 85 -2 96 -25 123 -14 17
-25 33 -25 38 0 4 -9 18 -21 30 -11 12 -25 42 -30 65 -6 24 -16 51 -23 59 -24
27 -66 114 -66 137 0 12 -6 26 -14 30 -7 4 -24 26 -38 48 -14 22 -33 46 -42
54 -10 8 -16 28 -16 52 0 30 -6 42 -30 59 -16 12 -30 27 -30 35 0 7 -16 32
-35 55 -19 23 -35 51 -35 62 0 11 -9 32 -21 46 -48 63 -79 120 -85 155 -4 21
-14 43 -23 50 -19 14 -81 113 -81 129 0 14 -49 98 -67 116 -18 18 -39 60 -47
94 -3 15 -17 38 -31 52 -14 14 -25 34 -25 44 0 11 -25 50 -55 87 -30 36 -55
74 -55 83 0 9 -12 35 -25 57 -14 22 -25 48 -25 58 0 9 -9 26 -20 37 -11 11
-22 32 -26 47 -4 16 -17 42 -30 60 -13 17 -24 38 -24 46 0 8 -9 26 -20 40 -11
14 -20 33 -20 44 0 18 -57 106 -83 127 -8 6 -22 32 -32 58 -10 26 -24 53 -31
59 -10 8 -14 35 -14 83 0 50 -5 82 -18 106 -11 19 -22 64 -26 100 -3 38 -16
84 -31 112 -14 26 -25 61 -25 78 0 17 -12 53 -26 81 l-25 51 7 221 c6 186 10
228 25 259 17 33 19 69 19 438 l1 402 -24 27 c-14 14 -29 40 -34 56 -6 20 -19
33 -39 40 -16 6 -40 17 -54 26 -19 11 -51 15 -126 15 -94 -1 -102 -3 -133 -28
-25 -21 -43 -28 -77 -28 -24 0 -44 3 -44 6 0 3 11 19 25 35 70 85 20 199 -88
199 -31 0 -46 -7 -73 -34z m-2528 -614 c16 -20 50 -60 75 -88 54 -60 73 -107
73 -186 1 -61 -15 -87 -66 -114 -15 -8 -40 -26 -55 -40 -42 -39 -74 -53 -100
-43 -19 7 -23 17 -25 56 0 26 -3 100 -6 163 -10 250 -10 249 21 276 33 28 45
24 83 -24z m2964 -97 c13 -16 11 -41 -15 -150 -9 -38 -14 -85 -11 -103 3 -18
0 -45 -6 -60 -5 -15 -14 -54 -19 -87 -28 -183 -28 -185 -58 -185 -21 0 -56 31
-75 69 -8 15 -38 61 -65 101 l-51 74 0 82 c0 82 0 83 33 105 29 21 125 97 137
109 54 55 106 74 130 45z m-755 -595 c33 -11 68 -29 80 -39 11 -10 35 -27 53
-37 50 -28 115 -127 141 -214 24 -79 24 -84 -2 -245 -19 -122 -69 -195 -169
-245 -55 -27 -71 -30 -151 -30 -128 0 -247 41 -330 112 -77 67 -103 110 -122
200 -16 78 -11 138 22 243 30 96 116 205 188 239 82 39 204 46 290 16z m-1425
-33 c82 -21 132 -56 184 -132 72 -104 91 -164 90 -285 -1 -110 -9 -136 -67
-233 -34 -58 -150 -145 -206 -154 -212 -36 -416 53 -495 217 -30 61 -66 188
-66 230 0 64 34 176 72 236 34 55 47 66 116 100 77 39 77 39 192 38 67 -1 142
-8 180 -17z"/>
<path d="M2854 6545 c-55 -56 -117 -165 -130 -233 -8 -41 11 -133 41 -194 24
-51 99 -121 148 -141 32 -12 160 -37 192 -37 54 0 138 36 170 73 62 72 87 238
52 342 -48 142 -138 210 -307 230 -30 3 -67 8 -82 11 -23 5 -36 -4 -84 -51z"/>
<path d="M1440 6544 c-19 -9 -57 -24 -84 -33 l-49 -17 -29 -85 c-26 -78 -27
-90 -18 -159 9 -72 28 -141 51 -187 20 -37 131 -121 172 -128 20 -4 40 -11 43
-16 3 -5 48 -9 100 -9 114 0 138 10 195 83 64 81 79 124 79 232 0 87 -3 99
-39 178 -36 79 -42 86 -97 118 -56 32 -64 34 -174 37 -89 2 -123 -1 -150 -14z"/>
</g>
</svg>
