<?xml version="1.0" standalone="no"?>
<!DOCTYPE svg PUBLIC "-//W3C//DTD SVG 20010904//EN"
 "http://www.w3.org/TR/2001/REC-SVG-20010904/DTD/svg10.dtd">
<svg version="1.0" xmlns="http://www.w3.org/2000/svg"
 width="704.000000pt" height="1280.000000pt" viewBox="0 0 704.000000 1280.000000"
 preserveAspectRatio="xMidYMid meet">
<metadata>
Created by potrace 1.16, written by Peter Selinger 2001-2019
</metadata>
<g transform="translate(0.000000,1280.000000) scale(0.100000,-0.100000)"
fill="#000000" stroke="none">
<path d="M4565 10555 c-245 -23 -365 -46 -551 -106 -689 -219 -1090 -711
-1000 -1227 80 -459 507 -824 1151 -986 314 -79 811 -88 1165 -20 621 118
1095 459 1229 883 71 223 58 427 -39 636 -186 400 -688 712 -1285 800 -244 36
-437 41 -670 20z m550 -165 c325 -37 646 -147 880 -301 96 -64 243 -203 295
-279 50 -74 104 -182 126 -255 28 -94 26 -298 -4 -389 -79 -236 -234 -413
-507 -578 -203 -122 -490 -210 -814 -248 -132 -15 -484 -13 -621 4 -341 43
-628 142 -860 297 -287 192 -440 442 -440 719 0 223 85 407 271 585 318 305
848 475 1429 459 85 -2 196 -8 245 -14z"/>
<path d="M3767 8307 c-82 -26 -137 -97 -137 -176 0 -58 20 -100 68 -143 128
-116 339 3 301 171 -14 65 -46 108 -103 136 -55 28 -73 29 -129 12z m87 -81
c44 -19 66 -52 66 -101 0 -103 -136 -139 -194 -51 -43 67 -3 139 92 165 1 1
18 -5 36 -13z"/>
<path d="M3474 7982 c-51 -41 -59 -117 -19 -172 14 -19 31 -37 37 -42 10 -6
10 -8 -1 -8 -7 0 -26 -11 -43 -25 -16 -14 -40 -25 -53 -25 -13 0 -28 -7 -33
-17 -7 -11 -28 -18 -67 -21 -39 -3 -70 -13 -93 -28 -19 -13 -43 -24 -53 -24
-10 0 -24 -8 -31 -18 -16 -23 -50 -42 -75 -42 -10 0 -29 -9 -43 -20 -35 -27
-82 -25 -118 5 -29 25 -32 25 -210 25 -178 0 -181 0 -199 24 l-19 24 -474 1
-474 1 -23 25 c-15 15 -35 25 -52 25 -15 0 -41 11 -57 25 -16 14 -37 25 -46
25 -9 0 -30 11 -46 25 -17 14 -40 25 -52 25 -21 0 -60 33 -60 52 0 4 -11 8
-25 8 -14 0 -38 14 -57 33 l-33 33 -175 -2 c-96 -2 -180 -3 -186 -3 -5 -1 -21
-16 -34 -33 -24 -33 -25 -35 -21 -224 l3 -191 -31 -32 c-41 -42 -44 -100 -6
-128 24 -17 25 -23 33 -197 6 -104 6 -192 1 -210 -5 -17 -9 -63 -9 -102 0 -66
-2 -71 -30 -92 -27 -20 -30 -28 -30 -77 0 -46 -4 -59 -25 -77 -23 -20 -24 -27
-22 -104 2 -73 0 -85 -20 -106 -21 -23 -23 -33 -23 -152 l0 -128 -30 -28 -30
-28 0 -230 0 -229 -27 -27 c-23 -24 -27 -35 -25 -78 2 -41 -3 -56 -23 -80 -16
-19 -25 -42 -25 -64 0 -28 -7 -39 -42 -64 -51 -37 -64 -56 -73 -104 -5 -23
-17 -43 -31 -53 -13 -8 -24 -21 -24 -28 0 -7 -7 -18 -16 -25 -8 -8 -21 -28
-29 -47 -8 -18 -19 -33 -24 -33 -6 0 -26 -24 -46 -52 l-35 -53 0 -1425 0
-1424 48 -46 c26 -25 57 -58 69 -73 13 -15 33 -27 46 -27 13 0 33 -11 45 -25
17 -20 31 -25 67 -25 35 0 51 -6 78 -30 19 -16 46 -30 59 -30 14 0 32 -8 42
-19 11 -12 36 -20 75 -24 42 -3 65 -11 80 -26 12 -12 36 -22 53 -23 18 0 47
-3 63 -4 78 -9 2348 -12 2708 -4 388 8 410 9 430 28 19 17 39 21 150 24 75 2
131 8 135 14 14 22 51 33 135 40 64 5 91 11 103 25 11 13 38 20 95 25 54 4 85
12 100 25 22 19 41 24 134 34 35 4 69 15 84 26 13 10 38 19 55 19 46 0 91 15
115 39 13 13 34 21 55 21 18 0 44 9 58 20 26 20 87 45 148 60 19 5 44 20 55
33 11 14 31 28 45 32 13 4 33 18 43 31 10 13 27 24 38 24 11 0 32 6 47 14 15
8 72 17 127 20 137 9 159 13 185 36 14 12 38 20 61 20 28 0 47 8 71 29 22 19
52 33 89 39 73 14 224 95 274 148 6 5 29 23 53 39 50 33 228 201 245 231 7 12
29 47 50 79 21 32 43 70 48 84 6 14 18 35 28 46 10 11 22 34 25 50 4 17 16 40
27 51 11 12 26 45 34 73 7 29 21 63 29 76 9 13 21 57 26 97 6 40 18 96 28 123
14 41 17 85 17 235 0 166 -3 190 -22 235 -20 48 -24 67 -38 200 -4 33 -16 75
-26 93 -10 18 -19 39 -19 45 0 7 -11 32 -24 57 -13 25 -27 56 -31 70 -4 14
-18 39 -30 56 -13 16 -30 47 -39 67 -8 20 -20 37 -25 37 -6 0 -16 11 -23 24
-14 25 -149 151 -214 199 -101 74 -244 116 -374 111 -102 -5 -157 -24 -233
-82 -64 -49 -97 -93 -97 -132 0 -14 -9 -43 -21 -64 -23 -43 -21 -91 6 -143 8
-15 16 -39 19 -53 3 -14 14 -35 26 -47 11 -12 20 -28 20 -34 0 -7 38 -50 85
-96 47 -46 85 -89 85 -97 0 -7 12 -23 26 -37 14 -13 34 -40 44 -60 10 -19 26
-41 34 -48 9 -7 20 -30 26 -50 5 -20 18 -46 29 -57 29 -32 32 -56 16 -110 -8
-27 -15 -75 -15 -107 0 -67 -6 -81 -72 -160 -26 -32 -48 -66 -48 -76 0 -48
-154 -185 -220 -197 -19 -4 -52 -15 -72 -25 -70 -35 -118 -15 -118 50 0 17 -6
47 -14 65 -8 18 -17 78 -21 132 -6 73 -13 105 -26 123 -11 13 -19 29 -19 35 0
7 -11 27 -25 46 -14 19 -25 44 -25 56 0 12 -8 32 -19 45 -31 40 -71 123 -71
147 0 12 -7 25 -15 29 -9 3 -24 22 -34 42 -11 20 -28 45 -40 55 -14 13 -21 31
-21 57 0 30 -6 42 -30 59 -16 12 -30 28 -30 35 0 8 -13 29 -29 48 -16 18 -33
46 -37 63 -3 16 -15 38 -24 49 -10 11 -26 36 -35 55 -10 18 -24 40 -31 47 -7
8 -16 30 -20 51 -3 20 -16 48 -28 62 -29 33 -76 107 -76 119 0 13 -34 73 -72
129 -17 24 -34 59 -40 78 -5 19 -20 45 -33 59 -14 13 -25 33 -25 43 0 11 -25
50 -55 87 -30 36 -55 74 -55 83 0 9 -12 35 -25 57 -14 22 -25 46 -25 54 0 7
-11 26 -25 43 -14 16 -25 39 -25 50 0 12 -11 36 -25 54 -14 18 -25 39 -25 47
0 8 -9 26 -20 40 -11 14 -20 32 -20 40 0 8 -22 43 -49 79 -26 36 -56 86 -66
112 -10 25 -24 51 -31 57 -10 8 -14 35 -14 83 0 50 -5 82 -18 106 -11 19 -22
65 -25 103 -4 45 -14 81 -32 110 -14 25 -25 59 -25 79 0 19 -11 56 -25 82
l-25 47 6 222 c6 187 10 228 25 259 17 33 19 69 19 438 l1 402 -24 27 c-14 14
-29 40 -34 56 -6 20 -19 33 -40 40 -16 6 -38 16 -47 24 -19 16 -156 26 -212
16 -17 -3 -44 -17 -58 -30 -21 -20 -38 -25 -78 -25 l-50 0 30 35 c57 64 51
148 -12 186 -39 24 -104 24 -132 1z m-2547 -619 c15 -20 49 -59 74 -87 102
-111 116 -255 29 -304 -17 -9 -48 -31 -68 -49 -20 -18 -49 -38 -65 -44 -51
-21 -58 -3 -64 177 -11 287 -11 289 16 318 33 35 45 33 78 -11z m2974 -114
c12 -23 10 -44 -15 -133 -9 -33 -16 -80 -15 -105 1 -42 -7 -96 -32 -209 -5
-23 -9 -54 -9 -68 0 -35 -17 -64 -38 -64 -22 0 -57 31 -76 69 -8 15 -38 61
-65 101 -51 73 -51 74 -51 152 0 62 4 81 18 92 9 8 37 31 62 51 25 20 56 46
70 58 95 83 129 96 151 56z m-756 -589 c33 -11 68 -29 80 -39 11 -10 35 -27
53 -37 79 -45 169 -227 159 -322 -13 -129 -29 -209 -46 -232 -10 -14 -21 -35
-25 -47 -10 -30 -70 -81 -130 -109 -76 -36 -196 -34 -316 5 -73 23 -101 39
-151 82 -79 68 -105 111 -124 201 -12 58 -13 84 -4 133 27 143 96 272 176 329
78 54 227 71 328 36z m-1431 -30 c80 -19 140 -62 193 -138 110 -158 123 -361
33 -495 -22 -34 -69 -84 -105 -112 -58 -46 -71 -52 -144 -64 -69 -11 -90 -11
-162 4 -45 9 -108 30 -141 46 -116 58 -166 132 -210 311 -22 87 -22 91 -5 171
24 117 66 190 134 234 30 19 70 40 88 46 46 16 246 14 319 -3z"/>
<path d="M2852 6543 c-30 -32 -70 -92 -90 -133 -32 -64 -37 -84 -36 -140 1
-70 31 -163 63 -196 75 -78 114 -101 206 -119 104 -19 124 -19 193 5 104 36
152 124 152 278 0 204 -108 322 -316 346 -33 4 -72 9 -89 12 -26 4 -36 -2 -83
-53z"/>
<path d="M1422 6535 c-30 -14 -65 -25 -78 -25 -25 0 -28 -4 -73 -117 -19 -46
-20 -61 -12 -140 16 -144 45 -205 129 -266 76 -56 143 -77 247 -77 114 0 140
15 214 125 46 68 53 96 49 202 -3 88 -7 106 -39 174 -33 69 -42 79 -95 110
-56 32 -64 34 -174 37 -106 3 -119 1 -168 -23z"/>
</g>
</svg>
