<?xml version="1.0" standalone="no"?>
<!DOCTYPE svg PUBLIC "-//W3C//DTD SVG 20010904//EN"
 "http://www.w3.org/TR/2001/REC-SVG-20010904/DTD/svg10.dtd">
<svg version="1.0" xmlns="http://www.w3.org/2000/svg"
 width="704.000000pt" height="1280.000000pt" viewBox="0 0 704.000000 1280.000000"
 preserveAspectRatio="xMidYMid meet">
<metadata>
Created by potrace 1.16, written by Peter Selinger 2001-2019
</metadata>
<g transform="translate(0.000000,1280.000000) scale(0.100000,-0.100000)"
fill="#000000" stroke="none">
<path d="M4650 10563 c-117 -9 -324 -36 -409 -55 -455 -97 -831 -310 -1041
-590 -113 -150 -169 -279 -191 -444 -48 -361 143 -720 513 -967 177 -118 483
-240 718 -286 378 -75 883 -64 1227 25 384 99 703 281 899 513 173 204 264
471 234 692 -22 164 -64 278 -155 415 -194 291 -561 520 -1010 630 -229 56
-559 84 -785 67z m508 -179 c779 -102 1314 -549 1278 -1070 -14 -199 -111
-384 -285 -546 -243 -225 -602 -373 -1026 -423 -149 -17 -497 -20 -625 -5
-557 66 -1000 289 -1202 605 -97 153 -133 283 -126 452 10 207 83 361 252 529
234 233 547 379 966 448 225 38 530 42 768 10z"/>
<path d="M3770 8309 c-89 -27 -145 -106 -138 -195 11 -132 143 -210 264 -155
131 59 143 246 22 326 -44 29 -100 38 -148 24z m84 -83 c71 -30 89 -110 37
-168 -25 -28 -36 -33 -76 -33 -40 0 -51 5 -76 33 -62 69 -26 152 79 181 1 1
18 -5 36 -13z"/>
<path d="M3464 7966 c-29 -29 -34 -41 -34 -80 0 -39 6 -52 35 -85 33 -36 34
-40 16 -46 -10 -3 -22 -12 -25 -20 -3 -8 -23 -18 -46 -21 -22 -4 -40 -10 -40
-14 0 -13 -50 -30 -88 -30 -23 0 -51 -9 -74 -25 -20 -14 -45 -25 -56 -25 -10
0 -31 -13 -47 -30 -17 -18 -39 -30 -54 -30 -13 0 -32 -7 -42 -16 -10 -9 -34
-20 -55 -24 -33 -8 -40 -6 -63 19 l-26 28 -184 2 c-177 1 -185 2 -211 25 l-28
23 -467 -1 -466 -1 -25 28 c-16 18 -34 27 -53 27 -17 0 -42 11 -59 25 -17 14
-36 25 -44 25 -8 0 -23 9 -33 20 -10 11 -31 20 -48 20 -21 0 -39 10 -63 35
-18 19 -40 35 -49 35 -18 0 -45 23 -45 39 0 26 -46 30 -332 23 -76 -2 -77 -2
-98 -37 -20 -32 -22 -49 -23 -231 -2 -176 -4 -197 -20 -209 -22 -16 -41 -78
-32 -105 3 -10 15 -22 26 -25 16 -5 19 -17 21 -73 1 -37 3 -112 5 -167 5 -131
5 -124 -3 -243 -6 -98 -8 -103 -35 -123 -26 -18 -29 -26 -29 -73 0 -44 -4 -57
-26 -77 -24 -22 -26 -29 -21 -82 6 -64 -4 -113 -27 -131 -11 -8 -15 -43 -18
-149 -3 -138 -3 -139 -30 -161 l-28 -22 0 -223 c0 -228 -3 -247 -42 -285 -16
-15 -18 -26 -13 -65 5 -39 3 -50 -14 -65 -10 -10 -25 -40 -31 -66 -9 -37 -20
-55 -48 -77 -49 -36 -60 -51 -67 -95 -4 -23 -15 -43 -31 -53 -13 -8 -24 -20
-24 -25 0 -12 -42 -77 -82 -124 -18 -21 -41 -51 -50 -65 -17 -24 -18 -113 -18
-1458 0 -920 3 -1433 10 -1433 5 0 39 -29 75 -65 37 -36 73 -65 80 -65 8 0 26
-11 41 -25 20 -19 38 -25 70 -25 34 0 51 -7 77 -30 22 -19 46 -30 64 -30 18 0
37 -9 50 -23 15 -18 32 -24 68 -25 29 -2 56 -10 71 -21 18 -14 49 -20 131 -26
121 -7 2932 -10 3031 -2 44 3 70 10 85 25 19 17 40 20 153 25 111 4 136 8 160
25 21 14 52 22 108 26 60 5 85 11 101 26 16 15 35 20 76 20 60 0 129 16 129
30 0 12 56 27 128 34 40 4 74 13 92 26 15 11 41 20 57 20 43 0 103 20 109 35
3 8 26 17 51 21 24 3 56 17 71 29 15 12 38 25 52 28 88 21 135 40 160 64 53
52 98 83 120 83 12 0 31 5 43 12 12 7 82 17 156 24 106 8 137 14 146 28 7 9
35 20 64 25 33 5 62 17 79 33 16 15 51 30 86 38 73 15 165 65 271 144 113 86
130 101 220 192 95 96 112 119 156 204 18 36 40 74 50 85 9 11 19 32 23 47 3
14 17 39 30 55 13 15 26 46 30 68 4 22 16 57 27 78 10 21 24 68 29 105 5 37
17 88 27 112 15 38 17 77 17 240 0 177 -2 200 -22 248 -12 29 -27 96 -33 150
-7 64 -19 115 -36 152 -81 173 -104 218 -118 230 -8 7 -15 18 -15 26 0 7 -13
28 -29 46 -15 18 -30 38 -32 45 -5 14 -154 148 -211 189 -62 45 -95 60 -195
89 -160 47 -283 28 -404 -62 -77 -57 -91 -76 -100 -134 -5 -28 -15 -59 -24
-69 -21 -23 -19 -78 5 -125 11 -22 20 -45 20 -53 0 -7 11 -28 25 -46 14 -18
25 -39 25 -46 0 -7 38 -50 85 -96 47 -47 85 -89 85 -96 0 -6 16 -28 35 -49 19
-22 35 -44 35 -50 0 -7 11 -22 25 -35 13 -12 27 -35 31 -51 3 -15 18 -45 31
-65 22 -33 25 -44 18 -85 -4 -27 -10 -84 -13 -129 -4 -46 -13 -89 -22 -100 -8
-10 -33 -41 -56 -69 -22 -27 -44 -63 -48 -79 -11 -45 -149 -173 -200 -187 -22
-6 -58 -19 -78 -30 -74 -38 -128 -18 -128 49 0 20 -7 55 -15 77 -8 23 -14 78
-15 127 0 77 -3 90 -25 116 -14 17 -25 35 -25 40 0 6 -11 24 -25 40 -13 16
-27 44 -30 63 -3 19 -15 43 -26 55 -10 11 -19 24 -19 30 0 5 -9 20 -20 34 -11
14 -20 39 -20 55 0 19 -10 39 -25 54 -14 13 -25 29 -25 35 0 7 -13 25 -30 41
-23 22 -30 38 -30 66 0 30 -6 42 -30 59 -16 12 -30 28 -30 35 0 8 -13 29 -29
47 -16 18 -34 52 -40 75 -6 23 -15 43 -19 45 -18 7 -83 119 -89 152 -3 19 -16
45 -29 57 -13 12 -24 26 -24 30 0 5 -11 25 -25 45 -14 20 -25 43 -25 50 0 7
-25 50 -55 94 -30 44 -55 89 -55 99 0 10 -13 35 -30 56 -16 21 -30 46 -30 55
0 10 -25 48 -55 85 -30 36 -55 77 -55 89 0 12 -11 37 -25 56 -14 19 -25 40
-25 46 0 7 -11 30 -25 50 -14 20 -25 44 -25 52 0 8 -11 29 -23 46 -13 17 -27
43 -30 58 -4 15 -14 33 -22 42 -8 8 -15 24 -15 34 0 11 -25 51 -55 87 -30 37
-55 75 -55 84 0 9 -12 34 -25 56 -18 29 -25 55 -25 95 -1 30 -8 73 -16 95 -9
22 -21 76 -28 120 -7 52 -19 92 -34 112 -14 19 -22 46 -22 70 0 21 -10 56 -22
78 -22 39 -22 48 -19 275 3 210 5 237 22 261 17 25 19 52 20 433 l1 406 -25
30 c-14 16 -28 43 -32 59 -5 23 -13 31 -38 36 -18 4 -40 14 -49 22 -13 12 -44
15 -127 16 -104 1 -113 -1 -136 -23 -20 -19 -38 -25 -76 -26 -27 0 -49 1 -49
4 0 2 11 17 25 33 70 85 20 199 -88 199 -31 0 -46 -7 -73 -34z m-2543 -598
c134 -157 138 -162 155 -224 10 -38 14 -76 10 -96 -7 -34 -51 -88 -73 -88 -7
0 -21 -8 -31 -17 -58 -58 -120 -81 -138 -52 -4 6 -8 66 -9 133 -2 66 -6 164
-10 216 -8 94 -7 96 20 128 15 17 32 32 37 32 6 0 23 -15 39 -32z m2965 -96
c30 -20 34 -49 14 -112 -11 -33 -24 -100 -30 -148 -6 -48 -15 -116 -20 -152
-6 -36 -14 -90 -18 -120 -8 -60 -17 -80 -35 -80 -20 0 -64 43 -84 80 -10 19
-40 67 -66 106 -46 69 -47 73 -47 147 l0 77 53 41 c28 22 68 55 87 73 62 56
114 96 125 96 5 0 15 -4 21 -8z m-739 -612 c32 -12 67 -29 78 -39 11 -10 35
-27 53 -37 84 -48 171 -235 157 -339 -3 -27 -10 -79 -13 -115 -12 -111 -78
-204 -177 -251 -52 -25 -71 -29 -150 -29 -297 1 -500 211 -451 467 30 157 130
301 237 339 80 29 195 31 266 4z m-1427 -37 c89 -21 142 -62 204 -158 93 -143
100 -348 16 -470 -34 -50 -145 -150 -181 -163 -53 -20 -153 -24 -227 -8 -151
31 -261 108 -308 213 -31 70 -63 186 -64 229 0 43 30 176 44 193 6 8 20 32 32
55 15 29 39 52 85 81 59 37 70 40 159 46 109 7 149 4 240 -18z"/>
<path d="M2906 6590 c-35 -12 -118 -122 -153 -201 -31 -73 -34 -87 -28 -137
14 -113 72 -207 161 -262 31 -20 164 -50 219 -50 55 0 138 36 171 74 39 45 54
90 64 196 7 73 5 93 -13 145 -38 112 -99 174 -206 209 -52 18 -191 35 -215 26z"/>
<path d="M1430 6539 c-19 -11 -54 -24 -76 -30 -41 -11 -43 -13 -74 -94 -30
-77 -32 -90 -25 -152 9 -85 39 -182 66 -217 34 -43 119 -101 176 -119 66 -22
212 -23 252 -2 39 20 106 102 131 159 15 37 20 69 20 141 0 87 -2 98 -39 177
-43 91 -72 118 -157 144 -73 22 -230 18 -274 -7z"/>
</g>
</svg>
