<?xml version="1.0" standalone="no"?>
<!DOCTYPE svg PUBLIC "-//W3C//DTD SVG 20010904//EN"
 "http://www.w3.org/TR/2001/REC-SVG-20010904/DTD/svg10.dtd">
<svg version="1.0" xmlns="http://www.w3.org/2000/svg"
 width="704.000000pt" height="1280.000000pt" viewBox="0 0 704.000000 1280.000000"
 preserveAspectRatio="xMidYMid meet">
<metadata>
Created by potrace 1.16, written by Peter Selinger 2001-2019
</metadata>
<g transform="translate(0.000000,1280.000000) scale(0.100000,-0.100000)"
fill="#000000" stroke="none">
<path d="M4725 10809 c-320 -19 -603 -88 -889 -218 -151 -68 -436 -280 -527
-392 -162 -198 -248 -434 -236 -644 13 -216 70 -377 190 -537 90 -119 247
-263 367 -335 63 -39 257 -132 347 -167 174 -69 464 -139 638 -153 157 -14
579 -7 700 10 505 74 896 249 1167 524 101 102 150 168 204 278 67 137 96 262
95 415 0 139 -15 210 -71 344 -60 143 -192 315 -323 420 -355 284 -677 402
-1242 456 -121 11 -224 11 -420 -1z m645 -189 c170 -26 228 -41 365 -91 471
-174 758 -430 856 -766 32 -109 25 -314 -13 -418 -51 -139 -121 -238 -260
-373 -233 -225 -611 -382 -1068 -444 -121 -16 -537 -16 -645 1 -333 51 -524
108 -773 228 -89 43 -149 84 -259 176 -107 90 -176 172 -235 284 -67 126 -92
229 -91 378 1 112 3 127 37 222 59 167 121 257 264 386 144 130 266 203 482
291 163 66 331 109 505 130 190 23 208 24 465 21 179 -3 267 -8 370 -25z"/>
<path d="M3856 8495 c-56 -20 -87 -46 -115 -94 -68 -123 29 -291 169 -291 79
0 169 71 190 151 26 95 -41 212 -138 239 -47 13 -58 12 -106 -5z m133 -106
c26 -25 31 -39 31 -76 0 -38 -5 -50 -34 -79 -28 -28 -42 -34 -76 -34 -34 0
-48 6 -76 34 -38 38 -44 77 -19 126 21 41 53 60 101 60 34 0 49 -6 73 -31z"/>
<path d="M3574 8161 c-45 -28 -64 -59 -64 -106 0 -33 7 -50 35 -82 l35 -41
-27 -18 c-15 -9 -36 -26 -47 -36 -22 -20 -68 -35 -136 -45 -25 -3 -56 -14 -69
-24 -13 -11 -41 -24 -62 -29 -21 -6 -51 -22 -67 -35 -17 -14 -36 -25 -45 -25
-8 0 -30 -11 -50 -24 -20 -14 -44 -26 -54 -27 -29 -4 -73 12 -86 31 -11 16
-35 19 -202 23 -177 6 -191 7 -207 27 -16 20 -25 21 -485 24 -472 4 -524 7
-537 41 -2 7 -24 16 -48 20 -24 4 -50 13 -58 21 -32 28 -131 74 -158 74 -29 0
-62 26 -62 49 0 6 -14 14 -30 18 -19 3 -37 17 -47 34 l-17 29 -192 0 -191 0
-31 -35 -32 -34 0 -195 c0 -192 0 -196 -25 -232 -32 -47 -33 -93 -1 -123 22
-21 24 -29 26 -174 5 -213 5 -231 2 -333 -2 -85 -3 -91 -27 -104 -29 -15 -36
-33 -39 -100 -1 -38 -7 -54 -26 -70 -23 -20 -25 -29 -25 -105 0 -72 -3 -87
-22 -107 -19 -21 -22 -35 -24 -163 -3 -139 -3 -140 -31 -163 l-28 -24 0 -235
0 -235 -30 -35 c-27 -31 -30 -40 -25 -76 5 -35 2 -49 -19 -80 -15 -22 -26 -52
-26 -71 0 -30 -24 -66 -44 -66 -3 0 -22 -14 -41 -32 -23 -20 -35 -40 -35 -57
0 -28 -34 -84 -75 -125 -13 -13 -27 -37 -31 -52 -4 -15 -27 -46 -51 -69 l-43
-42 2 -1499 3 -1499 23 -3 c14 -2 37 -23 59 -53 24 -34 45 -52 64 -56 15 -3
36 -14 45 -24 12 -14 31 -19 64 -19 36 0 53 -6 74 -25 34 -31 59 -45 84 -45
10 0 28 -11 40 -25 19 -21 30 -25 81 -25 50 0 65 -4 92 -27 l33 -28 1632 0
1632 0 24 22 c21 20 38 23 158 29 121 6 138 9 160 29 20 19 42 24 115 30 67 5
95 12 110 26 15 13 43 20 105 25 62 5 91 12 106 25 13 13 48 23 105 30 54 7
91 18 104 29 13 11 45 20 88 25 50 5 75 13 96 31 20 16 41 24 68 24 26 0 47 7
62 21 27 25 111 59 146 59 15 0 32 11 46 29 12 17 36 35 52 42 17 7 39 21 49
31 10 10 31 18 47 18 18 0 34 8 43 21 12 19 27 22 134 29 91 6 131 13 161 28
22 12 64 24 94 28 32 4 60 14 69 25 8 10 43 25 78 34 71 18 209 85 244 119 13
12 50 40 83 62 77 50 229 202 279 279 21 33 47 69 57 80 9 11 30 43 45 70 91
167 109 206 120 265 7 36 23 103 36 150 21 79 23 104 23 340 0 303 -16 471
-51 548 -13 29 -24 58 -24 64 0 6 -11 25 -24 42 -12 17 -33 51 -45 76 -71 147
-180 281 -310 378 -79 60 -110 75 -203 106 -109 36 -110 37 -206 27 -78 -8
-110 -17 -168 -46 -90 -44 -164 -121 -164 -169 0 -17 -9 -49 -21 -70 -15 -28
-19 -51 -16 -80 5 -49 38 -141 60 -166 8 -10 18 -27 21 -38 4 -11 45 -59 91
-107 46 -47 87 -95 90 -105 3 -10 17 -25 30 -34 14 -9 34 -34 45 -55 11 -22
28 -46 39 -53 10 -7 22 -32 26 -56 4 -23 12 -48 19 -55 32 -31 36 -53 20 -108
-9 -30 -19 -85 -23 -124 -3 -38 -10 -77 -15 -85 -15 -24 -80 -105 -88 -108 -3
-2 -18 -26 -32 -55 -35 -73 -150 -177 -195 -177 -12 0 -44 -11 -71 -25 -88
-44 -140 -30 -140 38 0 23 -7 53 -16 65 -11 16 -17 56 -20 135 -4 85 -10 118
-23 137 -10 14 -21 35 -25 48 -4 12 -14 29 -23 37 -8 9 -19 33 -24 55 -5 21
-20 55 -34 76 -13 20 -37 62 -52 93 -15 31 -30 58 -33 61 -3 3 -17 21 -30 40
-14 19 -33 43 -42 52 -10 10 -19 28 -19 41 -1 12 -2 29 -3 38 -1 9 -16 33 -33
54 -18 21 -33 43 -33 49 0 6 -16 28 -35 50 -19 21 -35 48 -35 61 0 12 -9 30
-19 39 -11 10 -25 32 -32 49 -7 18 -21 41 -31 51 -10 11 -18 29 -18 41 0 11
-13 36 -28 55 -40 49 -78 119 -86 156 -4 18 -16 40 -27 50 -10 9 -19 22 -19
27 0 6 -11 24 -24 42 -13 17 -29 48 -34 69 -6 20 -27 55 -46 77 -20 21 -36 47
-36 56 0 9 -19 42 -43 72 -23 31 -64 100 -91 154 -27 53 -52 100 -57 103 -5 3
-9 18 -9 33 0 15 -8 36 -17 47 -26 29 -83 146 -83 169 0 11 -22 43 -49 71 -27
28 -52 62 -56 75 -4 13 -18 44 -30 69 -14 27 -26 73 -30 115 -4 39 -14 81 -22
95 -10 14 -18 55 -21 100 -3 52 -12 90 -28 122 -13 26 -24 65 -24 86 0 22 -11
59 -25 86 -24 46 -25 52 -25 260 0 209 1 214 25 261 l26 47 -3 413 -3 413 -24
26 c-13 13 -26 40 -30 58 -6 29 -11 33 -41 36 -21 2 -40 13 -52 28 -18 23 -25
24 -126 24 -96 0 -109 -2 -141 -24 -33 -23 -67 -30 -131 -27 -24 1 -23 2 13
39 45 46 55 87 32 135 -31 66 -106 93 -161 58z m-2623 -653 c18 -24 52 -63 75
-88 48 -50 69 -93 79 -162 11 -73 -7 -111 -73 -156 -31 -21 -78 -53 -104 -71
-67 -48 -74 -41 -80 76 -10 185 -4 408 11 426 24 30 57 20 92 -25z m3045 -104
c16 -24 16 -30 0 -98 -9 -41 -21 -110 -27 -155 -31 -271 -47 -344 -73 -349
-25 -5 -61 32 -117 123 -28 44 -61 95 -75 114 -21 29 -23 41 -18 90 9 89 11
94 76 141 34 25 69 52 78 60 61 58 115 100 126 100 8 0 21 -12 30 -26z m-789
-610 c17 -8 36 -14 41 -14 26 0 165 -105 197 -148 39 -53 85 -187 85 -248 0
-21 -7 -57 -15 -79 -8 -22 -14 -58 -15 -79 0 -50 -74 -171 -122 -202 -96 -61
-105 -64 -203 -64 -126 0 -246 38 -336 107 -60 45 -116 117 -123 158 -28 153
-28 148 -7 236 27 109 73 200 126 250 76 73 115 90 225 98 84 7 102 5 147 -15z
m-1427 -43 c87 -31 126 -65 184 -160 54 -91 76 -164 76 -261 0 -149 -62 -264
-193 -358 -120 -87 -366 -56 -525 65 -58 44 -141 253 -142 355 0 116 65 268
139 323 83 60 101 65 256 61 114 -2 152 -7 205 -25z"/>
<path d="M2926 6677 c-78 -88 -146 -214 -146 -272 0 -43 34 -147 63 -195 38
-63 128 -125 194 -135 27 -3 65 -11 85 -17 31 -9 51 -7 115 12 126 36 171 100
185 264 7 89 6 104 -14 160 -16 44 -38 77 -78 117 -48 49 -66 60 -135 82 -44
14 -112 28 -151 31 l-71 6 -47 -53z"/>
<path d="M1500 6691 c-14 -5 -48 -20 -76 -35 -29 -14 -59 -26 -67 -26 -36 0
-77 -115 -77 -216 0 -144 49 -256 140 -319 87 -60 268 -93 343 -61 42 17 118
102 151 168 22 45 26 65 26 145 0 82 -4 102 -32 169 -32 77 -56 105 -133 150
-37 21 -59 26 -147 29 -57 3 -114 1 -128 -4z"/>
</g>
</svg>
