<?xml version="1.0" standalone="no"?>
<!DOCTYPE svg PUBLIC "-//W3C//DTD SVG 20010904//EN"
 "http://www.w3.org/TR/2001/REC-SVG-20010904/DTD/svg10.dtd">
<svg version="1.0" xmlns="http://www.w3.org/2000/svg"
 width="704.000000pt" height="1280.000000pt" viewBox="0 0 704.000000 1280.000000"
 preserveAspectRatio="xMidYMid meet">
<metadata>
Created by potrace 1.16, written by Peter Selinger 2001-2019
</metadata>
<g transform="translate(0.000000,1280.000000) scale(0.100000,-0.100000)"
fill="#000000" stroke="none">
<path d="M4605 10559 c-438 -35 -786 -145 -1086 -344 -348 -231 -535 -558
-516 -900 32 -554 589 -1003 1392 -1122 170 -25 629 -25 800 0 638 95 1119
383 1318 790 75 155 101 292 86 457 -15 161 -56 276 -152 423 -309 475 -1062
759 -1842 696z m552 -174 c485 -64 901 -271 1117 -555 63 -82 92 -138 128
-242 29 -85 31 -104 32 -223 1 -111 -3 -140 -22 -199 -49 -146 -119 -255 -241
-376 -105 -104 -203 -172 -358 -249 -295 -147 -604 -211 -1013 -211 -277 0
-470 23 -673 81 -305 86 -524 205 -698 379 -110 110 -178 213 -223 338 -29 83
-31 94 -31 232 1 130 4 153 28 225 130 388 597 698 1192 790 242 37 523 41
762 10z"/>
<path d="M4222 10019 c-148 -25 -282 -154 -318 -308 -18 -73 -17 -192 0 -258
56 -211 301 -492 628 -721 18 -13 64 -45 102 -73 38 -27 76 -49 85 -49 18 0
127 69 246 156 175 127 373 314 463 437 120 163 161 296 141 446 -40 298 -327
460 -596 336 -73 -33 -164 -122 -205 -200 -18 -35 -36 -62 -39 -59 -4 2 -17
25 -29 50 -31 62 -121 157 -184 193 -94 54 -181 69 -294 50z m58 -157 c30 -38
25 -56 -32 -103 -72 -58 -109 -99 -142 -155 -1 -1 -11 -5 -23 -8 -33 -10 -63
28 -63 79 0 54 51 157 92 187 59 42 136 42 168 0z"/>
<path d="M3772 8310 c-43 -10 -100 -56 -124 -100 -28 -51 -21 -135 16 -189 88
-127 287 -96 331 51 40 137 -86 272 -223 238z m82 -84 c71 -30 89 -110 37
-168 -25 -28 -36 -33 -76 -33 -40 0 -51 5 -76 33 -48 54 -31 133 35 166 38 19
39 19 80 2z"/>
<path d="M3468 7973 c-54 -56 -56 -112 -7 -174 l28 -36 -27 -22 c-14 -11 -41
-24 -59 -27 -18 -3 -37 -12 -44 -20 -6 -8 -26 -14 -43 -14 -46 0 -92 -15 -117
-39 -13 -12 -31 -21 -41 -21 -10 0 -27 -9 -37 -19 -26 -26 -55 -41 -79 -41
-10 0 -27 -9 -37 -20 -10 -11 -33 -23 -52 -26 -30 -6 -38 -2 -63 25 l-29 31
-184 0 c-183 0 -184 0 -207 25 l-23 25 -470 0 -469 0 -20 25 c-15 19 -29 25
-58 25 -23 0 -43 6 -51 16 -8 9 -32 25 -55 35 -23 9 -45 22 -48 28 -4 6 -20
11 -35 11 -20 0 -38 12 -64 40 -20 23 -45 40 -57 40 -12 0 -24 9 -30 24 -5 13
-17 26 -27 29 -15 4 -333 2 -370 -2 -6 0 -22 -15 -34 -33 -22 -30 -23 -40 -23
-228 l-1 -196 -27 -33 c-36 -43 -38 -94 -4 -116 21 -14 24 -25 30 -113 9 -136
9 -230 0 -357 -7 -104 -9 -111 -36 -135 -24 -21 -28 -32 -28 -73 0 -38 -6 -56
-25 -79 -22 -26 -25 -39 -25 -108 0 -65 -3 -82 -19 -97 -16 -16 -20 -36 -23
-150 -3 -128 -4 -133 -30 -160 l-28 -29 0 -233 c0 -230 0 -232 -23 -254 -31
-29 -37 -48 -27 -90 6 -31 4 -39 -21 -67 -16 -17 -29 -34 -30 -38 -6 -50 -13
-70 -32 -85 -69 -56 -77 -66 -77 -94 0 -20 -13 -42 -40 -72 -23 -24 -49 -60
-59 -80 -11 -20 -29 -45 -41 -56 -12 -11 -33 -41 -46 -67 l-24 -47 0 -1425 0
-1425 29 -16 c16 -8 46 -35 66 -59 20 -24 50 -49 68 -55 17 -6 40 -20 52 -30
11 -10 42 -21 70 -24 37 -4 55 -12 72 -31 14 -16 32 -26 49 -26 15 0 38 -10
51 -22 16 -15 38 -22 74 -24 36 -2 58 -9 74 -24 21 -20 38 -22 291 -31 238 -9
2734 -5 2864 4 25 2 52 4 61 5 9 1 26 11 39 22 19 17 39 20 114 21 148 3 166
5 196 27 22 16 45 22 101 24 60 2 78 7 101 26 24 20 42 25 110 28 66 3 86 8
104 25 16 15 45 24 105 31 55 6 92 17 108 29 15 12 40 19 68 19 45 0 98 21
105 40 2 6 22 14 45 17 23 3 51 14 63 25 11 11 33 22 47 24 14 3 33 9 42 13 9
5 33 11 54 15 23 4 48 18 64 37 14 16 32 29 40 29 7 0 27 13 45 30 17 16 40
30 50 30 10 0 32 7 48 15 18 9 77 18 148 23 95 7 126 13 154 30 19 12 49 22
65 22 18 0 45 12 66 29 23 18 59 33 99 41 34 6 74 20 88 30 14 9 41 25 60 34
20 9 56 33 82 54 26 20 81 64 124 97 143 111 229 212 301 355 10 19 28 48 40
63 13 16 23 37 23 48 0 10 9 28 20 39 11 11 24 39 30 63 5 24 21 68 35 98 14
30 25 72 25 95 0 23 10 73 23 110 19 61 22 89 22 249 0 162 -2 185 -21 230
-13 29 -27 96 -35 160 -7 63 -20 122 -30 140 -9 16 -22 47 -28 67 -7 20 -18
42 -26 48 -8 7 -17 27 -21 44 -3 18 -19 48 -35 67 -16 19 -29 41 -29 50 0 10
-12 32 -27 50 -36 43 -161 165 -210 205 -137 112 -382 160 -533 106 -96 -35
-200 -128 -200 -180 0 -15 -9 -45 -20 -67 -21 -40 -27 -119 -11 -130 5 -3 15
-22 21 -43 23 -72 81 -152 164 -230 49 -45 60 -58 79 -88 25 -42 64 -96 83
-116 9 -9 22 -34 29 -56 8 -22 25 -56 39 -76 23 -35 24 -38 10 -94 -7 -31 -13
-79 -14 -105 0 -60 -16 -98 -67 -162 -22 -28 -49 -71 -60 -96 -21 -47 -109
-141 -153 -164 -14 -7 -41 -16 -60 -20 -19 -4 -50 -16 -68 -26 -37 -21 -73
-24 -103 -9 -14 8 -19 21 -19 49 0 21 -7 55 -15 74 -10 24 -15 69 -15 131 0
86 -2 97 -25 124 -14 17 -25 35 -25 42 0 7 -11 25 -25 42 -14 16 -25 42 -25
58 0 15 -7 33 -15 40 -23 19 -75 121 -75 146 0 13 -8 29 -18 36 -10 7 -28 30
-40 50 -13 20 -27 38 -33 40 -6 2 -15 25 -20 52 -6 31 -18 57 -34 72 -14 13
-25 29 -25 37 0 7 -16 28 -35 47 -19 19 -35 43 -35 55 0 12 -11 36 -25 55 -14
19 -25 39 -25 45 0 7 -11 24 -24 37 -13 14 -26 44 -30 67 -4 25 -13 44 -26 51
-11 6 -20 15 -20 21 0 5 -11 26 -24 47 -14 20 -28 51 -32 67 -4 17 -14 39 -24
50 -38 44 -90 131 -90 151 0 12 -11 33 -25 46 -14 14 -30 40 -37 59 -6 18 -33
60 -60 93 -26 33 -48 66 -48 73 0 18 -67 150 -79 158 -6 3 -16 25 -22 48 -6
23 -19 52 -30 65 -10 14 -19 30 -19 37 0 7 -9 24 -20 38 -11 14 -23 38 -26 54
-3 16 -28 55 -55 87 -27 32 -49 65 -49 74 0 9 -12 35 -25 57 -20 32 -25 53
-25 105 0 44 -6 78 -18 102 -11 20 -22 66 -25 102 -4 44 -15 81 -32 109 -14
26 -25 59 -25 81 0 20 -12 59 -26 87 l-27 50 8 217 c6 186 9 222 26 250 17 30
18 59 19 438 l1 406 -25 27 c-14 15 -28 41 -32 58 -5 26 -12 32 -41 38 -19 3
-42 14 -51 23 -14 14 -37 17 -122 17 -92 0 -109 -3 -135 -22 -19 -13 -53 -24
-89 -28 l-59 -6 36 33 c86 82 42 208 -72 208 -38 0 -52 -5 -73 -27z m-2547
-605 c13 -18 46 -59 75 -90 54 -60 94 -143 94 -199 0 -45 -26 -86 -73 -115
-23 -15 -54 -37 -68 -51 -14 -13 -42 -26 -61 -30 -46 -7 -50 6 -54 147 -1 58
-6 151 -10 207 l-7 102 31 30 c17 17 35 31 41 31 5 0 20 -15 32 -32z m2981
-123 c9 -19 7 -41 -7 -100 -10 -42 -19 -104 -20 -138 -1 -34 -6 -71 -12 -82
-6 -11 -13 -47 -17 -80 -12 -117 -23 -167 -36 -175 -20 -12 -69 19 -87 55 -8
17 -39 66 -68 111 -56 83 -59 94 -57 182 2 58 -4 50 115 145 151 120 168 127
189 82z m-2958 -560 c23 -16 51 -25 74 -25 80 0 142 -68 142 -156 0 -83 21
-87 60 -12 18 35 38 65 43 67 5 2 31 23 58 47 46 41 83 54 124 44 6 -1 49 -2
97 -2 93 0 222 -25 263 -52 14 -9 33 -16 44 -16 11 0 22 -9 26 -19 6 -18 7
-18 43 2 26 14 46 18 64 14 47 -12 58 -32 58 -108 0 -62 -2 -69 -20 -69 -11 0
-20 5 -20 10 0 7 -6 7 -18 1 -17 -9 -17 -13 -3 -75 12 -50 20 -66 34 -66 13 0
17 -9 17 -40 0 -29 -4 -40 -15 -40 -8 0 -15 -8 -15 -18 0 -41 -31 -131 -61
-177 -18 -28 -62 -74 -97 -104 -57 -48 -74 -56 -136 -68 -134 -26 -295 16
-402 104 -53 43 -103 140 -124 238 -7 33 -14 63 -17 67 -8 14 -88 -34 -108
-65 -23 -37 -89 -77 -126 -77 -14 0 -47 11 -75 24 -27 13 -69 26 -93 29 -81
10 -132 66 -139 154 -2 34 -11 66 -21 77 -11 12 -16 37 -16 76 0 70 21 105 81
135 22 11 49 33 59 50 51 76 148 98 219 50z m2192 -21 c27 -9 63 -27 81 -40
17 -13 34 -24 38 -24 3 0 19 -10 35 -22 80 -59 157 -229 147 -324 -15 -135
-29 -201 -47 -226 -11 -15 -20 -32 -20 -37 0 -25 -70 -87 -127 -113 -53 -24
-76 -28 -149 -28 -130 0 -234 35 -318 106 -36 31 -76 75 -90 98 -35 59 -61
188 -47 229 6 16 11 44 11 62 0 17 20 71 45 121 78 154 165 210 336 213 30 1
78 -6 105 -15z"/>
<path d="M914 6536 c-35 -55 8 -166 65 -166 45 0 65 31 57 87 -8 62 -34 97
-74 101 -24 2 -34 -3 -48 -22z"/>
<path d="M1488 6534 c24 -19 32 -33 32 -58 0 -49 -30 -71 -97 -71 -48 0 -58 4
-79 29 -14 15 -23 33 -21 40 6 16 35 8 58 -15 22 -22 57 -25 83 -6 45 33 -22
66 -108 53 l-44 -7 -27 -77 c-34 -94 -34 -173 -3 -282 19 -64 30 -83 72 -124
78 -76 140 -100 264 -104 97 -4 105 -2 143 22 45 30 93 91 120 154 20 47 27
162 9 162 -5 0 -10 -13 -10 -30 0 -21 -5 -30 -16 -30 -12 0 -15 11 -12 63 2
35 7 61 13 59 6 -2 10 -12 9 -23 -1 -26 20 -19 24 9 3 23 -58 165 -77 176 -7
5 -11 -6 -11 -33 0 -33 -4 -41 -19 -41 -15 0 -19 11 -25 62 -8 77 -30 98 -34
33 -6 -84 -89 -122 -151 -69 -33 28 -42 75 -21 115 10 18 7 19 -47 19 l-58 0
33 -26z"/>
<path d="M745 6495 c-28 -27 -30 -46 -14 -96 24 -71 77 -100 112 -61 33 36 12
148 -31 171 -30 16 -40 14 -67 -14z"/>
<path d="M2853 6542 c-32 -33 -71 -90 -94 -137 -38 -74 -40 -84 -35 -142 10
-112 63 -203 156 -268 24 -16 66 -29 135 -41 99 -17 101 -17 169 4 76 24 86
33 123 112 19 40 28 80 34 150 7 91 6 98 -22 165 -41 97 -96 146 -203 179 -45
14 -110 27 -145 30 l-64 4 -54 -56z"/>
</g>
</svg>
