<?xml version="1.0" standalone="no"?>
<!DOCTYPE svg PUBLIC "-//W3C//DTD SVG 20010904//EN"
 "http://www.w3.org/TR/2001/REC-SVG-20010904/DTD/svg10.dtd">
<svg version="1.0" xmlns="http://www.w3.org/2000/svg"
 width="704.000000pt" height="1280.000000pt" viewBox="0 0 704.000000 1280.000000"
 preserveAspectRatio="xMidYMid meet">
<metadata>
Created by potrace 1.16, written by Peter Selinger 2001-2019
</metadata>
<g transform="translate(0.000000,1280.000000) scale(0.100000,-0.100000)"
fill="#000000" stroke="none">
<path d="M4735 10563 c-643 -32 -1100 -200 -1426 -523 -212 -211 -301 -411
-301 -680 -1 -183 48 -339 155 -503 69 -104 116 -157 220 -245 358 -304 881
-457 1501 -439 388 11 686 77 981 217 309 146 518 335 644 583 74 145 95 250
88 425 -4 116 -10 152 -36 232 -84 262 -299 497 -621 678 -176 100 -492 198
-745 231 -95 13 -340 32 -375 29 -14 -1 -52 -3 -85 -5z m255 -163 c311 -22
549 -80 792 -194 154 -71 315 -184 419 -293 216 -226 291 -515 201 -776 -129
-374 -550 -661 -1123 -766 -333 -61 -749 -53 -1069 20 -225 51 -477 158 -627
265 -265 189 -413 441 -413 704 0 212 86 403 257 572 339 337 928 512 1563
468z"/>
<path d="M3765 8309 c-16 -4 -46 -22 -66 -38 -110 -91 -86 -251 46 -312 103
-48 217 8 255 123 27 85 -43 201 -137 227 -44 12 -57 13 -98 0z m121 -100 c31
-30 47 -79 35 -111 -14 -38 -68 -78 -105 -78 -59 0 -105 45 -106 103 0 49 13
73 53 98 39 24 90 19 123 -12z"/>
<path d="M3494 7990 c-12 -4 -31 -21 -44 -37 -42 -54 -12 -156 55 -183 20 -9
20 -9 -1 -9 -11 -1 -29 -10 -38 -20 -10 -10 -37 -24 -60 -30 -24 -6 -49 -17
-56 -26 -7 -9 -29 -15 -55 -15 -29 0 -54 -8 -79 -25 -20 -14 -46 -25 -56 -25
-19 0 -60 -36 -60 -52 0 -4 -12 -8 -26 -8 -26 0 -65 -16 -75 -32 -3 -5 -24
-12 -47 -15 -35 -5 -44 -2 -67 21 l-27 27 -178 2 c-173 2 -179 3 -204 26 l-25
24 -442 -2 c-266 0 -457 3 -479 9 -20 5 -45 19 -55 30 -12 13 -31 20 -55 20
-26 0 -43 7 -60 25 -13 14 -33 25 -45 25 -11 0 -28 9 -38 20 -10 12 -29 20
-47 20 -27 0 -70 32 -70 52 0 4 -10 10 -23 13 -13 4 -36 19 -51 36 l-28 29
-183 0 -184 0 -28 -36 -27 -36 3 -198 c2 -169 0 -199 -12 -207 -17 -9 -47 -61
-47 -81 0 -6 11 -21 24 -33 13 -12 26 -37 29 -57 9 -54 9 -300 1 -430 -6 -104
-9 -115 -31 -129 -19 -13 -23 -24 -23 -65 0 -52 -12 -85 -39 -105 -12 -9 -16
-30 -16 -91 0 -70 -3 -84 -22 -104 -22 -23 -23 -33 -23 -159 0 -134 0 -136
-25 -149 l-25 -13 0 -233 0 -232 -30 -29 c-26 -25 -30 -35 -30 -85 0 -46 -5
-62 -25 -86 -17 -20 -25 -42 -25 -66 0 -20 -4 -36 -9 -36 -20 0 -101 -83 -101
-103 0 -12 -6 -32 -13 -44 -29 -50 -114 -170 -139 -194 -63 -63 -58 52 -56
-1515 l3 -1427 37 -19 c21 -11 47 -35 58 -53 12 -20 36 -39 60 -49 21 -8 44
-25 50 -36 9 -16 21 -20 64 -20 43 0 57 -5 75 -24 12 -13 42 -29 66 -35 23 -6
45 -17 48 -24 3 -9 29 -16 68 -21 45 -4 70 -12 87 -29 l24 -22 1585 -3 1586
-3 37 26 c34 23 44 25 161 25 119 0 127 1 148 24 19 20 36 25 109 31 68 5 92
11 110 28 17 16 39 21 104 25 65 3 85 8 97 23 12 15 39 22 106 30 61 7 97 17
110 29 13 11 44 20 86 25 52 5 72 12 90 31 16 17 33 24 59 24 24 0 43 7 55 20
9 10 34 25 54 31 20 6 41 14 46 18 12 7 18 8 54 10 22 1 35 10 51 36 12 19 29
35 39 35 10 0 28 11 41 25 14 15 35 25 52 25 16 0 39 6 51 14 13 8 65 17 127
21 80 5 117 12 155 30 28 14 67 27 87 30 21 3 50 16 65 29 15 12 55 28 88 35
33 7 85 27 115 44 68 38 212 139 260 181 67 59 190 188 190 199 0 7 23 41 50
76 28 36 50 69 50 75 0 6 14 26 30 45 17 18 30 41 30 50 0 10 11 32 25 51 14
19 25 47 25 63 0 16 11 52 25 80 14 27 28 75 31 106 3 31 8 63 11 71 33 97 37
131 36 303 -2 157 -5 184 -22 220 -14 29 -24 79 -30 155 -8 91 -15 120 -36
155 -14 24 -25 51 -25 59 0 9 -7 21 -15 28 -8 7 -20 30 -25 51 -6 21 -21 51
-33 66 -13 15 -28 40 -34 55 -17 39 -37 62 -148 173 -56 55 -125 114 -155 132
-140 82 -360 112 -470 64 -82 -35 -173 -110 -191 -158 -5 -13 -9 -35 -9 -49 0
-13 -9 -40 -19 -60 -11 -20 -18 -45 -15 -57 10 -55 49 -155 70 -180 13 -16 24
-32 24 -37 0 -5 34 -44 76 -87 42 -43 87 -94 99 -113 12 -19 30 -41 39 -49 9
-7 16 -20 16 -27 0 -8 13 -25 29 -40 17 -15 32 -40 36 -62 3 -20 18 -54 32
-75 l26 -38 -16 -53 c-9 -29 -17 -80 -17 -113 0 -54 -4 -67 -41 -123 -23 -34
-48 -64 -55 -67 -8 -3 -19 -23 -26 -45 -22 -73 -148 -188 -207 -188 -14 0 -46
-12 -70 -26 -36 -20 -53 -24 -83 -19 -36 6 -57 32 -43 54 3 6 -4 36 -15 68
-15 42 -20 83 -20 155 0 85 -2 99 -19 107 -10 6 -23 24 -29 39 -6 16 -19 38
-30 48 -10 11 -22 37 -25 58 -3 21 -15 48 -25 60 -11 12 -22 28 -26 36 -4 8
-13 26 -21 40 -8 14 -15 35 -15 48 0 12 -4 22 -9 22 -5 0 -20 19 -34 43 -14
23 -35 50 -46 59 -15 13 -21 30 -21 58 0 31 -6 45 -29 66 -16 14 -32 37 -35
50 -4 13 -12 24 -19 24 -16 0 -47 51 -47 77 0 11 -9 28 -19 37 -11 10 -25 32
-32 49 -7 18 -21 38 -30 45 -10 6 -21 27 -24 45 -8 33 -20 59 -55 112 -11 17
-31 53 -44 80 -13 28 -31 57 -40 64 -9 7 -16 19 -16 26 0 8 -11 26 -24 42 -13
16 -27 45 -31 66 -4 20 -18 47 -31 60 -13 13 -31 41 -39 61 -9 20 -36 63 -60
95 -25 33 -45 64 -45 71 0 6 -11 28 -25 48 -14 20 -25 44 -25 52 0 9 -11 31
-25 50 -14 19 -25 46 -25 61 0 14 -7 32 -15 39 -9 7 -32 47 -52 89 -20 42 -54
100 -76 130 -71 96 -98 158 -107 249 -5 46 -15 93 -23 106 -9 13 -19 56 -23
97 -4 46 -16 90 -31 118 -12 24 -23 57 -23 73 0 15 -12 51 -26 78 l-26 49 6
222 c5 198 8 226 26 256 19 33 20 52 20 438 l0 403 -24 29 c-13 15 -27 42 -30
60 -6 25 -14 33 -39 38 -18 4 -39 14 -48 21 -11 10 -52 16 -124 19 l-109 5
-31 -29 c-23 -22 -40 -29 -75 -30 -25 0 -60 -2 -77 -4 -18 -2 -33 0 -33 5 0 4
10 8 23 8 35 0 88 60 94 107 5 36 1 44 -34 81 -41 44 -78 53 -129 32z m-2564
-637 c13 -20 48 -60 77 -90 53 -54 83 -121 83 -185 0 -44 -26 -97 -53 -107
-13 -5 -45 -28 -71 -50 -47 -40 -86 -58 -104 -47 -15 9 -24 81 -27 226 -2 74
-7 155 -10 180 -4 35 -1 52 15 78 27 44 58 42 90 -5z m2967 -104 c10 -21 10
-36 -3 -80 -8 -30 -19 -97 -24 -149 -4 -52 -10 -102 -13 -110 -3 -8 -11 -62
-18 -119 -13 -110 -27 -138 -59 -121 -24 13 -69 71 -109 140 -18 30 -42 68
-54 83 -18 24 -21 38 -18 100 1 39 8 78 14 85 6 8 38 34 72 59 33 25 74 60 90
77 66 69 101 79 122 35z m-727 -603 c142 -68 216 -150 247 -274 24 -92 26
-127 9 -185 -9 -30 -16 -72 -16 -93 0 -28 -12 -55 -46 -106 -76 -112 -128
-138 -273 -138 -76 0 -112 5 -171 25 -122 41 -215 118 -254 207 -24 56 -40
173 -28 205 6 15 13 48 15 72 8 68 64 169 129 232 50 49 65 58 115 67 32 7 67
14 78 16 47 11 142 -3 195 -28z m-1440 -23 c51 -14 83 -32 136 -80 12 -10 42
-57 67 -103 109 -208 75 -419 -91 -552 -32 -26 -70 -51 -83 -56 -78 -30 -275
-20 -328 16 -14 10 -43 26 -64 36 -90 42 -147 127 -188 285 -23 90 -23 111 -3
198 24 105 72 181 138 222 31 18 71 38 89 45 46 15 258 9 327 -11z"/>
<path d="M2844 6533 c-27 -32 -66 -85 -85 -118 -31 -55 -34 -67 -34 -140 1
-71 5 -88 35 -150 37 -74 103 -135 165 -154 151 -45 273 -34 336 29 82 85 106
269 50 392 -59 130 -149 184 -325 193 l-91 6 -51 -58z"/>
<path d="M1400 6528 c-36 -17 -72 -34 -80 -38 -44 -20 -78 -217 -52 -300 6
-19 13 -53 17 -75 5 -30 20 -52 64 -95 32 -31 73 -62 92 -69 19 -7 49 -19 67
-27 20 -9 67 -14 125 -14 82 0 97 3 129 25 40 27 101 105 123 159 10 22 15 68
15 126 0 79 -4 101 -30 164 -34 81 -74 121 -156 156 -36 16 -67 20 -147 19
-92 0 -108 -3 -167 -31z"/>
</g>
</svg>
