<?xml version="1.0" standalone="no"?>
<!DOCTYPE svg PUBLIC "-//W3C//DTD SVG 20010904//EN"
 "http://www.w3.org/TR/2001/REC-SVG-20010904/DTD/svg10.dtd">
<svg version="1.0" xmlns="http://www.w3.org/2000/svg"
 width="704.000000pt" height="1280.000000pt" viewBox="0 0 704.000000 1280.000000"
 preserveAspectRatio="xMidYMid meet">
<metadata>
Created by potrace 1.16, written by Peter Selinger 2001-2019
</metadata>
<g transform="translate(0.000000,1280.000000) scale(0.100000,-0.100000)"
fill="#000000" stroke="none">
<path d="M5355 9808 c-176 -33 -369 -97 -547 -181 -109 -51 -126 -67 -113
-108 8 -25 9 -25 175 26 63 19 189 51 280 70 366 76 370 77 370 116 0 14 -5
40 -11 58 -10 29 -14 31 -57 30 -26 -1 -69 -5 -97 -11z"/>
<path d="M6151 9396 c-45 -16 -58 -37 -45 -73 11 -34 48 -48 97 -39 68 13 86
57 42 101 -27 28 -43 29 -94 11z"/>
<path d="M692 7889 c-9 -4 -27 -20 -38 -36 -21 -28 -22 -36 -17 -219 l6 -190
-26 -26 c-44 -44 -45 -138 -2 -138 16 0 18 -31 18 -255 0 -316 0 -311 -33
-345 -25 -25 -30 -39 -30 -79 0 -37 -5 -52 -24 -70 -23 -21 -25 -30 -23 -109
1 -77 -1 -87 -21 -100 -21 -14 -22 -22 -22 -139 0 -128 -11 -174 -45 -186 -13
-6 -15 -39 -15 -241 l0 -234 -25 -30 c-19 -23 -25 -41 -25 -79 0 -40 -5 -56
-25 -77 -15 -16 -25 -39 -25 -57 0 -30 -8 -40 -79 -100 -18 -16 -31 -36 -31
-49 0 -24 -56 -120 -69 -120 -4 0 -13 -12 -20 -26 -6 -14 -29 -47 -50 -72 -78
-94 -71 52 -71 -1530 l0 -1419 21 -19 c12 -10 45 -43 74 -72 28 -28 59 -52 68
-52 9 0 28 -11 43 -25 20 -19 38 -25 70 -25 34 0 51 -7 77 -30 19 -17 45 -30
57 -30 13 0 33 -11 46 -25 19 -20 32 -25 74 -25 36 0 59 -6 80 -22 17 -12 49
-23 77 -25 94 -9 2632 -14 2889 -6 239 7 264 10 283 27 18 17 44 21 158 28
117 7 139 11 155 28 16 17 32 20 93 20 64 0 77 3 103 25 22 18 42 25 73 26 71
1 136 14 154 32 20 20 6 17 96 26 50 5 86 15 105 29 16 11 53 23 83 26 34 3
67 15 91 31 20 14 47 25 61 25 14 0 40 11 59 25 19 14 42 25 51 25 10 0 20 4
23 9 4 5 25 12 49 16 27 5 55 20 80 41 20 19 41 34 46 34 4 0 20 11 35 25 16
14 39 25 55 25 16 0 34 6 40 14 8 9 47 16 119 21 141 9 160 12 190 35 14 11
40 20 60 20 24 0 44 9 67 29 20 18 50 32 77 36 85 13 212 87 388 227 121 96
254 258 291 355 6 15 18 37 28 48 10 11 24 37 31 57 6 21 17 41 24 45 8 5 21
35 31 68 9 33 25 79 36 102 10 23 19 55 19 71 0 15 10 64 22 108 20 68 23 103
23 259 0 161 -2 186 -22 235 -12 31 -26 98 -31 155 -10 100 -13 107 -83 247
-16 31 -29 62 -29 68 0 6 -11 26 -24 43 -13 18 -31 48 -39 68 -17 41 -169 199
-242 251 -159 113 -374 158 -512 106 -32 -12 -67 -29 -78 -38 -11 -9 -36 -27
-56 -40 -44 -28 -79 -78 -79 -111 0 -13 -9 -44 -20 -68 -11 -24 -20 -51 -20
-62 0 -23 50 -160 65 -179 7 -8 20 -28 28 -45 13 -25 58 -74 137 -150 10 -10
35 -44 87 -120 15 -22 37 -50 50 -63 13 -13 23 -34 23 -47 0 -13 12 -37 26
-54 22 -26 25 -38 21 -74 -29 -233 -24 -218 -101 -326 -25 -36 -46 -72 -46
-81 0 -14 -35 -52 -115 -127 -28 -25 -154 -78 -218 -90 -38 -7 -68 21 -66 61
1 17 -6 48 -15 68 -10 23 -17 73 -19 135 -2 86 -6 102 -25 121 -12 12 -22 28
-22 35 0 7 -11 28 -25 47 -14 19 -25 47 -25 65 0 19 -8 39 -20 50 -28 25 -70
100 -70 124 0 12 -25 53 -55 93 -36 47 -55 81 -55 99 0 37 -9 59 -25 59 -8 0
-17 9 -20 21 -4 12 -22 38 -40 58 -18 20 -38 53 -44 73 -7 20 -19 42 -27 48
-7 7 -14 18 -14 24 0 6 -14 31 -30 56 -16 25 -30 55 -30 67 0 13 -11 35 -25
50 -36 40 -85 116 -85 132 0 8 -23 50 -51 95 -28 44 -57 97 -65 118 -7 20 -22
46 -33 57 -12 12 -21 29 -21 40 0 10 -25 49 -55 87 -30 38 -55 76 -55 84 0 19
-65 147 -85 167 -8 8 -15 27 -15 42 0 16 -7 34 -15 41 -15 12 -67 115 -79 156
-4 12 -29 47 -56 78 -28 32 -50 64 -50 72 0 8 -11 36 -25 62 -18 34 -25 62
-25 105 0 38 -7 71 -20 97 -12 24 -20 59 -20 92 -1 38 -9 70 -30 113 -17 33
-30 74 -30 91 0 17 -12 57 -26 88 l-25 56 6 217 c5 195 8 221 26 245 18 26 19
46 20 434 1 402 1 406 -21 428 -11 13 -24 36 -29 51 -5 21 -22 36 -67 60 -54
28 -68 31 -159 33 -94 1 -102 0 -129 -23 -31 -27 -41 -28 -154 -25 -64 2 -75
-1 -103 -24 -17 -14 -39 -26 -48 -26 -10 0 -35 -11 -55 -25 -22 -15 -51 -25
-73 -25 -19 0 -50 -8 -67 -19 -17 -10 -48 -24 -68 -30 -20 -7 -44 -23 -52 -37
-11 -16 -26 -24 -44 -24 -16 0 -43 -11 -62 -25 -46 -34 -80 -32 -113 5 l-27
30 -180 0 c-180 0 -180 0 -202 25 l-22 25 -471 0 -472 0 -23 25 c-14 15 -35
25 -51 25 -31 0 -135 52 -162 81 -10 11 -31 19 -48 19 -23 0 -34 7 -47 30 -9
16 -25 30 -35 30 -27 0 -57 19 -57 35 0 7 -6 17 -12 22 -15 9 -361 11 -386 2z
m247 -541 c16 -24 46 -59 66 -78 54 -52 94 -158 80 -219 -8 -36 -41 -81 -60
-81 -8 0 -37 -20 -65 -45 -50 -44 -100 -60 -115 -35 -6 9 -18 252 -19 391 -1
53 3 71 18 88 31 34 61 27 95 -21z m2955 -90 c20 -28 20 -59 1 -122 -8 -27
-15 -73 -15 -102 0 -30 -6 -71 -14 -91 -8 -21 -17 -65 -20 -98 -9 -89 -21
-159 -29 -172 -15 -24 -65 6 -93 55 -15 26 -36 58 -46 72 -70 92 -78 112 -78
197 0 74 2 83 21 94 32 17 142 107 152 124 4 8 13 15 19 15 5 0 23 11 40 25
36 31 43 31 62 3z m-2985 -572 c14 -8 41 -11 65 -9 85 10 164 -54 168 -135 1
-30 8 -48 28 -67 30 -29 35 -26 65 38 10 21 27 43 39 48 11 6 37 29 57 50 l37
39 143 -4 c147 -4 269 -25 300 -52 8 -8 26 -14 38 -14 14 0 25 -7 28 -19 4
-18 6 -18 42 2 24 13 45 18 61 14 49 -13 55 -23 60 -102 5 -73 4 -75 -17 -75
-13 0 -23 5 -23 10 0 7 -6 7 -18 1 -17 -9 -17 -13 -3 -75 12 -50 20 -66 34
-66 13 0 17 -9 17 -39 0 -31 -4 -40 -21 -44 -12 -3 -19 -9 -16 -14 3 -4 1 -33
-5 -63 -16 -91 -105 -203 -214 -272 -30 -19 -157 -30 -223 -18 -133 23 -272
104 -306 178 -9 20 -25 53 -35 73 -10 19 -26 70 -35 112 -17 76 -17 77 -41 64
-13 -7 -34 -33 -46 -57 -31 -60 -93 -94 -158 -86 -24 4 -49 11 -54 16 -6 6
-37 10 -71 10 -95 0 -165 58 -165 137 0 19 -10 43 -26 62 -60 71 -43 184 34
228 15 9 36 34 47 57 28 57 75 86 139 86 28 -1 62 -7 75 -14z m2213 -22 c78
-20 179 -89 234 -159 68 -89 101 -227 75 -315 -6 -19 -11 -55 -11 -79 0 -46
-27 -99 -85 -169 -79 -94 -248 -119 -419 -62 -50 17 -92 34 -95 38 -4 4 -27
24 -53 45 -104 83 -149 204 -128 342 13 85 78 221 131 276 85 87 217 118 351
83z"/>
<path d="M914 6536 c-35 -55 8 -166 65 -166 45 0 65 31 57 87 -8 62 -34 97
-74 101 -24 2 -34 -3 -48 -22z"/>
<path d="M1488 6534 c24 -19 32 -33 32 -58 0 -49 -30 -71 -97 -71 -48 0 -58 4
-79 29 -14 15 -23 33 -21 40 6 16 35 8 58 -15 21 -21 50 -24 80 -9 48 26 5 60
-76 60 -54 0 -75 -18 -105 -94 -20 -51 -22 -69 -17 -155 7 -128 32 -191 100
-253 71 -65 139 -91 254 -96 72 -3 99 0 128 14 44 21 122 114 141 169 16 46
19 155 4 155 -5 0 -10 -13 -10 -30 0 -20 -5 -30 -15 -30 -12 0 -14 12 -12 60
1 37 6 60 14 60 6 0 9 -9 6 -21 -4 -16 -2 -20 8 -17 22 8 14 61 -19 133 -34
72 -52 83 -52 30 0 -27 -4 -35 -19 -35 -15 0 -19 10 -24 57 -3 31 -13 63 -21
72 -15 14 -16 11 -16 -31 0 -39 -5 -50 -31 -72 -17 -15 -43 -26 -59 -26 -44 0
-90 44 -90 87 0 19 5 43 10 54 10 18 7 19 -47 19 l-58 0 33 -26z"/>
<path d="M745 6495 c-27 -26 -30 -43 -15 -94 20 -70 78 -102 113 -63 36 39 10
154 -38 172 -35 13 -32 14 -60 -15z"/>
<path d="M2854 6542 c-33 -35 -71 -89 -95 -140 -39 -78 -41 -85 -34 -145 13
-118 69 -209 160 -262 22 -13 82 -32 133 -41 88 -17 96 -17 142 -1 26 9 55 17
63 17 24 0 82 79 100 135 9 28 17 91 19 140 2 84 0 95 -31 158 -25 52 -45 77
-84 106 -58 43 -157 76 -255 85 l-64 6 -54 -58z"/>
</g>
</svg>
