<?xml version="1.0" standalone="no"?>
<!DOCTYPE svg PUBLIC "-//W3C//DTD SVG 20010904//EN"
 "http://www.w3.org/TR/2001/REC-SVG-20010904/DTD/svg10.dtd">
<svg version="1.0" xmlns="http://www.w3.org/2000/svg"
 width="704.000000pt" height="1280.000000pt" viewBox="0 0 704.000000 1280.000000"
 preserveAspectRatio="xMidYMid meet">
<metadata>
Created by potrace 1.16, written by Peter Selinger 2001-2019
</metadata>
<g transform="translate(0.000000,1280.000000) scale(0.100000,-0.100000)"
fill="#000000" stroke="none">
<path d="M4700 9560 c-73 -23 -176 -72 -237 -112 -37 -25 -84 -53 -103 -63
-19 -10 -51 -32 -71 -49 -20 -17 -61 -51 -92 -76 -66 -53 -72 -65 -52 -96 21
-33 37 -30 103 14 31 21 82 50 112 65 30 14 71 34 90 45 50 28 156 77 218 101
47 19 131 58 140 66 9 8 -12 76 -29 94 -21 22 -38 24 -79 11z"/>
<path d="M5915 9290 c-88 -16 -177 -33 -197 -40 -34 -10 -38 -14 -38 -46 0
-26 5 -37 23 -45 27 -12 446 14 495 31 27 10 32 17 32 45 0 25 -8 40 -31 59
-40 34 -76 33 -284 -4z"/>
<path d="M692 7889 c-9 -4 -27 -20 -38 -36 -21 -28 -22 -36 -16 -221 l5 -191
-32 -28 c-42 -37 -44 -97 -5 -128 l26 -21 1 -195 c0 -362 1 -354 -33 -389 -25
-25 -30 -39 -30 -79 0 -37 -5 -52 -24 -70 -23 -22 -25 -30 -23 -108 2 -79 0
-86 -23 -105 -24 -19 -25 -23 -23 -141 2 -124 -8 -168 -42 -180 -13 -6 -15
-38 -15 -232 0 -232 -4 -261 -43 -293 -10 -8 -13 -26 -10 -60 4 -39 1 -52 -20
-76 -14 -16 -28 -46 -31 -67 -4 -28 -15 -44 -39 -60 -42 -29 -67 -59 -67 -83
0 -24 -56 -112 -75 -120 -8 -3 -15 -12 -15 -20 0 -9 -20 -40 -44 -69 -84 -103
-76 53 -76 -1532 l0 -1415 75 -75 c41 -41 81 -75 89 -75 8 0 27 -11 42 -25 21
-19 38 -25 74 -25 38 0 51 -5 75 -30 17 -17 39 -30 53 -30 14 0 35 -11 48 -25
19 -20 32 -25 74 -25 36 0 59 -6 80 -22 17 -12 49 -23 77 -25 94 -9 2623 -13
2883 -6 248 8 267 10 295 30 26 18 48 22 160 27 109 4 132 8 143 23 10 14 32
19 97 24 66 4 92 10 115 27 21 16 43 22 82 22 58 0 128 16 128 29 0 15 31 23
113 31 57 5 81 12 91 25 9 13 34 21 80 26 50 6 75 15 97 34 17 14 43 25 59 25
16 0 42 11 59 26 17 14 31 23 31 20 0 -3 23 3 50 14 28 11 62 20 75 20 15 0
31 11 45 30 12 17 27 30 34 30 7 0 28 14 46 30 18 17 43 30 55 30 11 0 29 6
40 14 12 8 64 17 130 21 137 9 134 9 176 34 19 12 51 21 71 21 27 0 44 7 61
26 17 18 45 31 87 41 83 19 225 100 298 170 7 7 18 13 23 13 30 0 213 178 263
255 80 123 96 149 96 158 0 5 11 22 25 39 14 16 25 37 25 46 0 8 8 25 19 36
10 12 26 48 36 81 9 33 25 75 35 95 9 19 20 62 24 95 4 33 16 94 27 135 19 67
21 94 17 245 -4 140 -9 176 -24 205 -11 21 -23 77 -30 143 -12 108 -17 125
-85 259 -16 31 -29 63 -29 71 0 8 -6 20 -14 26 -8 7 -25 36 -39 65 -46 97
-250 284 -362 333 -147 63 -309 81 -394 43 -24 -11 -48 -20 -53 -20 -12 0 -54
-32 -118 -88 -43 -38 -49 -49 -55 -95 -4 -29 -13 -62 -21 -74 -19 -31 -17 -70
6 -122 11 -24 20 -48 20 -53 0 -26 79 -133 146 -197 41 -40 74 -78 74 -86 0
-7 16 -28 35 -46 19 -19 35 -38 35 -45 0 -6 9 -19 21 -30 26 -23 49 -67 49
-92 0 -11 9 -31 21 -46 17 -21 20 -35 15 -69 -3 -23 -10 -79 -14 -124 -9 -86
-15 -99 -99 -212 -18 -24 -33 -51 -33 -60 0 -16 -43 -63 -119 -131 -19 -16
-52 -35 -75 -40 -23 -6 -60 -19 -84 -30 -23 -11 -53 -20 -66 -20 -31 0 -57 31
-55 66 1 16 -5 47 -14 69 -11 25 -18 77 -20 139 -2 77 -6 100 -19 107 -9 5
-19 21 -23 36 -3 15 -17 40 -31 56 -15 17 -24 41 -24 61 0 20 -8 40 -20 51
-31 28 -70 101 -70 130 0 14 -7 28 -15 32 -9 3 -22 17 -29 32 -8 14 -26 39
-40 54 -19 20 -26 39 -26 67 0 31 -5 43 -25 56 -13 9 -27 25 -30 36 -4 10 -19
34 -34 51 -16 18 -34 49 -40 69 -7 20 -19 42 -27 48 -7 7 -14 18 -14 24 0 6
-14 31 -30 56 -16 25 -30 57 -30 71 0 14 -9 34 -21 45 -30 27 -78 101 -85 132
-4 15 -29 60 -57 101 -27 41 -55 91 -62 112 -8 21 -23 47 -34 58 -12 12 -21
29 -21 38 0 9 -25 49 -55 88 -30 40 -55 78 -55 86 0 18 -53 122 -79 155 -12
15 -21 39 -21 54 0 15 -7 33 -15 40 -8 7 -29 42 -46 79 -52 114 -60 128 -99
168 -20 21 -40 52 -44 68 -4 16 -15 40 -25 54 -12 17 -20 51 -23 101 -3 41
-12 89 -21 107 -10 18 -17 56 -17 85 -1 38 -9 70 -30 113 -17 33 -30 74 -30
91 0 17 -12 57 -26 88 l-26 57 7 219 c7 195 10 221 27 239 17 19 18 44 19 432
l1 411 -26 27 c-14 15 -26 36 -26 47 0 29 -14 44 -45 50 -15 3 -39 13 -51 23
-19 15 -42 19 -121 19 -90 1 -101 -1 -136 -25 -34 -24 -45 -26 -131 -24 -87 1
-96 -1 -124 -24 -16 -14 -36 -25 -44 -25 -8 0 -36 -11 -62 -25 -27 -14 -64
-25 -85 -25 -22 0 -48 -8 -62 -19 -13 -10 -41 -24 -62 -32 -20 -7 -44 -23 -52
-36 -10 -15 -25 -23 -44 -23 -17 0 -42 -11 -59 -25 -40 -34 -77 -32 -112 5
l-28 30 -180 0 c-177 0 -179 0 -206 25 l-27 25 -466 0 -465 0 -30 25 c-16 14
-40 25 -53 25 -28 0 -133 54 -158 81 -10 11 -31 19 -48 19 -23 0 -34 7 -47 30
-12 20 -26 30 -47 32 -21 2 -34 11 -43 31 -12 25 -17 27 -85 29 -148 5 -298 3
-315 -3z m239 -531 c12 -18 44 -55 70 -83 48 -51 89 -144 89 -204 0 -37 -35
-90 -67 -102 -15 -5 -46 -28 -70 -49 -42 -40 -93 -54 -108 -30 -6 9 -18 252
-19 391 -1 53 3 71 18 88 28 31 61 27 87 -11z m2974 -128 c3 -15 -1 -53 -10
-84 -9 -31 -18 -84 -20 -118 -3 -33 -9 -75 -14 -92 -5 -17 -15 -80 -22 -139
-7 -60 -18 -115 -24 -123 -20 -27 -59 9 -142 134 l-82 123 6 72 c4 50 10 76
22 84 9 7 25 21 36 31 11 9 39 30 63 47 24 16 49 36 55 45 7 9 32 28 57 43 49
29 65 25 75 -23z m-3012 -542 c12 -7 49 -11 82 -10 46 2 68 -2 93 -18 41 -25
72 -76 72 -117 0 -21 10 -42 29 -64 l29 -31 14 23 c7 13 21 38 30 54 9 17 26
35 38 41 12 6 36 28 55 48 l33 36 149 -4 c148 -5 245 -22 290 -52 12 -7 32
-14 44 -14 12 0 23 -8 26 -19 4 -18 6 -18 42 2 24 13 45 18 61 14 49 -13 55
-23 60 -102 5 -73 4 -75 -17 -75 -13 0 -23 5 -23 10 0 7 -6 7 -18 1 -17 -9
-17 -13 -3 -75 12 -50 20 -66 34 -66 13 0 17 -9 17 -39 0 -31 -4 -40 -21 -44
-12 -3 -19 -9 -16 -14 3 -4 1 -33 -5 -63 -13 -71 -80 -171 -150 -226 -71 -54
-66 -52 -145 -64 -91 -14 -216 6 -299 48 -59 30 -154 112 -154 133 0 6 -11 33
-24 59 -13 26 -32 82 -41 123 -16 73 -18 75 -39 65 -13 -5 -31 -27 -40 -49
-21 -46 -55 -75 -109 -91 -33 -10 -47 -9 -86 5 -29 10 -61 14 -86 10 -80 -10
-159 51 -172 134 -3 21 -16 51 -29 66 -62 74 -44 191 35 231 17 9 31 26 35 43
17 79 137 131 209 91z m2230 -23 c82 -21 193 -99 240 -168 51 -74 81 -173 74
-246 -15 -145 -25 -198 -48 -234 -47 -76 -84 -110 -146 -139 -54 -24 -75 -28
-153 -28 -54 0 -104 6 -127 14 -21 8 -57 20 -80 26 -50 13 -151 94 -193 156
-33 47 -67 180 -56 217 4 12 9 42 12 67 3 25 10 49 15 55 5 5 9 16 9 25 0 29
88 165 126 194 86 68 212 91 327 61z"/>
<path d="M914 6536 c-35 -55 8 -166 65 -166 45 0 65 31 57 87 -8 62 -34 97
-74 101 -24 2 -34 -3 -48 -22z"/>
<path d="M1488 6534 c24 -19 32 -33 32 -58 0 -49 -30 -71 -97 -71 -48 0 -58 4
-79 29 -14 15 -23 33 -21 40 6 16 35 8 58 -15 30 -30 99 -19 99 17 0 31 -118
48 -154 21 -26 -19 -76 -151 -76 -200 0 -50 29 -167 55 -220 24 -50 116 -122
189 -147 76 -26 202 -27 253 -3 42 20 120 114 139 168 16 46 19 155 4 155 -5
0 -10 -13 -10 -30 0 -20 -5 -30 -15 -30 -12 0 -14 12 -12 60 1 37 6 60 14 60
6 0 9 -9 6 -20 -6 -23 15 -28 23 -5 10 25 -57 195 -77 195 -5 0 -9 -18 -9 -40
0 -32 -4 -40 -19 -40 -15 0 -19 10 -24 57 -3 31 -13 63 -21 72 -15 14 -16 11
-16 -31 0 -39 -5 -50 -31 -72 -17 -15 -43 -26 -59 -26 -44 0 -90 44 -90 87 0
19 5 43 10 54 10 18 7 19 -47 19 l-58 0 33 -26z"/>
<path d="M745 6495 c-27 -26 -30 -43 -15 -94 20 -70 78 -102 113 -63 36 39 10
154 -38 172 -35 13 -32 14 -60 -15z"/>
<path d="M2852 6541 c-29 -31 -71 -92 -93 -136 -39 -77 -40 -83 -34 -145 10
-98 38 -156 106 -221 62 -59 108 -78 235 -94 68 -9 179 25 212 66 39 48 60
126 63 229 3 91 1 98 -32 165 -25 52 -46 79 -82 106 -57 42 -165 77 -257 82
l-65 4 -53 -56z"/>
</g>
</svg>
