<?xml version="1.0" standalone="no"?>
<!DOCTYPE svg PUBLIC "-//W3C//DTD SVG 20010904//EN"
 "http://www.w3.org/TR/2001/REC-SVG-20010904/DTD/svg10.dtd">
<svg version="1.0" xmlns="http://www.w3.org/2000/svg"
 width="704.000000pt" height="1280.000000pt" viewBox="0 0 704.000000 1280.000000"
 preserveAspectRatio="xMidYMid meet">
<metadata>
Created by potrace 1.16, written by Peter Selinger 2001-2019
</metadata>
<g transform="translate(0.000000,1280.000000) scale(0.100000,-0.100000)"
fill="#000000" stroke="none">
<path d="M705 7892 c-11 -2 -31 -16 -45 -31 l-26 -28 4 -194 4 -194 -31 -29
c-41 -39 -44 -100 -6 -131 24 -19 25 -25 30 -180 2 -88 2 -213 -2 -279 -6
-114 -7 -120 -35 -144 -24 -21 -28 -33 -28 -75 0 -37 -6 -56 -24 -78 -21 -25
-24 -38 -24 -113 1 -76 -1 -87 -21 -103 -21 -17 -22 -26 -22 -130 1 -119 -8
-158 -39 -180 -19 -13 -20 -27 -20 -248 l0 -234 -30 -33 c-27 -29 -30 -38 -24
-75 5 -36 2 -47 -18 -72 -14 -16 -28 -47 -31 -69 -5 -30 -16 -46 -44 -68 -48
-36 -62 -54 -63 -80 0 -22 -53 -101 -82 -122 -10 -7 -18 -20 -18 -29 0 -9 -15
-34 -34 -57 -18 -23 -43 -59 -55 -81 l-21 -40 0 -1422 0 -1423 41 -26 c22 -14
48 -38 57 -54 16 -28 49 -50 76 -50 7 0 22 -11 34 -25 17 -19 31 -25 65 -25
33 0 51 -7 77 -30 19 -16 47 -29 61 -30 14 0 35 -11 47 -25 18 -21 31 -25 73
-25 39 0 58 -6 79 -23 26 -23 37 -24 236 -31 246 -8 2656 -5 2856 3 125 5 139
8 158 29 19 21 29 22 148 22 121 0 130 1 162 25 28 21 45 25 101 25 56 0 72 4
96 23 22 19 44 25 110 30 61 5 90 12 110 27 18 13 56 23 108 30 49 6 90 17
106 29 14 10 52 22 85 26 36 4 67 14 79 25 11 10 38 22 60 25 22 4 49 15 60
24 11 10 59 30 107 45 62 20 91 34 103 52 8 13 22 24 30 24 8 0 29 13 47 30
17 17 39 30 50 30 10 0 29 7 41 14 14 10 64 17 142 22 100 5 127 10 162 30 23
13 57 24 76 24 24 0 43 9 64 29 20 18 46 31 74 36 153 24 510 293 604 455 17
28 42 70 57 93 15 23 28 46 28 51 0 4 11 21 25 38 14 16 25 38 25 48 0 11 9
27 19 37 10 10 27 50 36 88 10 39 24 77 31 86 8 8 17 38 20 65 4 27 18 94 31
149 23 92 25 113 20 260 -4 126 -9 171 -25 210 -10 28 -25 99 -32 160 -7 61
-18 114 -25 120 -7 5 -20 34 -30 62 -9 29 -20 55 -25 58 -5 3 -16 27 -25 54
-9 27 -23 55 -31 62 -8 6 -23 31 -34 55 -10 24 -23 44 -29 44 -5 0 -12 8 -16
19 -10 31 -211 204 -282 242 -85 45 -173 69 -284 76 -102 7 -168 -13 -252 -76
-75 -56 -97 -83 -108 -133 -5 -23 -17 -60 -26 -81 -13 -31 -14 -45 -5 -80 29
-117 62 -173 166 -284 44 -46 86 -97 94 -113 8 -17 18 -30 23 -30 5 0 21 -19
35 -42 15 -24 33 -47 40 -51 7 -4 19 -27 25 -50 6 -23 20 -54 31 -70 15 -22
19 -37 14 -70 -3 -23 -10 -79 -15 -125 -10 -86 -17 -101 -82 -187 -20 -27 -40
-61 -44 -75 -12 -51 -138 -164 -200 -181 -22 -6 -58 -19 -80 -30 -75 -36 -125
-18 -125 45 0 19 -7 53 -15 77 -9 24 -17 83 -19 131 -2 74 -6 92 -24 111 -12
13 -22 30 -22 38 0 8 -11 30 -25 49 -14 19 -25 43 -25 55 0 12 -18 49 -41 84
-22 34 -43 78 -46 97 -3 19 -13 40 -23 47 -9 7 -24 26 -32 42 -9 17 -25 39
-37 49 -14 12 -21 31 -21 54 0 24 -9 45 -30 69 -16 18 -30 39 -30 46 0 7 -13
23 -29 35 -18 13 -31 34 -35 55 -4 19 -15 42 -26 52 -11 10 -20 23 -20 30 0 6
-13 29 -30 51 -16 21 -30 48 -30 59 0 11 -25 58 -55 105 -30 47 -55 90 -55 98
0 7 -25 49 -55 95 -30 45 -55 90 -55 101 0 10 -13 34 -30 53 -16 18 -30 43
-30 54 0 11 -25 51 -55 89 -30 38 -55 77 -55 88 0 10 -11 33 -25 52 -14 19
-25 41 -25 50 0 10 -11 29 -25 44 -14 15 -25 37 -25 50 0 12 -11 37 -25 56
-14 19 -25 39 -25 46 0 6 -9 23 -21 38 -19 24 -26 42 -28 72 -1 6 -24 37 -51
68 -28 31 -50 65 -50 74 0 9 -11 35 -25 57 -18 30 -24 54 -25 98 0 32 -7 74
-17 95 -9 20 -19 71 -23 113 -4 55 -12 84 -29 108 -13 17 -25 51 -28 74 -3 23
-16 65 -30 94 -25 52 -25 53 -19 275 6 202 8 226 26 250 20 27 20 43 21 434
l0 406 -26 37 c-14 21 -25 45 -25 54 0 18 -29 37 -58 37 -10 0 -26 8 -35 18
-13 15 -35 18 -123 20 -99 1 -108 0 -138 -23 -30 -23 -42 -25 -133 -25 -90 0
-102 -2 -133 -25 -19 -14 -41 -25 -49 -25 -8 0 -31 -11 -51 -25 -23 -16 -52
-26 -78 -27 -27 -1 -54 -10 -74 -25 -18 -12 -42 -23 -54 -23 -14 0 -31 -12
-44 -30 -15 -21 -30 -30 -49 -30 -15 0 -42 -11 -61 -25 -44 -33 -72 -32 -113
5 l-35 30 -175 0 c-174 0 -176 0 -203 25 l-27 25 -472 0 -473 0 -16 25 c-11
17 -26 25 -45 25 -29 0 -131 48 -162 76 -8 8 -26 14 -39 14 -14 0 -37 15 -60
40 -20 22 -45 40 -56 40 -10 0 -27 11 -39 24 -19 23 -25 24 -190 28 -93 3
-179 3 -190 0z m244 -555 c16 -23 43 -55 61 -72 37 -35 66 -94 75 -157 9 -58
-14 -113 -56 -136 -17 -9 -52 -34 -76 -54 -50 -43 -98 -51 -108 -19 -3 10 -7
86 -10 167 -2 82 -7 168 -10 190 -13 77 33 157 76 133 10 -5 31 -28 48 -52z
m2950 -89 c13 -23 12 -36 -7 -116 -13 -54 -19 -103 -16 -122 4 -18 0 -48 -9
-73 -14 -40 -19 -66 -35 -212 -9 -76 -28 -82 -80 -28 -46 48 -153 217 -153
240 0 10 0 46 1 80 l0 62 78 55 c42 30 88 66 102 81 30 33 81 66 95 62 6 -2
16 -15 24 -29z m-770 -584 c80 -22 187 -98 233 -164 21 -30 38 -60 38 -66 0
-6 7 -24 15 -41 29 -57 36 -131 20 -186 -8 -28 -15 -68 -15 -90 0 -43 -52
-147 -93 -185 -13 -12 -51 -35 -85 -52 -55 -27 -73 -30 -153 -30 -153 0 -294
64 -384 174 -49 61 -85 199 -65 250 5 15 10 45 10 66 0 21 4 41 9 44 5 3 12
18 16 33 13 57 83 158 135 197 84 64 204 83 319 50z m-1402 -37 c91 -26 148
-72 195 -158 13 -23 29 -52 35 -64 7 -12 20 -55 29 -96 16 -76 13 -154 -8
-234 -22 -85 -109 -182 -212 -236 -110 -59 -364 -7 -469 96 -51 50 -112 182
-128 275 -10 64 -9 87 4 151 9 44 27 93 42 114 14 21 25 44 25 51 0 18 105 88
159 106 56 19 254 16 328 -5z"/>
<path d="M2854 6543 c-33 -36 -70 -90 -96 -141 -38 -79 -40 -87 -33 -145 19
-171 110 -266 289 -301 l97 -20 68 22 c40 13 77 33 93 49 43 47 67 130 69 235
1 83 -2 100 -29 159 -48 105 -145 169 -280 184 -32 3 -72 8 -90 11 -30 5 -38
0 -88 -53z"/>
<path d="M1424 6536 c-28 -13 -65 -27 -81 -30 -30 -7 -37 -18 -73 -112 -19
-50 -21 -112 -5 -188 24 -114 47 -157 117 -215 74 -60 141 -81 259 -81 99 0
133 17 192 97 55 76 67 114 67 220 0 84 -3 103 -31 166 -54 124 -131 167 -297
167 -81 0 -105 -4 -148 -24z"/>
</g>
</svg>
