<?xml version="1.0" standalone="no"?>
<!DOCTYPE svg PUBLIC "-//W3C//DTD SVG 20010904//EN"
 "http://www.w3.org/TR/2001/REC-SVG-20010904/DTD/svg10.dtd">
<svg version="1.0" xmlns="http://www.w3.org/2000/svg"
 width="704.000000pt" height="1280.000000pt" viewBox="0 0 704.000000 1280.000000"
 preserveAspectRatio="xMidYMid meet">
<metadata>
Created by potrace 1.16, written by Peter Selinger 2001-2019
</metadata>
<g transform="translate(0.000000,1280.000000) scale(0.100000,-0.100000)"
fill="#000000" stroke="none">
<path d="M4855 11074 c-127 -9 -384 -46 -476 -69 -549 -139 -973 -438 -1144
-807 -65 -141 -80 -213 -80 -393 0 -138 3 -171 23 -240 95 -327 332 -590 697
-769 219 -108 246 -119 395 -159 298 -79 455 -97 820 -92 453 6 765 72 1106
235 196 93 325 184 460 322 125 128 161 177 211 286 71 154 85 206 90 344 8
195 -13 301 -94 477 -42 94 -107 184 -204 286 -197 207 -477 374 -784 469
-253 78 -441 107 -730 110 -126 2 -257 2 -290 0z m580 -188 c174 -22 253 -40
426 -96 173 -56 397 -167 509 -251 113 -85 262 -244 301 -320 101 -200 132
-339 111 -502 -21 -165 -64 -267 -170 -406 -201 -262 -517 -436 -1004 -550
-219 -51 -633 -68 -898 -36 -473 57 -918 247 -1130 482 -88 98 -220 310 -220
354 0 8 -8 34 -17 59 -24 67 -24 273 1 365 99 369 453 676 946 820 139 40 187
50 400 81 143 20 195 23 390 20 129 -2 280 -11 355 -20z"/>
<path d="M3961 8688 c-50 -13 -108 -54 -126 -88 -49 -96 -13 -225 79 -281 38
-23 131 -26 179 -5 40 18 82 57 103 98 35 67 -6 208 -73 249 -40 25 -118 38
-162 27z m102 -89 c55 -30 78 -93 54 -152 -36 -84 -160 -88 -202 -7 -19 37
-19 63 0 100 31 61 96 86 148 59z"/>
<path d="M3674 8346 c-64 -28 -99 -108 -71 -162 8 -16 24 -38 36 -48 12 -11
21 -24 21 -30 0 -18 -151 -93 -213 -106 -32 -6 -74 -22 -93 -35 -19 -13 -47
-26 -63 -30 -16 -3 -38 -15 -49 -25 -12 -11 -27 -20 -35 -20 -7 0 -34 -13 -60
-30 -48 -30 -97 -40 -97 -18 0 6 -3 9 -6 5 -7 -7 -45 24 -39 33 2 3 -84 6
-191 7 -192 1 -194 1 -224 26 l-30 26 -418 0 c-493 0 -563 4 -594 36 -13 12
-38 26 -57 30 -19 4 -72 27 -119 51 -46 24 -96 44 -111 44 -19 0 -33 10 -50
35 -13 20 -34 38 -48 41 -13 4 -32 19 -44 35 l-20 29 -193 0 -192 0 -34 -35
-34 -35 -3 -210 c-2 -210 -2 -210 -28 -236 -32 -32 -36 -103 -6 -121 26 -17
34 -108 33 -383 l-1 -224 -31 -29 c-16 -15 -30 -33 -30 -40 -4 -83 -10 -109
-35 -138 -25 -31 -26 -36 -20 -104 7 -67 5 -73 -19 -101 -24 -30 -25 -36 -27
-182 -1 -145 -2 -152 -23 -158 -11 -4 -24 -12 -28 -18 -4 -6 -8 -117 -8 -246
0 -216 -2 -238 -20 -267 -11 -18 -24 -33 -30 -33 -6 0 -10 -25 -10 -58 0 -46
-5 -65 -25 -92 -14 -19 -25 -44 -25 -56 0 -29 -20 -74 -33 -74 -5 0 -26 -13
-47 -30 -30 -24 -39 -39 -44 -73 -5 -32 -20 -59 -56 -102 -28 -33 -50 -69 -50
-80 0 -14 -14 -30 -37 -46 l-38 -24 -3 -1563 -2 -1563 29 -10 c18 -6 35 -24
47 -49 18 -38 48 -60 81 -60 8 0 24 -11 35 -25 16 -20 28 -25 67 -25 39 0 56
-6 86 -30 22 -17 50 -30 66 -30 19 0 34 -8 45 -25 14 -22 23 -25 74 -25 49 0
64 -4 90 -27 l32 -26 581 -8 c604 -9 2668 -3 2747 7 24 3 56 14 70 24 21 15
50 19 167 21 132 4 143 6 163 26 11 13 28 24 38 24 9 1 22 2 27 4 6 1 38 3 72
3 52 2 66 6 85 26 20 21 35 26 113 32 67 5 95 11 111 25 13 13 48 22 105 30
50 6 94 18 110 29 14 10 56 23 94 29 39 6 81 19 97 31 15 11 39 20 54 20 29 0
94 28 94 40 0 10 117 50 146 50 12 0 33 13 46 29 14 16 35 32 47 36 12 3 36
20 53 36 18 16 43 29 57 29 13 0 32 7 42 16 13 12 57 20 149 29 83 9 140 19
155 29 13 9 50 19 81 22 42 5 63 13 78 30 14 15 49 31 101 44 44 12 100 35
124 51 25 16 50 29 57 29 7 0 29 14 48 31 35 30 48 40 143 109 88 63 253 245
253 278 0 5 18 32 40 58 l40 49 0 806 0 806 -45 74 c-97 160 -265 298 -418
346 -100 31 -212 43 -292 32 -124 -17 -285 -134 -285 -207 0 -18 -11 -54 -25
-80 -29 -55 -32 -110 -7 -143 10 -13 26 -43 36 -66 11 -24 23 -43 28 -43 4 0
8 -7 8 -14 0 -15 57 -87 141 -179 79 -86 119 -134 119 -143 0 -5 15 -25 34
-44 24 -26 35 -48 40 -83 5 -33 15 -55 32 -69 28 -25 31 -57 9 -117 -8 -24
-19 -76 -24 -118 -8 -68 -13 -80 -55 -131 -26 -32 -55 -76 -66 -100 -35 -76
-172 -202 -221 -202 -9 0 -41 -12 -69 -26 -45 -22 -59 -25 -94 -18 -39 9 -41
11 -47 55 -4 25 -14 60 -23 77 -10 19 -18 71 -22 141 -5 83 -11 115 -24 129
-9 10 -20 30 -23 45 -4 14 -16 35 -27 44 -10 10 -22 33 -25 51 -3 19 -25 64
-49 100 -24 37 -47 81 -50 97 -4 17 -17 42 -29 56 -69 76 -97 123 -97 161 0
24 -5 41 -14 44 -8 3 -20 20 -27 37 -7 18 -26 47 -42 66 -16 19 -36 51 -44 70
-8 20 -23 45 -33 56 -10 11 -21 31 -25 43 -4 13 -15 32 -25 42 -11 11 -24 36
-29 58 -6 21 -21 47 -32 58 -21 19 -79 128 -79 150 0 6 -13 29 -28 50 -37 52
-78 123 -87 152 -9 31 -120 210 -150 242 -12 14 -32 45 -44 70 -11 25 -25 52
-30 60 -48 79 -71 124 -71 140 0 10 -16 47 -37 82 -58 101 -73 131 -73 149 0
9 -9 24 -20 34 -11 10 -20 24 -20 31 0 7 -8 19 -17 26 -10 7 -35 47 -55 88
-30 62 -37 89 -41 150 -2 49 -10 85 -21 102 -10 15 -21 60 -25 106 -5 50 -16
93 -28 114 -11 18 -23 55 -27 83 -3 27 -17 71 -31 97 -23 43 -25 59 -24 160 2
234 13 375 31 395 16 17 18 59 23 404 6 397 1 475 -33 512 -9 10 -22 35 -27
56 -9 30 -16 37 -40 39 -16 2 -40 14 -52 26 -19 20 -37 24 -119 29 l-97 6 -49
-35 c-44 -30 -58 -34 -114 -34 l-63 0 40 38 c33 31 42 46 46 83 7 59 -16 106
-62 125 -42 17 -61 17 -101 0z m-2717 -673 c15 -21 51 -66 80 -100 65 -75 83
-116 83 -187 0 -76 -11 -98 -64 -125 -25 -13 -46 -27 -46 -31 0 -4 -27 -24
-61 -45 -90 -55 -89 -56 -95 210 -2 120 -6 221 -9 224 -2 4 5 26 15 49 25 56
58 58 97 5z m3153 -150 c0 -13 -7 -40 -15 -60 -9 -22 -15 -68 -15 -122 0 -47
-6 -106 -14 -131 -8 -25 -20 -88 -26 -140 -14 -107 -22 -130 -49 -130 -20 0
-101 89 -101 110 0 7 -25 47 -55 90 l-56 79 7 80 7 80 69 52 c38 28 90 70 114
93 70 63 85 69 112 44 12 -12 22 -32 22 -45z m-831 -582 c108 -33 247 -139
278 -211 27 -63 63 -184 63 -215 0 -16 -7 -52 -15 -79 -8 -27 -15 -68 -15 -90
0 -32 -11 -58 -49 -116 -41 -64 -59 -81 -117 -116 l-69 -41 -101 3 c-135 4
-255 42 -342 108 -70 54 -92 79 -123 143 -30 62 -33 241 -5 323 33 94 80 168
141 220 47 40 69 51 128 64 40 9 88 18 107 19 19 2 40 5 47 5 6 1 39 -7 72
-17z m-1487 -42 c43 -12 95 -34 117 -49 42 -31 125 -155 148 -222 63 -183 7
-398 -132 -510 -83 -66 -101 -74 -176 -82 -150 -15 -327 44 -418 139 -49 50
-105 177 -122 274 -14 81 -1 199 28 256 9 17 24 47 34 67 16 32 90 96 154 135
13 7 69 12 154 12 107 1 151 -3 213 -20z"/>
<path d="M2988 6808 c-41 -42 -72 -88 -100 -147 -38 -79 -40 -90 -35 -146 9
-89 43 -173 90 -218 73 -70 107 -90 175 -105 118 -25 144 -25 220 -2 58 18 77
29 100 58 76 97 96 271 46 396 -35 89 -116 166 -199 191 -53 15 -166 33 -219
35 -10 0 -45 -28 -78 -62z"/>
<path d="M1530 6831 c-14 -4 -47 -19 -75 -33 -27 -14 -61 -28 -75 -31 -69 -17
-101 -256 -52 -397 18 -51 34 -76 77 -117 87 -84 163 -113 298 -113 94 0 115
10 185 84 77 81 92 120 92 244 0 93 -3 111 -30 176 -33 79 -79 131 -145 164
-44 21 -230 37 -275 23z"/>
</g>
</svg>
