<?xml version="1.0" standalone="no"?>
<!DOCTYPE svg PUBLIC "-//W3C//DTD SVG 20010904//EN"
 "http://www.w3.org/TR/2001/REC-SVG-20010904/DTD/svg10.dtd">
<svg version="1.0" xmlns="http://www.w3.org/2000/svg"
 width="704.000000pt" height="1280.000000pt" viewBox="0 0 704.000000 1280.000000"
 preserveAspectRatio="xMidYMid meet">
<metadata>
Created by potrace 1.16, written by Peter Selinger 2001-2019
</metadata>
<g transform="translate(0.000000,1280.000000) scale(0.100000,-0.100000)"
fill="#000000" stroke="none">
<path d="M4570 10555 c-408 -37 -723 -136 -1012 -316 -277 -173 -472 -419
-535 -675 -25 -106 -23 -316 5 -419 98 -353 405 -649 852 -818 187 -70 323
-105 550 -139 132 -20 616 -17 757 4 443 68 786 209 1043 431 279 240 412 553
365 859 -25 168 -81 297 -189 442 -128 169 -364 346 -595 446 -258 111 -497
166 -821 189 -177 13 -234 12 -420 -4z m431 -155 c160 -12 239 -24 380 -56
475 -107 869 -380 1000 -693 60 -143 74 -343 33 -482 -33 -114 -111 -245 -203
-343 -249 -263 -656 -438 -1134 -486 -156 -16 -558 -8 -687 14 -670 113 -1125
442 -1210 874 -20 98 -8 261 24 357 65 190 219 376 423 509 355 232 861 345
1374 306z"/>
<path d="M4630 10080 c-77 -13 -172 -49 -240 -89 -65 -39 -180 -148 -180 -172
0 -6 -18 -31 -40 -55 -22 -24 -40 -50 -40 -58 0 -7 -12 -40 -27 -72 -27 -57
-28 -65 -27 -219 0 -160 0 -160 32 -221 18 -34 32 -65 32 -68 0 -12 77 -119
117 -162 44 -48 168 -144 187 -144 7 0 35 -11 62 -24 129 -62 351 -54 509 20
61 28 153 91 190 131 11 11 44 29 73 38 l53 17 19 -25 c19 -24 62 -42 159 -67
24 -6 40 -15 35 -19 -13 -11 -106 -35 -269 -70 -174 -37 -247 -63 -280 -102
-31 -38 -32 -59 -1 -88 107 -101 536 -64 723 62 89 60 101 119 38 180 l-33 31
39 28 c77 56 99 150 47 205 -41 44 -77 57 -158 57 -96 -1 -154 -22 -252 -90
-43 -30 -82 -54 -88 -54 -17 0 -11 26 10 45 10 9 27 38 37 64 9 25 24 57 32
71 13 19 16 55 16 175 -1 164 -12 212 -78 339 -77 146 -267 290 -434 327 -63
14 -207 19 -263 9z m1073 -940 c42 0 91 -52 83 -87 -11 -40 -37 -70 -89 -98
l-47 -26 -93 21 c-96 22 -158 47 -164 67 -14 41 193 141 262 127 11 -2 33 -4
48 -4z m-14 -289 c60 -31 67 -45 41 -81 -57 -80 -277 -144 -495 -144 -137 0
-205 16 -205 48 0 35 60 57 293 106 82 17 183 44 225 59 95 35 95 35 141 12z"/>
<path d="M3768 8308 c-49 -13 -114 -70 -128 -114 -49 -147 90 -292 234 -244
82 27 126 90 126 180 0 79 -44 142 -122 174 -42 18 -57 18 -110 4z m86 -82
c45 -19 66 -52 66 -102 0 -36 -5 -47 -37 -74 -32 -28 -41 -32 -77 -27 -107 15
-130 160 -33 202 40 18 41 18 81 1z"/>
<path d="M3462 7967 c-26 -27 -32 -41 -32 -77 0 -45 21 -89 53 -113 15 -11 13
-15 -18 -36 -19 -13 -48 -25 -63 -27 -15 -1 -33 -12 -41 -23 -11 -17 -24 -21
-71 -21 -44 0 -61 -4 -75 -20 -10 -11 -35 -25 -55 -30 -21 -6 -45 -21 -54 -35
-12 -18 -25 -25 -50 -25 -20 0 -40 -8 -51 -20 -27 -29 -98 -28 -120 3 -15 21
-22 22 -158 23 -230 2 -223 2 -253 29 l-26 24 -470 -1 -469 -2 -25 27 c-15 17
-35 27 -52 27 -16 0 -43 11 -62 25 -19 14 -40 25 -47 25 -7 0 -21 10 -33 22
-14 15 -32 22 -57 22 -30 0 -39 5 -56 33 -10 18 -22 33 -25 34 -41 5 -64 20
-74 50 -4 11 -55 13 -240 11 l-156 -2 -23 -37 c-21 -36 -22 -47 -20 -225 l3
-187 -31 -32 c-42 -43 -43 -94 -4 -125 l28 -22 -1 -278 -1 -277 -25 -21 c-21
-17 -27 -32 -30 -79 -4 -48 -10 -63 -32 -84 -27 -25 -28 -28 -21 -98 6 -67 5
-74 -19 -102 -23 -28 -25 -37 -27 -161 -2 -131 -2 -131 -31 -157 l-29 -26 2
-229 2 -229 -32 -36 c-27 -31 -30 -41 -25 -73 4 -29 0 -45 -19 -73 -13 -20
-27 -52 -31 -72 -5 -26 -20 -46 -56 -77 -38 -32 -50 -49 -50 -70 0 -19 -15
-47 -45 -83 -25 -31 -45 -59 -45 -63 0 -6 -65 -90 -80 -104 -3 -3 -13 -17 -23
-32 -16 -26 -17 -120 -17 -1457 l0 -1429 50 -32 c27 -17 52 -40 55 -51 4 -11
28 -30 54 -44 27 -13 51 -31 54 -40 4 -10 19 -15 46 -15 48 0 84 -13 111 -40
11 -11 33 -20 50 -20 18 0 33 -7 39 -19 8 -13 26 -20 72 -25 45 -4 70 -12 87
-29 l24 -22 821 -5 c452 -3 1169 -3 1592 0 l771 5 28 22 c26 21 39 23 151 23
110 0 125 2 150 21 20 17 48 24 112 30 63 5 91 13 107 27 16 15 42 21 106 26
63 5 89 11 102 25 16 18 34 23 143 37 28 4 58 14 68 22 10 9 47 19 83 23 51 5
71 12 93 33 17 16 38 26 58 26 17 0 41 8 54 19 13 10 41 24 61 30 21 7 40 17
43 22 4 5 22 9 40 9 27 0 39 7 57 30 12 17 28 30 35 30 7 0 28 14 46 30 19 17
42 30 51 30 10 0 27 5 39 12 28 15 36 17 173 26 88 7 118 13 134 27 11 10 43
22 72 26 31 5 61 17 77 32 15 14 50 29 83 36 112 24 268 125 446 288 103 94
150 153 205 255 19 37 41 73 46 80 23 28 81 150 81 171 0 12 14 49 30 82 16
33 30 75 30 93 0 18 12 79 26 135 25 96 26 111 21 257 -5 113 -12 171 -26 215
-11 33 -25 103 -31 155 -7 57 -20 107 -31 126 -10 17 -19 37 -19 44 0 12 -67
149 -114 235 -52 93 -237 269 -336 320 -70 35 -227 75 -297 75 -148 0 -319
-111 -343 -223 -5 -27 -17 -58 -25 -70 -8 -12 -15 -31 -15 -44 0 -34 50 -166
70 -184 10 -8 21 -26 25 -39 4 -12 42 -58 84 -100 42 -43 84 -90 94 -106 25
-43 63 -96 83 -118 10 -11 24 -37 31 -59 8 -22 25 -55 40 -73 l26 -34 -17 -58
c-9 -32 -16 -84 -16 -115 0 -73 -8 -93 -67 -158 -28 -30 -53 -66 -57 -81 -3
-15 -17 -39 -31 -54 -14 -15 -25 -30 -25 -34 0 -4 -25 -28 -55 -53 -38 -31
-68 -47 -98 -52 -23 -4 -57 -15 -75 -26 -65 -38 -122 -15 -122 49 0 17 -5 43
-11 59 -6 15 -15 77 -19 136 -6 90 -11 112 -29 131 -11 12 -21 27 -21 32 0 6
-11 25 -25 44 -14 19 -25 43 -25 54 0 12 -10 37 -22 56 -34 54 -67 123 -68
141 0 8 -11 26 -25 39 -14 13 -25 29 -25 35 0 6 -13 24 -30 38 -24 22 -30 35
-30 67 0 31 -5 43 -25 56 -13 9 -27 26 -31 37 -3 12 -17 33 -29 47 -13 14 -32
45 -43 70 -11 25 -27 51 -36 59 -9 7 -16 20 -16 29 0 9 -9 26 -21 38 -11 12
-25 42 -30 66 -6 23 -19 52 -30 63 -27 27 -65 88 -74 116 -8 25 -67 128 -97
168 -10 13 -18 33 -18 45 0 11 -14 36 -30 55 -17 18 -30 40 -30 48 0 17 -32
65 -72 108 -16 17 -33 46 -38 65 -5 19 -19 49 -30 65 -11 17 -20 37 -20 46 0
9 -11 28 -25 43 -14 15 -25 37 -25 50 0 13 -8 34 -18 47 -11 13 -37 62 -60
109 -22 47 -59 107 -81 134 -23 26 -41 56 -41 65 0 9 -12 34 -25 56 -19 30
-25 54 -25 98 0 34 -8 77 -19 105 -11 26 -22 76 -26 111 -4 41 -15 80 -31 106
-13 23 -24 56 -24 74 0 18 -12 57 -26 87 l-26 55 7 217 c6 187 10 221 26 248
18 29 19 57 19 441 0 397 -1 410 -20 428 -11 10 -25 35 -30 56 -9 33 -15 39
-45 45 -20 3 -39 13 -44 21 -6 12 -33 16 -120 18 -109 3 -112 2 -147 -26 -30
-24 -44 -28 -95 -28 l-60 1 33 22 c39 26 65 88 54 130 -4 16 -20 41 -36 57
-24 24 -37 29 -77 29 -42 0 -53 -5 -81 -33z m-2542 -595 c0 -4 31 -43 70 -86
75 -85 92 -123 94 -213 1 -44 -3 -56 -28 -82 -17 -17 -35 -31 -40 -31 -6 0
-28 -15 -49 -34 -21 -19 -52 -40 -69 -47 -51 -21 -60 -1 -63 143 -1 67 -6 167
-10 220 l-8 97 31 31 c26 26 35 29 52 20 11 -6 20 -14 20 -18z m2982 -127 c9
-20 6 -44 -12 -119 -13 -55 -20 -106 -16 -120 4 -15 2 -36 -5 -47 -6 -11 -15
-55 -20 -97 -9 -80 -17 -131 -25 -169 -7 -35 -46 -30 -79 10 -33 41 -115 166
-115 177 0 4 -7 13 -15 20 -11 9 -15 33 -15 90 0 76 1 79 33 104 17 14 55 47
84 72 124 110 163 126 185 79z m-764 -587 c31 -11 88 -41 125 -65 78 -52 123
-113 154 -213 33 -104 34 -118 18 -172 -8 -28 -15 -68 -15 -87 0 -20 -9 -52
-19 -71 -11 -19 -26 -48 -34 -65 -18 -38 -48 -65 -113 -103 -45 -26 -60 -29
-148 -31 -86 -2 -108 1 -189 29 -154 54 -252 158 -272 289 -26 172 60 385 190
466 74 46 212 57 303 23z m-1423 -33 c108 -29 139 -54 220 -178 44 -67 60
-133 59 -243 -1 -88 -4 -107 -29 -159 -29 -62 -102 -146 -163 -189 -25 -17
-61 -29 -113 -37 -133 -19 -280 22 -387 108 -51 42 -100 141 -127 260 -18 80
-18 85 0 170 10 48 29 102 41 121 13 18 26 42 29 52 6 18 50 51 115 86 65 34
243 39 355 9z"/>
<path d="M2851 6539 c-33 -34 -68 -84 -93 -134 -36 -73 -39 -85 -34 -140 7
-89 41 -167 94 -220 56 -55 86 -69 182 -89 95 -20 124 -20 186 0 104 35 152
124 155 289 1 78 -2 98 -26 149 -54 121 -159 184 -320 193 l-90 5 -54 -53z"/>
<path d="M1488 6559 c-18 -3 -55 -16 -81 -28 -27 -11 -54 -21 -60 -21 -26 0
-38 -20 -67 -101 -34 -96 -33 -153 1 -268 23 -77 51 -117 116 -163 66 -48 135
-68 233 -68 100 0 136 15 190 80 63 75 80 126 80 236 0 88 -3 101 -36 174 -37
80 -68 112 -139 141 -36 15 -189 27 -237 18z"/>
</g>
</svg>
