<?xml version="1.0" standalone="no"?>
<!DOCTYPE svg PUBLIC "-//W3C//DTD SVG 20010904//EN"
 "http://www.w3.org/TR/2001/REC-SVG-20010904/DTD/svg10.dtd">
<svg version="1.0" xmlns="http://www.w3.org/2000/svg"
 width="704.000000pt" height="1280.000000pt" viewBox="0 0 704.000000 1280.000000"
 preserveAspectRatio="xMidYMid meet">
<metadata>
Created by potrace 1.16, written by Peter Selinger 2001-2019
</metadata>
<g transform="translate(0.000000,1280.000000) scale(0.100000,-0.100000)"
fill="#000000" stroke="none">
<path d="M4665 10563 c-573 -38 -1035 -212 -1341 -505 -159 -152 -257 -319
-305 -518 -22 -88 -16 -298 10 -395 57 -212 208 -425 410 -579 211 -160 530
-295 828 -351 560 -104 1191 -31 1628 188 493 246 763 661 701 1075 -25 160
-58 245 -151 387 -71 108 -137 179 -255 274 -245 197 -560 330 -927 391 -194
32 -423 45 -598 33z m455 -173 c344 -37 704 -169 940 -347 125 -94 263 -259
315 -377 47 -106 59 -172 58 -311 0 -114 -4 -140 -27 -210 -43 -126 -108 -226
-221 -340 -116 -118 -209 -183 -372 -264 -288 -143 -614 -211 -1009 -211 -293
0 -465 21 -689 85 -468 133 -792 387 -909 713 -29 82 -31 95 -31 232 1 130 3
153 28 225 44 132 106 227 226 345 154 152 299 244 526 330 335 128 748 173
1165 130z"/>
<path d="M3766 8308 c-53 -14 -123 -85 -132 -133 -30 -159 118 -281 262 -216
45 20 85 67 102 119 26 78 -28 185 -113 223 -45 21 -62 22 -119 7z m125 -109
c40 -43 40 -96 0 -141 -25 -28 -36 -33 -76 -33 -40 0 -51 5 -76 33 -63 71 -17
171 79 172 36 0 49 -5 73 -31z"/>
<path d="M3474 7982 c-65 -52 -58 -150 16 -209 10 -8 11 -12 3 -13 -7 0 -21
-9 -31 -20 -11 -11 -34 -22 -51 -25 -18 -2 -38 -11 -45 -20 -7 -11 -34 -19
-72 -24 -37 -4 -72 -16 -91 -29 -17 -12 -40 -22 -50 -22 -11 0 -29 -13 -41
-30 -16 -21 -31 -30 -52 -30 -16 0 -32 -5 -36 -11 -12 -20 -75 -40 -104 -34
-15 3 -32 16 -38 29 -11 24 -12 24 -198 25 l-188 1 -27 26 -28 27 -283 -6
c-156 -3 -365 -3 -466 0 -174 6 -184 7 -208 30 -14 13 -37 23 -54 23 -16 0
-42 11 -58 25 -17 14 -36 25 -44 25 -8 0 -23 9 -33 20 -10 11 -36 23 -57 26
-27 5 -45 15 -59 35 -13 18 -29 29 -44 29 -16 0 -31 10 -42 28 -10 15 -21 29
-24 32 -7 5 -132 5 -304 1 l-80 -2 -28 -46 c-24 -40 -27 -51 -20 -87 4 -23 6
-105 3 -183 -5 -138 -6 -142 -33 -167 -37 -34 -38 -96 -3 -123 24 -17 25 -24
34 -193 5 -96 5 -188 0 -205 -4 -16 -8 -64 -8 -107 0 -74 -1 -77 -30 -98 -27
-19 -30 -26 -30 -79 0 -49 -4 -61 -25 -79 -23 -20 -24 -27 -22 -101 2 -69 -1
-82 -20 -103 -19 -21 -22 -36 -25 -155 -3 -129 -3 -132 -31 -155 l-27 -24 0
-230 0 -231 -27 -29 c-23 -24 -28 -37 -26 -79 1 -38 -4 -55 -19 -72 -11 -11
-22 -40 -25 -63 -4 -30 -13 -46 -32 -58 -50 -31 -81 -71 -81 -102 0 -17 -10
-41 -25 -57 -48 -55 -75 -91 -75 -102 0 -6 -15 -28 -33 -48 -18 -21 -43 -54
-55 -74 l-22 -36 0 -1421 0 -1421 43 -35 c23 -19 51 -49 62 -66 12 -19 33 -34
55 -40 19 -5 43 -19 52 -30 13 -14 30 -20 63 -20 35 0 51 -6 78 -30 23 -20 45
-30 66 -30 22 0 35 -7 47 -25 14 -21 24 -25 69 -25 38 0 56 -5 69 -19 14 -15
38 -20 129 -26 128 -8 2948 -9 3047 -1 46 3 68 10 78 23 11 15 33 19 146 23
116 4 137 8 156 25 17 15 41 21 106 26 66 4 88 10 106 26 18 16 42 23 108 28
63 5 90 12 106 26 14 13 47 22 104 30 55 6 92 17 108 30 14 10 39 19 56 19 47
0 101 18 121 40 10 11 31 20 47 20 16 0 46 11 66 25 20 14 42 25 48 25 7 0 25
7 40 15 16 8 42 15 57 15 19 0 38 10 55 30 15 17 31 30 37 30 6 0 25 14 43 30
18 17 41 30 50 30 9 0 30 7 47 16 19 10 74 18 156 23 108 6 130 10 154 29 15
12 42 22 60 22 21 0 46 11 69 29 23 18 55 33 82 37 47 7 173 68 234 113 19 14
39 29 45 33 95 70 283 245 304 284 9 17 33 57 53 88 21 31 38 60 38 65 0 5 11
22 24 38 13 15 28 44 35 64 6 20 20 44 30 53 11 10 22 36 25 59 4 24 15 57 26
75 11 17 26 73 34 124 9 51 23 118 31 148 24 81 15 352 -14 430 -11 30 -25 98
-31 150 -7 59 -21 117 -37 155 -47 109 -103 224 -112 229 -5 4 -19 26 -31 50
-11 24 -27 47 -35 50 -8 3 -15 12 -15 19 0 12 -107 111 -202 188 -88 70 -226
112 -368 111 -107 0 -157 -17 -245 -82 -72 -54 -87 -74 -96 -131 -5 -28 -15
-59 -24 -69 -21 -23 -19 -78 5 -125 11 -22 20 -47 20 -56 0 -9 14 -33 30 -54
17 -21 30 -43 30 -50 0 -6 33 -43 74 -81 40 -38 81 -84 90 -101 9 -18 22 -36
30 -40 7 -4 21 -24 31 -43 10 -19 28 -45 41 -57 13 -12 24 -33 24 -46 0 -12
14 -42 30 -64 29 -39 30 -44 19 -85 -6 -23 -14 -79 -18 -123 -6 -73 -10 -85
-49 -141 -23 -34 -49 -67 -57 -74 -8 -7 -15 -20 -15 -30 0 -23 -57 -92 -121
-147 -34 -29 -64 -45 -100 -52 -28 -6 -60 -18 -72 -26 -29 -21 -80 -19 -100 3
-10 10 -17 33 -17 51 0 17 -7 48 -15 68 -10 23 -15 68 -15 128 0 85 -2 96 -25
123 -14 17 -25 35 -25 40 0 6 -11 24 -25 40 -13 16 -27 44 -30 63 -3 18 -12
40 -20 49 -18 20 -65 125 -65 145 0 8 -7 18 -15 22 -9 3 -24 22 -35 42 -10 20
-28 44 -39 53 -14 12 -21 30 -21 53 0 26 -7 41 -30 62 -16 14 -30 32 -30 39 0
7 -13 28 -29 47 -16 18 -33 46 -37 61 -7 28 -61 118 -89 147 -9 9 -18 34 -22
55 -3 22 -15 50 -27 64 -33 37 -76 108 -76 123 0 8 -12 32 -27 53 -46 68 -79
128 -86 156 -4 15 -18 38 -32 52 -14 14 -25 34 -25 45 0 11 -25 53 -55 93 -30
40 -55 79 -55 86 0 7 -11 30 -25 50 -14 20 -25 41 -25 47 0 6 -11 26 -25 45
-14 19 -25 44 -25 56 0 12 -9 32 -19 45 -10 14 -26 40 -35 59 -8 19 -20 42
-24 50 -5 8 -17 31 -26 51 -10 20 -35 58 -57 84 -21 26 -39 54 -39 62 0 9 -10
31 -21 50 -14 23 -24 62 -30 113 -4 43 -14 91 -22 106 -8 16 -17 60 -21 97 -4
46 -14 82 -31 111 -14 23 -25 58 -25 77 0 19 -10 53 -22 74 -22 39 -23 48 -20
269 2 208 4 232 22 263 19 32 20 53 20 440 l1 406 -24 26 c-14 14 -29 40 -34
56 -6 20 -19 33 -39 40 -16 6 -40 17 -54 26 -19 12 -50 16 -131 15 -100 -1
-107 -2 -138 -28 -26 -22 -43 -28 -81 -28 l-48 0 33 33 c60 60 56 149 -9 188
-39 24 -104 24 -132 1z m-2556 -614 c15 -17 51 -58 80 -90 62 -69 79 -105 87
-180 7 -64 -6 -93 -55 -125 -19 -13 -48 -35 -63 -49 -16 -14 -44 -32 -63 -41
-32 -16 -36 -16 -50 -1 -13 13 -17 42 -19 140 -1 67 -6 166 -10 218 -8 94 -7
96 20 128 15 17 31 32 37 32 5 0 22 -14 36 -32z m2984 -124 c10 -20 8 -38 -7
-92 -10 -37 -22 -101 -26 -142 -4 -41 -12 -104 -18 -140 -6 -36 -13 -85 -16
-110 -11 -83 -14 -90 -38 -90 -32 0 -36 5 -102 105 -32 50 -67 99 -77 111 -22
25 -30 72 -21 137 5 44 11 52 62 91 31 24 68 55 82 70 87 87 140 107 161 60z
m-761 -583 c133 -45 239 -155 281 -289 21 -68 21 -74 0 -242 -14 -113 -80
-203 -189 -259 -34 -17 -60 -21 -133 -21 -130 0 -239 36 -325 107 -135 111
-168 244 -108 438 25 82 90 183 139 218 88 63 232 84 335 48z m-1410 -40 c83
-22 131 -59 184 -141 61 -96 79 -157 80 -275 0 -104 2 -97 -59 -213 -15 -28
-126 -135 -160 -154 -7 -4 -45 -12 -85 -19 -94 -14 -192 2 -286 47 -135 64
-198 153 -230 327 -15 81 -15 93 0 168 9 45 27 96 40 116 13 19 27 43 30 53 5
16 86 76 130 95 25 11 196 23 250 17 22 -2 70 -12 106 -21z"/>
<path d="M2852 6541 c-28 -31 -69 -90 -90 -131 -32 -65 -37 -83 -36 -140 3
-99 33 -168 103 -232 62 -58 89 -69 214 -89 70 -12 83 -11 135 6 79 26 116 63
141 144 32 100 31 220 -1 291 -53 117 -165 186 -322 199 l-91 8 -53 -56z"/>
<path d="M1415 6535 c-27 -13 -62 -26 -77 -29 -22 -5 -31 -17 -52 -73 -37 -99
-39 -114 -27 -195 22 -140 52 -195 150 -271 44 -35 131 -56 226 -57 108 0 134
13 194 94 63 85 73 119 69 232 -6 157 -53 245 -155 295 -41 20 -65 24 -163 26
-104 2 -120 0 -165 -22z"/>
</g>
</svg>
