<?xml version="1.0" standalone="no"?>
<!DOCTYPE svg PUBLIC "-//W3C//DTD SVG 20010904//EN"
 "http://www.w3.org/TR/2001/REC-SVG-20010904/DTD/svg10.dtd">
<svg version="1.0" xmlns="http://www.w3.org/2000/svg"
 width="704.000000pt" height="1280.000000pt" viewBox="0 0 704.000000 1280.000000"
 preserveAspectRatio="xMidYMid meet">
<metadata>
Created by potrace 1.16, written by Peter Selinger 2001-2019
</metadata>
<g transform="translate(0.000000,1280.000000) scale(0.100000,-0.100000)"
fill="#000000" stroke="none">
<path d="M4605 10559 c-341 -27 -587 -88 -851 -214 -388 -184 -645 -456 -726
-767 -31 -120 -31 -321 0 -433 27 -95 103 -251 162 -330 232 -315 676 -543
1205 -622 168 -25 627 -25 803 0 140 20 365 74 490 119 350 123 658 362 800
620 208 377 136 790 -197 1118 -372 367 -1018 562 -1686 509z m545 -174 c329
-44 615 -145 851 -300 88 -58 260 -227 313 -308 20 -31 50 -89 67 -128 209
-509 -165 -1025 -896 -1234 -413 -119 -978 -116 -1389 5 -370 110 -641 289
-800 529 -89 133 -127 257 -127 416 0 169 70 358 180 487 309 362 882 570
1526 552 94 -3 217 -11 275 -19z"/>
<path d="M5114 10070 c-143 -21 -290 -136 -360 -283 -19 -40 -32 -47 -40 -19
-38 123 -162 239 -301 282 -48 15 -93 20 -169 20 -97 0 -109 -2 -166 -31 -211
-106 -312 -373 -234 -613 53 -161 144 -285 378 -513 83 -82 226 -191 382 -294
114 -76 140 -88 148 -71 2 4 57 43 123 87 149 99 222 156 367 288 136 124 194
190 281 319 85 124 117 221 117 346 0 48 -5 107 -11 132 -9 42 -15 59 -55 145
-22 48 -118 134 -184 166 -45 21 -188 53 -218 48 -4 -1 -30 -5 -58 -9z m-868
-161 c15 -12 18 -46 8 -74 -4 -9 -33 -34 -65 -55 -40 -28 -69 -58 -95 -100
-41 -66 -63 -79 -99 -56 -82 54 2 258 123 297 33 10 110 3 128 -12z"/>
<path d="M3731 8292 c-90 -45 -126 -155 -81 -247 76 -157 304 -129 349 41 6
23 9 48 7 55 -2 8 -7 26 -10 41 -8 34 -59 94 -97 114 -39 19 -126 18 -168 -4z
m116 -62 c8 0 28 -14 44 -31 84 -90 -29 -226 -131 -157 -47 32 -61 85 -36 133
19 35 71 68 94 60 8 -3 20 -5 29 -5z"/>
<path d="M3463 7968 c-17 -18 -33 -45 -37 -60 -8 -36 17 -97 52 -125 18 -15
22 -23 12 -23 -8 0 -20 -8 -27 -19 -6 -10 -26 -21 -44 -25 -18 -3 -41 -14 -51
-23 -11 -9 -42 -18 -75 -21 -37 -3 -68 -13 -91 -28 -19 -13 -41 -24 -50 -24
-8 0 -30 -13 -49 -30 -18 -16 -42 -30 -52 -30 -10 0 -28 -9 -41 -20 -13 -11
-26 -20 -29 -21 -43 -6 -68 -2 -82 12 -35 35 -57 39 -229 39 -170 0 -171 0
-194 25 l-23 25 -473 0 -472 0 -20 25 c-12 16 -34 27 -59 31 -21 4 -49 15 -60
25 -12 11 -30 19 -39 19 -9 0 -25 8 -34 19 -9 10 -35 21 -56 25 -28 4 -46 15
-62 36 -13 18 -34 32 -55 36 -24 4 -33 12 -33 25 0 32 -39 38 -223 32 l-176
-6 -28 -29 -28 -29 0 -199 0 -198 -28 -26 c-21 -20 -27 -34 -27 -69 0 -37 4
-46 25 -55 27 -13 27 -6 27 -292 1 -271 1 -272 -32 -308 -24 -27 -30 -42 -30
-79 0 -34 -6 -53 -26 -76 -20 -24 -25 -40 -24 -76 4 -84 0 -110 -20 -128 -17
-17 -19 -34 -21 -152 l-1 -133 -29 -26 -29 -25 0 -234 0 -234 -25 -25 c-20
-20 -25 -35 -25 -79 0 -42 -5 -60 -25 -83 -14 -17 -25 -42 -25 -57 0 -20 -14
-40 -55 -78 -36 -32 -55 -58 -55 -73 0 -12 -11 -35 -23 -51 -13 -15 -45 -59
-71 -98 -26 -38 -63 -92 -82 -119 l-34 -48 0 -1429 0 -1429 39 -24 c22 -14 52
-41 66 -61 15 -19 39 -38 54 -41 14 -4 36 -17 49 -30 17 -18 34 -24 66 -24 33
0 52 -7 81 -30 21 -17 48 -30 60 -30 12 0 31 -11 43 -25 19 -21 31 -25 79 -25
44 0 62 -5 79 -21 21 -20 39 -22 251 -31 216 -9 2775 -5 2911 4 46 4 68 10 85
26 20 19 36 22 103 23 116 1 189 12 208 32 16 15 80 24 146 19 8 0 32 11 53
25 32 22 51 27 114 29 60 2 79 6 97 23 17 16 44 24 106 31 54 6 90 16 102 27
12 10 44 20 84 24 45 4 72 13 87 27 12 11 39 24 60 27 20 4 47 15 60 24 24 19
87 43 155 61 25 6 48 20 58 35 9 14 22 25 29 25 7 0 29 14 50 30 21 17 44 30
52 30 8 0 27 7 44 15 18 10 76 19 147 24 92 6 124 13 152 30 19 11 49 21 66
21 19 0 45 11 68 29 23 18 55 33 83 37 62 9 201 84 296 159 161 126 230 192
282 269 66 95 88 133 140 236 10 19 26 45 37 56 11 12 25 48 33 80 8 33 23 77
35 99 11 21 20 54 20 71 0 18 12 76 26 130 24 92 26 110 21 264 -4 135 -8 174
-25 216 -11 27 -25 95 -31 150 -6 54 -20 117 -30 139 -10 22 -33 69 -50 105
-17 36 -31 70 -31 76 0 6 -7 18 -17 25 -9 8 -27 38 -39 67 -13 28 -28 52 -32
52 -5 0 -13 9 -18 21 -19 42 -217 209 -289 244 -240 116 -456 93 -598 -64 -22
-25 -37 -51 -37 -67 0 -14 -10 -47 -21 -74 -16 -38 -20 -60 -15 -95 4 -24 11
-47 15 -50 5 -2 12 -17 16 -32 11 -48 67 -125 143 -201 40 -40 78 -86 84 -103
5 -16 19 -34 29 -40 10 -5 28 -26 38 -47 11 -20 29 -45 40 -54 12 -10 21 -28
21 -41 0 -12 12 -40 26 -61 23 -33 25 -45 19 -85 -4 -25 -10 -80 -14 -121 -3
-41 -13 -86 -20 -100 -14 -25 -65 -94 -88 -117 -6 -7 -14 -26 -18 -42 -3 -17
-34 -56 -75 -96 -60 -61 -78 -72 -152 -97 -46 -16 -96 -32 -111 -35 -40 -8
-67 20 -65 66 0 20 -6 50 -15 68 -13 24 -17 59 -17 132 0 94 -1 101 -24 119
-14 10 -28 31 -31 45 -4 14 -15 33 -26 43 -11 10 -19 30 -19 50 0 19 -9 44
-24 61 -31 37 -66 107 -66 132 0 11 -8 26 -18 33 -11 7 -25 24 -32 38 -7 14
-24 35 -37 47 -15 14 -23 34 -23 55 -1 22 -11 45 -30 68 -17 19 -30 40 -30 46
0 7 -13 25 -30 40 -16 16 -32 42 -36 59 -4 16 -17 43 -30 58 -13 16 -24 33
-24 38 0 6 -11 25 -25 43 -14 18 -25 44 -25 58 0 14 -11 38 -25 54 -30 34 -85
127 -85 143 0 10 -46 87 -60 101 -21 20 -50 73 -50 89 0 11 -13 35 -28 53 -16
18 -32 45 -35 60 -4 14 -25 49 -48 78 -22 28 -45 66 -51 83 -6 18 -16 39 -23
47 -6 8 -18 31 -25 50 -7 19 -21 44 -31 55 -10 12 -22 36 -25 55 -4 19 -18 49
-31 66 -12 17 -23 38 -23 46 0 8 -9 25 -20 38 -11 13 -20 31 -20 40 0 10 -25
48 -55 86 -30 38 -55 76 -55 85 0 8 -11 30 -25 49 -21 28 -25 45 -25 102 0 47
-6 80 -19 106 -10 20 -21 67 -23 104 -4 48 -13 80 -32 112 -15 26 -26 60 -26
81 0 19 -11 58 -25 86 l-26 50 5 221 c4 205 6 223 25 249 21 28 21 37 21 436
l0 407 -24 25 c-13 14 -28 39 -33 55 -6 20 -20 33 -40 40 -16 6 -37 18 -46 27
-13 13 -38 17 -124 17 -96 1 -110 -1 -130 -20 -21 -20 -82 -37 -133 -37 l-25
0 29 21 c33 25 56 74 56 119 0 22 -10 41 -34 65 -29 29 -41 34 -83 34 -42 0
-53 -4 -80 -32z m-2546 -592 c12 -14 30 -37 40 -52 10 -16 34 -43 53 -60 24
-22 43 -54 58 -96 38 -109 26 -154 -60 -213 -29 -20 -64 -44 -78 -55 -41 -30
-67 -34 -80 -11 -9 18 -21 206 -24 393 -1 57 2 70 23 92 30 32 42 32 68 2z
m2979 -121 c18 -27 16 -50 -10 -150 -9 -33 -16 -81 -16 -106 0 -25 -4 -59 -9
-75 -5 -16 -14 -72 -21 -124 -7 -52 -16 -104 -20 -116 -13 -33 -56 -20 -84 25
-13 20 -49 75 -80 123 -56 88 -56 88 -56 166 l0 78 63 46 c34 26 73 57 87 70
30 29 112 88 122 88 4 0 15 -11 24 -25z m-2872 -606 c19 -16 38 -39 41 -49 3
-10 22 -28 41 -39 24 -14 42 -37 58 -72 24 -56 28 -55 64 17 12 23 33 49 49
59 15 10 42 33 59 51 l32 34 125 0 c133 0 264 -23 309 -54 12 -9 33 -16 46
-16 15 0 26 -7 29 -19 4 -18 6 -18 42 2 24 13 45 18 61 14 49 -13 55 -23 60
-102 5 -72 4 -75 -17 -75 -12 0 -23 4 -25 10 -2 5 -9 6 -17 1 -21 -13 6 -132
31 -139 26 -6 25 -78 0 -84 -13 -4 -19 -16 -20 -45 -6 -102 -56 -182 -169
-270 -43 -33 -65 -43 -122 -53 -132 -22 -294 21 -398 106 -97 79 -164 306
-128 434 6 25 6 25 -15 -3 -13 -16 -23 -45 -24 -68 -4 -73 -69 -134 -144 -134
-26 0 -61 -8 -79 -18 -65 -35 -141 -11 -190 61 -12 18 -36 43 -54 55 -67 46
-85 131 -40 196 10 14 18 43 18 63 2 79 67 138 153 138 25 0 54 7 64 15 12 9
42 15 73 15 44 0 58 -5 87 -31z m2120 10 c94 -35 174 -95 217 -163 59 -92 92
-205 77 -263 -5 -21 -13 -71 -18 -112 -7 -51 -16 -81 -30 -96 -11 -12 -20 -26
-20 -31 0 -25 -67 -86 -124 -114 -56 -26 -75 -30 -151 -30 -171 0 -340 84
-411 205 -24 42 -59 188 -49 205 2 4 9 35 14 70 15 93 82 219 144 271 88 75
240 100 351 58z"/>
<path d="M1470 6554 c0 -3 11 -15 25 -26 18 -14 25 -29 25 -52 0 -49 -30 -71
-97 -71 -48 0 -58 4 -79 28 -13 15 -24 32 -24 38 0 16 39 10 60 -11 23 -23 58
-26 84 -7 21 16 12 43 -17 51 -32 8 -110 7 -124 -2 -7 -5 -25 -41 -39 -81 -22
-62 -25 -85 -22 -159 6 -133 34 -199 115 -266 82 -68 153 -90 282 -85 l90 4
52 55 c70 75 99 138 99 218 0 35 -4 62 -10 62 -5 0 -10 -13 -10 -30 0 -19 -5
-30 -14 -30 -12 0 -14 13 -11 58 1 31 7 57 11 58 5 0 8 -7 6 -18 -2 -11 3 -18
14 -18 14 0 16 7 11 38 -6 46 -62 172 -77 172 -5 0 -10 -18 -10 -40 0 -32 -4
-40 -19 -40 -15 0 -19 11 -25 62 -8 77 -30 98 -34 33 -6 -84 -89 -122 -151
-69 -33 28 -42 75 -21 115 10 18 7 19 -40 19 -27 0 -50 -3 -50 -6z"/>
<path d="M2841 6528 c-29 -34 -67 -89 -84 -123 -40 -76 -42 -159 -7 -256 19
-53 33 -73 81 -114 66 -56 74 -60 178 -81 86 -18 122 -15 201 15 91 35 130
117 130 276 0 85 -3 102 -30 159 -56 117 -181 186 -340 186 l-77 0 -52 -62z"/>
</g>
</svg>
