<?xml version="1.0" standalone="no"?>
<!DOCTYPE svg PUBLIC "-//W3C//DTD SVG 20010904//EN"
 "http://www.w3.org/TR/2001/REC-SVG-20010904/DTD/svg10.dtd">
<svg version="1.0" xmlns="http://www.w3.org/2000/svg"
 width="704.000000pt" height="1280.000000pt" viewBox="0 0 704.000000 1280.000000"
 preserveAspectRatio="xMidYMid meet">
<metadata>
Created by potrace 1.16, written by Peter Selinger 2001-2019
</metadata>
<g transform="translate(0.000000,1280.000000) scale(0.100000,-0.100000)"
fill="#000000" stroke="none">
<path d="M4645 10563 c-244 -21 -415 -51 -595 -104 -532 -157 -915 -486 -1022
-876 -31 -114 -31 -327 0 -436 50 -175 142 -326 283 -465 254 -251 627 -420
1074 -488 153 -23 636 -27 785 -5 272 38 499 105 705 205 233 114 406 249 528
412 217 289 260 616 121 921 -158 349 -555 635 -1061 762 -246 62 -593 94
-818 74z m340 -163 c183 -12 293 -29 451 -70 510 -132 883 -425 975 -766 17
-60 22 -109 22 -204 1 -110 -3 -135 -26 -205 -110 -330 -431 -593 -890 -731
-99 -30 -243 -60 -380 -79 -120 -17 -496 -20 -632 -5 -395 44 -730 167 -970
355 -245 193 -365 411 -365 665 0 217 84 404 256 572 94 90 114 106 229 178
252 159 583 260 950 289 147 12 203 12 380 1z"/>
<path d="M4130 10086 c-57 -16 -80 -28 -157 -83 -69 -49 -120 -125 -160 -243
-35 -100 -32 -229 7 -339 67 -191 212 -372 475 -597 117 -99 195 -157 338
-249 83 -54 89 -57 118 -45 17 7 36 18 42 24 7 6 52 38 102 71 237 158 533
428 635 579 147 219 181 393 116 584 -43 124 -127 217 -252 278 -46 22 -73 28
-154 32 -117 6 -182 -8 -267 -55 -78 -43 -172 -144 -209 -224 -15 -32 -31 -59
-35 -59 -3 0 -16 22 -27 48 -91 212 -352 339 -572 278z m85 -152 c14 -9 28
-28 31 -41 6 -22 -4 -35 -73 -98 -43 -40 -90 -94 -104 -119 -26 -51 -39 -59
-75 -50 -46 12 -68 89 -42 151 6 15 12 31 12 35 1 3 16 27 34 53 22 32 49 54
85 71 56 27 89 26 132 -2z"/>
<path d="M3766 8305 c-58 -21 -88 -46 -113 -95 -80 -156 79 -323 239 -252 99
43 141 164 90 258 -19 35 -79 82 -119 93 -47 13 -49 13 -97 -4z m112 -92 c68
-43 45 -167 -34 -187 -60 -16 -134 37 -134 96 0 54 30 92 90 111 19 7 49 -1
78 -20z"/>
<path d="M3468 7973 c-57 -60 -57 -123 -1 -179 21 -22 28 -34 19 -34 -9 0 -20
-8 -25 -18 -5 -10 -18 -18 -28 -19 -20 -2 -55 -16 -93 -39 -15 -8 -37 -12 -56
-9 -24 4 -39 -1 -69 -25 -21 -16 -48 -30 -60 -30 -12 0 -32 -11 -45 -25 -13
-14 -38 -28 -57 -31 -18 -3 -40 -15 -47 -26 -7 -10 -29 -21 -49 -25 -29 -4
-40 -1 -67 26 l-33 31 -179 0 c-178 0 -178 0 -200 25 l-22 25 -471 0 -472 0
-23 25 c-15 15 -34 25 -52 25 -16 0 -46 11 -66 25 -20 14 -42 25 -48 25 -7 0
-22 11 -35 25 -16 16 -35 25 -56 25 -22 0 -36 6 -43 19 -17 33 -40 51 -66 51
-17 0 -27 8 -33 24 -5 13 -15 25 -23 27 -7 2 -95 4 -196 4 -153 0 -185 -3
-192 -15 -4 -8 -18 -26 -29 -39 -22 -25 -28 -79 -12 -109 4 -9 5 -81 1 -159
-6 -137 -7 -144 -33 -171 -37 -38 -39 -104 -4 -119 22 -10 24 -19 29 -105 3
-51 4 -178 2 -281 l-3 -188 -31 -29 c-25 -23 -30 -36 -30 -75 0 -36 -6 -54
-25 -77 -22 -26 -25 -39 -25 -112 0 -70 -3 -86 -20 -101 -18 -16 -20 -31 -20
-141 0 -123 0 -123 -30 -157 l-30 -35 0 -227 0 -227 -30 -35 c-28 -31 -30 -39
-24 -81 5 -42 3 -50 -20 -71 -19 -18 -26 -35 -26 -62 0 -30 -6 -42 -27 -56
-52 -35 -83 -74 -83 -104 0 -27 -24 -62 -72 -107 -10 -9 -18 -21 -18 -27 0 -6
-18 -33 -41 -60 -22 -27 -49 -66 -60 -87 -18 -36 -19 -80 -19 -1462 l0 -1424
33 -21 c18 -11 48 -38 65 -60 18 -23 45 -44 60 -47 15 -4 38 -17 52 -29 16
-14 43 -24 73 -28 34 -3 57 -13 76 -31 15 -15 39 -26 53 -26 16 0 33 -9 42
-21 12 -18 27 -23 78 -26 44 -3 68 -9 83 -23 18 -17 45 -21 200 -30 201 -11
2306 -14 2739 -3 272 6 279 7 306 30 26 21 36 23 153 23 117 0 127 2 154 23
22 19 45 25 106 30 57 5 85 13 107 28 22 17 46 23 101 25 55 2 79 7 101 24 20
14 58 26 112 34 45 7 93 20 106 29 15 10 43 17 71 17 35 0 57 7 90 30 24 16
56 30 72 30 15 0 35 9 44 20 10 11 32 23 50 26 18 3 36 10 38 15 3 4 26 11 51
15 31 4 54 15 68 31 11 14 35 32 51 40 17 9 33 20 36 26 15 22 122 50 240 61
97 10 134 18 161 34 20 12 49 22 66 22 18 0 43 10 60 24 16 14 59 33 98 42 38
9 80 24 94 34 14 9 36 21 50 27 85 36 419 322 420 359 0 6 16 31 36 57 38 49
81 123 115 200 12 26 25 47 29 47 10 0 40 74 40 98 0 9 9 34 20 54 10 20 22
60 26 90 3 29 17 96 31 148 24 88 25 106 20 255 -4 132 -9 170 -26 214 -12 30
-26 95 -31 149 -5 58 -17 111 -29 136 -10 23 -27 60 -37 84 -9 23 -20 42 -24
42 -4 0 -10 14 -14 32 -3 17 -17 45 -30 63 -13 17 -31 47 -39 67 -8 20 -55 76
-104 125 -174 175 -322 245 -525 247 -92 0 -99 -1 -170 -37 -41 -21 -95 -57
-120 -82 -37 -36 -47 -52 -53 -92 -3 -26 -13 -58 -21 -70 -22 -34 -17 -96 11
-149 14 -26 25 -53 25 -59 0 -7 7 -18 16 -25 8 -8 21 -27 28 -44 8 -17 48 -64
90 -105 42 -40 76 -77 76 -81 0 -5 15 -26 33 -49 67 -84 96 -127 103 -156 3
-16 15 -40 26 -52 22 -24 26 -72 9 -116 -6 -16 -11 -52 -11 -82 0 -68 -10 -93
-65 -165 -25 -32 -54 -78 -64 -102 -30 -70 -131 -161 -196 -178 -22 -6 -59
-19 -83 -30 -77 -36 -122 -22 -122 39 0 21 -7 55 -15 74 -10 24 -15 70 -15
131 0 87 -2 97 -25 122 -14 15 -25 32 -25 39 0 6 -11 26 -25 45 -14 19 -25 43
-25 55 0 12 -11 36 -25 55 -14 19 -25 38 -25 43 0 5 -9 20 -20 34 -11 14 -20
37 -20 50 0 25 -29 68 -82 123 -22 21 -28 38 -28 69 0 28 -5 44 -15 48 -9 3
-23 20 -32 37 -9 17 -31 48 -49 69 -19 20 -34 45 -34 56 0 10 -8 29 -19 42
-10 13 -21 34 -25 47 -4 12 -18 34 -30 50 -13 15 -26 43 -30 63 -3 20 -15 44
-27 54 -27 26 -79 118 -79 142 0 12 -7 26 -16 33 -8 8 -27 34 -42 59 -14 25
-32 52 -39 59 -7 7 -13 21 -13 31 0 10 -13 35 -30 56 -16 21 -30 45 -30 55 0
9 -22 45 -50 79 -27 34 -54 79 -60 100 -5 21 -16 44 -24 50 -8 7 -17 24 -21
38 -3 15 -17 40 -31 56 -13 16 -24 41 -24 56 0 16 -10 37 -25 51 -14 13 -25
33 -25 45 0 12 -9 33 -19 47 -11 13 -23 36 -26 49 -3 14 -28 51 -56 83 -27 32
-49 66 -49 77 0 11 -11 37 -25 57 -19 28 -25 50 -25 92 -1 30 -8 73 -16 95 -9
22 -20 74 -26 115 -6 46 -19 90 -34 116 -14 23 -24 57 -24 78 0 20 -12 59 -26
86 l-26 49 7 208 c7 230 10 256 31 274 12 10 14 77 14 421 l0 409 -24 32 c-14
18 -28 44 -31 60 -5 19 -13 27 -30 27 -12 0 -34 9 -48 21 -22 16 -45 21 -131
24 -99 5 -106 3 -133 -19 -20 -16 -46 -25 -90 -30 l-61 -6 33 33 c84 84 36
207 -81 207 -31 0 -46 -6 -66 -27z m-2538 -615 c17 -23 52 -65 77 -92 46 -50
83 -135 83 -191 0 -48 -30 -93 -75 -115 -11 -6 -42 -26 -69 -45 -56 -41 -91
-45 -102 -13 -3 12 -7 73 -9 137 -1 64 -6 157 -10 206 -7 89 -7 91 20 123 15
17 33 32 41 32 8 0 28 -19 44 -42z m2968 -100 c16 -16 15 -57 -4 -109 -9 -24
-17 -78 -18 -119 -1 -41 -8 -91 -14 -110 -6 -19 -18 -82 -26 -139 -8 -57 -20
-109 -25 -114 -16 -16 -60 9 -79 45 -9 17 -43 71 -74 119 -58 87 -58 87 -58
163 0 48 5 79 13 85 6 6 46 37 87 70 41 32 88 73 104 90 31 33 72 41 94 19z
m-2921 -569 c17 -11 33 -25 36 -33 3 -7 25 -18 50 -24 67 -17 127 -97 127
-170 0 -22 18 -4 46 48 15 27 35 52 45 55 11 4 31 22 45 40 32 43 76 56 151
45 32 -4 75 -5 95 -2 44 5 168 -22 220 -49 20 -10 46 -19 57 -19 11 0 22 -9
26 -19 6 -18 7 -18 43 2 25 13 46 18 62 14 49 -13 55 -23 60 -102 5 -72 4 -75
-17 -75 -12 0 -23 4 -25 10 -2 5 -9 6 -17 1 -21 -13 6 -132 31 -139 24 -6 26
-82 3 -82 -8 0 -17 -10 -19 -22 -22 -113 -30 -138 -64 -184 -36 -50 -114 -124
-153 -144 -11 -6 -36 -13 -57 -16 -20 -2 -49 -7 -64 -10 -82 -17 -267 41 -352
110 -49 41 -109 153 -127 241 -7 33 -14 62 -15 64 -2 2 -17 -8 -33 -22 -17
-14 -45 -28 -63 -32 -18 -4 -46 -20 -63 -35 -56 -53 -119 -64 -185 -30 -22 11
-44 29 -50 40 -6 11 -20 20 -31 20 -33 0 -92 38 -117 75 -20 29 -23 45 -22
112 1 43 -1 92 -5 110 -15 67 59 163 125 163 14 0 39 14 61 36 58 56 127 64
196 23z m2173 -32 c100 -41 169 -95 216 -168 24 -37 44 -71 44 -76 0 -4 10
-38 22 -76 21 -65 21 -69 5 -120 -9 -30 -17 -70 -17 -91 0 -37 -14 -74 -51
-136 -35 -58 -61 -82 -126 -111 -87 -40 -202 -41 -318 -3 -76 25 -166 81 -207
129 -56 66 -104 236 -79 283 6 11 11 35 11 52 0 28 40 125 72 175 55 85 106
126 187 147 94 24 174 22 241 -5z"/>
<path d="M914 6536 c-35 -55 8 -166 65 -166 45 0 65 31 57 87 -8 62 -34 97
-74 101 -24 2 -34 -3 -48 -22z"/>
<path d="M1470 6554 c0 -3 11 -15 25 -26 18 -14 25 -29 25 -52 0 -49 -30 -71
-97 -71 -48 0 -58 4 -79 29 -14 15 -23 33 -21 40 6 16 35 8 58 -15 22 -22 57
-25 83 -6 45 33 -27 68 -107 51 -43 -9 -45 -12 -82 -99 -25 -58 -21 -190 7
-274 28 -85 100 -158 185 -192 60 -23 208 -38 259 -25 36 9 123 102 150 161
25 52 34 175 14 175 -5 0 -10 -13 -10 -30 0 -20 -5 -30 -15 -30 -13 0 -15 11
-13 63 2 37 7 60 13 57 6 -3 9 -13 9 -23 -2 -21 20 -17 24 5 5 24 -57 175 -73
182 -12 4 -15 -4 -15 -34 0 -32 -4 -40 -19 -40 -15 0 -19 11 -25 62 -8 77 -30
98 -34 33 -6 -84 -89 -122 -151 -69 -33 28 -42 75 -21 115 10 18 7 19 -40 19
-27 0 -50 -3 -50 -6z"/>
<path d="M745 6495 c-27 -26 -30 -43 -15 -94 20 -70 78 -102 113 -63 33 36 12
148 -31 171 -30 16 -40 14 -67 -14z"/>
<path d="M2852 6541 c-31 -33 -70 -90 -94 -138 -38 -78 -40 -86 -33 -140 21
-177 109 -274 280 -309 79 -16 159 -14 179 6 6 6 20 10 33 10 56 0 111 111
124 251 9 95 9 98 -21 164 -44 98 -102 149 -205 180 -44 13 -109 26 -145 28
l-65 4 -53 -56z"/>
</g>
</svg>
