<?xml version="1.0" standalone="no"?>
<!DOCTYPE svg PUBLIC "-//W3C//DTD SVG 20010904//EN"
 "http://www.w3.org/TR/2001/REC-SVG-20010904/DTD/svg10.dtd">
<svg version="1.0" xmlns="http://www.w3.org/2000/svg"
 width="704.000000pt" height="1280.000000pt" viewBox="0 0 704.000000 1280.000000"
 preserveAspectRatio="xMidYMid meet">
<metadata>
Created by potrace 1.16, written by Peter Selinger 2001-2019
</metadata>
<g transform="translate(0.000000,1280.000000) scale(0.100000,-0.100000)"
fill="#000000" stroke="none">
<path d="M4590 10559 c-809 -70 -1411 -446 -1562 -974 -32 -114 -32 -324 1
-440 136 -484 647 -842 1361 -952 163 -25 645 -25 809 0 441 67 766 203 1032
430 213 182 335 397 369 649 14 99 -1 238 -37 353 -140 444 -647 797 -1298
904 -228 38 -465 48 -675 30z m420 -159 c321 -28 587 -98 823 -216 239 -120
458 -329 542 -518 43 -98 58 -173 59 -301 1 -133 -17 -212 -76 -330 -145 -288
-492 -524 -940 -639 -352 -90 -898 -91 -1233 -1 -186 50 -325 102 -451 171
-507 275 -691 717 -477 1144 42 82 63 110 159 207 118 119 215 188 375 269
326 165 810 250 1219 214z"/>
<path d="M4239 9956 c-98 -26 -186 -103 -240 -208 -32 -63 -45 -182 -30 -269
33 -180 190 -380 487 -615 115 -92 242 -174 269 -174 45 0 377 253 506 386
111 114 163 183 203 267 58 123 70 250 34 358 -36 110 -98 183 -194 230 -43
21 -63 24 -164 24 -106 0 -119 -2 -172 -29 -73 -36 -150 -111 -179 -176 -12
-27 -25 -50 -28 -50 -3 0 -16 20 -29 44 -86 162 -294 258 -463 212z m69 -122
c38 -26 28 -55 -41 -116 -34 -30 -71 -71 -82 -91 -29 -55 -63 -59 -89 -10 -34
65 40 199 121 221 54 14 66 14 91 -4z"/>
<path d="M3773 8310 c-44 -10 -76 -33 -110 -77 -24 -31 -28 -45 -28 -103 0
-57 4 -73 29 -108 91 -133 293 -95 335 63 23 88 -28 181 -121 219 -40 17 -56
18 -105 6z m118 -111 c78 -84 -18 -217 -119 -165 -60 31 -78 87 -47 146 20 38
41 49 93 50 36 0 49 -5 73 -31z"/>
<path d="M3467 7970 c-19 -17 -37 -44 -41 -61 -7 -39 16 -97 52 -126 19 -16
22 -23 11 -23 -9 0 -24 -9 -34 -20 -10 -11 -24 -20 -32 -20 -8 0 -33 -10 -56
-22 -23 -12 -62 -23 -86 -25 -26 -1 -52 -10 -65 -21 -12 -11 -38 -25 -59 -32
-21 -6 -49 -23 -62 -36 -13 -13 -33 -24 -43 -24 -11 0 -31 -9 -45 -20 -36 -28
-92 -26 -129 5 -29 25 -32 25 -204 25 -174 0 -175 0 -198 25 l-23 25 -468 0
-467 0 -30 25 c-20 17 -42 25 -66 25 -26 0 -41 6 -49 19 -7 11 -26 22 -43 26
-16 4 -36 15 -43 26 -8 10 -29 22 -48 25 -20 4 -47 21 -65 40 -18 19 -41 34
-53 34 -14 0 -25 9 -31 25 -9 23 -15 25 -72 25 -35 0 -120 3 -191 7 l-127 6
-32 -36 -33 -36 0 -201 0 -202 -27 -20 c-38 -27 -40 -90 -3 -124 23 -21 25
-31 27 -111 1 -48 3 -115 4 -148 1 -33 -1 -118 -4 -189 -5 -126 -6 -129 -34
-154 -24 -22 -28 -33 -28 -77 0 -42 -5 -56 -25 -75 -22 -20 -24 -31 -24 -101
0 -65 -3 -83 -22 -108 -20 -28 -22 -41 -21 -157 l1 -127 -30 -26 -29 -25 0
-233 0 -232 -27 -26 c-24 -22 -28 -32 -26 -77 2 -41 -2 -56 -22 -80 -14 -17
-25 -42 -25 -59 0 -16 -9 -37 -19 -46 -83 -78 -91 -87 -91 -113 0 -16 -12 -41
-30 -61 -52 -59 -58 -67 -64 -86 -3 -10 -17 -30 -30 -44 -14 -15 -39 -49 -55
-77 l-31 -49 0 -1426 0 -1426 21 -12 c20 -10 35 -25 98 -93 13 -14 32 -26 43
-26 10 0 29 -11 42 -25 19 -20 33 -25 73 -25 42 0 54 -5 78 -30 16 -17 39 -30
52 -30 13 0 34 -11 47 -25 19 -20 33 -25 75 -25 37 0 60 -6 80 -21 15 -11 52
-23 82 -27 62 -8 2918 -9 3055 -1 73 4 96 9 119 27 25 20 39 22 145 22 106 0
120 2 145 22 22 17 47 23 109 28 65 5 88 11 119 32 32 22 48 26 108 26 59 0
75 4 94 22 17 16 42 23 104 29 53 6 88 14 100 25 11 10 47 21 82 26 35 5 75
18 90 29 15 11 46 25 68 30 22 5 52 18 67 30 15 11 32 21 39 21 7 0 26 7 41
15 16 8 41 15 55 15 15 0 37 12 54 30 16 17 34 30 40 30 6 0 26 13 45 30 19
16 45 29 58 30 12 0 33 6 45 14 13 8 72 18 144 24 99 8 127 14 149 31 18 14
41 21 71 21 34 0 49 6 68 26 15 16 44 30 82 39 70 17 199 85 258 137 24 21 46
38 50 38 29 0 259 216 271 254 4 12 13 28 21 36 22 23 83 123 83 136 0 6 9 19
19 28 11 10 22 30 26 44 3 15 15 36 25 47 10 11 26 49 35 85 9 36 23 72 31 81
8 9 18 47 23 85 5 38 19 105 31 149 20 72 22 96 18 245 -4 136 -9 174 -26 216
-12 30 -23 87 -27 145 -4 52 -13 104 -21 116 -8 12 -23 46 -35 75 -11 29 -27
60 -34 68 -7 8 -18 33 -24 56 -6 22 -20 49 -31 59 -10 9 -24 32 -30 51 -9 28
-46 78 -77 106 -5 3 -35 32 -67 63 -168 161 -354 231 -545 205 -100 -14 -149
-40 -232 -120 -37 -35 -48 -55 -54 -90 -4 -25 -14 -54 -21 -65 -21 -30 -17
-77 14 -152 47 -114 101 -190 180 -254 23 -19 47 -49 53 -67 6 -17 19 -37 30
-42 10 -6 26 -25 35 -43 9 -18 27 -42 40 -54 13 -12 24 -33 24 -46 0 -13 12
-41 26 -62 22 -33 25 -45 19 -84 -3 -25 -8 -79 -11 -120 -3 -43 -13 -85 -22
-100 -19 -30 -71 -99 -90 -119 -7 -8 -16 -27 -19 -43 -3 -17 -32 -54 -70 -93
-56 -55 -76 -68 -151 -96 -120 -43 -128 -45 -157 -26 -19 12 -25 25 -25 51 0
18 -5 46 -12 62 -6 15 -14 76 -17 135 -5 92 -9 110 -29 130 -12 14 -22 30 -22
37 0 7 -11 26 -25 43 -14 17 -25 42 -25 59 0 16 -4 29 -10 29 -5 0 -10 7 -10
15 0 8 -4 15 -9 15 -13 0 -61 99 -61 126 0 14 -7 27 -15 31 -9 3 -23 20 -32
37 -9 17 -26 42 -39 55 -16 15 -24 35 -24 57 0 22 -9 43 -30 66 -16 18 -30 38
-30 44 0 7 -13 26 -29 43 -16 17 -31 41 -35 54 -3 13 -17 40 -31 61 -14 20
-25 40 -25 45 0 4 -11 20 -24 36 -13 15 -27 45 -30 66 -3 21 -14 44 -25 51
-23 16 -81 110 -81 130 0 9 -8 26 -19 39 -17 22 -46 70 -78 129 -7 14 -13 32
-13 41 0 9 -13 30 -30 47 -16 18 -30 40 -30 50 0 10 -25 49 -55 87 -30 38 -55
79 -55 91 0 12 -6 27 -13 33 -8 6 -20 29 -27 51 -7 21 -24 49 -36 61 -14 13
-24 34 -24 49 0 14 -11 41 -25 60 -14 19 -25 41 -25 51 0 9 -8 27 -18 40 -11
13 -22 36 -25 50 -4 14 -29 51 -57 83 -27 31 -50 66 -50 77 0 11 -11 37 -25
57 -20 30 -25 49 -25 102 0 46 -6 76 -20 103 -13 24 -20 56 -20 90 0 38 -8 68
-25 103 -14 27 -28 69 -32 94 -3 25 -15 63 -27 85 -19 37 -21 56 -20 267 0
221 1 228 22 251 22 23 22 25 25 435 l2 411 -27 28 c-16 16 -28 38 -28 49 0
25 -18 44 -41 44 -10 0 -30 11 -46 23 -25 22 -38 24 -133 25 -98 1 -106 0
-130 -23 -20 -19 -41 -26 -90 -31 l-65 -7 28 22 c15 13 34 36 42 51 60 116
-81 226 -178 140z m-2529 -622 c12 -18 41 -53 66 -77 34 -33 51 -62 67 -109
34 -101 17 -162 -54 -199 -16 -8 -49 -30 -74 -49 -50 -38 -88 -44 -98 -15 -6
20 -18 266 -19 385 0 63 2 70 27 92 34 29 54 22 85 -28z m2962 -97 c14 -27 12
-58 -6 -111 -9 -25 -17 -81 -19 -125 -1 -44 -7 -91 -12 -105 -6 -14 -16 -63
-22 -110 -17 -121 -20 -130 -36 -130 -31 0 -68 26 -85 61 -11 20 -44 74 -75
120 -49 73 -56 88 -51 119 3 19 6 51 6 71 0 32 6 40 66 84 36 26 91 70 122 96
61 52 95 61 112 30z m-2879 -565 c34 -7 99 -79 99 -109 0 -13 19 -43 45 -71
l45 -49 12 29 c20 46 49 84 63 84 8 0 23 12 35 28 36 45 57 51 183 51 125 0
256 -23 303 -53 13 -9 33 -16 45 -16 12 0 23 -8 26 -19 4 -18 6 -18 42 2 24
13 45 18 61 14 49 -13 55 -23 60 -102 5 -72 4 -75 -17 -75 -12 0 -23 5 -25 10
-2 7 -9 6 -20 -2 -15 -12 -15 -17 -3 -53 8 -22 15 -50 15 -62 0 -16 6 -23 20
-23 17 0 20 -7 20 -39 0 -29 -5 -40 -18 -43 -12 -3 -18 -16 -20 -39 -7 -95
-67 -198 -154 -265 -71 -54 -66 -52 -147 -65 -54 -8 -90 -8 -144 1 -129 21
-279 110 -307 183 -7 17 -23 55 -36 82 -12 28 -28 83 -35 123 -13 79 -28 89
-43 27 -20 -84 -119 -142 -199 -116 -24 8 -42 9 -61 1 -38 -14 -82 -13 -115 5
-37 18 -79 69 -87 103 -4 15 -24 45 -44 68 -47 52 -58 103 -34 163 9 23 27 50
39 59 13 10 28 36 34 58 22 80 84 119 175 111 34 -3 77 -2 96 3 19 4 42 6 50
5 8 -2 27 -6 41 -9z m2110 -22 c85 -25 181 -94 229 -164 59 -87 99 -226 79
-276 -6 -16 -15 -60 -19 -99 -8 -80 -41 -137 -114 -202 -60 -52 -122 -72 -226
-72 -84 0 -167 21 -248 63 -40 21 -137 116 -157 156 -19 37 -49 186 -40 200 2
4 7 25 11 46 14 97 85 237 142 282 49 39 71 49 134 66 71 20 143 19 209 0z"/>
<path d="M914 6536 c-35 -55 8 -166 65 -166 45 0 65 31 57 87 -8 62 -34 97
-74 101 -24 2 -34 -3 -48 -22z"/>
<path d="M1470 6554 c0 -3 11 -15 25 -26 18 -14 25 -29 25 -52 0 -49 -30 -71
-97 -71 -48 0 -58 4 -79 28 -13 15 -24 32 -24 38 0 16 39 10 60 -11 23 -23 58
-26 84 -7 45 33 -22 66 -108 53 -44 -7 -45 -8 -72 -74 -36 -88 -35 -185 1
-300 23 -73 31 -86 79 -127 79 -67 158 -95 268 -95 60 0 99 5 118 15 37 19
107 106 131 163 20 47 26 162 9 162 -5 0 -10 -13 -10 -30 0 -19 -5 -30 -14
-30 -11 0 -14 14 -12 63 2 34 7 60 12 58 5 -2 8 -12 6 -23 -4 -22 16 -24 25
-2 9 25 -59 194 -78 194 -5 0 -9 -18 -9 -40 0 -32 -4 -40 -19 -40 -15 0 -19
11 -25 62 -8 77 -30 98 -34 33 -6 -84 -89 -122 -151 -69 -33 28 -42 75 -21
115 10 18 7 19 -40 19 -27 0 -50 -3 -50 -6z"/>
<path d="M745 6495 c-27 -26 -30 -43 -15 -94 20 -70 78 -102 113 -63 36 39 10
154 -38 172 -35 13 -32 14 -60 -15z"/>
<path d="M2846 6534 c-79 -88 -121 -180 -120 -260 1 -96 35 -174 102 -235 31
-28 66 -55 80 -60 34 -13 163 -39 192 -39 47 0 140 36 170 65 41 39 68 131 72
242 2 79 0 94 -26 151 -51 110 -152 174 -297 188 -30 2 -68 6 -85 8 -27 4 -37
-3 -88 -60z"/>
</g>
</svg>
