<?xml version="1.0" standalone="no"?>
<!DOCTYPE svg PUBLIC "-//W3C//DTD SVG 20010904//EN"
 "http://www.w3.org/TR/2001/REC-SVG-20010904/DTD/svg10.dtd">
<svg version="1.0" xmlns="http://www.w3.org/2000/svg"
 width="704.000000pt" height="1280.000000pt" viewBox="0 0 704.000000 1280.000000"
 preserveAspectRatio="xMidYMid meet">
<metadata>
Created by potrace 1.16, written by Peter Selinger 2001-2019
</metadata>
<g transform="translate(0.000000,1280.000000) scale(0.100000,-0.100000)"
fill="#000000" stroke="none">
<path d="M4570 10555 c-191 -18 -316 -39 -468 -81 -425 -116 -757 -334 -947
-618 -110 -166 -148 -293 -149 -496 0 -111 3 -149 22 -214 119 -416 497 -731
1067 -890 242 -67 469 -91 784 -83 570 14 1030 170 1365 462 337 295 449 719
285 1083 -72 160 -223 340 -384 460 -279 206 -661 339 -1085 377 -194 17 -293
17 -490 0z m431 -155 c308 -24 548 -84 784 -194 168 -79 276 -153 398 -274
137 -134 211 -268 242 -437 96 -507 -360 -967 -1110 -1120 -213 -43 -582 -59
-813 -35 -284 31 -568 116 -787 237 -200 111 -357 259 -458 433 -98 171 -114
421 -37 621 51 135 185 301 334 413 351 264 899 398 1447 356z"/>
<path d="M4645 10083 c-22 -2 -54 -10 -72 -18 -17 -8 -37 -15 -45 -15 -8 0
-51 -18 -96 -40 -63 -30 -99 -56 -150 -109 -87 -89 -141 -160 -148 -191 -2
-14 -13 -41 -23 -60 -30 -56 -44 -172 -38 -292 6 -97 10 -113 45 -186 66 -133
131 -214 242 -298 236 -179 594 -155 823 55 26 24 62 44 97 54 55 17 55 17 73
-8 16 -22 89 -51 171 -70 16 -3 25 -10 20 -14 -9 -9 -162 -48 -354 -91 -112
-25 -176 -54 -204 -93 -19 -26 -19 -30 -6 -54 38 -67 169 -94 363 -74 269 28
476 136 451 235 -3 14 -21 40 -40 59 l-34 34 37 24 c45 29 83 92 83 138 0 67
-98 131 -203 131 -77 0 -187 -52 -299 -142 -34 -27 -48 -16 -25 20 9 15 24 43
32 62 9 19 26 55 38 80 30 60 36 242 13 344 -60 255 -259 452 -511 504 -58 12
-183 20 -240 15z m1097 -959 c29 -15 48 -42 48 -68 0 -22 -62 -87 -104 -110
-34 -18 -36 -18 -128 3 -108 26 -168 49 -168 66 0 20 63 73 113 95 90 40 177
45 239 14z m-32 -283 c67 -49 18 -109 -135 -164 -102 -36 -204 -51 -345 -51
-139 0 -205 17 -198 51 5 27 59 48 208 83 199 45 288 69 339 91 52 21 93 18
131 -10z"/>
<path d="M3762 8307 c-48 -18 -102 -65 -118 -103 -65 -154 90 -313 243 -249
74 31 116 97 114 177 -1 78 -46 140 -123 172 -43 19 -70 19 -116 3z m92 -81
c44 -18 66 -52 66 -99 0 -31 -7 -46 -35 -74 -32 -32 -39 -35 -78 -30 -111 15
-134 159 -33 203 39 17 40 17 80 0z"/>
<path d="M3464 7966 c-28 -28 -34 -41 -34 -77 0 -45 21 -87 56 -114 14 -10 15
-14 5 -15 -8 0 -25 -10 -37 -21 -13 -12 -34 -23 -48 -24 -14 -2 -38 -13 -52
-24 -18 -14 -41 -21 -71 -21 -34 0 -53 -6 -75 -25 -16 -14 -38 -25 -48 -25
-11 0 -35 -13 -53 -30 -19 -16 -46 -30 -59 -30 -14 0 -33 -9 -43 -20 -13 -15
-31 -20 -65 -20 -41 0 -48 3 -59 26 -11 24 -15 26 -74 23 -34 -1 -117 -2 -185
-1 -115 2 -123 3 -143 26 l-21 24 -469 -1 -468 -1 -28 26 c-16 14 -45 28 -67
31 -21 4 -49 15 -61 27 -12 11 -26 20 -33 20 -6 0 -28 11 -48 25 -20 14 -47
25 -60 25 -14 0 -32 11 -45 29 -12 16 -34 32 -50 35 -18 3 -34 15 -41 31 -14
32 -34 36 -128 31 -41 -2 -121 -4 -177 -5 l-101 -1 -23 -36 c-21 -35 -22 -45
-20 -223 l2 -186 -31 -33 c-41 -45 -42 -95 0 -131 l29 -26 2 -190 c1 -104 -2
-228 -6 -275 -7 -74 -12 -88 -36 -111 -24 -22 -26 -31 -22 -70 5 -40 2 -48
-27 -76 -31 -31 -33 -35 -27 -88 6 -61 -4 -111 -27 -129 -11 -8 -15 -43 -18
-149 -3 -138 -3 -139 -30 -161 l-28 -22 0 -232 0 -233 -27 -27 c-24 -23 -27
-34 -26 -79 2 -43 -1 -55 -22 -75 -18 -16 -25 -34 -25 -60 0 -33 -6 -42 -42
-68 -50 -37 -63 -55 -72 -100 -4 -20 -23 -53 -46 -78 -22 -24 -40 -47 -40 -52
0 -4 -19 -32 -43 -62 -23 -29 -50 -65 -60 -80 -16 -25 -17 -122 -17 -1456 l0
-1429 40 -27 c21 -14 49 -40 62 -56 12 -17 41 -39 63 -49 22 -10 46 -25 54
-34 9 -11 29 -17 56 -17 31 0 52 -7 72 -24 15 -13 45 -26 65 -30 21 -4 43 -15
50 -25 9 -13 30 -20 71 -23 39 -3 64 -11 80 -25 15 -14 42 -22 88 -27 58 -5
2946 -8 3075 -2 35 1 60 9 79 24 25 20 39 22 156 22 119 0 129 2 156 24 22 18
45 24 113 30 61 5 90 12 105 25 15 14 41 20 98 23 62 4 82 9 101 27 17 16 44
24 110 32 63 8 93 16 107 30 11 11 33 19 52 19 48 0 102 18 122 40 11 12 31
20 51 20 20 0 44 9 62 25 17 14 39 25 49 25 11 0 28 7 39 15 10 8 33 15 49 15
36 0 48 8 64 38 6 12 18 22 25 22 7 0 30 14 51 30 21 17 44 30 52 30 8 0 27 7
43 15 18 9 78 18 159 23 116 7 133 11 151 30 15 15 33 22 60 22 29 0 48 8 73
30 19 17 41 30 49 30 34 0 129 31 164 54 196 127 394 293 453 380 35 52 78
125 94 161 8 17 21 36 30 44 10 7 17 20 17 29 0 8 13 36 29 61 16 25 32 65 36
88 4 23 15 53 26 67 10 13 23 52 28 87 5 35 19 105 31 154 20 81 22 106 16
255 -5 138 -9 171 -26 205 -11 21 -20 53 -20 70 -1 49 -26 193 -37 207 -6 7
-16 31 -23 53 -7 22 -23 58 -36 81 -13 22 -24 48 -24 56 0 8 -13 32 -30 53
-16 21 -30 44 -30 52 0 25 -148 176 -244 250 -72 55 -138 85 -245 113 -161 41
-276 18 -392 -78 -70 -57 -89 -85 -89 -130 0 -15 -10 -42 -21 -61 -23 -38 -22
-75 4 -133 9 -18 19 -44 23 -58 4 -14 17 -38 30 -53 13 -16 24 -32 24 -37 0
-5 34 -43 74 -84 41 -42 80 -86 87 -98 7 -13 23 -36 36 -53 13 -16 39 -49 58
-72 18 -24 37 -58 41 -75 3 -18 16 -46 28 -63 27 -39 28 -43 10 -100 -7 -27
-14 -75 -14 -107 0 -69 -7 -85 -70 -158 -26 -31 -50 -69 -54 -85 -12 -56 -134
-169 -199 -185 -23 -6 -61 -19 -85 -30 -80 -37 -135 -18 -125 44 3 19 -1 44
-8 57 -7 14 -16 72 -19 134 -5 97 -8 113 -28 133 -12 12 -22 28 -22 35 0 7
-11 28 -25 47 -14 19 -25 43 -25 55 0 11 -8 32 -17 45 -28 39 -73 133 -73 152
0 9 -6 21 -14 25 -8 4 -24 25 -36 46 -12 21 -31 42 -41 48 -14 7 -19 21 -19
49 0 48 -8 70 -26 70 -8 0 -20 12 -26 28 -7 15 -25 40 -40 56 -15 16 -30 41
-33 56 -3 15 -17 42 -31 61 -13 18 -24 38 -24 43 0 6 -14 29 -30 50 -17 22
-30 52 -30 66 0 15 -9 35 -20 45 -22 20 -80 118 -80 136 0 5 -10 25 -23 42
-46 66 -87 140 -87 160 0 7 -13 26 -30 42 -16 16 -30 38 -30 49 0 12 -25 52
-55 90 -30 38 -55 74 -55 82 0 18 -69 150 -86 164 -8 7 -14 25 -14 39 0 15
-11 42 -25 61 -14 19 -25 40 -25 48 0 8 -9 25 -20 39 -11 14 -20 33 -20 43 0
16 -54 94 -92 132 -10 10 -18 29 -18 42 0 13 -10 35 -21 50 -15 19 -24 51 -30
107 -5 44 -16 93 -24 109 -8 16 -15 53 -15 83 0 41 -7 68 -30 110 -16 31 -30
71 -30 88 0 18 -12 56 -26 86 l-25 54 6 217 c5 191 8 220 25 249 19 33 20 53
20 441 l0 406 -24 25 c-13 15 -28 40 -33 56 -6 20 -19 33 -39 40 -16 6 -40 18
-54 27 -20 13 -46 16 -127 14 -93 -3 -104 -5 -133 -29 -25 -21 -41 -26 -79
-26 -26 1 -57 -2 -69 -5 -35 -11 -26 2 12 18 89 37 99 168 16 211 -50 26 -97
20 -136 -19z m-2533 -608 c12 -18 44 -57 71 -85 61 -66 81 -111 82 -190 1 -70
-6 -81 -99 -147 -135 -97 -146 -91 -150 85 -1 68 -6 165 -9 214 -7 81 -5 93
13 123 14 22 28 32 45 32 17 0 32 -11 47 -32z m2973 -116 c13 -25 12 -34 -4
-83 -10 -30 -24 -100 -30 -154 -20 -165 -43 -305 -53 -323 -13 -20 -45 -14
-72 15 -14 15 -25 31 -25 36 0 8 -52 89 -95 146 -22 30 -25 44 -25 112 l0 78
73 58 c39 32 74 61 77 64 19 23 105 79 121 79 10 0 25 -12 33 -28z m-753 -582
c79 -31 171 -103 212 -163 48 -74 81 -186 73 -252 -3 -27 -10 -79 -14 -115
-15 -115 -76 -203 -177 -251 -131 -63 -353 -25 -476 82 -75 65 -108 121 -125
212 -19 98 -5 175 55 296 38 78 55 102 98 135 29 23 74 48 100 58 70 24 189
23 254 -2z m-1432 -35 c36 -9 81 -28 101 -42 38 -24 100 -94 100 -111 0 -5 9
-21 20 -34 10 -14 29 -60 41 -103 29 -108 21 -225 -23 -305 -32 -59 -101 -135
-159 -176 -115 -79 -380 -36 -505 82 -61 58 -133 236 -134 332 0 56 31 175 56
212 13 19 24 40 24 47 0 17 106 88 157 105 59 20 239 16 322 -7z"/>
<path d="M2851 6538 c-57 -61 -116 -164 -126 -221 -9 -46 12 -151 40 -206 25
-48 98 -115 150 -136 17 -7 67 -18 112 -25 74 -12 88 -12 145 5 81 24 112 53
142 134 70 184 7 389 -139 454 -22 10 -49 23 -60 29 -11 6 -63 14 -115 18
l-95 6 -54 -58z"/>
<path d="M1440 6545 c-14 -8 -48 -22 -76 -30 l-52 -16 -32 -90 c-36 -97 -36
-134 -3 -249 22 -78 48 -119 103 -165 74 -61 146 -85 253 -85 104 0 132 13
192 86 56 68 75 128 75 234 0 79 -4 99 -30 158 -39 85 -61 108 -135 143 -54
26 -70 29 -165 29 -73 -1 -113 -5 -130 -15z"/>
</g>
</svg>
