<?xml version="1.0" standalone="no"?>
<!DOCTYPE svg PUBLIC "-//W3C//DTD SVG 20010904//EN"
 "http://www.w3.org/TR/2001/REC-SVG-20010904/DTD/svg10.dtd">
<svg version="1.0" xmlns="http://www.w3.org/2000/svg"
 width="704.000000pt" height="1280.000000pt" viewBox="0 0 704.000000 1280.000000"
 preserveAspectRatio="xMidYMid meet">
<metadata>
Created by potrace 1.16, written by Peter Selinger 2001-2019
</metadata>
<g transform="translate(0.000000,1280.000000) scale(0.100000,-0.100000)"
fill="#000000" stroke="none">
<path d="M4865 11174 c-304 -35 -526 -84 -725 -161 -110 -43 -321 -152 -411
-214 -140 -96 -218 -168 -312 -284 -201 -250 -276 -530 -218 -811 53 -255 187
-460 428 -654 125 -101 158 -120 478 -270 73 -35 279 -94 415 -119 268 -50
602 -64 870 -36 265 27 411 58 660 142 311 103 614 310 780 532 89 119 175
312 192 434 13 92 -1 314 -27 412 -17 66 -96 228 -150 308 -166 251 -508 482
-895 607 -145 47 -375 93 -555 110 -93 9 -462 11 -530 4z m625 -189 c63 -7
138 -19 165 -25 89 -22 284 -80 348 -104 94 -35 294 -138 393 -202 218 -141
394 -374 440 -584 23 -105 24 -296 1 -380 -58 -213 -217 -412 -462 -577 -210
-141 -537 -254 -865 -299 -166 -23 -623 -26 -790 -5 -468 58 -825 214 -1077
467 -149 151 -214 262 -263 453 -32 123 -25 278 19 412 66 203 237 403 473
552 224 142 558 254 853 287 198 22 599 24 765 5z"/>
<path d="M3965 8748 c-56 -29 -75 -47 -96 -93 -28 -60 -25 -122 9 -176 57 -89
112 -116 213 -107 41 4 57 12 90 44 51 49 69 83 69 131 0 162 -153 270 -285
201z m158 -96 c40 -38 54 -90 33 -131 -24 -45 -72 -73 -115 -67 -37 6 -88 47
-101 83 -20 50 26 125 86 143 38 11 63 4 97 -28z"/>
<path d="M3730 8423 c-64 -21 -90 -56 -90 -123 0 -41 25 -90 58 -116 12 -9 7
-15 -24 -35 -70 -43 -138 -70 -199 -80 -36 -6 -66 -17 -75 -28 -8 -10 -35 -24
-59 -31 -24 -8 -48 -22 -55 -32 -6 -10 -21 -18 -34 -18 -12 0 -47 -14 -78 -31
-63 -36 -97 -35 -150 6 -32 24 -37 25 -197 25 -153 0 -167 2 -208 23 -44 24
-47 24 -329 21 -157 -2 -379 0 -494 3 -182 5 -211 8 -227 24 -23 23 -54 39
-74 39 -10 0 -49 20 -89 44 -39 24 -91 50 -116 56 -44 12 -87 42 -155 108
l-34 32 -193 0 -194 0 -36 -37 -37 -38 7 -80 c4 -44 5 -139 2 -212 -5 -127 -6
-133 -32 -160 -37 -39 -39 -99 -4 -132 14 -13 25 -31 25 -40 0 -9 0 -139 0
-290 l1 -273 -30 -28 c-27 -25 -30 -34 -30 -88 0 -54 -3 -63 -27 -82 -27 -21
-28 -26 -28 -110 0 -78 -2 -90 -22 -106 -21 -18 -22 -28 -24 -170 l-3 -152
-27 -16 -26 -16 -5 -255 c-4 -250 -5 -255 -28 -280 -18 -19 -24 -40 -29 -94
-5 -55 -12 -75 -29 -91 -14 -14 -22 -33 -22 -55 0 -30 -7 -40 -60 -80 -39 -30
-62 -56 -66 -73 -3 -15 -7 -36 -9 -47 -3 -11 -23 -40 -46 -64 -23 -25 -48 -60
-55 -78 -8 -18 -28 -45 -44 -60 l-30 -26 0 -1582 c0 -1572 0 -1583 20 -1588
11 -3 28 -20 37 -38 27 -50 50 -69 82 -69 19 0 36 -8 48 -23 14 -18 32 -25 77
-31 43 -5 66 -13 83 -30 13 -13 40 -26 61 -29 21 -4 42 -15 49 -25 9 -15 27
-21 72 -24 42 -3 70 -11 90 -26 54 -39 263 -44 1913 -40 l1516 3 29 21 c25 19
48 22 182 29 113 5 154 11 158 21 7 18 54 32 138 40 52 5 76 12 95 29 21 19
40 23 111 28 66 3 93 10 115 25 19 14 58 25 114 32 50 6 95 18 110 29 14 10
52 21 85 25 36 4 74 16 95 30 19 12 55 26 79 30 24 4 57 16 73 27 32 24 123
59 150 59 10 0 32 14 50 31 50 46 135 99 159 99 13 0 30 6 38 14 18 17 121 36
196 36 28 1 68 8 90 16 22 9 69 21 103 27 44 8 69 19 81 34 12 14 49 30 116
47 55 15 106 33 115 41 8 7 36 23 63 34 26 11 47 25 47 31 0 5 19 22 43 37 58
38 53 35 137 106 63 54 162 157 207 216 10 12 12 233 13 958 l0 942 -32 37
c-62 70 -270 229 -333 253 -33 13 -77 30 -97 38 -30 13 -62 15 -157 10 -118
-5 -122 -6 -193 -46 -85 -48 -92 -53 -135 -104 -23 -26 -33 -48 -33 -70 0 -18
-9 -49 -20 -70 -21 -40 -28 -141 -10 -152 5 -3 21 -30 35 -58 39 -82 94 -160
172 -245 26 -29 66 -75 88 -102 22 -28 55 -68 73 -89 19 -24 35 -56 41 -84 4
-25 20 -60 34 -76 21 -25 25 -38 20 -69 -3 -20 -11 -46 -17 -57 -5 -11 -13
-54 -16 -97 -6 -70 -10 -81 -50 -135 -24 -32 -46 -60 -49 -63 -3 -3 -14 -22
-23 -43 -36 -76 -144 -171 -224 -197 -22 -7 -54 -21 -73 -32 -23 -13 -49 -18
-80 -17 -49 3 -61 12 -61 45 0 11 -11 48 -25 82 -20 50 -25 78 -25 155 0 69
-4 98 -16 116 -31 43 -73 129 -78 157 -3 16 -25 58 -49 94 -25 36 -49 79 -55
97 -6 17 -36 65 -67 107 -44 58 -56 82 -54 104 2 18 -3 36 -14 47 -10 9 -26
34 -37 54 -10 21 -26 44 -36 52 -9 8 -28 37 -41 64 -36 75 -70 132 -93 157
-11 12 -20 30 -20 41 0 10 -18 44 -40 75 -22 32 -51 86 -66 122 -14 36 -36 76
-49 90 -13 14 -46 68 -73 120 -92 176 -105 199 -144 246 -21 25 -38 54 -38 63
0 15 -15 41 -90 160 -12 19 -22 47 -22 63 -1 15 -4 28 -8 28 -7 0 -100 191
-100 205 0 4 -15 24 -32 45 -49 55 -68 80 -68 87 0 3 -14 29 -31 56 -26 43
-33 66 -38 137 -5 50 -14 96 -23 110 -9 14 -19 61 -23 105 -5 54 -15 93 -30
120 -12 22 -25 63 -28 91 -3 29 -15 69 -26 90 -19 36 -21 56 -21 270 0 228 0
232 25 279 l26 48 -3 433 -3 434 -27 25 c-16 14 -28 35 -28 46 0 34 -18 57
-51 64 -17 4 -40 16 -50 26 -16 16 -34 19 -127 19 -98 0 -111 -2 -144 -25 -29
-19 -50 -25 -94 -25 l-58 0 25 28 c27 29 49 74 49 99 0 9 -9 36 -21 59 -25 52
-76 75 -129 57z m-2798 -655 c9 -7 37 -40 64 -73 26 -33 58 -70 71 -82 38 -36
63 -101 63 -165 0 -77 -12 -104 -59 -127 -21 -11 -54 -34 -71 -50 -51 -46 -96
-67 -113 -53 -18 15 -27 95 -32 290 -3 84 -7 158 -10 163 -10 16 15 78 38 94
26 18 29 18 49 3z m3200 -145 c22 -20 23 -61 3 -109 -8 -20 -17 -75 -20 -122
-6 -122 -14 -175 -37 -272 -27 -110 -35 -129 -59 -123 -20 6 -79 74 -95 113
-6 14 -27 46 -47 71 -53 70 -57 82 -57 166 1 88 4 95 75 143 28 18 81 60 118
92 72 62 90 68 119 41z m-815 -633 c79 -28 202 -112 238 -163 67 -94 101 -200
91 -285 -15 -144 -32 -207 -69 -264 -47 -72 -66 -90 -137 -126 -51 -26 -67
-30 -151 -30 -190 -1 -360 76 -450 205 -30 44 -38 66 -48 140 -11 75 -10 100
3 168 30 150 119 286 221 335 86 42 216 51 302 20z m-1529 -31 c108 -28 152
-57 209 -136 77 -108 104 -187 105 -307 0 -157 -56 -268 -191 -376 -56 -44
-62 -47 -152 -55 -90 -8 -221 8 -258 33 -14 10 -44 26 -66 36 -74 33 -113 74
-156 159 -88 176 -91 335 -9 495 25 49 44 71 93 106 84 59 104 64 235 65 84 1
132 -4 190 -20z"/>
<path d="M3058 6903 c-9 -10 -37 -39 -61 -65 -24 -26 -61 -82 -82 -124 -36
-72 -37 -79 -33 -152 11 -171 120 -304 263 -319 30 -3 58 -10 61 -14 9 -16
105 -9 175 11 51 15 73 28 89 50 44 61 62 121 71 229 l8 106 -35 75 c-35 74
-94 142 -146 167 -32 16 -151 41 -228 48 -55 6 -67 4 -82 -12z"/>
<path d="M1505 6871 c-135 -50 -138 -52 -167 -129 -35 -91 -38 -191 -7 -301
18 -68 27 -83 82 -138 83 -85 132 -105 269 -111 59 -2 118 -2 131 2 33 8 120
99 154 161 26 47 28 58 28 165 0 104 -3 122 -29 183 -34 80 -97 143 -172 170
-68 24 -221 23 -289 -2z"/>
</g>
</svg>
