<?xml version="1.0" standalone="no"?>
<!DOCTYPE svg PUBLIC "-//W3C//DTD SVG 20010904//EN"
 "http://www.w3.org/TR/2001/REC-SVG-20010904/DTD/svg10.dtd">
<svg version="1.0" xmlns="http://www.w3.org/2000/svg"
 width="704.000000pt" height="1280.000000pt" viewBox="0 0 704.000000 1280.000000"
 preserveAspectRatio="xMidYMid meet">
<metadata>
Created by potrace 1.16, written by Peter Selinger 2001-2019
</metadata>
<g transform="translate(0.000000,1280.000000) scale(0.100000,-0.100000)"
fill="#000000" stroke="none">
<path d="M703 7892 c-13 -2 -33 -18 -45 -35 -22 -31 -23 -38 -19 -225 l3 -192
-31 -29 c-41 -38 -43 -91 -6 -124 25 -21 26 -27 29 -172 3 -82 2 -208 -1 -279
-6 -121 -8 -129 -32 -152 -21 -20 -26 -33 -26 -72 0 -38 -6 -55 -27 -80 -24
-29 -26 -39 -25 -112 0 -75 -2 -83 -25 -105 -26 -24 -26 -24 -21 -149 l6 -125
-32 -30 -31 -29 0 -231 0 -230 -30 -34 c-25 -29 -29 -41 -27 -85 2 -39 -2 -54
-16 -64 -10 -8 -23 -33 -28 -57 -7 -33 -22 -56 -59 -90 -31 -30 -50 -55 -50
-70 0 -22 -50 -95 -82 -119 -10 -7 -18 -20 -18 -28 0 -9 -17 -36 -39 -62 -78
-94 -71 53 -71 -1536 l0 -1425 29 -15 c16 -9 40 -30 55 -48 14 -18 31 -39 36
-45 6 -7 23 -16 38 -19 15 -4 37 -17 50 -30 17 -18 34 -24 65 -24 33 0 51 -7
77 -30 19 -16 45 -29 58 -30 12 0 32 -11 44 -25 18 -21 30 -25 77 -25 43 0 60
-5 78 -22 22 -21 37 -23 216 -31 106 -4 823 -7 1594 -5 l1401 3 34 25 c30 22
44 25 166 30 117 4 135 7 148 24 11 16 30 21 98 25 68 5 91 11 117 30 27 20
47 25 106 27 55 3 80 8 100 24 18 12 62 26 117 35 49 8 93 19 97 26 4 7 37 16
74 20 49 6 74 15 96 34 18 14 43 25 60 25 19 0 38 9 52 24 12 13 36 26 52 29
114 22 131 28 155 57 14 17 31 30 38 30 7 0 26 13 44 30 17 17 39 30 50 30 10
0 29 6 41 14 13 9 72 18 153 23 111 8 135 12 159 31 16 13 42 22 61 22 21 0
44 10 64 27 22 18 54 31 102 40 38 7 76 20 85 28 8 9 29 23 46 31 139 71 387
284 447 385 14 23 40 64 58 92 17 28 32 55 32 60 0 5 11 22 25 39 14 16 25 38
25 48 0 11 9 27 19 37 11 10 22 32 26 48 10 44 25 86 42 118 8 16 19 60 24 97
4 38 16 93 26 122 15 43 18 87 18 233 0 161 -2 185 -21 230 -13 30 -26 95 -34
165 -9 83 -17 121 -31 139 -10 13 -19 29 -19 36 0 7 -11 32 -24 57 -13 24 -27
55 -31 69 -4 13 -17 38 -29 54 -12 17 -28 45 -35 63 -8 17 -17 32 -22 32 -5 0
-18 14 -29 32 -10 17 -63 71 -116 119 -148 133 -265 185 -445 196 -105 7 -171
-14 -259 -82 -75 -58 -96 -85 -104 -136 -4 -22 -13 -54 -21 -70 -8 -15 -15
-40 -15 -54 0 -46 72 -208 110 -248 75 -79 115 -117 122 -117 4 0 17 -19 29
-42 12 -24 28 -46 35 -51 7 -4 23 -25 35 -47 13 -22 26 -40 31 -40 10 0 38
-55 38 -75 0 -10 9 -30 21 -46 17 -24 20 -39 15 -72 -3 -23 -10 -79 -15 -124
-10 -92 -7 -85 -72 -173 -26 -36 -50 -77 -54 -90 -13 -52 -138 -165 -200 -180
-22 -6 -58 -19 -80 -30 -48 -24 -73 -25 -104 -4 -18 13 -22 22 -17 47 4 19 1
39 -8 52 -19 28 -26 71 -29 167 -2 64 -7 82 -25 101 -12 13 -22 30 -22 38 0 8
-11 31 -25 51 -14 20 -25 48 -25 62 0 13 -11 38 -25 54 -14 17 -25 35 -25 42
0 6 -9 23 -20 37 -11 14 -20 35 -20 46 0 12 -9 30 -20 42 -52 53 -90 116 -90
150 0 26 -6 39 -24 50 -14 9 -29 30 -35 47 -6 16 -22 38 -35 49 -13 11 -27 32
-31 48 -3 16 -17 43 -31 62 -13 18 -24 38 -24 45 0 7 -6 19 -13 26 -21 21 -37
54 -37 78 0 11 -11 32 -25 46 -14 14 -25 27 -25 29 0 2 -13 26 -30 52 -16 26
-30 53 -30 60 0 8 -25 51 -55 97 -30 45 -55 92 -55 103 0 11 -11 31 -24 45
-14 13 -28 37 -32 53 -4 17 -31 59 -61 95 -29 35 -53 74 -53 85 0 12 -11 36
-25 55 -14 19 -25 41 -25 50 0 10 -11 29 -25 44 -14 15 -25 37 -25 50 0 13 -8
34 -18 47 -21 28 -72 131 -72 147 0 6 -25 41 -55 77 -30 37 -55 74 -55 83 0 8
-11 34 -24 56 -17 30 -25 61 -28 116 -3 43 -11 86 -20 100 -9 14 -18 55 -21
93 -4 46 -14 81 -32 110 -15 26 -25 59 -25 82 0 22 -9 53 -22 74 -22 35 -23
43 -21 268 1 216 3 234 22 260 20 27 21 42 21 323 2 556 4 527 -25 552 -15 13
-25 32 -25 49 0 24 -6 30 -38 39 -22 5 -46 18 -55 28 -13 14 -35 18 -122 20
-97 1 -108 0 -141 -23 -33 -22 -47 -25 -133 -25 -88 0 -100 -2 -131 -25 -19
-14 -41 -25 -50 -25 -9 0 -31 -11 -50 -25 -20 -15 -47 -25 -68 -25 -34 0 -66
-13 -90 -37 -7 -7 -27 -13 -42 -13 -20 0 -35 -8 -45 -24 -9 -14 -30 -27 -49
-30 -19 -4 -45 -15 -59 -26 -14 -11 -39 -23 -56 -26 -24 -5 -35 -1 -58 22 -31
32 -11 29 -285 33 -102 1 -108 2 -137 29 l-30 27 -466 -5 -466 -5 -25 28 c-17
19 -34 27 -58 27 -18 0 -39 7 -47 16 -11 14 -41 32 -104 63 -11 5 -32 12 -48
16 -16 3 -36 19 -50 40 -16 26 -29 35 -50 35 -20 0 -31 7 -39 25 -6 14 -14 25
-17 25 -3 0 -82 1 -176 3 -93 1 -180 1 -192 -1z m241 -551 c19 -25 49 -59 66
-76 61 -57 94 -173 67 -236 -11 -26 -36 -50 -98 -91 -46 -30 -92 -58 -101 -61
-31 -11 -40 19 -43 145 -2 68 -7 167 -11 220 l-7 97 31 30 c37 38 51 34 96
-28z m2955 -93 c13 -22 13 -34 -3 -99 -9 -41 -18 -104 -20 -140 -2 -37 -7 -72
-11 -79 -7 -11 -14 -56 -34 -198 -10 -70 -21 -80 -60 -52 -30 20 -154 199
-170 244 -4 11 -6 51 -3 89 l4 67 77 54 c42 30 87 66 101 81 30 33 81 66 95
62 6 -2 16 -15 24 -29z m-771 -583 c29 -9 69 -27 90 -40 63 -41 112 -79 112
-85 0 -4 15 -24 33 -46 47 -56 82 -173 73 -250 -15 -148 -23 -180 -55 -237
-65 -113 -150 -157 -302 -157 -158 1 -308 77 -393 198 -41 60 -57 165 -41 277
7 51 71 194 107 240 74 95 243 139 376 100z m-1451 -28 c6 -4 28 -9 49 -13 79
-12 130 -53 200 -162 54 -85 67 -134 68 -252 1 -97 -1 -110 -28 -165 -41 -83
-60 -107 -128 -160 -71 -55 -84 -60 -168 -69 -125 -13 -283 36 -372 116 -49
45 -111 176 -127 269 -11 63 -10 86 3 155 9 50 25 96 40 119 14 20 28 45 31
55 7 23 99 84 155 103 43 14 255 17 277 4z"/>
<path d="M2844 6533 c-54 -62 -94 -131 -114 -200 -14 -46 -2 -138 25 -190 8
-15 15 -33 15 -40 0 -21 112 -112 156 -127 24 -8 76 -20 116 -27 68 -11 79
-10 139 10 111 37 145 93 160 264 8 98 8 99 -25 170 -57 125 -157 184 -331
193 l-90 5 -51 -58z"/>
<path d="M1409 6532 c-31 -15 -66 -31 -79 -37 -37 -15 -72 -113 -73 -200 -1
-101 36 -217 85 -267 92 -93 169 -123 298 -119 96 3 122 15 175 79 70 84 85
126 85 238 0 84 -3 102 -30 162 -61 132 -131 173 -303 171 -89 0 -109 -4 -158
-27z"/>
</g>
</svg>
