<?xml version="1.0" standalone="no"?>
<!DOCTYPE svg PUBLIC "-//W3C//DTD SVG 20010904//EN"
 "http://www.w3.org/TR/2001/REC-SVG-20010904/DTD/svg10.dtd">
<svg version="1.0" xmlns="http://www.w3.org/2000/svg"
 width="704.000000pt" height="1280.000000pt" viewBox="0 0 704.000000 1280.000000"
 preserveAspectRatio="xMidYMid meet">
<metadata>
Created by potrace 1.16, written by Peter Selinger 2001-2019
</metadata>
<g transform="translate(0.000000,1280.000000) scale(0.100000,-0.100000)"
fill="#000000" stroke="none">
<path d="M3509 9678 c-7 -13 -17 -27 -24 -33 -19 -17 -52 -105 -84 -230 -18
-66 -58 -192 -90 -280 -32 -88 -64 -176 -71 -195 -7 -19 -23 -59 -37 -89 l-24
-53 -42 4 c-23 3 -56 -2 -74 -9 -28 -11 -33 -11 -41 4 -9 15 -15 15 -52 4 -23
-7 -48 -15 -55 -17 -8 -4 -17 9 -25 33 -6 21 -17 54 -24 73 -7 19 -25 76 -40
125 -15 50 -38 113 -51 140 -14 28 -25 58 -25 67 0 16 -27 93 -50 143 -5 11
-12 31 -16 45 -6 24 -18 53 -63 153 -11 23 -33 55 -49 70 -25 24 -33 26 -55
18 -29 -11 -50 -40 -66 -91 -6 -19 -19 -64 -31 -100 -20 -66 -59 -240 -86
-385 -9 -44 -22 -114 -31 -155 -30 -149 -50 -291 -58 -409 -5 -72 -5 -74 -47
-109 -66 -54 -194 -187 -236 -245 -51 -69 -116 -190 -137 -255 l-18 -53 -111
7 c-120 6 -154 -3 -140 -39 5 -14 19 -17 78 -17 65 0 141 -12 152 -23 3 -2 2
-35 -2 -71 -7 -64 -8 -68 -39 -81 -18 -7 -78 -24 -134 -37 -77 -18 -101 -27
-101 -39 0 -9 6 -19 13 -22 20 -7 128 10 197 32 35 11 68 17 72 13 3 -4 16
-31 28 -61 30 -77 73 -135 133 -180 29 -21 61 -48 71 -60 11 -11 25 -21 32
-21 7 0 19 -6 26 -12 26 -25 114 -83 173 -115 70 -39 249 -129 265 -135 7 -2
13 -42 16 -98 4 -76 13 -317 15 -365 0 -13 -18 -81 -47 -177 -27 -88 -29 -102
-11 -93 6 4 5 0 -5 -7 -29 -24 -118 -185 -154 -278 -14 -36 -29 -72 -35 -80
-5 -8 -13 -25 -19 -38 -5 -12 -19 -35 -30 -50 -11 -15 -31 -57 -44 -94 -13
-38 -36 -82 -50 -99 -14 -17 -26 -41 -26 -53 0 -13 -9 -35 -20 -49 -11 -14
-20 -31 -21 -39 0 -7 -22 -76 -48 -153 -52 -156 -41 -144 -161 -165 -89 -15
-184 -64 -252 -130 -94 -92 -104 -194 -28 -290 27 -34 35 -38 51 -30 13 8 19
7 19 0 0 -6 7 -19 16 -28 21 -20 140 -30 157 -13 6 6 22 11 36 11 26 0 26 0
24 -82 -1 -96 27 -281 51 -329 9 -18 16 -40 16 -49 0 -24 11 -32 27 -18 12 10
14 6 8 -23 -8 -41 25 -92 52 -82 13 5 15 1 11 -21 -5 -23 4 -35 59 -86 36 -33
92 -79 126 -102 89 -63 117 -92 117 -124 0 -14 4 -43 9 -63 5 -20 15 -56 21
-81 7 -25 21 -55 33 -68 11 -12 17 -22 13 -22 -10 0 21 -56 61 -108 43 -57
145 -147 194 -173 21 -10 43 -25 51 -32 17 -17 88 -49 148 -66 176 -49 169
-48 345 -62 155 -13 359 7 481 47 41 13 82 24 90 24 8 0 41 13 72 29 31 16 82
40 112 54 59 26 148 91 238 172 49 45 172 211 172 233 0 5 6 15 14 21 8 7 18
25 21 42 5 24 14 30 48 39 97 24 118 32 124 46 4 12 8 13 14 3 10 -17 72 1
123 36 20 14 43 25 50 25 21 0 146 110 197 175 57 71 135 225 153 305 7 31 18
65 23 76 17 31 23 110 11 122 -8 8 -8 15 1 25 12 16 11 98 -1 108 -4 3 -3 19
4 35 8 24 8 49 -1 105 -6 41 -13 87 -15 104 -3 16 -9 48 -16 70 -34 119 -41
145 -59 200 -25 75 -44 117 -81 177 -16 26 -28 55 -27 65 1 16 -21 65 -132
292 -14 29 -36 64 -48 77 -12 13 -27 41 -32 62 -6 20 -24 59 -41 85 -16 26
-30 52 -30 58 0 6 -13 30 -30 54 -16 24 -30 48 -30 53 0 15 -88 184 -119 227
-15 22 -58 105 -96 185 -37 80 -76 157 -86 172 -11 14 -19 31 -19 37 0 6 -29
69 -63 139 -35 70 -67 142 -70 161 -4 19 -21 56 -37 83 -17 26 -30 54 -30 62
0 12 -8 34 -52 136 -31 74 -20 259 23 362 8 19 9 32 2 39 -7 7 -6 23 3 48 15
45 18 257 4 266 -6 4 -7 13 -2 21 5 9 5 37 1 62 -4 26 -5 50 -3 53 5 8 -23
221 -37 279 -5 25 -14 66 -19 91 -12 65 -41 181 -50 199 -4 8 -18 47 -30 85
-13 39 -27 74 -31 80 -5 5 -9 16 -9 25 0 8 -15 51 -34 95 -73 170 -196 464
-196 469 0 3 -20 48 -44 100 -34 73 -52 98 -75 110 -41 22 -58 20 -72 -6z
m-1134 -1328 c31 -19 41 -35 80 -125 27 -62 22 -176 -11 -259 -51 -128 -157
-213 -231 -185 -65 25 -98 82 -106 188 -6 78 10 190 36 252 22 54 67 100 122
125 61 29 69 29 110 4z m780 -51 l50 -49 0 -118 c0 -99 -4 -126 -23 -174 -60
-150 -200 -239 -308 -197 -32 12 -81 62 -96 99 -17 42 -11 194 12 270 43 143
157 238 270 224 37 -4 54 -14 95 -55z m506 -526 c5 -5 7 -17 3 -26 -5 -14 -24
-17 -125 -19 -65 -1 -134 -2 -151 -2 -27 -1 -33 3 -33 19 0 15 11 23 45 32 52
15 245 12 261 -4z m-228 -204 c77 -26 216 -94 241 -119 39 -38 -21 -56 -67
-20 -14 11 -30 20 -36 20 -7 0 -33 11 -59 24 -26 13 -72 31 -102 41 -63 20
-91 41 -83 61 7 19 33 18 106 -7z m437 -3905 c0 -3 -140 -84 -146 -84 -3 0
-26 -9 -52 -21 -26 -11 -56 -24 -67 -29 -40 -17 -152 -27 -253 -24 -96 3 -149
14 -262 51 -46 15 -139 72 -140 86 0 4 42 8 93 8 50 1 157 4 237 8 148 6 590
10 590 5z"/>
<path d="M2210 8263 c-88 -89 -102 -345 -23 -414 28 -25 45 -28 83 -12 48 19
69 40 64 66 -2 12 -2 16 2 10 11 -23 21 -14 49 45 25 52 27 64 22 141 -8 110
-38 175 -82 178 -48 4 -55 6 -55 15 0 18 -24 6 -60 -29z"/>
<path d="M2929 8267 c-45 -30 -96 -99 -111 -150 -6 -23 -12 -78 -12 -122 0
-122 40 -184 120 -185 54 0 109 47 154 131 27 52 34 78 38 139 4 75 1 88 -41
167 -24 46 -94 56 -148 20z"/>
</g>
</svg>
