<?xml version="1.0" standalone="no"?>
<!DOCTYPE svg PUBLIC "-//W3C//DTD SVG 20010904//EN"
 "http://www.w3.org/TR/2001/REC-SVG-20010904/DTD/svg10.dtd">
<svg version="1.0" xmlns="http://www.w3.org/2000/svg"
 width="704.000000pt" height="1280.000000pt" viewBox="0 0 704.000000 1280.000000"
 preserveAspectRatio="xMidYMid meet">
<metadata>
Created by potrace 1.16, written by Peter Selinger 2001-2019
</metadata>
<g transform="translate(0.000000,1280.000000) scale(0.100000,-0.100000)"
fill="#000000" stroke="none">
<path d="M3509 9678 c-7 -13 -17 -27 -24 -33 -14 -13 -50 -105 -65 -170 -17
-74 -78 -262 -106 -326 -13 -31 -24 -62 -24 -68 0 -15 -54 -160 -86 -228 l-24
-53 -51 0 c-27 0 -60 -5 -71 -11 -15 -8 -22 -8 -28 1 -8 12 -49 10 -106 -6
-18 -5 -24 3 -43 58 -12 35 -26 79 -31 98 -14 59 -50 162 -76 218 -13 29 -24
60 -24 70 0 18 -42 128 -54 139 -3 3 -6 15 -6 25 0 24 -59 162 -71 166 -5 2
-9 12 -9 21 0 10 -11 30 -25 45 -35 38 -82 33 -108 -11 -22 -38 -50 -132 -82
-273 -14 -58 -34 -145 -45 -195 -11 -49 -25 -119 -30 -155 -5 -36 -14 -87 -20
-115 -28 -132 -41 -219 -47 -323 l-6 -112 -65 -55 c-166 -142 -287 -306 -348
-470 -25 -67 -10 -63 -159 -54 -82 5 -117 -5 -113 -34 3 -21 10 -22 104 -28
56 -4 107 -9 113 -13 7 -5 10 -31 8 -74 l-4 -67 -41 -17 c-22 -10 -76 -25
-119 -34 -93 -19 -114 -29 -107 -49 9 -24 101 -19 189 10 43 14 82 24 87 23 5
-2 18 -28 29 -57 26 -76 83 -154 137 -189 26 -17 58 -42 71 -56 14 -14 29 -26
35 -27 6 0 31 -16 56 -35 25 -19 67 -46 93 -61 27 -16 65 -38 84 -51 20 -13
77 -41 127 -64 50 -22 94 -44 99 -47 7 -7 13 -90 23 -326 6 -161 7 -142 -6
-195 -7 -25 -16 -63 -22 -85 -5 -22 -16 -55 -24 -73 -8 -18 -14 -39 -14 -47 0
-14 -27 -66 -80 -160 -30 -52 -40 -73 -81 -170 -18 -44 -42 -93 -54 -110 -28
-42 -65 -124 -65 -145 0 -9 -14 -34 -30 -55 -17 -21 -33 -50 -36 -64 -6 -27
-17 -55 -33 -81 -16 -26 -112 -331 -110 -348 2 -10 -5 -35 -15 -57 -10 -22
-22 -69 -26 -105 -5 -36 -14 -81 -20 -100 -18 -54 -25 -366 -10 -458 13 -86
47 -199 65 -222 7 -8 15 -27 19 -42 8 -34 43 -68 63 -61 11 4 13 0 8 -20 -6
-22 2 -35 54 -86 33 -33 82 -74 108 -92 26 -17 57 -40 68 -49 42 -36 169 -95
185 -85 5 3 13 0 16 -9 12 -32 105 -60 259 -77 154 -17 168 -22 145 -45 -20
-20 -94 -181 -102 -224 -18 -93 -20 -140 -9 -202 29 -167 94 -289 218 -408 59
-57 158 -130 176 -130 3 0 28 -13 54 -28 71 -41 151 -72 189 -72 18 0 34 -5
36 -11 3 -10 52 -24 148 -40 30 -6 78 -14 105 -20 90 -18 296 -31 310 -19 10
8 15 8 20 0 5 -8 24 -9 59 -5 146 20 225 121 211 269 -7 66 -9 71 -56 116 -66
63 -125 81 -287 85 -90 2 -129 0 -134 -8 -6 -9 -10 -9 -15 -1 -12 16 -71 34
-114 34 -55 0 -231 91 -296 153 -71 68 -87 104 -78 176 4 31 13 68 21 82 37
72 221 189 320 205 35 5 70 14 229 53 22 6 69 18 105 26 36 9 99 25 140 35 41
11 94 20 117 20 24 0 62 4 85 10 24 5 81 17 128 26 47 9 96 21 110 27 14 5 39
11 55 13 36 4 125 44 125 56 0 4 6 8 14 8 26 0 174 129 193 168 9 20 28 46 41
56 32 26 112 197 122 264 5 30 14 60 20 67 17 20 30 108 18 122 -7 9 -7 17 0
26 11 13 10 96 -1 114 -4 6 -2 23 4 37 12 25 11 31 -26 241 -5 31 -33 128 -44
150 -5 11 -14 40 -21 65 -15 58 -47 132 -82 193 -16 26 -28 61 -28 77 0 16 -4
31 -9 34 -5 4 -33 54 -61 114 -86 177 -102 206 -127 230 -13 13 -21 27 -18 32
8 13 -44 120 -61 127 -8 3 -14 15 -14 27 0 11 -14 39 -30 60 -17 22 -30 46
-30 53 0 18 -71 159 -104 208 -16 22 -60 105 -98 185 -39 80 -79 157 -89 172
-11 14 -19 31 -19 37 0 6 -29 71 -65 146 -36 74 -65 141 -65 149 0 8 -14 40
-31 72 -17 33 -37 79 -46 104 -8 25 -24 65 -36 90 -25 53 -30 83 -29 170 0 70
21 181 41 218 6 12 9 28 5 34 -10 16 -6 68 6 83 12 15 11 226 -2 242 -7 9 -7
17 1 26 6 8 8 17 5 20 -4 3 -8 37 -11 74 -5 90 -32 299 -43 343 -5 19 -17 66
-26 105 -36 153 -103 336 -249 680 -25 61 -62 148 -81 195 -60 145 -87 194
-123 218 -19 12 -40 22 -47 22 -7 0 -19 -10 -25 -22z m-1113 -1320 c56 -49 87
-126 88 -220 1 -42 -2 -74 -6 -72 -4 3 -8 -10 -8 -28 0 -40 -29 -105 -67 -153
-93 -117 -212 -117 -268 1 -19 41 -22 172 -5 262 18 103 77 188 153 223 57 26
71 24 113 -13z m762 -30 c55 -52 63 -74 66 -173 6 -228 -182 -435 -341 -374
-98 37 -132 157 -94 331 33 150 146 258 271 258 51 0 58 -3 98 -42z m476 -548
c25 -9 35 -34 19 -43 -5 -3 -73 -6 -153 -8 -139 -4 -145 -3 -145 16 0 14 11
23 40 31 49 15 204 18 239 4z m-206 -204 c65 -23 230 -108 248 -127 35 -38
-23 -55 -69 -19 -14 11 -30 20 -36 20 -7 0 -31 10 -54 22 -23 12 -73 33 -112
48 -55 20 -71 30 -73 48 -3 18 1 22 26 22 16 0 48 -6 70 -14z"/>
<path d="M2275 8312 c-41 -8 -85 -64 -107 -135 -16 -55 -19 -86 -16 -160 5
-99 18 -138 54 -161 16 -11 30 -13 54 -6 46 13 85 40 71 49 -8 5 -5 14 10 27
22 18 22 18 15 0 -14 -39 24 5 44 52 47 105 5 331 -60 320 -9 -2 -23 2 -31 8
-8 6 -23 9 -34 6z"/>
<path d="M2939 8281 c-70 -44 -106 -117 -126 -257 -12 -89 51 -194 117 -194
48 0 77 17 119 69 53 67 83 150 83 226 -1 76 -14 112 -58 153 -44 40 -75 41
-135 3z"/>
</g>
</svg>
