<?xml version="1.0" standalone="no"?>
<!DOCTYPE svg PUBLIC "-//W3C//DTD SVG 20010904//EN"
 "http://www.w3.org/TR/2001/REC-SVG-20010904/DTD/svg10.dtd">
<svg version="1.0" xmlns="http://www.w3.org/2000/svg"
 width="704.000000pt" height="1280.000000pt" viewBox="0 0 704.000000 1280.000000"
 preserveAspectRatio="xMidYMid meet">
<metadata>
Created by potrace 1.16, written by Peter Selinger 2001-2019
</metadata>
<g transform="translate(0.000000,1280.000000) scale(0.100000,-0.100000)"
fill="#000000" stroke="none">
<path d="M3492 9661 c-32 -44 -48 -86 -81 -211 -35 -134 -47 -169 -119 -365
-17 -44 -38 -102 -47 -130 -10 -27 -28 -74 -41 -102 l-24 -53 -49 0 c-27 0
-62 -5 -76 -10 -20 -8 -30 -7 -41 5 -19 18 -13 18 -64 0 -24 -8 -45 -14 -47
-12 -5 6 -44 121 -52 157 -15 64 -61 194 -81 228 -11 18 -20 43 -20 54 0 11
-16 61 -35 109 -19 49 -35 93 -35 98 0 28 -91 200 -114 215 -52 34 -97 -14
-133 -139 -17 -63 -57 -224 -70 -290 -6 -27 -21 -94 -33 -148 -12 -54 -19
-106 -16 -114 4 -9 3 -21 -2 -27 -8 -10 -23 -71 -37 -151 -14 -81 -32 -273
-28 -300 4 -27 -3 -36 -64 -87 -73 -61 -186 -178 -211 -218 -9 -14 -23 -34
-33 -45 -26 -31 -106 -185 -120 -233 l-12 -43 -112 7 c-98 6 -113 5 -128 -11
-29 -28 -5 -45 67 -46 33 0 81 -4 106 -7 l45 -7 -3 -40 c-2 -22 -4 -53 -5 -70
-3 -39 -37 -56 -169 -87 -79 -18 -98 -26 -98 -40 0 -10 6 -18 13 -19 51 -4
118 6 184 26 42 13 80 22 83 20 4 -2 15 -26 25 -52 28 -75 82 -150 138 -192
29 -21 61 -48 71 -60 11 -11 25 -21 32 -21 7 0 34 -17 61 -38 26 -21 80 -56
118 -77 76 -42 271 -142 287 -147 5 -2 12 -55 14 -118 3 -63 7 -164 10 -225 2
-60 5 -114 5 -120 0 -9 -18 -86 -39 -165 -5 -19 -14 -46 -20 -60 -6 -14 -13
-37 -16 -51 -3 -14 -16 -41 -29 -60 -24 -36 -95 -170 -119 -229 -30 -69 -63
-135 -85 -168 -12 -18 -29 -56 -39 -85 -9 -29 -30 -70 -45 -91 -16 -22 -29
-49 -29 -61 0 -11 -8 -32 -17 -45 -10 -14 -25 -50 -34 -80 -10 -30 -30 -95
-47 -145 -16 -49 -35 -108 -40 -130 -6 -22 -16 -60 -23 -85 -7 -25 -16 -67
-20 -95 -4 -27 -14 -93 -23 -145 -17 -104 -24 -316 -12 -395 4 -27 9 -61 10
-75 6 -44 26 -109 36 -115 6 -3 10 -15 10 -26 0 -11 6 -22 14 -25 8 -3 17 -20
20 -39 4 -18 15 -44 25 -57 19 -23 19 -25 0 -78 -21 -63 -25 -184 -9 -273 21
-111 77 -221 154 -305 67 -71 219 -176 316 -216 25 -10 69 -29 98 -42 29 -13
63 -24 76 -24 14 0 45 -9 71 -20 25 -11 70 -22 98 -24 306 -24 371 -27 398
-15 19 7 38 8 56 2 20 -7 58 -3 138 13 61 13 134 28 164 34 29 7 78 22 107 36
29 13 61 24 71 24 10 0 52 17 93 38 219 112 222 114 337 229 63 63 126 136
143 167 17 30 37 59 44 65 8 7 49 18 92 26 44 9 95 21 114 28 19 6 40 12 45
12 28 2 106 29 116 41 6 8 17 14 24 14 29 0 178 125 216 181 21 32 44 61 49
64 18 11 108 212 119 262 5 27 16 67 25 90 16 44 20 223 4 234 -4 3 -2 19 4
36 9 25 9 48 0 105 -7 40 -14 87 -16 103 -5 42 -35 163 -45 183 -5 9 -21 55
-35 101 -15 46 -45 113 -66 149 -22 36 -37 69 -34 73 3 5 -18 57 -47 116 -29
60 -59 124 -68 143 -20 44 -73 133 -82 140 -4 3 -15 28 -24 55 -10 28 -28 64
-41 82 -13 17 -24 37 -24 43 0 6 -13 31 -30 55 -16 24 -30 48 -30 53 0 17 -63
138 -105 202 -23 36 -73 130 -110 210 -37 80 -76 157 -86 172 -11 14 -19 31
-19 37 0 6 -29 69 -63 139 -35 70 -67 143 -71 162 -3 19 -17 51 -30 70 -13 19
-26 46 -30 60 -5 14 -22 61 -39 105 -27 68 -31 93 -31 170 -1 92 18 213 35
229 12 13 12 53 -1 61 -8 5 -7 12 2 22 19 23 25 272 7 284 -9 5 -10 11 -2 21
8 8 8 28 3 58 -4 25 -6 48 -4 52 6 10 -14 165 -33 258 -9 41 -19 97 -24 125
-9 50 -34 144 -49 180 -5 11 -19 53 -31 93 -12 40 -26 75 -30 78 -5 3 -9 13
-9 22 0 9 -15 53 -34 97 -19 44 -55 132 -81 195 -25 63 -59 142 -74 175 -15
33 -45 105 -67 159 -64 164 -125 206 -182 127z m-1116 -1310 c51 -31 87 -119
92 -225 4 -78 1 -97 -23 -157 -28 -72 -89 -150 -136 -174 -45 -24 -103 -19
-138 10 -68 58 -86 219 -41 383 15 57 83 140 133 162 54 24 75 24 113 1z m756
-25 c53 -41 80 -91 83 -155 8 -176 -74 -345 -191 -397 -93 -41 -168 -27 -220
42 -27 35 -29 45 -32 139 -3 82 0 116 18 174 35 119 116 200 220 221 62 13 76
11 122 -24z m528 -555 c20 -34 1 -41 -121 -43 -65 -1 -134 -2 -151 -2 -27 -1
-33 3 -33 19 0 30 70 45 193 42 75 -2 105 -6 112 -16z m-216 -205 c87 -33 207
-93 230 -116 39 -38 -21 -56 -67 -20 -14 11 -30 20 -36 20 -6 0 -39 13 -73 29
-35 15 -87 36 -115 45 -45 15 -53 21 -53 42 0 32 29 32 114 0z m-404 -3908
c107 0 285 1 394 2 194 0 235 -5 210 -30 -11 -11 -123 -46 -199 -61 -27 -6
-54 -14 -60 -19 -5 -4 -75 -8 -154 -9 -79 -1 -153 -7 -163 -12 -15 -8 -24 -7
-36 4 -9 8 -39 18 -67 21 -88 11 -285 86 -285 109 0 5 31 6 83 2 45 -4 170 -8
277 -7z"/>
<path d="M2244 8290 c-81 -32 -139 -247 -99 -365 30 -89 77 -115 144 -81 32
17 59 46 43 46 -7 0 -9 7 -5 17 4 11 8 12 11 5 8 -25 24 -10 48 43 23 49 25
64 20 143 -6 120 -40 194 -80 179 -8 -3 -22 1 -33 8 -21 17 -21 17 -49 5z"/>
<path d="M2979 8290 c-88 -25 -148 -103 -169 -220 -32 -179 55 -305 169 -245
54 28 116 122 141 214 14 55 5 152 -18 178 -10 11 -22 28 -28 38 -15 26 -63
44 -95 35z"/>
</g>
</svg>
