<?xml version="1.0" standalone="no"?>
<!DOCTYPE svg PUBLIC "-//W3C//DTD SVG 20010904//EN"
 "http://www.w3.org/TR/2001/REC-SVG-20010904/DTD/svg10.dtd">
<svg version="1.0" xmlns="http://www.w3.org/2000/svg"
 width="704.000000pt" height="1280.000000pt" viewBox="0 0 704.000000 1280.000000"
 preserveAspectRatio="xMidYMid meet">
<metadata>
Created by potrace 1.16, written by Peter Selinger 2001-2019
</metadata>
<g transform="translate(0.000000,1280.000000) scale(0.100000,-0.100000)"
fill="#000000" stroke="none">
<path d="M3494 9657 c-20 -22 -35 -53 -44 -93 -7 -32 -17 -63 -21 -69 -4 -5
-10 -28 -14 -50 -4 -22 -16 -62 -26 -90 -10 -27 -27 -82 -37 -121 -11 -38 -29
-88 -39 -110 -11 -21 -23 -51 -27 -67 -4 -15 -18 -52 -31 -82 -14 -29 -25 -58
-25 -64 0 -16 -41 -105 -51 -112 -6 -3 -32 -4 -58 -1 -30 2 -51 0 -55 -7 -4
-6 -14 -11 -22 -11 -8 0 -13 4 -10 9 10 16 -18 18 -74 5 -30 -7 -55 -12 -55
-11 -28 74 -55 151 -63 182 -19 72 -62 189 -77 212 -8 12 -15 33 -15 46 0 25
-36 124 -52 141 -4 6 -8 18 -8 29 0 18 -34 109 -51 137 -5 8 -18 33 -28 55
-10 22 -30 47 -45 55 -53 28 -95 -19 -132 -145 -24 -83 -70 -288 -94 -420 -12
-60 -29 -150 -40 -200 -37 -176 -41 -201 -47 -323 -6 -120 -7 -124 -32 -137
-31 -17 -149 -131 -211 -206 -77 -92 -144 -204 -180 -303 l-22 -58 -62 8
c-124 16 -198 0 -183 -40 5 -12 22 -16 74 -17 37 0 86 -3 108 -7 38 -7 40 -9
39 -42 -3 -113 -1 -107 -42 -123 -21 -9 -56 -19 -78 -22 -93 -16 -144 -36
-144 -56 0 -27 63 -25 181 5 51 14 96 23 100 20 3 -2 9 -18 13 -36 9 -47 82
-165 114 -185 15 -9 50 -35 77 -58 42 -35 144 -105 220 -152 64 -39 150 -84
215 -113 41 -19 79 -37 84 -41 9 -8 12 -57 21 -299 3 -85 8 -161 10 -167 2 -7
1 -13 -4 -13 -5 0 -12 -21 -16 -47 -7 -54 -20 -101 -42 -152 -10 -25 -11 -36
-3 -41 8 -5 7 -9 -4 -13 -9 -4 -16 -15 -16 -25 0 -11 -13 -37 -28 -58 -37 -51
-127 -240 -123 -258 1 -5 -5 -16 -12 -25 -23 -26 -107 -190 -107 -209 0 -9
-16 -39 -35 -66 -19 -27 -35 -58 -35 -69 0 -10 -9 -30 -20 -44 -11 -14 -20
-33 -20 -41 0 -9 -13 -52 -29 -96 -30 -83 -58 -179 -72 -251 -4 -22 -14 -60
-23 -85 -24 -72 -56 -315 -56 -435 0 -142 12 -235 39 -310 12 -33 25 -67 27
-77 3 -9 15 -19 27 -22 17 -4 18 -8 8 -20 -10 -12 -10 -20 0 -38 15 -29 28
-38 58 -38 22 0 23 -1 8 -18 -15 -16 -12 -21 32 -67 61 -64 98 -95 190 -157
102 -69 190 -113 204 -99 7 7 14 4 21 -12 23 -45 230 -79 486 -79 396 0 806
11 930 25 74 9 203 19 285 22 l150 7 85 -36 c46 -20 91 -36 100 -36 8 0 35
-14 60 -31 25 -16 65 -41 90 -53 68 -36 140 -103 140 -131 0 -39 -32 -92 -73
-118 -72 -47 -162 -62 -367 -61 -166 1 -201 4 -340 32 -85 17 -195 38 -245 46
-49 8 -115 20 -145 25 -302 57 -618 39 -652 -35 -11 -24 -28 -33 -28 -14 0 21
-21 8 -73 -43 -73 -73 -101 -132 -95 -204 3 -30 10 -58 16 -62 6 -3 15 -19 21
-33 6 -15 30 -40 53 -55 37 -23 52 -27 110 -25 41 1 88 10 120 23 102 40 199
59 303 59 102 0 325 -23 345 -35 5 -3 32 -8 59 -10 26 -3 115 -18 197 -34 249
-50 273 -53 444 -57 166 -3 278 6 380 31 30 7 80 19 110 25 60 13 167 52 215
77 71 38 162 114 180 150 10 21 22 45 26 53 49 86 50 89 48 183 -2 83 -5 99
-37 166 -38 80 -122 175 -182 206 -19 10 -38 23 -42 30 -4 6 -49 33 -100 59
-75 39 -172 94 -197 113 -2 1 18 26 45 55 63 67 124 143 124 153 0 8 41 100
66 147 8 14 14 40 14 57 0 18 9 50 21 73 17 33 22 63 24 142 1 56 -2 104 -7
107 -6 4 -5 23 2 49 8 31 9 55 1 89 -6 25 -15 73 -20 106 -9 62 -35 165 -50
200 -24 56 -31 78 -31 97 0 11 -8 37 -19 57 -50 98 -69 138 -76 161 -4 14 -27
67 -51 117 -24 51 -44 98 -44 103 0 6 -20 43 -44 83 -24 39 -60 106 -81 147
-20 41 -45 84 -55 95 -9 11 -20 32 -24 47 -3 14 -17 40 -31 56 -14 17 -25 35
-25 42 0 17 -68 162 -85 180 -8 9 -56 99 -108 200 -51 102 -98 194 -104 205
-24 42 -126 272 -144 323 -10 29 -29 74 -43 100 -14 26 -38 80 -53 120 -15 39
-30 72 -34 72 -4 0 -7 21 -7 48 0 26 -3 69 -6 96 -5 45 13 150 34 201 19 46
32 280 21 383 -1 9 -7 78 -12 152 -10 137 -22 226 -38 290 -5 19 -14 60 -21
90 -15 76 -32 133 -42 145 -4 5 -8 17 -8 27 0 28 -42 148 -51 148 -5 0 -9 11
-9 25 0 14 -9 44 -20 66 -19 36 -149 343 -241 569 -60 146 -114 183 -175 117z
m-1109 -1287 c46 -28 105 -153 105 -221 0 -111 -42 -217 -114 -287 -52 -51
-117 -79 -155 -67 -27 8 -77 66 -90 104 -16 49 -14 228 4 287 23 77 73 145
130 176 60 33 78 34 120 8z m735 -7 c0 -5 16 -19 36 -33 51 -34 72 -88 73
-188 1 -45 -3 -83 -9 -87 -5 -3 -10 -13 -10 -22 0 -35 -64 -143 -113 -190 -61
-59 -120 -82 -186 -73 -35 6 -50 15 -80 50 -58 70 -73 156 -46 272 28 125 94
220 178 259 41 18 157 27 157 12z m536 -594 c13 -14 14 -18 1 -31 -11 -11 -30
-13 -88 -7 -41 4 -102 3 -137 -2 -35 -5 -68 -7 -73 -3 -18 11 -9 32 19 42 48
19 65 21 164 19 74 -2 102 -7 114 -18z m-180 -214 c94 -39 186 -89 204 -110
28 -34 -27 -48 -70 -18 -29 21 -109 56 -197 88 -72 26 -94 41 -86 61 9 23 59
16 149 -21z"/>
<path d="M2264 8305 c-39 -16 -80 -66 -94 -113 -18 -60 -23 -173 -11 -234 17
-78 42 -108 91 -108 21 0 43 6 50 15 7 8 18 15 24 15 13 0 65 71 84 115 18 40
16 155 -3 220 -17 60 -51 98 -65 75 -8 -12 -10 -12 -15 2 -9 24 -27 28 -61 13z"/>
<path d="M2955 8293 c-16 -8 -39 -24 -51 -34 -27 -25 -69 -120 -85 -191 -16
-74 1 -151 43 -203 24 -29 36 -35 66 -35 52 0 81 18 124 75 82 107 104 244 53
330 -43 74 -87 91 -150 58z"/>
</g>
</svg>
