<?xml version="1.0" standalone="no"?>
<!DOCTYPE svg PUBLIC "-//W3C//DTD SVG 20010904//EN"
 "http://www.w3.org/TR/2001/REC-SVG-20010904/DTD/svg10.dtd">
<svg version="1.0" xmlns="http://www.w3.org/2000/svg"
 width="704.000000pt" height="1280.000000pt" viewBox="0 0 704.000000 1280.000000"
 preserveAspectRatio="xMidYMid meet">
<metadata>
Created by potrace 1.16, written by Peter Selinger 2001-2019
</metadata>
<g transform="translate(0.000000,1280.000000) scale(0.100000,-0.100000)"
fill="#000000" stroke="none">
<path d="M3498 9662 c-23 -23 -43 -65 -65 -134 -3 -10 3 -18 17 -23 17 -5 19
-10 11 -18 -9 -9 -14 -8 -21 2 -6 10 -15 -8 -30 -60 -11 -41 -25 -85 -30 -99
-4 -14 -18 -59 -31 -100 -12 -41 -31 -88 -41 -105 -10 -16 -18 -37 -18 -46 0
-8 -10 -35 -21 -60 -12 -24 -33 -77 -46 -118 -30 -96 -37 -104 -84 -96 -27 5
-45 2 -61 -9 -23 -17 -59 -22 -57 -8 1 4 1 10 0 13 -1 6 -59 -3 -103 -17 -13
-4 -20 7 -34 56 -9 33 -21 63 -25 66 -5 3 -9 15 -9 27 0 27 -65 213 -86 244
-8 12 -14 33 -14 46 0 25 -36 122 -53 145 -6 7 -11 25 -12 40 -1 15 -10 42
-19 59 -9 18 -16 38 -16 46 0 8 -9 22 -20 32 -11 10 -20 27 -20 37 0 27 -45
68 -74 68 -27 0 -57 -32 -73 -77 -31 -84 -54 -167 -68 -243 -9 -47 -23 -105
-30 -130 -20 -65 -45 -193 -45 -233 0 -18 -8 -58 -17 -88 -9 -30 -18 -70 -19
-89 -1 -19 -9 -78 -18 -130 -9 -52 -16 -125 -16 -161 0 -61 -2 -68 -27 -84
-48 -32 -215 -199 -252 -253 -63 -93 -161 -276 -161 -301 0 -7 -41 -8 -113 -4
-96 5 -114 3 -126 -10 -26 -33 -6 -47 66 -48 37 0 86 -3 108 -7 l39 -7 1 -69
0 -69 -41 -18 c-22 -10 -72 -25 -110 -34 -38 -8 -79 -18 -91 -20 -15 -4 -23
-13 -23 -25 0 -17 7 -20 48 -20 26 0 88 11 137 25 49 13 92 21 96 17 3 -4 11
-25 17 -48 16 -56 85 -160 119 -178 15 -8 38 -26 50 -39 13 -14 67 -53 121
-88 167 -109 217 -138 328 -188 71 -32 90 -45 96 -66 3 -15 10 -115 13 -224 4
-108 7 -204 8 -212 1 -7 -4 -34 -12 -59 -7 -25 -17 -63 -23 -85 -6 -22 -17
-58 -25 -80 -8 -22 -14 -40 -13 -40 1 0 -3 -13 -9 -28 -6 -16 -11 -32 -11 -36
0 -5 -12 -24 -27 -43 -16 -19 -41 -64 -57 -99 -16 -35 -35 -76 -42 -91 -8 -14
-14 -35 -14 -46 0 -12 -5 -24 -11 -28 -6 -3 -20 -25 -31 -48 -11 -22 -33 -63
-49 -91 -16 -27 -29 -59 -29 -70 0 -11 -13 -36 -29 -56 -16 -19 -34 -53 -40
-74 -6 -22 -17 -49 -24 -60 -8 -11 -16 -31 -19 -45 -3 -14 -17 -54 -30 -90
-13 -36 -34 -108 -47 -160 -21 -91 -26 -107 -49 -175 -6 -16 -16 -68 -22 -115
-6 -47 -16 -107 -22 -135 -7 -32 -9 -111 -5 -225 7 -172 9 -185 56 -340 5 -16
14 -24 25 -22 15 3 17 -2 12 -26 -10 -41 25 -84 62 -76 25 5 26 4 9 -9 -17
-14 -18 -17 -2 -41 38 -58 315 -266 354 -266 7 0 23 -7 36 -16 20 -13 28 -14
40 -4 12 10 15 10 15 -4 0 -26 40 -43 135 -60 167 -28 229 -33 395 -30 654 11
777 14 875 23 61 6 164 15 230 21 l120 10 40 -31 c22 -16 60 -44 84 -62 79
-56 171 -152 171 -176 0 -83 -173 -123 -444 -102 -172 13 -373 33 -551 56
-143 18 -182 20 -350 19 -206 -1 -287 -16 -384 -70 -24 -13 -49 -24 -56 -24
-15 0 -99 -81 -138 -133 -64 -85 -74 -230 -22 -309 15 -22 33 -38 45 -38 10 0
23 -6 27 -14 19 -32 101 -48 141 -27 9 6 29 12 44 16 15 3 52 25 83 50 30 25
58 45 61 45 3 0 19 11 35 25 17 13 61 34 100 45 62 19 91 21 254 18 102 -2
185 -6 185 -9 0 -6 123 -26 247 -39 43 -5 101 -13 130 -19 76 -14 386 -33 545
-33 168 0 345 30 448 74 172 75 226 117 269 208 21 47 25 70 26 151 0 95 -1
98 -45 183 -45 88 -140 206 -165 206 -8 0 -19 9 -25 19 -5 11 -20 23 -32 27
-13 4 -28 14 -34 23 -7 9 -35 32 -63 51 -28 19 -51 38 -51 41 0 3 23 24 50 46
28 23 69 67 93 99 24 33 51 65 60 73 9 7 17 20 17 28 0 8 9 31 19 51 45 84 61
124 61 148 0 14 10 44 22 67 20 39 22 55 22 239 0 110 -5 214 -11 235 -6 21
-19 72 -28 113 -10 41 -23 89 -30 105 -7 17 -17 43 -24 58 -6 15 -11 37 -11
48 0 11 -22 65 -50 120 -27 55 -50 104 -50 109 0 5 -22 55 -49 112 -26 57 -54
119 -61 138 -8 19 -25 53 -38 74 -13 22 -42 74 -63 116 -21 42 -45 82 -53 90
-9 7 -16 20 -16 30 0 10 -18 42 -40 71 -22 30 -40 62 -40 72 0 23 -54 133 -79
162 -10 11 -57 99 -105 195 -47 96 -93 186 -100 200 -25 43 -156 336 -156 348
0 10 -39 100 -86 196 -13 28 -24 55 -24 62 0 6 -7 15 -16 18 -10 4 -12 11 -7
21 5 8 5 45 -1 82 -8 58 -6 80 14 153 12 47 27 112 33 145 10 55 14 231 7 315
-1 19 -7 94 -12 165 -6 72 -17 166 -25 210 -8 44 -19 103 -24 130 -4 28 -12
66 -18 85 -8 33 -16 59 -63 207 -11 35 -24 65 -29 68 -5 4 -9 16 -9 29 0 12
-4 26 -9 32 -5 5 -33 70 -64 144 -174 425 -228 546 -257 573 -38 34 -68 34
-102 -1z m-1113 -1296 c18 -14 46 -54 65 -93 26 -55 33 -83 36 -146 4 -71 1
-85 -26 -143 -50 -110 -144 -194 -215 -194 -15 0 -24 -4 -20 -10 3 -5 1 -10
-4 -10 -6 0 -11 6 -11 13 0 7 -14 26 -31 43 -50 47 -59 74 -59 177 0 118 15
199 47 259 31 56 56 81 109 108 52 25 71 25 109 -4z m772 -36 c48 -47 61 -79
67 -175 4 -58 1 -82 -21 -140 -46 -123 -125 -215 -203 -236 -49 -13 -125 -6
-150 14 -27 20 -60 74 -60 95 0 12 -4 24 -10 27 -15 9 -12 90 6 175 36 176
137 279 274 280 51 0 58 -3 97 -40z m504 -557 c9 -9 9 -16 0 -27 -10 -12 -39
-15 -134 -16 -67 0 -133 -1 -147 -3 -36 -3 -38 27 -3 41 49 19 66 21 170 19
63 -2 107 -7 114 -14z m-205 -208 c76 -29 206 -98 224 -120 29 -36 -30 -48
-73 -15 -14 11 -28 20 -32 20 -4 0 -47 18 -96 40 -49 22 -95 40 -103 40 -22 0
-60 35 -52 48 11 19 60 14 132 -13z"/>
<path d="M2221 8275 c-29 -26 -42 -50 -55 -93 -30 -107 -15 -263 30 -313 11
-13 30 -19 57 -19 33 0 45 6 76 39 84 89 95 119 88 232 -8 120 -41 188 -84
172 -6 -2 -14 1 -18 6 -13 22 -56 10 -94 -24z"/>
<path d="M2955 8293 c-46 -24 -65 -44 -93 -98 -51 -99 -61 -223 -23 -295 28
-53 47 -69 84 -70 67 0 126 49 177 150 17 33 25 68 28 127 4 75 2 86 -22 127
-44 75 -88 93 -151 59z"/>
</g>
</svg>
