<?xml version="1.0" standalone="no"?>
<!DOCTYPE svg PUBLIC "-//W3C//DTD SVG 20010904//EN"
 "http://www.w3.org/TR/2001/REC-SVG-20010904/DTD/svg10.dtd">
<svg version="1.0" xmlns="http://www.w3.org/2000/svg"
 width="704.000000pt" height="1280.000000pt" viewBox="0 0 704.000000 1280.000000"
 preserveAspectRatio="xMidYMid meet">
<metadata>
Created by potrace 1.16, written by Peter Selinger 2001-2019
</metadata>
<g transform="translate(0.000000,1280.000000) scale(0.100000,-0.100000)"
fill="#000000" stroke="none">
<path d="M3507 9682 c-28 -30 -77 -132 -77 -161 0 -26 -81 -279 -141 -441 -18
-47 -40 -112 -51 -145 -11 -33 -24 -67 -29 -75 -5 -8 -14 -26 -19 -39 -9 -21
-15 -23 -55 -19 -27 4 -54 0 -71 -8 -22 -12 -28 -12 -41 1 -18 19 -25 19 -70
0 -19 -8 -39 -15 -44 -15 -5 0 -16 26 -25 58 -9 31 -20 61 -25 67 -5 5 -9 20
-9 35 0 14 -9 45 -20 69 -11 24 -20 51 -20 60 0 9 -14 45 -30 79 -17 35 -30
72 -30 83 0 17 -7 37 -45 124 -7 17 -16 43 -20 60 -4 16 -22 62 -41 101 -19
39 -34 75 -34 80 0 17 -55 64 -75 64 -33 0 -62 -27 -78 -72 -22 -62 -64 -221
-82 -313 -9 -44 -21 -98 -26 -119 -6 -22 -22 -100 -35 -175 -14 -75 -29 -158
-34 -186 -19 -102 -40 -284 -36 -316 3 -29 -4 -38 -78 -104 -45 -40 -99 -92
-122 -116 -94 -102 -194 -264 -224 -366 l-13 -43 -111 6 c-119 6 -154 -3 -140
-39 5 -13 18 -17 63 -17 31 0 80 -3 109 -6 42 -6 52 -10 52 -25 0 -11 5 -19
12 -19 9 0 9 -3 0 -12 -7 -7 -12 -31 -12 -54 0 -39 -2 -43 -37 -57 -21 -8 -82
-25 -136 -38 -85 -21 -97 -26 -95 -44 3 -17 10 -20 53 -17 27 1 86 12 130 25
44 12 84 22 88 22 4 0 19 -26 32 -58 13 -32 36 -77 52 -99 40 -59 167 -160
261 -209 12 -7 22 -16 22 -20 0 -12 308 -180 371 -201 8 -3 14 -94 24 -347 2
-57 6 -106 9 -108 3 -3 -1 -18 -9 -34 -8 -15 -15 -38 -15 -51 0 -13 -11 -57
-24 -98 -13 -41 -26 -87 -30 -101 -3 -14 -16 -41 -29 -60 -27 -40 -87 -155
-116 -221 -48 -111 -65 -144 -81 -163 -18 -22 -60 -116 -60 -136 0 -7 -12 -27
-26 -46 -14 -19 -30 -51 -36 -71 -5 -20 -16 -44 -23 -52 -6 -8 -17 -33 -23
-55 -5 -22 -19 -63 -29 -90 -17 -43 -57 -183 -68 -234 -2 -9 -11 -36 -19 -60
-9 -24 -16 -58 -16 -75 0 -17 -5 -47 -10 -66 -19 -61 -39 -237 -38 -332 1
-124 32 -311 58 -343 4 -5 10 -21 12 -35 2 -18 8 -24 21 -22 11 2 17 -2 16
-10 -6 -26 12 -86 26 -92 8 -3 23 -2 33 1 9 4 -11 -17 -44 -46 -109 -92 -163
-175 -209 -321 -25 -79 -27 -94 -21 -205 3 -66 10 -136 16 -155 7 -21 8 -66 4
-112 -7 -92 -14 -103 -148 -231 -78 -75 -97 -100 -106 -136 -6 -24 -8 -55 -5
-70 4 -14 9 -37 11 -50 8 -40 61 -98 113 -124 79 -39 159 -30 297 35 11 5 57
45 102 88 69 67 88 93 125 172 70 147 71 151 62 337 -13 264 -12 268 24 341
42 87 101 150 139 150 15 0 33 -5 40 -12 8 -8 15 -8 27 2 12 10 15 10 15 -4 0
-20 49 -45 113 -57 172 -32 251 -35 755 -30 148 1 267 -3 305 -10 93 -17 240
-17 260 0 11 9 28 11 51 7 22 -4 48 0 78 13 24 10 64 22 88 26 25 4 55 14 67
22 15 10 23 11 23 4 0 -6 17 -11 38 -11 49 0 281 39 303 51 10 5 35 11 56 14
98 14 310 161 352 244 11 21 27 41 36 44 8 4 29 37 46 74 17 37 39 84 49 103
10 19 23 62 30 95 7 33 17 66 24 74 17 22 19 339 2 452 -14 93 -37 185 -55
224 -5 11 -17 49 -26 85 -18 67 -30 96 -83 190 -17 30 -29 58 -26 62 3 4 -8
33 -25 65 -16 32 -57 116 -91 186 -34 70 -71 133 -81 140 -10 6 -19 22 -19 35
0 27 -32 93 -54 111 -9 8 -16 21 -16 31 0 9 -13 36 -30 58 -16 23 -30 46 -30
51 0 18 -74 167 -96 194 -13 15 -69 121 -124 235 -56 114 -130 266 -165 339
-36 72 -65 138 -65 146 0 8 -15 46 -34 83 -91 188 -99 212 -100 319 -1 96 14
196 36 242 6 12 8 32 5 44 -3 12 -2 31 4 41 7 13 6 18 -2 18 -8 0 -8 4 0 14
15 17 17 145 6 266 -4 47 -7 94 -7 105 0 89 -63 455 -90 523 -22 55 -26 68
-38 112 -6 25 -19 63 -29 85 -10 22 -25 60 -33 85 -9 25 -26 68 -37 95 -12 28
-51 122 -87 210 -37 88 -86 207 -110 265 -48 118 -79 163 -122 178 -26 9 -33
7 -55 -16z m-1114 -1339 c11 -10 33 -47 48 -81 89 -196 -33 -482 -204 -482
-73 0 -121 72 -129 190 -13 178 51 333 156 381 48 22 99 18 129 -8z m733 -12
c78 -56 84 -72 86 -198 1 -128 -44 -239 -129 -318 -32 -31 -111 -65 -147 -65
-65 0 -137 56 -156 120 -25 87 -3 263 42 340 78 131 216 186 304 121z m534
-557 c6 -6 8 -18 4 -27 -5 -14 -24 -17 -125 -19 -65 -1 -134 -2 -151 -2 -22
-1 -34 4 -36 15 -3 16 28 33 78 43 45 8 219 1 230 -10z m-216 -208 c87 -33
207 -93 230 -116 39 -38 -21 -56 -67 -20 -14 11 -30 20 -36 20 -5 0 -45 15
-88 34 -43 18 -95 39 -115 46 -30 9 -38 17 -38 36 0 32 29 32 114 0z"/>
<path d="M2217 8271 c-67 -59 -105 -241 -72 -344 23 -74 53 -102 100 -94 49 8
97 44 90 67 -3 10 0 22 6 26 9 5 10 2 6 -9 -4 -11 -2 -14 8 -11 8 3 24 31 35
61 42 113 2 323 -59 308 -13 -3 -27 -2 -30 3 -16 25 -50 22 -84 -7z"/>
<path d="M2955 8286 c-34 -15 -96 -80 -119 -125 -26 -49 -39 -175 -25 -233 16
-70 60 -118 108 -118 69 0 126 53 178 165 39 85 39 181 0 248 -26 44 -69 78
-99 77 -7 -1 -26 -7 -43 -14z"/>
</g>
</svg>
