<?xml version="1.0" standalone="no"?>
<!DOCTYPE svg PUBLIC "-//W3C//DTD SVG 20010904//EN"
 "http://www.w3.org/TR/2001/REC-SVG-20010904/DTD/svg10.dtd">
<svg version="1.0" xmlns="http://www.w3.org/2000/svg"
 width="704.000000pt" height="1280.000000pt" viewBox="0 0 704.000000 1280.000000"
 preserveAspectRatio="xMidYMid meet">
<metadata>
Created by potrace 1.16, written by Peter Selinger 2001-2019
</metadata>
<g transform="translate(0.000000,1280.000000) scale(0.100000,-0.100000)"
fill="#000000" stroke="none">
<path d="M3512 9687 c-27 -29 -82 -139 -82 -163 0 -26 -97 -342 -114 -374 -8
-14 -19 -45 -26 -69 -6 -24 -22 -68 -36 -97 -13 -29 -24 -60 -24 -69 0 -8 -12
-38 -27 -66 l-26 -51 -43 5 c-26 3 -54 -1 -70 -9 -22 -12 -28 -12 -41 1 -18
19 -22 19 -66 0 -20 -8 -41 -15 -46 -15 -6 0 -18 27 -27 60 -9 33 -21 63 -25
66 -5 3 -9 16 -9 30 0 14 -7 41 -16 62 -9 20 -22 60 -30 89 -7 28 -22 66 -34
85 -11 18 -20 43 -20 55 0 22 -17 67 -46 126 -8 16 -14 36 -14 44 0 15 -43
123 -61 153 -5 8 -15 29 -23 47 -19 42 -58 67 -92 59 -18 -5 -32 -21 -50 -59
-13 -29 -24 -59 -24 -67 0 -9 -9 -41 -19 -71 -11 -30 -29 -98 -40 -150 -50
-241 -70 -341 -86 -429 -9 -52 -20 -115 -25 -140 -16 -78 -30 -233 -25 -273 3
-22 1 -36 -4 -33 -5 4 -11 2 -13 -2 -1 -5 -27 -27 -57 -51 -68 -53 -192 -189
-239 -261 -36 -57 -102 -188 -120 -240 l-11 -30 -108 6 c-114 6 -151 -4 -138
-37 5 -13 28 -17 112 -22 58 -3 107 -8 109 -10 5 -4 5 -36 2 -97 -3 -40 -7
-47 -37 -62 -19 -9 -79 -27 -133 -40 -87 -20 -98 -25 -96 -43 3 -17 9 -20 53
-17 27 1 86 12 130 25 44 12 84 22 89 22 4 0 19 -28 32 -63 13 -34 36 -79 51
-98 28 -38 145 -137 191 -164 30 -18 37 -22 77 -53 56 -43 199 -124 295 -167
52 -24 96 -43 97 -44 3 -2 15 -248 17 -348 1 -54 5 -100 8 -103 4 -4 0 -22 -8
-40 -8 -19 -14 -43 -14 -53 0 -20 -49 -178 -71 -227 -7 -16 -23 -43 -34 -60
-22 -31 -81 -149 -100 -200 -23 -58 -59 -130 -75 -150 -18 -22 -60 -117 -60
-136 0 -7 -12 -27 -26 -46 -14 -19 -30 -51 -36 -71 -5 -20 -16 -44 -23 -52 -6
-8 -17 -33 -23 -55 -6 -22 -20 -67 -32 -100 -35 -98 -92 -306 -100 -365 -5
-30 -16 -86 -26 -125 -19 -76 -28 -340 -14 -418 4 -23 13 -71 20 -107 6 -36
18 -75 26 -87 8 -12 14 -32 14 -43 0 -17 4 -20 20 -15 15 5 20 2 18 -12 -3
-41 3 -63 23 -82 l22 -20 -70 -68 c-156 -152 -219 -344 -188 -571 8 -57 17
-107 20 -112 3 -4 2 -36 -2 -70 -6 -65 -45 -137 -102 -189 -150 -136 -156
-146 -154 -237 1 -66 4 -77 33 -113 18 -22 56 -52 83 -67 69 -35 164 -31 252
11 54 26 172 131 226 201 77 100 119 227 120 365 1 58 -3 117 -10 132 -6 16
-11 63 -11 105 0 68 4 86 34 147 19 39 51 87 71 108 31 32 43 37 80 37 24 0
50 3 59 6 11 4 16 1 16 -10 0 -19 83 -61 105 -53 7 3 17 1 23 -5 26 -26 260
-35 727 -29 147 2 260 -1 310 -9 110 -17 248 -18 267 -2 8 7 31 12 49 11 37
-2 200 39 237 59 14 8 22 9 22 2 0 -15 73 -12 190 9 146 26 190 40 183 60 -4
14 -3 14 6 -1 10 -14 16 -15 56 -3 51 16 155 74 194 110 14 13 43 38 64 56 21
17 47 50 58 71 11 21 27 42 35 45 18 6 108 194 119 244 3 19 16 61 27 94 15
46 20 82 18 155 -1 52 -1 111 0 130 3 64 3 74 -13 170 -15 95 -38 188 -56 225
-5 11 -17 48 -26 83 -19 75 -35 109 -80 182 -19 30 -33 62 -30 70 3 9 -8 37
-25 63 -16 26 -30 50 -30 53 0 12 -64 147 -117 247 -8 15 -21 27 -29 27 -8 0
-14 10 -14 26 0 30 -33 106 -55 124 -8 7 -15 20 -15 30 0 9 -13 36 -30 58 -16
23 -30 47 -30 53 0 20 -72 163 -97 193 -13 15 -60 103 -105 195 -44 91 -89
178 -99 193 -11 14 -19 33 -19 41 0 9 -29 74 -65 146 -36 71 -65 137 -65 146
0 10 -13 43 -28 74 -16 31 -47 97 -68 146 -37 84 -39 96 -39 185 0 89 16 190
36 235 4 11 7 40 6 65 -2 25 1 51 6 58 8 10 7 82 -4 362 -6 151 -68 481 -108
575 -5 11 -15 43 -24 70 -27 90 -182 477 -245 615 -16 36 -33 76 -37 90 -16
52 -73 166 -91 182 -10 9 -31 21 -45 27 -22 8 -30 6 -47 -12z m-1136 -1336
c18 -11 42 -42 60 -77 26 -53 29 -68 29 -159 0 -148 -40 -235 -139 -306 -73
-54 -153 -33 -195 49 -37 75 -31 264 11 363 23 52 77 109 123 130 52 23 73 23
111 0z m755 -23 c68 -54 80 -84 80 -190 0 -105 -20 -179 -72 -260 -41 -64 -74
-89 -142 -113 -50 -17 -63 -18 -105 -7 -54 15 -106 66 -116 114 -11 57 -6 190
10 246 35 123 112 209 209 233 64 15 95 10 136 -23z m529 -554 c6 -6 8 -18 4
-27 -5 -14 -24 -17 -125 -19 -65 -1 -134 -2 -151 -2 -22 -1 -34 4 -36 15 -3
16 28 33 78 43 45 8 219 1 230 -10z m-216 -208 c87 -33 207 -93 230 -116 39
-38 -21 -56 -67 -20 -14 11 -30 20 -36 20 -5 0 -45 15 -88 34 -43 18 -95 39
-115 46 -30 9 -38 17 -38 36 0 32 29 32 114 0z"/>
<path d="M2210 8262 c-90 -89 -105 -325 -27 -409 28 -31 73 -29 120 3 28 19
36 30 32 44 -3 10 -1 21 5 25 5 3 10 1 10 -4 0 -29 21 -5 40 45 44 119 6 309
-62 309 -15 0 -33 6 -39 13 -21 20 -39 14 -79 -26z"/>
<path d="M2955 8286 c-38 -17 -100 -85 -120 -132 -22 -53 -37 -160 -29 -211
13 -86 71 -141 137 -129 54 10 102 58 144 143 33 67 37 84 37 148 -1 60 -5 81
-28 119 -25 43 -68 76 -98 76 -7 -1 -26 -7 -43 -14z"/>
</g>
</svg>
