<?xml version="1.0" standalone="no"?>
<!DOCTYPE svg PUBLIC "-//W3C//DTD SVG 20010904//EN"
 "http://www.w3.org/TR/2001/REC-SVG-20010904/DTD/svg10.dtd">
<svg version="1.0" xmlns="http://www.w3.org/2000/svg"
 width="704.000000pt" height="1280.000000pt" viewBox="0 0 704.000000 1280.000000"
 preserveAspectRatio="xMidYMid meet">
<metadata>
Created by potrace 1.16, written by Peter Selinger 2001-2019
</metadata>
<g transform="translate(0.000000,1280.000000) scale(0.100000,-0.100000)"
fill="#000000" stroke="none">
<path d="M3513 9693 c-11 -11 -30 -42 -42 -69 -12 -27 -27 -57 -32 -66 -5 -10
-9 -26 -9 -36 0 -25 -105 -361 -124 -397 -9 -16 -16 -38 -16 -48 0 -10 -13
-47 -30 -82 -16 -35 -30 -71 -30 -80 0 -8 -12 -38 -26 -65 l-26 -50 -52 0
c-61 0 -183 -6 -210 -11 -16 -3 -21 4 -28 34 -4 21 -13 48 -20 60 -6 12 -15
40 -19 62 -11 54 -54 181 -79 228 -11 22 -20 46 -20 55 0 19 -37 121 -50 137
-4 6 -10 26 -14 45 -3 19 -22 66 -41 104 -19 39 -35 74 -35 80 0 21 -54 66
-80 66 -60 0 -79 -53 -186 -520 -15 -69 -29 -143 -29 -165 -1 -22 -4 -45 -7
-50 -21 -36 -74 -409 -64 -449 5 -19 -5 -33 -52 -75 -123 -111 -196 -189 -244
-260 -53 -78 -138 -247 -138 -275 0 -14 -13 -15 -118 -10 -98 6 -119 4 -130
-8 -7 -9 -10 -23 -6 -32 5 -13 21 -16 78 -17 39 0 89 -3 111 -7 38 -7 40 -9
38 -42 -2 -19 -3 -50 -4 -68 -1 -44 -21 -56 -155 -88 -93 -23 -114 -31 -114
-46 0 -27 88 -24 191 6 46 14 87 22 90 18 4 -4 13 -28 22 -54 23 -70 69 -131
148 -195 39 -32 79 -63 88 -68 9 -6 36 -24 60 -40 122 -83 382 -225 412 -225
5 0 9 -8 10 -17 0 -10 2 -61 4 -113 2 -52 5 -144 6 -205 1 -60 6 -115 11 -122
5 -7 5 -14 -1 -17 -5 -4 -13 -28 -16 -54 -11 -75 -74 -259 -101 -292 -21 -27
-71 -125 -100 -196 -15 -38 -43 -96 -63 -129 -38 -63 -81 -156 -81 -175 0 -6
-13 -31 -30 -55 -16 -24 -30 -54 -30 -66 0 -12 -8 -31 -17 -41 -10 -11 -23
-38 -29 -61 -7 -23 -22 -69 -34 -102 -35 -98 -92 -306 -100 -365 -10 -72 -39
-212 -45 -219 -3 -3 -47 16 -98 41 -123 62 -216 77 -360 59 -133 -16 -210 -42
-300 -100 -108 -71 -176 -143 -219 -231 -80 -166 -97 -269 -55 -350 12 -24 31
-49 41 -54 11 -6 31 -21 45 -34 36 -31 65 -37 94 -17 24 15 26 15 35 -1 10
-17 12 -17 52 1 23 10 52 33 64 49 29 40 57 114 44 118 -5 2 18 40 52 85 75
101 115 123 225 123 63 0 77 -4 118 -31 101 -66 173 -193 248 -429 78 -248
128 -335 283 -494 105 -107 316 -239 397 -249 19 -3 51 -12 71 -21 21 -9 46
-16 57 -16 11 0 32 -5 48 -11 72 -28 483 -63 483 -42 0 4 26 8 58 8 107 0 321
53 306 76 -2 4 1 11 7 15 8 4 9 3 5 -4 -31 -51 228 70 347 161 61 46 225 219
238 249 13 31 15 32 144 48 114 14 244 39 270 53 10 5 34 11 52 12 44 3 150
58 211 109 27 22 62 50 77 61 16 12 28 29 28 38 0 9 2 15 5 13 4 -5 78 82 93
108 30 52 82 177 89 215 4 25 9 47 9 49 0 1 8 16 17 34 20 39 30 283 11 271
-7 -4 -6 1 2 10 12 16 12 36 -3 142 -13 98 -34 185 -59 250 -6 17 -12 35 -12
40 -3 41 -53 163 -99 240 -13 22 -22 44 -19 48 3 5 -21 61 -52 125 -32 65 -70
142 -84 172 -14 30 -41 76 -59 102 -18 26 -30 48 -27 48 9 0 -43 96 -59 109
-9 8 -16 23 -16 35 0 12 -13 37 -30 56 -16 19 -29 42 -30 51 0 8 -13 43 -30
77 -16 34 -30 64 -30 67 0 2 -19 32 -43 67 -24 35 -74 128 -111 207 -37 80
-76 156 -87 169 -10 14 -19 31 -19 39 0 7 -29 71 -64 142 -35 71 -66 144 -70
161 -3 17 -15 45 -26 61 -12 16 -32 61 -46 101 -14 39 -32 85 -40 100 -8 16
-17 66 -20 111 -5 68 -1 99 20 181 15 54 24 107 21 117 -4 11 -2 19 4 19 6 0
11 12 11 26 0 17 -4 23 -12 18 -10 -6 -10 -5 -1 7 22 28 18 312 -8 509 -15
119 -58 325 -81 390 -11 30 -23 69 -27 85 -5 17 -15 48 -24 70 -8 22 -21 56
-28 75 -25 70 -153 387 -180 445 -10 22 -38 90 -64 150 -25 61 -51 120 -57
133 -14 27 -57 72 -69 72 -4 0 -14 3 -22 6 -9 3 -24 -3 -34 -13z m-1130 -1343
c41 -32 88 -143 88 -206 0 -124 -32 -222 -98 -295 -87 -96 -191 -91 -243 12
-17 31 -20 59 -20 137 0 131 4 159 29 212 31 66 79 120 125 141 53 24 87 24
119 -1z m744 -19 c22 -16 51 -44 64 -63 21 -29 24 -43 23 -123 -4 -192 -85
-337 -215 -380 -76 -25 -119 -15 -177 39 l-45 43 -5 104 c-4 86 -1 116 17 176
42 139 145 231 262 233 24 0 49 -9 76 -29z m517 -551 c14 -5 26 -13 26 -17 -1
-26 -23 -31 -165 -34 -145 -4 -150 -3 -150 16 0 15 11 23 45 32 56 14 210 16
244 3z m-227 -204 c96 -34 237 -103 259 -128 35 -37 -24 -53 -69 -18 -14 11
-31 20 -39 20 -7 0 -40 13 -73 28 -33 16 -78 35 -100 42 -49 15 -75 37 -68 56
7 18 40 18 90 0z m-392 -3920 c94 0 228 1 299 3 81 1 133 -2 139 -8 6 -6 20
-11 31 -11 17 0 18 -2 7 -9 -8 -5 -22 -6 -30 -3 -21 10 -40 9 -76 -5 -168 -63
-376 -68 -593 -12 -85 22 -92 25 -92 46 0 14 9 15 73 7 39 -4 149 -8 242 -8z"/>
<path d="M2222 8275 c-42 -35 -69 -96 -82 -189 -32 -218 72 -327 193 -202 60
61 72 99 70 208 -2 75 -7 106 -24 143 -18 39 -25 46 -44 41 -12 -3 -30 1 -41
9 -27 20 -38 19 -72 -10z"/>
<path d="M2953 8283 c-85 -47 -128 -116 -144 -229 -10 -68 -9 -89 5 -136 52
-179 227 -123 297 95 37 116 6 232 -72 273 -36 18 -48 18 -86 -3z"/>
</g>
</svg>
