<?xml version="1.0" standalone="no"?>
<!DOCTYPE svg PUBLIC "-//W3C//DTD SVG 20010904//EN"
 "http://www.w3.org/TR/2001/REC-SVG-20010904/DTD/svg10.dtd">
<svg version="1.0" xmlns="http://www.w3.org/2000/svg"
 width="704.000000pt" height="1280.000000pt" viewBox="0 0 704.000000 1280.000000"
 preserveAspectRatio="xMidYMid meet">
<metadata>
Created by potrace 1.16, written by Peter Selinger 2001-2019
</metadata>
<g transform="translate(0.000000,1280.000000) scale(0.100000,-0.100000)"
fill="#000000" stroke="none">
<path d="M3500 9673 c-17 -21 -33 -49 -37 -63 -3 -14 -9 -30 -14 -35 -4 -6
-14 -39 -23 -75 -22 -94 -156 -494 -183 -545 -6 -11 -13 -34 -16 -51 -3 -17
-16 -48 -28 -68 -20 -35 -24 -37 -59 -31 -26 4 -48 1 -70 -10 -28 -14 -34 -15
-48 -2 -15 13 -24 13 -67 2 -27 -7 -50 -13 -51 -12 -18 41 -48 132 -53 162 -4
22 -12 49 -18 60 -5 11 -16 43 -22 70 -7 28 -23 69 -37 92 -13 23 -24 52 -24
65 0 13 -14 54 -30 93 -17 38 -30 76 -30 83 0 22 -90 205 -113 230 -27 29 -62
28 -91 -3 -27 -29 -72 -176 -116 -380 -10 -49 -26 -122 -34 -160 -9 -39 -17
-91 -20 -115 -2 -25 -11 -74 -19 -110 -36 -155 -62 -346 -53 -391 4 -22 0 -32
-22 -49 -61 -47 -228 -219 -261 -268 -72 -107 -121 -201 -143 -273 l-11 -40
-103 7 c-125 8 -157 2 -152 -29 3 -21 10 -22 110 -29 59 -3 111 -9 116 -12 5
-3 6 -27 2 -53 -4 -26 -5 -53 -3 -61 12 -31 -39 -55 -189 -87 -65 -14 -78 -20
-78 -36 0 -16 7 -19 54 -19 31 0 90 11 137 26 45 14 85 22 89 17 4 -4 15 -31
24 -60 16 -49 75 -139 102 -156 7 -4 43 -32 80 -62 36 -30 72 -55 79 -55 6 0
20 -9 30 -20 10 -11 23 -20 28 -20 5 0 15 -6 21 -14 13 -17 186 -113 293 -163
43 -20 80 -37 81 -39 4 -3 11 -171 15 -341 2 -56 5 -105 9 -108 3 -3 -1 -22
-8 -43 -7 -20 -13 -46 -14 -56 0 -22 -15 -72 -37 -128 -9 -20 -12 -41 -9 -47
4 -6 3 -11 -2 -11 -6 0 -13 -12 -17 -27 -3 -16 -15 -37 -25 -48 -10 -11 -44
-74 -75 -140 -76 -158 -101 -208 -141 -280 -18 -33 -34 -68 -34 -78 0 -10 -12
-33 -26 -52 -14 -18 -30 -50 -36 -71 -5 -20 -16 -44 -24 -51 -8 -8 -14 -22
-14 -31 0 -9 -20 -75 -44 -147 -24 -71 -49 -150 -56 -175 -6 -25 -18 -66 -25
-91 -8 -26 -15 -60 -15 -75 -1 -16 -7 -51 -14 -79 l-13 -49 -26 40 c-27 40
-93 101 -135 123 -12 7 -46 14 -75 16 -93 7 -171 -44 -200 -130 -22 -63 -21
-123 3 -215 11 -41 20 -95 20 -119 0 -66 -42 -143 -118 -215 -114 -108 -161
-159 -210 -232 -42 -61 -51 -83 -66 -165 -15 -81 -16 -106 -6 -179 13 -97 67
-221 108 -248 14 -9 39 -32 56 -50 83 -90 267 -180 522 -257 89 -27 302 -105
373 -137 25 -11 61 -21 82 -22 20 -1 43 -7 51 -13 13 -11 59 -23 188 -49 41
-8 82 -19 91 -24 10 -5 41 -9 70 -9 30 0 77 -1 104 -3 28 -1 124 -3 215 -2
225 1 318 15 500 76 19 6 44 12 55 13 43 5 274 125 345 179 189 144 278 245
346 392 31 66 37 74 67 78 17 2 88 12 155 20 68 9 140 23 159 31 20 8 45 15
57 15 33 0 195 85 252 133 28 23 66 64 85 90 19 27 46 63 62 81 15 19 27 36
27 39 0 3 18 44 41 91 22 46 43 102 46 123 3 21 13 52 22 68 19 37 27 280 9
269 -8 -5 -9 -1 -3 12 4 10 10 33 12 49 8 60 -49 355 -69 355 -4 0 -8 7 -8 15
0 22 -41 148 -51 160 -5 5 -9 15 -9 22 0 7 -16 38 -35 68 -20 30 -35 61 -33
68 1 6 -16 50 -39 97 -22 47 -56 117 -74 155 -59 122 -152 290 -166 298 -7 4
-13 17 -13 29 0 11 -13 37 -30 58 -16 21 -30 44 -30 52 0 20 -66 154 -95 192
-12 17 -58 103 -100 191 -43 88 -86 171 -95 185 -10 14 -21 36 -25 50 -4 14
-34 80 -67 147 -32 68 -61 131 -63 140 -2 10 -24 62 -49 115 -25 54 -46 102
-46 108 0 6 -9 28 -19 48 -41 80 -38 209 8 354 10 31 14 63 10 69 -4 7 -3 24
3 38 28 72 -1 577 -42 730 -5 20 -17 68 -25 106 -24 104 -76 264 -102 315 -7
14 -13 30 -13 36 0 6 -13 41 -30 77 -16 37 -30 71 -30 76 0 10 -62 160 -125
301 -18 41 -47 109 -64 150 -51 120 -64 142 -96 162 -42 25 -49 23 -85 -19z
m-1060 -1407 c31 -68 32 -74 26 -167 -4 -81 -10 -108 -36 -160 -37 -76 -72
-115 -125 -140 -73 -34 -121 -18 -169 55 -27 40 -27 43 -24 171 4 116 7 137
32 191 34 75 77 119 142 143 48 19 49 19 86 -1 29 -17 43 -36 68 -92z m711 48
c55 -53 60 -63 65 -156 4 -65 0 -94 -17 -147 -44 -135 -99 -202 -194 -241 -52
-21 -62 -22 -104 -11 -95 25 -140 102 -134 231 9 221 137 379 296 367 40 -4
55 -11 88 -43z m510 -541 c6 -6 9 -19 6 -27 -5 -13 -25 -16 -110 -16 -57 0
-125 -3 -150 -6 -38 -6 -48 -4 -53 10 -9 24 5 35 57 46 60 12 236 7 250 -7z
m-165 -229 c107 -45 197 -100 191 -117 -6 -20 -44 -20 -84 1 -74 37 -159 75
-213 93 -57 20 -72 33 -63 57 9 22 67 10 169 -34z m-1566 -3201 c0 -23 37
-133 67 -200 16 -37 31 -55 47 -59 16 -4 22 -11 19 -22 -2 -11 18 -40 55 -78
93 -95 322 -248 322 -214 0 5 4 10 10 10 5 0 7 -7 4 -15 -6 -14 6 -20 30 -16
5 1 16 -5 25 -12 30 -27 56 -35 151 -51 161 -26 209 -29 390 -28 145 1 177 4
186 17 14 18 25 20 21 3 -1 -10 17 -13 68 -11 158 4 353 -1 361 -10 4 -4 -18
-32 -49 -63 -32 -32 -57 -60 -57 -64 0 -14 -46 -36 -135 -64 -49 -16 -108 -35
-130 -42 -22 -8 -71 -19 -109 -24 -38 -6 -74 -14 -79 -17 -16 -10 -397 -14
-415 -4 -9 4 -47 12 -85 16 -63 6 -67 6 -65 -14 2 -11 -1 -20 -7 -20 -5 0 -9
9 -8 19 3 21 -9 26 -167 65 -132 33 -237 66 -365 115 -56 21 -127 45 -159 54
-33 8 -62 19 -65 23 -3 4 -39 24 -78 44 -70 35 -73 35 -79 16 -6 -19 -8 -17
-25 14 -10 19 -18 42 -19 51 0 9 -4 18 -9 20 -6 2 -14 31 -20 66 -9 55 -7 71
9 115 19 51 82 137 122 167 11 8 39 32 62 52 22 21 44 38 48 38 3 0 24 24 45
53 50 69 66 87 75 87 5 0 8 -8 8 -17z"/>
<path d="M2217 8270 c-53 -46 -78 -122 -80 -240 -1 -79 3 -102 20 -136 30 -57
46 -68 89 -60 47 9 116 73 144 134 20 41 22 58 17 139 -7 114 -32 168 -81 176
-17 3 -41 8 -52 12 -16 5 -31 -2 -57 -25z"/>
<path d="M2929 8271 c-98 -63 -153 -232 -114 -354 51 -163 193 -134 281 58 39
85 43 159 11 229 -26 57 -72 96 -113 96 -11 0 -40 -13 -65 -29z"/>
</g>
</svg>
