<?xml version="1.0" standalone="no"?>
<!DOCTYPE svg PUBLIC "-//W3C//DTD SVG 20010904//EN"
 "http://www.w3.org/TR/2001/REC-SVG-20010904/DTD/svg10.dtd">
<svg version="1.0" xmlns="http://www.w3.org/2000/svg"
 width="704.000000pt" height="1280.000000pt" viewBox="0 0 704.000000 1280.000000"
 preserveAspectRatio="xMidYMid meet">
<metadata>
Created by potrace 1.16, written by Peter Selinger 2001-2019
</metadata>
<g transform="translate(0.000000,1280.000000) scale(0.100000,-0.100000)"
fill="#000000" stroke="none">
<path d="M3517 9699 c-24 -14 -64 -97 -83 -172 -22 -87 -114 -380 -124 -392
-4 -5 -13 -30 -20 -54 -6 -24 -22 -68 -36 -97 -13 -29 -24 -60 -24 -69 0 -8
-12 -38 -27 -66 l-26 -51 -48 4 c-27 3 -57 0 -70 -8 -19 -10 -25 -9 -34 3 -10
13 -17 13 -65 -1 -29 -9 -55 -16 -56 -16 -2 0 -11 27 -20 60 -9 33 -21 63 -25
66 -5 3 -9 20 -9 37 0 18 -9 51 -19 73 -10 23 -22 57 -26 75 -4 19 -16 49 -28
68 -11 18 -24 53 -28 77 -5 24 -20 68 -34 97 -14 30 -25 63 -25 74 0 10 -18
55 -40 99 -22 43 -40 84 -40 91 0 7 -12 24 -27 38 -27 25 -66 32 -90 17 -15
-10 -42 -71 -59 -137 -65 -251 -94 -386 -154 -715 -22 -121 -41 -288 -36 -314
5 -25 -1 -34 -46 -75 -107 -94 -203 -199 -261 -284 -52 -77 -114 -201 -123
-247 -7 -33 -23 -36 -115 -21 -25 4 -68 5 -95 2 -44 -5 -49 -8 -49 -31 0 -25
1 -25 107 -32 59 -3 112 -9 118 -13 5 -3 8 -16 5 -28 -3 -12 -7 -42 -8 -67 -2
-40 -7 -47 -35 -61 -18 -9 -77 -27 -132 -40 -80 -19 -100 -27 -100 -41 0 -10
6 -18 13 -19 49 -4 114 6 185 28 45 14 84 24 85 22 1 -2 11 -29 21 -59 22 -67
81 -152 118 -175 16 -9 49 -34 74 -56 25 -21 52 -39 60 -39 8 0 14 -4 14 -9 0
-5 15 -18 33 -30 17 -11 52 -34 77 -51 25 -17 59 -37 75 -45 17 -8 44 -23 60
-33 17 -10 68 -35 115 -56 47 -22 87 -41 89 -42 2 -2 5 -58 7 -126 6 -212 13
-318 19 -328 4 -6 2 -17 -5 -25 -6 -7 -15 -35 -20 -62 -17 -92 -68 -242 -92
-270 -18 -21 -77 -135 -108 -208 -28 -64 -65 -139 -96 -190 -13 -22 -29 -58
-36 -80 -7 -22 -25 -58 -40 -79 -15 -21 -28 -49 -28 -60 0 -12 -8 -33 -17 -46
-10 -14 -23 -43 -29 -65 -7 -22 -21 -65 -33 -95 -37 -94 -69 -229 -57 -234 8
-3 8 -7 0 -13 -19 -14 -44 -83 -44 -124 0 -21 -4 -49 -10 -64 -34 -89 -47
-371 -24 -504 16 -98 33 -162 44 -176 4 -5 10 -21 12 -35 2 -16 9 -25 19 -24
12 1 15 -4 11 -18 -7 -27 17 -66 42 -70 14 -2 20 -9 18 -21 -5 -27 67 -102
176 -184 105 -78 176 -118 199 -109 8 3 11 2 8 -4 -6 -10 29 -33 38 -24 2 3
22 -6 42 -21 21 -14 50 -25 64 -25 14 0 42 -5 61 -10 58 -18 208 -32 330 -31
296 2 775 12 862 17 l97 7 11 -29 c6 -16 11 -67 11 -114 0 -70 -6 -101 -32
-175 -18 -49 -38 -97 -46 -106 -7 -8 -13 -20 -13 -25 0 -16 -41 -66 -121 -145
-64 -63 -95 -85 -176 -124 -147 -70 -196 -91 -263 -110 -25 -7 -72 -20 -105
-30 -74 -21 -197 -41 -290 -46 -98 -6 -358 -2 -432 7 -44 4 -63 3 -63 -5 0 -6
-4 -11 -10 -11 -5 0 -10 7 -10 15 0 8 -9 15 -19 15 -11 0 -32 6 -48 14 -15 8
-64 31 -108 51 -95 44 -84 38 -174 99 -85 58 -193 164 -229 226 -38 66 -97
145 -125 167 -13 10 -27 28 -31 38 -9 28 -120 101 -189 124 -85 30 -286 27
-334 -4 -15 -10 -23 -11 -25 -3 -3 8 -13 8 -38 0 -19 -6 -76 -13 -126 -17 -77
-5 -99 -3 -143 14 -105 39 -148 92 -171 206 -12 60 -12 60 25 120 19 33 48 70
63 81 27 21 109 51 212 76 44 11 60 20 85 54 40 52 51 116 30 175 -16 44 -65
99 -89 99 -7 0 -19 6 -25 14 -7 8 -38 17 -69 20 -189 21 -441 -129 -526 -314
-40 -87 -78 -192 -72 -198 3 -2 0 -15 -5 -29 -15 -41 -12 -192 7 -253 33 -111
75 -182 150 -257 85 -84 151 -121 274 -154 51 -13 256 -12 320 1 148 31 266
27 348 -13 15 -7 35 -12 44 -10 11 3 25 -8 40 -30 13 -19 43 -61 68 -94 25
-34 61 -87 80 -119 52 -85 202 -230 297 -286 194 -115 417 -189 618 -204 124
-10 407 -15 423 -9 9 4 53 9 97 11 134 6 264 30 298 54 22 17 31 19 37 10 6
-9 26 -6 83 15 42 14 91 29 109 31 57 8 137 43 273 120 119 67 175 103 175
112 0 4 22 22 49 40 28 18 65 50 83 73 18 22 52 64 76 92 101 120 162 249 202
426 11 45 14 221 7 321 -2 21 4 26 38 33 38 9 93 22 211 51 105 26 259 134
321 224 21 30 50 68 66 85 15 16 27 36 27 44 0 8 6 27 14 41 40 74 66 139 66
161 0 15 6 38 14 52 20 38 27 88 27 190 0 59 -4 95 -12 99 -8 6 -8 9 0 14 28
18 -2 222 -59 401 -50 157 -65 194 -108 265 -18 30 -30 59 -28 65 2 5 -9 35
-25 65 -15 30 -58 118 -95 194 -44 90 -74 140 -86 144 -13 3 -17 10 -13 24 7
20 -38 107 -62 121 -7 4 -13 18 -13 30 0 13 -13 38 -30 57 -16 19 -29 43 -30
52 0 28 -47 125 -94 196 -24 37 -72 126 -106 197 -35 72 -73 146 -85 165 -12
19 -26 46 -30 60 -4 14 -33 79 -65 145 -32 66 -60 134 -64 150 -4 17 -20 51
-36 75 -17 25 -30 52 -30 61 0 17 -31 95 -55 140 -8 14 -14 34 -14 45 0 10 -3
49 -7 86 -4 44 -3 77 5 95 13 31 31 118 36 173 2 19 6 43 10 53 5 10 3 17 -5
17 -10 0 -9 4 1 16 9 11 13 48 12 122 -2 381 -49 638 -187 1017 -14 39 -30 79
-36 90 -5 11 -41 97 -79 190 -187 463 -196 480 -247 501 -39 16 -34 16 -57 3z
m-1142 -1341 c24 -16 43 -43 65 -91 41 -91 42 -199 5 -298 -42 -109 -128 -188
-205 -189 -40 0 -86 34 -109 83 -27 56 -30 190 -7 292 27 114 76 174 177 214
34 14 35 13 74 -11z m772 -37 c64 -60 73 -84 69 -192 -6 -168 -82 -300 -205
-356 -58 -26 -98 -25 -151 2 -64 33 -90 91 -90 203 0 219 121 382 285 382 44
0 55 -5 92 -39z m514 -548 c6 -6 9 -19 6 -27 -5 -13 -25 -16 -110 -16 -57 0
-125 -3 -150 -6 -38 -6 -48 -4 -53 10 -15 40 44 56 193 53 62 -2 107 -7 114
-14z m-217 -207 c87 -33 207 -93 230 -116 34 -34 -5 -53 -59 -28 -14 6 -25 15
-25 20 0 4 -7 8 -15 8 -7 0 -49 15 -92 34 -43 18 -95 39 -115 46 -30 9 -38 17
-38 36 0 32 29 32 114 0z"/>
<path d="M2210 8262 c-88 -87 -101 -327 -22 -414 21 -24 59 -22 107 5 31 17
40 29 40 49 1 15 5 31 9 35 5 4 5 -3 1 -17 -8 -25 -7 -25 13 -6 39 35 56 98
49 190 -6 88 -22 140 -52 169 -14 14 -20 15 -32 5 -12 -10 -17 -9 -28 5 -19
26 -44 20 -85 -21z"/>
<path d="M2940 8279 c-74 -45 -116 -118 -131 -224 -9 -69 -8 -88 7 -138 49
-161 194 -132 280 56 51 112 42 214 -26 287 -43 47 -76 52 -130 19z"/>
</g>
</svg>
