<?xml version="1.0" standalone="no"?>
<!DOCTYPE svg PUBLIC "-//W3C//DTD SVG 20010904//EN"
 "http://www.w3.org/TR/2001/REC-SVG-20010904/DTD/svg10.dtd">
<svg version="1.0" xmlns="http://www.w3.org/2000/svg"
 width="704.000000pt" height="1280.000000pt" viewBox="0 0 704.000000 1280.000000"
 preserveAspectRatio="xMidYMid meet">
<metadata>
Created by potrace 1.16, written by Peter Selinger 2001-2019
</metadata>
<g transform="translate(0.000000,1280.000000) scale(0.100000,-0.100000)"
fill="#000000" stroke="none">
<path d="M3509 9687 c-27 -20 -57 -90 -88 -204 -45 -161 -138 -437 -176 -520
-8 -17 -15 -38 -15 -47 0 -9 -12 -38 -26 -65 -25 -49 -26 -49 -82 -54 -31 -2
-67 -8 -79 -12 -18 -6 -23 -4 -23 9 0 20 -16 20 -71 1 -23 -9 -45 -12 -49 -8
-3 5 -12 31 -18 58 -7 28 -18 55 -25 60 -7 6 -13 26 -13 45 -2 41 -46 169 -74
218 -11 18 -20 44 -20 57 0 13 -13 52 -28 87 -16 34 -31 77 -35 94 -11 58 -94
220 -122 238 -41 27 -78 7 -104 -54 -12 -27 -21 -56 -21 -64 0 -9 -7 -33 -15
-53 -13 -33 -29 -102 -90 -384 -8 -36 -19 -95 -25 -130 -6 -35 -17 -98 -25
-139 -19 -96 -42 -294 -39 -341 2 -33 -3 -40 -53 -80 -162 -129 -356 -393
-379 -517 l-6 -33 -112 7 c-89 5 -115 3 -130 -9 -12 -9 -17 -20 -13 -31 5 -12
21 -16 74 -17 37 0 88 -4 113 -7 40 -7 45 -10 43 -32 -8 -119 -7 -114 -43
-132 -18 -9 -78 -27 -132 -40 -87 -20 -98 -25 -96 -43 3 -18 10 -20 57 -18 29
2 91 14 136 28 46 14 85 25 88 25 3 0 9 -15 12 -32 15 -68 81 -172 133 -209
19 -13 51 -39 72 -56 20 -18 42 -33 47 -33 6 0 18 -9 28 -20 10 -11 22 -20 26
-20 4 0 36 -19 71 -43 54 -36 297 -165 336 -178 12 -4 20 -104 26 -351 1 -54
5 -100 8 -103 3 -3 -1 -25 -8 -48 -7 -23 -18 -62 -25 -87 -33 -127 -51 -173
-120 -295 -22 -38 -52 -97 -65 -130 -14 -33 -39 -85 -55 -115 -51 -98 -89
-180 -89 -194 0 -7 -13 -30 -30 -51 -17 -21 -30 -48 -30 -60 0 -12 -9 -34 -20
-48 -11 -14 -20 -31 -20 -39 0 -7 -16 -58 -36 -113 -33 -94 -62 -196 -69 -240
-2 -11 -10 -40 -19 -65 -32 -95 -67 -350 -65 -475 3 -131 30 -287 60 -345 4
-8 10 -23 13 -32 3 -10 11 -15 19 -12 11 4 13 -1 10 -18 -2 -13 0 -35 6 -51 8
-21 17 -27 41 -27 32 0 37 -9 18 -28 -9 -9 4 -28 62 -86 41 -40 86 -79 99 -86
13 -6 44 -28 70 -48 25 -19 66 -44 91 -54 25 -11 56 -24 70 -30 14 -6 32 -14
40 -19 35 -22 85 -40 115 -44 18 -3 45 -9 59 -15 15 -5 47 -10 72 -10 24 0 44
-3 44 -7 0 -5 -33 -28 -73 -52 -39 -24 -85 -56 -102 -71 -16 -15 -46 -38 -66
-51 -20 -13 -91 -61 -158 -107 -68 -45 -135 -85 -149 -89 -15 -3 -38 -14 -51
-25 -13 -10 -32 -18 -43 -18 -10 0 -38 -9 -61 -20 -24 -12 -82 -25 -137 -31
-160 -18 -251 1 -417 87 -121 62 -152 67 -245 44 -35 -8 -58 -23 -92 -59 -57
-62 -74 -118 -52 -170 8 -20 18 -47 22 -60 18 -64 147 -167 273 -219 162 -66
515 -94 608 -48 15 8 58 19 94 24 66 10 206 59 264 94 17 9 44 24 60 31 39 18
143 89 223 152 35 27 79 59 98 70 18 11 90 61 159 110 126 90 252 161 375 211
36 14 85 34 110 45 25 10 92 33 150 50 58 17 110 35 115 39 6 4 32 10 60 14
50 6 116 26 125 37 3 3 29 9 57 12 29 3 81 13 115 21 35 8 129 20 210 26 81 5
178 17 216 24 127 27 253 64 280 83 15 10 37 23 48 28 12 6 41 27 65 47 24 20
59 49 77 64 18 14 40 40 49 57 9 17 29 44 44 60 16 16 29 34 29 40 0 7 18 47
40 89 21 42 43 99 49 125 5 26 17 68 26 92 14 39 18 82 14 161 -1 14 -2 36 -2
50 -1 14 -6 28 -12 32 -6 5 -6 11 3 20 6 6 12 30 12 53 -1 75 -44 296 -69 350
-5 11 -17 49 -27 85 -10 36 -37 102 -61 147 -24 45 -43 87 -43 94 0 11 -24 61
-143 304 -22 44 -45 87 -52 95 -6 8 -20 35 -29 60 -10 25 -29 59 -42 77 -13
17 -24 38 -24 45 0 7 -15 37 -34 66 -19 28 -33 52 -31 52 10 0 -69 151 -110
211 -25 36 -45 69 -45 72 0 14 -140 296 -150 302 -5 3 -10 12 -10 20 0 7 -29
75 -65 149 -36 74 -65 141 -65 149 0 8 -14 40 -31 72 -17 32 -39 84 -49 116
-10 31 -26 71 -34 88 -19 36 -36 204 -23 227 15 27 38 135 41 194 2 30 7 63
11 73 11 27 -2 362 -19 493 -27 197 -55 320 -126 534 -24 72 -28 83 -183 460
-19 47 -46 110 -60 140 -13 30 -28 66 -32 80 -18 59 -78 171 -102 190 -29 23
-60 25 -84 7z m-1128 -1340 c52 -35 87 -129 88 -235 1 -71 -3 -94 -29 -156
-78 -187 -238 -236 -311 -95 -16 32 -20 59 -20 144 0 142 22 217 87 295 29 34
93 68 130 69 12 1 36 -9 55 -22z m740 -9 c55 -41 81 -85 89 -151 21 -174 -64
-358 -192 -414 -82 -37 -144 -26 -201 35 -34 35 -46 83 -47 176 0 182 86 326
220 367 49 15 100 10 131 -13z m540 -565 c6 -6 9 -19 6 -27 -5 -13 -28 -16
-127 -18 -66 -1 -135 -2 -152 -2 -27 -1 -33 3 -33 19 0 15 11 23 45 32 56 15
245 12 261 -4z m-161 -230 c47 -20 92 -42 101 -49 8 -8 20 -14 25 -14 19 0 67
-47 60 -58 -11 -17 -48 -15 -76 5 -14 10 -45 25 -70 35 -180 67 -204 79 -208
108 -4 22 -2 22 40 16 23 -4 81 -23 128 -43z"/>
<path d="M2245 8290 c-63 -25 -107 -134 -108 -270 -1 -98 6 -123 46 -167 25
-28 56 -29 105 -4 76 39 112 102 119 208 6 108 -37 247 -68 216 -8 -8 -20 -6
-43 7 -20 12 -38 15 -51 10z"/>
<path d="M2953 8280 c-24 -10 -51 -27 -62 -37 -53 -50 -99 -205 -86 -292 22
-147 139 -187 229 -80 38 45 74 120 87 179 19 88 -19 196 -83 234 -32 20 -34
20 -85 -4z"/>
</g>
</svg>
