<?xml version="1.0" standalone="no"?>
<!DOCTYPE svg PUBLIC "-//W3C//DTD SVG 20010904//EN"
 "http://www.w3.org/TR/2001/REC-SVG-20010904/DTD/svg10.dtd">
<svg version="1.0" xmlns="http://www.w3.org/2000/svg"
 width="704.000000pt" height="1280.000000pt" viewBox="0 0 704.000000 1280.000000"
 preserveAspectRatio="xMidYMid meet">
<metadata>
Created by potrace 1.16, written by Peter Selinger 2001-2019
</metadata>
<g transform="translate(0.000000,1280.000000) scale(0.100000,-0.100000)"
fill="#000000" stroke="none">
<path d="M3486 9648 c-13 -24 -40 -97 -60 -163 -19 -66 -54 -174 -77 -240 -23
-66 -51 -149 -64 -185 -12 -36 -29 -79 -37 -95 -8 -17 -18 -44 -21 -61 -3 -17
-16 -47 -27 -67 -21 -35 -25 -37 -72 -37 -27 0 -59 -5 -70 -11 -15 -8 -22 -8
-28 2 -6 10 -20 10 -66 1 -31 -7 -58 -11 -60 -9 -6 6 -46 128 -55 166 -5 25
-15 54 -23 65 -7 12 -16 39 -20 61 -4 21 -19 59 -32 82 -13 24 -24 54 -24 67
0 20 -9 45 -50 141 -5 11 -11 32 -14 46 -5 24 -45 115 -65 149 -5 8 -14 27
-21 41 -30 65 -99 63 -128 -4 -27 -60 -69 -201 -82 -272 -6 -33 -20 -96 -30
-140 -20 -82 -60 -292 -85 -445 -8 -47 -18 -133 -21 -192 l-7 -108 -61 -52
c-175 -150 -304 -326 -357 -483 l-16 -50 -49 1 c-27 1 -78 3 -113 3 -68 2 -99
-13 -88 -43 5 -12 22 -16 74 -17 37 0 86 -3 108 -7 l40 -7 0 -64 c0 -35 -4
-70 -10 -77 -5 -8 -65 -28 -132 -45 -102 -27 -123 -35 -123 -51 0 -25 64 -24
166 3 116 31 112 32 134 -30 24 -66 86 -158 120 -177 14 -7 45 -31 70 -53 25
-23 50 -41 55 -42 6 0 30 -16 55 -34 71 -54 213 -136 320 -185 41 -19 79 -37
84 -41 9 -8 17 -130 19 -324 1 -66 6 -126 10 -133 5 -7 4 -19 -3 -27 -6 -7
-15 -35 -20 -62 -5 -26 -13 -64 -19 -83 -5 -19 -18 -62 -28 -95 -9 -33 -21
-63 -26 -66 -23 -16 -177 -333 -177 -365 0 -7 -7 -17 -15 -21 -15 -9 -75 -124
-75 -146 0 -6 -14 -32 -30 -56 -17 -24 -30 -55 -30 -68 0 -13 -9 -31 -20 -40
-11 -10 -20 -26 -20 -36 0 -10 -20 -79 -45 -152 -25 -74 -47 -151 -50 -172 -2
-21 -11 -56 -21 -78 -10 -22 -21 -65 -25 -95 -4 -30 -14 -93 -23 -140 -19 -94
-22 -336 -7 -432 12 -73 31 -138 48 -163 7 -11 13 -28 13 -38 0 -12 5 -17 13
-14 10 4 13 -2 10 -16 -2 -12 5 -37 17 -55 17 -27 24 -32 47 -27 16 3 22 2 16
-1 -28 -13 -11 -49 50 -107 34 -32 82 -73 107 -90 25 -17 57 -41 72 -53 43
-35 157 -86 179 -79 12 4 19 2 19 -7 0 -32 132 -69 290 -83 174 -15 931 -5
1090 15 131 15 136 15 149 -20 18 -54 194 -250 291 -325 60 -46 247 -145 274
-145 9 0 27 -7 39 -15 40 -26 128 -52 237 -69 58 -9 128 -21 155 -26 55 -10
325 3 415 19 234 44 460 165 573 309 64 82 115 205 127 307 19 158 -11 277
-101 410 -34 50 -65 92 -69 95 -4 3 -12 15 -19 27 -6 12 -34 52 -61 87 -28 36
-53 81 -57 98 -3 18 -10 42 -16 53 -6 11 -20 56 -31 100 -23 89 -35 108 -86
146 -155 114 -353 13 -351 -179 1 -144 66 -285 208 -456 18 -22 33 -44 33 -49
0 -6 10 -24 23 -41 43 -57 77 -145 77 -200 0 -112 -75 -204 -229 -279 -76 -38
-106 -47 -193 -57 -107 -13 -326 -8 -369 8 -13 5 -49 18 -79 28 -93 30 -177
83 -251 159 -53 54 -59 62 -59 71 0 11 97 45 127 45 12 0 57 18 100 41 139 75
247 177 312 297 8 14 18 33 22 41 36 66 60 123 70 170 6 30 18 68 26 84 8 16
14 50 13 80 -2 28 -2 53 -1 56 5 14 2 241 -3 280 -4 25 -9 60 -11 78 -4 38
-76 273 -106 345 -11 26 -33 70 -49 98 -17 27 -30 58 -30 67 0 10 -20 58 -45
107 -25 50 -45 95 -45 101 0 6 -7 17 -15 24 -8 7 -15 19 -15 27 0 8 -16 42
-35 76 -48 83 -49 85 -75 137 -13 25 -31 54 -41 66 -11 11 -19 29 -19 40 0 10
-14 37 -30 58 -17 22 -30 45 -30 53 0 21 -63 144 -108 210 -23 34 -42 64 -42
66 0 6 -125 264 -144 297 -23 41 -144 313 -151 340 -4 14 -18 45 -32 70 -14
25 -31 64 -39 88 -8 24 -25 64 -37 90 -11 26 -22 56 -24 67 -14 98 -14 138 2
200 9 37 14 69 11 72 -2 3 4 19 14 35 12 20 16 38 11 52 -10 26 -7 67 4 86 11
18 18 198 8 220 -3 8 -7 56 -8 105 -2 89 -28 297 -45 365 -5 19 -14 62 -20 95
-19 93 -100 334 -151 443 -16 35 -29 67 -29 71 0 7 -80 203 -140 341 -18 41
-46 107 -62 145 -38 89 -71 125 -114 125 -28 0 -37 -6 -58 -42z m-1099 -1280
c31 -21 55 -59 84 -133 12 -30 16 -157 6 -185 -2 -8 -10 -34 -16 -57 -26 -95
-117 -187 -198 -198 -36 -5 -46 -2 -76 25 -53 46 -67 85 -67 186 0 133 16 204
61 275 32 48 50 65 92 84 64 30 72 31 114 3z m758 -30 c60 -45 83 -100 80
-198 -2 -71 -22 -144 -60 -216 -19 -37 -92 -112 -125 -129 -73 -38 -164 -28
-213 23 -78 81 -67 292 21 424 37 57 54 73 105 98 83 41 134 41 192 -2z m510
-569 c29 -28 -3 -37 -155 -40 -140 -4 -145 -3 -145 16 0 29 69 45 187 42 73
-1 101 -6 113 -18z m-197 -205 c87 -35 198 -93 218 -115 19 -21 11 -39 -17
-39 -20 0 -59 16 -69 29 -3 3 -18 11 -35 18 -64 25 -191 76 -205 83 -8 4 -16
17 -18 29 -3 18 2 21 28 21 17 0 62 -12 98 -26z"/>
<path d="M2265 8310 c-64 -26 -115 -137 -115 -251 0 -143 40 -228 100 -214 57
14 113 59 141 115 24 47 28 67 29 143 0 120 -33 197 -86 197 -13 0 -26 5 -29
10 -7 12 -13 12 -40 0z"/>
<path d="M2940 8281 c-62 -38 -105 -114 -120 -214 -11 -69 -10 -84 5 -134 10
-32 29 -68 42 -81 21 -21 31 -24 74 -20 39 4 57 12 84 38 53 51 98 151 103
226 6 91 -3 123 -47 172 -46 50 -75 53 -141 13z"/>
</g>
</svg>
