<?xml version="1.0" standalone="no"?>
<!DOCTYPE svg PUBLIC "-//W3C//DTD SVG 20010904//EN"
 "http://www.w3.org/TR/2001/REC-SVG-20010904/DTD/svg10.dtd">
<svg version="1.0" xmlns="http://www.w3.org/2000/svg"
 width="704.000000pt" height="1280.000000pt" viewBox="0 0 704.000000 1280.000000"
 preserveAspectRatio="xMidYMid meet">
<metadata>
Created by potrace 1.16, written by Peter Selinger 2001-2019
</metadata>
<g transform="translate(0.000000,1280.000000) scale(0.100000,-0.100000)"
fill="#000000" stroke="none">
<path d="M3507 9684 c-3 -3 -3 -13 0 -22 4 -10 2 -13 -5 -8 -13 8 -53 -72 -71
-139 -11 -44 -61 -210 -86 -290 -9 -27 -25 -69 -36 -93 -10 -23 -19 -48 -19
-55 0 -6 -14 -48 -31 -92 -18 -44 -41 -104 -52 -132 l-21 -53 -52 0 c-29 0
-64 -4 -78 -10 -18 -7 -26 -6 -26 2 0 10 -55 7 -106 -8 -19 -5 -24 1 -39 48
-10 29 -21 58 -25 63 -4 6 -10 29 -14 53 -3 24 -13 53 -20 65 -8 12 -18 40
-22 62 -4 22 -17 59 -30 83 -13 23 -24 53 -24 66 0 20 -9 45 -50 141 -5 11
-11 31 -14 46 -3 14 -26 68 -50 120 -48 101 -75 127 -119 115 -37 -9 -76 -103
-116 -278 -6 -27 -15 -67 -21 -90 -5 -24 -19 -81 -30 -128 -11 -47 -23 -112
-26 -145 -4 -33 -13 -83 -20 -111 -21 -76 -54 -310 -54 -386 l0 -67 -57 -48
c-31 -26 -63 -55 -72 -64 -41 -40 -142 -158 -165 -189 -43 -61 -117 -199 -130
-243 l-12 -42 -55 1 c-29 1 -77 3 -106 4 -59 2 -96 -14 -91 -38 3 -14 20 -18
100 -23 54 -4 104 -9 113 -13 12 -4 15 -19 12 -73 -4 -81 -5 -82 -163 -121
-88 -22 -104 -29 -104 -45 0 -19 5 -19 73 -14 39 3 99 15 132 27 65 22 85 21
85 -8 0 -28 56 -133 87 -164 41 -41 164 -138 174 -138 5 0 17 -7 26 -16 33
-29 108 -84 115 -84 4 0 40 -19 80 -42 40 -24 110 -61 156 -83 67 -32 82 -43
82 -61 0 -13 5 -26 10 -29 7 -4 6 -13 -1 -27 -7 -13 -8 -37 -4 -62 6 -32 16
-244 17 -326 0 -56 -80 -291 -121 -359 -21 -34 -58 -106 -81 -159 -23 -53 -47
-108 -53 -122 -6 -14 -19 -36 -28 -50 -31 -45 -69 -123 -74 -147 -2 -13 -18
-45 -34 -70 -17 -26 -31 -53 -31 -60 0 -8 -9 -31 -19 -51 -23 -45 -32 -71 -82
-242 -22 -74 -49 -162 -60 -196 -10 -33 -19 -74 -19 -91 0 -17 -7 -58 -15 -91
-45 -175 -32 -513 25 -637 5 -11 10 -29 12 -40 2 -12 11 -19 21 -19 13 1 16
-3 12 -16 -9 -29 12 -68 46 -86 24 -12 29 -18 18 -25 -10 -6 3 -24 56 -75 38
-36 87 -78 109 -92 23 -15 56 -39 74 -54 44 -38 161 -90 184 -82 12 3 18 0 18
-9 0 -17 95 -61 111 -52 5 4 16 1 24 -5 36 -30 324 -39 850 -28 295 7 362 11
605 39 131 15 206 12 245 -8 117 -61 187 -93 232 -106 28 -9 60 -20 71 -26 10
-6 65 -20 122 -31 103 -22 185 -23 367 -6 106 10 321 102 367 157 12 14 33 32
47 39 31 16 109 92 109 106 0 6 11 20 24 33 13 12 36 47 51 79 16 31 38 69 50
83 11 14 33 50 47 80 84 178 123 256 135 267 7 7 13 18 13 24 0 5 14 23 30 38
17 15 30 25 30 22 0 -3 11 5 25 18 14 13 35 26 48 28 39 9 199 5 206 -4 3 -5
19 -16 35 -24 55 -28 113 -105 137 -183 20 -61 23 -90 20 -192 -3 -128 12
-188 55 -227 56 -50 186 -74 231 -43 12 8 28 12 36 9 23 -8 92 66 122 131 31
68 35 91 42 213 9 174 -46 354 -153 495 -24 31 -44 61 -44 65 0 9 -103 100
-135 119 -49 30 -168 83 -185 83 -10 0 -21 4 -24 9 -3 4 -34 14 -68 21 -158
31 -340 -1 -483 -85 -132 -79 -260 -211 -302 -315 -19 -46 -33 -79 -77 -172
-20 -42 -36 -81 -36 -86 0 -18 -63 -128 -104 -181 -22 -29 -49 -65 -59 -80 -9
-14 -22 -25 -27 -24 -5 2 -14 -6 -20 -17 -6 -11 -18 -20 -26 -20 -9 0 -28 -8
-42 -18 -33 -23 -104 -49 -157 -58 -25 -4 -48 -16 -62 -33 -12 -14 -22 -21
-23 -14 0 22 -31 43 -62 43 l-31 0 51 46 c29 26 52 51 52 57 0 5 16 26 36 45
19 19 47 60 61 91 14 31 36 77 49 102 13 26 24 60 24 76 0 15 9 45 20 66 20
36 28 123 23 252 -1 22 -1 60 0 85 2 77 -34 265 -68 350 -7 19 -19 58 -26 85
-12 50 -46 125 -87 198 -12 21 -22 45 -22 54 0 24 -182 399 -200 413 -3 3 -14
26 -23 52 -10 25 -28 57 -41 71 -13 14 -22 28 -19 30 6 7 -21 57 -46 86 -12
13 -21 30 -21 37 0 24 -53 127 -102 200 -26 39 -48 75 -48 79 0 6 -116 245
-144 295 -28 51 -129 277 -147 329 -11 30 -28 70 -40 90 -11 19 -27 54 -35 78
-8 24 -25 65 -37 91 -26 57 -29 76 -28 167 1 65 23 190 40 225 4 8 6 39 5 68
-1 29 2 55 7 58 14 8 11 218 -3 232 -8 8 -8 15 0 25 7 8 10 16 8 18 -3 2 -7
34 -11 69 -14 156 -25 248 -34 290 -6 25 -13 59 -16 75 -41 197 -96 356 -240
695 -48 113 -109 259 -136 325 -53 131 -88 175 -137 175 -16 0 -31 -3 -35 -6z
m-1108 -1329 c22 -20 46 -55 56 -82 10 -27 21 -53 26 -58 13 -17 3 -149 -17
-210 -36 -116 -122 -205 -203 -209 -33 -2 -48 4 -77 28 -50 41 -64 80 -64 178
0 199 48 309 158 364 63 31 75 30 121 -11z m742 -15 c19 -16 36 -30 39 -30 3
0 14 -13 23 -30 30 -50 30 -180 1 -263 -33 -95 -46 -116 -101 -169 -76 -74
-150 -95 -224 -64 -91 38 -124 142 -95 296 26 138 98 239 199 280 12 5 45 9
73 9 43 1 57 -4 85 -29z m519 -566 c6 -6 8 -18 4 -27 -5 -15 -25 -17 -135 -19
-71 -1 -139 -2 -151 -2 -17 -1 -23 5 -23 19 0 15 11 23 45 32 53 15 245 12
260 -3z m-224 -204 c77 -27 219 -98 240 -121 33 -37 -20 -54 -66 -21 -14 9
-38 22 -55 29 -92 36 -212 87 -222 95 -18 14 -4 38 22 38 12 0 48 -9 81 -20z"/>
<path d="M2265 8308 c-46 -25 -75 -64 -96 -126 -18 -54 -21 -80 -17 -158 7
-129 46 -189 113 -176 39 7 110 76 133 129 52 123 7 342 -65 316 -7 -3 -16 2
-19 11 -7 19 -21 20 -49 4z"/>
<path d="M2935 8277 c-27 -18 -56 -47 -65 -65 -10 -17 -22 -37 -28 -44 -6 -7
-16 -50 -23 -96 -11 -73 -11 -89 4 -136 25 -80 50 -106 98 -106 74 0 130 46
175 145 29 63 42 155 30 219 -4 20 -23 53 -43 76 -47 51 -82 53 -148 7z"/>
</g>
</svg>
