<?xml version="1.0" standalone="no"?>
<!DOCTYPE svg PUBLIC "-//W3C//DTD SVG 20010904//EN"
 "http://www.w3.org/TR/2001/REC-SVG-20010904/DTD/svg10.dtd">
<svg version="1.0" xmlns="http://www.w3.org/2000/svg"
 width="704.000000pt" height="1280.000000pt" viewBox="0 0 704.000000 1280.000000"
 preserveAspectRatio="xMidYMid meet">
<metadata>
Created by potrace 1.16, written by Peter Selinger 2001-2019
</metadata>
<g transform="translate(0.000000,1280.000000) scale(0.100000,-0.100000)"
fill="#000000" stroke="none">
<path d="M3506 9679 c-23 -27 -76 -139 -76 -159 0 -21 -55 -204 -97 -320 -19
-52 -38 -109 -42 -126 -5 -17 -20 -57 -35 -89 -14 -32 -26 -64 -26 -72 0 -7
-11 -36 -25 -64 -25 -49 -26 -49 -73 -48 -26 1 -58 -4 -71 -11 -19 -10 -25
-10 -31 0 -8 13 -55 10 -107 -5 -19 -6 -23 -2 -33 37 -7 23 -17 57 -24 73 -7
17 -18 48 -24 70 -17 66 -42 137 -64 185 -11 25 -27 69 -34 98 -8 29 -23 71
-33 93 -11 22 -23 53 -26 70 -14 62 -94 215 -120 229 -41 22 -75 4 -96 -50
-33 -86 -61 -181 -84 -288 -13 -59 -33 -148 -44 -197 -11 -50 -23 -111 -25
-135 -3 -25 -12 -74 -20 -110 -24 -108 -35 -190 -41 -295 -8 -129 -11 -142
-35 -150 -32 -10 -218 -203 -269 -280 -54 -80 -113 -192 -131 -249 l-12 -38
-67 8 c-127 15 -193 0 -178 -40 5 -12 22 -16 74 -17 37 0 86 -3 108 -7 l40 -7
1 -69 2 -68 -36 -15 c-19 -8 -79 -26 -133 -40 -80 -21 -99 -30 -99 -45 0 -25
64 -24 166 3 116 31 112 32 133 -29 23 -66 86 -159 120 -177 14 -7 46 -32 71
-54 25 -22 48 -41 52 -41 8 0 55 -31 108 -71 19 -15 107 -64 195 -109 88 -46
162 -84 164 -86 5 -5 10 -100 14 -295 2 -80 7 -151 11 -158 4 -6 3 -18 -4 -26
-6 -7 -15 -35 -20 -62 -16 -86 -22 -108 -36 -140 -8 -17 -14 -37 -14 -45 0 -7
-20 -47 -45 -88 -25 -41 -45 -80 -45 -85 0 -6 -5 -16 -11 -22 -13 -13 -59
-122 -59 -141 0 -7 -9 -26 -20 -42 -50 -74 -58 -88 -83 -144 -15 -32 -27 -65
-27 -72 0 -8 -13 -33 -30 -56 -17 -22 -30 -51 -30 -62 0 -12 -8 -33 -17 -46
-27 -38 -128 -353 -121 -377 1 -4 -8 -30 -20 -57 -12 -27 -22 -68 -22 -92 0
-23 -5 -55 -10 -70 -19 -49 -30 -165 -31 -308 0 -155 18 -278 50 -350 12 -25
21 -50 21 -57 0 -6 6 -9 13 -6 9 3 13 -5 13 -29 0 -43 29 -77 55 -63 20 11 24
3 10 -20 -13 -20 49 -94 124 -150 30 -22 79 -59 108 -80 64 -48 164 -93 189
-85 12 3 18 0 18 -9 0 -18 61 -48 106 -52 18 -2 38 -7 44 -10 20 -12 191 -26
340 -28 208 -3 817 12 870 21 87 14 96 9 120 -66 28 -89 35 -106 88 -201 34
-62 148 -196 194 -229 122 -88 164 -116 201 -134 23 -10 53 -25 67 -33 54 -29
185 -79 224 -86 23 -4 65 -16 95 -28 29 -11 70 -22 90 -25 20 -2 51 -9 70 -15
58 -18 281 -34 388 -27 124 7 306 52 398 98 22 11 63 32 90 45 98 49 188 129
249 223 60 91 84 146 97 220 32 189 17 320 -55 474 -24 50 -46 98 -50 106 -13
32 -58 92 -130 176 -45 54 -105 88 -176 102 -59 12 -70 11 -120 -8 -91 -33
-134 -99 -126 -195 6 -81 23 -114 107 -201 76 -79 119 -157 119 -217 0 -23 4
-36 10 -32 12 8 13 -27 1 -40 -4 -6 -14 -32 -21 -60 -31 -115 -122 -198 -283
-256 -63 -22 -113 -32 -212 -40 l-130 -11 -145 37 c-133 35 -175 49 -266 92
-31 14 -100 67 -158 120 -75 70 -194 273 -158 273 25 0 159 33 169 42 7 5 19
8 27 5 18 -7 172 69 220 109 19 16 49 40 66 53 17 13 42 40 55 61 13 20 37 52
54 71 17 18 31 40 31 47 0 8 6 26 14 40 41 77 66 139 66 164 0 16 7 42 15 59
23 43 36 121 23 136 -7 9 -7 17 0 26 7 8 8 33 3 67 -4 30 -4 69 -1 86 11 49
-34 310 -64 379 -8 16 -20 53 -26 80 -13 48 -82 200 -101 220 -5 5 -9 22 -9
38 0 16 -8 41 -19 55 -10 15 -33 59 -51 97 -80 173 -189 378 -205 387 -8 5
-12 14 -9 21 2 7 -9 34 -26 60 -16 26 -30 51 -30 55 0 12 -76 156 -104 197
-15 22 -65 116 -112 210 -46 93 -88 177 -93 185 -5 8 -24 49 -42 90 -18 41
-50 111 -71 155 -21 44 -38 87 -38 95 0 8 -12 35 -26 60 -23 40 -57 124 -71
175 -3 11 -10 26 -16 33 -34 44 -27 216 15 337 6 17 10 38 9 48 -1 33 -1 42 2
62 2 11 6 25 9 31 8 13 9 224 1 237 -3 6 -7 53 -9 106 -2 91 -22 253 -43 351
-6 25 -15 72 -22 105 -6 33 -19 83 -29 110 -22 62 -57 164 -80 230 -10 28 -29
75 -42 105 -14 30 -35 82 -48 115 -13 33 -51 125 -85 205 -34 80 -77 180 -95
223 -34 79 -83 137 -118 137 -10 0 -26 -10 -36 -21z m-1120 -1310 c23 -14 43
-41 65 -87 39 -82 41 -97 28 -195 -22 -165 -102 -274 -216 -291 -35 -5 -46 -2
-71 19 -51 43 -73 101 -73 197 -2 183 52 306 155 354 62 29 70 29 112 3z m762
-31 c55 -45 75 -92 77 -186 1 -66 -3 -89 -31 -159 -41 -107 -104 -182 -171
-206 -176 -63 -281 65 -238 293 16 86 43 145 93 201 53 60 112 89 178 89 44 0
58 -5 92 -32z m491 -559 c17 -6 31 -14 31 -17 -1 -25 -25 -30 -165 -33 -145
-4 -150 -3 -150 16 0 15 11 23 45 32 58 15 198 16 239 2z m-211 -203 c57 -20
223 -103 243 -122 21 -19 14 -44 -13 -44 -19 0 -58 17 -68 29 -3 3 -18 11 -35
18 -159 60 -220 91 -223 112 -3 17 2 21 26 21 16 0 48 -6 70 -14z"/>
<path d="M2229 8283 c-59 -53 -84 -139 -76 -265 11 -171 62 -212 173 -136 80
55 116 206 80 330 -18 64 -33 79 -94 94 -44 11 -46 11 -83 -23z"/>
<path d="M2939 8280 c-57 -35 -103 -111 -118 -194 -15 -83 -14 -107 10 -171
25 -66 60 -90 122 -82 80 11 168 143 175 263 6 93 -4 130 -47 175 -47 48 -78
50 -142 9z"/>
</g>
</svg>
