<?xml version="1.0" standalone="no"?>
<!DOCTYPE svg PUBLIC "-//W3C//DTD SVG 20010904//EN"
 "http://www.w3.org/TR/2001/REC-SVG-20010904/DTD/svg10.dtd">
<svg version="1.0" xmlns="http://www.w3.org/2000/svg"
 width="704.000000pt" height="1280.000000pt" viewBox="0 0 704.000000 1280.000000"
 preserveAspectRatio="xMidYMid meet">
<metadata>
Created by potrace 1.16, written by Peter Selinger 2001-2019
</metadata>
<g transform="translate(0.000000,1280.000000) scale(0.100000,-0.100000)"
fill="#000000" stroke="none">
<path d="M3499 9673 c-27 -32 -64 -115 -74 -171 -10 -56 -84 -301 -106 -351
-11 -23 -29 -70 -41 -103 -11 -33 -27 -72 -34 -87 -8 -14 -14 -34 -14 -44 0
-10 -11 -40 -25 -67 l-25 -50 -51 0 c-28 0 -60 -5 -71 -11 -15 -8 -22 -8 -28
1 -8 13 -55 10 -106 -5 -19 -6 -24 -1 -37 42 -8 26 -20 62 -25 78 -6 17 -25
75 -42 131 -17 55 -40 115 -51 133 -10 17 -19 42 -19 55 0 22 -10 51 -45 131
-7 17 -16 42 -19 57 -13 56 -96 216 -122 233 -39 25 -76 6 -102 -53 -26 -59
-65 -205 -92 -344 -11 -59 -24 -118 -30 -132 -10 -27 -25 -144 -21 -164 1 -8
-2 -19 -7 -25 -18 -23 -31 -97 -56 -312 -8 -66 -11 -124 -6 -130 14 -18 -4
-41 -75 -101 -38 -33 -71 -61 -73 -64 -1 -3 -25 -30 -53 -60 -101 -109 -200
-267 -230 -368 l-12 -43 -111 7 c-90 5 -115 3 -131 -9 -16 -13 -17 -17 -6 -31
10 -11 31 -16 75 -17 33 0 81 -4 106 -7 l45 -7 0 -69 0 -69 -40 -18 c-22 -10
-84 -28 -137 -41 -79 -18 -98 -26 -98 -40 0 -10 6 -18 13 -19 47 -3 112 6 181
26 75 22 82 23 94 8 6 -9 12 -23 12 -30 0 -28 52 -115 94 -156 64 -63 143
-127 156 -127 6 0 38 -21 70 -48 48 -38 336 -197 388 -213 9 -3 14 -45 18
-154 5 -123 8 -207 14 -310 1 -9 -16 -80 -38 -165 -5 -19 -14 -46 -20 -60 -5
-14 -16 -44 -23 -68 -7 -24 -22 -54 -33 -67 -23 -28 -72 -122 -106 -205 -28
-68 -59 -130 -75 -150 -28 -34 -59 -107 -64 -151 -1 -3 -14 -23 -31 -44 -17
-21 -30 -48 -30 -60 0 -12 -9 -34 -20 -48 -11 -14 -20 -31 -20 -39 0 -8 -20
-70 -44 -139 -36 -103 -57 -179 -57 -204 0 -2 -7 -24 -16 -47 -9 -24 -19 -68
-23 -98 -4 -30 -15 -91 -24 -135 -20 -93 -24 -339 -8 -450 14 -94 54 -210 73
-209 10 1 14 -10 14 -37 0 -50 26 -79 55 -61 11 7 20 8 20 2 0 -16 -40 -32
-53 -22 -18 14 -128 13 -161 -1 -69 -28 -132 -66 -141 -84 -5 -10 -29 -36 -52
-57 -23 -21 -40 -43 -37 -51 3 -7 -3 -16 -14 -19 -24 -8 -46 -56 -77 -171 -29
-105 -31 -173 -9 -264 25 -100 67 -170 162 -267 75 -77 101 -96 184 -137 53
-26 104 -47 114 -47 9 0 32 -9 51 -21 25 -16 43 -19 68 -15 18 4 36 2 39 -3
19 -30 347 -43 531 -20 132 16 304 51 385 78 30 10 75 24 100 31 25 7 53 16
63 22 10 5 57 23 105 39 48 17 91 35 97 40 5 5 17 9 26 9 9 0 22 7 29 15 7 8
18 15 25 15 50 0 364 179 535 306 68 50 160 143 160 161 0 7 4 13 8 13 5 0 29
16 54 35 31 25 59 37 89 41 126 13 320 65 400 106 89 46 195 132 224 183 14
23 34 50 45 60 27 24 117 211 125 260 4 22 14 56 23 75 18 40 28 250 12 260
-6 4 -5 18 2 37 9 24 9 49 0 105 -7 40 -12 80 -12 88 -1 18 -26 118 -45 175
-7 22 -20 67 -30 100 -21 74 -38 113 -81 188 -19 32 -34 65 -34 74 0 9 -20 57
-44 107 -24 50 -59 122 -77 159 -18 38 -45 81 -61 97 -15 16 -28 38 -28 49 0
29 -40 112 -57 118 -7 3 -13 12 -13 20 0 17 -39 86 -52 91 -4 2 -8 13 -8 23 0
24 -60 143 -110 219 -21 30 -67 120 -104 200 -37 79 -76 156 -87 171 -10 15
-19 32 -19 38 0 6 -29 70 -65 142 -36 71 -65 138 -65 148 0 10 -14 44 -30 75
-17 31 -37 77 -46 102 -8 25 -25 66 -36 92 -31 70 -34 185 -8 297 24 103 28
133 36 303 4 78 2 127 -5 135 -6 8 -6 18 -1 27 5 8 7 17 5 20 -2 3 -6 46 -9
95 -11 166 -51 388 -91 515 -14 41 -30 91 -36 110 -16 54 -47 137 -84 225
-107 259 -138 333 -150 360 -7 17 -36 86 -64 155 -53 131 -89 180 -134 180
-13 0 -34 -12 -48 -27z m-1114 -1325 c15 -12 40 -50 56 -86 89 -197 -33 -482
-205 -482 -72 0 -136 101 -136 216 0 57 25 186 45 227 38 82 118 144 186 146
15 1 39 -9 54 -21z m743 -18 c68 -51 83 -85 83 -189 0 -49 -5 -108 -11 -132
-60 -220 -261 -330 -381 -207 -42 43 -52 80 -51 189 1 113 39 214 106 287 41
45 80 65 141 73 28 3 55 7 61 8 5 0 29 -13 52 -29z m532 -559 c20 -34 1 -41
-121 -43 -65 -1 -134 -2 -151 -2 -27 -1 -33 3 -33 19 0 30 70 45 193 42 75 -2
105 -6 112 -16z m-218 -205 c79 -29 195 -88 227 -113 48 -39 -3 -58 -68 -24
-54 28 -193 88 -221 96 -57 16 -75 65 -24 65 13 0 52 -11 86 -24z m-1255
-3640 c11 -18 169 -128 214 -148 28 -13 39 -14 49 -5 10 9 12 8 7 -5 -5 -15
-1 -18 23 -18 17 0 30 -4 30 -10 0 -16 57 -41 118 -51 183 -33 309 -41 549
-33 171 5 191 8 186 23 -4 14 -3 14 10 -1 8 -10 23 -18 33 -18 30 0 64 -12 64
-21 0 -5 -13 -9 -28 -9 -15 0 -32 -4 -37 -9 -14 -14 -232 -121 -246 -121 -6 0
-38 -13 -72 -29 -34 -16 -96 -39 -137 -51 -41 -12 -103 -30 -138 -41 -162 -50
-431 -63 -567 -28 -38 10 -78 15 -89 12 -11 -3 -16 -1 -12 6 4 5 -7 17 -23 26
-31 16 -121 103 -121 117 0 5 -7 8 -16 8 -11 0 -14 5 -9 18 4 9 9 35 13 56 5
42 48 113 85 143 35 29 58 80 60 131 2 58 34 92 54 58z"/>
<path d="M2232 8280 c-62 -38 -111 -192 -98 -308 7 -56 24 -99 51 -126 39 -39
153 4 147 55 -2 16 0 20 6 11 7 -10 12 -8 25 6 44 49 58 166 31 269 -17 66
-37 93 -64 86 -11 -3 -27 2 -35 11 -21 20 -23 20 -63 -4z"/>
<path d="M2940 8273 c-41 -22 -61 -41 -86 -83 -94 -155 -55 -379 66 -380 67 0
125 54 177 165 36 79 38 189 5 235 -12 16 -22 34 -22 40 0 11 -58 50 -76 50
-6 0 -34 -12 -64 -27z"/>
</g>
</svg>
