<?xml version="1.0" standalone="no"?>
<!DOCTYPE svg PUBLIC "-//W3C//DTD SVG 20010904//EN"
 "http://www.w3.org/TR/2001/REC-SVG-20010904/DTD/svg10.dtd">
<svg version="1.0" xmlns="http://www.w3.org/2000/svg"
 width="704.000000pt" height="1280.000000pt" viewBox="0 0 704.000000 1280.000000"
 preserveAspectRatio="xMidYMid meet">
<metadata>
Created by potrace 1.16, written by Peter Selinger 2001-2019
</metadata>
<g transform="translate(0.000000,1280.000000) scale(0.100000,-0.100000)"
fill="#000000" stroke="none">
<path d="M3490 9658 c-17 -23 -33 -53 -37 -67 -3 -14 -9 -30 -13 -36 -4 -5
-12 -37 -19 -70 -16 -73 -75 -264 -101 -325 -11 -25 -30 -76 -43 -115 -39
-113 -48 -137 -73 -192 l-24 -53 -49 0 c-27 0 -62 -5 -76 -10 -20 -8 -30 -7
-40 4 -13 12 -21 12 -62 0 -26 -8 -49 -11 -53 -7 -3 5 -16 42 -28 83 -13 41
-30 95 -38 120 -9 25 -20 62 -25 83 -5 21 -21 61 -34 87 -14 27 -25 58 -25 68
0 11 -13 52 -30 92 -16 40 -30 77 -30 82 0 16 -61 152 -76 169 -8 9 -12 18 -9
21 12 12 -45 58 -73 58 -37 0 -56 -22 -77 -90 -9 -30 -23 -73 -30 -95 -8 -22
-23 -83 -35 -135 -12 -52 -30 -129 -40 -170 -10 -41 -24 -109 -30 -150 -6 -41
-18 -106 -25 -145 -8 -38 -18 -95 -24 -125 -11 -62 -24 -203 -23 -261 1 -35
-5 -42 -66 -93 -166 -135 -292 -311 -363 -503 l-11 -33 -112 6 c-90 5 -115 3
-131 -9 -36 -27 -5 -43 98 -50 131 -9 127 -6 124 -85 l-4 -66 -39 -18 c-21 -9
-83 -27 -136 -39 -80 -18 -98 -26 -98 -41 0 -27 87 -24 195 7 48 14 89 24 90
23 1 -2 10 -25 20 -53 26 -71 86 -157 132 -187 21 -14 54 -39 73 -57 19 -17
39 -31 43 -31 4 0 33 -19 65 -42 96 -72 349 -208 387 -208 10 0 15 -10 15 -27
1 -16 3 -66 6 -113 2 -47 6 -138 8 -203 2 -64 6 -120 9 -123 3 -3 -1 -21 -9
-39 -8 -19 -14 -46 -14 -59 0 -14 -6 -40 -14 -58 -8 -18 -24 -64 -36 -103 -12
-38 -32 -86 -44 -105 -36 -55 -86 -146 -86 -158 0 -10 -64 -146 -120 -252 -16
-30 -29 -67 -29 -81 -1 -14 -10 -34 -22 -45 -25 -23 -49 -67 -49 -90 0 -10 -6
-25 -14 -33 -24 -27 -121 -323 -130 -396 -1 -11 -10 -37 -19 -59 -9 -21 -17
-57 -17 -80 0 -22 -7 -63 -15 -91 -16 -50 -32 -244 -29 -340 3 -120 25 -242
54 -295 15 -27 5 -54 -35 -99 -42 -46 -110 -172 -130 -237 -20 -70 -23 -235
-5 -311 8 -35 18 -63 22 -63 4 0 8 -12 8 -27 0 -100 157 -338 273 -415 22 -15
45 -24 50 -21 4 3 14 -3 22 -13 11 -15 29 -20 97 -22 80 -3 85 -2 132 30 58
39 83 70 91 118 4 19 9 47 12 62 7 36 -36 127 -94 202 -69 88 -92 153 -93 259
0 71 -3 87 -15 87 -8 0 -15 5 -15 10 0 15 14 12 77 -16 32 -14 66 -26 75 -27
9 -1 15 -4 12 -8 -5 -9 25 -21 36 -14 5 3 25 -5 44 -19 81 -55 285 -73 741
-67 70 1 122 -4 175 -18 41 -10 91 -22 111 -25 21 -4 51 -14 69 -22 25 -13 67
-16 213 -16 211 1 248 7 258 42 5 16 7 19 8 8 2 -40 101 -12 111 32 6 24 7 25
14 3 9 -27 30 -21 136 34 41 22 82 40 90 41 20 0 87 15 180 39 137 36 306 149
361 241 12 20 33 49 47 64 30 32 112 212 112 245 0 13 9 42 21 65 18 35 21 62
24 200 3 149 -1 202 -24 323 -13 72 -40 167 -52 181 -5 6 -9 16 -8 20 6 21
-26 107 -71 196 -28 54 -49 101 -48 106 2 5 -20 55 -48 113 -29 57 -66 134
-84 171 -17 38 -45 82 -60 98 -16 17 -27 37 -24 45 6 16 -29 88 -57 116 -11
11 -17 24 -14 28 3 5 -11 32 -30 61 -19 29 -35 56 -35 61 0 18 -77 165 -113
215 -20 28 -37 55 -37 59 0 15 -138 293 -149 299 -6 4 -11 14 -11 23 0 9 -29
77 -65 151 -36 74 -65 142 -65 151 0 9 -14 41 -31 71 -17 30 -42 89 -56 130
-14 41 -29 80 -33 85 -19 26 -31 175 -18 220 5 17 11 48 14 70 3 22 11 52 18
66 8 16 10 34 4 49 -5 15 -4 28 4 38 15 17 25 282 12 282 -5 0 -8 33 -8 72 2
95 -20 280 -46 388 -5 19 -19 77 -31 129 -11 52 -25 102 -29 110 -4 9 -18 45
-30 81 -44 129 -88 238 -205 515 -140 334 -146 346 -179 366 -45 28 -62 24
-96 -23z m-1123 -1305 c27 -12 41 -30 63 -77 35 -77 42 -105 40 -185 -3 -143
-103 -296 -205 -315 -40 -8 -103 26 -132 71 -40 60 -34 279 10 372 26 55 99
131 126 131 11 0 23 5 26 10 9 14 32 12 72 -7z m773 -39 c56 -52 70 -88 70
-181 0 -82 -30 -196 -67 -252 -69 -106 -199 -159 -283 -116 -92 48 -124 208
-73 370 15 48 72 135 106 163 29 25 112 51 160 52 41 0 53 -5 87 -36z m520
-544 c19 -30 -12 -38 -160 -42 -139 -3 -145 -2 -145 17 0 30 70 45 193 42 78
-2 105 -6 112 -17z m-216 -204 c79 -30 205 -92 228 -113 20 -18 13 -43 -13
-43 -23 0 -69 21 -69 32 0 4 -7 8 -15 8 -7 0 -49 15 -92 34 -43 19 -90 37
-105 41 -32 8 -63 39 -53 54 10 17 50 13 119 -13z"/>
<path d="M2235 8281 c-61 -37 -95 -126 -98 -258 -1 -71 2 -97 19 -134 27 -57
68 -78 114 -59 44 18 106 94 126 152 31 94 -9 297 -57 285 -10 -3 -26 4 -35
14 -21 24 -31 24 -69 0z"/>
<path d="M2935 8267 c-48 -27 -100 -94 -117 -150 -7 -23 -12 -80 -13 -127 0
-93 16 -135 66 -172 21 -16 32 -17 68 -9 89 20 169 142 179 271 4 62 2 75 -24
126 -45 88 -84 104 -159 61z"/>
</g>
</svg>
