<?xml version="1.0" standalone="no"?>
<!DOCTYPE svg PUBLIC "-//W3C//DTD SVG 20010904//EN"
 "http://www.w3.org/TR/2001/REC-SVG-20010904/DTD/svg10.dtd">
<svg version="1.0" xmlns="http://www.w3.org/2000/svg"
 width="704.000000pt" height="1280.000000pt" viewBox="0 0 704.000000 1280.000000"
 preserveAspectRatio="xMidYMid meet">
<metadata>
Created by potrace 1.16, written by Peter Selinger 2001-2019
</metadata>
<g transform="translate(0.000000,1280.000000) scale(0.100000,-0.100000)"
fill="#000000" stroke="none">
<path d="M3496 9668 c-32 -44 -53 -94 -81 -203 -14 -49 -33 -119 -43 -155 -19
-63 -25 -83 -91 -260 -18 -47 -39 -105 -46 -130 -8 -25 -23 -62 -32 -82 -17
-36 -20 -38 -70 -38 -29 0 -64 -5 -78 -12 -21 -9 -28 -9 -35 2 -8 12 -63 10
-104 -6 -11 -4 -18 5 -26 38 -7 23 -17 57 -24 73 -12 29 -49 145 -62 195 -3
14 -14 43 -24 65 -10 22 -30 76 -45 120 -49 144 -62 179 -100 260 -40 88 -65
114 -108 115 -22 0 -33 -8 -50 -37 -27 -47 -60 -153 -91 -298 -14 -60 -34
-152 -45 -204 -11 -51 -23 -117 -26 -146 -2 -28 -9 -65 -15 -81 -10 -27 -20
-84 -40 -234 -5 -36 -9 -97 -9 -136 -1 -71 -1 -72 -38 -100 -55 -42 -198 -189
-250 -259 -45 -59 -153 -265 -153 -292 0 -11 -20 -12 -108 -7 -121 8 -160 -2
-143 -35 8 -15 27 -19 112 -24 56 -3 104 -9 108 -14 4 -4 5 -38 3 -75 -4 -66
-4 -67 -41 -81 -20 -8 -80 -25 -134 -38 -78 -19 -97 -26 -97 -41 0 -27 88 -24
195 7 48 14 89 24 90 23 1 -2 10 -25 20 -53 43 -116 99 -176 283 -300 132 -90
310 -188 410 -226 13 -5 22 -17 22 -31 1 -13 3 -72 6 -133 3 -60 6 -151 7
-200 2 -50 7 -96 11 -103 4 -7 3 -18 -2 -25 -6 -7 -13 -30 -17 -52 -15 -89
-67 -236 -104 -294 -37 -59 -73 -132 -101 -201 -28 -67 -58 -127 -82 -160 -9
-14 -29 -55 -42 -91 -14 -37 -36 -83 -50 -104 -14 -21 -26 -45 -26 -54 0 -9
-6 -25 -14 -36 -14 -21 -95 -256 -116 -337 -7 -25 -9 -51 -5 -57 3 -6 3 -11
-2 -11 -12 0 -34 -67 -43 -135 -5 -33 -16 -94 -24 -135 -9 -41 -16 -123 -16
-182 l0 -107 -64 -51 c-121 -95 -234 -282 -270 -446 -29 -131 -13 -364 25
-356 9 2 21 13 27 25 7 15 11 17 11 6 1 -8 -8 -25 -19 -37 -27 -29 -25 -69 6
-128 72 -137 112 -165 238 -168 77 -1 84 1 131 33 64 44 71 53 90 118 17 57
15 87 -11 223 -8 41 -13 93 -10 115 8 54 26 105 36 105 5 0 24 -13 42 -28 118
-103 338 -238 346 -214 5 17 22 15 22 -3 0 -43 167 -77 439 -90 106 -5 161
-20 161 -42 0 -7 19 -22 43 -34 23 -12 57 -32 75 -46 41 -31 135 -65 156 -57
10 4 16 1 16 -8 0 -26 178 -58 329 -58 98 0 248 37 361 89 117 55 260 158 260
188 0 7 7 13 16 13 9 0 28 7 42 15 15 8 59 21 97 30 146 32 220 57 284 96 94
57 151 105 188 158 18 25 46 61 63 78 16 18 30 37 30 43 0 6 16 43 36 83 19
39 40 94 46 122 6 27 17 63 25 78 18 35 26 254 9 260 -6 2 -5 14 3 35 9 20 10
45 5 74 -4 24 -8 52 -10 63 -11 89 -35 194 -55 240 -7 17 -14 37 -15 45 -2 8
-9 38 -17 65 -14 49 -22 67 -79 173 -16 28 -28 62 -28 74 0 13 -9 34 -20 48
-11 14 -20 28 -20 32 0 21 -133 280 -154 301 -14 14 -22 27 -19 31 8 8 -34 93
-57 116 -12 12 -18 24 -16 29 3 4 -8 29 -24 55 -17 26 -30 50 -30 55 0 16 -83
177 -106 203 -12 15 -44 71 -70 125 -45 94 -94 195 -126 258 -63 125 -148 308
-148 319 0 8 -14 40 -31 72 -17 33 -44 96 -59 142 -16 45 -32 87 -36 94 -20
31 -22 173 -4 238 7 25 19 67 27 93 9 33 11 53 4 61 -7 8 -6 25 4 51 19 52 20
251 3 258 -10 3 -10 7 0 20 8 9 10 22 6 28 -4 7 -8 42 -9 78 -2 81 -12 161
-32 266 -8 44 -19 100 -24 125 -11 60 -37 160 -48 185 -5 11 -18 47 -29 80
-38 115 -89 243 -209 525 -144 338 -146 342 -178 361 -42 27 -60 24 -89 -13z
m-1131 -1314 c24 -11 43 -34 69 -84 33 -62 36 -75 36 -151 0 -167 -84 -308
-202 -340 -79 -21 -144 46 -159 163 -24 186 40 351 155 404 62 28 60 28 101 8z
m765 -31 c22 -16 49 -45 61 -66 19 -35 21 -50 17 -140 -3 -73 -11 -118 -27
-159 -50 -128 -161 -215 -263 -206 -86 9 -133 59 -151 162 -19 112 20 263 89
345 74 88 199 117 274 64z m524 -553 c30 -30 4 -38 -149 -41 -145 -4 -150 -3
-150 16 0 29 69 45 187 42 71 -1 101 -6 112 -17z m-210 -204 c87 -33 207 -93
230 -116 37 -37 -17 -56 -64 -22 -14 9 -38 22 -55 29 -209 80 -219 85 -223
112 -5 29 29 28 112 -3z"/>
<path d="M2244 8290 c-61 -24 -107 -146 -108 -280 -1 -72 3 -91 24 -128 14
-24 34 -45 47 -48 60 -15 141 31 127 72 -4 14 -3 15 4 6 12 -17 45 23 63 75
14 44 6 177 -14 225 -20 47 -47 74 -58 57 -6 -11 -13 -8 -32 9 -26 25 -24 24
-53 12z"/>
<path d="M2935 8273 c-103 -55 -161 -229 -122 -364 9 -31 25 -63 35 -73 72
-65 170 -17 240 118 23 44 26 63 27 146 0 90 -1 97 -30 135 -16 22 -34 43 -40
47 -17 13 -79 8 -110 -9z"/>
</g>
</svg>
