<?xml version="1.0" standalone="no"?>
<!DOCTYPE svg PUBLIC "-//W3C//DTD SVG 20010904//EN"
 "http://www.w3.org/TR/2001/REC-SVG-20010904/DTD/svg10.dtd">
<svg version="1.0" xmlns="http://www.w3.org/2000/svg"
 width="704.000000pt" height="1280.000000pt" viewBox="0 0 704.000000 1280.000000"
 preserveAspectRatio="xMidYMid meet">
<metadata>
Created by potrace 1.16, written by Peter Selinger 2001-2019
</metadata>
<g transform="translate(0.000000,1280.000000) scale(0.100000,-0.100000)"
fill="#000000" stroke="none">
<path d="M3518 9700 c-9 -6 -27 -32 -39 -58 -12 -26 -25 -55 -30 -64 -4 -9
-15 -45 -23 -80 -25 -103 -159 -502 -177 -523 -4 -6 -13 -32 -18 -57 -6 -26
-21 -63 -33 -83 -20 -36 -23 -37 -64 -31 -28 3 -52 1 -70 -9 -23 -12 -30 -12
-47 0 -16 11 -26 11 -65 0 -25 -8 -49 -12 -52 -9 -3 3 -10 27 -16 52 -7 26
-16 61 -22 77 -6 17 -22 68 -37 115 -15 47 -38 109 -51 138 -13 29 -24 58 -24
65 0 15 -39 118 -49 132 -5 6 -11 26 -14 45 -5 32 -24 76 -78 181 -49 98 -120
94 -153 -10 -40 -126 -59 -198 -81 -302 -57 -272 -80 -386 -95 -484 -34 -221
-41 -285 -37 -317 4 -33 2 -39 -32 -62 -92 -64 -321 -327 -321 -368 0 -6 -7
-19 -16 -29 -8 -9 -28 -50 -44 -91 l-29 -73 -43 2 c-24 0 -70 2 -104 3 -80 3
-106 -6 -102 -33 3 -19 10 -22 53 -24 28 -2 78 -5 113 -9 l63 -6 -3 -70 c-3
-53 -8 -74 -22 -83 -10 -8 -69 -26 -132 -41 -102 -25 -115 -31 -112 -49 3 -18
9 -20 61 -17 32 2 92 14 135 28 42 13 79 20 83 16 3 -4 14 -29 24 -57 22 -62
89 -159 118 -172 12 -6 43 -29 69 -52 25 -22 49 -41 52 -41 3 0 25 -14 48 -30
24 -17 60 -42 82 -56 39 -26 309 -168 335 -176 14 -4 15 -15 25 -317 3 -73 7
-136 10 -139 3 -3 2 -10 -4 -17 -5 -6 -13 -35 -19 -65 -12 -68 -24 -110 -48
-175 -21 -55 -27 -66 -95 -188 -27 -47 -48 -90 -48 -95 0 -6 -6 -23 -14 -39
-7 -15 -24 -50 -37 -78 -13 -27 -26 -52 -30 -55 -13 -10 -69 -130 -69 -148 0
-11 -13 -36 -30 -57 -16 -21 -30 -48 -30 -60 0 -12 -8 -33 -19 -46 -10 -13
-22 -40 -26 -59 -4 -19 -13 -48 -20 -65 -20 -45 -61 -173 -75 -235 -7 -30 -17
-66 -22 -80 -6 -14 -14 -52 -18 -85 -4 -33 -15 -96 -25 -140 -22 -104 -27
-316 -10 -425 16 -96 32 -160 46 -175 5 -5 9 -20 9 -33 0 -15 7 -26 18 -29 14
-3 18 -11 14 -28 -5 -28 41 -80 63 -71 12 4 13 2 3 -14 -10 -16 -6 -25 27 -62
43 -47 135 -128 146 -128 3 0 24 -14 45 -31 52 -42 133 -82 151 -75 8 3 11 1
8 -4 -10 -16 26 -24 46 -11 16 9 19 8 19 -7 0 -11 12 -24 28 -32 33 -15 153
-42 203 -45 20 -1 53 -6 75 -10 61 -12 405 -7 421 6 10 9 17 8 28 -1 11 -9 47
-10 137 -6 68 4 206 7 308 9 l185 2 -2 -63 c-3 -120 -67 -247 -174 -349 -49
-46 -182 -143 -197 -143 -7 0 -20 -4 -30 -9 -45 -24 -143 -62 -173 -67 -19 -4
-38 -10 -44 -14 -5 -4 -26 -10 -45 -13 -19 -3 -53 -10 -75 -17 -56 -15 -471
-24 -575 -12 -110 14 -187 30 -221 48 -15 8 -36 11 -45 7 -11 -4 -15 -3 -11 4
4 7 -20 22 -63 39 -38 15 -70 31 -70 36 0 4 -5 8 -10 8 -20 0 -156 120 -215
190 -100 118 -236 220 -296 220 -8 0 -19 4 -25 9 -25 24 -162 42 -276 37 -197
-9 -264 13 -333 109 -61 86 -57 194 11 286 51 70 165 124 285 135 132 12 197
81 199 210 0 41 -6 59 -30 92 -37 51 -60 66 -131 82 -43 9 -61 10 -78 1 -12
-7 -26 -9 -31 -6 -11 7 -90 -14 -104 -27 -6 -4 -19 -8 -29 -8 -27 0 -179 -75
-243 -120 -209 -147 -301 -324 -289 -558 8 -174 46 -263 159 -375 79 -80 121
-104 236 -138 87 -25 261 -36 324 -20 54 13 146 -6 241 -50 72 -34 123 -79
275 -244 40 -44 92 -91 116 -105 23 -14 86 -51 139 -83 167 -101 289 -138 540
-167 164 -18 286 -19 470 -4 89 7 424 88 490 119 159 73 227 108 285 147 36
25 86 56 111 71 77 45 218 197 275 296 60 104 75 140 108 259 17 60 25 110 23
151 -2 72 2 76 82 86 92 11 260 54 303 78 22 12 53 29 69 38 25 15 66 47 138
112 13 12 36 40 50 62 14 22 38 55 53 73 15 18 28 40 28 49 0 9 6 24 13 32 26
31 68 142 65 170 -1 16 2 35 8 42 21 26 34 84 34 154 0 39 0 106 0 150 1 94
-20 233 -48 325 -11 36 -30 99 -42 140 -20 67 -34 102 -61 150 -37 65 -49 92
-49 109 0 11 -13 42 -30 68 -16 26 -30 51 -30 56 0 18 -143 297 -151 297 -5 0
-9 5 -9 11 0 19 -51 114 -66 122 -8 4 -14 16 -14 25 0 9 -14 37 -30 62 -16 25
-30 51 -30 58 0 20 -60 144 -87 181 -14 18 -62 106 -106 195 -44 88 -88 172
-97 186 -10 14 -21 36 -25 50 -4 14 -35 81 -68 150 -34 69 -62 130 -63 136 -4
27 -18 61 -39 94 -12 19 -30 60 -40 90 -10 30 -27 73 -38 94 -15 31 -20 61
-20 135 -1 96 21 223 41 243 8 8 8 17 1 30 -7 14 -7 23 1 33 13 15 25 269 14
286 -3 6 -7 47 -9 92 -7 146 -27 280 -67 457 -14 64 -89 303 -98 315 -4 6 -10
23 -14 38 -4 15 -20 57 -36 93 -17 35 -30 69 -30 74 0 5 -9 29 -20 52 -10 24
-58 135 -105 248 -114 275 -121 288 -166 311 -44 22 -39 21 -61 9z m-1147
-1342 c53 -36 97 -135 100 -226 1 -39 -1 -75 -4 -79 -4 -3 -7 -16 -7 -29 0
-12 -9 -44 -21 -70 -58 -137 -182 -209 -261 -152 -51 35 -68 88 -68 209 0 189
51 294 170 348 56 25 50 25 91 -1z m774 -34 c55 -47 65 -71 71 -168 5 -80 -13
-158 -53 -241 -44 -89 -175 -174 -247 -161 -41 8 -92 41 -120 79 -29 40 -35
193 -11 281 43 152 143 244 268 245 41 1 55 -4 92 -35z m499 -544 c25 -9 35
-34 19 -43 -5 -3 -75 -6 -158 -8 -145 -4 -150 -3 -150 16 0 15 11 23 45 32 56
14 210 16 244 3z m-186 -220 c42 -17 93 -39 112 -50 19 -10 46 -24 60 -30 37
-17 59 -40 53 -56 -7 -19 -54 -18 -83 3 -28 20 -101 53 -202 90 -63 24 -85 43
-72 64 10 16 54 9 132 -21z"/>
<path d="M2208 8262 c-47 -52 -70 -127 -72 -237 -1 -79 2 -95 24 -134 33 -59
49 -68 97 -53 49 15 84 46 77 70 -5 13 -4 14 4 3 8 -11 13 -9 25 10 38 58 47
97 43 184 -3 61 -11 99 -26 131 -20 41 -25 44 -50 39 -18 -4 -31 -1 -40 10
-20 24 -45 18 -82 -23z"/>
<path d="M2976 8295 c-57 -20 -83 -43 -122 -105 -65 -107 -67 -278 -4 -341 76
-77 177 -25 246 125 61 133 37 247 -66 323 -11 8 -25 8 -54 -2z"/>
</g>
</svg>
