<?xml version="1.0" standalone="no"?>
<!DOCTYPE svg PUBLIC "-//W3C//DTD SVG 20010904//EN"
 "http://www.w3.org/TR/2001/REC-SVG-20010904/DTD/svg10.dtd">
<svg version="1.0" xmlns="http://www.w3.org/2000/svg"
 width="704.000000pt" height="1280.000000pt" viewBox="0 0 704.000000 1280.000000"
 preserveAspectRatio="xMidYMid meet">
<metadata>
Created by potrace 1.16, written by Peter Selinger 2001-2019
</metadata>
<g transform="translate(0.000000,1280.000000) scale(0.100000,-0.100000)"
fill="#000000" stroke="none">
<path d="M3505 9684 c-27 -29 -56 -99 -80 -195 -9 -35 -24 -89 -34 -119 -10
-30 -31 -93 -46 -140 -15 -47 -30 -89 -33 -95 -4 -5 -19 -44 -33 -85 -47 -133
-67 -184 -84 -219 -17 -32 -20 -33 -61 -28 -26 3 -54 -1 -70 -9 -22 -12 -28
-12 -41 1 -18 19 -25 19 -70 0 -19 -8 -39 -15 -43 -15 -6 0 -26 57 -68 200
-29 94 -63 185 -77 200 -8 9 -15 31 -15 49 0 18 -7 45 -14 59 -25 45 -44 95
-51 132 -6 31 -28 81 -56 130 -5 8 -15 29 -22 45 -19 41 -62 68 -94 61 -17 -5
-31 -22 -49 -59 -13 -29 -24 -59 -24 -67 0 -9 -9 -40 -19 -70 -10 -30 -30
-109 -44 -175 -14 -66 -35 -163 -46 -214 -12 -52 -18 -103 -15 -113 3 -11 1
-24 -4 -31 -6 -7 -15 -41 -22 -77 -6 -36 -15 -83 -20 -105 -5 -22 -14 -99 -21
-170 l-13 -130 -126 -125 c-70 -69 -145 -153 -168 -186 -50 -75 -105 -184
-122 -241 l-13 -43 -116 7 c-97 5 -118 3 -129 -9 -25 -30 -4 -48 57 -48 105 0
161 -11 161 -31 0 -9 6 -20 13 -22 9 -4 9 -8 -2 -15 -8 -6 -15 -27 -15 -49 -2
-48 -24 -61 -166 -93 -90 -21 -101 -26 -98 -44 3 -19 9 -21 60 -18 31 2 91 14
134 27 43 13 80 22 83 20 2 -3 14 -30 27 -61 29 -72 69 -129 117 -168 21 -17
59 -48 83 -68 25 -21 52 -38 60 -38 8 0 14 -4 14 -9 0 -5 15 -16 34 -25 19 -9
36 -20 38 -24 6 -15 300 -174 358 -194 9 -3 18 -142 24 -365 1 -45 5 -85 8
-88 3 -4 0 -22 -8 -40 -8 -19 -14 -43 -14 -53 0 -20 -49 -178 -71 -227 -7 -16
-23 -43 -34 -60 -19 -27 -64 -115 -103 -205 -26 -60 -64 -134 -77 -150 -18
-23 -46 -93 -49 -123 -2 -14 -17 -42 -35 -62 -28 -33 -36 -51 -32 -81 1 -6 -8
-19 -19 -29 -11 -10 -20 -25 -20 -34 0 -9 -16 -61 -36 -116 -34 -99 -64 -201
-69 -240 -1 -11 -10 -37 -19 -59 -9 -21 -16 -53 -16 -70 0 -17 -5 -47 -10 -66
-48 -161 -45 -497 5 -643 8 -22 11 -46 7 -53 -4 -6 -29 -29 -57 -49 -68 -52
-164 -146 -171 -169 -4 -10 -19 -41 -35 -69 -17 -27 -40 -86 -53 -131 -14 -44
-27 -89 -31 -98 -4 -10 -3 -18 2 -18 6 0 10 -33 9 -72 0 -78 35 -218 60 -239
8 -6 14 -22 14 -36 0 -13 7 -40 15 -59 8 -20 18 -70 21 -112 6 -74 5 -80 -30
-152 -59 -121 -63 -148 -31 -217 33 -73 61 -103 96 -103 15 0 29 -7 33 -15 7
-20 82 -20 153 1 42 12 66 28 100 63 45 48 84 106 102 153 8 22 8 26 -4 21
-20 -7 -19 0 4 26 13 15 20 18 23 9 3 -7 10 22 16 64 12 77 6 194 -9 204 -4 2
-6 11 -3 18 3 8 -7 52 -22 98 -14 45 -35 110 -46 142 -32 97 -34 172 -7 231
12 28 22 53 21 57 -1 4 13 19 31 34 17 14 38 36 45 48 11 16 12 17 8 2 -5 -14
-3 -17 11 -11 42 17 55 16 87 -8 52 -40 155 -89 176 -84 10 3 21 -1 23 -8 7
-16 66 -43 124 -56 134 -28 404 -45 538 -32 79 8 343 0 399 -12 15 -3 34 -1
41 5 8 7 22 5 46 -7 25 -13 62 -17 155 -17 105 -1 125 2 142 17 15 14 29 17
50 12 20 -4 55 2 104 18 103 35 127 40 179 38 26 -1 91 5 145 14 223 37 367
92 459 175 22 19 49 42 60 50 12 8 32 31 45 50 13 19 39 52 57 73 18 20 33 42
33 49 0 6 16 42 35 79 19 37 37 86 41 110 4 24 16 67 27 94 17 43 20 71 19
205 -2 193 -25 352 -71 485 -5 17 -22 66 -37 110 -14 44 -41 103 -60 132 -19
28 -34 59 -34 69 0 10 -17 54 -39 99 -21 44 -60 125 -86 179 -26 54 -57 108
-68 119 -11 11 -21 30 -22 42 -4 28 -39 98 -59 114 -9 8 -16 21 -16 31 0 9
-13 36 -30 58 -16 23 -30 46 -30 51 0 20 -70 163 -93 190 -12 15 -69 121 -125
237 -57 115 -132 268 -167 341 -36 72 -65 138 -65 146 0 8 -14 41 -31 73 -16
32 -38 85 -49 116 -10 31 -26 71 -36 90 -25 47 -25 201 0 293 10 39 19 88 20
111 2 22 6 46 10 52 4 7 2 12 -5 12 -8 0 -8 4 -1 13 13 15 17 180 7 282 -4 39
-7 77 -6 85 3 89 -76 521 -103 565 -7 11 -16 35 -19 53 -4 18 -18 63 -33 100
-81 209 -122 311 -176 437 -33 77 -78 185 -100 240 -42 106 -72 148 -120 164
-26 9 -32 7 -53 -15z m-1127 -1334 c22 -13 40 -37 53 -68 11 -26 25 -56 31
-66 6 -11 10 -57 9 -102 -3 -269 -244 -444 -343 -251 -26 51 -31 153 -12 254
21 116 75 201 149 234 52 24 72 24 113 -1z m773 -38 c48 -45 51 -51 59 -115
16 -128 -20 -259 -93 -343 -55 -64 -62 -69 -125 -90 -45 -16 -58 -16 -99 -6
-86 23 -125 93 -124 226 1 217 121 374 289 376 38 0 49 -6 93 -48z m503 -542
c30 -30 4 -37 -147 -42 -123 -4 -150 -3 -154 9 -3 8 -1 19 4 24 30 30 269 37
297 9z m-141 -235 c122 -54 172 -84 172 -105 0 -23 -45 -24 -76 -1 -15 12 -33
21 -38 21 -6 0 -45 15 -88 34 -43 18 -95 39 -115 46 -31 9 -38 16 -38 37 0 24
3 25 38 20 20 -2 86 -26 145 -52z"/>
<path d="M2210 8262 c-49 -48 -73 -128 -74 -237 -1 -96 6 -124 40 -164 34 -41
68 -40 130 2 75 50 99 107 98 227 0 79 -4 105 -23 144 -21 42 -27 47 -48 41
-15 -3 -29 0 -39 10 -24 23 -43 18 -84 -23z"/>
<path d="M2953 8283 c-77 -43 -125 -113 -142 -207 -21 -115 -8 -183 46 -233
77 -73 168 -22 240 132 36 79 38 189 5 235 -12 16 -22 34 -22 39 0 14 -55 51
-77 51 -10 0 -33 -8 -50 -17z"/>
</g>
</svg>
