<?xml version="1.0" standalone="no"?>
<!DOCTYPE svg PUBLIC "-//W3C//DTD SVG 20010904//EN"
 "http://www.w3.org/TR/2001/REC-SVG-20010904/DTD/svg10.dtd">
<svg version="1.0" xmlns="http://www.w3.org/2000/svg"
 width="704.000000pt" height="1280.000000pt" viewBox="0 0 704.000000 1280.000000"
 preserveAspectRatio="xMidYMid meet">
<metadata>
Created by potrace 1.16, written by Peter Selinger 2001-2019
</metadata>
<g transform="translate(0.000000,1280.000000) scale(0.100000,-0.100000)"
fill="#000000" stroke="none">
<path d="M3503 9677 c-32 -34 -63 -107 -83 -197 -19 -84 -134 -426 -169 -503
-12 -25 -21 -54 -21 -64 0 -10 -9 -35 -20 -56 -11 -21 -18 -42 -15 -48 4 -5
-19 -9 -59 -8 -39 1 -72 -3 -81 -11 -12 -10 -18 -9 -30 4 -20 19 -13 19 -65 1
-23 -8 -46 -15 -51 -15 -4 0 -16 27 -25 60 -9 33 -21 63 -25 66 -5 3 -9 14 -9
25 0 27 -67 228 -85 256 -8 12 -15 34 -15 49 0 14 -7 38 -14 52 -22 40 -43 93
-50 125 -4 15 -22 60 -41 100 -19 41 -35 78 -35 82 0 5 -12 22 -27 37 -48 51
-96 30 -126 -53 -28 -79 -56 -182 -81 -299 -14 -63 -34 -157 -46 -209 -11 -51
-18 -102 -14 -113 3 -10 -1 -34 -9 -51 -9 -18 -20 -63 -26 -102 -28 -180 -42
-302 -38 -328 3 -22 -4 -35 -37 -65 -23 -21 -50 -44 -61 -52 -31 -23 -157
-161 -192 -210 -43 -60 -118 -204 -133 -258 -15 -47 -20 -48 -130 -33 -54 8
-115 0 -132 -17 -5 -5 -6 -16 -2 -25 5 -13 20 -17 73 -18 36 0 86 -4 111 -7
39 -6 45 -10 42 -30 -2 -12 2 -22 9 -22 9 0 9 -3 0 -14 -7 -8 -13 -29 -13 -46
-1 -43 -21 -54 -155 -86 -101 -25 -114 -31 -111 -49 3 -18 9 -20 63 -17 33 2
87 11 120 22 97 31 93 32 120 -33 32 -79 66 -128 115 -168 23 -19 62 -51 86
-71 25 -21 50 -38 55 -38 5 0 19 -9 31 -20 12 -11 28 -20 35 -20 7 0 13 -4 13
-9 0 -11 156 -100 285 -162 50 -24 91 -44 92 -44 4 -1 15 -225 17 -337 1 -59
4 -110 8 -113 3 -4 0 -22 -8 -40 -8 -19 -14 -42 -14 -52 0 -43 -67 -234 -96
-273 -15 -21 -78 -145 -104 -205 -34 -80 -64 -138 -81 -160 -18 -23 -59 -117
-59 -136 0 -7 -12 -27 -26 -46 -14 -19 -30 -51 -36 -71 -6 -20 -15 -43 -21
-51 -7 -8 -17 -32 -24 -55 -6 -23 -23 -75 -37 -116 -27 -77 -56 -180 -61 -215
-1 -11 -9 -38 -17 -60 -9 -22 -21 -74 -28 -115 -7 -41 -17 -100 -22 -130 -10
-64 -19 -320 -11 -333 3 -5 6 -29 7 -54 2 -53 -6 -64 -76 -99 -111 -56 -190
-122 -252 -209 -133 -186 -188 -412 -157 -650 12 -89 41 -202 64 -240 6 -11
28 -51 47 -88 86 -161 173 -228 285 -220 33 2 67 7 75 10 8 4 17 7 20 7 17 3
71 57 95 95 45 72 34 158 -34 283 -17 31 -31 65 -31 76 0 12 -9 36 -20 55 -27
45 -39 213 -20 273 30 96 72 154 164 222 41 32 61 28 119 -23 29 -25 55 -45
59 -45 5 0 29 -15 56 -34 67 -49 150 -89 172 -83 10 3 21 -1 23 -8 18 -46 220
-84 484 -91 134 -3 145 -5 210 -34 88 -41 152 -60 159 -49 3 5 12 9 20 9 11 0
13 -6 9 -20 -5 -17 -2 -20 22 -21 15 -1 34 -1 41 0 8 1 19 -3 27 -9 7 -6 44
-11 81 -11 38 -1 72 -6 75 -11 9 -14 137 -12 154 2 8 7 14 7 17 1 5 -16 151
19 223 55 38 19 55 34 70 67 19 40 20 41 23 14 4 -34 15 -34 42 0 26 33 91 63
139 63 55 0 215 28 320 56 105 28 205 78 268 136 24 21 47 38 52 38 8 0 105
123 128 164 44 77 82 170 93 221 7 33 16 65 20 70 41 53 27 421 -23 615 -26
102 -87 275 -106 300 -26 37 -51 87 -51 105 0 23 -171 366 -193 388 -11 11
-21 30 -23 42 -2 27 -18 59 -49 100 -12 17 -25 42 -28 57 -4 14 -18 40 -32 56
-14 17 -25 35 -25 42 0 19 -71 162 -95 191 -18 23 -187 355 -240 474 -35 79
-96 200 -106 209 -5 6 -9 21 -9 34 0 13 -13 50 -29 81 -16 31 -41 90 -56 131
-16 41 -32 81 -38 88 -18 23 -14 200 7 277 10 39 19 88 20 111 2 22 6 46 10
52 4 7 2 12 -5 12 -8 0 -8 4 -1 13 20 24 16 253 -9 482 -17 155 -65 391 -93
450 -8 17 -20 53 -27 80 -7 28 -20 68 -29 90 -9 22 -21 54 -27 70 -26 73 -121
298 -259 616 -13 31 -24 61 -24 66 0 15 -52 61 -81 72 -23 8 -30 6 -56 -22z
m-1115 -1332 c16 -14 40 -50 52 -80 12 -30 25 -55 29 -55 7 0 5 -116 -4 -172
-14 -94 -95 -216 -162 -245 -107 -44 -190 32 -198 180 -9 177 57 332 159 378
57 25 90 23 124 -6z m749 -21 c66 -55 82 -93 77 -193 -8 -182 -91 -324 -215
-365 -70 -24 -117 -16 -166 27 -50 44 -63 82 -63 183 0 130 30 221 97 295 53
58 112 86 187 88 31 1 48 -7 83 -35z m524 -551 c6 -6 9 -19 6 -27 -5 -13 -25
-16 -110 -16 -57 0 -125 -3 -150 -6 -38 -6 -48 -4 -53 10 -9 24 5 35 57 46 60
12 236 7 250 -7z m-217 -207 c87 -33 207 -93 230 -116 39 -38 -21 -56 -67 -20
-14 11 -30 20 -36 20 -6 0 -36 12 -68 26 -32 14 -83 35 -113 45 -57 20 -72 33
-63 56 8 19 45 16 117 -11z"/>
<path d="M2216 8268 c-67 -67 -103 -236 -72 -339 21 -73 53 -104 101 -96 49 8
97 44 90 67 -3 10 0 22 6 26 9 5 10 2 6 -9 -14 -38 13 -14 35 31 33 67 33 216
-1 286 -21 43 -26 47 -51 41 -18 -4 -31 -1 -40 10 -19 23 -39 18 -74 -17z"/>
<path d="M2946 8278 c-76 -39 -122 -115 -137 -224 -15 -105 4 -180 55 -219 78
-60 164 -8 233 140 36 79 38 189 5 235 -12 16 -22 34 -22 39 0 14 -55 51 -77
51 -10 -1 -36 -10 -57 -22z"/>
</g>
</svg>
