<?xml version="1.0" standalone="no"?>
<!DOCTYPE svg PUBLIC "-//W3C//DTD SVG 20010904//EN"
 "http://www.w3.org/TR/2001/REC-SVG-20010904/DTD/svg10.dtd">
<svg version="1.0" xmlns="http://www.w3.org/2000/svg"
 width="704.000000pt" height="1280.000000pt" viewBox="0 0 704.000000 1280.000000"
 preserveAspectRatio="xMidYMid meet">
<metadata>
Created by potrace 1.16, written by Peter Selinger 2001-2019
</metadata>
<g transform="translate(0.000000,1280.000000) scale(0.100000,-0.100000)"
fill="#000000" stroke="none">
<path d="M3502 9677 c-28 -30 -68 -121 -77 -177 -4 -25 -17 -76 -30 -115 -12
-38 -31 -97 -40 -130 -10 -33 -25 -76 -33 -95 -15 -33 -56 -143 -82 -220 -7
-19 -24 -59 -37 -87 l-25 -53 -51 0 c-29 0 -65 -7 -80 -15 -15 -8 -25 -9 -21
-3 13 20 -19 26 -70 12 -28 -8 -52 -14 -53 -14 -1 0 -9 26 -18 58 -9 31 -22
63 -28 71 -7 8 -10 24 -9 37 2 12 -6 43 -17 68 -12 25 -21 53 -21 63 0 10 -14
42 -30 72 -17 30 -30 65 -30 77 0 23 -8 46 -40 119 -10 22 -21 52 -24 67 -13
58 -95 215 -121 232 -41 27 -78 7 -104 -54 -12 -27 -21 -53 -21 -58 0 -5 -9
-38 -20 -73 -33 -107 -112 -487 -104 -501 2 -3 -1 -19 -7 -35 -24 -61 -72
-393 -64 -443 5 -33 2 -38 -50 -79 -162 -129 -345 -380 -380 -524 l-7 -27
-117 6 c-101 6 -118 5 -130 -10 -23 -28 3 -46 68 -47 31 0 79 -4 106 -7 l50
-7 -4 -45 c-2 -25 -4 -56 -5 -70 -1 -33 -42 -53 -168 -82 -76 -17 -98 -26 -98
-39 0 -9 7 -19 15 -22 19 -8 121 9 197 33 35 11 66 20 70 20 3 0 9 -13 13 -30
12 -54 54 -129 98 -172 66 -66 144 -128 161 -128 9 0 16 -4 16 -9 0 -5 17 -20
37 -33 20 -12 55 -35 77 -50 67 -43 270 -149 314 -162 13 -5 22 -16 23 -29 2
-86 9 -239 14 -327 4 -58 6 -109 6 -115 -3 -55 -83 -306 -110 -345 -31 -44
-115 -215 -134 -270 -3 -9 -28 -56 -56 -105 -28 -49 -51 -100 -51 -112 0 -13
-16 -46 -35 -74 -19 -28 -35 -62 -35 -75 0 -13 -8 -32 -18 -42 -9 -9 -25 -42
-34 -72 -9 -30 -33 -106 -53 -169 -19 -62 -37 -129 -40 -147 -2 -18 -9 -43
-16 -56 -6 -12 -15 -47 -19 -77 -5 -31 -15 -94 -24 -141 -22 -113 -26 -220
-14 -365 11 -145 53 -298 79 -290 12 4 15 -1 11 -24 -6 -45 14 -74 49 -69 33
5 33 4 18 -23 -9 -17 -2 -28 53 -83 87 -86 273 -216 310 -216 10 0 18 -5 18
-11 0 -7 10 -9 24 -7 16 3 27 0 30 -9 6 -16 62 -41 104 -47 34 -5 142 -27 162
-33 11 -3 8 -10 -14 -28 -16 -13 -41 -29 -55 -36 -31 -16 -141 -93 -185 -130
-52 -44 -244 -167 -281 -180 -19 -7 -35 -16 -35 -21 0 -4 -17 -10 -37 -14 -21
-4 -45 -13 -55 -21 -9 -8 -31 -16 -50 -18 -18 -2 -73 -10 -121 -18 -87 -13
-145 -10 -223 14 -17 5 -39 9 -50 9 -11 0 -53 20 -93 45 -40 25 -77 45 -82 45
-5 0 -23 9 -41 20 -39 24 -68 25 -142 6 -65 -17 -117 -53 -145 -102 -22 -37
-28 -108 -11 -119 6 -3 7 -17 4 -30 -7 -30 13 -69 72 -134 37 -41 69 -62 148
-100 95 -46 247 -88 268 -75 5 3 16 0 25 -8 25 -21 316 -18 368 3 22 9 75 22
117 28 76 12 245 77 279 107 8 8 20 14 25 14 13 0 190 117 257 169 266 209
385 284 602 375 61 26 119 50 130 55 18 8 111 36 210 63 22 6 44 15 49 20 6 4
21 8 35 8 15 0 64 13 111 29 103 35 196 50 510 80 135 13 344 65 392 97 21 13
42 24 47 24 17 0 177 138 188 163 7 14 29 44 49 67 44 48 112 196 121 260 3
25 9 50 14 55 13 18 29 101 30 158 1 155 -8 317 -19 330 -7 8 -10 21 -7 30 6
15 -5 57 -50 198 -14 42 -25 82 -25 88 0 17 -37 95 -71 152 -17 26 -31 59 -33
73 -2 23 -28 79 -140 305 -23 47 -49 86 -58 89 -11 2 -18 14 -18 28 0 31 -39
114 -57 121 -7 3 -13 14 -13 25 0 11 -13 40 -30 65 -16 24 -30 48 -30 53 0 18
-76 165 -111 215 -19 28 -68 120 -108 205 -40 85 -79 162 -87 171 -8 8 -14 21
-14 28 0 7 -29 73 -65 147 -36 74 -65 140 -65 147 0 6 -15 44 -34 82 -66 134
-98 231 -105 317 -5 46 -4 90 0 99 14 28 41 143 42 184 1 22 5 45 8 50 4 6 7
68 8 139 2 98 -1 131 -11 137 -9 6 -10 11 -2 19 12 12 11 34 -7 200 -18 172
-61 379 -99 475 -4 11 -13 40 -20 65 -17 60 -46 133 -145 370 -13 30 -37 89
-53 130 -17 41 -43 104 -59 140 -17 36 -43 98 -59 139 -48 124 -112 171 -162
118z m-1117 -1329 c15 -12 41 -51 57 -87 27 -61 29 -73 25 -156 -5 -111 -34
-191 -91 -253 -69 -76 -142 -92 -203 -46 -54 41 -65 81 -61 219 5 139 22 198
76 264 36 45 98 79 143 80 15 1 39 -9 54 -21z m742 -17 c67 -49 84 -86 85
-189 1 -171 -73 -315 -191 -368 -90 -40 -143 -30 -210 40 -33 34 -34 38 -39
135 -7 147 23 244 102 329 75 81 183 103 253 53z m534 -558 c6 -6 9 -19 6 -27
-5 -13 -25 -16 -110 -16 -57 0 -125 -3 -150 -6 -38 -6 -48 -4 -53 10 -9 24 5
35 57 46 60 12 236 7 250 -7z m-217 -207 c87 -33 207 -93 230 -116 37 -37 -17
-56 -64 -23 -14 10 -45 25 -70 35 -178 66 -204 80 -208 107 -5 29 29 28 112
-3z"/>
<path d="M2216 8270 c-52 -46 -78 -139 -79 -275 0 -74 14 -115 52 -149 41 -37
149 5 143 55 -2 19 -1 21 7 9 9 -13 12 -12 25 5 49 65 57 230 16 318 -18 38
-26 46 -41 42 -10 -4 -29 1 -41 9 -31 22 -42 20 -82 -14z"/>
<path d="M2940 8273 c-70 -36 -113 -105 -131 -206 -24 -148 24 -257 116 -257
77 0 167 108 195 235 12 54 -2 154 -24 170 -7 6 -16 20 -20 33 -7 20 -52 52
-74 52 -4 0 -33 -12 -62 -27z"/>
</g>
</svg>
