<?xml version="1.0" standalone="no"?>
<!DOCTYPE svg PUBLIC "-//W3C//DTD SVG 20010904//EN"
 "http://www.w3.org/TR/2001/REC-SVG-20010904/DTD/svg10.dtd">
<svg version="1.0" xmlns="http://www.w3.org/2000/svg"
 width="704.000000pt" height="1280.000000pt" viewBox="0 0 704.000000 1280.000000"
 preserveAspectRatio="xMidYMid meet">
<metadata>
Created by potrace 1.16, written by Peter Selinger 2001-2019
</metadata>
<g transform="translate(0.000000,1280.000000) scale(0.100000,-0.100000)"
fill="#000000" stroke="none">
<path d="M3506 9677 c-31 -29 -52 -78 -86 -202 -15 -55 -36 -125 -45 -155 -9
-30 -23 -76 -30 -101 -7 -25 -23 -65 -34 -87 -12 -23 -21 -50 -21 -60 0 -10
-11 -40 -24 -66 -13 -27 -27 -60 -31 -75 -3 -14 -15 -50 -27 -78 l-20 -53 -52
0 c-28 0 -63 -6 -78 -14 -23 -12 -27 -12 -32 1 -6 16 -46 15 -102 -2 -19 -6
-24 1 -44 57 -12 34 -27 83 -33 108 -7 25 -17 54 -24 65 -6 11 -14 38 -18 60
-4 22 -18 59 -31 83 -13 23 -24 51 -24 62 0 17 -25 90 -49 145 -5 11 -12 33
-16 49 -13 60 -92 211 -118 225 -40 21 -71 7 -94 -41 -30 -64 -61 -169 -92
-313 -11 -49 -31 -142 -45 -204 -13 -63 -23 -118 -20 -122 2 -4 -3 -34 -11
-66 -26 -98 -47 -243 -50 -348 l-4 -100 -38 -35 c-22 -19 -55 -49 -74 -66 -45
-39 -155 -163 -182 -204 -62 -92 -117 -194 -131 -244 l-12 -41 -50 1 c-27 1
-74 3 -105 4 -62 3 -102 -13 -97 -38 3 -14 20 -18 100 -23 54 -4 104 -9 113
-13 12 -4 15 -19 12 -71 -2 -36 -8 -70 -13 -75 -9 -9 -91 -32 -226 -64 -19 -4
-28 -13 -28 -26 0 -17 7 -20 49 -20 27 0 88 11 136 25 49 14 91 22 95 18 4 -4
12 -26 18 -48 19 -66 66 -129 142 -191 39 -33 83 -66 98 -74 14 -8 32 -21 41
-28 81 -65 131 -95 319 -189 93 -47 112 -60 112 -79 0 -13 5 -26 10 -29 7 -4
6 -13 -1 -27 -7 -13 -8 -37 -4 -62 6 -33 18 -267 17 -326 -1 -17 -15 -74 -44
-170 -10 -36 -20 -73 -21 -82 -2 -9 -24 -52 -50 -95 -25 -44 -65 -122 -88
-174 -46 -104 -41 -94 -109 -223 -28 -51 -47 -95 -44 -98 3 -4 -11 -30 -30
-58 -20 -29 -36 -59 -36 -67 0 -8 -9 -31 -20 -51 -21 -39 -102 -295 -120 -376
-6 -27 -16 -58 -22 -69 -6 -12 -14 -48 -19 -82 -4 -33 -15 -100 -24 -150 -14
-72 -16 -126 -12 -270 5 -171 15 -240 47 -310 5 -11 10 -29 12 -40 2 -12 11
-19 21 -19 13 1 16 -3 12 -17 -8 -24 16 -67 46 -83 13 -7 23 -19 21 -29 -9
-55 358 -321 419 -302 13 4 19 2 19 -8 0 -17 95 -61 111 -52 5 4 16 1 24 -5
18 -15 179 -30 360 -33 215 -3 800 11 895 22 47 6 142 15 211 22 120 10 128
10 167 -10 23 -12 50 -21 61 -21 10 0 21 -6 24 -14 7 -17 185 -106 212 -106
11 0 33 -7 48 -15 15 -8 55 -19 88 -25 34 -6 73 -16 87 -21 33 -13 275 -19
316 -9 17 5 53 11 80 15 111 14 289 93 400 178 112 85 251 298 272 415 4 20
12 53 19 72 7 19 21 64 30 100 26 97 44 151 61 188 9 18 13 40 10 48 -3 8 -1
14 4 14 5 0 11 8 14 18 12 35 94 112 142 132 89 39 202 9 287 -74 37 -35 49
-58 77 -144 37 -112 71 -162 128 -189 70 -34 211 -14 229 33 3 7 13 14 23 14
13 0 28 19 47 57 23 49 28 70 28 133 -1 122 -51 258 -135 366 -17 21 -39 51
-50 65 -11 15 -48 45 -83 67 -34 23 -73 49 -87 60 -30 24 -103 53 -190 78 -98
28 -270 25 -375 -7 -95 -30 -199 -89 -276 -158 -56 -50 -166 -202 -172 -237
-1 -10 -14 -44 -29 -74 -14 -30 -34 -91 -43 -135 -29 -132 -75 -305 -94 -356
-19 -50 -107 -169 -124 -169 -6 0 -20 -8 -31 -19 -20 -17 -100 -61 -141 -77
-11 -4 -45 -9 -75 -11 -41 -3 -59 -9 -69 -23 -16 -24 -31 -26 -31 -5 0 8 -17
19 -42 26 -57 16 -66 26 -37 37 30 12 99 76 99 93 0 6 17 28 38 49 36 36 47
55 73 118 7 15 22 48 35 73 13 26 24 60 24 76 0 15 9 45 20 66 20 36 27 122
23 252 -1 22 -1 63 -1 90 2 87 -47 324 -71 348 -6 6 -11 20 -11 31 0 40 -45
158 -92 239 -16 26 -28 55 -28 64 0 22 -183 400 -200 413 -3 3 -14 26 -24 52
-9 26 -28 58 -42 70 -13 13 -24 30 -24 39 0 9 -13 36 -30 60 -16 24 -30 50
-30 56 0 21 -52 124 -96 193 -23 36 -73 130 -113 210 -39 80 -77 156 -85 170
-28 51 -129 277 -147 329 -11 30 -28 70 -39 89 -12 19 -32 66 -45 105 -14 39
-32 80 -39 93 -8 12 -15 30 -16 40 0 11 -2 48 -5 84 -2 36 1 80 7 99 20 63 38
156 41 206 1 28 5 55 8 60 9 13 10 216 2 229 -4 6 -8 42 -9 81 -5 146 -22 295
-43 375 -5 19 -17 69 -26 110 -20 93 -83 288 -96 296 -5 3 -9 13 -9 23 0 10
-14 49 -30 87 -46 104 -45 101 -95 224 -188 458 -188 459 -246 479 -24 8 -33
6 -53 -12z m-1106 -1323 c21 -19 42 -45 46 -56 3 -12 13 -37 22 -57 21 -49 23
-103 7 -188 -29 -150 -109 -244 -218 -256 -46 -4 -49 -3 -87 40 -48 55 -54 85
-47 225 5 93 10 118 35 171 36 74 71 113 126 138 57 26 70 24 116 -17z m736
-9 c16 -14 32 -25 36 -25 4 0 17 -19 29 -41 15 -30 21 -63 23 -123 2 -71 -2
-91 -31 -166 -79 -202 -261 -285 -371 -168 -100 107 -35 417 105 506 62 38 68
40 129 41 41 1 57 -4 80 -24z m499 -565 c17 -7 25 -16 23 -28 -3 -15 -21 -18
-148 -23 -80 -3 -149 -2 -153 1 -17 14 7 40 46 49 57 12 200 13 232 1z m-179
-215 c76 -29 206 -98 224 -120 29 -36 -30 -48 -73 -15 -14 11 -30 20 -36 20
-7 0 -31 10 -54 22 -23 12 -73 33 -112 48 -55 20 -71 30 -73 48 -3 19 1 22 27
22 17 0 61 -11 97 -25z"/>
<path d="M2270 8313 c-8 -3 -30 -19 -48 -37 -50 -47 -76 -143 -70 -255 7 -124
35 -171 100 -171 34 0 46 7 91 53 61 61 77 103 77 204 0 109 -43 203 -85 187
-7 -3 -15 2 -18 10 -6 16 -20 19 -47 9z"/>
<path d="M2935 8278 c-63 -43 -101 -114 -117 -213 -10 -65 -9 -82 5 -129 25
-80 50 -106 98 -106 52 0 90 20 129 70 51 64 79 144 80 222 0 80 -7 101 -53
151 -44 47 -78 49 -142 5z"/>
</g>
</svg>
