<?xml version="1.0" standalone="no"?>
<!DOCTYPE svg PUBLIC "-//W3C//DTD SVG 20010904//EN"
 "http://www.w3.org/TR/2001/REC-SVG-20010904/DTD/svg10.dtd">
<svg version="1.0" xmlns="http://www.w3.org/2000/svg"
 width="704.000000pt" height="1280.000000pt" viewBox="0 0 704.000000 1280.000000"
 preserveAspectRatio="xMidYMid meet">
<metadata>
Created by potrace 1.16, written by Peter Selinger 2001-2019
</metadata>
<g transform="translate(0.000000,1280.000000) scale(0.100000,-0.100000)"
fill="#000000" stroke="none">
<path d="M3503 9673 c-4 -10 -12 -22 -18 -28 -15 -13 -55 -108 -55 -132 0 -36
-113 -378 -171 -518 -16 -38 -29 -76 -29 -83 0 -7 -11 -35 -25 -63 -25 -49
-26 -49 -73 -48 -26 1 -58 -4 -71 -11 -19 -10 -25 -10 -31 0 -8 13 -55 10
-107 -5 -19 -6 -23 -2 -33 37 -7 23 -17 57 -24 73 -7 17 -18 48 -24 70 -15 60
-42 134 -68 193 -13 29 -24 61 -24 71 0 17 -11 49 -45 126 -7 17 -16 43 -20
60 -6 27 -41 108 -64 145 -5 8 -13 26 -19 40 -22 58 -99 64 -127 10 -39 -75
-119 -408 -179 -745 -8 -44 -20 -107 -26 -140 -6 -33 -14 -112 -17 -176 l-6
-116 -33 -23 c-54 -36 -221 -210 -260 -270 -49 -73 -119 -206 -134 -254 l-12
-38 -72 7 c-131 14 -188 1 -173 -39 5 -12 22 -16 74 -17 37 0 86 -3 108 -7
l40 -7 1 -68 c1 -64 0 -69 -26 -82 -15 -8 -75 -26 -134 -41 -88 -22 -106 -30
-106 -45 0 -33 83 -24 257 27 15 4 24 2 27 -7 33 -104 90 -196 143 -229 16
-10 46 -34 68 -54 22 -20 46 -36 52 -36 7 0 21 -7 30 -15 59 -50 94 -76 143
-100 30 -16 62 -34 70 -41 8 -7 59 -32 113 -57 53 -24 100 -46 103 -49 6 -6
15 -183 18 -338 1 -58 5 -111 10 -118 4 -7 3 -18 -2 -25 -6 -7 -13 -30 -17
-52 -10 -56 -30 -132 -49 -185 -9 -25 -16 -53 -16 -63 0 -10 -5 -15 -10 -12
-6 3 -15 -4 -21 -17 -6 -13 -23 -45 -39 -73 -32 -55 -42 -75 -73 -150 -43
-106 -60 -141 -77 -160 -10 -11 -28 -48 -39 -83 -12 -35 -35 -81 -51 -104 -17
-23 -30 -52 -30 -65 0 -13 -9 -31 -20 -40 -11 -10 -20 -25 -20 -34 0 -9 -20
-78 -46 -153 -25 -75 -46 -151 -48 -169 -2 -18 -13 -54 -24 -81 -12 -27 -22
-66 -22 -88 0 -22 -8 -65 -17 -96 -26 -84 -26 -470 0 -557 19 -65 47 -126 61
-137 5 -3 10 -18 12 -33 4 -41 32 -77 53 -70 15 5 17 1 13 -20 -4 -21 6 -36
59 -86 35 -34 84 -75 109 -92 25 -17 57 -41 72 -53 43 -35 157 -86 179 -79 13
4 19 2 19 -8 0 -16 94 -61 113 -54 7 2 23 0 37 -6 39 -15 182 -28 340 -30 233
-3 809 12 880 23 36 5 83 10 106 10 38 0 42 -3 57 -37 59 -133 265 -327 442
-415 118 -59 310 -123 410 -138 44 -6 105 -15 135 -20 72 -12 304 -3 406 16
411 75 680 304 714 609 16 136 -15 304 -70 383 -17 23 -30 45 -30 48 0 3 -45
66 -100 139 -60 81 -103 147 -106 167 -4 18 -12 42 -19 53 -6 11 -14 39 -18
63 -8 66 -54 147 -100 179 -33 23 -53 28 -113 31 -115 6 -182 -37 -229 -150
-42 -103 13 -271 147 -447 131 -174 175 -256 184 -349 13 -116 -62 -216 -221
-296 -77 -39 -103 -47 -190 -57 -130 -15 -330 -6 -410 19 -114 36 -226 103
-306 184 -27 27 -49 55 -49 63 0 7 20 18 45 24 25 6 45 15 45 20 0 6 11 8 24
5 31 -5 167 58 215 101 20 17 51 42 69 54 18 12 50 48 71 79 21 31 48 66 60
76 11 11 21 25 21 31 0 7 16 45 36 85 20 40 38 89 41 109 2 20 13 56 23 81 15
36 18 73 18 190 0 80 1 150 3 155 8 28 -42 276 -70 347 -5 12 -15 46 -22 73
-12 48 -81 200 -100 220 -5 5 -9 18 -9 30 0 11 -20 61 -44 110 -25 50 -61 124
-81 165 -35 74 -65 130 -75 140 -3 3 -16 29 -29 57 -14 29 -33 60 -43 70 -10
9 -18 26 -18 37 0 12 -14 39 -30 60 -17 22 -30 45 -30 52 0 22 -61 147 -95
194 -18 25 -65 113 -105 195 -40 83 -81 162 -91 177 -11 14 -19 31 -19 37 0 6
-29 72 -65 146 -36 75 -65 141 -65 149 0 7 -14 40 -30 72 -17 32 -38 78 -46
102 -8 24 -25 64 -37 90 -23 51 -24 56 -33 149 -5 44 -2 75 10 109 9 26 16 59
16 73 1 14 7 37 14 51 10 17 11 31 5 49 -6 15 -6 28 0 34 5 5 7 16 4 23 -3 8
-1 20 5 27 11 13 14 215 4 232 -3 5 -8 53 -9 105 -2 93 -25 280 -43 350 -5 19
-14 62 -20 95 -12 66 -38 151 -80 265 -16 41 -31 86 -35 100 -4 14 -21 52 -36
84 -16 33 -29 63 -29 68 0 8 -37 98 -125 303 -24 55 -58 135 -76 179 -19 44
-46 88 -62 102 -34 29 -85 32 -94 7z m-1117 -1304 c38 -23 95 -132 98 -189 4
-62 -16 -184 -37 -225 -48 -96 -108 -146 -189 -158 -31 -5 -44 -1 -70 21 -49
42 -69 98 -69 200 0 109 13 169 53 245 33 61 71 97 123 115 44 15 54 14 91 -9z
m755 -29 c19 -16 36 -30 39 -30 3 0 14 -14 24 -31 28 -47 29 -185 4 -253 -34
-88 -57 -130 -95 -172 -45 -49 -87 -72 -147 -80 -152 -21 -221 116 -175 346
12 60 82 174 121 200 60 37 96 50 144 50 43 0 57 -5 85 -30z m498 -561 c17 -6
31 -14 31 -17 -1 -25 -25 -30 -165 -33 -145 -4 -150 -3 -150 16 0 15 11 23 45
32 58 15 198 16 239 2z m-210 -204 c52 -18 219 -100 245 -120 23 -17 15 -45
-13 -45 -25 0 -71 20 -71 32 0 4 -7 8 -15 8 -9 0 -35 10 -58 22 -23 12 -73 33
-112 48 -55 20 -71 30 -73 48 -3 18 1 22 26 22 16 0 48 -7 71 -15z"/>
<path d="M2265 8310 c-37 -15 -73 -65 -95 -133 -20 -59 -22 -80 -17 -164 6
-87 10 -100 36 -132 24 -30 35 -36 61 -33 35 3 93 38 85 51 -2 5 3 17 11 27
15 19 16 19 9 0 -13 -41 34 14 51 60 20 53 15 198 -8 254 -23 54 -88 88 -133
70z"/>
<path d="M2939 8280 c-63 -39 -105 -113 -121 -214 -10 -67 -9 -83 6 -132 10
-31 30 -68 44 -81 39 -36 110 -29 157 17 53 51 98 151 103 226 6 94 -3 125
-50 172 -50 51 -75 53 -139 12z"/>
</g>
</svg>
