<?xml version="1.0" standalone="no"?>
<!DOCTYPE svg PUBLIC "-//W3C//DTD SVG 20010904//EN"
 "http://www.w3.org/TR/2001/REC-SVG-20010904/DTD/svg10.dtd">
<svg version="1.0" xmlns="http://www.w3.org/2000/svg"
 width="704.000000pt" height="1280.000000pt" viewBox="0 0 704.000000 1280.000000"
 preserveAspectRatio="xMidYMid meet">
<metadata>
Created by potrace 1.16, written by Peter Selinger 2001-2019
</metadata>
<g transform="translate(0.000000,1280.000000) scale(0.100000,-0.100000)"
fill="#000000" stroke="none">
<path d="M3510 9669 c0 -11 -4 -18 -9 -15 -16 10 -46 -51 -69 -139 -12 -45
-63 -214 -87 -290 -9 -27 -25 -69 -36 -93 -10 -23 -19 -48 -19 -55 0 -6 -14
-48 -31 -92 -18 -44 -41 -104 -52 -132 l-21 -53 -52 0 c-29 0 -64 -4 -78 -10
-18 -7 -26 -6 -26 2 0 10 -55 7 -107 -8 -19 -5 -24 0 -38 50 -9 31 -21 58 -26
61 -5 4 -9 21 -9 38 0 18 -9 51 -19 73 -10 23 -22 57 -26 75 -4 19 -18 54 -31
78 -13 24 -24 54 -24 66 0 20 -9 44 -50 140 -5 11 -11 32 -14 47 -10 43 -86
198 -109 219 -27 25 -61 24 -85 -1 -19 -20 -70 -167 -91 -262 -25 -112 -31
-137 -51 -218 -11 -47 -23 -112 -26 -145 -4 -33 -13 -83 -20 -111 -21 -76 -54
-310 -54 -386 l0 -67 -57 -48 c-68 -58 -71 -61 -151 -150 -72 -80 -94 -110
-162 -228 -19 -33 -42 -82 -51 -110 l-16 -50 -54 1 c-30 1 -77 3 -106 4 -59 2
-96 -14 -91 -38 3 -14 20 -18 100 -23 54 -4 104 -9 113 -13 12 -4 15 -19 12
-73 -4 -81 -5 -82 -163 -121 -88 -22 -104 -29 -104 -45 0 -19 5 -19 73 -14 39
3 100 16 135 28 35 12 67 17 71 13 4 -5 13 -28 19 -51 13 -43 87 -163 102
-163 5 0 38 -25 74 -55 35 -30 67 -55 70 -55 6 0 58 -35 107 -72 20 -16 39
-28 42 -28 4 0 39 -19 79 -42 40 -24 110 -61 156 -83 69 -33 82 -43 84 -65 2
-39 5 -111 11 -273 3 -82 8 -151 11 -154 3 -3 1 -13 -3 -22 -5 -9 -12 -36 -16
-61 -11 -75 -65 -226 -102 -288 -39 -63 -123 -236 -123 -252 0 -9 -35 -76 -50
-95 -18 -22 -60 -110 -65 -132 -2 -13 -18 -45 -34 -70 -17 -26 -31 -53 -31
-60 0 -8 -9 -31 -19 -51 -22 -44 -30 -66 -82 -242 -23 -74 -49 -162 -60 -196
-10 -33 -19 -74 -19 -91 0 -17 -7 -58 -15 -91 -45 -175 -32 -513 25 -637 5
-11 10 -29 12 -40 3 -13 10 -19 22 -17 14 3 16 -1 12 -16 -10 -30 11 -71 41
-84 38 -16 39 -18 23 -28 -11 -7 0 -23 50 -72 120 -117 327 -247 372 -232 12
3 18 0 18 -9 0 -17 95 -61 111 -52 5 4 16 1 24 -5 36 -30 324 -39 850 -28 295
7 362 11 605 39 142 16 206 13 255 -13 128 -68 282 -133 345 -145 14 -2 55
-11 92 -20 65 -15 183 -14 345 1 106 10 321 102 367 157 12 14 33 32 47 39 31
16 109 92 109 106 0 6 11 20 24 33 13 12 36 47 51 79 16 31 38 69 50 83 11 14
33 50 47 80 40 86 128 262 141 284 14 23 67 77 67 68 0 -4 11 4 25 17 31 29
48 33 151 33 70 1 87 -3 126 -26 70 -40 125 -109 149 -186 18 -55 21 -87 20
-191 -2 -133 12 -193 55 -232 56 -50 186 -74 231 -43 12 8 28 12 36 9 23 -8
92 66 122 131 31 68 35 91 42 213 9 174 -46 354 -153 495 -24 31 -44 61 -44
65 0 9 -103 100 -135 119 -49 30 -168 83 -185 83 -10 0 -21 4 -24 9 -9 14
-125 33 -198 33 -227 -1 -459 -123 -594 -313 -29 -42 -58 -89 -64 -105 -6 -16
-17 -42 -24 -59 -8 -16 -29 -64 -46 -105 -61 -142 -104 -220 -157 -287 -29
-37 -53 -70 -53 -75 0 -4 -7 -8 -15 -8 -8 0 -19 -9 -25 -20 -6 -11 -18 -20
-26 -20 -9 0 -28 -8 -42 -19 -31 -21 -152 -61 -188 -61 -14 0 -24 -6 -24 -14
0 -7 -6 -19 -13 -25 -11 -8 -16 -5 -25 14 -9 20 -19 25 -48 25 l-37 0 51 46
c29 26 52 51 52 57 0 5 16 26 36 45 19 19 47 60 61 91 14 31 36 77 49 102 13
26 24 60 24 76 0 15 9 45 20 66 20 36 28 123 23 252 -1 22 -1 60 -1 85 1 44
-2 72 -16 155 -13 72 -38 169 -50 195 -7 14 -18 50 -26 80 -12 53 -44 125 -88
203 -12 21 -22 45 -22 54 0 16 -16 52 -112 248 -81 167 -152 297 -164 302 -8
3 -11 9 -9 14 7 10 -16 56 -44 88 -12 13 -21 30 -21 37 0 24 -53 127 -102 200
-26 39 -48 75 -48 79 0 6 -116 245 -144 295 -28 51 -129 277 -147 329 -11 30
-28 70 -40 90 -11 19 -27 54 -35 78 -8 24 -25 65 -37 91 -26 57 -29 76 -28
167 1 69 24 194 42 228 6 11 6 24 0 35 -6 11 -6 24 -1 33 5 7 7 21 4 31 -2 9
0 19 6 23 14 9 13 218 -2 233 -8 8 -8 15 0 25 7 8 10 16 8 18 -3 2 -7 34 -10
69 -15 172 -32 294 -46 345 -5 17 -14 57 -21 90 -15 73 -88 306 -100 320 -5 5
-9 15 -9 22 0 8 -27 76 -59 151 -33 75 -73 171 -89 212 -16 41 -43 104 -60
140 -16 36 -33 76 -37 90 -4 14 -11 30 -15 35 -3 6 -14 31 -24 57 -21 57 -66
98 -107 98 -23 0 -29 -4 -29 -21z m-1111 -1314 c22 -20 46 -55 56 -82 10 -27
21 -53 26 -58 13 -17 3 -149 -17 -210 -36 -116 -122 -205 -203 -209 -33 -2
-48 4 -77 28 -50 41 -64 80 -64 178 0 200 47 309 157 363 64 32 76 31 122 -10z
m742 -15 c19 -16 36 -30 39 -30 3 0 14 -13 23 -30 30 -50 30 -180 1 -263 -33
-95 -46 -116 -101 -169 -53 -52 -105 -78 -156 -78 -66 0 -135 44 -151 97 -56
182 15 402 153 475 76 40 145 39 192 -2z m519 -566 c6 -6 8 -18 4 -27 -5 -15
-25 -17 -135 -19 -71 -1 -139 -2 -151 -2 -17 -1 -23 5 -23 19 0 15 11 23 45
32 53 15 245 12 260 -3z m-224 -204 c77 -27 219 -98 240 -121 35 -38 -24 -55
-69 -19 -14 11 -30 20 -36 20 -7 0 -35 12 -64 26 -28 15 -76 35 -106 45 -64
22 -82 35 -74 55 7 19 39 18 109 -6z"/>
<path d="M2265 8308 c-81 -45 -121 -146 -113 -289 7 -124 47 -184 113 -171 39
7 110 76 133 129 52 123 7 342 -65 316 -7 -3 -16 2 -19 11 -7 19 -21 20 -49 4z"/>
<path d="M2935 8278 c-54 -38 -92 -99 -111 -178 -19 -76 -17 -121 6 -183 29
-76 47 -91 110 -85 42 4 58 12 90 43 52 50 93 144 98 222 6 89 -4 127 -45 173
-46 51 -82 53 -148 8z"/>
</g>
</svg>
