<?xml version="1.0" standalone="no"?>
<!DOCTYPE svg PUBLIC "-//W3C//DTD SVG 20010904//EN"
 "http://www.w3.org/TR/2001/REC-SVG-20010904/DTD/svg10.dtd">
<svg version="1.0" xmlns="http://www.w3.org/2000/svg"
 width="704.000000pt" height="1280.000000pt" viewBox="0 0 704.000000 1280.000000"
 preserveAspectRatio="xMidYMid meet">
<metadata>
Created by potrace 1.16, written by Peter Selinger 2001-2019
</metadata>
<g transform="translate(0.000000,1280.000000) scale(0.100000,-0.100000)"
fill="#000000" stroke="none">
<path d="M3509 9678 c-7 -13 -17 -27 -24 -33 -14 -13 -50 -105 -65 -170 -15
-64 -77 -260 -96 -304 -9 -19 -26 -66 -39 -105 -37 -110 -70 -198 -89 -233
-15 -31 -20 -33 -69 -33 -28 0 -58 -4 -66 -9 -9 -6 -21 -5 -32 2 -13 8 -31 8
-70 -1 -28 -7 -53 -11 -55 -10 -5 6 -45 124 -54 158 -14 58 -50 162 -76 218
-13 29 -24 60 -24 69 0 9 -14 53 -31 97 -17 45 -43 112 -57 150 -15 38 -32 75
-39 82 -7 7 -13 19 -13 27 0 8 -11 26 -25 41 -35 38 -82 33 -108 -11 -22 -38
-50 -131 -83 -273 -13 -58 -33 -143 -43 -190 -11 -47 -23 -110 -27 -140 -3
-30 -12 -77 -20 -105 -23 -87 -45 -236 -51 -353 l-6 -112 -65 -55 c-166 -142
-287 -306 -348 -470 -25 -67 -10 -63 -159 -54 -82 5 -117 -5 -113 -34 3 -21
10 -22 104 -28 56 -4 107 -9 113 -13 7 -5 10 -31 8 -74 l-4 -67 -41 -17 c-22
-10 -76 -25 -119 -34 -93 -19 -114 -29 -107 -49 9 -24 101 -19 189 10 43 14
82 24 87 23 5 -2 18 -28 29 -57 26 -76 83 -154 137 -189 26 -17 58 -42 71 -56
14 -14 29 -26 35 -27 6 0 31 -16 56 -35 25 -19 67 -46 93 -61 27 -16 65 -38
84 -51 20 -13 77 -41 127 -64 50 -22 94 -43 98 -47 8 -7 18 -155 22 -327 1
-61 6 -116 10 -122 4 -6 2 -21 -4 -32 -6 -12 -15 -42 -20 -68 -20 -112 -57
-211 -118 -317 -51 -89 -87 -164 -113 -235 -7 -19 -22 -48 -33 -65 -29 -41
-66 -123 -66 -145 0 -9 -14 -34 -30 -55 -17 -21 -33 -50 -36 -64 -6 -27 -17
-55 -33 -81 -16 -26 -112 -331 -110 -348 2 -10 -5 -35 -15 -57 -10 -22 -22
-69 -26 -105 -5 -36 -14 -83 -21 -105 -14 -44 -19 -394 -7 -477 8 -57 29 -130
40 -143 4 -5 8 -17 8 -26 0 -10 6 -24 13 -31 8 -7 17 -26 21 -41 9 -36 41 -68
61 -61 13 5 15 2 10 -19 -6 -21 2 -34 47 -79 66 -67 190 -159 260 -193 29 -15
61 -31 71 -36 10 -6 27 -7 38 -4 13 4 19 2 19 -8 0 -31 98 -61 255 -78 114
-13 155 -20 155 -28 0 -4 -9 -17 -20 -29 -11 -12 -20 -25 -20 -29 0 -5 -15
-38 -34 -73 -56 -107 -66 -268 -27 -402 38 -126 84 -201 190 -308 65 -65 163
-140 184 -140 3 0 28 -13 54 -28 63 -37 156 -72 193 -72 15 0 30 -5 32 -11 3
-10 52 -24 148 -40 30 -6 78 -14 105 -20 90 -18 296 -31 310 -19 10 8 15 8 20
0 5 -8 24 -9 59 -5 146 20 225 121 211 269 -7 66 -9 71 -56 116 -66 63 -128
82 -283 84 -70 1 -129 -3 -139 -9 -13 -7 -20 -7 -25 2 -11 18 -58 33 -102 33
-56 0 -231 90 -297 153 -63 60 -83 100 -83 162 0 64 22 106 88 166 60 55 194
125 258 135 35 5 70 14 229 53 22 6 69 18 105 26 36 9 99 25 140 35 41 11 94
20 117 20 24 0 62 4 85 10 24 5 81 17 128 26 47 9 96 21 110 27 14 5 38 11 54
12 34 3 126 45 126 57 0 4 6 8 14 8 26 0 169 124 191 165 11 22 35 52 53 68
17 16 32 34 32 40 0 6 16 44 36 86 20 42 39 94 42 116 2 22 12 54 20 70 21 41
32 117 20 133 -7 8 -7 16 0 25 11 13 10 96 -1 114 -4 6 -2 23 4 37 10 21 9 43
-4 110 -10 47 -17 94 -17 106 0 12 -18 76 -40 142 -22 67 -40 127 -40 135 0
15 -76 172 -91 188 -5 5 -9 24 -9 41 0 18 -4 35 -9 38 -5 4 -33 54 -61 114
-86 177 -102 206 -127 230 -13 13 -21 27 -18 32 8 13 -44 120 -61 127 -8 3
-14 15 -14 27 0 11 -14 39 -30 60 -17 22 -30 45 -30 53 0 19 -63 144 -99 196
-17 26 -64 113 -102 194 -39 81 -80 160 -90 174 -10 15 -19 32 -19 38 0 6 -29
71 -65 146 -36 74 -65 141 -65 149 0 8 -14 40 -31 72 -17 33 -37 79 -46 104
-8 25 -24 65 -36 90 -24 50 -26 60 -31 145 -4 57 12 154 36 220 6 17 10 39 9
50 -3 54 1 91 9 99 15 15 13 223 -2 229 -10 3 -10 9 -1 25 6 11 9 22 6 25 -2
3 -7 38 -9 79 -4 81 -31 284 -44 338 -4 19 -14 60 -20 90 -11 50 -63 214 -105
330 -16 44 -73 184 -100 245 -7 17 -29 68 -48 115 -145 352 -163 389 -206 417
-43 29 -57 29 -72 1z m-1113 -1320 c56 -49 87 -126 88 -220 1 -42 -2 -74 -6
-72 -4 3 -8 -10 -8 -28 -1 -66 -61 -165 -131 -213 -31 -22 -50 -28 -86 -26
-110 4 -156 119 -127 318 19 129 72 215 157 254 57 26 71 24 113 -13z m765
-33 c53 -52 64 -85 63 -190 -1 -140 -92 -298 -198 -346 -46 -21 -116 -25 -149
-8 -96 50 -125 162 -87 339 30 142 147 250 270 250 52 0 58 -3 101 -45z m474
-545 c17 -7 25 -16 23 -28 -3 -15 -21 -18 -143 -23 -77 -3 -146 -4 -153 -1
-25 9 -6 37 33 48 49 15 204 18 240 4z m-207 -204 c65 -23 230 -108 248 -127
35 -38 -23 -55 -69 -19 -14 11 -30 20 -36 20 -7 0 -31 10 -54 22 -23 12 -73
33 -112 48 -55 20 -71 30 -73 48 -3 18 1 22 26 22 16 0 48 -6 70 -14z"/>
<path d="M2275 8312 c-40 -8 -85 -64 -105 -130 -22 -72 -27 -193 -9 -256 14
-52 53 -87 88 -80 47 10 72 27 88 62 9 20 19 29 23 22 19 -31 60 75 60 156 0
121 -37 219 -80 212 -9 -2 -23 2 -31 8 -8 6 -23 9 -34 6z"/>
<path d="M2936 8278 c-58 -39 -93 -98 -112 -188 -19 -87 -18 -109 6 -174 30
-78 82 -104 154 -76 35 13 101 100 126 167 24 64 29 159 10 208 -16 43 -75 95
-108 95 -15 0 -49 -15 -76 -32z"/>
</g>
</svg>
