<?xml version="1.0" standalone="no"?>
<!DOCTYPE svg PUBLIC "-//W3C//DTD SVG 20010904//EN"
 "http://www.w3.org/TR/2001/REC-SVG-20010904/DTD/svg10.dtd">
<svg version="1.0" xmlns="http://www.w3.org/2000/svg"
 width="704.000000pt" height="1280.000000pt" viewBox="0 0 704.000000 1280.000000"
 preserveAspectRatio="xMidYMid meet">
<metadata>
Created by potrace 1.16, written by Peter Selinger 2001-2019
</metadata>
<g transform="translate(0.000000,1280.000000) scale(0.100000,-0.100000)"
fill="#000000" stroke="none">
<path d="M3507 9683 c-19 -22 -77 -143 -77 -161 0 -17 -71 -259 -95 -322 -33
-89 -83 -226 -95 -260 -7 -19 -23 -59 -37 -89 -24 -53 -24 -53 -62 -48 -21 2
-54 -1 -74 -8 -32 -11 -39 -10 -46 2 -7 13 -14 13 -61 -1 -30 -9 -55 -16 -56
-16 -2 0 -11 27 -20 60 -9 33 -21 63 -25 66 -5 3 -9 19 -9 35 0 16 -9 47 -20
69 -11 22 -20 48 -20 58 0 10 -13 45 -28 78 -16 32 -34 80 -40 107 -7 26 -21
66 -31 90 -11 23 -22 55 -26 71 -3 16 -22 60 -41 98 -18 39 -34 75 -34 81 0
13 -60 67 -75 67 -7 0 -24 -9 -37 -20 -46 -36 -91 -202 -199 -745 -28 -137
-48 -298 -49 -380 l0 -71 -67 -56 c-166 -138 -309 -336 -362 -500 l-13 -38
-111 6 c-91 5 -116 3 -132 -9 -36 -27 -5 -43 98 -50 131 -9 127 -6 123 -85 -3
-67 -3 -67 -42 -84 -22 -10 -83 -27 -136 -39 -80 -18 -98 -26 -98 -41 0 -15 8
-18 53 -18 29 0 84 9 122 21 120 35 109 37 128 -23 19 -61 95 -171 131 -190
13 -7 43 -29 66 -48 23 -18 50 -39 61 -45 10 -5 49 -31 86 -56 102 -69 203
-127 288 -164 42 -18 78 -35 81 -37 5 -6 14 -156 18 -320 2 -69 6 -131 10
-136 3 -5 -1 -23 -9 -38 -8 -16 -15 -40 -15 -54 0 -14 -9 -50 -21 -80 -11 -30
-23 -64 -26 -75 -6 -25 -31 -84 -45 -110 -6 -11 -29 -50 -50 -87 -21 -37 -38
-72 -38 -77 0 -16 -76 -175 -103 -214 -14 -21 -33 -61 -43 -90 -9 -29 -29 -72
-45 -96 -16 -25 -29 -52 -29 -60 0 -9 -7 -27 -16 -40 -9 -12 -22 -44 -30 -69
-7 -26 -23 -74 -35 -107 -40 -112 -91 -300 -98 -366 -4 -36 -11 -71 -15 -77
-3 -6 -12 -57 -20 -114 -15 -114 -14 -272 2 -361 12 -61 8 -87 -13 -87 -16 0
-104 -94 -135 -145 -29 -47 -63 -124 -98 -220 -23 -66 -24 -77 -18 -215 7
-167 25 -245 79 -341 61 -109 157 -202 189 -183 6 4 8 3 5 -3 -3 -5 12 -20 35
-33 73 -41 202 -13 285 63 12 11 20 24 16 30 -3 6 2 16 12 24 11 7 16 13 13
13 -3 0 -2 17 3 39 7 31 4 53 -16 112 -14 40 -33 84 -42 98 -10 14 -18 31 -19
36 -4 23 -38 131 -44 138 -4 4 -2 31 2 60 5 28 10 64 11 80 2 34 3 34 126 -48
54 -36 104 -65 110 -65 6 0 22 -7 35 -16 16 -10 26 -12 31 -5 9 16 25 13 25
-4 0 -50 196 -83 523 -90 186 -3 188 -4 235 -32 61 -38 145 -73 172 -73 12 0
33 -9 47 -20 19 -15 39 -20 75 -19 34 2 53 -2 58 -12 7 -10 40 -15 126 -18
113 -3 181 5 288 35 71 20 235 103 276 139 43 37 107 68 175 84 28 7 73 18
100 26 28 8 69 19 91 25 23 5 58 21 78 35 20 14 43 25 50 25 20 0 162 126 187
166 12 20 35 50 50 67 16 17 29 35 29 40 0 4 16 40 36 80 19 39 40 95 45 122
5 28 16 65 25 84 18 38 27 242 11 252 -6 4 -4 20 3 41 8 22 10 49 5 74 -4 21
-9 48 -11 59 -11 82 -17 113 -24 130 -5 11 -11 34 -13 50 -3 17 -11 44 -18 60
-7 17 -14 37 -15 45 -8 46 -35 121 -59 165 -47 85 -65 123 -65 140 0 8 -11 36
-25 62 -14 27 -49 100 -78 163 -29 63 -67 131 -84 150 -16 19 -28 41 -26 47 6
16 -46 110 -64 117 -8 3 -12 10 -8 16 7 11 -17 61 -40 84 -9 9 -18 25 -20 36
-6 33 -66 152 -100 200 -18 25 -68 120 -113 211 -44 92 -85 170 -91 174 -6 3
-11 14 -11 23 0 10 -29 77 -65 150 -36 74 -65 141 -65 150 0 9 -14 42 -31 72
-17 30 -42 89 -56 130 -14 41 -30 80 -35 87 -11 13 -16 44 -24 134 -4 38 -1
68 10 94 9 20 16 51 16 67 0 16 7 42 15 59 12 22 13 34 5 50 -9 15 -8 24 1 35
16 20 25 260 10 277 -5 7 -6 18 -2 26 5 7 4 33 0 58 -5 25 -7 49 -4 53 5 8
-19 198 -35 275 -5 28 -14 73 -20 100 -11 62 -37 164 -49 190 -4 11 -17 47
-29 80 -42 127 -48 142 -192 485 -161 383 -164 390 -205 408 -35 16 -49 15
-68 -5z m-1148 -1323 c18 0 62 -56 87 -109 23 -51 25 -64 21 -146 -5 -105 -27
-174 -71 -230 -46 -59 -76 -82 -122 -95 -122 -35 -199 123 -161 328 18 94 36
136 80 187 32 36 120 78 145 70 8 -3 17 -5 21 -5z m771 -40 c22 -17 49 -47 61
-66 19 -32 21 -45 16 -137 -7 -167 -70 -287 -179 -341 -157 -78 -284 32 -263
229 17 168 77 274 179 321 75 34 138 32 186 -6z m530 -550 c19 -30 -12 -38
-160 -42 -139 -3 -145 -2 -145 17 0 31 63 45 188 42 83 -2 110 -6 117 -17z
m-216 -204 c87 -33 207 -93 230 -116 21 -20 14 -40 -14 -40 -10 0 -54 17 -97
39 -43 21 -107 49 -143 61 -77 28 -90 36 -90 61 0 26 35 25 114 -5z"/>
<path d="M2232 8280 c-73 -45 -123 -244 -89 -353 24 -75 54 -101 108 -94 53 7
93 44 130 122 27 56 29 66 24 145 -4 51 -14 102 -25 128 -18 39 -23 43 -45 38
-18 -5 -28 -1 -37 14 -16 25 -25 25 -66 0z"/>
<path d="M2940 8273 c-98 -64 -133 -137 -134 -273 -1 -83 2 -100 22 -133 29
-45 49 -57 100 -57 52 0 113 52 154 134 29 56 32 70 33 156 0 90 -2 97 -30
137 -40 56 -94 69 -145 36z"/>
</g>
</svg>
