<?xml version="1.0" standalone="no"?>
<!DOCTYPE svg PUBLIC "-//W3C//DTD SVG 20010904//EN"
 "http://www.w3.org/TR/2001/REC-SVG-20010904/DTD/svg10.dtd">
<svg version="1.0" xmlns="http://www.w3.org/2000/svg"
 width="704.000000pt" height="1280.000000pt" viewBox="0 0 704.000000 1280.000000"
 preserveAspectRatio="xMidYMid meet">
<metadata>
Created by potrace 1.16, written by Peter Selinger 2001-2019
</metadata>
<g transform="translate(0.000000,1280.000000) scale(0.100000,-0.100000)"
fill="#000000" stroke="none">
<path d="M3484 9642 c-30 -46 -39 -68 -68 -182 -33 -132 -80 -279 -102 -321
-13 -26 -24 -54 -24 -63 0 -9 -13 -46 -29 -83 -16 -38 -40 -97 -53 -133 l-24
-65 -53 3 c-30 2 -58 -1 -67 -8 -11 -10 -17 -10 -29 0 -15 12 -60 10 -112 -5
-19 -6 -23 -1 -37 49 -9 30 -21 58 -26 61 -6 3 -10 20 -10 36 0 16 -11 56 -25
89 -14 33 -25 64 -25 70 0 5 -11 33 -25 62 -14 28 -25 62 -25 73 0 12 -13 51
-29 86 -16 35 -32 79 -36 98 -7 31 -32 90 -76 173 -41 81 -102 88 -137 16 -36
-76 -130 -455 -152 -613 -6 -44 -17 -105 -24 -135 -23 -90 -36 -185 -43 -306
-6 -111 -7 -116 -32 -129 -50 -26 -211 -196 -278 -291 -35 -51 -94 -165 -113
-219 l-17 -50 -114 4 c-96 3 -117 1 -128 -13 -24 -29 3 -46 73 -47 33 0 79 -3
101 -7 38 -7 40 -9 39 -42 -3 -113 -1 -107 -44 -124 -22 -9 -79 -25 -126 -35
-95 -21 -99 -23 -91 -46 9 -21 79 -20 158 4 124 37 115 38 135 -25 17 -54 95
-174 113 -174 7 0 71 -47 146 -108 51 -41 166 -110 295 -175 l155 -80 8 -91
c15 -187 22 -379 14 -392 -3 -5 -8 -27 -12 -49 -8 -51 -24 -114 -37 -142 -6
-12 -8 -28 -5 -36 3 -9 -1 -18 -9 -21 -8 -3 -14 -14 -14 -24 0 -11 -14 -38
-31 -61 -40 -56 -130 -242 -122 -254 3 -5 1 -12 -4 -16 -6 -3 -20 -26 -33 -51
-12 -25 -28 -52 -35 -60 -7 -8 -23 -43 -34 -78 -12 -35 -35 -81 -51 -104 -17
-23 -30 -49 -30 -60 0 -10 -7 -29 -15 -42 -27 -41 -113 -309 -120 -376 -2 -14
-12 -45 -24 -70 -11 -25 -21 -62 -21 -84 0 -21 -6 -64 -14 -95 -38 -149 -37
-472 1 -576 8 -22 19 -49 23 -60 5 -11 11 -28 14 -37 3 -10 12 -18 20 -18 10
0 14 -11 13 -34 -1 -44 18 -66 56 -66 29 0 29 -1 13 -19 -16 -17 -13 -21 46
-83 35 -35 88 -82 118 -105 68 -50 181 -113 203 -113 10 0 17 -4 17 -10 0 -15
47 -12 53 3 3 6 6 2 6 -9 1 -12 11 -28 24 -37 51 -33 261 -59 472 -59 401 1
803 12 935 26 80 9 228 19 330 22 l185 6 133 -36 c73 -20 145 -36 160 -36 15
0 41 -9 58 -19 17 -10 45 -22 63 -26 32 -7 174 -78 242 -120 50 -32 98 -82
105 -111 11 -44 -6 -96 -41 -129 -36 -32 -139 -80 -245 -113 -122 -39 -436
-61 -597 -42 -108 12 -242 38 -258 50 -5 4 -25 11 -43 15 -61 13 -154 54 -247
110 -166 99 -294 108 -383 26 -109 -100 -121 -237 -28 -317 22 -19 46 -34 53
-34 8 0 12 -4 9 -8 -6 -10 113 -82 135 -82 8 0 30 -10 49 -22 45 -27 224 -88
261 -88 15 0 31 -5 34 -10 3 -6 21 -10 38 -10 18 0 41 -6 52 -14 27 -18 152
-38 252 -40 46 0 83 -4 83 -7 0 -12 160 -20 181 -8 17 8 23 8 29 -1 6 -10 27
-11 82 -6 40 3 107 8 148 11 117 7 241 25 285 40 22 7 56 16 75 20 68 13 210
65 299 111 134 68 224 155 283 276 66 133 66 135 25 315 -8 33 -24 73 -36 88
-11 15 -21 33 -21 40 0 7 -11 20 -25 29 -14 9 -25 22 -25 30 0 15 -43 55 -97
89 -21 13 -45 32 -52 41 -21 25 -203 111 -301 141 -47 15 -90 31 -95 36 -6 4
-33 13 -60 19 -28 6 -60 18 -72 26 l-22 14 23 34 c12 19 38 53 57 77 39 50
119 221 119 256 0 13 10 47 22 76 47 109 19 519 -46 672 -21 48 -36 100 -36
121 0 18 -73 169 -91 189 -5 5 -9 17 -9 27 0 19 -63 159 -125 278 -108 208
-129 247 -145 265 -9 11 -20 32 -24 47 -3 14 -17 40 -31 56 -14 17 -25 36 -25
44 0 20 -66 155 -104 213 -18 28 -67 118 -108 200 -41 83 -80 160 -86 170 -6
11 -23 49 -38 85 -14 36 -44 100 -65 142 -22 43 -39 82 -39 88 0 5 -16 45 -36
87 -55 118 -71 156 -79 183 -4 14 -11 30 -15 35 -4 6 -8 24 -8 40 -1 17 -4 53
-7 80 -5 53 18 182 40 225 8 16 10 31 5 40 -4 7 -4 24 1 37 5 13 8 27 7 31 -1
4 2 14 6 23 18 40 -17 529 -48 664 -8 33 -19 87 -26 120 -7 33 -16 69 -20 80
-14 34 -21 58 -36 115 -8 30 -23 73 -33 95 -10 22 -24 58 -31 80 -7 22 -25 67
-40 100 -15 33 -49 113 -74 177 -26 65 -60 148 -77 185 -17 37 -47 107 -66
155 -38 95 -76 138 -121 138 -21 0 -34 -10 -58 -48z m-1085 -1286 c13 -11 37
-50 55 -86 28 -58 31 -74 30 -150 0 -108 -32 -184 -107 -258 -44 -43 -61 -53
-106 -62 -57 -11 -69 -6 -109 40 -76 88 -51 369 42 475 34 39 119 77 151 68
11 -3 31 -15 44 -27z m721 5 c0 -5 15 -19 34 -30 21 -13 41 -37 51 -64 22 -53
27 -191 8 -227 -7 -14 -13 -32 -13 -40 0 -23 -50 -103 -93 -150 -49 -53 -107
-79 -175 -80 -47 0 -57 4 -95 39 -65 60 -82 153 -51 289 23 102 85 197 154
240 46 27 64 32 117 32 35 0 63 -4 63 -9z m535 -591 c31 -32 4 -39 -153 -43
-149 -3 -153 -2 -150 17 5 31 67 46 185 43 75 -2 107 -7 118 -17z m-176 -217
c123 -52 212 -105 209 -123 -5 -22 -45 -24 -76 -4 -32 22 -114 58 -199 89 -72
26 -94 41 -86 61 9 24 61 16 152 -23z"/>
<path d="M2254 8301 c-40 -25 -67 -63 -87 -128 -30 -92 -17 -245 24 -298 48
-61 156 -8 209 102 26 55 27 187 2 252 -29 74 -94 106 -148 72z"/>
<path d="M2934 8278 c-52 -36 -103 -115 -110 -171 -16 -124 -16 -132 5 -188
30 -78 48 -93 111 -87 35 4 59 13 76 28 67 64 127 205 118 277 -10 71 -14 81
-55 127 -51 56 -78 59 -145 14z"/>
</g>
</svg>
