<?xml version="1.0" standalone="no"?>
<!DOCTYPE svg PUBLIC "-//W3C//DTD SVG 20010904//EN"
 "http://www.w3.org/TR/2001/REC-SVG-20010904/DTD/svg10.dtd">
<svg version="1.0" xmlns="http://www.w3.org/2000/svg"
 width="704.000000pt" height="1280.000000pt" viewBox="0 0 704.000000 1280.000000"
 preserveAspectRatio="xMidYMid meet">
<metadata>
Created by potrace 1.16, written by Peter Selinger 2001-2019
</metadata>
<g transform="translate(0.000000,1280.000000) scale(0.100000,-0.100000)"
fill="#000000" stroke="none">
<path d="M3510 9678 c-25 -27 -81 -135 -78 -152 4 -23 -85 -313 -118 -384 -13
-29 -24 -60 -24 -70 0 -10 -13 -44 -30 -77 -16 -33 -30 -68 -30 -78 0 -10 -11
-40 -25 -67 l-25 -50 -51 0 c-28 0 -59 -4 -69 -10 -13 -7 -26 -6 -44 4 -23 11
-33 11 -68 -1 -22 -7 -42 -12 -43 -11 -7 7 -47 127 -55 165 -5 24 -16 55 -23
70 -8 16 -18 44 -22 63 -4 19 -17 55 -30 80 -12 25 -27 67 -34 93 -6 27 -20
67 -31 88 -10 22 -22 54 -25 72 -13 59 -93 213 -119 227 -52 27 -93 -9 -120
-107 -67 -245 -111 -434 -125 -545 -6 -42 -15 -87 -21 -100 -17 -40 -49 -286
-49 -384 l-1 -62 -66 -56 c-89 -76 -196 -195 -250 -278 -24 -37 -44 -70 -44
-73 0 -3 -11 -22 -23 -43 -13 -20 -32 -61 -41 -90 l-18 -53 -98 7 c-120 8
-153 2 -148 -29 3 -20 10 -22 100 -28 54 -4 104 -9 113 -13 12 -4 15 -20 13
-72 l-2 -66 -40 -18 c-23 -9 -75 -25 -116 -34 -101 -23 -121 -32 -114 -51 9
-22 79 -19 172 6 113 32 110 32 133 -31 27 -78 76 -144 135 -185 28 -19 61
-46 74 -60 13 -14 27 -25 32 -25 9 0 60 -34 93 -62 45 -38 298 -171 352 -184
15 -4 23 -14 24 -28 0 -11 2 -50 4 -86 2 -36 6 -129 9 -208 3 -78 8 -147 11
-153 4 -5 2 -16 -5 -24 -6 -7 -15 -35 -20 -62 -21 -115 -56 -210 -118 -318
-43 -74 -49 -85 -73 -140 -13 -27 -22 -57 -22 -67 1 -10 -2 -18 -7 -18 -5 0
-12 -10 -15 -22 -4 -13 -17 -36 -29 -53 -29 -39 -66 -117 -66 -138 0 -10 -16
-40 -35 -68 -19 -28 -35 -61 -35 -74 0 -12 -9 -34 -20 -48 -11 -14 -20 -30
-20 -35 0 -5 -23 -79 -50 -163 -28 -84 -52 -167 -55 -184 -2 -16 -11 -47 -19
-67 -9 -21 -16 -52 -16 -70 0 -18 -5 -49 -10 -68 -19 -64 -29 -163 -30 -300
-2 -163 6 -237 32 -310 11 -30 24 -70 29 -88 6 -20 15 -32 23 -29 8 3 12 -6
12 -29 0 -37 28 -74 56 -74 14 0 18 -5 13 -18 -17 -57 342 -324 413 -307 14 3
22 1 22 -8 0 -18 54 -48 93 -50 17 -2 37 -6 44 -10 37 -23 270 -32 717 -28
131 1 241 0 243 -3 3 -3 -11 -36 -30 -73 -57 -110 -76 -180 -83 -302 -5 -79
-4 -111 4 -111 6 0 9 -6 6 -14 -8 -20 22 -131 53 -196 37 -80 131 -219 176
-263 107 -104 361 -248 487 -277 30 -7 76 -21 102 -31 26 -11 64 -19 85 -19
22 0 45 -6 51 -12 8 -8 45 -14 93 -15 43 -1 84 -5 90 -9 12 -7 52 -7 219 1
187 8 264 18 365 45 39 10 81 21 95 24 49 10 148 83 169 123 31 61 37 109 14
122 -14 8 -15 13 -5 19 34 23 -28 113 -103 151 -44 22 -56 23 -149 18 -113 -7
-131 -10 -266 -38 -93 -20 -194 -24 -359 -14 -40 2 -82 0 -92 -6 -13 -6 -19
-6 -19 0 0 16 -53 40 -99 46 -23 3 -52 11 -64 19 -12 7 -34 16 -49 20 -16 4
-28 11 -28 16 0 6 -4 10 -10 10 -34 0 -237 170 -226 189 3 5 -6 31 -19 60 -49
100 -25 241 58 352 83 112 148 187 172 203 14 9 63 21 108 26 92 11 223 38
250 52 11 5 32 11 48 13 41 6 163 69 217 113 83 68 115 104 100 113 -9 6 -6 9
10 9 19 0 27 10 23 32 0 4 8 9 18 13 11 3 26 16 33 28 26 41 98 214 98 236 0
12 9 43 20 69 16 38 21 75 24 187 4 166 -13 304 -56 450 -17 55 -34 116 -40
135 -13 50 -48 128 -80 179 -16 25 -28 54 -28 65 0 12 -27 77 -60 146 -110
226 -122 248 -137 243 -9 -4 -13 4 -13 25 0 34 -47 131 -67 139 -7 3 -13 14
-13 25 0 11 -13 39 -30 63 -16 24 -30 48 -30 53 0 16 -71 166 -88 185 -20 23
-28 37 -116 212 -42 83 -82 161 -90 175 -27 49 -129 276 -147 329 -11 30 -28
70 -40 90 -11 19 -27 54 -35 78 -8 24 -25 65 -36 91 -25 56 -31 86 -31 172 0
64 23 195 38 220 4 7 8 34 9 60 0 27 4 52 9 56 13 13 8 229 -5 242 -10 10 -10
15 1 21 7 5 11 13 8 18 -3 4 -8 44 -12 88 -7 93 -32 274 -45 325 -5 19 -14 64
-21 100 -11 56 -46 168 -104 330 -15 42 -70 178 -100 245 -7 17 -29 68 -48
115 -143 348 -163 389 -206 417 -42 28 -45 28 -71 1z m-1123 -1310 c21 -14 43
-44 59 -78 13 -30 28 -62 33 -70 16 -30 5 -173 -19 -234 -38 -100 -133 -189
-201 -188 -21 1 -39 -4 -39 -9 0 -15 -80 81 -91 108 -12 33 -11 186 2 259 18
99 75 180 153 215 53 24 63 24 103 -3z m755 -30 c61 -42 80 -85 82 -185 1 -43
-1 -85 -5 -93 -4 -8 -19 -46 -33 -85 -40 -106 -120 -184 -209 -200 -55 -11
-99 1 -141 39 -57 51 -75 144 -50 271 26 130 85 219 177 264 63 32 122 28 179
-11z m497 -559 c17 -6 31 -14 31 -19 0 -21 -37 -28 -170 -31 -140 -4 -145 -3
-145 16 0 15 11 23 45 32 58 15 198 16 239 2z m-197 -209 c29 -11 96 -42 148
-69 69 -35 95 -53 95 -67 0 -26 -39 -30 -73 -7 -15 9 -40 23 -57 29 -178 71
-220 92 -223 112 -3 18 2 22 27 22 17 0 54 -9 83 -20z"/>
<path d="M2255 8305 c-63 -32 -105 -133 -105 -255 1 -81 13 -136 38 -169 16
-22 27 -26 65 -25 51 0 89 25 80 52 -4 13 -3 14 5 3 7 -10 15 -6 34 20 36 48
48 92 48 169 0 117 -39 206 -85 194 -15 -4 -24 0 -28 10 -8 20 -14 20 -52 1z"/>
<path d="M2933 8275 c-101 -68 -150 -235 -104 -357 27 -71 57 -92 120 -85 38
4 52 12 84 48 60 67 100 160 100 234 0 82 -17 127 -59 165 -45 39 -77 38 -141
-5z"/>
</g>
</svg>
