<?xml version="1.0" standalone="no"?>
<!DOCTYPE svg PUBLIC "-//W3C//DTD SVG 20010904//EN"
 "http://www.w3.org/TR/2001/REC-SVG-20010904/DTD/svg10.dtd">
<svg version="1.0" xmlns="http://www.w3.org/2000/svg"
 width="704.000000pt" height="1280.000000pt" viewBox="0 0 704.000000 1280.000000"
 preserveAspectRatio="xMidYMid meet">
<metadata>
Created by potrace 1.16, written by Peter Selinger 2001-2019
</metadata>
<g transform="translate(0.000000,1280.000000) scale(0.100000,-0.100000)"
fill="#000000" stroke="none">
<path d="M3491 9661 c-12 -16 -21 -34 -21 -40 0 -7 -6 -22 -14 -34 -8 -12 -17
-40 -21 -62 -5 -22 -9 -45 -10 -51 -7 -29 -49 -163 -61 -192 -8 -18 -14 -42
-14 -53 0 -11 -11 -41 -24 -67 -13 -26 -29 -67 -36 -92 -7 -25 -23 -66 -36
-92 -13 -26 -24 -53 -24 -60 0 -7 -10 -37 -22 -65 l-23 -53 -52 0 c-28 0 -63
-4 -77 -10 -17 -6 -27 -6 -32 2 -6 10 -53 7 -101 -8 -18 -5 -23 -1 -29 22 -4
16 -14 49 -24 74 -10 25 -32 92 -51 150 -18 58 -41 120 -51 138 -10 18 -18 43
-18 55 0 22 -41 131 -54 144 -3 3 -6 15 -6 25 0 22 -47 137 -65 158 -7 8 -15
27 -19 41 -7 33 -49 61 -84 57 -21 -2 -32 -13 -48 -48 -29 -62 -61 -167 -85
-280 -11 -52 -31 -140 -44 -195 -14 -55 -27 -129 -31 -164 -3 -35 -10 -75 -15
-89 -14 -36 -49 -304 -49 -373 0 -58 0 -58 -52 -101 -28 -24 -62 -54 -76 -68
-98 -101 -143 -151 -169 -191 -46 -69 -119 -209 -133 -253 l-12 -39 -67 9
c-127 15 -193 0 -178 -40 5 -12 22 -16 74 -17 37 0 86 -3 108 -7 l40 -7 0 -69
c0 -37 -5 -72 -11 -77 -9 -7 -139 -44 -226 -63 -19 -4 -28 -13 -28 -26 0 -17
7 -20 49 -20 27 0 88 11 136 25 88 26 105 25 105 -1 0 -21 40 -104 68 -142 23
-31 175 -162 187 -162 3 0 30 -18 61 -40 30 -23 80 -55 112 -72 31 -17 64 -36
72 -43 8 -7 58 -32 110 -56 52 -23 99 -46 104 -51 10 -8 13 -57 20 -318 4
-164 -10 -266 -53 -373 -6 -16 -9 -32 -6 -37 3 -5 -2 -15 -10 -23 -8 -9 -15
-22 -15 -30 0 -8 -9 -22 -19 -31 -11 -10 -25 -32 -32 -49 -7 -18 -23 -49 -36
-69 -13 -21 -23 -42 -23 -47 0 -10 -69 -156 -124 -261 -19 -36 -32 -68 -30
-72 3 -4 -11 -31 -31 -59 -19 -28 -35 -60 -35 -71 0 -11 -9 -31 -20 -45 -11
-14 -20 -34 -20 -43 0 -10 -11 -46 -24 -82 -21 -55 -70 -222 -81 -276 -2 -9
-10 -34 -19 -54 -9 -21 -16 -55 -16 -77 0 -22 -5 -52 -10 -67 -18 -45 -30
-166 -31 -307 -1 -139 9 -220 42 -327 31 -101 27 -94 46 -79 14 12 15 11 9 -8
-4 -12 0 -37 8 -57 13 -31 20 -36 47 -36 31 0 32 -1 14 -20 -17 -19 -15 -21
49 -85 37 -36 86 -77 109 -92 23 -15 53 -37 67 -49 24 -21 62 -42 143 -79 30
-14 40 -15 52 -5 12 10 15 9 15 -6 0 -13 16 -26 51 -42 28 -12 55 -20 60 -17
5 3 19 0 31 -6 32 -17 178 -31 338 -33 192 -1 849 12 858 18 11 6 184 20 241
19 36 -1 48 -6 64 -27 26 -37 57 -52 68 -35 7 11 9 10 9 -3 0 -10 0 -21 -1
-24 0 -8 73 -60 122 -84 24 -13 57 -32 74 -44 29 -21 121 -59 180 -76 17 -4
47 -15 67 -24 21 -9 57 -16 80 -16 24 0 59 -5 78 -10 61 -18 348 -22 405 -6
27 8 73 17 102 20 28 4 77 16 110 27 123 45 116 41 232 118 67 45 197 185 221
239 10 22 25 55 34 74 47 102 62 284 35 418 -16 80 -59 219 -70 225 -5 4 -9
16 -9 27 0 22 -4 36 -41 146 -11 34 -19 75 -18 90 2 15 0 32 -4 39 -14 23 11
174 37 217 28 48 109 127 155 150 30 16 112 37 139 36 84 -3 170 2 203 10 46
13 113 104 123 167 10 66 -29 136 -108 195 -53 40 -72 49 -122 54 -173 19
-296 -2 -450 -78 -89 -44 -117 -64 -202 -147 -85 -82 -105 -108 -140 -181 -53
-111 -61 -141 -72 -287 -12 -146 0 -230 56 -398 89 -267 101 -426 41 -540 -21
-41 -101 -116 -162 -151 -97 -58 -154 -76 -255 -81 -52 -3 -100 -10 -106 -15
-8 -5 -14 -3 -17 5 -3 8 -27 18 -54 22 -44 6 -162 41 -172 51 -7 7 30 33 74
53 22 10 57 34 77 52 21 19 51 44 68 57 28 22 44 62 18 46 -7 -4 -8 -3 -4 4 4
6 13 9 21 5 10 -3 15 2 15 16 0 12 8 25 18 28 22 9 39 29 63 78 11 22 24 47
29 55 24 41 50 109 50 134 0 15 10 46 22 69 17 34 22 61 23 147 0 58 -3 110
-8 117 -5 7 -4 20 2 31 9 17 8 69 -3 132 -29 167 -43 225 -61 261 -9 15 -14
32 -13 36 6 25 -65 199 -104 255 -10 14 -18 34 -18 45 0 19 -127 285 -181 378
-10 17 -33 63 -53 103 -19 39 -40 72 -46 72 -5 0 -10 8 -10 18 0 10 -13 39
-30 65 -16 26 -30 52 -30 58 0 17 -80 169 -115 218 -19 27 -35 51 -35 55 0 11
-123 261 -141 288 -11 14 -19 32 -19 39 0 7 -29 73 -65 147 -36 73 -65 140
-65 148 0 8 -13 40 -29 72 -16 31 -41 86 -55 122 -15 36 -32 74 -38 85 -26 47
-28 189 -3 295 10 41 19 93 21 115 1 22 3 42 4 45 10 29 13 61 13 155 -2 225
-23 464 -52 575 -5 19 -15 62 -22 95 -15 74 -87 297 -99 309 -6 6 -10 18 -10
28 0 11 -16 53 -35 96 -19 42 -62 145 -96 227 -33 83 -69 168 -79 190 -10 22
-21 50 -25 63 -19 63 -76 172 -100 191 -40 30 -79 28 -104 -8z m-1091 -1307
c21 -19 42 -45 46 -56 3 -12 13 -37 21 -56 20 -48 20 -164 0 -232 -19 -66 -67
-142 -108 -171 -17 -12 -53 -30 -82 -40 l-51 -19 -48 50 c-57 59 -63 84 -55
229 7 161 55 257 151 306 65 33 78 32 126 -11z m742 -14 c64 -47 79 -79 82
-179 2 -76 -1 -95 -30 -167 -53 -138 -131 -210 -237 -221 -91 -9 -152 39 -177
141 -27 113 24 295 105 379 79 81 184 100 257 47z m503 -562 c14 -6 25 -14 25
-18 0 -21 -39 -28 -170 -31 -139 -4 -145 -3 -145 16 0 15 11 23 45 32 59 15
212 16 245 1z m-219 -202 c35 -13 101 -44 205 -96 19 -10 41 -25 48 -34 30
-36 -29 -50 -72 -16 -14 11 -30 20 -36 20 -7 0 -37 13 -69 29 -31 16 -77 35
-102 42 -53 15 -81 36 -73 55 7 18 50 18 99 0z"/>
<path d="M2231 8285 c-58 -53 -86 -147 -78 -265 6 -91 19 -131 56 -164 25 -23
59 -16 114 21 29 20 36 31 32 47 -4 14 -3 17 3 8 23 -34 59 64 61 165 2 122
-36 209 -84 197 -15 -4 -24 0 -28 10 -10 25 -34 19 -76 -19z"/>
<path d="M2939 8281 c-93 -58 -149 -226 -115 -343 8 -30 27 -67 41 -83 24 -25
31 -27 76 -23 39 4 57 12 84 38 53 51 98 151 103 226 6 91 -3 123 -47 172 -47
51 -78 54 -142 13z"/>
</g>
</svg>
