<?xml version="1.0" standalone="no"?>
<!DOCTYPE svg PUBLIC "-//W3C//DTD SVG 20010904//EN"
 "http://www.w3.org/TR/2001/REC-SVG-20010904/DTD/svg10.dtd">
<svg version="1.0" xmlns="http://www.w3.org/2000/svg"
 width="704.000000pt" height="1280.000000pt" viewBox="0 0 704.000000 1280.000000"
 preserveAspectRatio="xMidYMid meet">
<metadata>
Created by potrace 1.16, written by Peter Selinger 2001-2019
</metadata>
<g transform="translate(0.000000,1280.000000) scale(0.100000,-0.100000)"
fill="#000000" stroke="none">
<path d="M3514 9696 c-25 -18 -76 -136 -97 -226 -22 -93 -91 -309 -110 -347
-10 -18 -17 -39 -17 -48 0 -9 -13 -45 -30 -80 -16 -35 -30 -71 -30 -80 0 -8
-12 -38 -26 -66 -26 -49 -27 -50 -73 -50 -90 0 -186 -6 -207 -13 -19 -7 -23 0
-49 81 -73 230 -90 280 -107 308 -10 17 -18 39 -18 50 0 11 -10 45 -21 75 -12
30 -30 82 -42 114 -11 33 -33 84 -48 114 -16 30 -29 60 -29 66 0 19 -57 66
-80 66 -69 0 -111 -139 -235 -780 -16 -85 -19 -102 -40 -255 -9 -60 -13 -125
-10 -143 5 -29 2 -37 -32 -65 -83 -70 -213 -206 -260 -272 -57 -79 -115 -189
-135 -253 l-13 -42 -115 6 c-96 6 -117 4 -128 -8 -26 -32 -4 -48 67 -49 36 0
86 -4 111 -7 37 -6 45 -11 43 -27 -2 -11 -3 -43 -4 -72 -1 -50 -2 -52 -38 -66
-20 -8 -80 -25 -133 -38 -79 -18 -98 -26 -98 -41 0 -27 88 -24 191 6 46 14 87
22 90 18 3 -4 14 -29 24 -57 27 -75 68 -129 145 -190 38 -30 72 -59 75 -65 3
-5 14 -10 22 -10 9 0 37 -17 62 -38 61 -51 325 -198 403 -224 11 -4 13 -39 20
-331 1 -65 6 -121 10 -123 4 -2 0 -20 -8 -39 -8 -19 -14 -45 -14 -57 -1 -24
-33 -124 -44 -135 -3 -3 -6 -19 -6 -34 0 -15 -4 -31 -10 -34 -5 -3 -10 -14
-10 -24 0 -10 -8 -25 -18 -34 -17 -15 -89 -153 -117 -222 -19 -48 -64 -137
-90 -180 -14 -22 -30 -58 -37 -80 -6 -22 -24 -58 -40 -79 -15 -22 -28 -52 -28
-66 0 -15 -9 -35 -20 -45 -11 -10 -20 -25 -20 -33 0 -9 -20 -77 -45 -151 -70
-212 -98 -309 -97 -339 0 -29 -34 -181 -43 -190 -4 -5 -30 2 -160 44 -130 42
-218 42 -359 4 -94 -26 -127 -43 -225 -118 -200 -153 -302 -405 -257 -641 9
-46 16 -85 16 -87 0 -2 7 -4 15 -4 8 0 15 -8 15 -17 0 -10 21 -33 45 -52 38
-28 54 -34 103 -35 33 0 62 4 70 12 7 6 23 10 35 7 33 -8 118 79 102 105 -3 4
0 10 6 12 6 2 11 47 12 118 2 90 6 124 21 155 49 102 100 138 211 150 114 12
228 -51 327 -180 54 -71 158 -237 158 -253 0 -11 82 -135 147 -222 44 -59 153
-168 244 -244 49 -40 164 -108 249 -148 88 -40 108 -48 121 -48 8 0 40 -9 70
-19 91 -32 243 -53 385 -52 109 1 151 6 255 32 138 33 214 58 307 100 34 16
65 29 68 29 15 0 157 116 214 175 76 78 91 85 185 91 39 2 124 15 190 28 269
53 308 71 478 223 15 14 27 32 27 41 0 8 3 13 6 9 8 -8 71 70 90 113 8 19 28
60 44 91 16 31 35 80 41 110 6 30 18 68 27 84 12 23 15 66 15 195 0 91 -3 183
-6 205 -3 22 -8 63 -12 90 -4 28 -10 61 -15 75 -5 14 -16 52 -25 85 -9 33 -21
69 -26 80 -4 11 -13 38 -18 60 -6 22 -31 76 -56 119 -25 44 -45 87 -45 97 0 9
-22 62 -50 117 -27 55 -50 105 -50 111 0 5 -13 33 -30 61 -16 28 -30 53 -30
56 0 3 -13 25 -30 49 -16 24 -30 50 -30 58 0 8 -16 38 -35 67 -19 29 -35 60
-35 69 0 9 -13 32 -30 51 -16 19 -29 42 -30 51 0 23 -68 159 -94 190 -13 15
-50 83 -83 151 -32 67 -69 143 -81 168 -12 25 -30 61 -41 80 -49 91 -151 312
-151 328 0 10 -13 43 -29 73 -16 30 -37 77 -47 104 -9 28 -26 70 -37 95 -28
60 -30 196 -3 295 10 39 19 87 19 107 1 20 5 34 9 32 13 -8 15 210 3 331 -4
39 -7 85 -6 104 4 87 -72 487 -106 554 -7 15 -11 27 -9 27 3 0 -6 28 -19 63
-13 34 -29 78 -36 97 -30 85 -155 390 -191 469 -16 35 -47 109 -70 165 -42
105 -64 138 -110 162 -33 17 -29 17 -54 0z m-1129 -1348 c44 -35 87 -139 86
-212 -1 -127 -30 -212 -99 -288 -81 -90 -190 -88 -238 4 -27 52 -35 167 -19
259 21 125 70 203 150 240 53 25 86 24 120 -3z m759 -29 c62 -55 68 -68 71
-168 3 -125 -36 -235 -112 -317 -39 -43 -121 -84 -168 -84 -40 0 -86 24 -124
63 -33 35 -34 39 -39 134 -6 146 22 243 95 324 54 59 112 86 194 88 29 1 46
-7 83 -40z m500 -539 c14 -5 26 -13 26 -17 -1 -26 -23 -31 -165 -34 -145 -4
-150 -3 -150 16 0 15 11 23 45 32 56 14 210 16 244 3z m-227 -204 c49 -17 153
-63 173 -76 8 -5 29 -16 45 -23 36 -17 59 -42 50 -57 -10 -17 -60 -11 -83 10
-12 11 -28 20 -37 20 -9 0 -41 13 -73 29 -31 16 -76 34 -99 41 -46 14 -79 42
-68 59 9 15 45 14 92 -3z"/>
<path d="M2217 8270 c-52 -45 -79 -123 -80 -235 -2 -95 10 -142 46 -182 39
-43 109 -21 167 52 51 66 63 106 56 201 -6 105 -37 178 -72 170 -12 -3 -24 -2
-26 3 -2 5 -15 12 -29 16 -21 5 -34 0 -62 -25z"/>
<path d="M2941 8278 c-63 -31 -115 -115 -132 -211 -34 -201 83 -324 206 -216
42 37 101 153 111 215 8 55 -11 153 -32 161 -8 3 -14 11 -14 19 0 16 -57 54
-80 54 -8 0 -35 -10 -59 -22z"/>
</g>
</svg>
