<?xml version="1.0" standalone="no"?>
<!DOCTYPE svg PUBLIC "-//W3C//DTD SVG 20010904//EN"
 "http://www.w3.org/TR/2001/REC-SVG-20010904/DTD/svg10.dtd">
<svg version="1.0" xmlns="http://www.w3.org/2000/svg"
 width="704.000000pt" height="1280.000000pt" viewBox="0 0 704.000000 1280.000000"
 preserveAspectRatio="xMidYMid meet">
<metadata>
Created by potrace 1.16, written by Peter Selinger 2001-2019
</metadata>
<g transform="translate(0.000000,1280.000000) scale(0.100000,-0.100000)"
fill="#000000" stroke="none">
<path d="M3480 9638 c-30 -52 -44 -92 -55 -156 -3 -17 -14 -56 -24 -85 -10
-28 -29 -86 -41 -127 -12 -41 -33 -99 -46 -128 -13 -29 -24 -59 -24 -67 0 -8
-12 -40 -26 -72 -14 -32 -30 -75 -35 -95 -5 -20 -18 -53 -30 -72 -20 -34 -24
-36 -72 -37 -29 0 -61 -4 -72 -8 -11 -5 -25 -4 -32 1 -12 10 -57 7 -99 -7 -18
-6 -23 1 -43 57 -12 35 -28 87 -35 115 -7 29 -18 58 -23 65 -6 7 -13 29 -17
48 -3 19 -17 57 -31 84 -14 27 -25 59 -25 71 0 20 -9 44 -50 140 -5 11 -11 33
-15 50 -5 24 -47 121 -84 195 -12 23 -60 43 -87 36 -16 -4 -31 -21 -43 -49
-25 -56 -66 -200 -91 -317 -10 -52 -23 -109 -28 -126 -6 -17 -17 -78 -26 -135
-9 -57 -23 -131 -31 -164 -23 -101 -35 -190 -42 -306 -5 -97 -9 -114 -27 -130
-12 -9 -42 -35 -67 -56 -53 -44 -183 -189 -221 -248 -47 -72 -100 -176 -113
-218 l-12 -42 -49 2 c-27 1 -78 2 -112 3 -68 3 -100 -14 -89 -44 5 -12 22 -16
74 -17 37 0 86 -3 108 -7 l40 -7 0 -70 c-1 -65 -3 -71 -27 -83 -22 -10 -116
-35 -215 -57 -15 -4 -23 -13 -23 -25 0 -17 7 -20 49 -20 27 0 88 11 136 25 88
26 105 25 105 -1 0 -21 40 -104 68 -142 28 -37 176 -162 192 -162 5 0 18 -7
27 -16 35 -30 108 -84 116 -84 4 0 31 -15 60 -33 63 -40 223 -117 243 -117 8
0 15 -11 16 -27 4 -76 6 -141 11 -281 2 -84 7 -155 10 -159 4 -3 2 -13 -2 -22
-5 -9 -14 -39 -19 -66 -6 -28 -15 -66 -21 -85 -5 -19 -16 -55 -23 -80 -7 -25
-26 -67 -43 -95 -17 -27 -45 -81 -64 -120 -18 -38 -40 -86 -49 -104 -10 -19
-16 -39 -14 -45 2 -6 -3 -15 -10 -21 -7 -5 -24 -30 -37 -55 -13 -25 -34 -65
-48 -90 -13 -25 -25 -57 -27 -72 -2 -15 -15 -41 -30 -58 -14 -17 -28 -44 -32
-58 -3 -15 -13 -45 -23 -67 -33 -72 -121 -346 -121 -376 0 -9 -9 -36 -20 -60
-11 -24 -20 -61 -20 -81 0 -20 -8 -65 -17 -100 -13 -49 -17 -106 -17 -258 0
-107 4 -217 8 -243 14 -82 53 -192 67 -191 9 1 14 -11 15 -34 1 -39 34 -75 61
-65 12 5 14 1 9 -23 -5 -26 1 -35 62 -91 119 -111 314 -230 354 -217 12 3 18
0 18 -9 0 -16 94 -61 113 -54 7 2 21 0 32 -6 29 -15 178 -28 335 -30 379 -5
984 18 1053 39 17 5 123 -77 185 -144 13 -14 61 -50 105 -80 283 -189 619
-263 977 -214 87 12 231 57 310 97 157 79 297 206 350 318 44 93 83 252 76
307 -3 25 -8 67 -11 94 -5 50 -14 83 -45 171 -26 72 -27 76 -60 125 -16 25
-38 64 -49 86 -11 23 -31 60 -45 83 -37 58 -76 181 -77 244 -2 70 34 178 73
223 17 19 28 34 24 34 -11 0 45 50 72 64 15 8 46 34 69 58 38 39 44 50 49 104
4 36 2 69 -4 80 -6 12 -7 26 -2 34 11 18 -33 75 -84 108 -32 20 -56 26 -122
29 -79 4 -86 2 -155 -32 -88 -45 -216 -170 -271 -265 -85 -145 -120 -352 -87
-512 22 -109 79 -251 133 -332 19 -28 53 -91 76 -139 37 -77 43 -98 47 -175 4
-62 1 -99 -10 -129 -21 -63 -86 -157 -121 -178 -76 -47 -170 -94 -177 -89 -5
3 -32 -2 -60 -10 -68 -20 -258 -16 -349 8 -73 19 -162 58 -197 86 l-24 18 23
16 c12 9 28 16 35 16 22 0 126 63 199 120 70 55 99 93 87 114 -3 6 -3 8 2 4 4
-4 25 12 46 35 34 36 44 54 41 78 -1 4 8 15 18 24 11 10 20 25 20 34 0 9 7 24
15 35 8 10 17 39 21 65 4 25 15 63 26 84 15 30 20 65 22 150 2 62 -1 117 -6
124 -6 7 -6 19 -1 30 10 20 10 27 -6 138 -13 90 -37 193 -56 245 -7 19 -19 58
-26 85 -14 56 -62 166 -91 207 -10 14 -18 35 -18 45 0 11 -15 51 -34 89 -47
95 -86 180 -86 188 0 3 -12 25 -27 49 -15 23 -33 51 -39 62 -6 11 -16 19 -24
17 -8 -2 -11 4 -7 19 7 26 -35 114 -59 123 -9 3 -14 13 -11 20 3 8 -5 30 -18
48 -14 18 -30 44 -36 58 -46 103 -86 182 -113 225 -31 47 -156 297 -156 312 0
3 -11 21 -25 39 -14 18 -25 37 -25 43 0 6 -29 72 -65 147 -36 75 -65 142 -65
148 0 6 -15 43 -34 81 -19 39 -45 97 -57 130 -13 33 -27 66 -33 73 -20 28 -26
180 -9 247 16 63 16 78 1 69 -7 -4 -4 3 7 15 14 16 20 38 20 70 0 25 4 52 8
59 5 6 5 12 1 12 -3 0 -2 6 4 13 11 13 14 215 4 232 -3 5 -7 43 -8 84 -4 140
-22 297 -43 381 -5 19 -14 60 -20 90 -21 101 -88 307 -102 316 -5 3 -9 14 -9
25 0 10 -18 59 -40 108 -22 49 -40 92 -40 95 0 6 -57 145 -94 231 -8 17 -25
57 -39 90 -14 33 -40 95 -58 139 -37 86 -75 126 -120 126 -24 0 -33 -8 -59
-52z m-1075 -1290 c67 -69 102 -211 72 -298 -2 -8 -11 -35 -18 -60 -30 -98
-115 -183 -196 -196 -33 -5 -44 -2 -72 21 -17 15 -41 46 -53 68 -18 37 -20 53
-15 162 6 139 23 196 79 260 38 43 108 85 142 85 10 0 38 -19 61 -42z m715 13
c0 -6 14 -18 31 -28 48 -28 71 -84 73 -178 2 -69 -2 -92 -30 -163 -52 -133
-133 -208 -237 -219 -150 -15 -218 129 -164 349 14 56 67 156 97 183 42 38
114 65 171 65 33 0 59 -4 59 -9z m535 -592 c29 -28 -3 -37 -155 -40 -139 -4
-145 -3 -145 16 0 30 63 45 182 42 78 -1 106 -6 118 -18z m-229 -193 c38 -14
135 -59 205 -96 19 -10 41 -25 48 -34 30 -36 -29 -50 -72 -16 -14 11 -30 20
-36 20 -7 0 -37 13 -69 29 -31 15 -81 36 -109 45 -57 19 -68 29 -59 51 7 19
42 19 92 1z"/>
<path d="M2265 8310 c-37 -15 -73 -65 -95 -130 -19 -55 -21 -79 -17 -156 5
-94 19 -135 55 -167 44 -40 144 18 187 108 55 117 16 335 -60 335 -13 0 -27 5
-30 10 -7 12 -13 12 -40 0z"/>
<path d="M2943 8285 c-25 -15 -54 -46 -73 -77 -29 -47 -59 -151 -60 -206 0
-41 31 -121 58 -148 23 -23 33 -25 75 -21 61 5 102 43 148 134 24 48 34 82 37
129 6 91 -3 123 -47 172 -46 50 -76 54 -138 17z"/>
</g>
</svg>
