<?xml version="1.0" standalone="no"?>
<!DOCTYPE svg PUBLIC "-//W3C//DTD SVG 20010904//EN"
 "http://www.w3.org/TR/2001/REC-SVG-20010904/DTD/svg10.dtd">
<svg version="1.0" xmlns="http://www.w3.org/2000/svg"
 width="704.000000pt" height="1280.000000pt" viewBox="0 0 704.000000 1280.000000"
 preserveAspectRatio="xMidYMid meet">
<metadata>
Created by potrace 1.16, written by Peter Selinger 2001-2019
</metadata>
<g transform="translate(0.000000,1280.000000) scale(0.100000,-0.100000)"
fill="#000000" stroke="none">
<path d="M3501 9684 c-11 -14 -28 -46 -37 -72 -10 -26 -21 -51 -26 -56 -4 -6
-8 -19 -8 -31 0 -27 -103 -362 -124 -400 -9 -16 -16 -38 -16 -48 0 -10 -13
-47 -30 -82 -16 -35 -30 -71 -30 -80 0 -8 -12 -38 -27 -66 -26 -51 -27 -51
-66 -46 -22 3 -50 1 -63 -4 -15 -5 -34 -5 -51 2 -21 8 -37 6 -70 -6 -44 -17
-63 -14 -63 11 0 8 -8 40 -18 72 -11 31 -34 103 -52 160 -18 56 -41 119 -51
139 -11 21 -19 44 -19 53 0 17 -38 120 -50 135 -4 6 -11 28 -15 50 -3 22 -22
69 -41 103 -19 35 -34 69 -34 75 0 23 -54 67 -81 67 -37 0 -62 -34 -83 -112
-10 -35 -23 -79 -31 -99 -8 -20 -23 -83 -34 -140 -11 -57 -32 -156 -46 -219
-15 -62 -25 -124 -22 -137 2 -13 1 -25 -3 -28 -7 -4 -17 -50 -40 -182 -19
-107 -31 -236 -25 -263 5 -25 -1 -34 -56 -81 -187 -163 -324 -349 -370 -504
l-13 -45 -116 7 c-96 5 -117 3 -128 -9 -27 -34 -5 -45 96 -51 115 -6 135 -12
126 -39 -3 -11 -6 -40 -7 -64 0 -59 -12 -66 -153 -100 -93 -23 -114 -31 -114
-46 0 -27 88 -24 191 6 46 14 87 22 90 18 3 -4 14 -29 24 -57 24 -66 85 -147
137 -183 24 -17 54 -42 67 -56 14 -14 32 -26 42 -26 9 0 19 -4 21 -9 10 -30
339 -218 442 -254 8 -3 13 -101 18 -350 1 -54 5 -100 9 -103 4 -2 1 -20 -7
-39 -8 -19 -14 -44 -14 -56 0 -13 -11 -57 -25 -98 -14 -42 -30 -92 -36 -111
-6 -19 -19 -44 -29 -55 -25 -28 -73 -119 -108 -206 -17 -41 -53 -114 -81 -163
-28 -50 -53 -104 -57 -120 -4 -17 -20 -50 -35 -73 -16 -23 -29 -52 -29 -66 0
-13 -9 -32 -20 -42 -11 -10 -20 -25 -20 -34 -1 -9 -8 -34 -16 -56 -21 -57 -82
-255 -88 -285 -2 -14 -11 -45 -19 -70 -8 -25 -17 -67 -21 -95 -3 -27 -11 -77
-19 -110 -16 -74 -16 -74 -172 -12 -40 16 -75 20 -175 21 -109 1 -135 -2 -206
-25 -168 -55 -342 -208 -406 -357 -11 -26 -26 -60 -33 -77 -37 -83 -52 -221
-35 -315 15 -89 19 -100 36 -100 8 0 14 -8 14 -17 0 -10 21 -33 45 -52 39 -29
52 -33 105 -33 33 -1 66 5 74 11 7 6 21 9 29 5 32 -12 119 79 102 106 -3 5 0
10 6 12 6 2 11 47 12 118 2 107 4 119 34 180 44 89 108 128 215 129 107 2 216
-60 299 -169 45 -59 147 -217 165 -255 8 -16 28 -50 44 -75 16 -25 37 -58 46
-74 9 -16 29 -43 45 -60 16 -17 29 -36 29 -41 0 -14 157 -168 240 -235 36 -30
97 -69 135 -87 39 -19 81 -40 95 -47 48 -26 96 -44 165 -65 124 -36 150 -41
153 -31 5 13 32 13 32 1 0 -6 18 -13 40 -18 53 -10 373 1 425 15 22 6 68 17
102 25 77 18 179 55 213 77 14 9 41 23 60 30 45 18 111 65 103 74 -3 3 1 6 9
6 23 0 128 89 122 104 -3 7 2 19 11 26 13 10 15 9 15 -6 0 -16 3 -15 23 8 27
32 104 72 109 57 4 -12 252 21 336 46 26 7 72 20 102 29 52 15 119 55 230 139
27 22 50 43 50 48 0 5 25 38 55 74 30 35 55 70 55 77 0 8 6 22 14 33 23 34 64
138 68 175 2 19 12 50 22 69 26 48 32 271 8 271 -13 0 -13 2 2 13 18 13 18 36
3 132 -2 11 -7 43 -11 70 -8 56 -31 143 -51 195 -8 19 -19 60 -26 90 -12 53
-34 101 -85 185 -13 22 -24 50 -24 62 0 12 -9 38 -19 56 -24 43 -33 61 -59
117 -44 98 -96 197 -118 226 -13 17 -24 36 -24 43 0 18 -36 86 -54 100 -9 8
-16 23 -16 35 0 12 -13 37 -30 56 -16 19 -29 43 -30 52 0 24 -59 141 -106 213
-22 33 -71 125 -108 205 -38 80 -77 156 -87 169 -11 13 -19 30 -19 38 0 15
-106 232 -121 247 -5 6 -9 21 -9 35 0 14 -14 55 -31 91 -18 36 -38 78 -45 93
-8 16 -14 33 -14 38 0 5 -10 30 -22 56 -30 63 -31 197 -4 298 10 39 19 87 19
107 1 20 5 34 9 32 7 -4 14 156 11 236 -9 215 -23 349 -50 480 -37 179 -52
231 -133 460 -24 65 -165 414 -185 455 -25 52 -105 244 -105 253 0 15 -50 76
-73 89 -34 19 -54 15 -76 -13z m-1116 -1336 c15 -12 41 -51 58 -87 28 -62 29
-71 24 -161 -6 -111 -33 -183 -93 -250 -86 -95 -190 -93 -241 3 -24 46 -33
149 -21 242 16 124 74 220 153 256 53 25 86 24 120 -3z m767 -34 c55 -54 66
-84 63 -180 -4 -125 -56 -256 -127 -320 -30 -27 -119 -64 -153 -64 -40 0 -87
24 -125 64 l-35 37 0 117 c0 147 18 209 81 286 63 79 126 108 212 102 35 -3
52 -12 84 -42z m485 -530 c24 -7 35 -25 25 -41 -4 -6 -68 -12 -157 -14 -145
-4 -150 -3 -150 16 0 15 11 23 45 32 48 12 200 17 237 7z m-220 -208 c22 -8
67 -26 99 -41 137 -61 183 -92 169 -114 -11 -18 -61 -12 -80 9 -10 11 -27 20
-37 20 -10 0 -44 13 -76 29 -31 16 -76 34 -99 41 -46 14 -79 42 -68 59 9 15
45 14 92 -3z"/>
<path d="M2221 8275 c-92 -78 -118 -327 -44 -415 28 -34 58 -38 106 -15 39 19
97 91 114 142 19 55 9 194 -18 250 -20 40 -24 44 -50 38 -21 -5 -29 -3 -29 7
0 23 -47 19 -79 -7z"/>
<path d="M2950 8280 c-82 -43 -125 -113 -141 -226 -10 -68 -9 -89 5 -136 35
-121 139 -143 221 -47 38 45 83 142 91 197 8 53 -12 151 -32 159 -8 3 -14 11
-14 19 0 16 -57 54 -80 54 -8 -1 -31 -9 -50 -20z"/>
</g>
</svg>
