<?xml version="1.0" standalone="no"?>
<!DOCTYPE svg PUBLIC "-//W3C//DTD SVG 20010904//EN"
 "http://www.w3.org/TR/2001/REC-SVG-20010904/DTD/svg10.dtd">
<svg version="1.0" xmlns="http://www.w3.org/2000/svg"
 width="704.000000pt" height="1280.000000pt" viewBox="0 0 704.000000 1280.000000"
 preserveAspectRatio="xMidYMid meet">
<metadata>
Created by potrace 1.16, written by Peter Selinger 2001-2019
</metadata>
<g transform="translate(0.000000,1280.000000) scale(0.100000,-0.100000)"
fill="#000000" stroke="none">
<path d="M3493 9657 c-37 -58 -57 -108 -76 -187 -20 -89 -73 -257 -108 -349
-16 -42 -41 -107 -56 -146 -14 -38 -35 -94 -47 -122 l-21 -53 -52 0 c-28 0
-64 -5 -79 -10 -20 -8 -29 -8 -35 1 -5 8 -19 10 -45 5 -77 -15 -73 -17 -100
69 -14 44 -32 100 -40 125 -8 25 -21 66 -29 93 -7 26 -23 63 -34 83 -12 19
-21 44 -21 54 0 20 -32 111 -50 142 -6 10 -10 25 -10 34 0 18 -47 131 -64 153
-6 8 -15 27 -21 43 -13 37 -54 63 -87 55 -43 -11 -93 -143 -138 -362 -12 -55
-27 -125 -35 -155 -7 -30 -18 -89 -25 -130 -6 -41 -17 -104 -25 -140 -7 -36
-18 -89 -24 -118 -6 -29 -14 -109 -17 -177 l-7 -126 -45 -37 c-176 -144 -315
-330 -372 -497 l-17 -50 -109 3 c-114 4 -154 -8 -142 -40 5 -11 30 -16 100
-21 132 -9 129 -6 125 -86 -4 -79 -6 -81 -167 -121 -72 -18 -105 -31 -105 -41
0 -25 94 -23 191 5 48 14 88 25 89 23 1 -1 10 -24 20 -52 28 -77 87 -156 141
-192 27 -17 60 -43 73 -57 14 -14 28 -26 32 -26 9 0 52 -28 109 -71 70 -53
275 -160 333 -174 18 -5 27 -14 28 -29 0 -11 2 -57 5 -101 2 -44 5 -138 7
-208 3 -70 7 -130 10 -134 4 -3 2 -13 -2 -22 -5 -9 -14 -39 -19 -66 -22 -107
-75 -258 -100 -286 -31 -34 -126 -235 -117 -249 3 -4 1 -10 -3 -12 -17 -7
-111 -184 -112 -211 0 -9 -16 -40 -35 -68 -19 -28 -35 -59 -35 -68 0 -9 -7
-27 -16 -40 -9 -12 -22 -44 -30 -69 -7 -26 -26 -85 -42 -132 -16 -47 -35 -110
-42 -140 -7 -30 -21 -77 -31 -104 -11 -27 -19 -67 -19 -90 0 -22 -7 -62 -15
-89 -26 -88 -36 -356 -17 -479 13 -88 50 -208 67 -223 6 -5 15 -23 19 -40 10
-39 24 -55 48 -55 15 0 19 -5 15 -20 -7 -25 34 -72 131 -152 39 -33 72 -65 72
-72 0 -7 -16 -48 -36 -91 -32 -69 -36 -89 -41 -186 -6 -100 3 -183 25 -239 3
-8 7 -19 7 -25 4 -24 36 -83 64 -119 17 -21 31 -42 31 -47 0 -13 133 -141 175
-167 22 -14 47 -34 55 -43 22 -25 130 -83 130 -69 0 6 5 8 10 5 6 -4 8 -10 6
-14 -7 -11 142 -71 158 -65 8 3 17 1 21 -5 8 -14 80 -14 146 0 73 16 120 61
143 138 21 72 17 136 -14 186 -27 43 -76 85 -100 85 -10 0 -20 4 -22 8 -1 4
-38 25 -80 46 -125 61 -203 142 -223 233 -11 51 13 144 44 171 22 20 32 22 71
16 63 -10 272 -10 563 -2 248 8 316 3 522 -33 28 -5 73 -11 101 -15 48 -6 51
-5 58 17 l7 24 9 -23 c10 -23 26 -26 78 -16 22 5 28 10 25 24 -3 10 0 21 6 24
6 4 13 -4 17 -19 3 -14 10 -25 14 -25 21 0 87 34 102 53 10 12 18 16 18 10 0
-21 19 -15 79 27 31 22 67 40 79 40 29 0 94 27 104 43 6 9 10 9 16 -1 7 -10
19 -9 58 7 99 40 145 70 246 160 29 25 37 39 33 55 -5 15 -4 17 3 7 8 -11 12
-10 21 7 6 12 25 36 41 54 17 18 30 36 30 39 0 4 18 46 40 93 22 47 40 96 40
110 0 13 7 41 17 62 23 55 33 126 20 142 -8 10 -7 16 1 21 9 5 10 24 3 72 -6
42 -5 68 1 77 7 7 8 31 3 60 -4 26 -8 58 -10 72 -12 90 -33 180 -58 245 -6 17
-12 35 -12 40 -3 41 -60 182 -101 247 -13 21 -24 49 -24 64 0 14 -8 38 -18 52
-11 15 -42 79 -71 142 -55 122 -107 210 -123 210 -6 0 -7 7 -4 16 7 17 -49
124 -65 124 -5 0 -9 10 -9 23 0 13 -11 38 -25 57 -14 19 -25 37 -25 42 0 17
-65 146 -105 208 -23 36 -76 135 -118 221 -41 87 -80 160 -86 164 -6 3 -11 14
-11 24 0 10 -29 76 -64 147 -35 71 -67 143 -70 160 -4 18 -20 53 -37 78 -16
26 -29 53 -29 60 0 7 -12 41 -26 77 -50 119 -64 227 -39 292 8 20 15 51 15 68
0 16 7 43 15 59 11 21 12 36 5 54 -6 17 -6 27 1 32 6 3 9 15 6 25 -3 10 -1 22
4 25 11 6 12 234 2 234 -5 0 -8 33 -7 72 1 92 -22 280 -46 378 -4 19 -13 60
-19 90 -16 75 -47 179 -82 271 -16 42 -29 79 -29 82 0 4 -17 49 -39 100 -21
50 -73 175 -116 277 -164 391 -162 389 -229 406 -22 5 -29 0 -53 -39z m146
-1878 c17 -6 31 -14 31 -17 -1 -25 -25 -30 -165 -33 -131 -4 -150 -2 -153 12
-3 17 30 34 78 42 53 9 179 6 209 -4z m-144 -236 c160 -69 205 -99 190 -123
-11 -18 -74 -6 -95 19 -3 3 -25 14 -50 23 -183 69 -204 79 -208 108 -4 21 -1
22 35 18 21 -3 79 -23 128 -45z"/>
</g>
</svg>
