<?xml version="1.0" standalone="no"?>
<!DOCTYPE svg PUBLIC "-//W3C//DTD SVG 20010904//EN"
 "http://www.w3.org/TR/2001/REC-SVG-20010904/DTD/svg10.dtd">
<svg version="1.0" xmlns="http://www.w3.org/2000/svg"
 width="704.000000pt" height="1280.000000pt" viewBox="0 0 704.000000 1280.000000"
 preserveAspectRatio="xMidYMid meet">
<metadata>
Created by potrace 1.16, written by Peter Selinger 2001-2019
</metadata>
<g transform="translate(0.000000,1280.000000) scale(0.100000,-0.100000)"
fill="#000000" stroke="none">
<path d="M3518 9698 c-26 -20 -75 -127 -92 -198 -16 -71 -101 -335 -115 -361
-5 -9 -15 -36 -21 -59 -6 -23 -22 -67 -36 -96 -13 -29 -24 -60 -24 -69 0 -8
-12 -39 -26 -67 l-26 -50 -45 5 c-28 3 -55 0 -71 -9 -22 -11 -27 -11 -37 2 -9
13 -18 14 -54 4 -23 -6 -48 -13 -56 -16 -10 -4 -19 12 -31 55 -9 34 -21 64
-25 67 -5 3 -9 17 -9 32 0 30 -50 178 -80 237 -11 21 -20 46 -20 54 0 24 -51
151 -60 151 -4 0 -6 9 -3 19 5 20 -40 133 -64 162 -7 8 -13 23 -13 32 0 25
-51 67 -82 67 -36 0 -71 -52 -92 -135 -8 -33 -26 -105 -39 -160 -44 -174 -73
-319 -117 -570 -5 -27 -13 -75 -19 -105 -5 -30 -12 -98 -17 -150 l-7 -95 -51
-45 c-78 -69 -161 -158 -220 -235 -61 -78 -142 -230 -152 -283 l-7 -35 -71 8
c-135 14 -189 6 -184 -28 3 -21 10 -22 112 -29 60 -3 111 -10 115 -15 4 -4 5
-38 3 -74 -4 -79 1 -75 -161 -115 -92 -22 -111 -30 -111 -45 0 -16 8 -19 58
-19 33 0 91 11 137 25 44 14 82 25 85 25 3 0 11 -21 18 -47 15 -58 85 -165
121 -186 15 -8 47 -33 71 -55 25 -21 55 -42 68 -46 12 -4 22 -11 22 -16 0 -5
9 -12 20 -15 12 -4 28 -15 38 -25 9 -10 49 -35 87 -55 39 -21 82 -46 97 -56
14 -11 29 -19 32 -19 7 0 158 -70 165 -76 3 -3 7 -102 14 -356 2 -48 6 -90 9
-93 3 -4 0 -18 -8 -33 -8 -15 -14 -37 -14 -49 0 -51 -66 -248 -95 -283 -16
-20 -64 -113 -119 -235 -26 -55 -51 -107 -56 -115 -19 -28 -70 -135 -70 -146
0 -7 -16 -36 -35 -65 -20 -29 -34 -58 -31 -65 3 -7 -3 -23 -13 -36 -10 -13
-23 -45 -30 -73 -7 -27 -16 -54 -20 -60 -8 -10 -36 -100 -82 -260 -12 -44 -26
-105 -30 -135 -4 -30 -14 -93 -23 -140 -36 -183 -15 -545 33 -593 6 -6 11 -22
11 -35 0 -15 7 -26 18 -29 13 -3 17 -12 14 -31 -4 -29 28 -72 53 -72 9 0 12
-6 9 -15 -18 -46 320 -311 371 -291 8 3 14 0 12 -7 -1 -8 10 -11 31 -11 21 1
32 -3 32 -12 0 -7 10 -19 22 -25 27 -14 156 -41 214 -44 23 -1 59 -6 80 -10
54 -11 392 -7 414 5 9 5 20 7 23 4 5 -5 386 -5 587 -1 l65 2 3 -89 c2 -62 -2
-104 -14 -140 -15 -47 -42 -104 -54 -116 -3 -3 -18 -23 -34 -45 -69 -95 -195
-201 -305 -255 -76 -38 -324 -120 -362 -120 -30 0 -89 -25 -100 -43 -9 -13
-31 2 -23 15 5 8 -9 8 -47 2 -82 -14 -345 -7 -420 11 -35 8 -81 15 -101 15
-21 0 -38 4 -38 10 0 5 -19 14 -42 21 -24 6 -55 18 -70 26 -22 11 -28 11 -28
1 0 -10 -2 -10 -8 -1 -4 7 -32 24 -62 38 -50 23 -101 56 -187 121 -33 25 -156
161 -233 258 -100 125 -254 192 -424 183 -87 -4 -204 -24 -222 -38 -10 -8 -82
0 -149 17 -39 9 -92 44 -128 82 -51 54 -62 165 -23 247 46 99 105 135 257 154
72 9 81 13 118 45 13 12 21 15 17 9 -14 -25 17 -12 48 19 60 60 53 190 -13
246 -66 57 -97 65 -222 59 -102 -4 -122 -8 -175 -35 -32 -16 -69 -33 -82 -37
-40 -12 -135 -81 -189 -137 -132 -137 -175 -242 -177 -433 -1 -115 19 -206 51
-232 8 -6 13 -18 10 -25 -2 -7 3 -26 11 -43 21 -42 112 -145 128 -145 8 0 26
-13 40 -29 14 -16 56 -42 93 -57 36 -15 72 -32 79 -37 25 -19 173 -25 262 -11
141 22 232 27 274 15 28 -7 44 -7 52 0 9 8 17 4 29 -15 9 -14 27 -28 38 -32
24 -8 157 -137 157 -153 0 -5 46 -56 102 -114 107 -108 247 -210 306 -222 17
-4 32 -11 32 -16 0 -11 93 -59 115 -59 8 0 55 -13 103 -29 48 -16 123 -35 167
-41 44 -6 105 -15 135 -19 180 -28 585 -1 725 47 74 25 253 74 278 75 15 1 31
7 35 12 4 6 52 33 107 60 103 50 183 102 245 158 19 18 49 44 67 57 55 44 161
187 212 288 54 105 94 234 90 285 -2 18 1 38 5 45 4 7 9 50 10 95 l1 82 35 12
c19 7 49 12 65 13 55 1 245 58 303 91 86 49 174 127 218 192 21 32 44 63 52
69 21 18 102 197 108 242 3 22 14 59 25 81 33 72 23 423 -18 565 -58 206 -95
305 -141 378 -18 29 -31 58 -29 65 3 7 -8 37 -24 67 -15 30 -58 117 -95 193
-37 77 -73 141 -81 144 -7 3 -13 15 -13 27 0 25 -46 108 -66 119 -8 4 -14 18
-14 30 0 12 -14 40 -30 61 -17 22 -30 45 -30 52 0 25 -50 126 -95 194 -25 37
-79 137 -120 221 -41 85 -79 161 -84 169 -18 29 -124 266 -141 316 -10 28 -30
70 -44 93 -14 22 -26 47 -26 55 0 8 -16 50 -35 92 -28 62 -37 95 -42 164 -4
58 -2 93 6 108 6 12 13 41 15 65 2 24 8 53 14 64 6 11 11 33 11 49 0 16 4 56
9 89 10 59 10 117 -1 324 -16 295 -97 628 -217 896 -10 23 -30 70 -43 105 -14
36 -46 115 -72 175 -26 61 -70 164 -97 230 -50 122 -73 156 -120 181 -33 17
-30 17 -50 2z m-1144 -1342 c30 -18 45 -37 68 -92 28 -64 30 -76 25 -159 -6
-107 -32 -183 -83 -244 -89 -103 -191 -106 -249 -7 -22 38 -26 55 -26 142 -2
196 52 309 171 363 55 25 47 25 94 -3z m771 -32 c56 -48 67 -73 72 -169 4 -83
-13 -161 -52 -235 -50 -97 -171 -178 -246 -165 -45 8 -94 39 -122 77 -46 62
-31 280 26 378 53 91 142 150 230 150 41 0 55 -6 92 -36z m499 -544 c27 -10
35 -38 14 -45 -7 -2 -77 -5 -156 -8 -118 -4 -145 -2 -149 10 -8 21 8 32 58 42
62 12 203 13 233 1z m-200 -214 c87 -33 207 -93 230 -116 34 -34 -5 -53 -59
-28 -14 6 -25 15 -25 20 0 4 -8 8 -17 8 -10 0 -45 13 -78 28 -33 16 -83 36
-112 46 -49 16 -70 37 -57 57 9 15 51 10 118 -15z"/>
<path d="M2210 8262 c-48 -51 -72 -128 -74 -240 -1 -76 2 -93 24 -131 14 -24
32 -49 41 -54 40 -25 146 30 133 70 -5 14 -4 15 4 4 8 -11 16 -4 38 29 27 41
29 51 29 140 -1 130 -32 206 -80 194 -13 -3 -27 1 -34 10 -21 25 -41 19 -81
-22z"/>
<path d="M2947 8280 c-76 -38 -123 -115 -138 -228 -9 -68 -8 -90 5 -136 40
-136 160 -138 246 -4 90 138 92 271 5 355 -39 38 -63 40 -118 13z"/>
</g>
</svg>
