<?xml version="1.0" standalone="no"?>
<!DOCTYPE svg PUBLIC "-//W3C//DTD SVG 20010904//EN"
 "http://www.w3.org/TR/2001/REC-SVG-20010904/DTD/svg10.dtd">
<svg version="1.0" xmlns="http://www.w3.org/2000/svg"
 width="704.000000pt" height="1280.000000pt" viewBox="0 0 704.000000 1280.000000"
 preserveAspectRatio="xMidYMid meet">
<metadata>
Created by potrace 1.16, written by Peter Selinger 2001-2019
</metadata>
<g transform="translate(0.000000,1280.000000) scale(0.100000,-0.100000)"
fill="#000000" stroke="none">
<path d="M3523 9693 c-7 -2 -13 -11 -13 -18 0 -8 -6 -18 -14 -22 -18 -10 -65
-105 -64 -129 0 -11 -9 -48 -20 -84 -67 -215 -83 -264 -101 -306 -12 -26 -21
-54 -21 -63 0 -9 -13 -43 -30 -76 -16 -33 -30 -68 -30 -78 0 -10 -11 -40 -25
-67 l-25 -50 -53 0 c-31 0 -61 -6 -75 -16 -20 -14 -22 -14 -22 2 0 14 -7 16
-42 10 -24 -3 -52 -8 -64 -12 -18 -5 -24 3 -43 58 -12 35 -26 82 -31 105 -5
24 -16 55 -23 70 -8 16 -18 44 -22 63 -4 19 -18 55 -30 80 -13 25 -28 66 -34
93 -6 26 -20 66 -30 90 -11 23 -22 55 -26 71 -3 16 -26 71 -51 121 -47 97 -74
122 -117 111 -39 -9 -83 -120 -127 -321 -12 -55 -30 -136 -40 -180 -10 -44
-21 -102 -25 -130 -3 -27 -14 -88 -25 -135 -29 -133 -40 -211 -47 -329 l-6
-110 -65 -56 c-88 -76 -195 -196 -248 -277 -24 -37 -44 -70 -44 -73 0 -3 -11
-23 -24 -44 -14 -21 -31 -60 -39 -87 l-14 -49 -115 4 c-95 3 -116 1 -127 -13
-26 -32 -6 -46 66 -47 37 0 86 -3 108 -7 l40 -7 1 -69 1 -68 -41 -19 c-23 -10
-84 -27 -136 -39 -52 -12 -96 -23 -98 -25 -3 -2 -2 -11 1 -20 10 -23 90 -19
187 10 47 14 88 24 93 22 5 -1 17 -27 28 -57 10 -29 31 -71 46 -93 32 -45 177
-171 211 -181 12 -4 22 -12 22 -17 0 -5 8 -12 18 -16 9 -3 26 -14 37 -24 40
-35 298 -172 350 -185 26 -7 27 -7 30 -104 1 -30 5 -125 9 -210 9 -184 10
-164 -4 -220 -7 -25 -16 -63 -22 -85 -5 -22 -16 -55 -24 -73 -8 -18 -14 -40
-14 -50 0 -10 -18 -48 -40 -86 -22 -37 -40 -70 -40 -72 0 -3 -8 -16 -17 -31
-25 -37 -65 -135 -65 -155 1 -10 -3 -18 -8 -18 -5 0 -12 -10 -15 -22 -4 -13
-17 -36 -29 -53 -22 -30 -76 -144 -76 -161 0 -5 -14 -29 -30 -53 -17 -24 -30
-53 -30 -63 0 -11 -9 -31 -20 -45 -11 -14 -20 -31 -20 -37 0 -7 -25 -87 -55
-179 -30 -92 -55 -175 -55 -186 0 -10 -7 -35 -15 -54 -8 -20 -15 -54 -15 -76
0 -22 -5 -52 -10 -67 -6 -15 -15 -61 -20 -101 -11 -88 -16 -345 -7 -360 4 -6
11 -43 17 -83 6 -40 17 -87 24 -104 8 -17 17 -41 21 -54 4 -13 12 -21 19 -19
8 3 12 -6 12 -28 0 -44 21 -68 54 -63 26 4 26 3 13 -21 -13 -25 -11 -28 54
-89 37 -35 87 -78 112 -95 25 -17 59 -41 74 -53 45 -37 155 -86 177 -79 14 4
20 2 20 -8 0 -18 61 -48 104 -51 18 -2 38 -6 45 -10 20 -13 201 -28 336 -29
72 0 238 1 370 2 271 3 258 8 209 -75 -49 -83 -72 -172 -78 -297 -3 -64 -1
-117 4 -117 4 0 6 -8 3 -19 -6 -25 34 -166 62 -217 40 -71 136 -208 169 -239
108 -104 352 -246 471 -275 28 -7 82 -23 120 -35 42 -14 83 -21 103 -18 19 3
32 1 32 -5 0 -17 51 -23 210 -27 128 -2 150 0 150 12 0 13 3 13 15 3 20 -17
303 3 366 25 24 9 62 19 83 21 44 6 82 23 142 66 70 50 117 164 77 187 -15 9
-16 12 -4 20 37 24 -65 141 -140 161 -70 19 -169 13 -324 -20 -134 -28 -166
-31 -300 -30 -82 1 -163 2 -180 1 -16 0 -49 8 -72 19 -24 11 -52 20 -63 20
-48 0 -267 121 -333 185 -15 15 -44 60 -63 100 -75 161 -33 304 145 503 81 89
96 100 158 107 65 9 241 45 270 56 13 5 23 13 23 20 0 7 11 8 30 4 23 -5 46 2
100 29 113 58 243 171 217 188 -7 5 -3 8 11 8 12 0 22 4 22 9 0 5 14 24 31 43
37 40 106 191 119 259 5 27 16 62 24 78 22 42 28 299 10 416 -17 106 -43 223
-56 248 -5 10 -16 44 -24 75 -17 67 -48 139 -86 201 -16 25 -28 54 -28 65 0
12 -20 62 -45 111 -24 50 -59 122 -76 160 -36 81 -67 127 -79 120 -10 -6 -24
31 -15 44 6 11 -40 100 -61 117 -8 6 -14 20 -14 30 0 10 -14 37 -30 58 -17 22
-30 46 -30 53 0 18 -65 147 -100 198 -15 22 -63 115 -108 206 -44 92 -85 170
-91 174 -6 3 -11 14 -11 23 0 9 -29 75 -65 148 -35 73 -67 145 -71 161 -3 15
-17 47 -30 69 -13 23 -31 63 -39 88 -9 26 -26 68 -37 94 -25 55 -29 77 -31
170 -1 64 21 195 38 222 5 8 8 38 8 67 0 29 4 56 8 59 14 8 11 218 -3 232 -8
8 -8 15 0 25 7 8 10 16 8 18 -2 2 -7 40 -11 84 -7 98 -34 296 -42 308 -3 4 -8
32 -13 60 -11 75 -75 296 -103 358 -9 19 -19 45 -23 59 -4 14 -19 52 -35 85
-15 33 -53 121 -83 195 -112 276 -178 426 -194 444 -15 16 -66 47 -74 45 -2 0
-9 -3 -15 -6z m-1123 -1339 c21 -19 42 -45 46 -56 3 -12 13 -37 22 -57 17 -38
24 -178 10 -187 -4 -3 -8 -15 -8 -27 0 -39 -47 -125 -93 -171 -83 -82 -161
-82 -224 0 -27 36 -28 41 -28 153 0 156 9 198 56 271 32 49 49 66 92 85 69 32
80 32 127 -11z m742 -16 c61 -42 81 -86 83 -186 1 -42 -2 -84 -6 -92 -4 -8
-18 -44 -30 -79 -25 -70 -91 -154 -143 -183 -44 -24 -111 -33 -155 -20 -97 29
-137 146 -105 307 26 130 85 219 177 264 63 32 122 28 179 -11z m497 -559 c17
-6 31 -14 31 -19 0 -21 -37 -28 -170 -31 -140 -4 -145 -3 -145 16 0 15 11 23
45 32 58 15 198 16 239 2z m-212 -203 c50 -18 222 -102 247 -121 46 -35 -16
-61 -64 -27 -14 9 -38 22 -55 29 -168 65 -220 91 -223 111 -3 18 2 22 26 22
16 0 47 -6 69 -14z"/>
<path d="M2239 8296 c-66 -45 -100 -169 -85 -309 10 -87 38 -131 86 -135 45
-3 102 30 94 55 -4 13 -3 15 4 5 7 -11 14 -8 32 15 36 47 50 92 50 167 0 118
-42 219 -84 203 -8 -3 -20 1 -26 9 -17 20 -30 18 -71 -10z"/>
<path d="M2941 8281 c-103 -69 -153 -219 -117 -345 38 -131 143 -144 230 -30
117 154 98 380 -35 400 -27 4 -44 -2 -78 -25z"/>
</g>
</svg>
