<?xml version="1.0" standalone="no"?>
<!DOCTYPE svg PUBLIC "-//W3C//DTD SVG 20010904//EN"
 "http://www.w3.org/TR/2001/REC-SVG-20010904/DTD/svg10.dtd">
<svg version="1.0" xmlns="http://www.w3.org/2000/svg"
 width="704.000000pt" height="1280.000000pt" viewBox="0 0 704.000000 1280.000000"
 preserveAspectRatio="xMidYMid meet">
<metadata>
Created by potrace 1.16, written by Peter Selinger 2001-2019
</metadata>
<g transform="translate(0.000000,1280.000000) scale(0.100000,-0.100000)"
fill="#000000" stroke="none">
<path d="M3497 9668 c-28 -38 -59 -117 -80 -203 -28 -112 -74 -262 -100 -321
-14 -32 -32 -79 -40 -104 -28 -82 -63 -175 -80 -206 -15 -30 -20 -32 -89 -37
-40 -3 -79 -1 -87 3 -12 7 -40 2 -97 -15 -18 -6 -23 1 -43 57 -12 35 -26 82
-31 105 -5 24 -16 56 -25 72 -8 17 -15 39 -15 49 0 11 -13 46 -30 78 -16 32
-30 68 -30 80 0 11 -12 49 -26 85 -14 35 -30 80 -36 99 -14 50 -55 137 -67
145 -6 3 -11 15 -11 26 0 29 -48 69 -81 69 -20 0 -34 -8 -45 -26 -24 -35 -68
-175 -93 -291 -12 -54 -30 -136 -41 -183 -10 -47 -22 -107 -25 -135 -4 -27
-15 -88 -25 -135 -29 -134 -41 -217 -47 -333 l-6 -109 -55 -46 c-170 -144
-308 -329 -361 -485 l-18 -52 -44 2 c-160 7 -181 6 -196 -10 -9 -8 -13 -23
-10 -31 5 -13 23 -16 84 -17 43 -1 92 -4 108 -8 30 -6 30 -7 30 -75 0 -64 -2
-69 -27 -82 -15 -8 -67 -23 -115 -35 -123 -28 -123 -28 -123 -50 0 -16 7 -19
49 -19 27 0 88 11 136 25 48 14 89 24 91 23 1 -2 9 -22 17 -46 20 -59 77 -151
105 -171 13 -9 50 -37 82 -63 33 -27 61 -48 64 -48 3 0 25 -14 48 -30 113 -80
207 -135 318 -185 47 -21 89 -42 94 -46 5 -4 10 -45 12 -91 2 -46 6 -146 9
-223 8 -172 8 -152 -5 -205 -7 -25 -17 -63 -22 -85 -6 -22 -17 -54 -24 -72 -8
-17 -14 -39 -14 -50 0 -10 -11 -36 -25 -58 -38 -62 -138 -268 -138 -285 0 -8
-3 -17 -7 -20 -4 -3 -17 -23 -29 -45 -12 -22 -35 -62 -51 -90 -16 -27 -30 -60
-30 -73 0 -12 -16 -45 -35 -73 -19 -28 -35 -59 -35 -68 0 -9 -7 -26 -15 -37
-18 -26 -113 -314 -122 -369 -3 -22 -14 -59 -25 -83 -10 -24 -18 -62 -18 -85
0 -23 -6 -63 -14 -88 -28 -93 -38 -346 -18 -479 6 -41 21 -102 32 -135 11 -33
22 -67 24 -75 2 -8 8 -14 14 -13 5 1 12 -14 15 -33 7 -45 23 -64 52 -64 18 0
21 -5 18 -23 -3 -16 8 -35 39 -69 63 -69 203 -176 276 -210 34 -17 62 -36 62
-43 0 -7 -14 -42 -30 -77 -20 -43 -35 -96 -44 -163 -12 -92 -12 -107 6 -200
14 -70 31 -120 56 -165 49 -89 110 -170 127 -170 8 0 15 -6 15 -14 0 -8 12
-24 28 -35 15 -12 32 -24 37 -29 50 -39 118 -83 153 -101 36 -18 42 -19 42 -6
0 9 5 13 10 10 6 -4 8 -11 4 -16 -6 -10 67 -46 121 -60 17 -4 48 -13 70 -19
52 -15 175 -31 246 -32 104 -1 172 39 227 132 22 36 27 57 26 110 0 63 -18
122 -39 124 -5 0 -25 15 -44 32 -36 35 -150 77 -238 89 -29 4 -55 11 -59 16
-3 5 -23 9 -45 9 -27 0 -39 4 -39 14 0 8 -20 26 -45 41 -124 72 -144 238 -42
343 23 24 49 48 58 52 37 20 166 32 350 30 169 -1 211 -4 310 -26 63 -14 127
-25 144 -24 16 0 62 -4 103 -10 87 -14 132 -7 132 21 0 10 5 19 10 19 6 0 10
-8 8 -17 -2 -15 4 -18 37 -17 22 1 54 5 70 9 17 3 40 8 52 11 12 2 36 16 54
31 17 15 38 28 45 29 7 1 27 12 43 23 16 12 90 37 163 55 124 31 224 73 273
114 11 9 42 35 69 56 27 22 63 62 81 91 18 28 40 56 48 63 14 12 34 51 86 164
11 26 21 59 21 73 0 14 7 42 16 63 24 53 34 124 21 140 -8 10 -8 15 0 20 11 7
10 103 -1 121 -4 6 -1 19 6 30 9 15 8 37 -5 108 -10 48 -17 100 -17 115 0 15
-4 37 -9 50 -5 13 -17 50 -27 83 -48 170 -62 206 -116 298 -15 26 -28 57 -28
68 0 11 -14 46 -30 77 -17 31 -52 105 -79 163 -27 58 -63 122 -80 141 -17 19
-28 38 -25 41 8 8 -43 109 -63 124 -8 6 -12 16 -9 21 3 5 -10 31 -29 58 -19
27 -35 55 -35 62 0 21 -50 120 -97 194 -24 37 -76 136 -117 221 -41 85 -79
158 -85 161 -6 4 -11 14 -11 22 0 9 -29 77 -65 151 -36 74 -65 142 -65 152 0
9 -14 41 -31 71 -17 30 -37 75 -45 100 -9 25 -25 65 -36 90 -11 25 -22 58 -25
75 -10 65 -11 150 -3 165 5 10 12 30 15 46 3 16 7 42 11 59 3 16 10 35 16 42
7 9 7 22 0 43 -7 20 -8 32 -1 36 6 3 9 15 6 25 -3 10 -1 22 4 25 10 6 13 217
3 227 -4 3 -8 43 -9 89 -4 120 -14 222 -32 308 -9 41 -17 86 -20 100 -18 105
-78 295 -144 455 -12 28 -34 82 -49 120 -15 39 -46 113 -68 165 -22 52 -58
138 -80 190 -81 195 -99 228 -131 244 -43 23 -57 20 -84 -16z m-1345 -1595
c-7 -150 30 -228 103 -218 19 2 45 11 57 20 39 27 87 96 94 134 10 63 11 64
39 44 31 -23 31 -28 0 -94 -26 -58 -81 -117 -132 -143 -95 -48 -176 16 -194
151 -9 77 5 193 25 193 9 0 11 -24 8 -87z m662 -25 c-5 -50 -2 -75 15 -119 24
-62 42 -83 83 -93 57 -13 137 47 178 135 19 40 28 49 49 49 14 0 32 -4 40 -9
24 -15 -13 -92 -72 -153 -64 -66 -142 -96 -205 -79 -45 13 -107 74 -117 116
-9 40 -6 162 6 191 17 45 28 26 23 -38z m841 -279 c13 -13 14 -18 3 -26 -14
-12 -293 -22 -304 -11 -15 16 7 37 48 47 68 16 234 9 253 -10z m-214 -199 c81
-32 212 -100 233 -120 37 -37 -17 -56 -64 -22 -14 9 -38 22 -55 29 -168 65
-220 91 -223 111 -3 18 2 22 27 22 17 0 53 -9 82 -20z"/>
</g>
</svg>
