<?xml version="1.0" standalone="no"?>
<!DOCTYPE svg PUBLIC "-//W3C//DTD SVG 20010904//EN"
 "http://www.w3.org/TR/2001/REC-SVG-20010904/DTD/svg10.dtd">
<svg version="1.0" xmlns="http://www.w3.org/2000/svg"
 width="704.000000pt" height="1280.000000pt" viewBox="0 0 704.000000 1280.000000"
 preserveAspectRatio="xMidYMid meet">
<metadata>
Created by potrace 1.16, written by Peter Selinger 2001-2019
</metadata>
<g transform="translate(0.000000,1280.000000) scale(0.100000,-0.100000)"
fill="#000000" stroke="none">
<path d="M3490 9658 c-17 -23 -33 -53 -37 -67 -3 -14 -9 -30 -13 -36 -4 -5
-12 -37 -19 -70 -16 -73 -75 -264 -101 -325 -11 -25 -30 -76 -43 -115 -39
-113 -48 -137 -73 -192 l-24 -53 -49 0 c-27 0 -62 -5 -77 -10 -20 -8 -29 -8
-35 1 -5 8 -21 9 -55 3 -27 -4 -53 -8 -57 -9 -5 0 -19 36 -33 80 -14 44 -32
100 -40 125 -8 25 -20 62 -25 83 -5 21 -21 61 -34 87 -14 27 -25 58 -25 68 0
11 -13 50 -28 88 -16 38 -32 82 -36 97 -14 58 -97 214 -120 227 -73 38 -102
-12 -171 -295 -49 -201 -65 -271 -75 -345 -6 -41 -17 -104 -25 -140 -30 -137
-35 -174 -41 -295 l-7 -125 -46 -37 c-74 -59 -192 -183 -243 -254 -43 -60
-111 -191 -139 -266 l-11 -33 -112 6 c-90 5 -115 3 -131 -9 -36 -27 -5 -43 98
-50 131 -9 127 -6 124 -85 l-4 -66 -39 -18 c-21 -9 -83 -27 -137 -39 -88 -20
-98 -25 -95 -43 3 -19 9 -21 58 -18 30 2 93 14 139 28 45 14 84 24 85 22 1 -2
11 -25 20 -53 29 -80 75 -144 135 -188 31 -23 67 -51 81 -64 14 -13 28 -23 33
-23 9 0 60 -35 97 -66 55 -47 321 -184 356 -184 9 0 14 -11 14 -27 1 -16 3
-71 5 -123 3 -52 7 -144 9 -203 2 -60 7 -111 9 -114 3 -2 -1 -20 -9 -38 -8
-19 -14 -46 -14 -59 0 -14 -6 -40 -14 -58 -8 -18 -24 -64 -36 -103 -12 -38
-29 -81 -39 -95 -37 -53 -135 -259 -127 -267 3 -3 0 -10 -5 -17 -36 -39 -109
-189 -109 -221 0 -12 -9 -30 -21 -41 -25 -23 -49 -67 -49 -90 0 -10 -6 -25
-14 -33 -22 -26 -120 -329 -131 -406 -2 -11 -10 -37 -19 -57 -9 -21 -16 -54
-16 -75 0 -21 -7 -60 -16 -88 -22 -69 -33 -353 -17 -465 12 -90 25 -138 49
-183 8 -15 12 -32 9 -37 -3 -6 1 -13 9 -16 9 -3 16 -14 16 -25 0 -32 22 -68
44 -71 14 -2 21 -11 22 -25 1 -13 7 -30 15 -39 17 -21 13 -46 -16 -104 -30
-58 -65 -207 -65 -271 0 -28 5 -71 10 -97 6 -26 16 -69 22 -97 12 -56 61 -170
78 -180 5 -3 19 -24 30 -45 45 -88 286 -298 325 -283 8 3 23 -4 33 -14 27 -31
111 -47 164 -32 23 7 52 19 63 26 11 7 27 13 36 13 26 0 82 77 81 111 0 16 4
31 9 34 28 18 -12 125 -66 178 -17 18 -53 48 -80 67 -62 44 -135 118 -135 136
0 7 -6 17 -12 21 -9 6 -12 35 -10 105 4 112 8 116 88 97 126 -28 305 -36 664
-29 182 4 313 -7 365 -31 55 -24 176 -42 243 -36 30 3 64 2 76 -2 37 -14 97
-1 106 23 7 17 9 18 9 4 1 -12 9 -18 25 -18 47 0 73 17 81 52 l7 33 9 -32 c5
-18 12 -33 16 -33 10 0 98 45 104 53 3 5 12 9 20 10 8 2 36 15 62 30 25 15 66
31 89 36 113 23 199 51 263 86 83 44 185 131 216 183 12 20 33 49 47 64 30 32
112 212 112 245 0 13 9 42 21 65 18 35 21 62 24 200 3 149 -1 202 -24 323 -13
72 -40 167 -52 181 -5 6 -9 16 -8 20 7 28 -39 146 -93 237 -16 27 -27 54 -26
61 2 7 -20 60 -48 117 -28 57 -68 139 -88 181 -21 43 -48 86 -62 97 -14 11
-22 25 -18 34 6 18 -28 89 -57 118 -11 11 -17 24 -14 28 3 5 -11 32 -30 61
-19 29 -35 56 -35 61 0 18 -77 165 -113 215 -20 28 -37 55 -37 59 0 15 -138
293 -149 299 -6 4 -11 14 -11 23 0 9 -29 77 -65 151 -36 74 -65 142 -65 151 0
9 -14 41 -31 71 -17 30 -42 89 -56 130 -14 41 -29 80 -33 85 -20 28 -32 168
-18 220 6 22 13 56 15 75 3 19 10 47 17 61 8 16 10 34 4 49 -5 15 -4 28 4 38
15 17 25 282 12 282 -5 0 -9 42 -10 93 -1 109 -16 244 -39 348 -29 129 -58
243 -65 259 -4 8 -18 44 -30 80 -44 129 -88 238 -205 515 -140 334 -146 346
-179 366 -45 28 -62 24 -96 -23z m-1123 -1305 c26 -12 42 -31 65 -77 47 -97
54 -214 18 -306 -60 -153 -178 -234 -259 -178 -58 39 -75 71 -82 156 -9 97 7
213 37 273 28 57 98 129 124 129 10 0 22 5 25 10 9 14 32 12 72 -7z m785 -53
c55 -58 63 -86 56 -203 -12 -198 -133 -347 -282 -347 -109 0 -175 110 -160
269 8 88 28 145 71 209 56 83 123 120 218 121 46 1 52 -2 97 -49z m508 -530
c19 -30 -12 -38 -160 -42 -139 -3 -145 -2 -145 17 0 30 70 45 193 42 78 -2
105 -6 112 -17z m-216 -204 c79 -30 205 -92 228 -113 20 -18 13 -43 -13 -43
-22 0 -69 21 -69 30 0 4 -10 10 -22 13 -21 5 -184 70 -218 87 -8 4 -16 17 -18
29 -5 29 29 28 112 -3z"/>
<path d="M2233 8279 c-75 -48 -122 -239 -88 -356 22 -74 55 -107 98 -98 44 9
96 53 132 110 28 46 30 54 29 144 -1 78 -5 105 -24 144 -17 37 -27 47 -41 44
-10 -3 -26 4 -35 14 -22 24 -31 24 -71 -2z"/>
<path d="M2924 8258 c-27 -19 -59 -52 -74 -78 -63 -110 -65 -273 -3 -342 90
-101 256 44 270 238 5 66 3 78 -23 129 -47 94 -89 107 -170 53z"/>
</g>
</svg>
