<?xml version="1.0" standalone="no"?>
<!DOCTYPE svg PUBLIC "-//W3C//DTD SVG 20010904//EN"
 "http://www.w3.org/TR/2001/REC-SVG-20010904/DTD/svg10.dtd">
<svg version="1.0" xmlns="http://www.w3.org/2000/svg"
 width="704.000000pt" height="1280.000000pt" viewBox="0 0 704.000000 1280.000000"
 preserveAspectRatio="xMidYMid meet">
<metadata>
Created by potrace 1.16, written by Peter Selinger 2001-2019
</metadata>
<g transform="translate(0.000000,1280.000000) scale(0.100000,-0.100000)"
fill="#000000" stroke="none">
<path d="M3514 9696 c-24 -17 -76 -137 -94 -216 -6 -30 -18 -73 -25 -95 -8
-22 -26 -80 -41 -130 -15 -49 -35 -107 -46 -127 -10 -21 -18 -44 -18 -53 0 -9
-13 -45 -30 -80 -16 -35 -30 -71 -30 -80 0 -8 -12 -38 -26 -66 -26 -49 -27
-50 -73 -50 -90 0 -186 -6 -207 -13 -19 -7 -23 0 -48 81 -15 48 -32 102 -37
118 -6 17 -20 59 -31 94 -11 35 -28 77 -39 95 -10 17 -19 40 -19 51 0 23 -24
95 -45 136 -8 15 -15 36 -15 46 0 10 -18 54 -40 98 -22 44 -40 85 -40 91 0 17
-58 64 -80 64 -69 0 -111 -142 -235 -780 -8 -41 -17 -91 -20 -110 -26 -178
-35 -260 -30 -288 5 -29 2 -37 -32 -65 -83 -70 -213 -206 -260 -272 -54 -75
-111 -183 -133 -252 l-13 -43 -111 6 c-90 5 -115 3 -131 -9 -37 -28 -5 -43
107 -50 56 -4 105 -10 109 -14 4 -4 5 -38 2 -75 l-6 -68 -51 -18 c-28 -10 -88
-27 -134 -37 -73 -16 -83 -21 -80 -39 3 -19 9 -21 58 -18 29 2 90 14 135 27
44 13 83 21 86 17 3 -4 14 -29 24 -57 24 -66 66 -127 116 -167 23 -18 58 -47
78 -63 20 -17 47 -36 61 -43 38 -18 64 -36 73 -49 12 -20 316 -184 378 -205 9
-3 18 -150 22 -375 1 -39 5 -74 9 -78 3 -4 0 -22 -8 -40 -8 -19 -14 -45 -14
-57 -1 -24 -33 -124 -44 -135 -3 -3 -6 -16 -6 -28 0 -25 -23 -75 -55 -120 -21
-30 -78 -144 -100 -200 -18 -47 -63 -136 -90 -180 -14 -22 -30 -58 -37 -80 -6
-22 -24 -58 -40 -79 -15 -22 -28 -50 -28 -62 0 -12 -9 -33 -20 -47 -11 -14
-20 -32 -20 -40 0 -8 -16 -59 -35 -113 -20 -55 -47 -141 -60 -192 -13 -51 -27
-97 -31 -104 -4 -6 -10 -38 -14 -72 -10 -80 -31 -179 -41 -190 -4 -4 -52 3
-106 18 -248 65 -476 2 -664 -185 -80 -78 -139 -165 -139 -202 0 -8 -9 -35
-20 -61 -26 -57 -47 -223 -32 -238 7 -7 9 -29 5 -55 -4 -29 -2 -43 6 -43 6 0
11 -15 11 -35 0 -48 50 -151 97 -201 73 -78 150 -100 226 -65 26 12 58 26 72
31 14 5 25 15 25 22 0 6 12 24 26 39 25 26 25 27 15 115 -5 49 -17 103 -25
119 -23 44 -21 178 3 230 47 99 132 149 253 148 43 0 83 -5 90 -10 7 -6 35
-16 61 -23 26 -7 52 -21 57 -31 6 -10 19 -21 30 -24 11 -3 20 -13 20 -21 0 -8
4 -14 8 -14 11 0 42 -66 42 -89 0 -10 7 -24 15 -31 8 -7 14 -18 13 -24 -2 -6
3 -26 11 -43 10 -25 20 -33 38 -33 21 0 24 -4 20 -21 -4 -16 13 -40 82 -107
48 -48 118 -109 155 -137 37 -27 87 -67 109 -87 45 -40 52 -44 62 -28 12 20
24 9 35 -29 8 -32 20 -45 58 -67 26 -15 54 -32 62 -39 8 -6 29 -17 45 -22 17
-6 39 -15 50 -19 11 -4 22 -8 25 -9 3 0 20 -11 39 -22 19 -12 57 -25 85 -28
28 -4 59 -12 69 -17 10 -5 50 -13 90 -18 40 -6 95 -14 124 -19 48 -9 230 -1
341 15 42 6 69 24 36 24 -32 0 0 18 45 25 31 5 42 4 37 -4 -13 -20 36 -11 114
19 41 17 82 30 90 30 8 0 42 15 75 33 56 30 60 34 57 64 -4 41 14 52 22 13 3
-17 10 -30 16 -30 5 0 33 15 62 34 71 45 111 56 215 62 90 5 276 37 393 69 78
21 160 65 216 116 22 20 53 44 67 54 15 10 30 28 33 42 4 13 9 22 11 19 8 -7
71 74 89 114 8 19 28 60 44 90 15 30 33 82 40 115 7 32 19 70 28 83 12 19 16
55 16 181 0 86 -3 179 -6 206 -14 111 -20 151 -28 175 -5 14 -16 52 -25 85 -9
33 -21 69 -26 80 -4 11 -13 38 -18 60 -6 22 -31 76 -56 119 -25 44 -45 90 -45
104 0 13 -9 36 -19 51 -10 14 -33 60 -51 101 -46 106 -94 199 -132 253 -11 15
-17 27 -13 27 8 0 -23 59 -51 97 -13 17 -24 40 -24 50 0 10 -13 34 -30 53 -16
19 -29 42 -30 51 0 23 -68 159 -95 191 -21 25 -70 120 -153 298 -17 36 -40 79
-51 95 -12 17 -21 36 -21 43 0 7 -29 71 -65 143 -36 71 -65 139 -65 149 0 11
-13 41 -28 67 -16 27 -37 73 -47 103 -10 30 -27 75 -39 100 -27 60 -29 197 -2
295 10 39 19 87 19 107 1 20 5 34 9 32 4 -3 8 4 8 15 0 12 -6 21 -12 21 -10 0
-10 2 -1 8 14 9 19 177 8 282 -4 41 -7 89 -6 105 5 80 -67 467 -100 545 -6 14
-13 36 -16 50 -2 14 -16 52 -29 85 -14 33 -28 69 -31 80 -3 11 -20 56 -38 100
-18 44 -52 127 -75 185 -23 58 -56 134 -72 169 -16 35 -47 109 -70 165 -42
105 -64 138 -110 162 -33 17 -29 17 -54 0z m-1129 -1348 c44 -35 87 -139 86
-212 -1 -126 -30 -212 -97 -285 -83 -92 -192 -92 -240 1 -27 52 -35 167 -19
259 21 125 70 203 150 240 53 25 86 24 120 -3z m752 -24 c67 -55 76 -74 78
-167 3 -130 -36 -241 -112 -323 -39 -43 -121 -84 -168 -84 -59 0 -132 53 -154
113 -27 70 -7 256 36 340 35 69 110 131 178 148 67 16 96 10 142 -27z m507
-544 c14 -5 26 -13 26 -17 -1 -26 -23 -31 -165 -34 -145 -4 -150 -3 -150 16 0
15 11 23 45 32 56 14 210 16 244 3z m-223 -205 c63 -22 245 -113 259 -130 30
-36 -45 -50 -80 -15 -11 11 -27 20 -35 20 -9 0 -41 13 -73 29 -31 16 -76 34
-99 41 -46 14 -79 42 -68 59 9 15 45 14 96 -4z"/>
<path d="M2217 8270 c-52 -45 -79 -123 -80 -235 -3 -158 47 -230 136 -196 30
12 67 49 63 65 -2 6 -1 7 2 3 9 -16 42 27 58 76 22 66 14 186 -17 252 -19 40
-25 46 -45 41 -12 -3 -24 -2 -26 3 -2 5 -15 12 -29 16 -21 5 -34 0 -62 -25z"/>
<path d="M2942 8279 c-39 -20 -78 -64 -111 -126 -6 -12 -16 -58 -22 -102 -35
-258 155 -330 273 -103 20 39 40 92 44 118 8 55 -11 153 -32 161 -8 3 -14 11
-14 19 0 16 -57 54 -80 54 -8 0 -34 -10 -58 -21z"/>
</g>
</svg>
