<?xml version="1.0" standalone="no"?>
<!DOCTYPE svg PUBLIC "-//W3C//DTD SVG 20010904//EN"
 "http://www.w3.org/TR/2001/REC-SVG-20010904/DTD/svg10.dtd">
<svg version="1.0" xmlns="http://www.w3.org/2000/svg"
 width="704.000000pt" height="1280.000000pt" viewBox="0 0 704.000000 1280.000000"
 preserveAspectRatio="xMidYMid meet">
<metadata>
Created by potrace 1.16, written by Peter Selinger 2001-2019
</metadata>
<g transform="translate(0.000000,1280.000000) scale(0.100000,-0.100000)"
fill="#000000" stroke="none">
<path d="M3507 9682 c-32 -34 -59 -95 -86 -198 -33 -128 -142 -447 -176 -521
-8 -17 -15 -37 -15 -44 0 -6 -12 -37 -26 -67 l-26 -54 -42 5 c-28 4 -52 1 -70
-8 -36 -19 -46 -19 -46 0 0 19 -28 19 -75 -1 -20 -8 -40 -12 -44 -9 -3 4 -11
28 -17 53 -12 48 -23 81 -55 167 -11 28 -19 57 -19 66 0 9 -13 42 -29 75 -16
32 -31 73 -34 89 -3 17 -14 55 -26 85 -12 30 -31 81 -42 114 -11 32 -29 75
-39 95 -10 20 -25 50 -33 66 -19 41 -62 68 -93 61 -37 -10 -83 -131 -128 -331
-46 -209 -67 -308 -75 -361 -5 -32 -17 -97 -25 -144 -21 -109 -45 -294 -44
-342 0 -31 -6 -42 -33 -64 -64 -51 -228 -224 -267 -281 -55 -82 -111 -190
-124 -241 l-11 -43 -111 7 c-89 5 -115 3 -130 -9 -12 -9 -17 -20 -13 -31 5
-12 21 -16 74 -17 37 0 88 -4 113 -7 50 -8 47 1 38 -112 -4 -44 -33 -60 -170
-92 -87 -20 -98 -25 -96 -43 3 -17 9 -20 53 -17 27 1 86 12 130 25 44 12 84
22 88 22 4 0 19 -27 32 -59 34 -85 81 -148 136 -186 26 -17 58 -43 70 -56 12
-13 29 -24 37 -24 8 0 35 -17 61 -38 63 -52 326 -199 402 -224 6 -2 12 -54 14
-123 7 -164 14 -322 17 -332 1 -4 -4 -28 -11 -53 -7 -25 -17 -63 -23 -85 -6
-22 -16 -56 -24 -75 -7 -19 -16 -49 -19 -67 -4 -18 -18 -49 -32 -70 -31 -45
-133 -244 -133 -258 0 -6 -13 -35 -30 -65 -59 -108 -89 -173 -84 -182 3 -5
-10 -30 -30 -55 -20 -26 -36 -56 -36 -67 0 -12 -9 -32 -20 -46 -11 -14 -20
-32 -20 -40 0 -8 -14 -53 -31 -100 -37 -102 -80 -252 -75 -258 3 -2 -4 -24
-15 -49 -10 -24 -19 -56 -19 -70 0 -14 -9 -69 -20 -123 -39 -193 -32 -462 15
-590 9 -25 19 -55 22 -68 4 -17 10 -21 24 -17 16 5 18 2 13 -22 -9 -46 11 -83
44 -83 21 0 28 -5 28 -19 0 -11 -4 -17 -8 -15 -4 3 -8 2 -8 -3 0 -11 123 -128
163 -156 18 -13 51 -36 74 -53 23 -17 67 -43 98 -58 30 -15 55 -33 55 -40 0
-7 -12 -24 -28 -38 -68 -62 -125 -134 -216 -270 -119 -180 -178 -242 -277
-290 -88 -44 -161 -58 -289 -57 -52 1 -117 1 -145 0 -27 0 -66 0 -85 0 -43 -1
-87 -18 -94 -38 -3 -8 -10 -12 -15 -9 -10 7 -22 -6 -50 -57 -32 -57 -28 -129
10 -206 46 -92 122 -132 259 -137 36 -2 74 -3 85 -4 48 -4 225 13 275 27 30 8
73 18 95 22 22 4 51 14 65 22 14 7 45 21 70 29 116 39 234 127 331 248 36 46
148 222 149 235 0 4 16 26 36 47 20 22 43 48 50 59 29 40 166 141 241 176 43
20 92 43 108 51 17 8 45 17 63 19 56 7 117 28 139 48 17 15 26 17 35 9 10 -8
39 -7 105 3 50 8 182 16 294 20 111 3 206 8 211 12 10 5 142 20 263 29 39 3
77 8 85 11 8 3 33 5 55 4 124 -6 414 64 515 123 117 69 226 178 213 214 -3 7
3 12 14 12 21 0 31 15 90 130 24 47 46 107 49 135 4 28 13 59 20 70 23 36 30
114 22 230 -1 17 -7 33 -13 37 -6 5 -6 11 3 20 6 6 12 30 12 53 0 58 -26 209
-49 285 -10 36 -29 98 -40 139 -24 80 -36 108 -88 193 -19 31 -32 61 -29 67 4
5 -7 36 -23 68 -16 32 -55 111 -86 177 -32 65 -66 127 -77 138 -11 11 -25 40
-33 64 -7 25 -25 60 -39 79 -14 18 -26 39 -26 46 0 14 -41 83 -52 87 -4 2 -8
10 -8 18 0 21 -73 164 -113 221 -20 29 -37 55 -37 57 0 14 -150 315 -159 320
-6 4 -11 14 -11 22 0 8 -28 74 -63 147 -35 72 -69 150 -75 173 -7 23 -23 58
-37 78 -14 20 -25 42 -25 49 0 19 -40 120 -54 137 -25 28 -9 280 21 350 11 24
9 110 -2 110 -5 0 -2 5 8 11 16 9 18 25 16 155 -1 79 -5 147 -9 149 -5 3 -6
14 -3 25 12 45 -30 331 -72 500 -9 36 -19 75 -22 88 -3 12 -9 25 -14 28 -5 3
-9 13 -9 23 0 24 -65 209 -104 293 -8 18 -39 94 -69 169 -30 74 -68 164 -85
200 -16 35 -33 74 -37 87 -15 51 -74 168 -91 184 -11 9 -31 21 -45 27 -23 8
-30 6 -52 -17z m-1114 -1339 c11 -10 33 -46 48 -81 23 -51 29 -78 30 -145 1
-72 -3 -93 -30 -158 -31 -74 -86 -141 -138 -168 -61 -31 -137 -1 -173 68 -21
42 -30 204 -15 276 35 170 190 286 278 208z m744 -19 c63 -52 74 -79 74 -187
0 -92 -17 -163 -55 -233 -53 -96 -158 -162 -241 -151 -52 8 -70 18 -109 64
-27 32 -29 42 -34 131 -11 240 104 407 282 411 31 1 48 -7 83 -35z m491 -540
c31 -6 50 -31 35 -45 -4 -4 -75 -9 -158 -10 -145 -4 -150 -3 -150 16 0 15 11
23 45 32 49 12 180 17 228 7z m-195 -215 c69 -23 231 -105 248 -125 29 -35
-33 -46 -74 -14 -14 11 -30 20 -36 20 -5 0 -45 15 -88 34 -43 18 -94 39 -115
45 -35 12 -54 34 -42 52 8 14 39 11 107 -12z"/>
<path d="M2245 8290 c-33 -13 -62 -51 -85 -110 -26 -67 -33 -239 -11 -280 23
-43 53 -70 78 -70 39 0 123 49 123 72 0 5 -4 6 -10 3 -5 -3 -10 -2 -10 4 0 5
5 13 10 16 6 3 10 1 10 -4 0 -29 21 -5 39 43 28 76 24 202 -9 269 -24 48 -34
55 -45 37 -4 -6 -17 -3 -35 10 -15 11 -30 20 -32 19 -1 0 -12 -4 -23 -9z"/>
<path d="M2945 8278 c-73 -38 -119 -115 -137 -230 -14 -95 5 -172 54 -213 27
-23 39 -26 78 -22 38 4 51 12 84 49 78 88 116 200 97 287 -17 79 -75 150 -121
150 -8 0 -33 -9 -55 -21z"/>
</g>
</svg>
