<?xml version="1.0" standalone="no"?>
<!DOCTYPE svg PUBLIC "-//W3C//DTD SVG 20010904//EN"
 "http://www.w3.org/TR/2001/REC-SVG-20010904/DTD/svg10.dtd">
<svg version="1.0" xmlns="http://www.w3.org/2000/svg"
 width="704.000000pt" height="1280.000000pt" viewBox="0 0 704.000000 1280.000000"
 preserveAspectRatio="xMidYMid meet">
<metadata>
Created by potrace 1.16, written by Peter Selinger 2001-2019
</metadata>
<g transform="translate(0.000000,1280.000000) scale(0.100000,-0.100000)"
fill="#000000" stroke="none">
<path d="M3518 9699 c-10 -5 -18 -19 -18 -29 0 -11 -5 -20 -11 -20 -5 0 -17
-17 -25 -37 -8 -21 -19 -47 -23 -58 -5 -11 -14 -44 -21 -74 -7 -30 -35 -120
-62 -200 -27 -80 -57 -173 -67 -207 -10 -33 -28 -79 -40 -102 -11 -23 -21 -48
-21 -57 0 -8 -12 -38 -26 -65 l-26 -50 -57 0 c-32 0 -62 -5 -69 -12 -10 -10
-15 -10 -21 1 -9 14 -53 12 -108 -4 -19 -6 -23 -2 -33 37 -5 23 -17 57 -24 73
-8 17 -17 44 -20 60 -7 42 -50 164 -75 213 -12 23 -21 50 -21 60 0 10 -12 47
-26 83 -14 35 -32 85 -40 111 -8 26 -28 72 -44 103 -17 32 -30 62 -30 68 0 20
-53 67 -76 67 -12 0 -31 -8 -42 -17 -30 -27 -74 -165 -117 -368 -58 -272 -65
-309 -60 -326 3 -9 2 -20 -3 -23 -8 -5 -17 -41 -42 -181 -23 -126 -34 -264
-22 -277 9 -12 1 -22 -38 -52 -81 -62 -215 -205 -272 -291 -56 -84 -128 -229
-128 -258 0 -15 -11 -16 -118 -11 -101 6 -119 5 -131 -9 -27 -33 -7 -47 71
-48 110 0 154 -11 151 -34 -2 -11 -4 -42 -5 -70 -3 -46 -6 -51 -38 -67 -19
-10 -78 -27 -132 -39 -80 -18 -98 -26 -98 -41 0 -10 6 -18 13 -19 51 -4 118 6
184 26 43 14 80 21 84 17 3 -4 14 -29 24 -57 28 -76 67 -126 154 -199 44 -36
83 -66 85 -66 3 0 25 -14 48 -30 104 -74 234 -149 338 -196 47 -21 86 -39 88
-40 3 -2 11 -173 16 -344 1 -53 5 -101 9 -107 4 -6 3 -14 -2 -18 -6 -3 -13
-27 -16 -53 -9 -65 -72 -250 -100 -292 -35 -54 -82 -142 -90 -170 -11 -34 -80
-176 -110 -225 -14 -22 -30 -58 -37 -80 -6 -22 -24 -58 -39 -80 -15 -22 -30
-54 -34 -72 -3 -17 -13 -37 -21 -44 -8 -6 -14 -19 -14 -28 -1 -9 -8 -34 -16
-56 -49 -130 -112 -354 -124 -435 -10 -74 -39 -212 -45 -219 -3 -3 -47 16 -98
41 -64 32 -115 50 -168 58 -107 17 -277 2 -376 -34 -101 -36 -295 -196 -323
-266 -7 -19 -19 -42 -25 -50 -24 -31 -65 -176 -65 -231 0 -61 31 -135 64 -153
11 -6 34 -26 52 -44 l33 -33 38 16 c24 10 39 12 41 5 13 -38 119 30 151 98 13
27 21 55 19 63 -3 16 31 76 80 137 46 57 105 82 193 82 107 0 156 -30 225
-137 30 -46 54 -86 54 -90 0 -3 11 -21 25 -39 14 -18 25 -42 25 -53 0 -11 4
-30 10 -43 5 -13 27 -80 49 -150 47 -150 75 -208 148 -306 92 -125 206 -230
325 -300 58 -34 126 -69 150 -76 66 -21 146 -43 214 -61 83 -21 291 -47 323
-41 14 3 54 2 89 -3 35 -4 65 -4 67 -1 2 4 39 10 82 13 130 11 287 51 289 76
3 24 4 24 17 7 12 -17 19 -15 113 34 54 28 120 63 145 78 89 52 207 161 279
257 57 77 64 80 182 94 58 7 144 21 190 32 45 11 103 24 128 29 66 14 167 68
229 123 30 26 58 47 62 47 4 0 24 24 45 53 21 28 50 66 64 82 15 17 30 42 34
57 3 15 20 51 38 80 18 31 33 72 35 98 2 25 14 63 26 85 19 36 21 55 21 215
-1 96 -4 195 -7 220 -4 25 -9 60 -11 77 -12 95 -106 362 -155 438 -11 17 -20
39 -20 50 0 11 -25 70 -55 130 -29 61 -63 130 -75 155 -28 59 -51 98 -79 138
-13 17 -21 32 -18 32 10 0 -41 95 -58 109 -9 8 -16 22 -16 33 0 19 -36 80 -52
86 -4 2 -8 12 -8 22 0 26 -59 150 -88 185 -14 16 -62 106 -108 200 -46 93 -93
184 -104 200 -11 17 -20 36 -20 43 0 7 -27 66 -59 132 -33 65 -65 137 -71 161
-6 23 -22 59 -36 80 -13 21 -24 44 -24 50 0 11 -7 28 -51 127 -30 69 -32 203
-5 307 10 39 21 86 23 105 9 71 21 275 17 282 -3 4 -7 56 -10 115 -6 119 -29
317 -44 372 -5 20 -18 77 -30 126 -17 78 -37 139 -100 315 -29 79 -163 406
-195 475 -13 28 -42 97 -66 155 -50 125 -63 146 -100 166 -33 16 -38 17 -61 3z
m-1133 -1351 c15 -12 41 -51 57 -87 24 -51 30 -78 29 -130 -2 -153 -64 -282
-162 -332 -75 -38 -140 -15 -181 64 -31 61 -31 246 1 329 52 136 181 215 256
156z m755 -28 c68 -57 80 -88 75 -191 -6 -132 -64 -268 -139 -323 -93 -68
-180 -70 -251 -5 -35 32 -44 48 -50 87 -30 199 39 376 174 445 82 41 131 38
191 -13z m504 -540 c14 -5 26 -13 26 -17 -1 -26 -23 -31 -165 -34 -145 -4
-150 -3 -150 16 0 15 11 23 45 32 56 14 210 16 244 3z m-227 -204 c96 -34 237
-103 259 -128 33 -36 -21 -53 -66 -21 -14 10 -45 25 -70 34 -60 22 -171 68
-190 78 -8 4 -16 18 -18 30 -4 26 25 28 85 7z m-402 -3920 c94 1 232 2 308 4
92 3 141 0 145 -7 4 -6 16 -13 27 -16 11 -3 -1 -3 -26 0 -28 3 -56 0 -70 -7
-39 -21 -129 -41 -234 -52 -113 -12 -240 -1 -363 32 -85 23 -92 26 -92 47 0
14 9 15 68 7 37 -4 144 -8 237 -8z"/>
<path d="M2216 8269 c-45 -39 -72 -112 -81 -215 -11 -124 32 -224 96 -224 62
0 140 75 168 161 15 46 5 177 -18 238 -15 42 -20 46 -51 48 -19 1 -36 6 -38
12 -7 20 -41 11 -76 -20z"/>
<path d="M2930 8271 c-69 -44 -108 -117 -122 -227 -10 -82 -9 -93 11 -145 37
-96 118 -116 196 -48 44 39 104 159 111 224 7 55 -8 126 -31 149 -8 8 -15 19
-15 25 0 15 -60 51 -85 51 -11 0 -40 -13 -65 -29z"/>
</g>
</svg>
