<?xml version="1.0" standalone="no"?>
<!DOCTYPE svg PUBLIC "-//W3C//DTD SVG 20010904//EN"
 "http://www.w3.org/TR/2001/REC-SVG-20010904/DTD/svg10.dtd">
<svg version="1.0" xmlns="http://www.w3.org/2000/svg"
 width="704.000000pt" height="1280.000000pt" viewBox="0 0 704.000000 1280.000000"
 preserveAspectRatio="xMidYMid meet">
<metadata>
Created by potrace 1.16, written by Peter Selinger 2001-2019
</metadata>
<g transform="translate(0.000000,1280.000000) scale(0.100000,-0.100000)"
fill="#000000" stroke="none">
<path d="M3506 9681 c-24 -25 -76 -139 -76 -167 0 -31 -149 -474 -185 -551 -8
-17 -15 -37 -15 -44 0 -6 -12 -37 -26 -67 l-26 -54 -42 5 c-28 4 -52 1 -71 -9
-26 -14 -31 -14 -41 0 -14 20 -32 20 -79 0 -20 -8 -40 -12 -44 -9 -3 4 -11 28
-17 53 -12 48 -23 81 -55 167 -11 28 -19 57 -19 66 0 9 -13 42 -29 75 -16 32
-31 73 -34 89 -3 17 -14 55 -26 85 -12 30 -31 81 -42 114 -11 32 -29 75 -39
95 -10 20 -25 50 -33 66 -8 17 -27 39 -42 49 -40 26 -72 14 -95 -37 -23 -52
-64 -188 -84 -282 -9 -38 -25 -110 -35 -160 -11 -49 -27 -128 -35 -175 -9 -47
-23 -123 -31 -170 -21 -114 -44 -296 -43 -342 0 -31 -6 -42 -33 -64 -64 -51
-228 -224 -267 -281 -48 -71 -105 -183 -123 -241 l-12 -43 -111 7 c-89 5 -115
3 -130 -9 -12 -9 -17 -20 -13 -31 5 -13 21 -16 79 -17 40 0 91 -3 113 -7 44
-8 42 -3 33 -107 -4 -50 -29 -64 -170 -97 -87 -20 -98 -25 -96 -43 3 -17 9
-20 53 -17 28 2 86 13 130 25 44 12 84 22 88 22 4 0 19 -27 32 -59 34 -85 81
-148 136 -186 26 -17 58 -43 70 -56 12 -13 29 -24 37 -24 8 0 35 -17 61 -38
63 -52 326 -199 402 -224 6 -2 12 -54 14 -123 7 -164 14 -322 17 -332 1 -4 -4
-28 -11 -53 -7 -25 -17 -63 -23 -85 -6 -22 -16 -56 -24 -75 -7 -19 -16 -49
-19 -67 -4 -18 -18 -49 -32 -70 -31 -45 -133 -244 -133 -258 0 -6 -13 -35 -30
-65 -59 -108 -89 -173 -84 -182 3 -5 -10 -30 -30 -55 -20 -26 -36 -56 -36 -67
0 -12 -9 -32 -20 -46 -11 -14 -20 -32 -20 -40 0 -8 -14 -53 -31 -100 -37 -102
-80 -252 -75 -258 3 -2 -4 -24 -15 -49 -10 -24 -19 -59 -19 -76 0 -18 -5 -48
-10 -67 -55 -190 -42 -605 21 -675 5 -5 9 -20 9 -33 0 -19 4 -22 20 -17 17 5
19 3 14 -22 -9 -46 11 -83 44 -83 21 0 28 -5 28 -19 0 -11 -4 -17 -8 -15 -4 3
-8 2 -8 -3 0 -11 123 -128 163 -156 18 -13 51 -36 74 -53 23 -17 67 -43 98
-58 30 -15 55 -33 55 -40 0 -7 -12 -24 -28 -38 -68 -63 -125 -134 -216 -270
-54 -82 -119 -169 -145 -196 -99 -102 -235 -151 -413 -150 -166 1 -190 0 -251
-4 -36 -2 -64 -9 -71 -18 -6 -8 -20 -20 -31 -26 -36 -20 -65 -84 -65 -145 0
-43 7 -70 31 -118 46 -92 122 -132 259 -137 36 -2 74 -3 85 -4 48 -4 225 13
275 27 30 8 66 17 80 19 44 9 100 27 100 33 0 4 21 13 46 20 173 51 364 240
477 471 6 14 27 42 46 62 19 21 40 47 48 59 23 32 155 134 204 157 24 11 75
34 112 52 38 17 81 33 97 35 54 7 115 28 137 48 17 15 26 17 35 9 10 -8 39 -7
105 3 50 8 182 16 294 20 111 3 207 8 212 12 9 6 145 21 267 29 36 3 72 8 80
11 8 3 33 5 55 4 117 -5 405 61 504 116 118 66 237 184 224 221 -3 6 3 12 13
12 9 0 23 8 30 17 30 39 106 206 114 251 4 26 16 67 25 91 9 24 16 73 15 110
0 36 0 106 0 154 0 101 -21 242 -49 337 -10 36 -29 98 -40 138 -21 71 -44 121
-96 207 -14 22 -23 46 -20 53 2 7 -8 38 -24 70 -16 31 -57 115 -91 185 -34 70
-70 132 -80 137 -10 5 -20 26 -24 48 -3 21 -19 57 -36 80 -16 23 -30 48 -30
55 0 7 -13 31 -30 53 -16 21 -30 44 -30 51 0 18 -72 162 -104 208 -15 22 -65
117 -111 211 -46 95 -88 175 -94 178 -6 4 -11 14 -11 23 0 9 -28 75 -63 147
-35 72 -69 149 -75 172 -7 23 -23 58 -37 78 -14 20 -25 42 -25 49 0 19 -40
120 -54 137 -24 29 -9 273 22 350 10 25 8 110 -3 110 -5 0 -2 5 8 11 16 9 18
25 16 155 -1 79 -5 147 -9 149 -5 3 -6 14 -3 25 7 26 -13 218 -33 320 -34 174
-47 225 -74 295 -4 11 -16 49 -28 85 -24 76 -64 185 -86 232 -8 18 -29 67 -45
108 -42 106 -84 206 -114 270 -13 30 -28 66 -32 80 -16 52 -73 166 -91 182
-10 9 -31 21 -45 27 -23 8 -30 6 -53 -18z m-1113 -1338 c11 -10 33 -47 48 -81
58 -127 32 -302 -60 -404 -52 -58 -87 -78 -136 -78 -47 0 -90 30 -116 82 -30
58 -30 239 -1 321 52 145 189 227 265 160z m744 -19 c63 -52 74 -79 74 -187 0
-172 -76 -314 -195 -366 -82 -36 -142 -23 -205 42 -33 35 -34 39 -39 134 -9
208 72 359 218 404 60 18 101 10 147 -27z m492 -540 c24 -5 31 -12 31 -30 0
-24 -1 -24 -120 -26 -66 -1 -135 -2 -152 -2 -27 -1 -33 3 -33 19 0 15 11 23
45 32 49 13 180 17 229 7z m-196 -215 c69 -23 231 -105 248 -125 29 -35 -33
-46 -74 -14 -14 11 -30 20 -36 20 -5 0 -45 15 -88 34 -43 18 -94 39 -115 45
-35 12 -54 34 -42 52 8 14 39 11 107 -12z"/>
<path d="M2245 8290 c-32 -13 -62 -51 -85 -110 -27 -67 -33 -238 -11 -280 42
-77 91 -90 159 -40 23 17 42 35 42 41 0 5 -4 7 -10 4 -5 -3 -10 -2 -10 4 0 5
5 13 10 16 6 3 10 1 10 -4 0 -29 21 -5 39 43 28 76 24 202 -9 269 -24 48 -34
55 -45 37 -4 -6 -17 -3 -35 10 -15 11 -30 20 -32 19 -1 0 -12 -4 -23 -9z"/>
<path d="M2936 8272 c-131 -72 -178 -332 -80 -430 32 -32 38 -34 82 -29 40 4
53 12 86 49 62 69 100 160 99 238 0 62 -5 81 -39 143 -15 27 -61 57 -86 57 -7
0 -35 -13 -62 -28z"/>
</g>
</svg>
