<?xml version="1.0" standalone="no"?>
<!DOCTYPE svg PUBLIC "-//W3C//DTD SVG 20010904//EN"
 "http://www.w3.org/TR/2001/REC-SVG-20010904/DTD/svg10.dtd">
<svg version="1.0" xmlns="http://www.w3.org/2000/svg"
 width="704.000000pt" height="1280.000000pt" viewBox="0 0 704.000000 1280.000000"
 preserveAspectRatio="xMidYMid meet">
<metadata>
Created by potrace 1.16, written by Peter Selinger 2001-2019
</metadata>
<g transform="translate(0.000000,1280.000000) scale(0.100000,-0.100000)"
fill="#000000" stroke="none">
<path d="M3510 9670 c0 -11 -6 -20 -13 -20 -18 0 -53 -78 -76 -170 -33 -129
-82 -283 -107 -338 -13 -29 -24 -61 -24 -71 0 -9 -11 -39 -24 -65 -13 -27 -27
-60 -31 -75 -3 -14 -16 -50 -28 -78 l-22 -53 -53 0 c-29 0 -62 -5 -73 -11 -15
-7 -24 -7 -35 2 -13 11 -48 9 -99 -6 -18 -5 -24 3 -48 63 -15 38 -27 79 -27
91 0 12 -9 42 -20 67 -11 24 -23 59 -27 77 -3 17 -18 52 -32 77 -14 25 -25 52
-23 61 1 8 -11 49 -28 90 -16 41 -30 80 -30 87 0 19 -50 135 -66 153 -8 8 -14
22 -14 29 0 22 -52 70 -76 70 -41 0 -63 -35 -102 -165 -41 -138 -112 -452
-112 -500 0 -20 -7 -63 -15 -96 -28 -108 -47 -234 -50 -336 -2 -57 -7 -108
-10 -113 -4 -6 -33 -33 -66 -60 -61 -51 -178 -177 -223 -240 -43 -61 -117
-199 -130 -243 l-12 -42 -50 2 c-27 1 -78 2 -112 3 -68 3 -100 -14 -89 -44 5
-12 21 -16 64 -16 32 0 82 -3 111 -7 l53 -6 -4 -69 c-2 -38 -8 -73 -13 -78 -8
-8 -134 -44 -226 -64 -19 -4 -28 -13 -28 -26 0 -17 7 -20 52 -20 29 0 90 12
136 26 85 26 101 24 102 -12 0 -31 101 -194 120 -194 5 0 36 -22 69 -50 33
-27 65 -50 71 -50 5 0 19 -8 29 -17 48 -44 118 -87 266 -163 88 -46 162 -84
163 -86 5 -3 12 -142 17 -319 2 -95 -1 -163 -11 -213 -22 -109 -71 -249 -106
-300 -17 -25 -60 -108 -94 -184 -35 -77 -72 -151 -82 -166 -23 -34 -58 -114
-54 -124 1 -5 -14 -31 -33 -59 -19 -28 -35 -58 -35 -66 0 -8 -9 -31 -19 -51
-25 -46 -121 -349 -121 -379 0 -12 -9 -42 -20 -68 -11 -26 -20 -60 -20 -75 0
-16 -8 -59 -17 -97 -26 -104 -25 -473 1 -563 11 -36 23 -69 28 -75 4 -5 8 -19
8 -30 0 -29 10 -37 28 -22 13 10 14 8 9 -15 -4 -15 -3 -38 3 -52 12 -32 59
-54 72 -34 5 9 8 9 8 1 0 -6 -7 -19 -16 -27 -14 -15 -9 -22 51 -81 36 -36 85
-77 108 -92 23 -15 53 -37 67 -49 40 -36 169 -96 191 -89 13 4 19 2 19 -8 0
-18 61 -48 104 -51 18 -2 38 -6 45 -10 20 -13 195 -27 346 -29 225 -3 802 12
900 23 287 32 322 33 368 11 24 -12 52 -21 62 -21 10 0 30 -11 44 -24 32 -29
160 -96 185 -96 10 0 32 -6 49 -14 78 -35 290 -67 407 -60 160 8 347 55 435
109 22 13 51 30 65 37 53 27 135 101 186 171 64 88 148 247 158 302 4 22 13
49 20 60 6 11 20 56 30 100 28 123 85 263 131 320 59 73 112 98 200 92 82 -5
137 -29 194 -86 31 -31 45 -59 70 -137 35 -108 63 -156 101 -176 14 -7 31 -19
38 -25 20 -19 134 -16 181 4 22 9 42 26 45 36 3 12 10 17 20 14 19 -8 44 32
67 105 14 47 16 71 8 121 -8 56 -13 77 -36 142 -12 35 -64 129 -96 175 -46 64
-149 164 -186 179 -17 8 -31 17 -31 22 0 12 -109 61 -184 83 -33 10 -102 20
-155 23 -163 8 -331 -46 -468 -151 -66 -50 -85 -70 -134 -141 -51 -73 -79
-124 -79 -142 0 -9 -8 -30 -19 -47 -25 -41 -52 -130 -91 -296 -49 -207 -71
-261 -143 -340 -58 -65 -203 -140 -269 -140 -54 0 -102 -15 -93 -30 10 -17
-17 -11 -30 6 -6 9 -29 19 -51 23 -21 3 -37 11 -36 16 2 6 7 9 12 8 15 -4 88
67 104 102 9 19 20 35 25 35 11 0 71 86 71 103 0 8 7 20 15 27 8 7 13 16 10
20 -3 4 6 28 20 52 14 23 25 57 25 73 0 17 10 48 21 70 19 34 21 55 20 145 0
58 -1 115 0 128 3 102 0 138 -14 212 -23 116 -36 169 -48 192 -6 10 -18 49
-28 86 -19 70 -61 168 -93 214 -10 14 -18 34 -18 45 0 10 -18 54 -39 98 -22
44 -58 118 -80 165 -23 47 -50 99 -61 115 -11 17 -24 41 -30 55 -24 55 -53
105 -65 112 -7 4 -16 23 -19 41 -3 19 -17 44 -31 57 -14 13 -25 32 -25 41 0
26 -47 123 -97 201 -24 38 -77 137 -118 222 -41 85 -79 157 -85 161 -5 3 -10
12 -10 19 0 7 -27 69 -59 138 -33 68 -68 149 -79 179 -22 61 -96 234 -114 264
-34 60 -24 272 19 375 3 8 6 35 7 60 1 25 4 50 8 55 8 13 8 226 0 240 -4 5 -7
42 -8 80 -2 122 -22 294 -43 375 -5 19 -15 62 -22 95 -16 80 -88 303 -100 310
-5 4 -9 14 -9 25 0 15 -55 154 -105 265 -7 17 -23 55 -35 85 -11 30 -27 69
-34 85 -39 85 -54 122 -61 143 -19 63 -76 172 -100 191 -36 28 -85 29 -85 1z
m-1111 -1315 c22 -20 46 -55 56 -82 10 -27 21 -52 25 -58 17 -24 -3 -187 -31
-252 -42 -98 -108 -156 -191 -166 -44 -6 -48 -5 -83 34 -48 53 -55 76 -56 173
-1 188 47 300 154 361 57 33 80 31 126 -10z m723 2 c7 -7 25 -21 41 -31 41
-28 58 -73 61 -171 3 -82 1 -95 -30 -169 -56 -133 -152 -215 -252 -216 -132 0
-197 133 -158 324 27 126 109 234 206 269 30 11 119 7 132 -6z m533 -588 c29
-29 -3 -37 -155 -40 -139 -4 -145 -3 -145 16 0 29 69 45 187 42 73 -1 101 -6
113 -18z m-240 -190 c53 -15 235 -105 259 -129 39 -38 -21 -56 -67 -20 -14 11
-30 20 -36 20 -7 0 -35 12 -64 26 -28 15 -76 35 -106 45 -64 22 -82 35 -74 55
6 17 34 18 88 3z"/>
<path d="M2265 8311 c-88 -36 -138 -213 -104 -369 13 -61 47 -97 90 -94 36 3
79 29 79 48 0 8 6 11 16 7 13 -5 15 -1 9 18 -4 16 -3 19 3 11 7 -10 12 -8 23
10 30 47 37 76 38 155 2 117 -37 211 -81 197 -12 -3 -18 0 -18 10 0 17 -23 20
-55 7z"/>
<path d="M2934 8278 c-63 -42 -100 -110 -116 -212 -10 -66 -9 -83 5 -130 25
-80 50 -106 98 -106 52 0 90 20 129 70 51 64 79 144 80 222 0 81 -11 112 -55
155 -44 43 -78 43 -141 1z"/>
</g>
</svg>
