<?xml version="1.0" standalone="no"?>
<!DOCTYPE svg PUBLIC "-//W3C//DTD SVG 20010904//EN"
 "http://www.w3.org/TR/2001/REC-SVG-20010904/DTD/svg10.dtd">
<svg version="1.0" xmlns="http://www.w3.org/2000/svg"
 width="704.000000pt" height="1280.000000pt" viewBox="0 0 704.000000 1280.000000"
 preserveAspectRatio="xMidYMid meet">
<metadata>
Created by potrace 1.16, written by Peter Selinger 2001-2019
</metadata>
<g transform="translate(0.000000,1280.000000) scale(0.100000,-0.100000)"
fill="#000000" stroke="none">
<path d="M3502 9678 c-23 -30 -55 -105 -72 -175 -11 -41 -33 -116 -50 -166
-16 -50 -30 -97 -30 -105 0 -9 -13 -45 -28 -81 -16 -36 -37 -88 -46 -116 -10
-27 -27 -75 -37 -105 -11 -30 -27 -72 -36 -92 -18 -42 0 -38 -188 -43 -33 0
-72 -5 -86 -9 -24 -7 -27 -4 -48 56 -12 35 -26 79 -30 98 -15 61 -62 194 -82
228 -10 18 -19 43 -19 55 0 22 -41 131 -54 144 -3 3 -6 15 -6 26 0 23 -47 135
-67 158 -7 8 -13 22 -13 31 0 25 -47 68 -74 68 -28 0 -73 -48 -82 -88 -3 -15
-13 -54 -23 -87 -40 -133 -88 -341 -105 -458 -8 -53 -22 -123 -30 -155 -22
-86 -36 -195 -43 -319 -6 -105 -8 -114 -30 -129 -85 -55 -216 -193 -284 -299
-47 -72 -106 -189 -114 -223 -9 -43 -24 -48 -104 -34 -60 10 -142 4 -157 -11
-3 -3 -3 -15 1 -26 6 -19 15 -21 83 -22 42 -1 91 -4 107 -8 30 -6 30 -7 30
-74 0 -39 -5 -73 -11 -78 -7 -5 -61 -21 -120 -36 -60 -14 -115 -28 -121 -29
-7 -2 -13 -13 -13 -24 0 -17 6 -20 49 -20 27 0 88 11 135 25 47 14 88 25 90
25 2 0 13 -28 25 -61 20 -59 92 -169 111 -169 5 0 36 -22 69 -50 33 -27 65
-50 71 -50 5 0 18 -7 27 -15 46 -41 88 -69 155 -107 109 -61 247 -128 263
-128 13 0 24 -63 23 -125 0 -11 2 -69 5 -130 10 -179 8 -227 -7 -295 -9 -36
-18 -78 -22 -95 -4 -16 -11 -36 -16 -42 -6 -7 -7 -24 -4 -38 5 -18 2 -25 -9
-25 -8 0 -15 -7 -15 -16 0 -10 -15 -40 -34 -68 -44 -66 -120 -226 -118 -248 0
-10 -3 -18 -8 -18 -5 0 -12 -10 -16 -22 -4 -13 -19 -41 -35 -64 -15 -22 -37
-69 -49 -104 -12 -35 -32 -77 -46 -93 -13 -16 -27 -41 -30 -55 -4 -15 -12 -37
-20 -48 -23 -38 -128 -370 -123 -390 2 -5 -5 -27 -15 -49 -10 -22 -22 -69 -26
-105 -4 -36 -14 -85 -21 -110 -9 -32 -14 -110 -14 -265 0 -190 3 -228 19 -280
11 -33 22 -64 26 -70 4 -5 10 -22 14 -37 4 -18 11 -25 20 -22 10 4 14 -4 13
-29 -1 -42 17 -67 49 -67 26 0 30 -10 13 -27 -8 -8 9 -30 59 -81 107 -107 319
-239 368 -229 16 3 24 -2 27 -14 5 -20 43 -38 89 -44 15 -2 32 -6 37 -10 20
-12 219 -27 371 -28 296 -1 776 12 905 25 161 16 328 16 378 -1 26 -9 42 -10
50 -3 8 7 18 6 31 -4 25 -18 186 -20 204 -2 9 9 15 8 24 -5 11 -13 27 -15 93
-12 103 5 390 5 435 0 19 -2 58 -6 87 -9 71 -8 181 -43 225 -72 21 -13 45 -24
54 -24 9 0 18 -9 21 -20 3 -11 11 -20 19 -20 32 0 40 -90 13 -143 -43 -84
-183 -163 -394 -222 -104 -29 -127 -33 -270 -49 -146 -17 -596 -23 -665 -8
-19 4 -67 6 -107 6 -60 -2 -85 -8 -146 -37 -67 -32 -78 -41 -106 -91 -29 -50
-31 -60 -25 -108 7 -51 39 -118 57 -118 5 0 21 -13 36 -29 16 -17 41 -33 57
-36 16 -3 37 -11 47 -16 10 -5 74 -12 142 -16 110 -5 127 -4 144 11 18 16 19
16 17 -1 -1 -16 9 -18 83 -21 59 -2 86 1 92 9 6 10 11 10 22 0 12 -9 46 -10
154 -2 76 6 152 11 170 11 17 0 38 6 46 14 8 9 18 11 23 6 10 -10 136 5 163
19 10 6 35 10 57 10 21 0 73 10 114 21 41 12 98 26 125 32 196 42 500 187 588
282 61 65 119 149 141 205 41 105 30 242 -30 361 -36 73 -177 210 -253 248
-35 17 -69 36 -75 41 -25 21 -189 73 -301 95 -115 23 -285 44 -390 49 -44 2
-50 4 -47 22 2 11 12 29 22 40 10 11 22 32 25 47 4 15 13 32 21 39 8 6 14 17
14 23 1 6 9 29 20 51 11 22 19 52 20 67 0 14 10 48 21 75 20 43 22 66 22 218
1 163 -3 205 -24 301 -5 24 -13 64 -19 89 -5 25 -16 58 -25 74 -8 17 -15 39
-15 50 0 11 -4 23 -10 26 -5 3 -10 17 -10 31 0 24 -71 178 -91 199 -5 5 -9 17
-9 28 0 38 -167 373 -198 398 -13 10 -21 23 -18 28 8 12 -21 77 -51 114 -13
16 -23 37 -23 46 0 10 -13 35 -30 56 -16 21 -30 44 -30 52 0 18 -77 170 -90
178 -6 4 -15 17 -21 28 -5 12 -13 29 -19 37 -5 8 -42 83 -83 165 -41 83 -79
160 -84 170 -18 35 -140 308 -156 350 -8 22 -36 87 -61 145 -25 58 -50 114
-55 125 -16 37 -19 148 -6 235 5 30 8 59 7 63 -1 4 4 21 13 36 8 16 15 44 15
62 0 57 2 74 10 84 9 11 11 205 2 219 -3 5 -7 50 -9 100 -4 119 -19 270 -33
326 -6 25 -15 65 -20 90 -18 92 -28 130 -50 185 -4 11 -18 55 -31 98 -12 43
-27 80 -31 83 -4 3 -8 12 -8 20 0 8 -27 79 -61 157 -33 78 -69 162 -79 187
-39 93 -108 257 -135 323 -16 38 -41 79 -58 93 -31 26 -78 32 -95 12z m-1103
-1322 c13 -11 37 -50 55 -86 28 -59 31 -74 30 -150 -2 -72 -6 -95 -33 -153
-51 -111 -133 -177 -218 -177 -35 0 -101 83 -109 137 -11 78 1 244 21 288 32
68 74 124 108 142 72 37 104 37 146 -1z m741 -17 c61 -40 83 -86 85 -182 2
-53 -4 -90 -21 -140 -32 -93 -45 -114 -103 -174 -58 -59 -102 -77 -178 -71
-46 4 -59 10 -92 42 -40 39 -49 62 -58 153 -13 139 73 322 177 376 74 37 128
36 190 -4z m511 -566 c6 -6 9 -19 6 -27 -5 -13 -28 -16 -132 -18 -69 -1 -135
-2 -147 -2 -34 -1 -34 29 -1 42 49 19 66 21 165 19 57 -2 102 -7 109 -14z
m-225 -197 c37 -13 128 -56 205 -96 19 -10 41 -25 48 -34 29 -35 -25 -50 -69
-19 -27 19 -98 51 -200 90 -71 26 -96 45 -86 62 10 15 56 14 102 -3z"/>
<path d="M2226 8280 c-54 -48 -79 -136 -74 -259 5 -142 39 -188 123 -167 43
11 113 84 130 137 36 108 3 295 -52 293 -12 0 -20 3 -18 7 3 4 -2 10 -11 13
-33 13 -65 5 -98 -24z"/>
<path d="M2939 8281 c-50 -31 -108 -119 -115 -175 -2 -17 -7 -50 -10 -73 -8
-55 20 -148 53 -179 39 -36 102 -33 148 7 105 92 149 274 91 374 -47 80 -94
93 -167 46z"/>
</g>
</svg>
