<?xml version="1.0" standalone="no"?>
<!DOCTYPE svg PUBLIC "-//W3C//DTD SVG 20010904//EN"
 "http://www.w3.org/TR/2001/REC-SVG-20010904/DTD/svg10.dtd">
<svg version="1.0" xmlns="http://www.w3.org/2000/svg"
 width="704.000000pt" height="1280.000000pt" viewBox="0 0 704.000000 1280.000000"
 preserveAspectRatio="xMidYMid meet">
<metadata>
Created by potrace 1.16, written by Peter Selinger 2001-2019
</metadata>
<g transform="translate(0.000000,1280.000000) scale(0.100000,-0.100000)"
fill="#000000" stroke="none">
<path d="M3509 9689 c-18 -18 -34 -48 -68 -134 -5 -11 -14 -45 -21 -75 -22
-93 -147 -466 -174 -515 -9 -16 -16 -38 -16 -48 0 -9 -12 -40 -27 -68 l-26
-51 -46 5 c-31 4 -52 1 -65 -9 -17 -12 -23 -12 -42 1 -21 13 -28 13 -70 -1
-25 -8 -47 -14 -49 -12 -7 6 -47 124 -55 158 -12 56 -57 184 -79 228 -12 23
-21 50 -21 61 0 20 -7 39 -41 118 -11 24 -19 49 -19 58 0 8 -18 52 -40 99 -22
46 -40 88 -40 93 0 17 -59 63 -80 63 -63 0 -96 -99 -201 -598 -11 -51 -17 -96
-15 -101 3 -4 -2 -27 -10 -51 -8 -24 -19 -71 -24 -104 -4 -34 -16 -113 -25
-176 -9 -63 -15 -130 -13 -149 4 -30 -1 -38 -50 -80 -76 -64 -178 -172 -233
-245 -51 -68 -121 -198 -141 -263 l-13 -43 -115 6 c-124 6 -154 -1 -134 -33 9
-14 31 -19 115 -25 56 -5 106 -11 109 -15 4 -5 4 -37 1 -73 -6 -62 -8 -66 -41
-82 -19 -10 -79 -28 -133 -40 -88 -19 -98 -24 -95 -42 3 -19 9 -21 61 -17 32
1 93 14 135 27 42 13 79 20 83 16 3 -4 14 -29 24 -56 24 -66 68 -129 117 -169
22 -17 56 -45 76 -62 19 -16 56 -43 82 -60 26 -16 67 -43 91 -59 41 -28 309
-168 336 -177 12 -4 22 -145 27 -371 0 -42 4 -79 8 -83 3 -4 0 -22 -8 -40 -8
-19 -14 -44 -14 -56 0 -25 -15 -78 -35 -124 -8 -16 -17 -44 -20 -62 -4 -18
-18 -49 -32 -70 -36 -53 -80 -137 -107 -208 -13 -33 -26 -67 -30 -75 -3 -8
-17 -33 -31 -55 -31 -51 -85 -164 -85 -180 0 -7 -13 -29 -30 -50 -16 -21 -30
-48 -30 -60 0 -12 -9 -34 -20 -48 -11 -14 -20 -32 -20 -40 0 -8 -16 -57 -34
-110 -32 -87 -62 -188 -72 -243 -2 -12 -11 -38 -19 -57 -8 -20 -15 -52 -15
-71 0 -19 -7 -61 -15 -92 -8 -32 -18 -86 -21 -121 l-7 -63 -121 0 c-132 0
-256 -19 -314 -49 -20 -10 -62 -30 -92 -44 -30 -14 -73 -38 -95 -54 -40 -30
-142 -170 -165 -228 -7 -16 -16 -39 -21 -50 -4 -11 -15 -45 -23 -77 -19 -67
-24 -285 -7 -316 6 -11 11 -31 11 -44 0 -13 23 -69 52 -126 39 -78 63 -112 99
-142 26 -22 54 -40 62 -40 8 0 17 -6 20 -12 2 -9 27 -13 78 -13 63 0 78 3 98
22 13 12 27 20 31 18 12 -7 48 29 61 61 19 48 20 125 2 164 -10 19 -16 42 -15
51 2 9 -4 22 -13 29 -8 7 -15 20 -15 29 0 9 -9 31 -21 50 -11 19 -25 59 -30
90 -8 53 -7 60 27 126 46 92 51 97 104 122 82 38 215 47 274 19 43 -20 76 -61
76 -92 0 -13 4 -24 9 -24 5 0 12 -12 16 -27 9 -38 33 -63 60 -63 18 0 22 -5
20 -25 -5 -41 55 -104 200 -211 62 -47 159 -95 193 -97 15 -1 33 -10 40 -19 7
-9 38 -25 70 -34 31 -9 78 -25 104 -34 26 -10 56 -16 66 -13 13 3 21 -1 24
-14 3 -11 41 -36 94 -62 167 -82 232 -103 312 -103 37 0 60 -3 56 -9 -6 -10
50 -13 215 -11 64 1 97 5 102 14 5 7 30 13 61 14 68 1 125 13 163 32 16 8 37
15 45 16 8 1 46 14 83 30 47 20 64 33 57 40 -13 13 -13 53 0 61 6 3 10 -4 10
-17 0 -42 12 -48 50 -30 19 9 37 19 40 22 11 14 100 51 134 57 20 3 36 10 36
14 0 5 8 4 18 -2 13 -8 56 -5 176 16 150 25 196 39 196 59 0 4 6 3 14 -3 15
-13 57 0 146 44 49 25 74 44 172 131 18 17 24 30 21 45 -4 15 -2 20 9 17 16
-3 98 87 98 107 0 6 16 42 35 80 19 37 38 87 41 109 4 23 16 61 27 86 24 55
32 260 10 260 -17 0 -16 8 2 26 8 9 13 25 10 37 -2 12 -9 65 -15 117 -6 52
-15 109 -20 125 -5 17 -17 57 -26 90 -42 152 -68 217 -117 292 -15 24 -27 52
-27 63 0 11 -11 42 -24 68 -14 26 -52 103 -86 172 -87 178 -145 288 -164 309
-9 9 -16 22 -16 28 0 16 -29 70 -45 83 -8 7 -15 20 -15 30 0 22 -67 160 -90
185 -17 19 -230 434 -230 449 0 3 -29 65 -65 137 -36 71 -65 137 -65 146 0 8
-13 41 -29 72 -16 31 -46 98 -66 149 -57 145 -58 236 -3 415 9 28 9 40 0 49
-9 9 -8 16 5 30 14 16 15 21 4 27 -8 5 -9 10 -3 12 21 8 16 289 -9 489 -21
175 -71 402 -99 452 -6 10 -10 26 -10 36 0 9 -9 42 -21 72 -12 30 -28 73 -36
95 -24 66 -107 269 -193 470 -45 105 -86 204 -91 221 -10 35 -53 78 -92 93
-23 9 -31 7 -48 -10z m-1124 -1341 c15 -12 41 -51 57 -87 28 -62 30 -72 25
-161 -5 -111 -32 -182 -93 -250 -88 -97 -192 -92 -245 11 -29 57 -29 227 0
319 24 78 77 145 135 170 55 25 88 24 121 -2z m754 -24 c64 -56 79 -93 76
-194 -5 -127 -42 -222 -116 -301 -53 -54 -133 -86 -192 -75 -45 8 -105 59
-123 103 -30 71 -12 258 33 346 35 69 110 131 178 148 68 16 100 10 144 -27z
m505 -544 c25 -9 35 -34 19 -43 -5 -3 -75 -6 -158 -8 -145 -4 -150 -3 -150 16
0 15 11 23 45 32 56 14 210 16 244 3z m-224 -205 c63 -22 247 -114 260 -130
30 -36 -40 -49 -83 -15 -14 11 -30 20 -36 20 -7 0 -35 12 -64 26 -28 15 -76
35 -106 45 -58 20 -73 33 -64 56 7 17 40 17 93 -2z"/>
<path d="M2250 8292 c-84 -27 -145 -233 -106 -364 21 -73 53 -103 102 -95 38
6 94 51 90 71 -2 6 -1 7 2 3 9 -16 42 27 58 76 22 65 14 174 -16 246 -22 51
-33 60 -45 40 -5 -7 -12 -6 -23 4 -22 18 -44 25 -62 19z"/>
<path d="M2941 8278 c-66 -33 -115 -114 -130 -217 -17 -117 0 -186 55 -230 51
-40 124 -19 177 51 37 49 76 137 83 191 12 86 -28 182 -88 213 -36 19 -45 18
-97 -8z"/>
</g>
</svg>
