<?xml version="1.0" standalone="no"?>
<!DOCTYPE svg PUBLIC "-//W3C//DTD SVG 20010904//EN"
 "http://www.w3.org/TR/2001/REC-SVG-20010904/DTD/svg10.dtd">
<svg version="1.0" xmlns="http://www.w3.org/2000/svg"
 width="704.000000pt" height="1280.000000pt" viewBox="0 0 704.000000 1280.000000"
 preserveAspectRatio="xMidYMid meet">
<metadata>
Created by potrace 1.16, written by Peter Selinger 2001-2019
</metadata>
<g transform="translate(0.000000,1280.000000) scale(0.100000,-0.100000)"
fill="#000000" stroke="none">
<path d="M3506 9683 c-14 -15 -30 -41 -36 -57 -6 -17 -17 -44 -24 -61 -8 -16
-19 -55 -26 -85 -7 -30 -27 -101 -46 -158 -19 -56 -34 -110 -34 -120 0 -10 -7
-27 -15 -39 -8 -12 -28 -59 -44 -105 -42 -124 -51 -148 -78 -207 l-24 -53 -40
6 c-25 4 -52 1 -75 -9 -31 -13 -38 -13 -50 0 -12 12 -21 12 -62 0 -26 -8 -48
-15 -49 -15 -1 0 -9 26 -18 58 -9 31 -20 62 -25 67 -4 6 -10 26 -13 45 -7 47
-52 176 -77 221 -11 20 -20 47 -20 59 0 12 -13 54 -29 93 -16 40 -33 83 -37
97 -4 14 -22 57 -40 96 -19 39 -34 75 -34 79 0 5 -12 22 -27 37 -31 32 -72 37
-95 11 -29 -36 -81 -200 -112 -358 -8 -38 -23 -110 -34 -160 -12 -49 -23 -112
-26 -140 -2 -27 -11 -77 -19 -110 -31 -125 -62 -363 -53 -400 5 -19 -1 -31
-31 -57 -213 -186 -322 -327 -388 -501 l-23 -62 -114 3 c-122 3 -144 -3 -133
-37 6 -19 14 -21 73 -22 106 -1 157 -11 156 -32 -1 -9 2 -17 7 -17 5 0 2 -11
-7 -25 -10 -15 -14 -34 -10 -50 9 -35 -20 -50 -153 -82 -90 -22 -111 -30 -111
-45 0 -10 6 -18 13 -19 46 -3 112 6 181 26 45 13 84 21 87 17 4 -4 14 -29 23
-57 9 -27 32 -71 51 -97 35 -47 142 -139 226 -193 26 -16 66 -43 90 -59 41
-28 307 -167 338 -177 10 -4 14 -34 17 -119 10 -292 12 -331 18 -337 3 -3 1
-12 -4 -19 -6 -6 -13 -35 -17 -63 -3 -28 -10 -54 -14 -57 -5 -3 -9 -16 -9 -30
0 -14 -7 -39 -16 -56 -9 -17 -14 -39 -11 -49 3 -11 1 -17 -4 -14 -4 3 -11 -7
-15 -22 -4 -15 -17 -40 -30 -55 -12 -15 -39 -62 -60 -105 -20 -43 -43 -90 -51
-105 -7 -14 -13 -30 -13 -35 0 -5 -25 -53 -55 -108 -30 -54 -57 -112 -61 -129
-3 -17 -19 -49 -35 -70 -16 -22 -29 -47 -29 -55 0 -9 -7 -29 -16 -46 -9 -16
-22 -48 -29 -70 -7 -22 -25 -71 -38 -110 -25 -68 -56 -180 -62 -220 -2 -11
-10 -40 -19 -64 -9 -24 -16 -63 -16 -88 0 -24 -7 -58 -16 -74 l-15 -30 -37 32
c-20 17 -56 51 -79 74 -85 85 -318 176 -412 161 -22 -3 -42 -2 -45 3 -3 5 -26
5 -53 0 -154 -29 -218 -86 -234 -208 -7 -60 -6 -77 10 -113 34 -79 83 -104
220 -113 127 -9 162 -18 218 -59 60 -43 103 -110 116 -181 16 -88 6 -147 -51
-290 -77 -194 -99 -321 -81 -465 27 -219 133 -386 322 -507 125 -80 361 -173
441 -173 19 0 47 -5 62 -10 31 -12 102 -18 279 -25 164 -6 426 24 625 72 108
25 259 73 265 83 3 6 16 10 29 10 12 0 26 4 31 9 6 5 27 14 48 21 86 27 340
189 428 272 60 58 137 149 174 208 23 37 25 38 102 45 107 10 287 41 312 54
11 6 30 11 43 11 80 0 303 157 370 261 17 27 35 49 39 49 4 0 21 36 39 80 18
44 36 83 41 85 4 3 13 31 19 63 6 31 19 73 28 92 18 39 28 285 11 274 -5 -3
-4 6 2 20 9 18 9 44 0 103 -7 43 -12 92 -12 110 1 18 -4 35 -9 38 -6 3 -10 14
-10 23 0 17 -35 141 -50 177 -5 11 -12 31 -15 45 -9 33 -42 103 -77 163 -16
27 -27 54 -26 60 4 19 -191 417 -204 417 -5 0 -8 8 -8 17 0 20 -60 123 -72
123 -4 0 -8 9 -8 21 0 20 -36 80 -52 87 -4 2 -8 12 -8 23 0 24 -62 152 -95
195 -14 18 -25 37 -25 43 0 6 -4 11 -9 11 -5 0 -13 10 -16 21 -13 39 -144 307
-153 313 -6 3 -13 17 -16 30 -3 14 -32 80 -64 148 -32 68 -64 141 -72 163 -7
22 -23 56 -35 75 -12 19 -32 67 -45 105 -12 39 -29 81 -37 94 -32 50 -12 317
26 365 5 6 5 20 2 30 -4 10 -2 40 5 65 15 61 7 323 -17 521 -15 130 -68 372
-95 435 -7 17 -20 57 -30 90 -9 33 -21 65 -26 72 -6 7 -14 27 -18 45 -11 42
-78 208 -184 458 -46 107 -88 209 -95 225 -14 36 -37 65 -71 88 -33 23 -45 22
-74 -10z m-1105 -1349 c9 -11 29 -46 43 -80 25 -56 27 -70 23 -155 -3 -81 -9
-105 -36 -161 -40 -85 -105 -144 -166 -154 -58 -8 -92 10 -128 67 -26 43 -28
54 -29 150 -2 194 56 312 178 358 53 21 80 14 115 -25z m732 -1 c21 -15 49
-45 62 -67 33 -58 29 -191 -7 -288 -39 -105 -95 -170 -174 -204 -61 -26 -69
-27 -112 -15 -57 15 -109 62 -122 111 -24 85 -6 250 37 333 66 130 223 194
316 130z m511 -553 c14 -5 26 -13 26 -17 -1 -26 -23 -31 -165 -34 -131 -4
-150 -2 -153 12 -3 16 25 32 73 42 39 9 194 7 219 -3z m-227 -204 c88 -31 211
-91 248 -121 52 -41 4 -61 -64 -26 -52 27 -190 86 -233 100 -54 18 -64 61 -14
61 13 0 41 -6 63 -14z m-1417 -3451 c0 -20 37 -38 66 -32 23 4 23 3 9 -13 -8
-9 -15 -21 -15 -26 0 -9 58 -70 117 -125 76 -70 259 -179 301 -179 12 0 24 -5
27 -10 13 -21 64 -39 158 -55 53 -9 104 -15 114 -14 10 1 36 -3 58 -9 58 -16
395 -8 406 10 7 11 9 11 9 0 0 -11 22 -13 103 -11 56 1 128 2 161 1 52 -2 57
-4 45 -18 -19 -23 -213 -117 -294 -142 -68 -21 -159 -44 -295 -76 -36 -8 -81
-14 -100 -14 -84 3 -244 -13 -253 -25 -7 -9 -10 -9 -14 1 -2 6 -17 12 -31 12
-24 0 -165 25 -283 49 -25 5 -72 21 -104 35 -45 20 -61 24 -72 15 -7 -7 -17
-9 -20 -5 -4 4 -2 11 5 15 9 6 4 15 -20 33 -18 14 -46 38 -61 54 -22 21 -30
25 -37 15 -4 -7 -13 -12 -21 -9 -10 3 -9 7 2 18 13 12 11 22 -18 79 -31 62
-32 70 -27 146 3 44 9 96 14 115 28 110 52 180 60 180 6 0 10 -7 10 -15z"/>
<path d="M2245 8290 c-56 -23 -89 -89 -105 -212 -10 -74 -9 -94 6 -147 34
-121 106 -133 197 -32 57 63 68 100 62 200 -4 60 -13 101 -30 139 -22 48 -27
52 -50 46 -15 -4 -25 -2 -25 5 0 13 -26 13 -55 1z"/>
<path d="M2960 8289 c-79 -32 -133 -118 -151 -243 -10 -64 -9 -82 6 -131 48
-153 180 -135 268 36 65 126 61 229 -11 307 -40 44 -64 50 -112 31z"/>
</g>
</svg>
