<?xml version="1.0" standalone="no"?>
<!DOCTYPE svg PUBLIC "-//W3C//DTD SVG 20010904//EN"
 "http://www.w3.org/TR/2001/REC-SVG-20010904/DTD/svg10.dtd">
<svg version="1.0" xmlns="http://www.w3.org/2000/svg"
 width="704.000000pt" height="1280.000000pt" viewBox="0 0 704.000000 1280.000000"
 preserveAspectRatio="xMidYMid meet">
<metadata>
Created by potrace 1.16, written by Peter Selinger 2001-2019
</metadata>
<g transform="translate(0.000000,1280.000000) scale(0.100000,-0.100000)"
fill="#000000" stroke="none">
<path d="M3509 9689 c-26 -26 -66 -115 -79 -177 -14 -64 -75 -260 -109 -352
-16 -41 -43 -115 -60 -165 -18 -49 -44 -114 -57 -143 l-24 -52 -48 1 c-26 1
-58 -4 -72 -11 -20 -11 -25 -10 -36 4 -10 15 -18 16 -54 6 -23 -6 -47 -13 -55
-16 -10 -4 -19 12 -31 55 -9 34 -21 64 -25 67 -5 3 -9 19 -9 35 0 17 -6 42
-14 57 -7 15 -19 50 -25 77 -7 28 -23 68 -35 90 -13 22 -26 56 -29 76 -3 20
-17 61 -31 91 -14 30 -26 62 -26 71 0 16 -42 118 -60 147 -6 8 -15 26 -21 40
-16 39 -50 70 -76 70 -31 0 -66 -39 -81 -87 -53 -178 -74 -268 -123 -518 -10
-55 -24 -121 -30 -146 -24 -105 -61 -390 -56 -426 5 -28 0 -36 -39 -69 -66
-53 -191 -181 -235 -239 -53 -70 -124 -201 -145 -268 l-18 -57 -102 6 c-124 8
-157 2 -152 -29 3 -21 10 -22 110 -29 59 -3 111 -9 116 -12 5 -3 6 -27 2 -53
-4 -26 -5 -53 -3 -61 12 -31 -39 -55 -189 -87 -65 -14 -78 -20 -78 -36 0 -17
7 -19 58 -19 32 0 91 11 137 25 44 13 82 21 86 17 3 -4 14 -29 24 -57 19 -54
90 -165 104 -165 5 0 33 -19 61 -42 61 -50 92 -71 138 -95 17 -9 32 -20 32
-24 0 -10 182 -112 290 -163 47 -22 86 -41 88 -42 3 -2 11 -173 16 -351 1 -51
5 -96 9 -99 3 -4 2 -14 -2 -23 -5 -9 -14 -39 -19 -66 -21 -103 -77 -263 -96
-279 -8 -6 -33 -49 -56 -96 -23 -47 -48 -97 -56 -112 -8 -14 -14 -32 -14 -40
-1 -7 -16 -38 -35 -68 -41 -67 -85 -158 -85 -176 0 -7 -14 -33 -31 -58 -17
-24 -31 -56 -31 -70 0 -14 -9 -33 -19 -42 -11 -9 -19 -25 -19 -35 0 -10 -16
-61 -35 -112 -37 -100 -94 -299 -101 -357 -8 -64 -27 -140 -35 -140 -4 0 -16
16 -25 35 -16 35 -96 111 -141 134 -12 6 -51 11 -86 11 -63 0 -66 -1 -116 -46
-78 -70 -100 -165 -67 -290 38 -148 14 -246 -85 -339 -140 -131 -229 -240
-256 -310 -38 -97 -43 -293 -11 -365 9 -19 22 -51 29 -70 7 -19 52 -74 100
-121 71 -72 104 -96 190 -140 125 -65 188 -90 339 -134 120 -36 207 -66 373
-129 54 -21 106 -35 114 -31 9 3 23 -1 32 -9 19 -17 100 -37 249 -62 23 -3 42
-11 42 -17 0 -6 27 -8 70 -5 42 3 73 1 77 -5 9 -14 419 -1 518 17 44 8 94 19
110 26 38 15 123 40 155 45 45 7 288 134 358 187 153 115 305 292 339 395 22
67 29 73 82 73 59 0 257 34 341 58 113 33 198 83 285 169 103 102 127 134 160
213 15 36 33 72 40 80 7 8 18 40 25 70 7 30 19 73 28 95 20 53 27 321 11 435
-11 82 -43 218 -59 249 -4 9 -18 51 -31 94 -13 43 -27 80 -31 83 -4 3 -8 13
-8 23 0 10 -7 24 -16 31 -17 15 -47 77 -48 100 -1 8 -17 49 -38 90 -20 41 -55
113 -78 160 -63 130 -143 276 -164 299 -11 12 -16 24 -13 28 4 3 -9 28 -28 55
-19 26 -35 54 -35 62 0 21 -62 147 -92 187 -14 18 -61 106 -103 194 -43 88
-86 171 -95 185 -10 14 -21 36 -25 50 -4 14 -36 85 -71 157 -35 73 -64 137
-64 143 0 5 -13 38 -30 72 -75 161 -100 234 -107 315 -4 62 -2 91 12 132 9 28
14 58 12 66 -6 15 14 65 26 65 4 0 3 9 -2 19 -8 13 -7 29 1 53 28 78 4 506
-39 708 -24 114 -52 221 -67 260 -8 19 -21 58 -30 85 -32 103 -172 456 -244
615 -11 25 -30 70 -42 100 -51 125 -73 162 -104 181 -40 24 -51 24 -77 -2z
m-1138 -1331 c22 -15 46 -47 67 -88 27 -54 32 -75 30 -126 0 -33 1 -65 5 -70
3 -6 2 -16 -4 -24 -5 -8 -9 -23 -9 -32 0 -29 -49 -126 -83 -165 -34 -38 -97
-72 -135 -73 -39 0 -80 28 -107 75 -24 40 -26 54 -27 154 0 188 58 305 175
353 53 22 48 22 88 -4z m737 -12 c15 -8 39 -27 53 -43 46 -49 56 -81 54 -178
-1 -76 -6 -101 -32 -163 -54 -127 -125 -191 -233 -208 -66 -11 -147 45 -172
119 -16 46 -7 199 16 273 47 150 210 254 314 200z m554 -574 c6 -6 8 -18 5
-26 -5 -13 -25 -16 -110 -16 -57 0 -124 -3 -149 -6 -37 -5 -46 -3 -52 12 -9
24 2 33 55 44 57 12 237 6 251 -8z m-218 -206 c87 -33 207 -93 230 -116 39
-38 -21 -56 -67 -20 -14 11 -31 20 -39 20 -7 0 -40 13 -73 28 -33 16 -83 36
-112 46 -49 16 -70 37 -57 57 9 15 51 10 118 -15z m-1493 -3301 c11 -33 24
-69 29 -80 36 -83 44 -96 66 -101 15 -4 21 -11 17 -21 -4 -9 17 -38 58 -80 98
-99 319 -247 319 -213 0 5 4 10 10 10 5 0 7 -7 4 -15 -6 -14 6 -20 30 -16 5 1
16 -5 25 -13 9 -8 30 -20 46 -26 39 -15 214 -42 226 -35 5 3 18 1 30 -5 31
-17 405 -16 425 1 12 10 17 10 23 1 5 -8 31 -10 86 -6 44 3 87 5 95 4 8 -1 58
-3 110 -5 128 -3 130 -3 130 -18 0 -12 -18 -32 -98 -108 -50 -47 -198 -103
-372 -140 -114 -24 -446 -38 -501 -21 -19 6 -55 13 -82 17 -45 6 -48 5 -57
-21 -8 -21 -13 -25 -23 -15 -9 9 -9 14 3 21 8 5 11 12 7 16 -6 7 -74 27 -152
45 -45 11 -199 57 -230 69 -11 4 -38 12 -60 17 -49 13 -318 106 -325 113 -3 3
-33 18 -68 35 -35 16 -68 35 -74 42 -6 7 -15 13 -20 13 -7 0 -7 -5 0 -13 6 -7
7 -18 3 -26 -6 -9 -13 -2 -25 22 -9 19 -16 42 -16 51 0 9 -4 16 -9 16 -15 0
-34 88 -28 135 6 57 59 139 123 191 58 48 155 145 209 210 33 39 40 44 43 29
2 -11 12 -47 23 -80z"/>
<path d="M2255 8300 c-35 -14 -75 -65 -96 -121 -27 -73 -31 -230 -6 -276 29
-55 57 -75 96 -68 50 9 92 44 85 69 -3 14 -2 17 4 8 12 -17 35 9 58 66 24 61
15 205 -17 261 -18 34 -28 40 -58 43 -22 2 -35 8 -33 16 2 14 -4 14 -33 2z"/>
<path d="M2940 8279 c-70 -43 -114 -116 -130 -213 -13 -82 -6 -139 23 -190 65
-112 183 -71 258 87 44 95 49 168 17 239 -27 58 -71 98 -110 98 -12 0 -39 -10
-58 -21z"/>
</g>
</svg>
