<?xml version="1.0" standalone="no"?>
<!DOCTYPE svg PUBLIC "-//W3C//DTD SVG 20010904//EN"
 "http://www.w3.org/TR/2001/REC-SVG-20010904/DTD/svg10.dtd">
<svg version="1.0" xmlns="http://www.w3.org/2000/svg"
 width="704.000000pt" height="1280.000000pt" viewBox="0 0 704.000000 1280.000000"
 preserveAspectRatio="xMidYMid meet">
<metadata>
Created by potrace 1.16, written by Peter Selinger 2001-2019
</metadata>
<g transform="translate(0.000000,1280.000000) scale(0.100000,-0.100000)"
fill="#000000" stroke="none">
<path d="M3500 9670 c-18 -26 -66 -134 -70 -158 -4 -28 -14 -65 -30 -112 -10
-30 -28 -90 -39 -132 -11 -42 -25 -87 -32 -99 -6 -13 -25 -59 -41 -103 -58
-157 -75 -204 -89 -235 -15 -34 0 -31 -189 -35 -30 -1 -67 -5 -82 -10 -25 -7
-27 -5 -42 48 -9 30 -21 58 -26 61 -6 3 -10 20 -10 36 0 16 -7 46 -16 67 -9
20 -24 64 -34 97 -11 33 -26 69 -34 80 -9 11 -16 32 -16 46 0 23 -8 47 -50
144 -5 11 -11 32 -14 46 -5 24 -45 115 -65 149 -5 8 -14 27 -21 41 -15 34 -51
53 -83 45 -42 -10 -78 -108 -137 -366 -30 -130 -38 -169 -81 -400 -11 -58 -24
-126 -29 -153 -5 -26 -13 -104 -16 -173 -7 -122 -8 -125 -33 -139 -45 -23
-261 -249 -261 -273 0 -5 -7 -15 -15 -22 -20 -17 -94 -155 -115 -215 l-17 -50
-49 2 c-149 6 -177 4 -192 -11 -27 -27 2 -46 72 -47 33 0 79 -3 101 -7 44 -8
41 0 36 -113 -1 -46 -20 -55 -233 -103 -19 -4 -28 -13 -28 -26 0 -17 7 -20 49
-20 27 0 88 11 137 25 89 26 103 25 104 -13 0 -32 84 -164 117 -185 8 -5 40
-30 73 -58 32 -27 63 -49 68 -49 5 0 17 -9 27 -20 10 -11 22 -20 27 -20 5 0
18 -9 29 -19 12 -11 49 -34 82 -52 34 -17 69 -37 77 -44 8 -7 58 -32 110 -56
52 -23 99 -46 104 -50 9 -8 12 -55 21 -303 6 -174 -8 -289 -47 -373 -6 -12 -8
-28 -5 -36 3 -9 -1 -18 -9 -21 -8 -3 -14 -14 -14 -24 0 -10 -12 -34 -26 -53
-36 -47 -135 -250 -127 -262 3 -5 1 -12 -4 -16 -22 -14 -113 -192 -113 -220 0
-10 -14 -35 -30 -56 -17 -21 -33 -50 -36 -64 -4 -14 -12 -35 -19 -46 -27 -44
-132 -382 -121 -392 3 -3 -4 -24 -16 -47 -11 -22 -25 -70 -29 -106 -5 -36 -15
-107 -23 -158 -17 -107 -23 -278 -12 -372 12 -106 59 -249 82 -250 5 0 10 -15
10 -34 0 -42 19 -66 50 -66 13 0 24 -4 24 -10 0 -5 -4 -10 -10 -10 -23 0 -5
-25 74 -103 117 -116 335 -244 365 -214 8 8 11 6 11 -7 0 -25 71 -52 175 -65
50 -7 113 -16 140 -21 28 -4 122 -6 210 -4 88 2 293 5 455 8 176 2 357 11 449
21 160 17 441 35 452 29 4 -2 26 -6 50 -8 24 -2 95 -18 158 -34 63 -17 120
-28 127 -25 7 2 41 -9 76 -26 34 -17 70 -31 79 -31 18 0 140 -61 205 -102 22
-14 59 -47 82 -73 33 -37 42 -56 42 -84 0 -44 -21 -86 -57 -115 -32 -25 -161
-86 -183 -86 -8 0 -37 -8 -65 -19 -47 -17 -85 -21 -355 -37 -173 -10 -433 30
-590 92 -69 27 -205 98 -230 119 -8 7 -44 23 -80 35 -88 30 -173 22 -235 -20
-43 -29 -85 -78 -85 -98 0 -5 -7 -15 -15 -22 -33 -27 -4 -159 46 -209 59 -60
100 -89 155 -111 33 -13 86 -35 119 -51 33 -15 78 -33 100 -39 22 -7 59 -19
83 -27 24 -8 61 -13 82 -11 28 2 40 0 40 -9 0 -7 3 -13 8 -13 4 0 39 -9 79
-20 103 -27 270 -45 287 -31 10 8 16 8 26 -4 16 -19 150 -21 169 -3 10 11 14
9 22 -5 8 -13 18 -17 37 -13 15 3 94 8 176 11 82 4 160 11 173 16 13 5 36 9
51 9 32 -1 187 36 257 60 28 10 68 23 90 30 84 25 205 95 279 163 79 71 138
163 171 265 19 56 16 93 -18 222 -35 134 -176 284 -350 371 -109 55 -140 67
-262 105 -210 64 -209 63 -177 97 12 13 22 28 22 34 0 6 3 13 8 15 10 4 72 84
72 93 0 4 18 45 40 91 22 47 40 95 40 108 0 14 10 46 21 73 19 43 22 68 23
233 1 127 -3 204 -13 245 -30 129 -53 210 -62 220 -5 5 -9 19 -9 31 0 13 -4
26 -10 29 -5 3 -10 17 -10 31 0 24 -71 178 -91 199 -5 5 -9 16 -9 25 0 21
-135 318 -154 339 -8 9 -35 57 -59 107 -25 49 -53 96 -61 103 -9 8 -16 22 -16
33 0 11 -13 37 -30 58 -16 21 -30 44 -30 52 0 19 -77 177 -96 199 -8 9 -55 95
-104 192 -49 97 -94 185 -99 194 -31 61 -141 313 -145 335 -4 16 -20 49 -36
75 -17 26 -30 52 -30 59 0 10 -20 60 -60 149 -4 11 -9 27 -9 35 0 8 -4 39 -7
68 -6 51 9 153 37 241 6 18 12 54 13 80 1 25 5 51 8 57 10 15 9 212 -1 219 -5
2 -7 24 -5 47 4 60 -23 321 -41 391 -8 32 -15 68 -15 80 0 23 -2 28 -59 207
-54 168 -74 224 -106 295 -15 33 -51 119 -80 190 -150 367 -180 431 -215 456
-47 33 -66 33 -90 -1z m-1110 -1307 c18 -14 46 -56 63 -92 28 -59 32 -76 31
-152 0 -73 -5 -94 -31 -151 -41 -87 -110 -154 -175 -168 -27 -5 -54 -10 -61
-9 -19 1 -68 66 -83 110 -20 57 -12 264 12 316 34 74 75 123 122 148 61 31 83
31 122 -2z m754 -25 c56 -42 77 -89 82 -178 4 -61 1 -84 -22 -144 -33 -86 -48
-110 -97 -165 -53 -58 -114 -85 -185 -79 -50 4 -58 9 -92 48 -56 65 -70 151
-44 277 44 215 228 339 358 241z m516 -568 c19 -30 -12 -38 -160 -42 -139 -3
-145 -2 -145 17 0 31 63 45 188 42 83 -2 110 -6 117 -17z m-233 -196 c69 -23
230 -104 249 -125 35 -38 -23 -55 -69 -19 -14 11 -30 20 -35 20 -6 0 -43 16
-83 35 -40 19 -88 38 -105 41 -36 7 -70 37 -59 53 9 16 47 14 102 -5z"/>
<path d="M2221 8274 c-50 -50 -71 -122 -71 -241 0 -72 4 -97 23 -133 19 -40
26 -45 60 -48 64 -5 144 58 172 137 8 24 15 76 15 116 0 111 -36 195 -84 194
-11 0 -33 3 -49 7 -23 5 -33 0 -66 -32z"/>
<path d="M2939 8282 c-56 -37 -73 -56 -97 -112 -49 -115 -31 -272 38 -327 20
-17 75 -16 109 1 72 38 144 178 143 281 -1 74 -11 102 -55 148 -43 46 -76 48
-138 9z"/>
</g>
</svg>
