<?xml version="1.0" standalone="no"?>
<!DOCTYPE svg PUBLIC "-//W3C//DTD SVG 20010904//EN"
 "http://www.w3.org/TR/2001/REC-SVG-20010904/DTD/svg10.dtd">
<svg version="1.0" xmlns="http://www.w3.org/2000/svg"
 width="704.000000pt" height="1280.000000pt" viewBox="0 0 704.000000 1280.000000"
 preserveAspectRatio="xMidYMid meet">
<metadata>
Created by potrace 1.16, written by Peter Selinger 2001-2019
</metadata>
<g transform="translate(0.000000,1280.000000) scale(0.100000,-0.100000)"
fill="#000000" stroke="none">
<path d="M3518 9699 c-10 -5 -18 -16 -18 -24 0 -8 -6 -18 -13 -22 -15 -10 -50
-100 -67 -173 -22 -101 -148 -470 -179 -528 -7 -13 -10 -29 -8 -36 3 -7 -8
-36 -24 -64 l-28 -50 -60 1 c-36 1 -65 -3 -73 -11 -9 -9 -15 -9 -28 3 -14 12
-22 12 -65 0 -55 -17 -60 -14 -70 46 -4 21 -13 45 -20 56 -8 10 -15 30 -15 44
0 15 -9 46 -20 70 -11 24 -20 53 -20 65 0 11 -12 45 -28 75 -15 30 -28 67 -30
82 -1 16 -8 41 -16 55 -25 50 -46 103 -46 118 0 9 -20 58 -45 110 -25 51 -45
97 -45 101 0 14 -60 48 -78 45 -28 -6 -49 -30 -65 -75 -23 -65 -65 -222 -86
-327 -11 -52 -27 -127 -35 -165 -8 -39 -18 -93 -20 -121 -3 -28 -10 -64 -16
-79 -20 -51 -63 -369 -56 -412 5 -33 2 -36 -110 -133 -128 -112 -251 -284
-309 -435 l-23 -60 -105 4 c-124 4 -149 -2 -145 -32 3 -20 11 -22 107 -29 57
-4 109 -9 116 -12 10 -3 11 -16 4 -52 -5 -26 -7 -56 -4 -65 10 -31 -37 -52
-187 -84 -65 -14 -78 -20 -78 -36 0 -16 7 -19 54 -19 29 0 91 11 137 24 46 14
87 22 90 18 4 -4 14 -29 23 -57 9 -27 32 -71 50 -96 38 -51 156 -151 231 -194
28 -16 51 -33 53 -37 6 -15 192 -114 380 -204 3 -2 11 -173 16 -351 1 -51 5
-95 8 -99 4 -3 0 -21 -8 -39 -8 -19 -14 -44 -14 -56 0 -24 -14 -72 -37 -131
-9 -20 -13 -42 -11 -49 3 -8 1 -18 -4 -24 -32 -37 -121 -199 -154 -280 -7 -16
-26 -57 -43 -90 -74 -144 -91 -181 -91 -195 0 -8 -14 -33 -30 -54 -17 -22 -30
-49 -30 -61 0 -12 -8 -33 -18 -46 -11 -13 -24 -42 -30 -64 -6 -22 -25 -80 -42
-130 -29 -85 -48 -155 -55 -200 -1 -11 -10 -37 -19 -57 -9 -21 -16 -57 -16
-82 0 -53 -13 -65 -34 -34 -36 51 -161 170 -198 188 -78 38 -178 63 -225 56
-67 -9 -127 -39 -157 -79 -36 -48 -55 -152 -35 -199 17 -41 78 -110 90 -102 5
3 30 -15 56 -40 25 -25 49 -46 53 -46 4 0 12 -11 20 -24 7 -13 20 -26 29 -29
12 -3 24 -30 39 -85 20 -71 21 -87 11 -129 -18 -74 -68 -163 -129 -233 -35
-40 -100 -156 -100 -179 0 -12 -4 -21 -8 -21 -5 0 -16 -35 -26 -77 -25 -114
-12 -240 37 -345 52 -112 141 -219 238 -284 54 -37 226 -124 243 -124 7 0 39
-11 72 -24 78 -31 269 -74 364 -82 216 -17 588 -8 710 17 25 5 83 16 130 24
47 9 98 23 115 31 16 8 31 11 33 6 3 -10 49 -2 92 16 14 5 57 20 95 32 137 43
400 181 505 265 14 11 68 64 121 117 97 98 136 124 170 113 10 -4 58 0 106 9
48 8 113 17 143 21 30 4 69 13 85 20 17 6 47 15 69 19 44 8 171 70 201 97 11
10 44 40 73 65 29 26 66 69 82 96 16 26 34 48 39 48 5 0 14 15 22 33 7 17 28
66 47 107 19 41 34 86 34 100 0 14 9 45 21 70 18 38 22 65 24 170 2 83 -1 120
-7 110 -9 -13 -10 -13 -10 0 0 9 5 21 12 28 9 9 9 36 -1 119 -6 60 -16 117
-21 128 -17 41 -50 156 -50 175 0 10 -4 22 -10 25 -5 3 -10 17 -10 30 0 13
-25 71 -55 130 -31 59 -54 110 -51 113 5 4 -13 41 -125 267 -73 146 -151 285
-160 285 -5 0 -9 10 -9 23 0 12 -13 38 -30 57 -16 19 -29 43 -30 52 0 22 -60
146 -91 190 -28 38 -44 65 -58 93 -83 177 -135 283 -146 295 -7 8 -16 26 -20
39 -4 13 -34 79 -67 147 -32 68 -61 132 -63 142 -2 11 -13 39 -26 63 -40 79
-101 233 -109 279 -5 25 -9 66 -9 91 -1 45 32 199 48 230 5 9 5 23 -1 32 -5 9
-5 17 -1 17 36 0 7 596 -37 745 -5 17 -16 64 -25 105 -22 102 -74 264 -125
385 -22 55 -52 129 -65 165 -13 36 -47 117 -75 180 -29 63 -61 138 -71 165
-55 143 -89 205 -123 226 -35 21 -44 23 -68 8z m-1133 -1351 c32 -25 84 -135
86 -181 4 -132 -29 -242 -96 -316 -85 -94 -191 -93 -242 2 -40 75 -33 264 13
367 55 123 168 184 239 128z m735 -6 c19 -9 50 -39 67 -65 32 -48 32 -50 29
-145 -5 -111 -38 -209 -97 -283 -34 -43 -133 -99 -175 -99 -67 0 -147 59 -164
120 -17 60 -12 187 10 261 21 70 78 154 125 185 68 44 148 55 205 26z m524
-562 c27 -10 35 -38 14 -45 -7 -2 -77 -5 -156 -8 -118 -4 -145 -2 -149 10 -8
21 8 32 58 42 62 12 203 13 233 1z m-200 -214 c87 -33 207 -93 230 -116 34
-34 -5 -53 -59 -28 -14 6 -25 15 -25 20 0 4 -8 8 -17 8 -10 0 -45 13 -78 28
-33 16 -83 36 -112 46 -49 16 -70 37 -57 57 9 15 51 10 118 -15z m-1454 -3410
c22 -47 35 -65 54 -70 17 -4 23 -11 19 -24 -9 -37 187 -206 317 -272 35 -18
48 -20 62 -11 11 7 18 7 18 1 0 -5 -5 -10 -11 -10 -5 0 -7 -4 -4 -10 3 -5 17
-10 30 -10 13 0 27 -5 30 -10 18 -30 64 -41 330 -79 94 -14 376 -4 394 13 12
13 17 13 35 1 26 -18 96 -9 96 11 0 8 4 14 10 14 5 0 7 -6 4 -13 -3 -9 3 -13
18 -13 14 1 23 -5 23 -14 0 -48 -318 -140 -536 -154 -25 -2 -54 -8 -65 -13
-10 -6 -39 -11 -64 -12 -25 0 -67 -5 -95 -10 -84 -16 -280 1 -422 36 -34 9
-76 13 -93 10 -17 -4 -29 -3 -26 2 3 5 -11 16 -32 25 -20 10 -44 21 -53 26 -9
5 -27 6 -39 3 -15 -4 -21 -2 -17 4 4 6 -10 22 -31 35 -53 36 -119 104 -149
155 -23 39 -25 50 -18 111 8 82 33 170 56 197 9 11 35 48 59 83 23 34 48 62
57 62 8 0 27 -27 43 -64z"/>
<path d="M2266 8300 c-69 -21 -111 -93 -127 -222 -9 -69 -8 -93 6 -145 22 -80
50 -108 100 -99 47 9 116 73 144 131 26 55 28 158 6 231 -20 64 -38 87 -72 88
-17 1 -27 6 -25 14 1 6 1 12 0 11 -2 0 -16 -5 -32 -9z"/>
<path d="M2961 8289 c-81 -32 -135 -116 -152 -236 -10 -70 -9 -88 6 -137 49
-154 180 -137 268 35 54 104 60 177 23 253 -42 85 -83 110 -145 85z"/>
</g>
</svg>
