<?xml version="1.0" standalone="no"?>
<!DOCTYPE svg PUBLIC "-//W3C//DTD SVG 20010904//EN"
 "http://www.w3.org/TR/2001/REC-SVG-20010904/DTD/svg10.dtd">
<svg version="1.0" xmlns="http://www.w3.org/2000/svg"
 width="704.000000pt" height="1280.000000pt" viewBox="0 0 704.000000 1280.000000"
 preserveAspectRatio="xMidYMid meet">
<metadata>
Created by potrace 1.16, written by Peter Selinger 2001-2019
</metadata>
<g transform="translate(0.000000,1280.000000) scale(0.100000,-0.100000)"
fill="#000000" stroke="none">
<path d="M3502 9678 c-23 -30 -55 -105 -72 -175 -11 -41 -33 -116 -50 -166
-16 -50 -30 -97 -30 -105 0 -9 -13 -45 -28 -81 -16 -36 -37 -88 -46 -116 -10
-27 -27 -75 -37 -105 -11 -30 -27 -72 -36 -92 -18 -42 0 -38 -188 -43 -33 0
-72 -5 -86 -9 -24 -7 -27 -4 -48 56 -12 35 -26 81 -31 103 -12 56 -65 201 -84
230 -9 13 -16 35 -16 48 0 21 -9 46 -50 142 -5 11 -11 32 -14 46 -5 23 -42
108 -65 149 -5 8 -15 28 -22 44 -27 56 -90 60 -122 7 -17 -29 -54 -148 -77
-251 -7 -30 -23 -96 -36 -146 -12 -50 -30 -140 -39 -200 -9 -60 -22 -131 -30
-159 -20 -74 -35 -185 -42 -312 -6 -105 -8 -114 -30 -129 -85 -55 -216 -193
-285 -299 -46 -72 -106 -189 -113 -223 -9 -43 -24 -48 -104 -34 -60 10 -142 4
-157 -11 -3 -3 -3 -15 1 -26 6 -19 15 -21 83 -22 42 -1 91 -4 107 -8 30 -6 30
-7 30 -75 0 -63 -2 -69 -26 -81 -22 -12 -106 -35 -211 -59 -19 -4 -28 -13 -28
-26 0 -17 7 -20 49 -20 27 0 88 11 135 25 47 14 88 25 90 25 2 0 13 -27 25
-60 19 -57 84 -160 100 -160 4 0 37 -25 74 -55 36 -30 71 -55 77 -55 5 0 18
-8 28 -17 62 -59 374 -233 417 -233 12 0 24 -62 23 -125 0 -11 3 -92 7 -180 9
-187 9 -163 -9 -245 -9 -36 -18 -78 -22 -95 -4 -16 -11 -36 -16 -42 -6 -7 -7
-24 -4 -38 5 -18 2 -25 -9 -25 -8 0 -15 -7 -15 -16 0 -10 -15 -40 -34 -68 -43
-65 -120 -226 -118 -248 0 -9 -6 -22 -14 -29 -8 -6 -14 -16 -14 -21 0 -6 -14
-30 -30 -55 -17 -24 -40 -72 -51 -106 -11 -33 -31 -74 -45 -90 -13 -16 -27
-41 -30 -55 -4 -15 -12 -37 -20 -48 -24 -40 -128 -369 -122 -391 1 -4 -6 -26
-16 -48 -10 -22 -22 -69 -26 -105 -4 -36 -14 -85 -21 -110 -9 -32 -14 -110
-14 -265 0 -190 3 -228 19 -280 11 -33 23 -64 27 -70 4 -5 9 -21 11 -35 2 -17
9 -24 20 -22 12 2 16 -5 15 -32 -1 -41 17 -66 49 -66 26 0 30 -10 13 -27 -16
-16 116 -144 215 -208 104 -68 191 -109 216 -102 15 4 20 0 20 -13 0 -13 14
-23 47 -34 25 -9 48 -14 51 -11 3 2 13 0 23 -6 31 -16 205 -31 374 -32 307 -1
781 12 910 25 168 16 317 16 379 -2 35 -9 51 -10 53 -3 3 8 13 7 31 -3 35 -18
183 -19 201 -1 10 10 14 9 22 -5 7 -13 23 -16 91 -13 110 5 394 5 438 0 19 -2
58 -6 87 -9 71 -8 181 -43 225 -72 21 -13 45 -24 54 -24 9 0 18 -9 21 -20 3
-11 11 -20 19 -20 32 0 40 -90 13 -143 -43 -84 -183 -163 -394 -222 -104 -29
-127 -33 -270 -49 -146 -17 -596 -23 -665 -8 -19 4 -67 6 -107 6 -60 -2 -85
-8 -146 -37 -67 -32 -78 -41 -106 -91 -29 -50 -31 -60 -25 -108 7 -51 39 -118
57 -118 5 0 21 -13 36 -29 16 -17 41 -33 57 -36 16 -3 37 -11 47 -16 10 -5 74
-12 142 -16 110 -5 127 -4 144 11 18 16 19 16 17 -1 -1 -16 9 -18 83 -21 59
-2 86 1 92 9 6 10 11 10 22 0 12 -9 46 -10 154 -2 76 6 152 11 170 11 17 0 38
6 46 14 8 9 18 11 23 6 10 -10 136 5 163 19 10 6 35 10 57 10 21 0 73 10 114
21 41 12 98 26 125 32 148 32 361 122 510 217 41 27 109 97 158 164 102 137
113 304 31 467 -36 73 -177 210 -253 248 -35 17 -69 36 -75 41 -25 21 -189 73
-301 95 -115 23 -285 44 -390 49 -44 2 -50 4 -47 22 2 11 12 29 21 40 25 29
101 202 101 230 0 13 10 45 21 72 20 43 22 65 22 223 -1 196 0 191 -20 280 -8
36 -18 84 -23 107 -5 24 -16 56 -25 72 -8 17 -15 39 -15 50 0 11 -4 23 -10 26
-5 3 -10 17 -10 31 0 24 -71 178 -91 199 -5 5 -9 17 -9 28 0 10 -17 55 -39
100 -21 45 -53 113 -71 152 -41 89 -91 165 -103 158 -6 -4 -7 -1 -2 6 9 15
-20 85 -52 124 -13 16 -23 37 -23 46 0 10 -13 35 -30 56 -16 21 -30 44 -30 52
0 20 -66 147 -106 204 -19 27 -34 51 -34 54 0 5 -124 256 -158 320 -5 11 -31
67 -57 125 -26 58 -54 119 -62 135 -8 17 -21 48 -28 70 -7 22 -34 87 -60 145
-25 58 -52 119 -59 135 -21 47 -25 148 -11 245 5 30 8 59 7 63 -1 4 4 21 13
36 8 16 15 44 15 62 0 57 2 74 10 84 9 11 11 205 2 219 -3 5 -6 48 -8 95 -5
118 -21 277 -34 331 -6 25 -15 65 -20 90 -18 92 -28 130 -50 185 -4 11 -15 47
-25 80 -9 33 -23 74 -29 90 -7 17 -28 66 -46 110 -18 44 -50 123 -72 175 -22
52 -55 131 -73 175 -19 44 -54 130 -79 190 -50 121 -87 165 -135 165 -16 0
-33 -6 -39 -12z m-1103 -1322 c13 -11 37 -50 55 -86 28 -59 31 -74 30 -150 -2
-72 -6 -95 -33 -153 -51 -111 -133 -177 -218 -177 -35 0 -101 83 -109 137 -11
74 2 247 22 290 31 66 74 122 107 140 72 37 104 37 146 -1z m741 -18 c61 -42
83 -89 85 -181 2 -53 -4 -90 -21 -140 -32 -93 -45 -114 -103 -174 -58 -59
-102 -77 -178 -71 -46 4 -59 10 -92 42 -22 21 -42 52 -46 70 -16 74 -16 138 0
208 49 219 221 338 355 246z m520 -567 c21 -35 1 -41 -131 -43 -71 -1 -139 -2
-151 -2 -34 -1 -34 29 -1 42 49 19 66 21 171 19 75 -2 105 -6 112 -16z m-234
-195 c37 -13 128 -56 205 -96 19 -10 41 -25 48 -34 29 -35 -25 -50 -69 -19
-27 19 -98 51 -200 90 -71 26 -96 45 -86 62 10 15 56 14 102 -3z"/>
<path d="M2226 8280 c-54 -48 -79 -136 -74 -259 5 -142 39 -188 123 -167 43
11 113 84 130 137 36 108 3 295 -52 293 -12 0 -20 3 -18 7 3 4 -2 10 -11 13
-33 13 -65 5 -98 -24z"/>
<path d="M2934 8278 c-51 -36 -101 -112 -110 -169 -15 -100 -15 -119 0 -174
22 -74 55 -105 111 -105 140 0 256 295 164 419 -51 69 -94 77 -165 29z"/>
</g>
</svg>
