<?xml version="1.0" standalone="no"?>
<!DOCTYPE svg PUBLIC "-//W3C//DTD SVG 20010904//EN"
 "http://www.w3.org/TR/2001/REC-SVG-20010904/DTD/svg10.dtd">
<svg version="1.0" xmlns="http://www.w3.org/2000/svg"
 width="704.000000pt" height="1280.000000pt" viewBox="0 0 704.000000 1280.000000"
 preserveAspectRatio="xMidYMid meet">
<metadata>
Created by potrace 1.16, written by Peter Selinger 2001-2019
</metadata>
<g transform="translate(0.000000,1280.000000) scale(0.100000,-0.100000)"
fill="#000000" stroke="none">
<path d="M3509 9678 c-7 -13 -18 -27 -24 -33 -17 -15 -57 -114 -50 -125 3 -6
13 -10 21 -10 8 0 14 -4 14 -10 0 -5 -10 -10 -22 -10 -21 0 -28 -16 -75 -163
-82 -257 -93 -289 -119 -343 -13 -28 -24 -59 -24 -68 0 -9 -11 -39 -25 -66
-25 -50 -26 -50 -75 -50 -27 0 -61 -5 -75 -12 -21 -9 -27 -9 -38 6 -11 15 -16
16 -56 1 -24 -8 -47 -15 -52 -15 -4 0 -13 19 -20 43 -6 23 -17 56 -24 72 -7
17 -25 71 -40 120 -15 50 -37 115 -49 145 -13 30 -33 87 -46 125 -13 39 -26
75 -30 80 -4 6 -10 24 -13 42 -9 48 -88 205 -116 232 -20 19 -30 22 -49 15
-39 -14 -59 -51 -92 -164 -34 -121 -105 -441 -115 -515 -3 -27 -10 -63 -15
-80 -22 -71 -50 -281 -51 -382 l-1 -73 -62 -50 c-67 -54 -178 -172 -239 -254
-46 -61 -111 -188 -127 -246 l-11 -42 -93 7 c-118 9 -158 1 -154 -28 3 -20 11
-23 107 -29 58 -5 109 -12 113 -16 5 -5 6 -39 2 -75 -6 -64 -8 -66 -43 -80
-20 -8 -80 -25 -134 -38 -78 -19 -97 -26 -97 -41 0 -27 88 -24 195 7 48 14 89
24 90 23 1 -2 9 -25 18 -52 27 -80 75 -143 160 -212 44 -35 84 -64 89 -64 5 0
29 -16 52 -35 65 -53 302 -184 385 -213 22 -8 31 -18 32 -34 4 -69 8 -178 12
-296 3 -73 8 -136 11 -139 3 -4 2 -11 -3 -17 -5 -6 -16 -49 -25 -95 -10 -47
-24 -97 -32 -112 -17 -34 -19 -63 -2 -53 7 5 8 3 4 -5 -5 -7 -10 -10 -13 -7
-3 3 -16 -13 -28 -37 -12 -23 -39 -71 -59 -107 -21 -36 -44 -81 -51 -100 -32
-86 -42 -108 -68 -150 -38 -63 -77 -147 -77 -168 0 -9 -16 -37 -35 -61 -19
-24 -35 -54 -35 -66 0 -12 -9 -34 -20 -48 -11 -14 -20 -32 -20 -39 0 -8 -18
-64 -40 -125 -21 -61 -47 -149 -56 -195 -18 -93 -31 -112 -83 -129 -35 -12
-110 -49 -183 -92 -58 -34 -141 -145 -156 -209 -15 -66 -15 -86 -1 -127 10
-27 15 -32 35 -27 20 5 24 3 24 -16 0 -38 55 -88 96 -88 18 0 34 -4 34 -10 0
-13 53 -13 66 -1 8 9 44 15 71 12 7 -1 15 -18 18 -39 9 -64 27 -136 40 -167 8
-16 16 -40 20 -52 3 -13 11 -23 16 -23 5 0 9 -13 9 -28 0 -32 42 -78 60 -67 7
4 9 -1 5 -17 -4 -19 7 -34 57 -84 113 -109 304 -234 360 -234 28 -1 53 -33 68
-91 49 -182 189 -349 360 -431 120 -58 260 -105 335 -114 22 -2 72 -8 110 -13
85 -11 154 -8 365 14 14 1 38 7 53 14 15 6 31 10 35 9 15 -3 82 15 88 23 3 5
17 9 31 9 37 0 183 81 276 153 118 91 220 234 258 360 l14 48 72 22 c42 12 73
26 73 34 0 7 5 13 10 13 6 0 10 -5 10 -11 0 -7 10 -9 27 -4 112 28 344 200
303 225 -8 5 -9 9 -1 14 6 4 11 2 11 -5 0 -9 3 -9 14 1 8 6 12 18 9 26 -3 8 1
14 10 14 8 0 23 12 33 27 34 52 94 183 105 231 6 26 18 62 26 81 17 41 29 256
15 265 -7 4 -7 15 0 35 8 20 8 48 -1 102 -6 41 -13 93 -16 116 -2 23 -8 50
-13 60 -5 10 -13 35 -16 57 -4 21 -11 46 -16 55 -4 9 -18 47 -29 85 -22 71
-39 108 -85 188 -15 26 -25 52 -21 58 4 6 -4 27 -17 48 -12 20 -46 88 -75 150
-48 105 -89 180 -103 192 -3 3 -14 27 -24 53 -10 26 -30 62 -44 79 -14 17 -26
39 -27 49 -1 10 -14 36 -28 58 -15 22 -27 44 -27 49 0 16 -82 177 -100 197
-18 19 -150 277 -150 293 0 4 -16 31 -35 61 -19 29 -35 59 -35 66 0 7 -29 72
-65 144 -36 72 -65 139 -65 149 0 9 -16 51 -37 92 -20 41 -40 84 -44 95 -4 11
-18 43 -30 70 -24 56 -31 91 -31 180 -1 57 20 163 42 213 7 16 6 28 -2 41 -9
15 -9 23 2 36 11 13 11 18 1 24 -9 6 -9 10 2 20 11 9 15 39 15 121 1 60 -2
112 -7 114 -4 3 -6 38 -5 78 4 115 -10 217 -65 473 -19 88 -25 109 -41 150 -4
11 -16 47 -28 80 -36 109 -36 108 -133 345 -56 139 -73 179 -90 215 -10 23
-34 80 -53 127 -55 137 -83 186 -116 203 -40 21 -57 19 -71 -7z m-1139 -1325
c35 -24 47 -40 77 -103 51 -110 27 -272 -58 -384 -38 -50 -75 -75 -127 -87
-44 -10 -81 8 -118 56 -54 72 -52 273 6 390 34 71 71 109 125 129 53 19 66 19
95 -1z m785 -53 l50 -51 3 -100 c4 -90 1 -109 -23 -175 -17 -45 -45 -95 -71
-128 -93 -112 -236 -128 -307 -34 -37 48 -47 104 -37 211 7 73 16 105 44 161
57 116 126 164 236 165 54 1 57 -1 105 -49z m504 -529 c21 -34 2 -41 -120 -43
-65 -1 -134 -2 -151 -2 -27 -1 -33 3 -33 19 0 29 68 44 193 42 76 -2 105 -6
111 -16z m-159 -228 c159 -72 200 -99 185 -123 -11 -18 -74 -6 -95 19 -3 3
-21 12 -40 20 -231 90 -220 84 -220 113 0 19 4 20 43 15 23 -3 81 -23 127 -44z
m430 -3871 c0 -13 -83 -89 -115 -105 -17 -8 -57 -23 -90 -32 -33 -10 -78 -26
-99 -37 -35 -18 -40 -18 -48 -4 -10 18 -93 23 -103 6 -3 -5 -13 -10 -21 -10
-8 0 -13 4 -9 9 6 10 -8 15 -65 26 -85 16 -240 87 -240 110 0 20 96 27 355 27
132 0 276 3 320 7 116 12 115 12 115 3z"/>
<path d="M2222 8275 c-94 -79 -119 -349 -39 -423 30 -27 56 -31 92 -14 49 24
65 42 59 68 -4 16 -2 24 6 24 7 0 10 -7 6 -15 -3 -8 -1 -15 4 -15 5 0 21 26
36 57 24 52 26 65 21 140 -6 110 -38 179 -80 175 -17 -2 -29 3 -33 13 -9 22
-38 18 -72 -10z"/>
<path d="M2935 8271 c-114 -71 -169 -269 -110 -395 41 -87 144 -86 213 1 64
82 77 119 77 226 0 90 -2 100 -22 117 -13 10 -23 25 -23 34 0 36 -87 47 -135
17z"/>
</g>
</svg>
