<?xml version="1.0" standalone="no"?>
<!DOCTYPE svg PUBLIC "-//W3C//DTD SVG 20010904//EN"
 "http://www.w3.org/TR/2001/REC-SVG-20010904/DTD/svg10.dtd">
<svg version="1.0" xmlns="http://www.w3.org/2000/svg"
 width="704.000000pt" height="1280.000000pt" viewBox="0 0 704.000000 1280.000000"
 preserveAspectRatio="xMidYMid meet">
<metadata>
Created by potrace 1.16, written by Peter Selinger 2001-2019
</metadata>
<g transform="translate(0.000000,1280.000000) scale(0.100000,-0.100000)"
fill="#000000" stroke="none">
<path d="M3505 9684 c-23 -24 -75 -141 -75 -167 0 -19 -84 -294 -113 -369 -13
-35 -39 -103 -56 -153 -18 -49 -44 -114 -57 -143 l-24 -52 -47 1 c-27 1 -58
-1 -71 -5 -13 -5 -29 -3 -37 4 -13 10 -57 4 -110 -16 -10 -4 -19 12 -31 55 -9
34 -21 64 -25 67 -5 3 -9 19 -9 35 0 17 -6 42 -14 57 -7 15 -17 43 -21 62 -4
19 -18 58 -32 85 -14 28 -27 61 -29 75 -5 28 -28 90 -50 133 -8 16 -14 37 -14
48 0 18 -40 117 -60 149 -5 8 -16 29 -24 46 -16 37 -52 64 -83 64 -25 0 -55
-38 -71 -90 -44 -137 -68 -241 -123 -515 -11 -55 -26 -131 -34 -170 -27 -133
-47 -280 -50 -359 l-3 -79 -62 -53 c-79 -69 -162 -155 -210 -219 -53 -69 -124
-200 -146 -268 l-18 -57 -102 6 c-124 8 -157 2 -152 -29 3 -21 10 -22 110 -29
59 -3 111 -9 116 -12 5 -3 6 -26 2 -52 -4 -26 -5 -55 -3 -64 7 -28 -32 -47
-154 -76 -92 -21 -113 -29 -113 -44 0 -10 6 -20 14 -23 21 -8 121 8 196 32 35
11 67 17 71 13 3 -4 14 -29 24 -57 19 -54 90 -165 104 -165 5 0 33 -19 61 -42
61 -50 92 -71 138 -95 17 -9 32 -20 32 -24 0 -10 182 -112 290 -163 47 -22 86
-41 88 -42 3 -2 11 -173 16 -351 1 -51 5 -96 9 -99 3 -4 2 -14 -2 -23 -5 -9
-14 -39 -19 -66 -21 -103 -77 -263 -96 -279 -8 -6 -33 -49 -56 -96 -23 -47
-48 -97 -56 -112 -8 -14 -14 -32 -14 -40 -1 -7 -16 -38 -35 -68 -41 -67 -85
-158 -85 -176 0 -7 -14 -33 -31 -58 -17 -24 -31 -56 -31 -70 0 -14 -9 -33 -19
-42 -11 -9 -19 -25 -19 -35 0 -10 -16 -61 -35 -113 -20 -52 -46 -136 -60 -188
-13 -51 -28 -106 -34 -121 -6 -16 -11 -44 -11 -63 0 -19 -7 -65 -16 -102 -24
-104 -45 -136 -59 -92 -3 10 -31 31 -61 46 -45 22 -63 26 -104 21 -88 -11
-159 -72 -209 -184 -37 -81 -44 -93 -93 -151 -40 -47 -197 -172 -217 -172 -5
0 -43 -32 -85 -71 -65 -61 -84 -86 -128 -175 l-51 -103 -3 -140 c-2 -83 1
-143 6 -146 6 -3 10 -14 10 -23 0 -48 77 -159 159 -228 93 -80 155 -105 456
-184 111 -29 116 -31 185 -57 63 -24 189 -86 379 -185 93 -48 309 -128 348
-128 10 0 24 -5 29 -10 6 -6 78 -23 160 -39 129 -24 171 -28 314 -27 172 2
316 17 410 43 142 39 271 87 355 132 17 8 56 29 88 46 64 34 240 193 297 270
64 85 160 288 160 337 0 27 29 48 68 48 41 0 191 28 291 55 113 30 208 85 296
173 103 101 127 133 160 212 15 36 33 72 40 80 7 8 18 40 25 70 7 30 19 73 28
95 20 53 27 321 11 435 -11 82 -43 218 -59 249 -4 9 -18 51 -31 94 -13 43 -27
80 -31 83 -4 3 -8 13 -8 23 0 10 -7 24 -16 31 -17 15 -47 77 -48 100 -1 8 -17
49 -38 90 -20 41 -49 102 -64 135 -45 98 -167 319 -184 332 -8 6 -12 15 -8 19
4 4 -8 29 -27 56 -19 26 -35 54 -35 62 0 21 -62 147 -92 187 -14 18 -61 106
-103 194 -43 88 -86 171 -95 185 -10 14 -21 36 -25 50 -4 14 -36 85 -71 157
-35 73 -64 137 -64 143 0 5 -13 38 -30 72 -75 161 -100 234 -107 315 -4 62 -2
91 12 132 9 28 14 58 12 66 -6 15 14 65 26 65 4 0 3 9 -2 19 -8 13 -7 29 1 53
28 78 4 506 -39 708 -24 114 -52 221 -67 260 -8 19 -21 58 -30 85 -34 108
-137 367 -261 655 -20 47 -43 103 -51 124 -22 60 -53 105 -84 121 -39 20 -47
19 -75 -11z m-1134 -1326 c22 -15 46 -47 67 -88 27 -54 32 -75 30 -126 0 -33
1 -65 5 -70 3 -6 2 -16 -4 -24 -5 -8 -9 -23 -9 -34 0 -27 -57 -136 -88 -170
-30 -32 -96 -65 -130 -66 -39 0 -80 28 -107 74 -23 39 -26 54 -25 138 1 117 3
143 20 193 28 84 83 149 153 177 53 22 48 22 88 -4z m737 -12 c15 -8 39 -27
53 -43 46 -49 55 -81 54 -178 -2 -76 -7 -102 -32 -163 -54 -127 -125 -191
-233 -208 -62 -10 -144 43 -170 111 -18 46 -12 190 10 266 41 136 142 225 258
228 18 1 45 -5 60 -13z m554 -574 c6 -6 8 -18 5 -26 -5 -13 -25 -16 -110 -16
-57 0 -124 -3 -149 -6 -37 -5 -46 -3 -52 12 -9 24 2 33 55 44 57 12 237 6 251
-8z m-218 -206 c87 -33 207 -93 230 -116 39 -38 -21 -56 -67 -20 -14 11 -31
20 -39 20 -7 0 -40 13 -73 28 -33 16 -83 36 -112 46 -49 16 -70 37 -57 57 9
15 51 10 118 -15z m-1520 -3186 c17 -99 51 -196 65 -193 6 2 10 -8 9 -21 -1
-14 4 -36 12 -50 12 -24 24 -30 58 -29 6 1 12 -3 12 -8 0 -5 -4 -9 -10 -9 -26
0 -4 -33 63 -96 114 -109 307 -237 307 -204 0 5 4 10 10 10 5 0 7 -7 4 -15 -6
-14 6 -20 30 -16 5 1 16 -5 25 -12 9 -8 25 -19 37 -25 25 -13 223 -46 231 -38
3 2 17 0 32 -5 38 -15 418 -14 437 1 10 9 14 10 14 1 0 -9 23 -10 83 -6 45 4
89 6 97 5 8 -1 89 -3 179 -3 164 -2 164 -2 166 -25 1 -13 -3 -26 -8 -29 -6 -4
-7 0 -3 8 4 8 1 6 -6 -5 -54 -78 -125 -159 -179 -202 -68 -54 -191 -118 -274
-141 -151 -42 -198 -52 -225 -47 -16 4 -43 2 -59 -4 -17 -6 -33 -7 -35 -3 -3
4 -56 11 -117 15 -61 3 -146 11 -188 17 -103 15 -382 115 -553 200 -76 38
-144 69 -151 69 -7 0 -17 4 -23 9 -5 4 -61 25 -124 46 -63 21 -130 44 -148 51
-18 8 -41 14 -52 14 -10 0 -31 7 -47 15 -15 9 -39 20 -53 25 -14 5 -47 23 -75
40 -27 17 -58 33 -67 36 -10 4 -18 10 -18 14 0 4 -8 10 -18 12 -20 6 -32 50
-32 119 0 31 10 45 78 115 44 43 109 97 146 119 165 98 267 181 282 228 6 19
66 108 71 103 1 0 8 -39 17 -86z"/>
<path d="M2255 8300 c-70 -29 -115 -132 -117 -270 -2 -101 9 -138 54 -180 29
-27 52 -25 105 6 36 21 43 29 38 47 -4 14 -3 18 3 9 12 -17 35 9 58 66 24 61
15 205 -17 261 -18 34 -28 40 -58 43 -22 2 -35 8 -33 16 2 14 -4 14 -33 2z"/>
<path d="M2940 8279 c-70 -43 -114 -116 -130 -213 -13 -82 -6 -139 23 -190 65
-112 183 -71 258 87 44 95 49 168 17 239 -27 58 -71 98 -110 98 -12 0 -39 -10
-58 -21z"/>
</g>
</svg>
