<?xml version="1.0" standalone="no"?>
<!DOCTYPE svg PUBLIC "-//W3C//DTD SVG 20010904//EN"
 "http://www.w3.org/TR/2001/REC-SVG-20010904/DTD/svg10.dtd">
<svg version="1.0" xmlns="http://www.w3.org/2000/svg"
 width="704.000000pt" height="1280.000000pt" viewBox="0 0 704.000000 1280.000000"
 preserveAspectRatio="xMidYMid meet">
<metadata>
Created by potrace 1.16, written by Peter Selinger 2001-2019
</metadata>
<g transform="translate(0.000000,1280.000000) scale(0.100000,-0.100000)"
fill="#000000" stroke="none">
<path d="M3496 9665 c-34 -44 -62 -109 -71 -165 -9 -53 -78 -276 -105 -340
-11 -25 -30 -76 -43 -115 -39 -113 -48 -137 -73 -192 l-24 -53 -57 -1 c-141
-4 -170 -6 -194 -13 -25 -7 -27 -5 -51 66 -13 40 -37 114 -52 163 -15 50 -37
113 -50 140 -13 28 -28 72 -35 98 -6 27 -20 67 -31 88 -10 22 -22 54 -25 71
-14 60 -93 214 -118 227 -36 19 -69 10 -89 -25 -37 -63 -106 -329 -144 -549
-8 -49 -23 -130 -34 -180 -31 -145 -49 -277 -49 -376 -1 -65 -2 -67 -38 -95
-60 -45 -211 -203 -257 -269 -59 -84 -99 -160 -126 -232 l-23 -63 -111 6 c-90
5 -115 3 -131 -9 -16 -13 -17 -17 -6 -31 10 -12 31 -16 85 -16 39 0 87 -5 107
-10 l37 -10 -3 -67 -2 -68 -39 -17 c-22 -10 -83 -27 -137 -39 -88 -20 -98 -25
-95 -43 3 -19 9 -21 58 -18 30 2 93 14 139 28 45 14 84 24 86 22 1 -2 10 -27
19 -55 18 -53 98 -173 115 -173 6 0 37 -22 70 -50 33 -27 62 -50 65 -50 3 0
25 -14 48 -30 130 -93 284 -179 396 -221 12 -5 22 -16 22 -26 1 -10 3 -65 5
-123 3 -58 7 -152 9 -208 3 -57 6 -106 9 -108 2 -3 -2 -21 -9 -42 -7 -20 -13
-46 -14 -56 0 -22 -16 -75 -36 -124 -8 -18 -12 -37 -9 -42 3 -5 -14 -42 -39
-82 -24 -40 -56 -100 -71 -133 -16 -33 -37 -77 -47 -97 -11 -21 -17 -42 -14
-47 4 -5 2 -11 -2 -13 -17 -7 -112 -188 -112 -213 0 -9 -16 -38 -35 -66 -19
-28 -35 -59 -35 -69 0 -9 -9 -29 -20 -43 -11 -14 -20 -31 -20 -39 0 -8 -13
-51 -30 -95 -27 -76 -69 -223 -75 -268 -2 -11 -10 -37 -19 -57 -9 -21 -16 -54
-16 -75 0 -21 -7 -60 -16 -88 -22 -69 -33 -355 -17 -460 13 -93 28 -149 49
-188 8 -15 12 -32 9 -37 -3 -6 1 -13 9 -16 9 -3 16 -14 16 -25 0 -32 22 -68
44 -71 14 -2 21 -11 22 -27 1 -13 9 -28 18 -33 23 -13 20 -35 -13 -98 -34 -65
-71 -211 -71 -281 0 -28 5 -71 10 -97 6 -26 16 -69 22 -97 28 -128 131 -282
270 -403 92 -80 143 -113 163 -106 8 4 23 -3 33 -14 38 -42 192 -51 237 -12
11 9 27 20 36 23 26 9 71 74 74 104 1 16 5 40 9 54 7 25 -10 94 -35 140 -5 11
-41 40 -79 65 -76 50 -170 138 -170 159 0 8 -9 19 -21 25 -16 9 -18 14 -9 25
6 8 11 36 10 62 -4 125 1 132 86 112 129 -29 271 -35 684 -29 175 2 310 -10
363 -34 68 -30 249 -47 263 -25 2 4 17 1 32 -6 17 -9 43 -12 70 -8 34 5 42 10
43 27 1 17 2 17 6 3 5 -19 37 -22 76 -8 16 6 27 21 32 43 l7 33 9 -32 c5 -18
16 -33 23 -33 18 0 96 58 96 71 0 7 11 9 27 6 19 -3 42 3 71 20 24 15 60 29
80 33 111 23 195 52 262 89 92 53 173 121 208 175 14 23 38 55 52 71 36 41
110 206 110 245 0 17 8 47 19 68 24 48 34 125 19 140 -9 9 -9 12 0 12 8 0 10
17 6 58 -4 31 -6 65 -5 75 7 68 0 176 -10 183 -5 3 -9 25 -9 49 0 24 -4 47
-10 50 -5 3 -10 16 -10 28 -1 12 -8 40 -16 62 -9 22 -17 47 -18 55 -13 74 -41
144 -91 231 -18 31 -33 67 -33 80 0 13 -23 66 -51 118 -28 52 -51 99 -51 105
0 21 -82 160 -101 174 -12 8 -18 20 -15 29 7 17 -50 123 -65 123 -6 0 -9 6 -8
13 3 24 -1 35 -31 72 -16 21 -30 44 -30 52 0 25 -51 125 -101 200 -27 40 -49
75 -49 79 0 14 -139 292 -149 298 -6 4 -11 15 -11 24 0 10 -29 77 -65 150 -36
74 -65 140 -65 147 0 18 -20 63 -41 96 -10 14 -28 54 -40 90 -12 35 -27 78
-34 94 -33 81 -40 185 -16 248 6 16 11 42 11 58 0 17 7 43 15 59 11 20 12 36
6 53 -7 17 -6 28 2 36 14 14 24 281 10 281 -4 0 -8 33 -7 72 0 79 -18 253 -35
333 -6 28 -14 64 -17 80 -9 54 -26 119 -44 175 -10 30 -28 88 -40 128 -13 40
-27 75 -31 78 -5 3 -9 12 -9 20 0 8 -17 56 -39 107 -21 50 -60 144 -86 207
-26 63 -55 133 -65 155 -10 22 -37 85 -59 140 -58 138 -62 146 -96 167 -43 26
-59 23 -89 -17z m-1103 -1327 c78 -55 108 -250 57 -373 -13 -33 -44 -84 -68
-112 -35 -43 -53 -56 -97 -68 -47 -14 -57 -14 -82 -2 -82 43 -110 146 -88 322
14 110 88 219 170 248 45 16 68 13 108 -15z m756 -29 c54 -53 60 -70 61 -181
1 -101 -4 -124 -45 -211 -54 -112 -184 -193 -265 -166 -57 20 -78 38 -105 92
-20 42 -25 65 -25 131 0 88 22 184 53 231 62 93 145 145 232 145 46 0 55 -4
94 -41z m506 -540 c29 -28 -3 -37 -155 -40 -127 -4 -145 -2 -148 12 -3 15 23
31 73 43 11 2 64 4 117 3 74 -2 101 -6 113 -18z m-174 -219 c160 -69 212 -101
202 -126 -8 -22 -70 -12 -93 15 -3 3 -25 13 -50 22 -61 23 -172 68 -190 78 -8
4 -17 18 -18 31 -4 21 -1 22 35 18 22 -3 73 -20 114 -38z"/>
<path d="M2244 8281 c-59 -36 -89 -97 -104 -218 -11 -83 7 -173 42 -210 50
-53 147 -5 201 97 27 51 29 61 25 145 -4 106 -30 172 -67 168 -12 -2 -26 6
-33 17 -16 25 -25 25 -64 1z"/>
<path d="M2945 8270 c-25 -10 -89 -79 -108 -117 -23 -45 -39 -140 -32 -192 8
-58 42 -121 76 -140 22 -12 33 -12 72 -1 90 25 157 131 165 262 4 70 2 81 -22
122 -14 25 -36 52 -48 61 -24 16 -70 19 -103 5z"/>
</g>
</svg>
