<?xml version="1.0" standalone="no"?>
<!DOCTYPE svg PUBLIC "-//W3C//DTD SVG 20010904//EN"
 "http://www.w3.org/TR/2001/REC-SVG-20010904/DTD/svg10.dtd">
<svg version="1.0" xmlns="http://www.w3.org/2000/svg"
 width="704.000000pt" height="1280.000000pt" viewBox="0 0 704.000000 1280.000000"
 preserveAspectRatio="xMidYMid meet">
<metadata>
Created by potrace 1.16, written by Peter Selinger 2001-2019
</metadata>
<g transform="translate(0.000000,1280.000000) scale(0.100000,-0.100000)"
fill="#000000" stroke="none">
<path d="M3519 9698 c-36 -31 -68 -101 -95 -211 -8 -32 -30 -105 -49 -163 -19
-57 -35 -112 -35 -120 0 -9 -8 -31 -19 -48 -10 -17 -26 -58 -36 -91 -9 -33
-25 -75 -34 -95 -10 -19 -21 -49 -24 -66 -3 -17 -16 -47 -27 -67 -21 -36 -24
-37 -78 -37 -32 0 -63 -4 -71 -9 -10 -7 -19 -5 -26 6 -11 15 -16 14 -60 -1
-27 -9 -52 -16 -55 -16 -4 0 -19 39 -34 88 -15 48 -34 107 -42 132 -9 25 -19
60 -24 77 -4 18 -20 55 -34 83 -14 27 -26 59 -26 71 0 11 -13 53 -29 92 -16
40 -34 88 -41 109 -6 20 -24 62 -40 94 -17 32 -30 63 -30 69 0 6 -13 24 -29
39 -35 34 -76 32 -102 -4 -32 -44 -153 -525 -163 -646 -2 -23 -8 -56 -15 -75
-21 -65 -64 -384 -57 -424 7 -37 5 -39 -69 -101 -33 -27 -87 -79 -120 -114
-33 -36 -62 -67 -65 -70 -38 -35 -151 -236 -171 -304 l-13 -46 -116 6 c-96 6
-117 4 -128 -8 -24 -30 -4 -48 53 -48 28 0 80 -3 114 -6 54 -6 61 -9 56 -25
-4 -11 -2 -19 5 -19 6 0 4 -10 -6 -25 -10 -15 -14 -34 -10 -50 9 -35 -20 -50
-153 -82 -90 -22 -111 -30 -111 -45 0 -27 88 -24 191 6 46 14 87 22 91 18 3
-4 11 -25 17 -47 16 -59 87 -157 142 -194 26 -18 58 -44 70 -57 12 -13 27 -24
32 -24 6 0 19 -7 29 -17 10 -9 26 -21 36 -27 10 -6 38 -24 63 -39 101 -63 164
-98 252 -138 50 -23 94 -43 95 -45 4 -2 10 -147 16 -344 1 -53 5 -101 9 -107
4 -6 3 -14 -2 -18 -6 -3 -13 -27 -16 -53 -4 -26 -10 -56 -14 -67 -5 -11 -16
-47 -26 -80 -10 -33 -22 -64 -27 -70 -4 -5 -8 -18 -8 -28 0 -11 -11 -33 -25
-49 -22 -26 -65 -109 -110 -213 -29 -65 -58 -122 -86 -170 -16 -27 -34 -68
-41 -90 -6 -22 -24 -58 -40 -79 -15 -22 -28 -51 -28 -65 0 -14 -8 -34 -19 -45
-10 -12 -23 -39 -29 -61 -6 -22 -24 -78 -40 -125 -16 -47 -35 -110 -42 -140
-6 -30 -20 -82 -31 -115 -11 -33 -19 -81 -19 -106 0 -30 -6 -54 -17 -68 -18
-21 -18 -21 -98 40 -95 72 -141 93 -255 120 -181 42 -395 11 -539 -79 -98 -62
-114 -80 -134 -151 -24 -84 -22 -98 20 -164 31 -48 44 -59 78 -68 22 -5 50
-14 63 -19 37 -16 51 -12 136 31 68 36 92 43 165 48 66 6 89 4 100 -6 7 -8 26
-16 41 -19 15 -4 45 -21 66 -40 28 -24 45 -31 62 -27 18 4 22 1 23 -18 1 -33
4 -50 30 -143 17 -66 20 -95 14 -156 -4 -41 -8 -92 -8 -112 -1 -21 -5 -38 -9
-38 -4 0 -9 -21 -13 -47 -3 -27 -12 -77 -20 -113 -11 -44 -14 -99 -12 -170 4
-93 9 -116 41 -195 20 -49 49 -109 64 -133 48 -72 142 -172 220 -234 74 -58
165 -112 175 -102 2 3 22 -6 42 -21 21 -14 45 -25 54 -25 9 -1 34 -8 56 -16
65 -25 168 -53 195 -54 15 0 31 -5 37 -11 20 -20 370 -22 493 -4 344 51 466
84 665 180 93 45 267 160 332 219 65 59 159 183 196 257 15 32 33 61 40 66 6
6 75 20 152 33 77 12 158 28 180 35 22 7 58 16 80 20 44 7 179 76 204 104 9
10 38 35 64 56 33 25 45 40 37 45 -14 8 -5 30 11 30 6 0 7 -5 4 -10 -3 -6 -2
-10 3 -10 5 0 15 13 22 29 6 16 25 41 41 57 16 15 29 35 29 43 0 9 18 49 40
89 22 40 43 92 46 115 3 23 13 58 22 77 20 44 28 314 12 410 -6 36 -12 76 -13
90 -1 14 -5 30 -8 35 -4 6 -12 35 -19 65 -7 30 -17 64 -23 75 -5 10 -11 26
-12 35 -5 51 -51 164 -100 248 -14 23 -25 50 -25 60 0 9 -20 58 -44 107 -24
50 -60 124 -80 165 -19 41 -45 91 -58 110 -12 19 -34 60 -48 90 -15 30 -34 61
-43 69 -10 7 -17 22 -17 33 0 11 -13 37 -30 58 -16 21 -30 45 -30 54 0 24 -59
146 -90 186 -15 19 -64 109 -109 200 -45 91 -90 181 -100 200 -55 104 -141
290 -141 304 0 9 -15 47 -34 84 -18 37 -46 101 -60 142 -15 41 -32 80 -38 87
-17 21 -14 200 5 278 10 38 22 74 27 79 5 5 5 19 -1 33 -5 15 -5 31 0 41 12
22 15 205 7 347 -17 296 -62 504 -176 815 -29 79 -177 442 -213 520 -13 30
-37 87 -52 125 -35 92 -70 141 -107 154 -37 13 -31 13 -49 -1z m-1134 -1350
c15 -12 41 -51 57 -87 29 -64 29 -70 23 -166 -9 -124 -42 -203 -111 -264 -89
-78 -184 -63 -231 37 -20 43 -20 225 0 298 23 81 74 151 131 179 61 31 95 31
131 3z m762 -30 c61 -57 72 -85 68 -188 -4 -103 -35 -196 -91 -271 -30 -40
-54 -58 -102 -80 -35 -16 -74 -29 -87 -29 -61 0 -138 59 -155 121 -26 89 -2
275 43 344 65 98 138 142 235 144 37 1 49 -5 89 -41z m513 -547 c20 -33 0 -38
-148 -43 -149 -5 -184 1 -161 28 18 22 89 33 197 31 75 -2 105 -6 112 -16z
m-225 -202 c82 -31 228 -104 244 -122 30 -37 -18 -49 -78 -18 -57 30 -192 88
-233 101 -54 17 -64 60 -13 60 13 0 49 -9 80 -21z m-1288 -3617 c32 -27 76
-61 98 -75 22 -15 58 -39 80 -54 66 -44 131 -73 164 -73 19 0 31 -5 31 -13 0
-26 106 -55 235 -63 28 -2 68 -8 90 -13 23 -6 135 -8 270 -5 506 11 535 11
535 -4 0 -8 6 -12 13 -9 7 3 13 -3 13 -12 0 -11 -7 -17 -21 -16 -19 2 -48 -9
-69 -26 -96 -79 -275 -151 -485 -196 -112 -23 -147 -26 -311 -26 -198 0 -246
8 -386 66 -73 29 -110 54 -191 124 -73 64 -119 146 -136 240 -13 75 -11 203 3
203 5 0 35 -22 67 -48z"/>
<path d="M2255 8296 c-67 -29 -106 -107 -120 -239 -13 -116 32 -227 90 -227
57 0 116 45 109 83 -4 18 -3 19 4 4 7 -18 8 -18 25 0 34 38 48 102 42 193 -7
107 -36 175 -70 166 -23 -6 -51 15 -38 27 10 11 -9 7 -42 -7z"/>
<path d="M2961 8289 c-82 -33 -135 -116 -153 -238 -10 -71 -9 -89 6 -136 33
-105 114 -132 195 -67 46 37 110 160 117 227 7 55 -8 126 -31 149 -8 8 -15 19
-15 25 0 16 -51 51 -74 50 -11 0 -32 -5 -45 -10z"/>
</g>
</svg>
