<?xml version="1.0" standalone="no"?>
<!DOCTYPE svg PUBLIC "-//W3C//DTD SVG 20010904//EN"
 "http://www.w3.org/TR/2001/REC-SVG-20010904/DTD/svg10.dtd">
<svg version="1.0" xmlns="http://www.w3.org/2000/svg"
 width="704.000000pt" height="1280.000000pt" viewBox="0 0 704.000000 1280.000000"
 preserveAspectRatio="xMidYMid meet">
<metadata>
Created by potrace 1.16, written by Peter Selinger 2001-2019
</metadata>
<g transform="translate(0.000000,1280.000000) scale(0.100000,-0.100000)"
fill="#000000" stroke="none">
<path d="M3504 9677 c-31 -36 -74 -128 -74 -156 0 -11 -13 -59 -28 -108 -16
-48 -39 -124 -52 -168 -13 -44 -30 -89 -36 -100 -7 -11 -18 -40 -24 -64 -6
-24 -22 -68 -36 -97 -13 -29 -24 -58 -24 -65 0 -7 -12 -37 -26 -67 l-26 -54
-44 5 c-26 3 -54 -1 -70 -9 -22 -12 -28 -12 -41 1 -18 18 -12 18 -63 0 -23 -8
-46 -15 -50 -15 -4 0 -13 21 -20 48 -7 26 -19 56 -27 67 -7 11 -13 29 -13 41
0 11 -15 63 -34 115 -19 52 -42 117 -52 144 -21 61 -52 143 -64 170 -5 11 -11
32 -14 47 -10 46 -93 212 -115 231 -44 36 -87 12 -114 -64 -34 -99 -59 -190
-81 -299 -56 -265 -65 -309 -80 -400 -9 -52 -21 -117 -26 -145 -19 -102 -29
-216 -23 -263 3 -26 2 -44 -2 -40 -15 14 -227 -194 -297 -294 -52 -73 -110
-185 -129 -246 l-12 -42 -111 6 c-89 5 -115 3 -130 -9 -12 -8 -17 -20 -13 -31
5 -12 20 -16 70 -16 109 0 157 -10 157 -32 0 -11 5 -16 10 -13 13 8 13 -8 0
-21 -5 -5 -11 -27 -12 -49 -3 -34 -8 -42 -37 -57 -19 -9 -79 -27 -133 -40 -87
-20 -98 -25 -96 -43 3 -18 9 -20 60 -17 31 2 91 14 134 27 43 13 80 22 83 20
2 -3 14 -30 27 -61 29 -72 69 -129 117 -168 22 -17 56 -46 77 -63 21 -18 40
-33 42 -33 3 0 49 -28 101 -62 149 -97 175 -112 277 -158 52 -24 96 -44 98
-45 3 -3 13 -195 16 -332 1 -62 5 -115 8 -119 4 -3 0 -21 -8 -39 -8 -19 -14
-43 -14 -53 0 -21 -50 -180 -71 -227 -8 -16 -23 -44 -35 -61 -19 -30 -70 -131
-99 -199 -25 -58 -66 -141 -91 -180 -13 -22 -29 -58 -36 -80 -6 -22 -24 -58
-39 -80 -15 -22 -30 -54 -34 -72 -3 -17 -13 -37 -21 -44 -8 -6 -14 -19 -14
-28 0 -9 -14 -54 -31 -101 -38 -105 -68 -206 -73 -245 -3 -16 -11 -50 -20 -75
-48 -146 -76 -451 -55 -611 11 -87 39 -198 51 -205 4 -3 8 -16 8 -30 0 -22 3
-24 22 -18 20 6 21 5 10 -8 -20 -25 11 -88 43 -88 21 0 24 -4 20 -22 -6 -25
36 -76 108 -132 20 -16 37 -35 37 -41 0 -6 -16 -27 -36 -46 -20 -18 -62 -72
-93 -120 -55 -82 -61 -98 -101 -259 -4 -19 -13 -71 -18 -116 -6 -44 -22 -105
-35 -135 -24 -54 -96 -139 -118 -139 -6 0 -23 -9 -38 -20 -16 -10 -46 -24 -67
-29 -21 -5 -56 -14 -77 -19 -21 -6 -45 -16 -53 -23 -9 -7 -23 -14 -31 -15 -14
-2 -42 -24 -84 -65 -33 -31 -49 -78 -49 -136 1 -76 30 -126 101 -176 52 -36
57 -37 134 -36 44 1 109 8 145 15 67 13 223 75 250 99 8 7 34 24 57 36 55 32
186 187 224 267 17 35 39 103 49 150 28 137 57 235 86 292 25 50 97 130 159
178 44 34 160 67 220 63 62 -4 265 -5 545 -3 118 1 262 -3 320 -8 151 -13 247
-13 252 2 4 10 10 10 32 0 15 -7 32 -10 37 -6 27 16 211 61 259 62 127 4 402
67 489 113 76 40 207 152 230 197 10 20 29 46 41 57 12 11 33 44 47 75 14 30
36 77 49 104 13 28 24 63 24 79 0 15 5 38 12 50 21 39 37 124 25 136 -7 7 -7
14 1 24 10 12 10 113 -1 123 -2 3 -2 24 0 47 7 66 -35 303 -66 372 -5 11 -17
49 -26 85 -9 36 -24 79 -33 96 -9 17 -30 56 -47 85 -16 30 -30 61 -30 69 0 14
-39 97 -138 299 -24 47 -50 86 -59 89 -12 3 -18 14 -18 34 0 34 -35 107 -55
115 -8 3 -15 15 -15 27 0 12 -13 40 -30 62 -16 21 -30 44 -30 51 0 18 -72 162
-104 208 -25 36 -93 172 -280 557 -36 75 -66 144 -66 153 0 10 -13 43 -29 74
-15 31 -36 76 -45 101 -10 25 -27 65 -39 90 -19 38 -22 61 -21 145 0 57 8 128
17 165 30 118 30 120 18 120 -9 0 -9 5 -1 20 6 11 8 25 5 30 -3 5 0 12 5 15
12 7 12 293 1 300 -3 1 -5 23 -4 47 4 120 -61 487 -106 593 -4 11 -17 49 -29
85 -25 79 -62 179 -89 240 -12 25 -24 56 -28 70 -4 14 -25 63 -46 109 -22 46
-39 88 -39 92 0 5 -13 36 -29 69 -17 34 -35 77 -42 97 -22 67 -76 178 -95 195
-11 9 -31 21 -46 27 -24 9 -30 7 -54 -22z m-1108 -1338 c40 -37 74 -144 74
-231 0 -210 -172 -392 -291 -307 -42 30 -65 84 -72 168 -14 173 52 334 157
382 50 23 100 18 132 -12z m735 -11 c68 -54 80 -84 80 -190 0 -181 -84 -329
-213 -372 -47 -16 -62 -17 -102 -7 -66 16 -112 67 -122 135 -31 223 63 418
221 457 64 15 95 10 136 -23z m498 -544 c24 -5 31 -12 31 -30 0 -24 -1 -24
-120 -26 -66 -1 -135 -2 -152 -2 -27 -1 -33 3 -33 19 0 15 11 23 45 32 49 13
180 17 229 7z m-185 -218 c87 -33 207 -93 230 -116 39 -38 -21 -56 -67 -20
-14 11 -30 20 -36 20 -5 0 -45 15 -88 34 -43 18 -95 39 -115 46 -30 9 -38 17
-38 36 0 32 29 32 114 0z"/>
<path d="M2215 8268 c-42 -39 -71 -116 -81 -210 -13 -124 33 -228 100 -228 43
0 109 45 101 70 -3 10 0 22 6 26 9 5 10 2 6 -9 -4 -11 -2 -14 8 -11 22 9 52
103 53 168 3 117 -36 212 -82 200 -14 -3 -27 1 -35 10 -20 24 -37 20 -76 -16z"/>
<path d="M2955 8284 c-83 -43 -131 -120 -147 -235 -13 -104 -1 -158 47 -206
73 -73 168 -23 239 127 25 54 30 77 30 136 -1 59 -5 80 -28 118 -25 43 -68 76
-98 76 -7 0 -26 -7 -43 -16z"/>
</g>
</svg>
