<?xml version="1.0" standalone="no"?>
<!DOCTYPE svg PUBLIC "-//W3C//DTD SVG 20010904//EN"
 "http://www.w3.org/TR/2001/REC-SVG-20010904/DTD/svg10.dtd">
<svg version="1.0" xmlns="http://www.w3.org/2000/svg"
 width="704.000000pt" height="1280.000000pt" viewBox="0 0 704.000000 1280.000000"
 preserveAspectRatio="xMidYMid meet">
<metadata>
Created by potrace 1.16, written by Peter Selinger 2001-2019
</metadata>
<g transform="translate(0.000000,1280.000000) scale(0.100000,-0.100000)"
fill="#000000" stroke="none">
<path d="M3503 9678 c-27 -30 -59 -105 -83 -193 -44 -165 -83 -294 -105 -345
-36 -88 -82 -213 -89 -242 -3 -15 -16 -43 -27 -63 -20 -33 -24 -35 -71 -35
-27 0 -58 -5 -69 -10 -15 -8 -23 -7 -34 4 -14 13 -21 13 -63 1 -26 -8 -50 -15
-54 -15 -4 0 -14 26 -23 58 -9 31 -22 63 -27 70 -6 7 -12 27 -14 45 -3 43 -52
185 -75 219 -11 14 -19 37 -19 51 0 22 -8 45 -45 132 -7 17 -18 48 -24 70 -21
73 -95 207 -123 223 -66 39 -101 -26 -163 -298 -14 -58 -32 -133 -40 -168 -55
-221 -120 -650 -109 -712 4 -21 -4 -32 -51 -69 -64 -51 -202 -198 -252 -268
-38 -54 -118 -213 -129 -256 l-6 -28 -112 7 c-90 5 -115 3 -131 -9 -16 -13
-17 -17 -6 -31 10 -11 31 -16 75 -17 33 0 81 -4 106 -7 l45 -7 -4 -45 c-2 -25
-4 -56 -5 -70 -1 -33 -42 -53 -168 -82 -79 -18 -98 -26 -98 -40 0 -10 6 -18
13 -19 47 -3 112 6 181 26 75 22 82 23 94 8 6 -9 12 -23 12 -30 0 -28 52 -115
94 -156 57 -56 142 -127 152 -127 9 0 85 -50 99 -66 25 -27 324 -184 351 -184
7 0 16 -4 19 -10 6 -9 13 -155 19 -362 1 -48 5 -90 8 -94 4 -3 0 -21 -8 -39
-8 -19 -14 -45 -14 -57 0 -33 -74 -241 -97 -275 -25 -35 -75 -132 -103 -198
-27 -65 -63 -136 -102 -204 -17 -29 -30 -63 -30 -76 0 -12 -16 -42 -34 -65
-19 -24 -34 -53 -34 -65 0 -12 -9 -34 -20 -48 -11 -14 -20 -32 -20 -39 0 -8
-15 -57 -33 -109 -35 -99 -67 -209 -72 -244 -1 -11 -8 -33 -15 -50 -7 -16 -16
-55 -20 -85 -4 -30 -15 -91 -25 -135 -20 -95 -24 -346 -8 -445 18 -111 56
-222 73 -217 12 3 15 -3 12 -29 -5 -43 28 -80 58 -64 23 12 25 7 9 -22 -10
-18 -8 -25 10 -39 11 -9 21 -22 21 -27 0 -5 17 -22 38 -38 20 -16 46 -37 57
-47 19 -18 64 -48 168 -114 28 -18 62 -33 75 -33 13 0 20 -4 17 -10 -3 -5 3
-10 15 -10 11 0 33 -9 48 -20 15 -11 51 -24 80 -30 30 -5 58 -12 63 -16 14 -9
169 -25 279 -30 52 -2 106 -6 119 -9 l24 -6 -21 -15 c-12 -8 -28 -14 -35 -12
-12 3 -58 -24 -202 -117 -27 -18 -85 -49 -128 -70 -42 -20 -83 -47 -89 -59 -7
-14 -13 -17 -16 -8 -3 10 -9 10 -27 -2 -13 -9 -37 -18 -54 -21 -16 -3 -42 -10
-57 -15 -60 -23 -176 -50 -215 -50 -35 0 -39 -2 -30 -14 8 -10 9 -16 1 -21 -5
-3 -13 1 -16 9 -5 13 -26 16 -115 16 -99 0 -115 3 -174 29 -35 16 -65 28 -67
28 -2 -1 -2 -1 -2 1 1 2 -12 18 -28 35 -17 18 -41 57 -55 87 -14 30 -32 71
-40 90 -23 50 -63 90 -90 90 -13 0 -29 10 -38 24 -14 21 -24 24 -79 25 -58 0
-69 -3 -117 -37 -72 -50 -96 -89 -104 -167 -12 -107 -3 -151 55 -280 34 -75
147 -189 228 -231 31 -16 59 -32 62 -36 14 -18 255 -92 270 -83 5 3 21 0 37
-6 41 -16 241 -21 315 -9 34 6 86 14 113 19 28 4 59 12 70 18 11 6 47 15 80
21 57 9 113 28 251 86 74 31 189 94 357 194 149 90 181 107 552 296 154 79
316 163 360 189 88 50 127 60 315 77 116 10 329 57 379 84 14 7 42 22 61 32
60 31 180 136 206 179 13 23 35 52 49 65 14 13 25 28 25 34 0 6 18 47 41 91
22 44 43 100 46 125 3 25 9 50 14 55 14 19 29 103 29 163 -1 31 -1 95 -1 142
1 112 -35 324 -67 395 -5 11 -22 58 -37 105 -14 46 -42 111 -61 144 -19 32
-38 73 -41 90 -4 17 -16 47 -27 66 -12 19 -32 60 -45 90 -54 125 -107 223
-123 228 -11 2 -18 14 -18 28 0 31 -39 114 -57 121 -7 3 -13 14 -13 25 0 11
-13 40 -30 65 -16 24 -30 48 -30 54 0 15 -67 143 -107 207 -21 31 -71 127
-111 212 -41 85 -80 162 -88 171 -8 8 -14 21 -14 27 0 6 -29 71 -65 144 -36
73 -65 140 -65 149 0 9 -14 42 -30 73 -17 31 -37 77 -46 102 -8 25 -24 66 -36
92 -32 72 -35 187 -7 292 12 47 21 104 20 127 -1 23 3 44 7 47 5 3 10 65 11
137 2 100 -1 134 -11 140 -10 6 -10 11 -1 20 6 6 10 25 8 43 -3 17 -9 83 -16
146 -6 63 -18 147 -26 185 -7 39 -20 103 -28 144 -8 41 -19 88 -25 105 -7 17
-15 40 -20 51 -4 11 -13 38 -19 60 -17 55 -47 136 -86 230 -19 44 -48 116 -65
160 -18 44 -42 103 -55 130 -12 28 -46 106 -74 175 -72 173 -82 191 -116 212
-39 24 -57 23 -82 -4z m-1112 -1341 c17 -18 42 -60 55 -92 57 -140 1 -357
-113 -435 -49 -34 -120 -38 -156 -10 -66 52 -90 172 -63 313 23 119 78 205
150 237 62 28 91 25 127 -13z m730 -3 c21 -14 49 -43 64 -63 23 -34 26 -48 26
-129 0 -174 -73 -317 -188 -368 -90 -40 -158 -27 -217 43 -27 32 -30 42 -34
137 -10 218 78 363 243 399 45 10 71 6 106 -19z m539 -563 c20 -33 0 -41 -105
-41 -56 0 -123 -3 -148 -6 -38 -6 -48 -4 -53 10 -4 10 -2 22 3 27 29 29 286
37 303 10z m-216 -205 c87 -33 207 -93 230 -116 37 -36 -17 -56 -64 -23 -14
10 -45 25 -70 34 -60 22 -171 68 -190 78 -8 4 -16 18 -18 30 -5 29 29 28 112
-3z"/>
<path d="M2232 8280 c-89 -54 -130 -294 -70 -402 24 -43 45 -52 91 -43 51 12
89 43 82 68 -4 15 -3 18 3 9 7 -10 12 -8 25 6 52 57 60 219 16 310 -20 40 -28
47 -50 44 -14 -2 -31 4 -39 12 -16 20 -18 20 -58 -4z"/>
<path d="M2939 8273 c-73 -38 -114 -106 -130 -218 -16 -116 5 -196 61 -229 94
-55 213 52 249 223 13 62 -1 158 -24 167 -7 3 -16 16 -19 30 -6 21 -50 54 -74
54 -4 0 -33 -12 -63 -27z"/>
</g>
</svg>
