<?xml version="1.0" standalone="no"?>
<!DOCTYPE svg PUBLIC "-//W3C//DTD SVG 20010904//EN"
 "http://www.w3.org/TR/2001/REC-SVG-20010904/DTD/svg10.dtd">
<svg version="1.0" xmlns="http://www.w3.org/2000/svg"
 width="704.000000pt" height="1280.000000pt" viewBox="0 0 704.000000 1280.000000"
 preserveAspectRatio="xMidYMid meet">
<metadata>
Created by potrace 1.16, written by Peter Selinger 2001-2019
</metadata>
<g transform="translate(0.000000,1280.000000) scale(0.100000,-0.100000)"
fill="#000000" stroke="none">
<path d="M3498 9668 c-28 -38 -68 -123 -68 -146 0 -26 -89 -322 -115 -382 -13
-30 -27 -66 -31 -80 -4 -14 -17 -48 -30 -77 -13 -28 -24 -60 -24 -70 0 -10
-10 -38 -23 -63 -22 -44 -23 -45 -82 -51 -33 -3 -68 -9 -77 -13 -11 -5 -18 -4
-18 2 0 16 -46 20 -80 5 -18 -7 -36 -13 -40 -13 -9 0 -45 100 -59 160 -15 64
-61 194 -81 228 -11 18 -20 42 -20 52 0 17 -25 91 -50 145 -5 11 -14 38 -21
60 -6 22 -30 77 -52 122 -30 61 -49 86 -70 97 -70 33 -98 -17 -163 -294 -70
-302 -74 -320 -76 -375 0 -22 -4 -44 -8 -50 -23 -31 -72 -387 -63 -451 4 -26
-3 -35 -59 -81 -69 -56 -188 -181 -239 -252 -43 -60 -114 -197 -130 -249 l-12
-43 -111 7 c-90 5 -115 3 -131 -9 -37 -28 -5 -43 107 -51 56 -3 105 -10 109
-14 4 -4 4 -29 0 -55 -5 -27 -4 -50 1 -53 5 -3 2 -15 -8 -25 -18 -20 -103 -50
-204 -71 -52 -10 -60 -15 -58 -33 3 -18 9 -20 63 -16 33 1 94 14 135 27 41 13
76 21 79 19 2 -3 14 -30 27 -61 32 -78 70 -131 129 -174 27 -21 61 -49 74 -64
14 -14 31 -26 39 -26 8 0 35 -17 61 -39 54 -45 167 -110 306 -178 55 -26 101
-48 103 -49 1 -1 5 -55 8 -120 6 -148 14 -326 14 -339 1 -10 -20 -99 -39 -165
-24 -90 -45 -136 -119 -269 -23 -41 -42 -77 -42 -82 0 -7 -62 -136 -126 -259
-18 -36 -33 -72 -34 -81 0 -9 -13 -33 -30 -54 -17 -21 -30 -48 -30 -60 0 -12
-8 -33 -18 -46 -11 -13 -22 -39 -25 -57 -4 -19 -13 -48 -21 -65 -24 -52 -67
-199 -71 -237 -1 -19 -10 -53 -20 -75 -10 -22 -21 -65 -25 -95 -4 -30 -15 -88
-24 -128 -15 -70 -29 -355 -18 -367 3 -3 7 -36 10 -73 2 -37 8 -75 13 -84 17
-32 9 -59 -28 -96 -96 -94 -177 -237 -214 -377 -17 -64 -20 -96 -15 -161 7
-96 35 -194 71 -246 14 -20 25 -41 25 -45 0 -5 26 -34 58 -65 82 -80 265 -198
306 -198 8 0 36 -9 63 -21 26 -11 64 -22 83 -23 19 -1 44 -7 55 -13 22 -12
224 -27 320 -25 162 5 286 15 340 27 33 7 87 16 120 20 77 8 182 30 265 56 36
10 90 27 120 36 30 9 59 20 65 25 5 4 16 8 25 8 20 0 182 61 245 92 152 75
299 169 356 227 19 20 48 48 65 62 16 15 44 43 62 63 19 20 43 38 55 41 12 2
72 16 132 30 61 14 123 27 139 30 89 14 287 146 342 228 16 23 43 59 61 80 18
20 33 43 33 49 0 7 15 44 34 83 19 38 39 90 45 115 5 25 17 68 25 97 17 60 19
246 3 236 -7 -4 -8 0 -2 13 15 35 16 78 5 139 -6 33 -11 69 -11 80 -1 19 -18
86 -44 170 -7 22 -20 67 -30 100 -21 75 -35 105 -80 180 -19 32 -35 68 -35 79
0 17 -36 98 -118 261 -46 92 -63 120 -75 120 -6 0 -14 16 -18 35 -9 48 -23 81
-48 107 -12 12 -21 29 -21 38 0 9 -13 36 -30 60 -16 24 -30 49 -30 55 0 17
-68 147 -109 209 -21 31 -66 117 -101 191 -35 74 -74 152 -87 172 -12 21 -23
42 -23 48 0 5 -29 70 -65 143 -36 74 -65 141 -65 149 0 8 -14 41 -30 72 -17
31 -37 78 -46 104 -9 26 -26 68 -38 94 -19 40 -23 62 -21 150 1 61 9 130 19
168 9 36 18 88 19 117 1 28 5 55 10 59 11 11 9 232 -3 239 -7 4 -7 12 0 24 5
10 7 20 5 23 -3 2 -5 27 -6 54 -4 238 -90 591 -214 889 -19 44 -53 127 -76
185 -115 289 -191 456 -220 483 -40 36 -71 35 -101 -5z m-1129 -1312 c33 -17
49 -41 79 -115 48 -118 18 -287 -68 -384 -49 -55 -91 -77 -146 -77 -70 0 -134
102 -134 216 0 57 25 186 45 227 26 54 76 108 119 127 51 23 69 24 105 6z
m754 -23 c22 -15 51 -44 64 -64 33 -51 34 -187 2 -289 -47 -144 -160 -240
-270 -227 -56 7 -86 24 -119 69 -33 44 -41 198 -15 290 36 132 116 221 215
238 70 12 84 10 123 -17z m537 -562 c20 -34 1 -41 -121 -43 -65 -1 -134 -2
-151 -2 -27 -1 -33 3 -33 19 0 30 70 45 193 42 75 -2 105 -6 112 -16z m-237
-200 c77 -27 217 -94 246 -118 45 -37 -9 -61 -59 -26 -14 10 -45 25 -70 34
-60 22 -171 68 -190 78 -8 4 -16 18 -18 30 -4 27 16 27 91 2z m-1126 -3731
c76 -54 179 -104 193 -95 4 3 14 -2 21 -11 16 -20 49 -33 114 -45 144 -27 237
-33 498 -32 257 2 278 1 275 -15 -9 -46 -408 -136 -673 -151 -72 -4 -137 -11
-144 -16 -10 -5 -12 -4 -7 3 7 12 4 13 -114 33 -80 13 -135 35 -213 83 -37 23
-54 42 -73 83 -13 30 -24 63 -24 75 0 28 50 138 63 138 6 0 43 -23 84 -50z"/>
<path d="M2244 8290 c-34 -13 -71 -66 -88 -122 -51 -176 -13 -338 78 -338 47
0 102 39 98 71 -2 16 0 20 6 11 23 -33 72 78 72 162 0 103 -43 215 -78 201 -7
-3 -23 2 -35 10 -24 17 -24 17 -53 5z"/>
<path d="M2945 8276 c-36 -17 -59 -37 -82 -72 -47 -71 -55 -99 -57 -194 -1
-99 19 -157 64 -183 79 -47 162 7 227 148 32 72 37 171 10 220 -9 17 -21 40
-26 52 -9 20 -58 53 -78 53 -4 0 -30 -11 -58 -24z"/>
</g>
</svg>
