<?xml version="1.0" standalone="no"?>
<!DOCTYPE svg PUBLIC "-//W3C//DTD SVG 20010904//EN"
 "http://www.w3.org/TR/2001/REC-SVG-20010904/DTD/svg10.dtd">
<svg version="1.0" xmlns="http://www.w3.org/2000/svg"
 width="704.000000pt" height="1280.000000pt" viewBox="0 0 704.000000 1280.000000"
 preserveAspectRatio="xMidYMid meet">
<metadata>
Created by potrace 1.16, written by Peter Selinger 2001-2019
</metadata>
<g transform="translate(0.000000,1280.000000) scale(0.100000,-0.100000)"
fill="#000000" stroke="none">
<path d="M3491 9661 c-12 -16 -21 -34 -21 -40 0 -7 -6 -22 -14 -34 -8 -12 -17
-40 -21 -62 -5 -22 -9 -45 -10 -51 -5 -21 -48 -159 -60 -194 -7 -19 -21 -57
-30 -85 -44 -130 -65 -186 -84 -223 -12 -23 -21 -48 -21 -56 0 -12 -34 -95
-47 -115 -2 -3 -25 -4 -51 -2 -27 1 -60 -3 -75 -8 -18 -7 -28 -7 -33 1 -6 10
-54 7 -100 -7 -18 -6 -23 1 -43 57 -12 35 -26 83 -31 107 -6 24 -14 49 -19 55
-5 6 -15 34 -22 61 -6 28 -23 69 -35 93 -13 23 -24 53 -24 65 0 22 -41 131
-54 144 -3 3 -6 15 -6 25 0 24 -47 138 -66 159 -8 8 -14 23 -14 33 0 24 -48
66 -76 66 -13 0 -32 -9 -42 -20 -24 -25 -76 -186 -107 -328 -13 -59 -33 -150
-45 -202 -12 -52 -23 -117 -26 -145 -2 -27 -11 -72 -18 -100 -8 -27 -17 -75
-21 -105 -4 -30 -9 -64 -11 -75 -2 -11 -7 -69 -11 -128 l-6 -109 -50 -41 c-28
-23 -61 -53 -75 -67 -98 -101 -143 -151 -169 -191 -46 -69 -119 -209 -133
-253 l-12 -39 -67 9 c-127 15 -193 0 -178 -40 5 -12 22 -16 74 -17 37 0 86 -3
108 -7 l40 -7 0 -69 c0 -38 -5 -72 -11 -77 -6 -5 -66 -23 -133 -41 -100 -26
-121 -34 -121 -50 0 -27 77 -24 185 7 88 26 105 25 105 -1 0 -21 40 -104 68
-142 23 -30 175 -162 187 -162 3 0 36 -22 73 -49 37 -27 87 -59 112 -71 25
-12 52 -28 60 -35 8 -7 58 -32 110 -56 52 -23 99 -46 104 -51 10 -8 12 -35 19
-308 5 -174 -8 -274 -52 -383 -6 -16 -9 -32 -6 -37 3 -5 -2 -15 -10 -23 -8 -9
-15 -21 -15 -28 0 -7 -8 -22 -19 -33 -26 -29 -122 -224 -122 -248 0 -4 -16
-36 -36 -70 -52 -91 -85 -160 -88 -183 -1 -11 -16 -40 -33 -64 -18 -24 -32
-53 -32 -63 0 -11 -9 -31 -20 -45 -11 -14 -20 -33 -20 -42 0 -8 -13 -54 -29
-101 -34 -98 -68 -214 -75 -250 -2 -14 -11 -42 -20 -62 -9 -21 -16 -55 -16
-77 0 -22 -4 -51 -9 -64 -30 -77 -43 -389 -22 -507 7 -36 21 -94 32 -130 31
-100 27 -94 45 -79 13 11 14 9 9 -13 -4 -16 0 -38 9 -57 13 -24 23 -31 47 -31
28 0 29 -1 15 -16 -9 -8 -16 -18 -16 -20 0 -12 134 -136 173 -161 23 -15 53
-37 67 -49 24 -21 62 -42 143 -79 30 -14 40 -15 52 -5 12 10 15 9 15 -6 0 -13
16 -26 51 -42 28 -12 55 -20 60 -17 5 3 18 1 30 -5 31 -17 187 -33 339 -34
248 -1 814 13 905 23 50 5 97 10 105 10 8 0 49 4 90 7 63 5 78 4 89 -10 7 -9
22 -16 32 -16 10 0 20 -8 23 -17 3 -10 23 -29 43 -42 21 -13 50 -32 65 -43 15
-10 30 -18 33 -18 4 0 32 -15 63 -33 140 -82 357 -135 562 -138 170 -3 258 8
384 48 159 51 298 131 366 212 59 69 90 109 90 114 0 4 16 39 35 79 62 132 80
337 46 534 -27 157 -30 332 -7 398 12 34 14 52 6 60 -7 7 -10 6 -10 -4 0 -7
-3 -11 -6 -7 -9 9 135 146 176 166 19 10 63 21 97 24 53 6 71 3 133 -23 39
-16 84 -40 100 -52 15 -13 44 -36 63 -52 20 -15 59 -39 87 -53 59 -28 88 -26
163 15 57 30 87 65 87 99 0 13 7 35 16 49 17 25 14 85 -6 122 -5 9 -11 29 -14
43 -12 55 -106 150 -220 222 -30 19 -180 71 -250 87 -79 17 -362 -20 -381 -50
-3 -5 -23 -14 -44 -20 -21 -5 -79 -37 -129 -69 -148 -98 -231 -227 -292 -454
-29 -107 -33 -215 -16 -379 22 -202 10 -380 -32 -463 -63 -127 -227 -224 -378
-225 -61 0 -94 -16 -80 -39 3 -5 -1 -11 -9 -15 -11 -4 -15 2 -15 23 0 27 -3
29 -52 35 -65 9 -128 27 -128 36 0 5 10 10 23 14 39 9 180 137 159 144 -6 2
-10 8 -7 12 3 5 12 7 20 3 9 -3 15 1 15 8 0 8 14 27 31 44 17 16 40 47 50 69
10 23 23 48 28 56 23 36 51 108 51 131 0 13 10 44 21 69 17 35 22 68 24 150 1
59 -2 110 -7 118 -7 8 -6 17 2 27 12 14 11 38 -4 145 -8 56 -39 188 -53 225
-8 22 -16 47 -17 55 -11 64 -70 208 -108 262 -10 14 -18 34 -18 45 0 23 -181
399 -200 413 -3 3 -12 21 -20 40 -20 50 -50 100 -61 100 -5 0 -9 11 -9 23 0
13 -13 43 -30 65 -16 23 -30 46 -30 51 0 21 -62 141 -105 204 -25 36 -45 69
-45 71 0 13 -140 295 -150 301 -5 3 -10 13 -10 22 0 9 -29 77 -65 151 -36 73
-65 140 -65 148 0 8 -13 40 -29 72 -16 31 -41 86 -55 122 -15 36 -32 74 -38
85 -26 47 -28 189 -3 295 10 41 19 93 21 115 1 22 3 42 4 45 10 29 13 61 13
155 -2 225 -23 464 -52 575 -5 19 -15 62 -22 95 -13 67 -75 266 -94 305 -7 14
-19 45 -27 70 -14 40 -166 404 -202 485 -8 17 -17 40 -21 53 -19 63 -76 171
-100 191 -40 30 -79 28 -104 -8z m-1091 -1307 c21 -19 42 -45 46 -56 3 -12 13
-37 22 -57 28 -68 16 -216 -25 -296 -42 -82 -119 -145 -177 -145 -13 0 -26 -6
-29 -12 -8 -23 -105 87 -113 128 -11 61 2 244 21 294 28 71 75 127 129 155 65
33 78 32 126 -11z m736 -9 c16 -14 32 -25 36 -25 3 0 16 -16 28 -37 16 -28 22
-55 24 -122 2 -77 -1 -95 -31 -171 -50 -129 -127 -203 -227 -216 -93 -13 -161
38 -186 139 -27 114 23 296 105 380 75 77 193 102 251 52z m509 -567 c14 -6
25 -14 25 -18 0 -21 -39 -28 -170 -31 -139 -4 -145 -3 -145 16 0 15 11 23 45
32 59 15 212 16 245 1z m-218 -202 c62 -22 226 -105 247 -126 39 -38 -21 -56
-67 -20 -14 11 -30 20 -36 20 -7 0 -37 13 -69 29 -31 16 -77 35 -102 42 -53
15 -81 36 -73 55 7 18 49 18 100 0z"/>
<path d="M2231 8285 c-57 -52 -85 -146 -79 -263 9 -160 68 -215 160 -150 18
12 25 25 22 36 -5 14 -4 15 5 2 9 -13 12 -12 26 5 36 48 53 103 54 182 2 122
-36 209 -84 197 -15 -4 -24 0 -28 10 -10 25 -34 19 -76 -19z"/>
<path d="M2936 8280 c-26 -17 -52 -43 -59 -58 -7 -15 -19 -38 -29 -52 -9 -14
-22 -57 -28 -97 -15 -83 -4 -145 36 -205 22 -34 29 -38 67 -38 54 0 97 26 138
86 47 69 69 134 69 208 0 78 -8 100 -53 149 -43 46 -76 48 -141 7z"/>
</g>
</svg>
