<?xml version="1.0" standalone="no"?>
<!DOCTYPE svg PUBLIC "-//W3C//DTD SVG 20010904//EN"
 "http://www.w3.org/TR/2001/REC-SVG-20010904/DTD/svg10.dtd">
<svg version="1.0" xmlns="http://www.w3.org/2000/svg"
 width="704.000000pt" height="1280.000000pt" viewBox="0 0 704.000000 1280.000000"
 preserveAspectRatio="xMidYMid meet">
<metadata>
Created by potrace 1.16, written by Peter Selinger 2001-2019
</metadata>
<g transform="translate(0.000000,1280.000000) scale(0.100000,-0.100000)"
fill="#000000" stroke="none">
<path d="M3492 9657 c-28 -44 -47 -97 -99 -272 -40 -137 -60 -196 -82 -245
-11 -25 -21 -53 -21 -63 0 -10 -13 -47 -30 -82 -16 -35 -30 -71 -30 -80 0 -8
-12 -37 -26 -64 -25 -49 -26 -49 -82 -54 -31 -2 -67 -8 -79 -12 -18 -6 -23 -4
-23 9 0 18 -9 20 -42 7 -72 -26 -75 -25 -93 32 -9 28 -20 61 -24 72 -5 11 -20
61 -35 110 -15 50 -36 110 -46 135 -10 25 -28 74 -40 110 -72 216 -133 349
-173 380 -27 21 -61 17 -84 -12 -16 -19 -65 -172 -91 -283 -49 -214 -72 -323
-77 -368 -2 -26 -11 -78 -19 -115 -32 -147 -37 -181 -43 -299 l-6 -123 -46
-37 c-69 -57 -188 -180 -239 -248 -46 -63 -120 -203 -142 -268 l-12 -38 -98 7
c-120 8 -153 2 -148 -29 3 -20 10 -22 102 -29 55 -4 105 -9 111 -12 8 -3 11
-28 10 -72 l-1 -68 -40 -18 c-21 -9 -83 -27 -136 -39 -80 -18 -98 -26 -98 -41
0 -28 94 -24 198 8 46 14 85 24 86 22 1 -2 11 -25 21 -53 30 -83 87 -156 166
-216 166 -124 276 -191 439 -270 57 -27 106 -52 108 -53 3 -4 12 -210 15 -361
1 -44 6 -86 10 -93 5 -7 4 -18 -1 -25 -6 -7 -13 -30 -17 -52 -15 -89 -67 -236
-104 -294 -46 -74 -121 -230 -121 -251 0 -6 -20 -43 -44 -83 -24 -39 -53 -99
-65 -132 -12 -33 -31 -69 -41 -80 -10 -11 -22 -33 -25 -50 -4 -16 -13 -40 -21
-51 -22 -36 -114 -320 -117 -361 -1 -21 -4 -40 -7 -43 -12 -12 -33 -80 -40
-130 -16 -116 -41 -215 -56 -223 -9 -5 -23 -18 -33 -29 -9 -11 -28 -26 -44
-34 -62 -33 -155 -159 -223 -304 -71 -149 -86 -329 -38 -450 32 -79 49 -99
117 -134 73 -37 168 -37 222 0 71 48 90 80 107 186 12 75 27 98 62 98 19 -1
20 -1 3 -11 -16 -9 -16 -12 -2 -32 52 -75 202 -196 330 -266 42 -23 67 -31 87
-27 19 4 28 1 28 -8 0 -29 151 -76 245 -76 91 0 131 -19 195 -91 47 -53 83
-81 172 -131 171 -97 249 -117 473 -118 133 -1 293 19 350 45 17 7 68 30 114
49 107 47 152 78 229 162 126 138 127 139 210 156 96 21 135 35 127 48 -3 5
-2 10 4 10 5 0 11 -5 13 -11 9 -27 153 43 252 124 50 40 116 117 116 134 0 5
8 13 18 19 16 10 43 59 101 185 11 25 21 59 21 77 0 17 9 47 21 66 17 29 21
57 25 156 3 70 1 120 -5 120 -5 0 -5 14 1 34 8 25 8 52 -1 98 -7 35 -14 79
-17 98 -10 68 -36 165 -50 187 -7 12 -11 28 -8 36 3 8 1 18 -5 22 -6 3 -11 16
-11 28 -1 27 -34 102 -80 182 -19 33 -33 68 -32 77 2 9 -5 29 -14 44 -10 14
-44 82 -76 151 -31 68 -71 144 -88 169 -16 25 -30 50 -30 57 0 20 -59 117 -71
117 -6 0 -9 6 -6 14 3 8 -8 35 -24 60 -16 26 -29 49 -29 52 0 16 -85 182 -104
205 -13 15 -42 67 -66 115 -47 97 -108 221 -133 269 -60 118 -147 308 -147
321 0 9 -15 46 -34 83 -18 36 -39 84 -46 106 -7 22 -21 58 -32 80 -26 54 -43
205 -27 237 12 22 40 143 45 193 12 117 15 297 6 308 -7 8 -7 18 -2 27 5 8 7
17 5 20 -2 3 -6 42 -9 86 -8 120 -23 237 -40 307 -8 34 -20 89 -26 122 -10 56
-20 91 -40 140 -4 11 -18 53 -30 92 -12 40 -25 75 -31 78 -5 4 -9 14 -9 23 0
9 -15 53 -34 97 -85 198 -205 486 -231 552 -34 87 -69 131 -112 139 -30 6 -34
3 -61 -39z m-1121 -1310 c20 -13 48 -48 68 -86 30 -57 33 -72 33 -139 -2 -167
-86 -308 -204 -344 -34 -10 -41 -8 -79 16 -60 40 -81 94 -82 215 -2 168 51
282 153 333 67 34 69 34 111 5z m758 -27 c69 -56 82 -85 82 -187 0 -85 -17
-160 -52 -225 -46 -86 -147 -158 -221 -158 -112 0 -178 87 -178 233 0 47 30
169 50 207 43 83 128 149 204 160 62 9 69 7 115 -30z m526 -550 c29 -30 3 -38
-150 -41 -145 -4 -150 -3 -150 16 0 29 70 45 187 42 70 -2 102 -7 113 -17z
m-211 -204 c87 -33 207 -93 230 -116 39 -38 -21 -56 -67 -20 -14 11 -30 20
-36 20 -7 0 -33 11 -59 24 -26 13 -72 31 -102 41 -65 21 -80 31 -80 56 0 26
35 25 114 -5z"/>
<path d="M2211 8262 c-47 -46 -73 -133 -75 -242 -1 -84 2 -100 23 -137 22 -38
43 -54 76 -58 16 -2 80 32 95 50 10 12 11 18 2 24 -7 4 -8 12 -2 21 8 12 10
12 10 -4 0 -18 1 -18 18 -3 53 48 65 222 22 312 -19 40 -50 67 -50 44 0 -5
-13 -3 -30 6 -41 21 -58 19 -89 -13z"/>
<path d="M2935 8273 c-41 -22 -70 -57 -103 -123 -24 -48 -27 -67 -27 -150 0
-112 18 -154 78 -183 31 -16 42 -17 72 -7 70 23 151 148 161 249 10 94 -1 143
-45 190 -43 46 -82 53 -136 24z"/>
</g>
</svg>
