<?xml version="1.0" standalone="no"?>
<!DOCTYPE svg PUBLIC "-//W3C//DTD SVG 20010904//EN"
 "http://www.w3.org/TR/2001/REC-SVG-20010904/DTD/svg10.dtd">
<svg version="1.0" xmlns="http://www.w3.org/2000/svg"
 width="704.000000pt" height="1280.000000pt" viewBox="0 0 704.000000 1280.000000"
 preserveAspectRatio="xMidYMid meet">
<metadata>
Created by potrace 1.16, written by Peter Selinger 2001-2019
</metadata>
<g transform="translate(0.000000,1280.000000) scale(0.100000,-0.100000)"
fill="#000000" stroke="none">
<path d="M3511 9691 c-27 -27 -69 -121 -82 -183 -13 -59 -99 -325 -149 -458
-17 -47 -38 -103 -45 -125 -7 -22 -23 -60 -35 -84 -22 -42 -24 -43 -62 -38
-22 3 -53 1 -69 -5 -21 -7 -33 -7 -44 2 -11 9 -26 8 -67 -4 -29 -8 -53 -14
-54 -13 -8 8 -47 131 -54 170 -5 27 -13 54 -19 60 -5 7 -16 38 -24 70 -9 32
-23 70 -33 85 -10 15 -19 41 -21 57 -2 17 -7 39 -12 50 -26 56 -51 119 -51
131 0 22 -90 207 -113 232 -44 47 -98 19 -123 -66 -9 -31 -25 -82 -34 -112
-10 -30 -28 -102 -40 -160 -11 -58 -28 -131 -36 -162 -8 -32 -21 -99 -29 -150
-9 -51 -22 -127 -30 -168 -26 -135 -46 -304 -41 -341 5 -33 3 -38 -37 -66 -60
-44 -211 -200 -256 -264 -50 -73 -98 -162 -126 -234 l-23 -60 -105 4 c-123 4
-149 -2 -145 -32 3 -21 10 -22 111 -29 60 -3 111 -9 113 -11 5 -5 5 -52 1
-110 -3 -41 -25 -53 -153 -83 -96 -22 -114 -29 -114 -45 0 -16 8 -19 58 -19
32 0 91 11 137 25 44 13 82 21 86 17 3 -4 14 -29 24 -57 23 -64 82 -148 118
-170 16 -10 51 -37 78 -61 27 -24 56 -44 64 -44 8 0 15 -4 15 -9 0 -5 14 -14
30 -21 17 -7 30 -16 30 -21 0 -10 178 -111 290 -163 47 -22 87 -41 89 -43 3
-2 8 -113 14 -340 2 -57 6 -106 10 -109 3 -4 2 -15 -4 -26 -6 -11 -14 -40 -19
-66 -17 -93 -66 -234 -97 -279 -33 -47 -97 -176 -147 -298 -10 -22 -25 -49
-35 -60 -20 -22 -61 -116 -61 -138 0 -8 -13 -31 -30 -52 -17 -21 -30 -50 -30
-65 0 -15 -9 -35 -20 -45 -11 -10 -20 -26 -20 -36 0 -10 -15 -60 -34 -111 -19
-51 -45 -129 -56 -173 -12 -44 -28 -100 -36 -124 -8 -25 -14 -59 -14 -77 0
-33 -30 -168 -47 -213 l-9 -24 -13 31 c-19 47 -107 86 -173 79 -82 -10 -133
-55 -193 -168 -81 -154 -152 -230 -331 -354 -135 -93 -234 -239 -255 -377 -14
-90 -5 -218 21 -293 41 -120 141 -229 255 -279 60 -27 237 -80 330 -98 28 -6
59 -14 70 -19 27 -11 97 -36 169 -60 33 -11 64 -24 70 -28 31 -26 375 -198
413 -207 15 -4 60 -20 100 -36 39 -15 83 -28 97 -28 14 0 40 -7 58 -15 18 -8
94 -26 168 -41 391 -77 816 0 1162 210 74 44 205 163 265 239 56 72 135 221
167 320 28 83 17 76 191 106 152 26 233 49 315 91 80 41 203 148 242 212 16
26 33 48 37 48 4 0 19 28 35 62 15 35 36 79 46 98 16 30 32 91 34 125 1 6 7
20 14 33 18 31 33 174 20 189 -6 7 -7 29 -3 53 5 29 3 40 -6 40 -10 0 -10 3
-1 12 7 7 12 26 12 43 0 49 -28 205 -49 275 -10 36 -29 99 -41 140 -19 65 -84
201 -112 237 -5 6 -8 18 -6 26 2 7 -16 51 -39 98 -23 46 -60 122 -82 169 -59
124 -129 252 -153 277 -12 13 -18 26 -15 29 4 4 -9 29 -28 56 -19 26 -35 55
-35 64 0 23 -59 143 -88 179 -13 16 -60 104 -105 195 -44 91 -88 176 -97 190
-10 14 -21 36 -25 50 -4 14 -34 80 -66 146 -32 67 -59 127 -59 133 0 7 -18 47
-39 89 -21 42 -45 95 -51 117 -7 22 -21 57 -31 77 -25 48 -37 196 -20 237 7
16 14 47 15 69 1 22 9 50 17 63 10 15 13 32 9 44 -4 11 -3 26 3 34 13 16 17
293 6 379 -4 32 -13 104 -19 162 -6 58 -18 137 -26 175 -25 116 -56 239 -66
258 -5 10 -16 43 -24 73 -8 31 -23 75 -34 99 -11 24 -20 49 -20 54 0 6 -11 34
-24 63 -13 29 -42 98 -64 153 -22 55 -59 142 -81 193 -23 52 -57 135 -77 185
-43 112 -64 147 -102 170 -38 22 -48 21 -71 -2z m-1140 -1333 c23 -15 45 -46
68 -92 28 -57 33 -79 33 -138 0 -38 -3 -72 -6 -75 -3 -4 -6 -17 -6 -30 0 -40
-59 -150 -100 -187 -35 -31 -91 -56 -129 -56 -31 0 -80 42 -101 87 -20 42 -22
59 -18 167 4 103 8 129 30 176 35 76 74 119 133 146 62 28 56 28 96 2z m769
-28 c59 -46 77 -97 75 -205 -2 -75 -7 -102 -32 -161 -56 -133 -142 -205 -248
-208 -42 -1 -58 4 -88 27 -66 50 -72 67 -72 202 0 101 4 129 23 176 65 163
240 249 342 169z m505 -550 c17 -7 25 -16 23 -28 -3 -15 -21 -18 -153 -23
-147 -6 -170 -2 -162 26 9 28 233 47 292 25z m-201 -214 c87 -33 207 -93 230
-116 34 -34 -5 -53 -59 -28 -14 6 -25 15 -25 20 0 4 -8 8 -17 8 -10 0 -45 13
-78 28 -33 16 -78 35 -100 42 -49 15 -75 37 -68 56 8 20 44 17 117 -10z
m-1525 -3191 c8 -38 22 -90 32 -114 11 -24 19 -52 19 -62 0 -11 7 -19 15 -19
9 0 15 -9 15 -25 0 -31 45 -79 65 -71 12 4 13 2 2 -15 -11 -18 -5 -27 65 -95
106 -101 316 -237 350 -226 4 1 24 -9 44 -23 21 -14 51 -25 70 -25 18 0 44 -4
59 -10 80 -30 570 -45 587 -17 5 8 10 7 21 -1 10 -9 37 -10 88 -6 41 4 83 6
94 5 11 -2 91 -3 177 -3 l157 -1 -2 -28 c-1 -15 -4 -26 -6 -24 -2 2 -20 -22
-41 -53 -49 -73 -87 -111 -167 -168 -142 -102 -376 -177 -543 -174 -32 1 -239
20 -320 30 -111 14 -329 91 -526 185 -170 82 -194 91 -194 76 0 -6 -5 -11 -11
-11 -6 0 -9 6 -6 14 6 14 -60 49 -114 60 -13 3 -55 16 -94 29 -38 14 -86 28
-105 31 -49 10 -184 71 -219 99 -18 15 -53 36 -73 43 -20 7 -28 34 -28 102 0
52 2 56 58 112 31 33 66 69 77 80 20 21 82 62 197 130 81 48 168 133 168 165
0 14 4 25 9 25 5 0 19 16 31 36 13 19 26 32 30 27 3 -4 12 -39 19 -78z"/>
<path d="M2210 8263 c-48 -49 -72 -128 -73 -243 -1 -73 2 -91 23 -130 35 -62
67 -72 128 -40 39 21 47 30 44 50 -1 17 1 21 7 12 11 -17 42 25 61 82 18 57 8
184 -20 242 -21 41 -25 45 -50 40 -18 -3 -33 0 -40 9 -20 24 -40 18 -80 -22z"/>
<path d="M2949 8282 c-59 -30 -110 -95 -131 -167 -19 -68 -15 -184 7 -230 26
-52 72 -78 120 -69 108 20 214 238 175 360 -16 50 -54 100 -89 119 -27 13 -33
12 -82 -13z"/>
</g>
</svg>
