<?xml version="1.0" standalone="no"?>
<!DOCTYPE svg PUBLIC "-//W3C//DTD SVG 20010904//EN"
 "http://www.w3.org/TR/2001/REC-SVG-20010904/DTD/svg10.dtd">
<svg version="1.0" xmlns="http://www.w3.org/2000/svg"
 width="704.000000pt" height="1280.000000pt" viewBox="0 0 704.000000 1280.000000"
 preserveAspectRatio="xMidYMid meet">
<metadata>
Created by potrace 1.16, written by Peter Selinger 2001-2019
</metadata>
<g transform="translate(0.000000,1280.000000) scale(0.100000,-0.100000)"
fill="#000000" stroke="none">
<path d="M3507 9680 c-27 -32 -66 -115 -77 -167 -25 -114 -146 -478 -183 -550
-10 -18 -17 -39 -17 -49 0 -9 -10 -38 -22 -65 -23 -48 -24 -49 -69 -49 -25 0
-60 -5 -77 -11 -26 -9 -35 -8 -47 5 -14 13 -20 13 -56 0 -23 -7 -45 -14 -49
-14 -9 0 -49 110 -61 169 -5 24 -13 49 -19 56 -5 6 -16 36 -23 66 -8 30 -24
74 -35 99 -11 25 -30 77 -42 115 -13 39 -26 75 -30 80 -4 6 -10 24 -14 40 -10
41 -48 137 -62 155 -6 8 -15 25 -18 37 -9 28 -51 55 -82 51 -19 -2 -32 -15
-49 -48 -25 -50 -70 -188 -85 -265 -5 -27 -16 -79 -25 -115 -8 -36 -22 -108
-30 -160 -9 -52 -24 -133 -35 -180 -32 -149 -40 -202 -46 -324 -4 -65 -12
-122 -18 -127 -191 -149 -364 -374 -410 -533 l-12 -41 -50 1 c-27 1 -75 3
-106 4 -76 2 -100 -6 -96 -33 3 -20 10 -22 100 -28 54 -4 104 -9 113 -13 20
-7 19 -130 -1 -146 -7 -6 -64 -24 -128 -40 -130 -32 -137 -35 -129 -55 8 -23
89 -19 188 10 48 14 90 23 93 20 3 -3 14 -29 24 -57 23 -66 83 -155 117 -173
14 -8 46 -32 71 -54 25 -23 50 -41 55 -42 6 0 30 -16 55 -34 75 -57 301 -183
388 -216 23 -9 23 -11 27 -109 1 -30 6 -122 9 -205 9 -180 10 -157 -8 -230
-40 -163 -66 -231 -137 -355 -17 -30 -50 -98 -73 -150 -22 -52 -52 -113 -66
-135 -31 -50 -60 -113 -60 -131 0 -8 -16 -37 -35 -65 -19 -28 -35 -62 -35 -74
0 -13 -6 -30 -13 -37 -15 -15 -87 -226 -118 -346 -11 -46 -27 -99 -35 -118 -8
-18 -14 -51 -14 -73 0 -22 -4 -51 -9 -64 -29 -77 -42 -377 -21 -498 15 -93 31
-152 45 -169 7 -8 15 -24 17 -35 2 -11 9 -19 14 -18 6 1 11 -11 11 -27 0 -39
30 -73 61 -67 17 3 20 1 13 -6 -6 -6 -11 -19 -11 -28 0 -22 102 -126 166 -169
27 -18 63 -45 79 -58 42 -35 154 -84 176 -77 13 4 19 1 19 -8 0 -18 61 -48
106 -52 18 -2 38 -7 44 -10 19 -12 186 -25 330 -27 74 -2 300 1 502 4 l366 7
7 -97 c4 -53 15 -128 25 -167 22 -84 67 -185 85 -191 7 -3 16 -16 19 -29 3
-13 26 -47 51 -76 25 -29 45 -56 45 -60 0 -10 187 -162 231 -188 58 -34 192
-99 249 -121 79 -31 213 -69 223 -63 4 2 15 -1 23 -8 8 -7 37 -13 64 -14 28
-1 53 -5 57 -8 10 -10 280 -7 343 4 30 5 72 11 93 13 87 9 128 18 234 55 101
35 227 102 278 148 11 10 37 31 58 46 58 43 142 163 160 227 50 176 56 239 33
339 -13 59 -26 84 -62 129 -57 70 -83 84 -151 79 -29 -2 -53 0 -53 4 0 13 -61
-9 -101 -36 -44 -31 -94 -132 -85 -171 8 -29 -17 -151 -40 -200 -43 -90 -187
-181 -319 -202 -38 -7 -86 -14 -105 -17 -19 -3 -44 -6 -55 -7 -11 -1 -23 -6
-26 -11 -4 -5 -15 -4 -28 2 -12 7 -45 12 -74 12 -111 -1 -148 6 -267 47 -93
32 -148 62 -224 121 -85 65 -111 96 -152 178 -52 103 -69 248 -35 301 4 8 58
24 119 36 60 12 121 30 135 39 15 10 27 12 29 6 13 -40 292 140 344 223 15 23
37 53 51 67 13 14 26 36 29 49 7 24 31 74 56 112 9 14 22 52 28 85 7 33 19 72
26 87 14 26 18 90 16 243 0 33 0 74 0 90 0 61 -44 288 -66 338 -7 18 -20 55
-27 82 -14 53 -45 125 -85 190 -13 22 -24 49 -24 60 0 11 -19 61 -43 110 -24
50 -56 117 -72 150 -15 33 -40 79 -56 103 -16 24 -29 46 -29 50 0 16 -62 126
-77 137 -9 7 -13 16 -10 22 3 5 -9 33 -28 62 -19 29 -35 57 -35 63 0 16 -53
121 -88 173 -48 71 -345 678 -358 732 -4 15 -17 46 -30 68 -12 22 -30 62 -39
88 -9 26 -26 69 -37 95 -23 49 -24 53 -34 144 -5 41 -2 72 10 107 9 27 16 64
16 81 0 17 7 41 16 55 11 17 13 29 5 42 -6 12 -6 25 -1 34 5 7 7 21 4 31 -2 9
-1 19 4 22 10 6 14 214 5 229 -2 4 -6 47 -8 95 -2 48 -8 128 -15 177 -11 90
-13 105 -30 180 -5 22 -14 67 -20 100 -11 55 -85 297 -99 320 -3 6 -13 30 -22
55 -15 42 -103 256 -184 445 -119 280 -116 275 -167 301 -35 18 -40 18 -61 -6z
m-1134 -1301 c59 -32 109 -136 113 -234 6 -178 -116 -354 -245 -355 -27 0 -83
53 -103 96 -22 51 -26 205 -7 276 27 101 78 173 144 204 57 27 68 28 98 13z
m775 -41 c55 -45 75 -92 77 -186 4 -188 -137 -381 -278 -382 -134 0 -198 122
-162 312 33 174 140 288 271 288 44 0 58 -5 92 -32z m485 -559 c20 -5 37 -13
37 -17 -1 -25 -24 -30 -165 -33 -145 -4 -150 -3 -150 16 0 15 11 23 45 32 57
15 184 16 233 2z m-207 -203 c65 -23 197 -87 231 -113 56 -41 10 -76 -47 -35
-14 9 -38 22 -55 29 -168 65 -220 91 -223 111 -3 18 2 22 26 22 16 0 47 -6 68
-14z"/>
<path d="M2232 8285 c-60 -54 -86 -138 -80 -259 7 -136 43 -192 114 -176 42
10 75 36 68 55 -3 7 -1 16 5 20 7 4 8 -1 4 -12 -15 -45 39 26 60 78 41 101 11
276 -53 306 -60 28 -76 27 -118 -12z"/>
<path d="M2939 8281 c-54 -34 -100 -109 -118 -189 -15 -70 -14 -98 5 -161 38
-130 151 -137 235 -15 47 69 69 134 69 208 0 79 -8 102 -53 149 -43 46 -75 48
-138 8z"/>
</g>
</svg>
