<?xml version="1.0" standalone="no"?>
<!DOCTYPE svg PUBLIC "-//W3C//DTD SVG 20010904//EN"
 "http://www.w3.org/TR/2001/REC-SVG-20010904/DTD/svg10.dtd">
<svg version="1.0" xmlns="http://www.w3.org/2000/svg"
 width="704.000000pt" height="1280.000000pt" viewBox="0 0 704.000000 1280.000000"
 preserveAspectRatio="xMidYMid meet">
<metadata>
Created by potrace 1.16, written by Peter Selinger 2001-2019
</metadata>
<g transform="translate(0.000000,1280.000000) scale(0.100000,-0.100000)"
fill="#000000" stroke="none">
<path d="M3506 9682 c-26 -30 -72 -133 -80 -181 -7 -48 -66 -238 -98 -316 -11
-27 -30 -81 -43 -120 -23 -67 -59 -164 -86 -231 -12 -31 -15 -32 -88 -37 -42
-2 -82 -1 -90 3 -12 7 -40 2 -97 -15 -18 -6 -23 1 -43 57 -12 35 -26 81 -31
103 -12 55 -56 179 -79 223 -10 21 -24 59 -30 85 -6 27 -20 67 -31 90 -11 22
-20 47 -20 55 0 19 -50 132 -67 153 -7 8 -13 23 -13 33 0 26 -49 66 -81 66
-20 0 -34 -8 -45 -26 -24 -35 -68 -175 -93 -291 -12 -54 -30 -136 -41 -183
-10 -47 -22 -107 -25 -135 -3 -27 -15 -88 -25 -135 -29 -133 -41 -216 -47
-333 l-6 -109 -55 -46 c-76 -64 -199 -193 -238 -250 -44 -63 -103 -176 -124
-237 l-17 -50 -44 2 c-139 5 -168 4 -188 -6 -12 -7 -21 -20 -19 -29 3 -14 21
-18 104 -23 56 -4 107 -9 113 -13 7 -5 10 -31 8 -73 -5 -79 -8 -82 -147 -114
-112 -26 -131 -34 -124 -54 9 -23 97 -19 189 10 44 14 83 25 87 25 4 0 12 -17
17 -37 14 -51 81 -162 109 -182 13 -9 50 -37 82 -63 33 -27 62 -48 66 -48 4 0
16 -7 26 -17 10 -9 26 -21 37 -27 10 -6 36 -23 57 -37 74 -49 159 -96 244
-134 47 -21 89 -42 94 -46 8 -7 13 -78 20 -322 2 -70 6 -130 9 -134 4 -3 2
-13 -2 -22 -5 -9 -14 -39 -19 -66 -27 -132 -55 -204 -130 -335 -42 -74 -84
-168 -85 -190 0 -8 -3 -17 -7 -20 -4 -3 -17 -23 -29 -45 -12 -22 -35 -62 -51
-90 -16 -27 -29 -60 -29 -73 -1 -12 -17 -45 -36 -73 -19 -28 -35 -60 -35 -70
0 -11 -7 -31 -16 -44 -21 -32 -67 -163 -100 -285 -14 -52 -34 -122 -45 -155
-10 -33 -19 -77 -19 -97 0 -20 -5 -49 -11 -64 -28 -74 -40 -371 -21 -499 6
-38 21 -97 32 -130 11 -33 22 -67 24 -75 2 -8 10 -14 17 -13 10 2 14 -8 15
-32 1 -41 19 -65 49 -65 18 0 21 -4 18 -24 -4 -19 7 -36 54 -83 32 -32 79 -74
105 -93 26 -19 48 -42 48 -50 0 -9 -11 -31 -24 -51 -44 -65 -57 -110 -63 -221
-6 -104 8 -217 29 -244 5 -7 8 -16 7 -20 -4 -16 22 -68 54 -112 78 -105 110
-142 131 -154 13 -7 59 -42 102 -76 80 -64 243 -154 312 -171 20 -6 55 -15 77
-20 49 -13 96 -5 156 25 44 22 99 85 99 115 0 8 7 25 16 37 12 18 13 31 4 79
-12 67 -47 115 -105 147 -22 11 -41 24 -43 29 -2 4 -9 7 -16 7 -22 0 -131 62
-182 103 -60 48 -105 128 -106 184 0 60 21 125 50 150 23 20 33 22 67 16 53
-9 265 -10 555 -1 240 7 300 3 450 -26 215 -41 239 -42 241 -2 0 21 0 21 9 -2
7 -15 18 -22 37 -22 50 0 71 10 66 31 -7 25 14 25 22 -1 3 -11 12 -20 18 -20
29 0 96 34 105 53 6 12 11 16 11 10 1 -21 21 -15 74 23 38 27 77 43 161 64
104 26 204 69 251 108 11 9 42 35 69 56 27 22 63 62 81 90 18 28 42 60 54 70
11 11 21 22 21 27 0 4 18 46 40 93 22 47 40 96 40 110 0 13 7 41 17 62 23 55
33 126 20 142 -8 10 -7 16 1 21 9 5 10 24 3 71 -5 43 -5 70 2 81 8 13 6 42 -6
106 -10 48 -17 98 -17 111 0 23 -20 97 -43 157 -6 17 -12 35 -12 40 -3 45 -46
151 -97 238 -15 26 -28 56 -28 67 0 10 -15 49 -34 87 -19 37 -55 111 -79 164
-24 52 -58 111 -74 130 -17 19 -28 40 -26 46 6 16 -55 123 -69 123 -5 0 -8 7
-4 15 3 8 -10 34 -29 60 -19 25 -35 52 -35 60 0 21 -63 147 -104 209 -19 29
-69 123 -110 208 -41 86 -79 159 -85 162 -6 4 -11 14 -11 23 0 9 -27 73 -61
142 -34 69 -67 146 -74 169 -8 24 -25 61 -39 83 -14 21 -26 45 -26 52 0 7 -12
42 -26 78 -15 35 -31 82 -37 104 -14 58 -17 156 -6 177 5 10 12 37 15 60 4 24
12 58 20 76 9 22 10 40 4 57 -6 16 -6 27 1 31 6 3 9 15 6 25 -3 10 -1 22 4 25
10 6 13 217 3 227 -4 3 -8 43 -9 89 -5 155 -16 243 -46 378 -6 25 -15 65 -20
90 -22 100 -77 266 -130 395 -12 28 -34 82 -49 120 -15 39 -46 113 -68 165
-22 52 -58 138 -80 190 -81 195 -99 228 -131 244 -39 21 -54 20 -75 -2z
m-1354 -1609 c-7 -151 30 -228 104 -218 63 8 154 114 154 179 0 33 11 38 38
16 27 -22 27 -30 1 -83 -71 -138 -190 -205 -260 -144 -43 37 -60 73 -70 144
-9 77 5 193 25 193 9 0 11 -24 8 -87z m662 -25 c-5 -50 -2 -75 15 -119 24 -62
42 -83 83 -93 57 -13 137 47 178 135 19 40 28 49 49 49 14 0 32 -4 40 -9 24
-15 -13 -92 -72 -153 -64 -66 -142 -96 -205 -79 -45 13 -107 74 -117 116 -9
40 -6 162 6 191 17 45 28 26 23 -38z m841 -279 c29 -28 -3 -37 -155 -40 -127
-4 -145 -2 -148 12 -3 15 23 31 73 43 11 2 64 4 117 3 74 -2 101 -6 113 -18z
m-214 -199 c81 -32 212 -100 233 -120 37 -37 -17 -56 -64 -22 -14 9 -38 22
-55 29 -168 65 -220 91 -223 111 -3 18 2 22 27 22 17 0 53 -9 82 -20z"/>
</g>
</svg>
