<?xml version="1.0" standalone="no"?>
<!DOCTYPE svg PUBLIC "-//W3C//DTD SVG 20010904//EN"
 "http://www.w3.org/TR/2001/REC-SVG-20010904/DTD/svg10.dtd">
<svg version="1.0" xmlns="http://www.w3.org/2000/svg"
 width="704.000000pt" height="1280.000000pt" viewBox="0 0 704.000000 1280.000000"
 preserveAspectRatio="xMidYMid meet">
<metadata>
Created by potrace 1.16, written by Peter Selinger 2001-2019
</metadata>
<g transform="translate(0.000000,1280.000000) scale(0.100000,-0.100000)"
fill="#000000" stroke="none">
<path d="M3505 9674 c-21 -22 -62 -106 -70 -147 -4 -18 -27 -95 -51 -173 -25
-77 -46 -150 -48 -161 -3 -11 -14 -39 -25 -61 -12 -23 -21 -48 -21 -57 0 -8
-13 -45 -30 -82 -16 -36 -30 -72 -30 -80 0 -7 -12 -36 -26 -63 -26 -50 -27
-50 -73 -49 -26 1 -57 -4 -70 -11 -19 -10 -25 -10 -31 0 -6 9 -21 11 -51 6
-83 -14 -81 -15 -95 34 -7 25 -17 59 -23 75 -5 17 -24 75 -41 130 -18 55 -40
116 -50 135 -9 19 -23 57 -29 83 -6 27 -20 67 -31 88 -10 22 -22 54 -25 71 -9
41 -51 135 -64 143 -6 3 -11 14 -11 24 0 24 -35 59 -66 67 -33 9 -71 -26 -85
-80 -7 -23 -20 -66 -29 -96 -40 -124 -101 -400 -115 -520 -3 -25 -10 -58 -15
-75 -22 -70 -53 -302 -51 -381 1 -51 0 -52 -62 -105 -34 -29 -65 -59 -69 -65
-4 -6 -37 -42 -72 -78 -89 -91 -179 -233 -216 -341 l-17 -50 -49 2 c-163 5
-177 4 -192 -10 -29 -30 -7 -47 60 -48 35 0 83 -4 108 -7 l45 -7 0 -64 c0 -35
-4 -70 -10 -77 -8 -11 -115 -43 -227 -68 -20 -5 -28 -13 -28 -28 0 -20 3 -21
68 -15 37 3 95 16 130 27 34 12 68 20 75 17 7 -2 18 -24 24 -49 12 -45 88
-168 103 -168 5 0 38 -25 74 -55 35 -30 67 -55 71 -55 4 0 25 -15 48 -34 56
-45 179 -116 309 -178 85 -40 108 -56 109 -72 1 -12 3 -50 5 -86 2 -36 5 -127
7 -203 3 -76 7 -140 9 -143 3 -2 -1 -21 -8 -42 -7 -20 -13 -47 -14 -59 0 -31
-69 -234 -85 -253 -22 -25 -135 -251 -130 -259 6 -10 -24 -69 -54 -106 -25
-32 -61 -110 -61 -132 0 -9 -15 -36 -34 -62 -18 -25 -36 -59 -40 -76 -4 -16
-14 -37 -21 -45 -7 -8 -15 -29 -18 -46 -3 -17 -9 -40 -15 -50 -5 -11 -29 -86
-52 -169 -23 -82 -48 -165 -56 -183 -8 -18 -14 -50 -14 -72 0 -21 -7 -67 -16
-101 -20 -78 -31 -294 -22 -414 7 -87 33 -200 50 -220 4 -5 8 -19 8 -31 0 -25
16 -41 22 -23 2 7 9 5 17 -5 9 -11 10 -16 2 -16 -6 0 -11 -8 -11 -18 0 -29 29
-62 56 -62 27 0 31 -9 12 -28 -10 -10 1 -26 57 -79 39 -36 88 -77 110 -92 22
-14 56 -38 76 -53 47 -36 152 -88 177 -88 11 0 25 -7 32 -14 14 -18 98 -51
107 -43 3 4 12 2 18 -3 18 -15 201 -32 350 -33 305 -3 828 12 950 26 72 9 164
19 205 23 50 4 79 12 87 23 11 13 13 13 11 1 -2 -12 15 -16 92 -21 60 -4 117
-14 154 -28 32 -12 65 -21 75 -19 9 1 37 -8 63 -20 64 -31 144 -43 323 -47
148 -4 244 8 405 52 60 17 255 121 290 155 14 14 55 48 93 77 37 29 67 56 67
61 0 12 117 85 184 116 144 66 321 32 398 -75 44 -61 51 -142 22 -229 -22 -62
-50 -99 -159 -209 -113 -114 -145 -168 -145 -245 0 -88 52 -152 149 -182 89
-28 188 -12 286 46 88 53 143 96 150 118 3 9 15 22 28 29 21 11 97 107 126
160 53 98 90 197 91 244 0 15 5 27 10 27 6 0 10 14 10 30 0 17 -5 30 -11 30
-7 0 -5 9 5 24 13 21 14 37 6 101 -12 92 -47 213 -69 240 -10 11 -28 42 -42
68 -47 93 -244 244 -329 252 -14 2 -43 11 -65 21 -52 23 -260 32 -348 14 -95
-18 -124 -29 -232 -82 -142 -70 -159 -79 -168 -95 -4 -7 -22 -20 -40 -30 -18
-9 -50 -33 -72 -55 -52 -50 -147 -122 -210 -158 -27 -16 -63 -41 -79 -55 -16
-14 -41 -25 -57 -25 -16 0 -48 -6 -71 -14 -53 -18 -198 -40 -206 -32 -9 9 25
65 64 106 18 19 36 47 39 62 4 15 13 32 21 39 8 6 14 18 14 26 0 7 9 31 20 53
11 22 20 51 20 65 0 14 10 45 21 70 19 41 21 63 22 218 0 94 -3 188 -6 207
-18 108 -42 213 -61 260 -8 19 -20 58 -27 85 -12 50 -46 125 -87 198 -12 21
-22 47 -22 58 0 12 -8 33 -18 47 -10 15 -33 61 -51 102 -76 173 -121 252 -137
246 -10 -4 -13 5 -12 28 1 21 -10 52 -28 82 -16 27 -35 62 -41 77 -7 16 -24
42 -38 59 -14 16 -25 35 -25 42 0 16 -66 153 -92 188 -10 15 -58 105 -106 200
-48 95 -93 182 -99 193 -27 49 -143 311 -143 323 0 7 -15 43 -34 80 -18 37
-44 94 -56 127 -13 33 -28 66 -33 73 -33 43 -22 283 17 362 7 14 10 35 6 45
-4 11 -3 28 2 38 5 9 6 22 3 27 -3 5 -1 11 4 14 8 5 8 160 -2 301 -16 248 -19
276 -47 395 -4 19 -13 60 -20 90 -16 80 -48 184 -81 271 -16 42 -29 79 -29 84
0 4 -18 49 -39 99 -100 233 -158 371 -208 491 -56 137 -91 185 -137 185 -14 0
-32 -7 -41 -16z m-1120 -1304 c30 -18 54 -57 87 -140 12 -29 16 -180 6 -187
-5 -2 -8 -13 -8 -24 0 -68 -112 -204 -177 -214 -21 -3 -45 -10 -53 -14 -10 -6
-25 2 -48 23 -71 66 -90 148 -67 298 21 140 65 215 150 254 61 29 69 29 110 4z
m759 -32 c58 -44 76 -85 81 -187 3 -82 -13 -143 -58 -224 -22 -40 -101 -118
-139 -138 -126 -65 -252 29 -257 191 -4 148 74 308 178 362 76 40 136 39 195
-4z m516 -567 c21 -35 1 -41 -131 -43 -71 -1 -139 -2 -151 -2 -17 -1 -23 5
-23 19 0 30 70 45 193 42 75 -2 105 -6 112 -16z m-157 -227 c45 -19 89 -41 97
-49 8 -7 25 -16 36 -19 28 -9 58 -42 49 -55 -10 -17 -50 -13 -78 9 -14 11 -30
20 -36 20 -7 0 -31 10 -54 22 -23 12 -73 33 -112 48 -57 21 -71 30 -73 49 -4
23 -2 24 43 18 25 -4 83 -23 128 -43z"/>
<path d="M2234 8288 c-61 -54 -78 -105 -78 -238 -1 -99 2 -120 20 -150 37 -64
96 -65 164 -4 60 54 80 105 80 201 0 123 -31 193 -86 193 -12 0 -24 7 -28 15
-9 23 -32 18 -72 -17z"/>
<path d="M2938 8280 c-72 -45 -127 -160 -128 -266 0 -49 30 -134 56 -161 22
-22 32 -25 75 -21 40 4 57 12 85 39 53 51 97 149 102 225 6 93 -4 129 -47 174
-47 49 -77 51 -143 10z"/>
</g>
</svg>
