<?xml version="1.0" standalone="no"?>
<!DOCTYPE svg PUBLIC "-//W3C//DTD SVG 20010904//EN"
 "http://www.w3.org/TR/2001/REC-SVG-20010904/DTD/svg10.dtd">
<svg version="1.0" xmlns="http://www.w3.org/2000/svg"
 width="704.000000pt" height="1280.000000pt" viewBox="0 0 704.000000 1280.000000"
 preserveAspectRatio="xMidYMid meet">
<metadata>
Created by potrace 1.16, written by Peter Selinger 2001-2019
</metadata>
<g transform="translate(0.000000,1280.000000) scale(0.100000,-0.100000)"
fill="#000000" stroke="none">
<path d="M3508 9675 c-6 -14 -15 -25 -19 -25 -10 0 -48 -106 -113 -315 -60
-196 -105 -323 -130 -370 -9 -16 -16 -38 -16 -48 0 -10 -11 -40 -25 -67 l-25
-50 -51 0 c-28 0 -59 -5 -70 -11 -16 -8 -25 -7 -38 5 -13 12 -25 14 -42 8 -75
-28 -76 -27 -95 38 -9 33 -21 63 -25 66 -5 3 -9 17 -9 32 0 15 -9 47 -20 71
-11 24 -20 50 -20 58 0 9 -11 41 -24 72 -13 31 -32 80 -41 110 -9 30 -25 73
-35 95 -10 23 -21 54 -25 70 -10 47 -87 199 -113 224 -27 26 -40 27 -69 7 -26
-18 -47 -60 -63 -125 -6 -25 -18 -64 -25 -87 -8 -23 -23 -84 -34 -135 -11 -51
-29 -133 -40 -183 -11 -49 -23 -116 -26 -147 -3 -31 -11 -72 -16 -90 -21 -66
-48 -273 -49 -364 l0 -72 -47 -38 c-70 -56 -198 -190 -247 -259 -57 -81 -122
-201 -136 -253 l-11 -42 -112 6 c-91 5 -116 3 -132 -9 -16 -13 -17 -17 -6 -31
10 -11 31 -16 75 -17 33 0 81 -4 106 -7 l45 -7 -2 -65 c-2 -36 -5 -70 -7 -76
-4 -11 -116 -46 -208 -64 -47 -9 -58 -15 -58 -31 0 -16 7 -19 54 -19 30 0 93
11 141 25 48 14 89 24 90 23 1 -2 9 -25 18 -52 36 -106 123 -199 268 -287 30
-18 64 -42 77 -53 30 -27 111 -73 252 -142 63 -31 116 -58 118 -59 4 -3 11
-143 16 -320 2 -66 5 -124 7 -130 1 -5 -1 -17 -4 -25 -4 -8 -13 -49 -22 -90
-22 -111 -54 -188 -134 -327 -22 -40 -41 -78 -41 -84 0 -6 -8 -28 -19 -48 -10
-20 -31 -62 -47 -94 -16 -32 -41 -81 -56 -110 -15 -28 -28 -60 -28 -71 0 -10
-13 -35 -29 -55 -16 -20 -34 -55 -40 -77 -6 -23 -18 -47 -26 -54 -8 -7 -15
-20 -15 -30 0 -10 -15 -60 -34 -111 -35 -97 -69 -219 -65 -235 2 -5 -5 -27
-15 -49 -10 -22 -22 -66 -26 -99 -5 -32 -10 -59 -12 -60 -2 -1 -21 -11 -42
-20 -22 -10 -60 -31 -85 -47 -58 -36 -213 -199 -207 -216 3 -7 0 -12 -6 -10
-13 2 -45 -57 -61 -113 -6 -19 -12 -76 -14 -126 l-4 -90 45 -61 c45 -59 93
-92 116 -78 6 4 17 1 25 -5 32 -26 138 9 190 63 42 43 75 49 75 13 0 -13 6
-29 14 -35 8 -7 17 -27 20 -45 7 -39 39 -71 60 -63 13 5 14 3 3 -14 -11 -18
-5 -26 53 -81 129 -121 349 -264 365 -237 9 13 25 11 25 -4 0 -19 52 -46 111
-57 62 -12 70 -18 116 -88 48 -71 122 -152 170 -184 104 -69 152 -98 189 -113
21 -10 53 -23 69 -31 41 -18 183 -50 285 -62 89 -12 251 -3 345 18 139 31 314
110 407 184 61 48 152 152 163 185 3 10 12 22 20 24 7 3 22 25 33 49 24 56 32
61 125 82 51 12 77 22 77 32 0 8 5 14 10 14 6 0 10 -5 10 -11 0 -35 160 45
257 128 111 95 228 282 254 405 6 29 18 66 26 81 17 33 29 267 14 267 -5 0 -4
13 2 30 8 22 8 46 -2 97 -7 37 -17 91 -21 118 -16 93 -40 185 -60 225 -4 9
-11 31 -15 50 -8 40 -24 72 -80 169 -14 25 -24 50 -21 57 2 6 -3 24 -11 40
-31 57 -81 160 -104 214 -23 55 -63 123 -86 148 -7 7 -13 20 -13 28 0 22 -35
86 -58 107 -11 11 -19 24 -16 31 2 6 -10 34 -28 61 -17 28 -33 55 -34 61 -4
22 -85 181 -112 219 -16 22 -55 96 -87 165 -32 69 -71 144 -87 168 -15 24 -28
48 -28 55 0 7 -29 72 -65 145 -36 73 -65 141 -65 149 0 9 -14 41 -31 71 -17
31 -38 78 -46 106 -8 28 -25 69 -36 91 -44 85 -38 257 14 388 9 20 8 31 -1 42
-10 12 -10 18 1 31 16 20 24 269 9 279 -7 4 -7 13 0 24 5 10 7 20 5 22 -2 3
-6 40 -9 84 -8 119 -23 238 -40 308 -8 34 -24 104 -36 156 -12 52 -26 102 -30
110 -4 9 -17 43 -28 76 -39 112 -45 130 -78 210 -18 44 -68 166 -112 270 -45
105 -90 214 -101 243 -39 99 -70 151 -101 167 -41 21 -59 19 -72 -10z m-1133
-1325 c23 -14 42 -41 65 -92 28 -64 32 -83 31 -151 -1 -106 -48 -220 -116
-280 -33 -30 -105 -59 -129 -53 -35 9 -75 44 -95 84 -41 82 -32 264 19 367 34
71 71 109 125 129 54 20 62 19 100 -4z m767 -40 c62 -54 71 -80 66 -197 -7
-161 -73 -284 -182 -338 -155 -77 -272 27 -260 230 12 199 127 343 275 345 52
0 60 -3 101 -40z m513 -540 c29 -30 3 -38 -150 -41 -145 -4 -150 -3 -150 16 0
29 70 45 187 42 70 -2 102 -7 113 -17z m-222 -199 c76 -27 223 -100 243 -122
33 -37 -20 -54 -66 -21 -14 9 -38 22 -55 29 -209 80 -219 85 -223 112 -4 27
25 28 101 2z"/>
<path d="M2231 8279 c-60 -36 -110 -192 -97 -303 14 -121 73 -174 149 -132 48
26 65 45 49 55 -7 4 -8 12 -2 21 8 12 10 12 10 -4 0 -18 1 -18 18 -3 10 9 26
38 35 65 35 96 -3 302 -52 289 -11 -2 -33 3 -49 13 -29 18 -31 18 -61 -1z"/>
<path d="M2923 8264 c-146 -95 -165 -409 -28 -454 28 -9 41 -8 70 6 71 33 141
146 151 243 10 94 -1 143 -45 190 -47 50 -86 54 -148 15z"/>
</g>
</svg>
