<?xml version="1.0" standalone="no"?>
<!DOCTYPE svg PUBLIC "-//W3C//DTD SVG 20010904//EN"
 "http://www.w3.org/TR/2001/REC-SVG-20010904/DTD/svg10.dtd">
<svg version="1.0" xmlns="http://www.w3.org/2000/svg"
 width="704.000000pt" height="1280.000000pt" viewBox="0 0 704.000000 1280.000000"
 preserveAspectRatio="xMidYMid meet">
<metadata>
Created by potrace 1.16, written by Peter Selinger 2001-2019
</metadata>
<g transform="translate(0.000000,1280.000000) scale(0.100000,-0.100000)"
fill="#000000" stroke="none">
<path d="M3517 9699 c-24 -14 -65 -97 -83 -172 -21 -84 -115 -379 -124 -392
-5 -5 -13 -30 -20 -54 -6 -24 -22 -68 -36 -97 -13 -29 -24 -60 -24 -69 0 -8
-12 -38 -27 -66 l-26 -51 -51 5 c-36 4 -57 2 -70 -8 -17 -13 -21 -13 -31 1
-10 14 -16 14 -65 0 -29 -9 -55 -16 -56 -16 -2 0 -11 27 -20 60 -9 33 -21 63
-25 66 -5 3 -9 20 -9 37 0 18 -9 52 -20 76 -11 24 -20 51 -20 61 0 9 -13 41
-28 71 -16 30 -32 70 -35 90 -3 20 -17 61 -31 91 -14 30 -26 64 -26 74 0 11
-18 56 -39 99 -21 44 -42 89 -45 100 -3 11 -20 30 -37 42 -61 42 -98 6 -135
-132 -49 -189 -98 -406 -119 -530 -8 -44 -17 -91 -20 -105 -22 -91 -57 -362
-51 -394 5 -25 -1 -34 -46 -75 -107 -94 -203 -199 -261 -284 -52 -77 -114
-201 -123 -247 -7 -33 -23 -36 -115 -21 -25 4 -68 5 -95 2 -44 -5 -49 -8 -49
-31 0 -25 1 -25 107 -32 59 -3 112 -9 118 -13 5 -3 8 -16 5 -28 -3 -12 -7 -42
-8 -67 -2 -40 -7 -47 -35 -61 -18 -9 -77 -27 -132 -40 -80 -19 -100 -27 -100
-41 0 -10 6 -18 13 -19 49 -4 114 6 185 28 45 14 84 24 85 22 1 -2 11 -29 21
-59 22 -67 81 -152 118 -175 16 -9 49 -34 74 -56 25 -21 52 -39 60 -39 8 0 14
-4 14 -9 0 -5 15 -18 33 -30 17 -11 52 -34 77 -51 25 -17 59 -37 75 -45 17 -8
44 -23 60 -33 17 -10 68 -35 115 -56 47 -22 87 -41 89 -42 3 -3 7 -102 14
-356 2 -48 6 -90 10 -94 3 -4 2 -15 -4 -26 -6 -11 -14 -40 -19 -66 -17 -91
-68 -242 -92 -269 -18 -21 -77 -135 -108 -208 -28 -64 -65 -139 -96 -190 -13
-22 -29 -58 -36 -80 -7 -22 -25 -58 -40 -79 -15 -21 -28 -49 -28 -60 0 -12 -8
-33 -17 -46 -10 -14 -23 -43 -29 -65 -7 -22 -21 -65 -33 -95 -33 -85 -70 -230
-58 -230 5 0 3 -8 -5 -17 -22 -26 -29 -50 -38 -123 -5 -36 -16 -97 -24 -137
-20 -90 -29 -340 -15 -413 20 -106 31 -155 44 -185 8 -16 15 -39 17 -50 2 -11
11 -19 20 -19 11 1 14 -5 10 -18 -7 -27 17 -66 42 -70 14 -2 20 -9 18 -21 -5
-27 67 -102 176 -184 105 -78 176 -118 199 -109 8 3 11 2 8 -4 -6 -10 29 -33
38 -24 2 3 20 -6 40 -19 58 -40 251 -68 457 -68 99 0 674 10 869 14 62 2 65 1
71 -23 6 -23 -16 -146 -38 -215 -36 -113 -110 -205 -247 -306 -95 -71 -148
-98 -263 -135 -59 -19 -116 -39 -127 -44 -11 -5 -45 -11 -75 -15 -36 -4 -63
-14 -78 -28 -15 -14 -22 -17 -20 -8 2 11 -9 14 -52 12 -30 -2 -58 -5 -63 -8
-4 -2 -50 -4 -102 -4 -52 0 -95 -3 -95 -8 0 -15 -27 -20 -62 -11 -18 5 -95 11
-170 14 -76 3 -146 10 -157 16 -11 5 -36 10 -55 10 -20 0 -58 10 -84 21 -26
12 -70 32 -99 45 -28 13 -55 24 -58 24 -37 0 -273 140 -321 190 -21 22 -46 43
-56 46 -10 3 -18 10 -18 16 0 6 -15 28 -32 48 -18 21 -44 55 -58 75 -14 20
-38 49 -54 63 -16 15 -61 57 -100 94 -71 66 -139 118 -156 118 -5 0 -25 9 -44
21 -24 14 -73 26 -147 35 -100 13 -116 13 -172 -2 -97 -26 -155 -34 -253 -36
-104 -2 -143 11 -198 68 -68 70 -63 207 11 283 8 7 11 21 8 30 -3 12 3 22 21
32 30 16 44 46 44 93 0 63 -44 137 -71 120 -9 -5 -10 -2 -6 9 7 18 -33 36 -98
43 -116 14 -256 -108 -308 -266 -24 -74 -32 -207 -18 -304 18 -125 93 -251
201 -338 19 -16 37 -28 41 -28 4 0 34 -15 66 -33 33 -19 71 -37 86 -41 57 -14
189 -18 270 -7 143 19 254 16 317 -9 30 -12 61 -22 68 -23 6 0 12 -3 12 -7 0
-9 52 -34 64 -31 12 3 138 -130 156 -165 26 -52 81 -124 96 -124 8 0 14 -5 14
-10 0 -13 98 -112 162 -163 78 -62 221 -141 333 -183 167 -62 347 -108 485
-124 52 -6 124 -15 160 -21 79 -11 336 -6 440 9 41 6 95 14 120 17 77 11 178
34 216 50 20 8 46 15 58 15 12 0 46 10 76 21 30 12 82 31 115 43 195 72 423
237 552 397 97 122 188 302 214 427 23 109 28 141 28 194 1 54 2 56 32 67 18
6 42 11 55 11 13 0 49 7 81 16 32 8 81 21 109 28 104 26 259 134 321 224 21
30 50 68 66 85 15 16 27 37 27 46 0 10 7 26 15 37 8 10 15 25 15 32 0 7 9 25
19 40 11 15 25 53 30 86 6 32 15 64 20 70 23 30 32 263 10 276 -8 6 -8 9 0 14
28 18 -2 222 -59 401 -36 114 -70 194 -119 284 -8 14 -15 35 -17 46 -1 12 -13
43 -27 71 -14 27 -56 112 -93 188 -44 90 -74 140 -86 144 -13 3 -17 10 -13 23
7 21 -13 63 -50 108 -15 17 -24 35 -21 40 4 5 -10 30 -29 55 -19 26 -35 53
-35 61 0 25 -48 124 -94 193 -39 60 -166 309 -166 326 0 4 -11 22 -24 39 -13
18 -29 50 -36 72 -7 22 -37 87 -66 145 -28 58 -55 119 -59 136 -3 18 -19 53
-36 78 -16 26 -29 52 -29 58 0 14 -49 139 -61 153 -4 6 -8 20 -8 30 0 11 -3
50 -7 87 -4 44 -3 77 5 95 13 31 31 118 36 173 2 19 6 43 10 53 5 11 2 17 -6
17 -11 0 -11 2 1 9 11 8 14 34 13 123 -2 254 -23 449 -72 658 -26 110 -120
393 -151 455 -5 11 -41 97 -79 190 -186 460 -196 480 -247 501 -39 16 -34 16
-57 3z m-1142 -1341 c24 -16 43 -43 65 -91 41 -91 42 -199 5 -298 -42 -109
-128 -188 -205 -189 -40 0 -86 34 -109 83 -27 56 -30 190 -7 292 27 114 76
174 177 214 34 14 35 13 74 -11z m766 -31 c59 -53 71 -79 76 -168 3 -64 0 -94
-18 -147 -30 -92 -44 -118 -95 -172 -60 -64 -142 -97 -203 -80 -55 14 -105 60
-119 108 -28 92 -6 262 43 348 28 48 95 110 139 130 17 7 56 13 86 13 48 0 60
-4 91 -32z m520 -554 c6 -6 9 -19 6 -27 -5 -13 -28 -16 -127 -18 -66 -1 -135
-2 -152 -2 -27 -1 -33 3 -33 19 0 15 11 23 45 32 56 15 245 12 261 -4z m-217
-207 c87 -33 207 -93 230 -116 34 -34 -5 -53 -59 -28 -14 6 -25 15 -25 20 0 4
-7 8 -15 8 -7 0 -49 15 -92 34 -43 18 -95 39 -115 46 -30 9 -38 17 -38 36 0
32 29 32 114 0z"/>
<path d="M2210 8262 c-88 -87 -101 -327 -22 -414 21 -24 59 -22 107 5 31 17
40 29 40 49 1 15 5 31 9 35 5 4 5 -3 1 -17 -8 -25 -7 -25 13 -6 39 35 56 98
49 190 -6 88 -22 140 -52 169 -14 14 -20 15 -32 5 -12 -10 -17 -9 -28 5 -19
26 -44 20 -85 -21z"/>
<path d="M2941 8279 c-73 -44 -117 -120 -132 -224 -9 -69 -8 -88 7 -138 41
-137 157 -140 244 -5 89 137 92 259 10 348 -43 47 -76 51 -129 19z"/>
</g>
</svg>
