<?xml version="1.0" standalone="no"?>
<!DOCTYPE svg PUBLIC "-//W3C//DTD SVG 20010904//EN"
 "http://www.w3.org/TR/2001/REC-SVG-20010904/DTD/svg10.dtd">
<svg version="1.0" xmlns="http://www.w3.org/2000/svg"
 width="704.000000pt" height="1280.000000pt" viewBox="0 0 704.000000 1280.000000"
 preserveAspectRatio="xMidYMid meet">
<metadata>
Created by potrace 1.16, written by Peter Selinger 2001-2019
</metadata>
<g transform="translate(0.000000,1280.000000) scale(0.100000,-0.100000)"
fill="#000000" stroke="none">
<path d="M3498 9663 c-23 -24 -43 -65 -65 -135 -3 -10 3 -18 17 -23 17 -5 19
-10 11 -18 -9 -9 -14 -8 -21 2 -6 10 -15 -8 -30 -60 -11 -41 -25 -85 -30 -99
-4 -14 -18 -58 -31 -98 -12 -41 -30 -90 -41 -110 -10 -20 -18 -42 -18 -48 0
-7 -13 -42 -30 -77 -16 -36 -30 -74 -30 -84 -1 -10 -11 -38 -23 -63 -21 -44
-23 -45 -65 -42 -26 1 -51 -3 -65 -13 -22 -16 -58 -21 -56 -7 1 4 1 10 0 13
-1 6 -59 -3 -103 -17 -13 -4 -20 5 -28 38 -7 24 -17 57 -24 73 -7 17 -18 48
-24 70 -19 71 -61 187 -77 211 -8 13 -15 34 -15 47 0 25 -36 122 -53 145 -6 7
-11 25 -12 40 -1 15 -10 42 -19 59 -9 18 -16 38 -16 46 0 8 -9 22 -20 32 -11
10 -20 27 -20 37 0 27 -45 68 -74 68 -27 0 -57 -32 -73 -77 -31 -84 -54 -167
-68 -243 -9 -47 -22 -105 -30 -130 -20 -64 -45 -196 -45 -234 0 -18 -8 -57
-17 -87 -9 -30 -18 -70 -19 -89 -1 -19 -9 -78 -18 -130 -9 -52 -16 -125 -16
-161 0 -61 -2 -68 -26 -84 -60 -39 -211 -192 -260 -262 -44 -65 -129 -219
-145 -265 l-13 -37 -110 6 c-95 5 -113 3 -125 -10 -26 -33 -6 -47 66 -48 37 0
86 -3 108 -7 l40 -7 -1 -69 c-1 -52 -6 -71 -17 -78 -26 -14 -128 -45 -177 -53
-58 -10 -81 -22 -74 -40 9 -22 84 -18 189 10 49 13 92 21 96 17 3 -4 11 -25
17 -48 16 -56 85 -160 119 -178 15 -8 38 -26 49 -38 51 -56 296 -207 444 -274
78 -35 96 -48 102 -70 4 -15 10 -115 13 -223 3 -108 8 -203 11 -212 2 -9 -2
-29 -11 -45 -8 -16 -15 -39 -15 -51 0 -12 -4 -32 -9 -45 -8 -21 -35 -106 -37
-118 0 -3 -6 -18 -12 -33 -7 -16 -12 -32 -12 -37 0 -5 -11 -21 -24 -37 -36
-44 -116 -208 -116 -240 0 -7 -11 -29 -25 -49 -14 -20 -25 -42 -25 -49 0 -7
-7 -18 -15 -25 -17 -14 -55 -95 -55 -117 0 -7 -16 -36 -35 -64 -19 -28 -35
-59 -35 -68 0 -9 -8 -30 -18 -46 -10 -17 -21 -41 -24 -55 -3 -14 -17 -54 -30
-90 -13 -36 -34 -108 -47 -160 -21 -91 -26 -107 -49 -175 -6 -16 -16 -68 -22
-115 -6 -47 -16 -107 -22 -134 -16 -74 -4 -378 17 -452 35 -118 46 -143 62
-137 12 5 14 0 9 -24 -10 -42 25 -85 62 -77 25 5 26 4 9 -9 -17 -14 -18 -17
-2 -41 38 -58 315 -266 354 -266 7 0 23 -7 36 -16 20 -13 28 -14 40 -4 12 10
15 10 15 -4 0 -26 40 -43 135 -60 167 -28 229 -33 395 -30 654 11 777 14 875
23 61 6 164 15 230 21 l120 10 40 -31 c22 -16 60 -44 84 -62 79 -56 171 -152
171 -176 0 -83 -173 -123 -444 -102 -172 13 -373 33 -551 56 -143 18 -182 20
-350 19 -206 -1 -287 -16 -384 -70 -24 -13 -49 -24 -56 -24 -17 0 -104 -85
-142 -140 -39 -57 -58 -134 -49 -209 8 -65 46 -131 76 -131 10 0 23 -6 27 -14
19 -32 101 -48 141 -27 9 6 29 12 44 16 15 3 52 25 83 50 30 25 58 45 61 45 3
0 19 11 35 25 17 13 61 34 100 45 62 19 91 21 254 18 102 -2 185 -6 185 -9 0
-6 123 -26 247 -39 43 -5 101 -13 130 -19 77 -14 388 -33 548 -33 154 1 353
34 443 74 193 85 220 105 263 195 40 84 51 194 26 270 -32 97 -165 283 -203
283 -7 0 -18 9 -24 19 -5 11 -20 23 -32 27 -13 4 -28 14 -34 23 -7 9 -35 32
-63 51 -28 19 -51 38 -51 41 0 3 23 24 51 47 28 22 74 71 102 108 61 78 57 72
92 149 15 33 33 72 41 87 8 14 14 38 14 52 0 15 10 46 22 69 20 39 22 55 22
239 0 110 -5 214 -11 235 -6 21 -19 72 -28 113 -10 41 -23 89 -30 105 -19 47
-35 100 -35 115 0 8 -22 58 -50 112 -27 54 -50 102 -50 107 0 5 -22 56 -49
113 -26 57 -54 119 -61 138 -8 19 -25 53 -38 74 -13 22 -42 74 -63 116 -21 42
-45 82 -53 90 -9 7 -16 20 -16 30 0 10 -18 42 -40 71 -22 30 -40 62 -40 72 0
23 -54 133 -79 162 -10 11 -55 97 -101 190 -46 94 -92 182 -102 197 -10 14
-18 31 -18 36 0 6 -30 73 -67 149 -37 76 -68 148 -70 159 -2 12 -28 75 -58
140 -30 66 -55 124 -55 130 0 7 -7 15 -16 18 -10 4 -12 11 -7 21 5 8 5 45 -1
82 -7 58 -6 80 14 153 38 148 52 248 46 350 -3 52 -6 104 -6 115 -5 108 -25
306 -37 370 -8 44 -19 103 -24 130 -4 28 -12 66 -18 85 -8 33 -16 59 -63 207
-11 35 -24 65 -29 68 -5 4 -9 15 -9 26 0 11 -9 37 -19 58 -11 21 -40 87 -64
147 -215 525 -241 574 -300 574 -13 0 -35 -12 -49 -27z m-1113 -1297 c51 -39
97 -146 101 -234 2 -40 0 -81 -5 -90 -5 -9 -17 -38 -26 -65 -20 -56 -106 -154
-152 -174 -18 -7 -44 -13 -58 -13 -15 0 -24 -4 -20 -10 3 -5 1 -10 -4 -10 -6
0 -11 6 -11 13 0 7 -14 26 -31 43 -50 47 -59 74 -59 177 0 118 15 199 47 259
31 56 56 81 109 108 52 25 71 25 109 -4z m772 -36 c48 -47 61 -79 67 -175 4
-58 1 -82 -21 -140 -70 -187 -204 -283 -326 -231 -37 15 -87 75 -87 105 0 11
-4 23 -10 26 -15 9 -12 89 5 174 38 178 138 281 274 281 52 0 59 -3 98 -40z
m504 -557 c9 -9 9 -16 0 -27 -10 -12 -39 -15 -134 -16 -67 0 -133 -1 -147 -3
-36 -3 -38 27 -3 41 49 19 66 21 170 19 63 -2 107 -7 114 -14z m-205 -208 c76
-29 206 -98 224 -120 29 -36 -30 -48 -73 -15 -14 11 -28 20 -32 20 -4 0 -47
18 -96 40 -49 22 -95 40 -103 40 -22 0 -60 35 -52 48 11 19 60 14 132 -13z"/>
<path d="M2221 8275 c-29 -26 -42 -50 -55 -93 -30 -107 -15 -263 30 -313 11
-13 30 -19 57 -19 33 0 45 6 76 39 84 89 95 119 88 232 -8 120 -41 188 -84
172 -6 -2 -14 1 -18 6 -13 22 -56 10 -94 -24z"/>
<path d="M2968 8301 c-52 -24 -76 -48 -106 -106 -51 -99 -61 -223 -23 -295 13
-24 30 -50 39 -57 41 -31 124 -4 171 56 55 70 74 120 79 208 4 75 2 86 -23
128 -14 26 -41 55 -58 66 -37 22 -32 22 -79 0z"/>
</g>
</svg>
