<?xml version="1.0" standalone="no"?>
<!DOCTYPE svg PUBLIC "-//W3C//DTD SVG 20010904//EN"
 "http://www.w3.org/TR/2001/REC-SVG-20010904/DTD/svg10.dtd">
<svg version="1.0" xmlns="http://www.w3.org/2000/svg"
 width="704.000000pt" height="1280.000000pt" viewBox="0 0 704.000000 1280.000000"
 preserveAspectRatio="xMidYMid meet">
<metadata>
Created by potrace 1.16, written by Peter Selinger 2001-2019
</metadata>
<g transform="translate(0.000000,1280.000000) scale(0.100000,-0.100000)"
fill="#000000" stroke="none">
<path d="M3509 9678 c-7 -13 -18 -27 -24 -33 -17 -15 -57 -114 -50 -125 3 -6
13 -10 21 -10 8 0 14 -4 14 -10 0 -5 -10 -10 -22 -10 -21 0 -28 -16 -75 -163
-69 -215 -107 -326 -127 -362 -9 -16 -16 -38 -16 -48 0 -10 -11 -40 -25 -67
-25 -50 -26 -50 -75 -50 -27 0 -61 -5 -75 -12 -21 -9 -27 -9 -38 6 -11 15 -16
16 -56 1 -24 -8 -47 -15 -52 -15 -4 0 -16 27 -25 60 -9 33 -21 63 -25 66 -5 3
-9 17 -9 32 0 15 -7 40 -15 55 -8 16 -19 47 -25 70 -6 23 -21 67 -34 97 -13
30 -33 87 -46 125 -13 39 -26 75 -30 80 -4 6 -10 24 -13 42 -9 48 -88 205
-116 232 -20 19 -30 22 -49 15 -39 -14 -59 -51 -92 -164 -34 -121 -105 -441
-115 -515 -3 -27 -10 -63 -15 -80 -22 -71 -50 -281 -51 -382 l-1 -73 -62 -50
c-63 -51 -172 -166 -230 -242 -45 -59 -122 -204 -136 -256 l-11 -43 -112 7
c-91 5 -116 3 -132 -9 -37 -28 -5 -43 107 -50 56 -4 106 -11 111 -16 5 -5 6
-37 2 -74 -7 -64 -8 -66 -44 -80 -20 -8 -80 -25 -134 -38 -78 -19 -97 -26 -97
-41 0 -27 88 -24 195 7 48 14 89 24 90 23 1 -2 9 -25 18 -52 27 -80 75 -143
160 -212 44 -35 84 -64 89 -64 5 0 29 -16 52 -35 65 -53 302 -184 385 -213 22
-8 31 -18 32 -34 4 -69 8 -178 12 -296 3 -73 8 -136 11 -139 3 -4 2 -11 -3
-17 -5 -6 -16 -49 -25 -95 -10 -47 -24 -97 -32 -112 -17 -34 -19 -63 -2 -53 7
5 8 3 4 -5 -5 -7 -10 -10 -13 -7 -3 3 -16 -13 -28 -37 -12 -23 -39 -71 -59
-107 -21 -36 -44 -81 -51 -100 -32 -86 -42 -108 -68 -150 -36 -60 -77 -147
-77 -166 0 -8 -16 -37 -35 -65 -19 -28 -35 -59 -35 -69 0 -9 -9 -29 -20 -43
-11 -14 -20 -35 -20 -46 0 -12 -7 -38 -16 -59 -36 -87 -88 -259 -83 -277 2 -6
-5 -28 -15 -50 -10 -22 -22 -66 -26 -99 -5 -32 -10 -59 -12 -60 -2 -1 -20 -10
-40 -20 -99 -45 -256 -183 -303 -266 -55 -96 -75 -166 -75 -260 l0 -85 50 -63
c28 -34 59 -63 68 -64 40 -4 48 -6 75 -17 39 -15 72 -14 87 4 7 8 22 15 34 15
24 0 104 81 98 98 -2 6 2 13 7 17 6 3 11 -1 11 -9 0 -9 5 -16 10 -16 6 0 10
-13 10 -29 0 -17 4 -32 9 -36 5 -3 12 -18 16 -34 7 -34 49 -76 65 -66 7 4 9
-1 5 -17 -15 -60 350 -332 421 -314 17 5 24 2 24 -8 0 -17 76 -56 109 -56 47
0 86 -30 130 -99 56 -89 106 -137 211 -202 241 -150 369 -185 656 -180 182 3
407 78 560 187 71 51 156 139 184 193 11 20 37 61 57 91 33 48 43 56 83 63 88
16 120 28 120 42 0 8 5 15 10 15 6 0 10 -5 10 -11 0 -7 10 -9 27 -4 112 28
344 200 303 225 -8 5 -9 9 -1 14 6 4 11 2 11 -5 0 -9 3 -9 14 1 8 6 12 18 9
26 -3 8 1 14 10 14 8 0 23 12 33 27 34 52 94 183 105 231 6 26 18 62 26 81 17
41 29 256 15 265 -7 4 -7 15 0 35 8 20 8 48 -1 102 -6 41 -13 93 -16 116 -2
23 -8 50 -13 60 -5 10 -13 37 -17 60 -4 24 -11 45 -16 49 -5 3 -9 13 -9 23 0
10 -7 32 -15 47 -8 16 -15 38 -15 50 0 11 -7 29 -15 40 -8 10 -15 24 -15 30 0
6 -16 38 -35 70 -20 32 -33 65 -30 72 3 8 -5 31 -17 51 -13 20 -46 87 -75 149
-48 105 -89 180 -103 192 -3 3 -14 27 -24 53 -10 26 -30 62 -44 79 -14 17 -26
39 -27 49 -1 10 -14 36 -28 58 -15 22 -27 44 -27 49 0 16 -82 177 -100 197
-18 19 -150 277 -150 293 0 4 -16 31 -35 61 -19 29 -35 58 -35 65 0 6 -29 71
-65 144 -36 74 -65 140 -65 148 0 8 -16 46 -35 84 -19 38 -35 74 -35 80 0 6
-14 41 -31 78 -34 72 -41 103 -41 197 -1 57 20 163 42 213 7 16 6 28 -2 41 -9
15 -9 23 2 36 11 13 11 18 1 24 -9 6 -9 10 2 20 11 8 15 39 15 121 0 60 -3
112 -7 114 -4 3 -6 40 -5 83 2 73 -15 231 -36 333 -5 25 -14 69 -19 98 -11 58
-37 155 -50 187 -5 11 -17 47 -29 80 -30 91 -42 123 -78 210 -17 44 -53 132
-79 195 -25 63 -55 133 -65 155 -11 23 -35 80 -54 127 -55 137 -83 186 -116
203 -40 21 -57 19 -71 -7z m-1139 -1325 c34 -23 48 -41 72 -93 46 -100 42
-212 -11 -321 -47 -98 -94 -143 -168 -159 -45 -11 -81 6 -119 55 -54 72 -52
273 6 390 34 71 71 109 125 129 53 19 66 19 95 -1z m785 -53 l50 -51 3 -102
c3 -96 1 -109 -27 -183 -79 -202 -275 -282 -374 -152 -37 48 -47 104 -37 211
7 73 16 105 44 161 57 116 126 164 236 165 54 1 57 -1 105 -49z m504 -529 c21
-34 2 -41 -120 -43 -65 -1 -134 -2 -151 -2 -27 -1 -33 3 -33 19 0 29 68 44
193 42 76 -2 105 -6 111 -16z m-159 -228 c116 -53 164 -79 179 -97 29 -35 -25
-50 -69 -18 -14 9 -38 22 -55 29 -231 90 -225 87 -225 115 0 19 4 20 43 15 23
-3 81 -23 127 -44z"/>
<path d="M2222 8275 c-94 -79 -119 -349 -39 -423 30 -27 56 -31 92 -14 49 24
65 42 59 68 -4 15 -2 24 6 24 6 0 8 -5 4 -11 -4 -7 -1 -10 7 -7 8 2 24 24 37
49 20 39 22 54 18 132 -6 116 -36 184 -79 179 -17 -2 -29 3 -33 13 -9 22 -38
18 -72 -10z"/>
<path d="M2935 8271 c-90 -56 -145 -186 -131 -310 12 -102 55 -151 130 -151
30 0 45 8 81 44 24 24 56 68 72 98 25 47 28 63 28 151 0 90 -2 100 -22 117
-13 10 -23 25 -23 34 0 36 -87 47 -135 17z"/>
</g>
</svg>
