<?xml version="1.0" standalone="no"?>
<!DOCTYPE svg PUBLIC "-//W3C//DTD SVG 20010904//EN"
 "http://www.w3.org/TR/2001/REC-SVG-20010904/DTD/svg10.dtd">
<svg version="1.0" xmlns="http://www.w3.org/2000/svg"
 width="704.000000pt" height="1280.000000pt" viewBox="0 0 704.000000 1280.000000"
 preserveAspectRatio="xMidYMid meet">
<metadata>
Created by potrace 1.16, written by Peter Selinger 2001-2019
</metadata>
<g transform="translate(0.000000,1280.000000) scale(0.100000,-0.100000)"
fill="#000000" stroke="none">
<path d="M3507 9682 c-28 -29 -77 -131 -77 -160 0 -24 -97 -341 -114 -372 -8
-14 -19 -45 -26 -69 -6 -24 -22 -67 -35 -95 -13 -28 -26 -68 -30 -89 -4 -20
-12 -40 -17 -43 -5 -3 -14 -17 -19 -31 -8 -22 -14 -25 -52 -21 -25 3 -53 -1
-70 -9 -24 -12 -30 -12 -43 2 -19 19 -26 19 -71 0 -19 -8 -39 -15 -44 -15 -5
0 -16 26 -25 58 -9 31 -20 61 -25 67 -5 5 -9 19 -9 32 0 13 -7 40 -16 61 -9
20 -22 61 -30 91 -8 29 -23 66 -34 81 -11 16 -20 40 -20 55 0 25 -7 46 -45
130 -7 17 -16 43 -20 60 -4 16 -22 62 -41 101 -19 39 -34 75 -34 80 0 4 -12
21 -27 36 -47 49 -99 30 -125 -44 -31 -90 -57 -187 -83 -313 -15 -71 -29 -133
-30 -136 -3 -4 -42 -211 -66 -354 -22 -127 -39 -282 -34 -303 5 -19 -17 -44
-128 -155 -73 -72 -152 -160 -174 -193 -51 -75 -106 -184 -123 -241 l-13 -43
-116 7 c-97 5 -118 3 -129 -9 -25 -30 -4 -48 57 -48 31 0 80 -3 109 -6 42 -6
52 -10 52 -25 0 -11 5 -19 11 -19 8 0 8 -4 -1 -15 -6 -8 -12 -30 -12 -50 0
-48 -18 -58 -155 -91 -101 -25 -114 -31 -111 -49 3 -17 9 -20 53 -17 27 1 86
12 130 25 44 12 84 22 88 22 4 0 19 -26 32 -58 13 -32 35 -76 49 -97 25 -38
142 -140 194 -170 44 -25 85 -54 108 -75 19 -17 317 -175 351 -186 12 -4 17
-66 28 -348 2 -57 6 -106 9 -108 3 -3 -1 -18 -9 -34 -8 -15 -15 -38 -15 -50 0
-47 -68 -247 -95 -279 -15 -18 -82 -147 -109 -211 -35 -82 -61 -134 -77 -154
-17 -22 -59 -117 -59 -135 0 -7 -13 -30 -29 -53 -16 -23 -32 -56 -36 -74 -3
-17 -13 -37 -21 -44 -8 -6 -14 -19 -14 -28 0 -9 -16 -61 -36 -116 -34 -99 -64
-201 -69 -240 -1 -11 -10 -37 -19 -59 -9 -21 -16 -53 -16 -70 0 -17 -5 -47
-10 -66 -18 -61 -39 -240 -38 -334 1 -103 19 -229 42 -296 9 -25 16 -50 16
-57 0 -7 -26 -31 -57 -54 -73 -54 -171 -148 -179 -173 -4 -10 -19 -41 -35 -68
-16 -27 -33 -66 -38 -86 -5 -20 -17 -64 -26 -97 -10 -35 -13 -61 -7 -63 6 -2
6 -18 -1 -44 -7 -29 -7 -50 1 -72 7 -18 12 -44 12 -58 0 -26 19 -89 44 -143
27 -61 47 -138 53 -204 5 -64 4 -71 -41 -163 -25 -52 -46 -109 -46 -124 0 -37
42 -127 74 -159 14 -14 37 -25 51 -25 14 0 25 -4 25 -10 0 -17 71 -23 133 -9
53 11 68 20 109 62 56 58 99 138 90 169 -3 14 -1 19 6 14 7 -4 10 -2 7 6 -3 8
5 23 19 35 19 17 26 38 36 105 7 47 10 98 7 114 -10 55 -27 119 -41 154 -15
40 -52 160 -62 205 -15 67 -3 222 17 209 5 -3 9 1 9 9 0 8 20 36 45 63 25 26
45 42 45 36 0 -7 15 -12 38 -12 26 0 51 -10 86 -35 56 -40 129 -70 150 -62 8
3 17 -1 20 -9 7 -18 66 -44 126 -56 146 -28 276 -34 675 -30 94 1 197 -2 229
-8 39 -6 64 -6 71 0 8 7 23 4 45 -7 23 -11 66 -17 144 -19 96 -3 116 -1 149
17 22 11 47 17 58 14 17 -6 81 10 104 26 6 4 30 10 55 14 24 4 55 14 67 22 15
10 23 11 23 4 0 -6 17 -11 38 -11 49 0 281 39 303 51 10 5 35 11 56 14 96 14
310 162 354 244 10 19 26 39 34 44 9 5 30 39 47 75 16 37 38 83 48 102 10 19
23 62 30 95 7 33 17 66 24 74 18 22 19 337 2 451 -14 94 -37 186 -55 225 -5
11 -17 49 -26 85 -18 67 -30 96 -83 190 -17 30 -29 57 -26 62 2 4 -11 38 -30
75 -19 37 -57 116 -85 175 -28 59 -62 119 -76 134 -14 15 -25 35 -25 46 0 24
-34 90 -54 107 -9 8 -16 20 -16 28 0 8 -13 35 -30 60 -16 24 -30 48 -30 53 0
18 -74 166 -96 193 -13 15 -69 121 -124 235 -56 114 -130 266 -165 339 -36 72
-65 138 -65 146 0 8 -16 48 -36 88 -20 41 -40 83 -44 94 -4 11 -18 45 -32 75
-21 47 -24 69 -24 150 1 93 17 193 38 237 6 12 8 32 5 44 -3 12 -2 31 4 41 7
13 6 18 -2 18 -9 0 -9 3 0 14 14 16 17 148 7 266 -5 47 -8 92 -8 100 2 81 -63
461 -90 528 -22 55 -26 68 -38 112 -6 25 -19 63 -29 85 -10 22 -25 60 -33 85
-9 25 -56 140 -103 255 -48 116 -107 257 -131 315 -48 118 -79 163 -122 178
-26 9 -33 7 -55 -16z m-1114 -1339 c11 -10 33 -47 48 -81 24 -54 29 -77 29
-147 0 -268 -242 -448 -341 -254 -38 76 -28 273 19 365 62 122 177 177 245
117z m722 -2 c80 -50 95 -80 97 -200 2 -109 -25 -196 -88 -282 -86 -116 -226
-142 -305 -55 -37 40 -49 83 -49 175 0 221 115 374 285 380 17 0 44 -8 60 -18z
m545 -567 c6 -6 8 -18 4 -27 -5 -14 -24 -17 -125 -19 -65 -1 -134 -2 -151 -2
-22 -1 -34 4 -36 15 -3 16 28 33 78 43 45 8 219 1 230 -10z m-216 -208 c87
-33 207 -93 230 -116 39 -38 -21 -56 -67 -20 -14 11 -30 20 -36 20 -5 0 -45
15 -88 34 -43 18 -95 39 -115 46 -30 9 -38 17 -38 36 0 32 29 32 114 0z"/>
<path d="M2217 8271 c-41 -36 -73 -123 -83 -223 -11 -111 36 -218 95 -218 40
0 106 42 106 67 0 12 4 25 9 30 5 5 6 0 2 -11 -7 -19 -6 -19 13 -2 55 50 65
225 19 320 -20 41 -26 46 -47 41 -13 -3 -27 -2 -30 3 -16 25 -50 22 -84 -7z"/>
<path d="M2955 8286 c-34 -15 -96 -80 -120 -125 -8 -17 -20 -67 -26 -110 -9
-66 -8 -89 5 -134 37 -126 147 -143 229 -35 36 47 74 135 82 188 12 88 -26
185 -87 216 -33 17 -44 17 -83 0z"/>
</g>
</svg>
