<?xml version="1.0" standalone="no"?>
<!DOCTYPE svg PUBLIC "-//W3C//DTD SVG 20010904//EN"
 "http://www.w3.org/TR/2001/REC-SVG-20010904/DTD/svg10.dtd">
<svg version="1.0" xmlns="http://www.w3.org/2000/svg"
 width="704.000000pt" height="1280.000000pt" viewBox="0 0 704.000000 1280.000000"
 preserveAspectRatio="xMidYMid meet">
<metadata>
Created by potrace 1.16, written by Peter Selinger 2001-2019
</metadata>
<g transform="translate(0.000000,1280.000000) scale(0.100000,-0.100000)"
fill="#000000" stroke="none">
<path d="M3510 9677 c0 -7 -8 -17 -19 -24 -22 -14 -54 -107 -46 -134 4 -10 2
-19 -4 -19 -5 0 -14 -15 -19 -32 -36 -120 -86 -276 -93 -293 -5 -11 -23 -58
-39 -105 -17 -47 -45 -123 -62 -170 -17 -47 -36 -89 -42 -93 -6 -4 -30 -5 -53
-2 -30 4 -49 2 -65 -9 -27 -19 -49 -21 -45 -3 3 15 -47 11 -86 -8 -31 -16 -33
-13 -57 73 -6 23 -15 44 -20 47 -6 3 -10 16 -10 28 0 27 -65 213 -86 244 -8
12 -14 30 -14 39 0 21 -40 134 -53 152 -6 7 -12 27 -14 45 -2 17 -10 41 -18
54 -8 12 -15 31 -15 41 0 10 -9 27 -20 37 -11 10 -20 27 -20 37 0 30 -46 70
-77 66 -52 -6 -97 -112 -147 -348 -8 -36 -23 -101 -35 -145 -11 -44 -23 -111
-26 -150 -4 -38 -14 -95 -22 -125 -9 -30 -17 -68 -19 -85 -1 -16 -9 -72 -18
-122 -8 -51 -16 -125 -17 -164 -2 -67 -4 -73 -33 -97 -58 -48 -227 -223 -254
-264 -52 -78 -152 -267 -152 -289 0 -12 -33 -11 -101 1 -30 6 -74 7 -99 2 -39
-7 -45 -11 -45 -32 0 -25 2 -25 104 -32 56 -4 106 -9 109 -12 3 -3 6 -35 6
-72 1 -82 0 -83 -177 -124 -87 -20 -92 -23 -84 -45 9 -23 77 -19 181 10 49 13
93 22 96 20 4 -3 12 -24 18 -47 15 -58 86 -164 122 -183 16 -8 33 -21 37 -28
19 -32 341 -232 480 -298 85 -40 80 -27 88 -254 3 -82 7 -174 8 -203 2 -30 0
-55 -4 -58 -4 -2 -10 -21 -13 -41 -13 -73 -28 -138 -37 -155 -5 -10 -9 -24 -9
-32 0 -20 -31 -86 -58 -123 -13 -18 -37 -63 -53 -100 -45 -102 -111 -233 -137
-272 -12 -19 -27 -52 -34 -75 -6 -23 -22 -56 -35 -74 -14 -18 -31 -54 -40 -80
-9 -26 -20 -52 -24 -58 -23 -29 -121 -347 -120 -389 0 -11 -7 -30 -15 -43 -8
-13 -25 -82 -37 -155 -18 -108 -22 -169 -21 -337 1 -200 2 -207 32 -295 21
-65 34 -89 45 -87 11 2 15 -6 14 -32 -1 -41 28 -80 55 -73 20 6 23 -4 8 -19
-12 -12 127 -157 174 -181 16 -8 40 -26 54 -38 14 -13 62 -42 108 -65 69 -35
87 -40 99 -30 12 10 15 9 15 -8 0 -33 76 -53 305 -80 111 -14 386 -9 414 7 17
9 26 10 34 2 18 -18 387 -13 617 9 216 20 318 26 323 19 1 -2 15 -29 30 -59
32 -65 34 -100 7 -125 -20 -18 -91 -19 -830 -14 -113 1 -239 -1 -280 -4 -41
-3 -90 -6 -107 -6 -18 -1 -33 -6 -33 -12 0 -6 -10 -9 -22 -7 -13 2 -28 -3 -34
-11 -9 -11 -14 -11 -31 -1 -17 11 -38 11 -109 1 -49 -7 -93 -16 -99 -20 -5 -5
-31 -12 -57 -15 -31 -5 -54 -15 -65 -29 -10 -13 -25 -21 -34 -19 -9 2 -24 -4
-32 -13 -9 -8 -19 -15 -24 -15 -24 -1 -143 -136 -143 -162 0 -9 -7 -29 -15
-44 -10 -19 -15 -58 -15 -110 0 -74 3 -85 32 -129 17 -26 52 -61 77 -77 42
-26 51 -28 101 -22 51 6 87 22 117 51 7 6 23 20 36 30 13 10 34 33 47 52 82
113 145 158 240 173 110 17 355 6 485 -22 28 -5 86 -15 130 -21 44 -6 109 -14
145 -19 36 -5 103 -15 150 -23 47 -8 153 -26 235 -41 83 -14 168 -31 190 -38
25 -7 109 -12 221 -12 l181 -1 63 33 c34 17 70 32 78 32 30 0 117 77 135 119
42 101 48 120 57 188 8 59 6 86 -10 162 -10 50 -24 99 -29 110 -6 10 -15 40
-21 67 -6 27 -20 61 -30 76 -11 15 -20 34 -20 41 0 8 -16 39 -37 68 l-36 53
49 45 c28 26 64 66 81 91 17 25 43 56 57 69 14 14 26 35 26 47 0 12 4 24 9 26
14 5 71 138 71 165 0 13 10 43 22 66 20 38 22 57 22 207 0 91 -3 188 -7 215
-10 83 -43 222 -66 280 -5 11 -14 33 -20 48 -6 15 -11 38 -11 50 0 13 -6 31
-14 42 -7 11 -17 31 -21 45 -4 14 -13 32 -20 40 -7 8 -22 40 -33 70 -11 30
-40 96 -63 145 -24 50 -50 108 -58 130 -17 42 -119 229 -152 277 -11 15 -19
32 -19 39 0 6 -18 36 -40 68 -22 31 -40 64 -40 73 0 19 -57 135 -78 161 -20
22 -38 55 -53 91 -6 15 -22 47 -34 70 -89 167 -235 475 -261 551 -8 22 -20 51
-28 65 -7 14 -25 58 -40 97 -15 40 -32 75 -37 79 -5 3 -9 14 -9 25 0 10 -8 27
-19 38 -11 11 -15 24 -11 32 4 8 3 42 -3 76 -9 54 -8 73 12 150 36 136 45 209
44 328 -2 235 -10 340 -40 505 -8 47 -17 99 -20 115 -12 84 -98 370 -114 380
-5 4 -9 14 -9 24 0 9 -9 35 -19 57 -11 22 -49 112 -85 200 -176 432 -188 460
-219 492 -23 23 -40 32 -64 32 -20 0 -33 -5 -33 -13z m-1123 -1313 c52 -40 93
-140 99 -241 2 -46 1 -83 -4 -83 -5 0 -9 -6 -9 -12 0 -27 -46 -109 -85 -153
-46 -52 -79 -72 -135 -81 -35 -5 -43 -2 -75 28 -51 47 -62 97 -55 242 6 106
10 127 36 181 34 69 60 96 117 125 52 26 71 25 111 -6z m769 -31 c31 -26 48
-50 56 -78 12 -45 17 -172 6 -195 -3 -8 -14 -37 -24 -65 -21 -61 -44 -96 -103
-157 -57 -61 -116 -82 -186 -69 -48 9 -67 24 -111 87 -24 35 -28 131 -10 221
21 99 45 151 97 208 53 58 110 85 177 85 47 0 59 -5 98 -37z m506 -561 c8 -8
8 -15 -1 -26 -10 -12 -38 -16 -125 -17 -61 0 -127 -1 -146 -2 -25 -2 -35 3
-38 14 -3 17 31 35 83 43 57 8 215 0 227 -12z m-149 -232 c147 -64 210 -117
153 -128 -10 -2 -68 21 -130 52 -62 30 -134 60 -160 67 -52 13 -59 19 -50 44
11 27 75 15 187 -35z"/>
<path d="M2265 8299 c-67 -19 -105 -95 -120 -235 -8 -70 5 -126 38 -175 19
-28 30 -35 65 -37 39 -3 47 1 80 36 76 81 92 120 92 232 0 102 -17 143 -72
170 -23 11 -44 20 -47 19 -3 0 -20 -5 -36 -10z"/>
<path d="M2952 8285 c-51 -28 -74 -55 -100 -115 -58 -133 -53 -241 13 -307 60
-60 134 -41 195 48 45 66 69 142 70 216 0 77 -9 101 -55 147 -42 42 -63 44
-123 11z"/>
</g>
</svg>
