<?xml version="1.0" standalone="no"?>
<!DOCTYPE svg PUBLIC "-//W3C//DTD SVG 20010904//EN"
 "http://www.w3.org/TR/2001/REC-SVG-20010904/DTD/svg10.dtd">
<svg version="1.0" xmlns="http://www.w3.org/2000/svg"
 width="704.000000pt" height="1280.000000pt" viewBox="0 0 704.000000 1280.000000"
 preserveAspectRatio="xMidYMid meet">
<metadata>
Created by potrace 1.16, written by Peter Selinger 2001-2019
</metadata>
<g transform="translate(0.000000,1280.000000) scale(0.100000,-0.100000)"
fill="#000000" stroke="none">
<path d="M3517 9692 c-9 -10 -17 -24 -17 -30 0 -7 -5 -12 -10 -12 -14 0 -48
-81 -62 -145 -15 -77 -161 -509 -179 -530 -4 -6 -13 -32 -18 -57 -6 -26 -21
-63 -33 -83 -21 -36 -23 -37 -67 -32 -28 3 -56 0 -71 -8 -21 -11 -29 -11 -44
0 -15 11 -25 11 -64 0 -25 -8 -49 -12 -53 -10 -3 3 -10 24 -13 49 -4 24 -13
52 -21 62 -8 11 -15 33 -15 49 0 17 -7 43 -15 58 -8 16 -20 47 -26 70 -6 23
-22 66 -35 95 -13 29 -24 60 -24 68 0 9 -7 32 -16 52 -9 21 -22 52 -30 70 -8
18 -14 41 -14 51 0 30 -98 218 -125 239 -67 53 -105 -11 -171 -293 -13 -55
-32 -138 -44 -185 -11 -47 -27 -130 -35 -184 -9 -55 -19 -104 -22 -109 -3 -5
-9 -37 -13 -71 -4 -33 -15 -113 -25 -176 -9 -63 -14 -131 -11 -150 5 -32 2
-38 -23 -53 -42 -25 -225 -213 -269 -277 -55 -80 -111 -183 -131 -243 l-18
-52 -44 2 c-24 0 -71 2 -105 3 -80 3 -106 -6 -102 -33 3 -21 10 -22 111 -29
60 -3 111 -9 113 -11 5 -5 5 -52 1 -110 -3 -40 -24 -52 -153 -83 -102 -25
-115 -31 -112 -49 3 -18 9 -20 61 -17 32 2 92 14 135 28 42 13 79 20 83 16 3
-4 14 -29 24 -57 22 -62 89 -159 118 -173 12 -5 46 -31 75 -56 30 -25 58 -46
63 -46 6 0 15 -4 22 -10 53 -43 84 -64 167 -111 52 -30 133 -72 180 -93 47
-22 87 -41 89 -42 4 -3 6 -43 15 -308 3 -76 7 -141 10 -144 3 -3 2 -10 -4 -17
-5 -6 -13 -35 -19 -65 -23 -131 -46 -188 -143 -363 -27 -47 -48 -89 -48 -93 0
-9 -35 -87 -57 -129 -9 -16 -34 -61 -55 -100 -20 -38 -38 -77 -38 -86 0 -10
-16 -40 -35 -69 -19 -29 -35 -62 -35 -75 0 -12 -6 -28 -14 -34 -8 -7 -17 -28
-21 -49 -4 -20 -13 -50 -20 -67 -20 -44 -60 -172 -75 -235 -7 -30 -17 -66 -22
-80 -6 -14 -14 -52 -18 -85 -4 -33 -15 -94 -24 -134 -19 -88 -29 -332 -15
-411 18 -111 31 -166 44 -186 7 -11 15 -31 17 -45 2 -15 9 -24 20 -23 13 1 16
-4 11 -27 -4 -21 1 -34 21 -54 15 -15 33 -24 41 -21 12 4 13 2 3 -14 -11 -17
-6 -26 46 -79 32 -32 76 -72 98 -87 21 -16 56 -42 76 -58 45 -34 168 -96 193
-96 10 0 20 -4 24 -9 9 -16 66 -41 92 -41 13 0 33 -5 43 -10 11 -6 56 -13 101
-15 45 -3 86 -8 91 -11 17 -11 403 -5 406 6 4 12 32 14 32 3 0 -5 130 -6 290
-5 159 2 290 2 290 0 0 -20 -37 -125 -62 -176 -59 -122 -234 -246 -441 -313
-50 -17 -105 -32 -122 -34 -16 -2 -77 -9 -135 -15 -58 -7 -112 -13 -120 -13
-162 0 -322 8 -386 18 -81 14 -200 55 -284 99 -25 13 -56 27 -70 31 -24 7
-130 76 -158 102 -6 6 -21 15 -32 18 -11 3 -20 10 -20 14 0 5 -37 30 -82 56
-46 27 -90 54 -98 60 -61 50 -213 98 -363 115 -80 9 -176 41 -210 69 -9 8 -31
35 -47 59 -26 40 -30 55 -30 115 0 58 4 76 23 101 13 17 26 39 30 48 3 9 19
25 34 35 15 10 30 20 33 23 17 19 73 50 125 68 78 26 214 87 228 101 6 6 16
11 22 11 21 0 75 66 81 100 4 19 10 42 15 51 18 35 -41 146 -101 191 -64 48
-129 44 -249 -18 -36 -19 -72 -34 -79 -34 -7 0 -28 -11 -47 -25 -18 -14 -71
-45 -118 -69 -89 -46 -235 -151 -262 -189 -9 -12 -33 -45 -54 -74 -22 -29 -54
-87 -72 -130 -32 -74 -33 -84 -34 -200 0 -85 4 -126 12 -134 7 -7 13 -23 13
-35 0 -56 111 -226 176 -269 91 -59 228 -112 300 -117 25 -1 102 -17 284 -58
92 -21 152 -56 325 -193 55 -44 110 -83 122 -88 11 -4 24 -13 28 -19 4 -6 28
-21 53 -34 26 -13 74 -37 107 -55 33 -17 76 -34 95 -37 19 -4 40 -11 46 -15 6
-5 46 -20 89 -34 74 -23 119 -31 315 -55 95 -11 243 -13 253 -3 4 3 39 5 79 4
130 -3 518 98 616 160 25 16 51 29 57 29 6 0 31 13 56 28 44 29 52 32 68 32 5
0 49 32 97 70 95 76 181 166 231 242 43 66 101 187 106 223 6 31 24 119 36
170 7 30 8 30 126 51 168 29 249 50 296 76 22 13 54 30 70 39 25 15 66 47 138
112 13 12 36 40 50 62 14 22 38 55 53 73 15 18 28 40 28 49 0 9 6 24 13 32 31
36 69 143 64 176 -4 22 -1 35 7 38 19 8 35 75 35 147 0 36 1 99 1 140 2 79
-17 251 -30 285 -5 11 -22 67 -39 125 -37 124 -69 209 -86 230 -21 26 -45 78
-45 99 0 11 -13 42 -30 68 -16 26 -30 50 -30 54 0 28 -200 409 -226 430 -8 6
-14 19 -14 29 0 9 -13 36 -30 58 -16 23 -30 49 -30 57 0 36 -107 232 -132 243
-5 2 -8 8 -8 14 0 13 -127 276 -149 308 -10 14 -25 46 -35 71 -9 26 -39 91
-67 145 -28 55 -53 110 -56 124 -2 13 -17 49 -32 80 -16 30 -39 84 -52 120
-12 36 -28 74 -35 85 -23 37 -28 165 -10 239 10 38 15 70 12 73 -2 3 4 21 15
40 15 27 17 38 8 49 -9 11 -8 18 1 29 16 19 25 281 10 290 -7 4 -7 12 0 24 5
10 7 21 3 24 -3 4 -7 37 -9 74 -10 174 -78 530 -110 578 -8 11 -14 29 -14 40
0 21 -31 109 -43 121 -4 4 -7 14 -7 22 0 8 -16 54 -36 101 -269 649 -277 666
-308 686 -39 24 -62 26 -79 7z m-1146 -1334 c23 -15 45 -46 68 -92 28 -57 33
-79 33 -138 0 -38 -3 -72 -6 -75 -3 -4 -6 -17 -6 -29 0 -13 -11 -47 -24 -77
-58 -133 -179 -202 -257 -146 -64 45 -87 146 -68 294 17 127 76 221 164 261
62 28 56 28 96 2z m771 -33 c62 -57 70 -76 73 -172 3 -77 -1 -98 -28 -173 -25
-71 -39 -94 -86 -141 -91 -91 -173 -110 -251 -56 -63 42 -75 69 -79 174 -8
233 111 401 284 402 43 0 55 -4 87 -34z m502 -545 c25 -9 35 -34 19 -43 -5 -3
-75 -6 -158 -8 -145 -4 -150 -3 -150 16 0 15 11 23 45 32 56 14 210 16 244 3z
m-200 -214 c79 -30 205 -92 228 -113 9 -8 14 -21 11 -29 -8 -21 -60 -17 -83 6
-11 11 -26 20 -32 20 -7 0 -40 13 -73 28 -33 16 -83 36 -112 46 -49 16 -70 37
-57 57 9 15 51 10 118 -15z"/>
<path d="M2215 8268 c-43 -41 -70 -111 -79 -211 -8 -84 2 -136 37 -188 29 -43
67 -48 122 -16 31 18 39 29 37 48 -1 17 0 20 7 10 10 -16 29 9 56 72 22 52 12
191 -17 254 -19 40 -23 43 -48 38 -18 -4 -31 -1 -40 10 -19 23 -36 19 -75 -17z"/>
<path d="M2929 8271 c-90 -58 -145 -212 -119 -334 13 -64 31 -92 70 -112 70
-36 155 20 210 137 57 121 50 222 -20 298 -45 49 -78 52 -141 11z"/>
</g>
</svg>
