<?xml version="1.0" standalone="no"?>
<!DOCTYPE svg PUBLIC "-//W3C//DTD SVG 20010904//EN"
 "http://www.w3.org/TR/2001/REC-SVG-20010904/DTD/svg10.dtd">
<svg version="1.0" xmlns="http://www.w3.org/2000/svg"
 width="704.000000pt" height="1280.000000pt" viewBox="0 0 704.000000 1280.000000"
 preserveAspectRatio="xMidYMid meet">
<metadata>
Created by potrace 1.16, written by Peter Selinger 2001-2019
</metadata>
<g transform="translate(0.000000,1280.000000) scale(0.100000,-0.100000)"
fill="#000000" stroke="none">
<path d="M3518 9700 c-9 -6 -27 -32 -39 -58 -12 -26 -25 -55 -30 -64 -4 -9
-15 -45 -23 -80 -25 -104 -158 -501 -177 -523 -4 -6 -13 -32 -18 -57 -6 -26
-21 -63 -33 -83 -20 -36 -23 -37 -66 -32 -27 3 -54 0 -70 -9 -14 -7 -29 -10
-32 -5 -10 16 -36 18 -79 5 -49 -14 -61 -11 -61 14 0 9 -8 44 -19 77 -11 33
-31 98 -46 145 -15 47 -38 108 -51 136 -13 28 -24 57 -24 65 0 18 -36 117 -48
132 -5 7 -12 28 -15 47 -5 31 -25 78 -74 175 -41 81 -95 98 -133 44 -63 -87
-252 -1007 -237 -1147 4 -41 3 -44 -37 -71 -46 -33 -206 -195 -251 -256 -51
-68 -132 -226 -142 -277 l-6 -28 -102 6 c-125 8 -158 2 -153 -29 3 -19 10 -22
53 -24 28 -2 78 -5 113 -9 l63 -6 -3 -70 c-3 -53 -8 -74 -22 -83 -10 -8 -69
-26 -132 -41 -102 -25 -115 -31 -112 -49 3 -18 9 -20 58 -17 30 2 92 15 138
28 47 14 86 23 87 22 1 -2 8 -24 15 -51 17 -64 86 -160 140 -196 25 -16 56
-41 69 -55 14 -14 28 -26 32 -26 5 0 28 -14 51 -30 24 -17 60 -42 82 -56 39
-26 309 -168 335 -176 10 -3 15 -26 17 -83 1 -44 6 -145 9 -225 8 -173 9 -152
-9 -225 -24 -95 -33 -127 -53 -180 -21 -55 -27 -66 -95 -188 -27 -47 -48 -90
-48 -97 0 -7 -6 -24 -13 -38 -8 -15 -25 -49 -38 -77 -13 -27 -26 -52 -30 -55
-13 -10 -69 -130 -69 -148 0 -11 -13 -36 -30 -57 -16 -21 -30 -48 -30 -60 0
-12 -8 -33 -18 -46 -11 -13 -24 -42 -30 -64 -6 -22 -22 -73 -36 -112 -15 -40
-37 -115 -51 -168 -13 -52 -27 -100 -31 -106 -4 -7 -10 -39 -14 -73 -4 -33
-15 -97 -25 -141 -22 -104 -27 -316 -10 -425 16 -96 32 -160 46 -175 5 -5 9
-20 9 -33 0 -15 7 -26 18 -29 13 -3 18 -11 15 -26 -5 -25 31 -77 52 -77 8 0
11 -7 9 -17 -13 -50 321 -309 372 -289 9 3 12 1 9 -4 -10 -16 26 -24 46 -11
16 9 19 8 19 -7 0 -11 12 -24 28 -32 33 -15 153 -42 203 -45 20 -1 53 -6 75
-10 61 -12 405 -7 421 6 10 9 17 8 28 -1 11 -9 47 -10 137 -6 68 4 206 7 308
9 l185 2 -3 -60 c-5 -126 -50 -222 -156 -333 -65 -68 -225 -182 -257 -182 -6
0 -36 -12 -67 -26 -31 -14 -72 -28 -90 -31 -18 -3 -35 -10 -38 -14 -3 -5 -20
-9 -37 -9 -18 0 -52 -8 -77 -16 -60 -22 -153 -29 -345 -28 -206 2 -317 9 -343
23 -11 6 -35 11 -52 11 -17 0 -49 9 -70 20 -27 14 -40 16 -40 8 0 -6 -8 -3
-19 8 -10 11 -40 28 -67 38 -71 26 -152 91 -294 235 -136 138 -195 184 -268
208 -26 9 -51 19 -57 23 -30 22 -134 34 -295 34 l-175 1 -48 30 c-26 17 -64
54 -84 84 -34 49 -37 59 -37 125 -1 164 114 261 344 291 126 17 188 85 190
205 0 72 -66 159 -122 160 -15 0 -30 5 -34 11 -19 31 -277 -30 -394 -94 -165
-89 -255 -173 -317 -299 -60 -121 -74 -185 -69 -320 6 -167 45 -257 159 -371
81 -80 124 -105 242 -139 70 -20 104 -23 270 -25 l190 -2 85 -40 c92 -43 133
-78 269 -229 78 -85 151 -144 256 -202 82 -46 159 -83 189 -91 17 -4 57 -17
88 -29 53 -18 116 -31 313 -59 80 -12 377 -7 475 7 132 19 381 83 455 117 176
80 232 110 337 178 187 122 314 267 396 452 36 80 72 233 69 293 -2 73 1 77
82 87 127 15 266 55 338 98 97 58 164 113 204 170 19 26 49 66 67 88 17 23 32
46 32 51 0 6 18 46 40 90 22 44 40 92 40 107 0 14 9 49 20 78 13 34 19 76 19
125 0 40 1 109 1 153 0 117 -35 316 -69 390 -5 11 -17 49 -26 85 -15 58 -28
91 -56 140 -34 60 -49 92 -52 108 -5 34 -196 422 -208 422 -5 0 -9 5 -9 11 0
19 -51 114 -66 122 -8 4 -14 16 -14 26 0 10 -13 37 -30 59 -16 23 -30 49 -30
58 0 21 -48 119 -85 175 -17 25 -64 113 -105 195 -40 82 -83 165 -95 184 -12
19 -26 46 -30 60 -4 14 -36 84 -70 155 -35 72 -66 143 -69 158 -4 16 -17 45
-30 65 -13 20 -33 66 -45 101 -12 35 -29 77 -37 93 -25 47 -30 187 -10 252 10
30 16 60 15 68 -2 7 3 24 10 37 7 12 10 32 7 44 -3 11 -1 28 4 37 11 20 23
267 14 281 -3 6 -8 49 -10 96 -4 93 -29 297 -43 352 -5 20 -15 61 -21 91 -12
57 -75 266 -93 310 -5 14 -18 45 -27 70 -87 226 -249 614 -292 698 -14 29 -34
50 -59 63 -44 22 -39 21 -61 9z m-1147 -1342 c21 -15 46 -47 67 -88 32 -64 33
-67 28 -165 -8 -180 -88 -299 -213 -320 -35 -5 -48 -3 -74 16 -52 36 -69 88
-69 210 0 189 51 294 170 348 56 25 50 25 91 -1z m774 -35 c58 -48 72 -87 70
-198 -1 -76 -6 -101 -33 -164 -38 -90 -96 -154 -170 -187 -60 -27 -63 -28
-114 -14 -48 14 -97 55 -115 97 -19 46 -18 176 2 254 21 83 53 137 111 188 52
46 86 59 157 60 42 1 54 -4 92 -36z m516 -550 c6 -6 9 -19 6 -27 -5 -13 -28
-16 -127 -18 -66 -1 -135 -2 -152 -2 -27 -1 -33 3 -33 19 0 15 11 23 45 32 56
15 245 12 261 -4z m-218 -207 c70 -26 203 -92 229 -114 42 -35 -25 -58 -72
-25 -28 20 -101 53 -202 90 -63 24 -85 43 -72 64 9 15 51 10 117 -15z"/>
<path d="M2208 8262 c-48 -53 -70 -127 -71 -237 -1 -92 17 -151 57 -184 18
-15 72 -6 115 20 26 15 31 24 26 42 -5 16 -4 18 3 8 8 -11 16 -4 38 30 27 41
29 51 29 144 0 84 -4 108 -24 148 -21 44 -26 48 -51 42 -18 -4 -31 -1 -40 10
-20 24 -45 18 -82 -23z"/>
<path d="M2954 8286 c-112 -52 -180 -231 -140 -369 40 -139 159 -141 247 -5
91 141 92 270 3 356 -24 23 -48 42 -52 41 -4 0 -30 -11 -58 -23z"/>
</g>
</svg>
