<?xml version="1.0" standalone="no"?>
<!DOCTYPE svg PUBLIC "-//W3C//DTD SVG 20010904//EN"
 "http://www.w3.org/TR/2001/REC-SVG-20010904/DTD/svg10.dtd">
<svg version="1.0" xmlns="http://www.w3.org/2000/svg"
 width="704.000000pt" height="1280.000000pt" viewBox="0 0 704.000000 1280.000000"
 preserveAspectRatio="xMidYMid meet">
<metadata>
Created by potrace 1.16, written by Peter Selinger 2001-2019
</metadata>
<g transform="translate(0.000000,1280.000000) scale(0.100000,-0.100000)"
fill="#000000" stroke="none">
<path d="M3496 9667 c-32 -42 -62 -112 -71 -167 -9 -56 -149 -480 -176 -531
-10 -21 -19 -46 -20 -56 0 -10 -10 -38 -22 -63 l-22 -45 -68 -6 c-37 -3 -70
-9 -74 -12 -3 -4 -14 0 -24 9 -16 15 -22 15 -63 -1 -24 -9 -49 -14 -54 -11 -5
3 -13 22 -17 42 -3 20 -12 50 -19 68 -8 17 -26 72 -40 121 -15 50 -38 113 -51
140 -14 28 -25 60 -25 72 0 21 -10 47 -46 128 -7 17 -18 48 -23 71 -17 67 -88
200 -117 219 -40 26 -77 6 -103 -55 -12 -27 -21 -53 -21 -58 0 -5 -9 -38 -20
-73 -29 -93 -112 -483 -108 -509 1 -8 -4 -33 -11 -55 -25 -81 -64 -396 -51
-409 13 -13 -6 -44 -44 -74 -68 -55 -229 -227 -270 -290 -54 -83 -100 -173
-117 -230 l-12 -43 -111 7 c-90 5 -115 3 -131 -9 -36 -28 -5 -44 98 -50 124
-7 130 -9 122 -61 -4 -22 -7 -53 -6 -67 1 -32 -26 -45 -171 -80 -75 -18 -98
-28 -98 -40 0 -9 6 -19 13 -22 21 -8 140 11 201 33 33 11 63 17 67 13 4 -5 17
-32 29 -62 31 -79 71 -132 146 -192 37 -30 73 -57 80 -61 8 -5 20 -11 28 -15
7 -5 55 -36 107 -71 78 -53 290 -167 337 -183 14 -5 20 -77 27 -329 4 -143 -2
-185 -42 -320 -26 -90 -42 -124 -101 -230 -21 -36 -50 -96 -65 -135 -16 -38
-33 -77 -38 -85 -5 -8 -15 -29 -23 -46 -8 -17 -18 -34 -23 -37 -5 -3 -22 -39
-38 -79 -16 -40 -41 -91 -57 -112 -15 -22 -28 -49 -28 -61 0 -11 -7 -31 -17
-44 -9 -13 -31 -67 -49 -119 -19 -53 -39 -102 -46 -109 -7 -7 -35 -14 -63 -17
-96 -9 -247 -98 -232 -138 2 -7 -3 -21 -12 -32 -10 -12 -16 -36 -16 -70 0 -42
6 -59 35 -101 38 -53 121 -105 168 -105 23 0 24 -2 17 -51 -9 -67 -10 -244 -1
-339 7 -71 30 -163 46 -185 4 -5 10 -23 14 -38 4 -18 12 -27 20 -24 9 4 12 -2
8 -19 -6 -33 23 -74 53 -74 22 0 23 -3 15 -24 -8 -21 -2 -30 48 -78 l56 -53 1
-130 c0 -107 5 -143 24 -204 13 -41 28 -80 32 -85 5 -6 32 -46 60 -89 57 -87
141 -167 226 -214 94 -52 197 -103 209 -103 6 0 32 -9 58 -21 26 -11 63 -22
84 -24 20 -2 73 -11 117 -20 97 -19 377 -23 482 -6 40 6 128 27 195 47 68 19
139 39 158 44 56 15 271 128 318 168 112 95 171 161 224 252 31 52 64 114 74
138 12 31 23 44 43 48 210 46 290 79 397 162 116 91 259 312 279 432 4 25 13
56 20 70 19 37 28 117 15 125 -8 5 -8 11 0 20 12 14 9 107 -4 116 -4 4 -3 17
4 29 13 25 5 166 -11 175 -4 3 -8 20 -8 38 1 18 -9 66 -21 107 -12 41 -24 87
-27 103 -3 15 -9 30 -14 33 -5 3 -9 14 -9 25 0 26 -36 110 -77 177 -17 30 -29
60 -26 68 3 8 -10 40 -28 72 -19 31 -41 73 -50 92 -36 82 -84 174 -110 213
-16 23 -29 48 -29 55 0 18 -36 87 -57 107 -9 10 -17 26 -18 36 -1 10 -14 36
-28 58 -15 22 -27 44 -27 49 0 16 -68 147 -107 207 -22 33 -70 125 -108 205
-37 80 -76 157 -87 172 -10 14 -18 31 -18 37 0 6 -29 70 -65 143 -36 73 -65
140 -65 148 0 8 -16 47 -35 85 -19 39 -46 102 -61 140 -14 39 -29 75 -33 80
-21 30 1 276 30 348 9 21 9 31 -1 42 -10 12 -10 18 1 32 20 23 27 272 8 284
-10 6 -11 11 -3 19 7 7 8 28 3 62 -5 28 -6 54 -4 58 5 8 -20 200 -34 265 -5
22 -16 76 -25 120 -16 79 -30 132 -46 170 -4 11 -18 53 -31 93 -12 40 -26 75
-31 78 -4 3 -8 13 -8 23 0 10 -16 53 -35 95 -19 43 -35 82 -35 87 0 6 -13 41
-29 77 -16 37 -66 155 -111 262 -94 221 -102 235 -141 256 -41 21 -55 18 -83
-19z m-1126 -1312 c54 -28 102 -148 101 -253 -2 -163 -115 -324 -228 -324 -47
0 -83 27 -113 88 -21 41 -25 64 -26 139 -1 170 63 304 166 346 56 22 64 23
100 4z m763 -31 c68 -57 72 -68 72 -194 0 -97 -4 -124 -23 -173 -74 -182 -253
-264 -360 -164 -44 40 -53 73 -53 173 1 195 74 331 202 374 66 23 123 17 162
-16z m527 -550 c6 -6 8 -18 4 -27 -5 -15 -23 -17 -118 -18 -61 0 -129 -1 -151
-2 -34 -2 -40 1 -40 18 0 15 11 23 45 32 53 15 245 12 260 -3z m-161 -232
c145 -62 201 -98 186 -122 -10 -16 -50 -12 -78 10 -14 11 -30 20 -36 20 -6 0
-39 13 -73 29 -35 15 -81 34 -103 41 -50 16 -75 37 -68 57 9 22 68 10 172 -35z
m-399 -3884 c151 1 389 4 528 6 l253 3 -36 -37 c-35 -36 -59 -50 -205 -119
-143 -67 -493 -80 -659 -24 -86 28 -201 102 -239 152 l-26 33 54 -7 c30 -5
179 -7 330 -7z"/>
<path d="M2244 8290 c-56 -22 -99 -115 -109 -238 -11 -124 34 -224 100 -224
31 0 113 51 97 61 -7 4 -8 12 -2 21 7 10 10 11 10 3 0 -30 23 -9 47 43 23 52
25 65 20 140 -8 114 -53 213 -78 173 -5 -8 -9 -9 -9 -4 0 16 -53 33 -76 25z"/>
<path d="M2990 8293 c-53 -15 -89 -40 -122 -85 -48 -64 -62 -112 -62 -218 0
-72 4 -92 23 -123 28 -45 48 -57 99 -57 105 0 218 201 192 342 -15 81 -83 154
-130 141z"/>
</g>
</svg>
