<?xml version="1.0" standalone="no"?>
<!DOCTYPE svg PUBLIC "-//W3C//DTD SVG 20010904//EN"
 "http://www.w3.org/TR/2001/REC-SVG-20010904/DTD/svg10.dtd">
<svg version="1.0" xmlns="http://www.w3.org/2000/svg"
 width="704.000000pt" height="1280.000000pt" viewBox="0 0 704.000000 1280.000000"
 preserveAspectRatio="xMidYMid meet">
<metadata>
Created by potrace 1.16, written by Peter Selinger 2001-2019
</metadata>
<g transform="translate(0.000000,1280.000000) scale(0.100000,-0.100000)"
fill="#000000" stroke="none">
<path d="M3482 9640 c-16 -28 -37 -78 -47 -113 -43 -153 -97 -326 -116 -372
-12 -27 -24 -63 -29 -80 -4 -16 -19 -58 -34 -92 -14 -34 -26 -68 -26 -75 0 -7
-10 -34 -22 -60 -22 -47 -23 -48 -70 -48 -26 0 -59 -5 -74 -10 -19 -7 -30 -7
-40 1 -13 11 -34 9 -97 -6 -23 -6 -26 -3 -41 49 -9 30 -21 58 -26 61 -6 3 -10
18 -10 32 0 28 -41 152 -75 228 -12 28 -27 71 -34 98 -6 26 -20 66 -30 90 -11
23 -22 53 -26 67 -12 47 -58 150 -67 150 -4 0 -8 8 -8 19 0 27 -45 71 -74 71
-28 0 -73 -48 -82 -88 -3 -15 -16 -61 -29 -102 -13 -41 -26 -93 -30 -115 -4
-22 -17 -80 -30 -130 -12 -49 -28 -119 -34 -155 -6 -36 -25 -137 -41 -225 -16
-88 -33 -213 -36 -278 l-7 -117 -41 -34 c-47 -39 -79 -70 -152 -147 -56 -59
-164 -205 -164 -222 0 -6 -7 -18 -16 -28 -8 -9 -26 -48 -39 -86 l-23 -68 -48
2 c-156 6 -176 5 -191 -10 -32 -32 -10 -44 98 -50 56 -4 107 -11 112 -16 5 -5
6 -38 2 -76 -9 -79 -3 -76 -237 -129 -19 -4 -28 -13 -28 -26 0 -34 82 -25 256
25 19 6 24 0 39 -47 17 -50 90 -168 105 -168 3 0 36 -25 73 -55 36 -30 71 -55
77 -55 5 0 18 -7 27 -15 44 -38 83 -66 138 -96 32 -17 73 -42 90 -54 18 -11
71 -38 119 -60 75 -33 86 -41 87 -64 1 -14 3 -48 5 -76 2 -27 5 -116 7 -197 2
-82 6 -150 9 -153 3 -3 -1 -22 -8 -43 -7 -20 -13 -47 -14 -59 0 -12 -4 -32 -9
-45 -5 -13 -21 -61 -36 -107 -14 -46 -39 -103 -54 -125 -42 -62 -121 -227
-114 -239 3 -5 0 -15 -8 -21 -8 -6 -22 -27 -32 -46 -9 -19 -31 -60 -47 -90
-16 -30 -29 -63 -30 -73 0 -10 -14 -39 -31 -63 -17 -25 -36 -62 -41 -82 -6
-20 -13 -39 -17 -42 -9 -6 -40 -97 -86 -250 -19 -63 -44 -143 -55 -177 -11
-34 -20 -78 -20 -98 0 -20 -7 -61 -16 -91 -20 -68 -31 -301 -21 -424 7 -86 23
-161 47 -215 5 -11 10 -29 12 -40 2 -12 10 -19 20 -17 12 2 16 -6 15 -32 -1
-41 17 -66 49 -66 26 0 30 -10 13 -27 -14 -14 91 -124 161 -168 25 -16 58 -40
74 -53 45 -36 167 -94 187 -89 10 3 20 -2 23 -10 7 -18 93 -56 107 -48 5 4 16
2 23 -5 21 -17 192 -32 376 -32 252 -1 790 9 835 16 22 3 67 8 100 11 33 3
101 10 150 15 50 5 100 10 112 10 12 0 24 8 26 18 4 16 5 16 6 0 1 -16 12 -18
79 -18 51 -1 104 -9 157 -24 48 -15 84 -21 89 -15 14 13 22 11 41 -7 12 -13
37 -17 106 -17 49 0 89 -4 89 -8 0 -17 327 8 455 36 39 8 79 15 90 15 11 0 36
10 55 22 19 12 46 21 58 19 13 -1 65 11 115 28 146 48 188 58 257 66 36 3 73
13 82 22 16 14 18 14 24 -1 4 -11 17 -16 38 -15 99 4 207 -37 251 -95 24 -32
26 -40 19 -92 -6 -48 -13 -65 -47 -101 -41 -45 -127 -98 -207 -129 -25 -9 -52
-23 -61 -31 -8 -7 -24 -13 -35 -13 -24 -1 -96 -73 -123 -125 -22 -42 -29 -115
-10 -115 5 0 8 -4 5 -8 -6 -10 14 -77 33 -111 7 -13 41 -36 79 -53 57 -26 73
-29 121 -23 114 13 324 97 303 120 -4 5 -1 5 6 1 26 -15 237 127 237 160 0 8
16 22 35 32 19 9 44 33 57 52 12 19 33 49 46 65 34 43 93 172 103 225 9 54 10
169 3 226 -10 73 -82 202 -143 257 -83 75 -119 99 -202 133 -85 34 -114 42
-264 65 -137 21 -435 -22 -563 -82 -21 -10 -52 -21 -70 -25 -18 -3 -45 -14
-62 -22 -45 -24 -190 -70 -275 -88 -76 -16 -85 -18 -152 -30 -67 -12 -74 0
-34 52 20 26 36 55 36 65 0 10 5 21 10 24 16 10 70 135 70 162 0 13 4 32 10
43 6 11 15 30 21 41 13 26 19 258 7 265 -5 3 -4 12 3 20 8 9 9 30 5 62 -4 26
-9 58 -11 72 -9 72 -47 229 -59 249 -5 7 -16 46 -26 87 -10 40 -39 112 -64
158 -25 46 -46 89 -46 96 0 6 -18 48 -39 93 -22 45 -58 123 -81 172 -43 94
-76 139 -93 128 -6 -4 -8 3 -4 17 7 26 -35 119 -59 133 -8 4 -14 16 -14 26 0
10 -13 38 -30 62 -16 24 -30 50 -30 57 0 16 -71 153 -110 212 -16 25 -32 52
-36 60 -15 40 -130 268 -146 292 -10 14 -18 31 -18 37 0 6 -29 72 -65 146 -36
75 -65 141 -65 149 0 8 -15 47 -34 87 -18 41 -40 90 -49 109 -8 19 -23 53 -33
75 -31 69 -34 192 -9 305 10 41 18 91 19 110 1 19 5 40 9 47 4 6 4 18 1 27 -3
9 -2 16 4 16 11 0 14 207 4 224 -3 6 -7 54 -9 108 -4 110 -17 238 -33 313 -6
28 -15 70 -20 95 -16 83 -27 124 -65 240 -20 63 -41 119 -46 125 -5 5 -9 15
-9 23 0 12 -56 152 -96 237 -7 17 -29 68 -47 115 -19 47 -52 126 -74 175 -22
50 -50 116 -62 148 -27 66 -69 107 -112 107 -24 0 -33 -8 -57 -50z m-1083
-1285 c22 -20 46 -55 56 -82 10 -27 21 -51 25 -56 3 -4 5 -49 3 -99 -2 -77 -8
-101 -32 -152 -47 -99 -110 -155 -188 -166 -45 -7 -48 -6 -89 35 -34 34 -44
53 -50 91 -10 68 2 245 20 288 31 74 76 127 130 152 67 31 79 30 125 -11z
m747 -16 c56 -44 75 -87 79 -180 3 -81 -6 -115 -55 -225 -27 -58 -109 -138
-158 -152 -190 -57 -292 116 -214 364 41 132 147 224 258 224 42 0 58 -5 90
-31z m514 -565 c6 -6 8 -18 4 -27 -5 -15 -25 -17 -130 -19 -68 -1 -136 -2
-151 -2 -39 -1 -42 28 -6 42 15 6 37 13 48 16 36 9 224 1 235 -10z m-160 -229
c47 -20 92 -42 100 -49 8 -8 25 -17 36 -20 28 -9 58 -42 49 -55 -10 -17 -50
-13 -78 9 -14 11 -30 20 -36 20 -7 0 -31 10 -54 22 -23 12 -73 33 -112 48 -57
21 -71 30 -73 49 -4 23 -2 24 40 18 24 -3 82 -22 128 -42z"/>
<path d="M2264 8307 c-71 -37 -114 -135 -114 -256 1 -191 79 -255 189 -155 59
53 79 103 79 204 1 104 -19 166 -63 190 -43 24 -69 29 -91 17z"/>
<path d="M2948 8288 c-67 -35 -137 -176 -138 -279 0 -47 31 -131 58 -156 39
-36 110 -29 157 17 56 54 97 143 103 221 7 96 -3 133 -47 179 -43 46 -72 50
-133 18z"/>
</g>
</svg>
