<?xml version="1.0" standalone="no"?>
<!DOCTYPE svg PUBLIC "-//W3C//DTD SVG 20010904//EN"
 "http://www.w3.org/TR/2001/REC-SVG-20010904/DTD/svg10.dtd">
<svg version="1.0" xmlns="http://www.w3.org/2000/svg"
 width="704.000000pt" height="1280.000000pt" viewBox="0 0 704.000000 1280.000000"
 preserveAspectRatio="xMidYMid meet">
<metadata>
Created by potrace 1.16, written by Peter Selinger 2001-2019
</metadata>
<g transform="translate(0.000000,1280.000000) scale(0.100000,-0.100000)"
fill="#000000" stroke="none">
<path d="M3505 9680 c-3 -5 -3 -14 0 -20 3 -5 0 -10 -8 -10 -15 0 -62 -114
-73 -177 -3 -15 -48 -154 -87 -263 -16 -47 -39 -114 -52 -150 -12 -36 -29 -79
-37 -95 -8 -17 -18 -44 -21 -61 -3 -17 -16 -47 -27 -67 -21 -35 -25 -37 -70
-37 -27 0 -60 -4 -74 -10 -17 -6 -27 -6 -32 2 -6 10 -54 7 -100 -7 -19 -6 -24
1 -44 57 -12 34 -28 86 -35 113 -22 80 -57 177 -77 213 -10 18 -18 43 -18 56
0 20 -9 45 -50 141 -5 11 -11 32 -14 47 -4 15 -25 67 -47 116 -45 97 -79 129
-124 118 -26 -7 -65 -70 -65 -105 0 -11 -9 -45 -21 -75 -24 -66 -49 -177 -125
-556 -25 -124 -53 -341 -54 -408 0 -67 6 -59 -88 -135 -56 -47 -155 -156 -206
-227 -38 -54 -122 -210 -136 -254 l-12 -39 -67 8 c-73 9 -123 9 -159 0 -17 -4
-22 -12 -20 -28 3 -20 10 -22 100 -28 54 -4 104 -9 113 -13 12 -4 15 -19 12
-71 -2 -36 -8 -70 -13 -75 -8 -8 -134 -44 -226 -64 -19 -4 -28 -13 -28 -26 0
-17 7 -20 49 -20 27 0 88 11 136 25 47 14 91 23 96 20 5 -4 9 -15 9 -27 0 -35
82 -169 117 -191 8 -5 40 -30 73 -58 32 -27 64 -49 70 -49 5 0 18 -7 27 -16
35 -30 108 -84 116 -84 4 0 31 -15 60 -33 63 -40 223 -117 243 -117 14 0 15
-7 20 -105 14 -300 12 -381 -7 -465 -11 -47 -25 -96 -30 -110 -6 -13 -12 -40
-15 -60 -2 -19 -9 -36 -14 -38 -6 -2 -10 -12 -10 -23 0 -11 -6 -22 -13 -25 -7
-2 -32 -44 -56 -92 -24 -48 -52 -104 -63 -125 -10 -21 -16 -41 -14 -46 3 -5
-1 -14 -9 -21 -8 -7 -15 -17 -15 -22 0 -6 -9 -23 -21 -39 -31 -44 -79 -142
-73 -151 3 -4 -11 -31 -31 -59 -19 -28 -35 -61 -35 -73 0 -12 -7 -31 -15 -42
-19 -28 -89 -238 -114 -341 -10 -44 -25 -91 -31 -104 -7 -13 -16 -50 -21 -84
-4 -33 -14 -97 -23 -142 -21 -111 -22 -343 -1 -468 1 -11 13 -51 26 -90 13
-38 24 -74 24 -80 0 -5 9 -9 18 -8 12 1 16 -4 13 -14 -3 -8 1 -30 9 -49 12
-29 19 -34 46 -34 31 0 32 -1 14 -20 -17 -19 -15 -21 48 -83 110 -109 354
-262 365 -229 6 19 22 14 22 -6 0 -35 93 -66 250 -84 241 -26 1251 1 1308 36
15 9 74 -19 101 -48 17 -18 31 -24 44 -20 12 4 17 2 13 -4 -8 -13 73 -85 122
-107 20 -10 56 -31 79 -46 23 -16 50 -29 60 -29 10 0 32 -9 49 -19 17 -10 46
-22 65 -26 19 -4 46 -14 61 -21 15 -8 51 -16 79 -19 28 -2 65 -8 82 -14 53
-17 372 -21 426 -6 25 7 68 16 94 20 44 6 64 12 157 52 146 61 220 112 310
210 34 38 75 94 91 126 61 119 95 352 69 479 -19 96 -47 194 -63 225 -8 16
-20 46 -26 68 -6 22 -20 69 -31 105 -26 81 -29 224 -6 302 20 68 107 162 187
202 50 24 71 28 185 32 171 7 183 11 233 86 46 69 51 100 25 179 -14 42 -28
58 -86 104 -67 52 -90 61 -146 56 -13 -1 -30 3 -38 10 -10 8 -38 10 -92 5
-101 -8 -155 -24 -287 -82 -94 -41 -123 -60 -200 -129 -49 -45 -95 -90 -100
-101 -6 -10 -22 -37 -36 -59 -68 -105 -98 -220 -100 -385 -2 -136 10 -205 60
-360 21 -63 44 -142 50 -175 7 -33 17 -76 23 -96 11 -38 5 -141 -11 -195 -13
-46 -32 -77 -73 -123 -97 -106 -242 -171 -385 -171 -45 0 -85 -4 -88 -10 -9
-15 -25 -12 -25 4 0 10 -17 17 -56 22 -31 3 -69 13 -83 20 -14 8 -33 14 -41
14 -8 0 -22 5 -30 10 -13 8 -12 11 5 25 11 9 40 25 65 36 49 22 92 57 85 69
-3 4 9 13 26 20 37 16 82 72 73 93 -3 10 2 18 17 22 22 7 68 53 69 68 0 4 16
42 36 84 19 41 39 98 44 124 5 27 17 63 25 80 19 36 30 249 13 249 -6 0 -7 9
-3 23 12 38 9 81 -14 217 -11 66 -37 165 -51 190 -6 11 -9 23 -8 27 6 25 -65
199 -104 255 -10 14 -18 34 -18 43 0 9 -20 58 -44 108 -24 51 -56 117 -70 147
-42 90 -83 155 -96 152 -7 -2 -9 4 -5 17 6 20 -38 110 -61 124 -8 4 -14 16
-14 25 0 9 -14 37 -30 62 -16 25 -30 51 -30 58 0 20 -77 168 -115 221 -19 27
-35 53 -35 58 0 8 -113 237 -147 298 -21 39 -142 310 -149 335 -3 14 -19 50
-35 80 -15 30 -38 82 -50 115 -13 33 -27 66 -33 73 -17 24 -30 187 -17 222 5
14 12 42 16 63 5 31 3 37 -7 31 -7 -4 -4 3 7 15 14 16 20 38 20 70 0 25 4 52
8 59 5 6 5 12 1 12 -3 0 -2 6 4 13 11 13 14 215 4 232 -4 6 -7 46 -8 90 -2
116 -24 307 -44 380 -4 17 -13 57 -20 90 -15 68 -77 270 -93 300 -6 11 -21 47
-33 80 -11 33 -31 85 -44 115 -46 111 -94 226 -110 265 -34 79 -78 181 -105
248 -16 38 -41 79 -58 93 -29 24 -81 32 -92 14z m-1109 -1322 c53 -47 84 -126
88 -221 1 -43 -1 -80 -6 -83 -4 -3 -8 -16 -8 -30 0 -30 -32 -96 -72 -147 -32
-40 -70 -64 -130 -83 -34 -11 -39 -9 -73 18 -19 17 -45 48 -57 71 -18 37 -20
53 -15 162 6 141 23 196 82 263 38 43 102 81 137 82 10 0 34 -14 54 -32z m724
3 c0 -6 14 -18 31 -28 91 -53 100 -251 18 -404 -24 -46 -82 -107 -123 -130
-32 -18 -56 -24 -108 -24 -63 0 -69 2 -102 34 -37 36 -66 111 -66 169 0 61 33
189 62 240 34 61 85 113 131 136 35 17 157 22 157 7z m530 -589 c38 -31 8 -40
-150 -43 -139 -4 -145 -3 -145 16 0 27 64 43 181 44 74 1 96 -2 114 -17z
m-224 -196 c37 -13 128 -56 205 -96 19 -10 41 -25 48 -34 30 -36 -29 -50 -72
-16 -14 11 -30 20 -36 20 -7 0 -37 13 -69 29 -31 16 -77 35 -102 42 -55 15
-70 26 -70 50 0 24 40 25 96 5z"/>
<path d="M2255 8301 c-46 -28 -61 -50 -85 -121 -19 -55 -21 -79 -17 -156 10
-174 68 -222 175 -143 63 46 92 117 92 221 -1 118 -30 189 -83 201 -12 2 -29
7 -37 11 -8 3 -28 -2 -45 -13z"/>
<path d="M2965 8297 c-86 -51 -126 -116 -146 -232 -9 -59 -9 -79 5 -126 9 -32
28 -69 42 -84 23 -25 31 -27 75 -23 39 4 57 12 84 38 53 51 98 151 103 226 6
91 -3 123 -47 172 -41 45 -75 53 -116 29z"/>
</g>
</svg>
