<?xml version="1.0" standalone="no"?>
<!DOCTYPE svg PUBLIC "-//W3C//DTD SVG 20010904//EN"
 "http://www.w3.org/TR/2001/REC-SVG-20010904/DTD/svg10.dtd">
<svg version="1.0" xmlns="http://www.w3.org/2000/svg"
 width="704.000000pt" height="1280.000000pt" viewBox="0 0 704.000000 1280.000000"
 preserveAspectRatio="xMidYMid meet">
<metadata>
Created by potrace 1.16, written by Peter Selinger 2001-2019
</metadata>
<g transform="translate(0.000000,1280.000000) scale(0.100000,-0.100000)"
fill="#000000" stroke="none">
<path d="M3506 9685 c-27 -29 -68 -127 -86 -205 -7 -30 -35 -120 -62 -200 -27
-80 -58 -174 -68 -209 -11 -35 -26 -74 -35 -87 -8 -12 -19 -44 -25 -71 -6 -26
-18 -55 -27 -65 -8 -9 -13 -24 -9 -33 5 -13 -4 -15 -58 -13 -38 1 -70 -3 -78
-10 -11 -9 -19 -8 -35 3 -17 12 -26 12 -68 0 -26 -8 -51 -13 -55 -10 -4 2 -10
22 -14 42 -3 21 -13 51 -21 67 -8 15 -15 35 -15 43 0 26 -63 208 -82 235 -10
14 -18 37 -18 51 0 21 -9 46 -50 142 -5 11 -11 32 -14 48 -4 15 -22 60 -41
100 -19 41 -35 79 -35 85 0 16 -64 62 -87 62 -52 0 -75 -65 -179 -520 -15 -69
-29 -145 -29 -170 -1 -25 -6 -57 -13 -72 -20 -47 -65 -379 -58 -423 4 -27 -1
-35 -50 -75 -66 -53 -170 -159 -213 -215 -16 -22 -39 -51 -49 -65 -28 -37 -99
-179 -113 -227 l-12 -43 -111 6 c-90 5 -115 3 -131 -9 -32 -24 -4 -47 59 -47
28 0 75 -3 104 -6 46 -6 52 -10 52 -30 0 -12 6 -25 13 -27 9 -4 9 -6 0 -6 -8
-1 -13 -16 -13 -41 0 -52 -20 -65 -160 -98 -98 -24 -110 -29 -108 -47 3 -18 9
-20 60 -17 31 2 91 14 134 27 43 13 81 21 85 17 3 -4 14 -29 23 -57 25 -69 82
-151 123 -176 20 -12 55 -39 80 -61 24 -21 51 -38 59 -38 8 0 14 -4 14 -9 0
-5 14 -14 30 -21 17 -7 34 -18 38 -25 9 -16 225 -136 308 -171 55 -23 64 -31
65 -53 0 -14 2 -69 5 -121 2 -52 6 -141 7 -197 2 -57 6 -105 9 -109 4 -3 0
-21 -8 -39 -8 -19 -14 -44 -14 -56 0 -47 -67 -230 -100 -275 -17 -23 -66 -121
-100 -199 -26 -62 -69 -145 -85 -165 -15 -20 -44 -89 -50 -118 -2 -12 -17 -41
-34 -65 -16 -23 -32 -56 -36 -74 -3 -17 -13 -37 -21 -44 -8 -6 -14 -18 -14
-25 0 -8 -14 -53 -31 -102 -37 -106 -78 -249 -73 -255 2 -2 -5 -24 -16 -50
-11 -25 -23 -71 -25 -103 -3 -31 -8 -60 -10 -64 -10 -16 -27 -153 -30 -244 -2
-54 -7 -101 -12 -105 -4 -4 -44 -15 -88 -25 -144 -31 -258 -92 -355 -189 -61
-61 -123 -149 -144 -204 -8 -21 -24 -63 -37 -93 -21 -50 -23 -70 -24 -232 0
-129 3 -180 13 -189 6 -7 12 -21 12 -31 0 -47 140 -281 185 -310 5 -3 23 -18
40 -32 37 -32 73 -40 122 -27 21 6 50 11 64 11 34 0 109 55 109 79 0 10 6 24
14 30 7 6 17 40 21 75 7 69 6 72 -66 198 -44 77 -62 167 -55 268 2 41 5 80 5
87 1 6 10 15 22 18 11 4 27 22 35 40 18 43 66 80 135 103 63 22 74 20 112 -20
21 -23 32 -28 49 -22 20 6 21 5 9 -9 -11 -14 -10 -21 8 -45 22 -31 145 -144
164 -151 7 -2 30 -19 53 -37 50 -41 169 -98 189 -90 8 3 15 1 15 -4 0 -30 106
-64 250 -80 144 -16 205 -27 229 -40 13 -6 35 -10 48 -7 19 3 27 0 30 -13 3
-10 21 -25 41 -33 87 -38 170 -65 212 -71 24 -4 49 -11 55 -16 19 -16 166 -30
186 -17 12 7 21 8 31 0 19 -15 167 -6 193 11 12 8 38 15 56 14 92 -1 211 51
259 115 23 29 43 37 34 12 -10 -25 21 -7 47 26 27 35 77 59 125 59 39 0 282
38 295 46 5 3 33 11 62 19 154 40 331 181 414 329 45 81 83 170 92 220 6 32
15 64 20 70 53 66 18 572 -49 695 -6 12 -9 21 -6 21 8 0 -62 192 -77 208 -23
27 -47 79 -47 104 0 13 -10 39 -23 58 -13 19 -31 55 -41 80 -36 90 -90 196
-122 236 -18 23 -31 44 -28 47 7 7 -41 100 -60 116 -9 8 -16 19 -16 26 0 18
-28 71 -45 85 -8 7 -15 20 -15 30 0 23 -67 158 -96 193 -13 15 -38 58 -55 95
-29 61 -113 231 -152 307 -8 17 -30 62 -47 100 -18 39 -48 100 -66 138 -19 37
-34 74 -34 83 0 9 -13 42 -29 73 -108 211 -130 331 -89 486 11 44 21 97 21
118 1 20 5 37 9 37 4 0 8 7 8 15 0 8 -6 15 -12 15 -10 0 -10 2 -1 8 13 8 18
187 8 277 -2 22 -4 65 -5 96 -2 111 -70 484 -104 569 -7 19 -23 62 -34 95 -46
137 -87 240 -215 540 -35 83 -79 185 -97 228 -33 77 -83 137 -116 137 -8 0
-25 -11 -38 -25z m-1121 -1339 c20 -15 41 -47 55 -80 12 -31 25 -56 29 -56 3
0 5 -41 3 -91 -3 -104 -29 -181 -84 -255 -36 -48 -98 -84 -144 -84 -40 0 -90
32 -110 72 -39 75 -35 266 9 369 32 76 119 146 186 148 13 1 39 -10 56 -23z
m761 -28 c61 -57 73 -88 68 -188 -7 -176 -85 -313 -204 -360 -99 -39 -186 -5
-228 90 -29 69 -11 253 35 343 47 93 141 154 241 156 37 1 49 -5 88 -41z m514
-544 c6 -6 8 -18 4 -27 -5 -14 -22 -17 -109 -17 -56 0 -123 -3 -148 -6 -38 -6
-48 -4 -53 10 -9 24 5 35 57 46 57 12 236 7 249 -6z m-216 -208 c87 -33 207
-93 230 -116 39 -38 -21 -56 -67 -20 -14 11 -30 20 -35 20 -5 0 -36 12 -68 26
-33 15 -84 35 -114 45 -57 20 -72 33 -63 56 8 19 45 16 117 -11z"/>
<path d="M2215 8268 c-118 -110 -103 -438 19 -438 43 0 109 45 101 70 -3 10 0
22 6 26 9 5 10 2 6 -9 -14 -38 13 -14 35 31 33 67 32 214 -2 285 -18 39 -27
48 -43 43 -11 -3 -33 2 -48 10 -37 18 -34 19 -74 -18z"/>
<path d="M2947 8280 c-74 -37 -123 -117 -138 -226 -15 -105 4 -180 55 -219 78
-60 164 -8 233 140 22 48 27 74 27 131 -1 64 -4 77 -33 120 -50 75 -79 87
-144 54z"/>
</g>
</svg>
