<?xml version="1.0" standalone="no"?>
<!DOCTYPE svg PUBLIC "-//W3C//DTD SVG 20010904//EN"
 "http://www.w3.org/TR/2001/REC-SVG-20010904/DTD/svg10.dtd">
<svg version="1.0" xmlns="http://www.w3.org/2000/svg"
 width="704.000000pt" height="1280.000000pt" viewBox="0 0 704.000000 1280.000000"
 preserveAspectRatio="xMidYMid meet">
<metadata>
Created by potrace 1.16, written by Peter Selinger 2001-2019
</metadata>
<g transform="translate(0.000000,1280.000000) scale(0.100000,-0.100000)"
fill="#000000" stroke="none">
<path d="M3518 9699 c-10 -5 -18 -19 -18 -29 0 -11 -5 -20 -11 -20 -5 0 -17
-17 -25 -37 -8 -21 -19 -46 -24 -55 -6 -10 -10 -26 -10 -36 0 -23 -96 -336
-119 -387 -10 -22 -21 -52 -25 -68 -4 -15 -18 -52 -31 -82 -14 -29 -25 -61
-25 -70 0 -8 -12 -38 -27 -66 -26 -51 -27 -51 -67 -46 -23 3 -53 0 -73 -8 -22
-9 -35 -10 -39 -3 -6 10 -54 7 -101 -7 -19 -6 -23 -1 -38 52 -9 32 -20 63 -25
68 -4 6 -10 26 -13 45 -7 44 -49 165 -76 218 -12 23 -21 50 -21 60 0 11 -14
55 -30 98 -17 44 -40 104 -52 134 -11 30 -29 70 -39 88 -11 18 -19 38 -19 45
0 22 -54 67 -80 67 -31 0 -53 -21 -73 -70 -32 -78 -152 -612 -143 -635 3 -8 1
-17 -4 -20 -4 -3 -13 -38 -20 -78 -6 -39 -16 -92 -20 -117 -21 -107 -34 -259
-23 -272 9 -10 -5 -26 -61 -73 -92 -77 -195 -189 -255 -279 -50 -77 -121 -221
-121 -249 0 -15 -11 -16 -118 -11 -101 6 -119 5 -131 -9 -27 -33 -7 -47 71
-48 110 0 154 -11 150 -34 -1 -11 -4 -42 -5 -70 -3 -46 -6 -52 -37 -67 -19
-10 -78 -27 -132 -39 -80 -18 -98 -26 -98 -41 0 -10 6 -18 13 -19 46 -3 112 6
181 26 45 13 84 21 87 17 3 -4 14 -29 24 -57 28 -76 67 -126 154 -199 44 -36
84 -66 88 -67 4 0 28 -16 53 -34 84 -63 380 -225 411 -225 5 0 9 -8 10 -17 0
-10 2 -67 5 -128 2 -60 6 -153 7 -205 2 -53 6 -101 10 -107 4 -6 3 -14 -2 -18
-6 -3 -13 -27 -16 -53 -9 -66 -72 -250 -100 -292 -27 -41 -76 -137 -104 -200
-30 -70 -70 -151 -97 -195 -13 -22 -29 -58 -36 -80 -6 -22 -22 -55 -36 -73
-13 -18 -28 -50 -34 -70 -5 -20 -16 -44 -23 -52 -6 -8 -17 -33 -23 -55 -6 -22
-22 -74 -37 -115 -38 -111 -86 -287 -94 -350 -9 -62 -31 -150 -38 -150 -3 0
-17 8 -31 19 -57 40 -180 101 -203 101 -13 0 -46 7 -74 16 -29 8 -67 13 -90
10 -22 -3 -76 -6 -120 -7 -94 -3 -143 -16 -252 -70 -112 -54 -219 -155 -258
-240 -24 -55 -27 -69 -21 -128 4 -39 13 -70 21 -77 8 -6 12 -13 10 -16 -3 -3
13 -22 36 -43 33 -30 50 -38 88 -41 25 -2 40 -1 33 2 -15 7 -6 24 14 24 8 0
14 -7 14 -16 0 -11 5 -14 16 -10 9 3 24 6 35 6 11 0 56 35 102 78 90 86 152
122 213 122 61 0 182 -39 189 -61 4 -11 10 -19 15 -19 18 0 76 -98 103 -175
24 -68 29 -104 37 -245 9 -154 14 -197 40 -325 12 -61 73 -183 128 -257 74
-101 237 -235 317 -260 16 -6 59 -25 95 -43 83 -42 146 -61 240 -74 41 -6 93
-13 115 -16 188 -26 352 -30 347 -7 -1 6 2 12 8 12 5 0 10 -4 10 -9 0 -20 54
-19 194 4 331 55 625 203 810 407 67 74 81 94 109 153 20 43 35 52 102 60 94
11 225 34 280 49 28 8 70 19 95 26 46 12 159 74 195 107 11 10 33 26 48 36 16
10 43 39 60 65 18 25 46 62 63 81 17 20 34 48 38 63 3 15 20 51 38 80 18 31
33 72 35 98 2 25 14 63 26 85 19 36 21 55 21 220 0 99 -3 198 -8 220 -4 22 -9
54 -10 70 -3 31 -18 87 -66 235 -27 82 -47 129 -91 214 -12 22 -23 49 -25 60
-2 11 -26 65 -52 120 -27 56 -59 121 -71 146 -29 59 -51 98 -79 138 -13 17
-21 32 -18 32 10 0 -41 95 -58 109 -9 8 -16 23 -16 35 0 12 -13 37 -30 56 -16
19 -29 43 -30 53 0 22 -65 151 -95 192 -13 16 -60 104 -104 195 -44 91 -90
179 -101 195 -11 17 -20 36 -20 43 0 7 -27 66 -59 132 -33 65 -65 137 -71 161
-6 23 -22 59 -36 80 -13 21 -24 44 -24 50 0 11 -7 28 -51 127 -30 70 -32 203
-5 307 11 39 20 86 20 105 1 19 4 40 8 45 9 15 12 235 4 350 -7 104 -35 345
-41 355 -2 4 -13 49 -24 101 -16 80 -56 206 -111 359 -30 83 -163 408 -195
475 -13 28 -42 97 -66 155 -50 125 -63 146 -100 166 -33 16 -38 17 -61 3z
m-1124 -1361 c71 -69 95 -200 61 -331 -26 -101 -76 -172 -146 -208 -75 -38
-140 -15 -181 64 -19 36 -22 58 -21 157 1 139 21 203 88 278 70 78 144 92 199
40z m750 -18 c65 -60 76 -90 71 -191 -4 -95 -29 -178 -76 -251 -38 -59 -77
-90 -144 -113 -69 -25 -115 -15 -170 36 -48 44 -58 80 -56 200 3 195 132 359
283 359 43 0 54 -5 92 -40z m515 -549 c21 -33 2 -41 -104 -41 -56 0 -123 -3
-148 -6 -38 -6 -48 -4 -53 10 -15 40 43 55 194 53 76 -2 105 -6 111 -16z
m-242 -195 c96 -34 237 -103 259 -128 33 -36 -21 -53 -66 -21 -14 10 -45 25
-70 34 -60 22 -171 68 -190 78 -8 4 -16 18 -18 30 -4 26 25 28 85 7z m-1001
-3806 c27 -12 57 -26 66 -31 27 -14 32 -11 17 9 -13 16 -13 16 6 2 10 -8 27
-22 36 -31 45 -45 427 -77 722 -62 80 5 97 8 98 22 1 14 2 14 6 -1 4 -14 19
-17 99 -17 53 0 100 -3 106 -7 10 -6 -68 -64 -87 -64 -5 0 -37 -11 -70 -24
-201 -81 -397 -103 -659 -74 -120 13 -233 54 -335 123 -79 53 -115 93 -155
174 -40 78 -29 89 42 42 32 -22 80 -49 108 -61z"/>
<path d="M2216 8269 c-45 -39 -72 -112 -81 -215 -11 -124 32 -224 96 -224 62
0 140 75 168 161 15 47 6 174 -17 236 -16 44 -21 48 -52 50 -19 1 -36 6 -38
12 -7 20 -41 11 -76 -20z"/>
<path d="M2930 8271 c-69 -44 -108 -117 -122 -227 -10 -82 -9 -93 11 -145 37
-96 118 -116 196 -48 44 39 104 159 111 224 7 55 -8 126 -31 149 -8 8 -15 19
-15 25 0 15 -60 51 -85 51 -11 0 -40 -13 -65 -29z"/>
</g>
</svg>
