<?xml version="1.0" standalone="no"?>
<!DOCTYPE svg PUBLIC "-//W3C//DTD SVG 20010904//EN"
 "http://www.w3.org/TR/2001/REC-SVG-20010904/DTD/svg10.dtd">
<svg version="1.0" xmlns="http://www.w3.org/2000/svg"
 width="704.000000pt" height="1280.000000pt" viewBox="0 0 704.000000 1280.000000"
 preserveAspectRatio="xMidYMid meet">
<metadata>
Created by potrace 1.16, written by Peter Selinger 2001-2019
</metadata>
<g transform="translate(0.000000,1280.000000) scale(0.100000,-0.100000)"
fill="#000000" stroke="none">
<path d="M3497 9668 c-30 -41 -62 -112 -71 -160 -9 -51 -101 -349 -115 -376
-6 -12 -20 -47 -31 -79 -24 -74 -63 -178 -81 -220 -13 -31 -16 -33 -66 -33
-28 0 -64 -5 -79 -10 -20 -8 -29 -8 -35 1 -7 11 -65 8 -102 -7 -12 -4 -20 9
-33 55 -9 34 -21 64 -25 67 -5 3 -9 17 -9 32 0 15 -9 45 -19 67 -10 22 -21 58
-25 80 -4 22 -17 56 -29 75 -12 19 -21 38 -19 43 3 9 -45 146 -56 161 -5 6
-12 25 -15 41 -3 17 -22 64 -41 106 -20 42 -36 81 -36 87 0 6 -16 23 -36 38
-34 26 -38 27 -62 13 -55 -30 -87 -134 -178 -574 -8 -38 -16 -91 -19 -116 -2
-26 -9 -59 -15 -75 -19 -49 -48 -274 -49 -375 -1 -65 -2 -67 -38 -95 -59 -45
-190 -182 -249 -259 -50 -67 -154 -263 -154 -292 0 -10 -22 -12 -112 -7 -92 5
-117 3 -133 -9 -16 -13 -17 -17 -6 -31 10 -12 32 -16 80 -17 36 0 84 -3 105
-7 l39 -7 2 -69 1 -69 -40 -18 c-23 -9 -85 -28 -138 -40 -79 -19 -98 -26 -98
-41 0 -27 88 -24 195 7 48 14 89 24 90 23 1 -2 10 -25 20 -53 29 -79 79 -150
137 -193 29 -22 63 -49 75 -61 12 -12 27 -21 33 -21 6 0 37 -20 68 -44 31 -24
77 -53 102 -66 25 -12 58 -32 74 -43 15 -11 71 -39 123 -63 52 -23 96 -44 98
-46 4 -4 16 -228 19 -363 1 -44 5 -86 10 -93 4 -7 3 -18 -2 -25 -9 -10 -28
-88 -36 -147 -1 -8 -9 -28 -18 -45 -9 -16 -19 -44 -22 -61 -4 -18 -19 -51 -35
-75 -37 -59 -84 -152 -111 -219 -28 -68 -58 -127 -82 -160 -9 -14 -29 -55 -42
-91 -14 -37 -36 -83 -50 -104 -14 -21 -26 -47 -26 -58 0 -11 -6 -28 -14 -36
-16 -19 -98 -257 -121 -356 -10 -38 -22 -79 -28 -90 -6 -11 -14 -49 -18 -85
-5 -36 -15 -99 -23 -140 -9 -41 -16 -123 -16 -182 l0 -107 -63 -49 c-92 -74
-166 -176 -229 -317 -54 -123 -73 -304 -45 -435 13 -60 34 -70 55 -27 7 15 11
17 11 6 1 -8 -8 -25 -19 -37 -27 -29 -25 -69 6 -127 72 -136 117 -167 243
-169 71 -1 79 1 126 33 64 44 71 53 90 118 17 58 15 93 -12 220 -8 40 -13 87
-10 105 14 91 20 118 29 118 10 0 77 -49 107 -78 23 -22 174 -118 231 -147 34
-18 56 -23 58 -16 5 16 22 14 22 -4 0 -43 178 -79 439 -91 106 -4 161 -18 161
-41 0 -7 19 -22 43 -34 23 -12 57 -32 75 -46 41 -31 135 -65 156 -57 10 4 16
1 16 -8 0 -26 178 -58 329 -58 98 0 248 37 361 89 117 55 260 158 260 188 0 7
8 13 18 13 10 0 26 6 37 13 11 8 47 19 80 26 191 41 309 90 398 166 22 19 44
35 48 35 3 0 24 26 45 57 22 32 49 66 61 76 12 9 25 28 29 40 4 12 24 58 45
102 22 44 39 91 39 105 0 14 10 45 21 70 16 35 21 69 23 157 2 71 -1 114 -8
116 -6 2 -5 14 3 35 9 20 10 45 5 74 -4 24 -8 52 -10 63 -11 89 -35 194 -55
240 -7 17 -14 37 -15 45 -2 8 -9 38 -17 65 -14 49 -22 67 -79 173 -16 28 -28
61 -28 73 0 11 -8 33 -19 47 -10 15 -35 65 -55 112 -48 110 -103 210 -127 231
-10 9 -16 19 -13 22 9 9 -32 93 -56 117 -12 12 -18 24 -16 29 3 4 -8 29 -24
55 -17 26 -30 49 -30 52 0 16 -85 182 -105 205 -12 15 -61 106 -108 202 -47
96 -91 178 -96 182 -6 3 -11 14 -11 23 0 10 -29 77 -65 150 -36 74 -65 141
-65 150 0 9 -14 42 -31 72 -17 30 -43 92 -59 138 -16 45 -32 87 -36 94 -20 31
-22 173 -4 238 7 25 19 67 27 93 9 33 11 53 4 61 -7 8 -6 25 4 51 19 52 20
251 3 258 -10 3 -10 7 0 20 8 9 10 22 6 28 -4 7 -8 42 -9 78 -2 81 -12 161
-32 266 -8 44 -19 100 -24 125 -11 60 -37 160 -48 185 -5 11 -18 47 -29 80
-42 128 -60 172 -197 495 -155 367 -157 372 -190 391 -42 27 -60 24 -88 -13z
m-1132 -1314 c26 -12 43 -33 69 -86 32 -63 36 -78 36 -151 0 -163 -83 -303
-201 -338 -77 -23 -145 46 -160 163 -24 186 40 351 155 404 62 28 60 28 101 8z
m785 -53 c57 -57 65 -85 58 -204 -9 -149 -80 -273 -184 -322 -193 -91 -310 77
-239 344 36 139 141 230 263 231 50 0 56 -3 102 -49z m504 -531 c30 -30 4 -38
-149 -41 -131 -4 -150 -2 -153 12 -3 15 23 31 73 43 11 2 64 4 117 3 71 -2
101 -6 112 -17z m-222 -199 c72 -25 218 -98 242 -121 37 -37 -17 -56 -64 -22
-14 9 -38 22 -55 29 -54 20 -190 75 -205 83 -8 4 -16 17 -18 29 -4 27 25 28
100 2z"/>
<path d="M2244 8290 c-61 -24 -107 -146 -108 -280 -1 -72 3 -91 24 -128 14
-24 34 -45 47 -48 60 -15 141 31 127 72 -4 14 -3 15 4 6 12 -17 45 23 63 75
14 44 6 177 -14 225 -20 47 -47 74 -58 57 -6 -11 -13 -8 -32 9 -26 25 -24 24
-53 12z"/>
<path d="M2936 8273 c-45 -24 -62 -43 -94 -104 -50 -96 -54 -243 -8 -311 62
-93 177 -53 249 87 28 54 31 69 32 155 0 90 -1 97 -30 135 -16 22 -34 43 -40
47 -17 13 -79 8 -109 -9z"/>
</g>
</svg>
