<?xml version="1.0" standalone="no"?>
<!DOCTYPE svg PUBLIC "-//W3C//DTD SVG 20010904//EN"
 "http://www.w3.org/TR/2001/REC-SVG-20010904/DTD/svg10.dtd">
<svg version="1.0" xmlns="http://www.w3.org/2000/svg"
 width="704.000000pt" height="1280.000000pt" viewBox="0 0 704.000000 1280.000000"
 preserveAspectRatio="xMidYMid meet">
<metadata>
Created by potrace 1.16, written by Peter Selinger 2001-2019
</metadata>
<g transform="translate(0.000000,1280.000000) scale(0.100000,-0.100000)"
fill="#000000" stroke="none">
<path d="M3501 9673 c-31 -38 -50 -84 -81 -198 -34 -128 -82 -279 -101 -323
-10 -23 -28 -70 -40 -105 -11 -34 -25 -67 -29 -72 -5 -6 -14 -32 -19 -57 -6
-26 -20 -63 -32 -82 -20 -35 -23 -36 -77 -36 -32 0 -64 -4 -72 -10 -9 -5 -19
-5 -27 2 -12 10 -71 6 -106 -7 -15 -6 -51 82 -67 167 -5 25 -16 60 -24 77 -9
16 -16 38 -16 48 0 10 -14 45 -30 78 -17 33 -30 67 -30 75 0 9 -12 45 -26 81
-14 35 -32 86 -40 112 -8 26 -28 73 -44 105 -17 31 -30 61 -30 66 0 6 -12 23
-27 38 -34 36 -74 37 -101 3 -23 -29 -73 -196 -107 -355 -13 -63 -33 -160 -45
-214 -11 -54 -19 -105 -16 -112 3 -7 1 -16 -3 -19 -15 -9 -71 -367 -71 -454 0
-35 -6 -44 -63 -92 -166 -142 -315 -347 -358 -493 l-13 -46 -116 7 c-96 5
-117 3 -128 -9 -26 -32 -4 -48 67 -49 90 -1 157 -12 154 -26 -2 -7 -4 -38 -6
-70 -3 -55 -5 -59 -38 -75 -19 -9 -78 -27 -131 -39 -78 -18 -98 -26 -98 -40 0
-9 5 -19 12 -21 22 -8 135 11 197 32 35 12 66 18 71 14 4 -5 15 -31 23 -57 22
-67 76 -136 154 -199 36 -29 73 -58 82 -63 14 -9 55 -37 116 -78 59 -41 201
-119 275 -152 47 -21 86 -39 88 -41 3 -2 10 -147 16 -349 1 -50 5 -96 9 -102
4 -6 3 -14 -2 -18 -6 -3 -13 -27 -16 -53 -9 -64 -75 -262 -95 -287 -25 -29
-160 -300 -160 -319 0 -2 -16 -30 -35 -62 -20 -33 -41 -77 -47 -99 -7 -22 -24
-59 -40 -82 -15 -23 -28 -50 -28 -61 0 -11 -8 -30 -18 -43 -11 -13 -24 -42
-30 -64 -6 -22 -20 -67 -32 -100 -26 -74 -57 -180 -63 -220 -2 -16 -12 -47
-21 -69 -9 -21 -16 -56 -16 -78 0 -44 -27 -118 -38 -102 -20 30 -195 131 -262
153 -41 13 -86 28 -99 35 -14 6 -72 10 -145 9 -99 -1 -136 -6 -202 -27 -45
-14 -98 -37 -118 -51 -20 -14 -39 -25 -42 -25 -3 0 -27 -15 -55 -32 -56 -37
-74 -74 -84 -175 -5 -55 -3 -67 20 -102 28 -45 61 -71 97 -75 12 -1 42 -8 65
-14 39 -12 44 -11 119 30 76 41 82 42 169 42 107 0 154 -15 209 -67 27 -25 45
-35 58 -31 13 4 18 0 18 -15 0 -27 -1 -23 26 -121 28 -99 29 -135 9 -250 -9
-47 -20 -114 -24 -150 -5 -36 -14 -80 -20 -99 -15 -50 -7 -227 14 -291 46
-143 109 -246 210 -346 64 -62 231 -176 254 -172 9 2 28 -7 41 -20 13 -12 42
-27 65 -32 22 -6 54 -17 70 -25 39 -19 145 -45 182 -45 16 0 35 -6 42 -13 17
-17 376 -17 496 0 176 25 291 46 329 59 21 8 48 14 59 14 18 0 152 49 237 87
67 30 226 127 301 184 110 83 201 188 254 291 25 48 53 89 63 92 9 3 87 17
172 32 85 14 160 30 165 34 6 4 31 10 56 14 96 14 317 169 303 213 -5 15 -4
15 5 3 5 -8 13 -11 17 -8 47 47 169 281 179 343 4 22 14 56 23 75 14 29 17 70
17 241 0 150 -3 210 -13 221 -6 8 -12 26 -11 39 1 28 -37 177 -50 193 -4 6
-12 29 -16 51 -9 50 -45 137 -85 205 -16 28 -30 59 -30 68 0 9 -20 58 -44 107
-24 50 -56 115 -70 145 -15 30 -39 78 -55 105 -16 28 -42 76 -56 107 -15 31
-36 65 -46 74 -11 9 -19 27 -19 38 0 12 -13 37 -30 56 -16 19 -29 43 -30 52 0
23 -58 139 -105 213 -21 33 -69 123 -106 200 -38 77 -77 154 -89 170 -11 17
-20 35 -20 42 0 6 -27 67 -59 135 -33 67 -62 137 -66 154 -3 18 -18 51 -33 75
-15 24 -36 69 -46 99 -10 30 -27 73 -37 94 -24 51 -36 184 -21 234 25 80 49
197 41 200 -5 2 -5 11 0 20 19 36 13 349 -10 542 -16 135 -62 349 -93 430 -7
19 -19 53 -25 75 -7 22 -20 60 -30 85 -10 25 -23 59 -29 75 -5 17 -48 122 -95
235 -203 488 -208 498 -268 519 -26 9 -31 7 -58 -26z m-1116 -1325 c32 -25 84
-134 86 -181 3 -65 -15 -174 -36 -223 -42 -96 -122 -164 -192 -164 -42 0 -90
34 -114 81 -41 81 -26 292 27 384 61 106 165 153 229 103z m754 -20 c60 -49
79 -96 77 -193 -3 -103 -34 -197 -91 -273 -44 -58 -57 -68 -129 -97 -49 -19
-76 -19 -125 1 -42 17 -84 69 -96 119 -13 58 -6 180 15 247 21 69 79 154 125
184 39 26 96 43 141 44 33 0 51 -7 83 -32z m521 -557 c20 -33 0 -41 -105 -41
-56 0 -123 -3 -148 -6 -38 -6 -48 -4 -53 10 -15 40 44 56 194 53 75 -2 105 -6
112 -16z m-243 -195 c74 -26 224 -97 251 -118 20 -17 15 -48 -9 -48 -19 0 -58
16 -69 29 -3 3 -25 13 -50 22 -61 23 -172 68 -190 78 -8 4 -16 18 -18 30 -4
26 25 28 85 7z m-1310 -3588 c14 -13 43 -37 62 -53 131 -110 255 -183 319
-188 18 -1 32 -7 32 -13 0 -23 75 -43 250 -66 89 -11 286 -14 660 -7 176 3
225 1 224 -8 -1 -7 -2 -17 -2 -23 -2 -13 -157 -112 -214 -138 -64 -28 -241
-82 -291 -88 -23 -3 -71 -13 -107 -22 -100 -25 -410 -22 -505 6 -273 78 -418
208 -460 411 -12 57 -11 211 1 211 2 0 16 -10 31 -22z"/>
<path d="M2255 8296 c-70 -31 -110 -116 -120 -255 -10 -135 41 -222 120 -207
50 10 118 81 140 145 35 106 -5 311 -59 297 -23 -6 -59 11 -51 25 8 11 7 11
-30 -5z"/>
<path d="M2929 8271 c-65 -41 -106 -116 -121 -219 -10 -72 -9 -90 6 -137 48
-154 185 -135 272 37 59 117 54 233 -15 307 -46 50 -78 53 -142 12z"/>
</g>
</svg>
