<?xml version="1.0" standalone="no"?>
<!DOCTYPE svg PUBLIC "-//W3C//DTD SVG 20010904//EN"
 "http://www.w3.org/TR/2001/REC-SVG-20010904/DTD/svg10.dtd">
<svg version="1.0" xmlns="http://www.w3.org/2000/svg"
 width="704.000000pt" height="1280.000000pt" viewBox="0 0 704.000000 1280.000000"
 preserveAspectRatio="xMidYMid meet">
<metadata>
Created by potrace 1.16, written by Peter Selinger 2001-2019
</metadata>
<g transform="translate(0.000000,1280.000000) scale(0.100000,-0.100000)"
fill="#000000" stroke="none">
<path d="M3505 9674 c-27 -27 -55 -92 -75 -172 -25 -97 -76 -262 -102 -327
-11 -27 -29 -77 -40 -110 -11 -33 -29 -77 -39 -97 -10 -20 -19 -43 -19 -50 0
-7 -10 -37 -22 -65 l-23 -53 -60 -1 c-130 -3 -171 -6 -197 -13 -25 -7 -27 -5
-42 48 -9 30 -21 58 -26 61 -6 3 -10 20 -10 36 0 16 -11 57 -25 91 -14 34 -25
69 -25 77 0 9 -11 36 -25 60 -14 23 -25 54 -25 67 0 20 -18 68 -50 134 -4 9
-11 31 -15 49 -9 40 -53 138 -66 146 -5 4 -9 14 -9 24 0 27 -46 71 -74 71 -28
0 -73 -48 -82 -88 -3 -15 -16 -59 -29 -97 -13 -39 -28 -99 -35 -135 -6 -36
-19 -96 -29 -135 -11 -38 -24 -104 -31 -145 -6 -41 -18 -106 -26 -145 -25
-116 -44 -254 -51 -360 l-6 -100 -51 -45 c-90 -81 -176 -173 -233 -251 -51
-69 -122 -200 -137 -254 l-12 -40 -50 2 c-157 6 -176 5 -191 -10 -30 -30 -9
-47 59 -48 35 0 83 -4 108 -7 l45 -7 0 -68 c0 -38 -5 -72 -11 -77 -9 -8 -139
-45 -226 -64 -19 -4 -28 -13 -28 -26 0 -34 83 -25 256 25 18 6 24 -1 42 -50
24 -61 67 -129 104 -163 58 -52 139 -112 153 -112 8 0 15 -4 15 -8 0 -8 114
-92 125 -92 3 0 30 -15 59 -34 29 -19 95 -53 147 -77 52 -23 97 -46 102 -49
10 -9 21 -186 20 -350 0 -133 -10 -216 -33 -295 -7 -22 -13 -52 -13 -67 0 -15
-6 -29 -13 -32 -8 -3 -14 -12 -14 -19 0 -8 -10 -27 -21 -41 -29 -37 -139 -254
-139 -275 -1 -9 -16 -41 -35 -71 -39 -63 -85 -157 -85 -174 0 -6 -14 -31 -30
-56 -16 -25 -30 -52 -30 -60 0 -9 -7 -25 -15 -37 -17 -24 -116 -334 -120 -373
-1 -14 -10 -43 -20 -65 -9 -22 -21 -67 -25 -100 -5 -33 -15 -100 -24 -150 -17
-95 -22 -286 -11 -395 6 -60 25 -137 45 -185 4 -11 11 -28 14 -37 3 -10 12
-18 20 -18 10 0 14 -11 13 -34 -1 -41 17 -66 49 -66 26 0 30 -10 13 -27 -36
-36 337 -313 420 -313 11 0 24 -7 28 -15 9 -15 93 -49 101 -40 2 2 13 0 24 -6
27 -15 193 -30 348 -32 227 -2 820 12 915 22 50 5 140 15 200 21 116 13 217 3
276 -26 28 -14 87 -24 179 -29 30 -2 75 -8 99 -15 31 -8 53 -8 74 0 17 5 53
10 81 11 28 0 94 7 146 15 130 19 151 23 185 34 17 5 53 12 80 16 28 3 84 16
125 26 41 11 100 24 130 29 78 12 273 13 312 0 18 -5 60 -18 93 -28 40 -13 63
-26 71 -41 6 -12 19 -31 28 -41 10 -11 18 -35 17 -53 -2 -137 -131 -219 -464
-293 -47 -11 -81 -24 -87 -34 -7 -13 -13 -14 -27 -5 -43 26 -180 -82 -201
-160 -13 -46 -5 -131 14 -161 9 -13 41 -43 72 -67 l57 -43 125 2 c127 1 180 8
282 36 250 69 458 176 578 296 86 88 131 158 172 274 28 76 29 90 25 193 -3
82 -9 118 -21 135 -9 13 -16 29 -16 35 0 33 -80 147 -140 199 -73 63 -114 86
-245 138 -115 45 -160 52 -321 51 -178 0 -406 -42 -654 -119 -112 -34 -133
-31 -101 14 10 15 22 37 26 51 4 14 13 32 20 40 21 26 55 117 55 147 0 16 4
33 8 38 25 29 35 104 35 258 -1 159 -3 182 -22 282 -20 102 -30 143 -44 176
-19 45 -37 102 -37 118 0 7 -22 58 -50 113 -27 55 -50 104 -50 110 0 6 -16 45
-36 87 -105 220 -138 283 -161 301 -14 10 -22 24 -18 29 7 12 -42 113 -61 124
-8 4 -14 16 -14 26 0 10 -13 38 -30 62 -16 24 -30 48 -30 53 0 13 -71 159 -85
176 -15 18 -81 141 -142 265 -24 50 -48 98 -53 108 -36 65 -141 297 -161 355
-10 29 -27 70 -38 90 -11 20 -34 73 -51 117 -18 44 -36 85 -40 90 -27 36 -9
274 28 367 7 16 8 30 2 33 -6 3 -6 15 0 29 5 13 6 27 3 30 -3 3 -1 11 5 19 21
25 -7 497 -38 642 -6 28 -15 70 -20 95 -19 95 -28 131 -50 185 -4 11 -18 55
-31 98 -12 43 -27 80 -31 83 -4 3 -8 12 -8 20 0 12 -58 155 -100 249 -5 11
-25 58 -44 105 -19 47 -55 135 -81 195 -25 61 -54 127 -62 148 -31 72 -100
108 -138 71z m-1110 -1315 c19 -17 48 -58 64 -91 26 -55 28 -67 25 -151 -3
-74 -9 -102 -32 -151 -50 -106 -109 -157 -199 -172 -37 -6 -42 -4 -80 40 -46
52 -56 87 -54 191 2 100 9 142 32 194 35 79 68 119 123 145 66 33 78 32 121
-5z m749 -20 c55 -39 75 -83 80 -179 9 -151 -88 -333 -200 -376 -67 -26 -147
-15 -190 27 -127 124 -50 449 127 537 66 33 128 29 183 -9z m507 -566 c6 -6 9
-19 6 -27 -5 -13 -28 -16 -127 -18 -66 -1 -132 -2 -147 -2 -39 -1 -42 28 -6
42 49 19 66 21 165 19 57 -2 102 -7 109 -14z m-224 -199 c69 -23 230 -104 249
-125 33 -37 -20 -54 -66 -22 -27 19 -94 49 -205 92 -54 21 -71 32 -73 49 -4
28 25 29 95 6z"/>
<path d="M2228 8281 c-34 -30 -42 -43 -67 -122 -14 -45 -14 -182 0 -232 22
-81 84 -100 155 -48 81 59 104 111 104 235 -1 132 -30 177 -126 193 -25 4 -38
-1 -66 -26z"/>
<path d="M2965 8297 c-59 -35 -76 -52 -105 -104 -18 -31 -34 -70 -36 -87 -16
-129 -16 -131 6 -188 25 -68 49 -88 107 -88 57 0 111 48 155 138 27 54 34 81
37 144 3 69 0 83 -23 121 -40 70 -92 93 -141 64z"/>
</g>
</svg>
