<?xml version="1.0" standalone="no"?>
<!DOCTYPE svg PUBLIC "-//W3C//DTD SVG 20010904//EN"
 "http://www.w3.org/TR/2001/REC-SVG-20010904/DTD/svg10.dtd">
<svg version="1.0" xmlns="http://www.w3.org/2000/svg"
 width="704.000000pt" height="1280.000000pt" viewBox="0 0 704.000000 1280.000000"
 preserveAspectRatio="xMidYMid meet">
<metadata>
Created by potrace 1.16, written by Peter Selinger 2001-2019
</metadata>
<g transform="translate(0.000000,1280.000000) scale(0.100000,-0.100000)"
fill="#000000" stroke="none">
<path d="M3514 9696 c-11 -8 -28 -34 -38 -58 -10 -24 -22 -52 -27 -63 -4 -11
-13 -40 -19 -65 -18 -72 -111 -364 -120 -375 -4 -5 -13 -30 -20 -54 -6 -24
-22 -68 -36 -97 -13 -29 -24 -60 -24 -69 0 -8 -12 -38 -27 -66 l-26 -51 -48 4
c-27 3 -57 0 -70 -8 -19 -10 -25 -9 -35 3 -10 14 -16 14 -59 -1 -27 -9 -52
-16 -56 -16 -4 0 -16 27 -25 60 -9 33 -21 63 -25 66 -5 3 -9 19 -9 35 0 16 -7
46 -16 67 -9 20 -22 57 -30 82 -7 25 -23 63 -34 85 -11 21 -20 46 -20 55 0 19
-39 122 -51 134 -5 6 -9 21 -9 34 0 27 -45 137 -67 163 -7 8 -13 23 -13 32 0
25 -51 67 -82 67 -30 0 -58 -33 -76 -90 -45 -141 -75 -269 -123 -515 -11 -60
-27 -141 -34 -180 -8 -38 -18 -95 -24 -125 -17 -89 -33 -249 -26 -269 4 -14
-6 -31 -39 -63 -24 -24 -81 -79 -126 -123 -44 -44 -105 -114 -135 -155 -55
-78 -121 -208 -132 -260 -6 -33 -23 -36 -114 -21 -25 4 -68 5 -95 2 -44 -5
-49 -8 -49 -31 0 -25 1 -25 109 -32 60 -3 112 -10 117 -15 4 -4 4 -29 -1 -55
-5 -27 -7 -54 -4 -62 9 -24 -36 -45 -155 -73 -90 -22 -111 -30 -111 -45 0 -28
94 -24 196 8 47 15 86 25 87 23 1 -2 11 -29 21 -59 25 -73 80 -151 130 -183
23 -14 54 -39 70 -56 17 -17 33 -31 37 -31 10 0 79 -45 99 -64 8 -8 47 -31 85
-51 39 -21 81 -45 95 -54 14 -9 63 -34 110 -56 47 -21 87 -40 89 -41 3 -3 7
-102 14 -356 2 -48 6 -90 9 -93 4 -4 0 -22 -8 -40 -8 -19 -14 -44 -14 -56 0
-23 -11 -64 -38 -134 -35 -95 -31 -88 -106 -221 -25 -45 -46 -86 -46 -93 0 -6
-7 -22 -15 -35 -9 -13 -14 -28 -13 -33 2 -5 -15 -38 -37 -74 -44 -71 -84 -155
-85 -180 0 -9 -13 -33 -30 -54 -17 -21 -30 -50 -30 -65 0 -15 -8 -35 -19 -44
-10 -9 -21 -32 -24 -51 -3 -19 -12 -49 -20 -67 -38 -83 -89 -268 -74 -268 5 0
3 -7 -4 -16 -20 -24 -39 -84 -39 -126 0 -20 -5 -49 -10 -63 -33 -88 -47 -360
-25 -510 10 -67 34 -153 46 -160 5 -4 9 -19 9 -36 0 -22 5 -29 19 -29 14 0 18
-5 14 -21 -8 -28 15 -67 41 -71 15 -2 20 -9 18 -24 -4 -29 94 -126 208 -205
103 -71 152 -95 171 -83 7 4 10 3 5 -4 -3 -6 2 -16 13 -22 13 -7 22 -7 26 0 9
15 25 12 25 -5 0 -43 244 -87 475 -86 300 2 769 11 854 18 l94 6 -6 -99 c-12
-224 -87 -333 -363 -527 -59 -40 -173 -89 -253 -107 -29 -7 -75 -21 -103 -31
-27 -10 -56 -15 -64 -12 -8 3 -26 -2 -40 -11 -13 -10 -33 -15 -43 -11 -9 3
-42 0 -72 -6 -91 -18 -330 -12 -442 12 -55 11 -104 18 -111 16 -7 -3 -18 4
-24 14 -7 11 -24 19 -40 19 -15 0 -40 7 -56 15 -16 9 -36 13 -43 11 -7 -3 -13
-2 -13 3 0 5 -22 18 -48 29 -83 36 -247 162 -303 234 -18 23 -39 47 -46 51 -7
4 -27 29 -45 55 -127 185 -316 259 -554 217 -55 -10 -109 -23 -121 -31 -14 -9
-24 -10 -28 -4 -3 6 -21 10 -40 10 -54 0 -141 38 -190 83 -42 39 -47 47 -55
107 -26 183 60 278 290 320 36 6 75 18 87 26 12 8 28 14 36 14 15 0 59 44 76
77 16 31 14 71 -7 125 -16 43 -51 88 -68 88 -3 0 -19 10 -36 21 -28 21 -38 22
-157 16 -118 -5 -131 -8 -206 -42 -88 -40 -85 -39 -143 -77 -104 -70 -229
-232 -257 -334 -9 -33 -19 -104 -22 -160 -5 -87 -3 -111 17 -178 13 -43 29
-80 37 -83 7 -3 13 -16 13 -28 0 -13 5 -27 10 -30 6 -3 10 -14 10 -23 0 -9 21
-37 46 -62 25 -25 50 -53 55 -62 5 -10 16 -18 23 -18 7 0 23 -12 37 -26 45
-49 189 -100 306 -109 68 -6 106 -2 223 21 134 27 142 27 169 11 16 -9 43 -17
60 -17 20 0 31 -5 31 -14 0 -8 15 -19 32 -25 29 -10 150 -123 159 -149 9 -24
188 -215 224 -240 22 -15 42 -30 45 -33 13 -16 120 -69 143 -71 15 -1 27 -6
27 -10 0 -10 115 -68 135 -68 9 0 58 -13 108 -29 95 -30 283 -57 442 -64 132
-5 522 33 550 53 6 4 26 11 45 14 123 24 428 153 539 228 25 18 84 66 130 107
237 214 339 438 345 756 1 59 1 60 36 72 19 7 47 12 62 12 59 2 247 59 309 95
84 49 162 112 196 159 16 21 45 58 66 83 20 25 37 50 37 56 0 6 16 44 35 84
20 40 39 95 45 121 5 26 16 65 24 85 11 26 16 70 16 148 0 98 -2 110 -17 110
-17 1 -17 1 0 11 12 7 17 22 17 52 -1 59 -25 200 -48 277 -11 36 -29 97 -41
135 -26 87 -48 141 -76 180 -30 44 -49 84 -42 91 3 3 -12 40 -33 82 -21 43
-61 125 -90 185 -29 59 -63 116 -76 126 -15 12 -22 25 -18 35 6 17 -40 106
-63 119 -7 4 -13 18 -13 30 0 13 -13 38 -30 57 -16 19 -29 43 -30 52 0 28 -49
127 -96 199 -24 37 -75 131 -114 210 -38 79 -76 155 -84 169 -25 43 -128 273
-148 330 -10 30 -30 72 -43 92 -14 21 -25 44 -25 52 0 8 -16 50 -36 93 -30 65
-36 93 -41 170 -4 63 -2 97 6 107 6 7 13 34 15 58 2 25 9 54 15 66 6 12 11 34
10 49 -1 15 2 36 6 46 4 11 3 17 -5 17 -10 0 -9 4 1 16 9 11 13 48 12 122 -1
233 -22 431 -67 637 -22 98 -115 378 -156 470 -10 22 -41 98 -70 169 -54 137
-117 287 -155 371 -12 28 -25 59 -29 71 -8 25 -64 80 -91 88 -11 3 -30 0 -41
-8z m-1136 -1343 c22 -16 45 -50 63 -89 73 -162 3 -402 -135 -465 -75 -34
-129 -17 -171 55 -23 39 -25 54 -26 147 0 194 57 313 174 361 55 22 55 22 95
-9z m769 -32 c58 -54 70 -83 72 -174 2 -167 -82 -318 -209 -375 -50 -22 -60
-23 -106 -13 -59 14 -109 58 -124 112 -24 83 -6 249 37 332 45 89 148 157 238
157 44 0 55 -5 92 -39z m514 -548 c6 -6 9 -19 6 -27 -5 -13 -25 -16 -110 -16
-57 0 -125 -3 -150 -6 -38 -6 -48 -4 -53 10 -15 40 44 56 193 53 62 -2 107 -7
114 -14z m-166 -229 c109 -46 198 -100 192 -117 -6 -20 -45 -20 -84 1 -59 30
-194 89 -235 102 -31 9 -38 16 -38 37 0 24 3 25 38 21 20 -3 78 -23 127 -44z"/>
<path d="M2210 8262 c-50 -49 -73 -127 -73 -242 0 -62 5 -95 18 -120 38 -76
65 -86 135 -50 32 16 40 26 40 48 0 19 3 23 9 13 7 -10 16 -3 37 30 27 40 29
49 29 143 -1 84 -5 109 -23 148 -21 42 -52 71 -52 48 0 -15 -26 -12 -40 5 -20
24 -39 18 -80 -23z"/>
<path d="M2928 8271 c-96 -61 -150 -230 -112 -354 49 -161 194 -132 280 57 50
110 42 203 -23 284 -43 52 -78 55 -145 13z"/>
</g>
</svg>
