<?xml version="1.0" standalone="no"?>
<!DOCTYPE svg PUBLIC "-//W3C//DTD SVG 20010904//EN"
 "http://www.w3.org/TR/2001/REC-SVG-20010904/DTD/svg10.dtd">
<svg version="1.0" xmlns="http://www.w3.org/2000/svg"
 width="704.000000pt" height="1280.000000pt" viewBox="0 0 704.000000 1280.000000"
 preserveAspectRatio="xMidYMid meet">
<metadata>
Created by potrace 1.16, written by Peter Selinger 2001-2019
</metadata>
<g transform="translate(0.000000,1280.000000) scale(0.100000,-0.100000)"
fill="#000000" stroke="none">
<path d="M3493 9663 c-29 -38 -63 -115 -63 -143 0 -24 -91 -320 -115 -375 -12
-27 -25 -62 -29 -78 -3 -15 -18 -52 -31 -82 -14 -29 -25 -61 -25 -70 0 -8 -11
-38 -25 -65 -25 -50 -26 -50 -75 -50 -27 0 -61 -5 -75 -12 -18 -8 -29 -9 -33
-1 -12 18 -36 21 -71 7 -18 -8 -37 -14 -41 -14 -5 0 -16 24 -25 53 -9 28 -20
60 -26 69 -5 10 -9 26 -9 35 0 24 -66 211 -85 239 -8 13 -15 33 -15 45 0 12
-16 62 -35 110 -19 49 -35 93 -35 99 0 25 -93 197 -116 213 -38 28 -70 15 -94
-36 -26 -56 -63 -182 -84 -287 -10 -47 -24 -110 -31 -140 -29 -113 -46 -212
-40 -231 4 -12 2 -19 -6 -19 -7 0 -10 -3 -7 -6 4 -3 2 -20 -3 -37 -22 -71 -59
-367 -52 -412 4 -27 -2 -36 -60 -83 -165 -137 -325 -354 -368 -500 l-12 -43
-111 7 c-90 5 -115 3 -131 -9 -16 -13 -17 -17 -6 -31 10 -11 31 -16 75 -17 33
0 81 -4 106 -7 l45 -7 0 -69 0 -69 -40 -18 c-22 -9 -84 -27 -137 -40 -79 -18
-98 -26 -98 -41 0 -10 6 -18 13 -19 47 -3 113 6 185 27 47 14 86 23 87 22 1
-2 10 -25 20 -53 26 -73 80 -151 128 -184 23 -16 55 -43 71 -60 17 -17 36 -31
44 -31 8 0 27 -10 42 -22 50 -40 83 -62 139 -95 56 -33 260 -138 281 -145 7
-2 13 -43 16 -108 18 -414 18 -350 -1 -430 -9 -36 -19 -76 -22 -90 -3 -14 -12
-34 -19 -45 -8 -11 -14 -27 -14 -36 0 -19 -37 -106 -48 -113 -14 -8 -112 -217
-113 -241 -1 -11 -41 -81 -76 -133 -12 -18 -29 -56 -39 -85 -9 -29 -29 -70
-45 -92 -15 -22 -30 -54 -34 -72 -3 -17 -13 -37 -21 -44 -8 -6 -14 -19 -14
-28 0 -9 -14 -54 -31 -101 -32 -86 -65 -202 -75 -254 -2 -15 -11 -44 -19 -63
-8 -20 -15 -48 -15 -64 0 -15 -6 -56 -14 -91 -21 -89 -27 -155 -27 -298 -1
-159 7 -225 38 -326 l25 -81 -33 -64 c-48 -97 -69 -164 -75 -253 -8 -111 8
-217 45 -292 53 -105 183 -229 306 -291 89 -45 284 -100 445 -126 98 -16 478
-16 550 0 102 22 165 34 220 43 63 11 175 43 240 69 25 10 83 33 130 51 47 19
118 54 158 79 41 25 95 60 122 76 27 17 92 71 145 120 53 50 103 94 112 99 16
9 109 29 183 40 25 4 58 13 74 21 15 8 32 13 36 10 10 -6 101 24 120 40 8 7
25 16 37 19 35 11 188 141 187 159 -1 9 3 15 9 14 6 -1 15 7 21 18 6 12 21 32
34 45 13 14 35 50 48 80 14 30 34 72 44 92 10 21 22 59 26 85 3 26 14 62 22
78 20 38 29 270 10 259 -8 -5 -9 -2 -3 12 15 35 17 89 5 150 -7 32 -12 68 -11
79 0 19 -31 137 -48 180 -5 11 -21 58 -36 105 -15 47 -43 111 -62 142 -20 32
-37 69 -38 83 -2 13 -25 68 -51 122 -26 54 -61 127 -78 162 -17 35 -43 77 -58
93 -16 17 -28 39 -28 49 0 22 -45 114 -60 124 -5 3 -10 13 -10 21 0 9 -13 35
-30 59 -16 24 -30 48 -30 53 0 17 -73 158 -105 202 -17 25 -61 106 -95 180
-35 74 -76 154 -92 178 -15 24 -28 50 -28 58 0 8 -29 73 -65 145 -36 71 -65
138 -65 147 0 9 -15 49 -34 87 -40 80 -66 140 -66 149 0 4 -7 23 -16 44 -25
56 -29 169 -9 270 10 47 22 94 29 104 8 13 8 23 -1 37 -10 16 -9 27 2 55 19
44 22 266 4 266 -8 0 -8 4 -1 13 7 8 7 29 1 61 -5 26 -6 52 -4 57 7 11 -12
165 -32 259 -8 41 -17 86 -20 100 -8 47 -25 115 -43 170 -10 30 -21 69 -25 85
-7 34 -40 120 -90 240 -18 44 -54 132 -80 195 -84 207 -178 425 -193 448 -16
24 -61 52 -86 52 -8 0 -27 -17 -43 -37z m-1117 -1312 c27 -17 84 -112 84 -141
0 -6 3 -10 8 -10 14 0 -4 -185 -23 -239 -23 -63 -95 -148 -142 -167 -78 -33
-134 -9 -174 73 -19 40 -23 63 -22 143 1 169 56 289 153 337 56 27 77 28 116
4z m748 -20 c76 -61 81 -73 81 -201 0 -134 -19 -195 -86 -280 -76 -97 -204
-127 -282 -67 -53 40 -67 81 -67 189 0 134 26 216 95 296 42 48 78 70 138 82
70 13 83 11 121 -19z m536 -560 c20 -34 1 -41 -121 -43 -65 -1 -134 -2 -151
-2 -27 -1 -33 3 -33 19 0 30 70 45 193 42 75 -2 105 -6 112 -16z m-218 -205
c85 -31 221 -101 237 -120 29 -35 -25 -50 -69 -19 -14 10 -45 25 -70 35 -178
66 -204 80 -208 107 -5 29 29 28 110 -3z m-943 -3840 c20 -17 198 -59 271 -63
30 -2 159 -5 285 -7 127 -2 251 -4 278 -5 26 -1 47 -5 47 -9 0 -16 -296 -57
-405 -56 -67 1 -294 27 -325 37 -8 3 -26 8 -39 12 -13 5 -44 18 -69 31 -47 24
-62 23 -62 -2 0 -8 -4 -14 -8 -14 -5 0 -9 20 -9 45 0 47 9 55 36 31z"/>
<path d="M2244 8290 c-76 -30 -134 -226 -104 -350 23 -96 79 -132 149 -96 32
17 59 46 43 46 -7 0 -9 7 -5 17 4 11 8 12 11 5 15 -46 63 50 67 136 7 131 -25
227 -75 227 -13 0 -25 6 -28 13 -4 14 -27 15 -58 2z"/>
<path d="M2936 8272 c-140 -78 -184 -352 -70 -441 71 -56 162 -2 225 134 27
57 33 81 32 135 0 62 -5 81 -39 143 -15 27 -61 57 -86 57 -7 0 -35 -13 -62
-28z"/>
</g>
</svg>
