<?xml version="1.0" standalone="no"?>
<!DOCTYPE svg PUBLIC "-//W3C//DTD SVG 20010904//EN"
 "http://www.w3.org/TR/2001/REC-SVG-20010904/DTD/svg10.dtd">
<svg version="1.0" xmlns="http://www.w3.org/2000/svg"
 width="704.000000pt" height="1280.000000pt" viewBox="0 0 704.000000 1280.000000"
 preserveAspectRatio="xMidYMid meet">
<metadata>
Created by potrace 1.16, written by Peter Selinger 2001-2019
</metadata>
<g transform="translate(0.000000,1280.000000) scale(0.100000,-0.100000)"
fill="#000000" stroke="none">
<path d="M3506 9668 c-34 -39 -66 -100 -71 -136 -8 -55 -102 -358 -126 -404
-11 -21 -19 -45 -19 -55 0 -10 -13 -45 -30 -78 -16 -33 -30 -68 -30 -78 0 -10
-11 -40 -25 -67 -25 -49 -26 -50 -73 -50 -26 0 -59 -7 -74 -14 -25 -13 -28
-13 -28 1 0 13 -8 15 -42 9 -24 -3 -52 -8 -64 -12 -18 -5 -24 3 -43 58 -12 35
-26 82 -31 105 -5 24 -16 55 -23 70 -8 16 -18 44 -22 63 -4 19 -18 55 -30 80
-13 25 -28 67 -34 93 -6 27 -20 67 -31 90 -11 22 -20 47 -20 54 0 22 -62 163
-71 163 -5 0 -9 8 -9 19 0 23 -47 71 -71 71 -59 0 -71 -24 -133 -270 -34 -134
-72 -309 -90 -415 -9 -49 -25 -137 -36 -195 -11 -58 -23 -155 -26 -217 l-7
-112 -66 -57 c-70 -60 -220 -223 -221 -238 0 -6 -8 -19 -19 -30 -10 -12 -33
-48 -51 -81 -18 -33 -36 -64 -40 -70 -5 -5 -15 -32 -23 -60 l-14 -50 -115 4
c-95 3 -116 1 -127 -13 -26 -32 -6 -46 66 -47 37 0 86 -3 108 -7 l40 -7 1 -68
c1 -39 -3 -70 -10 -76 -16 -12 -98 -37 -189 -56 -62 -14 -77 -21 -75 -34 5
-25 90 -25 173 0 111 33 113 33 136 -30 10 -30 31 -72 46 -94 32 -45 177 -171
211 -181 12 -4 22 -11 22 -16 0 -5 11 -15 24 -22 13 -7 73 -42 133 -79 105
-63 238 -129 261 -129 12 0 14 -7 17 -100 1 -30 6 -125 10 -210 8 -185 9 -165
-5 -220 -7 -25 -16 -63 -22 -85 -5 -22 -16 -55 -24 -73 -8 -18 -14 -41 -14
-52 0 -11 -18 -49 -40 -85 -22 -36 -40 -68 -40 -71 0 -2 -8 -16 -17 -31 -25
-37 -65 -135 -65 -155 1 -10 -3 -18 -8 -18 -5 0 -12 -10 -15 -22 -4 -13 -17
-36 -29 -53 -22 -30 -76 -144 -76 -161 0 -5 -14 -29 -30 -53 -17 -24 -30 -53
-30 -64 0 -11 -6 -28 -14 -36 -14 -17 -120 -331 -136 -403 -5 -24 -13 -61 -19
-83 -47 -190 -70 -504 -43 -600 6 -22 11 -49 10 -60 -1 -23 20 -105 32 -120 4
-5 10 -23 14 -38 4 -17 12 -27 19 -24 9 3 13 -6 13 -28 0 -44 21 -68 54 -63
26 4 26 3 13 -21 -13 -25 -11 -28 54 -89 37 -35 87 -78 112 -95 25 -17 59 -41
74 -53 45 -37 155 -86 177 -79 14 4 20 2 20 -8 0 -18 61 -48 104 -51 18 -2 38
-6 45 -10 20 -13 201 -28 336 -29 72 0 266 1 432 3 167 2 306 0 310 -3 3 -4 1
-31 -6 -60 -12 -56 -16 -206 -6 -272 27 -180 138 -387 290 -540 82 -82 130
-116 240 -169 44 -21 93 -44 108 -52 85 -42 246 -84 412 -109 106 -15 425 -14
470 3 81 29 195 62 216 62 14 0 42 10 64 22 22 11 63 33 91 47 73 37 188 148
224 216 23 44 30 70 30 114 0 76 -37 153 -85 175 -19 9 -37 21 -40 26 -11 18
-71 27 -128 20 -48 -7 -67 -16 -129 -67 -40 -32 -87 -68 -103 -81 -42 -32
-146 -82 -170 -82 -12 0 -26 -5 -33 -12 -6 -6 -22 -13 -34 -15 -12 -2 -26 -7
-31 -12 -5 -5 -21 -4 -37 2 -21 8 -36 8 -52 0 -64 -30 -78 -33 -78 -18 0 10
-22 15 -92 18 -51 3 -120 11 -153 19 -65 16 -220 90 -288 137 -42 29 -119 119
-150 176 -48 88 -55 244 -17 380 28 105 44 123 117 136 140 24 245 52 250 65
4 11 14 13 34 9 58 -13 240 103 321 204 20 25 50 61 65 79 15 18 33 45 39 60
5 15 23 54 38 87 15 33 30 76 33 95 3 19 13 56 24 82 15 36 20 78 23 185 5
181 -18 350 -64 478 -10 28 -24 73 -31 100 -16 62 -43 125 -80 186 -16 25 -29
54 -29 64 0 10 -20 59 -44 109 -25 50 -63 131 -86 179 -24 51 -52 94 -67 104
-16 11 -23 23 -19 36 5 20 -36 104 -60 123 -8 6 -14 20 -14 30 0 10 -14 37
-30 58 -17 22 -30 46 -30 53 0 18 -66 148 -101 200 -27 38 -139 267 -139 282
0 3 -16 30 -35 60 -19 29 -35 58 -35 64 0 6 -29 70 -64 143 -36 72 -68 144
-72 160 -3 16 -17 48 -30 70 -13 23 -31 63 -39 88 -9 26 -26 68 -37 94 -25 55
-29 77 -31 170 -1 63 21 195 38 222 18 29 31 336 14 356 -8 10 -9 18 0 27 6 8
9 16 7 18 -3 2 -7 41 -11 87 -5 70 -24 204 -50 352 -10 59 -26 122 -47 190
-41 129 -61 185 -68 195 -4 6 -10 22 -14 37 -3 15 -19 56 -36 90 -16 35 -54
124 -84 198 -112 276 -178 426 -194 444 -14 15 -63 46 -74 46 -2 0 -16 -14
-32 -32z m-1107 -1313 c22 -20 46 -55 56 -82 10 -27 21 -52 25 -58 4 -5 6 -46
5 -90 -5 -163 -96 -305 -212 -330 -41 -8 -83 13 -120 62 -27 35 -28 41 -28
152 0 156 9 198 56 271 32 49 49 66 92 85 68 32 80 31 126 -10z m746 -17 c58
-44 82 -100 80 -193 -1 -38 -4 -77 -7 -85 -3 -8 -16 -44 -29 -79 -26 -73 -91
-155 -148 -186 -25 -14 -56 -19 -103 -20 -64 0 -69 2 -104 36 -55 55 -72 149
-49 273 32 170 141 286 268 286 38 0 57 -6 92 -32z m510 -569 c28 -28 -3 -36
-153 -41 -119 -4 -145 -3 -149 9 -14 36 48 52 189 50 74 -2 101 -6 113 -18z
m-229 -193 c69 -24 232 -107 249 -126 35 -39 -22 -56 -68 -20 -14 11 -30 20
-36 20 -7 0 -31 10 -54 22 -23 12 -73 33 -112 48 -55 20 -71 30 -73 48 -3 18
1 22 26 22 16 0 47 -6 68 -14z"/>
<path d="M2242 8300 c-66 -40 -103 -172 -88 -313 10 -88 38 -131 89 -135 46
-4 99 29 91 56 -5 13 -4 14 4 3 12 -17 54 37 72 94 35 109 -16 314 -74 292 -8
-3 -20 1 -26 9 -16 19 -29 18 -68 -6z"/>
<path d="M2943 8282 c-67 -44 -97 -91 -119 -181 -18 -74 -17 -107 2 -170 37
-126 142 -137 228 -25 98 129 105 303 14 379 -38 32 -73 32 -125 -3z"/>
</g>
</svg>
