<?xml version="1.0" standalone="no"?>
<!DOCTYPE svg PUBLIC "-//W3C//DTD SVG 20010904//EN"
 "http://www.w3.org/TR/2001/REC-SVG-20010904/DTD/svg10.dtd">
<svg version="1.0" xmlns="http://www.w3.org/2000/svg"
 width="704.000000pt" height="1280.000000pt" viewBox="0 0 704.000000 1280.000000"
 preserveAspectRatio="xMidYMid meet">
<metadata>
Created by potrace 1.16, written by Peter Selinger 2001-2019
</metadata>
<g transform="translate(0.000000,1280.000000) scale(0.100000,-0.100000)"
fill="#000000" stroke="none">
<path d="M3508 9683 c-28 -32 -68 -121 -79 -175 -11 -55 -39 -149 -85 -278
-14 -41 -35 -102 -46 -135 -11 -33 -30 -84 -44 -113 -13 -29 -24 -59 -24 -67
0 -9 -12 -38 -26 -65 -26 -50 -26 -50 -76 -50 -27 0 -59 -5 -70 -11 -16 -8
-22 -8 -29 2 -6 11 -19 11 -65 1 -64 -13 -74 -10 -74 21 0 12 -11 45 -23 72
-13 28 -22 55 -20 61 2 6 -6 32 -17 58 -11 26 -20 56 -20 66 0 10 -13 44 -30
75 -16 31 -30 65 -30 76 0 19 -32 110 -50 141 -6 10 -10 25 -10 33 0 21 -49
136 -66 156 -8 8 -14 23 -14 33 0 24 -48 66 -76 66 -13 0 -31 -9 -42 -20 -22
-24 -72 -172 -100 -295 -53 -233 -64 -284 -72 -345 -4 -36 -15 -92 -23 -125
-18 -69 -46 -285 -48 -365 -2 -51 -5 -58 -43 -94 -130 -122 -203 -198 -240
-251 -51 -74 -116 -193 -141 -259 l-18 -48 -61 8 c-124 17 -198 0 -183 -40 5
-13 23 -16 84 -17 43 -1 92 -4 108 -8 30 -6 30 -7 30 -75 0 -64 -2 -69 -27
-82 -15 -8 -67 -23 -115 -34 -113 -26 -134 -35 -127 -55 9 -23 88 -19 189 10
48 14 90 23 93 20 3 -3 13 -28 23 -56 27 -76 81 -150 135 -186 27 -17 60 -43
73 -57 14 -14 28 -26 32 -26 5 0 28 -14 51 -30 114 -81 179 -119 311 -181 54
-26 100 -49 103 -52 6 -6 14 -144 18 -325 2 -67 5 -125 9 -128 3 -3 -1 -21 -9
-39 -8 -19 -14 -48 -14 -64 0 -16 -4 -33 -10 -36 -5 -3 -10 -18 -10 -33 0 -15
-7 -38 -16 -50 -8 -12 -13 -26 -9 -31 5 -9 -14 -49 -86 -176 -41 -73 -81 -164
-82 -187 -1 -10 -5 -18 -8 -18 -4 0 -11 -10 -15 -22 -4 -13 -19 -41 -33 -63
-31 -46 -61 -110 -61 -128 0 -7 -16 -37 -35 -67 -19 -30 -35 -64 -35 -76 0
-12 -9 -33 -20 -47 -11 -14 -20 -29 -20 -34 0 -5 -23 -78 -50 -162 -28 -85
-50 -161 -48 -170 1 -9 -8 -38 -20 -65 -12 -27 -22 -66 -22 -88 0 -22 -8 -65
-17 -96 -15 -47 -18 -96 -18 -287 0 -226 1 -232 28 -310 16 -44 30 -86 33 -94
3 -10 8 -10 17 -2 11 8 13 4 9 -19 -5 -35 18 -75 48 -85 11 -3 20 -15 20 -26
0 -66 357 -324 421 -304 13 4 19 1 19 -9 0 -8 23 -25 50 -37 28 -13 49 -25 47
-28 -66 -119 -113 -397 -73 -431 8 -6 13 -17 10 -25 -3 -7 -1 -16 5 -20 6 -3
11 -16 11 -28 0 -42 98 -183 181 -261 45 -42 87 -76 94 -76 7 0 35 -18 61 -40
32 -26 57 -40 72 -38 14 2 30 -6 45 -25 23 -28 145 -79 237 -98 25 -6 58 -17
74 -26 17 -9 76 -20 146 -26 139 -13 170 -6 245 51 82 62 120 187 74 246 -11
14 -18 30 -15 35 6 9 -60 82 -72 79 -4 -1 -25 7 -47 19 -22 11 -64 23 -93 27
-58 7 -203 54 -290 92 -123 54 -209 166 -193 249 17 86 66 143 161 184 30 13
66 29 80 36 47 24 214 48 355 51 124 3 259 16 475 45 36 5 103 11 150 13 47 3
132 17 190 31 58 14 127 31 155 36 151 32 364 215 440 379 55 118 65 142 65
166 0 13 7 41 16 62 23 52 34 124 22 140 -7 7 -7 17 -1 25 11 14 11 97 -1 115
-4 7 -2 19 4 28 10 11 9 37 -4 122 -19 117 -44 227 -58 255 -5 10 -16 44 -24
75 -18 72 -47 140 -85 202 -16 26 -29 56 -29 66 0 10 -23 66 -51 124 -29 58
-68 138 -88 179 -20 40 -47 81 -59 92 -13 10 -21 23 -18 28 8 13 -44 121 -61
128 -8 3 -12 11 -9 18 2 8 -11 35 -30 62 -19 26 -34 54 -34 61 0 21 -50 120
-97 194 -24 37 -76 136 -117 221 -41 85 -79 158 -85 161 -6 4 -11 15 -11 24 0
9 -29 76 -65 149 -36 73 -65 139 -65 146 0 8 -15 45 -34 83 -19 38 -37 80 -41
94 -4 14 -19 50 -33 80 -28 60 -31 75 -36 164 -3 59 16 167 39 221 8 20 9 38
3 54 -5 13 -5 28 0 35 12 15 13 23 19 150 2 59 1 116 -2 125 -4 9 -8 54 -10
101 -3 126 -21 266 -44 360 -5 19 -14 60 -20 90 -21 101 -88 307 -102 316 -5
3 -9 14 -9 26 0 11 -15 55 -34 97 -18 42 -53 123 -76 181 -44 108 -108 260
-163 388 -46 109 -111 158 -149 115z m-1104 -1336 c23 -24 49 -65 60 -95 19
-56 30 -189 15 -198 -5 -3 -9 -14 -9 -25 0 -31 -39 -109 -77 -157 -48 -59 -97
-82 -151 -72 -89 16 -123 78 -123 219 0 135 14 189 74 280 29 43 108 91 151
91 11 0 38 -19 60 -43z m741 -9 c65 -49 78 -85 73 -204 -5 -130 -32 -198 -106
-276 -97 -102 -194 -119 -276 -48 -65 58 -81 164 -46 304 31 122 85 197 170
235 70 32 132 28 185 -11z m510 -569 c29 -28 -3 -37 -145 -39 -168 -3 -162 -4
-158 17 5 28 73 43 185 40 78 -1 106 -6 118 -18z m-227 -193 c65 -23 230 -108
248 -127 35 -38 -23 -55 -69 -19 -14 11 -30 20 -36 20 -7 0 -31 10 -54 22 -23
12 -73 33 -112 48 -55 20 -71 30 -73 48 -3 18 1 22 26 22 16 0 48 -6 70 -14z"/>
<path d="M2249 8304 c-61 -39 -99 -138 -99 -264 0 -96 13 -143 50 -173 25 -21
35 -24 65 -17 40 9 65 26 65 45 0 7 8 19 17 26 11 9 14 10 9 2 -5 -9 -2 -11 7
-7 28 10 57 102 57 176 0 128 -37 215 -87 205 -13 -2 -24 2 -27 9 -7 18 -25
17 -57 -2z"/>
<path d="M2985 8309 c-80 -22 -145 -117 -166 -241 -11 -69 -11 -84 5 -134 22
-71 56 -104 105 -104 71 0 140 68 181 179 24 62 28 158 10 207 -24 64 -86 106
-135 93z"/>
</g>
</svg>
