<?xml version="1.0" standalone="no"?>
<!DOCTYPE svg PUBLIC "-//W3C//DTD SVG 20010904//EN"
 "http://www.w3.org/TR/2001/REC-SVG-20010904/DTD/svg10.dtd">
<svg version="1.0" xmlns="http://www.w3.org/2000/svg"
 width="704.000000pt" height="1280.000000pt" viewBox="0 0 704.000000 1280.000000"
 preserveAspectRatio="xMidYMid meet">
<metadata>
Created by potrace 1.16, written by Peter Selinger 2001-2019
</metadata>
<g transform="translate(0.000000,1280.000000) scale(0.100000,-0.100000)"
fill="#000000" stroke="none">
<path d="M3518 9698 c-9 -7 -26 -33 -38 -58 -12 -25 -26 -53 -31 -62 -5 -10
-14 -39 -19 -65 -14 -61 -110 -365 -120 -378 -5 -5 -13 -30 -20 -54 -6 -24
-22 -68 -36 -97 -13 -29 -24 -60 -24 -69 0 -8 -12 -38 -27 -66 l-26 -51 -46 5
c-29 3 -55 0 -71 -8 -20 -11 -26 -11 -35 2 -9 12 -18 12 -58 3 -61 -16 -74
-10 -82 38 -3 22 -13 48 -20 59 -8 10 -15 32 -15 48 0 17 -9 50 -20 74 -11 24
-20 50 -20 58 0 9 -11 41 -23 72 -13 31 -34 88 -47 126 -13 39 -29 79 -37 90
-7 11 -13 29 -13 40 0 12 -18 57 -40 101 -22 43 -40 84 -40 91 0 22 -54 63
-82 63 -36 0 -62 -38 -89 -131 -36 -127 -102 -411 -124 -544 -8 -44 -17 -91
-20 -105 -22 -92 -57 -361 -51 -395 5 -26 1 -36 -31 -66 -21 -20 -51 -45 -66
-57 -35 -26 -147 -150 -199 -221 -49 -65 -126 -214 -134 -259 l-6 -33 -103 7
c-126 8 -158 2 -153 -29 3 -21 10 -22 112 -29 60 -3 112 -10 116 -15 5 -4 4
-30 0 -58 -4 -27 -6 -54 -3 -58 15 -24 -41 -49 -187 -82 -90 -21 -93 -22 -81
-43 13 -23 98 -17 194 15 43 14 82 21 86 17 4 -5 16 -31 26 -59 18 -51 78
-144 101 -157 6 -5 36 -27 64 -50 56 -46 87 -67 135 -94 17 -9 35 -23 40 -30
17 -22 295 -170 353 -188 13 -4 23 -16 24 -29 3 -43 6 -144 9 -277 1 -74 6
-143 11 -152 4 -9 4 -19 -1 -22 -5 -4 -12 -25 -16 -49 -13 -77 -52 -208 -68
-223 -4 -4 -7 -14 -7 -23 0 -9 -14 -36 -31 -61 -27 -40 -65 -114 -106 -210
-31 -72 -58 -126 -74 -145 -19 -24 -59 -118 -59 -138 0 -8 -13 -31 -30 -52
-16 -21 -30 -48 -30 -60 0 -12 -9 -34 -21 -49 -11 -14 -18 -26 -15 -26 5 0
-16 -68 -33 -105 -23 -49 -57 -165 -76 -256 -2 -8 -10 -32 -19 -53 -9 -21 -16
-58 -16 -82 0 -23 -5 -55 -11 -71 -32 -82 -47 -354 -28 -488 12 -79 37 -175
50 -190 5 -5 9 -19 9 -30 0 -29 10 -37 27 -23 12 10 13 7 7 -16 -8 -35 12 -74
40 -78 14 -2 20 -9 18 -21 -11 -68 347 -332 424 -313 17 5 24 2 24 -9 0 -45
216 -85 470 -87 94 -1 637 9 874 15 56 2 60 0 66 -23 8 -32 -23 -179 -51 -244
-12 -28 -41 -76 -64 -106 -61 -79 -213 -216 -258 -233 -12 -4 -28 -14 -37 -21
-15 -13 -191 -76 -213 -76 -6 0 -24 -6 -38 -14 -14 -7 -51 -16 -82 -20 -32 -4
-67 -16 -81 -27 -19 -15 -24 -16 -20 -5 6 16 2 16 -126 -5 -36 -6 -94 -10
-129 -9 -43 1 -67 -3 -72 -11 -6 -10 -13 -11 -31 -1 -13 6 -91 14 -176 16 -84
3 -161 10 -172 16 -10 5 -35 10 -54 10 -19 0 -60 11 -91 25 -31 14 -60 23 -65
20 -6 -3 -10 -2 -10 3 0 9 -63 42 -81 42 -17 0 -180 85 -239 125 -94 63 -173
144 -270 278 -28 38 -211 217 -222 217 -6 0 -19 6 -27 13 -28 24 -143 64 -223
77 -83 14 -155 8 -212 -15 -19 -8 -49 -15 -65 -15 -16 0 -32 -4 -35 -9 -3 -4
-52 -7 -108 -6 -115 3 -147 14 -202 71 -68 70 -62 207 11 283 8 7 11 21 9 30
-4 10 4 22 23 33 23 13 31 26 36 62 11 68 -33 171 -65 151 -5 -3 -10 0 -10 8
0 20 -52 37 -115 37 -83 0 -146 -38 -212 -128 -31 -41 -64 -98 -74 -126 -30
-80 -35 -202 -14 -294 26 -114 24 -109 36 -92 8 11 9 6 5 -18 -13 -74 113
-231 234 -292 36 -18 67 -36 70 -41 18 -26 225 -31 420 -10 102 11 260 -3 260
-24 0 -5 26 -21 57 -35 62 -28 154 -121 223 -225 46 -71 43 -68 151 -170 112
-107 149 -135 244 -185 183 -97 402 -171 590 -201 197 -30 512 -44 625 -27
316 47 391 65 615 148 270 99 521 293 656 510 45 70 88 164 96 204 3 17 10 36
14 42 9 10 13 27 40 164 6 30 9 76 7 101 -6 54 6 65 74 75 24 4 68 13 98 21
30 8 78 20 105 27 56 14 171 75 206 110 13 12 36 31 51 40 14 10 44 43 65 74
21 31 46 63 56 70 9 7 31 43 48 80 17 37 39 85 50 108 10 22 19 54 19 70 0 16
6 41 14 55 7 14 16 37 20 52 10 42 9 218 -3 230 -6 6 -6 18 2 34 16 36 -8 217
-45 333 -32 101 -37 117 -38 125 -1 20 -48 128 -69 160 -31 49 -53 96 -47 103
3 2 -8 30 -24 61 -16 31 -56 112 -89 182 -33 69 -72 135 -85 148 -14 13 -22
29 -20 36 7 18 -41 111 -62 119 -9 3 -14 13 -10 21 3 8 -10 35 -29 60 -19 25
-35 52 -35 60 0 25 -57 144 -85 176 -22 26 -175 327 -175 344 0 4 -11 21 -25
39 -14 18 -25 40 -25 48 0 8 -29 74 -65 146 -36 72 -65 136 -65 144 0 7 -15
45 -34 83 -19 39 -47 102 -62 140 -14 39 -30 75 -34 80 -15 19 -24 182 -11
212 13 31 31 118 36 173 2 19 6 43 10 53 5 11 2 17 -6 17 -11 0 -11 2 1 10 27
17 18 325 -16 565 -9 61 -18 113 -20 116 -2 3 -10 39 -19 80 -21 105 -103 350
-176 529 -54 135 -124 299 -145 345 -13 28 -40 90 -60 140 -42 103 -67 139
-108 154 -35 13 -29 13 -48 -1z m-1130 -1355 c61 -58 85 -129 80 -245 -2 -74
-8 -104 -29 -148 -34 -72 -84 -128 -134 -151 -77 -35 -127 -19 -171 56 -22 38
-25 54 -25 147 0 194 57 312 174 360 58 23 59 23 105 -19z m754 -15 c57 -47
75 -88 77 -179 1 -81 -28 -187 -68 -252 -58 -93 -167 -156 -241 -138 -102 23
-140 83 -140 219 0 137 41 244 121 316 54 49 92 65 157 66 45 0 59 -5 94 -32z
m519 -555 c6 -6 9 -19 6 -27 -5 -13 -28 -16 -127 -18 -66 -1 -135 -2 -152 -2
-27 -1 -33 3 -33 19 0 15 11 23 45 32 56 15 245 12 261 -4z m-161 -230 c159
-72 200 -99 185 -123 -3 -5 -15 -10 -25 -10 -24 0 -70 21 -70 32 0 4 -6 8 -14
8 -7 0 -42 13 -77 29 -35 16 -87 37 -116 46 -50 16 -70 36 -57 57 11 18 85 1
174 -39z"/>
<path d="M2210 8262 c-88 -87 -101 -328 -23 -414 47 -52 163 18 209 127 26 64
12 226 -25 275 -13 18 -27 24 -45 22 -17 -2 -29 3 -32 13 -10 26 -45 17 -84
-23z"/>
<path d="M2929 8271 c-65 -41 -106 -116 -120 -218 -9 -71 -8 -90 6 -135 21
-62 36 -82 76 -99 68 -27 140 25 200 146 56 114 49 219 -21 295 -45 49 -78 52
-141 11z"/>
</g>
</svg>
