<?xml version="1.0" standalone="no"?>
<!DOCTYPE svg PUBLIC "-//W3C//DTD SVG 20010904//EN"
 "http://www.w3.org/TR/2001/REC-SVG-20010904/DTD/svg10.dtd">
<svg version="1.0" xmlns="http://www.w3.org/2000/svg"
 width="704.000000pt" height="1280.000000pt" viewBox="0 0 704.000000 1280.000000"
 preserveAspectRatio="xMidYMid meet">
<metadata>
Created by potrace 1.16, written by Peter Selinger 2001-2019
</metadata>
<g transform="translate(0.000000,1280.000000) scale(0.100000,-0.100000)"
fill="#000000" stroke="none">
<path d="M3503 9673 c-4 -10 -12 -22 -20 -26 -7 -4 -13 -13 -13 -20 0 -7 -6
-24 -14 -38 -7 -14 -16 -43 -20 -64 -4 -21 -26 -93 -48 -159 -22 -67 -46 -141
-53 -166 -7 -25 -28 -83 -46 -130 -17 -47 -42 -112 -54 -145 -49 -134 -45
-129 -110 -125 -17 0 -44 -4 -59 -10 -22 -8 -31 -8 -37 1 -5 8 -19 10 -45 4
-83 -16 -87 -14 -97 35 -5 25 -15 52 -22 60 -7 8 -15 31 -18 50 -6 47 -42 153
-73 215 -13 28 -24 60 -24 71 0 20 -11 51 -45 129 -7 17 -16 42 -19 56 -5 24
-45 116 -65 149 -5 8 -14 27 -21 42 -14 31 -59 53 -88 44 -19 -6 -62 -81 -62
-108 0 -6 -9 -37 -19 -67 -11 -31 -29 -99 -41 -151 -12 -52 -30 -131 -41 -175
-10 -44 -23 -111 -28 -150 -6 -38 -19 -113 -30 -165 -24 -112 -41 -251 -41
-335 0 -57 -2 -61 -34 -83 -67 -46 -296 -298 -296 -327 0 -2 -17 -32 -37 -67
-21 -35 -45 -85 -54 -113 l-16 -50 -44 2 c-151 6 -182 4 -197 -10 -8 -9 -12
-23 -9 -31 5 -13 23 -16 84 -17 43 -1 92 -4 108 -8 30 -6 30 -7 30 -76 -1 -65
-3 -71 -27 -83 -22 -10 -116 -35 -215 -57 -15 -4 -23 -13 -23 -25 0 -17 7 -20
48 -20 26 0 88 12 136 26 49 14 92 22 96 17 3 -4 13 -28 20 -53 14 -46 84
-160 98 -160 5 0 38 -25 75 -55 36 -30 69 -55 72 -55 6 0 57 -35 87 -60 30
-25 178 -107 281 -156 75 -37 97 -52 98 -68 4 -60 8 -175 12 -294 3 -73 7
-136 10 -139 4 -3 3 -13 -2 -22 -5 -9 -11 -34 -15 -56 -14 -80 -80 -262 -119
-325 -40 -65 -107 -203 -107 -220 0 -5 -14 -33 -32 -62 -41 -69 -88 -165 -88
-181 0 -6 -14 -32 -30 -56 -17 -24 -30 -54 -30 -66 0 -11 -5 -26 -12 -33 -14
-14 -43 -96 -94 -267 -20 -66 -43 -142 -52 -170 -8 -27 -19 -75 -23 -105 -4
-30 -14 -93 -23 -140 -17 -87 -23 -311 -11 -412 7 -52 28 -133 45 -173 5 -11
10 -29 12 -40 2 -13 10 -19 21 -17 14 2 16 -2 11 -23 -8 -31 19 -75 46 -75 25
0 36 -20 19 -31 -31 -21 244 -240 367 -293 25 -11 51 -15 63 -11 14 4 21 2 19
-6 -4 -16 52 -49 91 -54 17 -2 35 -7 41 -10 6 -4 55 -12 108 -17 312 -33 1442
13 1479 60 11 14 13 14 11 2 -3 -12 15 -16 92 -20 57 -4 107 -12 125 -21 38
-20 84 -33 111 -30 12 1 37 -7 57 -19 50 -30 149 -44 307 -45 177 0 297 13
327 37 7 5 16 7 21 4 27 -17 295 109 363 170 10 9 27 22 38 28 40 24 121 88
121 97 0 10 96 77 165 116 44 24 63 28 161 31 103 4 114 2 160 -21 61 -31 108
-79 129 -134 16 -39 16 -49 2 -117 -24 -116 -61 -170 -204 -295 -34 -30 -74
-77 -88 -104 -23 -42 -27 -58 -23 -113 3 -52 9 -70 34 -101 83 -104 259 -122
383 -38 27 18 60 35 73 38 30 8 163 145 216 225 50 74 91 161 99 208 3 19 10
37 14 40 5 3 9 20 9 38 0 18 3 36 7 40 13 12 14 49 1 57 -9 6 -8 13 6 27 15
18 16 28 6 100 -12 91 -49 209 -78 250 -11 15 -29 45 -40 67 -24 48 -104 129
-144 146 -15 6 -28 15 -28 20 0 13 -120 71 -151 74 -14 1 -31 5 -38 10 -59 36
-287 47 -396 19 -33 -9 -70 -18 -83 -21 -39 -9 -123 -59 -115 -68 5 -4 2 -5
-5 -1 -7 5 -28 2 -45 -5 -31 -12 -106 -57 -117 -70 -3 -3 -27 -21 -55 -39 -27
-19 -63 -47 -80 -63 -45 -43 -133 -109 -190 -141 -27 -16 -66 -42 -86 -58 -21
-16 -49 -28 -65 -28 -16 0 -51 -9 -79 -19 -27 -10 -72 -22 -100 -25 -27 -4
-57 -9 -67 -12 -9 -3 -19 0 -23 6 -7 12 35 89 61 111 9 7 25 32 35 54 10 22
23 47 28 55 24 41 51 114 51 138 0 15 10 47 21 72 15 34 21 70 23 152 2 64 -1
109 -7 111 -6 2 -5 17 2 40 8 22 10 50 5 70 -4 17 -9 43 -10 57 -13 96 -42
219 -58 245 -7 11 -16 34 -19 50 -15 80 -38 138 -95 238 -12 21 -22 45 -22 53
0 9 -21 60 -47 113 -27 53 -54 112 -62 131 -25 62 -92 171 -102 165 -5 -4 -9
7 -9 22 0 16 -10 47 -21 68 -12 22 -32 60 -44 85 -13 25 -32 56 -44 69 -12 13
-21 30 -21 38 0 22 -48 120 -94 193 -23 36 -73 128 -111 205 -38 77 -77 152
-87 167 -10 14 -18 31 -18 37 0 6 -29 71 -65 145 -36 74 -65 140 -65 148 0 8
-15 45 -33 84 -19 38 -44 96 -57 129 -13 33 -28 66 -33 73 -35 45 -18 328 23
376 8 11 9 20 0 36 -8 16 -8 25 0 35 6 7 10 17 9 21 -1 5 0 11 1 14 6 12 9
217 3 230 -3 8 -7 44 -9 80 -4 121 -16 245 -31 320 -8 41 -18 95 -23 120 -19
99 -48 193 -115 380 -16 46 -75 190 -101 245 -7 17 -29 68 -48 115 -130 320
-159 383 -191 408 -34 27 -83 29 -92 5z m-1106 -1317 c22 -19 46 -56 58 -85
11 -28 22 -51 25 -51 9 0 6 -168 -3 -176 -4 -4 -7 -13 -7 -20 0 -31 -55 -130
-95 -169 -31 -31 -54 -46 -82 -50 -21 -3 -44 -9 -52 -13 -21 -12 -88 53 -107
104 -14 36 -16 66 -11 157 7 132 16 169 60 234 33 48 117 103 159 103 10 0 35
-15 55 -34z m744 -16 c19 -16 36 -30 39 -30 3 0 14 -14 25 -32 14 -24 19 -56
21 -124 2 -54 -1 -96 -6 -99 -6 -3 -10 -13 -10 -21 0 -31 -56 -131 -99 -178
-120 -128 -277 -112 -324 34 -20 61 -20 109 0 208 31 159 142 272 268 272 44
0 58 -5 86 -30z m493 -560 c25 -9 35 -33 19 -43 -5 -3 -73 -7 -153 -8 -139 -4
-145 -3 -145 16 0 15 11 23 45 32 56 14 200 16 234 3z m-192 -211 c34 -11 84
-32 111 -47 27 -15 64 -35 81 -44 39 -20 60 -44 51 -58 -10 -16 -48 -11 -75
10 -14 11 -31 20 -38 20 -7 0 -32 10 -55 22 -23 12 -73 33 -112 48 -55 20 -71
30 -73 48 -4 29 27 29 110 1z"/>
<path d="M2230 8284 c-57 -52 -85 -144 -78 -263 7 -119 37 -171 98 -171 37 0
96 37 121 77 42 65 49 91 49 178 0 120 -40 206 -88 191 -13 -4 -22 -1 -26 9
-9 24 -33 18 -76 -21z"/>
<path d="M2949 8287 c-20 -12 -44 -28 -53 -36 -29 -24 -64 -104 -77 -174 -15
-78 -2 -155 35 -209 21 -31 26 -33 79 -33 51 0 60 4 92 35 20 19 52 67 71 106
30 61 35 81 35 140 0 86 -9 112 -56 158 -42 42 -72 45 -126 13z"/>
</g>
</svg>
