<?xml version="1.0" standalone="no"?>
<!DOCTYPE svg PUBLIC "-//W3C//DTD SVG 20010904//EN"
 "http://www.w3.org/TR/2001/REC-SVG-20010904/DTD/svg10.dtd">
<svg version="1.0" xmlns="http://www.w3.org/2000/svg"
 width="704.000000pt" height="1280.000000pt" viewBox="0 0 704.000000 1280.000000"
 preserveAspectRatio="xMidYMid meet">
<metadata>
Created by potrace 1.16, written by Peter Selinger 2001-2019
</metadata>
<g transform="translate(0.000000,1280.000000) scale(0.100000,-0.100000)"
fill="#000000" stroke="none">
<path d="M3503 9678 c-27 -30 -68 -122 -77 -173 -8 -43 -92 -321 -103 -338 -3
-5 -20 -51 -38 -101 -53 -150 -57 -159 -82 -215 l-24 -53 -42 4 c-23 3 -57 -2
-75 -9 -28 -12 -35 -12 -48 2 -19 18 -17 18 -61 0 -19 -8 -39 -15 -43 -15 -9
0 -47 104 -60 167 -5 24 -16 55 -23 70 -8 16 -18 44 -22 63 -4 19 -18 55 -31
79 -13 24 -24 52 -24 62 0 16 -26 92 -50 144 -5 11 -12 31 -15 45 -11 38 -58
145 -67 148 -4 2 -8 12 -8 23 0 25 -52 79 -76 79 -62 -1 -83 -59 -184 -500
-37 -163 -42 -189 -36 -198 3 -5 -2 -31 -10 -58 -21 -67 -47 -240 -58 -388 -6
-79 -7 -80 -49 -114 -56 -47 -237 -233 -237 -245 0 -5 -12 -23 -26 -40 -31
-37 -97 -166 -115 -225 l-12 -43 -112 7 c-98 6 -113 5 -128 -11 -29 -28 -5
-45 67 -46 33 0 81 -4 106 -7 l45 -7 0 -60 c0 -33 -2 -65 -3 -72 -5 -16 -87
-46 -189 -69 -66 -15 -83 -22 -83 -36 0 -10 6 -18 13 -19 52 -4 123 6 187 27
41 13 78 20 82 16 3 -4 16 -31 28 -61 30 -77 72 -134 138 -185 32 -24 64 -51
71 -60 7 -9 20 -16 28 -16 9 0 36 -17 62 -38 65 -53 220 -144 321 -188 47 -20
87 -38 89 -40 4 -3 11 -179 14 -341 1 -56 5 -105 9 -108 4 -4 3 -15 -1 -24 -5
-9 -14 -39 -19 -66 -6 -28 -19 -75 -31 -105 -26 -68 -27 -84 -3 -76 13 4 11 1
-5 -13 -12 -10 -31 -34 -42 -52 -53 -90 -94 -170 -117 -229 -28 -72 -57 -128
-90 -178 -13 -18 -30 -56 -40 -85 -9 -29 -30 -70 -45 -91 -16 -22 -29 -50 -29
-62 0 -12 -8 -32 -18 -45 -11 -13 -24 -42 -30 -64 -6 -22 -22 -71 -36 -110
-28 -78 -56 -176 -62 -218 -2 -15 -9 -38 -15 -50 -7 -12 -15 -48 -19 -82 -4
-33 -15 -98 -24 -145 -35 -182 -12 -566 35 -596 5 -3 9 -16 9 -30 0 -18 5 -24
21 -24 11 0 18 -4 15 -9 -10 -15 5 -69 25 -90 18 -20 19 -23 3 -58 -24 -56
-30 -221 -10 -305 23 -98 72 -202 91 -194 9 3 13 2 10 -4 -22 -36 163 -203
304 -274 60 -30 225 -96 241 -96 6 0 42 -9 78 -19 159 -45 482 -58 659 -26
311 57 573 169 724 310 42 38 90 83 108 99 18 16 58 68 90 115 l57 86 56 7
c98 12 261 59 318 90 92 51 176 120 219 178 22 31 52 66 66 80 14 13 25 28 25
34 0 6 18 48 40 94 22 45 43 102 46 125 4 23 14 56 23 72 17 33 25 245 9 256
-5 3 -4 18 2 35 13 33 4 151 -12 171 -6 7 -8 19 -5 27 3 8 -6 54 -19 102 -14
49 -28 101 -31 117 -3 15 -9 30 -14 33 -5 3 -9 15 -9 27 -1 26 -34 104 -73
169 -16 26 -30 60 -32 77 -2 16 -15 48 -30 70 -14 23 -34 65 -46 94 -29 75
-48 114 -96 188 -24 37 -43 72 -43 78 0 17 -37 86 -57 106 -9 10 -17 26 -18
36 -1 10 -14 36 -28 58 -15 22 -27 44 -27 49 0 17 -71 155 -109 211 -20 31
-68 121 -106 201 -37 80 -76 154 -86 166 -11 11 -19 28 -19 37 0 10 -29 76
-65 147 -36 71 -65 138 -65 147 0 10 -16 50 -35 88 -19 39 -46 102 -61 140
-14 39 -29 74 -32 79 -3 5 -7 43 -10 85 -4 72 5 136 31 226 12 43 13 51 23
248 5 96 3 131 -7 143 -8 10 -9 18 -2 25 6 6 7 29 2 57 -4 26 -5 51 -2 55 13
22 -52 384 -93 517 -43 139 -55 173 -68 205 -7 17 -18 44 -23 60 -39 110 -280
680 -301 713 -16 24 -61 52 -85 52 -7 0 -23 -10 -34 -22z m-1125 -1328 c53
-32 108 -179 91 -242 -4 -17 -3 -28 2 -28 6 0 7 -5 4 -11 -4 -5 -9 -25 -12
-42 -14 -95 -108 -223 -177 -244 -148 -46 -227 161 -156 409 16 55 85 136 133
158 55 24 75 24 115 0z m754 -24 c64 -49 78 -85 78 -198 -1 -78 -5 -104 -29
-166 -38 -94 -90 -158 -155 -188 -90 -42 -170 -27 -222 42 -27 35 -29 45 -32
139 -5 135 19 220 84 300 45 55 86 81 154 95 62 14 76 11 122 -24z m528 -552
c6 -6 8 -18 4 -27 -5 -14 -24 -17 -125 -19 -65 -1 -134 -2 -151 -2 -27 -1 -33
3 -33 19 0 15 11 23 45 32 53 15 245 12 260 -3z m-228 -205 c71 -24 203 -88
237 -116 14 -11 21 -25 17 -31 -11 -18 -51 -14 -79 8 -14 11 -30 20 -36 20 -6
0 -36 12 -68 26 -31 15 -82 35 -112 45 -58 20 -73 33 -64 56 7 18 34 16 105
-8z m-397 -3913 c105 0 282 1 394 2 198 2 240 -3 215 -28 -10 -10 -155 -54
-217 -65 -20 -4 -39 -11 -42 -15 -3 -4 -75 -8 -161 -9 -87 -1 -161 -4 -166 -7
-5 -3 -14 -1 -21 4 -7 5 -38 13 -71 17 -62 7 -137 31 -224 72 -81 39 -77 47
19 38 46 -4 170 -8 274 -9z"/>
<path d="M2210 8263 c-64 -65 -98 -236 -66 -337 24 -75 53 -100 107 -93 84 11
159 125 159 242 0 108 -43 222 -74 196 -8 -6 -19 -3 -36 9 -35 27 -47 25 -90
-17z"/>
<path d="M2990 8293 c-77 -21 -148 -93 -172 -177 -18 -63 -15 -195 5 -233 37
-70 102 -91 163 -54 74 45 138 171 138 271 0 62 -18 130 -34 130 -4 0 -11 10
-17 23 -11 23 -58 46 -83 40z"/>
</g>
</svg>
