<?xml version="1.0" standalone="no"?>
<!DOCTYPE svg PUBLIC "-//W3C//DTD SVG 20010904//EN"
 "http://www.w3.org/TR/2001/REC-SVG-20010904/DTD/svg10.dtd">
<svg version="1.0" xmlns="http://www.w3.org/2000/svg"
 width="704.000000pt" height="1280.000000pt" viewBox="0 0 704.000000 1280.000000"
 preserveAspectRatio="xMidYMid meet">
<metadata>
Created by potrace 1.16, written by Peter Selinger 2001-2019
</metadata>
<g transform="translate(0.000000,1280.000000) scale(0.100000,-0.100000)"
fill="#000000" stroke="none">
<path d="M3499 9667 c-32 -41 -60 -112 -99 -257 -18 -63 -57 -185 -87 -270
-132 -368 -113 -334 -188 -341 -33 -3 -68 -9 -78 -14 -12 -5 -22 -2 -31 10
-12 17 -15 17 -55 2 -23 -10 -45 -17 -50 -17 -10 0 -47 101 -61 167 -5 24 -16
55 -23 70 -8 16 -18 44 -22 63 -4 19 -18 58 -30 85 -13 28 -33 82 -45 120 -63
195 -113 305 -160 350 -27 25 -32 27 -59 16 -21 -9 -35 -27 -50 -61 -12 -27
-21 -54 -21 -60 0 -7 -11 -49 -24 -94 -14 -44 -30 -108 -36 -141 -6 -33 -19
-94 -30 -135 -10 -41 -22 -97 -26 -125 -3 -27 -9 -59 -11 -70 -34 -145 -74
-441 -66 -489 4 -28 -2 -36 -65 -89 -167 -139 -318 -345 -363 -495 l-12 -43
-111 7 c-120 6 -154 -3 -140 -39 5 -14 19 -17 78 -17 65 0 141 -12 152 -23 3
-2 2 -35 -2 -72 -8 -78 -1 -73 -166 -113 -87 -21 -108 -30 -108 -44 0 -10 6
-18 13 -19 46 -3 112 6 181 26 45 13 84 21 87 17 4 -4 12 -24 18 -44 21 -64
86 -153 148 -201 32 -25 65 -52 72 -61 7 -9 22 -16 32 -16 10 0 22 -6 26 -12
11 -17 95 -76 158 -110 62 -35 260 -135 275 -140 12 -4 17 -79 24 -329 2 -64
6 -121 9 -127 4 -5 0 -23 -8 -38 -8 -16 -15 -38 -15 -49 0 -12 -11 -54 -25
-95 -27 -84 -30 -105 -13 -94 7 5 8 3 4 -5 -5 -7 -10 -10 -13 -7 -3 3 -16 -13
-28 -37 -12 -23 -40 -73 -62 -112 -22 -38 -46 -87 -52 -107 -7 -21 -17 -40
-22 -43 -5 -4 -9 -17 -9 -29 0 -13 -7 -29 -15 -36 -8 -7 -15 -17 -15 -23 0 -6
-11 -27 -25 -46 -13 -20 -35 -66 -49 -103 -13 -38 -36 -82 -50 -99 -14 -17
-26 -41 -26 -53 0 -13 -9 -35 -20 -49 -11 -14 -20 -31 -20 -39 0 -7 -15 -56
-34 -109 -39 -109 -66 -208 -71 -258 -4 -43 -35 -73 -100 -96 -149 -54 -282
-166 -310 -261 -29 -101 -13 -191 32 -179 19 4 23 1 23 -19 0 -46 64 -94 118
-87 6 1 12 -3 12 -9 0 -5 14 -10 30 -10 17 0 30 5 30 10 0 6 19 10 43 10 l43
0 17 -85 c9 -47 23 -100 32 -117 8 -17 15 -36 15 -42 0 -6 5 -18 10 -26 9 -13
11 -13 20 0 6 11 9 3 7 -27 -1 -44 26 -88 49 -79 7 3 14 -4 17 -15 3 -10 1
-17 -4 -13 -25 15 -3 -14 49 -65 114 -113 308 -241 364 -241 27 0 53 -44 89
-148 50 -145 187 -295 339 -372 77 -40 231 -91 335 -111 84 -17 127 -19 270
-15 203 6 235 9 311 35 33 10 77 22 98 26 43 7 165 73 262 141 123 86 231 236
275 384 14 44 15 45 78 61 37 9 70 24 78 35 10 14 16 16 21 7 6 -9 17 -10 38
-4 43 13 104 44 104 53 0 4 8 8 18 8 19 1 26 6 101 69 108 92 226 281 252 403
6 29 18 65 25 80 20 39 30 238 13 249 -11 6 -11 14 -1 41 9 25 9 52 1 103 -5
39 -12 91 -14 117 -2 25 -8 56 -14 67 -6 11 -11 27 -11 36 0 8 -7 32 -17 53
-9 20 -15 41 -14 46 1 6 -2 19 -8 30 -6 12 -15 39 -21 61 -6 22 -18 54 -28 71
-59 108 -72 136 -67 145 4 5 -7 32 -24 59 -17 27 -42 77 -56 111 -35 83 -100
206 -119 225 -9 8 -16 24 -16 35 0 11 -16 45 -35 75 -19 30 -35 59 -35 65 0 6
-13 30 -30 54 -16 24 -30 48 -30 53 0 15 -88 190 -99 197 -6 3 -53 90 -104
193 -52 103 -98 196 -104 207 -52 100 -143 299 -143 314 0 10 -16 48 -35 84
-19 36 -35 70 -35 76 0 5 -14 40 -32 78 -30 66 -34 82 -42 188 -3 46 20 160
46 228 8 20 7 31 -2 42 -10 12 -10 18 1 31 17 20 25 260 10 278 -5 6 -6 17 -2
24 4 7 4 34 0 60 -4 26 -5 50 -3 54 5 7 -21 208 -35 273 -5 22 -16 76 -25 120
-18 84 -32 137 -46 170 -4 11 -18 53 -30 92 -12 40 -25 75 -31 78 -5 4 -9 14
-9 23 0 9 -15 53 -34 97 -19 44 -58 136 -86 205 -28 69 -62 149 -76 178 -13
29 -24 55 -24 58 0 6 -48 119 -78 183 -15 33 -64 71 -92 71 -8 0 -27 -15 -41
-33z m-1127 -1314 c20 -12 41 -42 66 -93 32 -68 35 -82 34 -151 -4 -199 -157
-383 -270 -325 -33 17 -76 68 -86 102 -15 49 -16 154 -2 226 24 125 70 197
150 234 62 28 70 29 108 7z m778 -48 c55 -54 63 -78 58 -192 -5 -119 -29 -188
-94 -266 -120 -146 -303 -123 -342 43 -12 51 -1 194 19 250 66 187 250 272
359 165z m510 -531 c6 -6 8 -18 4 -27 -5 -14 -24 -17 -118 -18 -61 0 -129 -2
-151 -2 -34 -2 -40 1 -40 18 0 15 11 23 45 32 53 15 245 12 260 -3z m-216
-208 c87 -33 207 -93 230 -116 39 -38 -21 -56 -67 -20 -14 11 -32 20 -41 20
-8 0 -30 8 -49 19 -18 10 -62 29 -98 41 -76 28 -89 36 -89 61 0 26 35 25 114
-5z m486 -3895 c0 -13 -83 -87 -116 -104 -16 -8 -54 -22 -84 -31 -30 -9 -74
-27 -98 -39 -41 -21 -44 -21 -53 -4 -13 22 -76 23 -109 0 -22 -15 -23 -15 -17
0 5 13 -2 18 -31 22 -100 16 -282 94 -282 120 0 20 95 27 355 27 132 0 276 3
320 7 44 5 88 9 98 10 9 0 17 -3 17 -8z"/>
<path d="M2233 8280 c-118 -72 -133 -418 -20 -448 51 -14 129 31 120 69 -3 11
0 19 6 19 7 0 9 -4 6 -10 -3 -5 -2 -10 3 -10 5 0 21 25 36 55 30 64 34 139 13
222 -17 65 -45 109 -59 95 -8 -8 -18 -6 -34 5 -13 8 -24 11 -24 7 0 -5 -4 -4
-8 3 -6 9 -16 8 -39 -7z"/>
<path d="M2929 8267 c-46 -31 -96 -99 -110 -150 -19 -68 -16 -196 5 -240 44
-90 149 -88 219 5 35 45 74 133 82 185 8 50 -18 151 -40 160 -8 3 -15 11 -15
19 0 20 -41 44 -76 44 -17 0 -46 -10 -65 -23z"/>
</g>
</svg>
