<?xml version="1.0" standalone="no"?>
<!DOCTYPE svg PUBLIC "-//W3C//DTD SVG 20010904//EN"
 "http://www.w3.org/TR/2001/REC-SVG-20010904/DTD/svg10.dtd">
<svg version="1.0" xmlns="http://www.w3.org/2000/svg"
 width="704.000000pt" height="1280.000000pt" viewBox="0 0 704.000000 1280.000000"
 preserveAspectRatio="xMidYMid meet">
<metadata>
Created by potrace 1.16, written by Peter Selinger 2001-2019
</metadata>
<g transform="translate(0.000000,1280.000000) scale(0.100000,-0.100000)"
fill="#000000" stroke="none">
<path d="M3525 9692 c-10 -7 -49 -66 -73 -109 -6 -12 -16 -44 -22 -70 -21 -97
-75 -264 -151 -468 -17 -44 -36 -99 -44 -121 -7 -23 -23 -60 -34 -83 -21 -41
-22 -41 -79 -41 -33 0 -63 -5 -70 -12 -10 -10 -15 -10 -21 1 -7 10 -20 12 -52
7 -84 -14 -81 -15 -94 34 -6 25 -18 56 -25 70 -7 14 -15 36 -16 50 -3 33 -40
142 -70 208 -13 29 -24 60 -24 70 0 9 -14 53 -31 97 -17 44 -40 105 -51 135
-11 30 -28 66 -37 80 -9 14 -20 38 -26 53 -13 36 -54 62 -86 54 -13 -3 -32
-19 -41 -35 -22 -37 -60 -159 -88 -282 -12 -52 -28 -122 -36 -155 -7 -33 -19
-96 -25 -140 -6 -44 -17 -102 -25 -130 -21 -77 -54 -311 -54 -392 l0 -72 -66
-56 c-174 -147 -294 -313 -365 -504 l-12 -33 -61 8 c-124 17 -198 0 -183 -40
5 -13 23 -16 84 -17 43 -1 92 -4 108 -8 30 -6 30 -7 31 -74 1 -65 0 -69 -27
-83 -16 -8 -68 -23 -116 -34 -113 -26 -134 -35 -127 -55 9 -23 95 -19 191 10
85 26 103 26 103 -2 0 -28 59 -138 92 -170 33 -33 127 -110 157 -128 43 -27
79 -52 111 -77 19 -14 107 -64 195 -109 88 -45 161 -82 162 -83 4 -4 15 -225
16 -338 1 -58 5 -109 8 -113 4 -3 0 -22 -7 -43 -7 -20 -13 -46 -14 -56 0 -19
-12 -61 -34 -121 -6 -16 -9 -35 -8 -42 1 -7 -17 -45 -41 -85 -64 -106 -118
-216 -148 -298 -7 -19 -22 -49 -34 -65 -25 -34 -59 -107 -68 -146 -4 -14 -20
-43 -37 -64 -16 -21 -30 -46 -30 -57 0 -10 -9 -36 -19 -56 -26 -49 -123 -349
-120 -370 2 -10 -5 -35 -15 -57 -10 -22 -22 -69 -26 -105 -5 -36 -14 -81 -20
-100 -15 -43 -22 -392 -10 -472 9 -63 48 -198 62 -213 6 -6 12 -5 19 5 7 11 8
8 3 -11 -10 -46 37 -112 67 -93 6 3 7 -5 3 -21 -5 -22 2 -33 49 -79 122 -118
323 -245 367 -231 14 4 20 2 20 -9 0 -8 23 -25 50 -37 28 -12 50 -24 50 -25 0
-1 -12 -26 -26 -55 -53 -105 -85 -326 -53 -365 6 -7 8 -18 5 -23 -4 -6 -3 -18
2 -28 5 -10 16 -37 23 -60 28 -86 218 -300 276 -311 10 -2 29 -14 43 -27 43
-39 74 -55 89 -45 15 8 41 -10 41 -28 0 -25 139 -85 240 -104 30 -5 73 -19 96
-29 51 -24 236 -34 289 -16 125 44 207 187 159 278 -10 19 -17 39 -16 45 3 14
-65 80 -79 76 -5 -1 -9 2 -9 8 0 5 -7 10 -15 10 -9 0 -26 6 -38 14 -12 7 -47
16 -77 20 -61 6 -111 21 -248 74 -148 57 -243 158 -242 258 1 46 13 70 62 122
33 35 158 112 158 97 0 -3 17 3 38 14 40 22 261 51 387 51 63 1 215 15 425 40
41 5 111 11 155 13 85 5 214 29 280 54 22 8 57 16 78 18 86 10 298 156 334
232 9 21 32 50 50 66 18 16 33 33 33 38 0 6 16 44 36 86 19 41 39 98 44 124 5
27 17 63 26 80 18 35 28 235 12 255 -5 7 -4 22 3 38 9 20 9 39 1 78 -6 29 -16
84 -22 123 -6 38 -21 101 -34 140 -12 38 -28 90 -36 115 -19 67 -47 134 -80
191 -17 27 -30 63 -30 79 0 16 -5 32 -11 36 -7 4 -27 41 -46 83 -79 175 -115
241 -139 260 -14 11 -23 24 -20 30 8 13 -28 95 -54 121 -11 11 -18 24 -16 29
3 5 -10 30 -29 57 -19 27 -35 55 -35 62 0 21 -50 120 -97 194 -24 37 -76 136
-117 221 -41 85 -79 158 -85 161 -6 4 -11 15 -11 24 0 9 -29 76 -65 149 -36
73 -65 139 -65 147 0 8 -15 43 -33 78 -18 35 -39 83 -47 108 -7 25 -17 49 -22
54 -4 6 -8 17 -8 26 0 9 -6 22 -12 28 -14 14 -16 25 -22 119 -3 42 1 84 14
127 10 36 16 67 13 69 -2 3 2 18 10 34 9 17 13 48 11 80 -2 29 1 55 6 58 11 7
14 218 4 228 -4 4 -8 50 -9 104 -8 265 -76 556 -205 868 -16 39 -52 126 -80
195 -93 227 -182 435 -198 462 -9 15 -30 34 -48 43 -37 17 -36 17 -49 7z
m-1125 -1338 c21 -19 42 -45 46 -56 3 -12 13 -37 22 -57 16 -39 24 -178 10
-187 -4 -3 -8 -13 -8 -23 0 -10 -10 -40 -21 -67 -63 -142 -187 -207 -267 -139
-50 42 -63 84 -63 194 0 135 14 189 74 280 20 30 45 50 81 67 67 31 79 30 126
-12z m758 -26 c55 -51 63 -74 67 -171 2 -62 -2 -91 -20 -141 -31 -86 -43 -106
-94 -162 -66 -70 -157 -100 -227 -74 -100 38 -137 167 -95 334 41 162 139 255
271 256 51 0 58 -3 98 -42z m477 -548 c17 -7 25 -16 23 -28 -3 -15 -21 -18
-143 -23 -77 -3 -146 -3 -153 -1 -25 9 -6 37 33 48 49 15 204 18 240 4z m-207
-204 c65 -23 230 -108 248 -127 35 -38 -23 -55 -69 -19 -14 11 -30 20 -36 20
-7 0 -31 10 -54 22 -23 12 -73 33 -112 48 -55 20 -71 30 -73 48 -3 18 1 22 26
22 16 0 48 -6 70 -14z"/>
<path d="M2255 8305 c-70 -35 -109 -145 -103 -290 5 -127 36 -174 108 -166 34
4 80 39 74 55 -3 7 2 16 11 20 11 4 14 2 9 -7 -5 -7 0 -6 10 3 91 73 62 405
-32 376 -13 -4 -22 -1 -26 9 -7 19 -13 19 -51 0z"/>
<path d="M2938 8281 c-55 -35 -94 -97 -114 -178 -19 -80 -17 -123 6 -187 23
-61 53 -86 102 -86 124 0 238 232 188 384 -15 45 -72 96 -108 96 -16 0 -49
-13 -74 -29z"/>
</g>
</svg>
