<?xml version="1.0" standalone="no"?>
<!DOCTYPE svg PUBLIC "-//W3C//DTD SVG 20010904//EN"
 "http://www.w3.org/TR/2001/REC-SVG-20010904/DTD/svg10.dtd">
<svg version="1.0" xmlns="http://www.w3.org/2000/svg"
 width="704.000000pt" height="1280.000000pt" viewBox="0 0 704.000000 1280.000000"
 preserveAspectRatio="xMidYMid meet">
<metadata>
Created by potrace 1.16, written by Peter Selinger 2001-2019
</metadata>
<g transform="translate(0.000000,1280.000000) scale(0.100000,-0.100000)"
fill="#000000" stroke="none">
<path d="M3513 9683 c-27 -24 -86 -142 -79 -159 3 -7 1 -16 -3 -18 -5 -3 -11
-21 -14 -40 -8 -49 -75 -264 -99 -316 -11 -25 -28 -70 -38 -100 -10 -30 -25
-68 -34 -85 -9 -16 -16 -37 -16 -45 0 -8 -10 -39 -22 -67 l-23 -53 -53 0 c-29
0 -62 -5 -72 -10 -14 -7 -25 -7 -38 1 -15 9 -30 9 -67 0 -51 -13 -65 -7 -65
31 0 10 -9 37 -19 60 -10 24 -23 61 -29 83 -16 63 -42 136 -64 185 -11 25 -26
68 -34 97 -7 29 -22 72 -33 95 -10 24 -22 57 -26 73 -10 49 -81 188 -108 213
-35 33 -75 27 -99 -15 -10 -17 -28 -62 -39 -100 -18 -62 -32 -118 -88 -358
-11 -44 -22 -105 -26 -135 -3 -30 -14 -93 -24 -140 -33 -147 -41 -202 -47
-323 l-7 -117 -65 -56 c-121 -103 -242 -249 -299 -361 -12 -23 -26 -50 -32
-60 -5 -10 -17 -39 -27 -65 l-17 -48 -111 6 c-96 6 -113 4 -125 -9 -26 -33 -6
-47 66 -48 37 0 86 -3 108 -7 l40 -7 1 -68 c1 -65 0 -69 -27 -83 -16 -8 -68
-23 -116 -34 -113 -26 -134 -35 -127 -55 9 -22 79 -19 172 6 113 32 110 32
133 -30 27 -78 76 -143 145 -194 32 -24 65 -51 73 -60 7 -9 18 -17 23 -17 9 0
60 -33 93 -62 40 -34 231 -137 338 -181 22 -10 37 -23 38 -34 0 -10 2 -56 5
-103 2 -47 6 -140 7 -208 2 -67 7 -125 10 -129 4 -3 2 -13 -2 -22 -5 -9 -14
-39 -20 -66 -5 -28 -13 -63 -16 -80 -4 -16 -13 -43 -20 -60 -7 -16 -18 -48
-25 -70 -7 -22 -18 -47 -25 -55 -11 -13 -27 -42 -73 -126 -25 -46 -55 -118
-55 -133 0 -8 -4 -20 -9 -26 -30 -33 -108 -187 -108 -211 0 -8 -16 -37 -35
-65 -19 -28 -35 -61 -35 -74 0 -12 -9 -34 -20 -48 -11 -14 -20 -30 -20 -37 0
-6 -23 -79 -50 -162 -28 -83 -52 -163 -54 -177 -2 -14 -11 -46 -20 -70 -9 -24
-16 -61 -16 -82 0 -21 -5 -50 -10 -65 -26 -68 -41 -350 -26 -479 8 -65 64
-245 76 -245 4 0 11 -16 14 -35 7 -38 39 -67 64 -58 12 5 14 1 9 -20 -6 -21 2
-34 52 -85 79 -81 267 -212 303 -212 9 0 20 -5 24 -11 3 -6 17 -8 30 -5 17 5
24 2 24 -8 0 -17 61 -47 104 -50 18 -2 38 -6 45 -10 27 -17 200 -29 421 -30
196 -1 235 -3 232 -15 -2 -8 -22 -46 -46 -85 -24 -39 -52 -97 -64 -128 -26
-69 -46 -226 -38 -282 9 -56 46 -168 63 -187 7 -8 13 -19 13 -24 0 -17 92
-143 143 -195 66 -68 93 -90 154 -125 26 -16 62 -38 78 -50 36 -27 219 -102
278 -115 51 -11 121 -29 163 -41 16 -5 50 -11 75 -13 24 -2 71 -7 104 -11 33
-3 94 -8 135 -10 41 -2 107 -7 147 -11 39 -4 80 -3 90 1 10 5 22 7 28 6 74
-18 232 27 273 78 49 62 77 176 48 200 -13 11 -16 11 -16 1 0 -8 -3 -10 -6 -7
-4 4 -1 13 5 21 10 12 9 18 -8 33 -12 9 -21 22 -21 28 0 18 -41 52 -81 69 -45
19 -104 25 -312 31 -89 3 -196 12 -237 19 -41 8 -104 19 -140 26 -35 6 -70 16
-77 22 -8 6 -30 8 -56 4 -28 -4 -37 -3 -27 3 18 12 18 12 -54 51 -102 55 -155
106 -193 188 -33 71 -34 75 -22 130 6 31 26 79 44 107 33 52 133 150 169 166
12 5 50 27 86 49 36 22 76 45 90 51 14 6 50 24 80 39 42 22 81 31 160 40 58 7
146 23 195 36 50 13 105 27 124 29 37 6 150 63 196 99 65 51 125 110 125 122
0 8 5 14 10 14 6 0 10 9 10 20 0 11 6 20 13 20 13 0 57 52 57 66 0 4 9 27 20
51 11 24 29 62 40 86 11 24 20 54 20 68 0 13 10 44 21 69 13 30 19 62 18 96
-1 27 0 54 3 60 6 11 2 104 -6 111 -3 3 0 15 5 26 8 15 7 48 -6 126 -21 132
-55 271 -67 271 -4 0 -8 10 -8 22 0 42 -46 163 -90 239 -17 27 -30 57 -30 66
0 9 -19 57 -42 106 -105 221 -133 272 -156 282 -16 7 -21 16 -18 29 4 17 -32
103 -57 135 -6 7 -12 20 -13 27 -1 8 -14 31 -29 50 -14 19 -28 42 -30 52 -5
27 -78 171 -109 217 -16 22 -63 113 -106 201 -43 89 -83 165 -89 168 -6 4 -11
13 -11 21 0 7 -29 75 -65 149 -36 74 -65 141 -65 148 0 7 -15 45 -34 83 -40
81 -97 227 -105 264 -13 73 4 234 32 301 6 14 11 48 11 75 1 28 4 55 7 60 10
17 7 219 -3 233 -7 8 -7 16 1 25 6 8 8 17 5 20 -3 3 -8 39 -10 79 -4 86 -31
290 -44 333 -5 17 -16 62 -24 102 -24 109 -96 320 -159 468 -76 177 -187 444
-187 449 0 3 -18 43 -40 90 -32 68 -46 87 -74 100 -42 20 -39 20 -63 -1z
m-1125 -1315 c48 -30 99 -142 96 -213 -5 -133 -38 -225 -104 -294 -51 -52 -92
-71 -140 -64 -42 6 -54 16 -92 67 -26 36 -28 46 -28 130 0 206 44 312 155 371
58 31 68 31 113 3z m766 -34 c53 -50 73 -103 71 -189 -1 -38 -4 -77 -7 -85 -3
-8 -16 -44 -29 -79 -41 -117 -149 -211 -242 -211 -79 0 -142 47 -159 122 -17
73 -17 100 -1 190 30 176 136 287 273 287 49 0 59 -3 94 -35z m501 -565 c29
-28 -3 -37 -155 -40 -127 -4 -145 -2 -148 12 -3 15 23 31 73 43 11 2 64 4 117
3 74 -2 101 -6 113 -18z m-228 -193 c59 -21 247 -116 255 -129 12 -18 9 -27
-7 -33 -19 -8 -60 2 -77 19 -7 6 -26 17 -43 24 -176 69 -220 91 -223 111 -3
18 2 22 26 22 16 0 47 -6 69 -14z"/>
<path d="M2275 8312 c-41 -8 -85 -64 -107 -136 -17 -57 -20 -85 -15 -161 6
-101 22 -145 59 -162 53 -24 147 38 188 124 48 103 2 344 -62 320 -7 -2 -20 1
-28 8 -8 6 -24 10 -35 7z"/>
<path d="M2935 8278 c-97 -64 -149 -225 -110 -346 40 -127 143 -139 229 -26
69 90 96 218 66 308 -14 45 -72 96 -108 96 -15 0 -50 -15 -77 -32z"/>
</g>
</svg>
