<?xml version="1.0" standalone="no"?>
<!DOCTYPE svg PUBLIC "-//W3C//DTD SVG 20010904//EN"
 "http://www.w3.org/TR/2001/REC-SVG-20010904/DTD/svg10.dtd">
<svg version="1.0" xmlns="http://www.w3.org/2000/svg"
 width="704.000000pt" height="1280.000000pt" viewBox="0 0 704.000000 1280.000000"
 preserveAspectRatio="xMidYMid meet">
<metadata>
Created by potrace 1.16, written by Peter Selinger 2001-2019
</metadata>
<g transform="translate(0.000000,1280.000000) scale(0.100000,-0.100000)"
fill="#000000" stroke="none">
<path d="M3497 9668 c-37 -50 -46 -71 -71 -171 -29 -113 -91 -307 -109 -345
-8 -15 -22 -53 -31 -86 -10 -32 -26 -75 -37 -95 -10 -19 -19 -44 -19 -54 0
-10 -12 -41 -26 -69 -25 -49 -26 -50 -63 -45 -21 2 -54 -1 -74 -8 -32 -11 -39
-10 -46 2 -7 13 -14 13 -61 -1 -61 -18 -65 -15 -75 45 -4 21 -13 45 -20 56 -8
10 -15 29 -15 43 0 14 -9 45 -20 69 -11 24 -20 50 -20 59 0 8 -13 45 -29 81
-16 36 -35 89 -44 116 -33 106 -69 202 -97 260 -17 33 -30 64 -30 69 0 19 -52
56 -79 56 -36 0 -55 -23 -76 -90 -9 -30 -23 -73 -30 -95 -16 -51 -31 -110 -49
-205 -9 -41 -20 -88 -25 -105 -9 -26 -45 -210 -71 -370 -17 -101 -29 -209 -32
-276 l-2 -70 -71 -59 c-93 -79 -142 -131 -205 -215 -53 -71 -127 -209 -149
-277 l-13 -38 -111 6 c-91 5 -116 3 -132 -9 -33 -25 -4 -47 64 -48 31 0 79 -4
106 -7 l50 -7 0 -69 0 -69 -40 -18 c-22 -10 -84 -28 -137 -40 -80 -18 -98 -26
-98 -41 0 -27 87 -24 195 7 48 14 89 24 90 23 2 -2 12 -28 23 -59 21 -61 90
-162 122 -179 10 -5 40 -28 65 -50 25 -22 51 -40 56 -40 6 0 36 -19 67 -43 76
-58 293 -178 370 -205 23 -8 32 -17 33 -34 0 -13 2 -54 5 -93 2 -38 6 -130 8
-203 2 -73 6 -135 9 -138 3 -3 -1 -21 -9 -39 -8 -19 -14 -45 -14 -57 0 -33
-74 -241 -97 -275 -20 -28 -63 -111 -99 -193 -35 -77 -74 -153 -99 -195 -14
-22 -28 -56 -31 -75 -4 -19 -22 -57 -41 -84 -18 -26 -33 -58 -33 -69 0 -11 -6
-28 -14 -36 -17 -20 -87 -224 -120 -354 -14 -54 -30 -106 -36 -117 -5 -10 -10
-39 -10 -64 0 -24 -4 -56 -10 -71 -28 -73 -41 -330 -24 -487 l7 -67 -62 -56
c-53 -50 -121 -135 -121 -152 0 -3 -13 -31 -28 -62 -41 -81 -61 -172 -61 -286
-3 -282 83 -464 272 -580 l78 -48 70 6 c72 6 118 26 172 75 15 14 27 35 27 47
0 12 3 25 7 29 4 3 8 13 9 20 1 7 5 23 9 34 7 23 -25 120 -74 226 -63 133 -72
180 -47 241 8 18 12 43 9 54 -3 12 -2 21 2 21 4 0 50 -32 102 -70 53 -39 107
-73 122 -77 14 -3 35 -12 47 -20 11 -7 23 -11 26 -8 3 4 22 -5 41 -18 63 -43
222 -66 501 -72 l178 -4 114 -56 c66 -33 123 -55 137 -53 13 1 32 -5 42 -15
13 -14 30 -18 67 -16 35 2 52 -1 58 -12 7 -11 39 -15 137 -17 131 -4 222 8
278 36 17 8 40 16 52 18 35 4 206 94 238 126 47 47 90 65 200 88 138 27 276
85 340 144 13 11 39 33 57 47 18 14 47 46 63 70 16 24 42 57 57 73 16 17 28
33 28 37 0 5 18 45 40 91 22 46 40 96 40 111 0 15 9 46 20 68 17 31 21 63 24
155 2 63 0 117 -5 120 -5 2 -3 15 3 29 10 23 9 37 -18 215 -3 19 -9 44 -14 55
-5 11 -11 34 -13 50 -3 17 -11 44 -18 60 -7 17 -14 35 -14 40 -6 43 -34 115
-76 198 -28 55 -48 101 -45 104 3 3 -15 44 -38 92 -24 47 -63 125 -86 174 -23
48 -53 101 -67 118 -15 17 -27 41 -28 53 -1 27 -52 116 -66 116 -6 0 -9 7 -6
15 4 8 -9 37 -28 66 -19 28 -35 57 -35 64 0 20 -72 153 -113 211 -20 28 -37
55 -37 60 0 5 -16 41 -35 81 -19 39 -46 96 -59 125 -14 29 -34 69 -45 88 -11
19 -36 71 -56 115 -20 44 -49 106 -65 137 -17 31 -30 64 -30 74 0 9 -15 46
-34 83 -93 180 -131 345 -100 436 8 22 14 53 14 68 0 15 7 41 15 58 12 22 13
34 5 50 -7 13 -8 25 -2 32 12 16 13 23 19 155 3 79 1 118 -8 128 -8 10 -9 18
0 27 6 8 9 16 6 19 -3 2 -7 36 -9 74 -12 189 -68 496 -105 579 -5 11 -17 47
-26 80 -10 33 -24 69 -31 80 -8 11 -14 25 -14 32 0 7 -17 55 -39 106 -21 50
-72 173 -114 272 -42 99 -85 204 -96 233 -39 99 -70 151 -101 167 -42 22 -56
19 -83 -17z m-1116 -1325 c56 -33 100 -168 87 -270 -12 -101 -36 -157 -95
-222 -68 -76 -117 -92 -177 -58 -60 34 -77 64 -86 153 -15 148 17 278 83 347
61 62 134 82 188 50z m772 -42 c26 -27 49 -61 53 -76 3 -14 4 -67 2 -118 -11
-207 -117 -345 -274 -355 l-64 -4 -49 48 c-42 42 -50 56 -56 102 -4 29 -4 80
0 115 24 209 131 335 286 336 55 1 58 0 102 -48z m507 -531 c19 -30 -12 -38
-160 -42 -139 -3 -145 -2 -145 17 0 30 70 45 193 42 78 -2 105 -6 112 -17z
m-216 -204 c87 -33 207 -93 230 -116 40 -39 -11 -53 -73 -21 -54 29 -192 89
-223 96 -32 8 -63 39 -53 54 10 17 50 13 119 -13z"/>
<path d="M2243 8285 c-63 -27 -104 -129 -106 -262 -1 -98 17 -151 64 -186 23
-17 32 -18 61 -8 47 15 92 64 124 135 24 53 26 66 21 138 -8 97 -38 172 -65
164 -12 -4 -25 1 -37 14 -21 23 -20 23 -62 5z"/>
<path d="M2944 8272 c-82 -46 -115 -96 -139 -210 -15 -75 -15 -87 -1 -136 9
-30 28 -68 42 -85 22 -27 32 -31 75 -31 42 0 54 5 90 37 59 54 100 140 106
228 7 87 -6 132 -52 180 -37 40 -71 45 -121 17z"/>
</g>
</svg>
