<?xml version="1.0" standalone="no"?>
<!DOCTYPE svg PUBLIC "-//W3C//DTD SVG 20010904//EN"
 "http://www.w3.org/TR/2001/REC-SVG-20010904/DTD/svg10.dtd">
<svg version="1.0" xmlns="http://www.w3.org/2000/svg"
 width="704.000000pt" height="1280.000000pt" viewBox="0 0 704.000000 1280.000000"
 preserveAspectRatio="xMidYMid meet">
<metadata>
Created by potrace 1.16, written by Peter Selinger 2001-2019
</metadata>
<g transform="translate(0.000000,1280.000000) scale(0.100000,-0.100000)"
fill="#000000" stroke="none">
<path d="M3506 9685 c-26 -28 -68 -127 -86 -202 -11 -48 -54 -182 -129 -407
-17 -48 -35 -93 -40 -100 -6 -6 -15 -34 -21 -61 -6 -27 -18 -57 -27 -67 -8 -9
-13 -25 -9 -34 5 -14 -1 -15 -46 -13 -29 2 -68 -1 -86 -5 -21 -5 -38 -4 -47 4
-10 9 -25 8 -60 -4 -26 -9 -50 -14 -54 -11 -5 2 -11 22 -15 42 -3 21 -13 51
-21 67 -8 15 -15 35 -15 43 0 26 -63 208 -82 235 -10 14 -18 37 -18 51 0 21
-9 46 -50 142 -5 11 -11 33 -15 49 -3 16 -22 61 -41 100 -19 39 -34 76 -34 83
0 17 -63 63 -87 63 -32 0 -54 -34 -81 -122 -46 -156 -125 -511 -127 -573 0
-22 -6 -52 -12 -67 -21 -47 -66 -379 -59 -423 4 -27 -1 -35 -50 -75 -66 -53
-170 -159 -213 -215 -16 -22 -39 -51 -49 -65 -28 -37 -99 -179 -113 -227 l-12
-43 -111 6 c-90 5 -115 3 -131 -9 -32 -24 -4 -47 59 -47 100 0 156 -11 156
-31 0 -9 6 -20 13 -23 10 -5 10 -7 0 -12 -7 -3 -13 -23 -13 -45 0 -51 -20 -64
-160 -97 -98 -24 -110 -29 -108 -47 3 -18 9 -20 58 -17 29 2 90 14 134 27 82
24 96 24 96 1 0 -35 74 -158 118 -196 110 -94 144 -120 158 -120 8 0 14 -4 14
-9 0 -5 14 -14 30 -21 17 -7 34 -18 38 -24 10 -17 171 -107 279 -158 48 -22
89 -42 90 -43 3 -2 13 -228 17 -358 1 -48 5 -89 9 -93 3 -4 2 -15 -4 -26 -6
-11 -14 -40 -19 -66 -21 -113 -62 -224 -105 -287 -20 -28 -66 -122 -102 -205
-21 -50 -64 -133 -78 -150 -15 -20 -44 -89 -50 -118 -2 -12 -17 -41 -34 -65
-16 -23 -32 -56 -36 -74 -3 -17 -13 -37 -21 -44 -8 -6 -14 -18 -14 -25 0 -8
-16 -60 -35 -116 -34 -97 -63 -198 -71 -243 -1 -11 -12 -46 -24 -78 -11 -32
-18 -62 -15 -67 3 -5 -1 -35 -9 -67 -20 -81 -27 -142 -31 -251 -2 -52 -7 -97
-11 -101 -5 -4 -47 -16 -94 -26 -143 -32 -244 -86 -356 -191 -47 -44 -134
-170 -134 -193 0 -9 -9 -31 -21 -50 -29 -48 -50 -160 -50 -266 1 -109 11 -204
22 -211 5 -3 9 -14 9 -25 0 -10 4 -27 10 -37 5 -9 23 -46 40 -82 29 -60 110
-176 135 -192 5 -3 23 -18 40 -32 37 -32 73 -40 122 -27 21 6 50 11 64 11 34
0 109 55 109 79 0 10 6 24 14 30 7 6 17 40 21 75 7 69 6 71 -66 198 -44 77
-61 161 -58 278 3 82 4 89 25 94 12 3 29 21 38 41 21 44 69 80 137 103 63 22
74 20 112 -20 21 -23 32 -28 49 -22 20 6 21 5 9 -9 -11 -14 -10 -21 8 -45 22
-31 145 -144 164 -151 7 -2 30 -19 53 -37 55 -46 168 -97 194 -89 14 4 20 2
20 -9 0 -31 94 -61 245 -77 136 -15 201 -26 224 -39 13 -6 35 -10 48 -7 19 3
27 0 30 -13 3 -10 21 -25 41 -33 100 -43 171 -67 198 -67 16 0 42 -7 58 -15
38 -20 165 -35 193 -22 14 6 31 6 50 0 38 -13 152 -6 179 12 12 7 37 14 55 13
92 -1 211 51 259 115 23 29 43 37 34 12 -10 -25 21 -7 47 26 27 35 77 59 125
59 39 0 282 38 295 46 5 3 33 11 62 19 123 32 279 139 347 237 18 26 41 55 51
64 10 9 24 33 30 53 7 20 15 38 18 41 15 11 61 130 61 156 0 16 6 41 14 56 56
107 27 575 -44 707 -6 12 -8 21 -6 21 13 0 -59 180 -91 228 -19 29 -36 65 -36
80 -1 15 -24 72 -51 127 -27 55 -61 125 -75 155 -14 30 -40 74 -58 96 -18 23
-30 44 -27 47 7 7 -41 100 -60 116 -9 8 -16 19 -16 26 0 18 -28 71 -45 85 -8
7 -15 20 -15 30 0 21 -71 160 -109 215 -15 22 -52 92 -82 155 -29 63 -71 145
-91 182 -21 37 -38 72 -38 78 0 6 -29 69 -65 141 -36 71 -65 137 -65 146 0 8
-13 41 -29 72 -55 108 -94 217 -104 294 -9 65 -8 93 8 170 10 51 22 97 27 104
6 7 7 26 3 43 -4 19 -3 30 4 30 6 0 11 7 11 15 0 8 -6 15 -12 15 -10 0 -9 3 1
9 11 7 12 41 7 182 -3 96 -6 188 -6 205 1 86 -77 490 -105 547 -8 17 -15 37
-15 46 0 9 -9 41 -21 71 -54 142 -71 184 -122 311 -30 75 -77 188 -104 250
-28 63 -65 149 -83 192 -33 77 -83 137 -116 137 -8 0 -25 -11 -38 -25z m-1121
-1339 c20 -15 41 -47 55 -80 12 -31 25 -56 29 -56 7 0 5 -116 -4 -172 -14 -94
-95 -216 -162 -245 -66 -27 -127 -7 -165 55 -43 70 -41 265 5 373 32 76 119
146 186 148 13 1 39 -10 56 -23z m761 -28 c60 -56 71 -85 68 -186 -6 -176 -86
-318 -206 -363 -80 -30 -132 -21 -181 29 -48 50 -59 82 -58 180 1 129 32 220
98 293 54 60 112 87 191 88 37 1 49 -5 88 -41z m514 -544 c6 -6 8 -18 4 -27
-5 -14 -22 -17 -109 -17 -56 0 -123 -3 -148 -6 -38 -6 -48 -4 -53 10 -9 24 5
35 57 46 57 12 236 7 249 -6z m-216 -208 c87 -33 207 -93 230 -116 39 -38 -21
-56 -67 -20 -14 11 -30 20 -35 20 -5 0 -36 12 -68 26 -33 15 -84 35 -114 45
-57 20 -72 33 -63 56 8 19 45 16 117 -11z"/>
<path d="M2215 8268 c-68 -63 -101 -224 -70 -336 22 -77 51 -107 99 -99 47 8
98 46 91 68 -3 10 0 21 6 25 9 5 10 2 6 -9 -14 -38 13 -14 35 31 33 67 32 214
-2 285 -18 39 -27 48 -43 43 -11 -3 -33 2 -48 10 -37 18 -34 19 -74 -18z"/>
<path d="M2954 8286 c-109 -48 -180 -232 -140 -368 37 -127 147 -144 229 -36
53 69 81 147 81 224 -1 64 -4 77 -33 120 -47 72 -78 85 -137 60z"/>
</g>
</svg>
