<?xml version="1.0" standalone="no"?>
<!DOCTYPE svg PUBLIC "-//W3C//DTD SVG 20010904//EN"
 "http://www.w3.org/TR/2001/REC-SVG-20010904/DTD/svg10.dtd">
<svg version="1.0" xmlns="http://www.w3.org/2000/svg"
 width="704.000000pt" height="1280.000000pt" viewBox="0 0 704.000000 1280.000000"
 preserveAspectRatio="xMidYMid meet">
<metadata>
Created by potrace 1.16, written by Peter Selinger 2001-2019
</metadata>
<g transform="translate(0.000000,1280.000000) scale(0.100000,-0.100000)"
fill="#000000" stroke="none">
<path d="M3510 9675 c-5 -14 -14 -25 -18 -25 -10 0 -62 -110 -62 -131 0 -17
-52 -193 -91 -304 -15 -44 -33 -96 -39 -115 -7 -19 -25 -66 -41 -105 -16 -38
-29 -76 -29 -83 0 -7 -11 -35 -25 -63 -25 -49 -26 -49 -73 -48 -26 1 -57 -3
-69 -9 -28 -15 -46 -15 -37 -1 7 12 -55 8 -103 -6 -19 -6 -23 -1 -39 54 -9 34
-21 64 -25 67 -5 3 -9 15 -9 26 0 23 -55 188 -77 232 -8 15 -21 53 -29 83 -8
29 -23 72 -33 94 -11 22 -23 53 -26 70 -13 60 -94 215 -119 228 -40 22 -74 7
-95 -42 -38 -83 -141 -500 -156 -627 -2 -25 -11 -74 -19 -110 -25 -113 -36
-197 -43 -311 -3 -61 -11 -115 -17 -120 -6 -5 -32 -26 -57 -46 -66 -54 -188
-187 -235 -258 -47 -71 -106 -185 -124 -239 l-12 -38 -67 8 c-125 14 -193 0
-178 -39 4 -10 32 -15 105 -20 56 -3 106 -8 111 -12 16 -9 14 -130 -1 -142
-15 -11 -91 -34 -190 -59 -54 -13 -68 -20 -68 -35 0 -26 63 -25 166 2 116 31
112 32 135 -31 24 -69 84 -157 118 -175 14 -7 46 -32 71 -54 25 -22 48 -41 52
-41 4 0 27 -14 50 -30 87 -62 124 -83 267 -157 80 -42 148 -77 150 -79 5 -5 7
-50 15 -287 2 -88 7 -161 9 -164 3 -2 -1 -20 -9 -38 -8 -19 -14 -46 -14 -59 0
-14 -4 -35 -9 -48 -5 -13 -19 -54 -30 -92 -12 -38 -40 -99 -61 -137 -22 -37
-40 -71 -40 -76 0 -5 -5 -14 -11 -20 -10 -10 -56 -112 -62 -137 -1 -5 -16 -34
-34 -65 -44 -76 -93 -181 -93 -197 0 -8 -13 -33 -30 -56 -17 -22 -30 -51 -30
-62 0 -12 -8 -33 -17 -46 -28 -40 -128 -351 -121 -377 1 -4 -7 -26 -17 -48
-10 -22 -21 -67 -26 -100 -4 -33 -14 -98 -23 -144 -34 -176 -17 -475 33 -585
12 -25 21 -50 21 -57 0 -6 6 -9 13 -6 9 3 13 -5 13 -29 0 -43 29 -77 55 -63
20 10 24 3 10 -20 -33 -52 349 -338 421 -315 12 3 18 0 18 -9 0 -18 61 -48
106 -52 18 -2 38 -7 44 -10 20 -12 191 -26 340 -28 208 -3 817 12 870 21 91
15 95 12 130 -96 17 -53 48 -124 68 -157 46 -78 157 -210 204 -243 122 -88
164 -116 201 -134 23 -10 53 -25 67 -33 54 -29 185 -79 224 -86 23 -4 65 -16
95 -28 29 -11 70 -22 90 -25 20 -2 51 -9 70 -15 58 -18 281 -34 388 -27 121 7
306 52 393 96 19 10 67 33 105 53 163 83 307 270 336 440 36 208 17 329 -83
532 -34 70 -52 99 -93 150 -99 124 -141 155 -235 173 -59 12 -70 11 -120 -8
-91 -33 -134 -99 -126 -195 6 -81 23 -114 107 -201 76 -79 119 -157 119 -217
0 -23 4 -36 10 -32 6 3 10 -3 10 -14 0 -11 -4 -22 -8 -25 -5 -3 -14 -30 -22
-60 -26 -109 -126 -200 -281 -256 -65 -23 -114 -33 -214 -41 l-130 -11 -145
37 c-133 35 -175 49 -266 92 -31 14 -100 67 -158 120 -75 70 -194 273 -158
273 25 0 159 33 169 42 7 5 19 8 27 5 18 -7 172 69 220 109 19 16 49 40 66 53
17 13 42 40 55 61 13 20 37 52 54 71 17 18 31 40 31 47 0 8 6 26 14 40 41 77
66 139 66 164 0 16 7 42 15 59 21 40 35 120 25 140 -6 9 -5 20 1 26 6 6 7 30
1 64 -4 30 -5 68 -1 84 12 44 -33 305 -66 380 -7 17 -19 53 -25 80 -13 48 -82
200 -101 220 -5 5 -9 21 -9 36 0 15 -16 53 -35 84 -19 32 -42 79 -52 104 -10
25 -31 71 -47 101 -16 30 -51 98 -78 150 -26 52 -55 98 -63 102 -8 5 -12 14
-9 21 2 7 -9 34 -26 60 -16 26 -30 51 -30 55 0 13 -76 156 -104 197 -15 22
-66 117 -112 210 -46 94 -88 177 -93 185 -5 8 -24 49 -42 90 -18 41 -50 111
-71 155 -21 44 -38 87 -38 95 0 8 -12 35 -26 60 -23 40 -57 124 -71 175 -3 11
-10 26 -16 33 -34 44 -27 216 15 337 6 17 10 38 9 48 -1 33 -1 42 2 62 2 11 6
25 9 31 8 13 9 224 1 237 -3 6 -7 53 -9 106 -2 91 -22 253 -43 351 -6 25 -15
72 -22 105 -6 33 -19 83 -29 110 -33 95 -63 180 -80 230 -10 28 -29 74 -44
104 -14 30 -26 59 -26 64 0 7 -61 154 -202 485 -47 111 -125 167 -148 107z
m-1123 -1306 c25 -16 44 -41 65 -88 38 -82 40 -97 27 -196 -21 -162 -103 -273
-215 -291 -34 -5 -45 -2 -71 20 -54 46 -74 102 -74 209 -1 130 15 186 74 276
20 30 45 50 81 67 63 29 70 29 113 3z m761 -31 c55 -45 75 -92 77 -186 1 -66
-3 -89 -31 -159 -41 -107 -104 -182 -171 -206 -172 -62 -276 58 -241 278 29
179 142 305 274 305 44 0 58 -5 92 -32z m491 -559 c17 -6 31 -14 31 -17 -1
-25 -25 -30 -165 -33 -145 -4 -150 -3 -150 16 0 15 11 23 45 32 58 15 198 16
239 2z m-211 -203 c57 -20 223 -103 243 -122 21 -19 14 -44 -13 -44 -19 0 -58
17 -68 29 -3 3 -18 11 -35 18 -176 69 -220 91 -223 111 -3 18 2 22 26 22 16 0
48 -6 70 -14z"/>
<path d="M2231 8285 c-61 -56 -86 -139 -78 -267 11 -175 72 -220 178 -130 61
52 89 119 88 212 0 105 -24 170 -69 192 -69 32 -76 32 -119 -7z"/>
<path d="M2939 8280 c-90 -56 -147 -213 -119 -325 18 -73 35 -101 70 -115 44
-18 98 -6 136 31 52 50 98 151 102 225 6 93 -4 130 -47 175 -47 48 -78 50
-142 9z"/>
</g>
</svg>
