<?xml version="1.0" standalone="no"?>
<!DOCTYPE svg PUBLIC "-//W3C//DTD SVG 20010904//EN"
 "http://www.w3.org/TR/2001/REC-SVG-20010904/DTD/svg10.dtd">
<svg version="1.0" xmlns="http://www.w3.org/2000/svg"
 width="704.000000pt" height="1280.000000pt" viewBox="0 0 704.000000 1280.000000"
 preserveAspectRatio="xMidYMid meet">
<metadata>
Created by potrace 1.16, written by Peter Selinger 2001-2019
</metadata>
<g transform="translate(0.000000,1280.000000) scale(0.100000,-0.100000)"
fill="#000000" stroke="none">
<path d="M3503 9678 c-25 -27 -67 -119 -76 -168 -12 -61 -88 -313 -108 -359
-11 -23 -29 -70 -41 -103 -11 -33 -27 -72 -34 -87 -8 -14 -14 -34 -14 -44 0
-10 -11 -40 -25 -67 l-25 -50 -51 0 c-28 0 -60 -5 -71 -11 -15 -8 -22 -8 -28
1 -8 13 -55 10 -107 -5 -19 -6 -23 -1 -38 52 -9 32 -22 64 -27 71 -6 7 -12 27
-14 45 -3 43 -52 185 -75 219 -11 14 -19 38 -19 52 0 14 -13 56 -30 93 -16 38
-34 86 -40 108 -19 71 -93 206 -122 223 -66 39 -101 -26 -163 -298 -14 -58
-32 -133 -40 -168 -53 -215 -123 -660 -110 -709 4 -17 -4 -30 -32 -55 -65 -55
-214 -211 -254 -263 -46 -62 -123 -206 -140 -263 l-12 -43 -111 7 c-90 5 -115
3 -131 -9 -16 -13 -17 -17 -6 -31 10 -11 31 -16 75 -17 33 0 81 -4 106 -7 42
-7 45 -9 45 -37 0 -17 -3 -40 -7 -52 -4 -12 -3 -25 2 -28 34 -21 -44 -59 -187
-91 -66 -15 -83 -22 -83 -36 0 -10 6 -18 13 -19 46 -3 112 6 181 26 45 13 84
21 88 17 4 -4 16 -31 28 -61 30 -77 73 -135 133 -180 29 -21 61 -48 71 -60 11
-11 24 -21 30 -21 12 0 86 -49 101 -67 14 -17 261 -150 315 -170 25 -9 49 -19
53 -23 7 -6 15 -144 21 -367 1 -45 5 -85 8 -88 4 -4 0 -22 -8 -40 -8 -19 -14
-45 -14 -57 0 -33 -74 -241 -97 -275 -38 -55 -122 -227 -124 -254 0 -8 -14
-34 -29 -59 -59 -91 -84 -144 -89 -191 -1 -3 -14 -23 -31 -44 -17 -21 -30 -48
-30 -60 0 -12 -9 -34 -20 -48 -11 -14 -20 -32 -20 -39 0 -8 -15 -57 -33 -109
-35 -99 -67 -209 -72 -244 -1 -11 -8 -33 -15 -50 -7 -16 -16 -55 -20 -85 -4
-30 -15 -91 -24 -135 -37 -179 -22 -479 29 -600 7 -16 16 -38 19 -49 4 -10 12
-16 20 -13 11 5 13 -1 9 -26 -3 -23 1 -39 15 -57 18 -22 23 -23 41 -12 24 14
28 1 6 -18 -9 -7 -24 -9 -37 -5 -42 12 -132 16 -152 7 -101 -47 -156 -78 -156
-88 0 -7 -20 -32 -45 -55 -25 -24 -43 -49 -41 -55 3 -7 -3 -15 -12 -18 -23 -8
-44 -52 -76 -156 -64 -210 -16 -389 151 -555 63 -63 232 -164 308 -184 22 -6
49 -17 60 -25 11 -8 30 -12 42 -9 13 3 44 0 70 -6 120 -29 348 -31 533 -5 118
16 336 66 370 84 10 5 30 10 44 10 14 0 40 6 58 14 88 38 107 45 157 60 146
43 450 205 710 379 52 34 161 146 161 164 0 7 4 13 8 13 5 0 29 15 53 34 31
25 58 36 93 41 93 11 359 77 381 95 6 4 27 18 49 29 67 38 176 133 201 176 14
22 36 52 50 65 14 13 25 28 25 34 0 6 18 47 40 91 22 44 43 100 47 125 3 25
10 50 14 56 13 17 30 113 29 169 -1 28 -1 62 -1 78 0 15 -4 27 -9 27 -4 0 -3
13 3 30 19 50 -19 288 -63 395 -4 11 -16 47 -25 80 -20 70 -47 132 -80 185
-13 21 -27 51 -31 67 -6 27 -55 133 -139 303 -23 47 -49 85 -56 85 -8 0 -16
15 -19 35 -8 45 -39 110 -57 117 -7 3 -13 14 -13 25 0 11 -13 40 -30 65 -16
24 -30 48 -30 54 0 16 -69 147 -109 208 -20 31 -70 126 -110 211 -40 85 -79
162 -87 171 -8 8 -14 21 -14 27 0 7 -29 71 -65 143 -36 71 -65 138 -65 148 0
10 -13 43 -30 74 -16 31 -39 84 -51 119 -12 35 -29 77 -37 93 -26 50 -27 177
-2 275 24 95 27 120 36 309 5 106 3 135 -7 142 -12 8 -12 10 0 18 7 5 11 17 8
27 -3 11 -9 57 -12 104 -7 107 -21 208 -40 285 -7 33 -17 80 -21 105 -6 42
-25 110 -43 155 -5 11 -14 38 -20 60 -18 57 -48 137 -86 230 -18 44 -48 116
-65 160 -18 44 -43 105 -57 135 -14 30 -50 115 -80 189 -63 156 -76 177 -114
197 -38 19 -52 18 -76 -8z m-1112 -1341 c17 -18 42 -60 55 -92 57 -140 1 -357
-113 -435 -49 -34 -120 -38 -156 -10 -66 52 -90 172 -63 313 23 119 78 205
150 237 62 28 91 25 127 -13z m730 -3 c21 -14 49 -43 64 -64 26 -37 27 -43 23
-147 -5 -127 -27 -194 -90 -274 -28 -36 -56 -58 -94 -75 -86 -38 -141 -30
-202 29 -40 39 -52 80 -52 183 0 166 74 306 185 348 86 32 120 32 166 0z m539
-563 c20 -33 0 -41 -105 -41 -56 0 -123 -3 -148 -6 -38 -6 -48 -4 -53 10 -4
10 -2 22 3 27 29 29 286 37 303 10z m-216 -205 c87 -33 207 -93 230 -116 37
-36 -17 -56 -64 -23 -14 10 -45 25 -70 34 -60 22 -171 68 -190 78 -8 4 -16 18
-18 30 -5 29 29 28 112 -3z m-1248 -3647 c10 -12 35 -29 55 -39 19 -10 41 -26
48 -34 24 -29 121 -78 142 -73 15 4 19 2 15 -9 -4 -10 3 -14 24 -14 17 0 30
-5 30 -11 0 -13 57 -37 107 -45 21 -3 42 -8 46 -11 10 -6 160 -23 257 -29 41
-2 157 -2 258 2 146 5 182 9 182 20 0 8 5 14 10 14 6 0 10 -7 10 -15 0 -9 9
-15 24 -15 29 0 81 -18 74 -26 -3 -2 -18 -6 -34 -8 -16 -2 -74 -26 -129 -53
-55 -28 -127 -60 -160 -72 -33 -13 -72 -29 -86 -36 -14 -8 -43 -19 -65 -24
-21 -6 -79 -22 -129 -37 -49 -14 -119 -32 -155 -39 -36 -8 -90 -19 -120 -26
-63 -13 -274 -6 -355 13 -27 6 -62 11 -77 11 -15 0 -25 4 -22 8 2 4 -9 15 -25
24 -31 16 -121 103 -121 117 0 5 -9 8 -20 8 -17 0 -19 3 -10 19 5 11 10 33 10
49 0 39 45 117 82 145 44 32 68 79 70 133 1 30 8 54 18 61 21 17 24 16 46 -8z"/>
<path d="M2232 8280 c-89 -54 -130 -294 -70 -402 24 -43 45 -52 91 -43 51 12
89 43 82 68 -4 15 -3 18 3 9 7 -10 12 -8 25 6 51 57 60 220 16 309 -20 41 -28
48 -50 45 -14 -2 -31 4 -39 12 -16 20 -18 20 -58 -4z"/>
<path d="M2951 8280 c-79 -36 -126 -111 -142 -225 -16 -116 6 -196 61 -229 74
-43 154 3 215 125 49 95 55 219 14 260 -11 11 -19 26 -19 34 0 15 -55 55 -75
55 -5 0 -30 -9 -54 -20z"/>
</g>
</svg>
