<?xml version="1.0" standalone="no"?>
<!DOCTYPE svg PUBLIC "-//W3C//DTD SVG 20010904//EN"
 "http://www.w3.org/TR/2001/REC-SVG-20010904/DTD/svg10.dtd">
<svg version="1.0" xmlns="http://www.w3.org/2000/svg"
 width="704.000000pt" height="1280.000000pt" viewBox="0 0 704.000000 1280.000000"
 preserveAspectRatio="xMidYMid meet">
<metadata>
Created by potrace 1.16, written by Peter Selinger 2001-2019
</metadata>
<g transform="translate(0.000000,1280.000000) scale(0.100000,-0.100000)"
fill="#000000" stroke="none">
<path d="M3498 9668 c-33 -51 -52 -97 -74 -178 -13 -47 -33 -116 -45 -155 -11
-38 -27 -90 -34 -115 -13 -42 -23 -69 -77 -205 -11 -27 -25 -63 -30 -80 -6
-16 -21 -54 -34 -82 l-24 -53 -51 0 c-27 0 -60 -5 -72 -11 -16 -9 -22 -9 -25
0 -5 15 -59 13 -97 -3 l-30 -13 -23 66 c-13 36 -27 85 -32 108 -5 24 -16 55
-23 70 -8 16 -18 44 -22 63 -4 19 -18 55 -31 79 -13 24 -24 54 -24 66 0 20 -9
44 -50 140 -5 11 -11 33 -15 48 -3 16 -26 70 -50 121 -42 90 -68 116 -110 116
-19 0 -64 -56 -71 -88 -3 -15 -15 -54 -25 -88 -26 -80 -69 -278 -124 -569 -37
-195 -46 -254 -50 -359 -3 -60 -6 -110 -8 -111 -16 -6 -138 -115 -190 -169
-92 -96 -203 -272 -232 -370 l-12 -41 -49 2 c-163 5 -177 4 -192 -10 -30 -31
-8 -47 65 -48 37 0 86 -3 108 -7 l40 -7 0 -70 c-1 -65 -3 -71 -27 -83 -22 -10
-116 -35 -215 -57 -15 -4 -23 -13 -23 -25 0 -17 7 -20 49 -20 27 0 88 11 136
25 48 14 90 23 93 20 3 -3 13 -28 23 -56 23 -65 85 -156 119 -175 14 -7 45
-31 70 -53 25 -23 53 -41 63 -41 9 0 17 -4 17 -8 0 -8 114 -92 124 -92 3 0 34
-17 68 -38 73 -45 213 -112 234 -112 8 0 15 -11 16 -27 2 -53 7 -149 12 -288
3 -77 6 -147 8 -155 1 -8 -3 -35 -11 -60 -7 -25 -17 -63 -23 -85 -5 -22 -16
-55 -24 -73 -8 -18 -14 -42 -14 -53 0 -11 -15 -43 -33 -72 -46 -72 -139 -266
-132 -277 3 -5 1 -11 -5 -15 -9 -6 -23 -30 -87 -149 -12 -22 -22 -53 -22 -67
-1 -14 -10 -34 -22 -45 -26 -24 -49 -67 -49 -92 0 -11 -6 -25 -14 -31 -8 -7
-19 -31 -25 -54 -5 -23 -21 -73 -36 -111 -27 -73 -63 -193 -70 -238 -2 -15 -9
-38 -16 -50 -7 -12 -15 -49 -20 -83 -4 -33 -14 -96 -23 -140 -34 -178 -13
-496 40 -597 8 -14 14 -34 14 -43 0 -11 5 -15 16 -11 12 4 14 1 9 -14 -12 -38
30 -92 66 -83 20 5 22 3 12 -8 -24 -25 -13 -45 55 -107 129 -117 313 -230 354
-216 12 3 18 0 18 -9 0 -16 84 -56 116 -56 10 0 42 -5 69 -10 120 -24 211 -30
370 -26 94 2 296 6 450 9 250 4 490 18 537 32 11 3 29 -6 46 -23 191 -186 318
-269 527 -348 200 -75 440 -99 685 -67 41 5 100 19 130 31 30 11 62 21 71 21
30 0 214 100 276 150 123 99 193 209 233 365 18 66 20 99 16 188 -5 105 -10
131 -46 232 -26 72 -27 76 -60 125 -16 25 -38 64 -49 86 -11 23 -31 60 -45 83
-39 62 -77 187 -77 256 0 71 37 174 78 217 15 15 24 28 20 28 -12 0 44 50 71
64 16 8 47 35 69 59 44 48 62 109 49 165 -4 15 -8 41 -9 57 -4 47 -41 90 -98
114 -28 12 -58 22 -67 21 -10 0 -40 0 -69 0 -122 2 -327 -162 -413 -329 -22
-44 -50 -129 -55 -166 -2 -11 -8 -33 -14 -48 -18 -47 -13 -215 9 -302 27 -106
77 -228 116 -285 45 -65 104 -185 120 -245 17 -63 18 -136 1 -202 -16 -62 -78
-160 -121 -190 -48 -35 -168 -93 -177 -87 -5 3 -32 -2 -60 -10 -69 -21 -249
-16 -351 9 -43 10 -78 23 -78 27 0 4 -8 8 -18 8 -20 0 -112 55 -112 67 0 5 38
27 84 50 46 22 117 67 158 100 79 62 107 100 85 116 -9 6 -8 7 3 4 8 -2 32 15
52 37 33 35 43 53 40 77 -1 4 8 15 18 24 11 10 20 25 20 34 0 9 7 24 15 35 8
10 17 39 21 65 4 25 15 62 24 81 19 38 29 118 16 138 -4 7 -4 17 0 24 11 18
12 101 2 115 -6 7 -6 19 -1 30 10 20 10 24 -7 143 -10 78 -44 223 -56 242 -3
4 -12 34 -20 65 -18 71 -45 137 -84 204 -17 27 -30 58 -30 67 0 9 -20 57 -45
107 -25 49 -45 94 -45 101 0 6 -7 17 -15 24 -8 7 -15 18 -15 26 0 7 -16 42
-35 76 -20 35 -40 70 -44 78 -5 8 -21 40 -37 70 -15 30 -33 59 -41 63 -7 4
-13 18 -13 31 0 13 -13 40 -30 61 -16 21 -30 44 -30 51 0 22 -50 124 -96 195
-23 36 -77 136 -118 222 -41 85 -80 158 -86 162 -5 3 -10 13 -10 21 0 8 -29
75 -65 149 -36 75 -65 141 -65 149 0 8 -14 40 -31 72 -17 33 -38 79 -46 104
-8 25 -27 69 -41 99 -20 45 -25 69 -25 140 -1 84 19 198 40 236 7 12 8 28 2
43 -6 16 -6 29 1 37 5 6 7 15 3 18 -3 4 -1 12 5 19 11 14 14 216 4 233 -4 6
-8 51 -9 100 -2 96 -28 320 -43 370 -5 17 -14 57 -21 90 -19 93 -94 318 -156
465 -19 47 -51 123 -70 170 -37 89 -95 226 -166 391 -39 90 -115 129 -149 77z
m-1102 -1310 c54 -48 85 -126 86 -218 0 -41 -2 -82 -5 -90 -2 -8 -11 -35 -18
-60 -44 -145 -198 -241 -274 -170 -49 46 -65 91 -65 186 0 133 16 204 61 275
32 48 50 65 92 84 67 32 79 31 123 -7z m735 -9 c13 -12 31 -26 40 -33 58 -41
73 -193 29 -311 -33 -89 -36 -94 -89 -150 -128 -137 -293 -106 -330 62 -25
117 27 306 107 385 65 64 195 89 243 47z m524 -580 c28 -28 -3 -36 -152 -41
-119 -4 -143 -2 -148 10 -3 9 -2 19 2 23 31 31 269 37 298 8z m-227 -193 c65
-23 230 -108 248 -127 33 -37 -20 -54 -66 -21 -14 9 -38 22 -55 29 -95 36
-211 86 -219 93 -15 15 2 40 27 40 14 0 43 -6 65 -14z"/>
<path d="M2265 8306 c-44 -20 -73 -56 -96 -122 -18 -50 -20 -74 -16 -155 5
-99 18 -139 56 -173 42 -39 143 20 185 109 22 47 26 69 26 145 0 49 -5 102
-12 117 -18 42 -49 73 -73 73 -11 0 -25 4 -30 9 -6 6 -22 5 -40 -3z"/>
<path d="M2939 8281 c-62 -38 -103 -113 -119 -214 -11 -68 -11 -84 4 -131 10
-30 29 -67 44 -81 23 -24 33 -27 75 -22 61 5 102 43 148 134 24 48 34 82 37
129 6 93 -3 125 -48 172 -49 51 -78 54 -141 13z"/>
</g>
</svg>
