<?xml version="1.0" standalone="no"?>
<!DOCTYPE svg PUBLIC "-//W3C//DTD SVG 20010904//EN"
 "http://www.w3.org/TR/2001/REC-SVG-20010904/DTD/svg10.dtd">
<svg version="1.0" xmlns="http://www.w3.org/2000/svg"
 width="704.000000pt" height="1280.000000pt" viewBox="0 0 704.000000 1280.000000"
 preserveAspectRatio="xMidYMid meet">
<metadata>
Created by potrace 1.16, written by Peter Selinger 2001-2019
</metadata>
<g transform="translate(0.000000,1280.000000) scale(0.100000,-0.100000)"
fill="#000000" stroke="none">
<path d="M3491 9660 c-17 -24 -38 -66 -46 -94 -8 -28 -30 -105 -49 -171 -19
-66 -59 -187 -89 -270 -30 -82 -60 -166 -67 -185 -27 -74 -44 -115 -53 -127
-5 -7 -32 -13 -61 -14 -28 0 -60 -4 -71 -9 -13 -5 -26 -3 -37 7 -15 13 -22 13
-62 -2 -24 -9 -49 -14 -54 -11 -5 3 -13 23 -17 43 -4 21 -12 52 -19 68 -7 17
-25 71 -40 120 -15 50 -38 113 -51 140 -14 28 -25 60 -25 72 0 21 -10 47 -46
128 -7 17 -18 48 -23 71 -17 67 -88 200 -117 219 -40 26 -77 6 -103 -55 -12
-27 -21 -53 -21 -58 0 -5 -9 -38 -20 -73 -29 -93 -112 -483 -108 -509 1 -8 -4
-33 -11 -55 -19 -63 -49 -272 -55 -388 -4 -67 -5 -69 -47 -104 -69 -57 -215
-209 -248 -258 -47 -70 -118 -205 -132 -253 l-12 -43 -111 7 c-120 6 -154 -3
-140 -39 5 -14 19 -17 78 -17 65 0 141 -12 152 -23 3 -2 2 -34 -2 -70 -6 -64
-8 -66 -43 -80 -20 -8 -80 -25 -133 -38 -75 -18 -98 -28 -98 -40 0 -9 6 -19
13 -22 21 -8 140 11 201 33 33 11 63 17 67 13 4 -5 17 -32 29 -62 30 -77 72
-134 138 -185 32 -24 64 -51 71 -60 7 -9 20 -16 28 -16 13 0 30 -12 90 -60 41
-33 320 -184 374 -202 11 -4 19 -114 23 -320 1 -70 5 -130 8 -133 3 -4 0 -22
-8 -40 -8 -19 -14 -44 -14 -56 0 -56 -58 -205 -128 -329 -21 -36 -50 -96 -65
-135 -16 -38 -33 -77 -38 -85 -5 -8 -14 -26 -19 -39 -6 -13 -19 -34 -29 -47
-10 -13 -29 -52 -41 -86 -13 -35 -36 -81 -52 -102 -15 -22 -28 -49 -28 -61 0
-11 -7 -31 -17 -44 -9 -13 -31 -67 -49 -119 -19 -53 -39 -102 -46 -109 -7 -7
-35 -14 -63 -17 -96 -9 -247 -98 -232 -138 2 -7 -3 -21 -12 -32 -20 -22 -22
-115 -3 -136 7 -8 22 -30 35 -49 26 -39 101 -82 147 -83 l32 -1 -7 -56 c-22
-195 -5 -416 40 -516 7 -16 15 -39 17 -50 2 -11 11 -19 19 -19 11 1 14 -6 11
-22 -6 -34 23 -74 53 -74 22 0 23 -3 15 -24 -8 -21 -2 -30 47 -77 l57 -54 1
-130 c2 -151 20 -222 89 -340 51 -88 176 -214 247 -249 30 -15 72 -38 94 -51
22 -14 60 -32 85 -41 25 -9 66 -25 92 -35 26 -10 61 -19 78 -19 17 0 39 -4 48
-9 69 -37 448 -44 612 -12 42 9 100 24 215 57 28 8 66 19 86 24 20 5 63 25 97
44 33 18 75 39 94 45 18 6 52 26 75 44 23 17 59 45 80 61 99 77 182 185 250
326 20 41 37 77 39 79 2 2 29 9 61 16 178 39 263 74 344 140 59 48 119 107
119 116 0 4 16 25 35 46 19 21 42 54 51 73 9 19 30 62 46 94 16 32 34 84 40
115 5 31 15 62 20 69 18 21 29 114 16 130 -9 10 -9 15 0 21 14 8 12 102 -2
112 -4 4 -3 17 4 29 13 25 5 166 -11 175 -4 3 -8 20 -8 38 1 30 -19 119 -40
177 -5 14 -14 45 -21 70 -20 67 -51 140 -82 189 -15 25 -28 54 -28 65 0 24
-141 312 -187 382 -18 28 -33 57 -33 64 0 18 -52 110 -62 110 -4 0 -8 8 -8 18
0 10 -13 39 -30 65 -16 26 -30 51 -30 56 0 16 -68 147 -107 206 -22 33 -70
125 -108 205 -37 80 -76 157 -86 172 -11 14 -19 31 -19 37 0 5 -29 70 -64 143
-35 73 -67 147 -71 163 -3 17 -20 51 -36 78 -16 26 -29 53 -29 59 0 13 -48
137 -59 153 -21 30 1 276 30 348 9 21 9 31 -1 42 -10 12 -10 18 1 31 19 23 25
274 8 285 -9 5 -10 11 -2 21 8 8 8 28 3 58 -4 25 -6 48 -4 52 5 7 -21 209 -35
273 -5 22 -16 76 -25 120 -16 79 -30 132 -46 170 -4 11 -14 40 -21 65 -7 25
-20 63 -29 85 -9 22 -22 54 -27 70 -16 44 -72 185 -87 220 -8 17 -26 59 -41
95 -16 36 -38 88 -50 115 -13 28 -42 98 -66 157 -48 121 -80 165 -126 174 -28
6 -34 2 -62 -36z m-1121 -1307 c57 -33 103 -147 101 -251 -4 -222 -186 -396
-306 -291 -46 41 -62 99 -59 214 4 164 58 275 158 321 61 28 70 29 106 7z
m766 -32 c66 -56 69 -66 69 -191 0 -97 -4 -124 -23 -173 -74 -182 -253 -264
-360 -164 -44 40 -53 73 -53 173 1 196 74 330 203 375 66 23 121 17 164 -20z
m524 -547 c6 -6 8 -18 4 -27 -5 -15 -23 -17 -118 -18 -61 0 -129 -1 -151 -2
-34 -2 -40 1 -40 18 0 15 11 23 45 32 53 15 245 12 260 -3z m-161 -232 c145
-62 201 -98 186 -122 -10 -16 -50 -12 -78 10 -14 11 -30 20 -36 20 -6 0 -39
13 -73 29 -35 15 -81 34 -103 41 -50 16 -75 37 -68 57 9 22 68 10 172 -35z
m-683 -3883 c5 -8 89 -10 303 -5 163 4 401 8 530 10 l233 4 -42 -40 c-24 -23
-89 -62 -153 -93 -141 -67 -218 -80 -452 -79 -155 1 -177 4 -246 27 -131 45
-197 88 -258 170 -12 16 -10 17 32 17 25 0 49 -5 53 -11z"/>
<path d="M2244 8289 c-55 -20 -97 -111 -110 -240 -12 -116 36 -221 101 -221
31 0 113 51 97 61 -7 4 -8 12 -2 21 7 10 10 11 10 3 0 -30 23 -9 47 43 23 52
25 65 20 140 -8 114 -53 213 -78 173 -5 -8 -9 -9 -9 -4 0 16 -54 33 -76 24z"/>
<path d="M2935 8274 c-38 -19 -101 -104 -117 -158 -6 -22 -12 -79 -12 -126 0
-72 4 -92 23 -123 28 -45 48 -57 99 -57 104 0 218 201 192 341 -9 44 -48 115
-73 131 -19 12 -80 8 -112 -8z"/>
</g>
</svg>
