<?xml version="1.0" standalone="no"?>
<!DOCTYPE svg PUBLIC "-//W3C//DTD SVG 20010904//EN"
 "http://www.w3.org/TR/2001/REC-SVG-20010904/DTD/svg10.dtd">
<svg version="1.0" xmlns="http://www.w3.org/2000/svg"
 width="704.000000pt" height="1280.000000pt" viewBox="0 0 704.000000 1280.000000"
 preserveAspectRatio="xMidYMid meet">
<metadata>
Created by potrace 1.16, written by Peter Selinger 2001-2019
</metadata>
<g transform="translate(0.000000,1280.000000) scale(0.100000,-0.100000)"
fill="#000000" stroke="none">
<path d="M3509 9689 c-28 -28 -65 -114 -83 -191 -18 -78 -90 -307 -116 -368
-10 -25 -24 -63 -31 -85 -7 -22 -20 -56 -30 -75 -11 -19 -19 -44 -19 -55 0
-11 -9 -37 -20 -58 -11 -21 -18 -42 -15 -47 3 -5 -20 -8 -50 -7 -30 2 -65 -3
-77 -9 -17 -9 -27 -8 -49 5 -22 12 -31 13 -51 3 -12 -6 -34 -13 -47 -14 -20
-3 -25 3 -37 51 -8 30 -18 59 -23 65 -5 6 -11 27 -14 46 -7 44 -49 165 -76
218 -12 23 -21 50 -21 60 0 11 -14 55 -30 98 -17 44 -40 104 -52 134 -11 30
-29 70 -39 88 -11 18 -19 39 -19 47 0 8 -16 26 -35 41 -80 61 -112 11 -181
-286 -64 -274 -77 -334 -78 -373 -1 -23 -4 -46 -8 -52 -3 -5 -11 -39 -17 -75
-7 -36 -16 -85 -21 -110 -14 -72 -33 -243 -29 -270 3 -20 -13 -39 -93 -112
-139 -126 -212 -219 -281 -353 -20 -38 -42 -89 -49 -112 l-13 -43 -110 6 c-89
5 -114 3 -130 -9 -16 -13 -17 -17 -6 -31 10 -11 31 -16 75 -17 33 0 81 -4 106
-7 38 -6 44 -10 43 -29 0 -13 -1 -43 -2 -68 -1 -58 -18 -69 -161 -103 -98 -24
-110 -29 -108 -47 3 -18 9 -20 58 -17 29 2 90 14 135 27 44 13 83 21 86 17 3
-4 14 -31 25 -59 23 -69 74 -135 149 -194 77 -62 144 -109 154 -109 5 0 14 -6
20 -14 19 -23 210 -132 301 -171 47 -21 86 -38 87 -40 4 -2 15 -244 17 -357 0
-47 4 -89 8 -93 3 -4 0 -22 -8 -40 -8 -19 -14 -44 -14 -56 0 -25 -14 -73 -39
-133 -12 -30 -13 -40 -3 -44 6 -2 12 -8 12 -13 0 -6 -4 -7 -10 -4 -5 3 -18
-11 -27 -32 -10 -20 -25 -44 -33 -53 -8 -8 -33 -51 -54 -95 -21 -44 -45 -92
-53 -107 -7 -14 -13 -34 -13 -43 0 -9 -8 -29 -17 -43 -37 -55 -44 -68 -73
-127 -17 -33 -30 -66 -30 -73 0 -7 -16 -35 -35 -63 -19 -28 -35 -61 -35 -74 0
-12 -7 -28 -15 -35 -8 -7 -15 -19 -15 -26 0 -8 -16 -60 -35 -116 -35 -101 -64
-204 -70 -243 -1 -11 -8 -33 -15 -50 -7 -16 -16 -55 -20 -85 -4 -30 -15 -90
-25 -134 -9 -43 -15 -91 -13 -107 l5 -29 -136 0 c-149 0 -266 -17 -308 -46
-16 -10 -30 -19 -33 -19 -104 -16 -275 -190 -338 -345 -45 -107 -56 -301 -26
-422 23 -91 97 -240 141 -283 77 -75 193 -101 268 -61 17 9 35 16 41 16 20 0
48 41 60 86 15 59 11 164 -7 175 -7 4 -11 11 -7 14 3 4 -13 46 -36 93 -63 128
-65 150 -21 236 48 93 51 97 114 126 46 21 69 25 145 24 136 0 174 -21 200
-107 3 -10 9 -16 14 -14 4 3 8 -8 8 -24 2 -37 30 -69 59 -69 18 0 22 -5 19
-26 -2 -23 44 -91 69 -102 4 -2 20 -16 35 -32 66 -67 276 -188 306 -177 7 3
18 -3 24 -13 6 -10 35 -25 64 -34 29 -9 76 -24 103 -33 28 -9 61 -16 74 -15
16 1 22 -2 18 -12 -3 -8 5 -18 19 -25 15 -7 23 -7 19 -1 -3 5 1 10 9 10 9 0
13 -6 10 -15 -6 -13 18 -27 163 -91 17 -8 41 -14 52 -14 12 0 38 -7 58 -15 19
-8 60 -15 90 -15 34 0 52 -4 48 -10 -9 -15 68 -12 84 3 11 10 13 10 7 0 -6
-10 12 -13 76 -13 88 0 131 7 123 20 -8 13 68 22 95 12 30 -11 139 9 171 32
12 8 27 12 34 10 16 -6 225 93 225 106 0 6 8 10 19 10 10 0 24 7 31 14 6 8 36
20 66 27 30 7 57 16 60 20 3 5 13 4 22 -2 13 -8 58 -4 176 16 87 14 166 30
175 35 9 5 33 12 53 15 53 8 180 77 254 137 64 52 67 56 65 93 -1 18 0 18 7 2
6 -15 13 -11 42 29 38 51 51 73 74 119 49 102 58 124 66 165 5 25 16 61 24 81
19 46 30 187 15 205 -7 9 -7 19 1 33 9 17 8 21 -5 21 -19 0 -20 26 -1 37 11 7
11 28 -4 133 -18 123 -28 167 -69 305 -28 93 -55 155 -92 211 -18 25 -31 58
-31 72 0 15 -8 38 -18 52 -9 14 -39 75 -66 135 -26 61 -62 133 -80 161 -17 28
-41 72 -53 99 -12 27 -33 63 -46 81 -14 18 -25 37 -25 42 0 15 -30 69 -45 82
-8 7 -15 20 -15 30 0 22 -67 160 -90 185 -17 18 -105 190 -293 577 -37 75 -67
145 -67 155 0 10 -13 42 -29 71 -17 29 -37 76 -47 105 -9 29 -26 70 -37 92
-35 69 -26 287 16 373 8 17 8 28 0 41 -9 14 -8 22 5 35 15 15 15 18 2 26 -12
8 -12 10 -1 10 12 0 13 34 7 210 -8 291 -56 594 -115 735 -5 11 -14 40 -20 65
-7 25 -20 65 -31 90 -10 25 -44 108 -74 185 -122 309 -242 585 -268 612 -11
12 -34 26 -50 32 -24 9 -32 7 -49 -10z m-1124 -1341 c15 -12 41 -51 57 -87 58
-130 30 -303 -68 -411 -88 -97 -192 -92 -245 12 -30 58 -30 226 0 318 24 78
77 145 135 170 55 25 88 24 121 -2z m761 -30 c61 -56 72 -87 69 -189 -5 -172
-95 -324 -216 -364 -70 -23 -117 -15 -166 28 -50 44 -63 81 -63 184 0 225 117
381 288 383 36 0 49 -6 88 -42z m498 -538 c25 -9 35 -34 19 -43 -5 -3 -75 -6
-158 -8 -145 -4 -150 -3 -150 16 0 15 11 23 45 32 56 14 210 16 244 3z m-200
-214 c87 -33 207 -93 230 -116 39 -38 -21 -56 -67 -20 -14 11 -30 20 -35 20
-5 0 -36 12 -68 26 -33 15 -84 35 -114 45 -57 20 -72 33 -63 56 8 19 45 16
117 -11z"/>
<path d="M2245 8290 c-106 -41 -152 -331 -68 -430 26 -31 53 -37 96 -21 33 13
67 50 61 66 -3 7 -1 16 5 20 7 4 8 -1 4 -12 -6 -17 -5 -17 15 1 36 31 56 109
48 193 -7 93 -41 176 -67 168 -10 -3 -31 0 -46 8 -17 9 -36 12 -48 7z"/>
<path d="M2942 8279 c-103 -51 -166 -230 -128 -362 37 -126 147 -143 229 -35
52 68 81 147 82 223 0 63 -3 75 -33 120 -33 49 -63 74 -92 75 -8 0 -34 -10
-58 -21z"/>
</g>
</svg>
