<?xml version="1.0" standalone="no"?>
<!DOCTYPE svg PUBLIC "-//W3C//DTD SVG 20010904//EN"
 "http://www.w3.org/TR/2001/REC-SVG-20010904/DTD/svg10.dtd">
<svg version="1.0" xmlns="http://www.w3.org/2000/svg"
 width="704.000000pt" height="1280.000000pt" viewBox="0 0 704.000000 1280.000000"
 preserveAspectRatio="xMidYMid meet">
<metadata>
Created by potrace 1.16, written by Peter Selinger 2001-2019
</metadata>
<g transform="translate(0.000000,1280.000000) scale(0.100000,-0.100000)"
fill="#000000" stroke="none">
<path d="M3505 9674 c-22 -23 -61 -103 -70 -144 -4 -19 -27 -98 -51 -176 -25
-77 -46 -150 -48 -161 -3 -11 -14 -39 -25 -61 -12 -23 -21 -48 -21 -57 0 -8
-13 -45 -30 -82 -16 -36 -30 -72 -30 -80 0 -7 -12 -36 -26 -63 -26 -50 -27
-50 -73 -49 -26 1 -57 -4 -70 -11 -19 -10 -25 -10 -31 0 -6 9 -21 11 -51 6
-83 -14 -81 -15 -95 34 -7 25 -17 59 -22 75 -6 17 -23 71 -38 120 -15 50 -37
110 -49 135 -12 25 -27 66 -34 93 -6 26 -20 66 -30 90 -11 23 -22 53 -26 67
-12 45 -50 135 -62 148 -7 7 -13 19 -13 26 0 22 -51 66 -75 66 -27 0 -73 -50
-80 -88 -3 -15 -14 -54 -24 -87 -10 -33 -23 -80 -29 -105 -58 -238 -77 -330
-88 -425 -3 -27 -7 -52 -10 -56 -17 -29 -58 -320 -55 -400 1 -46 0 -48 -66
-104 -38 -32 -72 -64 -77 -72 -4 -8 -35 -42 -67 -75 -83 -84 -173 -228 -209
-333 l-17 -50 -49 2 c-149 6 -177 4 -192 -10 -29 -30 -7 -47 60 -48 35 0 83
-4 108 -7 l45 -7 0 -64 c0 -35 -4 -70 -10 -77 -8 -11 -115 -43 -227 -68 -20
-5 -28 -13 -28 -28 0 -20 3 -21 68 -15 37 3 95 16 130 27 34 12 68 20 75 17 7
-2 18 -25 24 -49 18 -66 80 -151 148 -200 33 -25 66 -52 74 -61 7 -9 18 -17
23 -17 5 0 28 -15 51 -34 56 -45 179 -116 309 -178 85 -40 108 -56 109 -72 1
-12 3 -50 5 -86 2 -36 5 -127 7 -203 3 -76 7 -140 9 -143 3 -2 -1 -21 -8 -42
-7 -20 -13 -47 -14 -59 0 -31 -69 -234 -85 -253 -22 -25 -135 -251 -130 -259
6 -10 -24 -69 -54 -106 -24 -32 -61 -110 -61 -132 0 -7 -16 -36 -35 -64 -19
-28 -35 -58 -35 -66 0 -8 -7 -27 -15 -41 -20 -36 -48 -121 -95 -282 -22 -74
-45 -148 -51 -165 -6 -16 -15 -57 -19 -90 -4 -33 -15 -100 -24 -150 -34 -191
-12 -532 37 -581 4 -4 7 -18 7 -30 0 -13 5 -26 10 -29 6 -3 10 -1 10 6 0 8 4
8 15 -1 12 -10 13 -15 4 -20 -7 -5 -8 -17 -4 -31 11 -36 25 -49 51 -49 13 0
24 -4 24 -10 0 -5 -4 -10 -10 -10 -24 0 -5 -29 67 -97 42 -41 90 -81 107 -90
17 -9 47 -28 66 -43 19 -15 55 -38 80 -50 25 -12 53 -26 62 -31 10 -5 26 -9
37 -9 10 0 24 -7 31 -14 14 -18 98 -51 107 -43 3 4 12 2 18 -3 18 -15 201 -32
350 -33 584 -4 1211 32 1243 72 10 13 12 14 10 1 -2 -12 15 -16 92 -21 54 -4
122 -16 159 -28 43 -14 67 -18 75 -11 9 6 20 4 37 -8 18 -13 45 -17 111 -17
47 0 89 -3 93 -7 7 -7 109 -3 266 11 137 13 306 47 339 68 14 10 35 16 48 14
12 -1 64 11 115 27 147 48 198 61 259 65 35 2 65 10 76 20 23 21 32 21 32 3 0
-10 22 -16 82 -21 61 -6 94 -14 132 -35 71 -39 90 -67 88 -131 -1 -66 -32
-114 -104 -161 -53 -35 -180 -98 -197 -98 -5 0 -11 -7 -15 -15 -3 -8 -15 -15
-26 -15 -29 0 -106 -67 -130 -111 -25 -49 -35 -106 -23 -132 6 -12 19 -44 29
-72 21 -54 69 -94 137 -115 40 -12 131 -5 177 12 14 6 50 16 80 24 68 18 143
61 134 76 -4 7 -2 8 5 4 22 -14 153 76 248 168 51 49 93 96 93 103 0 7 12 23
26 36 30 25 94 157 94 194 0 13 7 40 15 60 8 19 15 51 15 70 0 51 -22 176 -33
190 -5 7 -22 39 -37 71 -42 89 -138 185 -225 227 -40 19 -81 35 -93 35 -11 0
-23 4 -26 9 -3 5 -30 14 -58 21 -29 6 -65 16 -80 22 -37 14 -285 12 -367 -2
-155 -28 -368 -90 -406 -119 -11 -9 -196 -67 -235 -74 -14 -3 -67 -14 -118
-26 -67 -15 -98 -18 -112 -11 -18 9 -17 12 16 48 18 20 34 42 34 47 0 6 18 48
40 93 22 44 40 93 40 107 0 14 10 46 21 71 20 41 22 62 22 217 0 95 -3 188 -6
207 -17 107 -42 213 -61 260 -8 19 -20 58 -27 85 -12 50 -46 125 -87 198 -12
21 -22 47 -22 58 0 12 -8 33 -18 47 -10 15 -33 61 -51 102 -47 108 -112 234
-124 242 -6 4 -15 4 -20 1 -6 -4 -7 4 -4 19 7 25 -36 128 -53 128 -4 0 -10 12
-13 28 -3 15 -19 45 -36 66 -17 21 -31 45 -31 53 0 16 -64 147 -92 185 -10 15
-58 105 -106 200 -48 95 -92 182 -99 193 -28 52 -136 293 -142 320 -5 17 -21
57 -38 90 -17 33 -41 87 -53 120 -13 33 -28 66 -33 73 -33 42 -21 292 18 362
9 17 10 31 4 43 -7 11 -6 24 1 37 6 11 8 25 5 31 -4 5 -2 15 3 22 10 12 9 194
-2 322 -3 33 -8 98 -11 145 -5 79 -14 129 -35 220 -5 19 -14 62 -20 95 -7 33
-20 85 -30 115 -10 30 -28 88 -40 128 -13 40 -27 75 -31 78 -5 3 -9 12 -9 21
0 9 -18 57 -39 107 -100 233 -158 371 -208 491 -56 137 -91 185 -137 185 -14
0 -32 -7 -41 -16z m-1120 -1304 c30 -18 54 -57 87 -140 12 -29 16 -180 6 -187
-5 -2 -8 -13 -8 -24 0 -27 -36 -96 -76 -145 -37 -46 -87 -74 -133 -74 -17 0
-31 -4 -31 -9 0 -15 -77 63 -93 94 -23 48 -27 127 -12 227 21 140 65 215 150
254 61 29 69 29 110 4z m758 -32 c59 -45 78 -88 82 -184 5 -118 -37 -223 -122
-306 -95 -93 -189 -104 -270 -32 -123 110 -51 439 116 526 76 40 136 39 194
-4z m517 -567 c21 -35 1 -41 -131 -43 -71 -1 -139 -2 -151 -2 -17 -1 -23 5
-23 19 0 30 70 45 193 42 75 -2 105 -6 112 -16z m-157 -227 c45 -19 89 -41 97
-49 8 -7 25 -16 36 -19 28 -9 58 -42 49 -55 -10 -17 -50 -13 -78 9 -14 11 -30
20 -36 20 -7 0 -31 10 -54 22 -23 12 -73 33 -112 48 -57 21 -71 30 -73 49 -4
23 -2 24 43 18 25 -4 83 -23 128 -43z"/>
<path d="M2233 8286 c-60 -52 -78 -108 -78 -241 0 -93 3 -115 21 -145 37 -64
96 -65 164 -4 60 54 80 105 80 201 0 123 -31 193 -86 193 -12 0 -24 7 -28 15
-9 23 -29 18 -73 -19z"/>
<path d="M2952 8290 c-49 -27 -66 -45 -95 -98 -58 -107 -57 -268 3 -333 97
-103 270 68 270 267 0 76 -18 122 -62 159 -35 29 -70 31 -116 5z"/>
</g>
</svg>
