<?xml version="1.0" standalone="no"?>
<!DOCTYPE svg PUBLIC "-//W3C//DTD SVG 20010904//EN"
 "http://www.w3.org/TR/2001/REC-SVG-20010904/DTD/svg10.dtd">
<svg version="1.0" xmlns="http://www.w3.org/2000/svg"
 width="704.000000pt" height="1280.000000pt" viewBox="0 0 704.000000 1280.000000"
 preserveAspectRatio="xMidYMid meet">
<metadata>
Created by potrace 1.16, written by Peter Selinger 2001-2019
</metadata>
<g transform="translate(0.000000,1280.000000) scale(0.100000,-0.100000)"
fill="#000000" stroke="none">
<path d="M3493 9657 c-18 -21 -34 -55 -43 -92 -7 -33 -17 -64 -21 -70 -4 -5
-10 -28 -14 -50 -4 -22 -16 -62 -26 -90 -10 -27 -27 -82 -37 -121 -11 -38 -29
-88 -39 -110 -11 -21 -23 -51 -27 -67 -4 -15 -18 -52 -31 -82 -14 -29 -25 -58
-25 -63 0 -5 -10 -33 -22 -61 -21 -52 -21 -53 -62 -49 -23 2 -56 -3 -75 -11
-29 -13 -34 -13 -42 1 -8 14 -16 15 -66 3 -32 -7 -58 -13 -58 -12 -28 74 -55
151 -63 182 -19 72 -62 189 -77 212 -8 12 -15 33 -15 46 0 25 -36 124 -52 141
-4 6 -8 18 -8 29 0 18 -34 109 -51 137 -5 8 -18 33 -28 55 -10 22 -30 47 -45
55 -53 28 -95 -19 -132 -145 -24 -83 -70 -288 -94 -420 -12 -60 -29 -150 -40
-200 -36 -172 -40 -196 -46 -321 -7 -121 -8 -125 -33 -139 -49 -25 -218 -203
-279 -293 -39 -57 -90 -155 -112 -214 l-21 -57 -112 6 c-96 5 -114 3 -126 -10
-26 -33 -6 -47 66 -48 37 0 86 -3 108 -7 38 -7 40 -9 38 -42 -1 -19 -2 -52 -2
-72 -1 -33 -4 -38 -43 -52 -24 -9 -65 -21 -93 -26 -108 -23 -125 -30 -125 -50
0 -17 7 -20 44 -20 24 0 86 11 137 24 51 14 96 23 100 20 3 -2 9 -18 13 -36 9
-47 82 -165 114 -185 15 -9 50 -35 77 -58 42 -35 144 -105 220 -152 64 -39
150 -84 215 -113 41 -19 79 -37 84 -41 9 -8 13 -58 21 -299 3 -85 8 -161 10
-167 2 -7 1 -13 -4 -13 -5 0 -12 -21 -16 -47 -6 -49 -17 -87 -41 -155 -8 -21
-11 -38 -7 -38 4 0 2 -5 -5 -12 -7 -7 -12 -19 -12 -28 0 -10 -13 -35 -28 -56
-25 -34 -46 -78 -110 -224 -17 -39 -14 -35 -76 -145 -24 -44 -48 -96 -54 -116
-5 -20 -24 -55 -41 -79 -17 -24 -31 -52 -31 -62 0 -11 -9 -31 -20 -45 -11 -14
-20 -33 -20 -41 0 -9 -13 -52 -29 -96 -34 -95 -71 -227 -71 -257 0 -11 -7 -34
-16 -51 -9 -18 -20 -59 -25 -92 -4 -34 -15 -108 -25 -166 -25 -158 -14 -408
22 -505 14 -38 28 -77 31 -87 3 -9 14 -19 26 -22 17 -4 18 -8 8 -20 -10 -12
-10 -20 0 -38 15 -29 28 -38 58 -38 22 0 23 -1 8 -18 -15 -16 -12 -21 32 -67
26 -28 63 -63 82 -78 51 -43 225 -157 238 -157 6 0 23 -7 36 -16 20 -13 28
-14 40 -4 12 10 15 10 15 -3 0 -8 6 -19 13 -25 21 -18 124 -42 232 -54 131
-14 462 -15 477 0 7 7 17 8 29 2 26 -14 498 -5 669 13 80 9 189 18 242 21 l98
5 52 -42 c29 -23 69 -54 88 -67 60 -42 150 -136 150 -157 0 -49 -93 -94 -221
-108 -86 -9 -592 31 -814 64 -114 17 -412 19 -510 4 -69 -11 -145 -36 -193
-64 -18 -10 -39 -19 -46 -19 -16 0 -99 -80 -139 -133 -41 -55 -61 -129 -53
-206 6 -73 30 -119 71 -141 15 -8 37 -23 47 -33 43 -41 217 10 283 83 10 11
24 20 30 20 7 0 18 7 25 15 18 22 92 53 153 63 50 9 378 8 408 -2 26 -8 144
-27 229 -36 47 -5 112 -14 145 -19 170 -28 632 -42 730 -21 28 5 73 14 100 19
71 14 153 40 160 51 3 6 15 10 27 10 31 0 138 61 179 101 55 54 81 134 81 244
0 99 -8 127 -69 223 -40 63 -109 144 -131 153 -14 5 -37 23 -107 85 -19 18
-51 42 -70 55 -19 13 -35 27 -35 31 0 4 20 21 45 39 25 18 71 66 103 107 66
87 62 80 97 157 15 33 33 72 41 87 8 14 14 39 14 55 0 15 10 48 21 73 16 34
21 69 24 145 1 55 -2 103 -7 106 -6 4 -5 22 2 48 8 32 8 57 -5 116 -8 41 -15
84 -15 96 0 21 -33 145 -49 184 -26 62 -31 78 -31 96 0 11 -20 59 -44 107 -23
48 -47 98 -51 112 -4 14 -27 67 -51 117 -24 51 -44 97 -44 102 0 5 -16 35 -35
67 -19 33 -57 103 -84 156 -28 53 -55 99 -61 103 -5 3 -10 15 -10 25 0 10 -15
38 -33 62 -19 24 -37 57 -41 74 -9 34 -62 143 -81 164 -8 9 -56 99 -108 200
-51 102 -98 194 -104 205 -24 42 -126 272 -144 323 -10 29 -29 74 -43 100 -14
26 -37 80 -52 120 -15 39 -31 72 -35 72 -4 0 -7 21 -7 48 0 26 -3 69 -6 96 -5
45 13 150 34 201 19 46 30 247 20 378 -1 12 -6 83 -11 157 -10 138 -22 228
-38 290 -5 19 -15 62 -22 95 -6 33 -18 80 -26 105 -8 25 -21 70 -29 100 -8 30
-23 73 -33 95 -9 22 -22 54 -28 70 -6 17 -57 138 -113 270 -56 132 -120 283
-141 335 -60 146 -117 184 -176 117z m-1108 -1287 c45 -28 105 -153 105 -220
0 -57 -25 -160 -50 -210 -10 -19 -42 -58 -72 -86 -44 -42 -63 -52 -102 -58
-44 -7 -51 -5 -78 21 -53 49 -68 95 -68 214 0 170 47 278 145 331 60 33 78 34
120 8z m741 -14 c7 -8 25 -23 38 -33 45 -36 64 -90 61 -178 -5 -211 -161 -397
-314 -375 -35 6 -50 15 -80 50 -44 53 -54 85 -55 170 0 88 18 161 56 229 39
69 77 107 131 132 51 22 142 25 163 5z m528 -585 c12 -10 14 -17 5 -27 -8 -10
-43 -14 -127 -14 -65 0 -130 -1 -147 -3 -40 -3 -46 26 -8 41 48 19 65 21 164
19 65 -1 101 -6 113 -16z m-224 -196 c68 -24 227 -106 246 -126 33 -37 -20
-54 -66 -22 -29 21 -109 56 -197 88 -72 26 -94 41 -86 61 7 18 49 18 103 -1z"/>
<path d="M2264 8305 c-84 -35 -127 -160 -110 -319 10 -92 37 -130 95 -134 41
-3 47 0 92 48 27 27 56 67 65 88 32 76 10 255 -36 297 -18 16 -23 17 -30 5 -8
-12 -10 -12 -15 2 -9 24 -27 28 -61 13z"/>
<path d="M2955 8293 c-48 -25 -70 -49 -97 -111 -42 -92 -54 -162 -38 -227 18
-74 61 -125 105 -125 56 0 82 16 129 80 81 110 102 239 51 325 -43 74 -87 91
-150 58z"/>
</g>
</svg>
