<?xml version="1.0" standalone="no"?>
<!DOCTYPE svg PUBLIC "-//W3C//DTD SVG 20010904//EN"
 "http://www.w3.org/TR/2001/REC-SVG-20010904/DTD/svg10.dtd">
<svg version="1.0" xmlns="http://www.w3.org/2000/svg"
 width="704.000000pt" height="1280.000000pt" viewBox="0 0 704.000000 1280.000000"
 preserveAspectRatio="xMidYMid meet">
<metadata>
Created by potrace 1.16, written by Peter Selinger 2001-2019
</metadata>
<g transform="translate(0.000000,1280.000000) scale(0.100000,-0.100000)"
fill="#000000" stroke="none">
<path d="M3506 9683 c-14 -15 -30 -41 -36 -57 -6 -17 -17 -44 -24 -61 -8 -16
-19 -55 -26 -85 -7 -30 -27 -101 -46 -158 -19 -56 -34 -110 -34 -120 0 -10 -7
-27 -15 -39 -8 -12 -28 -59 -44 -105 -42 -124 -51 -148 -78 -207 l-24 -53 -40
6 c-25 4 -52 1 -75 -9 -31 -13 -38 -13 -50 0 -12 12 -21 12 -62 0 -26 -8 -48
-15 -49 -15 -1 0 -10 27 -19 60 -9 33 -21 63 -25 66 -5 3 -9 20 -9 37 0 18 -9
52 -20 76 -11 24 -20 50 -20 58 0 9 -13 42 -30 75 -16 32 -30 68 -30 79 0 11
-13 53 -29 92 -16 40 -33 83 -37 97 -4 14 -22 57 -40 96 -19 39 -34 75 -34 79
0 5 -12 22 -27 37 -31 32 -72 37 -95 11 -29 -36 -81 -200 -112 -358 -8 -38
-23 -110 -34 -160 -12 -49 -23 -112 -26 -140 -2 -27 -11 -77 -19 -110 -31
-126 -63 -371 -52 -404 4 -15 -4 -29 -32 -53 -213 -186 -322 -327 -388 -501
l-23 -62 -114 4 c-91 2 -116 0 -126 -12 -26 -31 -4 -47 67 -48 105 -1 156 -11
155 -32 -1 -9 2 -17 7 -17 5 0 2 -11 -7 -25 -10 -15 -14 -34 -10 -50 9 -35
-20 -50 -153 -82 -90 -22 -111 -30 -111 -45 0 -10 6 -18 13 -19 46 -3 112 6
181 26 45 13 84 21 87 17 4 -4 12 -25 19 -47 26 -88 121 -195 238 -270 9 -5
36 -24 62 -42 67 -48 225 -137 326 -184 49 -23 91 -43 93 -45 2 -2 5 -54 7
-116 10 -290 12 -329 18 -335 3 -3 1 -12 -4 -19 -6 -6 -13 -35 -17 -63 -3 -28
-10 -54 -14 -57 -5 -3 -9 -16 -9 -30 0 -14 -7 -39 -16 -56 -9 -17 -14 -39 -11
-49 3 -11 1 -17 -4 -14 -4 3 -11 -7 -15 -22 -4 -15 -17 -40 -30 -55 -12 -15
-39 -62 -60 -105 -20 -43 -43 -90 -51 -105 -7 -14 -13 -30 -13 -35 0 -5 -25
-53 -55 -108 -30 -54 -57 -112 -61 -129 -3 -17 -19 -49 -35 -70 -16 -22 -29
-47 -29 -55 0 -9 -7 -29 -16 -46 -9 -16 -22 -48 -29 -70 -8 -22 -25 -74 -40
-115 -26 -77 -55 -179 -60 -215 -2 -11 -10 -40 -19 -64 -9 -24 -16 -61 -16
-83 0 -21 -7 -55 -15 -74 l-15 -36 -37 32 c-21 18 -57 52 -80 75 -85 85 -318
176 -412 161 -22 -3 -42 -2 -45 3 -6 9 -79 -2 -135 -21 -96 -33 -139 -87 -152
-190 -10 -79 4 -122 52 -165 40 -36 83 -48 219 -62 109 -11 118 -14 170 -50
82 -58 133 -156 132 -256 0 -38 -31 -150 -61 -224 -73 -175 -98 -316 -81 -458
27 -221 133 -388 323 -510 125 -80 361 -173 441 -173 19 0 47 -5 62 -10 65
-25 376 -33 534 -14 264 32 559 97 625 138 11 7 29 15 40 19 105 32 197 79
345 175 97 64 268 230 323 313 l36 57 78 7 c107 10 288 41 312 54 11 6 30 11
43 11 80 0 303 157 370 261 17 27 35 49 39 49 4 0 21 36 39 80 18 44 36 83 41
85 4 3 13 31 19 63 6 31 19 73 28 92 20 43 28 315 11 412 -6 35 -10 77 -10 95
1 18 -4 35 -9 38 -6 3 -10 14 -10 23 0 17 -35 141 -50 177 -5 11 -12 31 -15
45 -9 33 -42 103 -77 163 -16 27 -27 54 -26 60 4 19 -191 417 -204 417 -5 0
-8 8 -8 17 0 20 -60 123 -72 123 -4 0 -8 9 -8 21 0 20 -36 80 -52 87 -4 2 -8
12 -8 23 0 27 -58 147 -92 190 -15 20 -28 42 -28 48 0 6 -4 11 -9 11 -5 0 -13
10 -16 21 -13 39 -144 307 -153 313 -6 3 -13 17 -16 31 -4 14 -33 81 -64 148
-32 67 -64 140 -72 162 -7 22 -23 56 -35 75 -12 19 -32 67 -45 105 -12 39 -29
81 -37 94 -32 50 -11 327 27 365 5 5 5 19 -1 33 -6 16 -5 31 3 46 28 52 -2
571 -42 727 -5 19 -19 76 -31 125 -12 50 -28 104 -35 120 -6 17 -18 50 -25 75
-6 25 -20 63 -29 85 -10 22 -23 56 -30 75 -34 95 -105 272 -170 420 -39 91
-80 188 -91 215 -21 55 -41 81 -79 108 -33 23 -45 22 -74 -10z m-1105 -1349
c9 -11 29 -46 43 -80 25 -56 27 -70 23 -155 -3 -81 -9 -105 -36 -161 -40 -85
-105 -144 -166 -154 -58 -8 -92 10 -128 67 -26 43 -28 54 -29 150 -2 194 56
312 178 358 53 21 80 14 115 -25z m732 -1 c21 -15 49 -45 62 -67 33 -58 29
-191 -7 -288 -39 -105 -95 -170 -174 -204 -61 -26 -69 -27 -112 -15 -57 15
-109 62 -122 111 -24 85 -6 250 37 333 66 130 223 194 316 130z m511 -553 c14
-5 26 -13 26 -17 -1 -26 -23 -31 -165 -34 -131 -4 -150 -2 -153 12 -3 16 25
32 73 42 39 9 194 7 219 -3z m-227 -204 c88 -31 211 -91 248 -121 52 -41 4
-61 -64 -26 -52 27 -190 86 -233 100 -54 18 -64 61 -14 61 13 0 41 -6 63 -14z
m-1417 -3451 c0 -20 37 -38 66 -32 23 4 23 3 9 -13 -22 -24 -20 -30 30 -80 72
-73 97 -94 165 -141 125 -86 162 -103 174 -76 3 6 4 3 3 -8 -1 -15 5 -21 23
-23 14 -2 32 -10 40 -17 29 -25 218 -71 266 -64 11 1 37 -3 59 -9 58 -16 395
-8 406 10 7 11 9 11 9 0 0 -11 23 -13 103 -11 56 1 129 1 162 1 59 -2 59 -2
40 -21 -30 -28 -210 -115 -290 -139 -68 -21 -161 -44 -295 -76 -36 -8 -81 -14
-100 -14 -84 3 -244 -13 -253 -25 -7 -9 -10 -9 -14 1 -2 6 -17 12 -31 12 -24
0 -165 25 -283 49 -25 5 -72 21 -104 35 -45 20 -61 24 -72 15 -7 -7 -17 -9
-20 -5 -4 4 -2 10 4 14 7 5 -11 27 -49 61 -43 39 -62 51 -68 41 -4 -7 -13 -11
-21 -8 -10 3 -9 7 2 18 13 12 11 22 -18 79 -31 62 -32 70 -27 146 3 44 9 96
14 115 28 110 52 180 60 180 6 0 10 -7 10 -15z"/>
<path d="M2245 8290 c-56 -23 -89 -89 -105 -212 -10 -74 -9 -94 6 -147 34
-121 106 -133 197 -32 57 63 68 100 62 200 -4 60 -13 101 -30 139 -22 48 -27
52 -50 46 -15 -4 -25 -2 -25 5 0 13 -26 13 -55 1z"/>
<path d="M2960 8289 c-79 -32 -133 -118 -151 -245 -11 -68 -10 -84 6 -131 51
-150 181 -132 268 38 65 126 61 229 -11 307 -40 44 -64 50 -112 31z"/>
</g>
</svg>
