<?xml version="1.0" standalone="no"?>
<!DOCTYPE svg PUBLIC "-//W3C//DTD SVG 20010904//EN"
 "http://www.w3.org/TR/2001/REC-SVG-20010904/DTD/svg10.dtd">
<svg version="1.0" xmlns="http://www.w3.org/2000/svg"
 width="704.000000pt" height="1280.000000pt" viewBox="0 0 704.000000 1280.000000"
 preserveAspectRatio="xMidYMid meet">
<metadata>
Created by potrace 1.16, written by Peter Selinger 2001-2019
</metadata>
<g transform="translate(0.000000,1280.000000) scale(0.100000,-0.100000)"
fill="#000000" stroke="none">
<path d="M3523 9693 c-7 -2 -13 -11 -13 -19 0 -8 -4 -14 -9 -14 -11 0 -63
-105 -67 -135 -6 -42 -98 -333 -123 -391 -12 -26 -21 -53 -21 -61 0 -7 -13
-43 -30 -78 -16 -35 -30 -71 -30 -80 0 -9 -11 -38 -25 -66 -25 -49 -27 -50
-68 -48 -23 1 -55 -4 -70 -10 -22 -8 -33 -8 -50 4 -20 12 -28 12 -66 -1 -24
-8 -45 -13 -46 -12 -7 7 -47 127 -56 167 -5 24 -13 49 -17 55 -5 6 -15 34 -22
61 -7 28 -23 69 -36 92 -13 23 -24 51 -24 62 0 11 -4 30 -9 43 -5 13 -19 50
-31 83 -46 127 -84 215 -92 215 -4 0 -8 8 -8 19 0 28 -48 71 -81 71 -37 0 -53
-25 -85 -130 -42 -134 -61 -216 -104 -435 -11 -60 -30 -153 -40 -205 -33 -162
-40 -212 -47 -328 l-6 -112 -41 -34 c-91 -76 -246 -240 -246 -261 0 -7 -7 -18
-15 -25 -19 -16 -95 -159 -116 -219 -16 -46 -16 -46 -60 -44 -160 7 -181 6
-196 -10 -31 -31 -9 -47 64 -48 37 0 86 -3 108 -7 l40 -7 2 -67 c1 -46 -3 -70
-12 -78 -8 -6 -71 -25 -140 -42 -100 -25 -125 -34 -123 -47 5 -27 89 -26 191
4 49 14 92 23 95 20 3 -3 13 -28 24 -57 19 -54 55 -112 92 -148 30 -30 144
-120 151 -120 7 0 62 -38 90 -62 43 -36 299 -171 350 -184 26 -6 27 -10 31
-104 0 -25 4 -90 7 -145 10 -160 9 -237 -3 -285 -27 -108 -86 -278 -107 -309
-37 -55 -124 -241 -118 -251 4 -6 2 -10 -4 -10 -5 0 -13 -10 -16 -22 -4 -13
-17 -36 -29 -53 -28 -37 -66 -116 -66 -136 0 -8 -16 -39 -35 -69 -19 -30 -35
-63 -35 -73 0 -10 -9 -30 -20 -44 -11 -14 -20 -32 -20 -39 0 -8 -13 -51 -29
-97 -15 -45 -40 -127 -55 -182 -15 -55 -34 -117 -42 -138 -8 -20 -14 -55 -14
-77 0 -21 -4 -50 -9 -63 -23 -61 -42 -356 -28 -442 2 -11 6 -42 11 -70 8 -61
24 -119 42 -162 8 -17 14 -36 14 -43 0 -7 8 -9 21 -5 18 6 19 4 10 -13 -8 -14
-6 -27 8 -53 16 -28 24 -34 47 -31 16 1 25 -1 19 -5 -24 -19 -11 -48 45 -103
109 -107 319 -238 361 -225 13 4 19 2 19 -8 0 -19 60 -47 110 -52 22 -2 45 -7
51 -11 21 -13 181 -26 319 -27 74 -1 271 1 437 3 167 2 306 1 309 -3 4 -4 0
-42 -9 -84 -16 -76 -16 -109 -2 -243 18 -183 133 -405 267 -519 17 -14 58 -50
92 -80 33 -30 75 -60 91 -67 17 -7 55 -29 84 -48 29 -20 59 -36 67 -36 8 0 25
-6 37 -14 59 -39 224 -84 402 -111 106 -15 435 -14 480 3 82 29 195 62 216 62
27 0 118 45 135 66 6 7 14 11 17 8 21 -22 199 153 236 231 33 70 27 153 -15
215 -16 25 -38 49 -49 55 -11 6 -33 19 -48 29 -21 14 -44 19 -87 18 -66 -2
-95 -11 -131 -41 -13 -11 -45 -38 -72 -60 -80 -68 -131 -99 -198 -121 -35 -12
-68 -25 -74 -28 -15 -10 -36 -14 -85 -16 -25 -1 -52 -5 -60 -8 -68 -24 -80
-26 -80 -12 0 11 -17 14 -67 15 -38 1 -76 0 -86 -1 -10 -1 -24 3 -30 8 -7 6
-37 15 -67 20 -30 6 -78 22 -107 36 -28 14 -53 26 -56 26 -11 0 -133 73 -156
94 -29 26 -102 123 -118 156 -40 84 -50 234 -24 352 6 26 8 55 4 64 -4 12 -3
15 5 10 7 -4 12 -1 12 8 0 26 50 76 76 76 32 0 218 38 262 53 17 6 32 16 32
21 0 6 4 6 11 -1 24 -24 149 41 264 135 38 32 72 66 73 76 2 10 24 38 48 62
24 25 44 52 44 60 0 9 6 28 14 42 40 75 66 139 66 163 0 14 9 47 21 73 17 39
21 71 23 194 2 81 -1 167 -6 192 -4 25 -12 74 -17 110 -11 76 -27 142 -45 185
-19 44 -36 99 -36 116 0 15 -60 137 -85 173 -8 11 -15 31 -15 44 0 13 -11 45
-25 71 -13 25 -54 107 -90 182 -36 76 -72 140 -80 143 -8 3 -15 15 -15 27 0
25 -57 129 -71 129 -5 0 -9 10 -9 23 0 12 -14 40 -30 61 -17 22 -30 45 -30 53
0 18 -60 138 -102 203 -19 30 -69 125 -110 211 -42 86 -81 160 -87 163 -6 4
-11 14 -11 22 0 8 -29 75 -65 149 -35 73 -67 146 -71 162 -4 15 -17 46 -30 68
-12 22 -30 62 -39 88 -9 26 -26 69 -37 95 -23 49 -24 53 -34 144 -5 41 -2 72
10 107 9 27 16 62 16 76 0 14 5 35 11 46 6 12 13 48 15 82 10 129 14 273 8
287 -4 8 -7 51 -9 95 -4 149 -15 226 -67 465 -18 86 -52 192 -113 355 -24 64
-158 387 -195 470 -12 28 -39 92 -61 144 -21 52 -46 103 -56 113 -16 18 -67
49 -75 47 -2 0 -9 -3 -15 -6z m-1137 -1324 c22 -13 42 -39 59 -77 14 -31 29
-64 34 -72 12 -23 6 -160 -9 -205 -42 -128 -140 -225 -230 -225 -24 0 -86 56
-104 94 -20 43 -22 206 -2 289 15 62 74 159 110 180 29 16 78 35 95 36 7 1 29
-8 47 -20z m762 -31 c60 -50 75 -85 76 -180 4 -198 -131 -385 -277 -387 -135
-2 -199 125 -161 319 25 127 101 232 194 269 14 5 48 10 76 10 44 1 58 -4 92
-31z m506 -567 c12 -10 14 -17 5 -27 -8 -10 -38 -14 -109 -13 -53 0 -118 -2
-144 -6 -38 -6 -47 -4 -52 10 -15 38 44 54 187 52 65 -1 101 -7 113 -16z
m-228 -195 c70 -24 231 -106 249 -126 34 -38 -20 -56 -66 -22 -25 18 -135 67
-224 99 -37 14 -51 24 -53 41 -3 18 1 22 26 22 16 0 47 -6 68 -14z"/>
<path d="M2238 8295 c-64 -44 -101 -182 -84 -319 10 -77 41 -120 89 -124 46
-4 99 29 91 56 -4 12 -3 13 3 4 13 -17 36 9 64 73 26 58 27 150 3 233 -15 51
-52 91 -72 78 -6 -3 -15 1 -22 9 -17 21 -30 19 -72 -10z"/>
<path d="M2982 8304 c-84 -35 -133 -98 -158 -201 -18 -76 -17 -108 2 -172 46
-157 194 -127 276 56 45 101 42 203 -8 269 -40 52 -71 66 -112 48z"/>
</g>
</svg>
