<?xml version="1.0" standalone="no"?>
<!DOCTYPE svg PUBLIC "-//W3C//DTD SVG 20010904//EN"
 "http://www.w3.org/TR/2001/REC-SVG-20010904/DTD/svg10.dtd">
<svg version="1.0" xmlns="http://www.w3.org/2000/svg"
 width="704.000000pt" height="1280.000000pt" viewBox="0 0 704.000000 1280.000000"
 preserveAspectRatio="xMidYMid meet">
<metadata>
Created by potrace 1.16, written by Peter Selinger 2001-2019
</metadata>
<g transform="translate(0.000000,1280.000000) scale(0.100000,-0.100000)"
fill="#000000" stroke="none">
<path d="M3487 9663 c-15 -21 -33 -60 -41 -88 -7 -27 -35 -124 -61 -215 -26
-91 -57 -187 -70 -215 -12 -27 -25 -62 -29 -78 -3 -15 -18 -52 -31 -82 -14
-29 -25 -61 -25 -70 0 -8 -11 -38 -25 -65 l-25 -50 -51 0 c-28 0 -59 -4 -69
-10 -13 -7 -26 -6 -46 4 -23 13 -32 13 -66 -1 -21 -8 -41 -14 -43 -11 -5 5
-40 108 -85 254 -17 55 -40 115 -51 133 -10 17 -19 40 -19 49 0 26 -85 253
-126 338 -55 113 -116 133 -154 51 -26 -55 -63 -182 -85 -287 -9 -47 -29 -132
-42 -190 -14 -58 -27 -127 -29 -155 -1 -27 -8 -66 -14 -85 -22 -73 -60 -367
-53 -415 4 -27 -3 -36 -64 -87 -67 -55 -199 -194 -217 -227 -5 -9 -17 -25 -27
-36 -26 -29 -105 -183 -120 -233 l-12 -43 -111 7 c-90 5 -115 3 -131 -9 -33
-25 -4 -47 64 -48 31 0 78 -4 106 -7 l50 -7 0 -69 0 -69 -40 -18 c-22 -10 -84
-28 -137 -40 -80 -18 -98 -26 -98 -41 0 -27 87 -24 191 6 46 13 86 23 90 20 4
-2 16 -30 28 -61 26 -70 81 -147 121 -172 17 -10 48 -34 70 -54 21 -21 44 -37
51 -37 10 0 31 -15 87 -61 39 -32 318 -183 372 -201 6 -2 13 -53 16 -123 7
-150 14 -327 14 -340 0 -5 -7 -39 -15 -75 -9 -36 -19 -76 -22 -90 -3 -14 -9
-29 -13 -35 -4 -5 -15 -35 -24 -66 -8 -31 -24 -67 -34 -80 -29 -37 -132 -246
-132 -266 0 -14 -36 -81 -56 -103 -15 -18 -54 -102 -59 -131 -2 -10 -17 -38
-34 -62 -16 -23 -32 -56 -36 -74 -3 -17 -13 -37 -21 -44 -8 -6 -14 -18 -14
-26 0 -8 -18 -66 -39 -128 -22 -62 -47 -148 -56 -191 -10 -44 -22 -88 -28 -99
-6 -11 -14 -45 -18 -75 -4 -30 -14 -91 -23 -135 -26 -121 -22 -466 5 -517 17
-32 9 -60 -29 -96 -99 -96 -194 -276 -222 -419 -21 -107 8 -280 60 -358 15
-22 29 -45 31 -51 20 -57 229 -212 339 -252 156 -56 175 -62 188 -57 7 2 23
-2 35 -9 14 -9 67 -17 142 -21 66 -4 123 -9 126 -11 12 -7 328 17 394 31 39 8
106 19 150 25 115 14 397 89 420 111 5 5 17 9 27 9 55 0 391 155 453 208 11
10 45 34 75 54 54 37 146 120 185 168 35 43 48 49 170 75 66 14 125 31 132 36
6 6 16 8 21 5 12 -7 82 14 112 35 14 9 41 24 60 32 19 8 49 27 65 41 17 15 50
44 75 65 25 21 52 51 60 67 8 16 27 42 42 58 15 16 30 39 34 50 3 12 21 53 39
91 19 39 37 90 41 115 4 25 14 59 22 75 19 37 28 270 10 259 -8 -5 -9 -1 -3
12 15 35 16 78 5 139 -6 33 -12 76 -14 95 -4 37 -31 141 -45 175 -5 11 -17 47
-26 80 -21 74 -35 105 -80 180 -19 32 -35 69 -35 82 0 13 -11 41 -25 63 -14
22 -25 43 -25 46 0 4 -9 25 -19 48 -65 140 -87 181 -113 206 -15 16 -28 38
-28 50 0 23 -44 115 -60 125 -5 3 -10 13 -10 21 0 9 -13 35 -30 59 -16 24 -30
49 -30 55 0 18 -70 152 -105 200 -18 25 -63 110 -100 190 -37 80 -78 159 -91
177 -13 17 -24 39 -24 47 0 9 -29 76 -65 149 -36 74 -65 140 -65 148 0 8 -15
46 -34 84 -40 81 -61 130 -71 165 -4 14 -13 34 -20 45 -18 29 -12 215 9 295 9
36 18 88 19 117 1 28 5 55 10 59 11 12 9 232 -3 239 -7 4 -8 11 -1 18 5 7 6
30 1 57 -4 25 -6 48 -3 53 6 10 -14 172 -33 262 -8 39 -19 97 -25 130 -6 33
-21 92 -33 130 -13 39 -27 84 -30 100 -4 17 -19 59 -33 95 -24 64 -40 102
-142 347 -28 67 -51 124 -51 126 0 3 -15 38 -33 79 -19 40 -47 106 -63 147
-53 138 -125 180 -177 104z m-1111 -1312 c83 -50 119 -237 73 -374 -53 -156
-193 -243 -277 -172 -47 40 -65 96 -65 205 0 168 55 289 153 337 56 27 77 28
116 4z m750 -22 c68 -53 84 -91 84 -194 0 -174 -70 -309 -189 -362 -91 -40
-167 -23 -221 49 -21 28 -25 47 -28 131 -6 140 21 230 93 315 41 47 81 72 135
83 66 13 87 9 126 -22z m534 -558 c20 -34 1 -41 -121 -43 -65 -1 -134 -2 -151
-2 -27 -1 -33 3 -33 19 0 30 70 45 193 42 75 -2 105 -6 112 -16z m-229 -200
c71 -24 232 -105 248 -125 29 -35 -25 -50 -69 -19 -14 10 -45 25 -70 34 -60
22 -171 68 -190 78 -8 4 -16 18 -18 30 -4 27 25 28 99 2z m-1158 -3716 c65
-50 195 -118 211 -112 8 3 20 -1 27 -9 26 -32 84 -48 239 -66 101 -12 426 -17
558 -9 82 5 92 4 92 -11 0 -12 -13 -21 -42 -28 -24 -6 -88 -26 -143 -44 -55
-19 -118 -37 -140 -40 -461 -75 -655 -62 -834 57 -31 22 -50 44 -67 84 -13 29
-24 63 -24 75 0 30 51 138 65 138 7 0 33 -16 58 -35z"/>
<path d="M2244 8290 c-81 -33 -138 -242 -99 -362 29 -92 66 -114 138 -85 34
15 68 47 49 47 -6 0 -9 7 -5 16 4 10 8 12 13 5 9 -15 34 13 54 63 12 28 15 59
11 119 -7 122 -37 194 -75 182 -10 -3 -23 1 -30 10 -14 17 -25 18 -56 5z"/>
<path d="M2940 8273 c-65 -34 -114 -108 -131 -198 -40 -218 95 -344 223 -208
15 15 42 59 59 98 27 57 33 81 33 135 -1 41 -7 78 -17 96 -9 16 -21 39 -26 51
-9 20 -58 53 -79 53 -4 0 -32 -12 -62 -27z"/>
</g>
</svg>
