<?xml version="1.0" standalone="no"?>
<!DOCTYPE svg PUBLIC "-//W3C//DTD SVG 20010904//EN"
 "http://www.w3.org/TR/2001/REC-SVG-20010904/DTD/svg10.dtd">
<svg version="1.0" xmlns="http://www.w3.org/2000/svg"
 width="704.000000pt" height="1280.000000pt" viewBox="0 0 704.000000 1280.000000"
 preserveAspectRatio="xMidYMid meet">
<metadata>
Created by potrace 1.16, written by Peter Selinger 2001-2019
</metadata>
<g transform="translate(0.000000,1280.000000) scale(0.100000,-0.100000)"
fill="#000000" stroke="none">
<path d="M3509 9683 c-1 -5 -1 -11 0 -15 0 -5 -3 -8 -9 -8 -17 0 -52 -82 -81
-190 -15 -58 -46 -159 -69 -225 -23 -66 -49 -145 -59 -175 -10 -30 -28 -74
-39 -97 -12 -23 -22 -49 -22 -58 0 -9 -11 -38 -25 -65 l-25 -50 -51 0 c-28 0
-60 -5 -72 -11 -16 -9 -22 -9 -25 0 -5 15 -59 13 -97 -3 l-30 -13 -23 66 c-13
36 -27 85 -32 108 -5 24 -16 55 -23 70 -8 16 -18 44 -22 63 -4 19 -18 54 -31
78 -13 23 -24 53 -24 66 0 20 -9 45 -50 141 -5 11 -11 33 -15 48 -3 16 -26 70
-50 121 -42 90 -68 116 -110 116 -19 0 -64 -56 -71 -88 -3 -15 -15 -54 -25
-88 -32 -101 -100 -422 -155 -739 -8 -44 -17 -129 -19 -189 -3 -60 -6 -110 -8
-111 -16 -6 -138 -115 -190 -169 -92 -96 -203 -272 -232 -370 l-12 -41 -115 4
c-95 2 -116 0 -127 -13 -26 -32 -6 -46 66 -47 37 0 86 -3 108 -7 l40 -7 0 -70
c0 -83 2 -82 -160 -122 -87 -21 -105 -29 -105 -44 0 -28 77 -25 185 6 48 14
90 23 93 20 3 -3 13 -28 23 -56 23 -65 85 -156 119 -175 14 -7 45 -31 70 -53
25 -23 53 -41 63 -41 9 0 17 -4 17 -8 0 -8 114 -92 124 -92 3 0 34 -17 68 -38
75 -45 214 -112 234 -112 8 0 15 -11 16 -27 2 -45 6 -128 12 -283 3 -80 6
-152 8 -160 1 -8 -3 -35 -11 -60 -7 -25 -17 -63 -23 -85 -5 -22 -16 -55 -24
-73 -8 -18 -14 -42 -14 -53 0 -11 -15 -43 -33 -72 -46 -72 -139 -266 -132
-277 3 -5 1 -11 -5 -15 -9 -6 -23 -30 -87 -149 -12 -22 -22 -53 -22 -67 -1
-14 -10 -34 -22 -45 -26 -24 -49 -67 -49 -92 0 -11 -6 -25 -14 -31 -8 -7 -19
-31 -25 -54 -5 -23 -21 -73 -36 -111 -27 -73 -63 -193 -70 -238 -2 -15 -9 -38
-16 -50 -7 -12 -15 -49 -20 -83 -4 -33 -14 -98 -23 -144 -21 -110 -22 -351 -2
-446 26 -120 29 -129 42 -150 8 -11 14 -28 14 -38 0 -13 5 -17 16 -13 12 4 14
1 9 -14 -12 -38 30 -92 66 -83 20 5 22 3 12 -8 -23 -23 -14 -41 49 -101 76
-72 191 -154 278 -198 51 -26 67 -30 85 -22 19 9 22 8 18 -7 -5 -19 47 -47
102 -56 17 -3 53 -9 80 -15 125 -23 212 -29 370 -25 94 2 304 6 467 9 163 2
300 6 305 9 5 3 56 9 114 12 l105 7 12 -26 c6 -14 18 -26 27 -26 8 0 15 -6 15
-14 0 -17 145 -164 216 -219 101 -77 299 -163 478 -207 118 -28 144 -31 295
-31 267 0 417 29 599 119 165 81 311 233 352 367 7 22 17 51 22 65 29 74 19
274 -19 390 -24 73 -139 266 -177 295 -7 6 -18 27 -25 47 -7 20 -19 42 -26 48
-42 35 -56 181 -30 295 9 36 13 71 9 77 -4 6 -3 8 3 5 32 -20 54 182 22 207
-8 6 -22 24 -32 39 -25 38 -118 81 -158 73 -16 -3 -44 -9 -61 -12 -61 -12
-137 -74 -169 -136 -51 -99 -81 -219 -79 -319 3 -165 60 -316 185 -489 72 -99
125 -243 125 -337 0 -53 -31 -130 -73 -179 -59 -70 -214 -141 -352 -163 -80
-12 -322 -6 -339 8 -6 5 -34 15 -61 22 -107 27 -260 134 -235 164 6 8 30 17
53 20 86 15 319 168 346 228 7 15 30 46 52 69 34 37 44 55 41 79 -1 4 8 15 18
24 11 10 20 24 20 30 0 7 9 32 20 56 11 24 20 55 20 69 0 14 9 41 19 61 18 34
31 122 20 134 -3 3 -4 26 -2 52 6 71 5 87 -7 91 -8 3 -8 8 0 17 14 17 15 72 1
160 -14 89 -41 205 -53 228 -5 10 -16 44 -24 75 -18 70 -45 137 -84 203 -17
27 -30 58 -30 67 0 10 -20 57 -45 105 -25 48 -45 94 -45 101 0 8 -7 19 -15 26
-8 7 -15 18 -15 26 0 7 -16 42 -35 76 -50 88 -50 88 -75 138 -13 25 -31 54
-41 66 -11 11 -19 30 -19 41 0 11 -13 37 -30 58 -16 21 -30 44 -30 51 0 20
-64 148 -104 207 -18 29 -68 123 -110 209 -41 86 -80 159 -86 163 -5 3 -10 13
-10 22 0 9 -29 76 -65 149 -36 73 -65 140 -65 148 0 8 -14 40 -31 72 -17 33
-38 79 -46 104 -8 25 -27 69 -41 99 -20 45 -25 69 -25 140 -1 84 19 198 40
236 7 12 8 28 2 43 -6 16 -6 29 1 37 5 6 7 15 3 18 -3 4 -1 12 5 19 11 14 14
216 4 233 -4 6 -8 51 -9 100 -2 95 -28 320 -43 370 -5 17 -14 57 -20 90 -11
52 -50 179 -104 335 -9 25 -29 74 -45 110 -16 36 -48 112 -71 170 -24 58 -62
150 -85 205 -24 55 -58 135 -76 179 -37 86 -75 126 -120 126 -16 0 -30 -3 -30
-7z m-1113 -1325 c54 -48 85 -126 86 -218 0 -41 -2 -82 -5 -90 -2 -8 -10 -34
-16 -57 -25 -93 -120 -186 -202 -199 -29 -5 -41 -1 -67 21 -55 46 -72 92 -72
191 0 133 16 204 61 275 32 48 50 65 92 84 67 32 79 31 123 -7z m735 -9 c13
-12 31 -26 39 -33 38 -28 51 -66 53 -154 3 -73 -1 -98 -23 -157 -33 -89 -36
-94 -89 -150 -124 -133 -285 -108 -326 50 -13 47 -14 73 -5 134 15 110 25 141
69 208 37 57 95 103 146 116 52 13 112 7 136 -14z m524 -580 c28 -28 -3 -36
-152 -41 -119 -4 -143 -2 -148 10 -3 9 -2 19 2 23 31 31 269 37 298 8z m-227
-193 c65 -23 230 -108 248 -127 19 -21 11 -39 -17 -39 -20 0 -59 16 -69 29 -3
3 -18 11 -35 18 -176 69 -220 91 -223 111 -3 18 2 22 26 22 16 0 48 -6 70 -14z"/>
<path d="M2265 8306 c-44 -20 -73 -56 -96 -122 -18 -50 -20 -74 -16 -155 5
-99 18 -139 56 -173 42 -39 143 20 185 109 22 47 26 69 26 145 0 49 -5 102
-12 117 -18 42 -49 73 -73 73 -11 0 -25 4 -30 9 -6 6 -22 5 -40 -3z"/>
<path d="M2939 8281 c-62 -38 -103 -113 -119 -214 -11 -68 -11 -83 5 -134 10
-31 30 -68 44 -81 38 -35 109 -27 156 18 53 51 98 151 103 226 6 93 -3 125
-48 172 -49 51 -78 54 -141 13z"/>
</g>
</svg>
