<?xml version="1.0" standalone="no"?>
<!DOCTYPE svg PUBLIC "-//W3C//DTD SVG 20010904//EN"
 "http://www.w3.org/TR/2001/REC-SVG-20010904/DTD/svg10.dtd">
<svg version="1.0" xmlns="http://www.w3.org/2000/svg"
 width="704.000000pt" height="1280.000000pt" viewBox="0 0 704.000000 1280.000000"
 preserveAspectRatio="xMidYMid meet">
<metadata>
Created by potrace 1.16, written by Peter Selinger 2001-2019
</metadata>
<g transform="translate(0.000000,1280.000000) scale(0.100000,-0.100000)"
fill="#000000" stroke="none">
<path d="M3505 9680 c-3 -5 -4 -14 -1 -19 3 -5 -2 -11 -12 -14 -17 -4 -39 -53
-62 -137 -44 -163 -110 -360 -195 -585 -52 -136 -44 -126 -100 -124 -27 1 -62
-4 -77 -10 -20 -8 -28 -7 -28 1 0 11 -60 7 -107 -7 -19 -6 -23 -1 -37 49 -9
30 -21 58 -26 61 -6 3 -10 21 -10 38 0 18 -9 52 -20 76 -11 24 -20 51 -20 61
0 9 -13 44 -30 76 -16 32 -30 69 -30 80 0 12 -9 43 -21 70 -35 83 -36 88 -49
134 -20 72 -89 196 -116 209 -35 16 -59 14 -76 -6 -14 -17 -62 -160 -86 -263
-47 -194 -64 -272 -73 -338 -6 -43 -17 -106 -26 -142 -26 -114 -43 -232 -50
-346 l-6 -111 -61 -49 c-34 -27 -63 -52 -66 -56 -3 -4 -38 -42 -77 -85 -63
-68 -123 -146 -123 -158 0 -2 -17 -32 -37 -67 -21 -35 -45 -85 -55 -113 l-17
-50 -48 2 c-147 6 -176 4 -191 -10 -30 -31 -8 -47 65 -48 37 0 86 -3 108 -7
l40 -7 0 -70 c-1 -70 -1 -70 -35 -86 -19 -9 -71 -24 -115 -33 -114 -25 -115
-25 -115 -48 0 -20 4 -21 73 -15 39 3 99 15 132 27 66 23 85 21 85 -11 0 -28
54 -128 88 -162 33 -34 158 -137 166 -137 6 0 58 -35 107 -72 20 -16 39 -28
42 -28 4 0 44 -22 89 -48 46 -27 116 -64 156 -82 61 -28 72 -37 73 -59 6 -91
8 -142 12 -274 3 -82 7 -151 11 -154 3 -3 2 -13 -3 -22 -5 -9 -11 -34 -15 -56
-13 -73 -79 -259 -106 -300 -29 -42 -120 -228 -120 -245 0 -5 -14 -33 -32 -62
-41 -69 -88 -165 -88 -181 0 -6 -14 -32 -30 -56 -17 -24 -30 -54 -30 -65 0
-12 -8 -33 -17 -46 -10 -14 -23 -43 -30 -65 -15 -53 -91 -298 -110 -355 -8
-25 -18 -72 -22 -105 -3 -33 -9 -65 -13 -70 -14 -22 -29 -184 -29 -309 0 -164
16 -280 51 -361 4 -11 11 -28 14 -37 3 -11 11 -15 21 -12 12 5 14 0 9 -24 -5
-24 -1 -36 19 -56 15 -14 33 -26 42 -26 18 0 20 -16 3 -23 -19 -8 101 -121
201 -191 120 -84 198 -121 226 -108 19 9 22 8 18 -7 -3 -13 9 -23 46 -41 28
-13 54 -21 57 -17 4 3 15 2 26 -4 30 -16 197 -32 348 -33 358 -2 812 14 1005
34 244 27 366 27 409 1 44 -25 149 -66 163 -63 7 2 23 -4 36 -13 13 -8 59 -25
103 -37 66 -18 105 -21 234 -21 189 1 252 15 405 88 183 88 283 188 471 470
53 80 143 176 195 210 20 13 55 29 78 36 24 7 45 19 48 26 7 18 23 16 23 -2 0
-11 11 -15 39 -15 100 0 241 -150 241 -255 0 -18 3 -35 7 -39 13 -13 10 -109
-3 -135 -8 -14 -14 -32 -14 -38 0 -7 -27 -65 -61 -129 -104 -198 -89 -297 53
-370 83 -42 215 -28 265 29 16 17 38 37 49 43 10 7 18 19 18 28 -1 9 2 14 6
11 12 -7 47 36 72 90 13 28 31 61 40 75 9 14 24 51 32 82 8 31 19 65 24 75 26
50 30 293 7 401 -8 40 -26 97 -39 125 -13 29 -31 69 -40 90 -24 55 -117 168
-182 221 -53 44 -170 106 -198 106 -8 0 -35 10 -61 21 -35 16 -59 20 -90 16
-23 -4 -46 -2 -51 2 -18 16 -196 -9 -248 -35 -28 -13 -57 -24 -65 -24 -37 -1
-251 -147 -251 -171 0 -4 -19 -28 -42 -54 -24 -26 -81 -105 -128 -174 -99
-148 -139 -200 -197 -259 -24 -24 -43 -48 -43 -54 0 -6 -3 -8 -7 -5 -3 4 -16
-4 -28 -17 -12 -13 -33 -24 -46 -24 -13 0 -55 -12 -94 -27 -38 -15 -86 -28
-106 -30 -20 -2 -42 -5 -50 -7 -19 -4 -23 36 -4 52 8 7 15 21 15 31 0 11 4 18
9 16 12 -3 81 82 81 102 0 10 9 26 20 36 11 10 20 24 20 32 0 8 9 31 20 53 11
22 20 52 20 67 0 16 9 46 21 67 17 31 21 59 22 152 1 63 -2 115 -7 117 -5 2
-3 14 4 26 11 22 10 53 -5 141 -19 104 -25 133 -44 195 -12 39 -30 99 -40 135
-17 63 -45 125 -89 203 -12 21 -22 45 -22 53 0 9 -23 64 -51 122 -29 59 -63
132 -78 162 -14 30 -39 75 -56 100 -17 25 -36 64 -44 87 -8 23 -24 52 -37 64
-13 12 -21 26 -18 30 6 10 -17 56 -45 88 -12 13 -21 30 -21 38 0 8 -12 40 -27
71 -24 51 -39 77 -95 161 -10 14 -21 33 -24 41 -10 23 -133 272 -149 300 -25
46 -127 274 -145 325 -10 28 -29 73 -43 100 -30 57 -89 209 -94 240 -17 107
-3 237 33 308 10 20 11 34 4 46 -5 10 -6 21 -3 25 13 13 28 260 17 285 -4 9
-8 50 -9 91 -4 129 -14 208 -55 420 -20 103 -61 236 -123 400 -25 65 -189 457
-207 495 -5 11 -28 65 -50 120 -44 111 -81 155 -130 155 -16 0 -32 -4 -35 -10z
m-1108 -1324 c22 -19 46 -56 58 -85 11 -28 22 -51 25 -51 6 0 3 -87 -5 -163
-9 -84 -64 -183 -126 -228 -15 -10 -49 -23 -75 -28 -43 -8 -51 -7 -82 17 -52
40 -72 91 -72 193 0 190 50 307 154 355 67 31 79 30 123 -10z m744 -16 c19
-16 37 -30 40 -30 16 0 39 -83 43 -150 4 -61 0 -87 -20 -143 -34 -96 -46 -116
-106 -173 -57 -55 -98 -74 -160 -74 -73 0 -128 45 -153 126 -19 64 -19 111 4
209 35 157 144 265 266 265 44 0 58 -5 86 -30z m493 -560 c25 -9 35 -33 19
-43 -5 -3 -73 -7 -153 -8 -139 -4 -145 -3 -145 16 0 15 11 23 45 32 56 14 200
16 234 3z m-204 -205 c68 -24 227 -106 246 -126 35 -38 -23 -55 -69 -19 -14
11 -31 20 -37 20 -7 0 -29 9 -49 20 -20 11 -70 33 -111 48 -59 22 -76 32 -78
50 -3 18 1 22 26 22 16 0 49 -7 72 -15z"/>
<path d="M2243 8299 c-50 -32 -85 -116 -91 -218 -6 -111 10 -183 49 -216 17
-14 35 -25 41 -25 29 0 100 47 126 84 40 57 52 98 52 181 0 110 -40 203 -83
191 -10 -2 -21 2 -24 10 -7 20 -32 17 -70 -7z"/>
<path d="M2947 8285 c-49 -29 -60 -40 -90 -95 -26 -48 -47 -130 -47 -185 0
-44 35 -137 60 -160 33 -29 112 -16 156 26 64 61 105 163 105 255 0 76 -9 99
-55 147 -43 43 -72 46 -129 12z"/>
</g>
</svg>
