<?xml version="1.0" standalone="no"?>
<!DOCTYPE svg PUBLIC "-//W3C//DTD SVG 20010904//EN"
 "http://www.w3.org/TR/2001/REC-SVG-20010904/DTD/svg10.dtd">
<svg version="1.0" xmlns="http://www.w3.org/2000/svg"
 width="704.000000pt" height="1280.000000pt" viewBox="0 0 704.000000 1280.000000"
 preserveAspectRatio="xMidYMid meet">
<metadata>
Created by potrace 1.16, written by Peter Selinger 2001-2019
</metadata>
<g transform="translate(0.000000,1280.000000) scale(0.100000,-0.100000)"
fill="#000000" stroke="none">
<path d="M5687 10174 c-17 -17 -5 -43 25 -53 l32 -11 -47 -46 c-26 -24 -47
-52 -47 -60 0 -19 81 -55 139 -62 58 -7 52 15 -14 46 l-48 24 59 53 c39 35 56
56 49 63 -5 5 -35 17 -65 26 -30 10 -60 19 -66 22 -5 2 -13 1 -17 -2z"/>
<path d="M5990 10095 c-9 -11 -8 -20 9 -44 12 -16 21 -32 21 -35 0 -3 -24 -6
-53 -6 -41 0 -58 -5 -72 -20 -17 -19 -16 -21 14 -67 39 -59 77 -103 90 -103
22 0 19 19 -9 64 -17 26 -30 49 -30 53 0 3 33 3 73 0 97 -8 108 0 71 50 -16
22 -42 58 -59 81 -34 46 -37 48 -55 27z"/>
<path d="M5485 10040 c-10 -16 4 -30 31 -30 29 0 30 -9 5 -41 -13 -17 -18 -39
-17 -72 0 -26 4 -47 9 -47 4 0 13 0 21 0 8 0 19 14 25 30 8 24 16 30 40 30 16
0 32 4 36 9 8 14 -32 33 -55 26 -24 -7 -26 7 -6 38 8 12 17 32 21 45 6 21 4
22 -49 22 -30 0 -58 -4 -61 -10z"/>
<path d="M4585 9889 c-185 -44 -293 -92 -421 -187 -140 -104 -248 -243 -296
-381 -19 -54 -23 -87 -23 -186 0 -133 8 -164 71 -263 121 -191 361 -276 763
-272 97 1 246 -4 331 -11 124 -10 203 -10 390 -1 129 6 258 17 285 23 177 40
289 158 256 269 -23 76 -99 127 -218 145 -49 8 -48 4 -32 121 14 95 1 139 -40
139 -19 0 -26 8 -36 40 -16 55 -89 196 -112 217 -50 45 -70 66 -98 98 -94 109
-273 201 -465 240 -109 21 -282 26 -355 9z"/>
<path d="M1808 9598 c-30 -25 -36 -77 -43 -338 -8 -299 -11 -968 -4 -989 2 -8
-7 -17 -23 -21 -24 -7 -30 -4 -46 23 -11 18 -53 69 -93 113 -41 45 -105 119
-144 165 -38 46 -119 136 -180 200 -60 64 -153 161 -205 217 -103 110 -135
131 -170 112 -41 -22 -45 -50 -46 -370 -1 -168 -6 -350 -12 -405 -12 -112 -1
-411 16 -460 6 -16 18 -75 26 -130 9 -55 25 -145 36 -200 10 -55 26 -138 34
-185 26 -150 171 -380 320 -508 51 -43 55 -50 50 -79 -7 -37 3 -41 51 -23 21
8 32 6 54 -9 14 -11 57 -33 94 -50 l68 -31 50 40 c56 44 69 48 69 22 0 -45
-70 -99 -105 -80 -16 10 -29 0 -92 -68 -74 -80 -85 -100 -58 -110 10 -4 43 23
98 81 l82 87 50 -27 c96 -51 185 -117 239 -178 70 -79 164 -209 229 -317 28
-47 67 -108 88 -136 20 -28 44 -73 54 -100 9 -27 32 -89 52 -139 60 -153 74
-205 103 -395 15 -96 12 -360 -5 -522 -20 -191 -25 -231 -31 -239 -2 -4 -9
-45 -14 -91 -10 -81 -27 -150 -56 -234 -14 -40 -17 -42 -76 -54 -110 -21 -188
-95 -188 -179 0 -33 7 -49 35 -80 42 -47 62 -51 239 -57 173 -5 195 1 240 73
20 32 36 64 36 73 0 9 17 47 37 85 32 60 38 67 47 51 6 -10 28 -42 49 -70 l37
-51 -40 -17 c-51 -22 -110 -66 -110 -83 0 -7 -6 -18 -14 -24 -21 -17 -27 -79
-12 -116 23 -55 62 -74 173 -85 179 -18 553 -27 938 -23 209 2 524 3 700 2
l320 -1 88 -28 c58 -19 103 -40 132 -65 50 -40 54 -51 26 -60 -27 -8 -350 -17
-726 -19 -328 -2 -573 -16 -650 -37 -22 -6 -65 -20 -96 -30 -31 -10 -66 -19
-78 -19 -30 0 -151 -70 -201 -116 -63 -59 -98 -141 -106 -249 l-6 -90 39 -55
c51 -73 89 -92 173 -87 36 2 81 12 100 22 44 22 100 75 100 94 0 24 121 132
179 158 97 46 334 47 553 3 53 -11 114 -20 136 -20 22 0 70 -6 108 -14 38 -8
130 -22 204 -31 74 -9 162 -22 195 -30 338 -77 537 -80 713 -9 130 52 205 141
242 291 40 159 -124 386 -365 506 -69 34 -141 59 -382 133 -68 21 -123 41
-123 44 0 3 31 39 69 80 97 103 184 278 224 450 47 205 47 457 -2 675 -33 147
-103 323 -169 425 -16 25 -45 70 -64 100 -74 117 -285 365 -520 612 -87 91
-205 196 -298 265 -30 23 -82 64 -115 92 -33 28 -91 70 -130 93 -38 24 -81 53
-95 65 -33 29 -171 128 -200 143 -13 7 -55 38 -94 69 -39 31 -81 63 -93 71
-192 131 -243 167 -247 177 -3 7 2 33 11 58 18 55 38 65 142 75 55 5 78 12 88
26 11 15 11 20 0 32 -11 10 -27 11 -78 3 -115 -19 -107 -26 -101 92 4 93 6
104 28 120 13 10 24 27 24 37 0 20 -28 34 -52 25 -11 -4 -21 9 -36 52 -35 95
-119 206 -242 320 -36 32 -228 158 -268 175 -4 1 -28 39 -51 83 -45 81 -165
283 -204 343 -12 18 -51 76 -86 130 -36 53 -88 129 -118 167 -29 39 -94 124
-144 190 -50 66 -106 144 -125 172 -40 62 -69 98 -145 176 -56 57 -82 68 -111
45z m721 -1584 c41 -22 68 -48 110 -104 97 -130 117 -222 71 -328 -20 -46 -26
-52 -59 -57 -20 -4 -45 -10 -57 -15 -12 -4 -27 -4 -35 1 -8 5 -27 9 -43 9 -36
0 -121 48 -162 92 -17 18 -45 57 -63 87 -30 49 -32 61 -34 150 -2 108 13 149
68 183 45 27 135 19 204 -18z m-648 -406 c83 -43 119 -86 181 -211 29 -57 32
-91 14 -144 -43 -124 -166 -178 -279 -122 -58 29 -184 126 -199 154 -70 125
-68 117 -56 192 9 64 14 75 52 111 22 22 57 45 76 51 56 16 148 3 211 -31z"/>
<path d="M2395 8003 c-11 -2 -30 -6 -41 -8 -30 -7 -53 -59 -47 -109 7 -62 56
-155 110 -209 58 -59 83 -73 146 -82 47 -7 50 -6 88 31 34 34 39 44 39 85 0
84 -55 177 -144 245 -34 25 -111 58 -127 53 -2 -1 -13 -3 -24 -6z"/>
<path d="M1719 7602 c-20 -9 -61 -43 -78 -65 -23 -29 -24 -94 -1 -117 11 -11
20 -31 20 -44 0 -44 96 -140 181 -180 62 -29 148 5 175 70 33 78 4 175 -73
251 -67 65 -177 107 -224 85z"/>
</g>
</svg>
