<?xml version="1.0" standalone="no"?>
<!DOCTYPE svg PUBLIC "-//W3C//DTD SVG 20010904//EN"
 "http://www.w3.org/TR/2001/REC-SVG-20010904/DTD/svg10.dtd">
<svg version="1.0" xmlns="http://www.w3.org/2000/svg"
 width="704.000000pt" height="1280.000000pt" viewBox="0 0 704.000000 1280.000000"
 preserveAspectRatio="xMidYMid meet">
<metadata>
Created by potrace 1.16, written by Peter Selinger 2001-2019
</metadata>
<g transform="translate(0.000000,1280.000000) scale(0.100000,-0.100000)"
fill="#000000" stroke="none">
<path d="M5626 10131 c-7 -11 11 -26 43 -36 23 -7 23 -8 -18 -49 -23 -23 -41
-47 -41 -54 0 -6 14 -19 31 -27 33 -18 129 -36 142 -28 14 9 -15 33 -54 45
-22 6 -39 14 -39 17 0 2 21 23 47 46 58 52 54 68 -23 83 -69 14 -81 15 -88 3z"/>
<path d="M5920 10067 c0 -8 9 -22 20 -32 31 -28 26 -45 -11 -35 -36 11 -99
-10 -99 -32 0 -18 37 -77 68 -110 49 -52 73 -24 27 30 -39 46 -33 51 50 45 61
-5 75 -3 75 8 0 16 -41 81 -73 117 -23 24 -57 30 -57 9z"/>
<path d="M4585 9885 c-110 -20 -184 -45 -263 -86 -281 -149 -454 -369 -480
-614 -5 -43 -5 -91 -1 -105 4 -14 14 -51 20 -84 34 -160 184 -300 375 -351
121 -32 265 -46 454 -44 102 1 228 -4 280 -10 184 -21 609 -7 730 24 177 46
271 149 241 263 -22 81 -92 129 -215 147 l-48 8 6 46 c14 107 17 177 7 191 -5
8 -22 14 -36 15 -24 0 -29 7 -45 57 -32 105 -87 186 -192 287 -54 51 -119 107
-145 124 -187 118 -468 173 -688 132z"/>
<path d="M1801 9584 c-12 -15 -21 -32 -21 -38 -1 -6 -3 -38 -6 -71 -2 -33 -7
-262 -10 -510 -10 -761 -7 -697 -33 -709 -18 -8 -25 -5 -39 15 -9 13 -71 85
-137 159 -66 74 -144 164 -172 200 -28 36 -63 72 -77 80 -14 7 -26 17 -26 21
0 4 -29 40 -65 81 -234 261 -267 290 -311 269 -50 -22 -54 -56 -53 -410 1
-179 -2 -337 -6 -351 -4 -14 -9 -88 -12 -165 -4 -107 -1 -158 11 -215 9 -41
23 -111 31 -155 7 -44 23 -132 35 -195 11 -63 27 -158 34 -210 8 -52 17 -104
21 -115 15 -43 60 -124 123 -220 66 -100 210 -255 237 -255 17 0 20 -26 5 -35
-5 -3 -10 -15 -10 -27 0 -18 4 -20 38 -14 32 5 56 -2 137 -39 l99 -44 43 39
c23 22 49 40 58 40 26 0 17 -44 -16 -78 -18 -18 -30 -34 -28 -36 2 -1 27 -14
54 -27 138 -68 266 -202 411 -432 98 -157 128 -202 144 -222 10 -11 25 -45 35
-75 10 -30 23 -68 31 -85 36 -79 88 -240 106 -330 30 -140 32 -530 4 -715 -10
-69 -26 -179 -36 -245 -10 -66 -23 -136 -30 -155 -7 -19 -19 -54 -27 -78 -9
-24 -20 -45 -27 -46 -6 -2 -33 -9 -61 -15 -93 -23 -175 -105 -175 -177 0 -47
39 -110 78 -126 33 -13 274 -23 336 -14 40 6 51 13 80 53 37 51 52 80 92 176
16 37 32 67 36 67 4 0 13 -10 19 -22 7 -13 27 -41 46 -62 18 -22 33 -42 33
-46 0 -3 -22 -16 -49 -27 -62 -28 -127 -100 -136 -153 -14 -84 48 -141 165
-152 182 -16 645 -27 985 -24 884 8 957 7 1041 -15 99 -26 131 -40 173 -76 53
-45 39 -60 -61 -68 -46 -4 -119 -6 -163 -5 -224 6 -817 0 -832 -8 -10 -6 -70
-12 -133 -16 -111 -5 -255 -32 -298 -55 -11 -6 -34 -11 -50 -11 -16 0 -35 -7
-42 -15 -7 -8 -18 -15 -24 -15 -7 0 -44 -23 -84 -50 -63 -45 -76 -60 -107
-123 -29 -59 -37 -87 -42 -157 -5 -84 -5 -86 30 -146 54 -92 125 -117 237 -85
46 13 84 48 193 174 55 64 111 99 186 117 69 16 364 7 469 -14 40 -9 92 -16
115 -17 23 -1 85 -10 137 -20 52 -9 167 -27 255 -39 88 -12 163 -24 167 -26 3
-2 66 -15 139 -29 205 -39 475 -35 542 7 12 8 43 22 69 32 87 32 172 150 199
276 9 42 8 64 -6 118 -9 36 -24 77 -34 91 -10 14 -21 36 -25 48 -4 12 -47 60
-96 105 -66 62 -112 95 -182 130 -101 51 -244 108 -272 108 -27 0 -256 73
-256 82 0 4 28 38 63 75 34 38 74 86 88 108 72 112 150 320 163 435 21 180 14
444 -13 534 -6 17 -20 72 -32 121 -58 242 -220 505 -496 811 -252 280 -415
438 -578 558 -44 33 -87 67 -95 76 -15 16 -49 39 -180 126 -77 51 -207 145
-295 213 -27 21 -101 73 -164 116 -203 137 -208 143 -176 218 16 38 29 44 127
53 67 7 108 25 108 49 0 23 -33 26 -116 10 -43 -8 -80 -15 -82 -15 -1 0 0 48
2 107 4 101 6 107 32 128 34 27 27 55 -15 55 -23 0 -30 5 -35 28 -4 15 -18 49
-32 75 -85 165 -262 333 -445 422 -50 25 -58 33 -89 98 -18 38 -54 102 -80
141 -25 39 -70 112 -100 161 -57 95 -226 343 -245 360 -23 20 -132 166 -210
280 -44 65 -105 148 -135 184 -106 126 -140 144 -179 95z m727 -1569 c71 -47
81 -55 126 -115 87 -114 104 -278 36 -352 -41 -45 -189 -41 -261 7 -104 68
-164 162 -174 271 -8 80 2 122 39 167 49 60 159 70 234 22z m-650 -400 c78
-42 132 -101 176 -189 34 -71 37 -85 32 -129 -10 -71 -39 -121 -91 -156 -80
-54 -174 -38 -294 50 -106 77 -177 193 -162 262 5 20 7 38 5 40 -9 9 26 73 53
99 69 66 184 76 281 23z"/>
<path d="M2415 8003 c-63 -8 -72 -13 -90 -52 -30 -68 -9 -145 68 -249 81 -111
190 -145 255 -81 18 18 35 42 38 55 8 30 -11 115 -36 164 -27 52 -117 140
-152 147 -16 3 -31 10 -34 14 -3 5 -8 8 -12 8 -4 -1 -20 -4 -37 -6z"/>
<path d="M1725 7596 c-16 -7 -45 -28 -62 -46 -26 -27 -33 -42 -33 -75 0 -22 6
-49 14 -60 7 -11 16 -34 20 -51 7 -31 81 -111 143 -152 37 -26 110 -29 153 -7
37 19 70 82 70 133 0 82 -62 175 -152 228 -64 38 -112 48 -153 30z"/>
</g>
</svg>
