<?xml version="1.0" standalone="no"?>
<!DOCTYPE svg PUBLIC "-//W3C//DTD SVG 20010904//EN"
 "http://www.w3.org/TR/2001/REC-SVG-20010904/DTD/svg10.dtd">
<svg version="1.0" xmlns="http://www.w3.org/2000/svg"
 width="704.000000pt" height="1280.000000pt" viewBox="0 0 704.000000 1280.000000"
 preserveAspectRatio="xMidYMid meet">
<metadata>
Created by potrace 1.16, written by Peter Selinger 2001-2019
</metadata>
<g transform="translate(0.000000,1280.000000) scale(0.100000,-0.100000)"
fill="#000000" stroke="none">
<path d="M3500 10155 c-135 -47 -249 -155 -295 -279 -66 -173 -35 -370 81
-513 19 -23 34 -43 34 -45 0 -2 -71 -4 -158 -5 -86 -2 -168 -5 -182 -8 -14 -3
-41 -8 -60 -11 -58 -10 -120 -36 -130 -55 -31 -56 6 -99 100 -117 81 -16 284
-32 405 -32 104 0 107 1 136 29 35 36 36 41 3 80 -23 28 -24 31 -7 31 10 0 46
-10 78 -21 81 -29 248 -37 325 -15 35 10 111 18 210 20 178 5 275 21 435 71
122 38 146 53 138 85 -7 28 -55 26 -146 -5 -84 -30 -130 -41 -247 -61 -89 -14
-200 -19 -200 -7 0 3 23 30 50 59 57 60 83 113 106 217 19 82 13 217 -10 264
-8 15 -27 54 -42 86 -37 78 -129 163 -230 213 -75 37 -81 38 -198 41 -109 3
-128 1 -196 -22z m-222 -949 c71 -15 96 -31 68 -42 -17 -7 -364 12 -419 22
-35 7 -30 27 9 36 44 11 270 0 342 -16z"/>
<path d="M1202 9313 c-4 -10 -7 -52 -7 -93 0 -60 7 -93 33 -165 31 -82 67
-218 94 -350 6 -27 20 -84 33 -125 12 -41 30 -109 39 -150 24 -103 45 -187 61
-239 13 -43 13 -44 -17 -72 l-31 -28 -51 26 c-28 14 -91 50 -141 80 -124 75
-266 158 -334 194 -31 16 -72 39 -91 51 -93 56 -289 160 -324 170 -36 11 -40
10 -57 -11 -24 -29 -24 -81 0 -146 74 -204 186 -548 206 -635 16 -68 34 -124
97 -290 33 -87 152 -323 210 -417 29 -47 68 -113 85 -147 45 -85 167 -231 225
-268 32 -21 241 -92 328 -112 36 -8 74 -17 85 -20 21 -6 39 18 168 214 23 36
50 66 60 68 37 7 28 -29 -29 -115 -61 -92 -86 -132 -106 -172 -13 -25 -16 -22
62 -73 90 -60 267 -273 362 -438 14 -25 45 -69 68 -98 25 -31 54 -85 71 -130
15 -42 44 -118 63 -169 51 -130 65 -189 81 -343 17 -151 20 -447 6 -531 -5
-30 -14 -94 -20 -144 -16 -126 -40 -261 -56 -320 -8 -27 -17 -61 -21 -75 -9
-34 -33 -60 -56 -60 -50 0 -119 -34 -161 -79 -70 -74 -72 -140 -8 -208 23 -25
52 -29 223 -38 163 -8 190 1 239 80 22 33 39 66 39 73 0 8 8 26 19 40 10 15
24 46 31 70 7 23 17 42 21 42 5 0 17 -17 28 -37 11 -21 31 -54 45 -72 29 -39
28 -41 -34 -65 -48 -19 -78 -48 -109 -107 -33 -61 -11 -137 48 -169 55 -29
502 -47 1096 -44 209 0 514 2 679 2 l298 1 95 -30 c79 -25 102 -38 134 -72 22
-22 36 -44 32 -48 -15 -14 -476 -26 -708 -20 -126 4 -261 3 -300 -1 -38 -4
-135 -12 -215 -17 -80 -4 -156 -13 -170 -19 -43 -18 -162 -52 -184 -52 -12 0
-38 -11 -58 -25 -20 -14 -41 -25 -47 -25 -15 0 -118 -98 -140 -133 -53 -86
-68 -235 -31 -303 30 -53 58 -82 102 -105 45 -23 64 -24 136 -3 78 23 96 36
157 119 62 84 120 133 193 164 87 36 359 30 577 -14 39 -8 95 -17 125 -20 30
-3 75 -9 100 -15 25 -5 108 -17 185 -26 77 -9 165 -22 195 -29 30 -7 80 -17
110 -20 30 -4 65 -11 78 -16 30 -12 180 -24 257 -22 133 3 199 15 254 44 30
16 60 29 66 29 20 0 122 106 145 149 34 67 49 159 38 222 -21 118 -123 253
-258 343 -75 50 -265 128 -395 162 -138 37 -215 64 -215 78 0 6 30 43 66 81
62 66 116 158 177 302 31 73 65 195 65 233 0 14 5 63 12 110 15 111 -1 362
-30 455 -5 17 -16 60 -25 97 -22 97 -93 256 -174 392 -65 109 -98 153 -191
263 -174 204 -231 266 -261 285 -15 9 -30 25 -33 36 -11 34 -216 225 -399 370
-98 78 -182 142 -185 142 -4 0 -50 31 -102 70 -52 38 -129 92 -170 119 -41 28
-105 74 -142 102 -37 28 -121 88 -187 133 -245 167 -283 197 -278 220 49 203
68 313 60 358 -4 29 -1 43 12 58 10 11 22 20 27 20 18 0 173 64 190 78 9 7 14
20 11 28 -7 18 -45 18 -91 -2 -20 -8 -65 -26 -100 -39 l-63 -24 -11 27 c-6 15
-19 46 -29 69 -11 24 -19 47 -19 52 0 5 31 42 69 82 38 40 67 78 64 85 -11 30
-36 20 -105 -41 l-72 -63 -72 64 c-58 52 -229 164 -250 164 -3 0 -33 13 -67
29 -34 15 -96 36 -137 46 -41 10 -88 21 -104 26 -16 5 -38 9 -49 9 -24 0 -47
19 -222 185 -77 73 -153 143 -170 156 -16 13 -61 51 -100 85 -38 34 -118 99
-176 145 -59 46 -151 120 -204 164 -129 105 -182 146 -228 173 -47 27 -105 29
-115 5z m1249 -1144 c138 -75 221 -183 234 -303 7 -65 7 -66 -25 -96 -48 -45
-96 -56 -172 -40 -35 8 -79 23 -98 34 -100 59 -118 72 -141 105 -71 106 -86
195 -44 266 25 44 49 55 121 55 18 0 36 5 39 10 8 13 3 15 86 -31z m-587 -437
c113 -44 236 -167 236 -236 0 -9 5 -16 10 -16 6 0 10 -27 10 -62 0 -50 -5 -69
-26 -99 -48 -69 -147 -97 -230 -64 -180 72 -286 173 -307 290 -7 45 -6 59 12
93 23 45 74 89 118 101 48 13 135 10 177 -7z m-99 -781 c0 -20 -13 -31 -70
-60 -39 -20 -92 -53 -119 -73 -52 -40 -66 -41 -66 -4 0 18 15 33 58 61 31 21
80 53 107 72 58 39 90 40 90 4z"/>
<path d="M2293 8153 c-44 -6 -83 -53 -83 -100 0 -61 104 -199 194 -258 14 -10
49 -19 78 -22 46 -3 56 -1 80 21 55 52 41 143 -38 245 -64 81 -151 124 -231
114z"/>
<path d="M1730 7700 c-8 -5 -28 -10 -43 -10 -18 0 -40 -11 -59 -30 -25 -25
-29 -36 -24 -61 9 -45 89 -162 132 -195 22 -16 48 -37 59 -47 10 -10 25 -15
31 -13 7 3 17 -1 23 -8 16 -20 88 -29 114 -15 33 18 57 49 59 78 3 54 -4 87
-23 113 -10 15 -19 31 -19 36 0 19 -112 114 -162 137 -59 28 -67 29 -88 15z"/>
</g>
</svg>
