<?xml version="1.0" standalone="no"?>
<!DOCTYPE svg PUBLIC "-//W3C//DTD SVG 20010904//EN"
 "http://www.w3.org/TR/2001/REC-SVG-20010904/DTD/svg10.dtd">
<svg version="1.0" xmlns="http://www.w3.org/2000/svg"
 width="704.000000pt" height="1280.000000pt" viewBox="0 0 704.000000 1280.000000"
 preserveAspectRatio="xMidYMid meet">
<metadata>
Created by potrace 1.16, written by Peter Selinger 2001-2019
</metadata>
<g transform="translate(0.000000,1280.000000) scale(0.100000,-0.100000)"
fill="#000000" stroke="none">
<path d="M1194 9309 c-6 -8 -14 -23 -18 -33 -9 -25 21 -177 44 -231 10 -22 23
-62 30 -90 6 -27 15 -66 20 -85 5 -19 20 -78 33 -130 14 -52 39 -147 56 -210
29 -102 45 -169 70 -290 4 -19 13 -45 19 -57 17 -31 15 -50 -8 -73 -29 -29
-54 -25 -120 20 -32 22 -62 40 -66 40 -3 0 -39 21 -79 48 -113 72 -152 95
-255 148 -52 26 -131 70 -175 97 -44 27 -98 58 -120 69 -22 10 -56 27 -75 38
-52 27 -106 43 -124 37 -9 -4 -21 -18 -28 -32 -16 -36 -5 -81 81 -330 65 -187
64 -185 130 -420 67 -244 145 -421 302 -687 16 -27 29 -52 29 -55 0 -10 121
-196 154 -236 138 -167 142 -169 444 -247 127 -33 144 -35 150 -21 3 9 10 21
14 26 5 6 44 62 86 125 55 81 84 116 100 118 40 6 37 -25 -9 -84 -24 -30 -57
-76 -73 -102 -16 -26 -42 -66 -57 -90 l-28 -42 32 -15 c93 -44 212 -167 328
-341 98 -149 162 -243 185 -278 20 -31 31 -58 101 -246 35 -95 68 -225 78
-310 3 -25 8 -135 11 -245 5 -178 3 -222 -20 -405 -32 -250 -47 -333 -79 -430
l-24 -75 -54 -11 c-86 -17 -145 -58 -178 -121 -18 -36 -13 -102 10 -135 38
-53 74 -61 259 -60 l165 2 26 30 c14 16 51 82 83 146 l58 116 26 -38 c14 -22
36 -52 50 -68 l24 -30 -45 -20 c-59 -27 -101 -65 -126 -112 -24 -44 -25 -55
-11 -106 16 -57 55 -79 158 -89 152 -16 595 -26 957 -23 869 9 978 7 1073 -17
48 -12 101 -29 117 -37 43 -21 100 -81 88 -93 -13 -13 -254 -21 -703 -24 -457
-2 -614 -13 -730 -48 -47 -15 -94 -27 -104 -27 -37 0 -184 -82 -229 -126 -69
-70 -99 -141 -104 -249 -5 -88 -4 -91 29 -145 51 -84 129 -112 231 -82 61 17
103 50 148 112 44 63 125 140 164 156 18 7 55 18 82 24 60 14 332 14 393 1 79
-18 162 -32 265 -46 312 -42 416 -57 466 -70 30 -8 69 -15 85 -15 17 0 53 -7
81 -15 27 -8 83 -17 124 -20 41 -2 92 -7 114 -10 43 -7 251 19 269 33 6 5 34
17 61 27 57 21 157 110 185 166 11 20 26 65 34 100 17 75 10 131 -29 212 -14
30 -25 58 -25 63 0 5 -26 35 -57 65 -143 138 -229 189 -418 247 -244 75 -335
104 -335 109 0 14 30 54 77 103 83 85 188 313 222 480 46 230 33 467 -39 715
-35 122 -97 269 -143 338 -19 29 -40 63 -47 76 -42 81 -218 291 -440 526 -204
216 -263 268 -547 490 -21 17 -60 44 -88 60 -27 17 -93 63 -145 101 -52 39
-106 77 -119 84 -14 7 -58 39 -99 72 -41 33 -120 89 -176 125 -56 37 -128 87
-161 113 -33 25 -82 61 -108 79 -56 38 -55 23 -13 186 19 73 26 126 26 197 l0
96 78 32 c166 69 192 85 177 110 -12 19 -51 10 -159 -35 l-107 -45 -29 66
c-17 36 -30 71 -30 77 0 7 31 46 69 86 38 41 67 81 64 88 -11 27 -47 11 -117
-51 l-72 -65 -26 33 c-42 52 -154 133 -248 177 -47 23 -96 46 -110 53 -38 18
-176 54 -255 66 l-70 11 -125 122 c-69 67 -155 147 -190 177 -36 30 -67 57
-70 60 -23 24 -261 216 -365 295 -71 54 -134 103 -140 109 -14 15 -78 65 -144
111 -60 42 -129 57 -147 34z m1273 -1139 c133 -65 223 -187 223 -302 0 -66 -7
-75 -85 -114 -47 -22 -64 -26 -108 -21 -28 4 -64 16 -79 27 -16 12 -33 18 -38
15 -16 -10 -96 52 -127 97 -101 151 -105 266 -10 311 37 17 77 15 77 -4 0 -5
-16 -15 -35 -23 -41 -18 -85 -62 -85 -86 0 -46 61 -144 124 -201 27 -24 57
-51 67 -60 9 -10 44 -20 78 -24 52 -6 64 -4 90 14 70 50 54 174 -35 280 -29
35 -111 81 -143 81 -23 0 -35 15 -27 35 8 22 24 19 113 -25z m-710 -447 c3 -7
-18 -22 -47 -34 -55 -24 -70 -42 -70 -87 0 -47 25 -95 81 -156 62 -68 120
-104 182 -112 88 -12 126 21 134 115 4 48 1 61 -21 94 -14 21 -26 41 -26 46 0
9 -62 59 -111 89 -20 12 -43 30 -50 39 -13 15 -10 16 33 10 26 -4 65 -17 85
-31 58 -36 132 -109 155 -152 11 -22 25 -42 31 -46 13 -8 -7 -127 -28 -168 -7
-14 -31 -38 -52 -53 -33 -23 -50 -27 -105 -27 -38 0 -82 7 -104 16 -70 29
-174 95 -174 109 0 8 -12 22 -26 31 -56 37 -91 163 -61 220 42 79 158 145 174
97z m27 -745 c14 -23 -3 -40 -82 -84 -37 -21 -86 -50 -109 -67 -64 -45 -100
-21 -45 30 38 36 205 144 216 140 5 -2 14 -10 20 -19z"/>
</g>
</svg>
