<?xml version="1.0" standalone="no"?>
<!DOCTYPE svg PUBLIC "-//W3C//DTD SVG 20010904//EN"
 "http://www.w3.org/TR/2001/REC-SVG-20010904/DTD/svg10.dtd">
<svg version="1.0" xmlns="http://www.w3.org/2000/svg"
 width="704.000000pt" height="1280.000000pt" viewBox="0 0 704.000000 1280.000000"
 preserveAspectRatio="xMidYMid meet">
<metadata>
Created by potrace 1.16, written by Peter Selinger 2001-2019
</metadata>
<g transform="translate(0.000000,1280.000000) scale(0.100000,-0.100000)"
fill="#000000" stroke="none">
<path d="M2023 9390 c-27 -25 -30 -42 -43 -240 -6 -91 -13 -176 -16 -190 -2
-14 -9 -56 -14 -95 -5 -38 -14 -92 -20 -120 -5 -27 -12 -92 -15 -145 -6 -130
-21 -212 -42 -227 -9 -7 -28 -13 -42 -13 -14 0 -46 -10 -71 -21 l-45 -20 -22
28 c-12 15 -34 50 -49 78 -15 27 -37 62 -48 77 -12 14 -34 49 -51 77 -16 29
-57 93 -90 142 -33 50 -70 109 -83 132 -12 23 -36 61 -53 85 -17 24 -43 65
-58 93 -38 71 -111 159 -138 165 -73 19 -99 -27 -108 -192 -10 -183 -11 -711
-3 -993 6 -237 6 -256 -11 -280 -32 -45 -110 -220 -126 -284 -9 -34 -23 -87
-31 -117 -17 -67 -34 -207 -27 -226 6 -17 -23 -29 -114 -45 -67 -11 -73 -14
-73 -36 0 -24 2 -24 83 -23 45 1 87 1 94 1 7 -1 15 -18 18 -38 4 -21 13 -56
21 -77 18 -46 22 -41 -83 -92 -86 -42 -103 -59 -82 -80 15 -14 31 -9 195 62 7
3 44 -26 84 -65 55 -54 96 -83 172 -121 54 -27 107 -50 117 -50 9 0 21 -4 26
-9 10 -10 157 -50 210 -57 17 -3 50 -9 75 -14 25 -5 72 -11 105 -15 133 -13
161 -17 191 -30 29 -14 121 -105 156 -156 9 -13 38 -54 65 -90 26 -37 56 -80
65 -95 10 -16 46 -72 81 -125 59 -90 128 -245 187 -418 30 -92 51 -285 50
-491 0 -197 -8 -287 -45 -495 -13 -71 -27 -154 -30 -182 -4 -29 -11 -55 -16
-59 -5 -3 -9 -13 -9 -22 0 -9 -10 -36 -22 -59 -18 -34 -28 -42 -59 -47 -146
-23 -239 -174 -163 -265 35 -42 81 -52 249 -52 161 1 186 4 201 29 27 42 62
110 76 147 9 22 26 62 38 89 l22 49 14 -33 c8 -19 30 -53 49 -76 19 -23 35
-47 35 -52 0 -5 -20 -15 -45 -22 -50 -14 -120 -81 -131 -125 -11 -43 2 -111
24 -136 25 -26 57 -32 318 -54 145 -12 295 -15 761 -11 320 2 585 6 590 9 18
11 469 -11 513 -25 25 -8 47 -15 50 -15 3 0 23 -9 45 -20 51 -26 98 -70 92
-86 -6 -18 -177 -26 -552 -25 -405 1 -501 -1 -532 -13 -13 -5 -72 -9 -131 -9
-83 0 -128 -6 -202 -26 -52 -14 -109 -29 -126 -34 -57 -14 -142 -59 -205 -110
-51 -41 -68 -63 -95 -122 -29 -62 -34 -84 -34 -150 0 -65 4 -83 25 -115 49
-76 58 -85 104 -105 41 -18 51 -18 101 -7 84 19 132 51 185 124 58 80 128 144
174 161 91 33 439 29 586 -7 22 -6 90 -16 150 -24 241 -32 386 -54 505 -80 69
-14 187 -33 263 -41 121 -12 151 -12 240 1 56 8 116 21 132 29 17 7 50 23 75
34 99 44 162 124 193 246 30 113 -16 244 -125 356 -138 142 -229 188 -553 282
-38 11 -146 44 -173 53 -19 7 7 51 62 104 54 52 176 289 201 391 9 36 21 81
26 100 17 60 23 382 9 478 -38 258 -120 468 -269 688 -114 170 -277 357 -546
627 -140 141 -357 314 -587 470 -59 39 -173 118 -255 174 -81 56 -204 141
-273 187 -319 217 -294 197 -302 247 -3 24 -11 100 -18 169 -10 110 -19 148
-75 315 -34 105 -79 226 -100 270 -20 44 -49 105 -62 135 -47 101 -152 304
-182 350 -9 14 -23 37 -31 53 -7 15 -45 66 -84 115 -67 81 -205 272 -319 439
-56 82 -128 153 -155 153 -10 0 -28 -9 -39 -20z m62 -1521 c19 -17 35 -37 35
-43 0 -7 10 -32 22 -57 14 -29 24 -76 29 -140 8 -84 6 -104 -11 -154 -22 -63
-77 -145 -118 -174 -121 -85 -254 31 -269 234 -11 145 34 263 126 331 38 28
55 34 98 34 44 0 58 -5 88 -31z m-725 -152 c30 -23 82 -111 87 -146 3 -20 12
-48 19 -63 21 -41 18 -167 -6 -230 -26 -70 -89 -132 -149 -146 -55 -13 -69 -7
-115 58 -49 69 -75 152 -77 247 -2 130 40 217 130 263 61 32 88 36 111 17z
m1323 -327 c-3 -11 -13 -20 -22 -20 -16 0 -128 -34 -210 -65 -43 -15 -45 -15
-65 4 -26 27 -16 35 60 50 34 6 79 20 100 31 23 11 60 19 91 20 46 0 51 -2 46
-20z m-63 -250 c41 -6 84 -14 95 -16 11 -2 28 -9 39 -17 15 -11 17 -17 7 -35
-11 -21 -11 -21 -64 -3 -53 19 -192 41 -259 41 -40 0 -51 9 -42 35 6 14 18 16
78 12 39 -2 105 -10 146 -17z"/>
<path d="M1979 7847 c-41 -19 -58 -36 -80 -86 -18 -40 -20 -58 -15 -147 3 -60
12 -113 21 -130 8 -16 15 -34 15 -40 0 -18 35 -53 65 -64 75 -28 150 54 161
178 9 95 -24 217 -71 268 -34 36 -53 40 -96 21z"/>
<path d="M1293 7665 c-38 -27 -58 -99 -57 -210 0 -84 4 -107 23 -144 29 -56
58 -80 96 -80 64 -1 100 63 100 174 -1 143 -61 275 -125 275 -9 0 -25 -7 -37
-15z"/>
</g>
</svg>
