<?xml version="1.0" standalone="no"?>
<!DOCTYPE svg PUBLIC "-//W3C//DTD SVG 20010904//EN"
 "http://www.w3.org/TR/2001/REC-SVG-20010904/DTD/svg10.dtd">
<svg version="1.0" xmlns="http://www.w3.org/2000/svg"
 width="704.000000pt" height="1280.000000pt" viewBox="0 0 704.000000 1280.000000"
 preserveAspectRatio="xMidYMid meet">
<metadata>
Created by potrace 1.16, written by Peter Selinger 2001-2019
</metadata>
<g transform="translate(0.000000,1280.000000) scale(0.100000,-0.100000)"
fill="#000000" stroke="none">
<path d="M2027 9398 c-9 -7 -21 -26 -27 -42 -10 -27 -27 -193 -35 -346 -1 -30
-10 -93 -19 -140 -8 -47 -22 -152 -31 -235 -18 -167 -29 -242 -38 -251 -3 -3
-41 -18 -85 -33 l-79 -28 -16 26 c-68 106 -253 386 -286 432 -23 31 -48 74
-57 95 -9 22 -26 50 -39 64 -13 14 -38 52 -55 85 -48 92 -108 164 -144 174
-104 28 -118 -68 -111 -758 3 -311 9 -478 16 -487 6 -8 8 -45 4 -103 -6 -88
-9 -96 -75 -224 -80 -155 -130 -328 -130 -452 0 -90 -11 -101 -103 -111 -48
-5 -70 -12 -77 -23 -17 -32 2 -40 90 -38 l84 2 12 -50 c6 -27 17 -63 23 -78 6
-16 11 -30 11 -32 0 -1 -42 -23 -94 -48 -96 -47 -119 -69 -87 -86 13 -7 38 -1
97 26 108 48 131 52 143 21 11 -29 112 -112 186 -152 91 -50 287 -117 385
-132 8 -1 60 -9 115 -18 179 -29 233 -36 263 -36 25 0 35 -9 63 -54 41 -65
171 -237 193 -255 9 -7 16 -17 16 -21 0 -10 77 -135 112 -180 14 -19 41 -71
58 -115 18 -44 39 -94 46 -112 8 -17 14 -35 14 -40 0 -5 11 -38 25 -74 14 -35
30 -96 36 -136 5 -39 12 -82 16 -95 3 -13 8 -126 10 -253 4 -212 3 -244 -22
-405 -14 -96 -31 -209 -36 -250 -17 -127 -65 -250 -99 -250 -77 0 -200 -90
-212 -155 -7 -36 1 -95 13 -95 5 0 9 -6 9 -12 0 -7 15 -23 33 -35 29 -20 46
-22 192 -24 88 -1 171 1 185 6 36 11 63 43 96 115 51 112 80 169 85 169 3 1
20 -20 37 -46 17 -27 39 -58 48 -70 16 -22 15 -23 -41 -48 -100 -44 -144 -121
-120 -210 15 -53 35 -65 136 -80 200 -29 446 -37 915 -31 734 10 1044 8 1124
-9 90 -19 158 -52 194 -95 14 -17 26 -35 26 -40 0 -11 -292 -21 -715 -25 -430
-4 -613 -15 -720 -44 -44 -12 -93 -26 -110 -31 -29 -8 -117 -48 -164 -74 -48
-28 -110 -101 -137 -160 -35 -77 -47 -223 -20 -245 9 -7 16 -19 16 -27 0 -27
61 -83 108 -98 43 -15 53 -15 107 -1 74 20 104 39 145 90 85 109 137 159 190
184 51 24 68 26 216 29 92 2 191 -1 230 -7 38 -7 116 -18 174 -27 140 -19 230
-33 256 -38 12 -2 66 -9 120 -16 55 -6 153 -22 219 -36 190 -39 215 -43 299
-49 43 -3 89 -8 102 -11 38 -10 231 26 304 55 146 60 229 172 238 321 4 69 1
83 -29 155 -26 64 -46 93 -98 146 -86 85 -127 116 -214 161 -71 37 -217 88
-250 88 -9 0 -17 5 -17 10 0 6 -13 10 -28 10 -16 0 -32 3 -36 7 -10 10 -78 33
-99 33 -9 0 -25 4 -35 9 -9 6 -29 12 -45 16 -27 5 -27 5 -10 33 10 15 41 50
69 77 54 53 74 86 137 225 55 123 73 184 92 317 33 226 10 496 -62 713 -24 75
-146 331 -167 353 -7 7 -23 30 -36 52 -21 36 -169 218 -231 286 -13 14 -60 66
-103 115 -219 245 -510 498 -736 639 -36 23 -96 65 -133 93 -37 29 -104 77
-150 107 -45 31 -143 97 -217 148 -74 51 -190 130 -257 175 -106 72 -123 87
-127 115 -3 18 -13 93 -21 167 -16 137 -38 245 -60 290 -7 14 -30 75 -50 135
-38 111 -60 160 -164 380 -86 180 -212 393 -278 470 -80 94 -165 209 -248 335
-146 222 -195 268 -248 228z m44 -1515 c49 -29 81 -111 92 -234 9 -92 8 -115
-8 -170 -9 -35 -26 -75 -36 -88 -11 -13 -19 -29 -19 -36 0 -7 -18 -29 -40 -49
-35 -31 -47 -36 -89 -36 -44 0 -54 5 -99 45 -90 81 -123 210 -92 362 24 119
126 223 218 223 24 0 57 -8 73 -17z m-677 -196 c15 -19 26 -41 26 -50 0 -9 5
-19 10 -22 6 -3 10 -15 10 -27 0 -15 -9 -7 -32 28 -27 39 -39 50 -65 52 -67 7
-97 -37 -109 -159 -9 -94 23 -204 72 -250 79 -74 171 37 148 180 -4 22 -3 48
1 58 7 17 8 17 15 -2 17 -42 11 -164 -11 -218 -38 -91 -137 -162 -200 -142
-32 11 -96 100 -118 167 -22 66 -30 178 -16 238 24 108 101 179 197 180 42 0
50 -4 72 -33z m1296 -284 c-1 -20 -20 -33 -65 -44 -28 -6 -90 -24 -139 -40
-49 -15 -93 -26 -98 -23 -4 3 -8 16 -8 29 0 25 2 26 86 45 28 6 68 17 90 25
41 15 134 20 134 8z m-75 -263 c126 -16 162 -37 135 -80 -7 -11 -13 -12 -32
-2 -48 24 -127 38 -241 43 -70 2 -94 15 -83 45 7 17 34 17 221 -6z"/>
<path d="M1969 7837 c-70 -37 -83 -70 -83 -207 0 -99 3 -122 22 -161 48 -98
118 -121 173 -56 47 54 53 78 54 197 0 125 -17 183 -66 228 -29 28 -45 28
-100 -1z"/>
</g>
</svg>
