<?xml version="1.0" standalone="no"?>
<!DOCTYPE svg PUBLIC "-//W3C//DTD SVG 20010904//EN"
 "http://www.w3.org/TR/2001/REC-SVG-20010904/DTD/svg10.dtd">
<svg version="1.0" xmlns="http://www.w3.org/2000/svg"
 width="704.000000pt" height="1280.000000pt" viewBox="0 0 704.000000 1280.000000"
 preserveAspectRatio="xMidYMid meet">
<metadata>
Created by potrace 1.16, written by Peter Selinger 2001-2019
</metadata>
<g transform="translate(0.000000,1280.000000) scale(0.100000,-0.100000)"
fill="#000000" stroke="none">
<path d="M4615 9889 c-151 -32 -214 -52 -305 -98 -121 -61 -261 -176 -337
-276 -35 -46 -85 -141 -109 -206 -25 -72 -30 -217 -9 -297 76 -291 337 -419
845 -411 91 1 237 -4 325 -11 130 -11 202 -11 385 -2 242 13 295 21 380 59
103 45 150 110 150 205 0 49 -3 54 -48 98 -36 35 -63 50 -108 63 -33 9 -71 17
-83 17 -22 0 -23 3 -18 38 4 20 9 70 13 109 7 80 -2 103 -40 103 -18 0 -27 13
-50 73 -36 92 -101 204 -126 217 -11 6 -51 41 -88 79 -118 118 -299 206 -484
236 -101 16 -229 18 -293 4z"/>
<path d="M1807 9584 c-10 -14 -23 -53 -28 -87 -4 -34 -11 -321 -15 -637 -3
-323 -10 -583 -15 -592 -18 -34 -8 -43 -200 171 -52 57 -116 132 -143 165 -27
34 -77 90 -111 126 -34 36 -93 99 -130 140 -186 206 -213 228 -260 210 -14 -5
-30 -22 -36 -37 -6 -18 -9 -136 -8 -323 2 -197 -2 -308 -9 -335 -12 -43 -20
-434 -9 -452 4 -6 18 -78 33 -159 26 -156 34 -195 58 -309 8 -38 15 -86 16
-105 1 -56 46 -165 128 -305 51 -89 156 -203 224 -243 33 -19 44 -47 28 -67
-27 -33 10 -58 48 -34 15 9 36 3 114 -36 l95 -48 52 41 c30 24 58 39 66 35 18
-6 18 -6 4 -37 -7 -14 -29 -36 -50 -50 -33 -22 -39 -23 -50 -10 -11 13 -21 6
-76 -48 -77 -75 -99 -111 -79 -127 10 -9 32 8 99 76 l86 88 79 -39 c136 -66
289 -234 438 -481 30 -49 73 -115 95 -147 22 -31 44 -71 49 -90 5 -18 20 -64
35 -103 14 -38 33 -88 41 -110 50 -130 71 -260 80 -475 7 -152 -9 -464 -27
-521 -6 -19 -17 -83 -25 -144 -20 -147 -22 -157 -34 -169 -5 -5 -10 -21 -10
-36 -1 -14 -9 -41 -18 -60 -14 -27 -25 -36 -57 -42 -129 -26 -205 -102 -205
-208 0 -17 12 -39 35 -62 46 -46 103 -57 265 -54 148 2 169 11 218 91 17 29
32 57 32 62 0 4 16 40 36 80 l37 72 30 -47 c16 -26 38 -57 50 -69 11 -13 19
-25 16 -27 -2 -2 -29 -15 -60 -30 -92 -43 -143 -139 -113 -211 24 -58 66 -79
174 -87 273 -20 663 -27 1272 -22 717 6 680 8 825 -42 48 -17 130 -85 120
-101 -10 -17 -273 -26 -679 -24 -233 1 -385 -2 -396 -8 -10 -5 -78 -12 -151
-15 -120 -6 -175 -15 -266 -47 -16 -6 -48 -15 -70 -19 -45 -10 -125 -51 -171
-89 -17 -14 -40 -32 -52 -40 -11 -8 -25 -24 -31 -35 -37 -76 -50 -121 -56
-197 l-7 -87 36 -56 c47 -73 85 -96 156 -95 30 1 68 4 83 8 38 8 118 76 151
128 31 49 108 118 151 137 98 43 335 49 520 15 61 -12 151 -25 200 -29 50 -5
108 -13 130 -19 22 -5 65 -13 95 -16 91 -10 239 -33 345 -55 319 -64 521 -61
638 11 18 10 39 19 47 19 24 0 114 98 148 160 84 152 56 290 -90 445 -61 66
-155 134 -239 174 -56 26 -200 79 -254 93 -100 26 -245 73 -245 79 0 3 25 33
56 65 92 97 160 219 215 388 40 121 54 230 53 411 -2 333 -79 582 -273 875
-80 122 -342 430 -475 559 -36 35 -66 67 -66 72 0 7 -186 171 -249 219 -18 14
-68 54 -113 90 -44 36 -109 83 -143 105 -35 22 -98 67 -140 100 -42 33 -93 70
-113 82 -51 31 -67 42 -126 88 -61 49 -185 135 -193 135 -3 0 -22 15 -42 33
-21 17 -58 46 -84 64 l-46 32 18 52 c16 47 22 54 57 65 21 7 71 16 109 21 66
7 70 10 70 33 0 23 -3 25 -50 24 -27 0 -72 -4 -98 -9 l-48 -8 7 104 c6 82 11
106 25 119 11 8 20 26 21 40 3 21 -2 25 -27 28 -27 3 -33 10 -58 72 -16 38
-45 93 -65 122 -75 107 -227 234 -389 324 -46 25 -57 38 -99 119 -26 49 -55
101 -65 115 -9 14 -60 95 -112 180 -52 85 -115 181 -139 212 -24 31 -64 85
-89 120 -166 228 -373 501 -413 546 -55 60 -89 68 -119 26z m743 -1583 c66
-45 146 -143 156 -191 4 -19 13 -48 22 -64 21 -42 9 -128 -24 -171 -34 -45
-107 -69 -166 -56 -103 24 -169 70 -233 166 -31 48 -36 63 -41 142 -6 77 -4
95 14 135 22 51 46 68 107 79 62 10 105 0 165 -40z m-683 -380 c34 -17 83 -50
107 -75 52 -51 107 -153 114 -209 6 -54 -15 -121 -50 -158 -33 -34 -100 -68
-135 -69 -59 0 -213 82 -275 147 -15 15 -41 55 -58 88 -28 54 -31 66 -25 115
12 96 49 149 122 175 64 23 131 19 200 -14z"/>
<path d="M2395 7998 c-16 -6 -36 -12 -43 -14 -7 -2 -20 -20 -28 -39 -21 -51
-5 -129 41 -201 62 -97 118 -139 197 -150 39 -5 47 -2 86 31 37 32 42 42 42
77 0 62 -37 151 -84 201 -43 47 -111 94 -136 94 -8 0 -22 3 -30 6 -8 3 -28 0
-45 -5z"/>
<path d="M1715 7591 c-22 -10 -48 -29 -59 -41 -26 -32 -32 -94 -13 -133 8 -18
21 -46 27 -63 25 -68 154 -164 221 -164 72 0 134 55 145 127 13 87 -73 211
-180 261 -66 31 -97 34 -141 13z"/>
</g>
</svg>
