<?xml version="1.0" standalone="no"?>
<!DOCTYPE svg PUBLIC "-//W3C//DTD SVG 20010904//EN"
 "http://www.w3.org/TR/2001/REC-SVG-20010904/DTD/svg10.dtd">
<svg version="1.0" xmlns="http://www.w3.org/2000/svg"
 width="704.000000pt" height="1280.000000pt" viewBox="0 0 704.000000 1280.000000"
 preserveAspectRatio="xMidYMid meet">
<metadata>
Created by potrace 1.16, written by Peter Selinger 2001-2019
</metadata>
<g transform="translate(0.000000,1280.000000) scale(0.100000,-0.100000)"
fill="#000000" stroke="none">
<path d="M1194 9304 c-11 -43 2 -134 36 -244 18 -58 41 -143 51 -190 11 -47
26 -105 34 -130 8 -25 15 -52 15 -60 0 -8 18 -80 39 -160 22 -80 47 -181 56
-225 9 -44 21 -92 27 -107 14 -38 4 -72 -27 -88 -22 -12 -30 -12 -48 0 -30 18
-334 198 -377 222 -19 11 -62 36 -95 55 -33 19 -67 39 -75 44 -8 4 -40 23 -70
40 -158 92 -243 136 -291 149 -40 12 -79 -20 -79 -64 0 -29 67 -238 89 -276 5
-9 12 -31 15 -50 4 -19 18 -66 31 -105 31 -92 70 -223 91 -310 9 -38 23 -83
30 -100 7 -16 25 -64 40 -105 37 -102 142 -322 217 -453 34 -59 82 -143 107
-187 48 -84 158 -214 222 -260 38 -28 249 -99 348 -118 30 -6 62 -13 70 -16
10 -4 23 6 40 32 93 144 161 240 175 245 17 7 45 -1 45 -13 0 -4 -28 -47 -63
-96 -67 -95 -117 -177 -117 -191 0 -5 33 -32 74 -61 82 -57 162 -144 257 -277
60 -85 129 -192 129 -202 0 -6 42 -63 68 -91 12 -14 22 -30 22 -36 0 -11 52
-152 70 -191 77 -165 109 -352 109 -656 1 -189 -16 -348 -63 -599 -7 -41 -12
-78 -9 -82 2 -4 -3 -18 -10 -30 -8 -13 -18 -39 -21 -58 -9 -55 -30 -77 -78
-85 -135 -22 -232 -150 -181 -237 42 -71 101 -88 298 -82 105 3 134 7 153 21
24 18 58 77 121 211 30 65 35 71 47 55 7 -10 14 -22 14 -26 0 -5 16 -29 35
-54 32 -42 37 -63 14 -63 -33 0 -98 -45 -128 -90 -39 -57 -43 -111 -14 -161
24 -41 54 -50 223 -65 151 -14 491 -18 1507 -16 350 1 365 0 456 -23 57 -14
111 -35 135 -52 42 -29 70 -68 59 -80 -4 -3 -91 -8 -195 -9 -103 -2 -201 -7
-217 -12 -18 -5 -56 -6 -90 -1 -88 12 -559 13 -581 1 -11 -5 -75 -12 -144 -15
-77 -3 -142 -11 -169 -21 -24 -9 -56 -16 -72 -16 -15 0 -30 -4 -33 -9 -4 -5
-25 -12 -47 -16 -51 -9 -157 -64 -216 -113 -73 -60 -109 -149 -111 -277 -2
-66 0 -73 36 -125 45 -67 108 -104 162 -95 110 18 163 53 237 158 45 63 111
114 178 138 46 16 82 20 196 20 77 0 154 -3 172 -5 171 -28 294 -46 352 -51
39 -3 86 -10 105 -15 19 -5 67 -13 105 -19 110 -15 273 -42 350 -57 279 -54
470 -50 598 11 28 14 56 25 63 25 19 0 122 106 143 149 11 21 26 67 35 102 22
99 5 172 -70 291 -36 56 -183 179 -260 217 -68 34 -217 87 -324 116 -117 33
-210 67 -210 78 0 7 31 44 68 82 68 71 107 138 165 285 64 163 87 292 87 493
0 189 -31 374 -89 532 -41 110 -147 307 -206 380 -17 22 -36 48 -41 57 -21 38
-318 378 -336 384 -10 3 -29 22 -42 42 -45 70 -273 280 -430 397 -37 28 -82
62 -99 76 -18 14 -45 33 -62 42 -16 8 -47 28 -67 44 -86 66 -335 243 -493 351
-60 41 -135 94 -165 117 -30 23 -79 57 -107 74 -29 18 -53 33 -53 34 0 1 9 26
20 56 33 84 50 185 50 285 0 106 -8 96 113 140 135 50 157 67 122 96 -14 12
-64 -4 -207 -64 l-38 -16 -30 67 c-17 38 -29 77 -26 88 3 11 35 49 70 84 55
53 64 67 55 82 -5 11 -15 19 -22 19 -7 0 -41 -29 -77 -65 -36 -35 -68 -65 -72
-65 -4 0 -31 23 -60 51 -88 84 -232 171 -378 227 -64 25 -212 62 -246 62 -22
0 -70 41 -274 236 -76 73 -160 144 -494 418 -54 44 -126 104 -160 132 -34 28
-92 72 -129 97 -56 39 -76 47 -112 47 -40 0 -45 -3 -51 -26z m1278 -1149 c86
-52 123 -88 169 -167 29 -49 41 -82 45 -127 7 -59 6 -61 -26 -88 -46 -40 -78
-52 -136 -53 -66 0 -199 64 -244 118 -17 21 -37 44 -44 52 -8 8 -24 39 -35 68
-46 116 -15 207 77 228 81 18 125 11 194 -31z m-680 -409 c70 -4 133 -35 205
-100 111 -101 154 -238 102 -323 -41 -65 -141 -101 -211 -74 -13 5 -40 14 -61
21 -88 28 -216 137 -253 217 -31 65 -28 126 8 179 21 30 74 66 105 70 9 2 20
7 26 13 6 6 14 8 18 5 5 -3 32 -6 61 -8z m-24 -793 c-2 -23 -14 -34 -58 -56
-30 -16 -85 -48 -122 -73 -68 -45 -88 -49 -88 -14 0 11 26 35 73 66 39 26 90
60 112 75 22 16 50 28 63 29 20 0 23 -4 20 -27z"/>
<path d="M2275 8146 c-44 -19 -58 -42 -59 -95 -1 -41 6 -57 45 -114 81 -118
152 -167 240 -167 55 0 99 44 99 99 0 55 -18 95 -72 161 -77 93 -188 144 -253
116z"/>
<path d="M1688 7688 c-21 -5 -49 -23 -62 -39 -20 -24 -23 -34 -16 -59 15 -53
69 -137 108 -169 20 -17 47 -40 59 -51 34 -33 94 -60 134 -60 33 0 81 25 101
55 17 23 8 103 -18 151 -33 63 -65 96 -139 145 -63 41 -94 46 -167 27z"/>
</g>
</svg>
