<?xml version="1.0" standalone="no"?>
<!DOCTYPE svg PUBLIC "-//W3C//DTD SVG 20010904//EN"
 "http://www.w3.org/TR/2001/REC-SVG-20010904/DTD/svg10.dtd">
<svg version="1.0" xmlns="http://www.w3.org/2000/svg"
 width="704.000000pt" height="1280.000000pt" viewBox="0 0 704.000000 1280.000000"
 preserveAspectRatio="xMidYMid meet">
<metadata>
Created by potrace 1.16, written by Peter Selinger 2001-2019
</metadata>
<g transform="translate(0.000000,1280.000000) scale(0.100000,-0.100000)"
fill="#000000" stroke="none">
<path d="M4680 9894 c-140 -16 -269 -52 -367 -102 -202 -103 -378 -287 -441
-464 -22 -63 -26 -89 -26 -199 l-1 -126 45 -88 c55 -108 120 -170 234 -225
134 -65 246 -83 526 -86 129 -1 284 -7 345 -14 129 -13 493 -5 631 15 179 25
275 82 309 185 20 59 9 107 -34 153 -40 44 -139 87 -200 87 -22 0 -23 3 -17
38 3 20 9 70 13 109 7 80 -3 103 -42 103 -18 0 -26 9 -36 38 -28 86 -121 252
-141 252 -5 0 -41 33 -81 73 -147 149 -360 238 -597 250 -47 3 -101 3 -120 1z"/>
<path d="M1801 9583 c-12 -14 -24 -36 -26 -47 -3 -12 -7 -223 -10 -471 -10
-842 -9 -810 -32 -813 -15 -2 -34 14 -69 55 -27 32 -51 60 -54 63 -3 3 -23 25
-44 50 -21 25 -60 68 -85 95 -25 28 -66 75 -91 105 -25 30 -70 82 -101 115
-31 33 -83 89 -115 125 -32 36 -93 100 -135 143 -67 67 -82 77 -113 77 -59 0
-60 -5 -67 -395 -4 -192 -9 -364 -12 -381 -3 -17 -7 -98 -9 -180 -3 -154 -2
-160 58 -469 14 -71 32 -168 40 -215 31 -179 57 -246 161 -413 38 -61 139
-170 208 -224 37 -29 39 -33 27 -54 -12 -18 -12 -24 1 -36 11 -11 19 -12 39
-3 22 11 37 6 121 -36 l96 -48 46 43 c47 43 67 48 73 17 7 -35 -77 -98 -102
-76 -24 19 -181 -152 -159 -174 10 -9 41 -7 45 3 6 16 138 151 147 151 6 0 43
-16 84 -36 129 -62 269 -213 408 -441 35 -57 85 -133 112 -169 26 -35 50 -78
54 -96 3 -18 16 -55 28 -83 60 -136 103 -291 120 -429 26 -223 16 -564 -24
-751 -5 -27 -18 -99 -27 -158 -9 -59 -21 -110 -25 -113 -5 -3 -9 -16 -9 -29 0
-14 -7 -43 -16 -65 -14 -34 -21 -40 -52 -45 -92 -15 -162 -59 -191 -118 -34
-71 -24 -120 34 -169 30 -26 108 -37 235 -34 154 4 145 2 182 35 34 30 54 63
110 188 18 40 36 72 39 70 13 -4 108 -137 99 -137 -5 0 -33 -11 -62 -25 -39
-19 -61 -38 -85 -75 -52 -79 -43 -151 24 -193 32 -21 56 -26 153 -32 275 -18
537 -21 1192 -17 689 4 698 3 785 -18 48 -12 106 -32 128 -45 52 -30 92 -72
79 -85 -13 -13 -363 -23 -724 -21 -199 1 -317 -2 -340 -9 -19 -6 -84 -13 -145
-16 -122 -6 -251 -28 -293 -50 -15 -7 -41 -14 -57 -14 -17 0 -47 -11 -67 -25
-20 -14 -41 -25 -47 -25 -5 0 -36 -22 -68 -49 -80 -66 -122 -155 -129 -271 -4
-79 -3 -83 31 -135 55 -87 109 -110 207 -91 66 13 141 68 182 133 31 49 118
125 161 140 81 30 126 34 286 30 163 -5 242 -14 329 -35 25 -6 86 -16 135 -21
89 -10 347 -46 395 -56 14 -2 72 -14 130 -25 299 -59 498 -59 625 2 33 15 65
28 71 28 22 0 126 121 152 177 23 50 27 71 27 148 0 80 -3 97 -30 150 -35 69
-158 198 -240 251 -30 18 -58 34 -63 34 -5 0 -14 6 -21 13 -6 8 -43 24 -83 36
-40 13 -99 34 -131 47 -32 13 -67 24 -79 24 -23 0 -199 57 -211 69 -4 4 22 39
58 77 150 157 265 484 265 753 0 176 -32 370 -91 546 -20 62 -100 230 -129
275 -121 183 -175 255 -298 395 -93 106 -252 274 -357 377 -95 94 -360 307
-446 358 -32 20 -99 68 -149 108 -50 39 -105 79 -122 88 -17 9 -36 20 -42 25
-42 36 -143 109 -203 149 -40 26 -85 57 -100 69 -15 12 -51 39 -80 61 l-51 39
16 51 c15 48 18 51 66 65 27 8 67 15 87 15 56 0 89 16 89 41 0 22 -2 22 -100
15 l-99 -6 6 102 c3 64 11 109 19 119 7 8 15 26 16 40 2 19 -2 25 -24 27 -22
3 -30 13 -49 60 -68 167 -220 323 -433 442 -78 44 -83 49 -120 120 -86 167
-247 422 -373 592 -109 146 -218 295 -330 449 -28 40 -79 100 -112 135 -69 73
-97 80 -130 37z m734 -1571 c46 -28 125 -101 125 -116 0 -5 10 -20 21 -32 12
-13 25 -40 29 -61 5 -21 14 -52 20 -68 30 -72 -24 -195 -92 -210 -107 -24
-204 10 -288 102 -60 66 -79 100 -88 157 -17 121 5 209 60 238 64 34 149 30
213 -10z m-668 -391 c78 -37 143 -101 182 -179 39 -77 47 -129 30 -190 -19
-68 -74 -116 -162 -140 -33 -9 -47 -7 -100 16 -34 14 -66 32 -70 39 -4 7 -14
13 -21 13 -27 0 -117 93 -152 156 -34 60 -36 69 -29 122 15 132 78 189 210
191 36 1 68 -7 112 -28z"/>
<path d="M2405 8000 c-3 -5 -19 -10 -34 -10 -39 0 -66 -59 -57 -125 14 -89
117 -230 192 -261 57 -24 96 -18 142 22 37 31 42 41 42 76 0 69 -30 144 -76
192 -49 51 -111 95 -143 101 -13 2 -31 7 -41 10 -10 3 -21 1 -25 -5z"/>
<path d="M1715 7591 c-22 -10 -48 -29 -59 -41 -26 -32 -32 -94 -13 -133 8 -18
21 -47 28 -65 27 -74 149 -162 224 -162 76 0 145 69 145 146 0 46 -56 149
-102 188 -82 71 -163 95 -223 67z"/>
</g>
</svg>
