<?xml version="1.0" standalone="no"?>
<!DOCTYPE svg PUBLIC "-//W3C//DTD SVG 20010904//EN"
 "http://www.w3.org/TR/2001/REC-SVG-20010904/DTD/svg10.dtd">
<svg version="1.0" xmlns="http://www.w3.org/2000/svg"
 width="704.000000pt" height="1280.000000pt" viewBox="0 0 704.000000 1280.000000"
 preserveAspectRatio="xMidYMid meet">
<metadata>
Created by potrace 1.16, written by Peter Selinger 2001-2019
</metadata>
<g transform="translate(0.000000,1280.000000) scale(0.100000,-0.100000)"
fill="#000000" stroke="none">
<path d="M3803 9608 c-8 -41 -7 -59 3 -85 8 -18 12 -33 9 -33 -3 0 0 -10 7
-22 7 -13 11 -27 10 -31 -4 -14 28 -20 42 -8 10 9 15 8 20 -4 6 -17 32 -20 41
-5 4 6 -8 15 -25 21 l-31 11 31 31 c30 29 30 30 13 51 -10 12 -21 23 -24 26
-3 3 -8 13 -12 22 -3 9 -18 18 -34 20 -24 3 -28 7 -26 31 3 46 -12 30 -24 -25z"/>
<path d="M1173 9299 c-47 -17 -42 -106 13 -264 19 -55 46 -143 59 -195 13 -52
28 -108 34 -125 5 -16 20 -64 32 -105 12 -41 32 -106 44 -145 13 -38 28 -92
34 -120 17 -79 38 -152 51 -174 22 -41 -48 -102 -97 -84 -10 4 -47 25 -83 47
-36 22 -101 59 -145 82 -44 22 -147 78 -230 124 -194 107 -440 230 -460 230
-31 0 -54 -21 -60 -53 -6 -32 6 -70 80 -262 15 -38 33 -90 40 -115 8 -25 41
-126 74 -225 32 -99 65 -200 72 -225 7 -25 16 -49 19 -55 4 -5 21 -44 38 -86
17 -42 47 -105 66 -140 85 -160 180 -326 216 -380 22 -32 40 -60 40 -63 0 -20
155 -212 209 -258 44 -38 221 -98 359 -122 44 -8 89 -19 100 -25 28 -15 31
-14 25 7 -4 18 59 126 147 250 33 46 50 62 65 60 36 -5 27 -32 -46 -133 -40
-55 -80 -120 -90 -145 -12 -31 -24 -46 -40 -50 -21 -5 -15 -12 53 -58 110 -74
232 -216 354 -412 25 -41 67 -104 92 -140 26 -36 54 -85 63 -110 9 -25 37
-100 62 -168 40 -107 58 -178 82 -322 13 -84 17 -430 6 -545 -15 -149 -57
-412 -78 -485 -35 -122 -49 -139 -111 -140 -64 0 -153 -79 -173 -152 -10 -38
-9 -47 9 -78 39 -68 57 -74 222 -80 209 -7 222 -3 271 73 21 34 39 70 39 79 0
10 13 39 30 65 17 26 30 53 30 60 0 27 18 11 67 -61 l50 -74 -33 -5 c-52 -9
-110 -56 -139 -113 -23 -46 -25 -57 -16 -91 20 -75 47 -89 210 -108 146 -17
655 -23 1544 -17 345 2 396 -2 507 -41 89 -31 159 -98 118 -112 -29 -9 -385
-17 -713 -15 -223 1 -360 -2 -377 -9 -15 -5 -64 -11 -110 -12 -81 -1 -161 -15
-263 -44 -27 -8 -65 -18 -84 -22 -46 -8 -201 -100 -227 -134 -6 -8 -26 -41
-44 -74 -28 -52 -33 -72 -38 -152 l-5 -92 39 -60 c62 -96 118 -116 226 -81 70
22 78 29 207 180 85 98 159 121 381 120 144 -1 170 -3 225 -17 22 -6 81 -16
130 -23 107 -14 198 -27 280 -41 33 -5 98 -14 145 -18 47 -5 105 -14 130 -20
126 -30 252 -52 361 -62 147 -14 259 -1 361 42 36 16 71 29 76 29 5 0 34 24
65 53 82 77 111 146 112 262 0 85 -2 94 -39 165 -42 82 -78 125 -173 201 -98
79 -213 127 -535 224 -65 20 -118 39 -118 43 0 17 41 72 64 88 34 22 108 144
156 259 53 127 59 143 71 193 15 63 19 111 25 289 9 231 -26 416 -123 651 -33
82 -154 295 -173 307 -5 3 -30 34 -56 68 -57 75 -304 357 -313 357 -4 0 -45
45 -93 99 -121 138 -411 383 -556 470 -31 19 -91 60 -132 91 -41 31 -95 70
-120 86 -25 16 -99 69 -165 118 -66 49 -149 109 -185 132 -54 36 -267 188
-278 199 -2 2 5 32 16 67 37 118 46 173 46 290 l0 116 70 32 c39 18 96 44 128
58 41 17 58 30 58 43 0 27 -47 25 -112 -6 -88 -40 -159 -66 -169 -60 -5 4 -9
12 -9 19 0 7 -11 34 -25 60 -14 26 -25 49 -25 52 0 3 36 43 80 89 44 46 80 88
80 94 0 5 -9 13 -21 16 -21 7 -48 -14 -145 -115 l-34 -34 -42 40 c-24 22 -62
55 -85 72 -53 41 -261 145 -333 166 -69 21 -196 46 -233 46 -21 0 -52 22 -130
93 -164 149 -351 303 -607 502 -78 61 -168 131 -200 156 -81 64 -182 128 -216
138 -16 4 -39 5 -51 0z m1276 -1091 c61 -27 74 -29 83 -17 8 12 9 12 6 0 -2
-8 7 -26 20 -40 38 -41 111 -149 127 -188 19 -44 19 -84 1 -126 -11 -27 -25
-38 -71 -55 -31 -12 -74 -22 -95 -22 -41 0 -133 32 -195 68 -40 24 -115 111
-115 134 0 7 -7 31 -15 53 -64 178 66 277 254 193z m-563 -448 c32 -11 79 -35
104 -52 48 -34 109 -97 110 -112 0 -5 12 -25 26 -44 54 -70 31 -182 -49 -246
-32 -26 -49 -31 -106 -34 -58 -4 -78 0 -143 27 -84 35 -137 76 -203 157 -85
105 -67 214 48 289 16 10 56 21 90 25 34 4 62 8 63 9 0 0 27 -8 60 -19z m-88
-752 c21 -21 13 -37 -35 -64 -27 -15 -83 -52 -126 -81 -43 -30 -82 -51 -87
-48 -17 11 -11 41 13 62 25 24 207 143 216 143 4 0 12 -5 19 -12z"/>
<path d="M2285 8189 c-27 -14 -55 -64 -55 -100 0 -64 123 -217 205 -255 60
-29 99 -30 145 -6 27 15 37 29 47 68 15 58 3 122 -29 151 -11 10 -26 30 -34
45 -7 14 -40 43 -73 62 -47 29 -72 37 -122 41 -35 2 -73 0 -84 -6z"/>
<path d="M1743 7718 c-13 -6 -23 -15 -23 -19 0 -4 -11 -19 -25 -33 -62 -62 -4
-177 139 -275 40 -28 61 -35 116 -39 66 -4 67 -4 102 31 69 69 57 154 -35 247
-73 73 -215 119 -274 88z"/>
</g>
</svg>
