<?xml version="1.0" standalone="no"?>
<!DOCTYPE svg PUBLIC "-//W3C//DTD SVG 20010904//EN"
 "http://www.w3.org/TR/2001/REC-SVG-20010904/DTD/svg10.dtd">
<svg version="1.0" xmlns="http://www.w3.org/2000/svg"
 width="704.000000pt" height="1280.000000pt" viewBox="0 0 704.000000 1280.000000"
 preserveAspectRatio="xMidYMid meet">
<metadata>
Created by potrace 1.16, written by Peter Selinger 2001-2019
</metadata>
<g transform="translate(0.000000,1280.000000) scale(0.100000,-0.100000)"
fill="#000000" stroke="none">
<path d="M4615 9894 c-71 -11 -225 -60 -288 -91 -157 -78 -319 -220 -396 -347
-109 -181 -121 -404 -29 -564 79 -138 204 -218 413 -264 74 -17 134 -21 340
-23 138 -1 304 -8 370 -15 95 -10 170 -11 360 -2 325 15 431 42 507 132 112
130 42 266 -153 303 -68 13 -66 8 -47 129 14 92 4 125 -38 130 -22 2 -29 11
-40 48 -7 25 -33 82 -56 127 -37 71 -59 98 -151 183 -90 83 -125 108 -210 150
-141 69 -268 100 -427 105 -69 2 -138 1 -155 -1z"/>
<path d="M1798 9573 c-23 -37 -23 -44 -30 -408 -4 -203 -9 -493 -10 -642 -3
-307 -6 -315 -66 -246 -19 21 -64 72 -102 113 -37 41 -98 110 -136 154 -116
133 -404 449 -449 494 -34 33 -51 42 -78 42 -62 0 -61 4 -69 -404 -3 -204 -11
-434 -17 -511 -10 -137 -9 -144 25 -345 19 -113 46 -252 59 -310 13 -58 26
-132 30 -164 9 -93 78 -232 192 -389 30 -41 106 -115 163 -159 28 -21 33 -29
23 -39 -15 -15 -17 -45 -5 -53 5 -3 24 0 43 6 32 9 43 6 117 -31 45 -23 89
-41 97 -41 9 0 37 16 62 35 26 20 51 34 57 32 21 -7 16 -26 -18 -61 -28 -31
-40 -36 -70 -34 -32 2 -42 -4 -97 -62 -61 -64 -79 -90 -79 -109 0 -16 40 -14
46 2 2 7 39 44 80 82 l76 68 57 -28 c91 -45 213 -147 283 -237 81 -105 136
-187 178 -263 18 -33 51 -85 74 -115 22 -30 53 -86 67 -125 145 -387 153 -423
155 -745 1 -221 -7 -336 -36 -495 -4 -27 -17 -99 -28 -160 -23 -125 -45 -210
-62 -230 -6 -7 -30 -17 -53 -20 -101 -17 -197 -102 -197 -175 0 -49 35 -100
85 -125 35 -16 62 -19 202 -20 158 0 162 1 187 24 29 27 76 103 76 122 0 17
64 148 72 146 15 -4 99 -130 91 -137 -4 -4 -24 -13 -43 -19 -45 -15 -60 -27
-98 -80 -25 -35 -32 -54 -32 -91 0 -59 25 -93 83 -113 96 -35 520 -44 1690
-39 300 1 345 -1 410 -18 97 -24 135 -41 176 -78 50 -46 38 -62 -51 -64 -40 0
-131 -3 -203 -6 -173 -6 -197 -6 -500 -3 -144 1 -272 -2 -285 -7 -14 -5 -83
-13 -155 -16 -118 -7 -174 -17 -260 -47 -16 -6 -48 -15 -70 -19 -44 -8 -115
-46 -187 -100 -68 -51 -114 -147 -121 -256 -6 -82 -6 -83 40 -164 41 -72 119
-100 211 -75 67 17 112 51 157 119 67 101 151 162 248 180 100 19 475 -3 519
-30 6 -4 55 -11 107 -16 150 -13 383 -47 481 -70 91 -21 197 -39 285 -48 50
-5 109 -11 133 -15 69 -10 249 19 319 53 86 41 154 104 194 182 30 60 33 73
34 160 0 86 -3 101 -30 155 -20 40 -61 91 -120 151 -128 128 -210 167 -607
286 -60 17 -108 35 -108 38 0 4 29 36 63 72 253 261 335 757 202 1224 -68 236
-209 473 -435 729 -225 255 -441 469 -584 579 -28 22 -78 61 -111 88 -33 26
-86 65 -119 86 -55 35 -133 91 -371 266 -55 40 -147 105 -205 144 -58 39 -122
86 -142 104 l-36 33 15 48 c9 26 23 52 32 56 9 5 56 14 105 20 99 12 127 31
91 61 -11 9 -29 10 -78 1 -117 -20 -109 -27 -102 97 6 90 10 110 27 123 27 21
20 53 -12 57 -20 2 -30 15 -50 60 -71 163 -217 318 -399 421 -103 58 -113 67
-146 122 -19 33 -35 62 -35 64 0 2 -48 84 -106 182 -94 156 -168 266 -319 467
-116 155 -166 223 -225 308 -105 150 -191 238 -234 238 -8 0 -25 -17 -38 -37z
m725 -1554 c22 -12 57 -38 77 -58 45 -46 110 -143 110 -165 0 -9 7 -31 16 -48
21 -40 11 -128 -19 -174 -32 -49 -106 -71 -179 -54 -137 32 -238 136 -265 275
-21 106 -10 161 39 207 57 53 138 59 221 17z m-657 -397 c96 -49 202 -181 219
-274 8 -43 -11 -134 -34 -162 -26 -30 -114 -76 -147 -76 -37 0 -137 37 -178
65 -72 50 -135 119 -165 179 -29 60 -30 65 -20 123 13 72 63 136 124 159 53
19 149 13 201 -14z"/>
<path d="M2417 8003 c-6 -6 -27 -10 -64 -12 -25 -2 -46 -62 -40 -113 13 -103
125 -255 205 -278 67 -18 98 -13 136 24 31 29 36 40 36 79 0 117 -95 245 -213
288 -61 22 -52 21 -60 12z"/>
<path d="M1710 7591 c-48 -26 -70 -53 -81 -99 -7 -35 -5 -48 21 -98 16 -33 30
-64 30 -70 0 -20 84 -90 140 -117 60 -29 103 -27 156 8 75 49 68 186 -13 281
-29 33 -121 93 -161 104 -48 13 -50 13 -92 -9z"/>
</g>
</svg>
