<?xml version="1.0" standalone="no"?>
<!DOCTYPE svg PUBLIC "-//W3C//DTD SVG 20010904//EN"
 "http://www.w3.org/TR/2001/REC-SVG-20010904/DTD/svg10.dtd">
<svg version="1.0" xmlns="http://www.w3.org/2000/svg"
 width="704.000000pt" height="1280.000000pt" viewBox="0 0 704.000000 1280.000000"
 preserveAspectRatio="xMidYMid meet">
<metadata>
Created by potrace 1.16, written by Peter Selinger 2001-2019
</metadata>
<g transform="translate(0.000000,1280.000000) scale(0.100000,-0.100000)"
fill="#000000" stroke="none">
<path d="M2814 9008 c-39 -30 -63 -57 -81 -93 -21 -41 -150 -222 -190 -265
-34 -38 -98 -126 -170 -235 -82 -125 -80 -123 -195 -124 -59 -1 -122 -7 -154
-17 -72 -21 -106 -12 -180 47 -33 26 -93 67 -133 91 -39 24 -87 52 -105 63
-19 11 -87 51 -152 89 -66 38 -121 72 -124 76 -3 5 -61 37 -130 73 -69 36
-152 81 -185 100 -166 98 -202 115 -252 120 l-52 6 -12 -42 c-11 -40 0 -104
32 -185 5 -13 9 -29 9 -36 0 -7 18 -46 40 -86 22 -40 46 -94 54 -119 7 -26 33
-85 56 -131 39 -77 78 -165 176 -395 19 -44 38 -89 43 -100 47 -109 46 -100
18 -148 -13 -25 -39 -92 -56 -149 -18 -56 -36 -117 -42 -134 -17 -57 -23 -345
-9 -446 13 -94 55 -211 91 -257 11 -13 18 -26 16 -28 -2 -2 -51 -8 -108 -13
-117 -11 -161 -25 -157 -49 3 -12 14 -16 48 -14 25 1 93 3 152 5 l108 4 44
-52 44 -51 -120 -61 c-66 -34 -127 -62 -136 -62 -26 0 -82 -38 -82 -55 0 -20
68 -20 96 0 12 8 45 23 73 35 77 30 178 91 188 112 7 17 12 16 66 -18 118 -74
312 -125 529 -139 131 -9 123 -2 285 -250 25 -38 54 -82 65 -97 10 -15 23 -38
28 -50 6 -13 14 -30 19 -38 16 -25 71 -149 71 -160 0 -6 4 -18 10 -28 5 -9 26
-66 45 -125 20 -60 42 -116 50 -124 8 -8 15 -27 15 -42 0 -15 4 -31 9 -36 13
-15 41 -110 47 -162 4 -27 12 -58 20 -70 18 -29 44 -149 55 -257 5 -50 14
-105 20 -125 6 -19 11 -72 10 -118 -3 -112 18 -319 35 -362 8 -18 14 -44 14
-57 0 -13 4 -24 10 -24 5 0 13 -12 17 -27 3 -16 21 -50 38 -78 50 -79 50 -84
7 -102 -20 -8 -45 -22 -56 -31 -25 -23 -66 -106 -66 -135 0 -87 36 -120 145
-131 39 -4 117 -12 175 -18 61 -7 312 -11 605 -10 275 0 635 0 800 0 165 1
316 -3 335 -8 99 -25 128 -35 158 -58 33 -25 68 -79 58 -89 -3 -3 -231 -7
-508 -9 -277 -3 -543 -9 -593 -14 -49 -6 -134 -12 -189 -15 -59 -4 -135 -16
-190 -32 -50 -14 -103 -27 -118 -30 -15 -3 -33 -11 -39 -19 -6 -8 -17 -14 -24
-14 -7 0 -32 -10 -55 -22 -114 -61 -175 -156 -192 -300 -12 -94 -3 -138 26
-138 9 0 13 -6 11 -13 -9 -21 53 -86 93 -97 44 -12 135 3 178 29 16 9 69 64
119 121 78 90 99 108 150 129 57 24 70 25 260 25 115 0 226 -5 260 -11 82 -16
166 -30 293 -48 240 -33 454 -69 597 -99 145 -31 347 -22 475 21 96 32 105 37
164 92 95 89 136 238 98 358 -26 83 -85 186 -116 202 -14 8 -37 31 -50 52 -14
21 -46 52 -71 69 -52 36 -186 99 -265 125 -30 9 -68 23 -85 31 -16 7 -49 18
-72 24 -56 14 -56 34 3 90 110 107 217 327 255 525 25 124 28 390 6 505 -50
265 -153 515 -276 674 -25 33 -77 100 -115 150 -38 50 -106 129 -151 176 -44
47 -126 132 -181 189 -176 186 -502 463 -693 591 -20 14 -66 48 -101 75 -36
28 -78 57 -94 65 -16 8 -41 26 -56 40 -14 14 -66 52 -115 85 -119 80 -231 164
-283 211 -41 37 -43 43 -62 139 -39 206 -98 390 -147 454 -24 31 -26 41 -33
210 -4 97 -10 192 -14 211 -3 19 -15 130 -26 245 -38 392 -40 407 -77 447 -21
24 -44 23 -79 -4z m-434 -1923 c-26 -32 -197 -118 -260 -131 -200 -43 -221
-43 -228 3 -3 18 4 21 77 27 44 4 83 11 86 16 3 5 25 14 48 21 23 6 67 22 97
36 136 63 156 72 170 76 19 5 26 -29 10 -48z m-1090 -128 c25 -4 101 -11 170
-13 127 -6 155 -13 131 -36 -8 -9 -52 -13 -144 -13 -109 0 -141 4 -175 19 -23
11 -42 22 -42 27 0 4 -3 15 -7 25 -5 13 -3 15 7 9 8 -5 35 -13 60 -18z m1605
-26 c0 -9 -32 -25 -85 -43 -47 -15 -86 -28 -88 -28 -1 1 -27 -7 -57 -16 -44
-14 -57 -15 -69 -4 -9 7 -16 16 -16 20 0 10 94 50 117 50 10 0 43 9 73 20 62
22 125 23 125 1z m38 -266 c36 -15 64 -42 54 -52 -10 -9 -51 -7 -172 11 -60 8
-127 12 -147 9 -39 -6 -57 10 -45 41 7 19 261 12 310 -9z"/>
<path d="M2454 5028 c1 -241 -11 -376 -55 -623 -16 -92 -25 -119 -55 -162 -20
-29 -43 -53 -51 -53 -7 0 -40 -13 -72 -30 -125 -63 -174 -184 -102 -256 40
-40 60 -44 225 -44 195 0 212 3 240 49 49 76 106 238 89 250 -15 11 -33 51
-33 73 0 13 -7 36 -15 52 -8 15 -15 48 -15 73 0 24 -4 52 -9 62 -11 19 -17
174 -12 269 3 48 0 66 -13 81 -14 16 -15 23 -6 41 13 24 6 86 -13 108 -6 7
-12 49 -15 93 -3 43 -8 79 -13 79 -5 0 -9 10 -9 23 0 12 -9 46 -20 75 -11 28
-20 55 -19 60 0 4 -6 8 -14 10 -12 3 -14 -33 -13 -230z"/>
</g>
</svg>
