<?xml version="1.0" standalone="no"?>
<!DOCTYPE svg PUBLIC "-//W3C//DTD SVG 20010904//EN"
 "http://www.w3.org/TR/2001/REC-SVG-20010904/DTD/svg10.dtd">
<svg version="1.0" xmlns="http://www.w3.org/2000/svg"
 width="704.000000pt" height="1280.000000pt" viewBox="0 0 704.000000 1280.000000"
 preserveAspectRatio="xMidYMid meet">
<metadata>
Created by potrace 1.16, written by Peter Selinger 2001-2019
</metadata>
<g transform="translate(0.000000,1280.000000) scale(0.100000,-0.100000)"
fill="#000000" stroke="none">
<path d="M3913 10006 c-23 -14 -57 -36 -75 -49 -50 -37 -102 -56 -176 -62
-198 -17 -298 -49 -428 -140 -165 -116 -177 -182 -48 -259 105 -62 306 -125
404 -126 37 0 100 -32 100 -51 0 -6 9 -24 21 -40 28 -39 79 -42 79 -4 0 14 -7
28 -15 31 -8 4 -15 10 -15 14 0 5 23 -7 51 -26 57 -38 98 -43 122 -16 22 24
21 31 -5 59 -12 13 -19 25 -17 28 3 2 43 11 89 20 148 28 202 46 314 103 87
44 112 53 125 44 53 -37 145 -84 176 -89 46 -7 85 12 85 43 0 13 -18 42 -42
67 -44 48 -81 128 -71 155 3 10 17 31 29 49 30 39 43 73 55 141 11 60 5 92
-18 92 -30 0 -82 -41 -111 -88 -16 -26 -52 -72 -81 -102 -28 -30 -51 -57 -51
-60 0 -3 -11 -10 -25 -16 -26 -12 -26 -12 -89 55 -10 11 -40 28 -65 37 -25 9
-54 20 -63 25 -10 5 -36 9 -57 9 -72 0 -111 31 -76 60 14 11 21 40 10 40 -2 0
-18 -13 -35 -30 -53 -52 -71 -34 -20 20 36 38 36 40 9 40 -12 0 -36 -16 -53
-35 -30 -32 -63 -44 -79 -28 -9 8 73 78 94 79 23 2 40 14 34 25 -10 15 -38 10
-82 -15z m727 -90 c0 -39 -20 -92 -56 -146 -22 -33 -24 -44 -18 -91 8 -64 21
-91 69 -144 56 -62 21 -54 -40 9 -29 31 -58 56 -64 56 -6 0 -11 5 -11 10 0 6
-9 10 -20 10 -11 0 -20 7 -20 16 0 11 6 14 20 9 18 -6 20 -2 20 49 0 46 3 56
20 61 17 5 20 15 20 61 0 30 5 60 10 67 6 7 19 24 31 40 27 36 39 34 39 -7z"/>
<path d="M1173 9299 c-47 -17 -42 -106 13 -264 19 -55 46 -143 59 -195 13 -52
28 -108 34 -125 5 -16 20 -64 32 -105 12 -41 32 -106 44 -145 13 -38 28 -92
34 -120 17 -79 38 -152 51 -174 22 -41 -48 -102 -97 -84 -10 4 -56 30 -103 58
-47 29 -98 59 -115 67 -16 8 -120 63 -230 123 -240 130 -450 235 -471 235 -30
0 -53 -21 -59 -53 -6 -30 17 -103 100 -317 21 -57 146 -440 167 -515 7 -22 15
-44 18 -50 4 -5 21 -44 38 -86 17 -42 47 -105 66 -140 85 -160 180 -326 216
-380 22 -32 40 -60 40 -63 0 -24 171 -231 222 -269 39 -29 231 -91 345 -111
44 -8 90 -19 101 -25 28 -15 31 -14 25 7 -4 18 59 126 147 250 33 46 50 62 65
60 36 -5 27 -32 -46 -133 -40 -55 -80 -120 -90 -145 -12 -31 -24 -46 -40 -50
-21 -5 -15 -12 52 -57 112 -76 243 -231 372 -438 30 -49 70 -110 88 -135 18
-25 44 -74 57 -110 133 -363 137 -381 148 -705 8 -210 -2 -337 -42 -585 -25
-157 -44 -235 -72 -302 -13 -31 -22 -39 -51 -44 -105 -16 -179 -74 -202 -156
-10 -38 -9 -47 9 -78 39 -68 57 -74 222 -80 209 -7 222 -3 271 73 21 34 39 70
39 79 0 10 13 39 30 65 17 26 30 53 30 60 0 27 18 11 67 -61 l50 -74 -33 -5
c-52 -9 -110 -56 -139 -113 -23 -46 -25 -57 -16 -91 6 -21 23 -51 38 -65 25
-24 42 -28 172 -43 148 -17 686 -23 1541 -17 354 2 365 1 475 -30 111 -31 203
-106 153 -123 -28 -9 -384 -17 -713 -15 -221 1 -360 -2 -377 -9 -15 -5 -64
-11 -110 -12 -81 -1 -161 -15 -263 -44 -27 -8 -65 -18 -84 -22 -46 -8 -201
-100 -227 -134 -6 -8 -26 -41 -44 -74 -28 -52 -33 -72 -38 -152 l-5 -92 39
-60 c62 -96 118 -116 226 -81 70 22 78 29 207 180 85 98 157 121 386 120 140
0 159 -2 220 -17 22 -6 81 -16 130 -23 107 -14 198 -27 280 -41 33 -5 98 -14
145 -18 47 -5 105 -14 130 -20 126 -30 252 -52 361 -62 147 -14 259 -1 361 42
36 16 71 29 76 29 24 0 123 110 149 165 24 52 28 72 28 150 0 85 -2 95 -38
166 -38 74 -128 174 -204 227 -79 55 -213 110 -423 172 -166 50 -200 61 -200
68 0 17 41 72 64 87 37 25 98 126 156 260 12 28 28 64 36 81 40 89 52 173 60
401 14 373 -101 708 -352 1028 -70 89 -221 262 -286 327 -31 31 -93 97 -137
146 -114 128 -401 367 -540 452 -32 19 -98 65 -147 101 -49 36 -102 75 -119
85 -16 10 -81 57 -144 104 -62 47 -130 96 -150 109 -38 25 -300 210 -314 222
-5 4 0 36 11 70 37 119 46 174 46 291 l0 116 70 32 c39 18 96 44 128 58 41 17
58 30 58 43 0 26 -49 25 -100 -1 -61 -31 -171 -70 -181 -64 -5 3 -9 11 -9 18
0 7 -11 34 -25 60 -14 26 -25 49 -25 52 0 3 36 43 80 89 44 46 80 88 80 94 0
5 -9 13 -21 16 -21 7 -48 -14 -145 -115 l-34 -34 -42 40 c-74 70 -123 102
-246 164 -113 56 -210 89 -312 106 -25 4 -49 8 -55 9 -5 1 -22 3 -38 3 -19 2
-56 28 -125 90 -225 205 -838 694 -964 771 -50 30 -89 40 -115 30z m1233
-1068 c5 -5 33 -19 62 -32 45 -19 55 -20 64 -8 8 12 9 12 6 0 -2 -8 7 -26 20
-40 30 -32 107 -142 127 -181 19 -36 19 -91 1 -134 -11 -27 -25 -37 -75 -56
-83 -31 -135 -25 -242 29 -66 33 -92 53 -121 91 -21 27 -38 55 -38 62 0 7 -7
31 -15 53 -35 97 -12 179 59 210 35 15 137 20 152 6z m-520 -471 c62 -22 134
-67 172 -110 12 -14 40 -54 61 -90 31 -52 39 -73 37 -106 -4 -56 -34 -112 -79
-148 -32 -26 -49 -31 -106 -34 -58 -4 -78 0 -143 27 -84 35 -137 76 -203 157
-85 105 -67 214 48 289 16 10 56 21 90 25 34 4 62 8 63 9 0 0 27 -8 60 -19z
m-88 -752 c21 -21 13 -37 -35 -64 -27 -15 -83 -52 -126 -81 -43 -30 -82 -51
-87 -48 -17 11 -11 41 13 62 25 24 207 143 216 143 4 0 12 -5 19 -12z"/>
<path d="M2285 8189 c-27 -14 -55 -64 -55 -100 0 -64 123 -217 205 -255 60
-29 99 -30 145 -6 27 15 37 29 47 68 15 58 3 122 -29 151 -11 10 -26 30 -34
45 -23 45 -119 95 -194 102 -37 3 -74 1 -85 -5z"/>
<path d="M1743 7718 c-13 -6 -23 -15 -23 -19 0 -4 -11 -19 -25 -33 -62 -62 -4
-177 139 -275 40 -28 61 -35 116 -39 66 -4 67 -4 102 31 69 69 57 154 -35 247
-74 74 -214 119 -274 88z"/>
</g>
</svg>
