<?xml version="1.0" standalone="no"?>
<!DOCTYPE svg PUBLIC "-//W3C//DTD SVG 20010904//EN"
 "http://www.w3.org/TR/2001/REC-SVG-20010904/DTD/svg10.dtd">
<svg version="1.0" xmlns="http://www.w3.org/2000/svg"
 width="704.000000pt" height="1280.000000pt" viewBox="0 0 704.000000 1280.000000"
 preserveAspectRatio="xMidYMid meet">
<metadata>
Created by potrace 1.16, written by Peter Selinger 2001-2019
</metadata>
<g transform="translate(0.000000,1280.000000) scale(0.100000,-0.100000)"
fill="#000000" stroke="none">
<path d="M1787 9593 c-29 -8 -48 -59 -52 -146 -9 -172 -13 -596 -6 -698 4 -58
4 -158 1 -223 -4 -64 -4 -151 0 -194 8 -91 5 -102 -25 -102 -22 0 -88 63 -170
164 -22 27 -51 58 -64 70 -45 39 -62 61 -67 83 -4 13 -9 23 -13 23 -4 0 -72
66 -152 147 -244 249 -253 258 -292 287 -68 50 -116 8 -116 -99 0 -27 2 -268
5 -535 4 -438 7 -493 24 -564 11 -44 20 -89 20 -101 0 -11 7 -48 16 -80 19
-70 28 -111 48 -220 39 -218 125 -393 265 -538 57 -60 182 -159 214 -170 14
-5 17 -15 15 -39 -3 -36 -8 -35 75 -21 29 4 45 1 65 -14 15 -11 48 -29 73 -40
26 -12 49 -25 52 -30 3 -5 -23 -39 -58 -76 -61 -64 -84 -101 -70 -115 4 -4 44
33 89 82 l82 89 39 -21 c52 -26 162 -137 236 -237 105 -142 116 -159 142 -210
14 -27 45 -75 69 -107 25 -31 55 -85 67 -120 13 -34 45 -121 71 -193 26 -71
55 -175 65 -229 38 -217 35 -510 -10 -806 -14 -96 -29 -197 -32 -225 -3 -27
-9 -55 -14 -60 -4 -6 -10 -22 -12 -35 -3 -14 -13 -44 -22 -67 -15 -37 -21 -42
-58 -48 -64 -11 -124 -43 -162 -88 -45 -52 -54 -99 -29 -146 41 -76 108 -95
314 -89 149 4 145 0 251 225 19 40 37 72 40 70 4 -1 30 -33 58 -70 48 -64 50
-69 31 -74 -117 -31 -198 -144 -164 -230 20 -47 57 -71 122 -78 31 -3 93 -10
137 -15 112 -13 1063 -22 1275 -13 269 12 600 1 680 -24 96 -28 189 -99 164
-123 -11 -11 -304 -21 -729 -24 -365 -4 -599 -16 -632 -34 -12 -7 -33 -12 -47
-12 -14 0 -49 -9 -78 -20 -29 -11 -61 -20 -71 -20 -24 0 -139 -63 -188 -102
-22 -18 -56 -61 -76 -97 -32 -58 -36 -74 -41 -158 -4 -72 -1 -97 10 -111 7 -9
21 -33 30 -52 18 -42 94 -84 148 -84 93 1 168 43 222 125 20 31 62 78 95 106
79 68 141 83 345 83 84 0 169 -4 188 -10 19 -5 59 -12 89 -15 30 -3 57 -8 61
-10 3 -2 78 -13 166 -24 88 -11 172 -25 188 -30 15 -6 47 -11 72 -11 24 0 86
-9 137 -19 50 -11 112 -23 137 -26 25 -4 60 -11 79 -17 18 -6 54 -12 80 -14
25 -2 80 -6 121 -10 84 -7 254 17 305 43 57 30 65 33 79 33 25 0 121 105 147
161 39 82 53 165 39 219 -39 148 -200 318 -382 403 -31 15 -63 27 -70 27 -7 0
-40 12 -73 26 -33 13 -82 29 -110 34 -27 6 -72 19 -100 29 -27 11 -69 24 -92
31 -24 6 -43 15 -43 19 0 5 31 43 69 85 107 120 206 336 231 503 30 202 33
247 21 387 -21 237 -105 509 -205 660 -18 28 -40 65 -49 81 -72 139 -547 661
-757 833 -36 29 -90 72 -120 95 -31 23 -77 60 -103 82 -26 21 -64 48 -86 60
-21 11 -75 47 -119 80 -45 33 -120 87 -167 120 -48 33 -106 77 -128 98 -23 21
-54 44 -69 52 -81 44 -233 158 -248 186 -20 37 2 55 77 63 79 8 251 41 261 50
3 4 -2 14 -11 23 -15 15 -23 15 -119 -2 -57 -10 -120 -20 -140 -22 l-38 -5 6
78 c4 44 10 86 14 94 5 8 37 36 72 61 71 51 89 89 43 89 -15 0 -40 -11 -57
-25 -41 -35 -54 -32 -62 15 -9 56 -49 143 -103 222 -81 121 -219 235 -395 328
-50 26 -71 43 -83 70 -60 128 -272 458 -381 594 -22 28 -74 97 -115 154 -175
242 -301 410 -346 457 -32 35 -83 76 -92 74 -3 -1 -14 -3 -24 -6z m827 -1648
c82 -55 100 -73 138 -130 33 -49 42 -73 52 -140 13 -91 7 -136 -20 -166 -47
-52 -136 -70 -213 -44 -38 12 -69 35 -128 93 -69 68 -80 85 -97 141 -21 69
-22 116 -6 166 15 44 46 71 105 88 76 23 126 21 169 -8z m-694 -385 c3 -5 26
-16 50 -25 32 -11 62 -34 102 -78 109 -118 125 -228 51 -351 -29 -48 -67 -66
-156 -73 -51 -4 -63 -1 -96 21 -20 14 -42 26 -49 26 -7 0 -12 4 -12 9 0 4 -18
20 -39 34 -22 15 -52 48 -67 74 -15 27 -41 67 -57 90 -28 40 -30 46 -24 110 6
59 10 72 37 96 17 15 37 27 46 27 9 0 29 9 44 20 15 11 38 24 51 30 27 11 110
5 119 -10z"/>
<path d="M2455 7908 c-43 -15 -72 -45 -79 -80 -7 -37 22 -107 83 -197 51 -74
98 -111 152 -118 38 -5 43 -3 75 32 19 21 34 45 34 52 0 7 5 22 12 32 13 21 3
68 -34 151 -49 112 -144 162 -243 128z"/>
<path d="M1772 7520 c-52 -32 -73 -76 -66 -135 4 -27 14 -63 22 -80 24 -48
111 -142 140 -153 134 -47 166 -43 215 28 22 31 22 102 0 166 -22 64 -122 167
-179 183 -57 16 -95 13 -132 -9z"/>
</g>
</svg>
