<?xml version="1.0" standalone="no"?>
<!DOCTYPE svg PUBLIC "-//W3C//DTD SVG 20010904//EN"
 "http://www.w3.org/TR/2001/REC-SVG-20010904/DTD/svg10.dtd">
<svg version="1.0" xmlns="http://www.w3.org/2000/svg"
 width="704.000000pt" height="1280.000000pt" viewBox="0 0 704.000000 1280.000000"
 preserveAspectRatio="xMidYMid meet">
<metadata>
Created by potrace 1.16, written by Peter Selinger 2001-2019
</metadata>
<g transform="translate(0.000000,1280.000000) scale(0.100000,-0.100000)"
fill="#000000" stroke="none">
<path d="M3555 10292 c-131 -50 -190 -86 -260 -156 -108 -110 -151 -235 -142
-411 7 -113 14 -149 39 -200 24 -46 87 -134 111 -154 34 -27 17 -32 -85 -26
-138 9 -351 -16 -427 -51 -64 -29 -80 -48 -81 -91 0 -28 6 -35 43 -54 56 -29
205 -48 447 -55 194 -6 195 -6 230 18 47 32 50 61 11 84 -17 10 -31 24 -31 31
0 17 65 9 130 -15 58 -22 283 -23 350 -2 30 9 99 15 205 16 169 1 198 6 455
74 177 46 219 70 188 107 -18 22 -86 11 -268 -43 -133 -39 -171 -47 -272 -51
-131 -6 -140 -1 -83 44 40 31 103 134 129 209 9 27 21 89 27 139 14 109 0 177
-61 301 -32 65 -55 96 -123 160 -117 111 -174 134 -351 140 -112 4 -138 2
-181 -14z m-390 -1060 c151 -23 209 -42 189 -62 -7 -7 -44 -8 -125 0 -63 5
-174 14 -247 19 -123 8 -167 19 -148 38 21 22 199 24 331 5z"/>
<path d="M1205 9317 c-15 -12 -17 -24 -13 -88 3 -41 17 -108 31 -149 24 -70
49 -170 96 -370 11 -47 34 -128 51 -180 17 -52 33 -115 36 -140 3 -25 12 -65
19 -90 8 -25 19 -63 25 -85 6 -22 14 -45 16 -52 7 -17 -40 -63 -65 -63 -10 0
-52 20 -93 44 -83 50 -255 151 -403 235 -418 239 -444 251 -481 226 -43 -28
-41 -70 14 -227 27 -78 69 -204 92 -278 23 -74 50 -157 61 -184 10 -27 19 -57
19 -68 0 -49 98 -337 141 -415 16 -28 51 -95 78 -150 27 -54 61 -115 75 -136
14 -21 26 -41 26 -45 0 -5 14 -30 31 -58 18 -27 41 -65 52 -84 33 -60 129
-180 183 -229 65 -59 187 -106 354 -136 41 -7 82 -16 91 -20 21 -8 59 35 149
171 66 98 72 104 98 98 15 -4 28 -7 29 -8 1 -1 -23 -35 -53 -76 -58 -79 -134
-202 -134 -218 0 -5 26 -26 58 -48 31 -21 67 -48 80 -59 32 -28 142 -161 177
-215 17 -25 35 -50 41 -57 7 -7 38 -54 69 -105 32 -51 75 -114 96 -139 22 -27
43 -67 50 -95 7 -27 21 -69 32 -94 34 -81 76 -206 97 -291 17 -69 22 -129 27
-329 5 -228 3 -257 -21 -425 -42 -288 -53 -358 -64 -385 -6 -14 -18 -46 -27
-72 -15 -43 -20 -48 -46 -48 -46 0 -135 -47 -173 -91 -48 -56 -55 -110 -21
-160 39 -60 64 -68 231 -73 183 -5 207 2 258 80 20 29 36 57 36 61 0 14 65
153 71 153 4 0 21 -22 39 -49 17 -27 38 -55 46 -61 7 -7 14 -16 14 -21 0 -10
-68 -43 -98 -48 -15 -2 -83 -102 -88 -131 -7 -35 25 -109 56 -128 50 -31 526
-52 1070 -47 822 7 981 5 1066 -14 43 -10 97 -27 119 -39 52 -26 102 -79 89
-92 -9 -9 -334 -24 -474 -22 -297 4 -566 1 -615 -8 -33 -5 -96 -10 -141 -10
-55 0 -110 -8 -175 -26 -51 -14 -113 -29 -136 -34 -96 -21 -236 -116 -281
-191 -34 -58 -52 -126 -52 -203 0 -84 25 -144 78 -184 32 -25 43 -27 121 -27
81 0 89 2 133 33 26 18 63 56 82 85 51 75 115 133 174 156 45 18 237 45 252
36 3 -2 54 -6 114 -9 60 -4 112 -9 117 -11 7 -5 378 -61 554 -85 39 -5 138
-22 220 -39 231 -45 350 -54 481 -36 141 20 223 53 292 119 68 65 86 95 110
181 36 129 -4 252 -116 368 -128 131 -257 197 -567 287 -162 47 -175 51 -175
56 0 13 23 44 73 97 102 108 194 322 234 538 26 147 16 473 -17 554 -5 11 -12
38 -15 60 -29 177 -198 488 -374 691 -20 23 -61 70 -91 105 -62 73 -148 163
-312 329 -121 123 -169 168 -233 215 -22 17 -45 35 -51 40 -27 23 -184 139
-241 178 -111 75 -275 191 -358 254 -45 34 -117 84 -160 112 -87 57 -227 160
-282 207 l-37 31 17 54 c30 96 47 192 47 275 0 53 4 85 13 92 6 6 55 28 107
49 123 50 135 57 127 77 -10 25 -45 19 -152 -24 -54 -22 -100 -40 -102 -40 -5
0 -63 132 -63 145 0 6 31 44 70 84 59 62 68 76 60 92 -6 10 -16 19 -23 19 -7
0 -44 -29 -82 -64 l-71 -64 -54 50 c-165 149 -368 243 -621 287 -29 5 -65 33
-175 137 -199 189 -331 302 -674 574 -96 77 -187 150 -203 162 -68 56 -125 71
-162 45z m1253 -1156 c115 -59 209 -169 225 -266 4 -22 10 -49 13 -60 7 -27
-31 -66 -93 -95 -37 -17 -55 -20 -101 -14 -31 4 -71 15 -90 25 -18 11 -40 19
-48 19 -25 0 -120 104 -150 163 -34 67 -43 156 -20 192 25 37 64 59 120 66 28
3 54 7 59 8 4 0 42 -17 85 -38z m-705 -408 c4 -3 29 -7 55 -8 93 -3 236 -110
276 -206 10 -24 22 -52 27 -61 14 -27 11 -106 -6 -137 -20 -40 -69 -79 -115
-91 -42 -11 -137 -4 -146 11 -3 5 -14 9 -25 9 -21 0 -121 65 -167 108 -54 52
-90 115 -97 174 -6 48 -4 60 18 94 30 48 38 55 102 88 52 27 67 30 78 19z m12
-802 c0 -20 -12 -30 -60 -55 -33 -17 -86 -48 -119 -69 -32 -21 -65 -36 -72
-33 -28 11 -13 36 49 79 156 110 202 127 202 78z"/>
<path d="M2290 8150 c-48 -11 -80 -51 -80 -99 0 -84 161 -263 246 -275 50 -6
67 -2 112 31 35 26 41 57 22 125 -20 69 -129 178 -217 214 -36 15 -34 15 -83
4z"/>
<path d="M1663 7690 c-44 -27 -67 -64 -59 -96 9 -36 66 -123 102 -155 96 -87
119 -103 162 -114 58 -15 98 -5 133 34 25 27 26 32 18 82 -5 30 -17 68 -26 84
-47 88 -184 182 -250 172 -18 -3 -33 -2 -33 4 0 14 -11 11 -47 -11z"/>
</g>
</svg>
