<?xml version="1.0" standalone="no"?>
<!DOCTYPE svg PUBLIC "-//W3C//DTD SVG 20010904//EN"
 "http://www.w3.org/TR/2001/REC-SVG-20010904/DTD/svg10.dtd">
<svg version="1.0" xmlns="http://www.w3.org/2000/svg"
 width="704.000000pt" height="1280.000000pt" viewBox="0 0 704.000000 1280.000000"
 preserveAspectRatio="xMidYMid meet">
<metadata>
Created by potrace 1.16, written by Peter Selinger 2001-2019
</metadata>
<g transform="translate(0.000000,1280.000000) scale(0.100000,-0.100000)"
fill="#000000" stroke="none">
<path d="M5608 10118 c-10 -7 -9 -12 6 -23 11 -8 26 -15 33 -15 21 0 15 -12
-24 -52 -31 -31 -36 -42 -27 -56 14 -23 69 -41 124 -41 l45 0 -24 19 c-13 11
-31 20 -40 20 -9 0 -23 4 -31 10 -11 7 -5 17 33 51 28 24 47 48 45 58 -4 19
-119 43 -140 29z"/>
<path d="M5890 10065 c0 -9 7 -27 16 -40 l16 -25 -40 0 c-24 0 -49 -7 -62 -18
-20 -16 -21 -21 -10 -42 16 -29 90 -110 101 -110 17 0 9 32 -17 66 -15 19 -22
34 -18 35 5 0 39 0 77 -1 88 -2 88 18 -2 113 -37 39 -61 48 -61 22z"/>
<path d="M4625 9893 c-225 -49 -292 -76 -438 -176 -98 -67 -179 -150 -241
-247 -37 -58 -51 -85 -88 -179 -5 -14 -12 -70 -15 -126 -5 -87 -3 -112 16
-172 23 -73 64 -148 110 -197 41 -44 137 -105 199 -127 135 -48 236 -61 477
-64 127 -2 266 -7 310 -12 138 -14 609 -6 698 12 160 32 237 77 276 160 39 82
21 150 -53 204 -40 28 -135 61 -178 61 -21 0 -22 8 -6 116 14 98 5 131 -38
136 -22 2 -29 11 -39 43 -27 95 -88 189 -188 292 -144 149 -274 218 -496 263
-92 18 -251 25 -306 13z"/>
<path d="M1822 9603 c-7 -3 -21 -22 -32 -43 -18 -35 -20 -72 -27 -541 -4 -277
-8 -561 -8 -631 0 -120 -1 -128 -21 -137 -18 -8 -25 -4 -45 22 -12 17 -77 92
-143 166 -67 73 -137 155 -156 181 -19 25 -74 87 -122 136 -48 49 -99 105
-113 124 -44 61 -189 201 -214 207 -31 8 -52 -6 -73 -48 -16 -30 -17 -69 -16
-344 0 -194 -4 -342 -11 -395 -16 -114 -9 -299 17 -440 39 -210 74 -404 88
-495 15 -92 28 -138 48 -158 7 -7 20 -30 30 -51 55 -117 190 -286 286 -357 30
-23 33 -28 21 -43 -7 -8 -10 -23 -7 -32 5 -12 14 -14 45 -9 32 5 51 0 117 -33
116 -58 113 -58 158 -12 21 22 45 40 52 40 26 0 14 -42 -20 -74 l-34 -32 32
-22 c17 -11 40 -24 51 -28 26 -10 152 -103 189 -140 16 -16 40 -45 55 -64 14
-19 29 -37 32 -40 3 -3 41 -59 84 -125 42 -66 104 -159 135 -208 32 -48 68
-117 80 -153 13 -37 29 -78 36 -93 8 -14 14 -30 14 -36 0 -5 13 -44 29 -85 70
-178 96 -457 72 -745 -14 -162 -69 -545 -81 -560 -4 -5 -10 -26 -14 -45 -9
-52 -32 -80 -66 -80 -57 0 -156 -59 -189 -114 -41 -66 -16 -146 59 -190 31
-19 52 -21 196 -21 119 0 168 4 187 14 26 14 48 53 118 209 19 40 37 71 41 70
4 -2 28 -32 53 -68 l46 -65 -56 -27 c-83 -40 -124 -96 -125 -170 0 -63 36
-106 100 -118 158 -29 343 -34 1168 -33 l842 2 92 -24 c118 -31 212 -95 182
-125 -13 -13 -240 -21 -729 -25 -187 -1 -401 -7 -475 -12 -126 -9 -292 -43
-314 -64 -6 -5 -25 -9 -42 -9 -18 0 -35 -4 -38 -9 -3 -5 -30 -20 -59 -34 -108
-53 -178 -147 -197 -263 -19 -117 -14 -153 33 -214 24 -30 59 -64 79 -75 34
-18 41 -18 99 -6 100 20 138 46 196 131 39 58 113 123 172 152 41 20 65 22
234 26 151 3 200 1 245 -12 31 -8 111 -22 177 -31 199 -25 441 -64 610 -97
183 -36 419 -56 474 -40 20 6 56 15 81 20 25 6 72 20 105 32 111 38 196 150
226 298 23 111 -35 237 -166 359 -57 53 -110 92 -167 120 -87 45 -228 100
-288 112 -59 12 -250 75 -250 82 0 4 30 38 68 77 65 68 74 82 181 302 16 32
61 240 72 333 23 188 -7 448 -71 638 -52 150 -169 364 -262 479 -167 207 -261
313 -429 486 -124 128 -254 245 -359 324 -40 30 -89 69 -109 86 -20 18 -54 42
-76 54 -22 12 -89 59 -150 104 -60 45 -139 102 -175 126 -36 24 -85 59 -110
79 -25 20 -72 54 -105 76 -33 22 -93 64 -132 94 -81 60 -87 74 -53 140 l19 39
87 7 c67 6 91 12 107 28 19 19 19 20 2 34 -11 7 -26 11 -34 8 -15 -4 -83 -14
-126 -18 -19 -2 -20 3 -17 103 4 95 6 108 28 131 27 28 18 49 -23 49 -13 0
-23 4 -23 10 0 5 -19 48 -41 94 -30 61 -67 113 -130 183 -85 95 -132 130 -346
260 -13 7 -29 28 -37 47 -22 54 -223 381 -310 506 -74 107 -207 282 -231 305
-6 6 -24 30 -41 55 -96 146 -257 355 -300 389 -27 21 -38 24 -62 14z m727
-1601 c73 -49 141 -140 169 -225 26 -79 27 -98 8 -160 -18 -59 -38 -79 -95
-94 -115 -31 -244 32 -323 156 -66 106 -76 252 -20 315 59 66 168 70 261 8z
m-707 -373 c91 -35 151 -93 203 -191 49 -93 53 -118 30 -194 -30 -103 -139
-158 -246 -123 -65 21 -183 110 -231 173 -55 74 -69 112 -58 160 4 19 6 37 3
40 -12 11 41 88 79 114 69 48 137 54 220 21z"/>
<path d="M2397 8003 c-41 -4 -51 -9 -67 -36 -31 -50 -26 -108 15 -186 43 -80
57 -98 117 -143 66 -50 126 -58 179 -24 44 30 54 57 45 123 -13 94 -106 217
-194 254 -24 11 -44 18 -45 17 -1 -1 -24 -3 -50 -5z"/>
<path d="M1694 7584 c-23 -15 -48 -41 -56 -58 -17 -36 -13 -100 8 -117 8 -6
14 -20 14 -32 0 -30 33 -78 82 -117 81 -67 95 -73 161 -68 55 4 64 8 93 42 40
47 48 88 29 152 -30 103 -144 204 -245 219 -38 5 -51 2 -86 -21z"/>
</g>
</svg>
