<?xml version="1.0" standalone="no"?>
<!DOCTYPE svg PUBLIC "-//W3C//DTD SVG 20010904//EN"
 "http://www.w3.org/TR/2001/REC-SVG-20010904/DTD/svg10.dtd">
<svg version="1.0" xmlns="http://www.w3.org/2000/svg"
 width="704.000000pt" height="1280.000000pt" viewBox="0 0 704.000000 1280.000000"
 preserveAspectRatio="xMidYMid meet">
<metadata>
Created by potrace 1.16, written by Peter Selinger 2001-2019
</metadata>
<g transform="translate(0.000000,1280.000000) scale(0.100000,-0.100000)"
fill="#000000" stroke="none">
<path d="M1200 9311 c-24 -45 -12 -131 43 -311 20 -63 53 -189 75 -280 22 -91
50 -196 62 -235 11 -38 25 -92 29 -120 11 -60 47 -195 55 -202 9 -9 -13 -42
-39 -59 -23 -15 -28 -14 -107 30 -46 26 -135 79 -198 117 -101 62 -334 197
-485 281 -72 40 -151 77 -179 84 -29 7 -66 -28 -66 -64 0 -14 33 -124 74 -246
84 -252 126 -386 157 -501 58 -220 142 -415 288 -665 30 -52 70 -124 89 -160
41 -77 44 -81 102 -151 60 -71 99 -110 133 -132 36 -23 290 -107 324 -107 14
0 43 -5 65 -12 38 -11 39 -10 67 23 16 19 53 72 82 119 61 98 87 130 106 130
32 0 20 -61 -20 -102 -31 -32 -127 -186 -127 -205 0 -4 36 -35 81 -68 120 -89
179 -160 346 -418 40 -62 83 -125 95 -141 26 -33 35 -54 68 -146 21 -61 28
-79 60 -155 86 -206 103 -652 40 -1045 -32 -202 -68 -346 -93 -377 -5 -7 -24
-13 -42 -13 -68 0 -185 -94 -198 -159 -8 -39 8 -93 35 -118 38 -34 88 -44 247
-45 197 -2 181 -15 297 224 33 69 39 76 50 60 7 -9 14 -21 14 -26 0 -4 13 -25
28 -45 46 -59 46 -58 -5 -81 -108 -48 -157 -136 -123 -224 10 -26 50 -58 78
-61 10 -1 24 -5 32 -8 48 -19 534 -34 1005 -32 1069 6 990 9 1147 -37 44 -13
136 -94 122 -108 -8 -8 -334 -25 -469 -24 -33 0 -163 1 -290 2 -126 1 -250 0
-275 -3 -25 -2 -99 -8 -165 -13 -114 -8 -261 -34 -296 -52 -9 -5 -34 -12 -55
-16 -47 -9 -154 -64 -206 -107 -21 -18 -52 -55 -68 -82 -45 -78 -67 -258 -35
-285 8 -7 15 -17 15 -23 0 -23 56 -81 96 -98 40 -18 47 -19 115 -4 44 9 82 23
98 37 45 40 71 69 71 78 0 20 137 144 179 162 80 34 318 44 456 18 98 -18 231
-40 300 -49 299 -40 488 -71 611 -102 44 -11 85 -19 90 -18 5 2 47 -1 94 -5
52 -4 112 -3 155 4 39 7 80 11 93 11 21 -1 67 15 158 55 41 18 130 106 154
153 30 60 49 159 41 214 -5 26 -25 80 -46 121 -31 60 -55 89 -131 157 -51 45
-119 97 -151 116 -53 30 -202 83 -358 127 -103 29 -195 60 -195 67 0 3 30 37
68 76 59 61 162 221 162 251 0 5 9 31 19 58 108 275 111 643 9 957 -67 207
-222 458 -411 667 -18 19 -63 71 -101 115 -38 44 -82 88 -98 97 -15 10 -28 23
-28 29 0 44 -428 418 -597 522 -26 16 -80 54 -120 85 -41 31 -91 68 -111 82
-20 13 -84 58 -142 100 -118 85 -116 84 -236 166 -166 112 -264 186 -264 198
0 6 12 47 26 91 21 63 28 107 32 207 5 143 -5 128 115 172 135 50 157 67 122
96 -14 12 -64 -4 -208 -64 l-37 -16 -25 57 c-45 102 -51 86 81 224 26 28 24
59 -4 59 -9 0 -47 -30 -84 -67 l-68 -67 -42 40 c-154 148 -371 253 -610 297
-65 12 -67 13 -175 117 -111 108 -213 200 -294 267 -26 21 -128 106 -227 188
-378 316 -446 365 -504 365 -27 0 -40 -6 -48 -19z m1248 -1142 c129 -64 225
-185 238 -299 6 -55 4 -63 -17 -87 -32 -35 -95 -63 -143 -63 -36 0 -104 18
-116 30 -3 3 -27 17 -53 30 -27 14 -62 41 -78 60 -16 19 -36 42 -43 50 -24 26
-56 123 -56 171 0 54 24 91 73 113 28 13 49 17 118 24 9 1 43 -12 77 -29z
m-544 -458 c84 -41 146 -102 190 -189 19 -38 33 -71 32 -73 -2 -2 -6 -27 -9
-56 -6 -64 -34 -105 -90 -132 -68 -33 -127 -28 -222 19 -132 66 -230 171 -249
269 -14 76 40 164 109 177 20 3 37 10 40 14 3 4 34 6 69 5 47 -3 83 -12 130
-34z m-139 -761 c0 -20 -11 -30 -60 -55 -33 -16 -88 -50 -122 -73 -58 -42 -83
-47 -83 -18 0 19 47 59 140 121 91 60 125 66 125 25z"/>
<path d="M2272 8140 c-49 -22 -53 -28 -54 -90 0 -43 6 -60 39 -107 73 -107
143 -160 223 -170 46 -5 51 -4 85 30 26 26 35 43 35 69 0 71 -79 186 -168 243
-59 39 -111 47 -160 25z"/>
<path d="M1688 7686 c-51 -16 -81 -48 -80 -85 1 -36 78 -160 117 -187 14 -11
41 -32 58 -48 66 -59 138 -72 193 -34 102 70 20 258 -148 344 -51 26 -82 28
-140 10z"/>
</g>
</svg>
