<?xml version="1.0" standalone="no"?>
<!DOCTYPE svg PUBLIC "-//W3C//DTD SVG 20010904//EN"
 "http://www.w3.org/TR/2001/REC-SVG-20010904/DTD/svg10.dtd">
<svg version="1.0" xmlns="http://www.w3.org/2000/svg"
 width="704.000000pt" height="1280.000000pt" viewBox="0 0 704.000000 1280.000000"
 preserveAspectRatio="xMidYMid meet">
<metadata>
Created by potrace 1.16, written by Peter Selinger 2001-2019
</metadata>
<g transform="translate(0.000000,1280.000000) scale(0.100000,-0.100000)"
fill="#000000" stroke="none">
<path d="M2376 9407 c-15 -19 -26 -39 -26 -44 0 -6 -16 -69 -36 -139 -20 -71
-40 -147 -44 -169 -5 -22 -18 -61 -29 -88 -18 -42 -74 -216 -103 -322 -28
-104 -50 -164 -66 -178 -9 -8 -39 -20 -67 -25 -27 -5 -80 -18 -118 -28 -46
-13 -72 -16 -83 -9 -14 9 -48 80 -94 195 -53 133 -113 276 -120 285 -4 6 -10
22 -14 37 -3 15 -20 56 -36 90 -16 35 -34 81 -39 103 -17 62 -84 178 -113 195
-70 39 -119 -54 -163 -310 -16 -95 -34 -213 -40 -255 -3 -27 -13 -81 -21 -120
-22 -114 -63 -417 -79 -600 -13 -133 -20 -174 -34 -190 -54 -61 -169 -286
-186 -364 -9 -42 -28 -54 -92 -58 -31 -2 -59 -6 -62 -9 -15 -14 21 -40 68 -48
41 -8 50 -13 45 -25 -4 -9 -10 -54 -13 -101 l-6 -84 -49 -18 c-59 -21 -71 -31
-62 -53 4 -12 13 -15 29 -11 12 3 38 9 58 12 34 6 36 4 51 -34 20 -52 80 -142
121 -182 92 -91 346 -218 517 -260 195 -48 305 -86 355 -122 68 -48 167 -165
268 -318 52 -80 115 -172 139 -205 24 -33 52 -85 63 -115 11 -30 23 -59 26
-65 4 -5 14 -35 24 -65 10 -30 30 -86 45 -125 48 -124 62 -227 67 -490 4 -211
2 -257 -17 -385 -12 -80 -30 -201 -40 -269 -10 -68 -24 -129 -29 -134 -6 -6
-11 -19 -11 -29 0 -10 -11 -36 -25 -57 -20 -32 -32 -40 -67 -46 -39 -7 -109
-43 -133 -69 -74 -81 -53 -211 40 -238 23 -6 105 -10 195 -10 203 2 197 -2
281 199 23 57 46 103 50 103 4 0 10 -9 14 -20 3 -11 24 -43 46 -72 21 -29 39
-55 39 -59 0 -4 -15 -9 -32 -13 -85 -17 -166 -120 -153 -195 3 -21 19 -51 34
-68 29 -32 16 -30 261 -53 131 -13 1109 -23 1170 -13 25 5 198 5 385 2 314 -6
344 -8 394 -27 30 -12 72 -33 93 -47 39 -26 67 -69 54 -83 -7 -6 -84 -9 -441
-15 -38 -1 -185 0 -325 2 -169 2 -264 -1 -283 -8 -16 -6 -79 -11 -140 -11
-112 0 -128 -3 -352 -65 -62 -17 -106 -38 -170 -83 -63 -44 -95 -74 -95 -88 0
-6 -12 -33 -27 -60 -23 -40 -28 -64 -31 -139 -3 -75 -1 -93 12 -104 9 -7 16
-19 16 -26 0 -24 54 -78 96 -96 36 -16 49 -17 100 -8 92 17 126 41 206 144 63
82 94 110 153 137 45 21 68 23 227 26 118 2 196 -1 235 -9 32 -7 69 -14 83
-15 14 -1 61 -7 105 -13 44 -7 109 -16 145 -21 36 -5 108 -15 160 -24 52 -8
125 -20 161 -25 37 -6 136 -25 220 -42 84 -17 165 -28 179 -26 14 3 45 1 70
-4 30 -6 68 -6 115 2 39 6 88 13 110 16 22 2 54 10 70 18 17 7 51 23 78 34
131 58 220 222 197 364 -16 101 -113 239 -235 335 -64 50 -192 107 -345 153
-163 48 -290 91 -290 97 0 18 41 71 58 76 32 10 102 124 159 256 37 87 50 125
84 245 17 63 24 384 9 484 -40 280 -137 512 -319 761 -63 86 -225 274 -319
370 -35 36 -105 108 -155 161 -102 107 -182 177 -333 292 -56 43 -109 86 -119
97 -10 11 -24 20 -30 20 -14 0 -150 94 -389 270 -41 30 -118 84 -171 120 -53
36 -111 76 -130 90 -18 14 -79 58 -134 99 l-101 74 2 156 c1 113 -3 172 -14
216 -9 33 -24 105 -33 160 -9 55 -25 127 -35 160 -10 33 -33 114 -50 180 -53
201 -124 400 -178 495 -44 79 -122 233 -156 310 -72 159 -108 237 -133 287
-55 108 -102 130 -147 70z m-236 -1391 c0 -2 -16 -27 -35 -56 -47 -71 -58
-117 -52 -231 4 -76 11 -108 32 -152 22 -48 31 -57 60 -63 90 -17 156 97 161
281 4 108 8 130 24 120 7 -4 10 -46 10 -108 -2 -157 -39 -265 -115 -343 -40
-41 -54 -48 -95 -52 -40 -4 -57 0 -92 21 -56 33 -85 85 -99 182 -18 122 11
244 80 330 27 34 121 89 121 71z m-707 -103 c-47 -70 -67 -173 -53 -270 16
-114 50 -163 111 -163 46 0 73 30 94 104 15 55 25 197 13 190 -14 -9 -17 13
-4 31 11 15 15 7 30 -69 11 -56 14 -92 8 -99 -5 -7 -13 -33 -16 -59 -9 -59
-71 -157 -118 -186 -38 -24 -106 -29 -139 -12 -28 15 -76 117 -89 188 -26 147
30 328 112 362 13 5 33 9 46 9 23 1 23 1 5 -26z m1391 -458 c9 -23 -18 -34
-95 -40 -41 -3 -92 -10 -114 -16 -60 -16 -76 -16 -88 2 -18 28 -1 49 40 50 21
0 79 6 128 13 98 13 121 11 129 -9z m-219 -214 c22 -5 60 -15 85 -23 25 -9 67
-22 93 -29 53 -15 82 -40 74 -64 -8 -20 -30 -19 -74 5 -21 11 -45 20 -53 20
-9 0 -20 4 -25 8 -6 5 -41 14 -80 21 -110 19 -112 20 -119 37 -9 24 13 47 38
39 12 -4 39 -10 61 -14z"/>
</g>
</svg>
