<?xml version="1.0" standalone="no"?>
<!DOCTYPE svg PUBLIC "-//W3C//DTD SVG 20010904//EN"
 "http://www.w3.org/TR/2001/REC-SVG-20010904/DTD/svg10.dtd">
<svg version="1.0" xmlns="http://www.w3.org/2000/svg"
 width="704.000000pt" height="1280.000000pt" viewBox="0 0 704.000000 1280.000000"
 preserveAspectRatio="xMidYMid meet">
<metadata>
Created by potrace 1.16, written by Peter Selinger 2001-2019
</metadata>
<g transform="translate(0.000000,1280.000000) scale(0.100000,-0.100000)"
fill="#000000" stroke="none">
<path d="M3885 10096 c-38 -18 -98 -54 -131 -80 -58 -44 -65 -46 -125 -46 -75
0 -221 -22 -299 -46 -117 -35 -228 -103 -332 -203 -53 -49 -68 -71 -68 -92 0
-22 6 -30 25 -35 15 -4 25 -13 25 -23 0 -21 93 -92 170 -131 96 -48 267 -99
383 -115 41 -5 51 -11 71 -44 30 -48 82 -91 107 -91 32 0 59 19 59 40 0 25 1
25 58 -5 51 -27 91 -32 110 -13 18 18 14 62 -8 91 -11 14 -20 27 -20 30 0 2
35 10 78 16 159 25 372 102 502 181 l36 21 61 -40 c76 -51 131 -71 197 -71 95
0 108 34 40 105 -76 81 -88 104 -89 164 0 49 5 64 42 120 48 72 55 99 51 191
l-3 65 -29 -2 c-37 -3 -109 -71 -182 -173 -29 -41 -63 -87 -76 -102 l-23 -28
-87 40 c-114 52 -242 96 -336 115 -42 9 -78 18 -80 20 -2 2 8 19 23 39 34 44
31 80 -7 84 -19 2 -25 7 -21 19 6 16 -12 33 -37 32 -8 0 -46 -15 -85 -33z
m915 -98 c-1 -57 -18 -101 -64 -168 -37 -53 -38 -58 -34 -120 6 -76 25 -120
80 -177 22 -22 38 -46 34 -51 -9 -15 -45 -2 -51 18 -3 10 -13 21 -21 24 -21 8
-64 104 -64 144 0 17 -4 32 -10 32 -5 0 -10 9 -10 19 0 27 -11 52 -20 46 -12
-8 -19 20 -9 36 7 12 9 12 9 -1 1 -9 5 -5 10 8 5 12 18 25 27 29 31 12 73 67
74 98 3 67 4 81 12 93 18 28 37 13 37 -30z m-1315 -101 c-11 -6 -24 -12 -29
-12 -5 0 -14 -8 -20 -19 -8 -14 -8 -20 2 -23 14 -5 17 -33 3 -33 -5 0 -11 6
-14 14 -5 13 -55 31 -63 23 -3 -2 9 -32 27 -65 48 -94 49 -128 4 -214 -38 -75
-62 -108 -77 -108 -4 0 -8 5 -8 10 0 6 7 10 17 10 9 0 14 3 10 6 -3 3 3 15 14
27 10 11 19 27 19 34 0 7 9 28 20 48 24 43 26 78 4 100 -9 9 -14 24 -11 36 6
23 -17 49 -43 49 -20 0 -44 33 -32 44 3 4 -1 4 -10 1 -9 -4 -18 -15 -21 -26
-4 -15 -10 -17 -29 -10 -35 13 -28 32 22 57 39 20 46 21 50 7 5 -13 7 -13 19
1 7 9 10 16 5 17 -12 1 127 37 146 38 10 0 9 -3 -5 -12z"/>
<path d="M1152 9283 c-17 -43 -3 -145 32 -241 14 -38 32 -100 117 -397 11 -38
24 -83 29 -100 5 -16 21 -73 36 -125 15 -52 33 -109 40 -127 8 -17 14 -40 14
-52 0 -11 8 -39 17 -63 l17 -42 -39 -32 -38 -33 -76 41 c-42 22 -80 44 -86 48
-5 4 -46 27 -90 50 -44 24 -116 62 -160 86 -44 24 -100 53 -124 65 -25 12 -86
45 -135 73 -50 29 -135 72 -188 96 -92 41 -98 42 -121 27 -38 -25 -38 -58 -1
-165 19 -53 50 -142 69 -197 18 -55 49 -145 68 -200 19 -55 53 -156 75 -225
63 -191 88 -255 149 -370 98 -185 166 -304 200 -351 18 -26 33 -49 33 -53 0
-23 116 -171 200 -256 49 -49 65 -58 145 -83 50 -16 106 -34 125 -42 19 -7 62
-18 95 -25 112 -22 138 -32 213 -83 138 -95 208 -175 372 -422 61 -93 118
-177 126 -186 8 -8 19 -31 25 -50 10 -30 39 -108 101 -264 42 -108 60 -238 65
-480 6 -244 0 -322 -43 -575 -33 -199 -33 -197 -66 -291 -15 -42 -46 -69 -78
-69 -65 0 -131 -48 -171 -124 -27 -50 -19 -94 24 -139 27 -29 43 -36 97 -44
36 -5 117 -9 182 -8 102 2 120 5 147 25 33 23 81 106 81 139 0 11 5 21 10 23
6 2 21 29 34 61 26 63 28 63 74 -14 12 -19 30 -44 42 -54 25 -22 26 -35 3 -35
-10 0 -39 -10 -64 -22 -118 -55 -147 -216 -48 -268 68 -37 619 -50 1735 -43
l331 2 92 -29 c117 -38 181 -79 181 -115 0 -16 -312 -28 -745 -29 -555 -2
-805 -45 -993 -173 -49 -33 -71 -60 -103 -128 -35 -75 -52 -231 -27 -256 9 -8
18 -24 22 -35 8 -27 82 -82 127 -95 30 -10 47 -8 100 10 69 23 107 54 194 158
100 120 168 146 385 145 108 -1 186 -8 291 -26 79 -13 180 -29 224 -35 44 -7
109 -16 145 -21 36 -6 99 -14 140 -19 41 -5 131 -21 200 -36 208 -43 352 -58
450 -46 113 14 175 27 202 45 13 7 34 17 48 21 48 15 127 93 158 158 63 130
63 210 0 331 -36 68 -149 188 -218 231 -91 58 -219 109 -440 174 -136 41 -170
53 -170 60 0 11 26 43 77 96 54 56 144 228 188 358 60 182 73 520 26 717 -43
182 -107 349 -174 455 -62 99 -98 155 -118 179 -13 16 -53 66 -88 110 -82 102
-252 296 -260 296 -4 0 -47 46 -96 101 -81 93 -219 218 -341 311 -27 20 -73
56 -102 80 -30 24 -73 54 -97 68 -51 30 -257 175 -399 281 -55 42 -143 104
-195 138 -51 34 -112 77 -135 95 -22 18 -69 52 -103 76 -60 40 -75 63 -54 86
5 5 19 50 32 99 18 70 23 117 23 212 l0 123 46 21 c25 12 61 27 80 34 82 29
130 57 130 76 0 14 -7 19 -29 19 -25 0 -53 -10 -176 -65 -69 -31 -72 -30 -95
22 -42 94 -41 95 44 182 42 43 76 83 76 87 0 5 -8 14 -18 20 -15 9 -30 0 -97
-62 -44 -41 -84 -74 -90 -74 -7 0 -22 12 -36 26 -111 120 -413 256 -618 280
l-62 7 -182 159 c-164 144 -332 281 -562 461 -143 112 -299 224 -347 248 -47
24 -96 25 -106 2z m1294 -1074 c43 -20 70 -27 72 -20 2 6 8 11 14 11 6 0 7 -7
4 -15 -3 -9 1 -18 9 -21 18 -7 78 -87 123 -161 32 -56 39 -103 23 -163 -9 -34
-100 -79 -161 -80 -87 0 -186 46 -260 123 -67 68 -72 80 -86 212 -5 52 -3 64
16 88 51 64 141 73 246 26z m-533 -460 c69 -26 149 -96 199 -173 32 -49 38
-68 38 -110 -1 -95 -53 -167 -144 -196 -46 -15 -97 -8 -177 25 -74 30 -124 69
-194 151 -46 54 -54 71 -60 117 -15 119 76 206 217 207 44 0 85 -7 121 -21z
m-108 -749 c9 -27 1 -37 -48 -61 -23 -12 -78 -46 -121 -76 -75 -51 -106 -60
-106 -31 0 7 4 19 9 27 13 21 224 160 243 161 9 0 19 -9 23 -20z m133 -140 c1
-8 -27 -55 -64 -105 -36 -49 -79 -116 -96 -148 -30 -60 -50 -70 -71 -36 -8 12
11 46 83 155 51 76 97 142 104 146 17 12 40 5 44 -12z"/>
<path d="M2280 8184 c-60 -32 -65 -87 -18 -175 39 -74 143 -174 195 -188 109
-31 173 12 173 114 0 53 -8 70 -62 141 -47 62 -110 107 -156 109 -18 1 -36 5
-39 9 -11 10 -67 5 -93 -10z"/>
<path d="M1755 7719 c-44 -26 -85 -79 -85 -110 0 -52 48 -125 120 -184 78 -64
104 -75 176 -75 48 0 59 4 89 33 19 17 37 45 39 61 20 116 -123 264 -269 281
-30 3 -58 1 -70 -6z"/>
</g>
</svg>
