<?xml version="1.0" standalone="no"?>
<!DOCTYPE svg PUBLIC "-//W3C//DTD SVG 20010904//EN"
 "http://www.w3.org/TR/2001/REC-SVG-20010904/DTD/svg10.dtd">
<svg version="1.0" xmlns="http://www.w3.org/2000/svg"
 width="704.000000pt" height="1280.000000pt" viewBox="0 0 704.000000 1280.000000"
 preserveAspectRatio="xMidYMid meet">
<metadata>
Created by potrace 1.16, written by Peter Selinger 2001-2019
</metadata>
<g transform="translate(0.000000,1280.000000) scale(0.100000,-0.100000)"
fill="#000000" stroke="none">
<path d="M1211 9323 c-22 -15 -23 -20 -17 -92 3 -44 22 -129 45 -203 22 -70
47 -162 55 -205 8 -43 30 -132 49 -198 18 -66 42 -156 51 -200 10 -44 24 -102
31 -130 42 -158 42 -156 16 -176 -25 -20 -61 -25 -77 -10 -5 5 -31 21 -59 36
-66 36 -213 123 -248 147 -44 30 -406 232 -527 294 -95 49 -149 19 -135 -73 4
-26 13 -59 19 -73 31 -61 178 -524 202 -635 9 -44 23 -91 29 -105 7 -14 23
-56 35 -95 12 -38 70 -162 128 -275 58 -113 112 -218 120 -235 9 -16 25 -43
37 -60 12 -16 29 -46 38 -65 9 -19 24 -47 34 -61 34 -50 164 -188 196 -208 42
-26 206 -84 282 -100 33 -7 79 -19 103 -26 l42 -12 29 36 c16 20 59 82 95 139
60 91 71 102 97 102 16 0 29 -3 29 -8 0 -4 -16 -30 -35 -57 -84 -121 -104
-152 -114 -177 -6 -16 -15 -28 -21 -28 -21 0 -9 -38 17 -56 124 -81 223 -187
346 -374 42 -63 98 -147 125 -185 34 -51 68 -124 120 -263 97 -258 105 -306
106 -622 1 -257 -6 -343 -50 -610 -15 -91 -56 -243 -72 -266 -4 -5 -33 -16
-64 -23 -162 -35 -238 -194 -135 -283 27 -24 59 -28 239 -31 181 -2 182 -2
232 100 15 32 41 83 57 114 16 31 29 64 29 73 0 28 14 17 48 -37 18 -28 40
-62 49 -74 14 -22 14 -23 -13 -33 -91 -33 -159 -109 -159 -179 0 -81 51 -120
173 -132 161 -16 614 -28 967 -24 1051 9 1068 8 1203 -74 50 -31 70 -57 55
-72 -4 -4 -95 -11 -202 -14 -107 -4 -204 -10 -215 -15 -12 -4 -48 -3 -81 2
-71 11 -512 4 -705 -11 -87 -6 -169 -19 -230 -37 -52 -14 -111 -30 -130 -34
-88 -19 -215 -109 -258 -182 -48 -83 -70 -258 -37 -292 8 -8 15 -18 15 -22 0
-4 11 -22 26 -41 48 -63 119 -82 204 -55 70 22 113 54 150 112 40 63 120 137
172 160 66 28 194 39 343 29 72 -5 153 -13 180 -19 48 -9 97 -16 400 -60 158
-23 317 -52 450 -81 60 -13 133 -20 220 -21 191 -2 227 5 365 66 47 20 126 95
152 143 15 27 34 79 42 117 15 63 15 74 1 130 -24 91 -69 163 -152 241 -117
109 -232 173 -408 224 -126 36 -305 93 -305 96 0 13 35 59 81 105 102 103 203
353 232 575 17 129 9 360 -18 490 -34 166 -109 352 -202 503 -46 74 -149 222
-163 232 -4 3 -48 55 -99 115 -51 61 -122 139 -157 175 -35 36 -96 100 -136
144 -87 94 -280 266 -375 332 -37 27 -74 57 -81 66 -7 10 -39 32 -70 48 -31
16 -90 54 -130 82 -86 63 -406 292 -581 415 -68 49 -132 95 -142 103 -19 15
-19 18 11 134 20 81 31 151 33 220 l4 101 76 27 c132 47 167 65 167 87 0 30
-32 27 -132 -10 -137 -51 -131 -52 -162 25 -14 36 -26 71 -26 76 0 6 32 44 71
85 60 63 69 77 59 90 -7 8 -18 15 -24 15 -6 0 -41 -29 -79 -65 -37 -36 -70
-65 -72 -65 -3 0 -27 22 -53 48 -122 123 -338 232 -538 273 -60 12 -114 25
-121 28 -7 3 -65 58 -131 121 -132 128 -303 281 -432 385 -144 117 -242 196
-325 266 -96 80 -216 159 -242 159 -10 0 -29 -7 -42 -17z m1240 -1154 c78 -42
133 -91 166 -147 15 -26 32 -52 38 -58 5 -6 16 -38 24 -72 13 -61 13 -63 -12
-101 -19 -28 -38 -43 -73 -55 -74 -25 -110 -20 -204 27 -68 35 -94 55 -132
102 -99 122 -105 257 -15 307 22 12 81 24 126 27 13 0 49 -13 82 -30z m-540
-460 c67 -35 164 -125 174 -162 4 -12 13 -37 22 -55 19 -43 13 -138 -12 -175
-24 -38 -94 -77 -136 -77 -130 2 -304 106 -372 223 -14 23 -28 65 -32 94 -10
77 20 126 100 163 85 40 167 36 256 -11z m-146 -755 c0 -26 -7 -33 -64 -62
-35 -18 -89 -50 -119 -72 -51 -36 -82 -42 -82 -16 1 25 46 63 170 140 41 25
79 45 85 43 5 -2 10 -17 10 -33z"/>
<path d="M2273 8146 c-48 -22 -66 -56 -58 -108 10 -57 25 -84 81 -147 73 -81
128 -115 191 -116 44 0 56 4 83 30 30 28 32 33 27 82 -15 146 -216 307 -324
259z"/>
<path d="M1678 7687 c-76 -34 -87 -85 -36 -169 34 -58 96 -128 113 -128 5 0
16 -9 22 -19 16 -25 96 -61 135 -61 100 0 139 101 82 210 -30 58 -105 129
-167 159 -47 23 -107 26 -149 8z"/>
</g>
</svg>
