<?xml version="1.0" standalone="no"?>
<!DOCTYPE svg PUBLIC "-//W3C//DTD SVG 20010904//EN"
 "http://www.w3.org/TR/2001/REC-SVG-20010904/DTD/svg10.dtd">
<svg version="1.0" xmlns="http://www.w3.org/2000/svg"
 width="704.000000pt" height="1280.000000pt" viewBox="0 0 704.000000 1280.000000"
 preserveAspectRatio="xMidYMid meet">
<metadata>
Created by potrace 1.16, written by Peter Selinger 2001-2019
</metadata>
<g transform="translate(0.000000,1280.000000) scale(0.100000,-0.100000)"
fill="#000000" stroke="none">
<path d="M3615 10179 c-129 -12 -236 -67 -326 -168 -63 -69 -82 -106 -104
-199 -28 -113 -18 -230 27 -324 19 -40 51 -94 71 -121 21 -26 37 -49 37 -50 0
-2 -71 -3 -157 -3 -277 0 -415 -46 -383 -128 21 -56 74 -70 360 -91 211 -16
256 -12 296 26 31 29 30 46 -3 81 -25 26 -25 28 -7 28 11 0 58 -12 105 -26 74
-23 96 -25 189 -21 58 3 119 11 135 17 17 7 94 13 180 15 168 3 249 14 380 52
183 52 223 75 194 109 -17 21 -61 17 -142 -11 -84 -30 -130 -41 -247 -61 -93
-15 -200 -19 -200 -6 0 4 20 27 44 51 67 66 126 211 126 312 0 168 -92 349
-224 438 -98 65 -215 92 -351 80z m-419 -959 c116 -20 154 -32 154 -46 0 -9
-11 -14 -32 -14 -48 0 -347 20 -386 26 -40 6 -38 26 4 35 48 11 196 10 260 -1z"/>
<path d="M1199 9308 c-7 -14 -9 -46 -6 -87 6 -61 12 -87 52 -211 8 -25 21 -74
29 -110 24 -110 57 -241 81 -325 31 -104 51 -178 65 -240 19 -85 37 -159 43
-175 7 -17 -9 -39 -41 -58 -25 -14 -61 2 -187 82 -38 25 -91 56 -117 70 -26
14 -85 47 -130 74 -302 180 -484 278 -537 288 -34 7 -61 -23 -61 -70 0 -16 40
-152 90 -300 49 -149 94 -284 100 -301 5 -16 21 -75 35 -130 14 -54 32 -113
39 -130 7 -16 23 -60 35 -97 23 -73 188 -406 250 -508 22 -36 52 -88 66 -116
14 -28 56 -86 93 -130 114 -135 133 -150 218 -175 153 -45 201 -58 249 -64 28
-4 61 -13 75 -20 24 -12 27 -10 77 64 29 42 72 105 95 141 43 65 61 78 87 61
12 -7 -4 -37 -77 -146 -51 -75 -92 -142 -92 -149 1 -6 23 -27 51 -46 28 -19
72 -55 99 -80 82 -77 229 -270 278 -365 11 -22 43 -68 70 -103 28 -35 56 -80
63 -100 6 -20 35 -100 65 -177 29 -77 58 -161 64 -188 41 -187 55 -488 32
-677 -38 -301 -64 -454 -93 -544 -23 -73 -34 -86 -69 -86 -103 0 -229 -132
-204 -213 12 -39 46 -79 79 -93 52 -21 287 -28 350 -9 l52 15 55 112 c31 62
59 123 63 136 9 32 19 28 50 -20 15 -24 37 -53 48 -66 24 -26 19 -32 -43 -56
-58 -23 -81 -45 -110 -106 -21 -44 -22 -54 -11 -90 7 -24 25 -49 45 -65 31
-23 48 -27 163 -36 70 -5 135 -12 143 -15 23 -9 1072 -15 1121 -6 24 4 190 5
369 1 323 -6 325 -6 404 -34 79 -28 156 -83 156 -112 0 -10 -13 -13 -52 -12
-94 3 -241 -2 -308 -11 -36 -5 -183 -5 -330 -1 -146 4 -294 4 -330 -1 -36 -4
-130 -12 -210 -17 -111 -7 -163 -16 -220 -35 -41 -14 -84 -26 -94 -26 -30 0
-146 -60 -198 -102 -26 -21 -50 -38 -55 -38 -9 -1 -56 -98 -72 -149 -18 -57
-14 -167 8 -210 25 -48 90 -107 128 -115 45 -10 158 18 199 49 19 15 48 48 64
74 43 69 119 137 181 161 102 40 320 42 529 4 47 -8 121 -19 165 -24 44 -4 87
-11 95 -14 8 -3 51 -10 95 -16 231 -31 447 -66 489 -80 95 -32 455 -27 499 7
6 6 34 18 60 28 55 21 133 92 171 157 107 182 36 386 -194 557 -36 26 -85 58
-110 69 -73 34 -222 88 -265 96 -75 14 -255 77 -255 90 0 7 25 39 56 71 63 65
108 133 143 215 14 30 33 74 44 98 11 24 24 60 29 80 5 20 13 53 18 72 5 19
17 90 26 157 13 102 14 145 5 265 -6 79 -15 159 -21 178 -5 19 -16 64 -25 100
-8 36 -23 88 -31 115 -54 170 -210 438 -333 570 -20 22 -63 72 -95 110 -31 39
-91 104 -131 145 -41 41 -107 110 -147 154 -122 131 -433 389 -568 470 -25 15
-65 43 -90 61 -25 19 -76 57 -115 84 -38 28 -104 74 -145 104 -41 30 -126 89
-189 131 -62 42 -138 97 -169 122 -30 25 -68 52 -84 60 -30 16 -46 57 -30 77
20 24 52 206 52 296 l0 89 33 14 c17 8 67 28 109 44 43 15 87 36 99 45 46 35
-15 53 -84 24 -19 -8 -65 -26 -101 -39 l-67 -25 -11 27 c-6 15 -19 43 -29 63
-11 20 -19 42 -19 49 0 7 31 46 70 87 40 43 67 80 64 88 -13 32 -37 24 -98
-35 -35 -33 -68 -60 -75 -60 -7 0 -41 24 -74 54 -79 69 -153 115 -270 170
-119 56 -191 78 -334 103 -31 5 -100 63 -293 248 -36 34 -150 133 -255 219
-104 86 -210 174 -235 195 -159 133 -279 225 -328 250 -55 28 -98 28 -113 -1z
m1250 -1138 c140 -76 241 -218 241 -342 0 -33 -5 -41 -47 -70 -45 -31 -53 -33
-125 -31 -75 1 -80 3 -155 52 -90 58 -122 94 -157 179 -37 88 -35 142 7 189
30 32 41 37 91 41 31 2 59 9 62 14 7 11 1 13 83 -32z m-694 -419 c3 -5 21 -7
40 -4 49 8 149 -43 217 -111 52 -51 59 -62 94 -139 24 -53 16 -142 -16 -186
-70 -94 -203 -93 -354 4 -109 70 -169 152 -180 250 -9 74 20 120 104 162 69
35 85 39 95 24z m13 -800 c-2 -20 -17 -33 -69 -61 -36 -19 -86 -50 -111 -67
-47 -33 -72 -41 -82 -24 -15 23 16 49 168 145 75 47 99 49 94 7z"/>
<path d="M2288 8153 c-15 -2 -39 -18 -54 -36 -22 -26 -25 -37 -20 -71 12 -74
140 -232 213 -263 121 -50 208 50 148 172 -65 133 -184 215 -287 198z"/>
<path d="M1708 7703 c-26 -3 -50 -15 -74 -38 -32 -30 -35 -38 -29 -67 4 -18
13 -40 19 -48 7 -8 18 -27 26 -42 14 -29 55 -71 132 -137 33 -27 64 -43 102
-52 51 -11 56 -10 88 12 45 32 48 36 48 100 0 44 -6 64 -28 100 -34 52 -92
107 -153 142 -50 29 -78 36 -131 30z"/>
</g>
</svg>
