<?xml version="1.0" standalone="no"?>
<!DOCTYPE svg PUBLIC "-//W3C//DTD SVG 20010904//EN"
 "http://www.w3.org/TR/2001/REC-SVG-20010904/DTD/svg10.dtd">
<svg version="1.0" xmlns="http://www.w3.org/2000/svg"
 width="704.000000pt" height="1280.000000pt" viewBox="0 0 704.000000 1280.000000"
 preserveAspectRatio="xMidYMid meet">
<metadata>
Created by potrace 1.16, written by Peter Selinger 2001-2019
</metadata>
<g transform="translate(0.000000,1280.000000) scale(0.100000,-0.100000)"
fill="#000000" stroke="none">
<path d="M5655 10151 c-7 -12 22 -41 41 -41 25 0 15 -24 -26 -61 -22 -20 -40
-43 -40 -51 0 -20 66 -49 127 -55 77 -8 67 15 -19 47 -16 5 -28 13 -28 17 0 5
23 26 50 48 28 22 49 46 48 54 -2 7 -30 22 -63 32 -68 21 -82 23 -90 10z"/>
<path d="M5954 10085 c-3 -8 4 -28 15 -44 28 -39 27 -42 -16 -35 -48 7 -93 -9
-93 -34 0 -40 104 -162 123 -143 10 10 -13 60 -37 80 -32 27 -17 34 54 27 38
-4 74 -4 80 -1 13 8 -13 58 -62 118 -42 50 -55 56 -64 32z"/>
<path d="M4615 9894 c-68 -11 -224 -59 -279 -87 -119 -59 -248 -158 -328 -250
-214 -249 -223 -593 -19 -778 145 -132 339 -180 726 -179 116 0 224 -2 240 -6
117 -23 629 -10 741 20 179 47 275 151 245 263 -20 75 -89 125 -201 145 -69
13 -67 9 -49 132 13 87 0 131 -39 131 -19 0 -27 11 -46 65 -37 106 -105 220
-131 220 -7 0 -33 24 -59 54 -97 114 -262 205 -456 251 -65 15 -288 28 -345
19z"/>
<path d="M1808 9600 c-36 -22 -40 -69 -45 -588 -8 -784 -6 -740 -29 -756 -21
-16 -54 -5 -54 19 0 8 -51 72 -113 142 -62 70 -143 165 -181 211 -37 45 -71
82 -74 82 -4 0 -50 48 -102 107 -211 238 -247 269 -301 261 -49 -7 -54 -37
-55 -368 0 -168 -6 -355 -13 -415 -7 -61 -10 -155 -7 -210 5 -94 10 -125 37
-272 5 -32 14 -89 19 -128 6 -38 19 -110 29 -160 11 -49 25 -128 32 -174 9
-65 22 -104 56 -170 24 -46 53 -97 64 -112 10 -15 19 -31 19 -36 0 -34 203
-242 238 -243 15 0 16 -22 1 -37 -7 -7 -9 -19 -5 -29 5 -13 14 -15 41 -11 26
4 55 -4 131 -38 l97 -44 48 40 c27 22 53 38 59 34 20 -12 9 -43 -25 -74 l-35
-30 58 -29 c110 -55 224 -153 297 -257 72 -102 165 -243 165 -250 0 -4 27 -45
60 -91 51 -72 69 -110 130 -278 38 -108 70 -209 70 -224 0 -16 4 -42 10 -58
13 -39 40 -260 40 -326 0 -74 -39 -440 -59 -558 -5 -30 -14 -84 -20 -120 -13
-82 -45 -196 -60 -214 -6 -7 -38 -19 -71 -26 -66 -14 -137 -66 -166 -122 -24
-46 -11 -107 29 -146 42 -40 110 -52 281 -49 l128 2 32 37 c18 20 37 47 43 60
6 13 31 63 54 113 36 76 44 87 53 71 6 -10 28 -39 49 -64 20 -26 37 -49 37
-52 0 -3 -27 -17 -59 -32 -99 -46 -153 -146 -117 -216 28 -54 67 -73 169 -82
275 -26 1227 -41 1307 -20 20 5 169 5 355 1 310 -8 322 -9 402 -36 92 -30 161
-80 150 -109 -5 -13 -22 -16 -84 -18 -43 0 -134 -3 -203 -6 -178 -6 -177 -6
-485 -3 -172 1 -293 -2 -315 -9 -19 -5 -73 -10 -120 -10 -62 0 -116 -9 -200
-31 -63 -16 -131 -33 -150 -36 -19 -3 -42 -11 -50 -18 -8 -6 -35 -21 -60 -33
-60 -28 -132 -99 -160 -157 -38 -78 -52 -275 -20 -275 6 0 10 -7 10 -15 0 -27
73 -92 116 -104 48 -13 131 0 174 27 37 22 90 75 90 89 0 18 109 132 144 150
62 32 130 43 271 42 77 0 163 -4 190 -9 28 -4 118 -17 200 -29 83 -12 163 -24
179 -27 16 -4 45 -8 65 -9 20 -2 74 -10 121 -18 47 -8 110 -18 140 -22 30 -3
71 -10 90 -15 273 -69 534 -72 685 -6 33 14 65 26 70 26 25 0 116 109 145 173
82 174 12 351 -208 525 -91 71 -177 107 -509 209 -68 21 -123 41 -123 44 0 4
30 38 66 76 64 67 107 136 167 272 79 181 108 403 88 661 -7 79 -16 149 -21
154 -6 6 -10 19 -10 31 0 30 -56 204 -89 277 -56 124 -172 311 -258 416 -232
286 -537 598 -703 722 -116 87 -159 120 -165 130 -3 5 -38 29 -78 52 -40 24
-113 74 -163 113 -117 90 -274 204 -383 279 -137 93 -181 129 -181 148 0 10 7
35 16 57 17 44 28 49 138 61 78 9 110 30 85 55 -13 13 -26 13 -97 3 -45 -6
-84 -9 -87 -6 -3 3 0 39 5 82 6 42 8 86 5 97 -5 14 1 27 20 45 32 30 28 48
-12 52 -26 3 -32 9 -46 56 -10 29 -28 69 -42 87 -14 19 -40 57 -59 84 -63 93
-196 205 -331 279 l-96 54 -41 78 c-114 222 -298 508 -462 716 -97 124 -112
145 -205 279 -49 70 -151 194 -183 222 -22 19 -54 22 -80 7z m738 -1593 c55
-32 88 -69 146 -161 4 -6 16 -42 28 -79 38 -124 9 -212 -78 -241 -69 -23 -137
-13 -210 31 -75 45 -95 65 -136 134 -29 48 -36 72 -42 138 -9 109 11 158 81
203 47 30 134 20 211 -25z m-679 -389 c53 -25 137 -99 159 -141 9 -18 26 -50
38 -72 40 -77 16 -202 -49 -253 -15 -12 -47 -29 -72 -38 -45 -17 -47 -17 -114
6 -47 16 -92 42 -146 85 -67 53 -83 72 -115 136 -35 70 -36 77 -29 136 10 85
41 121 131 155 55 21 135 15 197 -14z"/>
<path d="M2367 8001 c-29 -11 -57 -63 -57 -107 0 -57 16 -100 66 -170 64 -91
131 -134 209 -134 48 0 105 65 105 120 0 160 -196 336 -323 291z"/>
<path d="M1724 7599 c-16 -5 -47 -25 -67 -46 -35 -34 -37 -40 -32 -82 3 -24
12 -52 20 -61 8 -9 15 -23 15 -31 0 -59 160 -199 228 -199 39 0 88 26 116 62
52 70 27 185 -60 273 -69 68 -156 102 -220 84z"/>
</g>
</svg>
