<?xml version="1.0" standalone="no"?>
<!DOCTYPE svg PUBLIC "-//W3C//DTD SVG 20010904//EN"
 "http://www.w3.org/TR/2001/REC-SVG-20010904/DTD/svg10.dtd">
<svg version="1.0" xmlns="http://www.w3.org/2000/svg"
 width="704.000000pt" height="1280.000000pt" viewBox="0 0 704.000000 1280.000000"
 preserveAspectRatio="xMidYMid meet">
<metadata>
Created by potrace 1.16, written by Peter Selinger 2001-2019
</metadata>
<g transform="translate(0.000000,1280.000000) scale(0.100000,-0.100000)"
fill="#000000" stroke="none">
<path d="M3910 10114 c-48 -21 -127 -72 -174 -111 -37 -30 -45 -33 -110 -33
-254 -1 -490 -99 -650 -270 -52 -55 -58 -88 -18 -105 12 -5 22 -17 22 -25 0
-29 126 -113 240 -160 79 -32 232 -74 313 -85 43 -6 51 -11 86 -59 60 -81 119
-96 146 -38 12 27 19 27 56 1 41 -29 91 -35 112 -14 24 23 21 50 -8 79 -14 14
-25 29 -25 33 0 4 46 16 103 25 93 15 163 35 304 86 28 10 58 23 65 29 7 6 36
22 63 37 28 14 57 31 66 38 14 9 26 5 65 -24 83 -61 187 -94 256 -83 56 10 59
36 9 93 -112 128 -120 182 -47 308 45 79 47 84 47 164 0 45 -2 84 -5 87 -15
15 -70 -14 -116 -61 -46 -47 -175 -216 -182 -238 -2 -6 -51 11 -108 37 -130
57 -222 88 -325 110 -44 9 -81 18 -83 20 -2 2 11 24 28 49 28 38 31 48 20 61
-7 8 -23 15 -36 15 -19 0 -23 5 -21 23 2 18 -3 22 -28 24 -16 1 -46 -5 -65
-13z m890 -112 c0 -66 -13 -106 -56 -168 -33 -48 -37 -60 -38 -121 -1 -78 14
-114 75 -180 44 -48 50 -68 17 -59 -13 3 -27 6 -31 6 -5 0 -5 5 -2 10 3 6 -1
13 -9 16 -9 3 -16 12 -16 20 0 7 -7 17 -16 22 -9 5 -15 11 -15 13 3 10 -24 69
-31 69 -4 0 -6 21 -4 46 2 29 -1 50 -11 59 -22 22 -13 73 14 80 12 3 34 22 48
42 20 30 25 50 25 97 0 41 5 65 17 78 25 28 33 22 33 -30z m-1043 -85 c2 -2 1
-12 -3 -21 -8 -21 -43 -21 -60 2 -13 16 -13 16 -14 0 0 -10 5 -18 10 -18 6 0
10 -7 10 -16 0 -12 -3 -14 -13 -6 -16 13 -85 17 -111 7 -15 -7 -17 -5 -12 11
5 16 1 19 -24 18 -32 -1 -60 -19 -60 -40 0 -8 -8 -14 -17 -14 -11 0 -14 -3 -8
-8 6 -4 12 -20 13 -37 l2 -30 -25 37 c-26 39 -59 63 -74 54 -4 -3 -8 -24 -9
-47 -2 -38 -13 -58 -34 -59 -17 0 -19 62 -3 86 9 14 14 28 11 31 -3 3 -8 -2
-12 -11 -3 -9 -13 -16 -21 -16 -8 0 -11 -4 -8 -10 3 -5 2 -10 -3 -10 -5 0 -12
-9 -15 -20 -5 -18 -8 -19 -31 -8 -15 6 -25 16 -23 22 11 35 198 91 367 110 38
4 160 -1 167 -7z"/>
<path d="M1173 9302 c-18 -3 -23 -12 -29 -50 -8 -50 6 -118 49 -237 13 -38 32
-99 41 -135 28 -110 59 -216 117 -400 16 -52 32 -110 35 -128 3 -18 12 -48 20
-67 8 -19 14 -45 14 -57 0 -13 7 -36 15 -51 13 -26 13 -31 -3 -52 -9 -13 -29
-29 -43 -35 -31 -13 -39 -9 -229 98 -327 185 -705 382 -734 382 -29 0 -52 -19
-59 -50 -6 -21 55 -225 93 -315 36 -86 122 -341 149 -445 24 -94 49 -159 110
-280 178 -356 328 -595 451 -720 57 -58 87 -81 125 -94 88 -30 208 -64 287
-80 114 -23 119 -26 248 -122 94 -70 228 -236 340 -424 35 -58 69 -109 75
-115 20 -16 42 -64 86 -180 114 -307 121 -342 127 -650 2 -140 0 -265 -7 -320
-24 -184 -63 -421 -75 -455 -7 -19 -19 -53 -26 -75 -17 -55 -25 -62 -73 -70
-150 -25 -238 -171 -159 -263 38 -46 97 -58 265 -55 184 3 178 -2 279 220 18
39 36 71 39 70 7 -2 99 -134 99 -142 0 -3 -9 -5 -21 -5 -37 0 -107 -49 -133
-94 -44 -76 -32 -162 27 -193 64 -33 496 -53 1062 -48 947 7 1009 6 1088 -19
124 -40 197 -87 184 -120 -7 -18 -234 -28 -712 -31 -488 -3 -605 -14 -830 -78
-86 -24 -193 -90 -245 -150 -76 -88 -104 -262 -55 -348 34 -63 57 -84 110
-105 41 -15 53 -16 98 -4 89 22 125 46 181 125 113 157 177 185 425 185 91 0
185 -6 230 -14 134 -25 350 -57 516 -77 86 -10 295 -48 380 -69 68 -16 279
-25 370 -15 99 11 228 63 290 118 80 69 132 215 114 315 -27 146 -159 299
-329 384 -97 48 -247 106 -291 113 -32 5 -237 69 -244 77 -11 11 16 50 69 104
37 37 68 86 112 175 104 209 122 285 130 544 6 198 -3 284 -50 458 -73 271
-225 516 -519 836 -49 53 -100 107 -114 121 -13 14 -75 77 -136 141 -62 64
-170 162 -242 217 -71 56 -148 117 -170 136 -22 18 -58 42 -80 54 -22 11 -85
55 -140 96 -55 42 -115 83 -132 91 -18 9 -65 42 -105 73 -89 70 -155 118 -250
182 -40 27 -98 68 -128 90 -30 22 -69 50 -87 61 -43 27 -46 41 -24 107 34 101
49 194 47 295 -2 63 1 101 9 107 6 5 56 29 111 53 131 56 144 65 138 81 -8 20
-68 14 -129 -14 -161 -72 -146 -73 -184 11 l-32 72 80 82 c45 45 81 86 81 90
0 4 -8 13 -17 20 -15 11 -28 3 -96 -59 -43 -39 -82 -73 -88 -74 -5 -2 -34 19
-65 47 -65 59 -154 113 -274 165 -47 20 -92 41 -101 46 -20 11 -220 50 -254
50 -22 0 -105 66 -232 183 -66 62 -282 239 -513 422 -84 67 -283 214 -336 249
-46 30 -89 43 -121 38z m1252 -1080 c17 -10 46 -24 65 -32 78 -30 207 -202
216 -287 6 -60 -12 -83 -91 -119 -73 -33 -133 -29 -231 15 -54 25 -83 46 -123
92 -48 54 -53 66 -67 140 -23 118 -11 156 59 195 35 19 137 17 172 -4z m-502
-476 c108 -48 237 -202 237 -284 0 -39 -46 -126 -82 -157 -49 -41 -102 -50
-177 -31 -101 26 -150 55 -237 141 -80 79 -82 82 -89 142 -6 51 -3 67 14 101
21 42 67 83 111 101 14 5 57 10 96 10 55 1 84 -5 127 -23z m-115 -756 c3 -22
-6 -30 -60 -59 -35 -19 -89 -51 -120 -72 -63 -43 -88 -49 -88 -20 0 18 67 81
86 81 5 0 38 23 74 50 71 55 103 61 108 20z m129 -130 c2 -8 -25 -53 -58 -100
-34 -47 -75 -113 -91 -147 -31 -65 -53 -78 -77 -49 -15 17 -10 27 59 131 103
156 128 187 149 183 9 -2 17 -10 18 -18z"/>
<path d="M2294 8193 c-35 -17 -64 -60 -64 -94 0 -39 62 -148 111 -196 86 -84
140 -104 219 -83 49 13 70 51 70 125 0 96 -130 230 -240 248 -19 3 -42 8 -50
11 -8 2 -29 -2 -46 -11z"/>
<path d="M1723 7694 c-76 -72 -64 -145 41 -249 75 -74 101 -87 177 -93 57 -4
72 -1 97 17 40 28 65 83 57 124 -24 113 -151 221 -277 234 -52 5 -55 4 -95
-33z"/>
</g>
</svg>
