<?xml version="1.0" standalone="no"?>
<!DOCTYPE svg PUBLIC "-//W3C//DTD SVG 20010904//EN"
 "http://www.w3.org/TR/2001/REC-SVG-20010904/DTD/svg10.dtd">
<svg version="1.0" xmlns="http://www.w3.org/2000/svg"
 width="704.000000pt" height="1280.000000pt" viewBox="0 0 704.000000 1280.000000"
 preserveAspectRatio="xMidYMid meet">
<metadata>
Created by potrace 1.16, written by Peter Selinger 2001-2019
</metadata>
<g transform="translate(0.000000,1280.000000) scale(0.100000,-0.100000)"
fill="#000000" stroke="none">
<path d="M4590 9885 c-107 -23 -202 -53 -265 -86 -362 -187 -546 -503 -465
-798 26 -91 60 -150 121 -210 94 -92 167 -128 332 -163 85 -18 140 -22 327
-24 124 -1 281 -7 350 -14 151 -15 509 -6 648 16 99 16 180 46 236 89 36 28
76 106 76 150 0 44 -30 94 -74 124 -43 30 -132 61 -174 61 -23 0 -24 3 -18 38
3 20 9 70 13 109 7 82 -3 103 -47 103 -24 0 -28 5 -34 38 -6 37 -71 173 -108
225 -11 15 -25 27 -32 27 -8 0 -31 21 -52 48 -21 26 -44 51 -52 55 -7 5 -28
21 -45 37 -33 29 -79 57 -157 95 -164 82 -409 115 -580 80z"/>
<path d="M1856 9621 c-26 -29 -35 -85 -41 -251 -2 -80 -9 -224 -15 -320 -6
-96 -13 -218 -15 -270 -2 -52 -9 -142 -15 -200 -6 -58 -8 -156 -4 -217 5 -94
4 -113 -8 -113 -14 0 -53 37 -79 76 -19 28 -93 116 -154 184 -59 64 -180 208
-244 289 -24 31 -65 79 -90 108 -25 28 -66 74 -90 102 -48 57 -111 95 -142 86
-45 -15 -49 -38 -55 -296 -2 -134 -9 -266 -15 -294 -11 -57 -31 -355 -31 -460
1 -77 45 -391 67 -470 8 -27 17 -86 20 -130 10 -119 21 -160 76 -270 70 -139
97 -185 148 -245 60 -71 166 -169 211 -194 10 -6 38 -22 62 -36 24 -14 64 -34
91 -44 55 -21 61 -36 15 -36 -18 0 -58 -13 -88 -30 -30 -16 -62 -29 -71 -30
-18 0 -33 -26 -23 -41 10 -16 36 -9 132 36 52 25 101 45 109 45 7 0 45 -16 83
-35 38 -19 76 -35 84 -35 8 0 43 -26 76 -57 97 -89 213 -239 304 -393 60 -101
103 -165 120 -179 8 -7 17 -27 21 -44 3 -18 17 -59 30 -92 69 -175 87 -240
111 -379 23 -137 25 -168 21 -361 -5 -194 -11 -268 -37 -430 -5 -33 -16 -107
-25 -165 -9 -58 -20 -114 -25 -125 -4 -11 -13 -39 -19 -61 -13 -48 -24 -59
-67 -67 -64 -12 -145 -59 -170 -98 -56 -90 -35 -171 54 -206 38 -15 76 -18
199 -18 199 0 186 -9 299 228 l37 77 35 -52 c19 -29 43 -63 54 -75 20 -21 20
-21 -4 -28 -119 -34 -198 -145 -162 -230 42 -101 112 -107 1269 -109 927 -1
902 0 1015 -49 50 -21 118 -83 105 -96 -13 -12 -313 -23 -735 -25 -364 -2
-588 -15 -670 -40 -30 -9 -69 -21 -86 -26 -17 -6 -39 -10 -50 -10 -27 0 -148
-63 -188 -98 -19 -16 -38 -31 -44 -33 -5 -2 -26 -30 -47 -62 -32 -52 -38 -70
-47 -158 -11 -99 -11 -99 17 -151 15 -29 40 -63 54 -75 73 -61 186 -51 273 23
29 25 57 52 62 62 16 31 130 143 156 154 76 31 141 39 280 38 80 0 159 -3 175
-6 17 -3 58 -9 91 -13 34 -5 66 -11 72 -15 6 -3 37 -9 69 -12 32 -3 85 -10
118 -15 33 -6 87 -15 120 -19 33 -4 101 -13 150 -20 50 -6 105 -16 123 -22
103 -31 428 -73 502 -64 127 16 172 26 238 55 126 56 195 142 227 283 19 87
13 122 -37 223 -51 104 -188 227 -319 288 -74 35 -117 50 -371 128 -76 24
-138 46 -138 51 0 4 26 36 58 70 99 107 157 212 213 382 40 120 54 229 54 406
-1 187 -22 323 -77 500 -20 66 -101 236 -137 289 -10 14 -39 58 -65 96 -66 99
-302 381 -422 505 -57 58 -111 114 -121 126 -34 39 -197 180 -283 245 -47 35
-103 80 -125 100 -22 19 -65 50 -95 67 -30 17 -94 63 -142 101 -49 39 -102 78
-119 87 -18 9 -37 20 -43 25 -43 37 -218 164 -248 182 -21 11 -38 24 -38 28 0
11 29 19 92 26 45 4 58 10 56 21 -6 31 -33 36 -115 23 -65 -10 -88 -10 -122 0
-24 7 -45 19 -48 26 -3 8 0 35 8 61 10 37 27 61 81 113 38 36 65 68 61 72 -3
4 -27 7 -52 7 l-46 0 -1 98 c-1 96 -2 100 -45 181 -85 159 -222 296 -373 372
-47 23 -86 46 -86 49 0 12 -135 288 -198 406 -75 139 -125 217 -272 424 -64
91 -130 186 -146 212 -58 92 -196 284 -234 326 -47 53 -95 65 -124 33z m866
-1933 c-7 -29 -113 -134 -225 -223 -84 -68 -117 -86 -117 -68 0 18 317 312
337 313 7 0 9 -9 5 -22z m-622 -477 c0 -5 -28 -18 -62 -29 -96 -30 -279 -100
-319 -122 -43 -24 -59 -25 -59 -6 0 17 39 65 40 49 0 -19 16 -16 63 14 98 62
337 129 337 94z"/>
<path d="M1618 6403 c-118 -122 -138 -150 -112 -160 12 -4 27 5 51 33 57 64
98 106 152 157 43 39 50 51 40 63 -6 8 -15 14 -18 14 -4 0 -55 -48 -113 -107z"/>
</g>
</svg>
