<?xml version="1.0" standalone="no"?>
<!DOCTYPE svg PUBLIC "-//W3C//DTD SVG 20010904//EN"
 "http://www.w3.org/TR/2001/REC-SVG-20010904/DTD/svg10.dtd">
<svg version="1.0" xmlns="http://www.w3.org/2000/svg"
 width="704.000000pt" height="1280.000000pt" viewBox="0 0 704.000000 1280.000000"
 preserveAspectRatio="xMidYMid meet">
<metadata>
Created by potrace 1.16, written by Peter Selinger 2001-2019
</metadata>
<g transform="translate(0.000000,1280.000000) scale(0.100000,-0.100000)"
fill="#000000" stroke="none">
<path d="M5723 10194 c-9 -24 5 -43 38 -52 46 -12 46 -27 -1 -57 -51 -32 -70
-69 -48 -91 22 -22 166 -65 174 -52 8 12 -27 41 -68 59 -16 6 -28 17 -28 23 0
6 25 31 55 54 30 24 55 47 55 52 0 16 -46 40 -110 60 -52 16 -62 16 -67 4z"/>
<path d="M6069 10104 c-11 -14 -10 -22 9 -55 l23 -40 -66 2 c-50 1 -70 -2 -83
-15 -15 -15 -15 -19 2 -50 10 -19 36 -54 57 -78 21 -23 39 -46 39 -50 0 -5 7
-8 15 -8 22 0 18 31 -10 72 -14 20 -25 42 -25 48 0 7 28 8 85 4 99 -8 102 -4
55 66 -92 138 -81 127 -101 104z"/>
<path d="M5567 10070 c-20 -4 -40 -10 -43 -13 -10 -10 6 -27 27 -27 24 0 24
-11 0 -41 -14 -18 -27 -23 -55 -21 -20 2 -36 -2 -36 -8 0 -5 5 -10 11 -10 7 0
9 -11 6 -29 -6 -31 5 -41 44 -41 22 0 26 18 5 26 -17 7 -9 44 10 44 8 0 14 -7
14 -15 0 -8 7 -15 15 -15 8 0 29 -9 47 -20 39 -23 55 -26 38 -5 -15 18 -5 35
21 35 10 0 19 5 19 10 0 13 -40 29 -56 23 -23 -9 -25 18 -5 53 38 63 28 72
-62 54z"/>
<path d="M4640 9890 c-362 -35 -720 -321 -785 -625 -59 -282 73 -515 342 -605
131 -43 285 -61 528 -60 110 1 216 -1 235 -4 89 -14 332 -17 502 -7 306 19
429 71 473 203 38 112 -38 201 -195 230 -68 13 -65 6 -48 123 15 104 8 133
-33 137 -27 3 -32 9 -54 70 -35 103 -110 228 -136 228 -3 0 -38 31 -75 68
-123 122 -305 209 -494 238 -101 15 -141 15 -260 4z"/>
<path d="M1803 9588 c-26 -33 -34 -101 -40 -339 -4 -140 -7 -301 -7 -359 0
-58 0 -163 0 -235 0 -71 0 -182 0 -245 0 -63 2 -124 4 -135 4 -15 -1 -21 -18
-23 -18 -3 -42 17 -111 90 -49 51 -104 112 -122 135 -89 111 -170 205 -245
283 -45 47 -104 112 -132 145 -65 79 -162 171 -190 179 -15 5 -32 2 -47 -8
-39 -26 -48 -100 -44 -376 2 -135 -2 -346 -9 -470 -13 -231 -9 -285 27 -427 6
-23 18 -88 26 -145 9 -57 22 -128 29 -158 8 -30 17 -75 20 -100 4 -25 9 -63
12 -85 6 -43 63 -170 99 -220 11 -16 33 -51 48 -76 31 -54 151 -185 200 -219
31 -21 33 -26 23 -52 -15 -40 1 -52 44 -35 31 14 36 12 124 -34 50 -26 90 -52
88 -56 -1 -4 -34 -41 -72 -81 -66 -69 -87 -112 -56 -112 8 0 52 38 98 85 l84
86 60 -32 c84 -45 173 -110 218 -160 67 -76 162 -204 221 -301 72 -118 115
-181 132 -191 7 -4 13 -13 13 -18 0 -13 70 -215 106 -307 23 -57 31 -97 63
-293 13 -81 13 -363 0 -479 -23 -201 -28 -241 -48 -360 -31 -189 -65 -280
-106 -280 -14 0 -53 -13 -87 -30 -74 -35 -118 -90 -125 -153 -4 -35 0 -48 23
-75 51 -60 71 -66 256 -66 202 -1 191 -7 275 166 31 65 60 118 64 118 4 0 28
-28 53 -62 l47 -63 -58 -28 c-74 -35 -123 -101 -123 -165 0 -55 12 -77 58
-106 71 -45 369 -53 1692 -48 375 1 411 -1 494 -32 92 -35 169 -101 138 -120
-10 -6 -317 -20 -437 -20 -44 0 -197 1 -340 2 -146 2 -273 -1 -290 -7 -16 -5
-79 -12 -140 -15 -121 -7 -245 -29 -287 -52 -14 -8 -40 -14 -58 -14 -17 0 -43
-9 -57 -20 -14 -11 -31 -20 -38 -20 -17 0 -119 -80 -145 -113 -40 -50 -60
-113 -66 -205 l-7 -89 38 -61 c38 -62 67 -83 133 -97 79 -16 189 38 238 117
41 68 141 155 199 174 97 33 466 27 554 -8 14 -6 64 -14 111 -19 168 -16 403
-50 510 -74 97 -22 292 -55 315 -53 11 1 37 -2 58 -6 63 -12 264 13 324 40 28
13 59 24 67 24 30 0 139 119 163 178 53 130 51 199 -9 315 -38 74 -164 202
-246 250 -98 57 -180 88 -479 178 -57 17 -103 34 -103 39 0 4 24 33 54 64 55
55 115 139 135 186 6 14 15 32 20 40 17 30 70 176 85 235 30 122 40 293 28
452 -29 383 -164 668 -505 1063 -142 164 -454 471 -577 568 -58 45 -123 97
-145 115 -22 18 -65 48 -95 67 -30 19 -95 64 -145 100 -49 37 -108 78 -130 92
-22 14 -77 54 -122 89 -45 35 -118 89 -163 119 -45 30 -104 72 -130 92 -45 35
-48 40 -40 67 22 79 30 85 105 94 121 14 136 18 142 33 3 9 -1 22 -9 31 -13
12 -26 13 -97 2 -44 -7 -83 -10 -86 -7 -3 2 -2 53 2 113 5 91 9 108 24 112 40
11 28 62 -15 64 -17 0 -31 21 -70 101 -43 89 -60 113 -145 198 -76 76 -122
112 -219 170 -122 73 -124 74 -165 148 -141 251 -269 449 -432 668 -66 88
-149 202 -185 253 -156 221 -239 311 -289 311 -16 0 -33 -6 -38 -12z m702
-1560 c17 -6 49 -27 73 -46 135 -108 194 -299 125 -408 -16 -24 -32 -44 -38
-45 -5 0 -19 -3 -30 -6 -48 -13 -122 -6 -167 15 -66 33 -149 117 -183 186 -24
49 -29 71 -29 141 -1 96 13 124 80 163 32 18 48 21 89 17 28 -4 64 -11 80 -17z
m-671 -393 c62 -21 106 -52 156 -110 80 -93 110 -182 89 -267 -21 -79 -103
-148 -178 -148 -53 0 -143 41 -221 100 -61 46 -82 69 -112 126 -40 74 -45 104
-26 165 13 46 67 113 106 132 39 19 131 20 186 2z"/>
<path d="M2388 8003 c-15 -2 -39 -18 -54 -36 -22 -27 -25 -38 -22 -79 16 -162
199 -333 309 -288 99 41 88 185 -23 306 -72 79 -136 108 -210 97z"/>
<path d="M1715 7594 c-93 -48 -109 -103 -60 -210 51 -109 134 -180 223 -191
70 -8 108 9 134 61 46 90 10 202 -92 283 -47 37 -128 73 -164 73 -6 0 -24 -7
-41 -16z"/>
</g>
</svg>
