<?xml version="1.0" standalone="no"?>
<!DOCTYPE svg PUBLIC "-//W3C//DTD SVG 20010904//EN"
 "http://www.w3.org/TR/2001/REC-SVG-20010904/DTD/svg10.dtd">
<svg version="1.0" xmlns="http://www.w3.org/2000/svg"
 width="704.000000pt" height="1280.000000pt" viewBox="0 0 704.000000 1280.000000"
 preserveAspectRatio="xMidYMid meet">
<metadata>
Created by potrace 1.16, written by Peter Selinger 2001-2019
</metadata>
<g transform="translate(0.000000,1280.000000) scale(0.100000,-0.100000)"
fill="#000000" stroke="none">
<path d="M3595 10134 c-133 -35 -208 -74 -281 -150 -81 -83 -114 -167 -114
-287 1 -126 41 -257 97 -316 56 -60 56 -60 -82 -60 -150 1 -219 -7 -305 -32
-66 -19 -90 -40 -90 -78 0 -25 44 -56 90 -64 19 -3 62 -11 95 -16 33 -6 139
-14 236 -17 l177 -7 26 26 c31 31 33 48 6 72 -46 42 -24 43 115 6 89 -23 205
-22 280 4 26 9 84 13 165 13 168 -1 351 31 505 89 45 17 50 22 53 52 3 32 3
33 -30 26 -18 -3 -67 -17 -108 -30 -41 -13 -100 -30 -130 -39 -67 -18 -290
-33 -290 -19 0 5 22 32 48 60 84 89 124 231 102 364 -32 191 -156 339 -321
384 -57 16 -210 28 -244 19z m-287 -914 c44 -9 62 -17 62 -27 0 -14 -19 -15
-147 -8 -82 4 -177 10 -212 14 -65 6 -92 25 -49 35 38 8 278 -2 346 -14z"/>
<path d="M1200 9300 c-17 -42 -6 -129 35 -264 18 -61 41 -142 50 -181 40 -168
68 -273 84 -320 5 -16 17 -61 26 -100 20 -86 54 -221 64 -255 10 -35 -4 -63
-39 -79 -32 -13 -43 -8 -205 94 -27 18 -97 58 -155 90 -58 32 -123 71 -145 86
-22 14 -65 39 -95 54 -30 15 -62 33 -70 40 -22 19 -223 124 -270 140 -22 8
-46 12 -54 9 -16 -6 -36 -47 -36 -74 0 -10 35 -126 79 -257 111 -334 129 -393
135 -435 15 -97 94 -302 191 -493 56 -110 119 -229 140 -265 21 -36 50 -88 65
-117 39 -73 166 -230 214 -262 63 -43 212 -93 392 -133 l62 -14 92 138 c51 75
99 139 107 142 13 5 43 -2 43 -11 0 -11 -26 -52 -66 -103 -23 -30 -51 -71 -62
-90 -11 -19 -28 -50 -38 -68 -18 -31 -18 -33 -1 -43 33 -19 142 -113 195 -169
29 -30 98 -122 153 -205 55 -82 103 -155 108 -161 5 -5 14 -21 21 -35 7 -13
22 -34 33 -46 30 -33 155 -373 179 -488 19 -87 22 -134 22 -365 1 -258 -10
-399 -45 -560 -5 -25 -13 -74 -18 -110 -8 -63 -17 -93 -49 -172 -12 -32 -20
-38 -56 -44 -70 -11 -115 -35 -155 -81 -60 -67 -64 -133 -13 -191 29 -33 71
-42 220 -48 136 -5 189 3 224 33 17 16 128 233 128 252 0 19 19 12 31 -12 7
-12 27 -40 46 -61 18 -22 32 -44 30 -49 -1 -5 -26 -19 -54 -31 -74 -30 -129
-103 -127 -168 2 -51 25 -90 63 -108 69 -32 533 -50 1086 -44 209 3 513 4 675
4 280 -1 300 -3 390 -26 52 -14 101 -30 110 -37 42 -32 82 -79 73 -88 -4 -4
-98 -12 -208 -16 -227 -8 -226 -8 -586 -4 -168 2 -273 0 -285 -7 -10 -5 -73
-12 -139 -15 -267 -11 -514 -110 -599 -239 -27 -42 -52 -137 -55 -209 -2 -54
3 -74 25 -118 49 -94 111 -121 218 -95 75 18 101 40 220 178 59 69 75 80 151
107 46 16 82 20 188 19 162 0 225 -6 412 -38 33 -6 96 -15 140 -21 255 -34
525 -79 610 -102 123 -34 416 -27 515 13 135 54 218 150 257 297 18 70 5 136
-44 229 -50 97 -127 171 -269 260 -66 42 -240 106 -354 131 -44 10 -182 57
-198 67 -8 5 20 43 73 98 41 43 70 89 109 170 89 185 96 208 128 401 22 135
10 409 -23 520 -4 17 -20 73 -34 125 -14 52 -40 127 -57 165 -32 71 -131 239
-194 330 -61 87 -336 404 -356 411 -10 3 -29 22 -42 42 -26 42 -186 198 -291
284 -140 116 -284 228 -292 228 -10 0 -142 91 -203 141 -25 20 -81 61 -125 91
-191 132 -391 272 -453 318 -37 27 -76 55 -86 63 -19 13 -19 16 -3 68 25 81
39 163 46 278 l6 105 105 40 c131 51 145 59 137 80 -8 20 -44 21 -90 1 -19 -8
-64 -26 -101 -39 l-66 -25 -30 66 c-17 36 -30 70 -30 75 0 6 29 42 65 80 62
67 77 99 55 113 -14 8 -41 -10 -109 -74 l-55 -51 -65 59 c-83 73 -158 121
-275 176 -111 52 -165 71 -248 86 -35 6 -75 13 -91 16 -15 3 -49 25 -75 50
-26 25 -67 63 -92 86 -25 22 -76 70 -115 106 -38 37 -97 89 -130 116 -33 27
-62 52 -65 55 -12 13 -275 230 -369 305 -21 17 -67 53 -102 82 -111 91 -123
100 -156 117 -18 9 -47 16 -66 16 -29 0 -37 -5 -47 -30z m1253 -1134 c146 -81
220 -177 233 -301 6 -60 6 -62 -26 -88 -54 -46 -97 -59 -168 -51 -34 3 -65 10
-68 15 -3 5 -21 16 -40 24 -115 48 -219 214 -200 318 3 18 19 48 34 66 23 28
36 34 80 39 29 2 55 9 58 13 8 14 13 12 97 -35z m-551 -451 c118 -58 218 -193
218 -294 0 -68 -31 -121 -89 -153 -85 -48 -169 -33 -300 52 -101 65 -162 148
-177 239 -12 76 48 157 134 180 56 16 156 5 214 -24z m-134 -762 c-2 -22 -15
-33 -63 -57 -33 -17 -86 -48 -117 -70 -54 -36 -88 -42 -88 -16 0 17 49 59 115
97 32 19 70 43 83 54 14 10 36 19 49 19 21 0 24 -4 21 -27z"/>
<path d="M2284 8146 c-17 -8 -41 -27 -53 -42 -32 -40 -23 -87 28 -163 73 -108
145 -161 223 -168 49 -4 56 -1 86 28 25 25 32 40 32 71 0 104 -119 246 -232
279 -41 11 -46 11 -84 -5z"/>
<path d="M1730 7700 c-8 -5 -27 -10 -41 -10 -39 0 -88 -59 -81 -96 6 -34 86
-161 116 -185 12 -10 35 -29 51 -43 76 -68 162 -74 224 -15 21 20 23 28 19 84
-4 42 -13 74 -30 101 -60 95 -213 192 -258 164z"/>
</g>
</svg>
