<?xml version="1.0" standalone="no"?>
<!DOCTYPE svg PUBLIC "-//W3C//DTD SVG 20010904//EN"
 "http://www.w3.org/TR/2001/REC-SVG-20010904/DTD/svg10.dtd">
<svg version="1.0" xmlns="http://www.w3.org/2000/svg"
 width="704.000000pt" height="1280.000000pt" viewBox="0 0 704.000000 1280.000000"
 preserveAspectRatio="xMidYMid meet">
<metadata>
Created by potrace 1.16, written by Peter Selinger 2001-2019
</metadata>
<g transform="translate(0.000000,1280.000000) scale(0.100000,-0.100000)"
fill="#000000" stroke="none">
<path d="M5389 9694 c-18 -42 -18 -49 -5 -70 9 -12 26 -26 38 -29 13 -4 31
-14 41 -23 16 -14 19 -13 41 7 l25 23 20 -38 c42 -79 76 -100 52 -33 -15 44
-14 49 12 49 71 1 87 33 40 82 -32 33 -43 35 -43 8 0 -21 -53 -55 -75 -47 -7
3 -17 1 -22 -4 -13 -13 -103 26 -103 44 0 8 7 20 16 28 13 10 20 10 44 -4 39
-23 49 -4 14 28 -43 40 -71 33 -95 -21z"/>
<path d="M1808 9593 c-8 -10 -20 -31 -26 -48 -10 -26 -25 -685 -27 -1155 l0
-125 -25 -3 c-27 -3 -45 13 -146 134 -33 40 -90 105 -126 145 -483 536 -514
565 -563 533 -42 -27 -44 -48 -41 -381 2 -182 -2 -361 -8 -418 -16 -143 -4
-329 34 -530 18 -93 36 -190 40 -215 10 -55 35 -166 54 -240 8 -31 30 -85 50
-120 19 -36 48 -90 65 -120 65 -119 220 -277 259 -263 16 7 16 6 0 -11 -10 -9
-18 -28 -18 -42 0 -28 -2 -27 39 -13 27 9 35 8 51 -6 24 -21 137 -75 158 -75
10 0 37 16 61 35 52 41 71 44 71 11 0 -36 -71 -90 -111 -84 -27 4 -37 -3 -90
-61 -57 -63 -76 -111 -45 -111 12 0 65 53 123 123 35 42 62 43 129 6 167 -93
279 -221 485 -554 23 -38 50 -79 60 -90 18 -22 65 -140 122 -305 79 -229 98
-534 57 -885 -14 -123 -59 -392 -70 -418 -4 -12 -14 -42 -21 -67 -15 -54 -32
-70 -77 -70 -67 0 -158 -73 -182 -145 -14 -42 -8 -72 20 -108 39 -50 74 -59
225 -63 185 -6 212 2 253 69 17 29 34 61 38 72 3 11 19 47 34 80 16 33 30 69
32 80 3 16 10 10 34 -29 16 -27 39 -62 52 -77 27 -33 23 -45 -16 -54 -41 -9
-78 -36 -113 -84 -28 -40 -31 -49 -27 -99 4 -48 10 -60 38 -83 18 -15 40 -28
49 -28 9 0 77 -8 151 -16 137 -16 717 -22 1545 -17 316 2 334 1 415 -21 124
-33 223 -105 182 -131 -13 -8 -346 -18 -722 -21 -495 -5 -607 -14 -761 -66
-31 -11 -65 -19 -75 -19 -25 -1 -142 -67 -191 -108 -22 -19 -54 -62 -72 -96
-27 -53 -33 -78 -38 -153 l-6 -90 38 -61 c51 -84 110 -111 199 -92 72 15 139
59 174 116 16 25 59 72 96 104 91 79 145 92 359 91 87 0 175 -5 195 -10 43
-11 180 -34 342 -56 63 -9 158 -22 210 -30 52 -8 109 -16 125 -18 17 -3 84
-16 150 -30 291 -62 470 -58 625 16 129 61 195 139 223 264 20 91 7 161 -49
266 -25 45 -124 146 -183 187 -115 77 -204 114 -503 205 -65 20 -120 40 -123
45 -3 4 25 40 62 79 48 50 81 96 111 158 98 198 120 274 142 493 27 266 -33
577 -160 830 -34 68 -126 214 -151 240 -8 8 -27 33 -43 55 -110 149 -409 473
-581 630 -85 77 -270 226 -335 270 -17 11 -85 60 -153 108 -67 48 -151 107
-187 131 -36 24 -91 63 -122 87 -31 24 -93 69 -138 99 -119 80 -168 118 -179
138 -11 20 10 90 31 103 12 8 53 17 163 36 40 6 51 12 53 29 4 31 -13 34 -113
19 -50 -8 -90 -13 -91 -12 -1 1 4 52 9 114 10 103 13 112 35 122 34 16 25 45
-16 51 -30 4 -35 11 -50 55 -30 88 -72 147 -186 261 -104 104 -164 148 -293
215 -22 12 -46 34 -53 48 -12 27 -77 140 -188 326 -71 119 -229 344 -365 520
-47 61 -119 160 -161 220 -135 198 -206 257 -248 208z m712 -1573 c96 -50 161
-129 200 -244 26 -80 23 -147 -9 -200 -12 -18 -19 -35 -16 -38 11 -10 -128
-30 -169 -24 -48 8 -144 65 -188 112 -60 66 -97 189 -83 280 8 55 70 130 113
137 43 7 114 -4 152 -23z m-666 -396 c142 -67 246 -221 231 -341 -5 -45 -14
-61 -55 -107 -69 -74 -116 -87 -203 -56 -72 26 -135 70 -199 138 -80 85 -100
139 -83 222 14 68 30 93 77 127 71 48 153 55 232 17z"/>
<path d="M2340 7980 c-60 -60 -26 -195 77 -310 87 -97 187 -106 252 -24 45 57
8 178 -85 281 -58 64 -202 95 -244 53z"/>
<path d="M1683 7570 c-36 -26 -43 -38 -49 -78 -6 -37 -3 -54 13 -82 11 -19 23
-46 27 -60 9 -34 44 -72 112 -120 49 -34 65 -40 108 -40 61 0 89 17 116 70 39
76 16 167 -63 248 -90 94 -190 117 -264 62z"/>
<path d="M4621 9560 c-65 -14 -171 -50 -210 -73 -117 -65 -222 -173 -278 -287
-36 -71 -38 -80 -38 -170 0 -84 3 -102 28 -152 50 -103 141 -174 257 -203 75
-19 464 -36 815 -35 198 1 224 3 260 21 74 36 136 107 137 158 2 49 -38 101
-77 101 -13 0 -44 9 -69 20 l-46 19 0 72 c0 68 -2 75 -55 165 -31 52 -70 110
-87 130 -67 76 -194 158 -323 209 -55 22 -89 28 -170 31 -55 2 -120 -1 -144
-6z"/>
</g>
</svg>
