<?xml version="1.0" standalone="no"?>
<!DOCTYPE svg PUBLIC "-//W3C//DTD SVG 20010904//EN"
 "http://www.w3.org/TR/2001/REC-SVG-20010904/DTD/svg10.dtd">
<svg version="1.0" xmlns="http://www.w3.org/2000/svg"
 width="704.000000pt" height="1280.000000pt" viewBox="0 0 704.000000 1280.000000"
 preserveAspectRatio="xMidYMid meet">
<metadata>
Created by potrace 1.16, written by Peter Selinger 2001-2019
</metadata>
<g transform="translate(0.000000,1280.000000) scale(0.100000,-0.100000)"
fill="#000000" stroke="none">
<path d="M2167 9413 c-38 -61 -44 -75 -51 -128 -4 -27 -16 -76 -26 -107 -26
-76 -36 -164 -21 -181 12 -15 -7 -75 -34 -107 -6 -8 -20 -67 -30 -130 -20
-136 -21 -143 -11 -195 5 -27 4 -36 -2 -26 -8 11 -13 5 -22 -27 -33 -126 -81
-177 -140 -150 -16 7 -34 24 -41 38 -19 41 -58 139 -94 238 -33 88 -56 138
-81 172 -6 8 -16 35 -23 60 -7 25 -34 83 -61 130 -26 47 -67 121 -90 165 -50
95 -105 165 -129 165 -29 0 -69 -52 -85 -110 -8 -30 -19 -68 -25 -83 -6 -16
-18 -61 -27 -100 -9 -40 -23 -81 -30 -92 -7 -11 -15 -38 -19 -60 -4 -22 -15
-67 -25 -100 -52 -168 -91 -368 -123 -620 -19 -148 -12 -367 15 -507 12 -63 7
-128 -17 -233 -8 -38 -13 -75 -11 -82 3 -8 22 -13 45 -13 45 0 59 -13 40 -37
-15 -18 -97 -13 -109 7 -10 16 -107 23 -116 8 -13 -20 26 -38 70 -32 32 5 46
2 63 -12 23 -21 69 -162 56 -175 -9 -9 -113 -44 -160 -54 -32 -6 -46 -36 -24
-49 10 -6 146 24 194 43 45 17 53 14 54 -24 1 -43 40 -125 67 -145 12 -8 41
-35 66 -61 85 -88 248 -175 412 -219 22 -6 74 -28 117 -48 64 -31 90 -51 155
-122 94 -102 200 -242 251 -330 21 -36 58 -93 82 -128 51 -72 68 -108 136
-287 74 -196 86 -270 94 -544 4 -161 2 -265 -7 -335 -22 -180 -70 -470 -80
-480 -6 -6 -10 -18 -10 -28 0 -9 -7 -33 -16 -52 -14 -28 -26 -37 -63 -47 -72
-19 -116 -45 -154 -89 -71 -84 -45 -194 52 -220 56 -15 331 -15 363 0 20 9 38
35 64 89 20 42 47 99 60 126 13 28 24 56 24 63 0 23 16 12 33 -23 9 -19 33
-52 53 -74 32 -36 34 -41 18 -47 -113 -34 -172 -95 -176 -178 -1 -47 31 -111
62 -121 8 -2 83 -12 165 -20 167 -18 1109 -31 1225 -18 36 5 211 5 390 2 303
-5 329 -7 390 -28 69 -24 136 -64 154 -93 18 -30 -7 -42 -96 -44 -251 -5 -448
-7 -653 -6 -126 0 -246 -1 -265 -4 -19 -3 -87 -7 -150 -10 -105 -5 -276 -33
-325 -54 -11 -5 -36 -12 -55 -16 -49 -9 -125 -49 -192 -100 -56 -44 -80 -81
-113 -173 -19 -55 -20 -184 -2 -203 8 -7 17 -25 20 -40 4 -16 25 -38 54 -58
45 -30 52 -32 119 -27 89 5 152 38 197 105 79 116 161 180 250 196 41 8 327 9
367 1 204 -37 324 -55 366 -55 22 0 63 -7 90 -15 27 -8 68 -15 92 -15 39 0
295 -46 397 -70 22 -6 72 -12 110 -15 39 -3 91 -8 117 -11 62 -8 228 21 295
52 28 13 57 24 63 24 25 0 121 95 145 142 62 123 63 227 5 337 -30 57 -130
169 -195 219 -52 40 -158 90 -281 130 -161 54 -318 102 -332 102 -38 0 -18 47
45 105 106 98 216 363 248 600 12 85 6 320 -11 415 -65 377 -215 641 -604
1060 -49 52 -119 128 -157 169 -71 77 -211 201 -323 286 -36 28 -67 52 -70 55
-28 28 -120 96 -166 125 -33 19 -84 53 -114 75 -30 21 -86 60 -125 86 -38 26
-97 68 -130 94 -33 25 -103 75 -155 110 -52 35 -139 96 -192 137 -54 40 -109
79 -124 85 l-27 12 7 91 c9 128 -13 254 -63 359 -22 44 -58 126 -80 181 -23
55 -59 136 -80 180 -64 130 -100 212 -107 242 -4 15 -11 33 -16 39 -5 7 -10
21 -12 31 -4 21 -66 156 -118 258 -16 33 -48 96 -70 140 -23 44 -49 94 -60
110 -26 42 -143 246 -186 325 -54 101 -89 140 -123 140 -22 0 -34 -8 -52 -37z
m222 -1722 c24 -5 47 -15 52 -22 15 -24 11 -125 -6 -139 -21 -17 -35 -4 -35
34 0 23 -9 41 -29 60 l-29 28 -97 -18 c-69 -13 -104 -25 -121 -41 -24 -22 -32
-67 -14 -78 18 -11 10 -25 -15 -25 -49 0 -75 110 -35 150 11 11 30 22 42 24
13 3 50 11 83 19 70 17 143 19 204 8z m-654 -112 c35 -38 56 -112 37 -131 -10
-10 -18 -1 -65 71 -12 19 -30 39 -39 45 -21 13 -223 -5 -240 -22 -8 -8 -5 -20
11 -45 26 -43 26 -49 0 -65 -24 -15 -39 -3 -65 57 -15 32 -16 32 -35 15 -17
-15 -19 -16 -19 -1 0 10 4 17 9 17 4 0 12 19 17 42 11 54 22 57 212 55 l144
-2 33 -36z m1295 -83 c0 -31 -11 -38 -69 -41 -25 -1 -88 -10 -140 -19 -54 -10
-98 -13 -103 -8 -5 5 -5 19 0 33 8 21 16 24 58 26 76 2 164 15 170 24 3 5 23
9 45 9 35 0 39 -3 39 -24z m-192 -237 c39 -6 72 -16 72 -21 0 -6 7 -7 15 -4
19 7 93 -21 119 -45 10 -9 16 -24 13 -32 -7 -19 -38 -13 -197 39 -30 10 -77
21 -105 24 -38 4 -51 9 -53 24 -5 23 16 38 43 31 11 -3 53 -10 93 -16z"/>
</g>
</svg>
