<?xml version="1.0" standalone="no"?>
<!DOCTYPE svg PUBLIC "-//W3C//DTD SVG 20010904//EN"
 "http://www.w3.org/TR/2001/REC-SVG-20010904/DTD/svg10.dtd">
<svg version="1.0" xmlns="http://www.w3.org/2000/svg"
 width="704.000000pt" height="1280.000000pt" viewBox="0 0 704.000000 1280.000000"
 preserveAspectRatio="xMidYMid meet">
<metadata>
Created by potrace 1.16, written by Peter Selinger 2001-2019
</metadata>
<g transform="translate(0.000000,1280.000000) scale(0.100000,-0.100000)"
fill="#000000" stroke="none">
<path d="M1164 9296 c-35 -26 -21 -185 23 -251 7 -11 13 -30 13 -42 0 -12 6
-40 14 -60 8 -21 29 -90 46 -153 37 -138 65 -231 96 -325 12 -38 26 -90 29
-115 4 -25 14 -57 21 -72 8 -15 14 -36 14 -48 0 -12 7 -34 15 -50 14 -27 14
-32 0 -54 -9 -13 -29 -29 -45 -36 -26 -11 -35 -8 -97 26 -37 20 -102 55 -143
77 -41 22 -111 61 -155 87 -97 57 -368 203 -416 225 -18 8 -41 19 -49 25 -68
41 -129 51 -151 23 -19 -22 -17 -103 3 -144 25 -50 65 -158 100 -267 17 -54
40 -124 53 -157 12 -33 35 -100 49 -150 61 -207 60 -206 162 -410 76 -154 92
-183 165 -302 23 -37 48 -81 56 -96 41 -78 201 -287 246 -320 56 -42 171 -79
409 -132 61 -13 90 -26 141 -63 35 -26 72 -52 83 -58 49 -28 248 -283 330
-425 21 -35 55 -87 76 -115 21 -28 38 -54 38 -58 0 -7 38 -110 91 -246 34 -89
69 -251 69 -324 0 -28 5 -80 11 -115 11 -71 -1 -311 -26 -491 -31 -227 -55
-364 -65 -374 -5 -5 -10 -21 -10 -36 0 -14 -9 -39 -19 -56 -15 -25 -29 -34
-62 -39 -63 -11 -100 -29 -141 -72 -49 -51 -63 -89 -48 -142 25 -92 69 -106
331 -103 137 2 146 8 199 122 4 8 22 45 39 82 17 36 31 71 31 77 0 23 17 8 62
-57 l47 -66 -45 -22 c-53 -25 -83 -52 -119 -105 -25 -35 -26 -41 -16 -91 16
-76 55 -101 170 -110 214 -17 608 -27 961 -23 619 8 951 6 1010 -6 104 -20
178 -49 222 -89 31 -28 40 -41 32 -49 -13 -14 -272 -22 -744 -25 -393 -3 -574
-16 -690 -50 -47 -13 -101 -27 -120 -31 -43 -9 -161 -75 -209 -117 -99 -87
-139 -269 -85 -384 46 -98 135 -134 238 -95 80 30 100 45 150 115 62 87 123
140 187 162 46 16 84 19 244 19 116 0 206 -5 230 -12 22 -6 78 -16 125 -23 47
-6 110 -15 140 -20 30 -5 111 -16 180 -25 69 -9 216 -34 327 -56 112 -22 224
-39 250 -38 27 1 62 -1 79 -5 16 -4 76 -2 132 3 80 7 116 16 167 40 36 17 71
31 78 31 23 0 119 104 147 160 59 117 57 200 -6 324 -54 107 -164 209 -299
278 -66 33 -244 98 -310 113 -16 3 -74 20 -127 37 l-98 31 22 31 c12 17 44 53
72 81 73 73 179 303 207 450 20 105 39 252 39 308 0 77 -36 310 -65 417 -34
130 -103 284 -178 401 -79 123 -98 149 -165 227 -37 42 -80 93 -95 112 -122
152 -436 463 -582 577 -71 56 -148 116 -170 133 -22 17 -63 46 -92 63 -60 37
-224 153 -368 261 -55 41 -140 101 -190 135 -49 33 -110 76 -135 96 -25 19
-68 50 -95 69 -70 47 -79 59 -65 87 7 12 23 69 37 128 19 84 23 127 21 209
l-3 104 80 33 c162 66 175 73 175 95 0 29 -48 27 -110 -5 -73 -37 -158 -67
-170 -60 -5 3 -10 11 -10 17 0 6 -12 35 -27 65 l-27 53 83 84 c58 58 82 89 78
100 -12 30 -50 17 -97 -32 -25 -26 -59 -60 -76 -75 l-31 -28 -51 46 c-149 135
-351 231 -560 266 l-113 18 -97 87 c-251 223 -302 266 -437 372 -44 34 -96 75
-115 90 -19 15 -74 57 -122 94 -49 37 -108 83 -133 104 -74 61 -207 144 -230
144 -12 0 -30 -6 -41 -14z m1300 -1090 c29 -14 57 -26 62 -26 5 0 17 -12 27
-27 9 -16 35 -48 57 -73 78 -86 113 -175 90 -229 -12 -31 -86 -78 -139 -89
-25 -6 -53 -3 -91 8 -48 15 -79 28 -166 73 -28 15 -86 92 -101 136 -17 47 -27
142 -19 174 3 15 26 38 53 57 44 29 53 31 111 27 39 -3 82 -15 116 -31z m-557
-456 c129 -59 237 -184 247 -284 11 -122 -129 -229 -255 -196 -89 24 -177 80
-249 157 -62 68 -68 79 -75 130 -5 44 -3 65 12 97 33 74 83 105 188 116 33 4
61 8 63 8 1 1 32 -12 69 -28z m-109 -742 c26 -26 12 -46 -57 -81 -38 -20 -92
-52 -119 -71 -27 -20 -57 -36 -66 -36 -23 0 -20 33 7 57 24 23 207 143 217
143 3 0 11 -5 18 -12z m130 -137 c12 -7 11 -14 -2 -38 -8 -17 -26 -44 -39 -59
-39 -48 -117 -179 -117 -198 0 -32 -56 -32 -67 1 -4 10 31 66 130 213 62 92
69 98 95 81z"/>
<path d="M2279 8185 c-61 -33 -60 -113 3 -208 61 -91 77 -107 143 -138 122
-58 203 -21 211 98 4 62 -64 162 -146 216 -52 35 -70 41 -123 43 -39 2 -72 -2
-88 -11z"/>
<path d="M1745 7718 c-27 -16 -49 -38 -69 -70 -16 -24 -16 -30 -1 -75 14 -44
81 -133 100 -133 4 0 16 -11 26 -24 46 -59 155 -82 230 -49 39 17 53 38 64 97
14 71 -65 178 -170 229 -62 31 -151 43 -180 25z"/>
</g>
</svg>
