<?xml version="1.0" standalone="no"?>
<!DOCTYPE svg PUBLIC "-//W3C//DTD SVG 20010904//EN"
 "http://www.w3.org/TR/2001/REC-SVG-20010904/DTD/svg10.dtd">
<svg version="1.0" xmlns="http://www.w3.org/2000/svg"
 width="704.000000pt" height="1280.000000pt" viewBox="0 0 704.000000 1280.000000"
 preserveAspectRatio="xMidYMid meet">
<metadata>
Created by potrace 1.16, written by Peter Selinger 2001-2019
</metadata>
<g transform="translate(0.000000,1280.000000) scale(0.100000,-0.100000)"
fill="#000000" stroke="none">
<path d="M4605 9888 c-124 -15 -286 -81 -418 -169 -80 -54 -213 -190 -256
-262 -65 -110 -85 -179 -85 -302 -1 -118 9 -166 52 -255 33 -67 70 -111 137
-160 141 -104 332 -142 705 -138 119 1 232 -4 270 -10 80 -14 264 -15 470 -2
229 15 341 49 409 126 116 132 49 270 -152 308 l-59 11 6 60 c3 33 8 76 12 95
8 50 -9 90 -41 90 -19 0 -26 7 -31 28 -4 15 -27 69 -51 121 -39 81 -57 105
-136 183 -141 137 -236 195 -403 242 -155 44 -273 53 -429 34z"/>
<path d="M1798 9568 c-23 -33 -23 -38 -30 -393 -3 -198 -8 -487 -10 -642 -3
-315 -6 -325 -63 -261 -16 19 -62 70 -101 114 -40 43 -100 112 -135 153 -95
109 -415 460 -459 504 -30 28 -47 37 -73 37 -62 0 -61 3 -68 -389 -4 -196 -9
-374 -12 -396 -15 -106 -16 -274 -3 -355 38 -226 76 -429 86 -454 5 -15 15
-68 20 -118 9 -76 18 -106 54 -177 92 -183 193 -312 311 -397 24 -18 28 -24
18 -35 -7 -7 -13 -22 -13 -32 0 -17 5 -19 46 -12 41 6 54 2 124 -34 43 -23 86
-41 95 -41 9 0 37 16 62 35 26 20 51 34 57 32 21 -7 16 -26 -18 -62 -31 -33
-40 -37 -67 -31 -30 6 -38 1 -106 -70 -70 -73 -91 -114 -57 -114 9 0 36 22 61
50 24 27 62 64 85 81 l40 32 56 -28 c93 -45 215 -148 284 -238 84 -110 138
-190 178 -262 18 -33 51 -85 75 -115 23 -30 49 -75 58 -100 9 -25 37 -99 62
-165 71 -183 95 -313 102 -540 6 -215 -3 -330 -51 -660 -17 -111 -47 -230 -69
-274 -9 -18 -28 -29 -72 -40 -82 -23 -121 -48 -156 -100 -35 -54 -37 -96 -7
-141 43 -63 80 -73 264 -74 198 -1 187 -8 274 172 34 68 63 123 64 121 29 -30
96 -133 89 -139 -4 -3 -29 -14 -55 -24 -91 -33 -149 -167 -102 -234 33 -47 77
-59 284 -73 183 -12 1059 -19 1190 -9 30 2 184 3 343 1 250 -2 297 -5 364 -22
87 -23 115 -36 162 -78 50 -46 38 -61 -51 -63 -40 0 -131 -3 -203 -6 -174 -6
-189 -6 -495 -3 -147 1 -277 -2 -290 -7 -14 -5 -83 -13 -155 -16 -119 -7 -177
-17 -260 -48 -16 -6 -48 -13 -70 -15 -22 -3 -47 -11 -55 -18 -8 -7 -30 -20
-49 -30 -128 -65 -194 -164 -206 -309 -7 -81 -6 -88 20 -133 40 -70 62 -90
116 -108 97 -32 204 14 273 118 68 102 152 163 249 181 102 19 453 -3 530 -33
16 -6 49 -11 75 -11 54 0 174 -15 282 -35 41 -8 109 -19 150 -25 41 -5 118
-19 170 -31 52 -11 138 -24 190 -29 52 -5 113 -12 135 -15 22 -3 86 0 141 8
181 26 298 98 363 226 32 61 34 73 35 161 1 87 -2 100 -29 154 -16 32 -56 87
-88 122 -116 126 -233 191 -487 268 -220 66 -260 80 -260 88 0 5 24 32 53 61
81 78 139 175 196 322 67 176 91 366 74 593 -20 246 -80 439 -202 647 -28 47
-51 88 -51 91 0 3 -18 29 -41 57 -22 29 -58 77 -80 107 -128 177 -535 597
-694 715 -22 17 -76 59 -120 94 -44 35 -107 82 -140 103 -60 39 -185 129 -341
245 -46 35 -112 82 -146 106 -35 24 -94 65 -132 92 -39 26 -80 57 -92 69 -22
20 -22 23 -7 66 8 25 20 50 26 57 7 6 55 16 107 23 103 12 121 20 104 48 -12
19 -34 20 -132 7 l-63 -8 7 109 c5 92 10 111 26 125 27 21 20 53 -12 58 -21 2
-33 20 -72 100 -77 159 -199 277 -415 400 -65 38 -76 49 -114 114 -23 40 -67
115 -97 167 -31 52 -61 103 -67 112 -73 126 -164 257 -324 467 -48 63 -126
169 -191 263 -36 51 -94 123 -130 160 -77 80 -105 87 -142 36z m733 -1554
c114 -63 205 -215 202 -341 -2 -86 -30 -127 -101 -149 -45 -15 -61 -15 -105
-5 -90 21 -191 101 -235 186 -28 55 -46 154 -38 209 19 123 148 170 277 100z
m-665 -392 c99 -50 204 -184 219 -277 10 -61 -19 -149 -58 -179 -48 -35 -93
-56 -123 -56 -54 0 -150 43 -224 99 -64 49 -80 68 -112 132 -37 73 -38 75 -27
135 13 73 62 137 124 160 53 19 149 13 201 -14z"/>
<path d="M2405 8003 c-11 -2 -30 -6 -42 -9 -61 -13 -67 -122 -12 -221 67 -121
121 -166 215 -178 48 -7 52 -5 87 28 32 30 37 40 37 80 0 51 -22 113 -57 166
-55 81 -167 147 -228 134z"/>
<path d="M1710 7591 c-19 -11 -43 -28 -54 -40 -26 -29 -37 -94 -20 -123 7 -13
16 -30 19 -38 27 -69 54 -105 108 -145 65 -48 106 -61 165 -52 67 11 119 96
103 169 -9 38 -42 103 -68 134 -41 49 -163 115 -208 114 -5 -1 -26 -9 -45 -19z"/>
</g>
</svg>
