<?xml version="1.0" standalone="no"?>
<!DOCTYPE svg PUBLIC "-//W3C//DTD SVG 20010904//EN"
 "http://www.w3.org/TR/2001/REC-SVG-20010904/DTD/svg10.dtd">
<svg version="1.0" xmlns="http://www.w3.org/2000/svg"
 width="704.000000pt" height="1280.000000pt" viewBox="0 0 704.000000 1280.000000"
 preserveAspectRatio="xMidYMid meet">
<metadata>
Created by potrace 1.16, written by Peter Selinger 2001-2019
</metadata>
<g transform="translate(0.000000,1280.000000) scale(0.100000,-0.100000)"
fill="#000000" stroke="none">
<path d="M1800 9578 c-31 -52 -30 -16 -39 -1140 -2 -156 -3 -169 -22 -178 -24
-13 -33 -8 -81 45 -149 165 -187 209 -241 275 -33 41 -70 84 -82 95 -12 11
-84 92 -161 180 -137 158 -177 198 -218 222 -30 17 -42 16 -71 -9 l-26 -23 -4
-400 c-3 -259 -9 -411 -16 -434 -16 -47 -4 -213 26 -376 13 -71 27 -152 31
-180 3 -27 17 -91 30 -142 12 -51 26 -114 29 -140 16 -111 35 -156 150 -350
38 -65 146 -184 209 -231 22 -17 26 -25 17 -36 -19 -23 -3 -46 31 -42 21 3 61
-11 125 -41 104 -50 106 -50 175 15 29 26 58 24 58 -4 0 -9 -19 -34 -42 -56
-23 -21 -37 -38 -31 -38 28 0 166 -89 223 -143 85 -82 180 -193 180 -212 0 -4
13 -24 29 -44 16 -20 50 -72 77 -116 26 -44 66 -105 90 -136 23 -31 45 -67 48
-80 4 -13 13 -40 21 -59 37 -92 105 -303 119 -370 9 -41 16 -97 16 -125 0 -27
5 -98 11 -158 9 -88 9 -139 -5 -285 -17 -179 -59 -471 -77 -528 -5 -17 -9 -40
-9 -52 0 -11 -4 -23 -9 -27 -5 -3 -12 -19 -16 -36 -7 -32 -35 -49 -81 -49 -61
0 -165 -88 -179 -151 -8 -37 9 -90 38 -116 45 -40 95 -50 249 -49 171 1 182 6
228 96 48 93 90 186 90 198 0 21 15 13 33 -18 10 -16 34 -50 53 -75 30 -40 32
-46 17 -51 -70 -22 -111 -49 -141 -92 -45 -68 -44 -142 4 -183 60 -51 445 -72
1189 -64 877 9 871 9 966 -15 87 -22 164 -64 187 -101 8 -12 10 -25 5 -29 -10
-10 -286 -19 -728 -25 -366 -4 -605 -16 -650 -33 -50 -19 -165 -52 -178 -52
-7 0 -39 -14 -71 -30 -160 -83 -220 -168 -232 -328 -5 -73 -4 -96 8 -110 7 -9
22 -33 33 -53 18 -36 56 -62 120 -80 35 -10 121 11 173 43 18 11 46 41 64 66
68 102 145 164 235 187 68 19 381 22 413 5 25 -13 101 -26 300 -51 47 -5 128
-16 180 -24 52 -8 127 -19 165 -24 39 -5 124 -21 190 -35 66 -14 145 -28 175
-31 154 -16 201 -17 246 -6 27 6 71 13 97 15 26 2 55 10 63 17 9 7 39 21 67
31 80 27 155 113 187 214 35 108 31 166 -16 263 -57 118 -201 248 -357 322
-34 16 -70 29 -80 29 -10 0 -38 9 -61 20 -24 10 -72 26 -107 34 -52 11 -213
63 -227 72 -10 6 27 54 76 98 44 41 65 72 113 172 70 143 104 252 121 384 16
120 17 348 1 420 -7 30 -20 91 -29 135 -23 106 -48 184 -90 273 -19 41 -34 75
-34 77 0 2 -29 52 -65 112 -93 155 -219 313 -431 538 -160 169 -257 264 -359
347 -117 96 -287 228 -293 228 -4 0 -50 31 -102 70 -52 38 -126 91 -165 117
-38 26 -101 72 -140 103 -38 31 -113 85 -165 120 -150 100 -170 118 -170 150
0 73 30 94 158 110 85 11 92 14 92 41 0 24 2 24 -120 14 l-85 -6 3 78 c4 119
9 138 37 151 14 7 25 20 25 31 0 15 -8 20 -36 23 -33 3 -37 6 -53 56 -26 77
-82 154 -191 262 -100 101 -210 182 -276 204 -36 12 -44 23 -99 124 -33 61
-83 146 -111 189 -28 43 -61 96 -73 117 -31 55 -150 223 -328 463 -84 113
-153 208 -153 213 0 12 -100 140 -150 192 -57 59 -91 64 -120 16z m736 -1561
c51 -26 84 -57 124 -117 13 -19 27 -37 31 -40 18 -13 47 -131 44 -182 -4 -87
-30 -128 -96 -151 -47 -17 -61 -17 -109 -7 -168 37 -285 183 -276 344 9 160
135 228 282 153z m-706 -380 c20 -6 59 -29 88 -50 167 -123 215 -299 114 -418
-85 -101 -236 -73 -380 68 -90 89 -125 159 -113 230 18 113 93 170 241 182 8
0 31 -5 50 -12z"/>
<path d="M2410 8004 c-70 -23 -90 -38 -96 -70 -13 -71 29 -180 99 -260 49 -55
103 -84 158 -84 36 0 48 6 82 42 39 40 39 42 33 96 -14 118 -93 224 -194 262
-55 21 -58 21 -82 14z"/>
<path d="M1683 7570 c-63 -46 -69 -94 -24 -192 35 -74 48 -89 119 -146 49 -38
59 -42 112 -42 43 0 64 5 84 21 57 45 75 133 40 201 -30 59 -105 138 -155 163
-68 35 -124 33 -176 -5z"/>
<path d="M4618 8970 c-50 -27 -98 -87 -98 -125 0 -16 8 -46 18 -65 15 -32 22
-36 72 -42 30 -3 117 -6 192 -7 114 -1 139 2 153 15 24 24 15 58 -16 62 -21 2
-25 8 -26 37 -1 44 -47 103 -98 126 -54 25 -148 24 -197 -1z"/>
</g>
</svg>
