<?xml version="1.0" standalone="no"?>
<!DOCTYPE svg PUBLIC "-//W3C//DTD SVG 20010904//EN"
 "http://www.w3.org/TR/2001/REC-SVG-20010904/DTD/svg10.dtd">
<svg version="1.0" xmlns="http://www.w3.org/2000/svg"
 width="704.000000pt" height="1280.000000pt" viewBox="0 0 704.000000 1280.000000"
 preserveAspectRatio="xMidYMid meet">
<metadata>
Created by potrace 1.16, written by Peter Selinger 2001-2019
</metadata>
<g transform="translate(0.000000,1280.000000) scale(0.100000,-0.100000)"
fill="#000000" stroke="none">
<path d="M3915 10112 c-59 -25 -134 -70 -179 -109 -37 -31 -45 -33 -110 -33
-251 -1 -487 -97 -644 -264 -58 -61 -65 -93 -24 -111 12 -5 22 -18 22 -27 0
-23 97 -94 191 -140 86 -42 226 -84 331 -98 56 -8 76 -15 88 -32 35 -51 99
-108 119 -108 33 0 61 18 61 40 0 25 6 25 37 0 32 -25 88 -35 119 -21 33 15
32 60 -1 91 -14 13 -25 27 -25 30 0 4 42 13 93 20 81 12 222 51 327 91 19 8
73 36 120 62 51 29 89 45 96 40 93 -69 177 -104 251 -105 53 -1 83 13 83 38 0
7 -27 43 -60 80 -91 100 -102 170 -40 259 17 25 38 61 46 81 17 41 22 180 7
195 -16 16 -59 -6 -111 -58 -44 -44 -176 -219 -185 -246 -3 -8 -35 3 -93 32
-97 47 -226 91 -344 117 -41 9 -76 18 -78 19 -2 2 11 23 29 48 27 39 30 49 19
62 -7 8 -22 15 -35 15 -16 0 -21 6 -21 23 1 29 -34 33 -89 9z m885 -106 c0
-57 -15 -99 -62 -171 -39 -59 -40 -62 -35 -131 6 -83 20 -114 76 -169 45 -43
52 -65 21 -65 -11 0 -20 6 -20 14 0 7 -11 21 -25 30 -14 10 -31 28 -37 42 -6
13 -17 24 -25 24 -8 0 -13 13 -13 38 0 27 -3 33 -10 22 -7 -12 -10 -8 -10 15
0 23 3 27 10 15 8 -13 10 -13 10 2 0 9 -4 18 -9 20 -6 2 -12 28 -15 58 -5 55
-5 56 40 100 46 46 54 62 58 127 3 48 14 73 32 73 10 0 14 -13 14 -44z m-734
-112 c147 -32 270 -74 396 -136 41 -19 34 -30 -7 -12 -24 10 -41 11 -52 5 -18
-9 -34 2 -45 30 -4 10 -30 21 -67 30 -34 7 -61 16 -61 20 0 4 -19 10 -42 14
-24 4 -48 11 -53 16 -20 15 -80 13 -114 -4 -38 -19 -61 -22 -61 -8 0 9 30 25
43 23 4 -1 7 3 7 8 0 6 -4 10 -9 10 -5 0 -16 3 -25 6 -11 4 -16 0 -17 -12 -1
-17 -2 -17 -6 -1 -5 21 -23 23 -23 2 0 -8 -8 -15 -17 -15 -15 0 -16 2 -3 10
12 8 9 10 -11 10 -15 0 -29 7 -33 15 -8 23 61 19 200 -11z m-629 -49 c30 -53
29 -64 -3 -26 -33 39 -74 43 -74 7 0 -13 6 -26 13 -29 25 -9 51 -79 49 -129
-2 -48 -60 -189 -83 -204 -7 -4 -10 -3 -8 2 3 5 12 25 21 44 63 136 70 167 42
191 -8 7 -13 20 -11 29 5 21 -10 50 -26 50 -7 0 -19 9 -27 20 -18 25 -46 26
-53 1 -5 -22 -38 -19 -58 5 -9 11 -7 15 7 21 11 3 21 10 24 13 8 11 71 30 65
20 -3 -5 0 -12 6 -15 6 -4 13 2 16 13 5 20 30 31 63 28 8 -1 25 -19 37 -41z"/>
<path d="M1160 9290 c-34 -34 -22 -139 30 -270 16 -41 41 -120 54 -175 30
-121 62 -233 75 -260 18 -39 65 -203 97 -340 9 -38 20 -77 24 -86 6 -11 1 -23
-15 -40 -44 -44 -55 -51 -68 -41 -7 5 -55 32 -107 60 -52 28 -126 68 -165 90
-169 96 -418 230 -505 272 -144 70 -157 74 -185 62 -39 -18 -39 -56 0 -167 70
-195 107 -302 177 -515 108 -327 124 -369 188 -480 15 -25 46 -83 70 -130 44
-84 97 -177 148 -255 14 -22 37 -58 51 -80 34 -53 131 -172 172 -212 54 -51
179 -97 374 -139 78 -17 165 -57 252 -116 78 -52 221 -229 323 -396 28 -46 68
-107 89 -135 34 -45 131 -265 131 -296 0 -6 11 -34 23 -63 45 -102 80 -433 67
-628 -25 -358 -71 -635 -120 -729 -16 -30 -27 -37 -80 -52 -34 -9 -74 -26 -89
-36 -37 -28 -79 -92 -86 -133 -9 -51 38 -115 97 -131 35 -10 170 -14 320 -10
34 1 89 56 113 113 27 67 79 168 86 168 8 0 87 -104 95 -124 3 -9 -5 -15 -26
-20 -79 -15 -150 -103 -150 -184 0 -34 6 -49 33 -77 27 -29 40 -35 87 -39 30
-3 91 -10 135 -17 56 -8 355 -12 995 -14 978 -2 925 1 1041 -49 51 -21 99 -64
99 -87 0 -17 -9 -19 -77 -21 -43 -2 -112 -4 -153 -5 -41 -2 -247 -3 -457 -3
-257 1 -389 -3 -403 -10 -11 -6 -69 -11 -128 -11 -83 -1 -126 -7 -192 -26 -47
-14 -107 -31 -135 -38 -59 -15 -132 -52 -195 -98 -31 -23 -57 -56 -84 -108
-37 -68 -41 -82 -44 -164 -4 -88 -3 -92 27 -138 61 -90 135 -115 244 -83 46
13 64 26 104 72 188 217 187 217 453 221 134 1 202 -2 245 -12 33 -8 101 -19
150 -25 50 -6 126 -17 170 -25 44 -8 118 -19 165 -25 47 -5 99 -12 115 -14 43
-6 233 -45 280 -57 41 -11 49 -12 195 -24 104 -9 240 13 350 56 127 50 212
155 240 295 11 53 10 66 -10 124 -32 95 -63 143 -149 227 -115 113 -230 169
-511 253 -158 47 -200 61 -200 66 0 15 26 49 63 84 45 40 61 66 125 191 93
181 132 357 132 589 0 198 -37 390 -110 575 -39 100 -140 276 -216 380 -58 80
-230 282 -309 362 -44 46 -111 117 -150 159 -113 124 -399 362 -534 444 -32
19 -89 58 -127 86 -38 28 -100 72 -139 97 -38 26 -108 76 -155 112 -47 37
-103 78 -125 92 -63 41 -314 224 -325 238 -8 9 -6 24 4 51 35 94 57 228 53
325 l-4 97 56 25 c31 14 79 35 106 47 28 11 62 26 76 32 18 8 25 17 21 30 -7
28 -50 22 -148 -21 -139 -61 -127 -62 -163 15 -17 36 -31 68 -31 71 0 2 34 40
76 84 74 78 89 110 52 117 -9 2 -38 -19 -65 -45 -26 -26 -62 -60 -79 -75 l-30
-28 -64 57 c-36 31 -87 71 -115 88 -67 43 -250 127 -300 137 -106 22 -154 30
-195 35 -39 4 -56 15 -139 91 -106 98 -451 387 -495 416 -16 10 -74 55 -130
100 -209 169 -395 296 -435 296 -6 0 -20 -9 -31 -20z m1292 -1080 c33 -17 63
-29 65 -26 7 7 74 -75 133 -163 54 -80 63 -122 36 -184 -18 -44 -112 -82 -184
-75 -50 5 -222 81 -222 99 0 5 -15 26 -33 46 -35 40 -52 85 -63 170 -9 69 8
107 60 138 60 36 130 34 208 -5z m-472 -494 c95 -63 173 -177 176 -255 3 -91
-85 -183 -186 -197 -38 -5 -60 0 -133 31 -193 82 -307 248 -247 364 35 69 102
105 210 113 43 4 132 -24 180 -56z m-176 -711 c10 -7 15 -18 12 -23 -3 -6 -50
-38 -103 -71 -54 -34 -110 -71 -125 -82 -28 -23 -48 -19 -48 11 0 20 56 71
105 95 16 8 50 30 75 50 50 39 57 40 84 20z m133 -145 c2 -8 -27 -58 -64 -111
-38 -52 -79 -119 -92 -147 -22 -46 -28 -53 -50 -50 -15 2 -27 10 -29 21 -3 16
168 283 192 299 17 12 40 5 43 -12z"/>
<path d="M2284 8189 c-29 -15 -54 -61 -54 -98 0 -46 32 -102 100 -175 89 -95
163 -123 243 -92 41 15 43 19 56 76 12 54 12 65 -4 99 -22 49 -120 152 -165
173 -45 21 -148 31 -176 17z"/>
<path d="M1755 7719 c-11 -7 -35 -27 -52 -45 -59 -61 -36 -137 70 -238 67 -63
117 -86 189 -86 46 0 62 5 86 25 41 34 59 100 41 150 -21 57 -110 149 -169
174 -62 27 -138 36 -165 20z"/>
</g>
</svg>
