<?xml version="1.0" standalone="no"?>
<!DOCTYPE svg PUBLIC "-//W3C//DTD SVG 20010904//EN"
 "http://www.w3.org/TR/2001/REC-SVG-20010904/DTD/svg10.dtd">
<svg version="1.0" xmlns="http://www.w3.org/2000/svg"
 width="704.000000pt" height="1280.000000pt" viewBox="0 0 704.000000 1280.000000"
 preserveAspectRatio="xMidYMid meet">
<metadata>
Created by potrace 1.16, written by Peter Selinger 2001-2019
</metadata>
<g transform="translate(0.000000,1280.000000) scale(0.100000,-0.100000)"
fill="#000000" stroke="none">
<path d="M1663 9213 c-13 -20 -18 -46 -18 -98 1 -105 15 -262 25 -290 6 -16 5
-45 -2 -82 -7 -38 -8 -141 -5 -298 4 -133 4 -250 1 -261 -3 -11 -26 -33 -51
-49 l-46 -29 -26 31 c-14 17 -64 74 -111 128 -47 53 -88 104 -92 114 -9 24
-106 140 -225 267 -54 58 -109 125 -123 150 -35 61 -105 141 -140 159 -45 23
-83 10 -102 -34 -14 -31 -15 -51 -7 -122 5 -46 16 -147 24 -224 8 -77 21 -185
29 -240 9 -55 16 -127 16 -160 0 -52 6 -101 25 -215 2 -14 7 -43 10 -65 3 -22
12 -76 20 -120 8 -44 21 -146 30 -227 15 -132 15 -149 2 -175 -19 -33 -53
-147 -66 -218 -11 -60 -14 -246 -5 -361 l6 -82 -74 -23 c-59 -20 -74 -28 -76
-46 -3 -20 1 -23 30 -23 33 0 80 10 127 25 17 5 21 4 16 -5 -4 -7 6 -24 25
-43 17 -17 38 -46 46 -65 13 -33 13 -37 -6 -57 -11 -12 -46 -34 -78 -49 -58
-28 -88 -58 -77 -76 4 -6 13 -10 21 -10 17 0 162 77 182 97 7 7 16 13 20 13 9
0 143 -70 172 -90 14 -9 36 -20 50 -22 14 -3 70 -17 125 -31 55 -15 119 -31
143 -37 23 -5 127 -10 230 -11 119 0 198 -4 218 -12 69 -27 321 -347 395 -504
27 -56 49 -106 49 -110 0 -5 13 -40 29 -78 66 -157 83 -568 35 -881 -14 -93
-30 -203 -35 -244 -16 -127 -65 -250 -99 -250 -77 0 -200 -90 -212 -155 -7
-36 1 -95 13 -95 5 0 9 -6 9 -12 0 -7 15 -23 33 -35 29 -20 46 -22 192 -24 88
-1 171 1 185 6 36 11 63 43 96 115 51 112 80 169 85 169 3 1 20 -20 37 -46 17
-27 39 -58 48 -70 16 -22 15 -23 -41 -48 -100 -44 -144 -121 -120 -210 15 -53
35 -65 136 -80 200 -29 446 -37 915 -31 734 10 1044 8 1124 -9 90 -19 158 -52
194 -95 14 -17 26 -35 26 -40 0 -11 -292 -21 -715 -25 -430 -4 -613 -15 -720
-44 -44 -12 -93 -26 -110 -30 -65 -17 -183 -84 -231 -130 -65 -64 -96 -139
-102 -251 -3 -70 -1 -88 12 -99 9 -7 16 -19 16 -27 0 -27 61 -83 108 -98 43
-15 53 -15 107 -1 74 20 104 39 145 90 85 109 137 159 190 184 51 24 68 26
216 29 89 2 190 -1 225 -7 95 -15 244 -38 334 -50 44 -6 90 -12 101 -15 12 -2
66 -9 120 -16 55 -6 153 -22 219 -36 190 -39 215 -43 299 -49 43 -3 89 -8 102
-11 38 -10 231 26 304 55 146 60 229 172 238 321 4 69 1 83 -29 155 -26 64
-46 93 -98 146 -36 36 -83 78 -104 95 -53 40 -171 100 -237 120 -30 9 -65 20
-78 25 -13 5 -32 9 -42 9 -11 0 -20 5 -20 10 0 6 -13 10 -28 10 -16 0 -32 3
-36 7 -10 10 -78 33 -99 33 -9 0 -25 4 -35 9 -9 6 -29 12 -45 16 -27 5 -27 5
-10 33 10 15 41 50 68 77 58 57 82 97 147 245 78 180 104 330 95 566 -5 169
-28 307 -73 444 -25 76 -147 331 -168 353 -7 7 -23 30 -36 52 -13 22 -41 60
-61 85 -83 99 -180 212 -218 253 -22 23 -53 60 -71 82 -17 22 -93 100 -168
174 -190 186 -389 344 -602 478 -58 36 -179 112 -269 169 -90 57 -165 104
-168 104 -2 0 -24 14 -48 30 -24 17 -46 30 -50 30 -3 0 -49 27 -102 60 -52 33
-98 60 -101 60 -3 0 -31 17 -63 37 -56 37 -79 66 -79 101 0 15 -48 176 -81
272 -6 19 -18 54 -26 76 -17 52 -174 329 -204 360 -12 13 -36 48 -53 79 -57
102 -275 396 -316 426 -15 12 -37 38 -49 60 -12 21 -28 39 -36 39 -7 0 -25 15
-40 33 -15 17 -69 76 -120 129 -50 53 -121 131 -156 172 -35 42 -67 76 -72 76
-5 0 -36 26 -69 58 -94 90 -134 103 -165 55z m367 -1576 c0 -7 -19 -21 -41
-31 -70 -32 -128 -136 -129 -229 0 -21 9 -67 21 -102 18 -56 27 -69 70 -101
48 -35 52 -36 102 -28 49 9 52 11 71 56 18 45 19 55 6 175 -14 136 -17 148
-61 204 -52 67 -28 83 30 21 41 -43 66 -122 76 -237 11 -120 -19 -211 -88
-270 -41 -36 -43 -37 -106 -31 -35 3 -74 12 -87 21 -92 60 -154 300 -108 412
30 70 77 131 113 147 64 28 131 24 131 -7z m-647 -217 c76 -67 117 -172 117
-297 0 -102 -19 -143 -86 -187 -30 -20 -54 -41 -54 -46 0 -6 -16 -10 -36 -10
-21 0 -33 -4 -29 -10 3 -5 1 -10 -4 -10 -6 0 -11 6 -11 13 0 7 -21 33 -46 57
-25 25 -50 56 -56 70 -42 106 -52 283 -19 348 26 51 52 72 113 93 29 10 56 18
59 19 3 0 27 -18 52 -40z m1315 -187 c-2 -10 -21 -27 -43 -39 -59 -30 -215
-94 -231 -94 -12 0 -32 47 -23 53 2 2 48 17 102 36 54 18 113 39 130 46 45 20
69 19 65 -2z m25 -269 c63 -6 97 -22 97 -44 0 -15 -52 -16 -130 -2 -41 6 -106
13 -145 13 -77 2 -103 13 -84 36 12 14 94 13 262 -3z"/>
<path d="M1294 7365 c-41 -41 -64 -103 -64 -175 0 -54 6 -78 34 -135 18 -39
45 -80 58 -93 l25 -23 49 23 c66 32 79 59 79 178 0 86 -3 100 -29 145 -59 104
-104 128 -152 80z"/>
</g>
</svg>
