<?xml version="1.0" standalone="no"?>
<!DOCTYPE svg PUBLIC "-//W3C//DTD SVG 20010904//EN"
 "http://www.w3.org/TR/2001/REC-SVG-20010904/DTD/svg10.dtd">
<svg version="1.0" xmlns="http://www.w3.org/2000/svg"
 width="704.000000pt" height="1280.000000pt" viewBox="0 0 704.000000 1280.000000"
 preserveAspectRatio="xMidYMid meet">
<metadata>
Created by potrace 1.16, written by Peter Selinger 2001-2019
</metadata>
<g transform="translate(0.000000,1280.000000) scale(0.100000,-0.100000)"
fill="#000000" stroke="none">
<path d="M1360 9405 c-7 -8 -15 -44 -17 -79 -6 -68 15 -146 71 -266 14 -30 26
-66 26 -80 0 -14 14 -63 30 -110 17 -47 30 -95 30 -108 0 -13 14 -63 30 -112
17 -49 30 -96 30 -105 0 -8 16 -64 35 -124 19 -59 35 -115 35 -124 0 -9 -9
-36 -21 -60 -22 -45 -65 -77 -104 -77 -13 0 -27 -4 -30 -10 -13 -21 -52 -8
-110 36 -86 65 -163 117 -215 145 -25 14 -106 65 -181 114 -75 50 -152 99
-170 110 -19 11 -61 37 -94 57 -140 88 -217 118 -259 102 -31 -12 -17 -144 24
-239 5 -11 14 -40 20 -65 27 -106 33 -128 55 -180 13 -30 26 -72 29 -92 4 -20
16 -65 26 -100 24 -74 34 -113 50 -188 15 -70 41 -151 55 -170 6 -8 24 -46 39
-85 37 -93 122 -269 154 -319 30 -47 81 -137 124 -216 17 -30 38 -64 48 -75 9
-11 35 -47 56 -80 36 -56 81 -111 129 -158 32 -31 85 -62 155 -91 36 -15 70
-29 77 -32 6 -3 14 3 17 13 3 10 25 39 49 63 23 25 71 78 106 118 69 79 97
100 113 84 12 -12 -8 -46 -77 -127 -49 -57 -101 -131 -125 -175 -10 -19 -9
-20 29 -14 34 5 50 1 108 -31 37 -21 95 -60 128 -88 57 -47 172 -181 221 -259
13 -20 28 -39 33 -43 6 -3 29 -38 52 -78 23 -40 57 -91 75 -114 19 -23 34 -44
34 -48 0 -4 9 -18 20 -32 11 -14 20 -32 20 -39 0 -8 9 -33 19 -57 11 -23 40
-98 65 -167 58 -159 75 -273 83 -549 6 -223 5 -243 -43 -541 -13 -85 -27 -172
-30 -192 -3 -21 -10 -40 -15 -44 -5 -3 -9 -14 -9 -24 0 -11 -7 -35 -16 -53
-14 -30 -25 -37 -83 -53 -124 -35 -208 -152 -167 -232 38 -73 101 -91 300 -85
92 2 126 7 149 21 32 18 74 91 130 221 l27 63 51 -77 c27 -43 49 -78 47 -79
-2 -1 -23 -9 -47 -16 -24 -8 -54 -23 -67 -33 -36 -28 -64 -90 -64 -142 0 -37
6 -51 33 -80 l32 -34 165 -16 c182 -18 1049 -30 1220 -17 52 4 237 4 410 1
l315 -5 73 -31 c110 -47 166 -97 132 -118 -9 -5 -371 -20 -480 -19 -25 0 -146
1 -270 2 -124 1 -241 -1 -260 -4 -19 -3 -98 -9 -175 -13 -127 -8 -255 -29
-295 -50 -9 -5 -36 -12 -60 -16 -25 -4 -52 -13 -60 -20 -8 -8 -27 -18 -42 -24
-14 -5 -53 -30 -86 -55 -85 -65 -123 -145 -129 -271 -4 -88 -4 -91 29 -140 18
-27 49 -60 68 -73 31 -21 44 -23 106 -20 91 6 148 37 200 110 85 120 146 167
241 188 46 11 321 14 373 5 93 -16 158 -27 250 -40 58 -8 134 -20 170 -26 36
-6 101 -15 145 -20 73 -8 284 -47 380 -69 22 -6 74 -12 115 -14 41 -2 101 -8
132 -12 42 -5 70 -2 107 10 27 9 67 16 88 16 21 0 56 10 79 24 22 13 52 26 66
29 37 10 122 96 147 150 40 83 51 142 40 210 -13 82 -58 162 -132 239 -141
146 -198 173 -603 297 -55 17 -106 31 -112 31 -18 0 -24 18 -12 39 5 11 34 44
63 73 79 79 162 249 214 438 24 88 26 110 27 310 1 242 -14 340 -80 534 -100
289 -293 550 -741 1000 -113 114 -240 222 -368 316 -33 24 -62 47 -65 51 -3 4
-30 21 -60 39 -30 18 -95 63 -145 100 -49 37 -115 83 -145 103 -30 20 -111 77
-180 126 -69 50 -173 125 -232 167 -59 42 -117 88 -130 101 l-22 24 22 67 c36
109 53 188 55 258 l2 65 35 9 c19 5 68 17 109 27 78 19 106 42 83 65 -10 10
-34 7 -119 -14 -58 -15 -110 -25 -114 -23 -4 3 -20 37 -35 77 l-27 71 29 25
c89 74 124 109 124 125 0 9 -7 17 -16 17 -18 0 -91 -48 -118 -79 -11 -11 -26
-21 -35 -21 -9 0 -43 27 -76 61 -83 83 -224 173 -368 234 -96 41 -127 59 -144
84 -29 42 -98 123 -217 252 -94 104 -143 149 -251 233 -27 22 -82 67 -121 101
-39 33 -103 85 -143 115 -40 30 -128 98 -195 150 -199 157 -246 182 -276 145z
m1308 -1426 c11 -40 -4 -100 -27 -107 -10 -3 -12 4 -6 37 l7 42 -39 -21 c-45
-23 -154 -125 -198 -185 -60 -81 -95 -96 -95 -41 0 27 8 41 38 66 20 18 63 57
94 85 31 29 86 74 121 99 36 26 68 54 71 63 9 22 22 7 34 -38z m-579 -453 c4
-23 -23 -46 -54 -46 -11 0 -53 -20 -92 -44 -40 -24 -103 -56 -140 -71 -37 -14
-77 -31 -89 -36 -11 -6 -38 -9 -60 -7 -34 3 -39 6 -42 30 -4 33 26 52 68 43
22 -5 60 10 186 74 166 84 215 97 223 57z m-441 -515 c5 -31 -9 -43 -51 -46
-19 -2 -66 -23 -108 -49 -75 -47 -119 -58 -119 -31 0 15 75 75 94 75 15 0 107
49 126 66 22 22 54 13 58 -15z"/>
</g>
</svg>
