<?xml version="1.0" standalone="no"?>
<!DOCTYPE svg PUBLIC "-//W3C//DTD SVG 20010904//EN"
 "http://www.w3.org/TR/2001/REC-SVG-20010904/DTD/svg10.dtd">
<svg version="1.0" xmlns="http://www.w3.org/2000/svg"
 width="704.000000pt" height="1280.000000pt" viewBox="0 0 704.000000 1280.000000"
 preserveAspectRatio="xMidYMid meet">
<metadata>
Created by potrace 1.16, written by Peter Selinger 2001-2019
</metadata>
<g transform="translate(0.000000,1280.000000) scale(0.100000,-0.100000)"
fill="#000000" stroke="none">
<path d="M5714 10186 c-7 -18 12 -46 30 -46 6 0 18 -5 26 -10 12 -7 4 -19 -40
-59 -47 -42 -53 -52 -44 -68 12 -19 149 -67 171 -59 23 9 2 35 -43 52 -24 9
-44 21 -44 25 0 5 25 28 55 52 30 23 55 49 55 59 0 11 -20 22 -67 38 -38 11
-74 24 -80 26 -7 3 -16 -2 -19 -10z"/>
<path d="M6046 10113 c-11 -11 -6 -48 9 -67 24 -32 18 -37 -45 -34 -45 2 -64
-2 -77 -14 -15 -16 -14 -21 23 -74 21 -31 46 -67 54 -80 16 -26 50 -33 50 -10
0 7 -11 30 -25 50 -14 20 -25 41 -25 47 0 6 30 8 85 3 100 -8 103 -4 50 71
-20 28 -43 62 -53 77 -18 29 -36 41 -46 31z"/>
<path d="M4630 9890 c-359 -37 -711 -323 -776 -630 -21 -100 -18 -195 10 -276
27 -80 73 -159 113 -194 163 -144 350 -190 768 -190 105 0 206 -2 225 -5 167
-22 600 -10 729 20 125 30 193 78 233 164 52 111 -29 213 -192 243 l-62 12 6
45 c25 168 21 198 -25 203 -28 3 -34 9 -44 43 -28 95 -97 211 -157 261 -7 7
-38 38 -70 70 -87 91 -263 181 -425 218 -93 21 -224 27 -333 16z"/>
<path d="M1804 9592 c-28 -18 -37 -91 -40 -312 -10 -656 -11 -987 -3 -1002 7
-13 4 -20 -10 -28 -11 -5 -22 -10 -25 -10 -8 0 -57 52 -136 146 -41 48 -93
108 -115 133 -23 26 -61 71 -85 101 -24 30 -81 93 -126 140 -45 47 -104 112
-131 145 -72 87 -166 173 -197 181 -19 4 -33 1 -46 -11 -36 -32 -43 -112 -36
-385 4 -195 2 -282 -9 -372 -17 -141 -13 -353 9 -453 9 -38 24 -120 35 -181
11 -60 26 -139 35 -175 8 -35 17 -84 20 -109 4 -25 9 -63 12 -85 6 -40 53
-143 109 -240 67 -116 161 -220 274 -302 3 -2 -1 -9 -7 -15 -15 -15 -16 -45
-1 -53 5 -4 23 -2 39 5 25 10 37 7 113 -29 47 -23 93 -41 102 -41 9 0 37 16
62 35 26 20 51 34 57 32 23 -8 15 -30 -23 -69 -23 -22 -40 -42 -39 -43 2 -2
32 -17 68 -35 76 -38 161 -102 209 -156 75 -86 241 -317 241 -336 0 -12 76
-123 99 -145 11 -10 28 -45 39 -78 11 -33 35 -98 52 -145 95 -253 110 -349
106 -675 -3 -200 -8 -273 -25 -365 -12 -63 -26 -153 -31 -200 -18 -163 -58
-273 -100 -278 -38 -5 -112 -34 -143 -56 -40 -29 -77 -96 -77 -138 0 -27 9
-46 38 -77 35 -40 42 -43 107 -51 39 -4 123 -7 189 -6 l118 1 28 34 c29 34 43
61 102 188 18 40 36 71 40 70 3 -1 27 -30 52 -65 46 -61 50 -82 20 -82 -31 0
-106 -54 -131 -93 -21 -33 -24 -49 -21 -93 6 -65 24 -88 87 -108 82 -27 383
-40 886 -38 1167 3 1174 3 1267 -31 72 -26 146 -81 147 -109 1 -16 -10 -18
-81 -19 -46 -1 -139 -4 -208 -6 -69 -2 -269 -5 -445 -6 -369 -3 -571 -19 -700
-54 -49 -14 -106 -27 -125 -30 -19 -3 -42 -11 -50 -18 -8 -7 -35 -23 -60 -35
-68 -34 -121 -87 -159 -160 -30 -56 -35 -77 -39 -151 -4 -85 -4 -87 30 -140
43 -66 62 -83 111 -99 43 -14 91 -7 154 20 46 20 113 79 113 99 0 7 32 43 71
81 61 60 81 73 138 90 107 34 395 25 552 -15 31 -8 74 -15 94 -15 21 0 65 -4
99 -10 33 -5 129 -19 211 -30 83 -12 179 -28 215 -36 36 -7 85 -16 109 -19 23
-4 54 -10 67 -15 56 -22 307 -31 404 -15 30 4 83 21 117 37 34 15 67 28 73 28
6 0 35 24 65 54 87 86 137 224 115 320 -31 139 -155 282 -330 381 -61 35 -216
94 -305 117 -93 25 -235 71 -235 77 0 3 31 39 68 79 69 73 129 177 187 322
100 252 98 650 -7 953 -95 278 -275 531 -668 942 -133 139 -188 189 -345 315
-166 133 -187 149 -272 205 -69 45 -202 140 -303 216 -78 58 -283 205 -298
214 -10 6 -36 24 -60 40 -37 27 -41 33 -36 60 17 80 32 90 162 105 82 9 103
21 86 48 -13 19 -25 19 -127 7 l-69 -7 8 107 c6 96 9 110 32 132 25 25 25 26
7 39 -10 8 -26 14 -34 14 -10 0 -28 28 -49 74 -77 171 -239 328 -453 440 -48
26 -60 38 -89 94 -93 179 -322 539 -425 667 -22 28 -48 61 -58 75 -173 241
-274 375 -329 434 -50 55 -65 66 -91 66 -18 0 -37 -4 -43 -8z m696 -1565 c81
-35 126 -80 192 -191 17 -30 48 -122 48 -145 0 -79 -52 -159 -109 -167 -18 -3
-43 -9 -54 -13 -41 -15 -131 26 -206 95 -72 66 -107 137 -116 230 -9 92 4 133
58 179 37 32 47 36 92 34 27 -1 70 -11 95 -22z m-634 -407 c71 -35 145 -109
182 -184 43 -86 48 -119 28 -186 -18 -61 -54 -98 -120 -125 -23 -9 -47 -20
-55 -24 -9 -4 -39 4 -73 21 -32 15 -62 28 -66 28 -20 0 -139 106 -169 150 -57
85 -66 132 -43 220 13 47 75 107 125 119 57 14 138 6 191 -19z"/>
<path d="M2383 8003 c-98 -12 -98 -160 -1 -287 70 -90 127 -126 205 -126 24 0
42 9 68 35 30 30 35 43 35 80 0 154 -165 314 -307 298z"/>
<path d="M1715 7593 c-16 -8 -42 -27 -57 -41 -24 -22 -28 -34 -28 -78 0 -31 6
-58 14 -66 7 -8 17 -25 21 -38 13 -46 55 -97 108 -131 105 -69 111 -70 177
-35 77 41 101 126 60 220 -49 116 -215 211 -295 169z"/>
</g>
</svg>
