<?xml version="1.0" standalone="no"?>
<!DOCTYPE svg PUBLIC "-//W3C//DTD SVG 20010904//EN"
 "http://www.w3.org/TR/2001/REC-SVG-20010904/DTD/svg10.dtd">
<svg version="1.0" xmlns="http://www.w3.org/2000/svg"
 width="704.000000pt" height="1280.000000pt" viewBox="0 0 704.000000 1280.000000"
 preserveAspectRatio="xMidYMid meet">
<metadata>
Created by potrace 1.16, written by Peter Selinger 2001-2019
</metadata>
<g transform="translate(0.000000,1280.000000) scale(0.100000,-0.100000)"
fill="#000000" stroke="none">
<path d="M1767 8968 c-12 -27 -16 -114 -22 -473 -4 -242 -8 -451 -9 -464 -1
-19 -10 -26 -44 -36 -23 -7 -54 -20 -67 -29 -38 -25 -68 -19 -116 22 -24 21
-75 60 -114 87 -38 27 -91 66 -116 87 -25 21 -50 38 -57 38 -6 0 -27 14 -46
30 -18 17 -50 37 -70 45 -19 8 -43 26 -51 39 -8 12 -28 28 -43 35 -38 17 -132
83 -132 92 0 5 -19 17 -42 27 -24 11 -80 51 -124 90 -131 113 -194 136 -234
85 -23 -30 -23 -53 0 -143 6 -25 15 -65 20 -90 4 -25 17 -66 28 -90 11 -25 51
-139 88 -255 37 -115 80 -238 95 -272 23 -53 32 -80 45 -138 1 -5 25 -70 53
-144 28 -74 51 -139 51 -145 0 -5 10 -29 21 -54 21 -43 22 -72 4 -157 -4 -16
-7 -104 -8 -195 -1 -140 3 -179 22 -260 13 -52 27 -114 32 -138 5 -23 24 -73
44 -110 33 -63 34 -68 17 -84 -9 -9 -48 -24 -87 -34 -120 -29 -142 -43 -114
-71 6 -6 23 -8 42 -3 68 17 183 49 198 55 12 4 20 -3 29 -24 7 -17 27 -39 46
-50 19 -11 34 -24 34 -29 0 -16 -72 -75 -167 -140 -35 -23 -67 -51 -73 -62
-11 -21 -6 -40 11 -40 14 0 241 150 255 168 16 22 71 23 98 1 13 -11 30 -19
38 -19 7 0 26 -7 43 -16 16 -8 48 -18 70 -21 22 -3 47 -9 55 -13 36 -18 192
-32 305 -27 118 5 142 8 239 28 65 13 75 5 186 -146 72 -97 143 -219 165 -280
7 -22 26 -71 40 -110 40 -106 55 -230 55 -464 0 -192 -12 -337 -40 -496 -6
-33 -17 -103 -24 -155 -7 -53 -18 -104 -23 -115 -6 -11 -16 -38 -23 -60 -17
-54 -27 -65 -60 -65 -93 0 -225 -132 -205 -203 15 -52 30 -75 62 -96 33 -21
42 -22 215 -19 l180 3 30 35 c32 39 58 86 58 107 0 7 11 35 24 61 12 26 27 58
32 71 9 22 12 20 62 -48 29 -40 50 -76 47 -80 -2 -5 -17 -12 -32 -16 -40 -10
-90 -50 -120 -98 -22 -34 -25 -48 -20 -93 8 -82 27 -95 166 -110 303 -34 376
-37 871 -30 986 13 1141 8 1248 -40 46 -21 102 -73 102 -94 0 -16 -17 -19
-187 -26 -104 -4 -339 -8 -523 -9 -380 -2 -614 -16 -712 -43 -37 -10 -71 -21
-74 -25 -4 -4 -16 -7 -26 -7 -47 0 -196 -81 -252 -136 -51 -51 -89 -147 -94
-239 -3 -63 -1 -85 11 -96 8 -8 18 -25 21 -37 12 -36 52 -77 95 -97 37 -16 48
-17 99 -6 71 16 119 46 168 108 76 95 138 152 188 175 44 19 72 23 207 26 146
4 188 0 344 -28 33 -6 116 -17 185 -25 231 -26 527 -74 625 -101 47 -13 180
-26 285 -28 125 -2 303 53 384 118 90 74 143 210 124 317 -18 101 -114 244
-213 319 -50 38 -92 66 -124 82 -45 23 -233 88 -255 88 -9 0 -16 5 -16 10 0 6
-13 10 -30 10 -16 0 -30 5 -30 10 0 6 -15 10 -34 10 -19 0 -37 4 -40 9 -3 5
-27 12 -53 16 -65 9 -76 20 -59 54 8 14 29 40 46 56 35 32 106 137 132 195 56
121 89 218 98 282 6 40 15 92 21 116 14 64 11 315 -6 412 -47 287 -96 411
-261 660 -86 130 -101 150 -298 371 -154 174 -190 210 -317 328 -118 108 -449
361 -473 361 -6 0 -220 128 -276 165 -65 42 -364 218 -448 262 -45 24 -98 54
-116 66 -19 12 -48 30 -65 39 -32 18 -35 22 -71 123 -38 104 -63 149 -111 200
-94 100 -107 118 -195 293 -104 203 -257 435 -349 526 -34 33 -73 77 -86 96
-13 19 -44 60 -70 90 -26 30 -93 108 -148 173 -115 135 -121 142 -169 180 -47
37 -76 35 -95 -5z m328 -1721 c46 -25 125 -135 125 -173 0 -14 7 -41 15 -60 8
-20 12 -47 9 -61 -5 -17 -1 -28 12 -38 11 -7 17 -15 14 -17 -20 -17 -103 -59
-107 -55 -2 3 3 19 11 36 36 69 7 198 -59 264 -42 41 -68 44 -110 10 -60 -47
-76 -82 -82 -181 l-6 -88 34 -38 c18 -21 43 -42 56 -47 33 -12 28 -34 -10 -46
-44 -13 -89 8 -131 60 -29 37 -31 43 -34 148 -4 96 -2 113 17 150 42 79 80
117 140 138 69 23 59 23 106 -2z m-624 -299 c27 -52 24 -63 -8 -33 -15 14 -37
25 -49 25 -26 0 -66 -39 -97 -95 -34 -61 -39 -90 -27 -152 15 -70 71 -133 118
-133 18 0 32 4 32 9 0 5 11 11 25 14 17 3 24 0 22 -7 -3 -6 -10 -10 -17 -8 -7
2 -23 -7 -36 -19 -31 -29 -81 -21 -137 23 -57 45 -72 64 -92 121 -21 57 -16
167 9 214 24 44 72 93 92 93 11 1 30 7 44 14 22 12 29 12 63 -7 22 -13 47 -38
58 -59z m1315 -62 c12 -13 12 -17 -2 -30 -8 -9 -19 -14 -23 -11 -5 2 -57 -20
-117 -50 -116 -58 -130 -62 -137 -42 -5 16 13 57 27 57 6 1 54 21 106 45 103
48 124 53 146 31z m123 -280 c6 -7 9 -20 5 -29 -4 -12 -25 -15 -112 -14 -59 1
-141 0 -182 -3 l-75 -5 -2 27 c-2 26 1 27 50 31 146 10 305 7 316 -7z"/>
</g>
</svg>
