<?xml version="1.0" standalone="no"?>
<!DOCTYPE svg PUBLIC "-//W3C//DTD SVG 20010904//EN"
 "http://www.w3.org/TR/2001/REC-SVG-20010904/DTD/svg10.dtd">
<svg version="1.0" xmlns="http://www.w3.org/2000/svg"
 width="704.000000pt" height="1280.000000pt" viewBox="0 0 704.000000 1280.000000"
 preserveAspectRatio="xMidYMid meet">
<metadata>
Created by potrace 1.16, written by Peter Selinger 2001-2019
</metadata>
<g transform="translate(0.000000,1280.000000) scale(0.100000,-0.100000)"
fill="#000000" stroke="none">
<path d="M2023 9391 c-23 -21 -29 -51 -38 -176 -16 -206 -25 -289 -43 -405
-11 -69 -23 -152 -26 -185 -26 -242 -31 -257 -91 -268 -16 -3 -48 -12 -70 -20
l-40 -15 -90 135 c-49 74 -101 154 -114 177 -13 22 -53 83 -88 134 -34 51 -63
98 -63 104 0 6 -18 34 -40 62 -21 29 -51 77 -64 107 -14 30 -48 78 -75 107
-41 44 -55 52 -85 52 -49 0 -66 -30 -78 -133 -12 -111 -11 -987 1 -1160 10
-137 10 -139 -13 -176 -96 -151 -161 -342 -186 -541 -7 -52 -16 -100 -21 -106
-5 -7 -46 -17 -90 -24 -73 -11 -80 -15 -77 -34 3 -19 10 -21 94 -24 l91 -3 7
-45 c3 -24 13 -58 22 -75 8 -17 13 -33 10 -36 -3 -3 -42 -24 -88 -47 -87 -43
-111 -67 -91 -87 13 -13 13 -13 150 45 l61 26 74 -73 c74 -72 162 -125 263
-157 22 -7 54 -19 72 -27 41 -17 154 -42 266 -57 15 -2 48 -9 75 -14 26 -6 75
-14 109 -17 95 -9 153 -40 218 -115 32 -36 64 -76 73 -90 9 -14 34 -47 54 -73
21 -27 38 -53 38 -58 0 -10 98 -157 126 -189 27 -32 165 -404 181 -489 24
-126 24 -596 1 -741 -9 -58 -24 -157 -33 -220 -9 -63 -23 -128 -31 -144 -8
-16 -14 -35 -14 -43 0 -8 -9 -32 -20 -53 -17 -33 -26 -40 -50 -40 -29 0 -99
-28 -131 -53 -39 -31 -69 -92 -69 -142 0 -45 4 -55 36 -86 30 -29 43 -35 97
-39 34 -3 119 -3 189 0 l126 5 31 35 c16 19 38 53 47 75 9 22 32 73 52 113
l36 73 14 -28 c8 -15 30 -47 48 -70 19 -23 34 -46 34 -52 0 -6 -17 -15 -39
-21 -113 -30 -176 -161 -118 -247 12 -18 31 -35 42 -38 59 -12 187 -26 320
-35 197 -13 984 -12 1100 1 124 15 670 -3 737 -25 88 -28 188 -101 173 -126
-7 -11 -332 -23 -725 -25 -472 -3 -582 -13 -800 -72 -98 -27 -221 -95 -263
-146 -54 -67 -85 -151 -86 -234 -1 -111 61 -210 145 -233 40 -11 53 -11 102 5
73 23 110 48 152 103 67 88 154 169 195 182 65 21 382 25 463 7 70 -16 163
-31 297 -48 44 -5 91 -11 105 -13 14 -3 68 -9 120 -15 52 -7 172 -27 265 -46
94 -19 203 -37 244 -39 40 -3 88 -8 107 -12 48 -9 226 24 305 57 94 38 163 99
198 174 58 122 57 206 -1 320 -32 61 -128 171 -198 225 -68 53 -185 105 -340
151 -41 12 -115 34 -165 50 -49 15 -100 30 -112 34 -22 6 -22 8 -8 34 8 16 36
47 62 69 40 33 61 65 120 184 105 207 133 334 133 592 0 319 -89 602 -278 881
-173 255 -556 665 -786 840 -204 156 -498 365 -791 563 -71 48 -180 122 -241
164 -61 41 -117 77 -124 80 -14 4 -23 60 -40 243 -7 70 -22 149 -35 190 -63
188 -117 330 -162 425 -28 58 -63 134 -78 170 -43 99 -203 377 -230 400 -28
23 -308 408 -355 486 -30 50 -90 118 -119 133 -28 16 -44 14 -68 -8z m67
-1526 c17 -16 30 -33 30 -37 0 -5 10 -28 21 -51 32 -61 38 -233 13 -314 -10
-32 -24 -64 -32 -72 -7 -8 -17 -24 -22 -36 -11 -30 -97 -85 -132 -85 -94 0
-182 113 -195 252 -14 153 38 287 134 348 40 25 55 29 100 27 42 -3 59 -9 83
-32z m-690 -203 c48 -72 81 -182 81 -270 0 -122 -66 -230 -155 -257 -59 -18
-79 -9 -128 55 -67 87 -101 264 -70 366 28 95 116 167 197 162 36 -3 43 -8 75
-56z m1280 -271 c0 -15 -14 -22 -67 -36 -38 -9 -98 -26 -134 -37 -72 -23 -99
-20 -99 11 0 23 12 28 89 37 34 3 61 10 61 14 0 14 52 28 103 29 40 1 47 -2
47 -18z m-60 -251 c96 -13 133 -28 138 -54 7 -33 -12 -38 -64 -18 -27 11 -103
25 -169 32 -66 6 -123 14 -128 17 -4 2 -2 14 4 25 12 23 37 22 219 -2z"/>
<path d="M1988 7847 c-80 -36 -103 -89 -102 -232 1 -96 4 -115 25 -154 52 -95
119 -110 181 -41 38 43 47 74 52 179 4 96 -38 217 -86 245 -30 18 -34 18 -70
3z"/>
<path d="M1288 7663 c-44 -53 -50 -75 -52 -172 0 -53 2 -111 7 -129 10 -45 51
-108 83 -129 25 -16 28 -16 63 3 50 27 65 64 65 159 1 90 -16 160 -52 223 -36
62 -83 81 -114 45z"/>
</g>
</svg>
