<?xml version="1.0" standalone="no"?>
<!DOCTYPE svg PUBLIC "-//W3C//DTD SVG 20010904//EN"
 "http://www.w3.org/TR/2001/REC-SVG-20010904/DTD/svg10.dtd">
<svg version="1.0" xmlns="http://www.w3.org/2000/svg"
 width="704.000000pt" height="1280.000000pt" viewBox="0 0 704.000000 1280.000000"
 preserveAspectRatio="xMidYMid meet">
<metadata>
Created by potrace 1.16, written by Peter Selinger 2001-2019
</metadata>
<g transform="translate(0.000000,1280.000000) scale(0.100000,-0.100000)"
fill="#000000" stroke="none">
<path d="M2342 9398 c-12 -24 -40 -115 -63 -203 -22 -88 -54 -197 -70 -243
-16 -46 -42 -133 -58 -195 -17 -62 -37 -139 -46 -172 -19 -73 -45 -126 -65
-136 -8 -4 -37 -11 -65 -17 -27 -6 -78 -18 -112 -27 -75 -21 -81 -17 -107 57
-11 29 -25 62 -32 73 -7 11 -28 61 -47 110 -20 50 -54 130 -76 178 -23 49 -41
94 -41 100 0 7 -18 48 -40 91 -22 43 -40 85 -40 93 0 17 -64 141 -87 169 -33
40 -58 46 -87 23 -42 -33 -59 -87 -96 -294 -6 -33 -13 -71 -15 -85 -3 -14 -12
-77 -20 -140 -8 -63 -21 -153 -29 -200 -15 -81 -21 -130 -31 -230 -2 -25 -11
-92 -19 -150 -8 -58 -18 -159 -21 -225 -6 -92 -11 -125 -24 -140 -57 -66 -153
-255 -187 -367 -20 -64 -36 -78 -92 -78 -26 0 -54 -5 -62 -10 -24 -15 10 -41
62 -47 l44 -5 -3 -97 c-2 -106 4 -97 -86 -135 -27 -11 -37 -22 -35 -34 4 -18
24 -20 94 -7 39 7 41 6 47 -21 7 -34 72 -136 116 -181 69 -73 245 -171 397
-222 49 -16 166 -50 259 -76 94 -26 188 -58 210 -72 74 -47 172 -162 288 -338
47 -71 105 -157 128 -190 43 -60 95 -177 139 -310 12 -38 27 -75 32 -81 10
-14 36 -149 48 -254 17 -144 12 -454 -10 -598 -11 -72 -28 -191 -39 -263 -11
-73 -25 -137 -30 -142 -6 -6 -11 -19 -11 -29 0 -10 -11 -36 -25 -57 -20 -32
-32 -40 -67 -46 -39 -7 -109 -43 -133 -69 -72 -79 -53 -212 36 -236 38 -11
122 -14 266 -12 129 3 142 16 224 220 29 72 49 102 49 73 0 -6 20 -39 45 -75
25 -37 45 -68 45 -70 0 -2 -12 -6 -27 -9 -50 -10 -114 -61 -140 -112 -30 -59
-25 -108 16 -152 29 -32 16 -30 261 -53 131 -13 1109 -23 1170 -13 25 5 198 5
385 2 352 -7 367 -9 455 -54 45 -23 90 -66 90 -85 0 -24 -27 -28 -215 -30 -88
-1 -194 -2 -235 -3 -41 0 -187 0 -325 2 -168 2 -259 0 -278 -8 -16 -6 -78 -11
-139 -11 -94 0 -131 -5 -247 -35 -75 -20 -164 -50 -198 -66 -72 -36 -171 -117
-172 -141 -1 -9 -6 -20 -11 -23 -21 -13 -41 -81 -46 -160 -5 -72 -3 -86 20
-131 48 -96 110 -130 203 -113 91 17 125 41 205 144 63 82 94 110 153 136 45
21 69 24 227 27 119 2 196 -1 235 -9 32 -7 69 -14 83 -14 14 -1 75 -9 135 -18
61 -9 126 -18 145 -20 19 -3 64 -10 100 -16 36 -6 97 -16 135 -22 63 -10 246
-44 379 -71 28 -5 61 -7 75 -5 14 3 46 1 71 -4 30 -6 68 -6 115 2 39 6 88 13
110 16 22 2 54 10 70 18 17 7 51 23 78 34 98 43 159 123 192 250 20 80 9 148
-40 236 -34 60 -123 161 -190 213 -64 50 -192 107 -345 153 -163 48 -290 91
-290 97 0 18 41 71 58 76 32 11 103 124 159 256 87 204 102 284 103 525 0 485
-174 842 -650 1337 -36 37 -94 100 -130 138 -75 82 -217 207 -345 304 -49 38
-103 81 -120 96 -16 15 -39 30 -49 34 -19 7 -92 56 -236 161 -181 132 -222
161 -315 225 -137 95 -158 109 -219 155 -29 22 -74 55 -100 73 l-47 32 3 143
c2 132 0 154 -35 312 -21 94 -46 199 -57 235 -11 36 -20 69 -20 74 0 9 -10 45
-77 266 -38 128 -98 269 -160 378 -30 53 -93 176 -140 272 -190 393 -188 390
-244 390 -21 0 -30 -9 -47 -42z m-212 -1397 c0 -6 -9 -16 -20 -24 -85 -59 -94
-339 -14 -444 21 -27 32 -33 64 -33 32 0 43 6 70 38 46 56 63 120 64 251 1 74
6 116 13 118 15 5 27 -109 21 -200 -9 -122 -79 -257 -155 -296 -30 -15 -99
-14 -131 3 -76 40 -114 123 -116 255 -1 85 2 104 28 166 16 39 40 85 54 103
34 45 122 90 122 63z m-690 -80 c0 -6 -5 -13 -10 -16 -22 -14 -51 -89 -59
-154 -13 -100 1 -203 33 -251 24 -37 30 -40 70 -40 54 0 79 26 101 104 19 69
28 193 13 198 -7 3 -8 13 -3 28 8 24 9 24 17 -10 25 -104 26 -135 8 -206 -32
-132 -99 -209 -189 -221 -64 -9 -95 10 -124 75 -38 85 -50 171 -38 270 18 143
77 225 169 231 6 1 12 -3 12 -8z m1370 -466 c21 -26 -1 -37 -91 -46 -45 -4
-103 -13 -129 -20 -58 -15 -83 -7 -78 23 3 25 20 30 143 46 111 14 141 13 155
-3z m-200 -225 c222 -52 272 -76 240 -115 -10 -13 -17 -13 -48 1 -75 32 -186
61 -256 67 -33 2 -52 26 -42 52 7 18 6 18 106 -5z"/>
</g>
</svg>
