<?xml version="1.0" standalone="no"?>
<!DOCTYPE svg PUBLIC "-//W3C//DTD SVG 20010904//EN"
 "http://www.w3.org/TR/2001/REC-SVG-20010904/DTD/svg10.dtd">
<svg version="1.0" xmlns="http://www.w3.org/2000/svg"
 width="704.000000pt" height="1280.000000pt" viewBox="0 0 704.000000 1280.000000"
 preserveAspectRatio="xMidYMid meet">
<metadata>
Created by potrace 1.16, written by Peter Selinger 2001-2019
</metadata>
<g transform="translate(0.000000,1280.000000) scale(0.100000,-0.100000)"
fill="#000000" stroke="none">
<path d="M3456 9880 c-61 -19 -159 -76 -193 -114 -60 -66 -83 -129 -85 -237
-2 -83 1 -102 25 -160 16 -36 41 -79 58 -94 16 -16 29 -34 29 -39 0 -8 -41
-10 -126 -7 -139 3 -199 -7 -257 -45 -28 -18 -37 -31 -35 -47 7 -50 107 -74
330 -79 125 -3 138 -1 165 18 35 26 40 49 16 76 -18 21 -18 21 12 14 17 -4 43
-14 59 -22 42 -20 215 -19 264 2 28 13 63 16 141 15 57 -1 124 2 150 8 25 6
99 23 164 37 115 26 118 28 115 53 -4 32 -42 40 -85 18 -57 -29 -363 -79 -363
-59 0 2 20 29 44 60 68 88 87 134 87 207 0 155 -33 226 -146 318 -95 76 -126
87 -241 86 -54 0 -112 -5 -128 -9z m-161 -730 c42 -35 -2 -42 -176 -30 -77 6
-146 13 -152 17 -7 4 1 12 18 20 39 18 287 12 310 -7z"/>
<path d="M1207 9313 c-22 -25 -22 -93 -1 -170 9 -32 22 -83 30 -113 41 -171
66 -268 75 -295 6 -16 19 -64 30 -106 10 -42 26 -94 35 -115 9 -22 22 -70 29
-109 15 -82 50 -218 59 -234 11 -16 -11 -49 -44 -66 -30 -16 -30 -16 -253 118
-122 74 -242 145 -267 157 -25 12 -88 48 -140 79 -147 89 -276 151 -310 151
-25 0 -33 -6 -47 -35 -17 -35 -17 -35 56 -258 40 -122 79 -242 86 -267 8 -25
25 -85 40 -135 14 -49 33 -110 41 -135 8 -25 14 -53 14 -63 0 -10 9 -37 19
-60 11 -23 31 -75 45 -116 14 -40 30 -79 35 -85 5 -6 39 -69 75 -139 68 -133
133 -250 166 -302 11 -16 24 -39 29 -50 18 -40 135 -186 190 -238 50 -46 69
-56 152 -81 52 -16 113 -34 135 -42 23 -7 66 -16 95 -20 30 -4 60 -12 68 -18
11 -8 16 -7 25 7 6 11 49 76 96 145 61 92 91 127 105 127 32 0 29 -31 -7 -81
-94 -133 -108 -154 -108 -161 0 -5 -9 -19 -20 -33 -19 -25 -12 -50 15 -50 25
0 187 -158 258 -251 52 -68 119 -167 165 -244 23 -38 57 -87 75 -109 19 -22
39 -60 47 -88 6 -27 33 -100 58 -161 25 -62 51 -139 58 -172 7 -33 18 -78 24
-100 6 -22 14 -150 17 -285 4 -197 2 -264 -10 -345 -9 -55 -21 -138 -27 -185
-17 -146 -38 -252 -63 -325 l-23 -70 -47 -9 c-26 -5 -47 -13 -47 -18 0 -4 -9
-8 -20 -8 -12 0 -33 -8 -48 -18 -105 -68 -117 -181 -26 -245 40 -28 43 -28
195 -31 85 -2 165 0 179 4 32 8 86 87 135 201 22 49 42 89 46 89 4 0 18 -19
32 -42 14 -24 37 -54 51 -67 26 -24 26 -41 0 -41 -8 0 -35 -10 -60 -21 -76
-36 -123 -132 -101 -206 14 -45 54 -70 121 -77 28 -3 98 -11 156 -18 76 -9
354 -12 995 -13 887 0 890 0 952 -22 33 -12 72 -27 85 -33 37 -20 78 -62 78
-82 0 -15 -9 -18 -47 -20 -27 0 -61 -2 -78 -4 -16 -2 -203 -3 -415 -4 -212 0
-439 -5 -505 -10 -66 -6 -159 -12 -206 -14 -79 -3 -212 -28 -249 -46 -9 -4
-31 -11 -50 -15 -64 -14 -168 -74 -231 -135 -51 -49 -88 -153 -90 -252 -1 -54
3 -73 25 -111 56 -94 95 -114 206 -104 70 6 132 44 173 105 39 59 119 137 164
160 69 36 176 51 313 46 69 -3 145 -9 170 -14 104 -21 292 -50 520 -80 47 -6
155 -25 240 -42 188 -38 384 -60 465 -52 105 10 175 24 208 43 17 11 43 22 57
26 37 11 129 94 150 134 35 70 58 164 53 216 -7 60 -63 189 -101 228 -54 58
-179 155 -237 185 -62 32 -249 103 -320 121 -94 24 -204 57 -210 63 -9 9 13
41 73 106 95 102 212 372 228 527 3 28 9 82 14 121 13 98 -9 410 -30 439 -4 6
-11 30 -15 55 -10 63 -47 172 -86 255 -120 254 -292 472 -700 885 -126 127
-153 152 -224 205 -22 17 -46 35 -55 42 -96 77 -172 133 -205 152 -41 23 -183
124 -368 261 -56 41 -154 110 -217 153 -275 187 -297 207 -270 255 22 40 43
155 49 267 l6 119 75 28 c124 45 170 70 170 90 0 28 -55 23 -141 -13 -41 -17
-84 -35 -97 -40 -21 -8 -25 -4 -47 46 -42 95 -43 92 35 174 39 40 69 78 67 84
-2 6 -11 15 -20 21 -14 9 -29 -1 -85 -57 -63 -62 -92 -81 -92 -57 0 15 -133
122 -208 167 -39 23 -112 59 -164 81 -91 38 -130 50 -233 71 -27 6 -61 13 -75
16 -14 3 -79 57 -145 122 -107 103 -191 179 -345 308 -26 22 -137 112 -246
199 -109 88 -207 167 -217 177 -45 42 -156 110 -188 115 -26 4 -38 1 -52 -13z
m1263 -1150 c65 -35 136 -101 161 -151 7 -15 21 -38 30 -53 22 -31 35 -139 21
-165 -18 -35 -101 -69 -160 -68 -49 2 -70 7 -124 35 -10 5 -24 9 -32 9 -8 0
-40 25 -71 55 -102 100 -143 237 -92 312 26 38 33 42 112 57 69 14 68 14 155
-31z m-575 -447 c78 -36 149 -99 180 -161 11 -22 26 -47 33 -56 7 -10 15 -39
17 -65 6 -66 -22 -124 -76 -163 -35 -26 -51 -31 -98 -31 -31 0 -69 7 -85 15
-15 8 -36 15 -45 15 -28 0 -123 63 -174 115 -78 80 -106 154 -87 226 35 127
183 174 335 105z m-121 -753 c7 -16 -19 -53 -36 -53 -11 0 -126 -69 -177 -105
-35 -26 -61 -21 -61 11 0 17 239 174 256 167 7 -2 15 -12 18 -20z"/>
<path d="M2283 8153 c-12 -2 -34 -18 -49 -36 -22 -27 -25 -37 -20 -74 10 -72
99 -190 187 -246 83 -53 198 -11 201 74 3 78 -114 229 -207 269 -45 19 -66 22
-112 13z"/>
<path d="M1659 7677 c-18 -12 -40 -34 -48 -48 -13 -24 -12 -31 12 -81 26 -53
51 -82 134 -158 53 -50 82 -66 129 -74 45 -8 79 2 112 33 33 33 32 124 -4 177
-98 147 -244 213 -335 151z"/>
</g>
</svg>
