<?xml version="1.0" standalone="no"?>
<!DOCTYPE svg PUBLIC "-//W3C//DTD SVG 20010904//EN"
 "http://www.w3.org/TR/2001/REC-SVG-20010904/DTD/svg10.dtd">
<svg version="1.0" xmlns="http://www.w3.org/2000/svg"
 width="704.000000pt" height="1280.000000pt" viewBox="0 0 704.000000 1280.000000"
 preserveAspectRatio="xMidYMid meet">
<metadata>
Created by potrace 1.16, written by Peter Selinger 2001-2019
</metadata>
<g transform="translate(0.000000,1280.000000) scale(0.100000,-0.100000)"
fill="#000000" stroke="none">
<path d="M1166 9284 c-9 -8 -16 -28 -16 -44 0 -37 34 -180 59 -248 11 -30 25
-79 31 -110 6 -32 22 -93 35 -137 65 -225 85 -294 95 -335 6 -25 27 -95 47
-157 40 -123 39 -129 -19 -159 -33 -17 -27 -20 -248 111 -202 119 -233 137
-325 188 -290 160 -329 179 -380 184 -87 10 -83 -32 30 -372 26 -77 60 -174
75 -215 15 -41 39 -115 53 -165 48 -171 88 -271 192 -480 146 -296 355 -602
445 -653 46 -26 201 -81 265 -94 75 -15 215 -60 215 -69 0 -4 17 -13 38 -20
64 -20 131 -80 218 -194 45 -60 94 -124 107 -140 14 -17 42 -60 63 -95 20 -36
57 -90 80 -120 70 -90 186 -399 210 -560 21 -146 30 -509 15 -619 -60 -424
-97 -583 -140 -595 -109 -28 -118 -33 -167 -81 -39 -39 -52 -60 -57 -92 -14
-83 33 -136 133 -150 95 -15 299 -3 332 19 24 16 85 129 132 242 l16 39 51
-78 c27 -42 49 -78 47 -79 -2 -1 -23 -9 -47 -16 -24 -8 -54 -23 -67 -33 -36
-28 -64 -90 -64 -142 0 -37 6 -51 33 -80 l32 -34 165 -17 c141 -15 293 -17
1055 -18 l890 -1 73 -32 c111 -48 166 -97 132 -118 -8 -5 -369 -20 -480 -19
-25 0 -148 1 -275 2 -126 1 -243 0 -260 -3 -16 -4 -93 -10 -170 -14 -128 -8
-256 -29 -296 -51 -9 -5 -37 -11 -63 -15 -25 -4 -46 -11 -46 -15 0 -4 -17 -15
-37 -23 -21 -9 -63 -33 -93 -54 -44 -31 -63 -54 -94 -113 -36 -67 -40 -84 -44
-161 -4 -79 -2 -90 22 -131 54 -93 116 -125 204 -108 79 16 134 51 178 112 85
120 146 167 241 188 46 11 321 14 373 5 93 -16 158 -27 250 -40 58 -8 134 -20
170 -26 36 -6 101 -15 145 -20 73 -8 284 -47 380 -69 22 -6 74 -12 115 -14 41
-2 101 -8 132 -12 42 -5 70 -2 107 10 27 9 67 16 88 16 21 0 56 10 79 24 22
13 52 26 66 29 37 10 122 96 147 150 40 83 51 142 40 210 -13 82 -58 162 -132
239 -141 145 -195 172 -602 297 -55 17 -105 31 -112 31 -19 0 -25 18 -13 39 5
11 34 44 63 73 79 79 162 249 214 438 25 89 26 109 27 315 0 192 -2 233 -22
321 -38 174 -107 357 -174 459 -131 203 -207 306 -268 365 -3 3 -27 32 -54 65
-52 64 -124 140 -307 324 -110 110 -237 219 -364 311 -33 24 -62 47 -65 51 -3
4 -28 20 -57 37 -28 17 -101 67 -162 111 -61 45 -113 81 -115 81 -3 0 -58 40
-123 88 -65 49 -147 108 -183 132 -123 83 -285 202 -292 215 -5 7 -1 30 8 50
35 84 54 189 54 301 l0 111 33 16 c17 9 77 36 132 60 99 43 116 60 83 80 -16
10 -84 -13 -235 -79 l-31 -13 -36 72 -36 71 81 82 c55 55 80 87 77 100 -7 37
-36 24 -112 -51 -41 -41 -79 -75 -84 -75 -4 0 -23 16 -42 35 -100 103 -345
228 -505 258 -49 9 -111 19 -137 22 -42 5 -57 15 -135 88 -49 45 -124 114
-168 152 -44 39 -82 72 -85 75 -26 26 -353 283 -595 467 -136 103 -205 131
-239 97z m1288 -1073 c21 -12 48 -20 60 -18 26 4 126 -96 151 -152 9 -20 22
-47 28 -60 15 -30 13 -95 -4 -145 -19 -54 -57 -74 -140 -75 -114 -2 -229 53
-305 145 -49 60 -70 136 -60 220 9 80 38 107 120 114 70 6 96 1 150 -29z
m-592 -446 c56 -7 146 -63 201 -124 120 -133 101 -304 -39 -357 -122 -47 -295
31 -413 187 -50 65 -40 200 18 237 14 10 36 27 49 39 33 30 60 33 184 18z
m-57 -780 c0 -25 -7 -33 -50 -55 -28 -14 -79 -44 -114 -67 -66 -44 -85 -51
-96 -32 -9 13 28 53 75 82 19 12 62 41 94 65 68 49 91 51 91 7z m133 -131 c2
-12 -21 -50 -58 -97 -33 -42 -76 -106 -96 -142 -20 -36 -40 -65 -44 -65 -22 0
-40 14 -40 31 0 17 145 229 190 277 25 26 44 25 48 -4z"/>
<path d="M2261 8186 c-19 -20 -26 -40 -29 -85 -4 -53 -1 -63 30 -112 91 -142
218 -207 320 -164 97 40 79 187 -35 292 -68 63 -79 67 -227 89 -29 5 -39 1
-59 -20z"/>
<path d="M1770 7730 c-8 -5 -23 -10 -33 -10 -10 0 -29 -11 -42 -25 -21 -20
-25 -34 -25 -79 0 -30 5 -58 10 -61 6 -3 10 -14 10 -23 0 -23 129 -158 163
-171 16 -6 58 -11 95 -11 54 1 72 5 93 23 51 43 60 82 34 158 -15 44 -85 116
-156 161 -18 12 -125 50 -133 48 -1 0 -8 -5 -16 -10z"/>
</g>
</svg>
