<?xml version="1.0" standalone="no"?>
<!DOCTYPE svg PUBLIC "-//W3C//DTD SVG 20010904//EN"
 "http://www.w3.org/TR/2001/REC-SVG-20010904/DTD/svg10.dtd">
<svg version="1.0" xmlns="http://www.w3.org/2000/svg"
 width="704.000000pt" height="1280.000000pt" viewBox="0 0 704.000000 1280.000000"
 preserveAspectRatio="xMidYMid meet">
<metadata>
Created by potrace 1.16, written by Peter Selinger 2001-2019
</metadata>
<g transform="translate(0.000000,1280.000000) scale(0.100000,-0.100000)"
fill="#000000" stroke="none">
<path d="M2375 9410 c-17 -18 -31 -46 -35 -72 -11 -64 -67 -267 -110 -398 -21
-63 -48 -149 -60 -190 -36 -123 -70 -233 -81 -262 -12 -30 -26 -38 -89 -49
-25 -4 -76 -16 -113 -25 -46 -12 -73 -15 -83 -9 -15 10 -33 49 -139 305 -26
63 -55 133 -65 155 -10 22 -21 51 -25 65 -4 14 -19 47 -32 74 -14 27 -32 72
-40 100 -32 106 -89 200 -129 210 -34 9 -78 -30 -98 -88 -17 -48 -70 -324 -91
-481 -9 -60 -20 -126 -25 -145 -15 -53 -47 -300 -70 -532 l-21 -207 -53 -78
c-56 -82 -123 -215 -152 -303 -19 -58 -38 -70 -109 -70 -51 0 -60 -9 -39 -38
10 -15 27 -22 62 -24 41 -3 47 -6 43 -23 -2 -11 -6 -55 -8 -98 -4 -74 -6 -79
-31 -89 -74 -28 -92 -39 -92 -52 0 -20 24 -26 62 -15 56 16 62 12 100 -64 68
-130 127 -186 298 -283 65 -36 245 -108 310 -124 230 -56 340 -98 406 -157 70
-62 195 -227 298 -393 32 -52 71 -111 86 -130 15 -19 53 -105 85 -190 32 -85
62 -160 67 -166 5 -7 18 -63 29 -125 30 -164 38 -530 14 -684 -16 -104 -32
-213 -55 -370 -6 -38 -15 -74 -20 -79 -6 -6 -10 -19 -10 -29 0 -32 -42 -97
-63 -97 -18 0 -61 -16 -122 -46 -81 -41 -113 -163 -57 -222 41 -44 79 -52 252
-52 143 0 160 2 183 20 14 11 32 33 40 48 7 15 18 36 24 47 17 32 62 138 68
163 8 29 19 28 35 -5 8 -16 29 -49 47 -74 39 -56 40 -59 10 -59 -35 0 -118
-64 -139 -106 -10 -21 -18 -55 -18 -77 0 -47 33 -105 63 -112 127 -29 588 -46
1067 -40 529 6 948 5 1000 -1 106 -14 233 -74 260 -124 19 -35 20 -35 -455
-43 -38 0 -180 0 -315 1 -135 1 -272 -2 -305 -8 -33 -5 -96 -10 -140 -10 -80
0 -240 -30 -302 -56 -17 -8 -37 -14 -45 -14 -32 0 -172 -83 -218 -130 -9 -8
-31 -44 -49 -80 -29 -56 -35 -77 -38 -152 -5 -86 -4 -89 31 -147 47 -77 84
-95 176 -89 89 7 135 34 199 117 65 86 115 133 171 162 43 23 54 24 250 24
203 0 324 -9 346 -27 7 -5 65 -13 130 -19 66 -6 141 -17 168 -25 27 -8 68 -14
90 -14 49 0 139 -16 401 -70 28 -6 79 -12 115 -14 36 -3 84 -8 106 -11 72 -12
263 25 336 65 10 6 23 10 29 10 22 0 121 97 144 143 89 174 56 315 -113 483
-98 97 -178 143 -357 202 -126 42 -271 86 -318 98 -52 12 -47 30 35 114 87 90
194 320 227 490 77 399 -18 821 -266 1177 -88 126 -244 313 -348 418 -38 38
-108 112 -154 163 -75 82 -197 188 -412 357 -35 27 -122 89 -194 138 -150 101
-185 126 -315 223 -52 39 -130 94 -173 123 -43 29 -127 88 -185 132 -59 43
-115 84 -126 92 -17 12 -18 26 -17 162 1 83 -3 173 -9 200 -6 28 -19 100 -30
160 -11 61 -29 146 -41 190 -67 246 -138 476 -150 490 -5 5 -9 15 -9 23 0 8
-68 152 -151 321 -83 168 -157 322 -166 341 -57 127 -103 190 -140 190 -11 0
-32 -13 -48 -30z m-245 -1430 c0 -11 -6 -19 -12 -17 -18 3 -22 -59 -7 -108 6
-22 17 -57 24 -79 7 -21 31 -60 54 -87 33 -38 51 -50 82 -55 24 -4 39 -12 39
-21 0 -29 -59 -115 -103 -149 -81 -63 -160 -54 -219 26 -25 34 -48 123 -49
185 -1 131 79 305 141 305 11 0 20 5 20 10 0 6 7 10 15 10 8 0 15 -9 15 -20z
m-680 -65 c0 -5 -7 -19 -15 -29 -16 -22 -20 -72 -6 -80 4 -3 11 -26 14 -51 4
-25 16 -63 27 -84 24 -48 86 -101 118 -101 20 0 22 -4 16 -22 -10 -34 -59
-102 -94 -132 -41 -34 -98 -49 -137 -35 -23 8 -38 26 -64 77 -33 64 -34 70
-33 177 0 90 5 120 23 165 23 57 63 107 94 119 26 10 57 8 57 -4z m1376 -456
c13 -21 -18 -34 -109 -46 -51 -6 -103 -14 -117 -18 -67 -18 -77 -18 -83 6 -4
13 -2 28 4 34 9 10 169 31 256 34 23 0 45 -4 49 -10z m-262 -208 c56 -17 170
-50 219 -63 53 -14 83 -39 74 -63 -9 -22 -38 -19 -94 10 -26 14 -90 34 -142
44 -103 22 -133 39 -111 65 15 19 15 19 54 7z"/>
</g>
</svg>
