<?xml version="1.0" standalone="no"?>
<!DOCTYPE svg PUBLIC "-//W3C//DTD SVG 20010904//EN"
 "http://www.w3.org/TR/2001/REC-SVG-20010904/DTD/svg10.dtd">
<svg version="1.0" xmlns="http://www.w3.org/2000/svg"
 width="704.000000pt" height="1280.000000pt" viewBox="0 0 704.000000 1280.000000"
 preserveAspectRatio="xMidYMid meet">
<metadata>
Created by potrace 1.16, written by Peter Selinger 2001-2019
</metadata>
<g transform="translate(0.000000,1280.000000) scale(0.100000,-0.100000)"
fill="#000000" stroke="none">
<path d="M2595 8613 c-25 -13 -114 -115 -200 -231 -11 -15 -57 -65 -101 -112
-92 -96 -158 -170 -198 -222 -26 -35 -28 -36 -119 -43 -51 -4 -121 -14 -157
-22 -99 -22 -160 -27 -160 -14 0 6 -8 11 -17 11 -9 0 -33 5 -52 11 -37 12
-303 112 -356 135 -16 7 -95 33 -174 58 -80 26 -150 50 -155 55 -6 4 -27 11
-46 15 -52 10 -289 84 -335 105 -93 43 -193 65 -230 51 -36 -14 -41 -51 -16
-116 22 -59 288 -463 443 -675 30 -41 80 -112 111 -159 32 -47 67 -97 79 -112
l21 -27 -26 -98 c-36 -134 -44 -278 -23 -408 17 -104 51 -239 67 -265 5 -8 14
-26 19 -40 52 -127 163 -267 265 -335 94 -62 233 -117 359 -142 99 -20 356
-22 438 -4 44 9 61 9 75 0 16 -10 93 -106 118 -147 6 -9 19 -26 31 -37 28 -27
127 -237 166 -350 21 -62 30 -157 34 -396 4 -192 2 -270 -11 -360 -8 -63 -20
-145 -25 -184 -19 -136 -32 -201 -53 -265 -28 -88 -43 -110 -76 -110 -15 0
-31 -4 -37 -8 -5 -4 -27 -14 -49 -21 -46 -15 -80 -50 -105 -106 -25 -56 -16
-99 31 -146 l39 -39 164 0 c90 0 177 3 192 6 30 6 64 47 92 109 8 17 27 58 43
92 16 34 29 68 29 77 0 9 5 16 10 16 6 0 10 -4 10 -9 0 -5 20 -36 45 -70 25
-34 45 -65 45 -70 0 -5 -19 -14 -42 -20 -55 -14 -90 -45 -118 -104 -18 -37
-21 -58 -16 -93 11 -85 33 -93 307 -116 155 -13 897 -18 1334 -8 394 9 570 -6
660 -57 55 -30 102 -80 88 -94 -15 -15 -122 -19 -566 -19 -225 0 -438 -4 -475
-10 -37 -5 -118 -12 -179 -14 -125 -6 -319 -49 -409 -91 -53 -25 -139 -86
-161 -114 -38 -49 -72 -140 -78 -213 -6 -68 -5 -82 16 -125 50 -102 131 -144
228 -118 57 15 110 49 138 87 42 60 138 160 168 175 65 34 128 43 300 43 94 0
186 -4 205 -10 19 -5 50 -10 68 -10 18 0 41 -4 50 -9 9 -5 80 -16 157 -25 77
-9 165 -21 195 -26 56 -11 183 -32 300 -52 36 -5 85 -16 110 -23 103 -31 327
-36 440 -11 217 49 309 127 354 303 31 120 -21 251 -149 378 -88 87 -189 146
-325 191 -58 19 -113 39 -122 44 -10 6 -31 10 -48 10 -16 0 -30 5 -30 10 0 6
-9 10 -21 10 -11 0 -41 6 -67 14 -26 8 -60 17 -75 21 -24 5 -27 9 -21 28 4 12
33 50 65 85 87 93 209 354 234 502 14 79 17 380 6 461 -52 368 -171 601 -505
988 -298 345 -461 497 -731 682 -60 42 -117 79 -125 82 -8 4 -33 18 -55 32
-34 21 -112 68 -183 110 -10 6 -32 20 -49 33 -17 12 -33 22 -35 22 -3 0 -61
32 -129 71 -68 39 -203 114 -299 167 -96 53 -180 103 -187 111 -6 9 -17 34
-23 56 -23 80 -148 294 -202 348 -10 10 -20 28 -22 40 -13 62 -26 214 -26 298
0 52 -5 121 -10 154 -5 33 -12 116 -16 185 -7 165 -34 241 -83 239 -9 0 -29
-7 -46 -16z m-261 -1832 c3 -5 -1 -14 -9 -21 -8 -7 -15 -19 -15 -27 0 -17
-100 -119 -145 -148 -47 -31 -66 -40 -143 -69 -74 -28 -127 -31 -127 -7 0 15
4 17 85 52 66 29 230 137 268 177 41 44 75 61 86 43z m466 -167 c0 -16 -11
-25 -47 -39 -27 -10 -85 -36 -130 -58 -68 -34 -84 -39 -97 -28 -31 26 25 72
116 94 15 4 34 14 43 23 16 16 61 30 97 30 12 0 18 -8 18 -22z m-1216 -193
c10 -15 -28 -39 -89 -54 -85 -22 -247 -17 -275 8 -11 10 -17 21 -14 24 3 3 67
6 142 7 77 0 148 5 162 12 31 13 67 15 74 3z m1337 -77 c26 -32 -8 -39 -187
-39 -162 0 -169 1 -169 20 0 27 28 31 201 34 120 1 143 -1 155 -15z"/>
<path d="M1025 6233 c-92 -7 -216 -27 -221 -35 -3 -5 0 -16 7 -24 23 -28 291
-4 310 27 11 18 -9 39 -35 37 -11 -1 -39 -3 -61 -5z"/>
<path d="M1077 6021 c-154 -93 -167 -105 -146 -126 13 -13 20 -12 59 8 58 30
143 81 197 119 42 29 56 61 30 71 -7 3 -70 -30 -140 -72z"/>
</g>
</svg>
