<?xml version="1.0" standalone="no"?>
<!DOCTYPE svg PUBLIC "-//W3C//DTD SVG 20010904//EN"
 "http://www.w3.org/TR/2001/REC-SVG-20010904/DTD/svg10.dtd">
<svg version="1.0" xmlns="http://www.w3.org/2000/svg"
 width="704.000000pt" height="1280.000000pt" viewBox="0 0 704.000000 1280.000000"
 preserveAspectRatio="xMidYMid meet">
<metadata>
Created by potrace 1.16, written by Peter Selinger 2001-2019
</metadata>
<g transform="translate(0.000000,1280.000000) scale(0.100000,-0.100000)"
fill="#000000" stroke="none">
<path d="M1298 9370 c-34 -21 -40 -46 -28 -133 11 -82 17 -109 50 -222 10 -33
23 -91 29 -130 21 -122 43 -218 82 -365 11 -41 24 -100 29 -130 4 -30 14 -84
21 -120 20 -106 18 -121 -18 -142 l-31 -19 -114 77 c-62 43 -133 90 -158 104
-25 15 -106 65 -180 110 -74 45 -166 101 -205 125 -38 23 -97 60 -129 83 -64
45 -125 67 -157 57 -12 -4 -28 -23 -36 -42 -16 -39 -18 -29 58 -268 15 -49 35
-115 43 -145 8 -30 23 -86 34 -125 11 -38 34 -131 51 -205 56 -235 87 -320
212 -578 153 -317 210 -411 309 -512 79 -81 92 -90 190 -132 58 -24 132 -50
165 -57 33 -7 84 -21 112 -31 l53 -18 36 34 c19 19 38 34 42 34 4 0 18 17 32
38 70 106 113 143 126 108 7 -19 -9 -48 -65 -118 -107 -134 -109 -138 -59
-159 72 -30 242 -227 350 -404 23 -38 61 -95 85 -126 57 -76 176 -384 209
-540 41 -201 28 -644 -28 -929 -6 -30 -14 -77 -18 -105 -4 -27 -21 -86 -37
-130 -29 -79 -30 -80 -66 -83 -21 -2 -61 -15 -89 -30 -100 -52 -142 -144 -96
-212 37 -56 75 -68 230 -75 143 -7 194 1 228 34 24 23 70 105 70 124 0 9 13
38 30 64 16 26 30 55 30 65 0 30 13 20 53 -42 22 -32 46 -65 54 -71 12 -11 5
-18 -48 -43 -138 -67 -176 -205 -75 -271 65 -43 389 -52 1726 -47 308 1 341
-1 415 -20 117 -30 205 -87 192 -123 -5 -13 -31 -15 -155 -15 -82 0 -174 -5
-203 -11 -30 -7 -63 -11 -74 -10 -138 8 -496 14 -554 9 -42 -4 -139 -12 -216
-17 -92 -7 -171 -20 -230 -37 -49 -14 -106 -28 -125 -32 -53 -10 -151 -68
-201 -117 -24 -24 -57 -69 -74 -102 -24 -48 -30 -73 -33 -149 -3 -68 -1 -94
10 -105 8 -8 19 -28 26 -45 19 -46 85 -84 147 -84 101 0 169 37 230 126 44 63
145 151 183 160 15 3 39 10 54 16 40 15 275 11 412 -7 65 -8 121 -17 125 -20
4 -2 48 -9 97 -15 104 -12 339 -47 404 -60 25 -5 77 -14 115 -20 39 -6 97 -18
129 -26 73 -18 184 -29 291 -28 138 1 183 10 315 67 47 21 126 95 152 144 41
74 61 178 48 239 -19 84 -83 186 -158 251 -153 134 -179 146 -542 264 -36 11
-87 27 -114 34 -26 8 -50 16 -52 18 -9 9 23 55 76 108 52 53 87 112 143 239
115 264 131 537 53 905 -44 203 -201 492 -375 691 -20 22 -45 52 -56 66 -30
39 -302 335 -368 400 -31 31 -89 83 -128 115 -73 59 -92 74 -195 153 -33 25
-62 50 -67 57 -4 6 -35 28 -70 47 -34 20 -152 102 -262 182 -110 80 -245 175
-300 211 -54 37 -132 93 -173 125 -41 32 -87 65 -103 74 -24 12 -28 18 -20 33
19 35 52 167 61 245 5 44 15 85 22 91 14 13 161 68 218 82 28 7 35 14 35 33 0
23 -4 25 -42 23 -22 -1 -76 -15 -118 -32 -42 -17 -84 -31 -93 -31 -12 0 -24
21 -40 76 l-24 75 78 73 c70 65 77 75 65 90 -7 9 -19 16 -25 16 -6 0 -40 -28
-75 -62 l-64 -61 -26 31 c-14 16 -37 46 -51 66 -32 47 -168 140 -297 205 -94
47 -178 75 -291 97 -38 8 -66 32 -261 224 -208 205 -352 337 -506 466 -38 32
-72 61 -75 64 -20 23 -232 200 -260 217 -45 28 -81 35 -102 23z m1332 -1351
c-17 -80 -19 -86 -30 -69 -6 10 -10 7 -16 -16 -4 -16 -19 -47 -34 -69 -29 -42
-136 -145 -151 -145 -10 0 -32 40 -26 47 3 2 12 5 19 7 27 4 208 223 208 252
0 17 30 58 37 51 2 -2 -1 -28 -7 -58z m-500 -510 c0 -12 -47 -77 -70 -97 -28
-24 -95 -66 -151 -93 -31 -15 -61 -35 -69 -43 -7 -9 -24 -16 -39 -16 -15 0
-32 -5 -39 -12 -8 -8 -15 -8 -27 2 -16 13 -21 45 -6 36 5 -4 22 1 38 9 15 8
46 22 68 32 49 21 92 50 124 83 16 18 22 20 18 8 -4 -10 -3 -18 0 -18 15 0 73
65 73 81 0 10 12 22 28 27 36 14 52 14 52 1z m-340 -594 c17 -20 -20 -55 -101
-95 -35 -18 -78 -43 -95 -55 -42 -32 -69 -36 -69 -10 0 14 32 42 115 97 63 43
120 78 126 78 6 0 17 -7 24 -15z"/>
</g>
</svg>
