<?xml version="1.0" standalone="no"?>
<!DOCTYPE svg PUBLIC "-//W3C//DTD SVG 20010904//EN"
 "http://www.w3.org/TR/2001/REC-SVG-20010904/DTD/svg10.dtd">
<svg version="1.0" xmlns="http://www.w3.org/2000/svg"
 width="704.000000pt" height="1280.000000pt" viewBox="0 0 704.000000 1280.000000"
 preserveAspectRatio="xMidYMid meet">
<metadata>
Created by potrace 1.16, written by Peter Selinger 2001-2019
</metadata>
<g transform="translate(0.000000,1280.000000) scale(0.100000,-0.100000)"
fill="#000000" stroke="none">
<path d="M5740 10299 c0 -15 11 -25 40 -36 22 -9 40 -19 40 -22 0 -3 -17 -18
-38 -33 -21 -14 -44 -38 -52 -53 -14 -25 -13 -29 12 -50 17 -14 47 -26 80 -30
29 -4 63 -11 76 -16 17 -7 24 -5 29 7 7 20 -9 31 -65 45 -23 6 -45 16 -49 21
-3 6 20 35 51 65 31 29 56 60 56 67 0 9 -27 23 -67 35 -86 27 -113 27 -113 0z"/>
<path d="M6117 10253 c-13 -12 -7 -40 13 -58 30 -27 25 -35 -25 -35 -50 0
-115 -23 -115 -40 0 -23 31 -67 83 -119 44 -42 58 -51 72 -44 15 9 12 15 -24
57 -23 26 -41 51 -41 57 0 5 42 9 95 9 52 0 95 3 95 8 0 22 -122 172 -140 172
-4 0 -10 -3 -13 -7z"/>
<path d="M4630 10029 c-178 -24 -323 -81 -497 -195 -220 -145 -357 -352 -383
-581 -32 -288 122 -518 405 -602 150 -44 315 -63 530 -60 131 2 229 -2 285
-11 117 -18 713 -8 815 14 105 23 208 78 250 133 113 148 40 287 -169 328 -44
8 -80 16 -82 17 -1 2 3 50 11 107 16 124 10 148 -37 153 -29 3 -33 7 -40 42
-13 64 -103 238 -149 289 -52 59 -179 165 -251 210 -131 82 -313 143 -473 157
-112 10 -136 10 -215 -1z"/>
<path d="M1812 9598 c-38 -47 -41 -81 -46 -578 -3 -267 -8 -547 -12 -623 -8
-159 -17 -174 -67 -116 -16 19 -55 62 -86 95 -31 34 -96 108 -146 165 -49 56
-140 157 -200 223 -61 67 -143 158 -184 204 -106 118 -152 137 -195 79 -20
-27 -21 -42 -25 -405 -8 -617 -7 -724 6 -777 7 -27 14 -68 17 -90 3 -22 10
-65 17 -95 6 -30 15 -75 19 -100 4 -25 14 -74 23 -110 9 -36 24 -101 33 -145
10 -49 32 -107 55 -150 21 -38 50 -90 63 -115 44 -82 115 -169 185 -226 66
-54 69 -58 64 -92 l-6 -35 43 7 c26 4 47 2 56 -5 7 -6 44 -26 82 -44 62 -29
72 -31 98 -20 16 7 38 22 48 34 11 11 30 21 43 21 20 0 23 -4 18 -22 -4 -13
-20 -35 -37 -50 l-31 -27 53 -28 c166 -89 302 -244 500 -569 19 -31 44 -69 56
-83 12 -14 29 -51 39 -81 10 -30 26 -71 35 -90 26 -52 87 -244 105 -329 26
-124 32 -481 11 -648 -28 -228 -56 -406 -71 -448 -7 -22 -19 -62 -26 -88 -15
-54 -24 -61 -87 -71 -114 -17 -211 -141 -171 -218 41 -80 79 -93 271 -93 184
0 191 3 241 100 54 105 59 115 77 167 l18 51 27 -44 c15 -24 41 -61 57 -81
l29 -37 -43 -13 c-29 -8 -60 -30 -97 -67 l-53 -54 4 -59 c4 -49 9 -64 34 -88
26 -27 38 -30 134 -40 209 -22 578 -29 1247 -24 681 5 682 5 773 -17 101 -25
193 -78 198 -116 3 -20 -1 -21 -185 -29 -103 -4 -345 -8 -538 -9 -397 -2 -577
-13 -685 -43 -41 -12 -95 -27 -120 -33 -67 -18 -163 -67 -212 -110 -89 -75
-128 -165 -128 -292 0 -50 5 -68 36 -117 30 -49 44 -62 89 -80 44 -18 61 -20
103 -12 74 13 136 54 181 120 34 49 93 107 151 149 44 32 133 45 293 44 88 0
174 -5 191 -10 17 -5 49 -12 71 -15 22 -3 101 -15 175 -27 74 -11 169 -25 210
-29 112 -12 219 -31 433 -75 39 -8 99 -17 132 -20 33 -3 79 -8 102 -11 52 -8
249 14 283 31 14 7 50 25 80 39 78 36 143 99 176 171 23 51 27 74 28 155 1 98
-3 113 -57 202 -22 37 -144 155 -202 195 -84 58 -195 105 -353 148 -53 15
-106 30 -117 35 -11 5 -31 12 -45 15 -51 13 -80 28 -80 41 0 8 27 42 60 76
130 133 217 355 250 637 26 220 -19 513 -112 731 -40 95 -165 317 -196 349
-10 9 -30 35 -47 56 -147 198 -471 541 -655 695 -122 101 -266 212 -301 230
-13 7 -40 25 -59 40 -19 15 -80 59 -135 99 -55 39 -140 100 -190 136 -49 36
-142 102 -205 146 -147 104 -162 117 -154 143 18 66 26 76 77 91 28 8 62 15
76 15 52 0 101 20 101 41 0 28 -15 30 -113 16 -49 -7 -90 -11 -91 -8 -2 3 0
31 5 61 4 30 8 76 8 102 1 39 5 50 26 64 14 9 25 22 25 30 0 16 -34 36 -57 32
-12 -2 -19 6 -23 27 -32 146 -253 375 -467 483 -54 28 -63 37 -91 94 -26 53
-102 183 -209 358 -38 63 -85 127 -272 378 -100 136 -203 278 -228 316 -24 38
-74 99 -111 137 -67 68 -98 83 -120 57z m723 -1589 c83 -46 175 -159 175 -214
0 -19 4 -36 9 -39 29 -18 18 -150 -16 -188 -8 -9 -12 -21 -9 -26 5 -9 -7 -12
-110 -28 -81 -12 -184 41 -257 134 -53 68 -67 111 -67 211 0 106 40 170 115
184 44 7 113 -7 160 -34z m-733 -369 c149 -24 302 -220 283 -365 -5 -46 -13
-60 -54 -103 -78 -81 -142 -87 -264 -26 -65 33 -178 147 -206 208 -19 42 -22
59 -16 110 13 115 69 169 190 185 6 0 36 -3 67 -9z"/>
<path d="M2333 7973 c-28 -42 -23 -126 11 -193 41 -78 62 -104 120 -144 85
-59 140 -60 195 -5 36 36 39 65 15 150 -13 44 -30 73 -72 120 -67 74 -116 98
-194 99 -52 0 -59 -3 -75 -27z"/>
<path d="M1692 7577 c-31 -22 -45 -42 -53 -70 -12 -46 -5 -100 16 -117 8 -7
15 -20 15 -30 0 -25 72 -103 128 -139 97 -62 198 -29 233 76 9 28 8 44 -6 86
-35 109 -145 206 -250 219 -34 5 -48 1 -83 -25z"/>
</g>
</svg>
