<?xml version="1.0" standalone="no"?>
<!DOCTYPE svg PUBLIC "-//W3C//DTD SVG 20010904//EN"
 "http://www.w3.org/TR/2001/REC-SVG-20010904/DTD/svg10.dtd">
<svg version="1.0" xmlns="http://www.w3.org/2000/svg"
 width="704.000000pt" height="1280.000000pt" viewBox="0 0 704.000000 1280.000000"
 preserveAspectRatio="xMidYMid meet">
<metadata>
Created by potrace 1.16, written by Peter Selinger 2001-2019
</metadata>
<g transform="translate(0.000000,1280.000000) scale(0.100000,-0.100000)"
fill="#000000" stroke="none">
<path d="M2023 9391 c-26 -25 -31 -52 -48 -274 -8 -100 -19 -207 -25 -237 -13
-67 -15 -87 -29 -215 -19 -174 -33 -259 -47 -281 -7 -13 -27 -24 -46 -27 -18
-3 -51 -12 -73 -20 l-40 -15 -50 77 c-27 43 -61 92 -75 109 -14 17 -38 52 -54
79 -54 89 -168 267 -217 340 -27 39 -49 74 -49 77 0 15 -74 126 -105 159 -29
28 -45 37 -71 37 -46 0 -64 -31 -76 -127 -12 -100 -11 -995 1 -1171 l9 -134
-30 -51 c-103 -175 -167 -366 -184 -546 -3 -41 -12 -81 -20 -88 -7 -7 -46 -17
-86 -21 -69 -7 -73 -8 -73 -32 0 -24 2 -25 85 -28 l85 -3 27 -74 26 -75 -32
-25 c-18 -14 -38 -25 -45 -25 -17 0 -108 -48 -116 -61 -4 -6 -1 -18 7 -26 14
-13 27 -10 116 27 l102 41 52 -53 c132 -134 329 -219 613 -264 17 -3 41 -7 55
-10 14 -2 48 -6 75 -9 88 -10 189 -35 210 -53 21 -18 187 -225 222 -277 11
-16 37 -57 58 -90 21 -33 51 -76 65 -95 26 -33 82 -158 110 -245 7 -22 26 -69
42 -105 42 -93 68 -299 68 -540 0 -158 -5 -223 -36 -445 -20 -143 -42 -273
-49 -290 -8 -16 -23 -51 -34 -77 -18 -40 -26 -48 -48 -48 -36 0 -93 -21 -117
-42 -11 -10 -22 -18 -25 -18 -3 0 -19 -21 -35 -46 -51 -81 -33 -159 46 -200
34 -18 328 -22 370 -5 29 11 72 69 92 123 7 18 28 64 46 102 l33 69 15 -29 c8
-16 30 -47 49 -70 18 -23 33 -44 33 -47 0 -3 -25 -17 -55 -31 -62 -28 -75 -39
-104 -87 -27 -44 -28 -113 -1 -156 22 -36 26 -37 160 -52 52 -6 115 -14 140
-17 66 -10 1027 -13 1215 -5 224 10 626 -3 687 -23 88 -28 189 -100 174 -124
-3 -5 -90 -13 -193 -17 -213 -8 -237 -8 -571 -6 -134 0 -247 -1 -252 -4 -4 -3
-77 -9 -162 -14 -171 -11 -303 -36 -428 -84 -54 -20 -144 -82 -187 -128 -64
-69 -103 -259 -69 -331 30 -62 74 -106 124 -122 43 -15 53 -15 107 -1 81 22
115 45 163 113 56 80 129 145 187 168 43 16 76 19 235 19 187 0 304 -9 350
-26 14 -5 77 -16 140 -25 63 -8 126 -16 140 -18 14 -2 68 -9 120 -15 52 -7
172 -27 265 -46 248 -49 359 -59 479 -41 194 29 322 105 378 225 28 58 32 77
32 156 1 82 -2 96 -31 155 -32 65 -131 178 -205 233 -83 62 -216 115 -438 177
-25 7 -54 16 -65 21 -11 4 -42 15 -70 22 -43 13 -50 18 -47 38 1 13 25 43 55
70 44 39 65 71 125 191 99 197 131 337 134 578 2 210 -46 451 -123 618 -16 35
-29 65 -29 68 0 2 -18 34 -40 70 -22 36 -40 68 -40 70 0 1 -14 25 -32 51 -145
216 -525 632 -737 805 -131 108 -280 222 -294 227 -7 2 -63 41 -126 85 -62 45
-148 105 -190 134 -42 28 -83 58 -92 66 -9 8 -57 41 -105 73 -49 33 -107 71
-129 86 -22 15 -87 58 -145 96 -174 114 -158 87 -179 296 -19 180 -23 198 -94
400 -53 151 -107 271 -228 510 -75 150 -153 276 -229 370 -51 64 -294 403
-309 432 -17 33 -91 116 -115 130 -30 17 -49 16 -73 -6z m58 -1514 c15 -12 41
-54 58 -94 28 -64 31 -82 31 -170 0 -106 -19 -193 -49 -228 -10 -11 -21 -27
-24 -36 -8 -25 -97 -79 -130 -79 -63 0 -125 53 -163 139 -33 73 -39 156 -21
258 17 94 54 156 122 204 53 37 136 40 176 6z m-697 -184 c30 -30 60 -87 54
-103 -2 -6 -20 12 -41 40 -42 56 -68 63 -110 30 -37 -29 -51 -82 -51 -195 -1
-86 2 -107 23 -152 35 -72 101 -105 142 -70 45 36 54 68 53 182 -2 100 -1 107
12 80 7 -16 13 -64 14 -105 0 -63 -5 -85 -29 -135 -45 -94 -100 -135 -185
-136 -21 0 -66 38 -66 56 0 7 -9 20 -19 29 -32 29 -70 171 -65 244 8 128 40
191 119 234 66 36 114 36 149 1z m1296 -303 c-7 -12 -35 -26 -83 -40 -39 -11
-101 -30 -136 -42 -53 -17 -64 -19 -72 -7 -5 8 -8 20 -6 28 2 16 98 49 145 50
17 1 32 5 32 10 0 13 25 18 83 20 44 1 47 0 37 -19z m-65 -253 c110 -14 145
-28 145 -57 0 -27 -14 -32 -52 -16 -18 8 -80 19 -138 26 -127 13 -181 27 -177
43 1 7 13 15 27 19 26 7 34 6 195 -15z"/>
<path d="M1966 7837 c-67 -38 -81 -73 -80 -207 1 -87 5 -122 17 -145 9 -16 17
-35 17 -41 0 -6 10 -20 23 -31 65 -60 114 -53 164 23 35 52 36 56 35 146 -1
152 -54 278 -116 278 -11 0 -39 -10 -60 -23z"/>
</g>
</svg>
