<?xml version="1.0" standalone="no"?>
<!DOCTYPE svg PUBLIC "-//W3C//DTD SVG 20010904//EN"
 "http://www.w3.org/TR/2001/REC-SVG-20010904/DTD/svg10.dtd">
<svg version="1.0" xmlns="http://www.w3.org/2000/svg"
 width="704.000000pt" height="1280.000000pt" viewBox="0 0 704.000000 1280.000000"
 preserveAspectRatio="xMidYMid meet">
<metadata>
Created by potrace 1.16, written by Peter Selinger 2001-2019
</metadata>
<g transform="translate(0.000000,1280.000000) scale(0.100000,-0.100000)"
fill="#000000" stroke="none">
<path d="M2602 8613 c-34 -17 -45 -28 -162 -173 -74 -91 -99 -119 -204 -230
-42 -44 -95 -105 -173 -200 -3 -3 -55 -8 -116 -12 -62 -3 -132 -12 -157 -18
-77 -20 -122 -20 -185 2 -56 19 -90 32 -232 92 -78 33 -461 163 -548 187 -38
10 -88 25 -110 33 -22 8 -74 24 -115 36 -41 12 -80 26 -86 31 -20 16 -139 50
-182 52 -33 2 -47 -3 -58 -17 -37 -52 -13 -101 208 -432 157 -234 203 -300
280 -398 13 -16 25 -34 28 -40 14 -30 100 -153 119 -170 26 -24 26 -43 0 -136
-51 -183 -43 -400 23 -625 6 -22 17 -47 23 -55 6 -8 19 -35 28 -60 23 -62 94
-162 168 -237 95 -96 274 -179 454 -211 140 -25 347 -23 467 4 32 7 44 -4 138
-131 78 -105 116 -170 146 -250 12 -33 36 -91 52 -130 17 -42 34 -106 40 -161
16 -123 15 -474 -2 -614 -18 -151 -64 -426 -75 -448 -54 -113 -57 -117 -81
-120 -23 -3 -41 -9 -98 -35 -40 -19 -89 -77 -101 -120 -15 -53 3 -112 43 -142
25 -18 44 -20 215 -23 l188 -3 31 38 c17 21 38 57 48 78 9 22 30 65 46 96 15
31 28 64 28 73 0 9 5 16 10 16 6 0 10 -4 10 -9 0 -5 20 -36 45 -70 25 -34 43
-66 40 -71 -3 -5 -19 -11 -36 -15 -37 -8 -90 -53 -120 -101 -17 -28 -20 -46
-17 -89 7 -85 30 -98 188 -113 352 -33 408 -35 866 -26 943 17 1126 10 1245
-52 46 -25 99 -87 85 -102 -4 -3 -242 -10 -529 -14 -629 -10 -785 -18 -889
-46 -43 -12 -86 -26 -97 -32 -11 -5 -28 -10 -38 -10 -24 0 -128 -53 -183 -94
-34 -25 -56 -54 -88 -115 -39 -76 -42 -89 -42 -160 0 -74 2 -80 43 -142 36
-54 51 -67 92 -82 87 -32 186 5 261 100 76 95 138 152 188 175 45 20 71 23
228 26 159 4 191 1 310 -22 73 -14 176 -30 228 -35 180 -19 443 -60 580 -92
50 -12 232 -28 322 -29 188 -3 383 90 442 209 84 169 51 330 -97 475 -65 65
-179 146 -204 146 -6 0 -30 10 -54 23 -24 13 -71 31 -104 41 -33 10 -74 25
-91 33 -17 8 -35 13 -40 12 -5 -2 -47 9 -94 23 -47 14 -97 29 -112 32 -46 10
-34 40 53 133 31 34 61 72 64 84 4 13 20 44 36 69 83 135 139 370 139 584 0
395 -131 745 -395 1057 -16 19 -48 57 -70 84 -22 26 -44 53 -50 59 -116 128
-214 233 -276 295 -87 87 -277 255 -329 291 -19 13 -37 27 -40 31 -3 3 -19 13
-36 22 -18 9 -45 30 -61 46 -16 16 -51 40 -79 54 -27 14 -124 72 -216 128
-164 103 -361 216 -547 315 -200 106 -217 119 -240 189 -16 46 -47 112 -81
170 -13 22 -36 63 -52 91 -15 28 -40 63 -55 78 -34 34 -42 81 -49 271 -3 83
-9 170 -14 195 -5 25 -12 108 -15 185 -8 170 -24 237 -60 253 -31 14 -23 15
-63 -5z m-268 -1832 c3 -5 -1 -14 -9 -21 -8 -7 -15 -19 -15 -27 0 -29 -142
-154 -210 -185 -67 -31 -145 -58 -167 -58 -46 0 -36 42 13 54 45 12 207 115
283 181 72 63 94 75 105 56z m470 -156 c5 -15 -18 -45 -35 -45 -16 0 -177 -79
-184 -90 -9 -15 -51 -12 -65 5 -10 12 -10 18 0 30 14 16 79 48 122 58 15 4 34
15 44 24 9 9 35 20 58 24 22 3 44 7 47 8 4 0 9 -6 13 -14z m-1234 -201 c20
-23 -3 -40 -80 -60 -111 -28 -290 -7 -290 34 0 13 16 14 110 9 107 -6 203 4
225 24 13 13 21 11 35 -7z m1353 -73 c8 -8 8 -16 2 -27 -15 -22 -354 -29 -362
-7 -11 29 17 37 144 41 71 2 129 5 130 6 8 7 76 -3 86 -13z"/>
<path d="M960 6229 c-135 -11 -150 -15 -150 -39 0 -10 3 -21 8 -23 15 -9 274
12 288 24 8 6 14 20 14 30 0 21 5 21 -160 8z"/>
<path d="M1184 6086 c-10 -8 -68 -44 -129 -81 -134 -81 -153 -98 -136 -119 16
-19 24 -15 179 77 143 85 162 105 124 126 -13 7 -25 6 -38 -3z"/>
</g>
</svg>
