<?xml version="1.0" standalone="no"?>
<!DOCTYPE svg PUBLIC "-//W3C//DTD SVG 20010904//EN"
 "http://www.w3.org/TR/2001/REC-SVG-20010904/DTD/svg10.dtd">
<svg version="1.0" xmlns="http://www.w3.org/2000/svg"
 width="704.000000pt" height="1280.000000pt" viewBox="0 0 704.000000 1280.000000"
 preserveAspectRatio="xMidYMid meet">
<metadata>
Created by potrace 1.16, written by Peter Selinger 2001-2019
</metadata>
<g transform="translate(0.000000,1280.000000) scale(0.100000,-0.100000)"
fill="#000000" stroke="none">
<path d="M1223 9330 c-12 -5 -25 -21 -29 -35 -9 -35 3 -147 21 -193 25 -69 53
-167 74 -262 19 -85 54 -225 97 -380 8 -30 19 -79 24 -109 5 -29 13 -65 18
-80 5 -14 15 -50 22 -79 10 -43 10 -56 -1 -68 -26 -31 -52 -33 -99 -7 -59 33
-252 148 -315 188 -27 17 -84 50 -125 72 -41 22 -113 63 -160 90 -163 96 -260
143 -296 143 -30 0 -37 -5 -49 -33 -17 -41 -15 -52 65 -287 67 -198 95 -291
141 -465 16 -60 33 -119 38 -130 6 -11 22 -55 35 -97 24 -72 140 -306 244
-493 24 -44 59 -107 78 -140 46 -84 173 -234 225 -267 32 -20 212 -81 289 -97
30 -7 75 -19 100 -27 27 -9 46 -11 48 -5 2 5 18 29 37 53 18 24 58 83 88 130
30 47 62 88 71 91 17 7 46 -1 46 -12 0 -7 -50 -83 -60 -91 -7 -5 -63 -91 -99
-153 -13 -20 -21 -41 -19 -46 2 -5 35 -32 73 -61 117 -89 187 -169 318 -370
53 -80 107 -158 120 -175 13 -16 49 -95 80 -175 31 -80 62 -161 70 -180 13
-31 40 -153 54 -250 13 -81 11 -487 -1 -570 -8 -47 -17 -116 -21 -153 -3 -38
-13 -99 -21 -135 -7 -37 -14 -78 -14 -92 0 -14 -13 -63 -28 -109 l-28 -85 -68
-16 c-104 -26 -169 -87 -181 -171 -6 -40 -4 -49 20 -78 47 -55 81 -64 257 -65
142 0 160 1 183 19 27 20 58 75 117 202 18 40 36 73 39 73 7 0 88 -117 92
-132 1 -6 -11 -15 -28 -21 -63 -22 -103 -55 -130 -111 -21 -43 -26 -64 -21
-90 9 -48 63 -93 118 -100 242 -28 475 -32 1661 -28 281 1 339 -1 410 -17 91
-20 114 -30 170 -73 45 -36 49 -64 10 -70 -16 -2 -107 -5 -203 -7 -96 -1 -181
-6 -190 -11 -8 -5 -36 -4 -62 0 -49 10 -472 14 -548 6 -25 -3 -110 -10 -190
-15 -81 -6 -162 -17 -183 -26 -20 -8 -48 -15 -62 -15 -13 0 -26 -4 -29 -9 -3
-5 -25 -12 -48 -16 -53 -8 -163 -67 -215 -116 -73 -67 -113 -164 -113 -277 0
-56 5 -72 34 -121 55 -89 115 -112 221 -84 68 19 116 52 148 103 30 50 116
139 150 157 66 34 123 43 264 43 134 1 239 -12 608 -70 33 -5 98 -14 145 -20
47 -6 166 -27 265 -45 99 -19 221 -39 272 -45 90 -11 201 -9 223 5 6 4 28 7
48 6 33 0 57 7 167 55 45 19 122 99 152 157 89 176 49 323 -133 488 -103 94
-210 152 -369 200 -253 77 -325 100 -325 105 0 14 23 44 77 99 149 152 267
537 249 810 -9 127 -31 267 -58 370 -44 168 -153 381 -281 552 -91 120 -316
375 -349 395 -15 10 -28 22 -28 27 0 5 -53 63 -117 128 -133 134 -352 316
-467 387 -17 11 -125 88 -241 171 -115 84 -271 195 -346 246 -276 191 -301
210 -296 233 2 12 16 65 31 120 20 74 26 122 26 197 0 94 1 100 23 109 12 5
66 25 119 45 53 20 99 43 102 50 7 20 -23 48 -43 39 -73 -31 -171 -67 -191
-71 -24 -4 -28 1 -53 65 -15 38 -27 73 -27 78 0 5 32 41 72 81 61 62 70 74 58
87 -7 9 -18 16 -24 16 -7 0 -43 -30 -80 -66 l-67 -67 -22 21 c-124 114 -167
144 -320 218 -103 49 -188 75 -337 101 -27 5 -67 36 -180 142 -229 215 -276
258 -374 336 -50 40 -165 134 -256 209 -171 140 -310 241 -345 249 -11 3 -30
2 -42 -3z m1194 -1142 c91 -40 164 -101 210 -177 48 -78 55 -95 56 -151 2 -52
-1 -62 -26 -88 -59 -61 -147 -67 -253 -16 -87 42 -124 71 -164 129 -82 119
-77 260 10 294 52 21 131 25 167 9z m-557 -455 c99 -34 179 -106 229 -208 28
-57 32 -74 29 -124 -6 -69 -27 -104 -83 -136 -69 -41 -165 -27 -278 39 -122
72 -184 150 -202 254 -13 79 55 171 136 184 54 9 127 5 169 -9z m-95 -783 c0
-21 -11 -31 -64 -58 -35 -18 -89 -50 -119 -72 -57 -40 -85 -42 -80 -7 2 14 40
46 113 94 116 78 150 87 150 43z"/>
<path d="M2263 8141 c-17 -11 -36 -28 -41 -38 -11 -23 -6 -96 9 -125 48 -91
166 -193 236 -204 51 -7 74 -1 107 33 47 47 31 127 -43 219 -88 109 -200 157
-268 115z"/>
<path d="M1675 7685 c-53 -19 -78 -51 -71 -88 9 -42 74 -143 115 -178 20 -16
47 -40 61 -53 26 -25 105 -56 141 -56 57 0 99 47 99 112 0 87 -64 178 -174
247 -56 35 -105 39 -171 16z"/>
</g>
</svg>
