<?xml version="1.0" standalone="no"?>
<!DOCTYPE svg PUBLIC "-//W3C//DTD SVG 20010904//EN"
 "http://www.w3.org/TR/2001/REC-SVG-20010904/DTD/svg10.dtd">
<svg version="1.0" xmlns="http://www.w3.org/2000/svg"
 width="704.000000pt" height="1280.000000pt" viewBox="0 0 704.000000 1280.000000"
 preserveAspectRatio="xMidYMid meet">
<metadata>
Created by potrace 1.16, written by Peter Selinger 2001-2019
</metadata>
<g transform="translate(0.000000,1280.000000) scale(0.100000,-0.100000)"
fill="#000000" stroke="none">
<path d="M1461 9441 c-8 -5 -20 -26 -27 -47 -11 -31 -11 -50 1 -111 8 -40 18
-79 22 -86 4 -6 9 -46 10 -87 2 -115 12 -216 23 -245 5 -14 10 -40 10 -57 0
-32 21 -156 41 -238 6 -25 12 -67 14 -93 3 -48 19 -144 36 -224 16 -74 12 -88
-26 -106 -49 -23 -56 -22 -108 18 -25 19 -49 35 -53 35 -3 0 -29 19 -57 43
-51 43 -170 129 -266 193 -30 20 -60 41 -66 48 -6 6 -38 29 -71 51 -32 22 -61
42 -64 45 -22 22 -186 124 -231 144 l-57 25 -22 -24 c-32 -35 -37 -98 -11
-163 12 -29 21 -65 21 -80 0 -15 9 -49 19 -77 10 -27 19 -67 19 -87 0 -20 3
-42 7 -49 15 -23 58 -218 74 -334 32 -227 97 -423 238 -725 22 -47 50 -107 62
-135 44 -101 77 -148 186 -265 85 -92 202 -165 296 -185 19 -4 39 -11 44 -15
6 -4 21 -11 35 -15 68 -19 160 -58 175 -75 15 -16 15 -21 2 -47 -8 -15 -24
-37 -36 -47 -26 -23 -26 -38 -3 -59 22 -20 32 -22 32 -6 0 11 12 40 52 129 27
61 98 168 116 175 8 3 18 3 23 -1 20 -12 6 -44 -46 -104 -66 -76 -72 -108 -22
-129 41 -19 134 -114 183 -188 20 -32 48 -71 61 -87 13 -16 36 -52 50 -79 14
-28 49 -81 78 -117 38 -48 61 -91 88 -165 20 -55 52 -145 72 -200 46 -125 64
-228 73 -407 15 -305 -36 -740 -115 -965 -13 -38 -18 -42 -56 -48 -90 -15
-151 -56 -187 -125 -25 -48 -13 -111 27 -152 25 -25 42 -31 104 -39 41 -5 121
-8 179 -6 145 3 140 -2 249 214 17 34 31 69 31 77 0 28 16 17 40 -26 13 -24
34 -57 47 -74 l24 -32 -24 -6 c-37 -9 -104 -62 -131 -103 -35 -55 -40 -101
-16 -140 30 -49 62 -64 158 -75 159 -16 799 -26 1372 -21 l565 5 94 -25 c90
-25 149 -56 187 -98 12 -13 14 -23 7 -30 -11 -11 -244 -18 -733 -23 -336 -3
-603 -17 -655 -34 -130 -43 -162 -52 -178 -52 -19 0 -132 -58 -168 -87 -88
-70 -127 -149 -135 -272 -5 -82 -4 -90 20 -125 14 -21 28 -45 31 -54 5 -19 49
-44 107 -62 29 -9 48 -8 95 6 74 21 113 50 162 122 38 56 97 116 138 139 84
48 352 59 548 22 61 -11 175 -29 255 -40 255 -34 494 -74 585 -97 22 -6 95
-16 163 -23 101 -11 136 -10 195 0 40 7 81 13 91 13 18 -1 66 16 152 54 81 36
168 159 193 276 14 68 6 108 -44 214 -58 121 -203 241 -375 309 -52 21 -111
45 -130 55 -19 9 -58 20 -86 23 -28 3 -71 15 -95 26 -24 11 -60 23 -79 26 -19
3 -41 9 -48 14 -18 11 -5 32 69 111 150 160 260 524 244 805 -7 118 -22 231
-40 300 -21 83 -67 229 -75 240 -4 6 -15 30 -24 55 -38 97 -179 313 -281 431
-22 25 -49 57 -59 70 -170 211 -456 492 -657 644 -28 22 -68 54 -88 71 -20 18
-63 48 -96 68 -33 20 -87 57 -120 82 -33 24 -94 68 -135 96 -41 29 -102 73
-135 98 -33 26 -110 80 -170 121 -239 162 -236 160 -229 199 4 19 8 44 10 55
9 54 27 121 35 130 8 10 118 47 241 80 53 15 75 35 62 56 -11 19 -82 8 -182
-27 -70 -25 -106 -34 -113 -27 -6 6 -15 43 -20 83 -12 82 -16 74 84 149 31 24
58 47 58 52 1 5 2 15 3 22 1 6 -2 18 -7 24 -11 16 -34 4 -86 -42 -60 -55 -74
-51 -102 24 -17 47 -124 158 -223 234 -125 94 -245 152 -377 181 -15 3 -37 22
-52 43 -15 21 -51 65 -82 98 -31 33 -72 82 -93 108 -155 202 -782 828 -860
859 -24 9 -45 9 -61 -1z m1274 -1515 c9 -13 18 -40 22 -59 5 -31 0 -39 -41
-82 -50 -53 -67 -56 -39 -7 17 29 17 31 -1 51 -11 12 -26 21 -35 21 -23 0
-191 -180 -191 -205 0 -12 5 -26 12 -33 9 -9 9 -15 1 -23 -15 -15 -73 7 -73
27 0 46 115 187 233 286 65 54 89 59 112 24z m-641 -505 c6 -8 -46 -48 -164
-124 -56 -37 -65 -46 -66 -74 -2 -30 0 -32 24 -26 25 6 25 6 -9 -38 -18 -24
-35 -46 -36 -48 -1 -2 -13 -1 -27 3 -33 8 -86 54 -86 75 0 9 21 33 48 53 48
37 177 118 187 118 3 0 29 16 58 35 55 37 63 40 71 26z m-286 -633 c3 -24 -1
-28 -40 -38 -61 -17 -87 -32 -140 -84 -48 -47 -84 -58 -95 -29 -8 20 7 32 141
119 55 36 107 63 115 62 9 -2 17 -15 19 -30z"/>
</g>
</svg>
