<?xml version="1.0" standalone="no"?>
<!DOCTYPE svg PUBLIC "-//W3C//DTD SVG 20010904//EN"
 "http://www.w3.org/TR/2001/REC-SVG-20010904/DTD/svg10.dtd">
<svg version="1.0" xmlns="http://www.w3.org/2000/svg"
 width="704.000000pt" height="1280.000000pt" viewBox="0 0 704.000000 1280.000000"
 preserveAspectRatio="xMidYMid meet">
<metadata>
Created by potrace 1.16, written by Peter Selinger 2001-2019
</metadata>
<g transform="translate(0.000000,1280.000000) scale(0.100000,-0.100000)"
fill="#000000" stroke="none">
<path d="M3680 9765 c0 -9 -13 -18 -31 -22 -21 -4 -34 -15 -44 -37 -12 -28
-13 -29 -14 -8 -1 17 -6 22 -18 20 -23 -4 -30 -38 -9 -38 18 0 21 -21 5 -37
-8 -8 -4 -15 12 -26 20 -15 23 -15 35 1 7 9 16 14 20 9 4 -4 2 -13 -4 -19 -7
-7 -12 -22 -12 -34 0 -12 -7 -27 -15 -34 -8 -7 -12 -17 -8 -23 3 -6 1 -7 -6
-3 -6 4 -18 3 -26 -4 -10 -9 -11 -18 -3 -41 5 -16 12 -29 15 -29 10 0 33 29
33 42 0 26 24 48 40 38 11 -7 12 -15 4 -37 -6 -15 -16 -27 -24 -25 -17 4 -30
-16 -30 -46 0 -20 -5 -23 -27 -20 -20 2 -29 9 -31 26 -3 19 -9 22 -48 22 -45
0 -46 0 -39 -29 5 -22 1 -35 -12 -48 -18 -17 -18 -18 16 -35 20 -9 39 -14 43
-12 14 9 8 23 -12 29 -28 9 -25 34 6 45 29 11 44 6 44 -16 0 -17 5 -17 53 -1
45 16 111 78 137 128 10 19 25 41 33 48 14 11 12 55 -2 47 -4 -3 -7 4 -7 14 0
16 5 18 26 13 14 -3 28 -11 32 -17 4 -6 8 19 8 56 0 44 -4 68 -12 71 -10 4 -9
8 2 16 12 9 10 11 -12 11 -22 0 -29 -5 -33 -27 -13 -65 -31 -108 -45 -108 -19
0 -25 -41 -9 -61 18 -21 3 -29 -26 -14 -30 16 -33 50 -5 75 11 10 20 23 20 29
0 6 9 22 20 36 24 31 25 59 3 76 -24 18 -43 17 -43 -1z"/>
<path d="M3840 9580 c-33 -34 -60 -66 -60 -72 0 -6 -15 -25 -32 -42 -42 -41
-68 -74 -68 -85 0 -12 -37 -24 -49 -17 -4 3 -8 -4 -7 -17 2 -33 33 -33 69 1
18 17 52 48 76 71 47 44 71 52 71 23 0 -24 -19 -42 -46 -42 -19 0 -33 -22 -34
-52 0 -12 58 -9 65 2 8 13 25 3 25 -16 0 -8 -8 -14 -17 -14 -9 0 -14 -3 -11
-6 3 -3 33 -2 66 2 57 6 60 8 49 26 -9 15 -20 18 -43 15 -61 -10 -74 40 -19
66 45 21 43 22 47 -10 2 -17 9 -28 18 -28 22 0 13 36 -13 57 -17 13 -22 27
-22 67 0 52 -9 67 -18 31 -5 -20 -27 -28 -27 -10 0 6 5 10 10 10 6 0 10 10 10
23 0 12 9 28 20 35 21 12 28 42 10 42 -5 0 -37 -27 -70 -60z"/>
<path d="M1194 9304 c-11 -45 3 -135 44 -274 21 -74 45 -160 51 -190 7 -30 18
-77 26 -105 28 -99 94 -362 110 -440 9 -44 21 -92 27 -107 14 -38 4 -72 -27
-88 -22 -12 -30 -12 -48 0 -30 18 -334 198 -377 222 -19 11 -62 36 -95 55 -33
19 -67 39 -75 44 -8 4 -40 23 -70 40 -158 92 -243 136 -291 149 -40 12 -79
-20 -79 -64 0 -29 67 -238 89 -276 5 -9 12 -31 15 -50 4 -19 18 -66 31 -105
41 -122 73 -229 80 -268 6 -37 48 -174 64 -212 5 -11 17 -42 27 -70 22 -64
169 -357 228 -455 25 -41 63 -109 85 -150 50 -92 191 -247 252 -277 66 -33
218 -82 301 -97 40 -7 80 -16 88 -20 11 -5 39 30 108 133 52 77 100 142 108
145 16 6 44 -2 44 -14 0 -4 -27 -45 -61 -91 -34 -46 -65 -93 -69 -104 -5 -11
-18 -33 -29 -50 -12 -16 -21 -35 -21 -41 0 -6 33 -33 74 -62 82 -57 162 -144
257 -277 60 -85 129 -192 129 -202 0 -6 42 -63 68 -91 12 -14 22 -30 22 -36 0
-11 52 -152 70 -191 78 -166 109 -353 109 -655 1 -193 -13 -323 -58 -576 -6
-34 -12 -74 -13 -90 -1 -16 -7 -38 -14 -49 -6 -11 -15 -36 -18 -55 -9 -55 -30
-77 -78 -85 -130 -21 -229 -146 -185 -232 41 -77 97 -93 310 -88 114 3 131 5
151 24 21 19 44 63 116 214 29 60 34 65 46 50 7 -10 14 -22 14 -26 0 -5 16
-29 35 -54 32 -42 37 -63 14 -63 -33 0 -98 -45 -128 -90 -39 -57 -43 -111 -14
-161 24 -41 54 -50 223 -65 151 -14 465 -18 1507 -16 350 1 365 0 457 -23 56
-14 110 -35 134 -52 42 -29 70 -68 59 -80 -4 -3 -91 -8 -195 -9 -103 -2 -201
-7 -217 -12 -18 -5 -56 -6 -90 -1 -88 12 -559 13 -581 1 -11 -5 -75 -12 -144
-15 -77 -3 -142 -11 -169 -21 -24 -9 -56 -16 -72 -16 -15 0 -30 -4 -33 -9 -4
-5 -25 -12 -47 -16 -51 -9 -157 -64 -216 -113 -73 -60 -109 -149 -111 -277 -2
-66 0 -73 36 -125 45 -67 108 -104 162 -95 110 18 163 53 237 158 45 63 111
114 178 138 46 16 82 20 196 20 77 0 154 -3 172 -5 171 -28 294 -46 352 -51
39 -3 86 -10 105 -15 19 -5 67 -13 105 -19 110 -15 273 -42 350 -57 289 -56
464 -51 612 18 122 56 198 149 229 277 33 142 -57 310 -239 444 -51 38 -157
89 -242 117 -38 12 -83 28 -100 35 -16 6 -61 20 -100 29 -57 14 -170 52 -183
62 -8 6 20 43 75 99 59 60 101 134 156 275 64 163 87 292 87 493 0 388 -118
702 -385 1030 -104 127 -204 243 -243 282 -23 22 -50 49 -61 60 -11 11 -55 58
-98 104 -83 89 -246 233 -358 316 -36 28 -83 64 -103 81 -21 17 -53 39 -72 49
-19 10 -47 27 -62 39 -59 47 -329 239 -483 344 -60 41 -135 94 -165 117 -30
23 -75 55 -100 70 -25 15 -48 32 -51 37 -4 6 2 32 12 58 30 80 49 189 49 286
l0 92 33 14 c17 8 66 28 109 43 91 34 113 49 105 70 -9 21 -46 19 -109 -6 -29
-12 -74 -29 -100 -40 l-48 -19 -30 68 c-17 37 -29 76 -26 87 3 11 33 47 66 79
42 41 60 66 58 80 -5 38 -32 27 -98 -39 -36 -35 -68 -65 -72 -65 -4 0 -31 23
-60 51 -29 28 -78 68 -109 89 -58 40 -237 128 -299 148 -75 24 -191 52 -214
52 -25 0 -70 39 -271 230 -55 53 -165 149 -245 215 -273 224 -335 275 -403
333 -38 31 -100 78 -139 105 -57 38 -78 47 -114 47 -39 0 -44 -3 -50 -26z
m1285 -1154 c72 -43 134 -103 161 -156 8 -16 20 -36 27 -45 8 -9 16 -46 20
-82 6 -65 5 -66 -27 -94 -46 -40 -78 -52 -136 -53 -66 0 -199 64 -244 118 -17
21 -37 44 -44 52 -30 33 -58 124 -54 176 6 69 35 106 96 120 82 19 123 12 201
-36z m-588 -429 c125 -59 233 -207 228 -314 -3 -67 -23 -103 -78 -138 -47 -30
-106 -38 -153 -20 -13 5 -41 14 -63 21 -40 13 -80 37 -122 74 -13 11 -23 17
-23 13 0 -17 -90 94 -110 136 -48 102 6 215 118 247 50 14 154 4 203 -19z
m-123 -768 c-2 -22 -13 -33 -54 -53 -28 -14 -83 -47 -122 -73 -71 -48 -92 -52
-92 -19 0 19 71 76 136 111 21 11 50 29 64 40 14 12 35 21 48 21 20 0 23 -4
20 -27z"/>
<path d="M2272 8145 c-34 -15 -62 -63 -62 -108 0 -33 86 -157 143 -207 77 -68
163 -80 216 -31 55 52 40 138 -43 234 -50 58 -133 112 -186 121 -21 3 -49 -1
-68 -9z"/>
<path d="M1690 7690 c-19 -5 -47 -22 -62 -39 -23 -26 -26 -35 -18 -61 14 -50
68 -136 104 -167 97 -82 114 -94 148 -105 48 -14 97 -4 131 27 37 35 38 102 1
171 -33 63 -65 96 -139 145 -62 41 -92 46 -165 29z"/>
</g>
</svg>
