<?xml version="1.0" standalone="no"?>
<!DOCTYPE svg PUBLIC "-//W3C//DTD SVG 20010904//EN"
 "http://www.w3.org/TR/2001/REC-SVG-20010904/DTD/svg10.dtd">
<svg version="1.0" xmlns="http://www.w3.org/2000/svg"
 width="704.000000pt" height="1280.000000pt" viewBox="0 0 704.000000 1280.000000"
 preserveAspectRatio="xMidYMid meet">
<metadata>
Created by potrace 1.16, written by Peter Selinger 2001-2019
</metadata>
<g transform="translate(0.000000,1280.000000) scale(0.100000,-0.100000)"
fill="#000000" stroke="none">
<path d="M1780 9567 c-17 -39 -20 -83 -26 -552 -4 -281 -8 -564 -8 -630 -1
-108 -3 -120 -19 -123 -23 -5 -44 14 -120 108 -33 41 -82 98 -108 125 -26 28
-67 77 -92 110 -24 33 -61 76 -82 95 -21 19 -50 52 -66 73 -15 21 -74 89 -131
152 -109 121 -167 163 -210 152 -42 -11 -49 -59 -53 -417 -3 -179 -7 -410 -11
-515 -3 -115 -1 -210 5 -240 5 -27 19 -106 30 -175 39 -240 97 -493 130 -564
53 -116 151 -255 229 -321 79 -68 121 -102 141 -114 9 -6 11 -16 6 -32 -5 -13
-8 -26 -9 -29 -1 -3 24 -5 55 -6 31 0 71 -8 90 -16 19 -9 55 -26 82 -38 26
-12 47 -26 47 -30 0 -5 -26 -35 -59 -67 -67 -68 -94 -112 -80 -134 8 -12 12
-11 24 6 46 63 133 155 151 160 58 17 201 -101 324 -268 107 -146 117 -161
143 -213 14 -27 45 -75 69 -105 25 -30 54 -83 67 -119 13 -36 45 -123 71 -195
26 -71 55 -175 65 -229 38 -217 35 -510 -10 -806 -14 -96 -29 -197 -32 -225
-3 -27 -9 -55 -14 -60 -4 -6 -10 -22 -12 -35 -3 -14 -13 -44 -22 -67 -15 -37
-21 -42 -58 -48 -64 -11 -124 -43 -162 -88 -45 -52 -54 -99 -29 -146 41 -76
108 -95 314 -89 149 4 145 0 251 225 19 40 37 72 40 70 4 -1 30 -33 58 -70 48
-64 50 -69 31 -74 -120 -32 -201 -149 -161 -233 30 -61 51 -70 226 -85 196
-17 1062 -29 1305 -18 269 12 600 1 680 -24 96 -28 189 -99 164 -123 -5 -5
-92 -11 -194 -14 -102 -3 -198 -9 -215 -14 -16 -5 -54 -4 -85 1 -113 17 -824
-8 -867 -31 -12 -7 -33 -12 -47 -12 -14 0 -49 -9 -78 -20 -29 -11 -61 -20 -71
-20 -19 0 -144 -66 -166 -88 -8 -7 -24 -20 -37 -29 -13 -8 -40 -44 -60 -81
-33 -59 -37 -75 -42 -159 -4 -72 -1 -97 10 -111 7 -9 21 -33 30 -52 18 -42 94
-84 148 -84 93 1 168 43 222 125 20 31 62 78 95 106 79 68 141 83 345 83 84 0
169 -4 188 -10 19 -5 59 -12 89 -15 30 -3 57 -8 61 -10 3 -2 78 -13 166 -24
87 -11 175 -25 194 -31 19 -5 52 -10 73 -10 20 0 79 -9 130 -19 50 -11 112
-23 137 -26 25 -4 60 -11 79 -17 18 -6 54 -12 80 -14 25 -2 80 -6 121 -10 84
-7 254 17 305 43 57 30 65 33 79 33 25 0 121 105 147 161 39 82 53 165 39 219
-46 174 -261 377 -463 435 -32 9 -70 23 -85 31 -15 8 -43 17 -62 20 -51 8
-260 75 -260 83 1 16 29 51 79 96 55 51 98 126 159 275 103 252 115 599 30
905 -29 106 -114 312 -141 344 -8 9 -28 41 -45 71 -34 61 -113 168 -182 249
-283 329 -523 569 -674 675 -22 16 -72 55 -111 88 -38 33 -85 67 -104 75 -19
8 -55 32 -80 53 -25 20 -109 81 -186 135 -77 54 -155 113 -174 130 -18 18 -45
39 -60 46 -33 18 -189 126 -218 152 -24 21 -32 80 -14 91 8 5 127 33 221 52
14 3 35 7 48 10 27 5 29 30 2 44 -15 8 -42 7 -101 -5 -45 -8 -95 -15 -111 -15
-30 0 -30 1 -24 38 3 20 6 61 6 90 0 45 4 57 26 75 47 39 74 70 74 83 0 17
-51 19 -68 2 -17 -17 -38 5 -59 60 -47 126 -155 261 -296 370 -65 51 -169 115
-206 127 -14 4 -35 33 -57 78 -77 154 -241 410 -384 601 -41 56 -88 121 -104
146 -16 25 -45 65 -65 90 -35 43 -124 167 -184 255 -15 22 -53 68 -85 103 -48
51 -64 62 -91 62 -28 0 -34 -5 -51 -43z m773 -1564 c70 -23 135 -89 181 -185
32 -67 36 -84 36 -155 0 -79 0 -79 -40 -120 -70 -73 -165 -71 -283 6 -85 56
-89 60 -128 140 -39 81 -43 191 -9 246 31 50 69 73 126 78 27 2 53 4 57 5 5 1
32 -6 60 -15z m-695 -404 c37 -7 76 -21 91 -33 46 -37 105 -101 136 -146 28
-40 30 -50 30 -134 0 -112 -17 -148 -90 -188 -73 -40 -131 -35 -239 21 -39 20
-156 126 -156 141 0 5 -12 23 -27 41 -25 30 -28 40 -27 108 l1 74 56 53 c31
30 67 56 79 58 83 18 72 18 146 5z"/>
<path d="M2420 7972 c-39 -19 -73 -48 -81 -69 -11 -30 14 -133 46 -188 47 -81
141 -155 198 -155 55 0 127 76 127 133 0 38 -36 125 -74 177 -54 75 -165 127
-216 102z"/>
<path d="M1733 7546 c-39 -19 -54 -32 -70 -67 -12 -24 -19 -48 -16 -53 3 -4 9
-3 13 3 7 13 30 -52 30 -86 0 -24 111 -148 149 -167 43 -22 125 -27 150 -10
56 40 80 150 47 227 -22 54 -90 122 -144 145 -77 32 -103 33 -159 8z"/>
</g>
</svg>
