<?xml version="1.0" standalone="no"?>
<!DOCTYPE svg PUBLIC "-//W3C//DTD SVG 20010904//EN"
 "http://www.w3.org/TR/2001/REC-SVG-20010904/DTD/svg10.dtd">
<svg version="1.0" xmlns="http://www.w3.org/2000/svg"
 width="704.000000pt" height="1280.000000pt" viewBox="0 0 704.000000 1280.000000"
 preserveAspectRatio="xMidYMid meet">
<metadata>
Created by potrace 1.16, written by Peter Selinger 2001-2019
</metadata>
<g transform="translate(0.000000,1280.000000) scale(0.100000,-0.100000)"
fill="#000000" stroke="none">
<path d="M4615 9893 c-69 -10 -216 -57 -295 -95 -47 -22 -87 -44 -90 -47 -3
-4 -35 -28 -71 -53 -127 -90 -243 -240 -289 -373 -12 -35 -23 -99 -27 -155
-17 -282 149 -474 467 -541 87 -18 143 -23 330 -25 124 -1 286 -8 360 -14 147
-13 475 -7 620 11 114 15 217 58 267 112 123 134 46 279 -167 313 -19 3 -36 7
-39 9 -2 2 2 47 9 99 16 122 11 146 -34 146 -30 0 -34 3 -39 34 -3 18 -26 77
-52 130 -35 71 -58 104 -88 128 -23 18 -57 50 -76 71 -42 46 -136 115 -208
151 -156 78 -413 122 -578 99z"/>
<path d="M1802 9578 c-11 -18 -23 -44 -26 -58 -6 -23 -16 -651 -18 -1092 0
-136 -4 -178 -14 -182 -13 -5 -63 28 -78 53 -5 8 -32 40 -60 71 -109 122 -172
194 -191 221 -11 15 -47 56 -80 91 -33 36 -96 105 -140 154 -44 49 -114 124
-156 167 -72 74 -79 78 -115 75 -66 -5 -67 -13 -71 -413 -2 -192 -5 -438 -6
-545 -2 -204 10 -297 74 -594 11 -50 25 -126 30 -171 12 -93 36 -150 122 -289
58 -94 156 -206 236 -269 27 -21 32 -30 23 -39 -15 -15 -16 -45 -1 -53 5 -4
22 -2 37 4 24 10 39 7 115 -29 48 -22 93 -40 101 -40 7 0 34 16 60 36 43 33
76 39 76 15 0 -16 -59 -79 -81 -86 -11 -4 -27 -1 -36 6 -13 11 -24 4 -75 -51
-73 -78 -92 -106 -83 -120 12 -20 30 -9 107 70 43 44 84 80 91 80 7 0 44 -16
82 -35 123 -63 307 -268 439 -490 26 -44 63 -100 81 -125 37 -48 55 -82 55
-105 0 -8 6 -29 14 -47 45 -102 108 -295 122 -373 34 -192 25 -683 -15 -820
-5 -16 -12 -59 -15 -95 -7 -74 -24 -165 -36 -195 -5 -11 -14 -42 -21 -68 -12
-50 -33 -67 -80 -67 -11 0 -45 -12 -75 -26 -67 -32 -105 -83 -111 -152 -5 -44
-2 -50 32 -84 25 -25 52 -40 83 -47 62 -14 310 -8 340 8 22 12 92 107 92 126
0 17 64 154 72 152 3 -1 27 -31 53 -66 36 -49 44 -66 33 -72 -7 -5 -16 -9 -21
-9 -21 0 -90 -55 -117 -92 -33 -45 -40 -103 -17 -148 43 -86 180 -96 1281 -93
771 2 823 1 890 -16 39 -10 87 -26 106 -34 45 -19 100 -69 100 -90 0 -18 12
-17 -260 -22 -52 -1 -113 -5 -135 -9 -44 -8 -133 -8 -145 -1 -17 10 -498 7
-531 -3 -19 -6 -86 -13 -149 -16 -120 -4 -181 -15 -265 -47 -28 -10 -60 -19
-73 -19 -25 0 -116 -49 -184 -100 -68 -51 -115 -147 -123 -257 -7 -79 -6 -84
25 -138 17 -30 47 -67 66 -81 32 -25 40 -26 113 -21 43 3 88 10 101 17 35 19
100 81 100 97 0 7 30 44 67 81 58 58 78 71 138 91 62 20 89 22 225 22 85 -1
166 -3 180 -5 99 -17 153 -28 176 -36 14 -6 45 -10 69 -10 23 0 76 -6 116 -14
41 -8 135 -21 209 -31 74 -9 151 -21 170 -26 81 -23 288 -52 445 -63 220 -15
413 78 498 239 29 55 32 68 32 155 0 89 -2 99 -35 160 -43 78 -123 167 -204
224 -69 49 -192 110 -251 125 -22 5 -67 19 -100 30 -33 11 -106 34 -163 52
-56 17 -104 34 -106 38 -3 4 22 34 54 68 83 88 181 271 225 420 30 100 40 199
39 378 -1 144 -5 201 -23 285 -82 390 -256 666 -725 1150 -121 124 -220 215
-306 280 -25 19 -64 50 -87 69 -98 84 -130 109 -168 129 -22 11 -90 58 -151
105 -60 46 -121 90 -134 97 -13 7 -29 16 -34 21 -6 5 -36 28 -66 52 -30 23
-109 79 -175 124 -66 45 -137 96 -158 115 l-38 33 18 49 c21 56 32 62 134 72
74 7 109 23 109 52 0 13 -15 14 -100 8 l-101 -6 7 102 c5 83 10 106 25 120 10
9 20 27 21 40 3 19 -2 24 -27 26 -27 3 -34 11 -63 76 -43 95 -113 187 -205
271 -90 80 -93 83 -209 148 -88 50 -95 55 -127 117 -60 116 -254 433 -311 510
-31 41 -91 122 -133 180 -350 480 -383 522 -428 546 -41 21 -55 18 -77 -18z
m743 -1572 c58 -33 165 -165 165 -204 0 -12 7 -36 15 -52 34 -66 -19 -220 -76
-220 -11 0 -28 -4 -38 -10 -34 -18 -136 8 -201 52 -84 56 -133 133 -148 235
-17 114 -2 168 58 208 41 28 50 30 110 25 47 -4 79 -13 115 -34z m-693 -379
c77 -35 158 -113 203 -197 31 -61 36 -78 32 -118 -8 -73 -18 -105 -41 -130
-27 -30 -106 -71 -143 -74 -34 -2 -140 37 -168 61 -11 10 -39 31 -62 46 -46
30 -105 111 -128 175 -11 32 -12 52 -3 94 27 139 171 204 310 143z"/>
<path d="M2405 7999 c-4 -5 -17 -9 -30 -9 -14 0 -33 -11 -45 -27 -63 -80 42
-294 172 -353 68 -31 104 -26 149 19 34 34 39 44 39 85 0 89 -71 199 -167 259
-42 26 -109 41 -118 26z"/>
<path d="M1697 7580 c-26 -18 -52 -40 -57 -50 -13 -24 -13 -110 0 -110 5 0 12
-12 16 -27 17 -72 88 -150 181 -197 79 -40 183 23 198 120 13 88 -66 204 -176
257 -86 42 -107 43 -162 7z"/>
</g>
</svg>
