<?xml version="1.0" standalone="no"?>
<!DOCTYPE svg PUBLIC "-//W3C//DTD SVG 20010904//EN"
 "http://www.w3.org/TR/2001/REC-SVG-20010904/DTD/svg10.dtd">
<svg version="1.0" xmlns="http://www.w3.org/2000/svg"
 width="704.000000pt" height="1280.000000pt" viewBox="0 0 704.000000 1280.000000"
 preserveAspectRatio="xMidYMid meet">
<metadata>
Created by potrace 1.16, written by Peter Selinger 2001-2019
</metadata>
<g transform="translate(0.000000,1280.000000) scale(0.100000,-0.100000)"
fill="#000000" stroke="none">
<path d="M3308 9377 c-38 -17 -94 -71 -114 -109 -22 -42 -14 -108 20 -156 14
-21 26 -42 26 -48 0 -5 -35 -9 -78 -9 -77 0 -120 -15 -106 -37 3 -5 11 -5 19
2 16 14 150 9 150 -5 0 -5 -16 -15 -35 -22 l-35 -12 48 0 c54 -1 87 12 87 34
0 12 9 14 40 9 62 -10 317 16 378 38 52 19 67 43 36 55 -9 3 -26 -5 -42 -20
-15 -14 -45 -28 -67 -32 -22 -3 -51 -8 -64 -11 -21 -4 -23 -2 -17 18 20 71 26
130 17 164 -25 90 -102 154 -186 154 -27 -1 -62 -6 -77 -13z"/>
<path d="M1212 9314 c-18 -13 -22 -25 -22 -71 0 -31 4 -70 9 -87 5 -17 23 -76
40 -131 17 -55 38 -131 46 -170 19 -91 52 -216 101 -380 9 -27 19 -73 24 -102
8 -51 14 -74 43 -165 17 -55 8 -83 -35 -107 -25 -15 -29 -14 -81 22 -29 20
-57 37 -61 37 -4 0 -22 11 -39 23 -18 13 -63 41 -101 62 -38 20 -87 50 -110
65 -22 15 -72 45 -111 65 -38 21 -117 65 -175 98 -147 84 -259 137 -291 137
-32 0 -59 -32 -59 -69 0 -14 24 -95 54 -180 30 -86 59 -174 66 -196 6 -22 17
-56 25 -75 18 -50 71 -223 90 -300 36 -142 95 -294 153 -395 6 -11 38 -76 72
-144 34 -69 69 -136 78 -150 19 -29 23 -35 88 -144 64 -107 187 -245 244 -273
68 -33 283 -95 337 -97 26 -1 51 -6 56 -12 9 -12 26 9 123 152 41 62 80 115
85 119 6 3 19 -2 30 -12 19 -17 18 -18 -15 -58 -41 -50 -146 -219 -146 -234 0
-6 10 -17 22 -23 44 -24 144 -110 194 -167 62 -71 163 -212 220 -310 24 -40
59 -92 77 -115 63 -79 168 -374 197 -550 25 -153 28 -476 5 -637 -38 -271 -64
-421 -86 -485 l-24 -70 -65 -13 c-100 -19 -167 -82 -180 -167 -6 -41 -4 -51
21 -85 16 -22 42 -43 61 -49 18 -6 107 -12 197 -13 l163 -3 28 34 c29 34 130
230 130 251 0 23 20 4 64 -60 l46 -65 -59 -29 c-77 -38 -121 -100 -121 -170 0
-43 4 -53 35 -82 25 -23 48 -34 78 -38 23 -3 78 -9 122 -14 119 -14 403 -17
1173 -14 685 3 694 3 780 -19 48 -12 103 -30 123 -40 39 -19 92 -76 84 -89 -9
-15 -292 -24 -677 -21 -289 2 -393 -1 -410 -10 -13 -7 -71 -13 -143 -14 -112
-2 -178 -13 -263 -46 -13 -5 -35 -9 -50 -9 -28 0 -163 -73 -222 -120 -17 -14
-48 -56 -67 -95 -32 -61 -37 -82 -41 -156 -4 -79 -2 -90 23 -135 45 -80 82
-104 163 -104 101 0 151 27 215 113 21 29 65 77 98 109 59 56 90 70 189 83 67
9 315 5 350 -6 19 -6 64 -14 100 -19 36 -5 94 -13 130 -19 36 -5 135 -19 220
-30 170 -24 352 -54 445 -76 68 -15 292 -38 304 -31 4 3 44 7 89 10 44 3 94
12 110 20 17 9 56 25 87 37 98 37 177 135 210 263 35 136 -59 317 -235 447
-79 59 -233 122 -460 189 -130 38 -170 51 -170 56 0 13 23 44 73 97 70 74 175
282 206 409 96 386 33 807 -172 1145 -120 197 -220 318 -577 696 -112 118
-356 323 -491 412 -17 11 -81 56 -142 99 -62 44 -139 97 -172 119 -33 23 -89
64 -125 92 -36 28 -103 76 -150 106 -74 47 -159 110 -280 208 -34 28 -35 29
-22 62 36 93 67 286 56 348 -2 14 -1 31 3 36 5 6 60 31 123 56 90 36 115 50
115 65 0 32 -47 28 -145 -10 -49 -20 -94 -36 -98 -36 -9 0 -72 122 -72 138 0
4 18 26 41 47 22 22 54 57 71 78 25 31 28 40 18 52 -7 8 -16 15 -20 15 -4 0
-38 -29 -76 -65 -38 -35 -71 -65 -74 -65 -3 0 -33 27 -68 59 -121 116 -341
226 -511 257 -47 9 -97 18 -110 20 -12 3 -75 55 -139 117 -64 62 -128 122
-142 134 -98 84 -315 265 -418 348 -68 55 -149 121 -180 148 -72 60 -197 149
-239 171 -40 20 -53 20 -81 0z m1193 -1113 c3 -6 38 -28 78 -50 110 -61 192
-175 203 -284 6 -63 6 -64 -27 -91 -18 -15 -44 -33 -58 -38 -41 -17 -148 -9
-187 13 -19 10 -39 19 -45 19 -6 0 -32 17 -58 37 -114 90 -165 246 -108 330
24 36 49 49 117 62 62 12 78 12 85 2z m-503 -494 c206 -99 287 -336 148 -432
-53 -37 -154 -47 -195 -21 -13 9 -31 16 -38 16 -27 0 -130 79 -183 139 -114
131 -97 258 41 320 63 29 136 21 227 -22z m-134 -738 c18 -28 5 -42 -72 -81
-34 -17 -85 -48 -115 -70 -49 -34 -56 -37 -70 -23 -14 14 -13 18 9 39 24 23
219 156 230 156 3 0 11 -9 18 -21z"/>
<path d="M2262 8140 c-46 -28 -65 -77 -49 -122 35 -98 150 -214 234 -235 53
-14 74 -10 117 20 28 20 28 22 23 86 -6 58 -13 75 -55 136 -81 117 -192 164
-270 115z"/>
<path d="M1728 7700 c-20 -4 -55 -19 -78 -33 -32 -22 -40 -33 -40 -58 0 -60
50 -132 150 -218 101 -87 175 -101 236 -45 24 24 26 30 21 83 -6 72 -37 135
-91 184 -72 66 -143 97 -198 87z"/>
</g>
</svg>
