<?xml version="1.0" standalone="no"?>
<!DOCTYPE svg PUBLIC "-//W3C//DTD SVG 20010904//EN"
 "http://www.w3.org/TR/2001/REC-SVG-20010904/DTD/svg10.dtd">
<svg version="1.0" xmlns="http://www.w3.org/2000/svg"
 width="704.000000pt" height="1280.000000pt" viewBox="0 0 704.000000 1280.000000"
 preserveAspectRatio="xMidYMid meet">
<metadata>
Created by potrace 1.16, written by Peter Selinger 2001-2019
</metadata>
<g transform="translate(0.000000,1280.000000) scale(0.100000,-0.100000)"
fill="#000000" stroke="none">
<path d="M2602 8613 c-34 -17 -45 -28 -162 -173 -74 -91 -99 -119 -204 -230
-42 -44 -95 -105 -173 -200 -3 -3 -55 -8 -116 -12 -62 -3 -132 -12 -157 -18
-77 -20 -122 -20 -185 2 -56 19 -90 32 -232 92 -78 33 -461 163 -548 187 -38
10 -88 25 -110 33 -22 8 -74 24 -115 36 -41 12 -80 26 -85 30 -35 28 -186 63
-219 50 -69 -26 -39 -109 128 -356 234 -347 227 -336 309 -448 56 -76 137
-196 137 -202 0 -4 15 -24 34 -44 l34 -38 -24 -83 c-32 -113 -44 -232 -34
-359 8 -109 54 -317 74 -335 6 -5 17 -28 25 -50 17 -52 101 -177 160 -238 101
-107 278 -192 466 -225 140 -25 347 -23 467 4 32 7 44 -4 138 -131 78 -105
116 -170 146 -250 12 -33 36 -92 52 -131 19 -44 34 -106 41 -160 15 -124 13
-476 -3 -614 -18 -151 -64 -426 -75 -448 -54 -113 -57 -117 -81 -120 -23 -3
-41 -9 -98 -35 -36 -17 -85 -72 -98 -110 -19 -53 -1 -121 39 -149 30 -22 43
-23 218 -26 l186 -3 31 38 c17 21 38 57 48 78 9 22 30 67 46 100 15 33 28 66
28 73 0 6 5 12 10 12 6 0 10 -4 10 -9 0 -5 20 -36 45 -70 25 -34 43 -66 40
-71 -3 -5 -19 -11 -36 -15 -37 -8 -90 -53 -120 -101 -17 -28 -20 -46 -17 -89
7 -85 30 -98 188 -113 352 -33 408 -35 866 -26 958 17 1132 10 1249 -55 47
-26 95 -84 81 -98 -4 -4 -242 -11 -529 -15 -629 -10 -785 -18 -889 -46 -43
-12 -86 -26 -97 -32 -11 -5 -27 -10 -37 -10 -47 0 -212 -104 -240 -152 -61
-105 -74 -143 -74 -219 0 -72 2 -78 43 -140 36 -54 51 -67 92 -82 87 -32 186
5 261 100 76 95 138 152 188 175 46 20 70 23 234 26 117 3 200 0 229 -7 69
-18 198 -39 303 -50 185 -20 444 -61 580 -92 51 -12 236 -29 325 -29 206 -1
386 92 451 232 25 55 29 75 29 153 0 81 -3 97 -33 159 -23 50 -53 89 -105 140
-65 65 -179 146 -204 146 -6 0 -30 10 -54 23 -24 13 -78 34 -119 47 -41 13
-80 27 -87 32 -6 5 -17 8 -25 7 -7 -2 -51 9 -98 23 -47 14 -97 29 -112 32 -46
10 -34 40 53 133 31 34 61 72 64 84 4 13 20 44 36 69 48 78 100 228 121 350
26 150 21 413 -11 560 -60 273 -182 515 -370 736 -14 17 -44 52 -66 79 -22 26
-44 53 -50 59 -219 242 -316 341 -450 456 -54 47 -103 90 -109 95 -6 6 -27 22
-46 35 -19 13 -37 27 -40 31 -3 3 -19 13 -36 22 -18 9 -45 30 -61 46 -16 16
-51 40 -79 54 -27 14 -124 72 -216 128 -164 103 -361 216 -547 315 -200 106
-217 119 -240 189 -16 46 -47 112 -81 170 -13 22 -36 63 -52 91 -15 28 -40 63
-55 78 -34 34 -42 81 -49 271 -3 83 -9 170 -14 195 -5 25 -12 108 -15 185 -8
170 -24 237 -60 253 -31 14 -23 15 -63 -5z m-268 -1832 c3 -5 -1 -14 -9 -21
-8 -7 -15 -19 -15 -27 0 -27 -138 -151 -200 -180 -126 -60 -190 -77 -205 -53
-9 15 11 37 41 44 45 12 207 115 283 181 72 63 94 75 105 56z m470 -150 c10
-15 -5 -40 -27 -47 -38 -11 -185 -83 -191 -92 -9 -14 -54 -11 -67 4 -9 11 -8
18 1 29 14 16 79 48 122 58 15 4 34 15 44 24 9 9 35 20 58 24 22 3 44 7 48 8
4 0 9 -3 12 -8z m-1234 -206 c30 -37 -64 -68 -205 -69 -102 -1 -153 13 -163
43 -4 12 13 13 107 8 108 -6 204 4 226 24 13 13 21 11 35 -6z m1353 -74 c8 -8
8 -16 2 -27 -15 -22 -354 -29 -362 -7 -11 29 17 37 144 41 71 2 129 5 130 6 8
7 76 -3 86 -13z"/>
<path d="M963 6229 c-61 -5 -123 -13 -138 -19 -22 -8 -24 -13 -15 -30 11 -21
40 -22 230 -4 61 5 97 29 79 51 -6 7 -19 12 -28 12 -9 -1 -66 -6 -128 -10z"/>
<path d="M1065 6011 c-104 -64 -141 -92 -143 -109 -4 -30 30 -29 80 1 175 105
238 149 238 168 0 4 -8 12 -17 17 -14 7 -50 -10 -158 -77z"/>
</g>
</svg>
