<?xml version="1.0" standalone="no"?>
<!DOCTYPE svg PUBLIC "-//W3C//DTD SVG 20010904//EN"
 "http://www.w3.org/TR/2001/REC-SVG-20010904/DTD/svg10.dtd">
<svg version="1.0" xmlns="http://www.w3.org/2000/svg"
 width="704.000000pt" height="1280.000000pt" viewBox="0 0 704.000000 1280.000000"
 preserveAspectRatio="xMidYMid meet">
<metadata>
Created by potrace 1.16, written by Peter Selinger 2001-2019
</metadata>
<g transform="translate(0.000000,1280.000000) scale(0.100000,-0.100000)"
fill="#000000" stroke="none">
<path d="M4625 9893 c-152 -21 -304 -83 -438 -178 -156 -110 -248 -220 -310
-370 -39 -94 -49 -243 -22 -331 72 -233 208 -341 490 -390 54 -10 174 -17 300
-20 116 -2 269 -9 340 -15 142 -12 517 -5 642 12 88 12 192 50 241 87 35 27
82 110 82 146 0 91 -67 155 -194 183 l-78 18 6 50 c23 174 20 195 -33 195 -23
0 -28 7 -43 53 -33 104 -89 188 -198 298 -93 94 -116 111 -200 152 -129 62
-195 84 -303 102 -86 14 -213 17 -282 8z"/>
<path d="M1819 9600 c-9 -5 -23 -29 -32 -52 -13 -37 -17 -124 -21 -588 -6
-570 -9 -681 -20 -699 -13 -21 -44 -11 -72 22 -15 17 -50 59 -79 92 -86 99
-179 208 -203 240 -13 16 -72 81 -131 145 -59 63 -144 156 -189 206 -86 96
-131 127 -166 115 -45 -17 -49 -47 -51 -356 -1 -159 -5 -394 -10 -520 -7 -195
-6 -242 8 -305 9 -41 20 -106 26 -145 21 -139 38 -233 56 -302 8 -32 15 -73
15 -93 0 -34 38 -148 58 -174 5 -6 14 -25 19 -41 9 -27 59 -105 138 -213 13
-18 57 -60 97 -94 78 -65 84 -73 69 -82 -5 -3 -7 -15 -4 -27 5 -17 11 -20 39
-15 26 5 51 -3 128 -41 l96 -47 32 31 c44 41 77 58 90 45 25 -25 -49 -92 -107
-95 -70 -5 -210 -177 -143 -177 6 0 48 38 93 85 l82 84 56 -29 c170 -88 298
-226 457 -490 34 -58 77 -126 95 -151 19 -26 41 -68 50 -95 9 -26 31 -84 49
-128 70 -171 102 -304 114 -477 14 -205 -15 -551 -69 -824 -10 -55 -21 -110
-23 -122 -2 -13 -12 -40 -23 -60 -16 -34 -25 -40 -82 -55 -139 -37 -217 -153
-159 -237 45 -67 73 -76 254 -76 115 0 168 4 186 13 24 13 88 112 88 136 0 7
13 37 30 67 16 30 30 62 30 72 0 29 13 19 48 -36 18 -29 39 -62 48 -74 15 -21
14 -22 -44 -48 -100 -45 -145 -133 -113 -218 31 -81 180 -98 911 -100 289 -1
653 -1 810 0 350 2 387 0 475 -22 101 -25 185 -78 185 -117 0 -16 -10 -18 -92
-20 -51 0 -120 -3 -153 -5 -33 -2 -231 -5 -440 -7 -392 -3 -637 -20 -745 -50
-30 -8 -75 -20 -100 -27 -62 -16 -177 -76 -227 -118 -72 -61 -113 -170 -113
-296 0 -45 6 -62 40 -113 53 -79 89 -93 203 -78 44 6 68 16 105 46 27 21 54
52 61 68 18 43 155 159 205 175 50 15 416 15 496 0 30 -6 118 -20 195 -31 77
-12 172 -26 210 -33 39 -6 111 -17 160 -24 50 -8 144 -25 210 -40 168 -36 360
-52 434 -37 31 7 71 12 89 12 17 0 33 4 36 9 3 4 31 18 63 29 120 45 207 160
233 308 10 62 10 75 -9 126 -75 214 -298 373 -656 468 -69 18 -197 59 -203 65
-9 8 24 53 52 72 41 26 91 101 146 218 23 50 48 101 55 115 19 39 53 194 66
308 28 248 -27 569 -136 797 -45 93 -162 286 -184 305 -10 8 -24 26 -31 39 -7
13 -22 35 -35 50 -262 304 -446 497 -590 620 -108 92 -293 236 -355 275 -25
16 -99 69 -165 118 -223 164 -249 183 -295 213 -184 119 -269 183 -269 205 0
8 8 34 18 56 21 46 25 48 150 63 79 10 97 20 87 47 -6 15 -16 16 -79 10 -39
-3 -83 -7 -97 -9 -21 -2 -25 2 -23 23 13 176 16 191 40 207 15 10 23 24 21 37
-2 17 -10 21 -37 21 -24 0 -35 5 -36 16 -6 38 -21 69 -72 147 -87 134 -193
229 -367 333 -102 59 -103 60 -137 131 -29 62 -48 94 -116 204 -7 10 -33 54
-59 97 -51 85 -223 329 -307 435 -29 37 -100 134 -158 217 -106 152 -222 285
-249 285 -8 0 -22 -5 -31 -10z m686 -1569 c22 -10 55 -30 73 -46 47 -40 132
-156 132 -181 0 -12 7 -41 15 -64 17 -49 13 -91 -19 -161 -19 -43 -24 -48 -71
-58 -95 -21 -187 8 -270 84 -42 40 -93 130 -103 182 -11 64 0 162 24 198 39
59 143 81 219 46z m-640 -409 c33 -16 105 -72 137 -106 37 -40 88 -156 88
-202 0 -123 -120 -234 -219 -203 -114 36 -183 79 -252 157 -61 68 -82 122 -74
185 12 99 52 154 133 183 44 16 142 9 187 -14z"/>
<path d="M2415 8003 c-66 -8 -76 -14 -92 -51 -20 -49 -11 -110 30 -191 37 -74
81 -122 141 -151 67 -32 108 -27 157 20 41 39 42 41 36 92 -8 77 -40 142 -96
197 -40 39 -132 96 -143 90 -2 -1 -16 -4 -33 -6z"/>
<path d="M1698 7582 c-65 -47 -85 -117 -48 -165 11 -14 20 -37 20 -51 0 -33
62 -103 129 -145 35 -23 60 -31 92 -31 68 0 85 9 115 53 66 100 1 257 -134
325 -86 44 -129 47 -174 14z"/>
</g>
</svg>
