<?xml version="1.0" standalone="no"?>
<!DOCTYPE svg PUBLIC "-//W3C//DTD SVG 20010904//EN"
 "http://www.w3.org/TR/2001/REC-SVG-20010904/DTD/svg10.dtd">
<svg version="1.0" xmlns="http://www.w3.org/2000/svg"
 width="704.000000pt" height="1280.000000pt" viewBox="0 0 704.000000 1280.000000"
 preserveAspectRatio="xMidYMid meet">
<metadata>
Created by potrace 1.16, written by Peter Selinger 2001-2019
</metadata>
<g transform="translate(0.000000,1280.000000) scale(0.100000,-0.100000)"
fill="#000000" stroke="none">
<path d="M2023 9391 c-23 -21 -29 -51 -38 -176 -16 -206 -25 -289 -43 -405
-11 -69 -23 -152 -26 -185 -26 -242 -31 -257 -91 -268 -16 -3 -48 -12 -70 -20
l-40 -15 -90 135 c-49 74 -101 154 -114 177 -13 22 -53 83 -88 134 -34 51 -63
98 -63 104 0 6 -18 34 -40 62 -21 29 -51 77 -64 107 -14 30 -48 79 -76 108
-45 47 -53 52 -87 49 -78 -6 -86 -71 -84 -713 0 -242 5 -502 10 -578 10 -137
10 -139 -13 -176 -96 -151 -161 -342 -186 -541 -7 -52 -16 -100 -21 -106 -5
-7 -46 -17 -90 -24 -73 -11 -80 -15 -77 -34 3 -19 10 -21 94 -24 l91 -3 7 -45
c3 -24 13 -58 22 -75 8 -17 13 -33 10 -36 -3 -3 -42 -24 -88 -47 -87 -43 -111
-67 -91 -87 13 -13 13 -13 150 45 l61 26 74 -73 c74 -72 162 -125 263 -157 22
-7 54 -19 72 -27 41 -17 154 -42 266 -57 15 -2 48 -9 75 -14 26 -6 75 -14 109
-17 95 -9 153 -40 218 -115 32 -36 64 -76 73 -90 9 -14 34 -47 54 -73 21 -27
38 -53 38 -58 0 -10 98 -157 126 -189 26 -31 165 -404 180 -484 21 -110 31
-549 15 -653 -62 -418 -70 -461 -82 -469 -5 -3 -9 -13 -9 -23 0 -9 -9 -36 -20
-59 -17 -35 -25 -42 -50 -42 -29 0 -99 -28 -131 -53 -39 -31 -69 -92 -69 -142
0 -45 4 -55 36 -86 30 -29 43 -35 97 -39 34 -3 119 -3 188 0 l126 5 29 34 c31
37 64 97 64 117 0 8 14 35 30 61 17 26 30 55 30 65 0 24 17 23 25 -2 3 -11 24
-42 46 -70 21 -27 39 -54 39 -59 0 -6 -17 -15 -39 -21 -113 -30 -176 -161
-118 -247 12 -18 31 -35 42 -38 59 -12 187 -26 320 -35 196 -13 984 -12 1100
1 115 14 668 -4 735 -24 25 -7 64 -23 86 -34 44 -23 98 -79 89 -93 -7 -11
-328 -23 -720 -25 -371 -2 -577 -14 -673 -39 -34 -9 -90 -23 -124 -32 -100
-25 -228 -95 -271 -147 -55 -67 -85 -151 -86 -235 0 -74 15 -115 66 -178 47
-58 103 -74 181 -49 71 22 109 47 149 99 75 95 158 174 198 186 65 21 382 25
463 7 37 -9 90 -19 117 -22 28 -4 97 -13 155 -20 58 -8 116 -16 130 -19 14 -2
68 -9 120 -15 52 -6 172 -27 265 -46 94 -19 203 -37 244 -39 40 -3 88 -8 107
-12 48 -9 226 24 305 57 94 38 163 99 198 174 56 119 57 203 4 311 -26 54
-136 187 -172 208 -9 6 -27 20 -40 32 -45 41 -179 100 -331 144 -41 12 -83 26
-92 31 -10 5 -23 9 -29 9 -6 0 -49 12 -95 26 l-83 26 14 28 c8 15 36 46 62 68
40 33 61 65 120 184 105 207 133 334 133 592 0 391 -132 725 -426 1076 -228
273 -498 542 -679 677 -172 129 -329 241 -485 348 -69 48 -152 106 -185 131
-33 24 -73 51 -90 60 -16 9 -73 46 -125 83 -177 124 -218 151 -229 151 -15 0
-28 83 -47 294 -4 49 -19 115 -41 175 -18 53 -47 134 -62 181 -16 47 -54 137
-84 200 -30 63 -67 144 -82 180 -49 115 -191 356 -244 415 -20 22 -56 69 -81
104 -25 35 -72 100 -105 145 -32 45 -87 123 -122 175 -119 177 -171 218 -220
172z m67 -1526 c17 -16 30 -33 30 -37 0 -5 10 -28 22 -51 31 -61 38 -244 12
-319 -10 -29 -25 -62 -35 -73 -9 -11 -19 -27 -22 -36 -8 -25 -97 -79 -130 -79
-97 0 -180 109 -194 254 -14 151 39 286 134 346 40 25 55 29 100 27 42 -3 59
-9 83 -32z m-690 -203 c48 -72 81 -182 81 -270 0 -122 -66 -230 -155 -257 -59
-18 -79 -9 -128 55 -67 87 -101 264 -70 366 28 95 116 167 197 162 36 -3 43
-8 75 -56z m1280 -271 c0 -15 -14 -22 -67 -36 -38 -10 -96 -26 -129 -37 -70
-23 -97 -21 -102 6 -5 25 12 34 85 42 35 3 63 10 63 14 0 14 52 28 103 29 40
1 47 -2 47 -18z m-60 -251 c96 -13 133 -28 138 -54 7 -33 -12 -38 -64 -18 -27
11 -103 25 -169 32 -66 6 -123 14 -128 17 -4 2 -2 14 4 25 12 23 37 22 219 -2z"/>
<path d="M1988 7847 c-38 -18 -67 -46 -86 -86 -26 -54 -22 -230 6 -292 49
-106 131 -122 195 -37 38 49 52 164 33 263 -13 64 -48 132 -77 149 -31 18 -35
19 -71 3z"/>
<path d="M1288 7663 c-44 -53 -50 -75 -52 -172 0 -53 2 -111 7 -129 10 -45 51
-108 83 -129 25 -16 28 -16 63 3 50 27 65 64 65 159 1 90 -16 160 -52 223 -36
62 -83 81 -114 45z"/>
</g>
</svg>
