<?xml version="1.0" standalone="no"?>
<!DOCTYPE svg PUBLIC "-//W3C//DTD SVG 20010904//EN"
 "http://www.w3.org/TR/2001/REC-SVG-20010904/DTD/svg10.dtd">
<svg version="1.0" xmlns="http://www.w3.org/2000/svg"
 width="704.000000pt" height="1280.000000pt" viewBox="0 0 704.000000 1280.000000"
 preserveAspectRatio="xMidYMid meet">
<metadata>
Created by potrace 1.16, written by Peter Selinger 2001-2019
</metadata>
<g transform="translate(0.000000,1280.000000) scale(0.100000,-0.100000)"
fill="#000000" stroke="none">
<path d="M1161 9299 c-23 -9 -24 -12 -18 -87 4 -48 16 -101 32 -141 15 -35 41
-121 60 -190 18 -69 45 -169 60 -221 15 -52 31 -108 36 -125 4 -16 19 -64 32
-105 26 -80 42 -139 58 -209 5 -24 14 -50 20 -57 14 -17 -15 -59 -53 -74 -29
-13 -26 -14 -148 56 -30 17 -89 49 -130 71 -41 22 -165 89 -275 150 -302 164
-399 209 -433 197 -46 -16 -50 -63 -12 -164 88 -239 207 -587 219 -640 48
-222 398 -846 574 -1022 65 -65 162 -102 385 -148 54 -11 113 -30 140 -46 159
-92 245 -180 398 -403 63 -91 184 -282 184 -289 0 -5 14 -42 31 -83 17 -41 40
-103 51 -139 11 -36 24 -69 28 -75 4 -5 18 -62 30 -125 20 -100 23 -148 24
-370 1 -239 -1 -270 -32 -485 -18 -126 -39 -246 -46 -265 -7 -19 -20 -55 -28
-80 -14 -44 -16 -45 -69 -56 -73 -15 -110 -35 -152 -85 -74 -86 -50 -185 53
-217 40 -13 326 -18 354 -7 18 8 96 119 96 138 0 16 64 137 71 135 12 -5 99
-116 99 -126 0 -5 -15 -13 -32 -16 -111 -21 -184 -157 -131 -246 28 -48 53
-54 344 -76 84 -6 895 -10 1407 -6 341 2 418 -5 515 -47 59 -26 112 -74 104
-93 -8 -22 -191 -30 -692 -33 -433 -2 -613 -13 -725 -44 -41 -11 -97 -26 -125
-32 -27 -6 -65 -21 -85 -33 -19 -12 -48 -28 -64 -36 -16 -8 -50 -35 -76 -60
-60 -57 -90 -133 -97 -246 -5 -76 -3 -85 23 -130 32 -56 40 -64 74 -86 42 -26
94 -30 157 -12 72 21 114 52 158 118 45 68 116 132 173 159 43 19 64 21 247
21 205 1 204 1 555 -59 47 -8 128 -19 180 -25 52 -5 115 -14 140 -19 25 -5
101 -20 170 -35 162 -33 161 -33 260 -40 98 -8 288 14 323 37 12 7 40 20 62
27 58 19 141 102 177 179 80 168 34 319 -148 483 -111 101 -225 153 -514 238
-122 35 -170 51 -170 56 0 16 29 54 74 99 37 37 67 84 108 166 111 224 144
380 135 647 -5 172 -26 293 -77 452 -47 143 -163 352 -276 495 -68 86 -248
291 -306 350 -27 28 -93 95 -146 151 -110 113 -191 185 -340 300 -104 80 -114
87 -214 152 -31 20 -89 62 -130 93 -41 31 -85 62 -98 69 -13 7 -57 39 -98 72
-41 32 -88 66 -105 75 -18 9 -34 19 -37 23 -3 4 -36 28 -75 54 -38 25 -99 69
-135 96 -36 28 -86 65 -112 81 -52 34 -55 42 -34 91 31 71 50 183 50 300 l0
117 120 51 c126 54 153 71 142 89 -14 21 -67 10 -166 -34 -55 -25 -103 -45
-108 -44 -6 0 -57 95 -70 130 -2 5 33 47 77 93 45 47 81 89 81 94 0 9 -23 22
-39 22 -4 0 -41 -31 -82 -70 -40 -38 -78 -70 -82 -70 -5 0 -34 22 -65 49 -97
84 -217 151 -357 201 -96 34 -211 60 -266 60 -23 0 -52 20 -138 98 -185 166
-357 308 -583 482 -54 41 -124 95 -156 120 -240 185 -287 212 -341 189z m1297
-1089 c57 -26 142 -95 142 -116 0 -4 8 -14 18 -23 37 -35 78 -116 81 -161 1
-19 -5 -51 -13 -70 -12 -29 -25 -39 -74 -59 -85 -33 -179 -18 -278 45 -40 25
-124 117 -124 136 0 8 -5 19 -10 24 -6 6 -13 46 -16 90 -6 72 -4 82 16 107 51
64 151 75 258 27z m-533 -470 c82 -40 165 -116 203 -188 39 -72 40 -107 7
-172 -31 -62 -76 -96 -144 -111 -59 -12 -92 -5 -183 38 -27 13 -52 23 -56 23
-11 0 -120 114 -149 155 -63 91 -17 226 92 270 27 11 125 23 150 18 11 -3 47
-17 80 -33z m-125 -735 c19 -22 7 -38 -51 -70 -30 -16 -85 -51 -122 -77 -37
-27 -72 -46 -77 -43 -16 10 -11 41 9 59 31 29 205 144 217 145 6 1 17 -6 24
-14z m128 -138 c13 -15 9 -24 -70 -139 -31 -46 -67 -105 -79 -131 -18 -36 -28
-47 -43 -45 -48 7 -42 31 41 154 44 65 87 131 96 147 19 29 38 34 55 14z"/>
<path d="M2284 8189 c-29 -15 -54 -61 -54 -102 0 -25 10 -49 35 -81 19 -26 35
-49 35 -52 0 -17 93 -99 136 -120 57 -27 72 -29 127 -13 30 8 42 18 53 44 23
55 18 126 -11 166 -14 19 -33 46 -42 60 -9 14 -43 43 -76 64 -50 33 -69 39
-121 41 -33 2 -70 -2 -82 -7z"/>
<path d="M1745 7715 c-36 -18 -75 -75 -75 -109 0 -41 85 -175 112 -176 4 0 19
-11 33 -24 48 -44 100 -61 182 -57 35 2 90 63 98 109 15 89 -90 214 -210 251
-79 25 -100 26 -140 6z"/>
</g>
</svg>
