<?xml version="1.0" standalone="no"?>
<!DOCTYPE svg PUBLIC "-//W3C//DTD SVG 20010904//EN"
 "http://www.w3.org/TR/2001/REC-SVG-20010904/DTD/svg10.dtd">
<svg version="1.0" xmlns="http://www.w3.org/2000/svg"
 width="704.000000pt" height="1280.000000pt" viewBox="0 0 704.000000 1280.000000"
 preserveAspectRatio="xMidYMid meet">
<metadata>
Created by potrace 1.16, written by Peter Selinger 2001-2019
</metadata>
<g transform="translate(0.000000,1280.000000) scale(0.100000,-0.100000)"
fill="#000000" stroke="none">
<path d="M2027 9398 c-33 -26 -42 -84 -62 -398 -1 -25 -8 -76 -15 -115 -20
-120 -29 -187 -36 -275 -3 -47 -10 -101 -15 -120 -5 -19 -9 -49 -9 -67 0 -37
-5 -41 -108 -77 l-72 -25 -51 82 c-28 45 -66 102 -84 127 -19 25 -48 70 -66
100 -17 30 -55 89 -83 130 -28 41 -61 94 -73 117 -12 23 -31 51 -42 62 -12 12
-31 42 -43 68 -27 61 -67 119 -109 161 -26 27 -39 32 -68 30 -32 -3 -37 -7
-52 -48 -10 -25 -22 -94 -27 -155 -11 -119 -8 -727 6 -1040 l8 -190 -33 -58
c-97 -165 -160 -350 -169 -502 -8 -119 -17 -131 -96 -140 -90 -9 -100 -13 -96
-38 3 -20 9 -22 79 -23 41 0 82 -3 91 -6 9 -4 19 -24 23 -49 4 -23 13 -56 21
-74 l13 -32 -92 -48 c-101 -53 -114 -64 -91 -82 12 -9 30 -6 82 13 37 14 77
32 89 40 33 21 62 17 72 -8 21 -54 146 -140 291 -200 93 -39 235 -78 285 -78
19 0 35 -5 35 -11 0 -7 9 -9 21 -6 11 3 45 -1 75 -9 30 -8 70 -14 89 -14 19 0
54 -4 77 -10 24 -5 55 -12 70 -15 17 -3 49 -32 95 -87 70 -86 183 -238 183
-249 0 -9 86 -138 114 -172 37 -45 134 -295 177 -457 17 -62 21 -120 26 -325
3 -154 1 -282 -5 -335 -29 -223 -65 -448 -78 -474 -7 -16 -12 -31 -10 -35 2
-3 -6 -26 -18 -51 -19 -40 -26 -46 -61 -51 -22 -3 -57 -13 -78 -23 -48 -24
-117 -101 -119 -135 -3 -68 3 -86 44 -124 l42 -38 184 3 184 3 33 39 c18 22
39 58 46 80 7 23 21 56 32 75 11 18 26 49 32 68 l12 35 23 -33 c13 -19 36 -49
52 -67 15 -18 28 -37 28 -43 0 -5 -29 -23 -65 -39 -57 -26 -67 -34 -91 -81
-22 -44 -25 -61 -20 -103 10 -91 18 -94 341 -121 186 -16 864 -20 1182 -6 207
8 637 -4 693 -21 80 -23 180 -95 180 -128 0 -14 -348 -24 -751 -22 -130 1
-270 -2 -310 -8 -41 -5 -113 -10 -160 -11 -173 -4 -398 -71 -508 -152 -67 -49
-73 -56 -111 -129 -24 -45 -31 -74 -35 -139 -4 -74 -2 -88 21 -136 31 -63 64
-93 122 -112 38 -13 49 -12 100 4 77 24 115 52 166 121 58 80 139 151 189 166
88 27 436 15 627 -21 30 -6 153 -24 273 -41 121 -17 249 -37 285 -44 234 -51
418 -71 502 -56 30 6 73 13 95 16 22 3 76 20 119 37 99 40 164 98 203 182 23
51 27 73 28 151 0 76 -4 98 -24 140 -38 76 -105 153 -220 251 -54 47 -285 143
-343 143 -9 0 -20 5 -23 10 -3 6 -19 10 -35 10 -16 0 -32 5 -35 10 -3 6 -15
10 -26 10 -10 0 -27 4 -37 9 -9 5 -37 15 -62 22 -25 7 -49 16 -53 20 -12 10
12 46 61 92 23 22 42 46 42 53 0 8 4 14 9 14 24 0 161 319 175 410 3 19 9 49
12 65 4 17 8 113 10 215 4 167 1 197 -21 305 -36 176 -67 265 -138 405 -93
185 -186 310 -413 560 -254 280 -356 376 -544 518 -63 47 -117 89 -120 93 -3
3 -66 48 -140 98 -186 127 -299 207 -339 239 -19 15 -49 36 -66 47 -18 11 -59
38 -91 60 -33 22 -66 44 -76 50 -9 5 -40 27 -70 48 -29 21 -89 62 -133 90
l-80 52 -18 160 c-22 199 -27 220 -83 380 -120 339 -337 764 -474 929 -43 51
-169 224 -285 391 -121 175 -161 208 -208 173z m45 -1519 c18 -13 44 -51 64
-93 32 -66 34 -77 34 -171 0 -64 -6 -121 -16 -155 -18 -60 -72 -136 -120 -169
-81 -56 -190 4 -237 129 -42 113 -26 289 33 375 65 94 174 132 242 84z m-698
-181 c25 -23 66 -90 66 -108 0 -6 -4 -10 -10 -10 -5 0 -10 7 -10 15 0 29 -53
76 -87 77 -59 2 -89 -43 -98 -150 -14 -149 48 -286 129 -286 24 0 44 7 58 21
25 26 50 129 37 155 -11 21 -11 69 0 86 12 20 22 -29 22 -110 0 -85 -27 -150
-86 -208 -37 -36 -51 -44 -93 -48 -48 -4 -49 -4 -94 49 -91 108 -121 287 -68
407 27 60 55 90 105 113 54 25 98 24 129 -3z m1316 -298 c0 -18 -45 -39 -120
-56 -41 -9 -79 -20 -85 -24 -5 -4 -26 -12 -47 -18 -39 -11 -58 -1 -58 29 0 19
7 22 95 39 33 7 65 16 70 20 24 19 145 27 145 10z m-120 -255 c116 -14 147
-20 168 -33 24 -16 27 -29 12 -52 -8 -12 -13 -13 -29 -3 -26 16 -168 41 -249
44 -65 2 -89 16 -78 45 6 16 29 16 176 -1z"/>
<path d="M1965 7837 c-22 -12 -50 -40 -63 -62 -21 -37 -23 -49 -19 -151 4 -99
7 -117 33 -165 32 -59 81 -95 115 -84 32 10 88 72 97 108 16 58 14 184 -4 246
-18 65 -69 131 -100 131 -11 0 -37 -10 -59 -23z"/>
</g>
</svg>
