<?xml version="1.0" standalone="no"?>
<!DOCTYPE svg PUBLIC "-//W3C//DTD SVG 20010904//EN"
 "http://www.w3.org/TR/2001/REC-SVG-20010904/DTD/svg10.dtd">
<svg version="1.0" xmlns="http://www.w3.org/2000/svg"
 width="704.000000pt" height="1280.000000pt" viewBox="0 0 704.000000 1280.000000"
 preserveAspectRatio="xMidYMid meet">
<metadata>
Created by potrace 1.16, written by Peter Selinger 2001-2019
</metadata>
<g transform="translate(0.000000,1280.000000) scale(0.100000,-0.100000)"
fill="#000000" stroke="none">
<path d="M5710 10245 c0 -16 7 -28 18 -31 65 -21 64 -19 11 -72 -54 -54 -60
-74 -26 -96 27 -18 163 -50 176 -41 21 12 -2 35 -52 51 -29 9 -55 19 -59 23
-5 4 19 33 52 65 33 32 60 65 60 72 0 8 -12 16 -27 20 -16 3 -51 12 -80 20
-68 19 -73 18 -73 -11z"/>
<path d="M6067 10203 c-13 -12 -7 -31 19 -62 27 -32 25 -35 -15 -31 -13 1 -43
-4 -67 -10 -36 -10 -44 -17 -44 -37 0 -30 22 -66 74 -120 68 -73 107 -48 41
26 -52 58 -48 62 54 59 49 -2 93 0 97 4 9 9 -23 55 -88 127 -45 50 -58 58 -71
44z"/>
<path d="M4590 9894 c-276 -55 -549 -240 -669 -456 -94 -168 -111 -331 -51
-492 38 -99 132 -201 236 -254 117 -60 317 -92 570 -92 99 0 218 -5 265 -10
55 -6 197 -7 400 -1 350 11 425 23 517 85 78 52 111 148 81 235 -16 46 -83 88
-176 110 -89 21 -81 3 -68 156 8 87 3 100 -44 107 -18 2 -28 16 -46 63 -52
135 -161 283 -268 364 -69 52 -220 124 -332 156 -76 23 -114 27 -240 30 -82 2
-161 1 -175 -1z"/>
<path d="M1812 9598 c-39 -47 -41 -80 -46 -578 -3 -267 -8 -547 -12 -623 -8
-159 -17 -174 -67 -116 -16 19 -53 59 -81 89 -29 30 -62 68 -74 83 -23 31 -92
109 -272 306 -64 69 -149 163 -189 209 -106 118 -152 137 -195 79 -20 -27 -21
-42 -25 -405 -7 -633 -7 -724 6 -777 7 -27 14 -68 17 -90 3 -22 10 -62 16 -90
6 -27 14 -75 19 -105 5 -30 17 -77 25 -105 9 -27 16 -63 16 -80 1 -51 35 -157
73 -225 20 -36 49 -87 63 -115 45 -84 111 -165 184 -222 66 -53 68 -56 63 -90
l-6 -35 42 7 c27 4 47 3 56 -5 8 -6 45 -27 83 -45 62 -29 72 -31 98 -20 16 7
38 22 48 34 11 11 30 21 43 21 20 0 23 -4 18 -22 -4 -13 -20 -35 -37 -50 l-31
-27 53 -28 c91 -49 165 -110 242 -200 78 -91 193 -252 223 -313 10 -19 39 -64
65 -100 61 -85 161 -343 201 -520 29 -132 37 -486 15 -667 -28 -224 -57 -405
-71 -448 -7 -22 -19 -62 -26 -88 -15 -54 -24 -61 -87 -71 -119 -18 -211 -141
-168 -224 39 -75 96 -93 285 -90 164 3 175 8 224 103 54 105 59 115 77 167
l18 51 27 -44 c15 -24 41 -61 57 -81 l29 -37 -43 -13 c-29 -8 -60 -30 -97 -67
l-53 -54 4 -59 c4 -49 9 -64 34 -88 27 -27 38 -30 139 -40 220 -22 564 -28
1230 -24 710 5 738 4 857 -38 55 -20 128 -75 128 -97 0 -18 -12 -19 -187 -27
-104 -4 -345 -8 -538 -9 -397 -2 -577 -13 -685 -43 -41 -12 -95 -27 -120 -33
-117 -31 -247 -121 -294 -202 -29 -50 -46 -127 -46 -203 0 -47 6 -66 36 -114
30 -49 44 -62 89 -80 44 -18 61 -20 103 -12 74 13 136 54 181 120 34 49 93
107 151 149 45 32 132 45 302 44 93 0 175 -4 181 -8 7 -4 35 -10 62 -14 28 -4
111 -17 185 -29 74 -12 169 -26 210 -30 112 -12 219 -31 433 -75 39 -8 99 -17
132 -20 33 -3 79 -8 102 -11 52 -8 249 14 283 31 14 7 50 25 80 39 128 59 197
164 207 313 6 79 5 83 -35 165 -35 69 -55 95 -122 156 -133 122 -240 178 -454
237 -200 55 -246 72 -246 91 0 8 27 42 60 76 129 132 219 360 250 632 22 199
-13 480 -85 671 -42 113 -182 371 -223 414 -9 9 -30 35 -47 56 -147 198 -471
541 -655 695 -122 101 -266 212 -301 230 -13 7 -40 25 -59 40 -19 15 -80 59
-135 99 -55 39 -140 100 -190 136 -49 36 -142 102 -205 146 -147 104 -162 117
-154 143 18 66 26 76 77 91 28 8 62 15 76 15 52 0 101 20 101 41 0 28 -15 30
-113 16 -49 -7 -90 -11 -91 -8 -2 3 0 31 5 61 4 30 8 75 8 99 1 34 7 51 28 73
31 32 22 52 -24 54 -22 0 -29 7 -34 30 -30 144 -252 375 -466 482 -58 30 -62
34 -108 124 -26 51 -60 112 -76 135 -16 23 -29 44 -29 46 0 3 -15 29 -33 58
-18 30 -43 70 -54 89 -39 63 -85 128 -270 376 -100 134 -203 276 -228 315 -26
39 -76 102 -113 140 -67 68 -98 83 -120 57z m723 -1589 c83 -47 175 -159 175
-215 0 -18 4 -35 9 -38 27 -17 16 -152 -16 -188 -8 -9 -12 -21 -9 -26 5 -9 -7
-12 -110 -28 -81 -12 -184 41 -257 134 -53 68 -67 111 -67 211 0 106 40 170
115 184 44 7 113 -7 160 -34z m-733 -369 c149 -24 302 -220 283 -365 -5 -46
-13 -60 -54 -103 -78 -81 -134 -87 -259 -27 -66 32 -181 145 -211 208 -20 40
-22 56 -16 110 13 116 68 170 190 186 6 0 36 -3 67 -9z"/>
<path d="M2335 7977 c-8 -13 -18 -44 -21 -69 -5 -37 -1 -57 20 -104 40 -87 71
-127 129 -167 86 -60 141 -61 196 -6 36 36 39 68 15 150 -18 60 -51 110 -105
157 -50 44 -98 62 -163 62 -47 0 -58 -4 -71 -23z"/>
<path d="M1692 7577 c-31 -22 -45 -42 -53 -70 -12 -46 -5 -100 16 -117 8 -7
15 -20 15 -30 0 -25 72 -103 128 -139 97 -62 198 -29 233 76 9 28 8 44 -6 86
-35 109 -145 206 -250 219 -34 5 -48 1 -83 -25z"/>
</g>
</svg>
