<?xml version="1.0" standalone="no"?>
<!DOCTYPE svg PUBLIC "-//W3C//DTD SVG 20010904//EN"
 "http://www.w3.org/TR/2001/REC-SVG-20010904/DTD/svg10.dtd">
<svg version="1.0" xmlns="http://www.w3.org/2000/svg"
 width="704.000000pt" height="1280.000000pt" viewBox="0 0 704.000000 1280.000000"
 preserveAspectRatio="xMidYMid meet">
<metadata>
Created by potrace 1.16, written by Peter Selinger 2001-2019
</metadata>
<g transform="translate(0.000000,1280.000000) scale(0.100000,-0.100000)"
fill="#000000" stroke="none">
<path d="M3950 9842 c-8 -2 -45 -25 -83 -50 -64 -43 -72 -45 -184 -58 -128
-15 -193 -39 -301 -113 -79 -53 -115 -96 -102 -121 39 -72 242 -168 370 -174
59 -2 63 -4 114 -55 35 -35 55 -48 58 -40 4 11 22 13 71 11 65 -4 67 -3 67 20
0 13 -5 29 -12 36 -17 17 -4 25 55 33 91 13 188 45 271 89 l81 43 52 -33 c66
-41 137 -51 170 -23 l22 18 -49 50 c-26 28 -50 59 -52 71 -1 11 13 51 32 89
24 47 35 83 35 111 0 60 -15 71 -53 40 -16 -14 -33 -26 -36 -26 -6 0 -42 -36
-102 -103 l-35 -38 -52 25 c-29 13 -97 36 -152 51 -55 15 -106 32 -112 37 -7
6 -36 14 -65 18 -51 8 -51 9 22 7 68 -2 75 0 77 18 6 42 -61 84 -107 67z m600
-84 c0 -13 -7 -34 -14 -48 -31 -55 -76 -148 -76 -158 0 -6 8 -17 18 -24 20
-16 70 -81 74 -98 4 -16 -61 -23 -78 -9 -8 6 -14 24 -14 40 0 15 -5 39 -11 53
-10 22 -14 23 -26 10 -16 -16 -43 -19 -43 -5 0 5 6 11 13 14 6 2 -5 6 -26 9
-30 3 -41 0 -48 -14 -7 -14 -6 -18 6 -18 8 0 15 -4 15 -9 0 -11 -90 -54 -98
-46 -3 3 4 8 16 12 12 3 22 13 22 23 0 10 6 21 13 23 6 3 2 6 -10 6 -16 1 -23
7 -23 21 0 20 -4 22 -45 25 -55 4 -105 19 -102 29 3 6 -2 26 -9 45 -17 40 -11
50 17 33 11 -7 50 -22 86 -33 36 -11 75 -30 87 -42 14 -14 31 -21 49 -19 30 4
117 83 117 107 0 8 5 15 10 15 6 0 10 5 10 12 0 14 50 68 62 68 4 0 8 -10 8
-22z m-960 -135 c18 -31 21 -49 18 -102 -3 -45 -9 -67 -21 -76 -9 -7 -17 -17
-17 -23 0 -40 -111 -31 -165 13 -90 73 -89 70 -68 102 21 33 43 52 61 53 15 0
17 -86 2 -95 -5 -3 -10 -13 -10 -22 0 -12 7 -14 35 -10 33 5 36 4 42 -24 6
-29 23 -41 23 -15 0 8 6 17 13 20 9 3 8 8 -5 18 -21 18 -12 69 13 75 27 7 31
34 15 81 l-15 42 28 0 c23 0 34 -8 51 -37z m490 -98 c0 -22 4 -25 38 -26 40
-1 107 -16 81 -18 -9 -1 -15 -10 -15 -22 1 -12 -8 -26 -19 -33 -11 -6 -22 -14
-25 -17 -3 -3 -20 -9 -37 -13 -18 -3 -48 -9 -65 -12 -18 -4 -35 -10 -38 -14
-3 -5 -33 -12 -68 -17 -63 -10 -86 -3 -63 20 8 8 11 8 11 -1 0 -7 5 -12 10
-12 6 0 10 7 10 15 0 9 9 15 23 15 29 0 57 19 40 27 -21 8 -15 39 11 53 15 8
27 25 31 46 5 31 9 34 40 34 31 0 35 -3 35 -25z"/>
<path d="M1155 9287 c-16 -12 -17 -23 -11 -81 4 -37 22 -114 41 -171 29 -90
77 -260 106 -375 4 -19 26 -87 49 -152 22 -64 40 -127 40 -140 0 -12 11 -45
23 -73 13 -27 22 -55 20 -62 -2 -6 3 -28 12 -49 15 -37 15 -38 -12 -66 -43
-45 -63 -45 -140 0 -37 22 -95 53 -128 70 -33 16 -84 46 -114 66 -29 20 -61
36 -70 36 -9 0 -21 4 -27 9 -13 14 -262 149 -387 211 -60 29 -123 53 -139 53
-63 0 -71 -63 -23 -183 15 -36 40 -105 56 -155 16 -49 33 -99 38 -110 6 -11
17 -42 26 -70 9 -27 20 -54 24 -60 7 -10 16 -38 76 -240 15 -49 32 -103 39
-120 7 -16 19 -46 26 -65 40 -104 196 -386 333 -601 60 -94 176 -229 227 -262
42 -27 221 -88 300 -102 41 -8 95 -21 119 -29 56 -21 64 -20 49 3 -10 17 -1
35 68 136 105 155 127 180 147 172 26 -10 21 -31 -21 -84 -57 -73 -113 -160
-130 -204 -8 -21 -21 -39 -29 -39 -25 0 -13 -26 20 -42 58 -29 115 -77 172
-145 89 -107 188 -243 224 -305 18 -32 52 -84 75 -115 46 -61 75 -125 130
-283 19 -52 38 -108 44 -125 43 -119 69 -571 43 -750 -33 -233 -41 -287 -55
-365 -7 -47 -19 -96 -24 -110 -6 -14 -16 -47 -24 -74 -14 -53 -23 -59 -99 -70
-77 -11 -150 -82 -164 -157 -7 -40 17 -93 55 -121 48 -34 368 -49 405 -18 22
18 95 130 95 146 0 6 14 42 31 79 l31 68 28 -49 c15 -27 38 -59 49 -71 27 -29
27 -43 -1 -43 -36 0 -98 -43 -130 -91 -26 -38 -29 -51 -26 -95 4 -51 30 -99
58 -108 8 -3 85 -12 170 -21 177 -18 1167 -32 1260 -18 87 13 686 1 702 -15 6
-6 22 -12 34 -12 25 0 112 -45 150 -78 22 -20 24 -26 13 -37 -17 -17 -281 -27
-734 -30 -364 -2 -592 -16 -690 -44 -38 -11 -92 -26 -120 -34 -65 -18 -107
-40 -175 -90 -74 -55 -75 -56 -112 -128 -28 -55 -33 -76 -36 -151 -4 -77 -1
-91 17 -114 12 -15 21 -32 21 -38 0 -23 62 -75 97 -82 55 -10 143 4 190 31 23
14 54 44 70 67 37 56 132 152 168 171 98 50 407 53 595 7 19 -5 80 -14 135
-20 55 -6 118 -15 140 -20 22 -5 81 -14 130 -20 92 -12 166 -24 245 -41 130
-27 216 -39 315 -45 60 -3 112 -7 115 -9 4 -2 38 3 76 11 38 7 83 14 100 14
41 0 163 61 215 108 76 68 122 195 108 296 -14 105 -53 172 -162 279 -103 101
-218 159 -462 232 -44 13 -116 35 -160 48 -46 14 -81 30 -83 38 -1 8 27 44 62
82 110 115 213 348 241 542 27 186 14 459 -29 610 -63 223 -102 306 -249 529
-66 100 -197 256 -389 462 -220 236 -487 467 -653 565 -27 16 -77 49 -110 74
-33 25 -91 66 -130 92 -38 26 -90 63 -115 84 -25 20 -103 76 -175 125 -71 49
-168 117 -214 151 -46 35 -86 63 -90 63 -3 0 -11 8 -18 19 -9 15 -7 32 11 87
35 104 50 207 43 305 l-7 87 43 20 c23 11 81 37 130 57 67 30 87 43 87 58 0
17 -5 19 -37 15 -21 -3 -82 -24 -136 -47 -94 -41 -117 -44 -117 -17 0 6 -12
36 -26 65 l-27 53 83 83 c57 57 81 88 77 99 -12 31 -44 15 -113 -54 -38 -38
-76 -70 -85 -70 -8 0 -31 16 -50 36 -42 44 -186 140 -237 159 -20 7 -67 27
-103 44 -66 30 -241 71 -305 71 -29 0 -48 14 -136 98 -86 82 -177 161 -292
252 -11 8 -38 31 -60 51 -23 19 -53 44 -67 55 -15 10 -57 44 -95 75 -38 30
-88 68 -111 85 -23 16 -101 75 -175 130 -174 133 -239 163 -283 131z m1294
-1078 c30 -16 60 -29 66 -29 13 0 137 -132 144 -153 2 -7 12 -24 22 -39 23
-32 25 -98 4 -142 -17 -35 -78 -69 -147 -81 -70 -13 -220 55 -282 127 -48 55
-80 164 -72 238 9 72 47 106 131 113 53 4 70 0 134 -34z m-616 -439 c37 -6 85
-19 105 -29 57 -29 161 -130 187 -181 27 -54 40 -121 27 -146 -5 -11 -15 -32
-23 -48 -8 -16 -30 -42 -50 -58 -88 -71 -270 -35 -387 76 -102 96 -120 131
-114 221 5 70 59 132 139 161 46 16 34 16 116 4z m-26 -766 c9 -25 -8 -46 -64
-76 -28 -15 -81 -48 -119 -72 -37 -25 -71 -43 -76 -40 -28 18 14 74 84 110 16
8 52 33 81 54 56 43 84 50 94 24z"/>
<path d="M2267 8179 c-34 -30 -49 -118 -25 -147 7 -9 20 -30 28 -45 8 -16 44
-57 81 -92 57 -53 76 -65 123 -76 49 -11 61 -10 94 5 30 13 42 27 54 61 25 68
7 124 -65 205 -64 71 -116 99 -195 106 -62 6 -70 4 -95 -17z"/>
<path d="M1756 7721 c-14 -9 -26 -19 -26 -23 0 -5 -6 -8 -13 -8 -14 0 -47 -69
-47 -99 0 -34 34 -86 94 -145 77 -74 123 -95 202 -96 58 0 64 2 98 37 43 44
47 85 16 155 -22 51 -98 126 -157 156 -62 32 -136 42 -167 23z"/>
</g>
</svg>
