<?xml version="1.0" standalone="no"?>
<!DOCTYPE svg PUBLIC "-//W3C//DTD SVG 20010904//EN"
 "http://www.w3.org/TR/2001/REC-SVG-20010904/DTD/svg10.dtd">
<svg version="1.0" xmlns="http://www.w3.org/2000/svg"
 width="704.000000pt" height="1280.000000pt" viewBox="0 0 704.000000 1280.000000"
 preserveAspectRatio="xMidYMid meet">
<metadata>
Created by potrace 1.16, written by Peter Selinger 2001-2019
</metadata>
<g transform="translate(0.000000,1280.000000) scale(0.100000,-0.100000)"
fill="#000000" stroke="none">
<path d="M3615 10179 c-129 -12 -236 -67 -326 -168 -93 -103 -114 -164 -114
-331 0 -122 1 -126 34 -192 19 -37 52 -90 73 -118 21 -28 38 -52 38 -53 0 -2
-71 -3 -157 -3 -239 0 -364 -32 -387 -96 -11 -32 10 -63 60 -84 63 -26 469
-60 537 -44 43 9 87 45 87 69 0 8 -12 28 -27 43 -35 36 -21 36 100 2 81 -24
103 -26 193 -21 56 3 118 13 139 21 27 12 55 14 108 10 75 -6 268 9 347 28
100 23 270 79 284 94 19 19 20 26 4 42 -18 18 -62 14 -141 -13 -84 -30 -130
-41 -247 -61 -93 -15 -200 -19 -200 -6 0 4 20 27 44 51 67 66 126 211 126 312
0 168 -92 349 -224 438 -98 65 -215 92 -351 80z m-419 -959 c116 -20 154 -32
154 -46 0 -17 -15 -17 -225 -4 -201 14 -225 17 -225 35 0 8 13 15 33 18 67 8
206 7 263 -3z"/>
<path d="M1206 9314 c-10 -10 -16 -33 -16 -62 0 -48 5 -72 33 -172 9 -30 25
-91 37 -135 12 -44 29 -111 40 -150 10 -38 24 -97 30 -130 7 -33 20 -82 30
-110 18 -53 42 -140 58 -215 5 -25 19 -79 30 -120 20 -75 15 -110 -15 -110 -6
0 -13 -6 -16 -12 -5 -16 -56 7 -147 67 -75 49 -225 136 -353 206 -48 26 -93
52 -100 57 -15 12 -177 102 -266 147 -108 55 -154 43 -152 -39 0 -48 27 -139
66 -231 7 -16 19 -50 25 -75 7 -25 27 -92 46 -150 42 -129 58 -186 79 -270 15
-62 27 -101 45 -145 4 -11 20 -56 35 -100 15 -44 36 -95 47 -112 11 -18 51
-95 88 -170 38 -76 87 -167 109 -203 22 -36 52 -88 66 -116 14 -28 56 -86 93
-130 114 -135 133 -150 218 -175 153 -45 201 -58 249 -64 28 -4 61 -13 75 -20
24 -12 27 -10 77 64 29 42 72 105 95 141 43 65 61 78 87 61 12 -7 -4 -37 -77
-146 -51 -75 -92 -142 -92 -149 1 -6 24 -28 53 -49 29 -20 73 -56 98 -80 78
-71 229 -268 274 -357 10 -19 42 -68 72 -107 36 -49 63 -100 83 -155 15 -46
42 -119 60 -163 113 -284 121 -697 24 -1225 -17 -94 -48 -195 -65 -216 -6 -8
-25 -14 -41 -14 -77 0 -190 -95 -203 -169 -6 -36 -3 -48 19 -81 14 -22 40 -47
56 -55 40 -21 275 -30 343 -14 42 10 52 18 87 70 22 32 40 63 40 68 0 6 13 37
30 69 17 33 30 65 30 71 0 22 18 10 45 -32 15 -23 37 -52 48 -65 24 -26 19
-33 -46 -57 -50 -19 -109 -85 -122 -137 -10 -40 12 -95 50 -124 29 -22 48 -26
162 -35 70 -5 135 -12 143 -15 23 -9 1072 -15 1121 -6 24 4 188 5 364 2 315
-6 321 -7 403 -34 56 -18 96 -39 123 -63 55 -50 52 -64 -13 -62 -94 3 -241 -2
-308 -11 -36 -5 -183 -5 -330 -1 -146 4 -294 4 -330 -1 -36 -4 -130 -12 -210
-17 -111 -7 -163 -16 -220 -35 -41 -14 -83 -26 -93 -26 -31 0 -149 -61 -199
-102 -26 -21 -50 -38 -55 -38 -9 -1 -56 -98 -72 -149 -6 -19 -11 -65 -11 -103
0 -79 19 -124 72 -175 50 -48 80 -56 160 -43 82 14 132 48 182 122 99 149 188
190 411 189 110 -1 191 -9 395 -41 156 -24 267 -41 330 -50 146 -21 377 -62
405 -70 40 -13 192 -25 280 -23 161 4 283 40 368 108 92 73 152 216 137 326
-20 145 -173 323 -350 407 -77 37 -223 89 -270 97 -24 4 -51 11 -60 15 -8 4
-54 20 -102 34 -50 16 -88 33 -88 40 0 7 25 39 56 71 63 65 108 133 143 215
14 30 33 74 44 98 24 52 33 86 59 222 44 225 15 546 -70 780 -62 170 -207 412
-321 535 -20 22 -63 72 -95 110 -31 39 -91 104 -131 145 -41 41 -107 110 -147
154 -121 130 -435 390 -563 466 -46 27 -78 50 -139 101 -24 20 -77 58 -117 85
-41 26 -114 78 -164 114 -49 36 -117 83 -150 105 -33 21 -106 74 -162 118 -98
74 -116 99 -94 123 19 21 44 157 49 266 l4 117 47 19 c25 11 74 30 108 43 74
28 109 52 99 68 -13 20 -61 12 -162 -29 -92 -38 -100 -39 -111 -23 -7 9 -13
23 -13 30 0 7 -9 27 -20 45 -28 46 -25 59 21 103 22 22 54 56 70 76 28 36 28
37 9 54 -19 17 -22 15 -89 -50 l-70 -67 -68 59 c-37 33 -89 74 -116 92 -81 55
-270 140 -348 156 -41 9 -88 21 -105 26 -17 5 -40 9 -51 9 -18 0 -108 78 -283
245 -36 34 -150 133 -255 219 -104 86 -210 174 -235 195 -145 122 -289 231
-337 255 -40 20 -77 20 -97 0z m1244 -1144 c35 -19 89 -60 120 -90 73 -73 109
-141 117 -223 l6 -64 -49 -34 c-46 -32 -54 -34 -126 -32 -64 1 -82 5 -115 27
-20 14 -43 26 -49 26 -7 0 -36 24 -66 54 -62 62 -108 160 -108 230 0 73 59
126 139 126 22 0 43 5 46 11 4 5 10 9 13 7 4 -2 36 -19 72 -38z m-695 -419 c3
-5 21 -7 40 -4 69 11 241 -104 282 -188 42 -86 46 -101 40 -158 -6 -73 -36
-116 -95 -142 -82 -35 -178 -16 -290 58 -108 71 -166 151 -176 243 -9 80 19
125 104 167 69 35 85 39 95 24z m13 -800 c-2 -20 -17 -33 -69 -61 -36 -19 -86
-50 -111 -67 -47 -33 -72 -41 -82 -24 -15 23 16 49 168 145 75 47 99 49 94 7z"/>
<path d="M2288 8153 c-15 -2 -39 -18 -54 -36 -22 -26 -25 -37 -20 -71 13 -80
153 -246 225 -266 53 -15 75 -12 111 13 68 46 63 126 -16 229 -74 96 -165 144
-246 131z"/>
<path d="M1729 7699 c-8 -4 -23 -6 -35 -3 -15 4 -32 -5 -58 -29 -39 -37 -44
-58 -22 -97 8 -14 22 -39 31 -56 30 -59 168 -178 223 -194 54 -14 70 -13 105
12 44 31 47 36 47 99 0 44 -6 64 -28 100 -65 101 -215 198 -263 168z"/>
</g>
</svg>
