<?xml version="1.0" standalone="no"?>
<!DOCTYPE svg PUBLIC "-//W3C//DTD SVG 20010904//EN"
 "http://www.w3.org/TR/2001/REC-SVG-20010904/DTD/svg10.dtd">
<svg version="1.0" xmlns="http://www.w3.org/2000/svg"
 width="704.000000pt" height="1280.000000pt" viewBox="0 0 704.000000 1280.000000"
 preserveAspectRatio="xMidYMid meet">
<metadata>
Created by potrace 1.16, written by Peter Selinger 2001-2019
</metadata>
<g transform="translate(0.000000,1280.000000) scale(0.100000,-0.100000)"
fill="#000000" stroke="none">
<path d="M1167 9298 c-9 -7 -19 -28 -22 -46 -7 -41 9 -143 29 -182 8 -17 17
-44 21 -62 4 -18 15 -57 26 -86 10 -29 25 -81 33 -115 14 -60 34 -130 91 -307
27 -84 61 -211 71 -260 3 -14 10 -41 16 -61 13 -44 0 -72 -40 -93 -27 -14 -32
-12 -108 33 -43 26 -108 63 -144 83 -36 19 -120 65 -187 102 -67 36 -124 66
-126 66 -2 0 -42 22 -88 48 -122 70 -296 152 -323 152 -48 0 -69 -70 -41 -135
9 -22 23 -58 30 -80 7 -22 25 -71 40 -110 15 -38 33 -88 40 -110 8 -22 38
-112 69 -201 30 -89 59 -181 66 -205 6 -24 15 -54 20 -66 23 -54 29 -70 41
-108 7 -22 20 -53 29 -70 9 -16 40 -73 68 -126 54 -101 129 -231 180 -314 17
-27 47 -76 67 -108 63 -105 170 -224 225 -252 50 -26 162 -60 293 -90 64 -15
144 -41 187 -63 126 -62 262 -213 435 -485 28 -43 67 -101 88 -129 20 -29 37
-57 37 -64 0 -7 15 -48 33 -91 19 -43 37 -92 40 -110 3 -17 15 -51 26 -75 56
-119 87 -507 62 -763 -19 -188 -68 -496 -82 -510 -5 -5 -9 -19 -9 -32 0 -12
-7 -38 -16 -57 -15 -29 -23 -35 -63 -41 -82 -12 -148 -59 -185 -132 -22 -45
-20 -72 9 -116 40 -58 73 -67 261 -67 187 0 191 1 236 95 63 127 93 185 99
185 9 0 99 -118 99 -130 0 -6 -7 -10 -16 -10 -9 0 -36 -10 -61 -22 -58 -29
-107 -104 -105 -160 2 -49 27 -92 61 -108 67 -31 564 -51 1091 -44 665 8 926
5 1015 -12 129 -26 237 -88 222 -128 -5 -13 -24 -16 -89 -17 -46 0 -139 -3
-208 -6 -176 -7 -186 -7 -470 -4 -154 2 -283 -1 -325 -8 -38 -6 -115 -13 -170
-15 -68 -3 -119 -11 -160 -26 -33 -11 -85 -26 -115 -32 -55 -10 -162 -66 -219
-113 -96 -82 -141 -279 -86 -383 13 -26 30 -54 37 -63 22 -27 75 -49 120 -49
102 1 176 40 227 119 39 60 116 133 164 155 20 9 63 21 95 27 73 12 324 12
371 -1 47 -12 149 -28 291 -46 63 -8 142 -19 175 -24 33 -6 98 -15 145 -20 46
-6 107 -17 135 -25 27 -8 73 -17 100 -20 28 -4 64 -11 80 -15 29 -9 44 -11
188 -26 97 -9 247 12 329 47 36 16 72 29 79 29 17 0 105 96 133 147 29 51 48
128 48 195 0 40 -9 69 -43 135 -37 73 -55 96 -133 166 -127 112 -220 155 -556
256 -58 17 -110 31 -117 31 -19 0 -25 18 -12 42 6 13 36 47 66 77 94 95 211
367 233 545 15 118 12 337 -5 446 -41 251 -108 422 -243 623 -37 55 -74 110
-83 123 -22 34 -251 298 -315 364 -204 212 -305 308 -419 397 -71 56 -145 114
-163 129 -18 15 -57 41 -85 59 -60 36 -243 165 -366 257 -46 35 -98 72 -116
83 -41 26 -92 63 -217 155 -55 41 -116 85 -135 98 -43 29 -48 43 -30 79 26 50
49 195 51 312 l1 115 125 51 c101 42 126 56 128 73 5 35 -39 28 -160 -25 -59
-26 -109 -45 -111 -42 -9 12 -67 128 -67 134 0 3 36 45 81 91 67 70 79 87 69
99 -21 26 -39 17 -109 -55 -37 -38 -74 -70 -81 -70 -7 0 -40 23 -71 50 -94 82
-249 167 -391 214 -64 21 -186 46 -225 46 -27 0 -51 16 -136 93 -143 127 -285
249 -311 267 -13 8 -49 39 -82 68 -32 29 -83 69 -111 90 -67 48 -271 203 -348
265 -65 52 -175 117 -197 117 -8 0 -22 -6 -31 -12z m1308 -1094 c33 -16 62
-32 65 -35 3 -4 16 -22 30 -40 14 -18 35 -44 47 -56 67 -70 98 -174 69 -232
-20 -38 -106 -81 -163 -81 -63 0 -243 78 -243 105 0 5 -15 25 -33 45 -41 42
-67 121 -67 199 0 49 4 61 28 84 40 38 70 47 142 43 45 -2 83 -12 125 -32z
m-565 -453 c64 -26 137 -78 166 -118 44 -61 84 -142 84 -171 0 -41 -46 -127
-84 -155 -108 -82 -284 -32 -425 119 -65 70 -69 77 -76 133 -11 93 33 161 127
198 62 24 139 22 208 -6z m-105 -751 c9 -27 -8 -46 -67 -76 -26 -13 -75 -42
-109 -64 -71 -46 -89 -49 -89 -17 0 19 24 39 116 100 64 42 123 77 130 77 7 0
16 -9 19 -20z m132 -136 c3 -9 -4 -27 -16 -42 -41 -52 -114 -167 -138 -219
-16 -36 -30 -53 -43 -53 -23 0 -44 25 -35 42 32 57 177 272 189 280 18 12 36
9 43 -8z"/>
<path d="M2273 8181 c-59 -37 -57 -106 5 -197 94 -137 205 -198 294 -161 37
16 50 41 61 119 5 32 -1 47 -43 110 -62 93 -131 138 -224 145 -49 3 -67 0 -93
-16z"/>
<path d="M1728 7703 c-21 -15 -44 -42 -53 -60 -14 -29 -14 -35 3 -78 17 -44
87 -135 103 -135 5 0 20 -11 34 -24 80 -74 210 -75 258 -3 31 47 31 91 2 151
-46 94 -144 159 -258 172 -47 5 -56 3 -89 -23z"/>
</g>
</svg>
