<?xml version="1.0" standalone="no"?>
<!DOCTYPE svg PUBLIC "-//W3C//DTD SVG 20010904//EN"
 "http://www.w3.org/TR/2001/REC-SVG-20010904/DTD/svg10.dtd">
<svg version="1.0" xmlns="http://www.w3.org/2000/svg"
 width="704.000000pt" height="1280.000000pt" viewBox="0 0 704.000000 1280.000000"
 preserveAspectRatio="xMidYMid meet">
<metadata>
Created by potrace 1.16, written by Peter Selinger 2001-2019
</metadata>
<g transform="translate(0.000000,1280.000000) scale(0.100000,-0.100000)"
fill="#000000" stroke="none">
<path d="M1220 9321 c-38 -11 -46 -54 -26 -159 8 -49 23 -103 32 -120 8 -18
31 -98 51 -180 19 -81 53 -208 75 -282 22 -74 44 -151 48 -170 5 -19 14 -55
20 -80 15 -58 30 -127 36 -166 5 -25 1 -35 -21 -53 -36 -28 -43 -27 -101 14
-27 19 -53 35 -57 35 -5 0 -23 11 -40 23 -18 13 -63 41 -102 62 -38 21 -88 51
-111 66 -22 15 -74 46 -115 68 -41 22 -106 58 -144 80 -121 71 -260 139 -297
146 -29 6 -39 3 -57 -16 -11 -13 -21 -31 -21 -41 0 -15 111 -365 145 -458 19
-52 72 -226 90 -300 36 -142 95 -294 153 -395 6 -11 38 -74 70 -140 33 -66 73
-142 90 -170 17 -27 51 -84 77 -126 52 -87 157 -214 210 -255 59 -45 453 -154
462 -128 2 5 43 68 91 139 63 94 93 131 110 133 40 6 37 -25 -9 -84 -37 -47
-149 -220 -149 -230 0 -2 15 -11 33 -20 99 -51 295 -281 401 -469 16 -27 47
-75 70 -105 62 -81 171 -364 202 -522 24 -125 30 -530 10 -673 -39 -280 -65
-426 -87 -490 l-24 -70 -65 -13 c-100 -19 -167 -82 -180 -167 -6 -41 -4 -51
21 -85 16 -22 42 -43 61 -49 18 -6 107 -12 197 -13 l163 -3 28 34 c28 33 130
230 130 250 0 21 19 11 34 -16 8 -16 28 -46 46 -68 l31 -39 -58 -29 c-78 -37
-123 -101 -123 -171 0 -43 4 -53 35 -82 25 -23 48 -34 78 -38 23 -2 76 -9 117
-14 110 -14 402 -17 1178 -14 685 3 694 3 780 -19 48 -12 103 -30 123 -40 39
-19 92 -76 84 -89 -9 -14 -291 -23 -675 -21 -275 1 -394 -1 -415 -10 -17 -6
-82 -12 -145 -14 -106 -2 -175 -14 -258 -46 -13 -5 -35 -9 -50 -9 -28 0 -163
-73 -222 -120 -17 -14 -48 -56 -67 -95 -32 -61 -37 -82 -41 -156 -4 -79 -2
-90 23 -135 45 -80 82 -104 163 -104 101 0 151 27 215 113 21 29 65 77 98 109
59 56 90 70 189 83 67 9 315 5 350 -6 19 -6 64 -14 100 -19 36 -5 94 -13 130
-19 36 -5 135 -19 220 -30 171 -24 352 -54 445 -76 70 -16 301 -39 314 -31 5
3 43 8 84 10 42 3 89 12 106 20 16 9 55 25 86 37 98 37 177 135 210 263 28
108 -23 245 -133 355 -142 141 -210 174 -614 297 -65 19 -118 38 -118 40 0 13
23 44 73 97 70 74 175 282 206 409 96 385 33 807 -171 1143 -113 187 -192 284
-480 592 -138 148 -293 297 -363 348 -22 17 -42 32 -45 35 -14 16 -171 131
-231 170 -88 58 -300 209 -392 280 -40 31 -103 75 -142 100 -97 62 -306 220
-312 237 -3 8 0 26 7 41 30 67 70 308 54 333 -16 26 7 58 53 75 86 31 168 67
185 82 14 11 15 18 7 29 -13 15 -60 18 -75 4 -9 -9 -162 -71 -175 -71 -6 0
-69 124 -69 138 0 4 18 26 41 47 65 64 100 111 93 129 -11 29 -35 17 -102 -49
-37 -36 -69 -65 -72 -65 -3 0 -33 27 -68 59 -81 78 -187 143 -320 196 -102 42
-231 75 -287 75 -20 0 -61 33 -167 133 -164 154 -358 320 -594 509 -60 48
-134 107 -164 132 -74 61 -210 153 -235 159 -11 3 -31 2 -45 -2z m1192 -1120
c2 -5 31 -23 66 -40 110 -55 202 -176 210 -276 7 -82 0 -97 -61 -128 -67 -33
-139 -36 -199 -7 -23 11 -47 20 -53 20 -23 0 -105 74 -132 119 -64 106 -77
173 -46 238 18 39 57 60 133 73 64 11 78 11 82 1z m-502 -488 c78 -36 119 -69
160 -129 44 -66 60 -110 60 -166 0 -62 -20 -101 -72 -138 -35 -26 -50 -30
-102 -30 -73 0 -155 26 -204 64 -8 6 -48 43 -87 81 -77 74 -95 111 -95 190 1
52 41 111 98 141 61 33 154 28 242 -13z m-136 -738 c24 -24 9 -43 -66 -81 -38
-19 -91 -51 -119 -70 -50 -37 -83 -39 -77 -7 3 16 221 173 239 173 4 0 14 -7
23 -15z"/>
<path d="M2269 8145 c-54 -29 -74 -93 -45 -145 8 -14 22 -39 30 -55 9 -17 40
-51 68 -75 29 -25 60 -53 70 -62 10 -10 30 -18 46 -19 15 0 36 -4 47 -8 25
-11 90 21 106 51 28 52 -11 164 -87 248 -64 70 -171 100 -235 65z"/>
<path d="M1687 7688 c-48 -24 -71 -59 -63 -95 10 -44 97 -163 146 -200 89 -66
104 -73 153 -73 42 0 54 5 82 33 30 30 33 39 31 79 -3 56 -47 142 -95 186 -87
79 -185 106 -254 70z"/>
</g>
</svg>
