<?xml version="1.0" standalone="no"?>
<!DOCTYPE svg PUBLIC "-//W3C//DTD SVG 20010904//EN"
 "http://www.w3.org/TR/2001/REC-SVG-20010904/DTD/svg10.dtd">
<svg version="1.0" xmlns="http://www.w3.org/2000/svg"
 width="704.000000pt" height="1280.000000pt" viewBox="0 0 704.000000 1280.000000"
 preserveAspectRatio="xMidYMid meet">
<metadata>
Created by potrace 1.16, written by Peter Selinger 2001-2019
</metadata>
<g transform="translate(0.000000,1280.000000) scale(0.100000,-0.100000)"
fill="#000000" stroke="none">
<path d="M2894 9419 c-44 -13 -69 -44 -104 -134 -17 -44 -44 -109 -60 -145
-16 -36 -31 -76 -34 -90 -3 -14 -33 -74 -67 -135 -64 -113 -124 -251 -135
-311 -3 -19 -10 -37 -15 -40 -5 -3 -9 -15 -9 -27 0 -15 -3 -18 -8 -9 -7 9 -25
7 -88 -10 -101 -27 -172 -26 -197 5 -59 70 -210 224 -262 264 -33 26 -91 78
-129 115 -37 38 -71 68 -76 68 -4 0 -70 61 -146 136 -187 183 -237 214 -288
181 -43 -29 -40 -154 9 -377 9 -41 21 -101 25 -133 5 -33 15 -82 24 -110 8
-29 19 -79 25 -112 7 -33 18 -89 26 -125 47 -213 58 -261 71 -319 9 -35 13
-73 10 -85 -3 -11 -28 -57 -56 -101 -27 -43 -50 -84 -50 -89 0 -5 -13 -39 -29
-75 -35 -82 -51 -131 -51 -159 0 -12 -10 -50 -21 -84 -18 -52 -22 -85 -22
-207 -1 -94 3 -156 11 -175 7 -16 9 -33 5 -37 -5 -5 -56 -14 -113 -20 -100
-11 -130 -20 -130 -40 0 -5 51 -9 113 -9 61 0 122 -3 134 -6 25 -7 107 -124
95 -135 -4 -4 -66 -33 -139 -64 -136 -59 -176 -86 -155 -107 12 -12 95 14 184
59 26 12 54 23 61 23 8 0 31 11 51 25 42 29 64 32 72 10 7 -18 144 -116 194
-138 68 -31 110 -46 172 -62 113 -31 142 -36 216 -44 60 -7 78 -13 102 -36 17
-16 30 -32 30 -37 0 -5 17 -45 39 -91 21 -45 51 -116 65 -157 15 -41 34 -85
42 -97 8 -12 16 -37 19 -55 6 -41 11 -65 24 -103 6 -16 21 -68 33 -115 21 -80
22 -104 22 -410 0 -319 -6 -416 -41 -655 -12 -88 -14 -158 -10 -346 5 -176 3
-243 -6 -262 -8 -18 -32 -35 -77 -54 -163 -69 -224 -228 -111 -291 35 -20 58
-23 210 -27 109 -3 171 -2 171 5 0 5 -27 70 -60 145 -60 136 -69 165 -50 165
11 0 60 -96 60 -118 0 -7 13 -39 30 -71 16 -33 31 -70 34 -84 5 -26 93 -141
128 -165 20 -14 85 -34 195 -58 62 -13 142 -14 600 -9 1227 15 1117 22 1158
-72 34 -77 33 -83 -17 -84 -24 0 -270 -5 -548 -10 -278 -5 -516 -10 -530 -9
-116 1 -385 -51 -459 -90 -9 -5 -41 -20 -71 -34 -138 -66 -176 -101 -222 -211
-20 -48 -23 -170 -5 -211 24 -57 63 -104 97 -121 83 -42 226 -5 280 73 81 115
135 164 220 200 58 24 306 29 421 9 41 -7 95 -16 120 -18 24 -3 107 -17 184
-30 77 -14 167 -27 200 -31 66 -6 267 -41 324 -56 112 -29 461 -37 507 -11 11
5 53 17 95 26 131 27 208 90 255 207 43 108 41 178 -10 289 -22 46 -59 114
-83 151 -43 66 -184 208 -207 208 -6 0 -28 11 -48 25 -20 14 -62 34 -92 46
-31 11 -56 24 -56 29 0 4 28 38 63 76 75 82 113 140 166 255 57 123 80 207 97
354 27 224 8 381 -83 675 -44 144 -126 315 -193 403 -28 37 -53 67 -56 67 -2
0 3 -15 11 -32 l16 -33 -21 24 c-18 21 -25 41 -21 64 2 15 -38 83 -64 107 -15
14 -38 41 -50 60 -13 20 -68 86 -124 147 -55 61 -101 115 -101 120 0 4 -228
235 -508 513 -279 278 -533 537 -565 575 -31 39 -62 77 -70 86 -8 9 -12 29
-10 45 3 16 0 108 -5 204 -8 146 -15 189 -36 254 -15 43 -33 88 -41 100 -8 11
-15 32 -15 45 0 14 -11 37 -25 51 -22 23 -26 38 -34 155 -13 170 -45 308 -125
530 -20 55 -36 108 -36 117 0 9 -25 92 -56 184 -58 174 -132 345 -149 343 -5
0 -24 -5 -41 -10z m-310 -1925 c18 -46 -13 -77 -94 -94 -71 -15 -176 -43 -196
-52 -29 -14 -206 3 -211 19 -3 7 6 14 19 17 83 16 174 30 182 28 8 -3 112 32
231 77 63 24 62 24 69 5z m-1084 -83 c27 -14 65 -19 163 -24 71 -3 134 -10
140 -16 39 -39 -212 -41 -298 -3 -69 31 -78 37 -83 50 -6 18 39 14 78 -7z
m1595 -104 c36 -27 -20 -63 -112 -73 -32 -3 -81 -17 -110 -31 -60 -30 -86 -25
-81 14 3 23 10 29 53 40 28 8 75 18 106 23 32 6 70 17 85 25 35 18 36 18 59 2z
m-207 -272 c23 -10 50 -14 72 -10 21 4 55 0 81 -8 24 -8 61 -18 81 -21 41 -7
51 -17 42 -40 -8 -22 -56 -20 -106 4 -27 13 -62 20 -99 20 -47 0 -154 17 -167
26 -2 1 -1 12 3 23 8 26 40 27 93 6z"/>
</g>
</svg>
