<?xml version="1.0" standalone="no"?>
<!DOCTYPE svg PUBLIC "-//W3C//DTD SVG 20010904//EN"
 "http://www.w3.org/TR/2001/REC-SVG-20010904/DTD/svg10.dtd">
<svg version="1.0" xmlns="http://www.w3.org/2000/svg"
 width="704.000000pt" height="1280.000000pt" viewBox="0 0 704.000000 1280.000000"
 preserveAspectRatio="xMidYMid meet">
<metadata>
Created by potrace 1.16, written by Peter Selinger 2001-2019
</metadata>
<g transform="translate(0.000000,1280.000000) scale(0.100000,-0.100000)"
fill="#000000" stroke="none">
<path d="M1168 9299 c-10 -5 -20 -25 -24 -43 -7 -42 12 -170 30 -199 8 -12 24
-60 37 -107 12 -47 26 -93 31 -102 5 -10 13 -37 18 -60 13 -63 43 -170 80
-283 18 -55 38 -127 45 -160 7 -33 18 -73 23 -90 24 -68 34 -114 29 -129 -3
-8 -21 -22 -41 -31 l-34 -16 -111 60 c-62 34 -114 61 -116 61 -2 0 -39 21 -82
46 -213 128 -598 324 -635 324 -38 0 -62 -38 -55 -90 3 -21 24 -87 47 -147 54
-137 63 -162 93 -253 13 -41 41 -122 62 -180 20 -58 45 -134 55 -170 27 -101
95 -263 156 -374 31 -56 63 -112 70 -126 7 -14 45 -77 83 -140 39 -63 80 -131
91 -152 11 -20 38 -58 61 -85 126 -147 141 -162 192 -182 67 -26 210 -66 312
-87 91 -18 92 -19 202 -91 56 -36 101 -76 140 -124 65 -78 208 -277 265 -366
20 -32 51 -74 67 -93 17 -19 32 -46 34 -60 3 -14 17 -56 32 -95 76 -200 95
-254 105 -302 37 -166 35 -590 -4 -843 -34 -222 -42 -271 -54 -300 -5 -14 -15
-43 -22 -65 -18 -56 -25 -62 -85 -75 -173 -36 -243 -225 -108 -291 40 -19 59
-21 198 -20 158 1 201 9 212 37 3 9 21 39 40 66 18 28 33 58 33 67 0 9 8 27
17 40 9 14 22 39 28 57 l11 34 52 -76 53 -75 -29 -10 c-93 -32 -163 -109 -157
-172 9 -96 48 -128 170 -139 193 -16 609 -26 965 -22 920 9 1037 5 1153 -45
52 -23 123 -84 114 -98 -10 -16 -318 -27 -672 -24 -187 2 -353 -2 -400 -8 -44
-6 -127 -13 -185 -16 -71 -3 -131 -13 -185 -30 -44 -14 -91 -25 -104 -25 -25
0 -99 -36 -170 -83 -105 -71 -152 -156 -159 -288 -4 -72 -1 -92 16 -125 52
-102 144 -140 249 -103 63 21 119 62 138 99 21 40 113 139 146 155 114 59 373
63 644 10 73 -14 122 -22 365 -55 148 -20 263 -40 380 -65 117 -26 283 -37
378 -25 178 22 331 114 383 230 34 76 49 157 39 211 -10 50 -42 123 -60 134
-5 3 -10 12 -10 20 0 17 -54 75 -135 145 -100 86 -210 134 -535 230 -160 48
-151 36 -83 110 71 79 91 107 131 185 28 55 38 78 77 170 7 17 18 55 25 85 6
30 16 73 21 95 33 149 31 341 -6 554 -38 220 -127 425 -275 635 -68 95 -242
300 -345 406 -35 36 -108 112 -162 169 -54 57 -165 157 -248 223 -82 65 -168
133 -190 151 -22 18 -55 40 -75 51 -19 10 -92 60 -161 110 -70 50 -164 118
-210 151 -45 33 -129 92 -185 130 -139 95 -300 213 -312 228 -7 8 -3 35 13 87
40 128 48 183 43 289 l-5 100 76 32 c159 65 181 77 181 98 0 33 -42 26 -163
-25 -60 -25 -110 -44 -111 -42 -2 1 -17 34 -34 71 l-31 68 77 80 c80 83 93
112 55 117 -17 2 -42 -16 -99 -72 l-76 -76 -57 49 c-165 143 -391 243 -600
267 -63 7 -65 8 -166 98 -171 153 -237 210 -259 225 -12 8 -37 29 -56 46 -19
18 -57 49 -85 70 -27 20 -66 50 -85 66 -39 32 -132 105 -206 161 -148 113
-182 138 -251 186 -75 52 -103 60 -135 41z m1419 -1202 c71 -75 87 -109 84
-182 -3 -72 -12 -83 -101 -128 -60 -30 -74 -33 -112 -26 -84 16 -99 22 -135
58 l-37 36 -1 92 0 93 58 55 57 55 69 0 68 0 50 -53z m-597 -425 c61 -24 90
-44 90 -62 0 -9 9 -23 20 -33 30 -25 28 -123 -2 -163 -39 -50 -54 -64 -119
-109 -85 -61 -111 -60 -211 6 -84 55 -98 78 -98 167 0 93 115 194 235 205 22
2 40 4 40 5 0 1 20 -6 45 -16z m-189 -668 c19 -23 2 -43 -73 -83 -36 -20 -81
-48 -99 -62 -60 -46 -77 -52 -88 -31 -5 10 -6 23 -3 29 10 15 224 161 238 162
6 1 17 -6 25 -15z m123 -130 c24 -9 20 -24 -23 -80 -56 -74 -121 -185 -128
-216 -4 -23 -11 -28 -33 -28 -53 0 -48 33 16 121 19 26 34 49 34 52 0 9 93
141 105 149 12 9 10 9 29 2z"/>
<path d="M2421 8081 c-6 -10 -24 -24 -41 -29 -33 -12 -50 -44 -50 -94 0 -36
56 -110 100 -133 64 -33 147 -9 178 52 30 58 31 89 5 121 -10 12 -26 32 -35
46 -17 23 -93 56 -129 56 -10 0 -23 -9 -28 -19z"/>
<path d="M1838 7602 c-47 -35 -68 -71 -68 -119 0 -32 8 -47 44 -86 40 -43 49
-49 97 -54 49 -5 57 -2 94 27 42 33 75 82 75 113 0 21 -46 92 -79 121 -15 13
-29 17 -50 13 -17 -4 -33 -2 -36 3 -10 17 -38 10 -77 -18z"/>
</g>
</svg>
