<?xml version="1.0" standalone="no"?>
<!DOCTYPE svg PUBLIC "-//W3C//DTD SVG 20010904//EN"
 "http://www.w3.org/TR/2001/REC-SVG-20010904/DTD/svg10.dtd">
<svg version="1.0" xmlns="http://www.w3.org/2000/svg"
 width="704.000000pt" height="1280.000000pt" viewBox="0 0 704.000000 1280.000000"
 preserveAspectRatio="xMidYMid meet">
<metadata>
Created by potrace 1.16, written by Peter Selinger 2001-2019
</metadata>
<g transform="translate(0.000000,1280.000000) scale(0.100000,-0.100000)"
fill="#000000" stroke="none">
<path d="M2265 9417 c-8 -12 -21 -58 -30 -101 -8 -44 -23 -111 -34 -150 -10
-39 -22 -95 -26 -123 -4 -29 -11 -55 -15 -58 -5 -3 -11 -24 -15 -48 -4 -23
-16 -73 -26 -112 -11 -38 -31 -117 -44 -175 -47 -198 -55 -214 -112 -223 -21
-4 -67 -16 -102 -27 l-64 -21 -27 26 c-15 14 -32 43 -39 64 -6 21 -22 55 -36
75 -14 20 -25 44 -25 53 0 9 -32 79 -71 157 -39 78 -77 161 -86 185 -8 24 -21
50 -27 57 -7 7 -28 50 -46 96 -43 108 -85 172 -127 192 -59 28 -87 -3 -116
-124 -9 -36 -21 -108 -27 -160 -6 -52 -15 -122 -20 -155 -6 -33 -15 -114 -21
-180 -5 -66 -15 -154 -20 -195 -11 -84 -11 -77 -33 -396 l-16 -231 -65 -104
c-35 -57 -77 -138 -91 -179 -14 -41 -30 -84 -34 -95 -5 -11 -16 -44 -25 -73
-23 -73 -38 -85 -97 -80 -58 6 -80 -7 -67 -39 7 -20 15 -23 69 -23 33 0 60 -1
60 -2 1 -2 3 -44 6 -95 6 -102 8 -99 -71 -123 -42 -13 -50 -20 -53 -43 -4 -32
9 -34 67 -11 60 24 80 16 110 -41 46 -85 54 -94 125 -147 155 -115 327 -188
591 -248 50 -12 115 -27 145 -35 30 -8 67 -16 81 -19 54 -11 221 -221 379
-475 25 -40 53 -82 64 -93 24 -27 112 -246 162 -407 25 -81 44 -281 44 -473 0
-188 -2 -211 -41 -453 -11 -71 -25 -161 -30 -199 -5 -39 -13 -74 -19 -80 -5
-5 -10 -21 -10 -34 0 -14 -9 -39 -20 -57 -16 -27 -29 -34 -65 -39 -25 -4 -45
-11 -45 -17 0 -5 -7 -9 -16 -9 -67 0 -155 -142 -124 -199 19 -36 58 -69 97
-82 25 -8 86 -12 178 -11 155 2 195 7 195 27 0 7 8 19 17 26 9 8 29 43 45 79
16 36 36 79 44 97 8 17 14 35 14 41 0 5 7 15 15 22 12 10 16 7 25 -16 6 -16
27 -48 47 -72 19 -23 33 -49 30 -56 -3 -7 -23 -16 -45 -19 -29 -5 -50 -18 -80
-51 -47 -51 -57 -79 -49 -139 4 -29 15 -50 35 -68 31 -28 40 -30 242 -50 121
-13 1110 -22 1185 -11 28 4 199 4 380 1 315 -5 333 -7 390 -29 102 -39 163
-85 152 -114 -7 -17 -230 -27 -718 -31 -408 -3 -594 -15 -704 -44 -44 -12 -96
-26 -116 -31 -93 -24 -237 -123 -273 -188 -50 -90 -56 -108 -56 -184 0 -62 5
-86 25 -125 49 -99 111 -132 207 -112 87 19 115 38 190 129 135 164 174 182
393 181 137 -1 162 -3 255 -17 25 -4 55 -6 68 -5 13 1 28 -2 35 -7 7 -6 59
-15 117 -22 58 -6 125 -15 150 -20 25 -6 88 -15 140 -21 52 -6 183 -29 290
-51 106 -22 207 -38 223 -35 16 2 50 0 76 -5 53 -10 247 14 296 37 17 7 50 22
75 33 99 44 153 115 194 253 32 105 -22 247 -134 357 -37 37 -83 79 -101 95
-37 30 -188 107 -210 107 -8 0 -52 13 -99 30 -47 16 -92 29 -100 30 -8 0 -44
11 -80 24 -36 14 -76 27 -90 30 -14 3 -31 10 -38 14 -18 12 2 47 63 107 67 67
176 285 216 432 30 114 38 418 15 558 -38 224 -97 389 -203 570 -97 166 -274
376 -588 700 -116 120 -374 335 -484 403 -20 12 -70 47 -111 77 -41 30 -115
83 -165 117 -49 34 -124 87 -165 119 -41 31 -115 83 -164 115 -48 33 -101 68
-116 79 -15 11 -66 47 -113 79 l-87 59 -1 56 c-5 244 -5 245 -52 431 -43 175
-145 508 -182 595 -60 143 -131 289 -179 369 -48 79 -102 179 -184 336 -116
224 -165 290 -214 290 -18 0 -33 -8 -43 -23z m-188 -1469 c-54 -55 -68 -102
-68 -233 0 -92 3 -112 26 -163 34 -75 82 -100 135 -72 61 32 111 216 90 324
-12 63 -32 110 -57 134 -10 11 -11 18 -4 25 19 19 56 -32 81 -110 19 -63 21
-84 15 -160 -4 -50 -15 -103 -25 -123 -9 -19 -20 -46 -23 -60 -7 -30 -56 -82
-109 -118 -47 -31 -101 -26 -159 13 -106 74 -131 312 -46 455 51 86 104 128
164 129 20 1 18 -4 -20 -41z m-662 -83 c-16 -14 -33 -25 -37 -25 -3 0 -15 -24
-24 -52 -23 -65 -24 -211 -3 -283 25 -85 93 -129 143 -92 26 19 47 80 58 172
15 119 24 133 32 49 16 -148 -62 -291 -176 -326 -50 -15 -81 -5 -113 38 -60
78 -89 235 -67 355 15 80 94 188 128 175 8 -3 24 -1 36 4 43 17 54 10 23 -15z
m1360 -435 c0 -23 -4 -25 -65 -31 -93 -10 -123 -15 -164 -30 -42 -15 -71 -4
-71 27 0 23 58 42 130 43 28 1 57 6 65 11 8 6 35 9 60 8 41 -3 45 -5 45 -28z
m-155 -220 c14 -4 64 -18 111 -31 83 -22 118 -46 104 -69 -8 -12 -48 -13 -60
-1 -19 17 -170 51 -285 65 -19 2 -26 36 -8 47 14 9 96 3 138 -11z"/>
</g>
</svg>
