<?xml version="1.0" standalone="no"?>
<!DOCTYPE svg PUBLIC "-//W3C//DTD SVG 20010904//EN"
 "http://www.w3.org/TR/2001/REC-SVG-20010904/DTD/svg10.dtd">
<svg version="1.0" xmlns="http://www.w3.org/2000/svg"
 width="704.000000pt" height="1280.000000pt" viewBox="0 0 704.000000 1280.000000"
 preserveAspectRatio="xMidYMid meet">
<metadata>
Created by potrace 1.16, written by Peter Selinger 2001-2019
</metadata>
<g transform="translate(0.000000,1280.000000) scale(0.100000,-0.100000)"
fill="#000000" stroke="none">
<path d="M3945 10206 c-54 -17 -181 -91 -228 -133 -34 -30 -43 -33 -102 -33
-153 0 -355 -46 -496 -114 -57 -27 -249 -189 -269 -225 -19 -36 -10 -53 68
-130 60 -60 96 -86 163 -119 127 -61 256 -99 407 -117 55 -7 73 -19 97 -65 18
-35 69 -78 101 -86 27 -7 64 18 64 43 0 19 12 16 66 -12 59 -31 98 -32 118 -3
23 33 20 48 -20 90 -37 37 -37 37 -13 42 13 3 42 7 64 10 168 19 276 55 495
163 115 57 127 61 145 47 65 -48 133 -88 172 -101 60 -21 160 -14 179 12 8 10
14 22 14 25 0 4 -27 37 -59 74 -65 73 -101 140 -101 185 0 16 16 59 35 95 69
130 94 256 61 301 -13 19 -15 18 -52 -7 -66 -44 -128 -109 -202 -210 -39 -53
-74 -98 -79 -101 -4 -3 -50 14 -100 38 -108 51 -337 130 -405 139 -27 4 -48
11 -48 15 0 4 13 25 30 47 37 49 37 60 1 79 -17 8 -31 25 -33 37 -4 28 -21 31
-73 14z m937 -127 c-3 -46 -27 -118 -68 -204 -44 -92 -49 -126 -29 -190 13
-41 34 -74 77 -121 32 -35 58 -67 58 -69 0 -3 -14 -5 -31 -5 -20 0 -28 4 -23
12 5 8 0 9 -14 6 -12 -4 -22 -2 -22 3 0 5 6 9 13 9 7 1 5 6 -5 14 -10 7 -18
19 -18 25 0 7 -4 10 -9 7 -5 -3 -21 14 -35 39 -17 27 -36 47 -51 51 -14 3 -25
10 -25 15 0 5 -15 9 -32 10 -31 0 -32 1 -9 10 13 5 32 7 42 4 13 -5 19 -1 19
10 0 8 7 26 15 39 14 21 14 24 0 36 -8 7 -15 20 -15 30 0 11 -12 22 -30 29
-34 11 -37 22 -13 42 15 13 15 12 4 -8 -12 -24 -3 -31 17 -11 9 9 13 7 18 -5
8 -21 44 -22 44 -1 0 8 4 13 8 10 17 -10 52 80 52 133 0 32 -4 50 -10 46 -5
-3 -10 -1 -10 4 0 6 5 11 10 11 6 0 13 8 17 18 9 26 35 53 47 49 6 -2 10 -23
8 -48z m-759 -128 c8 -6 24 -14 36 -16 12 -3 31 -7 43 -10 56 -12 119 -38 109
-44 -7 -4 -9 -16 -5 -27 5 -16 4 -17 -6 -4 -9 11 -13 12 -17 3 -2 -7 -13 -13
-24 -13 -14 0 -19 7 -19 30 0 26 -4 30 -42 40 -24 6 -52 15 -64 19 -24 10 -76
3 -69 -10 9 -14 -35 -31 -66 -24 -36 8 -54 -8 -63 -58 -10 -52 -36 -50 -36 2
0 22 -6 42 -12 45 -10 5 -10 7 0 12 6 3 12 13 12 21 0 9 9 24 21 34 17 15 35
17 104 15 47 -1 90 -8 98 -15z m-766 -139 c21 -44 24 -64 21 -110 -6 -71 -56
-180 -105 -227 -38 -37 -59 -38 -113 -8 -23 13 -23 13 -2 8 12 -3 31 -8 42
-11 12 -3 20 -1 20 6 0 7 7 10 15 6 8 -3 15 -1 15 4 0 5 14 23 31 41 23 24 29
37 25 55 -4 16 -2 24 7 24 8 0 14 15 15 40 2 31 -1 40 -13 40 -13 0 -15 7 -10
34 7 34 -2 83 -12 72 -4 -3 -12 -1 -20 5 -10 9 -13 7 -13 -10 0 -15 -6 -21
-22 -21 -18 0 -20 -2 -8 -10 8 -5 11 -12 8 -15 -15 -15 -29 8 -23 36 4 18 3
29 -4 29 -6 0 -11 9 -11 20 0 22 15 27 23 8 3 -7 6 3 6 22 1 28 4 32 12 20 8
-11 12 -12 16 -2 7 18 19 15 43 -10 11 -12 20 -17 20 -11 0 6 -7 16 -15 23 -8
7 -12 17 -8 23 8 13 27 -13 60 -81z"/>
<path d="M1150 9281 c-22 -41 -6 -139 43 -276 14 -38 37 -115 52 -170 30 -116
62 -221 120 -400 7 -22 16 -57 19 -77 4 -20 13 -50 21 -65 8 -15 15 -41 15
-56 0 -16 8 -42 17 -58 16 -27 16 -30 -3 -56 -30 -40 -68 -51 -102 -31 -15 9
-47 27 -72 40 -25 13 -83 46 -130 73 -47 27 -116 65 -155 85 -38 21 -117 63
-175 95 -196 106 -358 185 -383 185 -13 0 -29 -6 -34 -12 -20 -25 -23 -79 -7
-116 8 -20 29 -77 45 -127 16 -49 33 -99 38 -110 4 -11 16 -42 25 -70 10 -27
32 -88 48 -135 17 -47 39 -116 50 -155 33 -121 36 -128 62 -200 30 -80 100
-224 181 -370 30 -55 60 -111 67 -125 27 -53 174 -268 222 -325 77 -91 110
-122 152 -143 50 -25 203 -74 324 -103 102 -24 106 -26 195 -82 95 -61 264
-253 351 -402 50 -86 68 -114 114 -175 14 -19 46 -87 70 -150 24 -63 55 -146
70 -185 25 -64 44 -149 55 -250 3 -22 8 -141 11 -265 7 -228 1 -300 -46 -555
-5 -27 -12 -75 -16 -105 -3 -30 -12 -71 -19 -90 -7 -19 -18 -53 -25 -75 -17
-56 -37 -75 -77 -75 -112 0 -223 -143 -178 -229 36 -70 101 -89 293 -86 182 2
169 -8 283 242 13 29 28 51 34 49 5 -1 18 -18 28 -37 10 -19 30 -45 43 -60 31
-33 30 -45 -4 -52 -58 -12 -102 -47 -133 -109 -27 -54 -29 -62 -18 -98 22 -72
49 -88 174 -101 174 -18 487 -26 935 -24 1044 5 1011 5 1080 -11 97 -24 217
-98 207 -127 -7 -23 -310 -34 -764 -28 -123 1 -226 0 -231 -2 -4 -3 -88 -11
-187 -17 -166 -11 -210 -19 -370 -63 -62 -17 -127 -50 -183 -93 -52 -39 -68
-60 -110 -140 -29 -55 -32 -71 -32 -147 0 -63 4 -88 15 -97 8 -7 15 -18 15
-25 0 -20 48 -74 81 -90 36 -19 102 -19 165 0 52 15 76 36 194 170 34 39 74
76 88 84 55 29 128 41 257 41 118 0 374 -22 393 -34 4 -3 30 -7 57 -11 28 -3
77 -10 110 -16 78 -13 108 -17 240 -35 124 -16 156 -22 305 -53 136 -29 329
-41 420 -26 60 10 120 25 137 35 10 5 38 19 63 29 100 42 163 124 196 254 13
53 14 75 5 117 -30 139 -154 284 -326 381 -59 34 -194 86 -248 96 -15 3 -30 9
-33 14 -3 5 -15 9 -27 10 -42 1 -232 66 -235 81 -1 8 26 43 61 79 91 93 185
289 237 494 19 75 25 368 10 478 -34 252 -116 465 -268 692 -84 125 -256 333
-368 445 -36 36 -115 117 -177 180 -62 64 -168 160 -237 215 -69 55 -143 114
-165 132 -22 18 -62 44 -90 59 -27 15 -86 54 -130 88 -44 34 -107 79 -140 101
-33 21 -94 64 -135 96 -41 31 -124 91 -185 133 -60 42 -135 95 -165 117 -30
22 -69 49 -87 60 -40 25 -48 50 -29 87 8 15 24 66 36 113 18 69 21 104 18 196
l-4 113 43 20 c23 11 45 20 48 20 6 0 59 23 133 57 21 10 32 22 30 32 -6 27
-65 17 -171 -29 -54 -23 -100 -40 -102 -38 -2 1 -16 30 -31 63 -15 33 -30 63
-32 68 -2 4 33 45 78 92 56 56 81 89 77 99 -11 29 -38 16 -116 -54 -43 -38
-82 -70 -87 -70 -6 0 -26 16 -45 36 -53 55 -158 121 -287 178 -110 50 -193 73
-334 92 -43 6 -60 17 -166 113 -266 239 -693 576 -961 758 -43 29 -106 31
-121 4z m1295 -1071 c35 -16 68 -30 73 -30 17 0 119 -124 151 -183 51 -94 39
-164 -35 -203 -116 -61 -275 -18 -380 103 -54 63 -67 104 -68 210 -1 66 2 74
24 90 69 49 148 53 235 13z m-520 -464 c103 -48 212 -176 229 -267 8 -45 -18
-110 -62 -155 -42 -45 -116 -68 -173 -54 -97 22 -178 62 -226 112 -18 18 -37
38 -43 43 -36 37 -61 71 -65 89 -15 79 -15 97 4 138 37 82 100 117 211 118 58
0 86 -5 125 -24z m-122 -748 c14 -22 -4 -43 -57 -66 -22 -11 -75 -42 -116 -70
-56 -38 -78 -48 -87 -40 -11 9 -11 15 0 32 18 27 218 166 236 163 8 -1 19 -9
24 -19z m134 -133 c5 -15 -46 -98 -103 -167 -12 -15 -35 -53 -50 -84 -30 -62
-48 -75 -71 -52 -19 19 -18 21 95 191 59 89 90 127 103 127 11 0 22 -7 26 -15z"/>
<path d="M2295 8191 c-35 -15 -57 -49 -63 -96 -3 -31 0 -51 10 -63 7 -9 20
-30 28 -46 8 -17 41 -56 73 -88 45 -45 69 -61 114 -74 76 -22 132 -11 152 31
22 46 26 127 8 161 -22 41 -95 116 -142 147 -43 28 -144 44 -180 28z"/>
<path d="M1736 7706 c-16 -14 -32 -26 -35 -26 -11 0 -31 -53 -31 -80 0 -43 29
-90 94 -154 73 -72 122 -95 198 -96 52 0 61 3 91 34 43 43 52 85 31 149 -30
92 -156 183 -265 193 -48 5 -57 2 -83 -20z"/>
</g>
</svg>
