<?xml version="1.0" standalone="no"?>
<!DOCTYPE svg PUBLIC "-//W3C//DTD SVG 20010904//EN"
 "http://www.w3.org/TR/2001/REC-SVG-20010904/DTD/svg10.dtd">
<svg version="1.0" xmlns="http://www.w3.org/2000/svg"
 width="704.000000pt" height="1280.000000pt" viewBox="0 0 704.000000 1280.000000"
 preserveAspectRatio="xMidYMid meet">
<metadata>
Created by potrace 1.16, written by Peter Selinger 2001-2019
</metadata>
<g transform="translate(0.000000,1280.000000) scale(0.100000,-0.100000)"
fill="#000000" stroke="none">
<path d="M4605 9889 c-231 -54 -301 -85 -446 -194 -146 -109 -249 -246 -295
-390 -14 -45 -19 -89 -19 -175 0 -108 2 -119 32 -183 45 -96 97 -163 165 -213
126 -93 282 -124 638 -130 135 -1 283 -8 329 -15 93 -13 483 -6 613 11 162 21
252 69 300 160 64 119 7 215 -151 256 -34 8 -70 13 -78 10 -13 -5 -15 1 -9 46
17 148 18 166 7 186 -6 11 -23 22 -37 24 -22 2 -29 11 -39 44 -7 23 -32 78
-56 124 -43 82 -133 183 -244 275 -41 34 -180 100 -270 129 -128 40 -342 57
-440 35z"/>
<path d="M1811 9597 c-38 -47 -39 -67 -47 -683 -4 -329 -7 -611 -8 -627 -1
-17 -8 -29 -20 -33 -22 -7 -66 14 -66 32 0 7 -28 44 -62 82 -154 169 -204 226
-219 248 -8 13 -67 79 -130 146 -63 68 -149 162 -192 209 -110 123 -157 141
-198 75 -19 -29 -20 -50 -18 -351 1 -176 -1 -410 -6 -521 -7 -170 -6 -211 8
-270 9 -38 28 -145 42 -239 14 -93 30 -183 35 -200 5 -16 14 -59 19 -95 12
-82 28 -127 81 -225 96 -179 148 -241 290 -353 21 -17 22 -22 11 -36 -26 -31
16 -65 45 -36 7 7 39 -5 99 -35 49 -25 94 -50 101 -56 10 -8 20 -3 40 20 34
40 82 67 97 52 26 -26 -80 -110 -122 -96 -24 7 -141 -119 -141 -152 0 -13 5
-23 11 -23 6 0 47 38 93 85 l82 86 74 -38 c109 -56 270 -218 375 -380 164
-251 193 -299 214 -358 12 -33 26 -69 31 -80 37 -81 80 -213 105 -325 25 -115
31 -458 11 -635 -29 -256 -52 -393 -89 -523 -16 -59 -31 -79 -62 -85 -92 -17
-168 -65 -201 -128 -32 -64 -9 -131 60 -170 36 -20 57 -24 177 -27 186 -5 209
2 260 80 21 34 39 66 39 72 0 16 64 145 72 145 4 1 23 -24 43 -54 21 -30 41
-58 46 -61 19 -11 8 -24 -38 -44 -88 -39 -133 -98 -133 -175 0 -37 6 -51 33
-80 30 -33 37 -36 107 -40 41 -3 111 -11 155 -17 56 -9 347 -12 965 -13 878
-1 886 -1 953 -22 86 -28 149 -64 167 -97 7 -14 11 -28 9 -30 -8 -8 -399 -17
-724 -16 -191 1 -341 -3 -355 -8 -14 -5 -78 -13 -142 -16 -77 -4 -148 -15
-210 -32 -51 -14 -109 -29 -128 -33 -41 -10 -110 -46 -170 -90 -90 -65 -140
-169 -140 -291 0 -67 4 -80 30 -119 17 -24 30 -47 30 -52 0 -13 63 -47 96 -52
32 -5 129 13 156 29 30 18 74 60 97 94 45 65 114 128 170 156 54 27 62 28 249
32 128 3 202 0 220 -7 15 -6 50 -13 77 -16 28 -3 57 -7 65 -10 8 -2 56 -9 105
-15 50 -6 110 -14 135 -20 25 -5 99 -16 165 -26 66 -9 146 -22 178 -30 32 -8
69 -14 81 -14 12 0 46 -6 76 -14 160 -42 462 -39 531 5 13 8 44 21 68 28 66
19 143 97 177 179 24 57 29 81 29 162 0 94 -1 96 -42 165 -47 79 -120 152
-220 221 -107 74 -141 87 -493 195 -58 18 -106 33 -107 34 -8 5 34 75 45 75
36 0 118 127 182 284 76 184 96 299 94 531 -2 164 -22 295 -70 444 -43 137
-141 329 -225 441 -11 14 -31 43 -46 65 -89 134 -556 628 -693 733 -27 20 -79
60 -115 87 -37 28 -79 62 -94 76 -14 15 -44 36 -66 47 -23 11 -89 56 -147 100
-59 45 -131 97 -160 116 -29 20 -96 67 -148 106 -52 39 -131 95 -175 124 -44
30 -91 66 -104 79 l-23 26 18 50 c20 57 20 57 126 66 91 8 132 31 108 59 -9
12 -21 15 -39 11 -14 -4 -53 -11 -85 -16 -70 -12 -77 -6 -65 54 4 23 8 68 9
100 0 50 4 61 27 81 24 21 26 26 14 40 -8 9 -25 15 -40 14 -20 -2 -27 2 -31
22 -25 108 -165 288 -305 392 -33 24 -96 64 -141 87 -80 43 -81 44 -122 125
-37 72 -83 149 -195 326 -68 107 -203 297 -307 431 -58 75 -141 189 -184 254
-131 193 -206 258 -245 212z m729 -1587 c55 -32 160 -153 160 -185 0 -8 9 -38
20 -67 11 -29 20 -63 20 -74 0 -31 -31 -124 -42 -124 -4 0 -8 -6 -8 -13 0 -8
-6 -14 -14 -14 -7 0 -34 -5 -59 -12 -40 -12 -52 -11 -117 10 -83 26 -148 78
-201 161 -31 48 -34 59 -37 149 -4 88 -2 102 18 135 50 80 157 94 260 34z
m-722 -369 c117 -32 247 -178 267 -301 18 -106 -59 -215 -165 -234 -58 -10
-162 37 -260 117 -31 24 -90 104 -106 142 -11 28 -14 54 -9 94 8 73 27 108 82
151 36 29 55 36 98 38 30 2 71 -2 93 -7z"/>
<path d="M2350 7993 c-46 -32 -49 -128 -7 -214 43 -88 137 -172 206 -184 44
-7 113 21 126 52 58 140 -108 367 -264 360 -24 -1 -51 -7 -61 -14z"/>
<path d="M1700 7581 c-67 -43 -90 -132 -45 -181 8 -9 15 -25 15 -35 0 -36 64
-107 138 -151 36 -22 51 -26 98 -22 61 5 92 27 120 86 15 33 15 39 -1 99 -22
82 -74 148 -146 187 -81 44 -130 49 -179 17z"/>
</g>
</svg>
