<?xml version="1.0" standalone="no"?>
<!DOCTYPE svg PUBLIC "-//W3C//DTD SVG 20010904//EN"
 "http://www.w3.org/TR/2001/REC-SVG-20010904/DTD/svg10.dtd">
<svg version="1.0" xmlns="http://www.w3.org/2000/svg"
 width="704.000000pt" height="1280.000000pt" viewBox="0 0 704.000000 1280.000000"
 preserveAspectRatio="xMidYMid meet">
<metadata>
Created by potrace 1.16, written by Peter Selinger 2001-2019
</metadata>
<g transform="translate(0.000000,1280.000000) scale(0.100000,-0.100000)"
fill="#000000" stroke="none">
<path d="M1235 9333 c-11 -3 -23 -10 -27 -17 -19 -29 -4 -144 37 -276 9 -30
28 -100 42 -155 43 -175 75 -298 100 -385 13 -47 27 -110 32 -140 12 -72 31
-151 42 -172 17 -33 10 -58 -23 -78 -31 -19 -31 -19 -77 5 -25 13 -111 64
-191 114 -209 128 -451 268 -629 363 -86 45 -129 37 -137 -28 -4 -29 7 -75 44
-184 27 -80 61 -185 76 -235 16 -49 39 -124 52 -165 13 -41 32 -115 44 -165
11 -49 25 -99 30 -110 6 -11 21 -54 34 -96 21 -63 180 -390 253 -519 97 -171
133 -223 198 -295 80 -89 120 -113 257 -159 43 -14 112 -32 154 -41 42 -9 85
-20 95 -25 22 -12 36 4 139 158 68 102 77 111 100 106 14 -3 27 -7 29 -9 2 -2
-11 -23 -28 -47 -68 -96 -121 -177 -121 -186 0 -5 -7 -15 -15 -22 -23 -19 -18
-36 14 -57 122 -77 215 -178 344 -373 42 -63 98 -146 124 -185 68 -100 181
-392 210 -545 27 -138 24 -559 -5 -760 -35 -243 -43 -293 -57 -330 -8 -19 -20
-55 -27 -79 -15 -50 -20 -54 -102 -76 -117 -32 -191 -147 -149 -229 36 -71 54
-76 275 -79 181 -2 182 -2 232 100 15 32 41 83 57 114 16 31 29 64 29 73 0 28
14 17 48 -37 18 -28 40 -62 49 -74 15 -22 14 -23 -44 -48 -45 -20 -65 -36 -90
-73 -41 -61 -47 -89 -29 -134 24 -58 64 -79 164 -89 159 -16 613 -27 967 -24
1055 9 1068 8 1203 -74 50 -31 70 -57 55 -72 -4 -4 -95 -11 -202 -14 -107 -4
-204 -10 -215 -15 -12 -4 -48 -3 -81 2 -71 11 -512 4 -705 -11 -88 -6 -166
-19 -225 -36 -49 -14 -108 -30 -130 -34 -94 -20 -218 -106 -263 -183 -48 -83
-71 -258 -37 -292 8 -8 15 -18 15 -22 0 -14 51 -74 73 -86 61 -33 157 -24 230
21 19 11 52 47 74 78 53 75 122 139 176 163 87 38 352 43 522 10 48 -9 97 -16
400 -60 159 -23 318 -52 450 -81 60 -13 133 -20 220 -21 191 -2 227 5 365 66
47 20 126 95 153 143 14 27 33 81 42 120 15 67 15 77 0 130 -26 91 -72 162
-152 238 -117 109 -232 173 -408 224 -126 36 -305 93 -305 96 0 13 35 59 81
105 66 67 125 182 190 370 11 30 28 111 38 180 16 104 17 151 11 280 -12 226
-51 387 -140 578 -57 121 -208 357 -255 397 -7 6 -45 51 -85 100 -41 50 -109
126 -151 170 -42 44 -112 118 -156 164 -82 88 -249 235 -353 311 -34 25 -78
60 -98 78 -20 19 -50 41 -67 50 -32 16 -110 70 -405 280 -102 72 -241 171
-309 219 -68 49 -132 95 -142 103 -18 15 -18 18 7 110 14 52 31 149 37 215
l12 119 50 19 c181 66 185 68 185 94 0 24 -3 25 -38 21 -20 -3 -72 -20 -115
-37 -43 -17 -84 -31 -92 -31 -12 0 -65 116 -65 142 0 7 32 45 72 85 61 62 70
74 58 87 -20 25 -33 20 -105 -48 l-69 -65 -63 59 c-86 81 -167 134 -283 185
-123 55 -195 78 -292 95 l-77 14 -154 145 c-136 130 -369 334 -527 461 -30 25
-73 61 -96 80 -163 141 -316 251 -344 249 -8 -1 -24 -4 -35 -6z m1202 -1160
c115 -63 131 -77 194 -168 38 -53 61 -121 60 -170 -3 -68 -70 -115 -165 -115
-50 0 -71 6 -139 43 -87 46 -128 87 -174 177 -21 42 -28 69 -28 111 1 101 40
131 192 148 7 0 34 -11 60 -26z m-526 -464 c71 -37 166 -128 176 -168 3 -14
13 -36 21 -49 22 -35 18 -125 -8 -167 -44 -72 -141 -103 -231 -74 -114 36
-232 125 -282 212 -37 65 -42 120 -15 175 54 108 208 140 339 71z m-143 -762
c3 -23 -4 -30 -60 -58 -35 -17 -89 -50 -120 -71 -56 -39 -88 -45 -88 -15 0 8
8 21 18 30 34 30 226 147 236 144 6 -2 12 -15 14 -30z"/>
<path d="M2285 8149 c-49 -28 -65 -52 -65 -96 0 -60 31 -116 104 -188 100
-100 185 -123 247 -67 42 37 43 89 4 167 -60 117 -224 221 -290 184z"/>
<path d="M1686 7684 c-49 -18 -76 -45 -76 -78 0 -52 110 -216 145 -216 5 0 16
-9 23 -21 20 -32 99 -62 152 -56 165 18 92 273 -105 366 -52 24 -84 25 -139 5z"/>
</g>
</svg>
