<?xml version="1.0" standalone="no"?>
<!DOCTYPE svg PUBLIC "-//W3C//DTD SVG 20010904//EN"
 "http://www.w3.org/TR/2001/REC-SVG-20010904/DTD/svg10.dtd">
<svg version="1.0" xmlns="http://www.w3.org/2000/svg"
 width="704.000000pt" height="1280.000000pt" viewBox="0 0 704.000000 1280.000000"
 preserveAspectRatio="xMidYMid meet">
<metadata>
Created by potrace 1.16, written by Peter Selinger 2001-2019
</metadata>
<g transform="translate(0.000000,1280.000000) scale(0.100000,-0.100000)"
fill="#000000" stroke="none">
<path d="M2680 8673 c-21 -8 -165 -163 -210 -226 -8 -12 -33 -39 -56 -62 -67
-65 -244 -266 -244 -276 0 -5 -5 -9 -10 -9 -6 0 -21 -11 -33 -25 -20 -23 -30
-25 -127 -29 -58 -2 -143 -9 -189 -15 -97 -14 -109 -11 -252 59 -53 26 -156
71 -230 100 -74 29 -159 63 -190 76 -31 13 -63 24 -70 24 -8 0 -43 14 -79 31
-71 33 -133 57 -251 95 -43 14 -105 38 -139 55 -34 16 -76 33 -94 36 -17 3
-40 10 -50 16 -13 6 -31 5 -57 -3 -33 -11 -40 -19 -45 -48 -10 -55 54 -200
129 -290 19 -22 40 -55 47 -73 13 -32 98 -168 157 -254 16 -21 31 -46 35 -55
4 -8 35 -59 70 -112 35 -54 90 -139 122 -189 l60 -92 -19 -66 c-58 -210 -69
-366 -39 -543 16 -97 54 -230 81 -282 58 -112 199 -263 288 -308 33 -17 71
-38 85 -48 33 -22 167 -72 205 -75 17 -1 50 -8 75 -14 59 -14 239 -14 334 0
l75 11 39 -31 c22 -17 46 -43 53 -59 13 -27 47 -72 112 -147 15 -18 27 -36 27
-40 0 -4 18 -46 41 -94 126 -264 133 -304 126 -692 -3 -151 -8 -290 -11 -309
-4 -19 -14 -80 -22 -135 -8 -55 -19 -119 -25 -143 -5 -23 -12 -59 -15 -80 -3
-20 -11 -46 -17 -57 -6 -11 -10 -22 -9 -25 9 -28 -42 -90 -74 -90 -13 0 -25
-4 -28 -9 -3 -4 -19 -11 -35 -14 -43 -9 -107 -71 -127 -123 -22 -58 -8 -109
38 -144 32 -24 37 -25 221 -25 l189 0 25 30 c28 35 88 150 112 217 l17 47 50
-67 c27 -37 49 -71 49 -75 0 -5 -17 -15 -39 -22 -92 -32 -165 -152 -133 -223
30 -68 71 -79 377 -99 125 -9 885 -8 1255 1 370 8 544 -8 649 -60 38 -20 96
-74 96 -89 0 -17 -192 -25 -600 -25 -362 0 -695 -19 -802 -46 -32 -8 -71 -14
-87 -14 -17 0 -32 -4 -36 -9 -3 -6 -26 -13 -50 -17 -25 -3 -47 -10 -50 -14 -3
-4 -28 -19 -57 -33 -29 -15 -70 -40 -90 -57 -45 -37 -108 -161 -108 -212 0
-19 -5 -49 -11 -67 -24 -68 62 -200 143 -222 85 -23 190 24 258 116 51 68 142
153 185 171 93 39 329 38 540 -2 72 -13 168 -28 215 -34 230 -26 539 -76 615
-100 17 -5 66 -11 110 -14 44 -2 98 -7 120 -11 48 -7 236 25 320 54 119 42
210 152 235 284 34 179 -131 408 -373 517 -62 28 -288 103 -404 135 -80 22
-81 38 -7 110 63 60 75 80 140 215 61 128 60 126 83 205 40 139 54 400 30 572
-15 115 -81 334 -133 447 -46 98 -136 243 -182 293 -13 14 -24 29 -24 33 0 11
-91 123 -208 255 -257 289 -551 548 -782 688 -58 35 -177 108 -265 162 -88 54
-173 106 -190 115 -16 8 -55 32 -86 52 -30 19 -65 38 -76 42 -11 4 -28 15 -38
26 -10 11 -22 20 -28 20 -13 0 -208 118 -234 143 -13 11 -23 26 -23 32 0 12
-40 118 -64 170 -65 141 -96 195 -127 226 l-35 36 -12 264 c-27 568 -35 629
-85 643 -25 7 -26 6 -47 -1z m-340 -1861 c0 -4 -5 -13 -11 -19 -6 -6 -17 -22
-23 -35 -6 -12 -46 -51 -89 -84 -77 -62 -154 -98 -262 -124 -44 -10 -51 -9
-62 7 -12 16 -9 19 29 33 59 21 226 107 265 137 17 13 48 40 68 59 33 31 85
47 85 26z m478 -161 c0 -25 -5 -32 -39 -45 -22 -9 -45 -16 -52 -16 -16 0 -134
-58 -142 -69 -7 -12 -41 -3 -55 14 -16 19 9 40 77 65 32 12 69 28 82 37 14 9
48 22 75 28 28 7 51 13 52 14 1 1 1 -12 2 -28z m-1413 -165 c33 -1 84 3 113 8
49 7 54 7 50 -10 -4 -24 -95 -53 -168 -53 -75 -1 -182 17 -199 34 -28 27 -2
38 73 30 39 -5 98 -9 131 -9z m1508 -102 c21 -4 27 -11 27 -31 0 -24 -2 -25
-42 -19 -59 8 -226 9 -268 2 -42 -7 -82 16 -62 36 23 23 248 30 345 12z"/>
<path d="M925 6306 c-127 -20 -138 -26 -112 -58 11 -13 25 -14 137 -1 143 17
173 26 168 51 -4 22 -81 25 -193 8z"/>
<path d="M1180 6157 c-65 -34 -276 -161 -282 -170 -12 -19 4 -39 27 -33 29 7
247 130 295 166 20 15 22 20 11 34 -16 19 -19 19 -51 3z"/>
</g>
</svg>
