<?xml version="1.0" standalone="no"?>
<!DOCTYPE svg PUBLIC "-//W3C//DTD SVG 20010904//EN"
 "http://www.w3.org/TR/2001/REC-SVG-20010904/DTD/svg10.dtd">
<svg version="1.0" xmlns="http://www.w3.org/2000/svg"
 width="704.000000pt" height="1280.000000pt" viewBox="0 0 704.000000 1280.000000"
 preserveAspectRatio="xMidYMid meet">
<metadata>
Created by potrace 1.16, written by Peter Selinger 2001-2019
</metadata>
<g transform="translate(0.000000,1280.000000) scale(0.100000,-0.100000)"
fill="#000000" stroke="none">
<path d="M4615 9889 c-151 -32 -214 -52 -305 -98 -121 -61 -261 -176 -337
-276 -35 -46 -85 -141 -109 -206 -25 -72 -30 -217 -9 -297 76 -291 337 -419
845 -411 91 1 237 -4 325 -11 130 -11 202 -11 385 -2 242 13 295 21 380 59
103 45 150 110 150 205 0 49 -3 54 -48 98 -36 35 -63 50 -108 63 -33 9 -71 17
-83 17 -22 0 -23 3 -18 38 4 20 9 70 13 109 7 80 -2 103 -40 103 -18 0 -27 13
-50 73 -36 92 -101 204 -126 217 -11 6 -51 41 -88 79 -118 118 -299 206 -484
236 -101 16 -229 18 -293 4z"/>
<path d="M1844 9612 c-45 -57 -47 -69 -40 -198 5 -72 4 -130 -2 -141 -5 -10
-15 -202 -21 -428 -17 -607 -18 -616 -57 -584 -10 8 -60 66 -111 129 -106 131
-160 193 -317 370 -61 69 -126 143 -146 165 -67 77 -152 155 -175 161 -35 9
-62 -3 -74 -34 -6 -16 -12 -138 -14 -297 -2 -148 -9 -301 -15 -340 -14 -94
-18 -477 -4 -540 5 -27 15 -90 22 -140 7 -49 23 -145 36 -213 13 -68 24 -138
24 -155 0 -41 20 -97 70 -200 53 -109 67 -131 122 -203 71 -92 242 -241 305
-265 40 -15 83 -10 125 13 30 17 43 20 56 12 54 -34 -7 -68 -111 -63 -57 4
-66 1 -114 -31 -29 -19 -51 -39 -49 -45 6 -18 76 -8 107 14 46 34 78 36 149 7
35 -14 70 -26 78 -26 23 0 12 -13 -99 -127 -107 -110 -135 -146 -124 -163 11
-18 32 -10 59 23 15 17 70 76 122 130 68 69 101 96 113 92 9 -3 44 -29 78 -58
96 -82 222 -241 319 -401 30 -50 73 -116 95 -148 22 -31 44 -71 49 -90 5 -18
20 -64 35 -103 14 -38 33 -88 41 -110 50 -132 72 -261 81 -480 6 -165 -10
-435 -32 -530 -7 -33 -19 -103 -25 -155 -16 -123 -18 -132 -30 -144 -5 -5 -10
-21 -10 -36 -1 -14 -9 -41 -18 -60 -14 -27 -25 -36 -57 -42 -129 -26 -205
-102 -205 -208 0 -17 12 -39 35 -62 46 -46 103 -57 265 -54 148 2 169 11 218
91 17 29 32 57 32 62 0 4 16 40 36 80 l37 72 30 -47 c16 -26 38 -57 50 -69 11
-13 19 -25 16 -27 -2 -2 -29 -15 -60 -30 -92 -43 -143 -139 -113 -211 24 -58
66 -79 174 -87 248 -18 642 -27 1020 -22 886 10 931 9 1077 -42 48 -17 130
-85 120 -101 -10 -17 -273 -26 -679 -24 -233 1 -385 -2 -396 -8 -10 -5 -78
-12 -151 -15 -120 -6 -175 -15 -266 -47 -16 -6 -48 -15 -70 -19 -45 -10 -125
-51 -171 -89 -17 -14 -40 -32 -52 -40 -11 -8 -25 -24 -31 -35 -37 -76 -50
-121 -56 -197 l-7 -87 36 -56 c47 -73 85 -96 156 -95 30 1 68 4 83 8 38 8 118
76 151 128 31 49 108 118 151 137 101 44 322 51 515 15 63 -11 156 -25 205
-29 50 -5 108 -13 130 -19 22 -5 65 -13 95 -16 91 -10 239 -33 345 -55 317
-64 483 -62 633 6 29 13 56 24 60 24 17 0 112 109 140 160 46 83 57 155 37
232 -20 79 -48 126 -125 210 -62 68 -155 136 -241 177 -56 26 -200 79 -254 93
-100 26 -245 73 -245 79 0 3 25 33 56 65 92 97 160 219 215 388 40 121 54 230
53 411 -2 330 -81 584 -273 875 -80 122 -342 430 -475 559 -36 35 -66 67 -66
71 0 8 -185 171 -249 220 -18 14 -68 54 -113 90 -44 36 -109 83 -143 105 -35
22 -98 67 -140 100 -42 33 -93 70 -113 82 -51 31 -65 41 -141 99 -36 28 -94
69 -127 91 -34 22 -81 56 -103 75 -49 42 -46 45 72 58 89 10 97 14 97 41 0 17
-7 19 -57 19 -32 0 -91 -7 -131 -17 -45 -10 -76 -13 -82 -7 -5 5 -1 32 11 69
33 100 58 145 89 163 22 12 30 25 30 45 0 23 -5 29 -30 33 -40 8 -47 19 -55
84 -13 104 -109 256 -234 372 -38 35 -117 92 -175 128 l-107 65 -54 113 c-63
130 -133 259 -214 387 -53 86 -79 124 -223 329 -125 178 -170 242 -220 316
-28 41 -78 109 -111 150 -84 106 -115 121 -153 72z m721 -1751 c58 -26 149
-114 174 -166 48 -102 11 -193 -107 -265 -48 -29 -59 -32 -104 -27 -132 16
-205 139 -184 310 8 60 31 93 101 139 48 32 67 33 120 9z m-621 -407 c87 -48
146 -137 146 -218 0 -37 -61 -147 -100 -179 -16 -14 -50 -33 -76 -43 -40 -15
-52 -16 -92 -5 -54 14 -67 25 -133 108 -37 46 -53 77 -65 125 -14 59 -14 65 3
103 10 22 32 59 48 83 24 34 35 42 55 38 14 -2 34 0 45 4 44 18 121 11 169
-16z"/>
<path d="M2462 7804 c-72 -57 -81 -135 -29 -236 36 -71 75 -98 140 -98 45 0
109 31 131 62 21 29 20 101 -1 146 -33 69 -138 152 -192 152 -9 0 -31 -12 -49
-26z"/>
<path d="M1802 7398 c-57 -28 -82 -65 -82 -122 0 -118 135 -232 221 -186 10 6
37 34 59 61 49 62 53 110 15 175 -48 82 -134 112 -213 72z"/>
</g>
</svg>
