<?xml version="1.0" standalone="no"?>
<!DOCTYPE svg PUBLIC "-//W3C//DTD SVG 20010904//EN"
 "http://www.w3.org/TR/2001/REC-SVG-20010904/DTD/svg10.dtd">
<svg version="1.0" xmlns="http://www.w3.org/2000/svg"
 width="704.000000pt" height="1280.000000pt" viewBox="0 0 704.000000 1280.000000"
 preserveAspectRatio="xMidYMid meet">
<metadata>
Created by potrace 1.16, written by Peter Selinger 2001-2019
</metadata>
<g transform="translate(0.000000,1280.000000) scale(0.100000,-0.100000)"
fill="#000000" stroke="none">
<path d="M5580 10092 c0 -15 9 -22 30 -27 17 -4 30 -9 30 -11 0 -3 -16 -20
-35 -38 -19 -19 -35 -41 -35 -49 0 -22 45 -44 100 -48 36 -3 45 -1 48 13 2 12
-5 19 -25 24 -68 15 -67 13 -18 58 58 54 58 72 3 81 -24 3 -55 8 -70 11 -23 5
-28 2 -28 -14z"/>
<path d="M5850 10055 c0 -8 7 -27 16 -40 l16 -25 -39 0 c-50 0 -78 -19 -69
-47 8 -26 88 -113 104 -113 20 0 14 27 -13 58 -14 17 -25 33 -25 36 0 3 29 6
65 6 80 0 82 9 22 82 -44 54 -77 73 -77 43z"/>
<path d="M4625 9894 c-11 -3 -67 -17 -125 -31 -223 -54 -432 -202 -554 -393
-37 -58 -51 -85 -88 -179 -5 -14 -12 -71 -15 -127 -7 -113 3 -158 59 -269 36
-72 74 -114 151 -167 68 -46 136 -72 267 -100 77 -16 139 -21 325 -23 127 -2
266 -7 310 -12 138 -14 609 -6 698 12 160 32 237 77 276 160 39 82 21 150 -53
204 -40 28 -135 61 -178 61 -21 0 -22 8 -6 116 14 98 5 131 -38 136 -22 2 -29
11 -39 43 -28 96 -88 189 -193 296 -95 98 -112 111 -215 163 -151 76 -272 107
-437 112 -69 1 -134 1 -145 -2z"/>
<path d="M1822 9603 c-7 -3 -21 -22 -32 -43 -18 -35 -20 -72 -27 -541 -4 -277
-8 -561 -8 -631 0 -120 -1 -128 -21 -137 -18 -8 -25 -4 -45 22 -12 17 -77 92
-143 166 -67 73 -137 155 -156 181 -19 25 -74 87 -122 136 -48 49 -99 105
-113 124 -44 61 -189 201 -214 207 -31 8 -52 -6 -73 -48 -16 -30 -17 -70 -17
-349 1 -186 -3 -345 -10 -387 -15 -97 -12 -270 5 -363 8 -41 21 -118 29 -170
8 -52 24 -144 36 -205 11 -60 27 -150 35 -200 15 -92 28 -138 48 -158 7 -7 20
-30 30 -51 55 -117 190 -286 286 -357 30 -23 33 -28 21 -43 -7 -8 -10 -23 -7
-32 5 -12 14 -14 45 -9 32 5 51 0 117 -33 116 -58 113 -58 158 -12 21 22 45
40 52 40 26 0 14 -42 -20 -74 l-34 -32 32 -22 c17 -11 40 -24 51 -28 26 -10
152 -103 189 -140 16 -16 40 -45 55 -64 14 -19 29 -37 32 -40 3 -3 41 -59 84
-125 42 -66 104 -159 135 -208 32 -48 68 -117 80 -153 13 -37 29 -78 36 -93 8
-14 14 -30 14 -36 0 -5 13 -44 29 -85 91 -232 104 -571 41 -1015 -30 -213 -42
-279 -50 -290 -4 -5 -10 -26 -14 -45 -9 -52 -32 -80 -66 -80 -57 0 -156 -59
-189 -114 -41 -66 -16 -146 59 -190 31 -19 52 -21 196 -21 119 0 168 4 187 14
26 14 48 53 118 209 19 40 37 71 41 70 4 -2 28 -32 53 -68 l46 -65 -56 -27
c-83 -40 -124 -96 -125 -170 0 -63 36 -106 100 -118 158 -29 343 -34 1168 -33
l842 2 92 -24 c116 -30 212 -95 183 -124 -12 -12 -300 -22 -740 -26 -181 -1
-391 -7 -465 -12 -126 -9 -292 -43 -314 -64 -6 -5 -25 -9 -42 -9 -18 0 -35 -4
-38 -9 -3 -5 -30 -20 -59 -34 -108 -53 -178 -147 -197 -263 -19 -117 -14 -153
33 -214 24 -30 59 -64 79 -75 34 -18 41 -18 99 -6 100 20 138 46 196 131 39
58 113 123 172 152 41 20 65 22 234 26 151 3 200 1 245 -12 31 -8 111 -22 177
-31 199 -25 441 -64 610 -97 183 -36 419 -56 474 -40 20 6 56 15 81 20 25 6
72 20 105 32 111 38 196 150 226 298 23 111 -35 237 -166 359 -57 53 -110 92
-167 120 -88 46 -229 100 -290 112 -59 13 -248 75 -248 82 0 4 30 38 68 77 53
54 79 93 121 178 70 143 66 134 95 249 34 135 41 212 39 396 -3 235 -46 421
-146 625 -46 92 -139 243 -189 304 -167 207 -261 313 -429 486 -124 128 -254
245 -359 324 -40 30 -89 69 -109 86 -20 18 -54 42 -76 54 -22 12 -89 59 -150
104 -60 45 -139 102 -175 126 -36 24 -85 59 -110 79 -25 20 -72 54 -105 76
-33 22 -93 64 -132 94 -81 60 -87 74 -53 140 l19 39 87 7 c67 6 91 12 107 28
19 19 19 20 2 34 -11 7 -26 11 -34 8 -15 -4 -83 -14 -126 -18 -19 -2 -20 3
-17 103 4 95 6 108 28 131 27 28 18 49 -23 49 -13 0 -23 4 -23 10 0 5 -19 48
-41 94 -30 61 -67 113 -130 183 -85 95 -132 130 -346 260 -13 7 -29 29 -37 47
-55 131 -453 728 -541 811 -6 6 -24 30 -41 55 -96 146 -257 355 -300 389 -27
21 -38 24 -62 14z m727 -1601 c73 -49 141 -140 169 -225 12 -37 22 -78 22 -91
0 -37 -26 -113 -46 -133 -28 -28 -110 -45 -166 -35 -189 36 -334 286 -255 442
49 98 166 116 276 42z m-707 -373 c49 -19 116 -66 158 -111 29 -31 90 -163 90
-195 0 -16 -7 -52 -15 -81 -28 -94 -114 -143 -221 -127 -66 10 -197 101 -256
179 -57 76 -68 113 -53 186 14 67 21 80 62 114 70 59 146 70 235 35z"/>
<path d="M2397 8003 c-41 -4 -51 -9 -67 -36 -37 -61 -20 -143 53 -248 44 -64
115 -115 173 -124 39 -6 51 -3 85 19 21 15 41 37 45 52 26 101 -77 275 -191
324 -26 11 -47 19 -48 18 -1 -1 -24 -3 -50 -5z"/>
<path d="M1714 7593 c-53 -31 -61 -37 -73 -60 -15 -30 -14 -90 3 -121 8 -15
17 -40 21 -55 6 -31 78 -106 137 -143 40 -26 106 -32 151 -15 14 6 38 27 54
47 22 30 28 47 26 83 -3 92 -59 179 -151 235 -73 43 -126 53 -168 29z"/>
</g>
</svg>
