<?xml version="1.0" standalone="no"?>
<!DOCTYPE svg PUBLIC "-//W3C//DTD SVG 20010904//EN"
 "http://www.w3.org/TR/2001/REC-SVG-20010904/DTD/svg10.dtd">
<svg version="1.0" xmlns="http://www.w3.org/2000/svg"
 width="704.000000pt" height="1280.000000pt" viewBox="0 0 704.000000 1280.000000"
 preserveAspectRatio="xMidYMid meet">
<metadata>
Created by potrace 1.16, written by Peter Selinger 2001-2019
</metadata>
<g transform="translate(0.000000,1280.000000) scale(0.100000,-0.100000)"
fill="#000000" stroke="none">
<path d="M3885 10100 c-33 -16 -89 -52 -125 -79 -64 -49 -66 -50 -136 -51
-130 0 -272 -31 -382 -81 -105 -48 -194 -111 -261 -185 -56 -61 -63 -92 -23
-109 12 -5 22 -17 22 -25 0 -16 62 -67 131 -108 90 -54 292 -119 422 -137 43
-6 51 -11 86 -59 49 -66 90 -86 126 -62 14 9 25 23 25 31 0 21 17 19 51 -6 41
-29 91 -35 112 -14 24 23 21 46 -8 77 -14 15 -25 31 -25 35 0 4 46 16 103 25
178 30 374 104 498 190 13 9 25 5 60 -19 100 -69 188 -98 259 -87 59 10 62 35
11 92 -112 128 -120 183 -47 308 45 79 47 84 47 164 0 45 -2 84 -5 87 -2 3
-18 2 -34 -2 -40 -8 -98 -67 -194 -197 l-79 -107 -98 44 c-124 55 -224 89
-326 110 -44 9 -81 18 -83 19 -2 2 11 24 29 49 27 39 30 49 19 62 -7 8 -23 15
-36 15 -19 0 -23 5 -21 23 3 34 -46 33 -118 -3z m915 -104 c0 -66 -10 -95 -57
-163 -32 -47 -36 -59 -36 -120 -1 -79 19 -127 77 -182 42 -40 48 -67 14 -57
-13 3 -26 6 -30 6 -5 0 -8 5 -8 12 0 6 -11 25 -23 42 -39 50 -48 73 -53 133
-3 31 -11 68 -19 82 -14 28 -6 63 17 77 9 5 9 2 -2 -12 -14 -19 -14 -19 8 0
12 11 22 25 22 31 0 7 7 16 16 19 8 3 13 10 9 15 -3 5 -1 12 5 16 14 9 12 65
-2 66 -10 0 -10 2 0 6 6 2 12 9 12 14 0 6 -6 7 -12 3 -13 -8 -2 9 31 49 24 28
31 20 31 -37z m-1077 -73 c-38 -4 -43 -7 -43 -29 0 -23 -3 -24 -62 -23 -45 1
-56 3 -38 8 21 6 16 9 -25 12 -36 4 -52 1 -58 -8 -7 -11 -12 -11 -23 -2 -11 9
-14 7 -14 -12 0 -13 -6 -32 -13 -41 -12 -15 -14 -15 -25 3 -7 10 -23 19 -36
19 -19 0 -24 -5 -22 -24 0 -13 4 -22 8 -20 3 2 19 -21 33 -51 22 -44 27 -65
23 -103 -5 -48 -34 -122 -48 -122 -10 0 5 57 20 75 6 7 9 38 8 70 -1 31 -4 52
-6 46 -7 -22 -21 -10 -24 22 -2 26 -8 33 -30 35 -16 2 -30 11 -33 23 -8 23
-35 26 -35 3 0 -13 -6 -15 -27 -9 -41 10 -52 24 -25 31 12 4 22 10 22 14 0 4
8 10 18 13 9 2 25 8 35 12 13 6 16 3 11 -9 -7 -17 -4 -19 20 -10 8 3 13 11 10
18 -9 23 222 63 361 63 43 0 48 -2 18 -4z"/>
<path d="M1144 9254 c-7 -50 6 -127 36 -202 24 -59 70 -211 70 -228 0 -8 9
-44 21 -81 30 -102 90 -294 101 -328 6 -16 12 -45 14 -64 3 -18 11 -49 19 -68
8 -20 15 -45 15 -57 0 -11 7 -34 15 -49 13 -26 13 -31 -3 -52 -9 -13 -29 -29
-44 -36 -25 -10 -37 -6 -125 42 -54 28 -123 65 -153 82 -30 16 -66 37 -80 47
-14 9 -88 50 -165 90 -77 40 -145 77 -151 82 -30 23 -269 138 -288 138 -31 0
-55 -20 -61 -50 -5 -25 2 -47 95 -310 52 -147 99 -290 166 -500 61 -194 226
-508 423 -805 25 -38 80 -103 121 -145 62 -63 85 -80 135 -97 98 -33 196 -61
260 -73 33 -6 80 -18 105 -27 55 -20 202 -126 256 -185 61 -66 178 -225 229
-313 26 -44 64 -102 85 -130 37 -49 72 -129 143 -330 58 -164 70 -250 75 -515
3 -212 1 -253 -22 -420 -29 -207 -52 -333 -65 -358 -4 -9 -11 -33 -15 -51 -10
-56 -31 -78 -78 -86 -116 -20 -202 -112 -190 -206 5 -43 52 -89 102 -101 25
-6 109 -10 188 -10 190 2 182 -4 284 219 18 39 36 71 39 70 7 -2 99 -134 99
-142 0 -3 -9 -5 -21 -5 -11 0 -40 -12 -64 -26 -57 -33 -95 -97 -95 -159 0 -63
44 -111 111 -119 237 -28 576 -34 1674 -28 338 2 341 1 422 -24 96 -29 178
-80 178 -109 0 -18 -9 -21 -115 -28 -63 -4 -299 -9 -525 -11 -416 -3 -679 -15
-726 -34 -14 -6 -39 -12 -55 -15 -100 -16 -208 -59 -287 -113 -66 -46 -84 -66
-121 -144 -25 -52 -31 -81 -34 -145 -4 -82 4 -107 58 -181 38 -53 120 -72 201
-48 63 19 72 27 212 188 88 100 144 117 370 117 84 0 180 -7 225 -15 42 -8
109 -19 147 -25 39 -5 102 -15 140 -21 91 -14 121 -18 230 -31 86 -10 295 -48
380 -69 68 -16 307 -26 375 -15 71 12 123 26 159 45 22 11 47 20 54 20 23 0
121 101 146 150 34 65 49 152 39 218 -23 144 -161 303 -342 394 -55 27 -273
110 -279 105 -4 -3 -232 66 -240 74 -13 11 11 49 62 99 62 60 171 264 201 375
37 133 41 162 46 345 4 149 2 215 -9 280 -20 114 -60 263 -94 347 -48 119
-175 328 -265 437 -196 236 -246 291 -488 536 -41 41 -133 122 -205 178 -71
56 -148 117 -170 136 -22 18 -56 41 -75 51 -19 10 -79 51 -133 91 -54 41 -115
83 -135 93 -21 11 -85 56 -142 101 -58 46 -148 111 -200 146 -127 85 -187 128
-214 153 -12 12 -27 21 -34 21 -6 0 -16 9 -22 20 -8 15 -6 35 10 82 34 101 49
195 46 295 -2 58 2 97 8 102 6 5 56 28 111 52 120 52 145 67 139 83 -8 22 -55
16 -132 -16 -42 -17 -81 -34 -87 -38 -5 -4 -22 -10 -36 -13 -25 -6 -28 -2 -58
64 l-32 72 80 82 c45 45 81 86 81 90 0 4 -8 13 -17 20 -15 11 -28 3 -96 -59
-43 -39 -82 -73 -88 -74 -5 -2 -34 19 -65 47 -108 99 -329 206 -494 240 -57
12 -116 21 -131 21 -29 0 -50 16 -214 165 -44 40 -93 84 -110 96 -16 13 -62
51 -100 84 -151 128 -549 434 -659 506 -45 30 -69 39 -102 39 l-43 0 -7 -46z
m1304 -1044 c34 -16 66 -30 71 -30 14 0 117 -122 152 -180 24 -41 32 -67 33
-102 0 -57 -19 -81 -89 -114 -68 -32 -121 -30 -213 8 -101 41 -186 126 -202
203 -24 110 -24 158 -1 187 52 66 149 77 249 28z m-525 -464 c108 -48 237
-202 237 -283 0 -39 -41 -121 -77 -155 -41 -39 -101 -52 -171 -37 -99 20 -160
56 -248 144 -80 80 -82 83 -89 142 -6 51 -3 67 14 101 21 42 67 83 111 101 14
5 57 10 96 10 55 1 84 -5 127 -23z m-119 -742 c12 -31 5 -41 -56 -74 -35 -18
-92 -52 -127 -76 -66 -44 -81 -47 -81 -14 0 18 65 80 85 80 5 0 39 23 75 50
68 52 94 60 104 34z m133 -144 c2 -8 -24 -53 -58 -100 -34 -47 -75 -113 -92
-147 -32 -64 -53 -77 -76 -49 -15 17 -10 27 59 131 103 156 128 187 149 183 9
-2 17 -10 18 -18z"/>
<path d="M2281 8187 c-61 -41 -66 -94 -16 -182 37 -65 113 -147 160 -173 37
-20 123 -22 158 -3 31 17 47 57 47 122 0 42 -6 55 -50 110 -63 78 -115 117
-176 129 -27 5 -58 12 -69 14 -11 3 -35 -5 -54 -17z"/>
<path d="M1743 7711 c-38 -24 -60 -56 -69 -98 -9 -44 27 -107 103 -180 70 -68
105 -83 190 -83 46 0 56 4 86 34 45 45 54 92 29 149 -62 137 -248 235 -339
178z"/>
</g>
</svg>
