<?xml version="1.0" standalone="no"?>
<!DOCTYPE svg PUBLIC "-//W3C//DTD SVG 20010904//EN"
 "http://www.w3.org/TR/2001/REC-SVG-20010904/DTD/svg10.dtd">
<svg version="1.0" xmlns="http://www.w3.org/2000/svg"
 width="704.000000pt" height="1280.000000pt" viewBox="0 0 704.000000 1280.000000"
 preserveAspectRatio="xMidYMid meet">
<metadata>
Created by potrace 1.16, written by Peter Selinger 2001-2019
</metadata>
<g transform="translate(0.000000,1280.000000) scale(0.100000,-0.100000)"
fill="#000000" stroke="none">
<path d="M1164 9296 c-35 -26 -20 -185 23 -251 7 -11 13 -30 13 -42 0 -12 6
-40 14 -60 8 -21 29 -90 46 -153 37 -138 65 -231 96 -325 12 -38 26 -90 29
-115 4 -25 14 -57 21 -72 8 -15 14 -36 14 -48 0 -12 7 -34 15 -50 14 -27 14
-32 0 -54 -9 -13 -29 -29 -45 -36 -26 -11 -35 -8 -97 26 -37 20 -102 55 -143
77 -41 22 -111 61 -155 87 -97 57 -368 203 -416 225 -18 8 -41 20 -49 25 -74
46 -137 50 -158 10 -15 -29 -9 -99 12 -133 7 -12 34 -80 59 -152 46 -132 52
-150 126 -380 23 -71 52 -161 64 -198 12 -38 25 -71 29 -74 5 -2 8 -12 8 -21
1 -17 10 -37 103 -217 50 -96 72 -134 138 -242 23 -37 48 -81 56 -96 41 -78
201 -287 246 -320 56 -42 171 -79 409 -132 61 -13 90 -26 141 -63 35 -26 72
-52 83 -58 49 -28 249 -285 330 -425 20 -35 52 -83 70 -105 33 -41 58 -100
110 -252 13 -41 31 -86 38 -101 20 -37 56 -230 56 -295 0 -29 5 -78 11 -109
17 -97 -10 -407 -66 -761 -8 -49 -19 -94 -25 -100 -5 -5 -10 -21 -10 -36 0
-14 -9 -39 -19 -56 -15 -25 -29 -34 -63 -39 -88 -15 -163 -75 -188 -150 -10
-31 -9 -44 5 -80 29 -77 78 -90 326 -87 137 2 146 8 199 122 4 8 22 45 39 82
17 36 31 71 31 77 0 23 17 8 62 -57 l47 -66 -45 -22 c-53 -25 -83 -52 -119
-105 -25 -35 -26 -41 -16 -91 16 -76 55 -101 170 -110 214 -17 608 -27 961
-23 619 8 951 6 1010 -6 104 -20 178 -49 222 -89 30 -27 40 -41 32 -49 -6 -7
-80 -14 -185 -17 -198 -7 -708 -6 -720 2 -5 2 -64 -2 -133 -11 -68 -8 -153
-15 -188 -15 -110 0 -345 -62 -437 -114 -118 -67 -164 -121 -195 -230 -48
-164 19 -311 150 -332 31 -4 57 -1 98 15 77 29 102 46 139 100 59 87 126 149
186 173 78 30 351 38 480 13 123 -23 240 -42 456 -71 66 -9 210 -33 320 -55
202 -39 252 -44 425 -40 100 2 132 9 218 47 29 13 58 24 65 24 23 0 119 104
147 160 59 117 57 200 -6 324 -54 107 -164 209 -299 278 -66 33 -244 98 -310
113 -16 3 -74 20 -127 37 l-98 31 22 31 c12 17 44 53 72 81 73 73 179 303 207
450 20 105 39 252 39 308 0 77 -36 310 -65 417 -34 130 -103 284 -178 401 -79
123 -98 149 -165 227 -37 42 -80 93 -95 112 -122 152 -436 463 -582 577 -71
56 -148 116 -170 133 -22 17 -63 46 -92 63 -60 37 -224 153 -368 261 -55 41
-140 101 -190 135 -49 33 -110 76 -135 96 -25 19 -68 50 -95 69 -70 47 -79 59
-65 87 7 12 23 69 37 128 19 84 23 127 21 209 l-3 104 80 33 c162 66 175 73
175 95 0 29 -48 27 -110 -5 -73 -37 -158 -67 -170 -60 -5 3 -10 11 -10 17 0 6
-12 35 -27 65 l-27 53 83 84 c58 58 82 89 78 100 -12 30 -50 17 -97 -32 -25
-26 -59 -60 -76 -75 l-31 -28 -51 46 c-149 135 -351 231 -560 266 l-113 18
-97 87 c-298 264 -321 283 -627 519 -65 50 -143 110 -173 135 -88 70 -213 150
-237 150 -12 0 -30 -6 -41 -14z m1300 -1090 c29 -14 57 -26 62 -26 5 0 17 -12
27 -27 9 -16 35 -48 57 -73 78 -86 113 -175 90 -229 -12 -31 -86 -78 -139 -89
-25 -6 -53 -3 -91 8 -48 15 -79 28 -166 73 -28 15 -86 92 -101 136 -17 47 -27
142 -19 174 3 15 26 38 53 57 44 29 53 31 111 27 39 -3 82 -15 116 -31z m-557
-456 c129 -59 237 -184 247 -284 11 -122 -129 -229 -255 -196 -89 24 -177 80
-249 157 -62 68 -68 79 -75 130 -5 44 -3 65 12 97 33 74 83 105 188 116 33 4
61 8 63 8 1 1 32 -12 69 -28z m-109 -742 c26 -26 12 -46 -57 -81 -38 -20 -92
-52 -119 -71 -27 -20 -57 -36 -66 -36 -23 0 -20 33 7 57 24 23 207 143 217
143 3 0 11 -5 18 -12z m130 -137 c12 -7 11 -14 -2 -38 -8 -17 -26 -44 -39 -59
-39 -48 -117 -179 -117 -198 0 -32 -56 -32 -67 1 -4 10 31 66 130 213 62 92
69 98 95 81z"/>
<path d="M2279 8185 c-61 -33 -60 -113 3 -208 61 -91 77 -107 143 -138 122
-58 203 -21 211 98 4 62 -64 162 -146 216 -52 35 -70 41 -123 43 -39 2 -72 -2
-88 -11z"/>
<path d="M1746 7719 c-24 -15 -51 -42 -71 -72 -15 -23 -15 -29 0 -74 14 -44
81 -133 100 -133 4 0 16 -11 26 -24 46 -59 155 -82 230 -49 39 17 53 38 64 97
14 71 -65 178 -170 229 -61 30 -151 43 -179 26z"/>
</g>
</svg>
