<?xml version="1.0" standalone="no"?>
<!DOCTYPE svg PUBLIC "-//W3C//DTD SVG 20010904//EN"
 "http://www.w3.org/TR/2001/REC-SVG-20010904/DTD/svg10.dtd">
<svg version="1.0" xmlns="http://www.w3.org/2000/svg"
 width="704.000000pt" height="1280.000000pt" viewBox="0 0 704.000000 1280.000000"
 preserveAspectRatio="xMidYMid meet">
<metadata>
Created by potrace 1.16, written by Peter Selinger 2001-2019
</metadata>
<g transform="translate(0.000000,1280.000000) scale(0.100000,-0.100000)"
fill="#000000" stroke="none">
<path d="M5693 10174 c-6 -16 19 -45 50 -57 7 -3 -6 -23 -35 -51 -27 -26 -48
-51 -48 -56 0 -18 59 -47 121 -60 87 -19 95 5 13 42 -24 10 -44 23 -44 27 0 5
25 28 55 51 30 23 55 48 55 55 0 8 -30 23 -67 36 -38 12 -74 24 -80 27 -7 2
-16 -4 -20 -14z"/>
<path d="M6021 10102 c-9 -17 -7 -28 10 -56 l21 -36 -59 0 c-35 0 -67 -6 -79
-14 -19 -14 -19 -15 3 -52 32 -57 86 -123 101 -124 20 0 14 33 -13 72 -14 20
-25 40 -25 44 0 4 38 4 84 0 46 -4 87 -3 89 1 6 10 -61 113 -114 177 -4 4 -12
-1 -18 -12z"/>
<path d="M5501 10052 c-19 -6 2 -32 25 -32 29 0 29 -4 4 -44 -27 -45 -18 -103
16 -103 14 0 29 8 34 18 6 10 22 19 37 21 43 5 36 32 -9 36 -21 2 -38 6 -38 9
0 3 9 21 21 40 30 48 20 65 -36 61 -25 -2 -49 -4 -54 -6z"/>
<path d="M4585 9889 c-185 -44 -293 -92 -421 -187 -140 -104 -248 -243 -296
-381 -30 -87 -33 -281 -5 -349 25 -61 83 -151 124 -191 126 -123 356 -184 688
-180 99 0 250 -5 335 -12 124 -10 203 -10 390 -1 129 6 258 17 285 23 177 40
289 158 256 269 -23 76 -99 127 -218 145 -49 8 -48 4 -32 121 14 95 1 139 -40
139 -19 0 -26 8 -36 40 -21 73 -107 226 -135 244 -15 9 -44 35 -63 59 -48 57
-81 83 -168 135 -158 93 -326 138 -511 136 -62 -1 -131 -5 -153 -10z"/>
<path d="M1810 9597 c-34 -26 -40 -72 -46 -332 -7 -308 -9 -974 -3 -994 2 -8
-7 -17 -24 -22 -22 -6 -29 -3 -39 14 -17 32 -297 356 -423 488 -60 64 -153
161 -205 217 -103 110 -135 131 -170 112 -41 -22 -45 -50 -46 -370 -1 -168 -6
-350 -12 -405 -11 -111 -1 -414 15 -455 6 -14 18 -77 28 -140 9 -63 23 -137
30 -165 8 -27 17 -75 20 -105 21 -176 45 -238 160 -410 67 -100 110 -150 187
-217 43 -36 47 -44 42 -72 -7 -35 4 -39 51 -21 21 8 32 6 54 -9 14 -11 57 -33
94 -50 l68 -31 50 40 c56 44 69 48 69 22 0 -45 -70 -99 -105 -80 -16 10 -29 0
-92 -68 -74 -80 -85 -100 -58 -110 10 -4 43 23 98 81 l82 87 47 -26 c133 -71
230 -152 314 -261 51 -66 138 -196 173 -260 19 -33 51 -83 71 -111 21 -28 45
-73 55 -100 9 -27 32 -89 52 -139 60 -153 74 -205 103 -395 18 -121 11 -430
-15 -610 -2 -19 -7 -59 -10 -89 -3 -30 -8 -58 -11 -62 -2 -4 -9 -45 -14 -91
-10 -81 -27 -150 -56 -234 -14 -40 -17 -42 -76 -54 -110 -21 -188 -95 -188
-179 0 -33 7 -49 35 -80 42 -47 62 -51 239 -57 173 -5 195 1 240 73 20 32 36
64 36 73 0 9 17 47 37 85 32 60 38 67 47 51 6 -10 28 -42 49 -70 l37 -51 -43
-20 c-58 -27 -107 -64 -107 -79 0 -8 -7 -20 -16 -27 -13 -10 -15 -26 -12 -73
4 -49 9 -63 31 -82 38 -33 80 -41 267 -54 228 -15 1122 -23 1180 -10 30 7 152
7 365 2 307 -9 323 -10 393 -35 67 -23 162 -86 162 -107 0 -5 -8 -11 -19 -15
-27 -8 -350 -17 -726 -19 -328 -2 -573 -16 -650 -37 -22 -6 -65 -20 -96 -30
-31 -10 -66 -19 -78 -19 -30 0 -151 -70 -201 -116 -63 -59 -98 -141 -106 -249
l-6 -90 39 -55 c51 -73 89 -92 173 -87 36 2 81 12 100 22 44 22 100 75 100 94
0 24 121 132 179 158 97 46 334 47 553 3 53 -11 114 -20 136 -20 22 0 70 -6
108 -14 38 -8 130 -22 204 -31 74 -9 162 -22 195 -30 200 -45 295 -58 440 -59
227 -1 412 88 475 229 49 107 56 155 36 227 -41 149 -155 277 -331 374 -61 34
-223 96 -300 116 -98 26 -235 71 -235 78 0 4 31 40 70 80 96 101 182 275 223
450 47 205 47 460 -2 675 -31 137 -92 297 -147 387 -16 26 -48 78 -71 115 -78
127 -288 376 -535 635 -84 88 -210 200 -283 254 -41 29 -92 70 -170 135 -24
20 -70 52 -102 70 -32 18 -69 43 -83 56 -32 28 -170 127 -200 143 -13 7 -55
38 -94 69 -39 31 -81 63 -93 71 -192 131 -243 167 -247 177 -3 7 2 33 11 58
18 55 38 65 142 75 55 5 78 12 88 26 11 15 11 20 0 32 -11 10 -27 11 -78 3
-115 -19 -107 -26 -101 92 4 93 6 104 28 120 13 10 24 27 24 37 0 20 -28 34
-52 25 -11 -4 -21 9 -36 52 -27 73 -64 131 -138 213 -94 104 -142 144 -259
214 -60 36 -113 69 -118 73 -4 4 -55 91 -113 193 -58 102 -113 194 -123 205
-10 11 -24 31 -31 45 -18 35 -124 192 -187 275 -29 39 -93 124 -144 190 -50
65 -106 143 -125 172 -39 62 -68 97 -145 176 -56 57 -80 67 -109 44z m715
-1583 c47 -23 70 -44 114 -104 97 -130 116 -222 71 -328 -20 -46 -26 -52 -59
-57 -20 -4 -47 -11 -60 -16 -16 -7 -27 -7 -35 1 -5 5 -23 10 -40 10 -16 0 -50
12 -75 26 -47 27 -131 102 -131 116 0 5 -12 27 -26 49 -22 35 -25 53 -27 137
-2 109 13 150 68 184 45 26 127 19 200 -18z m-644 -406 c83 -43 119 -86 181
-211 29 -57 32 -91 14 -144 -43 -124 -166 -178 -279 -122 -58 29 -184 126
-199 154 -70 125 -68 117 -56 192 9 64 14 75 52 111 22 22 57 45 76 51 56 16
148 3 211 -31z"/>
<path d="M2395 8003 c-11 -2 -30 -6 -41 -8 -30 -7 -53 -59 -47 -109 7 -62 56
-155 110 -209 58 -59 83 -73 146 -82 47 -7 50 -6 88 31 34 34 39 44 39 85 0
84 -55 177 -144 245 -34 25 -111 58 -127 53 -2 -1 -13 -3 -24 -6z"/>
<path d="M1719 7602 c-20 -9 -61 -43 -78 -65 -23 -29 -24 -94 -1 -117 11 -11
20 -31 20 -44 0 -44 96 -140 181 -180 62 -29 148 5 175 70 33 78 4 175 -73
251 -67 65 -177 107 -224 85z"/>
</g>
</svg>
